<?xml version="1.0" encoding="utf-8"?>
<!-- Generator: Adobe Illustrator 20.1.0, SVG Export Plug-In . SVG Version: 6.00 Build 0)  -->
<svg version="1.1" id="Layer_1" xmlns="http://www.w3.org/2000/svg" xmlns:xlink="http://www.w3.org/1999/xlink" x="0px" y="0px"
	 viewBox="0 0 292.2 649.2" style="enable-background:new 0 0 292.2 649.2;" xml:space="preserve">
<style type="text/css">
	.st0{fill:#FFFFFF;}
	.st1{fill:#D9F6E1;}
	.st2{fill:#737373;}
	.st3{font-family:'OsnovaPro';}
	.st4{font-size:8px;}
	.st5{fill:#7B878F;}
	.st6{font-family:'OsnovaProLight';}
	.st7{font-size:9px;}
</style>
<path class="st0" d="M167.1,106.9L167.1,106.9c-4.6,0-8.3-3.7-8.3-8.3v0c0-4.6,3.7-8.3,8.3-8.3h0c4.6,0,8.3,3.7,8.3,8.3v0
	C175.4,103.2,171.7,106.9,167.1,106.9z"/>
<path class="st0" d="M189.7,106.9L189.7,106.9c-4.6,0-8.3-3.7-8.3-8.3v0c0-4.6,3.7-8.3,8.3-8.3h0c4.6,0,8.3,3.7,8.3,8.3v0
	C198,103.2,194.3,106.9,189.7,106.9z"/>
<path class="st0" d="M212.3,106.9L212.3,106.9c-4.6,0-8.3-3.7-8.3-8.3v0c0-4.6,3.7-8.3,8.3-8.3h0c4.6,0,8.3,3.7,8.3,8.3v0
	C220.6,103.2,216.8,106.9,212.3,106.9z"/>
<path class="st0" d="M167.1,84.3L167.1,84.3c-4.6,0-8.3-3.7-8.3-8.3v0c0-4.6,3.7-8.3,8.3-8.3h0c4.6,0,8.3,3.7,8.3,8.3v0
	C175.4,80.6,171.7,84.3,167.1,84.3z"/>
<path class="st0" d="M189.7,84.3L189.7,84.3c-4.6,0-8.3-3.7-8.3-8.3v0c0-4.6,3.7-8.3,8.3-8.3h0c4.6,0,8.3,3.7,8.3,8.3v0
	C198,80.6,194.3,84.3,189.7,84.3z"/>
<path class="st0" d="M212.3,84.3L212.3,84.3c-4.6,0-8.3-3.7-8.3-8.3v0c0-4.6,3.7-8.3,8.3-8.3h0c4.6,0,8.3,3.7,8.3,8.3v0
	C220.6,80.6,216.8,84.3,212.3,84.3z"/>
<path class="st0" d="M167.2,129.5L167.2,129.5c-4.6,0-8.3-3.7-8.3-8.3v0c0-4.6,3.7-8.3,8.3-8.3h0c4.6,0,8.3,3.7,8.3,8.3v0
	C175.4,125.7,171.7,129.5,167.2,129.5z"/>
<path class="st0" d="M189.7,129.5L189.7,129.5c-4.6,0-8.3-3.7-8.3-8.3v0c0-4.6,3.7-8.3,8.3-8.3h0c4.6,0,8.3,3.7,8.3,8.3v0
	C198,125.7,194.3,129.5,189.7,129.5z"/>
<path class="st0" d="M212.3,129.5L212.3,129.5c-4.6,0-8.3-3.7-8.3-8.3v0c0-4.6,3.7-8.3,8.3-8.3h0c4.6,0,8.3,3.7,8.3,8.3v0
	C220.6,125.7,216.9,129.5,212.3,129.5z"/>
<path class="st0" d="M167.1,174.6L167.1,174.6c-4.6,0-8.3-3.7-8.3-8.3v0c0-4.6,3.7-8.3,8.3-8.3h0c4.6,0,8.3,3.7,8.3,8.3v0
	C175.4,170.9,171.7,174.6,167.1,174.6z"/>
<path class="st0" d="M189.7,174.6L189.7,174.6c-4.6,0-8.3-3.7-8.3-8.3v0c0-4.6,3.7-8.3,8.3-8.3h0c4.6,0,8.3,3.7,8.3,8.3v0
	C198,170.9,194.3,174.6,189.7,174.6z"/>
<path class="st0" d="M212.3,174.6L212.3,174.6c-4.6,0-8.3-3.7-8.3-8.3v0c0-4.6,3.7-8.3,8.3-8.3h0c4.6,0,8.3,3.7,8.3,8.3v0
	C220.6,170.9,216.8,174.6,212.3,174.6z"/>
<path class="st0" d="M167.1,152L167.1,152c-4.6,0-8.3-3.7-8.3-8.3v0c0-4.6,3.7-8.3,8.3-8.3h0c4.6,0,8.3,3.7,8.3,8.3v0
	C175.4,148.3,171.7,152,167.1,152z"/>
<path class="st0" d="M189.7,152L189.7,152c-4.6,0-8.3-3.7-8.3-8.3v0c0-4.6,3.7-8.3,8.3-8.3h0c4.6,0,8.3,3.7,8.3,8.3v0
	C198,148.3,194.3,152,189.7,152z"/>
<path class="st0" d="M212.3,152L212.3,152c-4.6,0-8.3-3.7-8.3-8.3v0c0-4.6,3.7-8.3,8.3-8.3h0c4.6,0,8.3,3.7,8.3,8.3v0
	C220.6,148.3,216.8,152,212.3,152z"/>
<path class="st0" d="M167.2,197.2L167.2,197.2c-4.6,0-8.3-3.7-8.3-8.3v0c0-4.6,3.7-8.3,8.3-8.3h0c4.6,0,8.3,3.7,8.3,8.3v0
	C175.4,193.5,171.7,197.2,167.2,197.2z"/>
<path class="st0" d="M189.7,197.2L189.7,197.2c-4.6,0-8.3-3.7-8.3-8.3v0c0-4.6,3.7-8.3,8.3-8.3h0c4.6,0,8.3,3.7,8.3,8.3v0
	C198,193.5,194.3,197.2,189.7,197.2z"/>
<path class="st0" d="M212.3,197.2L212.3,197.2c-4.6,0-8.3-3.7-8.3-8.3v0c0-4.6,3.7-8.3,8.3-8.3h0c4.6,0,8.3,3.7,8.3,8.3v0
	C220.6,193.5,216.9,197.2,212.3,197.2z"/>
<path class="st0" d="M167.1,219.8L167.1,219.8c-4.6,0-8.3-3.7-8.3-8.3v0c0-4.6,3.7-8.3,8.3-8.3h0c4.6,0,8.3,3.7,8.3,8.3v0
	C175.4,216,171.7,219.8,167.1,219.8z"/>
<path class="st0" d="M167.2,423.1L167.2,423.1c-4.6,0-8.3-3.7-8.3-8.3v0c0-4.6,3.7-8.3,8.3-8.3h0c4.6,0,8.3,3.7,8.3,8.3v0
	C175.5,419.4,171.7,423.1,167.2,423.1z"/>
<path class="st0" d="M189.7,423.1L189.7,423.1c-4.6,0-8.3-3.7-8.3-8.3v0c0-4.6,3.7-8.3,8.3-8.3h0c4.6,0,8.3,3.7,8.3,8.3v0
	C198,419.4,194.3,423.1,189.7,423.1z"/>
<path class="st0" d="M212.3,423.1L212.3,423.1c-4.6,0-8.3-3.7-8.3-8.3v0c0-4.6,3.7-8.3,8.3-8.3h0c4.6,0,8.3,3.7,8.3,8.3v0
	C220.6,419.4,216.9,423.1,212.3,423.1z"/>
<path class="st0" d="M189.7,468.2L189.7,468.2c-4.6,0-8.3-3.7-8.3-8.3v0c0-4.6,3.7-8.3,8.3-8.3h0c4.6,0,8.3,3.7,8.3,8.3v0
	C198,464.5,194.3,468.2,189.7,468.2z"/>
<path class="st0" d="M212.3,468.2L212.3,468.2c-4.6,0-8.3-3.7-8.3-8.3v0c0-4.6,3.7-8.3,8.3-8.3h0c4.6,0,8.3,3.7,8.3,8.3v0
	C220.6,464.5,216.8,468.2,212.3,468.2z"/>
<path class="st0" d="M167.2,445.7L167.2,445.7c-4.6,0-8.3-3.7-8.3-8.3v0c0-4.6,3.7-8.3,8.3-8.3h0c4.6,0,8.3,3.7,8.3,8.3v0
	C175.4,441.9,171.7,445.7,167.2,445.7z"/>
<path class="st0" d="M189.7,445.7L189.7,445.7c-4.6,0-8.3-3.7-8.3-8.3v0c0-4.6,3.7-8.3,8.3-8.3h0c4.6,0,8.3,3.7,8.3,8.3v0
	C198,441.9,194.3,445.7,189.7,445.7z"/>
<path class="st0" d="M212.3,445.7L212.3,445.7c-4.6,0-8.3-3.7-8.3-8.3v0c0-4.6,3.7-8.3,8.3-8.3h0c4.6,0,8.3,3.7,8.3,8.3v0
	C220.6,441.9,216.8,445.7,212.3,445.7z"/>
<path class="st0" d="M77,61.8L77,61.8c-4.6,0-8.3-3.7-8.3-8.3v0c0-4.6,3.7-8.3,8.3-8.3h0c4.6,0,8.3,3.7,8.3,8.3v0
	C85.3,58,81.6,61.8,77,61.8z"/>
<path class="st0" d="M77,39.2L77,39.2c-4.6,0-8.3-3.7-8.3-8.3v0c0-4.6,3.7-8.3,8.3-8.3h0c4.6,0,8.3,3.7,8.3,8.3v0
	C85.3,35.5,81.6,39.2,77,39.2z"/>
<path class="st0" d="M77,106.9L77,106.9c-4.6,0-8.3-3.7-8.3-8.3v0c0-4.6,3.7-8.3,8.3-8.3h0c4.6,0,8.3,3.7,8.3,8.3v0
	C85.3,103.2,81.6,106.9,77,106.9z"/>
<path class="st0" d="M99.6,106.9L99.6,106.9c-4.6,0-8.3-3.7-8.3-8.3v0c0-4.6,3.7-8.3,8.3-8.3h0c4.6,0,8.3,3.7,8.3,8.3v0
	C107.9,103.2,104.2,106.9,99.6,106.9z"/>
<path class="st0" d="M122.2,106.9L122.2,106.9c-4.6,0-8.3-3.7-8.3-8.3v0c0-4.6,3.7-8.3,8.3-8.3h0c4.6,0,8.3,3.7,8.3,8.3v0
	C130.5,103.2,126.7,106.9,122.2,106.9z"/>
<path class="st0" d="M144.8,106.9L144.8,106.9c-4.6,0-8.3-3.7-8.3-8.3v0c0-4.6,3.7-8.3,8.3-8.3h0c4.6,0,8.3,3.7,8.3,8.3v0
	C153,103.2,149.3,106.9,144.8,106.9z"/>
<path class="st0" d="M77,84.3L77,84.3c-4.6,0-8.3-3.7-8.3-8.3v0c0-4.6,3.7-8.3,8.3-8.3h0c4.6,0,8.3,3.7,8.3,8.3v0
	C85.3,80.6,81.6,84.3,77,84.3z"/>
<path class="st0" d="M99.6,84.3L99.6,84.3c-4.6,0-8.3-3.7-8.3-8.3v0c0-4.6,3.7-8.3,8.3-8.3h0c4.6,0,8.3,3.7,8.3,8.3v0
	C107.9,80.6,104.2,84.3,99.6,84.3z"/>
<path class="st0" d="M122.2,84.3L122.2,84.3c-4.6,0-8.3-3.7-8.3-8.3v0c0-4.6,3.7-8.3,8.3-8.3h0c4.6,0,8.3,3.7,8.3,8.3v0
	C130.5,80.6,126.7,84.3,122.2,84.3z"/>
<path class="st0" d="M144.8,84.3L144.8,84.3c-4.6,0-8.3-3.7-8.3-8.3v0c0-4.6,3.7-8.3,8.3-8.3h0c4.6,0,8.3,3.7,8.3,8.3v0
	C153,80.6,149.3,84.3,144.8,84.3z"/>
<path class="st0" d="M99.6,129.5L99.6,129.5c-4.6,0-8.3-3.7-8.3-8.3v0c0-4.6,3.7-8.3,8.3-8.3h0c4.6,0,8.3,3.7,8.3,8.3v0
	C107.9,125.7,104.2,129.5,99.6,129.5z"/>
<path class="st0" d="M122.2,129.5L122.2,129.5c-4.6,0-8.3-3.7-8.3-8.3v0c0-4.6,3.7-8.3,8.3-8.3h0c4.6,0,8.3,3.7,8.3,8.3v0
	C130.5,125.7,126.8,129.5,122.2,129.5z"/>
<path class="st0" d="M144.8,129.5L144.8,129.5c-4.6,0-8.3-3.7-8.3-8.3v0c0-4.6,3.7-8.3,8.3-8.3h0c4.6,0,8.3,3.7,8.3,8.3v0
	C153.1,125.7,149.3,129.5,144.8,129.5z"/>
<path class="st0" d="M167.1,39.5L167.1,39.5c-4.6,0-8.3-3.7-8.3-8.3v0c0-4.6,3.7-8.3,8.3-8.3h0c4.6,0,8.3,3.7,8.3,8.3v0
	C175.4,35.8,171.7,39.5,167.1,39.5z"/>
<path class="st0" d="M189.7,39.5L189.7,39.5c-4.6,0-8.3-3.7-8.3-8.3v0c0-4.6,3.7-8.3,8.3-8.3h0c4.6,0,8.3,3.7,8.3,8.3v0
	C198,35.8,194.3,39.5,189.7,39.5z"/>
<path class="st0" d="M212.3,39.5L212.3,39.5c-4.6,0-8.3-3.7-8.3-8.3v0c0-4.6,3.7-8.3,8.3-8.3h0c4.6,0,8.3,3.7,8.3,8.3v0
	C220.6,35.8,216.8,39.5,212.3,39.5z"/>
<path class="st1" d="M167.1,16.9L167.1,16.9c-4.6,0-8.3-3.7-8.3-8.3v0c0-4.6,3.7-8.3,8.3-8.3h0c4.6,0,8.3,3.7,8.3,8.3v0
	C175.4,13.2,171.7,16.9,167.1,16.9z"/>
<path class="st0" d="M167.2,62L167.2,62c-4.6,0-8.3-3.7-8.3-8.3v0c0-4.6,3.7-8.3,8.3-8.3h0c4.6,0,8.3,3.7,8.3,8.3v0
	C175.4,58.3,171.7,62,167.2,62z"/>
<path class="st0" d="M189.7,62L189.7,62c-4.6,0-8.3-3.7-8.3-8.3v0c0-4.6,3.7-8.3,8.3-8.3h0c4.6,0,8.3,3.7,8.3,8.3v0
	C198,58.3,194.3,62,189.7,62z"/>
<path class="st0" d="M212.3,62L212.3,62c-4.6,0-8.3-3.7-8.3-8.3v0c0-4.6,3.7-8.3,8.3-8.3h0c4.6,0,8.3,3.7,8.3,8.3v0
	C220.6,58.3,216.9,62,212.3,62z"/>
<path class="st0" d="M99.6,39.5L99.6,39.5c-4.6,0-8.3-3.7-8.3-8.3v0c0-4.6,3.7-8.3,8.3-8.3h0c4.6,0,8.3,3.7,8.3,8.3v0
	C107.9,35.8,104.2,39.5,99.6,39.5z"/>
<path class="st0" d="M122.2,39.5L122.2,39.5c-4.6,0-8.3-3.7-8.3-8.3v0c0-4.6,3.7-8.3,8.3-8.3h0c4.6,0,8.3,3.7,8.3,8.3v0
	C130.5,35.8,126.7,39.5,122.2,39.5z"/>
<path class="st0" d="M144.8,39.5L144.8,39.5c-4.6,0-8.3-3.7-8.3-8.3v0c0-4.6,3.7-8.3,8.3-8.3h0c4.6,0,8.3,3.7,8.3,8.3v0
	C153,35.8,149.3,39.5,144.8,39.5z"/>
<path class="st1" d="M99.6,16.9L99.6,16.9c-4.6,0-8.3-3.7-8.3-8.3v0c0-4.6,3.7-8.3,8.3-8.3h0c4.6,0,8.3,3.7,8.3,8.3v0
	C107.9,13.2,104.2,16.9,99.6,16.9z"/>
<path class="st1" d="M122.2,16.9L122.2,16.9c-4.6,0-8.3-3.7-8.3-8.3v0c0-4.6,3.7-8.3,8.3-8.3h0c4.6,0,8.3,3.7,8.3,8.3v0
	C130.5,13.2,126.7,16.9,122.2,16.9z"/>
<path class="st1" d="M144.8,16.9L144.8,16.9c-4.6,0-8.3-3.7-8.3-8.3v0c0-4.6,3.7-8.3,8.3-8.3h0c4.6,0,8.3,3.7,8.3,8.3v0
	C153,13.2,149.3,16.9,144.8,16.9z"/>
<path class="st0" d="M99.6,62L99.6,62c-4.6,0-8.3-3.7-8.3-8.3v0c0-4.6,3.7-8.3,8.3-8.3h0c4.6,0,8.3,3.7,8.3,8.3v0
	C107.9,58.3,104.2,62,99.6,62z"/>
<path class="st0" d="M122.2,62L122.2,62c-4.6,0-8.3-3.7-8.3-8.3v0c0-4.6,3.7-8.3,8.3-8.3h0c4.6,0,8.3,3.7,8.3,8.3v0
	C130.5,58.3,126.8,62,122.2,62z"/>
<path class="st0" d="M144.8,62L144.8,62c-4.6,0-8.3-3.7-8.3-8.3v0c0-4.6,3.7-8.3,8.3-8.3h0c4.6,0,8.3,3.7,8.3,8.3v0
	C153.1,58.3,149.3,62,144.8,62z"/>
<path class="st0" d="M122.2,174.6L122.2,174.6c-4.6,0-8.3-3.7-8.3-8.3v0c0-4.6,3.7-8.3,8.3-8.3h0c4.6,0,8.3,3.7,8.3,8.3v0
	C130.5,170.9,126.7,174.6,122.2,174.6z"/>
<path class="st0" d="M144.7,174.6L144.7,174.6c-4.6,0-8.3-3.7-8.3-8.3v0c0-4.6,3.7-8.3,8.3-8.3h0c4.6,0,8.3,3.7,8.3,8.3v0
	C153,170.9,149.3,174.6,144.7,174.6z"/>
<path class="st0" d="M122.2,152L122.2,152c-4.6,0-8.3-3.7-8.3-8.3v0c0-4.6,3.7-8.3,8.3-8.3h0c4.6,0,8.3,3.7,8.3,8.3v0
	C130.5,148.3,126.7,152,122.2,152z"/>
<path class="st0" d="M144.7,152L144.7,152c-4.6,0-8.3-3.7-8.3-8.3v0c0-4.6,3.7-8.3,8.3-8.3h0c4.6,0,8.3,3.7,8.3,8.3v0
	C153,148.3,149.3,152,144.7,152z"/>
<path class="st0" d="M77.1,423.1L77.1,423.1c-4.6,0-8.3-3.7-8.3-8.3v0c0-4.6,3.7-8.3,8.3-8.3h0c4.6,0,8.3,3.7,8.3,8.3v0
	C85.4,419.4,81.6,423.1,77.1,423.1z"/>
<path class="st0" d="M99.6,423.1L99.6,423.1c-4.6,0-8.3-3.7-8.3-8.3v0c0-4.6,3.7-8.3,8.3-8.3h0c4.6,0,8.3,3.7,8.3,8.3v0
	C107.9,419.4,104.2,423.1,99.6,423.1z"/>
<path class="st0" d="M122.2,423.1L122.2,423.1c-4.6,0-8.3-3.7-8.3-8.3v0c0-4.6,3.7-8.3,8.3-8.3h0c4.6,0,8.3,3.7,8.3,8.3v0
	C130.5,419.4,126.8,423.1,122.2,423.1z"/>
<path class="st0" d="M8.3,423.1L8.3,423.1c-4.6,0-8.3-3.7-8.3-8.3v0c0-4.6,3.7-8.3,8.3-8.3h0c4.6,0,8.3,3.7,8.3,8.3v0
	C16.6,419.4,12.8,423.1,8.3,423.1z"/>
<path class="st0" d="M30.9,423.1L30.9,423.1c-4.6,0-8.3-3.7-8.3-8.3v0c0-4.6,3.7-8.3,8.3-8.3h0c4.6,0,8.3,3.7,8.3,8.3v0
	C39.1,419.4,35.4,423.1,30.9,423.1z"/>
<path class="st0" d="M53.4,423.1L53.4,423.1c-4.6,0-8.3-3.7-8.3-8.3v0c0-4.6,3.7-8.3,8.3-8.3h0c4.6,0,8.3,3.7,8.3,8.3v0
	C61.7,419.4,58,423.1,53.4,423.1z"/>
<path class="st0" d="M77.1,445.7L77.1,445.7c-4.6,0-8.3-3.7-8.3-8.3l0,0c0-4.6,3.7-8.3,8.3-8.3h0c4.6,0,8.3,3.7,8.3,8.3l0,0
	C85.4,442,81.6,445.7,77.1,445.7z"/>
<path class="st0" d="M99.6,445.7L99.6,445.7c-4.6,0-8.3-3.7-8.3-8.3l0,0c0-4.6,3.7-8.3,8.3-8.3h0c4.6,0,8.3,3.7,8.3,8.3l0,0
	C107.9,442,104.2,445.7,99.6,445.7z"/>
<path class="st0" d="M8.3,445.7L8.3,445.7c-4.6,0-8.3-3.7-8.3-8.3l0,0c0-4.6,3.7-8.3,8.3-8.3h0c4.6,0,8.3,3.7,8.3,8.3l0,0
	C16.6,442,12.8,445.7,8.3,445.7z"/>
<path class="st0" d="M30.9,445.7L30.9,445.7c-4.6,0-8.3-3.7-8.3-8.3l0,0c0-4.6,3.7-8.3,8.3-8.3h0c4.6,0,8.3,3.7,8.3,8.3l0,0
	C39.1,442,35.4,445.7,30.9,445.7z"/>
<path class="st0" d="M53.4,445.7L53.4,445.7c-4.6,0-8.3-3.7-8.3-8.3l0,0c0-4.6,3.7-8.3,8.3-8.3h0c4.6,0,8.3,3.7,8.3,8.3l0,0
	C61.7,442,58,445.7,53.4,445.7z"/>
<path class="st0" d="M77.1,468.3L77.1,468.3c-4.6,0-8.3-3.7-8.3-8.3v0c0-4.6,3.7-8.3,8.3-8.3h0c4.6,0,8.3,3.7,8.3,8.3v0
	C85.4,464.6,81.6,468.3,77.1,468.3z"/>
<path class="st0" d="M99.6,468.3L99.6,468.3c-4.6,0-8.3-3.7-8.3-8.3v0c0-4.6,3.7-8.3,8.3-8.3h0c4.6,0,8.3,3.7,8.3,8.3v0
	C107.9,464.6,104.2,468.3,99.6,468.3z"/>
<path class="st0" d="M8.3,468.3L8.3,468.3c-4.6,0-8.3-3.7-8.3-8.3v0c0-4.6,3.7-8.3,8.3-8.3h0c4.6,0,8.3,3.7,8.3,8.3v0
	C16.6,464.6,12.8,468.3,8.3,468.3z"/>
<path class="st0" d="M30.9,468.3L30.9,468.3c-4.6,0-8.3-3.7-8.3-8.3v0c0-4.6,3.7-8.3,8.3-8.3h0c4.6,0,8.3,3.7,8.3,8.3v0
	C39.1,464.6,35.4,468.3,30.9,468.3z"/>
<path class="st0" d="M53.4,468.3L53.4,468.3c-4.6,0-8.3-3.7-8.3-8.3v0c0-4.6,3.7-8.3,8.3-8.3h0c4.6,0,8.3,3.7,8.3,8.3v0
	C61.7,464.6,58,468.3,53.4,468.3z"/>
<path class="st0" d="M145.8,468.3L145.8,468.3c-4.6,0-8.3-3.7-8.3-8.3v0c0-4.6,3.7-8.3,8.3-8.3h0c4.6,0,8.3,3.7,8.3,8.3v0
	C154.1,464.6,150.4,468.3,145.8,468.3z"/>
<path class="st0" d="M168.4,468.3L168.4,468.3c-4.6,0-8.3-3.7-8.3-8.3v0c0-4.6,3.7-8.3,8.3-8.3h0c4.6,0,8.3,3.7,8.3,8.3v0
	C176.7,464.6,173,468.3,168.4,468.3z"/>
<path class="st0" d="M122.2,468.3L122.2,468.3c-4.6,0-8.3-3.7-8.3-8.3v0c0-4.6,3.7-8.3,8.3-8.3h0c4.6,0,8.3,3.7,8.3,8.3v0
	C130.5,464.6,126.7,468.3,122.2,468.3z"/>
<path class="st0" d="M77.1,490.9L77.1,490.9c-4.6,0-8.3-3.7-8.3-8.3v0c0-4.6,3.7-8.3,8.3-8.3h0c4.6,0,8.3,3.7,8.3,8.3v0
	C85.4,487.1,81.6,490.9,77.1,490.9z"/>
<path class="st0" d="M99.6,490.9L99.6,490.9c-4.6,0-8.3-3.7-8.3-8.3v0c0-4.6,3.7-8.3,8.3-8.3h0c4.6,0,8.3,3.7,8.3,8.3v0
	C107.9,487.1,104.2,490.9,99.6,490.9z"/>
<path class="st0" d="M8.3,490.9L8.3,490.9c-4.6,0-8.3-3.7-8.3-8.3v0c0-4.6,3.7-8.3,8.3-8.3h0c4.6,0,8.3,3.7,8.3,8.3v0
	C16.6,487.1,12.8,490.9,8.3,490.9z"/>
<path class="st0" d="M30.9,490.9L30.9,490.9c-4.6,0-8.3-3.7-8.3-8.3v0c0-4.6,3.7-8.3,8.3-8.3h0c4.6,0,8.3,3.7,8.3,8.3v0
	C39.1,487.1,35.4,490.9,30.9,490.9z"/>
<path class="st0" d="M53.4,490.9L53.4,490.9c-4.6,0-8.3-3.7-8.3-8.3v0c0-4.6,3.7-8.3,8.3-8.3h0c4.6,0,8.3,3.7,8.3,8.3v0
	C61.7,487.1,58,490.9,53.4,490.9z"/>
<path class="st0" d="M145.8,490.9L145.8,490.9c-4.6,0-8.3-3.7-8.3-8.3v0c0-4.6,3.7-8.3,8.3-8.3h0c4.6,0,8.3,3.7,8.3,8.3v0
	C154.1,487.1,150.4,490.9,145.8,490.9z"/>
<path class="st0" d="M168.4,490.9L168.4,490.9c-4.6,0-8.3-3.7-8.3-8.3v0c0-4.6,3.7-8.3,8.3-8.3h0c4.6,0,8.3,3.7,8.3,8.3v0
	C176.7,487.1,173,490.9,168.4,490.9z"/>
<path class="st0" d="M122.2,490.9L122.2,490.9c-4.6,0-8.3-3.7-8.3-8.3v0c0-4.6,3.7-8.3,8.3-8.3h0c4.6,0,8.3,3.7,8.3,8.3v0
	C130.5,487.1,126.7,490.9,122.2,490.9z"/>
<path class="st0" d="M212.4,490.9L212.4,490.9c-4.6,0-8.3-3.7-8.3-8.3v0c0-4.6,3.7-8.3,8.3-8.3h0c4.6,0,8.3,3.7,8.3,8.3v0
	C220.7,487.1,217,490.9,212.4,490.9z"/>
<path class="st0" d="M189.8,490.9L189.8,490.9c-4.6,0-8.3-3.7-8.3-8.3v0c0-4.6,3.7-8.3,8.3-8.3h0c4.6,0,8.3,3.7,8.3,8.3v0
	C198.1,487.1,194.3,490.9,189.8,490.9z"/>
<path class="st0" d="M77.1,513.5L77.1,513.5c-4.6,0-8.3-3.7-8.3-8.3l0,0c0-4.6,3.7-8.3,8.3-8.3h0c4.6,0,8.3,3.7,8.3,8.3l0,0
	C85.4,509.7,81.6,513.5,77.1,513.5z"/>
<path class="st0" d="M99.6,513.5L99.6,513.5c-4.6,0-8.3-3.7-8.3-8.3l0,0c0-4.6,3.7-8.3,8.3-8.3h0c4.6,0,8.3,3.7,8.3,8.3l0,0
	C107.9,509.7,104.2,513.5,99.6,513.5z"/>
<path class="st0" d="M8.3,513.5L8.3,513.5c-4.6,0-8.3-3.7-8.3-8.3l0,0c0-4.6,3.7-8.3,8.3-8.3h0c4.6,0,8.3,3.7,8.3,8.3l0,0
	C16.6,509.7,12.8,513.5,8.3,513.5z"/>
<path class="st0" d="M30.9,513.5L30.9,513.5c-4.6,0-8.3-3.7-8.3-8.3l0,0c0-4.6,3.7-8.3,8.3-8.3h0c4.6,0,8.3,3.7,8.3,8.3l0,0
	C39.1,509.7,35.4,513.5,30.9,513.5z"/>
<path class="st0" d="M53.4,513.5L53.4,513.5c-4.6,0-8.3-3.7-8.3-8.3l0,0c0-4.6,3.7-8.3,8.3-8.3h0c4.6,0,8.3,3.7,8.3,8.3l0,0
	C61.7,509.7,58,513.5,53.4,513.5z"/>
<path class="st0" d="M145.8,513.5L145.8,513.5c-4.6,0-8.3-3.7-8.3-8.3l0,0c0-4.6,3.7-8.3,8.3-8.3h0c4.6,0,8.3,3.7,8.3,8.3l0,0
	C154.1,509.7,150.4,513.5,145.8,513.5z"/>
<path class="st0" d="M168.4,513.5L168.4,513.5c-4.6,0-8.3-3.7-8.3-8.3l0,0c0-4.6,3.7-8.3,8.3-8.3h0c4.6,0,8.3,3.7,8.3,8.3l0,0
	C176.7,509.7,173,513.5,168.4,513.5z"/>
<path class="st0" d="M122.2,513.5L122.2,513.5c-4.6,0-8.3-3.7-8.3-8.3l0,0c0-4.6,3.7-8.3,8.3-8.3h0c4.6,0,8.3,3.7,8.3,8.3l0,0
	C130.5,509.7,126.7,513.5,122.2,513.5z"/>
<path class="st0" d="M212.4,513.5L212.4,513.5c-4.6,0-8.3-3.7-8.3-8.3l0,0c0-4.6,3.7-8.3,8.3-8.3h0c4.6,0,8.3,3.7,8.3,8.3l0,0
	C220.7,509.7,217,513.5,212.4,513.5z"/>
<path class="st0" d="M189.8,513.5L189.8,513.5c-4.6,0-8.3-3.7-8.3-8.3l0,0c0-4.6,3.7-8.3,8.3-8.3h0c4.6,0,8.3,3.7,8.3,8.3l0,0
	C198.1,509.7,194.3,513.5,189.8,513.5z"/>
<path class="st0" d="M77.1,536L77.1,536c-4.6,0-8.3-3.7-8.3-8.3v0c0-4.6,3.7-8.3,8.3-8.3h0c4.6,0,8.3,3.7,8.3,8.3v0
	C85.4,532.3,81.6,536,77.1,536z"/>
<path class="st0" d="M99.6,536L99.6,536c-4.6,0-8.3-3.7-8.3-8.3v0c0-4.6,3.7-8.3,8.3-8.3h0c4.6,0,8.3,3.7,8.3,8.3v0
	C107.9,532.3,104.2,536,99.6,536z"/>
<path class="st0" d="M8.3,536L8.3,536c-4.6,0-8.3-3.7-8.3-8.3v0c0-4.6,3.7-8.3,8.3-8.3h0c4.6,0,8.3,3.7,8.3,8.3v0
	C16.6,532.3,12.8,536,8.3,536z"/>
<path class="st0" d="M30.9,536L30.9,536c-4.6,0-8.3-3.7-8.3-8.3v0c0-4.6,3.7-8.3,8.3-8.3h0c4.6,0,8.3,3.7,8.3,8.3v0
	C39.1,532.3,35.4,536,30.9,536z"/>
<path class="st0" d="M53.4,536L53.4,536c-4.6,0-8.3-3.7-8.3-8.3v0c0-4.6,3.7-8.3,8.3-8.3h0c4.6,0,8.3,3.7,8.3,8.3v0
	C61.7,532.3,58,536,53.4,536z"/>
<path class="st0" d="M145.8,536L145.8,536c-4.6,0-8.3-3.7-8.3-8.3v0c0-4.6,3.7-8.3,8.3-8.3h0c4.6,0,8.3,3.7,8.3,8.3v0
	C154.1,532.3,150.4,536,145.8,536z"/>
<path class="st0" d="M168.4,536L168.4,536c-4.6,0-8.3-3.7-8.3-8.3v0c0-4.6,3.7-8.3,8.3-8.3h0c4.6,0,8.3,3.7,8.3,8.3v0
	C176.7,532.3,173,536,168.4,536z"/>
<path class="st0" d="M122.2,536L122.2,536c-4.6,0-8.3-3.7-8.3-8.3v0c0-4.6,3.7-8.3,8.3-8.3h0c4.6,0,8.3,3.7,8.3,8.3v0
	C130.5,532.3,126.7,536,122.2,536z"/>
<path class="st0" d="M212.4,536L212.4,536c-4.6,0-8.3-3.7-8.3-8.3v0c0-4.6,3.7-8.3,8.3-8.3h0c4.6,0,8.3,3.7,8.3,8.3v0
	C220.7,532.3,217,536,212.4,536z"/>
<path class="st0" d="M189.8,536L189.8,536c-4.6,0-8.3-3.7-8.3-8.3v0c0-4.6,3.7-8.3,8.3-8.3h0c4.6,0,8.3,3.7,8.3,8.3v0
	C198.1,532.3,194.3,536,189.8,536z"/>
<path class="st0" d="M77.1,558.6L77.1,558.6c-4.6,0-8.3-3.7-8.3-8.3v0c0-4.6,3.7-8.3,8.3-8.3h0c4.6,0,8.3,3.7,8.3,8.3v0
	C85.4,554.9,81.6,558.6,77.1,558.6z"/>
<path class="st0" d="M99.6,558.6L99.6,558.6c-4.6,0-8.3-3.7-8.3-8.3v0c0-4.6,3.7-8.3,8.3-8.3h0c4.6,0,8.3,3.7,8.3,8.3v0
	C107.9,554.9,104.2,558.6,99.6,558.6z"/>
<path class="st0" d="M8.3,558.6L8.3,558.6c-4.6,0-8.3-3.7-8.3-8.3v0c0-4.6,3.7-8.3,8.3-8.3h0c4.6,0,8.3,3.7,8.3,8.3v0
	C16.6,554.9,12.8,558.6,8.3,558.6z"/>
<path class="st0" d="M30.9,558.6L30.9,558.6c-4.6,0-8.3-3.7-8.3-8.3v0c0-4.6,3.7-8.3,8.3-8.3h0c4.6,0,8.3,3.7,8.3,8.3v0
	C39.1,554.9,35.4,558.6,30.9,558.6z"/>
<path class="st0" d="M53.4,558.6L53.4,558.6c-4.6,0-8.3-3.7-8.3-8.3v0c0-4.6,3.7-8.3,8.3-8.3h0c4.6,0,8.3,3.7,8.3,8.3v0
	C61.7,554.9,58,558.6,53.4,558.6z"/>
<path class="st0" d="M145.8,558.6L145.8,558.6c-4.6,0-8.3-3.7-8.3-8.3v0c0-4.6,3.7-8.3,8.3-8.3h0c4.6,0,8.3,3.7,8.3,8.3v0
	C154.1,554.9,150.4,558.6,145.8,558.6z"/>
<path class="st0" d="M168.4,558.6L168.4,558.6c-4.6,0-8.3-3.7-8.3-8.3v0c0-4.6,3.7-8.3,8.3-8.3h0c4.6,0,8.3,3.7,8.3,8.3v0
	C176.7,554.9,173,558.6,168.4,558.6z"/>
<path class="st0" d="M122.2,558.6L122.2,558.6c-4.6,0-8.3-3.7-8.3-8.3v0c0-4.6,3.7-8.3,8.3-8.3h0c4.6,0,8.3,3.7,8.3,8.3v0
	C130.5,554.9,126.7,558.6,122.2,558.6z"/>
<path class="st0" d="M212.4,558.6L212.4,558.6c-4.6,0-8.3-3.7-8.3-8.3v0c0-4.6,3.7-8.3,8.3-8.3h0c4.6,0,8.3,3.7,8.3,8.3v0
	C220.7,554.9,217,558.6,212.4,558.6z"/>
<path class="st0" d="M189.8,558.6L189.8,558.6c-4.6,0-8.3-3.7-8.3-8.3v0c0-4.6,3.7-8.3,8.3-8.3h0c4.6,0,8.3,3.7,8.3,8.3v0
	C198.1,554.9,194.3,558.6,189.8,558.6z"/>
<path class="st0" d="M144.8,423.1L144.8,423.1c-4.6,0-8.3-3.7-8.3-8.3v0c0-4.6,3.7-8.3,8.3-8.3h0c4.6,0,8.3,3.7,8.3,8.3v0
	C153.1,419.4,149.3,423.1,144.8,423.1z"/>
<path class="st0" d="M122.2,445.7L122.2,445.7c-4.6,0-8.3-3.7-8.3-8.3v0c0-4.6,3.7-8.3,8.3-8.3h0c4.6,0,8.3,3.7,8.3,8.3v0
	C130.5,441.9,126.7,445.7,122.2,445.7z"/>
<path class="st0" d="M144.8,445.7L144.8,445.7c-4.6,0-8.3-3.7-8.3-8.3v0c0-4.6,3.7-8.3,8.3-8.3h0c4.6,0,8.3,3.7,8.3,8.3v0
	C153,441.9,149.3,445.7,144.8,445.7z"/>
<path class="st1" d="M77,16.6L77,16.6c-4.6,0-8.3-3.7-8.3-8.3v0C68.7,3.7,72.5,0,77,0h0c4.6,0,8.3,3.7,8.3,8.3v0
	C85.3,12.8,81.6,16.6,77,16.6z"/>
<path class="st0" d="M54.4,61.8L54.4,61.8c-4.6,0-8.3-3.7-8.3-8.3v0c0-4.6,3.7-8.3,8.3-8.3h0c4.6,0,8.3,3.7,8.3,8.3v0
	C62.7,58,59,61.8,54.4,61.8z"/>
<path class="st0" d="M54.4,39.2L54.4,39.2c-4.6,0-8.3-3.7-8.3-8.3v0c0-4.6,3.7-8.3,8.3-8.3h0c4.6,0,8.3,3.7,8.3,8.3v0
	C62.7,35.5,59,39.2,54.4,39.2z"/>
<path class="st1" d="M31.9,16.6L31.9,16.6c-4.6,0-8.3-3.7-8.3-8.3v0c0-4.6,3.7-8.3,8.3-8.3h0c4.6,0,8.3,3.7,8.3,8.3v0
	C40.1,12.8,36.4,16.6,31.9,16.6z"/>
<path class="st1" d="M9.3,16.6L9.3,16.6C4.7,16.6,1,12.8,1,8.3v0C1,3.7,4.7,0,9.3,0h0c4.6,0,8.3,3.7,8.3,8.3v0
	C17.6,12.8,13.8,16.6,9.3,16.6z"/>
<path class="st0" d="M31.9,39.2L31.9,39.2c-4.6,0-8.3-3.7-8.3-8.3v0c0-4.6,3.7-8.3,8.3-8.3h0c4.6,0,8.3,3.7,8.3,8.3v0
	C40.1,35.5,36.4,39.2,31.9,39.2z"/>
<path class="st0" d="M9.3,39.2L9.3,39.2c-4.6,0-8.3-3.7-8.3-8.3v0c0-4.6,3.7-8.3,8.3-8.3h0c4.6,0,8.3,3.7,8.3,8.3v0
	C17.6,35.5,13.8,39.2,9.3,39.2z"/>
<path class="st0" d="M31.9,61.8L31.9,61.8c-4.6,0-8.3-3.7-8.3-8.3v0c0-4.6,3.7-8.3,8.3-8.3h0c4.6,0,8.3,3.7,8.3,8.3v0
	C40.1,58,36.4,61.8,31.9,61.8z"/>
<path class="st0" d="M9.3,61.8L9.3,61.8C4.7,61.8,1,58,1,53.5v0c0-4.6,3.7-8.3,8.3-8.3h0c4.6,0,8.3,3.7,8.3,8.3v0
	C17.6,58,13.8,61.8,9.3,61.8z"/>
<path class="st0" d="M31.9,84.4L31.9,84.4c-4.6,0-8.3-3.7-8.3-8.3v0c0-4.6,3.7-8.3,8.3-8.3h0c4.6,0,8.3,3.7,8.3,8.3v0
	C40.1,80.7,36.4,84.4,31.9,84.4z"/>
<path class="st0" d="M54.4,84.4L54.4,84.4c-4.6,0-8.3-3.7-8.3-8.3v0c0-4.6,3.7-8.3,8.3-8.3h0c4.6,0,8.3,3.7,8.3,8.3v0
	C62.7,80.7,59,84.4,54.4,84.4z"/>
<path class="st0" d="M9.3,84.4L9.3,84.4c-4.6,0-8.3-3.7-8.3-8.3v0c0-4.6,3.7-8.3,8.3-8.3h0c4.6,0,8.3,3.7,8.3,8.3v0
	C17.6,80.7,13.8,84.4,9.3,84.4z"/>
<path class="st0" d="M31.9,106.9L31.9,106.9c-4.6,0-8.3-3.7-8.3-8.3v0c0-4.6,3.7-8.3,8.3-8.3h0c4.6,0,8.3,3.7,8.3,8.3v0
	C40.1,103.2,36.4,106.9,31.9,106.9z"/>
<path class="st0" d="M9.3,106.9L9.3,106.9c-4.6,0-8.3-3.7-8.3-8.3v0c0-4.6,3.7-8.3,8.3-8.3h0c4.6,0,8.3,3.7,8.3,8.3v0
	C17.6,103.2,13.8,106.9,9.3,106.9z"/>
<path class="st0" d="M31.9,129.5L31.9,129.5c-4.6,0-8.3-3.7-8.3-8.3v0c0-4.6,3.7-8.3,8.3-8.3h0c4.6,0,8.3,3.7,8.3,8.3v0
	C40.1,125.7,36.4,129.5,31.9,129.5z"/>
<path class="st0" d="M54.4,106.9L54.4,106.9c-4.6,0-8.3-3.7-8.3-8.3v0c0-4.6,3.7-8.3,8.3-8.3h0c4.6,0,8.3,3.7,8.3,8.3v0
	C62.7,103.2,59,106.9,54.4,106.9z"/>
<path class="st0" d="M54.4,129.5L54.4,129.5c-4.6,0-8.3-3.7-8.3-8.3v0c0-4.6,3.7-8.3,8.3-8.3h0c4.6,0,8.3,3.7,8.3,8.3v0
	C62.7,125.7,59,129.5,54.4,129.5z"/>
<path class="st0" d="M9.3,129.5L9.3,129.5c-4.6,0-8.3-3.7-8.3-8.3v0c0-4.6,3.7-8.3,8.3-8.3h0c4.6,0,8.3,3.7,8.3,8.3v0
	C17.6,125.7,13.8,129.5,9.3,129.5z"/>
<path class="st0" d="M31.9,152.1L31.9,152.1c-4.6,0-8.3-3.7-8.3-8.3v0c0-4.6,3.7-8.3,8.3-8.3h0c4.6,0,8.3,3.7,8.3,8.3v0
	C40.1,148.4,36.4,152.1,31.9,152.1z"/>
<path class="st0" d="M54.4,152.1L54.4,152.1c-4.6,0-8.3-3.7-8.3-8.3v0c0-4.6,3.7-8.3,8.3-8.3h0c4.6,0,8.3,3.7,8.3,8.3v0
	C62.7,148.4,59,152.1,54.4,152.1z"/>
<path class="st0" d="M77,129.5L77,129.5c-4.6,0-8.3-3.7-8.3-8.3v0c0-4.6,3.7-8.3,8.3-8.3h0c4.6,0,8.3,3.7,8.3,8.3v0
	C85.3,125.7,81.6,129.5,77,129.5z"/>
<path class="st0" d="M77,152.1L77,152.1c-4.6,0-8.3-3.7-8.3-8.3v0c0-4.6,3.7-8.3,8.3-8.3h0c4.6,0,8.3,3.7,8.3,8.3v0
	C85.3,148.4,81.6,152.1,77,152.1z"/>
<path class="st0" d="M99.6,152.1L99.6,152.1c-4.6,0-8.3-3.7-8.3-8.3v0c0-4.6,3.7-8.3,8.3-8.3h0c4.6,0,8.3,3.7,8.3,8.3v0
	C107.9,148.4,104.2,152.1,99.6,152.1z"/>
<path class="st0" d="M9.3,152.1L9.3,152.1c-4.6,0-8.3-3.7-8.3-8.3v0c0-4.6,3.7-8.3,8.3-8.3h0c4.6,0,8.3,3.7,8.3,8.3v0
	C17.6,148.4,13.8,152.1,9.3,152.1z"/>
<path class="st0" d="M31.9,174.6L31.9,174.6c-4.6,0-8.3-3.7-8.3-8.3v0c0-4.6,3.7-8.3,8.3-8.3h0c4.6,0,8.3,3.7,8.3,8.3v0
	C40.1,170.9,36.4,174.6,31.9,174.6z"/>
<path class="st0" d="M54.4,174.6L54.4,174.6c-4.6,0-8.3-3.7-8.3-8.3v0c0-4.6,3.7-8.3,8.3-8.3h0c4.6,0,8.3,3.7,8.3,8.3v0
	C62.7,170.9,59,174.6,54.4,174.6z"/>
<path class="st0" d="M77,174.6L77,174.6c-4.6,0-8.3-3.7-8.3-8.3v0c0-4.6,3.7-8.3,8.3-8.3h0c4.6,0,8.3,3.7,8.3,8.3v0
	C85.3,170.9,81.6,174.6,77,174.6z"/>
<path class="st0" d="M99.6,174.6L99.6,174.6c-4.6,0-8.3-3.7-8.3-8.3v0c0-4.6,3.7-8.3,8.3-8.3h0c4.6,0,8.3,3.7,8.3,8.3v0
	C107.9,170.9,104.2,174.6,99.6,174.6z"/>
<path class="st0" d="M9.3,174.6L9.3,174.6c-4.6,0-8.3-3.7-8.3-8.3v0c0-4.6,3.7-8.3,8.3-8.3h0c4.6,0,8.3,3.7,8.3,8.3v0
	C17.6,170.9,13.8,174.6,9.3,174.6z"/>
<path class="st0" d="M99.6,197.2L99.6,197.2c-4.6,0-8.3-3.7-8.3-8.3v0c0-4.6,3.7-8.3,8.3-8.3h0c4.6,0,8.3,3.7,8.3,8.3v0
	C107.9,193.4,104.2,197.2,99.6,197.2z"/>
<path class="st0" d="M31.9,197.2L31.9,197.2c-4.6,0-8.3-3.7-8.3-8.3v0c0-4.6,3.7-8.3,8.3-8.3h0c4.6,0,8.3,3.7,8.3,8.3v0
	C40.1,193.5,36.4,197.2,31.9,197.2z"/>
<path class="st0" d="M54.4,197.2L54.4,197.2c-4.6,0-8.3-3.7-8.3-8.3v0c0-4.6,3.7-8.3,8.3-8.3h0c4.6,0,8.3,3.7,8.3,8.3v0
	C62.7,193.5,59,197.2,54.4,197.2z"/>
<path class="st0" d="M9.3,197.2L9.3,197.2c-4.6,0-8.3-3.7-8.3-8.3v0c0-4.6,3.7-8.3,8.3-8.3h0c4.6,0,8.3,3.7,8.3,8.3v0
	C17.6,193.5,13.8,197.2,9.3,197.2z"/>
<path class="st0" d="M31.9,219.8L31.9,219.8c-4.6,0-8.3-3.7-8.3-8.3v0c0-4.6,3.7-8.3,8.3-8.3h0c4.6,0,8.3,3.7,8.3,8.3v0
	C40.1,216.1,36.4,219.8,31.9,219.8z"/>
<path class="st0" d="M54.4,219.8L54.4,219.8c-4.6,0-8.3-3.7-8.3-8.3v0c0-4.6,3.7-8.3,8.3-8.3h0c4.6,0,8.3,3.7,8.3,8.3v0
	C62.7,216.1,59,219.8,54.4,219.8z"/>
<path class="st0" d="M77,197.2L77,197.2c-4.6,0-8.3-3.7-8.3-8.3v0c0-4.6,3.7-8.3,8.3-8.3h0c4.6,0,8.3,3.7,8.3,8.3v0
	C85.3,193.5,81.6,197.2,77,197.2z"/>
<path class="st0" d="M77,219.8L77,219.8c-4.6,0-8.3-3.7-8.3-8.3v0c0-4.6,3.7-8.3,8.3-8.3h0c4.6,0,8.3,3.7,8.3,8.3v0
	C85.3,216.1,81.6,219.8,77,219.8z"/>
<path class="st0" d="M99.6,219.8L99.6,219.8c-4.6,0-8.3-3.7-8.3-8.3v0c0-4.6,3.7-8.3,8.3-8.3h0c4.6,0,8.3,3.7,8.3,8.3v0
	C107.9,216.1,104.2,219.8,99.6,219.8z"/>
<path class="st0" d="M9.3,219.8L9.3,219.8c-4.6,0-8.3-3.7-8.3-8.3v0c0-4.6,3.7-8.3,8.3-8.3h0c4.6,0,8.3,3.7,8.3,8.3v0
	C17.6,216.1,13.8,219.8,9.3,219.8z"/>
<path class="st0" d="M31.9,242.3L31.9,242.3c-4.6,0-8.3-3.7-8.3-8.3v0c0-4.6,3.7-8.3,8.3-8.3h0c4.6,0,8.3,3.7,8.3,8.3v0
	C40.1,238.6,36.4,242.3,31.9,242.3z"/>
<path class="st0" d="M54.4,242.3L54.4,242.3c-4.6,0-8.3-3.7-8.3-8.3v0c0-4.6,3.7-8.3,8.3-8.3h0c4.6,0,8.3,3.7,8.3,8.3v0
	C62.7,238.6,59,242.3,54.4,242.3z"/>
<path class="st0" d="M77,242.3L77,242.3c-4.6,0-8.3-3.7-8.3-8.3v0c0-4.6,3.7-8.3,8.3-8.3h0c4.6,0,8.3,3.7,8.3,8.3v0
	C85.3,238.6,81.6,242.3,77,242.3z"/>
<path class="st0" d="M99.6,242.3L99.6,242.3c-4.6,0-8.3-3.7-8.3-8.3v0c0-4.6,3.7-8.3,8.3-8.3h0c4.6,0,8.3,3.7,8.3,8.3v0
	C107.9,238.6,104.2,242.3,99.6,242.3z"/>
<path class="st0" d="M9.3,242.3L9.3,242.3c-4.6,0-8.3-3.7-8.3-8.3v0c0-4.6,3.7-8.3,8.3-8.3h0c4.6,0,8.3,3.7,8.3,8.3v0
	C17.6,238.6,13.8,242.3,9.3,242.3z"/>
<path class="st0" d="M31.9,264.9L31.9,264.9c-4.6,0-8.3-3.7-8.3-8.3v0c0-4.6,3.7-8.3,8.3-8.3h0c4.6,0,8.3,3.7,8.3,8.3v0
	C40.1,261.2,36.4,264.9,31.9,264.9z"/>
<path class="st0" d="M54.4,264.9L54.4,264.9c-4.6,0-8.3-3.7-8.3-8.3v0c0-4.6,3.7-8.3,8.3-8.3h0c4.6,0,8.3,3.7,8.3,8.3v0
	C62.7,261.2,59,264.9,54.4,264.9z"/>
<path class="st0" d="M77,264.9L77,264.9c-4.6,0-8.3-3.7-8.3-8.3v0c0-4.6,3.7-8.3,8.3-8.3h0c4.6,0,8.3,3.7,8.3,8.3v0
	C85.3,261.2,81.6,264.9,77,264.9z"/>
<path class="st0" d="M99.6,264.9L99.6,264.9c-4.6,0-8.3-3.7-8.3-8.3v0c0-4.6,3.7-8.3,8.3-8.3h0c4.6,0,8.3,3.7,8.3,8.3v0
	C107.9,261.2,104.2,264.9,99.6,264.9z"/>
<path class="st0" d="M9.3,264.9L9.3,264.9c-4.6,0-8.3-3.7-8.3-8.3v0c0-4.6,3.7-8.3,8.3-8.3h0c4.6,0,8.3,3.7,8.3,8.3v0
	C17.6,261.2,13.8,264.9,9.3,264.9z"/>
<path class="st0" d="M31.9,287.4L31.9,287.4c-4.6,0-8.3-3.7-8.3-8.3v0c0-4.6,3.7-8.3,8.3-8.3h0c4.6,0,8.3,3.7,8.3,8.3v0
	C40.1,283.7,36.4,287.4,31.9,287.4z"/>
<path class="st0" d="M54.4,287.4L54.4,287.4c-4.6,0-8.3-3.7-8.3-8.3v0c0-4.6,3.7-8.3,8.3-8.3h0c4.6,0,8.3,3.7,8.3,8.3v0
	C62.7,283.7,59,287.4,54.4,287.4z"/>
<path class="st0" d="M77,287.4L77,287.4c-4.6,0-8.3-3.7-8.3-8.3v0c0-4.6,3.7-8.3,8.3-8.3h0c4.6,0,8.3,3.7,8.3,8.3v0
	C85.3,283.7,81.6,287.4,77,287.4z"/>
<path class="st0" d="M99.6,287.4L99.6,287.4c-4.6,0-8.3-3.7-8.3-8.3v0c0-4.6,3.7-8.3,8.3-8.3h0c4.6,0,8.3,3.7,8.3,8.3v0
	C107.9,283.7,104.2,287.4,99.6,287.4z"/>
<path class="st0" d="M9.3,287.4L9.3,287.4c-4.6,0-8.3-3.7-8.3-8.3v0c0-4.6,3.7-8.3,8.3-8.3h0c4.6,0,8.3,3.7,8.3,8.3v0
	C17.6,283.7,13.8,287.4,9.3,287.4z"/>
<path class="st0" d="M99.6,310L99.6,310c-4.6,0-8.3-3.7-8.3-8.3v0c0-4.6,3.7-8.3,8.3-8.3h0c4.6,0,8.3,3.7,8.3,8.3v0
	C107.9,306.2,104.2,310,99.6,310z"/>
<path class="st0" d="M31.9,310L31.9,310c-4.6,0-8.3-3.7-8.3-8.3l0,0c0-4.6,3.7-8.3,8.3-8.3h0c4.6,0,8.3,3.7,8.3,8.3l0,0
	C40.1,306.2,36.4,310,31.9,310z"/>
<path class="st0" d="M54.4,310L54.4,310c-4.6,0-8.3-3.7-8.3-8.3l0,0c0-4.6,3.7-8.3,8.3-8.3h0c4.6,0,8.3,3.7,8.3,8.3l0,0
	C62.7,306.2,59,310,54.4,310z"/>
<path class="st0" d="M9.3,310L9.3,310c-4.6,0-8.3-3.7-8.3-8.3l0,0c0-4.6,3.7-8.3,8.3-8.3h0c4.6,0,8.3,3.7,8.3,8.3l0,0
	C17.6,306.2,13.8,310,9.3,310z"/>
<path class="st0" d="M31.9,332.6L31.9,332.6c-4.6,0-8.3-3.7-8.3-8.3l0,0c0-4.6,3.7-8.3,8.3-8.3h0c4.6,0,8.3,3.7,8.3,8.3l0,0
	C40.1,328.9,36.4,332.6,31.9,332.6z"/>
<path class="st0" d="M54.4,332.6L54.4,332.6c-4.6,0-8.3-3.7-8.3-8.3l0,0c0-4.6,3.7-8.3,8.3-8.3h0c4.6,0,8.3,3.7,8.3,8.3l0,0
	C62.7,328.9,59,332.6,54.4,332.6z"/>
<path class="st0" d="M77,310L77,310c-4.6,0-8.3-3.7-8.3-8.3l0,0c0-4.6,3.7-8.3,8.3-8.3h0c4.6,0,8.3,3.7,8.3,8.3l0,0
	C85.3,306.2,81.6,310,77,310z"/>
<path class="st0" d="M77,332.6L77,332.6c-4.6,0-8.3-3.7-8.3-8.3l0,0c0-4.6,3.7-8.3,8.3-8.3h0c4.6,0,8.3,3.7,8.3,8.3l0,0
	C85.3,328.9,81.6,332.6,77,332.6z"/>
<path class="st0" d="M99.6,332.6L99.6,332.6c-4.6,0-8.3-3.7-8.3-8.3l0,0c0-4.6,3.7-8.3,8.3-8.3h0c4.6,0,8.3,3.7,8.3,8.3l0,0
	C107.9,328.9,104.2,332.6,99.6,332.6z"/>
<path class="st0" d="M9.3,332.6L9.3,332.6c-4.6,0-8.3-3.7-8.3-8.3l0,0c0-4.6,3.7-8.3,8.3-8.3h0c4.6,0,8.3,3.7,8.3,8.3l0,0
	C17.6,328.9,13.8,332.6,9.3,332.6z"/>
<path class="st0" d="M31.9,355.1L31.9,355.1c-4.6,0-8.3-3.7-8.3-8.3l0,0c0-4.6,3.7-8.3,8.3-8.3h0c4.6,0,8.3,3.7,8.3,8.3l0,0
	C40.1,351.4,36.4,355.1,31.9,355.1z"/>
<path class="st0" d="M54.4,355.1L54.4,355.1c-4.6,0-8.3-3.7-8.3-8.3l0,0c0-4.6,3.7-8.3,8.3-8.3h0c4.6,0,8.3,3.7,8.3,8.3l0,0
	C62.7,351.4,59,355.1,54.4,355.1z"/>
<path class="st0" d="M77,355.1L77,355.1c-4.6,0-8.3-3.7-8.3-8.3l0,0c0-4.6,3.7-8.3,8.3-8.3h0c4.6,0,8.3,3.7,8.3,8.3l0,0
	C85.3,351.4,81.6,355.1,77,355.1z"/>
<path class="st0" d="M99.6,355.1L99.6,355.1c-4.6,0-8.3-3.7-8.3-8.3l0,0c0-4.6,3.7-8.3,8.3-8.3h0c4.6,0,8.3,3.7,8.3,8.3l0,0
	C107.9,351.4,104.2,355.1,99.6,355.1z"/>
<path class="st0" d="M144.9,197.2L144.9,197.2c-4.6,0-8.3-3.7-8.3-8.3v0c0-4.6,3.7-8.3,8.3-8.3h0c4.6,0,8.3,3.7,8.3,8.3v0
	C153.1,193.4,149.4,197.2,144.9,197.2z"/>
<path class="st0" d="M122.2,197.2L122.2,197.2c-4.6,0-8.3-3.7-8.3-8.3v0c0-4.6,3.7-8.3,8.3-8.3h0c4.6,0,8.3,3.7,8.3,8.3v0
	C130.5,193.5,126.8,197.2,122.2,197.2z"/>
<path class="st0" d="M122.2,219.8L122.2,219.8c-4.6,0-8.3-3.7-8.3-8.3v0c0-4.6,3.7-8.3,8.3-8.3h0c4.6,0,8.3,3.7,8.3,8.3v0
	C130.5,216.1,126.8,219.8,122.2,219.8z"/>
<path class="st0" d="M144.8,219.8L144.8,219.8c-4.6,0-8.3-3.7-8.3-8.3v0c0-4.6,3.7-8.3,8.3-8.3h0c4.6,0,8.3,3.7,8.3,8.3v0
	C153.1,216.1,149.4,219.8,144.8,219.8z"/>
<path class="st0" d="M122.2,242.3L122.2,242.3c-4.6,0-8.3-3.7-8.3-8.3v0c0-4.6,3.7-8.3,8.3-8.3h0c4.6,0,8.3,3.7,8.3,8.3v0
	C130.5,238.6,126.8,242.3,122.2,242.3z"/>
<path class="st0" d="M144.8,242.3L144.8,242.3c-4.6,0-8.3-3.7-8.3-8.3v0c0-4.6,3.7-8.3,8.3-8.3h0c4.6,0,8.3,3.7,8.3,8.3v0
	C153.1,238.6,149.4,242.3,144.8,242.3z"/>
<path class="st0" d="M122.2,264.9L122.2,264.9c-4.6,0-8.3-3.7-8.3-8.3v0c0-4.6,3.7-8.3,8.3-8.3h0c4.6,0,8.3,3.7,8.3,8.3v0
	C130.5,261.2,126.8,264.9,122.2,264.9z"/>
<path class="st0" d="M144.8,264.9L144.8,264.9c-4.6,0-8.3-3.7-8.3-8.3v0c0-4.6,3.7-8.3,8.3-8.3h0c4.6,0,8.3,3.7,8.3,8.3v0
	C153.1,261.2,149.4,264.9,144.8,264.9z"/>
<path class="st0" d="M122.2,287.4L122.2,287.4c-4.6,0-8.3-3.7-8.3-8.3v0c0-4.6,3.7-8.3,8.3-8.3h0c4.6,0,8.3,3.7,8.3,8.3v0
	C130.5,283.7,126.8,287.4,122.2,287.4z"/>
<path class="st0" d="M144.8,287.4L144.8,287.4c-4.6,0-8.3-3.7-8.3-8.3v0c0-4.6,3.7-8.3,8.3-8.3h0c4.6,0,8.3,3.7,8.3,8.3v0
	C153.1,283.7,149.4,287.4,144.8,287.4z"/>
<path class="st0" d="M144.9,310L144.9,310c-4.6,0-8.3-3.7-8.3-8.3v0c0-4.6,3.7-8.3,8.3-8.3h0c4.6,0,8.3,3.7,8.3,8.3v0
	C153.1,306.2,149.4,310,144.9,310z"/>
<path class="st0" d="M122.2,310L122.2,310c-4.6,0-8.3-3.7-8.3-8.3l0,0c0-4.6,3.7-8.3,8.3-8.3h0c4.6,0,8.3,3.7,8.3,8.3l0,0
	C130.5,306.2,126.8,310,122.2,310z"/>
<path class="st0" d="M122.2,332.6L122.2,332.6c-4.6,0-8.3-3.7-8.3-8.3l0,0c0-4.6,3.7-8.3,8.3-8.3h0c4.6,0,8.3,3.7,8.3,8.3l0,0
	C130.5,328.9,126.8,332.6,122.2,332.6z"/>
<path class="st0" d="M144.8,332.6L144.8,332.6c-4.6,0-8.3-3.7-8.3-8.3l0,0c0-4.6,3.7-8.3,8.3-8.3h0c4.6,0,8.3,3.7,8.3,8.3l0,0
	C153.1,328.9,149.4,332.6,144.8,332.6z"/>
<path class="st0" d="M122.2,355.1L122.2,355.1c-4.6,0-8.3-3.7-8.3-8.3l0,0c0-4.6,3.7-8.3,8.3-8.3h0c4.6,0,8.3,3.7,8.3,8.3l0,0
	C130.5,351.4,126.8,355.1,122.2,355.1z"/>
<path class="st0" d="M144.8,355.1L144.8,355.1c-4.6,0-8.3-3.7-8.3-8.3l0,0c0-4.6,3.7-8.3,8.3-8.3h0c4.6,0,8.3,3.7,8.3,8.3l0,0
	C153.1,351.4,149.4,355.1,144.8,355.1z"/>
<path class="st0" d="M167.4,242.3L167.4,242.3c-4.6,0-8.3-3.7-8.3-8.3v0c0-4.6,3.7-8.3,8.3-8.3h0c4.6,0,8.3,3.7,8.3,8.3v0
	C175.7,238.6,172,242.3,167.4,242.3z"/>
<path class="st0" d="M167.4,264.9L167.4,264.9c-4.6,0-8.3-3.7-8.3-8.3v0c0-4.6,3.7-8.3,8.3-8.3h0c4.6,0,8.3,3.7,8.3,8.3v0
	C175.7,261.2,172,264.9,167.4,264.9z"/>
<path class="st0" d="M167.4,287.4L167.4,287.4c-4.6,0-8.3-3.7-8.3-8.3v0c0-4.6,3.7-8.3,8.3-8.3h0c4.6,0,8.3,3.7,8.3,8.3v0
	C175.7,283.7,172,287.4,167.4,287.4z"/>
<path class="st0" d="M167.5,310L167.5,310c-4.6,0-8.3-3.7-8.3-8.3v0c0-4.6,3.7-8.3,8.3-8.3h0c4.6,0,8.3,3.7,8.3,8.3v0
	C175.7,306.2,172,310,167.5,310z"/>
<path class="st0" d="M167.4,332.6L167.4,332.6c-4.6,0-8.3-3.7-8.3-8.3l0,0c0-4.6,3.7-8.3,8.3-8.3h0c4.6,0,8.3,3.7,8.3,8.3l0,0
	C175.7,328.9,172,332.6,167.4,332.6z"/>
<path class="st0" d="M167.4,355.1L167.4,355.1c-4.6,0-8.3-3.7-8.3-8.3l0,0c0-4.6,3.7-8.3,8.3-8.3h0c4.6,0,8.3,3.7,8.3,8.3l0,0
	C175.7,351.4,172,355.1,167.4,355.1z"/>
<path class="st0" d="M9.3,355.1L9.3,355.1c-4.6,0-8.3-3.7-8.3-8.3l0,0c0-4.6,3.7-8.3,8.3-8.3h0c4.6,0,8.3,3.7,8.3,8.3l0,0
	C17.6,351.4,13.8,355.1,9.3,355.1z"/>
<path class="st0" d="M31.9,377.7L31.9,377.7c-4.6,0-8.3-3.7-8.3-8.3l0,0c0-4.6,3.7-8.3,8.3-8.3h0c4.6,0,8.3,3.7,8.3,8.3l0,0
	C40.1,374,36.4,377.7,31.9,377.7z"/>
<path class="st0" d="M54.4,377.7L54.4,377.7c-4.6,0-8.3-3.7-8.3-8.3l0,0c0-4.6,3.7-8.3,8.3-8.3h0c4.6,0,8.3,3.7,8.3,8.3l0,0
	C62.7,374,59,377.7,54.4,377.7z"/>
<path class="st0" d="M77,377.7L77,377.7c-4.6,0-8.3-3.7-8.3-8.3l0,0c0-4.6,3.7-8.3,8.3-8.3h0c4.6,0,8.3,3.7,8.3,8.3l0,0
	C85.3,374,81.6,377.7,77,377.7z"/>
<path class="st0" d="M99.6,377.7L99.6,377.7c-4.6,0-8.3-3.7-8.3-8.3l0,0c0-4.6,3.7-8.3,8.3-8.3h0c4.6,0,8.3,3.7,8.3,8.3l0,0
	C107.9,374,104.2,377.7,99.6,377.7z"/>
<path class="st0" d="M9.3,377.7L9.3,377.7c-4.6,0-8.3-3.7-8.3-8.3l0,0c0-4.6,3.7-8.3,8.3-8.3h0c4.6,0,8.3,3.7,8.3,8.3l0,0
	C17.6,374,13.8,377.7,9.3,377.7z"/>
<path class="st0" d="M31.9,400.2L31.9,400.2c-4.6,0-8.3-3.7-8.3-8.3l0,0c0-4.6,3.7-8.3,8.3-8.3h0c4.6,0,8.3,3.7,8.3,8.3l0,0
	C40.1,396.5,36.4,400.2,31.9,400.2z"/>
<path class="st0" d="M54.4,400.2L54.4,400.2c-4.6,0-8.3-3.7-8.3-8.3l0,0c0-4.6,3.7-8.3,8.3-8.3h0c4.6,0,8.3,3.7,8.3,8.3l0,0
	C62.7,396.5,59,400.2,54.4,400.2z"/>
<path class="st0" d="M77,400.2L77,400.2c-4.6,0-8.3-3.7-8.3-8.3l0,0c0-4.6,3.7-8.3,8.3-8.3h0c4.6,0,8.3,3.7,8.3,8.3l0,0
	C85.3,396.5,81.6,400.2,77,400.2z"/>
<path class="st0" d="M99.6,400.2L99.6,400.2c-4.6,0-8.3-3.7-8.3-8.3l0,0c0-4.6,3.7-8.3,8.3-8.3h0c4.6,0,8.3,3.7,8.3,8.3l0,0
	C107.9,396.5,104.2,400.2,99.6,400.2z"/>
<path class="st0" d="M122.2,377.7L122.2,377.7c-4.6,0-8.3-3.7-8.3-8.3l0,0c0-4.6,3.7-8.3,8.3-8.3h0c4.6,0,8.3,3.7,8.3,8.3l0,0
	C130.5,374,126.8,377.7,122.2,377.7z"/>
<path class="st0" d="M144.8,377.7L144.8,377.7c-4.6,0-8.3-3.7-8.3-8.3l0,0c0-4.6,3.7-8.3,8.3-8.3h0c4.6,0,8.3,3.7,8.3,8.3l0,0
	C153.1,374,149.4,377.7,144.8,377.7z"/>
<path class="st0" d="M122.2,400.2L122.2,400.2c-4.6,0-8.3-3.7-8.3-8.3l0,0c0-4.6,3.7-8.3,8.3-8.3h0c4.6,0,8.3,3.7,8.3,8.3l0,0
	C130.5,396.5,126.8,400.2,122.2,400.2z"/>
<path class="st0" d="M144.8,400.2L144.8,400.2c-4.6,0-8.3-3.7-8.3-8.3l0,0c0-4.6,3.7-8.3,8.3-8.3h0c4.6,0,8.3,3.7,8.3,8.3l0,0
	C153.1,396.5,149.4,400.2,144.8,400.2z"/>
<path class="st0" d="M167.4,377.7L167.4,377.7c-4.6,0-8.3-3.7-8.3-8.3l0,0c0-4.6,3.7-8.3,8.3-8.3h0c4.6,0,8.3,3.7,8.3,8.3l0,0
	C175.7,374,172,377.7,167.4,377.7z"/>
<path class="st0" d="M167.4,400.2L167.4,400.2c-4.6,0-8.3-3.7-8.3-8.3l0,0c0-4.6,3.7-8.3,8.3-8.3h0c4.6,0,8.3,3.7,8.3,8.3l0,0
	C175.7,396.5,172,400.2,167.4,400.2z"/>
<path class="st0" d="M190,400.2L190,400.2c-4.6,0-8.3-3.7-8.3-8.3l0,0c0-4.6,3.7-8.3,8.3-8.3h0c4.6,0,8.3,3.7,8.3,8.3l0,0
	C198.3,396.5,194.6,400.2,190,400.2z"/>
<path class="st0" d="M212.6,400.2L212.6,400.2c-4.6,0-8.3-3.7-8.3-8.3l0,0c0-4.6,3.7-8.3,8.3-8.3h0c4.6,0,8.3,3.7,8.3,8.3l0,0
	C220.9,396.5,217.2,400.2,212.6,400.2z"/>
<path class="st0" d="M9.3,400.2L9.3,400.2c-4.6,0-8.3-3.7-8.3-8.3l0,0c0-4.6,3.7-8.3,8.3-8.3h0c4.6,0,8.3,3.7,8.3,8.3l0,0
	C17.6,396.5,13.8,400.2,9.3,400.2z"/>
<path class="st1" d="M54.4,16.6L54.4,16.6c-4.6,0-8.3-3.7-8.3-8.3v0c0-4.6,3.7-8.3,8.3-8.3h0c4.6,0,8.3,3.7,8.3,8.3v0
	C62.7,12.8,59,16.6,54.4,16.6z"/>
<path class="st0" d="M77.1,581.3L77.1,581.3c-4.6,0-8.3-3.7-8.3-8.3l0,0c0-4.6,3.7-8.3,8.3-8.3h0c4.6,0,8.3,3.7,8.3,8.3l0,0
	C85.4,577.6,81.6,581.3,77.1,581.3z"/>
<path class="st0" d="M99.6,581.3L99.6,581.3c-4.6,0-8.3-3.7-8.3-8.3l0,0c0-4.6,3.7-8.3,8.3-8.3h0c4.6,0,8.3,3.7,8.3,8.3l0,0
	C107.9,577.6,104.2,581.3,99.6,581.3z"/>
<path class="st0" d="M8.3,581.3L8.3,581.3c-4.6,0-8.3-3.7-8.3-8.3l0,0c0-4.6,3.7-8.3,8.3-8.3h0c4.6,0,8.3,3.7,8.3,8.3l0,0
	C16.6,577.6,12.8,581.3,8.3,581.3z"/>
<path class="st0" d="M30.9,581.3L30.9,581.3c-4.6,0-8.3-3.7-8.3-8.3l0,0c0-4.6,3.7-8.3,8.3-8.3h0c4.6,0,8.3,3.7,8.3,8.3l0,0
	C39.1,577.6,35.4,581.3,30.9,581.3z"/>
<path class="st0" d="M53.4,581.3L53.4,581.3c-4.6,0-8.3-3.7-8.3-8.3l0,0c0-4.6,3.7-8.3,8.3-8.3h0c4.6,0,8.3,3.7,8.3,8.3l0,0
	C61.7,577.6,58,581.3,53.4,581.3z"/>
<path class="st0" d="M145.8,581.3L145.8,581.3c-4.6,0-8.3-3.7-8.3-8.3l0,0c0-4.6,3.7-8.3,8.3-8.3h0c4.6,0,8.3,3.7,8.3,8.3l0,0
	C154.1,577.6,150.4,581.3,145.8,581.3z"/>
<path class="st0" d="M168.4,581.3L168.4,581.3c-4.6,0-8.3-3.7-8.3-8.3l0,0c0-4.6,3.7-8.3,8.3-8.3h0c4.6,0,8.3,3.7,8.3,8.3l0,0
	C176.7,577.6,173,581.3,168.4,581.3z"/>
<path class="st0" d="M122.2,581.3L122.2,581.3c-4.6,0-8.3-3.7-8.3-8.3l0,0c0-4.6,3.7-8.3,8.3-8.3h0c4.6,0,8.3,3.7,8.3,8.3l0,0
	C130.5,577.6,126.7,581.3,122.2,581.3z"/>
<path class="st0" d="M212.4,581.3L212.4,581.3c-4.6,0-8.3-3.7-8.3-8.3l0,0c0-4.6,3.7-8.3,8.3-8.3h0c4.6,0,8.3,3.7,8.3,8.3l0,0
	C220.7,577.6,217,581.3,212.4,581.3z"/>
<path class="st0" d="M189.8,581.3L189.8,581.3c-4.6,0-8.3-3.7-8.3-8.3l0,0c0-4.6,3.7-8.3,8.3-8.3h0c4.6,0,8.3,3.7,8.3,8.3l0,0
	C198.1,577.6,194.3,581.3,189.8,581.3z"/>
<path class="st0" d="M77.1,603.9L77.1,603.9c-4.6,0-8.3-3.7-8.3-8.3l0,0c0-4.6,3.7-8.3,8.3-8.3h0c4.6,0,8.3,3.7,8.3,8.3l0,0
	C85.4,600.2,81.6,603.9,77.1,603.9z"/>
<path class="st0" d="M99.6,603.9L99.6,603.9c-4.6,0-8.3-3.7-8.3-8.3l0,0c0-4.6,3.7-8.3,8.3-8.3h0c4.6,0,8.3,3.7,8.3,8.3l0,0
	C107.9,600.2,104.2,603.9,99.6,603.9z"/>
<path class="st0" d="M8.3,603.9L8.3,603.9c-4.6,0-8.3-3.7-8.3-8.3l0,0c0-4.6,3.7-8.3,8.3-8.3h0c4.6,0,8.3,3.7,8.3,8.3l0,0
	C16.6,600.2,12.8,603.9,8.3,603.9z"/>
<path class="st0" d="M30.9,603.9L30.9,603.9c-4.6,0-8.3-3.7-8.3-8.3l0,0c0-4.6,3.7-8.3,8.3-8.3h0c4.6,0,8.3,3.7,8.3,8.3l0,0
	C39.1,600.2,35.4,603.9,30.9,603.9z"/>
<path class="st0" d="M53.4,603.9L53.4,603.9c-4.6,0-8.3-3.7-8.3-8.3l0,0c0-4.6,3.7-8.3,8.3-8.3h0c4.6,0,8.3,3.7,8.3,8.3l0,0
	C61.7,600.2,58,603.9,53.4,603.9z"/>
<path class="st0" d="M145.8,603.9L145.8,603.9c-4.6,0-8.3-3.7-8.3-8.3l0,0c0-4.6,3.7-8.3,8.3-8.3h0c4.6,0,8.3,3.7,8.3,8.3l0,0
	C154.1,600.2,150.4,603.9,145.8,603.9z"/>
<path class="st0" d="M168.4,603.9L168.4,603.9c-4.6,0-8.3-3.7-8.3-8.3l0,0c0-4.6,3.7-8.3,8.3-8.3h0c4.6,0,8.3,3.7,8.3,8.3l0,0
	C176.7,600.2,173,603.9,168.4,603.9z"/>
<path class="st0" d="M122.2,603.9L122.2,603.9c-4.6,0-8.3-3.7-8.3-8.3l0,0c0-4.6,3.7-8.3,8.3-8.3h0c4.6,0,8.3,3.7,8.3,8.3l0,0
	C130.5,600.2,126.7,603.9,122.2,603.9z"/>
<path class="st0" d="M212.4,603.9L212.4,603.9c-4.6,0-8.3-3.7-8.3-8.3l0,0c0-4.6,3.7-8.3,8.3-8.3h0c4.6,0,8.3,3.7,8.3,8.3l0,0
	C220.7,600.2,217,603.9,212.4,603.9z"/>
<path class="st0" d="M189.8,603.9L189.8,603.9c-4.6,0-8.3-3.7-8.3-8.3l0,0c0-4.6,3.7-8.3,8.3-8.3h0c4.6,0,8.3,3.7,8.3,8.3l0,0
	C198.1,600.2,194.3,603.9,189.8,603.9z"/>
<path class="st0" d="M77.1,626.5L77.1,626.5c-4.6,0-8.3-3.7-8.3-8.3l0,0c0-4.6,3.7-8.3,8.3-8.3h0c4.6,0,8.3,3.7,8.3,8.3l0,0
	C85.4,622.8,81.6,626.5,77.1,626.5z"/>
<path class="st0" d="M99.6,626.5L99.6,626.5c-4.6,0-8.3-3.7-8.3-8.3l0,0c0-4.6,3.7-8.3,8.3-8.3h0c4.6,0,8.3,3.7,8.3,8.3l0,0
	C107.9,622.8,104.2,626.5,99.6,626.5z"/>
<path class="st0" d="M8.3,626.5L8.3,626.5c-4.6,0-8.3-3.7-8.3-8.3l0,0c0-4.6,3.7-8.3,8.3-8.3h0c4.6,0,8.3,3.7,8.3,8.3l0,0
	C16.6,622.8,12.8,626.5,8.3,626.5z"/>
<path class="st0" d="M30.9,626.5L30.9,626.5c-4.6,0-8.3-3.7-8.3-8.3l0,0c0-4.6,3.7-8.3,8.3-8.3h0c4.6,0,8.3,3.7,8.3,8.3l0,0
	C39.1,622.8,35.4,626.5,30.9,626.5z"/>
<path class="st0" d="M53.4,626.5L53.4,626.5c-4.6,0-8.3-3.7-8.3-8.3l0,0c0-4.6,3.7-8.3,8.3-8.3h0c4.6,0,8.3,3.7,8.3,8.3l0,0
	C61.7,622.8,58,626.5,53.4,626.5z"/>
<path class="st0" d="M145.8,626.5L145.8,626.5c-4.6,0-8.3-3.7-8.3-8.3l0,0c0-4.6,3.7-8.3,8.3-8.3h0c4.6,0,8.3,3.7,8.3,8.3l0,0
	C154.1,622.8,150.4,626.5,145.8,626.5z"/>
<path class="st0" d="M168.4,626.5L168.4,626.5c-4.6,0-8.3-3.7-8.3-8.3l0,0c0-4.6,3.7-8.3,8.3-8.3h0c4.6,0,8.3,3.7,8.3,8.3l0,0
	C176.7,622.8,173,626.5,168.4,626.5z"/>
<path class="st0" d="M122.2,626.5L122.2,626.5c-4.6,0-8.3-3.7-8.3-8.3l0,0c0-4.6,3.7-8.3,8.3-8.3h0c4.6,0,8.3,3.7,8.3,8.3l0,0
	C130.5,622.8,126.7,626.5,122.2,626.5z"/>
<path class="st0" d="M212.4,626.5L212.4,626.5c-4.6,0-8.3-3.7-8.3-8.3l0,0c0-4.6,3.7-8.3,8.3-8.3h0c4.6,0,8.3,3.7,8.3,8.3l0,0
	C220.7,622.8,217,626.5,212.4,626.5z"/>
<path class="st0" d="M189.8,626.5L189.8,626.5c-4.6,0-8.3-3.7-8.3-8.3l0,0c0-4.6,3.7-8.3,8.3-8.3h0c4.6,0,8.3,3.7,8.3,8.3l0,0
	C198.1,622.8,194.3,626.5,189.8,626.5z"/>
<path class="st0" d="M77.1,649.2L77.1,649.2c-4.6,0-8.3-3.7-8.3-8.3l0,0c0-4.6,3.7-8.3,8.3-8.3h0c4.6,0,8.3,3.7,8.3,8.3l0,0
	C85.4,645.5,81.6,649.2,77.1,649.2z"/>
<path class="st0" d="M99.6,649.2L99.6,649.2c-4.6,0-8.3-3.7-8.3-8.3l0,0c0-4.6,3.7-8.3,8.3-8.3h0c4.6,0,8.3,3.7,8.3,8.3l0,0
	C107.9,645.5,104.2,649.2,99.6,649.2z"/>
<path class="st0" d="M8.3,649.2L8.3,649.2c-4.6,0-8.3-3.7-8.3-8.3l0,0c0-4.6,3.7-8.3,8.3-8.3h0c4.6,0,8.3,3.7,8.3,8.3l0,0
	C16.6,645.5,12.8,649.2,8.3,649.2z"/>
<path class="st0" d="M30.9,649.2L30.9,649.2c-4.6,0-8.3-3.7-8.3-8.3l0,0c0-4.6,3.7-8.3,8.3-8.3h0c4.6,0,8.3,3.7,8.3,8.3l0,0
	C39.1,645.5,35.4,649.2,30.9,649.2z"/>
<path class="st0" d="M53.4,649.2L53.4,649.2c-4.6,0-8.3-3.7-8.3-8.3l0,0c0-4.6,3.7-8.3,8.3-8.3h0c4.6,0,8.3,3.7,8.3,8.3l0,0
	C61.7,645.5,58,649.2,53.4,649.2z"/>
<path class="st0" d="M145.8,649.2L145.8,649.2c-4.6,0-8.3-3.7-8.3-8.3l0,0c0-4.6,3.7-8.3,8.3-8.3h0c4.6,0,8.3,3.7,8.3,8.3l0,0
	C154.1,645.5,150.4,649.2,145.8,649.2z"/>
<path class="st0" d="M168.4,649.2L168.4,649.2c-4.6,0-8.3-3.7-8.3-8.3l0,0c0-4.6,3.7-8.3,8.3-8.3h0c4.6,0,8.3,3.7,8.3,8.3l0,0
	C176.7,645.5,173,649.2,168.4,649.2z"/>
<path class="st0" d="M122.2,649.2L122.2,649.2c-4.6,0-8.3-3.7-8.3-8.3l0,0c0-4.6,3.7-8.3,8.3-8.3h0c4.6,0,8.3,3.7,8.3,8.3l0,0
	C130.5,645.5,126.7,649.2,122.2,649.2z"/>
<path class="st0" d="M212.4,649.2L212.4,649.2c-4.6,0-8.3-3.7-8.3-8.3l0,0c0-4.6,3.7-8.3,8.3-8.3h0c4.6,0,8.3,3.7,8.3,8.3l0,0
	C220.7,645.5,217,649.2,212.4,649.2z"/>
<path class="st0" d="M189.8,649.2L189.8,649.2c-4.6,0-8.3-3.7-8.3-8.3l0,0c0-4.6,3.7-8.3,8.3-8.3h0c4.6,0,8.3,3.7,8.3,8.3l0,0
	C198.1,645.5,194.3,649.2,189.8,649.2z"/>
<g>
	<text transform="matrix(1 0 0 1 7.3135 11.0103)" class="st2 st3 st4">1</text>
	<text transform="matrix(1 0 0 1 29.375 11.0103)" class="st2 st3 st4">2</text>
	<text transform="matrix(1 0 0 1 51.9493 11.0103)" class="st2 st3 st4">3</text>
	<text transform="matrix(1 0 0 1 74.4639 11.0103)" class="st2 st3 st4">4</text>
	<text transform="matrix(1 0 0 1 7.3135 33.6577)" class="st2 st3 st4">1</text>
	<text transform="matrix(1 0 0 1 29.375 33.6577)" class="st2 st3 st4">2</text>
	<text transform="matrix(1 0 0 1 51.9493 33.6577)" class="st2 st3 st4">3</text>
	<text transform="matrix(1 0 0 1 74.4639 33.6577)" class="st2 st3 st4">4</text>
	<text transform="matrix(1 0 0 1 7.3135 55.9136)" class="st2 st3 st4">1</text>
	<text transform="matrix(1 0 0 1 29.375 55.9136)" class="st2 st3 st4">2</text>
	<text transform="matrix(1 0 0 1 51.9493 55.9136)" class="st2 st3 st4">3</text>
	<text transform="matrix(1 0 0 1 74.4639 55.9136)" class="st2 st3 st4">4</text>
	<text transform="matrix(1 0 0 1 7.3135 78.8003)" class="st2 st3 st4">1</text>
	<text transform="matrix(1 0 0 1 29.375 78.8003)" class="st2 st3 st4">2</text>
	<text transform="matrix(1 0 0 1 51.9493 78.8003)" class="st2 st3 st4">3</text>
	<text transform="matrix(1 0 0 1 74.4639 78.8003)" class="st2 st3 st4">4</text>
	<text transform="matrix(1 0 0 1 97.1377 78.8003)" class="st2 st3 st4">5</text>
	<text transform="matrix(1 0 0 1 119.46 78.8003)" class="st2 st3 st4">6</text>
	<text transform="matrix(1 0 0 1 142.4864 78.8003)" class="st2 st3 st4">7</text>
	<text transform="matrix(1 0 0 1 164.6768 78.8003)" class="st2 st3 st4">8</text>
	<text transform="matrix(1 0 0 1 187.1709 78.8003)" class="st2 st3 st4">9</text>
	<text transform="matrix(1 0 0 1 207.8204 78.8003)" class="st2 st3 st4">10</text>
	<text transform="matrix(1 0 0 1 7.3135 100.5649)" class="st2 st3 st4">1</text>
	<text transform="matrix(1 0 0 1 29.375 100.5649)" class="st2 st3 st4">2</text>
	<text transform="matrix(1 0 0 1 51.9493 100.5649)" class="st2 st3 st4">3</text>
	<text transform="matrix(1 0 0 1 74.4639 100.5649)" class="st2 st3 st4">4</text>
	<text transform="matrix(1 0 0 1 97.1377 100.5649)" class="st2 st3 st4">5</text>
	<text transform="matrix(1 0 0 1 119.46 100.5649)" class="st2 st3 st4">6</text>
	<text transform="matrix(1 0 0 1 142.4864 100.5649)" class="st2 st3 st4">7</text>
	<text transform="matrix(1 0 0 1 164.6768 100.5649)" class="st2 st3 st4">8</text>
	<text transform="matrix(1 0 0 1 187.1709 100.5649)" class="st2 st3 st4">9</text>
	<text transform="matrix(1 0 0 1 207.8204 100.5649)" class="st2 st3 st4">10</text>
	<text transform="matrix(1 0 0 1 7.3135 122.9185)" class="st2 st3 st4">1</text>
	<text transform="matrix(1 0 0 1 29.375 122.9185)" class="st2 st3 st4">2</text>
	<text transform="matrix(1 0 0 1 51.9493 122.9185)" class="st2 st3 st4">3</text>
	<text transform="matrix(1 0 0 1 74.4639 122.9185)" class="st2 st3 st4">4</text>
	<text transform="matrix(1 0 0 1 97.1377 122.9185)" class="st2 st3 st4">5</text>
	<text transform="matrix(1 0 0 1 119.46 122.9185)" class="st2 st3 st4">6</text>
	<text transform="matrix(1 0 0 1 142.4864 122.9185)" class="st2 st3 st4">7</text>
	<text transform="matrix(1 0 0 1 164.6768 122.9185)" class="st2 st3 st4">8</text>
	<text transform="matrix(1 0 0 1 187.1709 122.9185)" class="st2 st3 st4">9</text>
	<text transform="matrix(1 0 0 1 207.8204 122.9185)" class="st2 st3 st4">10</text>
	<text transform="matrix(1 0 0 1 97.1377 11.5991)" class="st2 st3 st4">5</text>
	<text transform="matrix(1 0 0 1 119.46 11.5991)" class="st2 st3 st4">6</text>
	<text transform="matrix(1 0 0 1 142.4864 11.5991)" class="st2 st3 st4">7</text>
	<text transform="matrix(1 0 0 1 164.6768 11.5991)" class="st2 st3 st4">8</text>
	<text transform="matrix(1 0 0 1 97.1377 33.3638)" class="st2 st3 st4">5</text>
	<text transform="matrix(1 0 0 1 119.46 33.3638)" class="st2 st3 st4">6</text>
	<text transform="matrix(1 0 0 1 142.4864 33.3638)" class="st2 st3 st4">7</text>
	<text transform="matrix(1 0 0 1 164.6768 33.3638)" class="st2 st3 st4">8</text>
	<text transform="matrix(1 0 0 1 187.1709 33.3638)" class="st2 st3 st4">9</text>
	<text transform="matrix(1 0 0 1 207.8204 33.3638)" class="st2 st3 st4">10</text>
	<text transform="matrix(1 0 0 1 97.1377 55.7173)" class="st2 st3 st4">5</text>
	<text transform="matrix(1 0 0 1 119.46 55.7173)" class="st2 st3 st4">6</text>
	<text transform="matrix(1 0 0 1 142.4864 55.7173)" class="st2 st3 st4">7</text>
	<text transform="matrix(1 0 0 1 164.6768 55.7173)" class="st2 st3 st4">8</text>
	<text transform="matrix(1 0 0 1 187.1709 55.7173)" class="st2 st3 st4">9</text>
	<text transform="matrix(1 0 0 1 207.8204 55.7173)" class="st2 st3 st4">10</text>
	<text transform="matrix(1 0 0 1 7.3135 145.5493)" class="st2 st3 st4">1</text>
	<text transform="matrix(1 0 0 1 29.375 145.5493)" class="st2 st3 st4">2</text>
	<text transform="matrix(1 0 0 1 51.9493 145.5493)" class="st2 st3 st4">3</text>
	<text transform="matrix(1 0 0 1 74.4639 145.5493)" class="st2 st3 st4">4</text>
	<text transform="matrix(1 0 0 1 97.1377 145.5493)" class="st2 st3 st4">5</text>
	<text transform="matrix(1 0 0 1 119.46 145.5493)" class="st2 st3 st4">6</text>
	<text transform="matrix(1 0 0 1 142.4864 145.5493)" class="st2 st3 st4">7</text>
	<text transform="matrix(1 0 0 1 164.6768 145.5493)" class="st2 st3 st4">8</text>
	<text transform="matrix(1 0 0 1 187.1709 145.5493)" class="st2 st3 st4">9</text>
	<text transform="matrix(1 0 0 1 207.8204 145.5493)" class="st2 st3 st4">10</text>
	<text transform="matrix(1 0 0 1 7.3135 168.7075)" class="st2 st3 st4">1</text>
	<text transform="matrix(1 0 0 1 29.375 168.7075)" class="st2 st3 st4">2</text>
	<text transform="matrix(1 0 0 1 51.9493 168.7075)" class="st2 st3 st4">3</text>
	<text transform="matrix(1 0 0 1 74.4639 168.7075)" class="st2 st3 st4">4</text>
	<text transform="matrix(1 0 0 1 97.1377 168.7075)" class="st2 st3 st4">5</text>
	<text transform="matrix(1 0 0 1 119.46 168.7075)" class="st2 st3 st4">6</text>
	<text transform="matrix(1 0 0 1 142.4864 168.7075)" class="st2 st3 st4">7</text>
	<text transform="matrix(1 0 0 1 164.6768 168.7075)" class="st2 st3 st4">8</text>
	<text transform="matrix(1 0 0 1 187.1709 168.7075)" class="st2 st3 st4">9</text>
	<text transform="matrix(1 0 0 1 207.8204 168.7075)" class="st2 st3 st4">10</text>
	<text transform="matrix(1 0 0 1 7.3135 192.0864)" class="st2 st3 st4">1</text>
	<text transform="matrix(1 0 0 1 29.375 192.0864)" class="st2 st3 st4">2</text>
	<text transform="matrix(1 0 0 1 51.9493 192.0864)" class="st2 st3 st4">3</text>
	<text transform="matrix(1 0 0 1 74.4639 192.0864)" class="st2 st3 st4">4</text>
	<text transform="matrix(1 0 0 1 97.1377 192.0864)" class="st2 st3 st4">5</text>
	<text transform="matrix(1 0 0 1 119.46 192.0864)" class="st2 st3 st4">6</text>
	<text transform="matrix(1 0 0 1 142.4864 192.0864)" class="st2 st3 st4">7</text>
	<text transform="matrix(1 0 0 1 164.6768 192.0864)" class="st2 st3 st4">8</text>
	<text transform="matrix(1 0 0 1 187.1709 192.0864)" class="st2 st3 st4">9</text>
	<text transform="matrix(1 0 0 1 207.8204 192.0864)" class="st2 st3 st4">10</text>
	<text transform="matrix(1 0 0 1 7.3135 214.7339)" class="st2 st3 st4">1</text>
	<text transform="matrix(1 0 0 1 29.375 214.7339)" class="st2 st3 st4">2</text>
	<text transform="matrix(1 0 0 1 51.9493 214.7339)" class="st2 st3 st4">3</text>
	<text transform="matrix(1 0 0 1 74.4639 214.7339)" class="st2 st3 st4">4</text>
	<text transform="matrix(1 0 0 1 97.1377 214.7339)" class="st2 st3 st4">5</text>
	<text transform="matrix(1 0 0 1 119.46 214.7339)" class="st2 st3 st4">6</text>
	<text transform="matrix(1 0 0 1 142.4864 214.7339)" class="st2 st3 st4">7</text>
	<text transform="matrix(1 0 0 1 164.6768 214.7339)" class="st2 st3 st4">8</text>
	<text transform="matrix(1 0 0 1 7.3135 236.9897)" class="st2 st3 st4">1</text>
	<text transform="matrix(1 0 0 1 29.375 236.9897)" class="st2 st3 st4">2</text>
	<text transform="matrix(1 0 0 1 51.9493 236.9897)" class="st2 st3 st4">3</text>
	<text transform="matrix(1 0 0 1 74.4639 236.9897)" class="st2 st3 st4">4</text>
	<text transform="matrix(1 0 0 1 97.1377 236.9897)" class="st2 st3 st4">5</text>
	<text transform="matrix(1 0 0 1 119.46 236.9897)" class="st2 st3 st4">6</text>
	<text transform="matrix(1 0 0 1 142.4864 236.9897)" class="st2 st3 st4">7</text>
	<text transform="matrix(1 0 0 1 164.6768 236.9897)" class="st2 st3 st4">8</text>
	<text transform="matrix(1 0 0 1 7.3135 259.8765)" class="st2 st3 st4">1</text>
	<text transform="matrix(1 0 0 1 29.375 259.8765)" class="st2 st3 st4">2</text>
	<text transform="matrix(1 0 0 1 51.9493 259.8765)" class="st2 st3 st4">3</text>
	<text transform="matrix(1 0 0 1 74.4639 259.8765)" class="st2 st3 st4">4</text>
	<text transform="matrix(1 0 0 1 97.1377 259.8765)" class="st2 st3 st4">5</text>
	<text transform="matrix(1 0 0 1 119.46 259.8765)" class="st2 st3 st4">6</text>
	<text transform="matrix(1 0 0 1 142.4864 259.8765)" class="st2 st3 st4">7</text>
	<text transform="matrix(1 0 0 1 164.6768 259.8765)" class="st2 st3 st4">8</text>
	<text transform="matrix(1 0 0 1 7.3135 281.6411)" class="st2 st3 st4">1</text>
	<text transform="matrix(1 0 0 1 29.375 281.6411)" class="st2 st3 st4">2</text>
	<text transform="matrix(1 0 0 1 51.9493 281.6411)" class="st2 st3 st4">3</text>
	<text transform="matrix(1 0 0 1 74.4639 281.6411)" class="st2 st3 st4">4</text>
	<text transform="matrix(1 0 0 1 97.1377 281.6411)" class="st2 st3 st4">5</text>
	<text transform="matrix(1 0 0 1 119.46 281.6411)" class="st2 st3 st4">6</text>
	<text transform="matrix(1 0 0 1 142.4864 281.6411)" class="st2 st3 st4">7</text>
	<text transform="matrix(1 0 0 1 164.6768 281.6411)" class="st2 st3 st4">8</text>
	<text transform="matrix(1 0 0 1 7.3135 303.9946)" class="st2 st3 st4">1</text>
	<text transform="matrix(1 0 0 1 29.375 303.9946)" class="st2 st3 st4">2</text>
	<text transform="matrix(1 0 0 1 51.9493 303.9946)" class="st2 st3 st4">3</text>
	<text transform="matrix(1 0 0 1 74.4639 303.9946)" class="st2 st3 st4">4</text>
	<text transform="matrix(1 0 0 1 97.1377 303.9946)" class="st2 st3 st4">5</text>
	<text transform="matrix(1 0 0 1 119.46 303.9946)" class="st2 st3 st4">6</text>
	<text transform="matrix(1 0 0 1 142.4864 303.9946)" class="st2 st3 st4">7</text>
	<text transform="matrix(1 0 0 1 164.6768 303.9946)" class="st2 st3 st4">8</text>
	<text transform="matrix(1 0 0 1 7.3135 326.6255)" class="st2 st3 st4">1</text>
	<text transform="matrix(1 0 0 1 29.375 326.6255)" class="st2 st3 st4">2</text>
	<text transform="matrix(1 0 0 1 51.9493 326.6255)" class="st2 st3 st4">3</text>
	<text transform="matrix(1 0 0 1 74.4639 326.6255)" class="st2 st3 st4">4</text>
	<text transform="matrix(1 0 0 1 97.1377 326.6255)" class="st2 st3 st4">5</text>
	<text transform="matrix(1 0 0 1 119.46 326.6255)" class="st2 st3 st4">6</text>
	<text transform="matrix(1 0 0 1 142.4864 326.6255)" class="st2 st3 st4">7</text>
	<text transform="matrix(1 0 0 1 164.6768 326.6255)" class="st2 st3 st4">8</text>
	<text transform="matrix(1 0 0 1 7.3135 349.7837)" class="st2 st3 st4">1</text>
	<text transform="matrix(1 0 0 1 29.375 349.7837)" class="st2 st3 st4">2</text>
	<text transform="matrix(1 0 0 1 51.9493 349.7837)" class="st2 st3 st4">3</text>
	<text transform="matrix(1 0 0 1 74.4639 349.7837)" class="st2 st3 st4">4</text>
	<text transform="matrix(1 0 0 1 97.1377 349.7837)" class="st2 st3 st4">5</text>
	<text transform="matrix(1 0 0 1 119.46 349.7837)" class="st2 st3 st4">6</text>
	<text transform="matrix(1 0 0 1 142.4864 349.7837)" class="st2 st3 st4">7</text>
	<text transform="matrix(1 0 0 1 164.6768 349.7837)" class="st2 st3 st4">8</text>
	<text transform="matrix(1 0 0 1 7.3135 371.8511)" class="st2 st3 st4">1</text>
	<text transform="matrix(1 0 0 1 29.375 371.8511)" class="st2 st3 st4">2</text>
	<text transform="matrix(1 0 0 1 51.9493 371.8511)" class="st2 st3 st4">3</text>
	<text transform="matrix(1 0 0 1 74.4639 371.8511)" class="st2 st3 st4">4</text>
	<text transform="matrix(1 0 0 1 97.1377 371.8511)" class="st2 st3 st4">5</text>
	<text transform="matrix(1 0 0 1 119.46 371.8511)" class="st2 st3 st4">6</text>
	<text transform="matrix(1 0 0 1 142.4864 371.8511)" class="st2 st3 st4">7</text>
	<text transform="matrix(1 0 0 1 164.6768 371.8511)" class="st2 st3 st4">8</text>
	<text transform="matrix(1 0 0 1 7.3135 395.3052)" class="st2 st3 st4">1</text>
	<text transform="matrix(1 0 0 1 29.375 395.3052)" class="st2 st3 st4">2</text>
	<text transform="matrix(1 0 0 1 51.9493 395.3052)" class="st2 st3 st4">3</text>
	<text transform="matrix(1 0 0 1 74.4639 395.3052)" class="st2 st3 st4">4</text>
	<text transform="matrix(1 0 0 1 97.1377 395.3052)" class="st2 st3 st4">5</text>
	<text transform="matrix(1 0 0 1 119.46 395.3052)" class="st2 st3 st4">6</text>
	<text transform="matrix(1 0 0 1 142.4864 395.3052)" class="st2 st3 st4">7</text>
	<text transform="matrix(1 0 0 1 164.6768 395.3052)" class="st2 st3 st4">8</text>
	<text transform="matrix(1 0 0 1 187.1709 395.3052)" class="st2 st3 st4">9</text>
	<text transform="matrix(1 0 0 1 207.8204 395.3052)" class="st2 st3 st4">10</text>
	<text transform="matrix(1 0 0 1 7.3135 417.9526)" class="st2 st3 st4">1</text>
	<text transform="matrix(1 0 0 1 29.375 417.9526)" class="st2 st3 st4">2</text>
	<text transform="matrix(1 0 0 1 51.9493 417.9526)" class="st2 st3 st4">3</text>
	<text transform="matrix(1 0 0 1 74.4639 417.9526)" class="st2 st3 st4">4</text>
	<text transform="matrix(1 0 0 1 97.1377 417.9526)" class="st2 st3 st4">5</text>
	<text transform="matrix(1 0 0 1 119.46 417.9526)" class="st2 st3 st4">6</text>
	<text transform="matrix(1 0 0 1 142.4864 417.9526)" class="st2 st3 st4">7</text>
	<text transform="matrix(1 0 0 1 164.6768 417.9526)" class="st2 st3 st4">8</text>
	<text transform="matrix(1 0 0 1 187.1709 417.9526)" class="st2 st3 st4">9</text>
	<text transform="matrix(1 0 0 1 207.8204 417.9526)" class="st2 st3 st4">10</text>
	<text transform="matrix(1 0 0 1 7.3135 440.2085)" class="st2 st3 st4">1</text>
	<text transform="matrix(1 0 0 1 29.375 440.2085)" class="st2 st3 st4">2</text>
	<text transform="matrix(1 0 0 1 51.9493 440.2085)" class="st2 st3 st4">3</text>
	<text transform="matrix(1 0 0 1 74.4639 440.2085)" class="st2 st3 st4">4</text>
	<text transform="matrix(1 0 0 1 97.1377 440.2085)" class="st2 st3 st4">5</text>
	<text transform="matrix(1 0 0 1 119.46 440.2085)" class="st2 st3 st4">6</text>
	<text transform="matrix(1 0 0 1 142.4864 440.2085)" class="st2 st3 st4">7</text>
	<text transform="matrix(1 0 0 1 164.6768 440.2085)" class="st2 st3 st4">8</text>
	<text transform="matrix(1 0 0 1 187.1709 440.2085)" class="st2 st3 st4">9</text>
	<text transform="matrix(1 0 0 1 207.8204 440.2085)" class="st2 st3 st4">10</text>
	<text transform="matrix(1 0 0 1 7.3135 463.0952)" class="st2 st3 st4">1</text>
	<text transform="matrix(1 0 0 1 29.375 463.0952)" class="st2 st3 st4">2</text>
	<text transform="matrix(1 0 0 1 51.9493 463.0952)" class="st2 st3 st4">3</text>
	<text transform="matrix(1 0 0 1 74.4639 463.0952)" class="st2 st3 st4">4</text>
	<text transform="matrix(1 0 0 1 97.1377 463.0952)" class="st2 st3 st4">5</text>
	<text transform="matrix(1 0 0 1 119.46 463.0952)" class="st2 st3 st4">6</text>
	<text transform="matrix(1 0 0 1 142.4864 463.0952)" class="st2 st3 st4">7</text>
	<text transform="matrix(1 0 0 1 164.6768 463.0952)" class="st2 st3 st4">8</text>
	<text transform="matrix(1 0 0 1 187.1709 463.0952)" class="st2 st3 st4">9</text>
	<text transform="matrix(1 0 0 1 207.8204 463.0952)" class="st2 st3 st4">10</text>
	<text transform="matrix(1 0 0 1 7.3135 484.8599)" class="st2 st3 st4">1</text>
	<text transform="matrix(1 0 0 1 29.375 484.8599)" class="st2 st3 st4">2</text>
	<text transform="matrix(1 0 0 1 51.9493 484.8599)" class="st2 st3 st4">3</text>
	<text transform="matrix(1 0 0 1 74.4639 484.8599)" class="st2 st3 st4">4</text>
	<text transform="matrix(1 0 0 1 97.1377 484.8599)" class="st2 st3 st4">5</text>
	<text transform="matrix(1 0 0 1 119.46 484.8599)" class="st2 st3 st4">6</text>
	<text transform="matrix(1 0 0 1 142.4864 484.8599)" class="st2 st3 st4">7</text>
	<text transform="matrix(1 0 0 1 164.6768 484.8599)" class="st2 st3 st4">8</text>
	<text transform="matrix(1 0 0 1 187.1709 484.8599)" class="st2 st3 st4">9</text>
	<text transform="matrix(1 0 0 1 207.8204 484.8599)" class="st2 st3 st4">10</text>
	<text transform="matrix(1 0 0 1 7.3135 507.2134)" class="st2 st3 st4">1</text>
	<text transform="matrix(1 0 0 1 29.375 507.2134)" class="st2 st3 st4">2</text>
	<text transform="matrix(1 0 0 1 51.9493 507.2134)" class="st2 st3 st4">3</text>
	<text transform="matrix(1 0 0 1 74.4639 507.2134)" class="st2 st3 st4">4</text>
	<text transform="matrix(1 0 0 1 97.1377 507.2134)" class="st2 st3 st4">5</text>
	<text transform="matrix(1 0 0 1 119.46 507.2134)" class="st2 st3 st4">6</text>
	<text transform="matrix(1 0 0 1 142.4864 507.2134)" class="st2 st3 st4">7</text>
	<text transform="matrix(1 0 0 1 164.6768 507.2134)" class="st2 st3 st4">8</text>
	<text transform="matrix(1 0 0 1 187.1709 507.2134)" class="st2 st3 st4">9</text>
	<text transform="matrix(1 0 0 1 207.8204 507.2134)" class="st2 st3 st4">10</text>
	<text transform="matrix(1 0 0 1 7.3135 529.8442)" class="st2 st3 st4">1</text>
	<text transform="matrix(1 0 0 1 29.375 529.8442)" class="st2 st3 st4">2</text>
	<text transform="matrix(1 0 0 1 51.9493 529.8442)" class="st2 st3 st4">3</text>
	<text transform="matrix(1 0 0 1 74.4639 529.8442)" class="st2 st3 st4">4</text>
	<text transform="matrix(1 0 0 1 97.1377 529.8442)" class="st2 st3 st4">5</text>
	<text transform="matrix(1 0 0 1 119.46 529.8442)" class="st2 st3 st4">6</text>
	<text transform="matrix(1 0 0 1 142.4864 529.8442)" class="st2 st3 st4">7</text>
	<text transform="matrix(1 0 0 1 164.6768 529.8442)" class="st2 st3 st4">8</text>
	<text transform="matrix(1 0 0 1 187.1709 529.8442)" class="st2 st3 st4">9</text>
	<text transform="matrix(1 0 0 1 207.8204 529.8442)" class="st2 st3 st4">10</text>
	<text transform="matrix(1 0 0 1 7.3135 553.0024)" class="st2 st3 st4">1</text>
	<text transform="matrix(1 0 0 1 29.375 553.0024)" class="st2 st3 st4">2</text>
	<text transform="matrix(1 0 0 1 51.9493 553.0024)" class="st2 st3 st4">3</text>
	<text transform="matrix(1 0 0 1 74.4639 553.0024)" class="st2 st3 st4">4</text>
	<text transform="matrix(1 0 0 1 97.1377 553.0024)" class="st2 st3 st4">5</text>
	<text transform="matrix(1 0 0 1 119.46 553.0024)" class="st2 st3 st4">6</text>
	<text transform="matrix(1 0 0 1 142.4864 553.0024)" class="st2 st3 st4">7</text>
	<text transform="matrix(1 0 0 1 164.6768 553.0024)" class="st2 st3 st4">8</text>
	<text transform="matrix(1 0 0 1 187.1709 553.0024)" class="st2 st3 st4">9</text>
	<text transform="matrix(1 0 0 1 207.8204 553.0024)" class="st2 st3 st4">10</text>
	<text transform="matrix(1 0 0 1 7.3135 575.1743)" class="st2 st3 st4">1</text>
	<text transform="matrix(1 0 0 1 29.375 575.1743)" class="st2 st3 st4">2</text>
	<text transform="matrix(1 0 0 1 51.9493 575.1743)" class="st2 st3 st4">3</text>
	<text transform="matrix(1 0 0 1 74.4639 575.1743)" class="st2 st3 st4">4</text>
	<text transform="matrix(1 0 0 1 97.1377 575.1743)" class="st2 st3 st4">5</text>
	<text transform="matrix(1 0 0 1 119.46 575.1743)" class="st2 st3 st4">6</text>
	<text transform="matrix(1 0 0 1 142.4864 575.1743)" class="st2 st3 st4">7</text>
	<text transform="matrix(1 0 0 1 164.6768 575.1743)" class="st2 st3 st4">8</text>
	<text transform="matrix(1 0 0 1 187.1709 575.1743)" class="st2 st3 st4">9</text>
	<text transform="matrix(1 0 0 1 207.8204 575.1743)" class="st2 st3 st4">10</text>
	<text transform="matrix(1 0 0 1 7.3135 598.5366)" class="st2 st3 st4">1</text>
	<text transform="matrix(1 0 0 1 29.375 598.5366)" class="st2 st3 st4">2</text>
	<text transform="matrix(1 0 0 1 51.9493 598.5366)" class="st2 st3 st4">3</text>
	<text transform="matrix(1 0 0 1 74.4639 598.5366)" class="st2 st3 st4">4</text>
	<text transform="matrix(1 0 0 1 97.1377 598.5366)" class="st2 st3 st4">5</text>
	<text transform="matrix(1 0 0 1 119.46 598.5366)" class="st2 st3 st4">6</text>
	<text transform="matrix(1 0 0 1 142.4864 598.5366)" class="st2 st3 st4">7</text>
	<text transform="matrix(1 0 0 1 164.6768 598.5366)" class="st2 st3 st4">8</text>
	<text transform="matrix(1 0 0 1 187.1709 598.5366)" class="st2 st3 st4">9</text>
	<text transform="matrix(1 0 0 1 207.8204 598.5366)" class="st2 st3 st4">10</text>
	<text transform="matrix(1 0 0 1 7.3135 621.6948)" class="st2 st3 st4">1</text>
	<text transform="matrix(1 0 0 1 29.375 621.6948)" class="st2 st3 st4">2</text>
	<text transform="matrix(1 0 0 1 51.9493 621.6948)" class="st2 st3 st4">3</text>
	<text transform="matrix(1 0 0 1 74.4639 621.6948)" class="st2 st3 st4">4</text>
	<text transform="matrix(1 0 0 1 97.1377 621.6948)" class="st2 st3 st4">5</text>
	<text transform="matrix(1 0 0 1 119.46 621.6948)" class="st2 st3 st4">6</text>
	<text transform="matrix(1 0 0 1 142.4864 621.6948)" class="st2 st3 st4">7</text>
	<text transform="matrix(1 0 0 1 164.6768 621.6948)" class="st2 st3 st4">8</text>
	<text transform="matrix(1 0 0 1 187.1709 621.6948)" class="st2 st3 st4">9</text>
	<text transform="matrix(1 0 0 1 207.8204 621.6948)" class="st2 st3 st4">10</text>
	<text transform="matrix(1 0 0 1 7.3135 643.8667)" class="st2 st3 st4">1</text>
	<text transform="matrix(1 0 0 1 29.375 643.8667)" class="st2 st3 st4">2</text>
	<text transform="matrix(1 0 0 1 51.9493 643.8667)" class="st2 st3 st4">3</text>
	<text transform="matrix(1 0 0 1 74.4639 643.8667)" class="st2 st3 st4">4</text>
	<text transform="matrix(1 0 0 1 97.1377 643.8667)" class="st2 st3 st4">5</text>
	<text transform="matrix(1 0 0 1 119.46 643.8667)" class="st2 st3 st4">6</text>
	<text transform="matrix(1 0 0 1 142.4864 643.8667)" class="st2 st3 st4">7</text>
	<text transform="matrix(1 0 0 1 164.6768 643.8667)" class="st2 st3 st4">8</text>
	<text transform="matrix(1 0 0 1 187.1709 643.8667)" class="st2 st3 st4">9</text>
	<text transform="matrix(1 0 0 1 207.8204 643.8667)" class="st2 st3 st4">10</text>
</g>
<g>
	<text transform="matrix(1 0 0 1 281.4077 9.8198)" class="st5 st6 st7">29</text>
	<text transform="matrix(1 0 0 1 281.4077 55.3159)" class="st5 st6 st7">27</text>
	<text transform="matrix(1 0 0 1 281.4077 32.7456)" class="st5 st6 st7">28</text>
	<text transform="matrix(1 0 0 1 281.4077 100.4585)" class="st5 st6 st7">25</text>
	<text transform="matrix(1 0 0 1 281.2476 281.0581)" class="st5 st6 st7">17</text>
	<text transform="matrix(1 0 0 1 281.2476 303.6108)" class="st5 st6 st7">16</text>
	<text transform="matrix(1 0 0 1 281.4077 326.2456)" class="st5 st6 st7">15</text>
	<text transform="matrix(1 0 0 1 281.4077 348.7983)" class="st5 st6 st7">14</text>
	<text transform="matrix(1 0 0 1 281.2202 371.4312)" class="st5 st6 st7">13</text>
	<text transform="matrix(1 0 0 1 281.2476 393.9839)" class="st5 st6 st7">12</text>
	<text transform="matrix(1 0 0 1 281.5835 574.6812)" class="st5 st6 st7">4</text>
	<text transform="matrix(1 0 0 1 281.5835 597.314)" class="st5 st6 st7">3</text>
	<text transform="matrix(1 0 0 1 281.2202 619.8667)" class="st5 st6 st7">2</text>
	<text transform="matrix(1 0 0 1 281.2202 643.8667)" class="st5 st6 st7">1</text>
	<text transform="matrix(1 0 0 1 281.4077 77.8882)" class="st5 st6 st7">26</text>
	<text transform="matrix(1 0 0 1 281.4077 122.9136)" class="st5 st6 st7">24</text>
	<text transform="matrix(1 0 0 1 281.4077 168.1011)" class="st5 st6 st7">22</text>
	<text transform="matrix(1 0 0 1 281.4077 145.5308)" class="st5 st6 st7">23</text>
	<text transform="matrix(1 0 0 1 281.4077 213.2456)" class="st5 st6 st7">20</text>
	<text transform="matrix(1 0 0 1 281.4077 190.6753)" class="st5 st6 st7">21</text>
	<text transform="matrix(1 0 0 1 281.2202 258.3882)" class="st5 st6 st7">18</text>
	<text transform="matrix(1 0 0 1 281.2476 235.8179)" class="st5 st6 st7">19</text>
	<text transform="matrix(1 0 0 1 281.2476 416.5366)" class="st5 st6 st7">11</text>
	<text transform="matrix(1 0 0 1 281.2476 461.7241)" class="st5 st6 st7">9</text>
	<text transform="matrix(1 0 0 1 281.2476 439.1538)" class="st5 st6 st7">10</text>
	<text transform="matrix(1 0 0 1 281.855 506.8706)" class="st5 st6 st7">7</text>
	<text transform="matrix(1 0 0 1 281.2202 484.3003)" class="st5 st6 st7">8</text>
	<text transform="matrix(1 0 0 1 281.2476 529.4429)" class="st5 st6 st7">6</text>
	<text transform="matrix(1 0 0 1 281.855 552.0249)" class="st5 st6 st7">5</text>
</g>
</svg>
