<?xml version="1.0" encoding="utf-8"?>
<!-- Generator: Adobe Illustrator 20.1.0, SVG Export Plug-In . SVG Version: 6.00 Build 0)  -->
<svg version="1.1" id="Layer_1" xmlns="http://www.w3.org/2000/svg" xmlns:xlink="http://www.w3.org/1999/xlink" x="0px" y="0px"
	 viewBox="0 0 358 446.5" style="enable-background:new 0 0 358 446.5;" xml:space="preserve">
<style type="text/css">
	.st0{fill:#D9F6E1;}
	.st1{fill:#FFFFFF;}
	.st2{fill:#737373;}
	.st3{font-family:'OsnovaPro';}
	.st4{font-size:8px;}
	.st5{fill:#7B878F;}
	.st6{font-family:'OsnovaProLight';}
	.st7{font-size:9px;}
</style>
<path class="st0" d="M8.3,16.6L8.3,16.6C3.8,16.6,0,12.8,0,8.3v0C0,3.7,3.8,0,8.3,0h0c4.6,0,8.3,3.7,8.3,8.3v0
	C16.6,12.8,12.9,16.6,8.3,16.6z"/>
<path class="st0" d="M30.9,16.6L30.9,16.6c-4.6,0-8.3-3.7-8.3-8.3v0c0-4.6,3.7-8.3,8.3-8.3h0c4.6,0,8.3,3.7,8.3,8.3v0
	C39.2,12.8,35.4,16.6,30.9,16.6z"/>
<path class="st0" d="M53.5,16.6L53.5,16.6c-4.6,0-8.3-3.7-8.3-8.3v0c0-4.6,3.7-8.3,8.3-8.3h0c4.6,0,8.3,3.7,8.3,8.3v0
	C61.7,12.8,58,16.6,53.5,16.6z"/>
<path class="st0" d="M76,16.6L76,16.6c-4.6,0-8.3-3.7-8.3-8.3v0C67.7,3.7,71.5,0,76,0h0c4.6,0,8.3,3.7,8.3,8.3v0
	C84.3,12.8,80.6,16.6,76,16.6z"/>
<path class="st0" d="M98.6,16.6L98.6,16.6c-4.6,0-8.3-3.7-8.3-8.3v0C90.3,3.7,94,0,98.6,0h0c4.6,0,8.3,3.7,8.3,8.3v0
	C106.9,12.8,103.1,16.6,98.6,16.6z"/>
<path class="st0" d="M121.2,16.6L121.2,16.6c-4.6,0-8.3-3.7-8.3-8.3v0c0-4.6,3.7-8.3,8.3-8.3h0c4.6,0,8.3,3.7,8.3,8.3v0
	C129.4,12.8,125.7,16.6,121.2,16.6z"/>
<path class="st0" d="M143.8,16.6L143.8,16.6c-4.6,0-8.3-3.7-8.3-8.3v0c0-4.6,3.7-8.3,8.3-8.3h0c4.6,0,8.3,3.7,8.3,8.3v0
	C152.1,12.8,148.3,16.6,143.8,16.6z"/>
<path class="st0" d="M166.3,16.6L166.3,16.6c-4.6,0-8.3-3.7-8.3-8.3v0c0-4.6,3.7-8.3,8.3-8.3h0c4.6,0,8.3,3.7,8.3,8.3v0
	C174.6,12.8,170.9,16.6,166.3,16.6z"/>
<path class="st0" d="M188.9,16.6L188.9,16.6c-4.6,0-8.3-3.7-8.3-8.3v0c0-4.6,3.7-8.3,8.3-8.3h0c4.6,0,8.3,3.7,8.3,8.3v0
	C197.2,12.8,193.5,16.6,188.9,16.6z"/>
<path class="st0" d="M211.5,16.6L211.5,16.6c-4.6,0-8.3-3.7-8.3-8.3v0c0-4.6,3.7-8.3,8.3-8.3h0c4.6,0,8.3,3.7,8.3,8.3v0
	C219.8,12.8,216,16.6,211.5,16.6z"/>
<path class="st1" d="M8.3,107.9L8.3,107.9c-4.6,0-8.3-3.7-8.3-8.3v0c0-4.6,3.7-8.3,8.3-8.3h0c4.6,0,8.3,3.7,8.3,8.3v0
	C16.6,104.2,12.8,107.9,8.3,107.9z"/>
<path class="st1" d="M30.9,107.9L30.9,107.9c-4.6,0-8.3-3.7-8.3-8.3v0c0-4.6,3.7-8.3,8.3-8.3h0c4.6,0,8.3,3.7,8.3,8.3v0
	C39.1,104.2,35.4,107.9,30.9,107.9z"/>
<path class="st1" d="M53.4,107.9L53.4,107.9c-4.6,0-8.3-3.7-8.3-8.3v0c0-4.6,3.7-8.3,8.3-8.3h0c4.6,0,8.3,3.7,8.3,8.3v0
	C61.7,104.2,58,107.9,53.4,107.9z"/>
<path class="st1" d="M76,107.9L76,107.9c-4.6,0-8.3-3.7-8.3-8.3v0c0-4.6,3.7-8.3,8.3-8.3h0c4.6,0,8.3,3.7,8.3,8.3v0
	C84.3,104.2,80.6,107.9,76,107.9z"/>
<path class="st1" d="M98.6,107.9L98.6,107.9c-4.6,0-8.3-3.7-8.3-8.3v0c0-4.6,3.7-8.3,8.3-8.3h0c4.6,0,8.3,3.7,8.3,8.3v0
	C106.9,104.2,103.1,107.9,98.6,107.9z"/>
<path class="st1" d="M121.1,107.9L121.1,107.9c-4.6,0-8.3-3.7-8.3-8.3v0c0-4.6,3.7-8.3,8.3-8.3h0c4.6,0,8.3,3.7,8.3,8.3v0
	C129.4,104.2,125.7,107.9,121.1,107.9z"/>
<path class="st1" d="M143.7,107.9L143.7,107.9c-4.6,0-8.3-3.7-8.3-8.3v0c0-4.6,3.7-8.3,8.3-8.3h0c4.6,0,8.3,3.7,8.3,8.3v0
	C152,104.2,148.3,107.9,143.7,107.9z"/>
<path class="st1" d="M166.3,107.9L166.3,107.9c-4.6,0-8.3-3.7-8.3-8.3v0c0-4.6,3.7-8.3,8.3-8.3h0c4.6,0,8.3,3.7,8.3,8.3v0
	C174.6,104.2,170.8,107.9,166.3,107.9z"/>
<path class="st1" d="M188.8,107.9L188.8,107.9c-4.6,0-8.3-3.7-8.3-8.3v0c0-4.6,3.7-8.3,8.3-8.3h0c4.6,0,8.3,3.7,8.3,8.3v0
	C197.1,104.2,193.4,107.9,188.8,107.9z"/>
<path class="st1" d="M211.4,107.9L211.4,107.9c-4.6,0-8.3-3.7-8.3-8.3v0c0-4.6,3.7-8.3,8.3-8.3h0c4.6,0,8.3,3.7,8.3,8.3v0
	C219.7,104.2,216,107.9,211.4,107.9z"/>
<path class="st1" d="M234,107.9L234,107.9c-4.6,0-8.3-3.7-8.3-8.3v0c0-4.6,3.7-8.3,8.3-8.3h0c4.6,0,8.3,3.7,8.3,8.3v0
	C242.3,104.2,238.5,107.9,234,107.9z"/>
<path class="st1" d="M256.6,107.9L256.6,107.9c-4.6,0-8.3-3.7-8.3-8.3v0c0-4.6,3.7-8.3,8.3-8.3h0c4.6,0,8.3,3.7,8.3,8.3v0
	C264.8,104.2,261.1,107.9,256.6,107.9z"/>
<path class="st1" d="M8.3,85.3L8.3,85.3C3.7,85.3,0,81.6,0,77v0c0-4.6,3.7-8.3,8.3-8.3h0c4.6,0,8.3,3.7,8.3,8.3v0
	C16.6,81.6,12.8,85.3,8.3,85.3z"/>
<path class="st1" d="M30.9,85.3L30.9,85.3c-4.6,0-8.3-3.7-8.3-8.3v0c0-4.6,3.7-8.3,8.3-8.3h0c4.6,0,8.3,3.7,8.3,8.3v0
	C39.1,81.6,35.4,85.3,30.9,85.3z"/>
<path class="st1" d="M53.4,85.3L53.4,85.3c-4.6,0-8.3-3.7-8.3-8.3v0c0-4.6,3.7-8.3,8.3-8.3h0c4.6,0,8.3,3.7,8.3,8.3v0
	C61.7,81.6,58,85.3,53.4,85.3z"/>
<path class="st1" d="M76,85.3L76,85.3c-4.6,0-8.3-3.7-8.3-8.3v0c0-4.6,3.7-8.3,8.3-8.3h0c4.6,0,8.3,3.7,8.3,8.3v0
	C84.3,81.6,80.6,85.3,76,85.3z"/>
<path class="st1" d="M98.6,85.3L98.6,85.3c-4.6,0-8.3-3.7-8.3-8.3v0c0-4.6,3.7-8.3,8.3-8.3h0c4.6,0,8.3,3.7,8.3,8.3v0
	C106.9,81.6,103.1,85.3,98.6,85.3z"/>
<path class="st1" d="M121.1,85.3L121.1,85.3c-4.6,0-8.3-3.7-8.3-8.3v0c0-4.6,3.7-8.3,8.3-8.3h0c4.6,0,8.3,3.7,8.3,8.3v0
	C129.4,81.6,125.7,85.3,121.1,85.3z"/>
<path class="st1" d="M143.7,85.3L143.7,85.3c-4.6,0-8.3-3.7-8.3-8.3v0c0-4.6,3.7-8.3,8.3-8.3h0c4.6,0,8.3,3.7,8.3,8.3v0
	C152,81.6,148.3,85.3,143.7,85.3z"/>
<path class="st1" d="M166.3,85.3L166.3,85.3c-4.6,0-8.3-3.7-8.3-8.3v0c0-4.6,3.7-8.3,8.3-8.3h0c4.6,0,8.3,3.7,8.3,8.3v0
	C174.6,81.6,170.8,85.3,166.3,85.3z"/>
<path class="st1" d="M188.8,85.3L188.8,85.3c-4.6,0-8.3-3.7-8.3-8.3v0c0-4.6,3.7-8.3,8.3-8.3h0c4.6,0,8.3,3.7,8.3,8.3v0
	C197.1,81.6,193.4,85.3,188.8,85.3z"/>
<path class="st1" d="M211.4,85.3L211.4,85.3c-4.6,0-8.3-3.7-8.3-8.3v0c0-4.6,3.7-8.3,8.3-8.3h0c4.6,0,8.3,3.7,8.3,8.3v0
	C219.7,81.6,216,85.3,211.4,85.3z"/>
<path class="st1" d="M234,85.3L234,85.3c-4.6,0-8.3-3.7-8.3-8.3v0c0-4.6,3.7-8.3,8.3-8.3h0c4.6,0,8.3,3.7,8.3,8.3v0
	C242.3,81.6,238.5,85.3,234,85.3z"/>
<path class="st1" d="M256.6,85.3L256.6,85.3c-4.6,0-8.3-3.7-8.3-8.3v0c0-4.6,3.7-8.3,8.3-8.3h0c4.6,0,8.3,3.7,8.3,8.3v0
	C264.8,81.6,261.1,85.3,256.6,85.3z"/>
<path class="st1" d="M279.1,85.3L279.1,85.3c-4.6,0-8.3-3.7-8.3-8.3v0c0-4.6,3.7-8.3,8.3-8.3h0c4.6,0,8.3,3.7,8.3,8.3v0
	C287.4,81.6,283.7,85.3,279.1,85.3z"/>
<path class="st1" d="M8.3,153L8.3,153c-4.6,0-8.3-3.7-8.3-8.3v0c0-4.6,3.7-8.3,8.3-8.3h0c4.6,0,8.3,3.7,8.3,8.3v0
	C16.6,149.3,12.9,153,8.3,153z"/>
<path class="st1" d="M30.9,153L30.9,153c-4.6,0-8.3-3.7-8.3-8.3v0c0-4.6,3.7-8.3,8.3-8.3h0c4.6,0,8.3,3.7,8.3,8.3v0
	C39.2,149.3,35.4,153,30.9,153z"/>
<path class="st1" d="M53.5,153L53.5,153c-4.6,0-8.3-3.7-8.3-8.3v0c0-4.6,3.7-8.3,8.3-8.3h0c4.6,0,8.3,3.7,8.3,8.3v0
	C61.7,149.3,58,153,53.5,153z"/>
<path class="st1" d="M76,153L76,153c-4.6,0-8.3-3.7-8.3-8.3v0c0-4.6,3.7-8.3,8.3-8.3h0c4.6,0,8.3,3.7,8.3,8.3v0
	C84.3,149.3,80.6,153,76,153z"/>
<path class="st1" d="M98.6,153L98.6,153c-4.6,0-8.3-3.7-8.3-8.3v0c0-4.6,3.7-8.3,8.3-8.3h0c4.6,0,8.3,3.7,8.3,8.3v0
	C106.9,149.3,103.1,153,98.6,153z"/>
<path class="st1" d="M121.2,153L121.2,153c-4.6,0-8.3-3.7-8.3-8.3v0c0-4.6,3.7-8.3,8.3-8.3h0c4.6,0,8.3,3.7,8.3,8.3v0
	C129.4,149.3,125.7,153,121.2,153z"/>
<path class="st1" d="M143.7,153L143.7,153c-4.6,0-8.3-3.7-8.3-8.3v0c0-4.6,3.7-8.3,8.3-8.3h0c4.6,0,8.3,3.7,8.3,8.3v0
	C152,149.3,148.3,153,143.7,153z"/>
<path class="st1" d="M166.3,153L166.3,153c-4.6,0-8.3-3.7-8.3-8.3v0c0-4.6,3.7-8.3,8.3-8.3h0c4.6,0,8.3,3.7,8.3,8.3v0
	C174.6,149.3,170.9,153,166.3,153z"/>
<path class="st1" d="M188.9,153L188.9,153c-4.6,0-8.3-3.7-8.3-8.3v0c0-4.6,3.7-8.3,8.3-8.3h0c4.6,0,8.3,3.7,8.3,8.3v0
	C197.2,149.3,193.4,153,188.9,153z"/>
<path class="st1" d="M211.4,153L211.4,153c-4.6,0-8.3-3.7-8.3-8.3v0c0-4.6,3.7-8.3,8.3-8.3h0c4.6,0,8.3,3.7,8.3,8.3v0
	C219.7,149.3,216,153,211.4,153z"/>
<path class="st1" d="M234,153L234,153c-4.6,0-8.3-3.7-8.3-8.3v0c0-4.6,3.7-8.3,8.3-8.3h0c4.6,0,8.3,3.7,8.3,8.3v0
	C242.3,149.3,238.6,153,234,153z"/>
<path class="st1" d="M256.6,153L256.6,153c-4.6,0-8.3-3.7-8.3-8.3v0c0-4.6,3.7-8.3,8.3-8.3l0,0c4.6,0,8.3,3.7,8.3,8.3v0
	C264.9,149.3,261.1,153,256.6,153z"/>
<path class="st1" d="M53.5,333.6L53.5,333.6c-4.6,0-8.3-3.7-8.3-8.3v0c0-4.6,3.7-8.3,8.3-8.3h0c4.6,0,8.3,3.7,8.3,8.3v0
	C61.8,329.9,58.1,333.6,53.5,333.6z"/>
<path class="st1" d="M76.1,333.6L76.1,333.6c-4.6,0-8.3-3.7-8.3-8.3v0c0-4.6,3.7-8.3,8.3-8.3h0c4.6,0,8.3,3.7,8.3,8.3v0
	C84.4,329.9,80.6,333.6,76.1,333.6z"/>
<path class="st1" d="M98.6,333.6L98.6,333.6c-4.6,0-8.3-3.7-8.3-8.3v0c0-4.6,3.7-8.3,8.3-8.3h0c4.6,0,8.3,3.7,8.3,8.3v0
	C106.9,329.9,103.2,333.6,98.6,333.6z"/>
<path class="st1" d="M121.2,333.6L121.2,333.6c-4.6,0-8.3-3.7-8.3-8.3v0c0-4.6,3.7-8.3,8.3-8.3h0c4.6,0,8.3,3.7,8.3,8.3v0
	C129.5,329.9,125.8,333.6,121.2,333.6z"/>
<path class="st1" d="M143.8,333.6L143.8,333.6c-4.6,0-8.3-3.7-8.3-8.3v0c0-4.6,3.7-8.3,8.3-8.3h0c4.6,0,8.3,3.7,8.3,8.3v0
	C152.1,329.9,148.3,333.6,143.8,333.6z"/>
<path class="st1" d="M166.3,333.6L166.3,333.6c-4.6,0-8.3-3.7-8.3-8.3v0c0-4.6,3.7-8.3,8.3-8.3h0c4.6,0,8.3,3.7,8.3,8.3v0
	C174.6,329.9,170.9,333.6,166.3,333.6z"/>
<path class="st1" d="M188.9,333.6L188.9,333.6c-4.6,0-8.3-3.7-8.3-8.3v0c0-4.6,3.7-8.3,8.3-8.3h0c4.6,0,8.3,3.7,8.3,8.3v0
	C197.2,329.9,193.5,333.6,188.9,333.6z"/>
<path class="st1" d="M53.5,356.2L53.5,356.2c-4.6,0-8.3-3.7-8.3-8.3l0,0c0-4.6,3.7-8.3,8.3-8.3h0c4.6,0,8.3,3.7,8.3,8.3l0,0
	C61.8,352.4,58.1,356.2,53.5,356.2z"/>
<path class="st1" d="M76.1,356.2L76.1,356.2c-4.6,0-8.3-3.7-8.3-8.3l0,0c0-4.6,3.7-8.3,8.3-8.3h0c4.6,0,8.3,3.7,8.3,8.3l0,0
	C84.4,352.4,80.6,356.2,76.1,356.2z"/>
<path class="st1" d="M98.6,356.2L98.6,356.2c-4.6,0-8.3-3.7-8.3-8.3l0,0c0-4.6,3.7-8.3,8.3-8.3h0c4.6,0,8.3,3.7,8.3,8.3l0,0
	C106.9,352.4,103.2,356.2,98.6,356.2z"/>
<path class="st1" d="M121.2,356.2L121.2,356.2c-4.6,0-8.3-3.7-8.3-8.3l0,0c0-4.6,3.7-8.3,8.3-8.3h0c4.6,0,8.3,3.7,8.3,8.3l0,0
	C129.5,352.4,125.8,356.2,121.2,356.2z"/>
<path class="st1" d="M143.8,356.2L143.8,356.2c-4.6,0-8.3-3.7-8.3-8.3l0,0c0-4.6,3.7-8.3,8.3-8.3h0c4.6,0,8.3,3.7,8.3,8.3l0,0
	C152.1,352.4,148.3,356.2,143.8,356.2z"/>
<path class="st1" d="M166.3,356.2L166.3,356.2c-4.6,0-8.3-3.7-8.3-8.3l0,0c0-4.6,3.7-8.3,8.3-8.3h0c4.6,0,8.3,3.7,8.3,8.3l0,0
	C174.6,352.4,170.9,356.2,166.3,356.2z"/>
<path class="st1" d="M53.5,378.8L53.5,378.8c-4.6,0-8.3-3.7-8.3-8.3v0c0-4.6,3.7-8.3,8.3-8.3h0c4.6,0,8.3,3.7,8.3,8.3v0
	C61.8,375.1,58.1,378.8,53.5,378.8z"/>
<path class="st1" d="M76.1,378.8L76.1,378.8c-4.6,0-8.3-3.7-8.3-8.3v0c0-4.6,3.7-8.3,8.3-8.3h0c4.6,0,8.3,3.7,8.3,8.3v0
	C84.4,375.1,80.6,378.8,76.1,378.8z"/>
<path class="st1" d="M98.6,378.8L98.6,378.8c-4.6,0-8.3-3.7-8.3-8.3v0c0-4.6,3.7-8.3,8.3-8.3h0c4.6,0,8.3,3.7,8.3,8.3v0
	C106.9,375.1,103.2,378.8,98.6,378.8z"/>
<path class="st1" d="M121.2,378.8L121.2,378.8c-4.6,0-8.3-3.7-8.3-8.3v0c0-4.6,3.7-8.3,8.3-8.3h0c4.6,0,8.3,3.7,8.3,8.3v0
	C129.5,375.1,125.8,378.8,121.2,378.8z"/>
<path class="st1" d="M143.8,378.8L143.8,378.8c-4.6,0-8.3-3.7-8.3-8.3v0c0-4.6,3.7-8.3,8.3-8.3h0c4.6,0,8.3,3.7,8.3,8.3v0
	C152.1,375.1,148.3,378.8,143.8,378.8z"/>
<path class="st1" d="M166.3,378.8L166.3,378.8c-4.6,0-8.3-3.7-8.3-8.3v0c0-4.6,3.7-8.3,8.3-8.3h0c4.6,0,8.3,3.7,8.3,8.3v0
	C174.6,375.1,170.9,378.8,166.3,378.8z"/>
<path class="st1" d="M53.5,401.4L53.5,401.4c-4.6,0-8.3-3.7-8.3-8.3l0,0c0-4.6,3.7-8.3,8.3-8.3h0c4.6,0,8.3,3.7,8.3,8.3l0,0
	C61.8,397.6,58.1,401.4,53.5,401.4z"/>
<path class="st1" d="M76.1,401.4L76.1,401.4c-4.6,0-8.3-3.7-8.3-8.3l0,0c0-4.6,3.7-8.3,8.3-8.3h0c4.6,0,8.3,3.7,8.3,8.3l0,0
	C84.4,397.6,80.6,401.4,76.1,401.4z"/>
<path class="st1" d="M98.6,401.4L98.6,401.4c-4.6,0-8.3-3.7-8.3-8.3l0,0c0-4.6,3.7-8.3,8.3-8.3h0c4.6,0,8.3,3.7,8.3,8.3l0,0
	C106.9,397.6,103.2,401.4,98.6,401.4z"/>
<path class="st1" d="M121.2,401.4L121.2,401.4c-4.6,0-8.3-3.7-8.3-8.3l0,0c0-4.6,3.7-8.3,8.3-8.3h0c4.6,0,8.3,3.7,8.3,8.3l0,0
	C129.5,397.6,125.8,401.4,121.2,401.4z"/>
<path class="st1" d="M143.8,401.4L143.8,401.4c-4.6,0-8.3-3.7-8.3-8.3l0,0c0-4.6,3.7-8.3,8.3-8.3h0c4.6,0,8.3,3.7,8.3,8.3l0,0
	C152.1,397.6,148.3,401.4,143.8,401.4z"/>
<path class="st1" d="M166.3,401.4L166.3,401.4c-4.6,0-8.3-3.7-8.3-8.3l0,0c0-4.6,3.7-8.3,8.3-8.3h0c4.6,0,8.3,3.7,8.3,8.3l0,0
	C174.6,397.6,170.9,401.4,166.3,401.4z"/>
<path class="st1" d="M53.5,424L53.5,424c-4.6,0-8.3-3.7-8.3-8.3v0c0-4.6,3.7-8.3,8.3-8.3h0c4.6,0,8.3,3.7,8.3,8.3v0
	C61.8,420.3,58.1,424,53.5,424z"/>
<path class="st1" d="M76.1,424L76.1,424c-4.6,0-8.3-3.7-8.3-8.3v0c0-4.6,3.7-8.3,8.3-8.3h0c4.6,0,8.3,3.7,8.3,8.3v0
	C84.4,420.3,80.6,424,76.1,424z"/>
<path class="st1" d="M98.6,424L98.6,424c-4.6,0-8.3-3.7-8.3-8.3v0c0-4.6,3.7-8.3,8.3-8.3h0c4.6,0,8.3,3.7,8.3,8.3v0
	C106.9,420.3,103.2,424,98.6,424z"/>
<path class="st1" d="M121.2,424L121.2,424c-4.6,0-8.3-3.7-8.3-8.3v0c0-4.6,3.7-8.3,8.3-8.3h0c4.6,0,8.3,3.7,8.3,8.3v0
	C129.5,420.3,125.8,424,121.2,424z"/>
<path class="st1" d="M143.8,424L143.8,424c-4.6,0-8.3-3.7-8.3-8.3v0c0-4.6,3.7-8.3,8.3-8.3h0c4.6,0,8.3,3.7,8.3,8.3v0
	C152.1,420.3,148.3,424,143.8,424z"/>
<path class="st1" d="M8.3,446.5L8.3,446.5c-4.6,0-8.3-3.7-8.3-8.3l0,0c0-4.6,3.7-8.3,8.3-8.3h0c4.6,0,8.3,3.7,8.3,8.3l0,0
	C16.6,442.8,12.9,446.5,8.3,446.5z"/>
<path class="st1" d="M30.9,446.5L30.9,446.5c-4.6,0-8.3-3.7-8.3-8.3l0,0c0-4.6,3.7-8.3,8.3-8.3h0c4.6,0,8.3,3.7,8.3,8.3l0,0
	C39.2,442.8,35.4,446.5,30.9,446.5z"/>
<path class="st1" d="M53.5,446.5L53.5,446.5c-4.6,0-8.3-3.7-8.3-8.3l0,0c0-4.6,3.7-8.3,8.3-8.3h0c4.6,0,8.3,3.7,8.3,8.3l0,0
	C61.7,442.8,58,446.5,53.5,446.5z"/>
<path class="st1" d="M76,446.5L76,446.5c-4.6,0-8.3-3.7-8.3-8.3l0,0c0-4.6,3.7-8.3,8.3-8.3h0c4.6,0,8.3,3.7,8.3,8.3l0,0
	C84.3,442.8,80.6,446.5,76,446.5z"/>
<path class="st1" d="M98.6,446.5L98.6,446.5c-4.6,0-8.3-3.7-8.3-8.3l0,0c0-4.6,3.7-8.3,8.3-8.3h0c4.6,0,8.3,3.7,8.3,8.3l0,0
	C106.9,442.8,103.1,446.5,98.6,446.5z"/>
<path class="st1" d="M121.2,446.5L121.2,446.5c-4.6,0-8.3-3.7-8.3-8.3l0,0c0-4.6,3.7-8.3,8.3-8.3h0c4.6,0,8.3,3.7,8.3,8.3l0,0
	C129.4,442.8,125.7,446.5,121.2,446.5z"/>
<path class="st1" d="M143.7,446.5L143.7,446.5c-4.6,0-8.3-3.7-8.3-8.3l0,0c0-4.6,3.7-8.3,8.3-8.3h0c4.6,0,8.3,3.7,8.3,8.3l0,0
	C152,442.8,148.3,446.5,143.7,446.5z"/>
<path class="st1" d="M8.3,130.5L8.3,130.5c-4.6,0-8.3-3.7-8.3-8.3v0c0-4.6,3.7-8.3,8.3-8.3h0c4.6,0,8.3,3.7,8.3,8.3v0
	C16.6,126.7,12.9,130.5,8.3,130.5z"/>
<path class="st1" d="M30.9,130.5L30.9,130.5c-4.6,0-8.3-3.7-8.3-8.3v0c0-4.6,3.7-8.3,8.3-8.3h0c4.6,0,8.3,3.7,8.3,8.3v0
	C39.2,126.7,35.4,130.5,30.9,130.5z"/>
<path class="st1" d="M53.5,130.5L53.5,130.5c-4.6,0-8.3-3.7-8.3-8.3v0c0-4.6,3.7-8.3,8.3-8.3h0c4.6,0,8.3,3.7,8.3,8.3v0
	C61.7,126.7,58,130.5,53.5,130.5z"/>
<path class="st1" d="M76,130.5L76,130.5c-4.6,0-8.3-3.7-8.3-8.3v0c0-4.6,3.7-8.3,8.3-8.3h0c4.6,0,8.3,3.7,8.3,8.3v0
	C84.3,126.7,80.6,130.5,76,130.5z"/>
<path class="st1" d="M98.6,130.5L98.6,130.5c-4.6,0-8.3-3.7-8.3-8.3v0c0-4.6,3.7-8.3,8.3-8.3h0c4.6,0,8.3,3.7,8.3,8.3v0
	C106.9,126.7,103.1,130.5,98.6,130.5z"/>
<path class="st1" d="M121.2,130.5L121.2,130.5c-4.6,0-8.3-3.7-8.3-8.3v0c0-4.6,3.7-8.3,8.3-8.3h0c4.6,0,8.3,3.7,8.3,8.3v0
	C129.4,126.7,125.7,130.5,121.2,130.5z"/>
<path class="st1" d="M143.7,130.5L143.7,130.5c-4.6,0-8.3-3.7-8.3-8.3v0c0-4.6,3.7-8.3,8.3-8.3h0c4.6,0,8.3,3.7,8.3,8.3v0
	C152,126.7,148.3,130.5,143.7,130.5z"/>
<path class="st1" d="M166.3,130.5L166.3,130.5c-4.6,0-8.3-3.7-8.3-8.3v0c0-4.6,3.7-8.3,8.3-8.3h0c4.6,0,8.3,3.7,8.3,8.3v0
	C174.6,126.7,170.9,130.5,166.3,130.5z"/>
<path class="st1" d="M188.9,130.5L188.9,130.5c-4.6,0-8.3-3.7-8.3-8.3v0c0-4.6,3.7-8.3,8.3-8.3h0c4.6,0,8.3,3.7,8.3,8.3v0
	C197.2,126.7,193.4,130.5,188.9,130.5z"/>
<path class="st1" d="M211.4,130.5L211.4,130.5c-4.6,0-8.3-3.7-8.3-8.3v0c0-4.6,3.7-8.3,8.3-8.3h0c4.6,0,8.3,3.7,8.3,8.3v0
	C219.7,126.7,216,130.5,211.4,130.5z"/>
<path class="st1" d="M234,130.5L234,130.5c-4.6,0-8.3-3.7-8.3-8.3v0c0-4.6,3.7-8.3,8.3-8.3h0c4.6,0,8.3,3.7,8.3,8.3v0
	C242.3,126.7,238.6,130.5,234,130.5z"/>
<path class="st1" d="M256.6,130.5L256.6,130.5c-4.6,0-8.3-3.7-8.3-8.3v0c0-4.6,3.7-8.3,8.3-8.3l0,0c4.6,0,8.3,3.7,8.3,8.3v0
	C264.9,126.7,261.1,130.5,256.6,130.5z"/>
<path class="st1" d="M8.3,175.6L8.3,175.6c-4.6,0-8.3-3.7-8.3-8.3v0c0-4.6,3.7-8.3,8.3-8.3h0c4.6,0,8.3,3.7,8.3,8.3v0
	C16.6,171.9,12.9,175.6,8.3,175.6z"/>
<path class="st1" d="M30.9,175.6L30.9,175.6c-4.6,0-8.3-3.7-8.3-8.3v0c0-4.6,3.7-8.3,8.3-8.3h0c4.6,0,8.3,3.7,8.3,8.3v0
	C39.2,171.9,35.5,175.6,30.9,175.6z"/>
<path class="st1" d="M53.5,175.6L53.5,175.6c-4.6,0-8.3-3.7-8.3-8.3v0c0-4.6,3.7-8.3,8.3-8.3h0c4.6,0,8.3,3.7,8.3,8.3v0
	C61.8,171.9,58,175.6,53.5,175.6z"/>
<path class="st1" d="M76,175.6L76,175.6c-4.6,0-8.3-3.7-8.3-8.3v0c0-4.6,3.7-8.3,8.3-8.3h0c4.6,0,8.3,3.7,8.3,8.3v0
	C84.3,171.9,80.6,175.6,76,175.6z"/>
<path class="st1" d="M98.6,175.6L98.6,175.6c-4.6,0-8.3-3.7-8.3-8.3v0c0-4.6,3.7-8.3,8.3-8.3h0c4.6,0,8.3,3.7,8.3,8.3v0
	C106.9,171.9,103.2,175.6,98.6,175.6z"/>
<path class="st1" d="M121.2,175.6L121.2,175.6c-4.6,0-8.3-3.7-8.3-8.3v0c0-4.6,3.7-8.3,8.3-8.3h0c4.6,0,8.3,3.7,8.3,8.3v0
	C129.5,171.9,125.7,175.6,121.2,175.6z"/>
<path class="st1" d="M143.8,175.6L143.8,175.6c-4.6,0-8.3-3.7-8.3-8.3v0c0-4.6,3.7-8.3,8.3-8.3h0c4.6,0,8.3,3.7,8.3,8.3v0
	C152,171.9,148.3,175.6,143.8,175.6z"/>
<path class="st1" d="M166.3,175.6L166.3,175.6c-4.6,0-8.3-3.7-8.3-8.3v0c0-4.6,3.7-8.3,8.3-8.3h0c4.6,0,8.3,3.7,8.3,8.3v0
	C174.6,171.9,170.9,175.6,166.3,175.6z"/>
<path class="st1" d="M188.9,175.6L188.9,175.6c-4.6,0-8.3-3.7-8.3-8.3v0c0-4.6,3.7-8.3,8.3-8.3h0c4.6,0,8.3,3.7,8.3,8.3v0
	C197.2,171.9,193.4,175.6,188.9,175.6z"/>
<path class="st1" d="M211.5,175.6L211.5,175.6c-4.6,0-8.3-3.7-8.3-8.3v0c0-4.6,3.7-8.3,8.3-8.3h0c4.6,0,8.3,3.7,8.3,8.3v0
	C219.7,171.9,216,175.6,211.5,175.6z"/>
<path class="st1" d="M234,175.6L234,175.6c-4.6,0-8.3-3.7-8.3-8.3v0c0-4.6,3.7-8.3,8.3-8.3h0c4.6,0,8.3,3.7,8.3,8.3v0
	C242.3,171.9,238.6,175.6,234,175.6z"/>
<path class="st1" d="M8.3,220.7L8.3,220.7c-4.6,0-8.3-3.7-8.3-8.3v0c0-4.6,3.7-8.3,8.3-8.3h0c4.6,0,8.3,3.7,8.3,8.3v0
	C16.6,217,12.9,220.7,8.3,220.7z"/>
<path class="st1" d="M30.9,220.7L30.9,220.7c-4.6,0-8.3-3.7-8.3-8.3v0c0-4.6,3.7-8.3,8.3-8.3h0c4.6,0,8.3,3.7,8.3,8.3v0
	C39.2,217,35.4,220.7,30.9,220.7z"/>
<path class="st1" d="M53.4,220.7L53.4,220.7c-4.6,0-8.3-3.7-8.3-8.3v0c0-4.6,3.7-8.3,8.3-8.3h0c4.6,0,8.3,3.7,8.3,8.3v0
	C61.7,217,58,220.7,53.4,220.7z"/>
<path class="st1" d="M76,220.7L76,220.7c-4.6,0-8.3-3.7-8.3-8.3v0c0-4.6,3.7-8.3,8.3-8.3h0c4.6,0,8.3,3.7,8.3,8.3v0
	C84.3,217,80.6,220.7,76,220.7z"/>
<path class="st1" d="M98.6,220.7L98.6,220.7c-4.6,0-8.3-3.7-8.3-8.3v0c0-4.6,3.7-8.3,8.3-8.3h0c4.6,0,8.3,3.7,8.3,8.3v0
	C106.9,217,103.1,220.7,98.6,220.7z"/>
<path class="st1" d="M121.2,220.7L121.2,220.7c-4.6,0-8.3-3.7-8.3-8.3v0c0-4.6,3.7-8.3,8.3-8.3h0c4.6,0,8.3,3.7,8.3,8.3v0
	C129.4,217,125.7,220.7,121.2,220.7z"/>
<path class="st1" d="M143.7,220.7L143.7,220.7c-4.6,0-8.3-3.7-8.3-8.3v0c0-4.6,3.7-8.3,8.3-8.3h0c4.6,0,8.3,3.7,8.3,8.3v0
	C152,217,148.3,220.7,143.7,220.7z"/>
<path class="st1" d="M166.3,220.7L166.3,220.7c-4.6,0-8.3-3.7-8.3-8.3v0c0-4.6,3.7-8.3,8.3-8.3h0c4.6,0,8.3,3.7,8.3,8.3v0
	C174.6,217,170.9,220.7,166.3,220.7z"/>
<path class="st1" d="M188.9,220.7L188.9,220.7c-4.6,0-8.3-3.7-8.3-8.3v0c0-4.6,3.7-8.3,8.3-8.3h0c4.6,0,8.3,3.7,8.3,8.3v0
	C197.2,217,193.4,220.7,188.9,220.7z"/>
<path class="st1" d="M211.4,220.7L211.4,220.7c-4.6,0-8.3-3.7-8.3-8.3v0c0-4.6,3.7-8.3,8.3-8.3h0c4.6,0,8.3,3.7,8.3,8.3v0
	C219.7,217,216,220.7,211.4,220.7z"/>
<path class="st1" d="M234,220.7L234,220.7c-4.6,0-8.3-3.7-8.3-8.3v0c0-4.6,3.7-8.3,8.3-8.3h0c4.6,0,8.3,3.7,8.3,8.3v0
	C242.3,217,238.6,220.7,234,220.7z"/>
<path class="st1" d="M8.3,198.2L8.3,198.2c-4.6,0-8.3-3.7-8.3-8.3v0c0-4.6,3.7-8.3,8.3-8.3h0c4.6,0,8.3,3.7,8.3,8.3v0
	C16.6,194.4,12.9,198.2,8.3,198.2z"/>
<path class="st1" d="M30.9,198.2L30.9,198.2c-4.6,0-8.3-3.7-8.3-8.3v0c0-4.6,3.7-8.3,8.3-8.3h0c4.6,0,8.3,3.7,8.3,8.3v0
	C39.2,194.4,35.4,198.2,30.9,198.2z"/>
<path class="st1" d="M53.4,198.2L53.4,198.2c-4.6,0-8.3-3.7-8.3-8.3v0c0-4.6,3.7-8.3,8.3-8.3h0c4.6,0,8.3,3.7,8.3,8.3v0
	C61.7,194.4,58,198.2,53.4,198.2z"/>
<path class="st1" d="M76,198.2L76,198.2c-4.6,0-8.3-3.7-8.3-8.3v0c0-4.6,3.7-8.3,8.3-8.3h0c4.6,0,8.3,3.7,8.3,8.3v0
	C84.3,194.4,80.6,198.2,76,198.2z"/>
<path class="st1" d="M98.6,198.2L98.6,198.2c-4.6,0-8.3-3.7-8.3-8.3v0c0-4.6,3.7-8.3,8.3-8.3h0c4.6,0,8.3,3.7,8.3,8.3v0
	C106.9,194.4,103.1,198.2,98.6,198.2z"/>
<path class="st1" d="M121.2,198.2L121.2,198.2c-4.6,0-8.3-3.7-8.3-8.3v0c0-4.6,3.7-8.3,8.3-8.3h0c4.6,0,8.3,3.7,8.3,8.3v0
	C129.4,194.4,125.7,198.2,121.2,198.2z"/>
<path class="st1" d="M143.7,198.2L143.7,198.2c-4.6,0-8.3-3.7-8.3-8.3v0c0-4.6,3.7-8.3,8.3-8.3h0c4.6,0,8.3,3.7,8.3,8.3v0
	C152,194.4,148.3,198.2,143.7,198.2z"/>
<path class="st1" d="M166.3,198.2L166.3,198.2c-4.6,0-8.3-3.7-8.3-8.3v0c0-4.6,3.7-8.3,8.3-8.3h0c4.6,0,8.3,3.7,8.3,8.3v0
	C174.6,194.4,170.9,198.2,166.3,198.2z"/>
<path class="st1" d="M188.9,198.2L188.9,198.2c-4.6,0-8.3-3.7-8.3-8.3v0c0-4.6,3.7-8.3,8.3-8.3h0c4.6,0,8.3,3.7,8.3,8.3v0
	C197.2,194.4,193.4,198.2,188.9,198.2z"/>
<path class="st1" d="M211.4,198.2L211.4,198.2c-4.6,0-8.3-3.7-8.3-8.3v0c0-4.6,3.7-8.3,8.3-8.3h0c4.6,0,8.3,3.7,8.3,8.3v0
	C219.7,194.4,216,198.2,211.4,198.2z"/>
<path class="st1" d="M234,198.2L234,198.2c-4.6,0-8.3-3.7-8.3-8.3v0c0-4.6,3.7-8.3,8.3-8.3h0c4.6,0,8.3,3.7,8.3,8.3v0
	C242.3,194.4,238.6,198.2,234,198.2z"/>
<path class="st1" d="M53.5,243.3L53.5,243.3c-4.6,0-8.3-3.7-8.3-8.3v0c0-4.6,3.7-8.3,8.3-8.3h0c4.6,0,8.3,3.7,8.3,8.3v0
	C61.8,239.6,58,243.3,53.5,243.3z"/>
<path class="st1" d="M76,243.3L76,243.3c-4.6,0-8.3-3.7-8.3-8.3v0c0-4.6,3.7-8.3,8.3-8.3h0c4.6,0,8.3,3.7,8.3,8.3v0
	C84.3,239.6,80.6,243.3,76,243.3z"/>
<path class="st1" d="M98.6,243.3L98.6,243.3c-4.6,0-8.3-3.7-8.3-8.3v0c0-4.6,3.7-8.3,8.3-8.3h0c4.6,0,8.3,3.7,8.3,8.3v0
	C106.9,239.6,103.2,243.3,98.6,243.3z"/>
<path class="st1" d="M121.2,243.3L121.2,243.3c-4.6,0-8.3-3.7-8.3-8.3v0c0-4.6,3.7-8.3,8.3-8.3h0c4.6,0,8.3,3.7,8.3,8.3v0
	C129.5,239.6,125.7,243.3,121.2,243.3z"/>
<path class="st1" d="M143.8,243.3L143.8,243.3c-4.6,0-8.3-3.7-8.3-8.3v0c0-4.6,3.7-8.3,8.3-8.3h0c4.6,0,8.3,3.7,8.3,8.3v0
	C152,239.6,148.3,243.3,143.8,243.3z"/>
<path class="st1" d="M166.3,243.3L166.3,243.3c-4.6,0-8.3-3.7-8.3-8.3v0c0-4.6,3.7-8.3,8.3-8.3h0c4.6,0,8.3,3.7,8.3,8.3v0
	C174.6,239.6,170.9,243.3,166.3,243.3z"/>
<path class="st1" d="M188.9,243.3L188.9,243.3c-4.6,0-8.3-3.7-8.3-8.3v0c0-4.6,3.7-8.3,8.3-8.3h0c4.6,0,8.3,3.7,8.3,8.3v0
	C197.2,239.6,193.4,243.3,188.9,243.3z"/>
<path class="st1" d="M211.5,243.3L211.5,243.3c-4.6,0-8.3-3.7-8.3-8.3v0c0-4.6,3.7-8.3,8.3-8.3h0c4.6,0,8.3,3.7,8.3,8.3v0
	C219.7,239.6,216,243.3,211.5,243.3z"/>
<path class="st1" d="M53.5,288.4L53.5,288.4c-4.6,0-8.3-3.7-8.3-8.3v0c0-4.6,3.7-8.3,8.3-8.3h0c4.6,0,8.3,3.7,8.3,8.3v0
	C61.8,284.7,58,288.4,53.5,288.4z"/>
<path class="st1" d="M76.1,288.4L76.1,288.4c-4.6,0-8.3-3.7-8.3-8.3v0c0-4.6,3.7-8.3,8.3-8.3h0c4.6,0,8.3,3.7,8.3,8.3v0
	C84.3,284.7,80.6,288.4,76.1,288.4z"/>
<path class="st1" d="M98.6,288.4L98.6,288.4c-4.6,0-8.3-3.7-8.3-8.3v0c0-4.6,3.7-8.3,8.3-8.3h0c4.6,0,8.3,3.7,8.3,8.3v0
	C106.9,284.7,103.2,288.4,98.6,288.4z"/>
<path class="st1" d="M121.2,288.4L121.2,288.4c-4.6,0-8.3-3.7-8.3-8.3v0c0-4.6,3.7-8.3,8.3-8.3h0c4.6,0,8.3,3.7,8.3,8.3v0
	C129.5,284.7,125.8,288.4,121.2,288.4z"/>
<path class="st1" d="M143.8,288.4L143.8,288.4c-4.6,0-8.3-3.7-8.3-8.3v0c0-4.6,3.7-8.3,8.3-8.3h0c4.6,0,8.3,3.7,8.3,8.3v0
	C152.1,284.7,148.3,288.4,143.8,288.4z"/>
<path class="st1" d="M166.3,288.4L166.3,288.4c-4.6,0-8.3-3.7-8.3-8.3v0c0-4.6,3.7-8.3,8.3-8.3h0c4.6,0,8.3,3.7,8.3,8.3v0
	C174.6,284.7,170.9,288.4,166.3,288.4z"/>
<path class="st1" d="M188.9,288.4L188.9,288.4c-4.6,0-8.3-3.7-8.3-8.3v0c0-4.6,3.7-8.3,8.3-8.3h0c4.6,0,8.3,3.7,8.3,8.3v0
	C197.2,284.7,193.5,288.4,188.9,288.4z"/>
<path class="st1" d="M211.5,288.4L211.5,288.4c-4.6,0-8.3-3.7-8.3-8.3v0c0-4.6,3.7-8.3,8.3-8.3h0c4.6,0,8.3,3.7,8.3,8.3v0
	C219.8,284.7,216,288.4,211.5,288.4z"/>
<path class="st1" d="M53.5,265.9L53.5,265.9c-4.6,0-8.3-3.7-8.3-8.3v0c0-4.6,3.7-8.3,8.3-8.3h0c4.6,0,8.3,3.7,8.3,8.3v0
	C61.8,262.1,58,265.9,53.5,265.9z"/>
<path class="st1" d="M76.1,265.9L76.1,265.9c-4.6,0-8.3-3.7-8.3-8.3v0c0-4.6,3.7-8.3,8.3-8.3h0c4.6,0,8.3,3.7,8.3,8.3v0
	C84.3,262.1,80.6,265.9,76.1,265.9z"/>
<path class="st1" d="M98.6,265.9L98.6,265.9c-4.6,0-8.3-3.7-8.3-8.3v0c0-4.6,3.7-8.3,8.3-8.3h0c4.6,0,8.3,3.7,8.3,8.3v0
	C106.9,262.1,103.2,265.9,98.6,265.9z"/>
<path class="st1" d="M121.2,265.9L121.2,265.9c-4.6,0-8.3-3.7-8.3-8.3v0c0-4.6,3.7-8.3,8.3-8.3h0c4.6,0,8.3,3.7,8.3,8.3v0
	C129.5,262.1,125.8,265.9,121.2,265.9z"/>
<path class="st1" d="M143.8,265.9L143.8,265.9c-4.6,0-8.3-3.7-8.3-8.3v0c0-4.6,3.7-8.3,8.3-8.3h0c4.6,0,8.3,3.7,8.3,8.3v0
	C152.1,262.1,148.3,265.9,143.8,265.9z"/>
<path class="st1" d="M166.3,265.9L166.3,265.9c-4.6,0-8.3-3.7-8.3-8.3v0c0-4.6,3.7-8.3,8.3-8.3h0c4.6,0,8.3,3.7,8.3,8.3v0
	C174.6,262.1,170.9,265.9,166.3,265.9z"/>
<path class="st1" d="M188.9,265.9L188.9,265.9c-4.6,0-8.3-3.7-8.3-8.3v0c0-4.6,3.7-8.3,8.3-8.3h0c4.6,0,8.3,3.7,8.3,8.3v0
	C197.2,262.1,193.5,265.9,188.9,265.9z"/>
<path class="st1" d="M211.5,265.9L211.5,265.9c-4.6,0-8.3-3.7-8.3-8.3v0c0-4.6,3.7-8.3,8.3-8.3h0c4.6,0,8.3,3.7,8.3,8.3v0
	C219.8,262.1,216,265.9,211.5,265.9z"/>
<path class="st1" d="M53.5,311L53.5,311c-4.6,0-8.3-3.7-8.3-8.3l0,0c0-4.6,3.7-8.3,8.3-8.3h0c4.6,0,8.3,3.7,8.3,8.3l0,0
	C61.8,307.3,58,311,53.5,311z"/>
<path class="st1" d="M76.1,311L76.1,311c-4.6,0-8.3-3.7-8.3-8.3l0,0c0-4.6,3.7-8.3,8.3-8.3h0c4.6,0,8.3,3.7,8.3,8.3l0,0
	C84.3,307.3,80.6,311,76.1,311z"/>
<path class="st1" d="M98.6,311L98.6,311c-4.6,0-8.3-3.7-8.3-8.3l0,0c0-4.6,3.7-8.3,8.3-8.3h0c4.6,0,8.3,3.7,8.3,8.3l0,0
	C106.9,307.3,103.2,311,98.6,311z"/>
<path class="st1" d="M121.2,311L121.2,311c-4.6,0-8.3-3.7-8.3-8.3l0,0c0-4.6,3.7-8.3,8.3-8.3h0c4.6,0,8.3,3.7,8.3,8.3l0,0
	C129.5,307.3,125.8,311,121.2,311z"/>
<path class="st1" d="M143.8,311L143.8,311c-4.6,0-8.3-3.7-8.3-8.3l0,0c0-4.6,3.7-8.3,8.3-8.3h0c4.6,0,8.3,3.7,8.3,8.3l0,0
	C152.1,307.3,148.3,311,143.8,311z"/>
<path class="st1" d="M166.3,311L166.3,311c-4.6,0-8.3-3.7-8.3-8.3l0,0c0-4.6,3.7-8.3,8.3-8.3h0c4.6,0,8.3,3.7,8.3,8.3l0,0
	C174.6,307.3,170.9,311,166.3,311z"/>
<path class="st1" d="M188.9,311L188.9,311c-4.6,0-8.3-3.7-8.3-8.3l0,0c0-4.6,3.7-8.3,8.3-8.3h0c4.6,0,8.3,3.7,8.3,8.3l0,0
	C197.2,307.3,193.5,311,188.9,311z"/>
<path class="st1" d="M8.3,62.7L8.3,62.7C3.7,62.7,0,59,0,54.5v0c0-4.6,3.7-8.3,8.3-8.3h0c4.6,0,8.3,3.7,8.3,8.3v0
	C16.6,59,12.8,62.7,8.3,62.7z"/>
<path class="st1" d="M30.9,62.7L30.9,62.7c-4.6,0-8.3-3.7-8.3-8.3v0c0-4.6,3.7-8.3,8.3-8.3h0c4.6,0,8.3,3.7,8.3,8.3v0
	C39.1,59,35.4,62.7,30.9,62.7z"/>
<path class="st1" d="M8.3,288.4L8.3,288.4c-4.6,0-8.3-3.7-8.3-8.3l0,0c0-4.6,3.7-8.3,8.3-8.3h0c4.6,0,8.3,3.7,8.3,8.3l0,0
	C16.6,284.7,12.8,288.4,8.3,288.4z"/>
<path class="st1" d="M30.9,288.4L30.9,288.4c-4.6,0-8.3-3.7-8.3-8.3l0,0c0-4.6,3.7-8.3,8.3-8.3h0c4.6,0,8.3,3.7,8.3,8.3l0,0
	C39.1,284.7,35.4,288.4,30.9,288.4z"/>
<path class="st1" d="M8.3,265.9L8.3,265.9c-4.6,0-8.3-3.7-8.3-8.3v0c0-4.6,3.7-8.3,8.3-8.3h0c4.6,0,8.3,3.7,8.3,8.3v0
	C16.6,262.1,12.8,265.9,8.3,265.9z"/>
<path class="st1" d="M30.9,265.9L30.9,265.9c-4.6,0-8.3-3.7-8.3-8.3v0c0-4.6,3.7-8.3,8.3-8.3h0c4.6,0,8.3,3.7,8.3,8.3v0
	C39.1,262.1,35.4,265.9,30.9,265.9z"/>
<path class="st1" d="M8.3,333.6L8.3,333.6c-4.6,0-8.3-3.7-8.3-8.3v0c0-4.6,3.7-8.3,8.3-8.3h0c4.6,0,8.3,3.7,8.3,8.3v0
	C16.6,329.8,12.9,333.6,8.3,333.6z"/>
<path class="st1" d="M30.9,333.6L30.9,333.6c-4.6,0-8.3-3.7-8.3-8.3v0c0-4.6,3.7-8.3,8.3-8.3h0c4.6,0,8.3,3.7,8.3,8.3v0
	C39.2,329.8,35.4,333.6,30.9,333.6z"/>
<path class="st1" d="M8.3,311L8.3,311c-4.6,0-8.3-3.7-8.3-8.3v0c0-4.6,3.7-8.3,8.3-8.3h0c4.6,0,8.3,3.7,8.3,8.3v0
	C16.6,307.3,12.9,311,8.3,311z"/>
<path class="st1" d="M30.9,311L30.9,311c-4.6,0-8.3-3.7-8.3-8.3v0c0-4.6,3.7-8.3,8.3-8.3h0c4.6,0,8.3,3.7,8.3,8.3v0
	C39.2,307.3,35.4,311,30.9,311z"/>
<path class="st1" d="M8.3,356.1L8.3,356.1c-4.6,0-8.3-3.7-8.3-8.3v0c0-4.6,3.7-8.3,8.3-8.3h0c4.6,0,8.3,3.7,8.3,8.3v0
	C16.6,352.4,12.9,356.1,8.3,356.1z"/>
<path class="st1" d="M30.9,356.1L30.9,356.1c-4.6,0-8.3-3.7-8.3-8.3v0c0-4.6,3.7-8.3,8.3-8.3h0c4.6,0,8.3,3.7,8.3,8.3v0
	C39.2,352.4,35.5,356.1,30.9,356.1z"/>
<path class="st1" d="M8.3,401.3L8.3,401.3c-4.6,0-8.3-3.7-8.3-8.3v0c0-4.6,3.7-8.3,8.3-8.3h0c4.6,0,8.3,3.7,8.3,8.3v0
	C16.6,397.6,12.9,401.3,8.3,401.3z"/>
<path class="st1" d="M30.9,401.3L30.9,401.3c-4.6,0-8.3-3.7-8.3-8.3v0c0-4.6,3.7-8.3,8.3-8.3h0c4.6,0,8.3,3.7,8.3,8.3v0
	C39.2,397.6,35.4,401.3,30.9,401.3z"/>
<path class="st1" d="M8.3,424L8.3,424c-4.6,0-8.3-3.7-8.3-8.3v0c0-4.6,3.7-8.3,8.3-8.3h0c4.6,0,8.3,3.7,8.3,8.3v0
	C16.6,420.3,12.9,424,8.3,424z"/>
<path class="st1" d="M30.9,424L30.9,424c-4.6,0-8.3-3.7-8.3-8.3v0c0-4.6,3.7-8.3,8.3-8.3h0c4.6,0,8.3,3.7,8.3,8.3v0
	C39.2,420.3,35.4,424,30.9,424z"/>
<path class="st1" d="M8.3,378.7L8.3,378.7c-4.6,0-8.3-3.7-8.3-8.3v0c0-4.6,3.7-8.3,8.3-8.3h0c4.6,0,8.3,3.7,8.3,8.3v0
	C16.6,375,12.9,378.7,8.3,378.7z"/>
<path class="st1" d="M30.9,378.7L30.9,378.7c-4.6,0-8.3-3.7-8.3-8.3v0c0-4.6,3.7-8.3,8.3-8.3h0c4.6,0,8.3,3.7,8.3,8.3v0
	C39.2,375,35.4,378.7,30.9,378.7z"/>
<path class="st1" d="M8.3,243.3L8.3,243.3c-4.6,0-8.3-3.7-8.3-8.3v0c0-4.6,3.7-8.3,8.3-8.3h0c4.6,0,8.3,3.7,8.3,8.3v0
	C16.6,239.6,12.8,243.3,8.3,243.3z"/>
<path class="st1" d="M30.9,243.3L30.9,243.3c-4.6,0-8.3-3.7-8.3-8.3v0c0-4.6,3.7-8.3,8.3-8.3h0c4.6,0,8.3,3.7,8.3,8.3v0
	C39.1,239.6,35.4,243.3,30.9,243.3z"/>
<path class="st1" d="M53.4,62.7L53.4,62.7c-4.6,0-8.3-3.7-8.3-8.3v0c0-4.6,3.7-8.3,8.3-8.3h0c4.6,0,8.3,3.7,8.3,8.3v0
	C61.7,59,58,62.7,53.4,62.7z"/>
<path class="st1" d="M76,62.7L76,62.7c-4.6,0-8.3-3.7-8.3-8.3v0c0-4.6,3.7-8.3,8.3-8.3h0c4.6,0,8.3,3.7,8.3,8.3v0
	C84.3,59,80.6,62.7,76,62.7z"/>
<path class="st1" d="M98.6,62.7L98.6,62.7c-4.6,0-8.3-3.7-8.3-8.3v0c0-4.6,3.7-8.3,8.3-8.3h0c4.6,0,8.3,3.7,8.3,8.3v0
	C106.9,59,103.1,62.7,98.6,62.7z"/>
<path class="st1" d="M121.1,62.7L121.1,62.7c-4.6,0-8.3-3.7-8.3-8.3v0c0-4.6,3.7-8.3,8.3-8.3h0c4.6,0,8.3,3.7,8.3,8.3v0
	C129.4,59,125.7,62.7,121.1,62.7z"/>
<path class="st1" d="M143.7,62.7L143.7,62.7c-4.6,0-8.3-3.7-8.3-8.3v0c0-4.6,3.7-8.3,8.3-8.3h0c4.6,0,8.3,3.7,8.3,8.3v0
	C152,59,148.3,62.7,143.7,62.7z"/>
<path class="st1" d="M166.3,62.7L166.3,62.7c-4.6,0-8.3-3.7-8.3-8.3v0c0-4.6,3.7-8.3,8.3-8.3h0c4.6,0,8.3,3.7,8.3,8.3v0
	C174.6,59,170.8,62.7,166.3,62.7z"/>
<path class="st1" d="M188.8,62.7L188.8,62.7c-4.6,0-8.3-3.7-8.3-8.3v0c0-4.6,3.7-8.3,8.3-8.3h0c4.6,0,8.3,3.7,8.3,8.3v0
	C197.1,59,193.4,62.7,188.8,62.7z"/>
<path class="st1" d="M211.4,62.7L211.4,62.7c-4.6,0-8.3-3.7-8.3-8.3v0c0-4.6,3.7-8.3,8.3-8.3h0c4.6,0,8.3,3.7,8.3,8.3v0
	C219.7,59,216,62.7,211.4,62.7z"/>
<path class="st1" d="M234,62.7L234,62.7c-4.6,0-8.3-3.7-8.3-8.3v0c0-4.6,3.7-8.3,8.3-8.3h0c4.6,0,8.3,3.7,8.3,8.3v0
	C242.3,59,238.5,62.7,234,62.7z"/>
<path class="st1" d="M256.6,62.7L256.6,62.7c-4.6,0-8.3-3.7-8.3-8.3v0c0-4.6,3.7-8.3,8.3-8.3h0c4.6,0,8.3,3.7,8.3,8.3v0
	C264.8,59,261.1,62.7,256.6,62.7z"/>
<path class="st1" d="M279.1,62.7L279.1,62.7c-4.6,0-8.3-3.7-8.3-8.3v0c0-4.6,3.7-8.3,8.3-8.3h0c4.6,0,8.3,3.7,8.3,8.3v0
	C287.4,59,283.7,62.7,279.1,62.7z"/>
<g>
	<text transform="matrix(1 0 0 1 6.6389 10.1291)" class="st2 st3 st4">1</text>
	<text transform="matrix(1 0 0 1 28.7014 10.1291)" class="st2 st3 st4">2</text>
	<text transform="matrix(1 0 0 1 51.2757 10.1291)" class="st2 st3 st4">3</text>
	<text transform="matrix(1 0 0 1 73.7903 10.1291)" class="st2 st3 st4">4</text>
	<text transform="matrix(1 0 0 1 96.4632 10.1291)" class="st2 st3 st4">5</text>
	<text transform="matrix(1 0 0 1 118.7854 10.1291)" class="st2 st3 st4">6</text>
	<text transform="matrix(1 0 0 1 141.7464 10.1291)" class="st2 st3 st4">7</text>
	<text transform="matrix(1 0 0 1 164.0081 10.1291)" class="st2 st3 st4">8</text>
	<text transform="matrix(1 0 0 1 186.6243 10.1291)" class="st2 st3 st4">9</text>
	<text transform="matrix(1 0 0 1 207.0804 10.1291)" class="st2 st3 st4">10</text>
	<text transform="matrix(1 0 0 1 6.5735 57.4406)" class="st2 st3 st4">1</text>
	<text transform="matrix(1 0 0 1 28.635 57.4406)" class="st2 st3 st4">2</text>
	<text transform="matrix(1 0 0 1 51.2093 57.4406)" class="st2 st3 st4">3</text>
	<text transform="matrix(1 0 0 1 73.7239 57.4406)" class="st2 st3 st4">4</text>
	<text transform="matrix(1 0 0 1 96.3977 57.4406)" class="st2 st3 st4">5</text>
	<text transform="matrix(1 0 0 1 118.72 57.4406)" class="st2 st3 st4">6</text>
	<text transform="matrix(1 0 0 1 141.7464 57.4406)" class="st2 st3 st4">7</text>
	<text transform="matrix(1 0 0 1 163.9368 57.4406)" class="st2 st3 st4">8</text>
	<text transform="matrix(1 0 0 1 186.4309 57.4406)" class="st2 st3 st4">9</text>
	<text transform="matrix(1 0 0 1 207.0804 57.4406)" class="st2 st3 st4">10</text>
	<text transform="matrix(1 0 0 1 230.5628 57.4406)" class="st2 st3 st4">11</text>
	<text transform="matrix(1 0 0 1 252.6253 57.4406)" class="st2 st3 st4">12</text>
	<text transform="matrix(1 0 0 1 275.1985 57.4406)" class="st2 st3 st4">13</text>
	<text transform="matrix(1 0 0 1 6.5735 79.7736)" class="st2 st3 st4">1</text>
	<text transform="matrix(1 0 0 1 28.635 79.7736)" class="st2 st3 st4">2</text>
	<text transform="matrix(1 0 0 1 51.2093 79.7736)" class="st2 st3 st4">3</text>
	<text transform="matrix(1 0 0 1 73.7239 79.7736)" class="st2 st3 st4">4</text>
	<text transform="matrix(1 0 0 1 96.3977 79.7736)" class="st2 st3 st4">5</text>
	<text transform="matrix(1 0 0 1 118.72 79.7736)" class="st2 st3 st4">6</text>
	<text transform="matrix(1 0 0 1 141.7464 79.7736)" class="st2 st3 st4">7</text>
	<text transform="matrix(1 0 0 1 163.9368 79.7736)" class="st2 st3 st4">8</text>
	<text transform="matrix(1 0 0 1 186.4309 79.7736)" class="st2 st3 st4">9</text>
	<text transform="matrix(1 0 0 1 207.0804 79.7736)" class="st2 st3 st4">10</text>
	<text transform="matrix(1 0 0 1 230.5628 79.7736)" class="st2 st3 st4">11</text>
	<text transform="matrix(1 0 0 1 252.6253 79.7736)" class="st2 st3 st4">12</text>
	<text transform="matrix(1 0 0 1 275.1985 79.7736)" class="st2 st3 st4">13</text>
	<text transform="matrix(1 0 0 1 6.5735 101.8527)" class="st2 st3 st4">1</text>
	<text transform="matrix(1 0 0 1 28.635 101.8527)" class="st2 st3 st4">2</text>
	<text transform="matrix(1 0 0 1 51.2093 101.8527)" class="st2 st3 st4">3</text>
	<text transform="matrix(1 0 0 1 73.7239 101.8527)" class="st2 st3 st4">4</text>
	<text transform="matrix(1 0 0 1 96.3977 101.8527)" class="st2 st3 st4">5</text>
	<text transform="matrix(1 0 0 1 118.72 101.8527)" class="st2 st3 st4">6</text>
	<text transform="matrix(1 0 0 1 141.7464 101.8527)" class="st2 st3 st4">7</text>
	<text transform="matrix(1 0 0 1 163.9368 101.8527)" class="st2 st3 st4">8</text>
	<text transform="matrix(1 0 0 1 186.4309 101.8527)" class="st2 st3 st4">9</text>
	<text transform="matrix(1 0 0 1 207.0804 101.8527)" class="st2 st3 st4">10</text>
	<text transform="matrix(1 0 0 1 230.5628 101.8527)" class="st2 st3 st4">11</text>
	<text transform="matrix(1 0 0 1 252.6253 101.8527)" class="st2 st3 st4">12</text>
	<text transform="matrix(1 0 0 1 6.5735 124.9162)" class="st2 st3 st4">1</text>
	<text transform="matrix(1 0 0 1 28.635 124.9162)" class="st2 st3 st4">2</text>
	<text transform="matrix(1 0 0 1 51.2093 124.9162)" class="st2 st3 st4">3</text>
	<text transform="matrix(1 0 0 1 73.7239 124.9162)" class="st2 st3 st4">4</text>
	<text transform="matrix(1 0 0 1 96.3977 124.9162)" class="st2 st3 st4">5</text>
	<text transform="matrix(1 0 0 1 118.72 124.9162)" class="st2 st3 st4">6</text>
	<text transform="matrix(1 0 0 1 141.7464 124.9162)" class="st2 st3 st4">7</text>
	<text transform="matrix(1 0 0 1 163.9368 124.9162)" class="st2 st3 st4">8</text>
	<text transform="matrix(1 0 0 1 186.4309 124.9162)" class="st2 st3 st4">9</text>
	<text transform="matrix(1 0 0 1 207.0804 124.9162)" class="st2 st3 st4">10</text>
	<text transform="matrix(1 0 0 1 230.5628 124.9162)" class="st2 st3 st4">11</text>
	<text transform="matrix(1 0 0 1 252.6253 124.9162)" class="st2 st3 st4">12</text>
	<text transform="matrix(1 0 0 1 6.5735 146.7775)" class="st2 st3 st4">1</text>
	<text transform="matrix(1 0 0 1 28.635 146.7775)" class="st2 st3 st4">2</text>
	<text transform="matrix(1 0 0 1 51.2093 146.7775)" class="st2 st3 st4">3</text>
	<text transform="matrix(1 0 0 1 73.7239 146.7775)" class="st2 st3 st4">4</text>
	<text transform="matrix(1 0 0 1 96.3977 146.7775)" class="st2 st3 st4">5</text>
	<text transform="matrix(1 0 0 1 118.72 146.7775)" class="st2 st3 st4">6</text>
	<text transform="matrix(1 0 0 1 141.7464 146.7775)" class="st2 st3 st4">7</text>
	<text transform="matrix(1 0 0 1 163.9368 146.7775)" class="st2 st3 st4">8</text>
	<text transform="matrix(1 0 0 1 186.4309 146.7775)" class="st2 st3 st4">9</text>
	<text transform="matrix(1 0 0 1 207.0804 146.7775)" class="st2 st3 st4">10</text>
	<text transform="matrix(1 0 0 1 230.5628 146.7775)" class="st2 st3 st4">11</text>
	<text transform="matrix(1 0 0 1 252.6253 146.7775)" class="st2 st3 st4">12</text>
	<text transform="matrix(1 0 0 1 6.5735 169.9406)" class="st2 st3 st4">1</text>
	<text transform="matrix(1 0 0 1 28.635 169.9406)" class="st2 st3 st4">2</text>
	<text transform="matrix(1 0 0 1 51.2093 169.9406)" class="st2 st3 st4">3</text>
	<text transform="matrix(1 0 0 1 73.7239 169.9406)" class="st2 st3 st4">4</text>
	<text transform="matrix(1 0 0 1 96.3977 169.9406)" class="st2 st3 st4">5</text>
	<text transform="matrix(1 0 0 1 118.72 169.9406)" class="st2 st3 st4">6</text>
	<text transform="matrix(1 0 0 1 141.7464 169.9406)" class="st2 st3 st4">7</text>
	<text transform="matrix(1 0 0 1 163.9368 169.9406)" class="st2 st3 st4">8</text>
	<text transform="matrix(1 0 0 1 186.4309 169.9406)" class="st2 st3 st4">9</text>
	<text transform="matrix(1 0 0 1 207.0804 169.9406)" class="st2 st3 st4">10</text>
	<text transform="matrix(1 0 0 1 230.5628 169.9406)" class="st2 st3 st4">11</text>
	<text transform="matrix(1 0 0 1 6.5735 192.4406)" class="st2 st3 st4">1</text>
	<text transform="matrix(1 0 0 1 28.635 192.4406)" class="st2 st3 st4">2</text>
	<text transform="matrix(1 0 0 1 51.2093 192.4406)" class="st2 st3 st4">3</text>
	<text transform="matrix(1 0 0 1 73.7239 192.4406)" class="st2 st3 st4">4</text>
	<text transform="matrix(1 0 0 1 96.3977 192.4406)" class="st2 st3 st4">5</text>
	<text transform="matrix(1 0 0 1 118.72 192.4406)" class="st2 st3 st4">6</text>
	<text transform="matrix(1 0 0 1 141.7464 192.4406)" class="st2 st3 st4">7</text>
	<text transform="matrix(1 0 0 1 163.9368 192.4406)" class="st2 st3 st4">8</text>
	<text transform="matrix(1 0 0 1 186.4309 192.4406)" class="st2 st3 st4">9</text>
	<text transform="matrix(1 0 0 1 207.0804 192.4406)" class="st2 st3 st4">10</text>
	<text transform="matrix(1 0 0 1 230.5628 192.4406)" class="st2 st3 st4">11</text>
	<text transform="matrix(1 0 0 1 6.5735 215.1379)" class="st2 st3 st4">1</text>
	<text transform="matrix(1 0 0 1 28.635 215.1379)" class="st2 st3 st4">2</text>
	<text transform="matrix(1 0 0 1 51.2093 215.1379)" class="st2 st3 st4">3</text>
	<text transform="matrix(1 0 0 1 73.7239 215.1379)" class="st2 st3 st4">4</text>
	<text transform="matrix(1 0 0 1 96.3977 215.1379)" class="st2 st3 st4">5</text>
	<text transform="matrix(1 0 0 1 118.72 215.1379)" class="st2 st3 st4">6</text>
	<text transform="matrix(1 0 0 1 141.7464 215.1379)" class="st2 st3 st4">7</text>
	<text transform="matrix(1 0 0 1 163.9368 215.1379)" class="st2 st3 st4">8</text>
	<text transform="matrix(1 0 0 1 186.4309 215.1379)" class="st2 st3 st4">9</text>
	<text transform="matrix(1 0 0 1 207.0804 215.1379)" class="st2 st3 st4">10</text>
	<text transform="matrix(1 0 0 1 230.5628 215.1379)" class="st2 st3 st4">11</text>
	<text transform="matrix(1 0 0 1 6.5735 237.2678)" class="st2 st3 st4">1</text>
	<text transform="matrix(1 0 0 1 28.635 237.2678)" class="st2 st3 st4">2</text>
	<text transform="matrix(1 0 0 1 51.2093 237.2678)" class="st2 st3 st4">3</text>
	<text transform="matrix(1 0 0 1 73.7239 237.2678)" class="st2 st3 st4">4</text>
	<text transform="matrix(1 0 0 1 96.3977 237.2678)" class="st2 st3 st4">5</text>
	<text transform="matrix(1 0 0 1 118.72 237.2678)" class="st2 st3 st4">6</text>
	<text transform="matrix(1 0 0 1 141.7464 237.2678)" class="st2 st3 st4">7</text>
	<text transform="matrix(1 0 0 1 163.9368 237.2678)" class="st2 st3 st4">8</text>
	<text transform="matrix(1 0 0 1 186.4309 237.2678)" class="st2 st3 st4">9</text>
	<text transform="matrix(1 0 0 1 207.0804 237.2678)" class="st2 st3 st4">10</text>
	<text transform="matrix(1 0 0 1 6.5735 259.6808)" class="st2 st3 st4">1</text>
	<text transform="matrix(1 0 0 1 28.635 259.6808)" class="st2 st3 st4">2</text>
	<text transform="matrix(1 0 0 1 51.2093 259.6808)" class="st2 st3 st4">3</text>
	<text transform="matrix(1 0 0 1 73.7239 259.6808)" class="st2 st3 st4">4</text>
	<text transform="matrix(1 0 0 1 96.3977 259.6808)" class="st2 st3 st4">5</text>
	<text transform="matrix(1 0 0 1 118.72 259.6808)" class="st2 st3 st4">6</text>
	<text transform="matrix(1 0 0 1 141.7464 259.6808)" class="st2 st3 st4">7</text>
	<text transform="matrix(1 0 0 1 163.9368 259.6808)" class="st2 st3 st4">8</text>
	<text transform="matrix(1 0 0 1 186.4309 259.6808)" class="st2 st3 st4">9</text>
	<text transform="matrix(1 0 0 1 207.0804 259.6808)" class="st2 st3 st4">10</text>
	<text transform="matrix(1 0 0 1 6.5735 283.1808)" class="st2 st3 st4">1</text>
	<text transform="matrix(1 0 0 1 28.635 283.1808)" class="st2 st3 st4">2</text>
	<text transform="matrix(1 0 0 1 51.2093 283.1808)" class="st2 st3 st4">3</text>
	<text transform="matrix(1 0 0 1 73.7239 283.1808)" class="st2 st3 st4">4</text>
	<text transform="matrix(1 0 0 1 96.3977 283.1808)" class="st2 st3 st4">5</text>
	<text transform="matrix(1 0 0 1 118.72 283.1808)" class="st2 st3 st4">6</text>
	<text transform="matrix(1 0 0 1 141.7464 283.1808)" class="st2 st3 st4">7</text>
	<text transform="matrix(1 0 0 1 163.9368 283.1808)" class="st2 st3 st4">8</text>
	<text transform="matrix(1 0 0 1 186.4309 283.1808)" class="st2 st3 st4">9</text>
	<text transform="matrix(1 0 0 1 207.0804 283.1808)" class="st2 st3 st4">10</text>
	<text transform="matrix(1 0 0 1 6.5735 305.0578)" class="st2 st3 st4">1</text>
	<text transform="matrix(1 0 0 1 28.635 305.0578)" class="st2 st3 st4">2</text>
	<text transform="matrix(1 0 0 1 51.2093 305.0578)" class="st2 st3 st4">3</text>
	<text transform="matrix(1 0 0 1 73.7239 305.0578)" class="st2 st3 st4">4</text>
	<text transform="matrix(1 0 0 1 96.3977 305.0578)" class="st2 st3 st4">5</text>
	<text transform="matrix(1 0 0 1 118.72 305.0578)" class="st2 st3 st4">6</text>
	<text transform="matrix(1 0 0 1 141.7464 305.0578)" class="st2 st3 st4">7</text>
	<text transform="matrix(1 0 0 1 163.9368 305.0578)" class="st2 st3 st4">8</text>
	<text transform="matrix(1 0 0 1 186.4309 305.0578)" class="st2 st3 st4">9</text>
	<text transform="matrix(1 0 0 1 6.5735 327.4943)" class="st2 st3 st4">1</text>
	<text transform="matrix(1 0 0 1 28.635 327.4943)" class="st2 st3 st4">2</text>
	<text transform="matrix(1 0 0 1 51.2093 327.4943)" class="st2 st3 st4">3</text>
	<text transform="matrix(1 0 0 1 73.7239 327.4943)" class="st2 st3 st4">4</text>
	<text transform="matrix(1 0 0 1 96.3977 327.4943)" class="st2 st3 st4">5</text>
	<text transform="matrix(1 0 0 1 118.72 327.4943)" class="st2 st3 st4">6</text>
	<text transform="matrix(1 0 0 1 141.7464 327.4943)" class="st2 st3 st4">7</text>
	<text transform="matrix(1 0 0 1 163.9368 327.4943)" class="st2 st3 st4">8</text>
	<text transform="matrix(1 0 0 1 186.4309 327.4943)" class="st2 st3 st4">9</text>
	<text transform="matrix(1 0 0 1 6.5735 350.0461)" class="st2 st3 st4">1</text>
	<text transform="matrix(1 0 0 1 28.635 350.0461)" class="st2 st3 st4">2</text>
	<text transform="matrix(1 0 0 1 51.2093 350.0461)" class="st2 st3 st4">3</text>
	<text transform="matrix(1 0 0 1 73.7239 350.0461)" class="st2 st3 st4">4</text>
	<text transform="matrix(1 0 0 1 96.3977 350.0461)" class="st2 st3 st4">5</text>
	<text transform="matrix(1 0 0 1 118.72 350.0461)" class="st2 st3 st4">6</text>
	<text transform="matrix(1 0 0 1 141.7464 350.0461)" class="st2 st3 st4">7</text>
	<text transform="matrix(1 0 0 1 163.9368 350.0461)" class="st2 st3 st4">8</text>
	<text transform="matrix(1 0 0 1 6.5735 372.6818)" class="st2 st3 st4">1</text>
	<text transform="matrix(1 0 0 1 28.635 372.6818)" class="st2 st3 st4">2</text>
	<text transform="matrix(1 0 0 1 51.2093 372.6818)" class="st2 st3 st4">3</text>
	<text transform="matrix(1 0 0 1 73.7239 372.6818)" class="st2 st3 st4">4</text>
	<text transform="matrix(1 0 0 1 96.3977 372.6818)" class="st2 st3 st4">5</text>
	<text transform="matrix(1 0 0 1 118.72 372.6818)" class="st2 st3 st4">6</text>
	<text transform="matrix(1 0 0 1 141.7464 372.6818)" class="st2 st3 st4">7</text>
	<text transform="matrix(1 0 0 1 163.9368 372.6818)" class="st2 st3 st4">8</text>
	<text transform="matrix(1 0 0 1 6.5735 394.7424)" class="st2 st3 st4">1</text>
	<text transform="matrix(1 0 0 1 28.635 394.7424)" class="st2 st3 st4">2</text>
	<text transform="matrix(1 0 0 1 51.2093 394.7424)" class="st2 st3 st4">3</text>
	<text transform="matrix(1 0 0 1 73.7239 394.7424)" class="st2 st3 st4">4</text>
	<text transform="matrix(1 0 0 1 96.3977 394.7424)" class="st2 st3 st4">5</text>
	<text transform="matrix(1 0 0 1 118.72 394.7424)" class="st2 st3 st4">6</text>
	<text transform="matrix(1 0 0 1 141.7464 394.7424)" class="st2 st3 st4">7</text>
	<text transform="matrix(1 0 0 1 163.9368 394.7424)" class="st2 st3 st4">8</text>
	<text transform="matrix(1 0 0 1 6.5735 418.4582)" class="st2 st3 st4">1</text>
	<text transform="matrix(1 0 0 1 28.635 418.4582)" class="st2 st3 st4">2</text>
	<text transform="matrix(1 0 0 1 51.2093 418.4582)" class="st2 st3 st4">3</text>
	<text transform="matrix(1 0 0 1 73.7239 418.4582)" class="st2 st3 st4">4</text>
	<text transform="matrix(1 0 0 1 96.3977 418.4582)" class="st2 st3 st4">5</text>
	<text transform="matrix(1 0 0 1 118.72 418.4582)" class="st2 st3 st4">6</text>
	<text transform="matrix(1 0 0 1 141.7464 418.4582)" class="st2 st3 st4">7</text>
	<text transform="matrix(1 0 0 1 6.5735 439.9279)" class="st2 st3 st4">1</text>
	<text transform="matrix(1 0 0 1 28.635 439.9279)" class="st2 st3 st4">2</text>
	<text transform="matrix(1 0 0 1 51.2093 439.9279)" class="st2 st3 st4">3</text>
	<text transform="matrix(1 0 0 1 73.7239 439.9279)" class="st2 st3 st4">4</text>
	<text transform="matrix(1 0 0 1 96.3977 439.9279)" class="st2 st3 st4">5</text>
	<text transform="matrix(1 0 0 1 118.72 439.9279)" class="st2 st3 st4">6</text>
	<text transform="matrix(1 0 0 1 141.7464 439.9279)" class="st2 st3 st4">7</text>
</g>
<g>
	<text transform="matrix(1 0 0 1 347.219 55.2238)" class="st5 st6 st7">29</text>
	<text transform="matrix(1 0 0 1 347.219 10.8527)" class="st5 st6 st7">30</text>
	<text transform="matrix(1 0 0 1 347.219 100.7199)" class="st5 st6 st7">27</text>
	<text transform="matrix(1 0 0 1 347.219 78.1496)" class="st5 st6 st7">28</text>
	<text transform="matrix(1 0 0 1 347.219 145.8625)" class="st5 st6 st7">25</text>
	<text transform="matrix(1 0 0 1 347.0589 326.4621)" class="st5 st6 st7">17</text>
	<text transform="matrix(1 0 0 1 347.0589 349.0139)" class="st5 st6 st7">16</text>
	<text transform="matrix(1 0 0 1 347.219 371.6496)" class="st5 st6 st7">15</text>
	<text transform="matrix(1 0 0 1 347.219 394.2014)" class="st5 st6 st7">14</text>
	<text transform="matrix(1 0 0 1 347.0315 416.8342)" class="st5 st6 st7">13</text>
	<text transform="matrix(1 0 0 1 347.0589 439.3869)" class="st5 st6 st7">12</text>
	<text transform="matrix(1 0 0 1 347.219 123.2922)" class="st5 st6 st7">26</text>
	<text transform="matrix(1 0 0 1 347.219 168.3166)" class="st5 st6 st7">24</text>
	<text transform="matrix(1 0 0 1 347.219 213.5041)" class="st5 st6 st7">22</text>
	<text transform="matrix(1 0 0 1 347.219 190.9338)" class="st5 st6 st7">23</text>
	<text transform="matrix(1 0 0 1 347.219 258.6486)" class="st5 st6 st7">20</text>
	<text transform="matrix(1 0 0 1 347.219 236.0783)" class="st5 st6 st7">21</text>
	<text transform="matrix(1 0 0 1 347.0315 303.7912)" class="st5 st6 st7">18</text>
	<text transform="matrix(1 0 0 1 347.0589 281.2209)" class="st5 st6 st7">19</text>
</g>
</svg>
