<?xml version="1.0" encoding="utf-8"?>
<!-- Generator: Adobe Illustrator 20.1.0, SVG Export Plug-In . SVG Version: 6.00 Build 0)  -->
<svg version="1.1" id="Layer_1" xmlns="http://www.w3.org/2000/svg" xmlns:xlink="http://www.w3.org/1999/xlink" x="0px" y="0px"
	 viewBox="0 0 515.5 537.3" style="enable-background:new 0 0 515.5 537.3;" xml:space="preserve">
<style type="text/css">
	.st0{fill:#D9F6E1;}
	.st1{fill:#FFFFFF;}
	.st2{fill:#737373;}
	.st3{font-family:'OsnovaPro';}
	.st4{font-size:8px;}
	.st5{fill:#7B878F;}
	.st6{font-family:'OsnovaProLight';}
	.st7{font-size:9px;}
</style>
<path class="st0" d="M142.9,16.6L142.9,16.6c-4.6,0-8.3-3.7-8.3-8.3v0c0-4.6,3.7-8.3,8.3-8.3h0c4.6,0,8.3,3.7,8.3,8.3v0
	C151.1,12.8,147.4,16.6,142.9,16.6z"/>
<path class="st0" d="M165.4,16.6L165.4,16.6c-4.6,0-8.3-3.7-8.3-8.3v0c0-4.6,3.7-8.3,8.3-8.3h0c4.6,0,8.3,3.7,8.3,8.3v0
	C173.7,12.8,170,16.6,165.4,16.6z"/>
<path class="st0" d="M188,16.6L188,16.6c-4.6,0-8.3-3.7-8.3-8.3v0c0-4.6,3.7-8.3,8.3-8.3h0c4.6,0,8.3,3.7,8.3,8.3v0
	C196.3,12.8,192.6,16.6,188,16.6z"/>
<path class="st0" d="M210.6,16.6L210.6,16.6c-4.6,0-8.3-3.7-8.3-8.3v0c0-4.6,3.7-8.3,8.3-8.3h0c4.6,0,8.3,3.7,8.3,8.3v0
	C218.9,12.8,215.1,16.6,210.6,16.6z"/>
<path class="st0" d="M233.1,16.6L233.1,16.6c-4.6,0-8.3-3.7-8.3-8.3v0c0-4.6,3.7-8.3,8.3-8.3h0c4.6,0,8.3,3.7,8.3,8.3v0
	C241.4,12.8,237.7,16.6,233.1,16.6z"/>
<path class="st0" d="M255.7,16.6L255.7,16.6c-4.6,0-8.3-3.7-8.3-8.3v0c0-4.6,3.7-8.3,8.3-8.3h0c4.6,0,8.3,3.7,8.3,8.3v0
	C264,12.8,260.3,16.6,255.7,16.6z"/>
<path class="st0" d="M278.2,16.6L278.2,16.6c-4.6,0-8.3-3.7-8.3-8.3v0c0-4.6,3.7-8.3,8.3-8.3h0c4.6,0,8.3,3.7,8.3,8.3v0
	C286.5,12.8,282.8,16.6,278.2,16.6z"/>
<path class="st0" d="M300.8,16.6L300.8,16.6c-4.6,0-8.3-3.7-8.3-8.3v0c0-4.6,3.7-8.3,8.3-8.3l0,0c4.6,0,8.3,3.7,8.3,8.3v0
	C309.1,12.8,305.3,16.6,300.8,16.6z"/>
<path class="st0" d="M323.3,16.6L323.3,16.6c-4.6,0-8.3-3.7-8.3-8.3v0c0-4.6,3.7-8.3,8.3-8.3l0,0c4.6,0,8.3,3.7,8.3,8.3v0
	C331.6,12.8,327.9,16.6,323.3,16.6z"/>
<path class="st0" d="M345.9,16.6L345.9,16.6c-4.6,0-8.3-3.7-8.3-8.3v0c0-4.6,3.7-8.3,8.3-8.3l0,0c4.6,0,8.3,3.7,8.3,8.3v0
	C354.2,12.8,350.5,16.6,345.9,16.6z"/>
<path class="st0" d="M368.5,16.6L368.5,16.6c-4.6,0-8.3-3.7-8.3-8.3v0c0-4.6,3.7-8.3,8.3-8.3h0c4.6,0,8.3,3.7,8.3,8.3v0
	C376.8,12.8,373,16.6,368.5,16.6z"/>
<path class="st0" d="M391.1,16.6L391.1,16.6c-4.6,0-8.3-3.7-8.3-8.3v0c0-4.6,3.7-8.3,8.3-8.3h0c4.6,0,8.3,3.7,8.3,8.3v0
	C399.3,12.8,395.6,16.6,391.1,16.6z"/>
<path class="st0" d="M413.6,16.6L413.6,16.6c-4.6,0-8.3-3.7-8.3-8.3v0c0-4.6,3.7-8.3,8.3-8.3h0c4.6,0,8.3,3.7,8.3,8.3v0
	C421.9,12.8,418.1,16.6,413.6,16.6z"/>
<path class="st0" d="M436.2,16.6L436.2,16.6c-4.6,0-8.3-3.7-8.3-8.3v0c0-4.6,3.7-8.3,8.3-8.3h0c4.6,0,8.3,3.7,8.3,8.3v0
	C444.4,12.8,440.7,16.6,436.2,16.6z"/>
<path class="st1" d="M53.2,108.3L53.2,108.3c-4.6,0-8.3-3.7-8.3-8.3v0c0-4.6,3.7-8.3,8.3-8.3h0c4.6,0,8.3,3.7,8.3,8.3v0
	C61.5,104.6,57.8,108.3,53.2,108.3z"/>
<path class="st1" d="M75.8,108.3L75.8,108.3c-4.6,0-8.3-3.7-8.3-8.3v0c0-4.6,3.7-8.3,8.3-8.3h0c4.6,0,8.3,3.7,8.3,8.3v0
	C84.1,104.6,80.4,108.3,75.8,108.3z"/>
<path class="st1" d="M98.4,108.3L98.4,108.3c-4.6,0-8.3-3.7-8.3-8.3v0c0-4.6,3.7-8.3,8.3-8.3h0c4.6,0,8.3,3.7,8.3,8.3v0
	C106.7,104.6,102.9,108.3,98.4,108.3z"/>
<path class="st1" d="M121,108.3L121,108.3c-4.6,0-8.3-3.7-8.3-8.3v0c0-4.6,3.7-8.3,8.3-8.3h0c4.6,0,8.3,3.7,8.3,8.3v0
	C129.2,104.6,125.5,108.3,121,108.3z"/>
<path class="st1" d="M143.5,108.3L143.5,108.3c-4.6,0-8.3-3.7-8.3-8.3v0c0-4.6,3.7-8.3,8.3-8.3h0c4.6,0,8.3,3.7,8.3,8.3v0
	C151.8,104.6,148.1,108.3,143.5,108.3z"/>
<path class="st1" d="M166.1,108.3L166.1,108.3c-4.6,0-8.3-3.7-8.3-8.3v0c0-4.6,3.7-8.3,8.3-8.3h0c4.6,0,8.3,3.7,8.3,8.3v0
	C174.4,104.6,170.7,108.3,166.1,108.3z"/>
<path class="st1" d="M188.7,108.3L188.7,108.3c-4.6,0-8.3-3.7-8.3-8.3v0c0-4.6,3.7-8.3,8.3-8.3h0c4.6,0,8.3,3.7,8.3,8.3v0
	C196.9,104.6,193.2,108.3,188.7,108.3z"/>
<path class="st1" d="M211.2,108.3L211.2,108.3c-4.6,0-8.3-3.7-8.3-8.3v0c0-4.6,3.7-8.3,8.3-8.3h0c4.6,0,8.3,3.7,8.3,8.3v0
	C219.5,104.6,215.8,108.3,211.2,108.3z"/>
<path class="st1" d="M233.8,108.3L233.8,108.3c-4.6,0-8.3-3.7-8.3-8.3v0c0-4.6,3.7-8.3,8.3-8.3h0c4.6,0,8.3,3.7,8.3,8.3v0
	C242.1,104.6,238.4,108.3,233.8,108.3z"/>
<path class="st1" d="M256.4,108.3L256.4,108.3c-4.6,0-8.3-3.7-8.3-8.3v0c0-4.6,3.7-8.3,8.3-8.3h0c4.6,0,8.3,3.7,8.3,8.3v0
	C264.7,104.6,260.9,108.3,256.4,108.3z"/>
<path class="st1" d="M278.9,108.3L278.9,108.3c-4.6,0-8.3-3.7-8.3-8.3v0c0-4.6,3.7-8.3,8.3-8.3l0,0c4.6,0,8.3,3.7,8.3,8.3v0
	C287.2,104.6,283.5,108.3,278.9,108.3z"/>
<path class="st1" d="M301.5,108.3L301.5,108.3c-4.6,0-8.3-3.7-8.3-8.3v0c0-4.6,3.7-8.3,8.3-8.3l0,0c4.6,0,8.3,3.7,8.3,8.3v0
	C309.8,104.6,306.1,108.3,301.5,108.3z"/>
<path class="st1" d="M324.1,108.3L324.1,108.3c-4.6,0-8.3-3.7-8.3-8.3v0c0-4.6,3.7-8.3,8.3-8.3h0c4.6,0,8.3,3.7,8.3,8.3v0
	C332.4,104.6,328.6,108.3,324.1,108.3z"/>
<path class="st1" d="M346.7,108.3L346.7,108.3c-4.6,0-8.3-3.7-8.3-8.3v0c0-4.6,3.7-8.3,8.3-8.3h0c4.6,0,8.3,3.7,8.3,8.3v0
	C354.9,104.6,351.2,108.3,346.7,108.3z"/>
<path class="st1" d="M369.2,108.3L369.2,108.3c-4.6,0-8.3-3.7-8.3-8.3v0c0-4.6,3.7-8.3,8.3-8.3l0,0c4.6,0,8.3,3.7,8.3,8.3v0
	C377.5,104.6,373.8,108.3,369.2,108.3z"/>
<path class="st1" d="M391.8,108.3L391.8,108.3c-4.6,0-8.3-3.7-8.3-8.3v0c0-4.6,3.7-8.3,8.3-8.3l0,0c4.6,0,8.3,3.7,8.3,8.3v0
	C400.1,104.6,396.4,108.3,391.8,108.3z"/>
<path class="st1" d="M53.2,85.7L53.2,85.7c-4.6,0-8.3-3.7-8.3-8.3v0c0-4.6,3.7-8.3,8.3-8.3h0c4.6,0,8.3,3.7,8.3,8.3v0
	C61.5,82,57.8,85.7,53.2,85.7z"/>
<path class="st1" d="M75.8,85.7L75.8,85.7c-4.6,0-8.3-3.7-8.3-8.3v0c0-4.6,3.7-8.3,8.3-8.3h0c4.6,0,8.3,3.7,8.3,8.3v0
	C84.1,82,80.4,85.7,75.8,85.7z"/>
<path class="st1" d="M98.4,85.7L98.4,85.7c-4.6,0-8.3-3.7-8.3-8.3v0c0-4.6,3.7-8.3,8.3-8.3h0c4.6,0,8.3,3.7,8.3,8.3v0
	C106.7,82,102.9,85.7,98.4,85.7z"/>
<path class="st1" d="M121,85.7L121,85.7c-4.6,0-8.3-3.7-8.3-8.3v0c0-4.6,3.7-8.3,8.3-8.3h0c4.6,0,8.3,3.7,8.3,8.3v0
	C129.2,82,125.5,85.7,121,85.7z"/>
<path class="st1" d="M143.5,85.7L143.5,85.7c-4.6,0-8.3-3.7-8.3-8.3v0c0-4.6,3.7-8.3,8.3-8.3h0c4.6,0,8.3,3.7,8.3,8.3v0
	C151.8,82,148.1,85.7,143.5,85.7z"/>
<path class="st1" d="M166.1,85.7L166.1,85.7c-4.6,0-8.3-3.7-8.3-8.3v0c0-4.6,3.7-8.3,8.3-8.3h0c4.6,0,8.3,3.7,8.3,8.3v0
	C174.4,82,170.7,85.7,166.1,85.7z"/>
<path class="st1" d="M188.7,85.7L188.7,85.7c-4.6,0-8.3-3.7-8.3-8.3v0c0-4.6,3.7-8.3,8.3-8.3h0c4.6,0,8.3,3.7,8.3,8.3v0
	C196.9,82,193.2,85.7,188.7,85.7z"/>
<path class="st1" d="M211.2,85.7L211.2,85.7c-4.6,0-8.3-3.7-8.3-8.3v0c0-4.6,3.7-8.3,8.3-8.3h0c4.6,0,8.3,3.7,8.3,8.3v0
	C219.5,82,215.8,85.7,211.2,85.7z"/>
<path class="st1" d="M233.8,85.7L233.8,85.7c-4.6,0-8.3-3.7-8.3-8.3v0c0-4.6,3.7-8.3,8.3-8.3h0c4.6,0,8.3,3.7,8.3,8.3v0
	C242.1,82,238.4,85.7,233.8,85.7z"/>
<path class="st1" d="M256.4,85.7L256.4,85.7c-4.6,0-8.3-3.7-8.3-8.3v0c0-4.6,3.7-8.3,8.3-8.3h0c4.6,0,8.3,3.7,8.3,8.3v0
	C264.7,82,260.9,85.7,256.4,85.7z"/>
<path class="st1" d="M278.9,85.7L278.9,85.7c-4.6,0-8.3-3.7-8.3-8.3v0c0-4.6,3.7-8.3,8.3-8.3l0,0c4.6,0,8.3,3.7,8.3,8.3v0
	C287.2,82,283.5,85.7,278.9,85.7z"/>
<path class="st1" d="M301.5,85.7L301.5,85.7c-4.6,0-8.3-3.7-8.3-8.3v0c0-4.6,3.7-8.3,8.3-8.3l0,0c4.6,0,8.3,3.7,8.3,8.3v0
	C309.8,82,306.1,85.7,301.5,85.7z"/>
<path class="st1" d="M324.1,85.7L324.1,85.7c-4.6,0-8.3-3.7-8.3-8.3v0c0-4.6,3.7-8.3,8.3-8.3h0c4.6,0,8.3,3.7,8.3,8.3v0
	C332.4,82,328.6,85.7,324.1,85.7z"/>
<path class="st1" d="M346.7,85.7L346.7,85.7c-4.6,0-8.3-3.7-8.3-8.3v0c0-4.6,3.7-8.3,8.3-8.3h0c4.6,0,8.3,3.7,8.3,8.3v0
	C354.9,82,351.2,85.7,346.7,85.7z"/>
<path class="st1" d="M369.2,85.7L369.2,85.7c-4.6,0-8.3-3.7-8.3-8.3v0c0-4.6,3.7-8.3,8.3-8.3l0,0c4.6,0,8.3,3.7,8.3,8.3v0
	C377.5,82,373.8,85.7,369.2,85.7z"/>
<path class="st1" d="M391.8,85.7L391.8,85.7c-4.6,0-8.3-3.7-8.3-8.3v0c0-4.6,3.7-8.3,8.3-8.3l0,0c4.6,0,8.3,3.7,8.3,8.3v0
	C400.1,82,396.4,85.7,391.8,85.7z"/>
<path class="st1" d="M53.3,153.4L53.3,153.4c-4.6,0-8.3-3.7-8.3-8.3v0c0-4.6,3.7-8.3,8.3-8.3h0c4.6,0,8.3,3.7,8.3,8.3v0
	C61.6,149.7,57.8,153.4,53.3,153.4z"/>
<path class="st1" d="M75.8,153.4L75.8,153.4c-4.6,0-8.3-3.7-8.3-8.3v0c0-4.6,3.7-8.3,8.3-8.3h0c4.6,0,8.3,3.7,8.3,8.3v0
	C84.1,149.7,80.4,153.4,75.8,153.4z"/>
<path class="st1" d="M98.4,153.4L98.4,153.4c-4.6,0-8.3-3.7-8.3-8.3v0c0-4.6,3.7-8.3,8.3-8.3h0c4.6,0,8.3,3.7,8.3,8.3v0
	C106.7,149.7,103,153.4,98.4,153.4z"/>
<path class="st1" d="M121,153.4L121,153.4c-4.6,0-8.3-3.7-8.3-8.3v0c0-4.6,3.7-8.3,8.3-8.3h0c4.6,0,8.3,3.7,8.3,8.3v0
	C129.3,149.7,125.5,153.4,121,153.4z"/>
<path class="st1" d="M143.6,153.4L143.6,153.4c-4.6,0-8.3-3.7-8.3-8.3v0c0-4.6,3.7-8.3,8.3-8.3h0c4.6,0,8.3,3.7,8.3,8.3v0
	C151.8,149.7,148.1,153.4,143.6,153.4z"/>
<path class="st1" d="M166.1,153.4L166.1,153.4c-4.6,0-8.3-3.7-8.3-8.3v0c0-4.6,3.7-8.3,8.3-8.3h0c4.6,0,8.3,3.7,8.3,8.3v0
	C174.4,149.7,170.7,153.4,166.1,153.4z"/>
<path class="st1" d="M188.7,153.4L188.7,153.4c-4.6,0-8.3-3.7-8.3-8.3v0c0-4.6,3.7-8.3,8.3-8.3h0c4.6,0,8.3,3.7,8.3,8.3v0
	C197,149.7,193.2,153.4,188.7,153.4z"/>
<path class="st1" d="M211.3,153.4L211.3,153.4c-4.6,0-8.3-3.7-8.3-8.3v0c0-4.6,3.7-8.3,8.3-8.3h0c4.6,0,8.3,3.7,8.3,8.3v0
	C219.5,149.7,215.8,153.4,211.3,153.4z"/>
<path class="st1" d="M233.8,153.4L233.8,153.4c-4.6,0-8.3-3.7-8.3-8.3v0c0-4.6,3.7-8.3,8.3-8.3h0c4.6,0,8.3,3.7,8.3,8.3v0
	C242.1,149.7,238.4,153.4,233.8,153.4z"/>
<path class="st1" d="M256.4,153.4L256.4,153.4c-4.6,0-8.3-3.7-8.3-8.3v0c0-4.6,3.7-8.3,8.3-8.3l0,0c4.6,0,8.3,3.7,8.3,8.3v0
	C264.7,149.7,261,153.4,256.4,153.4z"/>
<path class="st1" d="M279,153.4L279,153.4c-4.6,0-8.3-3.7-8.3-8.3v0c0-4.6,3.7-8.3,8.3-8.3h0c4.6,0,8.3,3.7,8.3,8.3v0
	C287.3,149.7,283.5,153.4,279,153.4z"/>
<path class="st1" d="M301.5,153.4L301.5,153.4c-4.6,0-8.3-3.7-8.3-8.3v0c0-4.6,3.7-8.3,8.3-8.3h0c4.6,0,8.3,3.7,8.3,8.3v0
	C309.8,149.7,306.1,153.4,301.5,153.4z"/>
<path class="st1" d="M324.1,153.4L324.1,153.4c-4.6,0-8.3-3.7-8.3-8.3v0c0-4.6,3.7-8.3,8.3-8.3l0,0c4.6,0,8.3,3.7,8.3,8.3v0
	C332.4,149.7,328.7,153.4,324.1,153.4z"/>
<path class="st1" d="M346.7,153.4L346.7,153.4c-4.6,0-8.3-3.7-8.3-8.3v0c0-4.6,3.7-8.3,8.3-8.3l0,0c4.6,0,8.3,3.7,8.3,8.3v0
	C355,149.7,351.2,153.4,346.7,153.4z"/>
<path class="st1" d="M369.3,153.4L369.3,153.4c-4.6,0-8.3-3.7-8.3-8.3v0c0-4.6,3.7-8.3,8.3-8.3l0,0c4.6,0,8.3,3.7,8.3,8.3v0
	C377.5,149.7,373.8,153.4,369.3,153.4z"/>
<path class="st1" d="M391.8,153.4L391.8,153.4c-4.6,0-8.3-3.7-8.3-8.3v0c0-4.6,3.7-8.3,8.3-8.3h0c4.6,0,8.3,3.7,8.3,8.3v0
	C400.1,149.7,396.4,153.4,391.8,153.4z"/>
<path class="st1" d="M166.1,334L166.1,334c-4.6,0-8.3-3.7-8.3-8.3l0,0c0-4.6,3.7-8.3,8.3-8.3h0c4.6,0,8.3,3.7,8.3,8.3l0,0
	C174.4,330.3,170.7,334,166.1,334z"/>
<path class="st1" d="M188.7,334L188.7,334c-4.6,0-8.3-3.7-8.3-8.3l0,0c0-4.6,3.7-8.3,8.3-8.3h0c4.6,0,8.3,3.7,8.3,8.3l0,0
	C197,330.3,193.2,334,188.7,334z"/>
<path class="st1" d="M211.3,334L211.3,334c-4.6,0-8.3-3.7-8.3-8.3l0,0c0-4.6,3.7-8.3,8.3-8.3h0c4.6,0,8.3,3.7,8.3,8.3l0,0
	C219.5,330.3,215.8,334,211.3,334z"/>
<path class="st1" d="M233.8,334L233.8,334c-4.6,0-8.3-3.7-8.3-8.3l0,0c0-4.6,3.7-8.3,8.3-8.3h0c4.6,0,8.3,3.7,8.3,8.3l0,0
	C242.1,330.3,238.4,334,233.8,334z"/>
<path class="st1" d="M256.4,334L256.4,334c-4.6,0-8.3-3.7-8.3-8.3l0,0c0-4.6,3.7-8.3,8.3-8.3l0,0c4.6,0,8.3,3.7,8.3,8.3l0,0
	C264.7,330.3,261,334,256.4,334z"/>
<path class="st1" d="M279,334L279,334c-4.6,0-8.3-3.7-8.3-8.3l0,0c0-4.6,3.7-8.3,8.3-8.3h0c4.6,0,8.3,3.7,8.3,8.3l0,0
	C287.3,330.3,283.5,334,279,334z"/>
<path class="st1" d="M301.5,334L301.5,334c-4.6,0-8.3-3.7-8.3-8.3l0,0c0-4.6,3.7-8.3,8.3-8.3h0c4.6,0,8.3,3.7,8.3,8.3l0,0
	C309.8,330.3,306.1,334,301.5,334z"/>
<path class="st1" d="M324.1,334L324.1,334c-4.6,0-8.3-3.7-8.3-8.3l0,0c0-4.6,3.7-8.3,8.3-8.3l0,0c4.6,0,8.3,3.7,8.3,8.3l0,0
	C332.4,330.3,328.7,334,324.1,334z"/>
<path class="st1" d="M346.7,334L346.7,334c-4.6,0-8.3-3.7-8.3-8.3l0,0c0-4.6,3.7-8.3,8.3-8.3l0,0c4.6,0,8.3,3.7,8.3,8.3l0,0
	C355,330.3,351.2,334,346.7,334z"/>
<path class="st1" d="M166.1,356.6L166.1,356.6c-4.6,0-8.3-3.7-8.3-8.3v0c0-4.6,3.7-8.3,8.3-8.3h0c4.6,0,8.3,3.7,8.3,8.3v0
	C174.4,352.9,170.7,356.6,166.1,356.6z"/>
<path class="st1" d="M188.7,356.6L188.7,356.6c-4.6,0-8.3-3.7-8.3-8.3v0c0-4.6,3.7-8.3,8.3-8.3h0c4.6,0,8.3,3.7,8.3,8.3v0
	C197,352.9,193.2,356.6,188.7,356.6z"/>
<path class="st1" d="M211.3,356.6L211.3,356.6c-4.6,0-8.3-3.7-8.3-8.3v0c0-4.6,3.7-8.3,8.3-8.3h0c4.6,0,8.3,3.7,8.3,8.3v0
	C219.5,352.9,215.8,356.6,211.3,356.6z"/>
<path class="st1" d="M233.8,356.6L233.8,356.6c-4.6,0-8.3-3.7-8.3-8.3v0c0-4.6,3.7-8.3,8.3-8.3h0c4.6,0,8.3,3.7,8.3,8.3v0
	C242.1,352.9,238.4,356.6,233.8,356.6z"/>
<path class="st1" d="M256.4,356.6L256.4,356.6c-4.6,0-8.3-3.7-8.3-8.3v0c0-4.6,3.7-8.3,8.3-8.3l0,0c4.6,0,8.3,3.7,8.3,8.3v0
	C264.7,352.9,261,356.6,256.4,356.6z"/>
<path class="st1" d="M279,356.6L279,356.6c-4.6,0-8.3-3.7-8.3-8.3v0c0-4.6,3.7-8.3,8.3-8.3h0c4.6,0,8.3,3.7,8.3,8.3v0
	C287.3,352.9,283.5,356.6,279,356.6z"/>
<path class="st1" d="M301.5,356.6L301.5,356.6c-4.6,0-8.3-3.7-8.3-8.3v0c0-4.6,3.7-8.3,8.3-8.3h0c4.6,0,8.3,3.7,8.3,8.3v0
	C309.8,352.9,306.1,356.6,301.5,356.6z"/>
<path class="st1" d="M324.1,356.6L324.1,356.6c-4.6,0-8.3-3.7-8.3-8.3v0c0-4.6,3.7-8.3,8.3-8.3l0,0c4.6,0,8.3,3.7,8.3,8.3v0
	C332.4,352.9,328.7,356.6,324.1,356.6z"/>
<path class="st1" d="M346.7,356.6L346.7,356.6c-4.6,0-8.3-3.7-8.3-8.3v0c0-4.6,3.7-8.3,8.3-8.3l0,0c4.6,0,8.3,3.7,8.3,8.3v0
	C355,352.9,351.2,356.6,346.7,356.6z"/>
<path class="st1" d="M188.7,379.2L188.7,379.2c-4.6,0-8.3-3.7-8.3-8.3l0,0c0-4.6,3.7-8.3,8.3-8.3h0c4.6,0,8.3,3.7,8.3,8.3l0,0
	C197,375.5,193.2,379.2,188.7,379.2z"/>
<path class="st1" d="M211.3,379.2L211.3,379.2c-4.6,0-8.3-3.7-8.3-8.3l0,0c0-4.6,3.7-8.3,8.3-8.3h0c4.6,0,8.3,3.7,8.3,8.3l0,0
	C219.5,375.5,215.8,379.2,211.3,379.2z"/>
<path class="st1" d="M233.8,379.2L233.8,379.2c-4.6,0-8.3-3.7-8.3-8.3l0,0c0-4.6,3.7-8.3,8.3-8.3h0c4.6,0,8.3,3.7,8.3,8.3l0,0
	C242.1,375.5,238.4,379.2,233.8,379.2z"/>
<path class="st1" d="M256.4,379.2L256.4,379.2c-4.6,0-8.3-3.7-8.3-8.3l0,0c0-4.6,3.7-8.3,8.3-8.3l0,0c4.6,0,8.3,3.7,8.3,8.3l0,0
	C264.7,375.5,261,379.2,256.4,379.2z"/>
<path class="st1" d="M279,379.2L279,379.2c-4.6,0-8.3-3.7-8.3-8.3l0,0c0-4.6,3.7-8.3,8.3-8.3h0c4.6,0,8.3,3.7,8.3,8.3l0,0
	C287.3,375.5,283.5,379.2,279,379.2z"/>
<path class="st1" d="M301.5,379.2L301.5,379.2c-4.6,0-8.3-3.7-8.3-8.3l0,0c0-4.6,3.7-8.3,8.3-8.3h0c4.6,0,8.3,3.7,8.3,8.3l0,0
	C309.8,375.5,306.1,379.2,301.5,379.2z"/>
<path class="st1" d="M324.1,379.2L324.1,379.2c-4.6,0-8.3-3.7-8.3-8.3l0,0c0-4.6,3.7-8.3,8.3-8.3l0,0c4.6,0,8.3,3.7,8.3,8.3l0,0
	C332.4,375.5,328.7,379.2,324.1,379.2z"/>
<path class="st1" d="M346.7,379.2L346.7,379.2c-4.6,0-8.3-3.7-8.3-8.3l0,0c0-4.6,3.7-8.3,8.3-8.3l0,0c4.6,0,8.3,3.7,8.3,8.3l0,0
	C355,375.5,351.2,379.2,346.7,379.2z"/>
<path class="st1" d="M188.7,401.8L188.7,401.8c-4.6,0-8.3-3.7-8.3-8.3v0c0-4.6,3.7-8.3,8.3-8.3h0c4.6,0,8.3,3.7,8.3,8.3v0
	C197,398,193.2,401.8,188.7,401.8z"/>
<path class="st1" d="M211.3,401.8L211.3,401.8c-4.6,0-8.3-3.7-8.3-8.3v0c0-4.6,3.7-8.3,8.3-8.3h0c4.6,0,8.3,3.7,8.3,8.3v0
	C219.5,398,215.8,401.8,211.3,401.8z"/>
<path class="st1" d="M233.8,401.8L233.8,401.8c-4.6,0-8.3-3.7-8.3-8.3v0c0-4.6,3.7-8.3,8.3-8.3h0c4.6,0,8.3,3.7,8.3,8.3v0
	C242.1,398,238.4,401.8,233.8,401.8z"/>
<path class="st1" d="M256.4,401.8L256.4,401.8c-4.6,0-8.3-3.7-8.3-8.3v0c0-4.6,3.7-8.3,8.3-8.3l0,0c4.6,0,8.3,3.7,8.3,8.3v0
	C264.7,398,261,401.8,256.4,401.8z"/>
<path class="st1" d="M279,401.8L279,401.8c-4.6,0-8.3-3.7-8.3-8.3v0c0-4.6,3.7-8.3,8.3-8.3h0c4.6,0,8.3,3.7,8.3,8.3v0
	C287.3,398,283.5,401.8,279,401.8z"/>
<path class="st1" d="M301.5,401.8L301.5,401.8c-4.6,0-8.3-3.7-8.3-8.3v0c0-4.6,3.7-8.3,8.3-8.3h0c4.6,0,8.3,3.7,8.3,8.3v0
	C309.8,398,306.1,401.8,301.5,401.8z"/>
<path class="st1" d="M324.1,401.8L324.1,401.8c-4.6,0-8.3-3.7-8.3-8.3v0c0-4.6,3.7-8.3,8.3-8.3l0,0c4.6,0,8.3,3.7,8.3,8.3v0
	C332.4,398,328.7,401.8,324.1,401.8z"/>
<path class="st1" d="M346.7,401.8L346.7,401.8c-4.6,0-8.3-3.7-8.3-8.3v0c0-4.6,3.7-8.3,8.3-8.3l0,0c4.6,0,8.3,3.7,8.3,8.3v0
	C355,398,351.2,401.8,346.7,401.8z"/>
<path class="st1" d="M211.3,424.4L211.3,424.4c-4.6,0-8.3-3.7-8.3-8.3l0,0c0-4.6,3.7-8.3,8.3-8.3h0c4.6,0,8.3,3.7,8.3,8.3l0,0
	C219.5,420.7,215.8,424.4,211.3,424.4z"/>
<path class="st1" d="M233.8,424.4L233.8,424.4c-4.6,0-8.3-3.7-8.3-8.3l0,0c0-4.6,3.7-8.3,8.3-8.3h0c4.6,0,8.3,3.7,8.3,8.3l0,0
	C242.1,420.7,238.4,424.4,233.8,424.4z"/>
<path class="st1" d="M256.4,424.4L256.4,424.4c-4.6,0-8.3-3.7-8.3-8.3l0,0c0-4.6,3.7-8.3,8.3-8.3l0,0c4.6,0,8.3,3.7,8.3,8.3l0,0
	C264.7,420.7,261,424.4,256.4,424.4z"/>
<path class="st1" d="M279,424.4L279,424.4c-4.6,0-8.3-3.7-8.3-8.3l0,0c0-4.6,3.7-8.3,8.3-8.3h0c4.6,0,8.3,3.7,8.3,8.3l0,0
	C287.3,420.7,283.5,424.4,279,424.4z"/>
<path class="st1" d="M301.5,424.4L301.5,424.4c-4.6,0-8.3-3.7-8.3-8.3l0,0c0-4.6,3.7-8.3,8.3-8.3h0c4.6,0,8.3,3.7,8.3,8.3l0,0
	C309.8,420.7,306.1,424.4,301.5,424.4z"/>
<path class="st1" d="M324.1,424.4L324.1,424.4c-4.6,0-8.3-3.7-8.3-8.3l0,0c0-4.6,3.7-8.3,8.3-8.3l0,0c4.6,0,8.3,3.7,8.3,8.3l0,0
	C332.4,420.7,328.7,424.4,324.1,424.4z"/>
<path class="st1" d="M346.7,424.4L346.7,424.4c-4.6,0-8.3-3.7-8.3-8.3l0,0c0-4.6,3.7-8.3,8.3-8.3l0,0c4.6,0,8.3,3.7,8.3,8.3l0,0
	C355,420.7,351.2,424.4,346.7,424.4z"/>
<path class="st1" d="M211.3,447L211.3,447c-4.6,0-8.3-3.7-8.3-8.3l0,0c0-4.6,3.7-8.3,8.3-8.3h0c4.6,0,8.3,3.7,8.3,8.3l0,0
	C219.5,443.2,215.8,447,211.3,447z"/>
<path class="st1" d="M233.8,447L233.8,447c-4.6,0-8.3-3.7-8.3-8.3l0,0c0-4.6,3.7-8.3,8.3-8.3h0c4.6,0,8.3,3.7,8.3,8.3l0,0
	C242.1,443.2,238.4,447,233.8,447z"/>
<path class="st1" d="M256.4,447L256.4,447c-4.6,0-8.3-3.7-8.3-8.3l0,0c0-4.6,3.7-8.3,8.3-8.3l0,0c4.6,0,8.3,3.7,8.3,8.3l0,0
	C264.7,443.2,261,447,256.4,447z"/>
<path class="st1" d="M279,447L279,447c-4.6,0-8.3-3.7-8.3-8.3l0,0c0-4.6,3.7-8.3,8.3-8.3h0c4.6,0,8.3,3.7,8.3,8.3l0,0
	C287.3,443.2,283.5,447,279,447z"/>
<path class="st1" d="M301.5,447L301.5,447c-4.6,0-8.3-3.7-8.3-8.3l0,0c0-4.6,3.7-8.3,8.3-8.3h0c4.6,0,8.3,3.7,8.3,8.3l0,0
	C309.8,443.2,306.1,447,301.5,447z"/>
<path class="st1" d="M324.1,447L324.1,447c-4.6,0-8.3-3.7-8.3-8.3l0,0c0-4.6,3.7-8.3,8.3-8.3l0,0c4.6,0,8.3,3.7,8.3,8.3l0,0
	C332.4,443.2,328.7,447,324.1,447z"/>
<path class="st1" d="M346.7,447L346.7,447c-4.6,0-8.3-3.7-8.3-8.3l0,0c0-4.6,3.7-8.3,8.3-8.3l0,0c4.6,0,8.3,3.7,8.3,8.3l0,0
	C355,443.2,351.2,447,346.7,447z"/>
<path class="st1" d="M369.3,447L369.3,447c-4.6,0-8.3-3.7-8.3-8.3l0,0c0-4.6,3.7-8.3,8.3-8.3l0,0c4.6,0,8.3,3.7,8.3,8.3l0,0
	C377.5,443.2,373.8,447,369.3,447z"/>
<path class="st1" d="M391.8,447L391.8,447c-4.6,0-8.3-3.7-8.3-8.3l0,0c0-4.6,3.7-8.3,8.3-8.3h0c4.6,0,8.3,3.7,8.3,8.3l0,0
	C400.1,443.2,396.4,447,391.8,447z"/>
<path class="st1" d="M324.1,469.6L324.1,469.6c-4.6,0-8.3-3.7-8.3-8.3v0c0-4.6,3.7-8.3,8.3-8.3h0c4.6,0,8.3,3.7,8.3,8.3v0
	C332.4,465.9,328.7,469.6,324.1,469.6z"/>
<path class="st1" d="M346.7,469.6L346.7,469.6c-4.6,0-8.3-3.7-8.3-8.3v0c0-4.6,3.7-8.3,8.3-8.3h0c4.6,0,8.3,3.7,8.3,8.3v0
	C355,465.9,351.3,469.6,346.7,469.6z"/>
<path class="st1" d="M369.3,469.6L369.3,469.6c-4.6,0-8.3-3.7-8.3-8.3v0c0-4.6,3.7-8.3,8.3-8.3l0,0c4.6,0,8.3,3.7,8.3,8.3v0
	C377.5,465.9,373.8,469.6,369.3,469.6z"/>
<path class="st1" d="M324.1,492.2L324.1,492.2c-4.6,0-8.3-3.7-8.3-8.3v0c0-4.6,3.7-8.3,8.3-8.3h0c4.6,0,8.3,3.7,8.3,8.3v0
	C332.4,488.4,328.7,492.2,324.1,492.2z"/>
<path class="st1" d="M346.7,492.2L346.7,492.2c-4.6,0-8.3-3.7-8.3-8.3v0c0-4.6,3.7-8.3,8.3-8.3h0c4.6,0,8.3,3.7,8.3,8.3v0
	C355,488.4,351.3,492.2,346.7,492.2z"/>
<path class="st1" d="M369.3,492.2L369.3,492.2c-4.6,0-8.3-3.7-8.3-8.3v0c0-4.6,3.7-8.3,8.3-8.3l0,0c4.6,0,8.3,3.7,8.3,8.3v0
	C377.5,488.4,373.8,492.2,369.3,492.2z"/>
<path class="st1" d="M324.1,514.8L324.1,514.8c-4.6,0-8.3-3.7-8.3-8.3v0c0-4.6,3.7-8.3,8.3-8.3h0c4.6,0,8.3,3.7,8.3,8.3v0
	C332.4,511.1,328.7,514.8,324.1,514.8z"/>
<path class="st1" d="M346.7,514.8L346.7,514.8c-4.6,0-8.3-3.7-8.3-8.3v0c0-4.6,3.7-8.3,8.3-8.3h0c4.6,0,8.3,3.7,8.3,8.3v0
	C355,511.1,351.3,514.8,346.7,514.8z"/>
<path class="st1" d="M369.3,514.8L369.3,514.8c-4.6,0-8.3-3.7-8.3-8.3v0c0-4.6,3.7-8.3,8.3-8.3l0,0c4.6,0,8.3,3.7,8.3,8.3v0
	C377.5,511.1,373.8,514.8,369.3,514.8z"/>
<path class="st1" d="M324.1,537.3L324.1,537.3c-4.6,0-8.3-3.7-8.3-8.3l0,0c0-4.6,3.7-8.3,8.3-8.3h0c4.6,0,8.3,3.7,8.3,8.3l0,0
	C332.4,533.6,328.7,537.3,324.1,537.3z"/>
<path class="st1" d="M346.7,537.3L346.7,537.3c-4.6,0-8.3-3.7-8.3-8.3l0,0c0-4.6,3.7-8.3,8.3-8.3h0c4.6,0,8.3,3.7,8.3,8.3l0,0
	C355,533.6,351.3,537.3,346.7,537.3z"/>
<path class="st1" d="M369.3,537.3L369.3,537.3c-4.6,0-8.3-3.7-8.3-8.3l0,0c0-4.6,3.7-8.3,8.3-8.3l0,0c4.6,0,8.3,3.7,8.3,8.3l0,0
	C377.5,533.6,373.8,537.3,369.3,537.3z"/>
<path class="st1" d="M53.3,130.9L53.3,130.9c-4.6,0-8.3-3.7-8.3-8.3v0c0-4.6,3.7-8.3,8.3-8.3h0c4.6,0,8.3,3.7,8.3,8.3v0
	C61.6,127.1,57.8,130.9,53.3,130.9z"/>
<path class="st1" d="M75.8,130.9L75.8,130.9c-4.6,0-8.3-3.7-8.3-8.3v0c0-4.6,3.7-8.3,8.3-8.3h0c4.6,0,8.3,3.7,8.3,8.3v0
	C84.1,127.1,80.4,130.9,75.8,130.9z"/>
<path class="st1" d="M98.4,130.9L98.4,130.9c-4.6,0-8.3-3.7-8.3-8.3v0c0-4.6,3.7-8.3,8.3-8.3h0c4.6,0,8.3,3.7,8.3,8.3v0
	C106.7,127.1,103,130.9,98.4,130.9z"/>
<path class="st1" d="M121,130.9L121,130.9c-4.6,0-8.3-3.7-8.3-8.3v0c0-4.6,3.7-8.3,8.3-8.3h0c4.6,0,8.3,3.7,8.3,8.3v0
	C129.3,127.1,125.5,130.9,121,130.9z"/>
<path class="st1" d="M143.6,130.9L143.6,130.9c-4.6,0-8.3-3.7-8.3-8.3v0c0-4.6,3.7-8.3,8.3-8.3h0c4.6,0,8.3,3.7,8.3,8.3v0
	C151.8,127.1,148.1,130.9,143.6,130.9z"/>
<path class="st1" d="M166.1,130.9L166.1,130.9c-4.6,0-8.3-3.7-8.3-8.3v0c0-4.6,3.7-8.3,8.3-8.3h0c4.6,0,8.3,3.7,8.3,8.3v0
	C174.4,127.1,170.7,130.9,166.1,130.9z"/>
<path class="st1" d="M188.7,130.9L188.7,130.9c-4.6,0-8.3-3.7-8.3-8.3v0c0-4.6,3.7-8.3,8.3-8.3h0c4.6,0,8.3,3.7,8.3,8.3v0
	C197,127.1,193.2,130.9,188.7,130.9z"/>
<path class="st1" d="M211.3,130.9L211.3,130.9c-4.6,0-8.3-3.7-8.3-8.3v0c0-4.6,3.7-8.3,8.3-8.3h0c4.6,0,8.3,3.7,8.3,8.3v0
	C219.5,127.1,215.8,130.9,211.3,130.9z"/>
<path class="st1" d="M233.8,130.9L233.8,130.9c-4.6,0-8.3-3.7-8.3-8.3v0c0-4.6,3.7-8.3,8.3-8.3h0c4.6,0,8.3,3.7,8.3,8.3v0
	C242.1,127.1,238.4,130.9,233.8,130.9z"/>
<path class="st1" d="M256.4,130.9L256.4,130.9c-4.6,0-8.3-3.7-8.3-8.3v0c0-4.6,3.7-8.3,8.3-8.3l0,0c4.6,0,8.3,3.7,8.3,8.3v0
	C264.7,127.1,261,130.9,256.4,130.9z"/>
<path class="st1" d="M279,130.9L279,130.9c-4.6,0-8.3-3.7-8.3-8.3v0c0-4.6,3.7-8.3,8.3-8.3h0c4.6,0,8.3,3.7,8.3,8.3v0
	C287.3,127.1,283.5,130.9,279,130.9z"/>
<path class="st1" d="M301.5,130.9L301.5,130.9c-4.6,0-8.3-3.7-8.3-8.3v0c0-4.6,3.7-8.3,8.3-8.3h0c4.6,0,8.3,3.7,8.3,8.3v0
	C309.8,127.1,306.1,130.9,301.5,130.9z"/>
<path class="st1" d="M324.1,130.9L324.1,130.9c-4.6,0-8.3-3.7-8.3-8.3v0c0-4.6,3.7-8.3,8.3-8.3l0,0c4.6,0,8.3,3.7,8.3,8.3v0
	C332.4,127.1,328.7,130.9,324.1,130.9z"/>
<path class="st1" d="M346.7,130.9L346.7,130.9c-4.6,0-8.3-3.7-8.3-8.3v0c0-4.6,3.7-8.3,8.3-8.3l0,0c4.6,0,8.3,3.7,8.3,8.3v0
	C355,127.1,351.2,130.9,346.7,130.9z"/>
<path class="st1" d="M369.3,130.9L369.3,130.9c-4.6,0-8.3-3.7-8.3-8.3v0c0-4.6,3.7-8.3,8.3-8.3l0,0c4.6,0,8.3,3.7,8.3,8.3v0
	C377.5,127.1,373.8,130.9,369.3,130.9z"/>
<path class="st1" d="M391.8,130.9L391.8,130.9c-4.6,0-8.3-3.7-8.3-8.3v0c0-4.6,3.7-8.3,8.3-8.3h0c4.6,0,8.3,3.7,8.3,8.3v0
	C400.1,127.1,396.4,130.9,391.8,130.9z"/>
<path class="st1" d="M53.3,176L53.3,176c-4.6,0-8.3-3.7-8.3-8.3v0c0-4.6,3.7-8.3,8.3-8.3h0c4.6,0,8.3,3.7,8.3,8.3v0
	C61.6,172.3,57.8,176,53.3,176z"/>
<path class="st1" d="M75.9,176L75.9,176c-4.6,0-8.3-3.7-8.3-8.3v0c0-4.6,3.7-8.3,8.3-8.3h0c4.6,0,8.3,3.7,8.3,8.3v0
	C84.1,172.3,80.4,176,75.9,176z"/>
<path class="st1" d="M98.4,176L98.4,176c-4.6,0-8.3-3.7-8.3-8.3v0c0-4.6,3.7-8.3,8.3-8.3h0c4.6,0,8.3,3.7,8.3,8.3v0
	C106.7,172.3,103,176,98.4,176z"/>
<path class="st1" d="M121,176L121,176c-4.6,0-8.3-3.7-8.3-8.3v0c0-4.6,3.7-8.3,8.3-8.3h0c4.6,0,8.3,3.7,8.3,8.3v0
	C129.3,172.3,125.6,176,121,176z"/>
<path class="st1" d="M143.6,176L143.6,176c-4.6,0-8.3-3.7-8.3-8.3v0c0-4.6,3.7-8.3,8.3-8.3h0c4.6,0,8.3,3.7,8.3,8.3v0
	C151.9,172.3,148.1,176,143.6,176z"/>
<path class="st1" d="M166.1,176L166.1,176c-4.6,0-8.3-3.7-8.3-8.3v0c0-4.6,3.7-8.3,8.3-8.3h0c4.6,0,8.3,3.7,8.3,8.3v0
	C174.4,172.3,170.7,176,166.1,176z"/>
<path class="st1" d="M188.7,176L188.7,176c-4.6,0-8.3-3.7-8.3-8.3v0c0-4.6,3.7-8.3,8.3-8.3h0c4.6,0,8.3,3.7,8.3,8.3v0
	C197,172.3,193.3,176,188.7,176z"/>
<path class="st1" d="M211.3,176L211.3,176c-4.6,0-8.3-3.7-8.3-8.3v0c0-4.6,3.7-8.3,8.3-8.3h0c4.6,0,8.3,3.7,8.3,8.3v0
	C219.6,172.3,215.8,176,211.3,176z"/>
<path class="st1" d="M233.9,176L233.9,176c-4.6,0-8.3-3.7-8.3-8.3v0c0-4.6,3.7-8.3,8.3-8.3h0c4.6,0,8.3,3.7,8.3,8.3v0
	C242.1,172.3,238.4,176,233.9,176z"/>
<path class="st1" d="M256.4,176L256.4,176c-4.6,0-8.3-3.7-8.3-8.3v0c0-4.6,3.7-8.3,8.3-8.3l0,0c4.6,0,8.3,3.7,8.3,8.3v0
	C264.7,172.3,261,176,256.4,176z"/>
<path class="st1" d="M279,176L279,176c-4.6,0-8.3-3.7-8.3-8.3v0c0-4.6,3.7-8.3,8.3-8.3h0c4.6,0,8.3,3.7,8.3,8.3v0
	C287.3,172.3,283.5,176,279,176z"/>
<path class="st1" d="M301.6,176L301.6,176c-4.6,0-8.3-3.7-8.3-8.3v0c0-4.6,3.7-8.3,8.3-8.3h0c4.6,0,8.3,3.7,8.3,8.3v0
	C309.8,172.3,306.1,176,301.6,176z"/>
<path class="st1" d="M75.8,221.1L75.8,221.1c-4.6,0-8.3-3.7-8.3-8.3v0c0-4.6,3.7-8.3,8.3-8.3h0c4.6,0,8.3,3.7,8.3,8.3v0
	C84.1,217.4,80.4,221.1,75.8,221.1z"/>
<path class="st1" d="M98.4,221.1L98.4,221.1c-4.6,0-8.3-3.7-8.3-8.3v0c0-4.6,3.7-8.3,8.3-8.3h0c4.6,0,8.3,3.7,8.3,8.3v0
	C106.7,217.4,103,221.1,98.4,221.1z"/>
<path class="st1" d="M121,221.1L121,221.1c-4.6,0-8.3-3.7-8.3-8.3v0c0-4.6,3.7-8.3,8.3-8.3h0c4.6,0,8.3,3.7,8.3,8.3v0
	C129.3,217.4,125.5,221.1,121,221.1z"/>
<path class="st1" d="M143.5,221.1L143.5,221.1c-4.6,0-8.3-3.7-8.3-8.3v0c0-4.6,3.7-8.3,8.3-8.3h0c4.6,0,8.3,3.7,8.3,8.3v0
	C151.8,217.4,148.1,221.1,143.5,221.1z"/>
<path class="st1" d="M166.1,221.1L166.1,221.1c-4.6,0-8.3-3.7-8.3-8.3v0c0-4.6,3.7-8.3,8.3-8.3h0c4.6,0,8.3,3.7,8.3,8.3v0
	C174.4,217.4,170.7,221.1,166.1,221.1z"/>
<path class="st1" d="M188.7,221.1L188.7,221.1c-4.6,0-8.3-3.7-8.3-8.3v0c0-4.6,3.7-8.3,8.3-8.3h0c4.6,0,8.3,3.7,8.3,8.3v0
	C197,217.4,193.2,221.1,188.7,221.1z"/>
<path class="st1" d="M211.3,221.1L211.3,221.1c-4.6,0-8.3-3.7-8.3-8.3v0c0-4.6,3.7-8.3,8.3-8.3h0c4.6,0,8.3,3.7,8.3,8.3v0
	C219.5,217.4,215.8,221.1,211.3,221.1z"/>
<path class="st1" d="M233.8,221.1L233.8,221.1c-4.6,0-8.3-3.7-8.3-8.3v0c0-4.6,3.7-8.3,8.3-8.3h0c4.6,0,8.3,3.7,8.3,8.3v0
	C242.1,217.4,238.4,221.1,233.8,221.1z"/>
<path class="st1" d="M256.4,221.1L256.4,221.1c-4.6,0-8.3-3.7-8.3-8.3v0c0-4.6,3.7-8.3,8.3-8.3l0,0c4.6,0,8.3,3.7,8.3,8.3v0
	C264.7,217.4,261,221.1,256.4,221.1z"/>
<path class="st1" d="M279,221.1L279,221.1c-4.6,0-8.3-3.7-8.3-8.3v0c0-4.6,3.7-8.3,8.3-8.3l0,0c4.6,0,8.3,3.7,8.3,8.3v0
	C287.3,217.4,283.5,221.1,279,221.1z"/>
<path class="st1" d="M301.5,221.1L301.5,221.1c-4.6,0-8.3-3.7-8.3-8.3v0c0-4.6,3.7-8.3,8.3-8.3l0,0c4.6,0,8.3,3.7,8.3,8.3v0
	C309.8,217.4,306.1,221.1,301.5,221.1z"/>
<path class="st1" d="M75.8,198.6L75.8,198.6c-4.6,0-8.3-3.7-8.3-8.3v0c0-4.6,3.7-8.3,8.3-8.3h0c4.6,0,8.3,3.7,8.3,8.3v0
	C84.1,194.8,80.4,198.6,75.8,198.6z"/>
<path class="st1" d="M98.4,198.6L98.4,198.6c-4.6,0-8.3-3.7-8.3-8.3v0c0-4.6,3.7-8.3,8.3-8.3h0c4.6,0,8.3,3.7,8.3,8.3v0
	C106.7,194.8,103,198.6,98.4,198.6z"/>
<path class="st1" d="M121,198.6L121,198.6c-4.6,0-8.3-3.7-8.3-8.3v0c0-4.6,3.7-8.3,8.3-8.3h0c4.6,0,8.3,3.7,8.3,8.3v0
	C129.3,194.8,125.5,198.6,121,198.6z"/>
<path class="st1" d="M143.5,198.6L143.5,198.6c-4.6,0-8.3-3.7-8.3-8.3v0c0-4.6,3.7-8.3,8.3-8.3h0c4.6,0,8.3,3.7,8.3,8.3v0
	C151.8,194.8,148.1,198.6,143.5,198.6z"/>
<path class="st1" d="M166.1,198.6L166.1,198.6c-4.6,0-8.3-3.7-8.3-8.3v0c0-4.6,3.7-8.3,8.3-8.3h0c4.6,0,8.3,3.7,8.3,8.3v0
	C174.4,194.8,170.7,198.6,166.1,198.6z"/>
<path class="st1" d="M188.7,198.6L188.7,198.6c-4.6,0-8.3-3.7-8.3-8.3v0c0-4.6,3.7-8.3,8.3-8.3h0c4.6,0,8.3,3.7,8.3,8.3v0
	C197,194.8,193.2,198.6,188.7,198.6z"/>
<path class="st1" d="M211.3,198.6L211.3,198.6c-4.6,0-8.3-3.7-8.3-8.3v0c0-4.6,3.7-8.3,8.3-8.3h0c4.6,0,8.3,3.7,8.3,8.3v0
	C219.5,194.8,215.8,198.6,211.3,198.6z"/>
<path class="st1" d="M233.8,198.6L233.8,198.6c-4.6,0-8.3-3.7-8.3-8.3v0c0-4.6,3.7-8.3,8.3-8.3h0c4.6,0,8.3,3.7,8.3,8.3v0
	C242.1,194.8,238.4,198.6,233.8,198.6z"/>
<path class="st1" d="M256.4,198.6L256.4,198.6c-4.6,0-8.3-3.7-8.3-8.3v0c0-4.6,3.7-8.3,8.3-8.3l0,0c4.6,0,8.3,3.7,8.3,8.3v0
	C264.7,194.8,261,198.6,256.4,198.6z"/>
<path class="st1" d="M279,198.6L279,198.6c-4.6,0-8.3-3.7-8.3-8.3v0c0-4.6,3.7-8.3,8.3-8.3l0,0c4.6,0,8.3,3.7,8.3,8.3v0
	C287.3,194.8,283.5,198.6,279,198.6z"/>
<path class="st1" d="M301.5,198.6L301.5,198.6c-4.6,0-8.3-3.7-8.3-8.3v0c0-4.6,3.7-8.3,8.3-8.3l0,0c4.6,0,8.3,3.7,8.3,8.3v0
	C309.8,194.8,306.1,198.6,301.5,198.6z"/>
<path class="st1" d="M121,243.7L121,243.7c-4.6,0-8.3-3.7-8.3-8.3v0c0-4.6,3.7-8.3,8.3-8.3h0c4.6,0,8.3,3.7,8.3,8.3v0
	C129.3,240,125.6,243.7,121,243.7z"/>
<path class="st1" d="M143.6,243.7L143.6,243.7c-4.6,0-8.3-3.7-8.3-8.3v0c0-4.6,3.7-8.3,8.3-8.3h0c4.6,0,8.3,3.7,8.3,8.3v0
	C151.9,240,148.1,243.7,143.6,243.7z"/>
<path class="st1" d="M166.1,243.7L166.1,243.7c-4.6,0-8.3-3.7-8.3-8.3v0c0-4.6,3.7-8.3,8.3-8.3h0c4.6,0,8.3,3.7,8.3,8.3v0
	C174.4,240,170.7,243.7,166.1,243.7z"/>
<path class="st1" d="M188.7,243.7L188.7,243.7c-4.6,0-8.3-3.7-8.3-8.3v0c0-4.6,3.7-8.3,8.3-8.3h0c4.6,0,8.3,3.7,8.3,8.3v0
	C197,240,193.3,243.7,188.7,243.7z"/>
<path class="st1" d="M211.3,243.7L211.3,243.7c-4.6,0-8.3-3.7-8.3-8.3v0c0-4.6,3.7-8.3,8.3-8.3h0c4.6,0,8.3,3.7,8.3,8.3v0
	C219.6,240,215.8,243.7,211.3,243.7z"/>
<path class="st1" d="M233.9,243.7L233.9,243.7c-4.6,0-8.3-3.7-8.3-8.3v0c0-4.6,3.7-8.3,8.3-8.3h0c4.6,0,8.3,3.7,8.3,8.3v0
	C242.1,240,238.4,243.7,233.9,243.7z"/>
<path class="st1" d="M256.4,243.7L256.4,243.7c-4.6,0-8.3-3.7-8.3-8.3v0c0-4.6,3.7-8.3,8.3-8.3l0,0c4.6,0,8.3,3.7,8.3,8.3v0
	C264.7,240,261,243.7,256.4,243.7z"/>
<path class="st1" d="M279,243.7L279,243.7c-4.6,0-8.3-3.7-8.3-8.3v0c0-4.6,3.7-8.3,8.3-8.3h0c4.6,0,8.3,3.7,8.3,8.3v0
	C287.3,240,283.5,243.7,279,243.7z"/>
<path class="st1" d="M301.6,243.7L301.6,243.7c-4.6,0-8.3-3.7-8.3-8.3v0c0-4.6,3.7-8.3,8.3-8.3h0c4.6,0,8.3,3.7,8.3,8.3v0
	C309.8,240,306.1,243.7,301.6,243.7z"/>
<path class="st1" d="M143.5,288.8L143.5,288.8c-4.6,0-8.3-3.7-8.3-8.3v0c0-4.6,3.7-8.3,8.3-8.3h0c4.6,0,8.3,3.7,8.3,8.3v0
	C151.8,285.1,148.1,288.8,143.5,288.8z"/>
<path class="st1" d="M166.1,288.8L166.1,288.8c-4.6,0-8.3-3.7-8.3-8.3v0c0-4.6,3.7-8.3,8.3-8.3h0c4.6,0,8.3,3.7,8.3,8.3v0
	C174.4,285.1,170.7,288.8,166.1,288.8z"/>
<path class="st1" d="M188.7,288.8L188.7,288.8c-4.6,0-8.3-3.7-8.3-8.3v0c0-4.6,3.7-8.3,8.3-8.3h0c4.6,0,8.3,3.7,8.3,8.3v0
	C197,285.1,193.2,288.8,188.7,288.8z"/>
<path class="st1" d="M211.3,288.8L211.3,288.8c-4.6,0-8.3-3.7-8.3-8.3v0c0-4.6,3.7-8.3,8.3-8.3h0c4.6,0,8.3,3.7,8.3,8.3v0
	C219.5,285.1,215.8,288.8,211.3,288.8z"/>
<path class="st1" d="M233.8,288.8L233.8,288.8c-4.6,0-8.3-3.7-8.3-8.3v0c0-4.6,3.7-8.3,8.3-8.3h0c4.6,0,8.3,3.7,8.3,8.3v0
	C242.1,285.1,238.4,288.8,233.8,288.8z"/>
<path class="st1" d="M256.4,288.8L256.4,288.8c-4.6,0-8.3-3.7-8.3-8.3v0c0-4.6,3.7-8.3,8.3-8.3l0,0c4.6,0,8.3,3.7,8.3,8.3v0
	C264.7,285.1,261,288.8,256.4,288.8z"/>
<path class="st1" d="M279,288.8L279,288.8c-4.6,0-8.3-3.7-8.3-8.3v0c0-4.6,3.7-8.3,8.3-8.3l0,0c4.6,0,8.3,3.7,8.3,8.3v0
	C287.3,285.1,283.5,288.8,279,288.8z"/>
<path class="st1" d="M301.5,288.8L301.5,288.8c-4.6,0-8.3-3.7-8.3-8.3v0c0-4.6,3.7-8.3,8.3-8.3l0,0c4.6,0,8.3,3.7,8.3,8.3v0
	C309.8,285.1,306.1,288.8,301.5,288.8z"/>
<path class="st1" d="M121,266.3L121,266.3c-4.6,0-8.3-3.7-8.3-8.3l0,0c0-4.6,3.7-8.3,8.3-8.3h0c4.6,0,8.3,3.7,8.3,8.3l0,0
	C129.3,262.5,125.5,266.3,121,266.3z"/>
<path class="st1" d="M143.5,266.3L143.5,266.3c-4.6,0-8.3-3.7-8.3-8.3l0,0c0-4.6,3.7-8.3,8.3-8.3h0c4.6,0,8.3,3.7,8.3,8.3l0,0
	C151.8,262.5,148.1,266.3,143.5,266.3z"/>
<path class="st1" d="M166.1,266.3L166.1,266.3c-4.6,0-8.3-3.7-8.3-8.3l0,0c0-4.6,3.7-8.3,8.3-8.3h0c4.6,0,8.3,3.7,8.3,8.3l0,0
	C174.4,262.5,170.7,266.3,166.1,266.3z"/>
<path class="st1" d="M188.7,266.3L188.7,266.3c-4.6,0-8.3-3.7-8.3-8.3l0,0c0-4.6,3.7-8.3,8.3-8.3h0c4.6,0,8.3,3.7,8.3,8.3l0,0
	C197,262.5,193.2,266.3,188.7,266.3z"/>
<path class="st1" d="M211.3,266.3L211.3,266.3c-4.6,0-8.3-3.7-8.3-8.3l0,0c0-4.6,3.7-8.3,8.3-8.3h0c4.6,0,8.3,3.7,8.3,8.3l0,0
	C219.5,262.5,215.8,266.3,211.3,266.3z"/>
<path class="st1" d="M233.8,266.3L233.8,266.3c-4.6,0-8.3-3.7-8.3-8.3l0,0c0-4.6,3.7-8.3,8.3-8.3h0c4.6,0,8.3,3.7,8.3,8.3l0,0
	C242.1,262.5,238.4,266.3,233.8,266.3z"/>
<path class="st1" d="M256.4,266.3L256.4,266.3c-4.6,0-8.3-3.7-8.3-8.3l0,0c0-4.6,3.7-8.3,8.3-8.3l0,0c4.6,0,8.3,3.7,8.3,8.3l0,0
	C264.7,262.5,261,266.3,256.4,266.3z"/>
<path class="st1" d="M279,266.3L279,266.3c-4.6,0-8.3-3.7-8.3-8.3l0,0c0-4.6,3.7-8.3,8.3-8.3l0,0c4.6,0,8.3,3.7,8.3,8.3l0,0
	C287.3,262.5,283.5,266.3,279,266.3z"/>
<path class="st1" d="M301.5,266.3L301.5,266.3c-4.6,0-8.3-3.7-8.3-8.3l0,0c0-4.6,3.7-8.3,8.3-8.3l0,0c4.6,0,8.3,3.7,8.3,8.3l0,0
	C309.8,262.5,306.1,266.3,301.5,266.3z"/>
<path class="st1" d="M143.6,469.6L143.6,469.6c-4.6,0-8.3-3.7-8.3-8.3v0c0-4.6,3.7-8.3,8.3-8.3h0c4.6,0,8.3,3.7,8.3,8.3v0
	C151.9,465.9,148.1,469.6,143.6,469.6z"/>
<path class="st1" d="M166.2,469.6L166.2,469.6c-4.6,0-8.3-3.7-8.3-8.3v0c0-4.6,3.7-8.3,8.3-8.3h0c4.6,0,8.3,3.7,8.3,8.3v0
	C174.4,465.9,170.7,469.6,166.2,469.6z"/>
<path class="st1" d="M188.7,469.6L188.7,469.6c-4.6,0-8.3-3.7-8.3-8.3v0c0-4.6,3.7-8.3,8.3-8.3h0c4.6,0,8.3,3.7,8.3,8.3v0
	C197,465.9,193.3,469.6,188.7,469.6z"/>
<path class="st1" d="M211.3,469.6L211.3,469.6c-4.6,0-8.3-3.7-8.3-8.3v0c0-4.6,3.7-8.3,8.3-8.3h0c4.6,0,8.3,3.7,8.3,8.3v0
	C219.6,465.9,215.9,469.6,211.3,469.6z"/>
<path class="st1" d="M233.9,469.6L233.9,469.6c-4.6,0-8.3-3.7-8.3-8.3v0c0-4.6,3.7-8.3,8.3-8.3h0c4.6,0,8.3,3.7,8.3,8.3v0
	C242.2,465.9,238.4,469.6,233.9,469.6z"/>
<path class="st1" d="M256.4,469.6L256.4,469.6c-4.6,0-8.3-3.7-8.3-8.3v0c0-4.6,3.7-8.3,8.3-8.3l0,0c4.6,0,8.3,3.7,8.3,8.3v0
	C264.7,465.9,261,469.6,256.4,469.6z"/>
<path class="st1" d="M279,469.6L279,469.6c-4.6,0-8.3-3.7-8.3-8.3v0c0-4.6,3.7-8.3,8.3-8.3h0c4.6,0,8.3,3.7,8.3,8.3v0
	C287.3,465.9,283.6,469.6,279,469.6z"/>
<path class="st1" d="M301.6,469.6L301.6,469.6c-4.6,0-8.3-3.7-8.3-8.3v0c0-4.6,3.7-8.3,8.3-8.3h0c4.6,0,8.3,3.7,8.3,8.3v0
	C309.9,465.9,306.1,469.6,301.6,469.6z"/>
<path class="st1" d="M256.4,514.8L256.4,514.8c-4.6,0-8.3-3.7-8.3-8.3v0c0-4.6,3.7-8.3,8.3-8.3l0,0c4.6,0,8.3,3.7,8.3,8.3v0
	C264.7,511,261,514.8,256.4,514.8z"/>
<path class="st1" d="M279,514.8L279,514.8c-4.6,0-8.3-3.7-8.3-8.3v0c0-4.6,3.7-8.3,8.3-8.3l0,0c4.6,0,8.3,3.7,8.3,8.3v0
	C287.3,511,283.5,514.8,279,514.8z"/>
<path class="st1" d="M301.6,514.8L301.6,514.8c-4.6,0-8.3-3.7-8.3-8.3v0c0-4.6,3.7-8.3,8.3-8.3l0,0c4.6,0,8.3,3.7,8.3,8.3v0
	C309.8,511,306.1,514.8,301.6,514.8z"/>
<path class="st1" d="M211.3,492.2L211.3,492.2c-4.6,0-8.3-3.7-8.3-8.3v0c0-4.6,3.7-8.3,8.3-8.3h0c4.6,0,8.3,3.7,8.3,8.3v0
	C219.6,488.5,215.8,492.2,211.3,492.2z"/>
<path class="st1" d="M233.8,492.2L233.8,492.2c-4.6,0-8.3-3.7-8.3-8.3v0c0-4.6,3.7-8.3,8.3-8.3h0c4.6,0,8.3,3.7,8.3,8.3v0
	C242.1,488.5,238.4,492.2,233.8,492.2z"/>
<path class="st1" d="M256.4,492.2L256.4,492.2c-4.6,0-8.3-3.7-8.3-8.3v0c0-4.6,3.7-8.3,8.3-8.3l0,0c4.6,0,8.3,3.7,8.3,8.3v0
	C264.7,488.5,261,492.2,256.4,492.2z"/>
<path class="st1" d="M279,492.2L279,492.2c-4.6,0-8.3-3.7-8.3-8.3v0c0-4.6,3.7-8.3,8.3-8.3l0,0c4.6,0,8.3,3.7,8.3,8.3v0
	C287.3,488.5,283.5,492.2,279,492.2z"/>
<path class="st1" d="M301.6,492.2L301.6,492.2c-4.6,0-8.3-3.7-8.3-8.3v0c0-4.6,3.7-8.3,8.3-8.3l0,0c4.6,0,8.3,3.7,8.3,8.3v0
	C309.8,488.5,306.1,492.2,301.6,492.2z"/>
<path class="st1" d="M256.4,537.3L256.4,537.3c-4.6,0-8.3-3.7-8.3-8.3v0c0-4.6,3.7-8.3,8.3-8.3l0,0c4.6,0,8.3,3.7,8.3,8.3v0
	C264.7,533.6,261,537.3,256.4,537.3z"/>
<path class="st1" d="M279,537.3L279,537.3c-4.6,0-8.3-3.7-8.3-8.3v0c0-4.6,3.7-8.3,8.3-8.3h0c4.6,0,8.3,3.7,8.3,8.3v0
	C287.3,533.6,283.6,537.3,279,537.3z"/>
<path class="st1" d="M301.6,537.3L301.6,537.3c-4.6,0-8.3-3.7-8.3-8.3v0c0-4.6,3.7-8.3,8.3-8.3h0c4.6,0,8.3,3.7,8.3,8.3v0
	C309.9,533.6,306.1,537.3,301.6,537.3z"/>
<path class="st1" d="M143.5,311.5L143.5,311.5c-4.6,0-8.3-3.7-8.3-8.3v0c0-4.6,3.7-8.3,8.3-8.3h0c4.6,0,8.3,3.7,8.3,8.3v0
	C151.8,307.7,148.1,311.5,143.5,311.5z"/>
<path class="st1" d="M166.1,311.5L166.1,311.5c-4.6,0-8.3-3.7-8.3-8.3v0c0-4.6,3.7-8.3,8.3-8.3h0c4.6,0,8.3,3.7,8.3,8.3v0
	C174.4,307.7,170.7,311.5,166.1,311.5z"/>
<path class="st1" d="M188.7,311.5L188.7,311.5c-4.6,0-8.3-3.7-8.3-8.3v0c0-4.6,3.7-8.3,8.3-8.3h0c4.6,0,8.3,3.7,8.3,8.3v0
	C197,307.7,193.2,311.5,188.7,311.5z"/>
<path class="st1" d="M211.3,311.5L211.3,311.5c-4.6,0-8.3-3.7-8.3-8.3v0c0-4.6,3.7-8.3,8.3-8.3h0c4.6,0,8.3,3.7,8.3,8.3v0
	C219.5,307.7,215.8,311.5,211.3,311.5z"/>
<path class="st1" d="M233.8,311.5L233.8,311.5c-4.6,0-8.3-3.7-8.3-8.3v0c0-4.6,3.7-8.3,8.3-8.3h0c4.6,0,8.3,3.7,8.3,8.3v0
	C242.1,307.7,238.4,311.5,233.8,311.5z"/>
<path class="st1" d="M256.4,311.5L256.4,311.5c-4.6,0-8.3-3.7-8.3-8.3v0c0-4.6,3.7-8.3,8.3-8.3l0,0c4.6,0,8.3,3.7,8.3,8.3v0
	C264.7,307.7,261,311.5,256.4,311.5z"/>
<path class="st1" d="M279,311.5L279,311.5c-4.6,0-8.3-3.7-8.3-8.3v0c0-4.6,3.7-8.3,8.3-8.3l0,0c4.6,0,8.3,3.7,8.3,8.3v0
	C287.3,307.7,283.5,311.5,279,311.5z"/>
<path class="st1" d="M301.5,311.5L301.5,311.5c-4.6,0-8.3-3.7-8.3-8.3v0c0-4.6,3.7-8.3,8.3-8.3l0,0c4.6,0,8.3,3.7,8.3,8.3v0
	C309.8,307.7,306.1,311.5,301.5,311.5z"/>
<path class="st1" d="M324.2,176L324.2,176c-4.6,0-8.3-3.7-8.3-8.3v0c0-4.6,3.7-8.3,8.3-8.3l0,0c4.6,0,8.3,3.7,8.3,8.3v0
	C332.4,172.3,328.7,176,324.2,176z"/>
<path class="st1" d="M324.1,221.1L324.1,221.1c-4.6,0-8.3-3.7-8.3-8.3v0c0-4.6,3.7-8.3,8.3-8.3l0,0c4.6,0,8.3,3.7,8.3,8.3v0
	C332.4,217.4,328.7,221.1,324.1,221.1z"/>
<path class="st1" d="M324.1,198.6L324.1,198.6c-4.6,0-8.3-3.7-8.3-8.3v0c0-4.6,3.7-8.3,8.3-8.3l0,0c4.6,0,8.3,3.7,8.3,8.3v0
	C332.4,194.8,328.7,198.6,324.1,198.6z"/>
<path class="st1" d="M324.2,243.7L324.2,243.7c-4.6,0-8.3-3.7-8.3-8.3v0c0-4.6,3.7-8.3,8.3-8.3l0,0c4.6,0,8.3,3.7,8.3,8.3v0
	C332.4,240,328.7,243.7,324.2,243.7z"/>
<path class="st1" d="M324.1,288.8L324.1,288.8c-4.6,0-8.3-3.7-8.3-8.3v0c0-4.6,3.7-8.3,8.3-8.3l0,0c4.6,0,8.3,3.7,8.3,8.3v0
	C332.4,285.1,328.7,288.8,324.1,288.8z"/>
<path class="st1" d="M324.1,266.3L324.1,266.3c-4.6,0-8.3-3.7-8.3-8.3l0,0c0-4.6,3.7-8.3,8.3-8.3l0,0c4.6,0,8.3,3.7,8.3,8.3l0,0
	C332.4,262.5,328.7,266.3,324.1,266.3z"/>
<path class="st1" d="M324.1,311.5L324.1,311.5c-4.6,0-8.3-3.7-8.3-8.3v0c0-4.6,3.7-8.3,8.3-8.3l0,0c4.6,0,8.3,3.7,8.3,8.3v0
	C332.4,307.7,328.7,311.5,324.1,311.5z"/>
<path class="st1" d="M346.7,176L346.7,176c-4.6,0-8.3-3.7-8.3-8.3v0c0-4.6,3.7-8.3,8.3-8.3l0,0c4.6,0,8.3,3.7,8.3,8.3v0
	C355,172.3,351.2,176,346.7,176z"/>
<path class="st1" d="M346.7,221.1L346.7,221.1c-4.6,0-8.3-3.7-8.3-8.3v0c0-4.6,3.7-8.3,8.3-8.3h0c4.6,0,8.3,3.7,8.3,8.3v0
	C354.9,217.4,351.2,221.1,346.7,221.1z"/>
<path class="st1" d="M346.7,198.6L346.7,198.6c-4.6,0-8.3-3.7-8.3-8.3v0c0-4.6,3.7-8.3,8.3-8.3h0c4.6,0,8.3,3.7,8.3,8.3v0
	C354.9,194.8,351.2,198.6,346.7,198.6z"/>
<path class="st1" d="M346.7,243.7L346.7,243.7c-4.6,0-8.3-3.7-8.3-8.3v0c0-4.6,3.7-8.3,8.3-8.3l0,0c4.6,0,8.3,3.7,8.3,8.3v0
	C355,240,351.2,243.7,346.7,243.7z"/>
<path class="st1" d="M346.7,288.8L346.7,288.8c-4.6,0-8.3-3.7-8.3-8.3v0c0-4.6,3.7-8.3,8.3-8.3h0c4.6,0,8.3,3.7,8.3,8.3v0
	C354.9,285.1,351.2,288.8,346.7,288.8z"/>
<path class="st1" d="M346.7,266.3L346.7,266.3c-4.6,0-8.3-3.7-8.3-8.3l0,0c0-4.6,3.7-8.3,8.3-8.3h0c4.6,0,8.3,3.7,8.3,8.3l0,0
	C354.9,262.5,351.2,266.3,346.7,266.3z"/>
<path class="st1" d="M346.7,311.5L346.7,311.5c-4.6,0-8.3-3.7-8.3-8.3v0c0-4.6,3.7-8.3,8.3-8.3h0c4.6,0,8.3,3.7,8.3,8.3v0
	C354.9,307.7,351.2,311.5,346.7,311.5z"/>
<path class="st1" d="M369.3,176L369.3,176c-4.6,0-8.3-3.7-8.3-8.3v0c0-4.6,3.7-8.3,8.3-8.3l0,0c4.6,0,8.3,3.7,8.3,8.3v0
	C377.5,172.3,373.8,176,369.3,176z"/>
<path class="st1" d="M369.2,221.1L369.2,221.1c-4.6,0-8.3-3.7-8.3-8.3v0c0-4.6,3.7-8.3,8.3-8.3h0c4.6,0,8.3,3.7,8.3,8.3v0
	C377.5,217.4,373.8,221.1,369.2,221.1z"/>
<path class="st1" d="M369.2,198.6L369.2,198.6c-4.6,0-8.3-3.7-8.3-8.3v0c0-4.6,3.7-8.3,8.3-8.3h0c4.6,0,8.3,3.7,8.3,8.3v0
	C377.5,194.8,373.8,198.6,369.2,198.6z"/>
<path class="st1" d="M369.3,243.7L369.3,243.7c-4.6,0-8.3-3.7-8.3-8.3v0c0-4.6,3.7-8.3,8.3-8.3l0,0c4.6,0,8.3,3.7,8.3,8.3v0
	C377.5,240,373.8,243.7,369.3,243.7z"/>
<path class="st1" d="M391.9,176L391.9,176c-4.6,0-8.3-3.7-8.3-8.3v0c0-4.6,3.7-8.3,8.3-8.3h0c4.6,0,8.3,3.7,8.3,8.3v0
	C400.2,172.3,396.5,176,391.9,176z"/>
<path class="st1" d="M391.9,221.1L391.9,221.1c-4.6,0-8.3-3.7-8.3-8.3v0c0-4.6,3.7-8.3,8.3-8.3l0,0c4.6,0,8.3,3.7,8.3,8.3v0
	C400.2,217.4,396.5,221.1,391.9,221.1z"/>
<path class="st1" d="M391.9,198.6L391.9,198.6c-4.6,0-8.3-3.7-8.3-8.3v0c0-4.6,3.7-8.3,8.3-8.3l0,0c4.6,0,8.3,3.7,8.3,8.3v0
	C400.2,194.8,396.5,198.6,391.9,198.6z"/>
<path class="st1" d="M391.9,243.7L391.9,243.7c-4.6,0-8.3-3.7-8.3-8.3v0c0-4.6,3.7-8.3,8.3-8.3h0c4.6,0,8.3,3.7,8.3,8.3v0
	C400.2,240,396.5,243.7,391.9,243.7z"/>
<path class="st1" d="M391.9,492L391.9,492c-4.6,0-8.3-3.7-8.3-8.3v0c0-4.6,3.7-8.3,8.3-8.3l0,0c4.6,0,8.3,3.7,8.3,8.3v0
	C400.2,488.3,396.5,492,391.9,492z"/>
<path class="st1" d="M391.9,469.4L391.9,469.4c-4.6,0-8.3-3.7-8.3-8.3v0c0-4.6,3.7-8.3,8.3-8.3l0,0c4.6,0,8.3,3.7,8.3,8.3v0
	C400.2,465.7,396.5,469.4,391.9,469.4z"/>
<path class="st1" d="M391.9,514.6L391.9,514.6c-4.6,0-8.3-3.7-8.3-8.3l0,0c0-4.6,3.7-8.3,8.3-8.3l0,0c4.6,0,8.3,3.7,8.3,8.3l0,0
	C400.2,510.9,396.5,514.6,391.9,514.6z"/>
<path class="st1" d="M391.9,537.3L391.9,537.3c-4.6,0-8.3-3.7-8.3-8.3l0,0c0-4.6,3.7-8.3,8.3-8.3h0c4.6,0,8.3,3.7,8.3,8.3l0,0
	C400.2,533.6,396.5,537.3,391.9,537.3z"/>
<path class="st1" d="M414.4,108.3L414.4,108.3c-4.6,0-8.3-3.7-8.3-8.3v0c0-4.6,3.7-8.3,8.3-8.3l0,0c4.6,0,8.3,3.7,8.3,8.3v0
	C422.7,104.6,418.9,108.3,414.4,108.3z"/>
<path class="st1" d="M437,108.3L437,108.3c-4.6,0-8.3-3.7-8.3-8.3v0c0-4.6,3.7-8.3,8.3-8.3l0,0c4.6,0,8.3,3.7,8.3,8.3v0
	C445.2,104.6,441.5,108.3,437,108.3z"/>
<path class="st1" d="M414.4,85.7L414.4,85.7c-4.6,0-8.3-3.7-8.3-8.3v0c0-4.6,3.7-8.3,8.3-8.3l0,0c4.6,0,8.3,3.7,8.3,8.3v0
	C422.7,82,418.9,85.7,414.4,85.7z"/>
<path class="st1" d="M437,85.7L437,85.7c-4.6,0-8.3-3.7-8.3-8.3v0c0-4.6,3.7-8.3,8.3-8.3l0,0c4.6,0,8.3,3.7,8.3,8.3v0
	C445.2,82,441.5,85.7,437,85.7z"/>
<path class="st1" d="M53.2,63.1L53.2,63.1c-4.6,0-8.3-3.7-8.3-8.3v0c0-4.6,3.7-8.3,8.3-8.3h0c4.6,0,8.3,3.7,8.3,8.3v0
	C61.5,59.4,57.8,63.1,53.2,63.1z"/>
<path class="st1" d="M75.8,63.1L75.8,63.1c-4.6,0-8.3-3.7-8.3-8.3v0c0-4.6,3.7-8.3,8.3-8.3h0c4.6,0,8.3,3.7,8.3,8.3v0
	C84.1,59.4,80.4,63.1,75.8,63.1z"/>
<path class="st1" d="M98.4,63.1L98.4,63.1c-4.6,0-8.3-3.7-8.3-8.3v0c0-4.6,3.7-8.3,8.3-8.3h0c4.6,0,8.3,3.7,8.3,8.3v0
	C106.7,59.4,102.9,63.1,98.4,63.1z"/>
<path class="st1" d="M121,63.1L121,63.1c-4.6,0-8.3-3.7-8.3-8.3v0c0-4.6,3.7-8.3,8.3-8.3h0c4.6,0,8.3,3.7,8.3,8.3v0
	C129.2,59.4,125.5,63.1,121,63.1z"/>
<path class="st1" d="M30.9,108.3L30.9,108.3c-4.6,0-8.3-3.7-8.3-8.3v0c0-4.6,3.7-8.3,8.3-8.3h0c4.6,0,8.3,3.7,8.3,8.3v0
	C39.1,104.6,35.4,108.3,30.9,108.3z"/>
<path class="st1" d="M8.3,85.7L8.3,85.7C3.7,85.7,0,82,0,77.4v0c0-4.6,3.7-8.3,8.3-8.3h0c4.6,0,8.3,3.7,8.3,8.3v0
	C16.6,82,12.8,85.7,8.3,85.7z"/>
<path class="st1" d="M30.9,85.7L30.9,85.7c-4.6,0-8.3-3.7-8.3-8.3v0c0-4.6,3.7-8.3,8.3-8.3h0c4.6,0,8.3,3.7,8.3,8.3v0
	C39.1,82,35.4,85.7,30.9,85.7z"/>
<path class="st1" d="M30.9,130.9L30.9,130.9c-4.6,0-8.3-3.7-8.3-8.3v0c0-4.6,3.7-8.3,8.3-8.3h0c4.6,0,8.3,3.7,8.3,8.3v0
	C39.2,127.1,35.4,130.9,30.9,130.9z"/>
<path class="st1" d="M8.3,63.1L8.3,63.1c-4.6,0-8.3-3.7-8.3-8.3v0c0-4.6,3.7-8.3,8.3-8.3h0c4.6,0,8.3,3.7,8.3,8.3v0
	C16.6,59.4,12.8,63.1,8.3,63.1z"/>
<path class="st1" d="M30.9,63.1L30.9,63.1c-4.6,0-8.3-3.7-8.3-8.3v0c0-4.6,3.7-8.3,8.3-8.3h0c4.6,0,8.3,3.7,8.3,8.3v0
	C39.1,59.4,35.4,63.1,30.9,63.1z"/>
<path class="st1" d="M143.5,63.1L143.5,63.1c-4.6,0-8.3-3.7-8.3-8.3v0c0-4.6,3.7-8.3,8.3-8.3h0c4.6,0,8.3,3.7,8.3,8.3v0
	C151.8,59.4,148.1,63.1,143.5,63.1z"/>
<path class="st1" d="M166.1,63.1L166.1,63.1c-4.6,0-8.3-3.7-8.3-8.3v0c0-4.6,3.7-8.3,8.3-8.3h0c4.6,0,8.3,3.7,8.3,8.3v0
	C174.4,59.4,170.7,63.1,166.1,63.1z"/>
<path class="st1" d="M188.7,63.1L188.7,63.1c-4.6,0-8.3-3.7-8.3-8.3v0c0-4.6,3.7-8.3,8.3-8.3h0c4.6,0,8.3,3.7,8.3,8.3v0
	C196.9,59.4,193.2,63.1,188.7,63.1z"/>
<path class="st1" d="M211.2,63.1L211.2,63.1c-4.6,0-8.3-3.7-8.3-8.3v0c0-4.6,3.7-8.3,8.3-8.3h0c4.6,0,8.3,3.7,8.3,8.3v0
	C219.5,59.4,215.8,63.1,211.2,63.1z"/>
<path class="st1" d="M233.8,63.1L233.8,63.1c-4.6,0-8.3-3.7-8.3-8.3v0c0-4.6,3.7-8.3,8.3-8.3h0c4.6,0,8.3,3.7,8.3,8.3v0
	C242.1,59.4,238.4,63.1,233.8,63.1z"/>
<path class="st1" d="M256.4,63.1L256.4,63.1c-4.6,0-8.3-3.7-8.3-8.3v0c0-4.6,3.7-8.3,8.3-8.3h0c4.6,0,8.3,3.7,8.3,8.3v0
	C264.7,59.4,260.9,63.1,256.4,63.1z"/>
<path class="st1" d="M278.9,63.1L278.9,63.1c-4.6,0-8.3-3.7-8.3-8.3v0c0-4.6,3.7-8.3,8.3-8.3l0,0c4.6,0,8.3,3.7,8.3,8.3v0
	C287.2,59.4,283.5,63.1,278.9,63.1z"/>
<path class="st1" d="M301.5,63.1L301.5,63.1c-4.6,0-8.3-3.7-8.3-8.3v0c0-4.6,3.7-8.3,8.3-8.3l0,0c4.6,0,8.3,3.7,8.3,8.3v0
	C309.8,59.4,306.1,63.1,301.5,63.1z"/>
<path class="st1" d="M324.1,63.1L324.1,63.1c-4.6,0-8.3-3.7-8.3-8.3v0c0-4.6,3.7-8.3,8.3-8.3h0c4.6,0,8.3,3.7,8.3,8.3v0
	C332.4,59.4,328.6,63.1,324.1,63.1z"/>
<path class="st1" d="M346.7,63.1L346.7,63.1c-4.6,0-8.3-3.7-8.3-8.3v0c0-4.6,3.7-8.3,8.3-8.3h0c4.6,0,8.3,3.7,8.3,8.3v0
	C354.9,59.4,351.2,63.1,346.7,63.1z"/>
<path class="st1" d="M369.2,63.1L369.2,63.1c-4.6,0-8.3-3.7-8.3-8.3v0c0-4.6,3.7-8.3,8.3-8.3l0,0c4.6,0,8.3,3.7,8.3,8.3v0
	C377.5,59.4,373.8,63.1,369.2,63.1z"/>
<path class="st1" d="M391.8,63.1L391.8,63.1c-4.6,0-8.3-3.7-8.3-8.3v0c0-4.6,3.7-8.3,8.3-8.3l0,0c4.6,0,8.3,3.7,8.3,8.3v0
	C400.1,59.4,396.4,63.1,391.8,63.1z"/>
<path class="st1" d="M414.4,63.1L414.4,63.1c-4.6,0-8.3-3.7-8.3-8.3v0c0-4.6,3.7-8.3,8.3-8.3l0,0c4.6,0,8.3,3.7,8.3,8.3v0
	C422.7,59.4,418.9,63.1,414.4,63.1z"/>
<path class="st1" d="M437,63.1L437,63.1c-4.6,0-8.3-3.7-8.3-8.3v0c0-4.6,3.7-8.3,8.3-8.3l0,0c4.6,0,8.3,3.7,8.3,8.3v0
	C445.2,59.4,441.5,63.1,437,63.1z"/>
<path class="st1" d="M414.4,153.4L414.4,153.4c-4.6,0-8.3-3.7-8.3-8.3v0c0-4.6,3.7-8.3,8.3-8.3h0c4.6,0,8.3,3.7,8.3,8.3v0
	C422.7,149.7,419,153.4,414.4,153.4z"/>
<path class="st1" d="M437,153.4L437,153.4c-4.6,0-8.3-3.7-8.3-8.3v0c0-4.6,3.7-8.3,8.3-8.3h0c4.6,0,8.3,3.7,8.3,8.3v0
	C445.3,149.7,441.5,153.4,437,153.4z"/>
<path class="st1" d="M369.3,334L369.3,334c-4.6,0-8.3-3.7-8.3-8.3l0,0c0-4.6,3.7-8.3,8.3-8.3l0,0c4.6,0,8.3,3.7,8.3,8.3l0,0
	C377.6,330.3,373.8,334,369.3,334z"/>
<path class="st1" d="M391.8,334L391.8,334c-4.6,0-8.3-3.7-8.3-8.3l0,0c0-4.6,3.7-8.3,8.3-8.3l0,0c4.6,0,8.3,3.7,8.3,8.3l0,0
	C400.1,330.3,396.4,334,391.8,334z"/>
<path class="st1" d="M369.3,356.6L369.3,356.6c-4.6,0-8.3-3.7-8.3-8.3v0c0-4.6,3.7-8.3,8.3-8.3l0,0c4.6,0,8.3,3.7,8.3,8.3v0
	C377.6,352.9,373.8,356.6,369.3,356.6z"/>
<path class="st1" d="M391.8,356.6L391.8,356.6c-4.6,0-8.3-3.7-8.3-8.3v0c0-4.6,3.7-8.3,8.3-8.3l0,0c4.6,0,8.3,3.7,8.3,8.3v0
	C400.1,352.9,396.4,356.6,391.8,356.6z"/>
<path class="st1" d="M369.3,379.2L369.3,379.2c-4.6,0-8.3-3.7-8.3-8.3l0,0c0-4.6,3.7-8.3,8.3-8.3l0,0c4.6,0,8.3,3.7,8.3,8.3l0,0
	C377.6,375.5,373.8,379.2,369.3,379.2z"/>
<path class="st1" d="M391.8,379.2L391.8,379.2c-4.6,0-8.3-3.7-8.3-8.3l0,0c0-4.6,3.7-8.3,8.3-8.3l0,0c4.6,0,8.3,3.7,8.3,8.3l0,0
	C400.1,375.5,396.4,379.2,391.8,379.2z"/>
<path class="st1" d="M369.3,401.8L369.3,401.8c-4.6,0-8.3-3.7-8.3-8.3v0c0-4.6,3.7-8.3,8.3-8.3l0,0c4.6,0,8.3,3.7,8.3,8.3v0
	C377.6,398,373.8,401.8,369.3,401.8z"/>
<path class="st1" d="M391.8,401.8L391.8,401.8c-4.6,0-8.3-3.7-8.3-8.3v0c0-4.6,3.7-8.3,8.3-8.3l0,0c4.6,0,8.3,3.7,8.3,8.3v0
	C400.1,398,396.4,401.8,391.8,401.8z"/>
<path class="st1" d="M369.3,424.4L369.3,424.4c-4.6,0-8.3-3.7-8.3-8.3l0,0c0-4.6,3.7-8.3,8.3-8.3l0,0c4.6,0,8.3,3.7,8.3,8.3l0,0
	C377.6,420.7,373.8,424.4,369.3,424.4z"/>
<path class="st1" d="M391.8,424.4L391.8,424.4c-4.6,0-8.3-3.7-8.3-8.3l0,0c0-4.6,3.7-8.3,8.3-8.3l0,0c4.6,0,8.3,3.7,8.3,8.3l0,0
	C400.1,420.7,396.4,424.4,391.8,424.4z"/>
<path class="st1" d="M414.4,447L414.4,447c-4.6,0-8.3-3.7-8.3-8.3l0,0c0-4.6,3.7-8.3,8.3-8.3h0c4.6,0,8.3,3.7,8.3,8.3l0,0
	C422.7,443.2,419,447,414.4,447z"/>
<path class="st1" d="M437,447L437,447c-4.6,0-8.3-3.7-8.3-8.3l0,0c0-4.6,3.7-8.3,8.3-8.3h0c4.6,0,8.3,3.7,8.3,8.3l0,0
	C445.3,443.2,441.5,447,437,447z"/>
<path class="st1" d="M414.4,469.6L414.4,469.6c-4.6,0-8.3-3.7-8.3-8.3v0c0-4.6,3.7-8.3,8.3-8.3l0,0c4.6,0,8.3,3.7,8.3,8.3v0
	C422.7,465.9,419,469.6,414.4,469.6z"/>
<path class="st1" d="M414.4,492.2L414.4,492.2c-4.6,0-8.3-3.7-8.3-8.3v0c0-4.6,3.7-8.3,8.3-8.3l0,0c4.6,0,8.3,3.7,8.3,8.3v0
	C422.7,488.4,419,492.2,414.4,492.2z"/>
<path class="st1" d="M414.4,514.8L414.4,514.8c-4.6,0-8.3-3.7-8.3-8.3v0c0-4.6,3.7-8.3,8.3-8.3l0,0c4.6,0,8.3,3.7,8.3,8.3v0
	C422.7,511.1,419,514.8,414.4,514.8z"/>
<path class="st1" d="M414.4,537.3L414.4,537.3c-4.6,0-8.3-3.7-8.3-8.3l0,0c0-4.6,3.7-8.3,8.3-8.3l0,0c4.6,0,8.3,3.7,8.3,8.3l0,0
	C422.7,533.6,419,537.3,414.4,537.3z"/>
<path class="st1" d="M414.4,130.9L414.4,130.9c-4.6,0-8.3-3.7-8.3-8.3v0c0-4.6,3.7-8.3,8.3-8.3h0c4.6,0,8.3,3.7,8.3,8.3v0
	C422.7,127.1,419,130.9,414.4,130.9z"/>
<path class="st1" d="M437,130.9L437,130.9c-4.6,0-8.3-3.7-8.3-8.3v0c0-4.6,3.7-8.3,8.3-8.3h0c4.6,0,8.3,3.7,8.3,8.3v0
	C445.3,127.1,441.5,130.9,437,130.9z"/>
<path class="st1" d="M369.3,288.8L369.3,288.8c-4.6,0-8.3-3.7-8.3-8.3v0c0-4.6,3.7-8.3,8.3-8.3l0,0c4.6,0,8.3,3.7,8.3,8.3v0
	C377.6,285.1,373.9,288.8,369.3,288.8z"/>
<path class="st1" d="M369.3,266.3L369.3,266.3c-4.6,0-8.3-3.7-8.3-8.3l0,0c0-4.6,3.7-8.3,8.3-8.3l0,0c4.6,0,8.3,3.7,8.3,8.3l0,0
	C377.6,262.5,373.9,266.3,369.3,266.3z"/>
<path class="st1" d="M369.3,311.5L369.3,311.5c-4.6,0-8.3-3.7-8.3-8.3v0c0-4.6,3.7-8.3,8.3-8.3l0,0c4.6,0,8.3,3.7,8.3,8.3v0
	C377.6,307.7,373.9,311.5,369.3,311.5z"/>
<path class="st1" d="M391.8,288.8L391.8,288.8c-4.6,0-8.3-3.7-8.3-8.3v0c0-4.6,3.7-8.3,8.3-8.3h0c4.6,0,8.3,3.7,8.3,8.3v0
	C400.1,285.1,396.4,288.8,391.8,288.8z"/>
<path class="st1" d="M391.8,266.3L391.8,266.3c-4.6,0-8.3-3.7-8.3-8.3l0,0c0-4.6,3.7-8.3,8.3-8.3h0c4.6,0,8.3,3.7,8.3,8.3l0,0
	C400.1,262.5,396.4,266.3,391.8,266.3z"/>
<path class="st1" d="M391.8,311.5L391.8,311.5c-4.6,0-8.3-3.7-8.3-8.3v0c0-4.6,3.7-8.3,8.3-8.3h0c4.6,0,8.3,3.7,8.3,8.3v0
	C400.1,307.7,396.4,311.5,391.8,311.5z"/>
<path class="st1" d="M414.4,176L414.4,176c-4.6,0-8.3-3.7-8.3-8.3v0c0-4.6,3.7-8.3,8.3-8.3l0,0c4.6,0,8.3,3.7,8.3,8.3v0
	C422.7,172.3,419,176,414.4,176z"/>
<path class="st1" d="M414.4,221.1L414.4,221.1c-4.6,0-8.3-3.7-8.3-8.3v0c0-4.6,3.7-8.3,8.3-8.3h0c4.6,0,8.3,3.7,8.3,8.3v0
	C422.7,217.4,419,221.1,414.4,221.1z"/>
<path class="st1" d="M414.4,198.6L414.4,198.6c-4.6,0-8.3-3.7-8.3-8.3v0c0-4.6,3.7-8.3,8.3-8.3h0c4.6,0,8.3,3.7,8.3,8.3v0
	C422.7,194.8,419,198.6,414.4,198.6z"/>
<path class="st1" d="M437.1,176L437.1,176c-4.6,0-8.3-3.7-8.3-8.3v0c0-4.6,3.7-8.3,8.3-8.3h0c4.6,0,8.3,3.7,8.3,8.3v0
	C445.4,172.3,441.7,176,437.1,176z"/>
<path class="st1" d="M437.1,221.1L437.1,221.1c-4.6,0-8.3-3.7-8.3-8.3v0c0-4.6,3.7-8.3,8.3-8.3l0,0c4.6,0,8.3,3.7,8.3,8.3v0
	C445.4,217.4,441.6,221.1,437.1,221.1z"/>
<path class="st1" d="M437.1,198.6L437.1,198.6c-4.6,0-8.3-3.7-8.3-8.3v0c0-4.6,3.7-8.3,8.3-8.3l0,0c4.6,0,8.3,3.7,8.3,8.3v0
	C445.4,194.8,441.6,198.6,437.1,198.6z"/>
<path class="st1" d="M437.1,492L437.1,492c-4.6,0-8.3-3.7-8.3-8.3v0c0-4.6,3.7-8.3,8.3-8.3l0,0c4.6,0,8.3,3.7,8.3,8.3v0
	C445.4,488.3,441.6,492,437.1,492z"/>
<path class="st1" d="M437.1,469.4L437.1,469.4c-4.6,0-8.3-3.7-8.3-8.3v0c0-4.6,3.7-8.3,8.3-8.3l0,0c4.6,0,8.3,3.7,8.3,8.3v0
	C445.4,465.7,441.6,469.4,437.1,469.4z"/>
<path class="st1" d="M437.1,514.6L437.1,514.6c-4.6,0-8.3-3.7-8.3-8.3l0,0c0-4.6,3.7-8.3,8.3-8.3l0,0c4.6,0,8.3,3.7,8.3,8.3l0,0
	C445.4,510.9,441.6,514.6,437.1,514.6z"/>
<path class="st1" d="M437.1,537.3L437.1,537.3c-4.6,0-8.3-3.7-8.3-8.3l0,0c0-4.6,3.7-8.3,8.3-8.3h0c4.6,0,8.3,3.7,8.3,8.3l0,0
	C445.4,533.6,441.7,537.3,437.1,537.3z"/>
<g>
	<text transform="matrix(1 0 0 1 28.6043 102.2578)" class="st2 st3 st4">1</text>
	<text transform="matrix(1 0 0 1 50.6658 102.2578)" class="st2 st3 st4">2</text>
	<text transform="matrix(1 0 0 1 73.24 102.2578)" class="st2 st3 st4">3</text>
	<text transform="matrix(1 0 0 1 95.7547 102.2578)" class="st2 st3 st4">4</text>
	<text transform="matrix(1 0 0 1 118.4285 102.2578)" class="st2 st3 st4">5</text>
	<text transform="matrix(1 0 0 1 140.7508 102.2578)" class="st2 st3 st4">6</text>
	<text transform="matrix(1 0 0 1 163.7771 102.2578)" class="st2 st3 st4">7</text>
	<text transform="matrix(1 0 0 1 185.9676 102.2578)" class="st2 st3 st4">8</text>
	<text transform="matrix(1 0 0 1 208.4617 102.2578)" class="st2 st3 st4">9</text>
	<text transform="matrix(1 0 0 1 229.1111 102.2578)" class="st2 st3 st4">10</text>
	<text transform="matrix(1 0 0 1 252.5935 102.2578)" class="st2 st3 st4">11</text>
	<text transform="matrix(1 0 0 1 274.656 102.2578)" class="st2 st3 st4">12</text>
	<text transform="matrix(1 0 0 1 297.2293 102.2578)" class="st2 st3 st4">13</text>
	<text transform="matrix(1 0 0 1 319.743 102.2578)" class="st2 st3 st4">14</text>
	<text transform="matrix(1 0 0 1 342.4178 102.2578)" class="st2 st3 st4">15</text>
	<text transform="matrix(1 0 0 1 364.74 102.2578)" class="st2 st3 st4">16</text>
	<text transform="matrix(1 0 0 1 6.0193 57.5313)" class="st2 st3 st4">1</text>
	<text transform="matrix(1 0 0 1 28.0808 57.5313)" class="st2 st3 st4">2</text>
	<text transform="matrix(1 0 0 1 50.6551 57.5313)" class="st2 st3 st4">3</text>
	<text transform="matrix(1 0 0 1 73.1697 57.5313)" class="st2 st3 st4">4</text>
	<text transform="matrix(1 0 0 1 95.8435 57.5313)" class="st2 st3 st4">5</text>
	<text transform="matrix(1 0 0 1 118.1658 57.5313)" class="st2 st3 st4">6</text>
	<text transform="matrix(1 0 0 1 141.1922 57.5313)" class="st2 st3 st4">7</text>
	<text transform="matrix(1 0 0 1 163.3826 57.5313)" class="st2 st3 st4">8</text>
	<text transform="matrix(1 0 0 1 185.8767 57.5313)" class="st2 st3 st4">9</text>
	<text transform="matrix(1 0 0 1 206.5262 57.5313)" class="st2 st3 st4">10</text>
	<text transform="matrix(1 0 0 1 230.0086 57.5313)" class="st2 st3 st4">11</text>
	<text transform="matrix(1 0 0 1 252.0711 57.5313)" class="st2 st3 st4">12</text>
	<text transform="matrix(1 0 0 1 274.6443 57.5313)" class="st2 st3 st4">13</text>
	<text transform="matrix(1 0 0 1 297.158 57.5313)" class="st2 st3 st4">14</text>
	<text transform="matrix(1 0 0 1 319.8328 57.5313)" class="st2 st3 st4">15</text>
	<text transform="matrix(1 0 0 1 342.1551 57.5313)" class="st2 st3 st4">16</text>
	<text transform="matrix(1 0 0 1 140.199 10.2197)" class="st2 st3 st4">1</text>
	<text transform="matrix(1 0 0 1 162.2605 10.2197)" class="st2 st3 st4">2</text>
	<text transform="matrix(1 0 0 1 184.8347 10.2197)" class="st2 st3 st4">3</text>
	<text transform="matrix(1 0 0 1 207.3494 10.2197)" class="st2 st3 st4">4</text>
	<text transform="matrix(1 0 0 1 230.0232 10.2197)" class="st2 st3 st4">5</text>
	<text transform="matrix(1 0 0 1 252.3455 10.2197)" class="st2 st3 st4">6</text>
	<text transform="matrix(1 0 0 1 275.3719 10.2197)" class="st2 st3 st4">7</text>
	<text transform="matrix(1 0 0 1 297.5623 10.2197)" class="st2 st3 st4">8</text>
	<text transform="matrix(1 0 0 1 320.0564 10.2197)" class="st2 st3 st4">9</text>
	<text transform="matrix(1 0 0 1 340.7058 10.2197)" class="st2 st3 st4">10</text>
	<text transform="matrix(1 0 0 1 364.1883 10.2197)" class="st2 st3 st4">11</text>
	<text transform="matrix(1 0 0 1 386.2508 10.2197)" class="st2 st3 st4">12</text>
	<text transform="matrix(1 0 0 1 408.824 10.2197)" class="st2 st3 st4">13</text>
	<text transform="matrix(1 0 0 1 431.3377 10.2197)" class="st2 st3 st4">14</text>
	<text transform="matrix(1 0 0 1 365.0965 57.5313)" class="st2 st3 st4">17</text>
	<text transform="matrix(1 0 0 1 387.3982 57.5313)" class="st2 st3 st4">18</text>
	<text transform="matrix(1 0 0 1 409.9217 57.5313)" class="st2 st3 st4">19</text>
	<text transform="matrix(1 0 0 1 431.9109 57.5313)" class="st2 st3 st4">20</text>
	<text transform="matrix(1 0 0 1 6.0193 79.7764)" class="st2 st3 st4">1</text>
	<text transform="matrix(1 0 0 1 28.0808 79.7764)" class="st2 st3 st4">2</text>
	<text transform="matrix(1 0 0 1 50.6551 79.7764)" class="st2 st3 st4">3</text>
	<text transform="matrix(1 0 0 1 73.1697 79.7764)" class="st2 st3 st4">4</text>
	<text transform="matrix(1 0 0 1 95.8435 79.7764)" class="st2 st3 st4">5</text>
	<text transform="matrix(1 0 0 1 118.1658 79.7764)" class="st2 st3 st4">6</text>
	<text transform="matrix(1 0 0 1 141.1922 79.7764)" class="st2 st3 st4">7</text>
	<text transform="matrix(1 0 0 1 163.3826 79.7764)" class="st2 st3 st4">8</text>
	<text transform="matrix(1 0 0 1 185.8767 79.7764)" class="st2 st3 st4">9</text>
	<text transform="matrix(1 0 0 1 206.5262 79.7764)" class="st2 st3 st4">10</text>
	<text transform="matrix(1 0 0 1 230.0086 79.7764)" class="st2 st3 st4">11</text>
	<text transform="matrix(1 0 0 1 252.0711 79.7764)" class="st2 st3 st4">12</text>
	<text transform="matrix(1 0 0 1 274.6443 79.7764)" class="st2 st3 st4">13</text>
	<text transform="matrix(1 0 0 1 297.158 79.7764)" class="st2 st3 st4">14</text>
	<text transform="matrix(1 0 0 1 319.8328 79.7764)" class="st2 st3 st4">15</text>
	<text transform="matrix(1 0 0 1 342.1551 79.7764)" class="st2 st3 st4">16</text>
	<text transform="matrix(1 0 0 1 365.0965 79.7764)" class="st2 st3 st4">17</text>
	<text transform="matrix(1 0 0 1 387.3982 79.7764)" class="st2 st3 st4">18</text>
	<text transform="matrix(1 0 0 1 409.9217 79.7764)" class="st2 st3 st4">19</text>
	<text transform="matrix(1 0 0 1 431.9109 79.7764)" class="st2 st3 st4">20</text>
	<text transform="matrix(1 0 0 1 432.5052 102.2578)" class="st2 st3 st4">19</text>
	<text transform="matrix(1 0 0 1 387.6814 102.2578)" class="st2 st3 st4">17</text>
	<text transform="matrix(1 0 0 1 409.9832 102.2578)" class="st2 st3 st4">18</text>
	<text transform="matrix(1 0 0 1 28.6043 125.3213)" class="st2 st3 st4">1</text>
	<text transform="matrix(1 0 0 1 50.6658 125.3213)" class="st2 st3 st4">2</text>
	<text transform="matrix(1 0 0 1 73.24 125.3213)" class="st2 st3 st4">3</text>
	<text transform="matrix(1 0 0 1 95.7547 125.3213)" class="st2 st3 st4">4</text>
	<text transform="matrix(1 0 0 1 118.4285 125.3213)" class="st2 st3 st4">5</text>
	<text transform="matrix(1 0 0 1 140.7508 125.3213)" class="st2 st3 st4">6</text>
	<text transform="matrix(1 0 0 1 163.7771 125.3213)" class="st2 st3 st4">7</text>
	<text transform="matrix(1 0 0 1 185.9676 125.3213)" class="st2 st3 st4">8</text>
	<text transform="matrix(1 0 0 1 208.4617 125.3213)" class="st2 st3 st4">9</text>
	<text transform="matrix(1 0 0 1 229.1111 125.3213)" class="st2 st3 st4">10</text>
	<text transform="matrix(1 0 0 1 252.5935 125.3213)" class="st2 st3 st4">11</text>
	<text transform="matrix(1 0 0 1 274.656 125.3213)" class="st2 st3 st4">12</text>
	<text transform="matrix(1 0 0 1 297.2293 125.3213)" class="st2 st3 st4">13</text>
	<text transform="matrix(1 0 0 1 319.743 125.3213)" class="st2 st3 st4">14</text>
	<text transform="matrix(1 0 0 1 342.4178 125.3213)" class="st2 st3 st4">15</text>
	<text transform="matrix(1 0 0 1 364.74 125.3213)" class="st2 st3 st4">16</text>
	<text transform="matrix(1 0 0 1 432.5052 125.3213)" class="st2 st3 st4">19</text>
	<text transform="matrix(1 0 0 1 387.6814 125.3213)" class="st2 st3 st4">17</text>
	<text transform="matrix(1 0 0 1 409.9832 125.3213)" class="st2 st3 st4">18</text>
	<text transform="matrix(1 0 0 1 410.1077 147.7744)" class="st2 st3 st4">17</text>
	<text transform="matrix(1 0 0 1 432.4095 147.7744)" class="st2 st3 st4">18</text>
	<text transform="matrix(1 0 0 1 51.0569 147.4004)" class="st2 st3 st4">1</text>
	<text transform="matrix(1 0 0 1 73.1194 147.4004)" class="st2 st3 st4">2</text>
	<text transform="matrix(1 0 0 1 95.6936 147.4004)" class="st2 st3 st4">3</text>
	<text transform="matrix(1 0 0 1 118.2083 147.4004)" class="st2 st3 st4">4</text>
	<text transform="matrix(1 0 0 1 140.8811 147.4004)" class="st2 st3 st4">5</text>
	<text transform="matrix(1 0 0 1 163.2034 147.4004)" class="st2 st3 st4">6</text>
	<text transform="matrix(1 0 0 1 186.2298 147.4004)" class="st2 st3 st4">7</text>
	<text transform="matrix(1 0 0 1 208.4202 147.4004)" class="st2 st3 st4">8</text>
	<text transform="matrix(1 0 0 1 230.9134 147.4004)" class="st2 st3 st4">9</text>
	<text transform="matrix(1 0 0 1 251.5638 147.4004)" class="st2 st3 st4">10</text>
	<text transform="matrix(1 0 0 1 275.0462 147.4004)" class="st2 st3 st4">11</text>
	<text transform="matrix(1 0 0 1 297.1087 147.4004)" class="st2 st3 st4">12</text>
	<text transform="matrix(1 0 0 1 319.6829 147.4004)" class="st2 st3 st4">13</text>
	<text transform="matrix(1 0 0 1 342.1966 147.4004)" class="st2 st3 st4">14</text>
	<text transform="matrix(1 0 0 1 364.8704 147.4004)" class="st2 st3 st4">15</text>
	<text transform="matrix(1 0 0 1 387.1927 147.4004)" class="st2 st3 st4">16</text>
	<text transform="matrix(1 0 0 1 410.1077 170.5332)" class="st2 st3 st4">17</text>
	<text transform="matrix(1 0 0 1 432.4095 170.5332)" class="st2 st3 st4">18</text>
	<text transform="matrix(1 0 0 1 51.0569 170.1592)" class="st2 st3 st4">1</text>
	<text transform="matrix(1 0 0 1 73.1194 170.1592)" class="st2 st3 st4">2</text>
	<text transform="matrix(1 0 0 1 95.6936 170.1592)" class="st2 st3 st4">3</text>
	<text transform="matrix(1 0 0 1 118.2083 170.1592)" class="st2 st3 st4">4</text>
	<text transform="matrix(1 0 0 1 140.8811 170.1592)" class="st2 st3 st4">5</text>
	<text transform="matrix(1 0 0 1 163.2034 170.1592)" class="st2 st3 st4">6</text>
	<text transform="matrix(1 0 0 1 186.2298 170.1592)" class="st2 st3 st4">7</text>
	<text transform="matrix(1 0 0 1 208.4202 170.1592)" class="st2 st3 st4">8</text>
	<text transform="matrix(1 0 0 1 230.9134 170.1592)" class="st2 st3 st4">9</text>
	<text transform="matrix(1 0 0 1 251.5638 170.1592)" class="st2 st3 st4">10</text>
	<text transform="matrix(1 0 0 1 275.0462 170.1592)" class="st2 st3 st4">11</text>
	<text transform="matrix(1 0 0 1 297.1087 170.1592)" class="st2 st3 st4">12</text>
	<text transform="matrix(1 0 0 1 319.6829 170.1592)" class="st2 st3 st4">13</text>
	<text transform="matrix(1 0 0 1 342.1966 170.1592)" class="st2 st3 st4">14</text>
	<text transform="matrix(1 0 0 1 364.8704 170.1592)" class="st2 st3 st4">15</text>
	<text transform="matrix(1 0 0 1 387.1927 170.1592)" class="st2 st3 st4">16</text>
	<text transform="matrix(1 0 0 1 432.6077 193.1504)" class="st2 st3 st4">17</text>
	<text transform="matrix(1 0 0 1 73.5569 192.7764)" class="st2 st3 st4">1</text>
	<text transform="matrix(1 0 0 1 95.6194 192.7764)" class="st2 st3 st4">2</text>
	<text transform="matrix(1 0 0 1 118.1936 192.7764)" class="st2 st3 st4">3</text>
	<text transform="matrix(1 0 0 1 140.7083 192.7764)" class="st2 st3 st4">4</text>
	<text transform="matrix(1 0 0 1 163.3811 192.7764)" class="st2 st3 st4">5</text>
	<text transform="matrix(1 0 0 1 185.7034 192.7764)" class="st2 st3 st4">6</text>
	<text transform="matrix(1 0 0 1 208.7298 192.7764)" class="st2 st3 st4">7</text>
	<text transform="matrix(1 0 0 1 230.9202 192.7764)" class="st2 st3 st4">8</text>
	<text transform="matrix(1 0 0 1 253.4134 192.7764)" class="st2 st3 st4">9</text>
	<text transform="matrix(1 0 0 1 274.0638 192.7764)" class="st2 st3 st4">10</text>
	<text transform="matrix(1 0 0 1 297.5462 192.7764)" class="st2 st3 st4">11</text>
	<text transform="matrix(1 0 0 1 319.6087 192.7764)" class="st2 st3 st4">12</text>
	<text transform="matrix(1 0 0 1 342.1829 192.7764)" class="st2 st3 st4">13</text>
	<text transform="matrix(1 0 0 1 364.6966 192.7764)" class="st2 st3 st4">14</text>
	<text transform="matrix(1 0 0 1 387.3704 192.7764)" class="st2 st3 st4">15</text>
	<text transform="matrix(1 0 0 1 409.6927 192.7764)" class="st2 st3 st4">16</text>
	<text transform="matrix(1 0 0 1 432.6077 215.3184)" class="st2 st3 st4">17</text>
	<text transform="matrix(1 0 0 1 73.5569 214.9443)" class="st2 st3 st4">1</text>
	<text transform="matrix(1 0 0 1 95.6194 214.9443)" class="st2 st3 st4">2</text>
	<text transform="matrix(1 0 0 1 118.1936 214.9443)" class="st2 st3 st4">3</text>
	<text transform="matrix(1 0 0 1 140.7083 214.9443)" class="st2 st3 st4">4</text>
	<text transform="matrix(1 0 0 1 163.3811 214.9443)" class="st2 st3 st4">5</text>
	<text transform="matrix(1 0 0 1 185.7034 214.9443)" class="st2 st3 st4">6</text>
	<text transform="matrix(1 0 0 1 208.7298 214.9443)" class="st2 st3 st4">7</text>
	<text transform="matrix(1 0 0 1 230.9202 214.9443)" class="st2 st3 st4">8</text>
	<text transform="matrix(1 0 0 1 253.4134 214.9443)" class="st2 st3 st4">9</text>
	<text transform="matrix(1 0 0 1 274.0638 214.9443)" class="st2 st3 st4">10</text>
	<text transform="matrix(1 0 0 1 297.5462 214.9443)" class="st2 st3 st4">11</text>
	<text transform="matrix(1 0 0 1 319.6087 214.9443)" class="st2 st3 st4">12</text>
	<text transform="matrix(1 0 0 1 342.1829 214.9443)" class="st2 st3 st4">13</text>
	<text transform="matrix(1 0 0 1 387.678 237.7051)" class="st2 st3 st4">13</text>
	<text transform="matrix(1 0 0 1 364.6966 214.9443)" class="st2 st3 st4">14</text>
	<text transform="matrix(1 0 0 1 387.3704 214.9443)" class="st2 st3 st4">15</text>
	<text transform="matrix(1 0 0 1 409.6927 214.9443)" class="st2 st3 st4">16</text>
	<text transform="matrix(1 0 0 1 210.1507 440.9248)" class="st2 st3 st4">1</text>
	<text transform="matrix(1 0 0 1 232.2132 440.9248)" class="st2 st3 st4">2</text>
	<text transform="matrix(1 0 0 1 254.7874 440.9248)" class="st2 st3 st4">3</text>
	<text transform="matrix(1 0 0 1 277.302 440.9248)" class="st2 st3 st4">4</text>
	<text transform="matrix(1 0 0 1 299.9749 440.9248)" class="st2 st3 st4">5</text>
	<text transform="matrix(1 0 0 1 322.2971 440.9248)" class="st2 st3 st4">6</text>
	<text transform="matrix(1 0 0 1 345.3235 440.9248)" class="st2 st3 st4">7</text>
	<text transform="matrix(1 0 0 1 367.5139 440.9248)" class="st2 st3 st4">8</text>
	<text transform="matrix(1 0 0 1 390.0071 440.9248)" class="st2 st3 st4">9</text>
	<text transform="matrix(1 0 0 1 410.6575 440.9248)" class="st2 st3 st4">10</text>
	<text transform="matrix(1 0 0 1 433.3308 440.9248)" class="st2 st3 st4">11</text>
	<text transform="matrix(1 0 0 1 119.3152 237.6729)" class="st2 st3 st4">1</text>
	<text transform="matrix(1 0 0 1 141.3777 237.6729)" class="st2 st3 st4">2</text>
	<text transform="matrix(1 0 0 1 163.9519 237.6729)" class="st2 st3 st4">3</text>
	<text transform="matrix(1 0 0 1 186.4666 237.6729)" class="st2 st3 st4">4</text>
	<text transform="matrix(1 0 0 1 209.1404 237.6729)" class="st2 st3 st4">5</text>
	<text transform="matrix(1 0 0 1 231.4627 237.6729)" class="st2 st3 st4">6</text>
	<text transform="matrix(1 0 0 1 254.489 237.6729)" class="st2 st3 st4">7</text>
	<text transform="matrix(1 0 0 1 276.6795 237.6729)" class="st2 st3 st4">8</text>
	<text transform="matrix(1 0 0 1 299.1736 237.6729)" class="st2 st3 st4">9</text>
	<text transform="matrix(1 0 0 1 319.824 237.6729)" class="st2 st3 st4">10</text>
	<text transform="matrix(1 0 0 1 343.3045 237.6729)" class="st2 st3 st4">11</text>
	<text transform="matrix(1 0 0 1 365.367 237.6729)" class="st2 st3 st4">12</text>
	<text transform="matrix(1 0 0 1 387.678 260.6943)" class="st2 st3 st4">13</text>
	<text transform="matrix(1 0 0 1 119.3152 260.6621)" class="st2 st3 st4">1</text>
	<text transform="matrix(1 0 0 1 141.3777 260.6621)" class="st2 st3 st4">2</text>
	<text transform="matrix(1 0 0 1 163.9519 260.6621)" class="st2 st3 st4">3</text>
	<text transform="matrix(1 0 0 1 186.4666 260.6621)" class="st2 st3 st4">4</text>
	<text transform="matrix(1 0 0 1 209.1404 260.6621)" class="st2 st3 st4">5</text>
	<text transform="matrix(1 0 0 1 231.4627 260.6621)" class="st2 st3 st4">6</text>
	<text transform="matrix(1 0 0 1 254.489 260.6621)" class="st2 st3 st4">7</text>
	<text transform="matrix(1 0 0 1 276.6795 260.6621)" class="st2 st3 st4">8</text>
	<text transform="matrix(1 0 0 1 299.1736 260.6621)" class="st2 st3 st4">9</text>
	<text transform="matrix(1 0 0 1 319.824 260.6621)" class="st2 st3 st4">10</text>
	<text transform="matrix(1 0 0 1 343.3045 260.6621)" class="st2 st3 st4">11</text>
	<text transform="matrix(1 0 0 1 365.367 260.6621)" class="st2 st3 st4">12</text>
	<text transform="matrix(1 0 0 1 142.3714 282.8574)" class="st2 st3 st4">1</text>
	<text transform="matrix(1 0 0 1 164.4339 282.8574)" class="st2 st3 st4">2</text>
	<text transform="matrix(1 0 0 1 187.0081 282.8574)" class="st2 st3 st4">3</text>
	<text transform="matrix(1 0 0 1 209.5227 282.8574)" class="st2 st3 st4">4</text>
	<text transform="matrix(1 0 0 1 232.1966 282.8574)" class="st2 st3 st4">5</text>
	<text transform="matrix(1 0 0 1 254.5188 282.8574)" class="st2 st3 st4">6</text>
	<text transform="matrix(1 0 0 1 277.5452 282.8574)" class="st2 st3 st4">7</text>
	<text transform="matrix(1 0 0 1 299.7356 282.8574)" class="st2 st3 st4">8</text>
	<text transform="matrix(1 0 0 1 322.2298 282.8574)" class="st2 st3 st4">9</text>
	<text transform="matrix(1 0 0 1 342.8802 282.8574)" class="st2 st3 st4">10</text>
	<text transform="matrix(1 0 0 1 366.3606 282.8574)" class="st2 st3 st4">11</text>
	<text transform="matrix(1 0 0 1 387.6741 282.8574)" class="st2 st3 st4">12</text>
	<text transform="matrix(1 0 0 1 142.3714 305.0605)" class="st2 st3 st4">1</text>
	<text transform="matrix(1 0 0 1 164.4339 305.0605)" class="st2 st3 st4">2</text>
	<text transform="matrix(1 0 0 1 187.0081 305.0605)" class="st2 st3 st4">3</text>
	<text transform="matrix(1 0 0 1 209.5227 305.0605)" class="st2 st3 st4">4</text>
	<text transform="matrix(1 0 0 1 232.1966 305.0605)" class="st2 st3 st4">5</text>
	<text transform="matrix(1 0 0 1 254.5188 305.0605)" class="st2 st3 st4">6</text>
	<text transform="matrix(1 0 0 1 277.5452 305.0605)" class="st2 st3 st4">7</text>
	<text transform="matrix(1 0 0 1 299.7356 305.0605)" class="st2 st3 st4">8</text>
	<text transform="matrix(1 0 0 1 322.2298 305.0605)" class="st2 st3 st4">9</text>
	<text transform="matrix(1 0 0 1 342.8802 305.0605)" class="st2 st3 st4">10</text>
	<text transform="matrix(1 0 0 1 366.3606 305.0605)" class="st2 st3 st4">11</text>
	<text transform="matrix(1 0 0 1 387.6741 305.0605)" class="st2 st3 st4">12</text>
	<text transform="matrix(1 0 0 1 164.0252 328.2969)" class="st2 st3 st4">1</text>
	<text transform="matrix(1 0 0 1 186.0877 328.2969)" class="st2 st3 st4">2</text>
	<text transform="matrix(1 0 0 1 208.6619 328.2969)" class="st2 st3 st4">3</text>
	<text transform="matrix(1 0 0 1 231.1765 328.2969)" class="st2 st3 st4">4</text>
	<text transform="matrix(1 0 0 1 253.8504 328.2969)" class="st2 st3 st4">5</text>
	<text transform="matrix(1 0 0 1 276.1726 328.2969)" class="st2 st3 st4">6</text>
	<text transform="matrix(1 0 0 1 299.199 328.2969)" class="st2 st3 st4">7</text>
	<text transform="matrix(1 0 0 1 321.3894 328.2969)" class="st2 st3 st4">8</text>
	<text transform="matrix(1 0 0 1 343.8836 328.2969)" class="st2 st3 st4">9</text>
	<text transform="matrix(1 0 0 1 364.534 328.2969)" class="st2 st3 st4">10</text>
	<text transform="matrix(1 0 0 1 388.0144 328.2969)" class="st2 st3 st4">11</text>
	<text transform="matrix(1 0 0 1 164.0252 351.043)" class="st2 st3 st4">1</text>
	<text transform="matrix(1 0 0 1 186.0877 351.043)" class="st2 st3 st4">2</text>
	<text transform="matrix(1 0 0 1 208.6619 351.043)" class="st2 st3 st4">3</text>
	<text transform="matrix(1 0 0 1 231.1765 351.043)" class="st2 st3 st4">4</text>
	<text transform="matrix(1 0 0 1 253.8504 351.043)" class="st2 st3 st4">5</text>
	<text transform="matrix(1 0 0 1 276.1726 351.043)" class="st2 st3 st4">6</text>
	<text transform="matrix(1 0 0 1 299.199 351.043)" class="st2 st3 st4">7</text>
	<text transform="matrix(1 0 0 1 321.3894 351.043)" class="st2 st3 st4">8</text>
	<text transform="matrix(1 0 0 1 343.8836 351.043)" class="st2 st3 st4">9</text>
	<text transform="matrix(1 0 0 1 364.534 351.043)" class="st2 st3 st4">10</text>
	<text transform="matrix(1 0 0 1 388.0144 351.043)" class="st2 st3 st4">11</text>
	<text transform="matrix(1 0 0 1 186.6555 373.2764)" class="st2 st3 st4">1</text>
	<text transform="matrix(1 0 0 1 208.718 373.2764)" class="st2 st3 st4">2</text>
	<text transform="matrix(1 0 0 1 231.2923 373.2764)" class="st2 st3 st4">3</text>
	<text transform="matrix(1 0 0 1 253.8069 373.2764)" class="st2 st3 st4">4</text>
	<text transform="matrix(1 0 0 1 276.4807 373.2764)" class="st2 st3 st4">5</text>
	<text transform="matrix(1 0 0 1 298.803 373.2764)" class="st2 st3 st4">6</text>
	<text transform="matrix(1 0 0 1 321.8294 373.2764)" class="st2 st3 st4">7</text>
	<text transform="matrix(1 0 0 1 344.0198 373.2764)" class="st2 st3 st4">8</text>
	<text transform="matrix(1 0 0 1 366.5139 373.2764)" class="st2 st3 st4">9</text>
	<text transform="matrix(1 0 0 1 387.1643 373.2764)" class="st2 st3 st4">10</text>
	<text transform="matrix(1 0 0 1 186.6555 395.8281)" class="st2 st3 st4">1</text>
	<text transform="matrix(1 0 0 1 208.718 395.8281)" class="st2 st3 st4">2</text>
	<text transform="matrix(1 0 0 1 231.2923 395.8281)" class="st2 st3 st4">3</text>
	<text transform="matrix(1 0 0 1 253.8069 395.8281)" class="st2 st3 st4">4</text>
	<text transform="matrix(1 0 0 1 276.4807 395.8281)" class="st2 st3 st4">5</text>
	<text transform="matrix(1 0 0 1 298.803 395.8281)" class="st2 st3 st4">6</text>
	<text transform="matrix(1 0 0 1 321.8294 395.8281)" class="st2 st3 st4">7</text>
	<text transform="matrix(1 0 0 1 344.0198 395.8281)" class="st2 st3 st4">8</text>
	<text transform="matrix(1 0 0 1 366.5139 395.8281)" class="st2 st3 st4">9</text>
	<text transform="matrix(1 0 0 1 387.1643 395.8281)" class="st2 st3 st4">10</text>
	<text transform="matrix(1 0 0 1 209.2259 418.4609)" class="st2 st3 st4">1</text>
	<text transform="matrix(1 0 0 1 231.2884 418.4609)" class="st2 st3 st4">2</text>
	<text transform="matrix(1 0 0 1 253.8626 418.4609)" class="st2 st3 st4">3</text>
	<text transform="matrix(1 0 0 1 276.3772 418.4609)" class="st2 st3 st4">4</text>
	<text transform="matrix(1 0 0 1 299.0511 418.4609)" class="st2 st3 st4">5</text>
	<text transform="matrix(1 0 0 1 321.3733 418.4609)" class="st2 st3 st4">6</text>
	<text transform="matrix(1 0 0 1 344.3997 418.4609)" class="st2 st3 st4">7</text>
	<text transform="matrix(1 0 0 1 366.5901 418.4609)" class="st2 st3 st4">8</text>
	<text transform="matrix(1 0 0 1 389.0843 418.4609)" class="st2 st3 st4">9</text>
	<text transform="matrix(1 0 0 1 142.3714 463.582)" class="st2 st3 st4">1</text>
	<text transform="matrix(1 0 0 1 164.4339 463.582)" class="st2 st3 st4">2</text>
	<text transform="matrix(1 0 0 1 187.0081 463.582)" class="st2 st3 st4">3</text>
	<text transform="matrix(1 0 0 1 209.5227 463.582)" class="st2 st3 st4">4</text>
	<text transform="matrix(1 0 0 1 232.1966 463.582)" class="st2 st3 st4">5</text>
	<text transform="matrix(1 0 0 1 254.5188 463.582)" class="st2 st3 st4">6</text>
	<text transform="matrix(1 0 0 1 277.5452 463.582)" class="st2 st3 st4">7</text>
	<text transform="matrix(1 0 0 1 299.7356 463.582)" class="st2 st3 st4">8</text>
	<text transform="matrix(1 0 0 1 322.2298 463.582)" class="st2 st3 st4">9</text>
	<text transform="matrix(1 0 0 1 342.8802 463.582)" class="st2 st3 st4">10</text>
	<text transform="matrix(1 0 0 1 366.3606 463.582)" class="st2 st3 st4">11</text>
	<text transform="matrix(1 0 0 1 388.4231 463.582)" class="st2 st3 st4">12</text>
	<text transform="matrix(1 0 0 1 410.9973 463.582)" class="st2 st3 st4">13</text>
	<text transform="matrix(1 0 0 1 433.511 463.582)" class="st2 st3 st4">14</text>
	<text transform="matrix(1 0 0 1 209.5974 485.9336)" class="st2 st3 st4">1</text>
	<text transform="matrix(1 0 0 1 231.6599 485.9336)" class="st2 st3 st4">2</text>
	<text transform="matrix(1 0 0 1 254.2342 485.9336)" class="st2 st3 st4">3</text>
	<text transform="matrix(1 0 0 1 276.7488 485.9336)" class="st2 st3 st4">4</text>
	<text transform="matrix(1 0 0 1 299.4226 485.9336)" class="st2 st3 st4">5</text>
	<text transform="matrix(1 0 0 1 321.7449 485.9336)" class="st2 st3 st4">6</text>
	<text transform="matrix(1 0 0 1 344.7713 485.9336)" class="st2 st3 st4">7</text>
	<text transform="matrix(1 0 0 1 366.9617 485.9336)" class="st2 st3 st4">8</text>
	<text transform="matrix(1 0 0 1 389.4558 485.9336)" class="st2 st3 st4">9</text>
	<text transform="matrix(1 0 0 1 255.2903 509.1572)" class="st2 st3 st4">1</text>
	<text transform="matrix(1 0 0 1 277.3528 509.1572)" class="st2 st3 st4">2</text>
	<text transform="matrix(1 0 0 1 299.927 509.1572)" class="st2 st3 st4">3</text>
	<text transform="matrix(1 0 0 1 322.4417 509.1572)" class="st2 st3 st4">4</text>
	<text transform="matrix(1 0 0 1 345.1155 509.1572)" class="st2 st3 st4">5</text>
	<text transform="matrix(1 0 0 1 367.4378 509.1572)" class="st2 st3 st4">6</text>
	<text transform="matrix(1 0 0 1 390.4641 509.1572)" class="st2 st3 st4">7</text>
	<text transform="matrix(1 0 0 1 412.6546 509.1572)" class="st2 st3 st4">8</text>
	<text transform="matrix(1 0 0 1 435.1487 509.1572)" class="st2 st3 st4">9</text>
	<text transform="matrix(1 0 0 1 255.2903 530.1934)" class="st2 st3 st4">1</text>
	<text transform="matrix(1 0 0 1 277.3528 530.1934)" class="st2 st3 st4">2</text>
	<text transform="matrix(1 0 0 1 299.927 530.1934)" class="st2 st3 st4">3</text>
	<text transform="matrix(1 0 0 1 322.4417 530.1934)" class="st2 st3 st4">4</text>
	<text transform="matrix(1 0 0 1 345.1155 530.1934)" class="st2 st3 st4">5</text>
	<text transform="matrix(1 0 0 1 367.4378 530.1934)" class="st2 st3 st4">6</text>
	<text transform="matrix(1 0 0 1 390.4641 530.1934)" class="st2 st3 st4">7</text>
	<text transform="matrix(1 0 0 1 412.6546 530.1934)" class="st2 st3 st4">8</text>
	<text transform="matrix(1 0 0 1 435.1487 530.1934)" class="st2 st3 st4">9</text>
	<text transform="matrix(1 0 0 1 410.1062 485.9336)" class="st2 st3 st4">10</text>
	<text transform="matrix(1 0 0 1 433.5867 485.9336)" class="st2 st3 st4">11</text>
</g>
<g>
	<text transform="matrix(1 0 0 1 504.699 55.1875)" class="st5 st6 st7">29</text>
	<text transform="matrix(1 0 0 1 504.699 10.8164)" class="st5 st6 st7">30</text>
	<text transform="matrix(1 0 0 1 504.699 100.6836)" class="st5 st6 st7">27</text>
	<text transform="matrix(1 0 0 1 504.699 78.1133)" class="st5 st6 st7">28</text>
	<text transform="matrix(1 0 0 1 504.699 145.8262)" class="st5 st6 st7">25</text>
	<text transform="matrix(1 0 0 1 504.5388 326.4258)" class="st5 st6 st7">17</text>
	<text transform="matrix(1 0 0 1 504.5388 348.9775)" class="st5 st6 st7">16</text>
	<text transform="matrix(1 0 0 1 504.699 371.6133)" class="st5 st6 st7">15</text>
	<text transform="matrix(1 0 0 1 504.699 394.165)" class="st5 st6 st7">14</text>
	<text transform="matrix(1 0 0 1 504.5115 416.7979)" class="st5 st6 st7">13</text>
	<text transform="matrix(1 0 0 1 504.5388 439.3506)" class="st5 st6 st7">12</text>
	<text transform="matrix(1 0 0 1 504.699 123.2559)" class="st5 st6 st7">26</text>
	<text transform="matrix(1 0 0 1 504.699 168.2803)" class="st5 st6 st7">24</text>
	<text transform="matrix(1 0 0 1 504.699 213.4678)" class="st5 st6 st7">22</text>
	<text transform="matrix(1 0 0 1 504.699 190.8975)" class="st5 st6 st7">23</text>
	<text transform="matrix(1 0 0 1 504.699 258.6123)" class="st5 st6 st7">20</text>
	<text transform="matrix(1 0 0 1 504.699 236.042)" class="st5 st6 st7">21</text>
	<text transform="matrix(1 0 0 1 504.5115 303.7549)" class="st5 st6 st7">18</text>
	<text transform="matrix(1 0 0 1 504.5388 281.1846)" class="st5 st6 st7">19</text>
	<text transform="matrix(1 0 0 1 504.5388 461.9043)" class="st5 st6 st7">11</text>
	<text transform="matrix(1 0 0 1 504.5388 507.0918)" class="st5 st6 st7">9</text>
	<text transform="matrix(1 0 0 1 504.5388 484.5215)" class="st5 st6 st7">10</text>
	<text transform="matrix(1 0 0 1 504.5115 529.667)" class="st5 st6 st7">8</text>
</g>
</svg>
