<?xml version="1.0" encoding="utf-8"?>
<!-- Generator: Adobe Illustrator 20.1.0, SVG Export Plug-In . SVG Version: 6.00 Build 0)  -->
<svg version="1.1" id="Layer_1" xmlns="http://www.w3.org/2000/svg" xmlns:xlink="http://www.w3.org/1999/xlink" x="0px" y="0px"
	 viewBox="0 0 394.2 627.8" style="enable-background:new 0 0 394.2 627.8;" xml:space="preserve">
<style type="text/css">
	.st0{fill:#D9F6E1;}
	.st1{fill:#FFFFFF;}
	.st2{fill:#737373;}
	.st3{font-family:'OsnovaPro';}
	.st4{font-size:8px;}
	.st5{fill:#7B878F;}
	.st6{font-family:'OsnovaProLight';}
	.st7{font-size:9px;}
</style>
<path class="st0" d="M122.1,16.6L122.1,16.6c-4.6,0-8.3-3.7-8.3-8.3v0c0-4.6,3.7-8.3,8.3-8.3h0c4.6,0,8.3,3.7,8.3,8.3v0
	C130.4,12.8,126.6,16.6,122.1,16.6z"/>
<path class="st0" d="M144.7,16.6L144.7,16.6c-4.6,0-8.3-3.7-8.3-8.3v0c0-4.6,3.7-8.3,8.3-8.3h0c4.6,0,8.3,3.7,8.3,8.3v0
	C152.9,12.8,149.2,16.6,144.7,16.6z"/>
<path class="st0" d="M167.2,16.6L167.2,16.6c-4.6,0-8.3-3.7-8.3-8.3v0c0-4.6,3.7-8.3,8.3-8.3h0c4.6,0,8.3,3.7,8.3,8.3v0
	C175.5,12.8,171.8,16.6,167.2,16.6z"/>
<path class="st0" d="M189.8,16.6L189.8,16.6c-4.6,0-8.3-3.7-8.3-8.3v0c0-4.6,3.7-8.3,8.3-8.3h0c4.6,0,8.3,3.7,8.3,8.3v0
	C198.1,12.8,194.4,16.6,189.8,16.6z"/>
<path class="st0" d="M212.4,16.6L212.4,16.6c-4.6,0-8.3-3.7-8.3-8.3v0c0-4.6,3.7-8.3,8.3-8.3h0c4.6,0,8.3,3.7,8.3,8.3v0
	C220.7,12.8,216.9,16.6,212.4,16.6z"/>
<path class="st0" d="M234.9,16.6L234.9,16.6c-4.6,0-8.3-3.7-8.3-8.3v0c0-4.6,3.7-8.3,8.3-8.3h0c4.6,0,8.3,3.7,8.3,8.3v0
	C243.2,12.8,239.5,16.6,234.9,16.6z"/>
<path class="st0" d="M257.4,16.6L257.4,16.6c-4.6,0-8.3-3.7-8.3-8.3v0c0-4.6,3.7-8.3,8.3-8.3l0,0c4.6,0,8.3,3.7,8.3,8.3v0
	C265.7,12.8,262,16.6,257.4,16.6z"/>
<path class="st0" d="M280,16.6L280,16.6c-4.6,0-8.3-3.7-8.3-8.3v0c0-4.6,3.7-8.3,8.3-8.3h0c4.6,0,8.3,3.7,8.3,8.3v0
	C288.3,12.8,284.6,16.6,280,16.6z"/>
<path class="st0" d="M302.6,16.6L302.6,16.6c-4.6,0-8.3-3.7-8.3-8.3v0c0-4.6,3.7-8.3,8.3-8.3h0c4.6,0,8.3,3.7,8.3,8.3v0
	C310.9,12.8,307.1,16.6,302.6,16.6z"/>
<path class="st0" d="M325.1,16.6L325.1,16.6c-4.6,0-8.3-3.7-8.3-8.3v0c0-4.6,3.7-8.3,8.3-8.3h0c4.6,0,8.3,3.7,8.3,8.3v0
	C333.4,12.8,329.7,16.6,325.1,16.6z"/>
<path class="st1" d="M167.1,108.3L167.1,108.3c-4.6,0-8.3-3.7-8.3-8.3v0c0-4.6,3.7-8.3,8.3-8.3h0c4.6,0,8.3,3.7,8.3,8.3v0
	C175.4,104.6,171.7,108.3,167.1,108.3z"/>
<path class="st1" d="M189.7,108.3L189.7,108.3c-4.6,0-8.3-3.7-8.3-8.3v0c0-4.6,3.7-8.3,8.3-8.3h0c4.6,0,8.3,3.7,8.3,8.3v0
	C198,104.6,194.2,108.3,189.7,108.3z"/>
<path class="st1" d="M212.3,108.3L212.3,108.3c-4.6,0-8.3-3.7-8.3-8.3v0c0-4.6,3.7-8.3,8.3-8.3h0c4.6,0,8.3,3.7,8.3,8.3v0
	C220.5,104.6,216.8,108.3,212.3,108.3z"/>
<path class="st1" d="M234.8,108.3L234.8,108.3c-4.6,0-8.3-3.7-8.3-8.3v0c0-4.6,3.7-8.3,8.3-8.3h0c4.6,0,8.3,3.7,8.3,8.3v0
	C243.1,104.6,239.4,108.3,234.8,108.3z"/>
<path class="st1" d="M257.4,108.3L257.4,108.3c-4.6,0-8.3-3.7-8.3-8.3v0c0-4.6,3.7-8.3,8.3-8.3h0c4.6,0,8.3,3.7,8.3,8.3v0
	C265.7,104.6,262,108.3,257.4,108.3z"/>
<path class="st1" d="M280,108.3L280,108.3c-4.6,0-8.3-3.7-8.3-8.3v0c0-4.6,3.7-8.3,8.3-8.3l0,0c4.6,0,8.3,3.7,8.3,8.3v0
	C288.2,104.6,284.5,108.3,280,108.3z"/>
<path class="st1" d="M302.5,108.3L302.5,108.3c-4.6,0-8.3-3.7-8.3-8.3v0c0-4.6,3.7-8.3,8.3-8.3l0,0c4.6,0,8.3,3.7,8.3,8.3v0
	C310.8,104.6,307.1,108.3,302.5,108.3z"/>
<path class="st1" d="M325.1,108.3L325.1,108.3c-4.6,0-8.3-3.7-8.3-8.3v0c0-4.6,3.7-8.3,8.3-8.3h0c4.6,0,8.3,3.7,8.3,8.3v0
	C333.4,104.6,329.7,108.3,325.1,108.3z"/>
<path class="st1" d="M167.1,85.7L167.1,85.7c-4.6,0-8.3-3.7-8.3-8.3v0c0-4.6,3.7-8.3,8.3-8.3h0c4.6,0,8.3,3.7,8.3,8.3v0
	C175.4,82,171.7,85.7,167.1,85.7z"/>
<path class="st1" d="M189.7,85.7L189.7,85.7c-4.6,0-8.3-3.7-8.3-8.3v0c0-4.6,3.7-8.3,8.3-8.3h0c4.6,0,8.3,3.7,8.3,8.3v0
	C198,82,194.2,85.7,189.7,85.7z"/>
<path class="st1" d="M212.3,85.7L212.3,85.7c-4.6,0-8.3-3.7-8.3-8.3v0c0-4.6,3.7-8.3,8.3-8.3h0c4.6,0,8.3,3.7,8.3,8.3v0
	C220.5,82,216.8,85.7,212.3,85.7z"/>
<path class="st1" d="M234.8,85.7L234.8,85.7c-4.6,0-8.3-3.7-8.3-8.3v0c0-4.6,3.7-8.3,8.3-8.3h0c4.6,0,8.3,3.7,8.3,8.3v0
	C243.1,82,239.4,85.7,234.8,85.7z"/>
<path class="st1" d="M257.4,85.7L257.4,85.7c-4.6,0-8.3-3.7-8.3-8.3v0c0-4.6,3.7-8.3,8.3-8.3h0c4.6,0,8.3,3.7,8.3,8.3v0
	C265.7,82,262,85.7,257.4,85.7z"/>
<path class="st1" d="M280,85.7L280,85.7c-4.6,0-8.3-3.7-8.3-8.3v0c0-4.6,3.7-8.3,8.3-8.3l0,0c4.6,0,8.3,3.7,8.3,8.3v0
	C288.2,82,284.5,85.7,280,85.7z"/>
<path class="st1" d="M302.5,85.7L302.5,85.7c-4.6,0-8.3-3.7-8.3-8.3v0c0-4.6,3.7-8.3,8.3-8.3l0,0c4.6,0,8.3,3.7,8.3,8.3v0
	C310.8,82,307.1,85.7,302.5,85.7z"/>
<path class="st1" d="M325.1,85.7L325.1,85.7c-4.6,0-8.3-3.7-8.3-8.3v0c0-4.6,3.7-8.3,8.3-8.3h0c4.6,0,8.3,3.7,8.3,8.3v0
	C333.4,82,329.7,85.7,325.1,85.7z"/>
<path class="st1" d="M167.1,153.4L167.1,153.4c-4.6,0-8.3-3.7-8.3-8.3v0c0-4.6,3.7-8.3,8.3-8.3h0c4.6,0,8.3,3.7,8.3,8.3v0
	C175.4,149.7,171.7,153.4,167.1,153.4z"/>
<path class="st1" d="M189.7,153.4L189.7,153.4c-4.6,0-8.3-3.7-8.3-8.3v0c0-4.6,3.7-8.3,8.3-8.3h0c4.6,0,8.3,3.7,8.3,8.3v0
	C198,149.7,194.3,153.4,189.7,153.4z"/>
<path class="st1" d="M212.3,153.4L212.3,153.4c-4.6,0-8.3-3.7-8.3-8.3v0c0-4.6,3.7-8.3,8.3-8.3h0c4.6,0,8.3,3.7,8.3,8.3v0
	C220.6,149.7,216.8,153.4,212.3,153.4z"/>
<path class="st1" d="M234.8,153.4L234.8,153.4c-4.6,0-8.3-3.7-8.3-8.3v0c0-4.6,3.7-8.3,8.3-8.3h0c4.6,0,8.3,3.7,8.3,8.3v0
	C243.1,149.7,239.4,153.4,234.8,153.4z"/>
<path class="st1" d="M257.4,153.4L257.4,153.4c-4.6,0-8.3-3.7-8.3-8.3v0c0-4.6,3.7-8.3,8.3-8.3l0,0c4.6,0,8.3,3.7,8.3,8.3v0
	C265.7,149.7,262,153.4,257.4,153.4z"/>
<path class="st1" d="M280,153.4L280,153.4c-4.6,0-8.3-3.7-8.3-8.3v0c0-4.6,3.7-8.3,8.3-8.3h0c4.6,0,8.3,3.7,8.3,8.3v0
	C288.3,149.7,284.5,153.4,280,153.4z"/>
<path class="st1" d="M302.6,153.4L302.6,153.4c-4.6,0-8.3-3.7-8.3-8.3v0c0-4.6,3.7-8.3,8.3-8.3h0c4.6,0,8.3,3.7,8.3,8.3v0
	C310.8,149.7,307.1,153.4,302.6,153.4z"/>
<path class="st1" d="M325.1,153.4L325.1,153.4c-4.6,0-8.3-3.7-8.3-8.3v0c0-4.6,3.7-8.3,8.3-8.3l0,0c4.6,0,8.3,3.7,8.3,8.3v0
	C333.4,149.7,329.7,153.4,325.1,153.4z"/>
<path class="st1" d="M257.4,334L257.4,334c-4.6,0-8.3-3.7-8.3-8.3l0,0c0-4.6,3.7-8.3,8.3-8.3h0c4.6,0,8.3,3.7,8.3,8.3l0,0
	C265.7,330.3,261.9,334,257.4,334z"/>
<path class="st1" d="M279.9,334L279.9,334c-4.6,0-8.3-3.7-8.3-8.3l0,0c0-4.6,3.7-8.3,8.3-8.3l0,0c4.6,0,8.3,3.7,8.3,8.3l0,0
	C288.2,330.3,284.5,334,279.9,334z"/>
<path class="st1" d="M302.5,334L302.5,334c-4.6,0-8.3-3.7-8.3-8.3l0,0c0-4.6,3.7-8.3,8.3-8.3l0,0c4.6,0,8.3,3.7,8.3,8.3l0,0
	C310.8,330.3,307.1,334,302.5,334z"/>
<path class="st1" d="M325.1,334L325.1,334c-4.6,0-8.3-3.7-8.3-8.3l0,0c0-4.6,3.7-8.3,8.3-8.3h0c4.6,0,8.3,3.7,8.3,8.3l0,0
	C333.4,330.3,329.6,334,325.1,334z"/>
<path class="st1" d="M279.9,356.6L279.9,356.6c-4.6,0-8.3-3.7-8.3-8.3v0c0-4.6,3.7-8.3,8.3-8.3l0,0c4.6,0,8.3,3.7,8.3,8.3v0
	C288.2,352.9,284.5,356.6,279.9,356.6z"/>
<path class="st1" d="M302.5,356.6L302.5,356.6c-4.6,0-8.3-3.7-8.3-8.3v0c0-4.6,3.7-8.3,8.3-8.3l0,0c4.6,0,8.3,3.7,8.3,8.3v0
	C310.8,352.9,307.1,356.6,302.5,356.6z"/>
<path class="st1" d="M325.1,356.6L325.1,356.6c-4.6,0-8.3-3.7-8.3-8.3v0c0-4.6,3.7-8.3,8.3-8.3h0c4.6,0,8.3,3.7,8.3,8.3v0
	C333.4,352.9,329.6,356.6,325.1,356.6z"/>
<path class="st1" d="M279.9,379.2L279.9,379.2c-4.6,0-8.3-3.7-8.3-8.3l0,0c0-4.6,3.7-8.3,8.3-8.3l0,0c4.6,0,8.3,3.7,8.3,8.3l0,0
	C288.2,375.5,284.5,379.2,279.9,379.2z"/>
<path class="st1" d="M302.5,379.2L302.5,379.2c-4.6,0-8.3-3.7-8.3-8.3l0,0c0-4.6,3.7-8.3,8.3-8.3l0,0c4.6,0,8.3,3.7,8.3,8.3l0,0
	C310.8,375.5,307.1,379.2,302.5,379.2z"/>
<path class="st1" d="M325.1,379.2L325.1,379.2c-4.6,0-8.3-3.7-8.3-8.3l0,0c0-4.6,3.7-8.3,8.3-8.3h0c4.6,0,8.3,3.7,8.3,8.3l0,0
	C333.4,375.5,329.6,379.2,325.1,379.2z"/>
<path class="st1" d="M302.5,401.8L302.5,401.8c-4.6,0-8.3-3.7-8.3-8.3v0c0-4.6,3.7-8.3,8.3-8.3l0,0c4.6,0,8.3,3.7,8.3,8.3v0
	C310.8,398,307.1,401.8,302.5,401.8z"/>
<path class="st1" d="M280.3,401.8L280.3,401.8c-4.6,0-8.3-3.7-8.3-8.3v0c0-4.6,3.7-8.3,8.3-8.3l0,0c4.6,0,8.3,3.7,8.3,8.3v0
	C288.6,398,284.8,401.8,280.3,401.8z"/>
<path class="st1" d="M325.1,401.8L325.1,401.8c-4.6,0-8.3-3.7-8.3-8.3v0c0-4.6,3.7-8.3,8.3-8.3h0c4.6,0,8.3,3.7,8.3,8.3v0
	C333.4,398,329.6,401.8,325.1,401.8z"/>
<path class="st1" d="M302.5,424.4L302.5,424.4c-4.6,0-8.3-3.7-8.3-8.3l0,0c0-4.6,3.7-8.3,8.3-8.3l0,0c4.6,0,8.3,3.7,8.3,8.3l0,0
	C310.8,420.7,307.1,424.4,302.5,424.4z"/>
<path class="st1" d="M325.1,424.4L325.1,424.4c-4.6,0-8.3-3.7-8.3-8.3l0,0c0-4.6,3.7-8.3,8.3-8.3h0c4.6,0,8.3,3.7,8.3,8.3l0,0
	C333.4,420.7,329.6,424.4,325.1,424.4z"/>
<path class="st1" d="M257.4,447L257.4,447c-4.6,0-8.3-3.7-8.3-8.3l0,0c0-4.6,3.7-8.3,8.3-8.3l0,0c4.6,0,8.3,3.7,8.3,8.3l0,0
	C265.7,443.2,262,447,257.4,447z"/>
<path class="st1" d="M280,447L280,447c-4.6,0-8.3-3.7-8.3-8.3l0,0c0-4.6,3.7-8.3,8.3-8.3h0c4.6,0,8.3,3.7,8.3,8.3l0,0
	C288.3,443.2,284.5,447,280,447z"/>
<path class="st1" d="M302.6,447L302.6,447c-4.6,0-8.3-3.7-8.3-8.3l0,0c0-4.6,3.7-8.3,8.3-8.3h0c4.6,0,8.3,3.7,8.3,8.3l0,0
	C310.8,443.2,307.1,447,302.6,447z"/>
<path class="st1" d="M325.1,447L325.1,447c-4.6,0-8.3-3.7-8.3-8.3l0,0c0-4.6,3.7-8.3,8.3-8.3l0,0c4.6,0,8.3,3.7,8.3,8.3l0,0
	C333.4,443.2,329.7,447,325.1,447z"/>
<path class="st1" d="M167.1,130.9L167.1,130.9c-4.6,0-8.3-3.7-8.3-8.3v0c0-4.6,3.7-8.3,8.3-8.3h0c4.6,0,8.3,3.7,8.3,8.3v0
	C175.4,127.1,171.7,130.9,167.1,130.9z"/>
<path class="st1" d="M189.7,130.9L189.7,130.9c-4.6,0-8.3-3.7-8.3-8.3v0c0-4.6,3.7-8.3,8.3-8.3h0c4.6,0,8.3,3.7,8.3,8.3v0
	C198,127.1,194.3,130.9,189.7,130.9z"/>
<path class="st1" d="M212.3,130.9L212.3,130.9c-4.6,0-8.3-3.7-8.3-8.3v0c0-4.6,3.7-8.3,8.3-8.3h0c4.6,0,8.3,3.7,8.3,8.3v0
	C220.6,127.1,216.8,130.9,212.3,130.9z"/>
<path class="st1" d="M234.8,130.9L234.8,130.9c-4.6,0-8.3-3.7-8.3-8.3v0c0-4.6,3.7-8.3,8.3-8.3h0c4.6,0,8.3,3.7,8.3,8.3v0
	C243.1,127.1,239.4,130.9,234.8,130.9z"/>
<path class="st1" d="M257.4,130.9L257.4,130.9c-4.6,0-8.3-3.7-8.3-8.3v0c0-4.6,3.7-8.3,8.3-8.3l0,0c4.6,0,8.3,3.7,8.3,8.3v0
	C265.7,127.1,262,130.9,257.4,130.9z"/>
<path class="st1" d="M280,130.9L280,130.9c-4.6,0-8.3-3.7-8.3-8.3v0c0-4.6,3.7-8.3,8.3-8.3h0c4.6,0,8.3,3.7,8.3,8.3v0
	C288.3,127.1,284.5,130.9,280,130.9z"/>
<path class="st1" d="M302.6,130.9L302.6,130.9c-4.6,0-8.3-3.7-8.3-8.3v0c0-4.6,3.7-8.3,8.3-8.3h0c4.6,0,8.3,3.7,8.3,8.3v0
	C310.8,127.1,307.1,130.9,302.6,130.9z"/>
<path class="st1" d="M325.1,130.9L325.1,130.9c-4.6,0-8.3-3.7-8.3-8.3v0c0-4.6,3.7-8.3,8.3-8.3l0,0c4.6,0,8.3,3.7,8.3,8.3v0
	C333.4,127.1,329.7,130.9,325.1,130.9z"/>
<path class="st1" d="M167.2,176L167.2,176c-4.6,0-8.3-3.7-8.3-8.3v0c0-4.6,3.7-8.3,8.3-8.3h0c4.6,0,8.3,3.7,8.3,8.3v0
	C175.4,172.3,171.7,176,167.2,176z"/>
<path class="st1" d="M189.7,176L189.7,176c-4.6,0-8.3-3.7-8.3-8.3v0c0-4.6,3.7-8.3,8.3-8.3h0c4.6,0,8.3,3.7,8.3,8.3v0
	C198,172.3,194.3,176,189.7,176z"/>
<path class="st1" d="M212.3,176L212.3,176c-4.6,0-8.3-3.7-8.3-8.3v0c0-4.6,3.7-8.3,8.3-8.3h0c4.6,0,8.3,3.7,8.3,8.3v0
	C220.6,172.3,216.9,176,212.3,176z"/>
<path class="st1" d="M234.9,176L234.9,176c-4.6,0-8.3-3.7-8.3-8.3v0c0-4.6,3.7-8.3,8.3-8.3h0c4.6,0,8.3,3.7,8.3,8.3v0
	C243.2,172.3,239.4,176,234.9,176z"/>
<path class="st1" d="M257.4,176L257.4,176c-4.6,0-8.3-3.7-8.3-8.3v0c0-4.6,3.7-8.3,8.3-8.3l0,0c4.6,0,8.3,3.7,8.3,8.3v0
	C265.7,172.3,262,176,257.4,176z"/>
<path class="st1" d="M280,176L280,176c-4.6,0-8.3-3.7-8.3-8.3v0c0-4.6,3.7-8.3,8.3-8.3h0c4.6,0,8.3,3.7,8.3,8.3v0
	C288.3,172.3,284.6,176,280,176z"/>
<path class="st1" d="M302.6,176L302.6,176c-4.6,0-8.3-3.7-8.3-8.3v0c0-4.6,3.7-8.3,8.3-8.3h0c4.6,0,8.3,3.7,8.3,8.3v0
	C310.9,172.3,307.1,176,302.6,176z"/>
<path class="st1" d="M325.2,176L325.2,176c-4.6,0-8.3-3.7-8.3-8.3v0c0-4.6,3.7-8.3,8.3-8.3l0,0c4.6,0,8.3,3.7,8.3,8.3v0
	C333.4,172.3,329.7,176,325.2,176z"/>
<path class="st1" d="M167.1,221.1L167.1,221.1c-4.6,0-8.3-3.7-8.3-8.3v0c0-4.6,3.7-8.3,8.3-8.3h0c4.6,0,8.3,3.7,8.3,8.3v0
	C175.4,217.4,171.7,221.1,167.1,221.1z"/>
<path class="st1" d="M189.7,221.1L189.7,221.1c-4.6,0-8.3-3.7-8.3-8.3v0c0-4.6,3.7-8.3,8.3-8.3h0c4.6,0,8.3,3.7,8.3,8.3v0
	C198,217.4,194.3,221.1,189.7,221.1z"/>
<path class="st1" d="M212.3,221.1L212.3,221.1c-4.6,0-8.3-3.7-8.3-8.3v0c0-4.6,3.7-8.3,8.3-8.3h0c4.6,0,8.3,3.7,8.3,8.3v0
	C220.6,217.4,216.8,221.1,212.3,221.1z"/>
<path class="st1" d="M234.8,221.1L234.8,221.1c-4.6,0-8.3-3.7-8.3-8.3v0c0-4.6,3.7-8.3,8.3-8.3h0c4.6,0,8.3,3.7,8.3,8.3v0
	C243.1,217.4,239.4,221.1,234.8,221.1z"/>
<path class="st1" d="M257.4,221.1L257.4,221.1c-4.6,0-8.3-3.7-8.3-8.3v0c0-4.6,3.7-8.3,8.3-8.3l0,0c4.6,0,8.3,3.7,8.3,8.3v0
	C265.7,217.4,262,221.1,257.4,221.1z"/>
<path class="st1" d="M280,221.1L280,221.1c-4.6,0-8.3-3.7-8.3-8.3v0c0-4.6,3.7-8.3,8.3-8.3l0,0c4.6,0,8.3,3.7,8.3,8.3v0
	C288.3,217.4,284.5,221.1,280,221.1z"/>
<path class="st1" d="M302.6,221.1L302.6,221.1c-4.6,0-8.3-3.7-8.3-8.3v0c0-4.6,3.7-8.3,8.3-8.3l0,0c4.6,0,8.3,3.7,8.3,8.3v0
	C310.8,217.4,307.1,221.1,302.6,221.1z"/>
<path class="st1" d="M325.1,221.1L325.1,221.1c-4.6,0-8.3-3.7-8.3-8.3v0c0-4.6,3.7-8.3,8.3-8.3h0c4.6,0,8.3,3.7,8.3,8.3v0
	C333.4,217.4,329.7,221.1,325.1,221.1z"/>
<path class="st1" d="M167.1,198.6L167.1,198.6c-4.6,0-8.3-3.7-8.3-8.3v0c0-4.6,3.7-8.3,8.3-8.3h0c4.6,0,8.3,3.7,8.3,8.3v0
	C175.4,194.8,171.7,198.6,167.1,198.6z"/>
<path class="st1" d="M189.7,198.6L189.7,198.6c-4.6,0-8.3-3.7-8.3-8.3v0c0-4.6,3.7-8.3,8.3-8.3h0c4.6,0,8.3,3.7,8.3,8.3v0
	C198,194.8,194.3,198.6,189.7,198.6z"/>
<path class="st1" d="M212.3,198.6L212.3,198.6c-4.6,0-8.3-3.7-8.3-8.3v0c0-4.6,3.7-8.3,8.3-8.3h0c4.6,0,8.3,3.7,8.3,8.3v0
	C220.6,194.8,216.8,198.6,212.3,198.6z"/>
<path class="st1" d="M234.8,198.6L234.8,198.6c-4.6,0-8.3-3.7-8.3-8.3v0c0-4.6,3.7-8.3,8.3-8.3h0c4.6,0,8.3,3.7,8.3,8.3v0
	C243.1,194.8,239.4,198.6,234.8,198.6z"/>
<path class="st1" d="M257.4,198.6L257.4,198.6c-4.6,0-8.3-3.7-8.3-8.3v0c0-4.6,3.7-8.3,8.3-8.3l0,0c4.6,0,8.3,3.7,8.3,8.3v0
	C265.7,194.8,262,198.6,257.4,198.6z"/>
<path class="st1" d="M280,198.6L280,198.6c-4.6,0-8.3-3.7-8.3-8.3v0c0-4.6,3.7-8.3,8.3-8.3l0,0c4.6,0,8.3,3.7,8.3,8.3v0
	C288.3,194.8,284.5,198.6,280,198.6z"/>
<path class="st1" d="M302.6,198.6L302.6,198.6c-4.6,0-8.3-3.7-8.3-8.3v0c0-4.6,3.7-8.3,8.3-8.3l0,0c4.6,0,8.3,3.7,8.3,8.3v0
	C310.8,194.8,307.1,198.6,302.6,198.6z"/>
<path class="st1" d="M325.1,198.6L325.1,198.6c-4.6,0-8.3-3.7-8.3-8.3v0c0-4.6,3.7-8.3,8.3-8.3h0c4.6,0,8.3,3.7,8.3,8.3v0
	C333.4,194.8,329.7,198.6,325.1,198.6z"/>
<path class="st1" d="M212.3,243.7L212.3,243.7c-4.6,0-8.3-3.7-8.3-8.3v0c0-4.6,3.7-8.3,8.3-8.3h0c4.6,0,8.3,3.7,8.3,8.3v0
	C220.5,240,216.8,243.7,212.3,243.7z"/>
<path class="st1" d="M234.8,243.7L234.8,243.7c-4.6,0-8.3-3.7-8.3-8.3v0c0-4.6,3.7-8.3,8.3-8.3h0c4.6,0,8.3,3.7,8.3,8.3v0
	C243.1,240,239.4,243.7,234.8,243.7z"/>
<path class="st1" d="M257.4,243.7L257.4,243.7c-4.6,0-8.3-3.7-8.3-8.3v0c0-4.6,3.7-8.3,8.3-8.3h0c4.6,0,8.3,3.7,8.3,8.3v0
	C265.7,240,262,243.7,257.4,243.7z"/>
<path class="st1" d="M280,243.7L280,243.7c-4.6,0-8.3-3.7-8.3-8.3v0c0-4.6,3.7-8.3,8.3-8.3l0,0c4.6,0,8.3,3.7,8.3,8.3v0
	C288.2,240,284.5,243.7,280,243.7z"/>
<path class="st1" d="M302.5,243.7L302.5,243.7c-4.6,0-8.3-3.7-8.3-8.3v0c0-4.6,3.7-8.3,8.3-8.3l0,0c4.6,0,8.3,3.7,8.3,8.3v0
	C310.8,240,307.1,243.7,302.5,243.7z"/>
<path class="st1" d="M325.1,243.7L325.1,243.7c-4.6,0-8.3-3.7-8.3-8.3v0c0-4.6,3.7-8.3,8.3-8.3h0c4.6,0,8.3,3.7,8.3,8.3v0
	C333.4,240,329.7,243.7,325.1,243.7z"/>
<path class="st1" d="M234.8,288.8L234.8,288.8c-4.6,0-8.3-3.7-8.3-8.3v0c0-4.6,3.7-8.3,8.3-8.3h0c4.6,0,8.3,3.7,8.3,8.3v0
	C243.1,285.1,239.4,288.8,234.8,288.8z"/>
<path class="st1" d="M257.4,288.8L257.4,288.8c-4.6,0-8.3-3.7-8.3-8.3v0c0-4.6,3.7-8.3,8.3-8.3h0c4.6,0,8.3,3.7,8.3,8.3v0
	C265.7,285.1,261.9,288.8,257.4,288.8z"/>
<path class="st1" d="M279.9,288.8L279.9,288.8c-4.6,0-8.3-3.7-8.3-8.3v0c0-4.6,3.7-8.3,8.3-8.3h0c4.6,0,8.3,3.7,8.3,8.3v0
	C288.2,285.1,284.5,288.8,279.9,288.8z"/>
<path class="st1" d="M302.5,288.8L302.5,288.8c-4.6,0-8.3-3.7-8.3-8.3v0c0-4.6,3.7-8.3,8.3-8.3l0,0c4.6,0,8.3,3.7,8.3,8.3v0
	C310.8,285.1,307.1,288.8,302.5,288.8z"/>
<path class="st1" d="M325.1,288.8L325.1,288.8c-4.6,0-8.3-3.7-8.3-8.3v0c0-4.6,3.7-8.3,8.3-8.3l0,0c4.6,0,8.3,3.7,8.3,8.3v0
	C333.4,285.1,329.6,288.8,325.1,288.8z"/>
<path class="st1" d="M212.2,266.3L212.2,266.3c-4.6,0-8.3-3.7-8.3-8.3l0,0c0-4.6,3.7-8.3,8.3-8.3h0c4.6,0,8.3,3.7,8.3,8.3l0,0
	C220.5,262.5,216.8,266.3,212.2,266.3z"/>
<path class="st1" d="M234.8,266.3L234.8,266.3c-4.6,0-8.3-3.7-8.3-8.3l0,0c0-4.6,3.7-8.3,8.3-8.3h0c4.6,0,8.3,3.7,8.3,8.3l0,0
	C243.1,262.5,239.4,266.3,234.8,266.3z"/>
<path class="st1" d="M257.4,266.3L257.4,266.3c-4.6,0-8.3-3.7-8.3-8.3l0,0c0-4.6,3.7-8.3,8.3-8.3h0c4.6,0,8.3,3.7,8.3,8.3l0,0
	C265.7,262.5,261.9,266.3,257.4,266.3z"/>
<path class="st1" d="M279.9,266.3L279.9,266.3c-4.6,0-8.3-3.7-8.3-8.3l0,0c0-4.6,3.7-8.3,8.3-8.3h0c4.6,0,8.3,3.7,8.3,8.3l0,0
	C288.2,262.5,284.5,266.3,279.9,266.3z"/>
<path class="st1" d="M302.5,266.3L302.5,266.3c-4.6,0-8.3-3.7-8.3-8.3l0,0c0-4.6,3.7-8.3,8.3-8.3l0,0c4.6,0,8.3,3.7,8.3,8.3l0,0
	C310.8,262.5,307.1,266.3,302.5,266.3z"/>
<path class="st1" d="M325.1,266.3L325.1,266.3c-4.6,0-8.3-3.7-8.3-8.3l0,0c0-4.6,3.7-8.3,8.3-8.3l0,0c4.6,0,8.3,3.7,8.3,8.3l0,0
	C333.4,262.5,329.6,266.3,325.1,266.3z"/>
<path class="st1" d="M167.2,469.6L167.2,469.6c-4.6,0-8.3-3.7-8.3-8.3v0c0-4.6,3.7-8.3,8.3-8.3h0c4.6,0,8.3,3.7,8.3,8.3v0
	C175.5,465.9,171.7,469.6,167.2,469.6z"/>
<path class="st1" d="M189.7,469.6L189.7,469.6c-4.6,0-8.3-3.7-8.3-8.3v0c0-4.6,3.7-8.3,8.3-8.3h0c4.6,0,8.3,3.7,8.3,8.3v0
	C198,465.9,194.3,469.6,189.7,469.6z"/>
<path class="st1" d="M212.3,469.6L212.3,469.6c-4.6,0-8.3-3.7-8.3-8.3v0c0-4.6,3.7-8.3,8.3-8.3h0c4.6,0,8.3,3.7,8.3,8.3v0
	C220.6,465.9,216.9,469.6,212.3,469.6z"/>
<path class="st1" d="M234.9,469.6L234.9,469.6c-4.6,0-8.3-3.7-8.3-8.3v0c0-4.6,3.7-8.3,8.3-8.3h0c4.6,0,8.3,3.7,8.3,8.3v0
	C243.2,465.9,239.4,469.6,234.9,469.6z"/>
<path class="st1" d="M257.5,469.6L257.5,469.6c-4.6,0-8.3-3.7-8.3-8.3v0c0-4.6,3.7-8.3,8.3-8.3l0,0c4.6,0,8.3,3.7,8.3,8.3v0
	C265.7,465.9,262,469.6,257.5,469.6z"/>
<path class="st1" d="M280,469.6L280,469.6c-4.6,0-8.3-3.7-8.3-8.3v0c0-4.6,3.7-8.3,8.3-8.3h0c4.6,0,8.3,3.7,8.3,8.3v0
	C288.3,465.9,284.6,469.6,280,469.6z"/>
<path class="st1" d="M302.6,469.6L302.6,469.6c-4.6,0-8.3-3.7-8.3-8.3v0c0-4.6,3.7-8.3,8.3-8.3h0c4.6,0,8.3,3.7,8.3,8.3v0
	C310.9,465.9,307.2,469.6,302.6,469.6z"/>
<path class="st1" d="M325.2,469.6L325.2,469.6c-4.6,0-8.3-3.7-8.3-8.3v0c0-4.6,3.7-8.3,8.3-8.3l0,0c4.6,0,8.3,3.7,8.3,8.3v0
	C333.5,465.9,329.7,469.6,325.2,469.6z"/>
<path class="st1" d="M189.7,514.8L189.7,514.8c-4.6,0-8.3-3.7-8.3-8.3v0c0-4.6,3.7-8.3,8.3-8.3h0c4.6,0,8.3,3.7,8.3,8.3v0
	C198,511,194.3,514.8,189.7,514.8z"/>
<path class="st1" d="M212.3,514.8L212.3,514.8c-4.6,0-8.3-3.7-8.3-8.3v0c0-4.6,3.7-8.3,8.3-8.3h0c4.6,0,8.3,3.7,8.3,8.3v0
	C220.6,511,216.8,514.8,212.3,514.8z"/>
<path class="st1" d="M234.9,514.8L234.9,514.8c-4.6,0-8.3-3.7-8.3-8.3v0c0-4.6,3.7-8.3,8.3-8.3h0c4.6,0,8.3,3.7,8.3,8.3v0
	C243.1,511,239.4,514.8,234.9,514.8z"/>
<path class="st1" d="M257.4,514.8L257.4,514.8c-4.6,0-8.3-3.7-8.3-8.3v0c0-4.6,3.7-8.3,8.3-8.3l0,0c4.6,0,8.3,3.7,8.3,8.3v0
	C265.7,511,262,514.8,257.4,514.8z"/>
<path class="st1" d="M280,514.8L280,514.8c-4.6,0-8.3-3.7-8.3-8.3v0c0-4.6,3.7-8.3,8.3-8.3l0,0c4.6,0,8.3,3.7,8.3,8.3v0
	C288.3,511,284.6,514.8,280,514.8z"/>
<path class="st1" d="M302.6,514.8L302.6,514.8c-4.6,0-8.3-3.7-8.3-8.3v0c0-4.6,3.7-8.3,8.3-8.3l0,0c4.6,0,8.3,3.7,8.3,8.3v0
	C310.9,511,307.1,514.8,302.6,514.8z"/>
<path class="st1" d="M325.1,514.8L325.1,514.8c-4.6,0-8.3-3.7-8.3-8.3v0c0-4.6,3.7-8.3,8.3-8.3h0c4.6,0,8.3,3.7,8.3,8.3v0
	C333.4,511,329.7,514.8,325.1,514.8z"/>
<path class="st1" d="M167.2,492.2L167.2,492.2c-4.6,0-8.3-3.7-8.3-8.3v0c0-4.6,3.7-8.3,8.3-8.3h0c4.6,0,8.3,3.7,8.3,8.3v0
	C175.4,488.5,171.7,492.2,167.2,492.2z"/>
<path class="st1" d="M189.7,492.2L189.7,492.2c-4.6,0-8.3-3.7-8.3-8.3v0c0-4.6,3.7-8.3,8.3-8.3h0c4.6,0,8.3,3.7,8.3,8.3v0
	C198,488.5,194.3,492.2,189.7,492.2z"/>
<path class="st1" d="M212.3,492.2L212.3,492.2c-4.6,0-8.3-3.7-8.3-8.3v0c0-4.6,3.7-8.3,8.3-8.3h0c4.6,0,8.3,3.7,8.3,8.3v0
	C220.6,488.5,216.8,492.2,212.3,492.2z"/>
<path class="st1" d="M234.9,492.2L234.9,492.2c-4.6,0-8.3-3.7-8.3-8.3v0c0-4.6,3.7-8.3,8.3-8.3h0c4.6,0,8.3,3.7,8.3,8.3v0
	C243.1,488.5,239.4,492.2,234.9,492.2z"/>
<path class="st1" d="M257.4,492.2L257.4,492.2c-4.6,0-8.3-3.7-8.3-8.3v0c0-4.6,3.7-8.3,8.3-8.3l0,0c4.6,0,8.3,3.7,8.3,8.3v0
	C265.7,488.5,262,492.2,257.4,492.2z"/>
<path class="st1" d="M280,492.2L280,492.2c-4.6,0-8.3-3.7-8.3-8.3v0c0-4.6,3.7-8.3,8.3-8.3l0,0c4.6,0,8.3,3.7,8.3,8.3v0
	C288.3,488.5,284.6,492.2,280,492.2z"/>
<path class="st1" d="M302.6,492.2L302.6,492.2c-4.6,0-8.3-3.7-8.3-8.3v0c0-4.6,3.7-8.3,8.3-8.3l0,0c4.6,0,8.3,3.7,8.3,8.3v0
	C310.9,488.5,307.1,492.2,302.6,492.2z"/>
<path class="st1" d="M325.1,492.2L325.1,492.2c-4.6,0-8.3-3.7-8.3-8.3v0c0-4.6,3.7-8.3,8.3-8.3h0c4.6,0,8.3,3.7,8.3,8.3v0
	C333.4,488.5,329.7,492.2,325.1,492.2z"/>
<path class="st1" d="M257.5,537.3L257.5,537.3c-4.6,0-8.3-3.7-8.3-8.3v0c0-4.6,3.7-8.3,8.3-8.3l0,0c4.6,0,8.3,3.7,8.3,8.3v0
	C265.7,533.6,262,537.3,257.5,537.3z"/>
<path class="st1" d="M280,537.3L280,537.3c-4.6,0-8.3-3.7-8.3-8.3v0c0-4.6,3.7-8.3,8.3-8.3h0c4.6,0,8.3,3.7,8.3,8.3v0
	C288.3,533.6,284.6,537.3,280,537.3z"/>
<path class="st1" d="M302.6,537.3L302.6,537.3c-4.6,0-8.3-3.7-8.3-8.3v0c0-4.6,3.7-8.3,8.3-8.3h0c4.6,0,8.3,3.7,8.3,8.3v0
	C310.9,533.6,307.2,537.3,302.6,537.3z"/>
<path class="st1" d="M325.2,537.3L325.2,537.3c-4.6,0-8.3-3.7-8.3-8.3v0c0-4.6,3.7-8.3,8.3-8.3l0,0c4.6,0,8.3,3.7,8.3,8.3v0
	C333.5,533.6,329.7,537.3,325.2,537.3z"/>
<path class="st1" d="M234.8,311.5L234.8,311.5c-4.6,0-8.3-3.7-8.3-8.3v0c0-4.6,3.7-8.3,8.3-8.3h0c4.6,0,8.3,3.7,8.3,8.3v0
	C243.1,307.7,239.4,311.5,234.8,311.5z"/>
<path class="st1" d="M257.4,311.5L257.4,311.5c-4.6,0-8.3-3.7-8.3-8.3v0c0-4.6,3.7-8.3,8.3-8.3h0c4.6,0,8.3,3.7,8.3,8.3v0
	C265.7,307.7,261.9,311.5,257.4,311.5z"/>
<path class="st1" d="M279.9,311.5L279.9,311.5c-4.6,0-8.3-3.7-8.3-8.3v0c0-4.6,3.7-8.3,8.3-8.3h0c4.6,0,8.3,3.7,8.3,8.3v0
	C288.2,307.7,284.5,311.5,279.9,311.5z"/>
<path class="st1" d="M302.5,311.5L302.5,311.5c-4.6,0-8.3-3.7-8.3-8.3v0c0-4.6,3.7-8.3,8.3-8.3l0,0c4.6,0,8.3,3.7,8.3,8.3v0
	C310.8,307.7,307.1,311.5,302.5,311.5z"/>
<path class="st1" d="M325.1,311.5L325.1,311.5c-4.6,0-8.3-3.7-8.3-8.3v0c0-4.6,3.7-8.3,8.3-8.3l0,0c4.6,0,8.3,3.7,8.3,8.3v0
	C333.4,307.7,329.6,311.5,325.1,311.5z"/>
<path class="st1" d="M167.1,63.1L167.1,63.1c-4.6,0-8.3-3.7-8.3-8.3v0c0-4.6,3.7-8.3,8.3-8.3h0c4.6,0,8.3,3.7,8.3,8.3v0
	C175.4,59.4,171.7,63.1,167.1,63.1z"/>
<path class="st1" d="M189.7,63.1L189.7,63.1c-4.6,0-8.3-3.7-8.3-8.3v0c0-4.6,3.7-8.3,8.3-8.3h0c4.6,0,8.3,3.7,8.3,8.3v0
	C198,59.4,194.2,63.1,189.7,63.1z"/>
<path class="st1" d="M212.3,63.1L212.3,63.1c-4.6,0-8.3-3.7-8.3-8.3v0c0-4.6,3.7-8.3,8.3-8.3h0c4.6,0,8.3,3.7,8.3,8.3v0
	C220.5,59.4,216.8,63.1,212.3,63.1z"/>
<path class="st1" d="M234.8,63.1L234.8,63.1c-4.6,0-8.3-3.7-8.3-8.3v0c0-4.6,3.7-8.3,8.3-8.3h0c4.6,0,8.3,3.7,8.3,8.3v0
	C243.1,59.4,239.4,63.1,234.8,63.1z"/>
<path class="st1" d="M77,108.3L77,108.3c-4.6,0-8.3-3.7-8.3-8.3v0c0-4.6,3.7-8.3,8.3-8.3h0c4.6,0,8.3,3.7,8.3,8.3v0
	C85.3,104.6,81.6,108.3,77,108.3z"/>
<path class="st1" d="M99.6,108.3L99.6,108.3c-4.6,0-8.3-3.7-8.3-8.3v0c0-4.6,3.7-8.3,8.3-8.3h0c4.6,0,8.3,3.7,8.3,8.3v0
	C107.9,104.6,104.1,108.3,99.6,108.3z"/>
<path class="st1" d="M122.2,108.3L122.2,108.3c-4.6,0-8.3-3.7-8.3-8.3v0c0-4.6,3.7-8.3,8.3-8.3h0c4.6,0,8.3,3.7,8.3,8.3v0
	C130.4,104.6,126.7,108.3,122.2,108.3z"/>
<path class="st1" d="M144.7,108.3L144.7,108.3c-4.6,0-8.3-3.7-8.3-8.3v0c0-4.6,3.7-8.3,8.3-8.3h0c4.6,0,8.3,3.7,8.3,8.3v0
	C153,104.6,149.3,108.3,144.7,108.3z"/>
<path class="st1" d="M77,85.7L77,85.7c-4.6,0-8.3-3.7-8.3-8.3v0c0-4.6,3.7-8.3,8.3-8.3h0c4.6,0,8.3,3.7,8.3,8.3v0
	C85.3,82,81.6,85.7,77,85.7z"/>
<path class="st1" d="M99.6,85.7L99.6,85.7c-4.6,0-8.3-3.7-8.3-8.3v0c0-4.6,3.7-8.3,8.3-8.3h0c4.6,0,8.3,3.7,8.3,8.3v0
	C107.9,82,104.1,85.7,99.6,85.7z"/>
<path class="st1" d="M122.2,85.7L122.2,85.7c-4.6,0-8.3-3.7-8.3-8.3v0c0-4.6,3.7-8.3,8.3-8.3h0c4.6,0,8.3,3.7,8.3,8.3v0
	C130.4,82,126.7,85.7,122.2,85.7z"/>
<path class="st1" d="M144.7,85.7L144.7,85.7c-4.6,0-8.3-3.7-8.3-8.3v0c0-4.6,3.7-8.3,8.3-8.3h0c4.6,0,8.3,3.7,8.3,8.3v0
	C153,82,149.3,85.7,144.7,85.7z"/>
<path class="st1" d="M77,153.4L77,153.4c-4.6,0-8.3-3.7-8.3-8.3v0c0-4.6,3.7-8.3,8.3-8.3h0c4.6,0,8.3,3.7,8.3,8.3v0
	C85.3,149.7,81.6,153.4,77,153.4z"/>
<path class="st1" d="M99.6,153.4L99.6,153.4c-4.6,0-8.3-3.7-8.3-8.3v0c0-4.6,3.7-8.3,8.3-8.3h0c4.6,0,8.3,3.7,8.3,8.3v0
	C107.9,149.7,104.2,153.4,99.6,153.4z"/>
<path class="st1" d="M122.2,153.4L122.2,153.4c-4.6,0-8.3-3.7-8.3-8.3v0c0-4.6,3.7-8.3,8.3-8.3h0c4.6,0,8.3,3.7,8.3,8.3v0
	C130.5,149.7,126.7,153.4,122.2,153.4z"/>
<path class="st1" d="M144.8,153.4L144.8,153.4c-4.6,0-8.3-3.7-8.3-8.3v0c0-4.6,3.7-8.3,8.3-8.3h0c4.6,0,8.3,3.7,8.3,8.3v0
	C153,149.7,149.3,153.4,144.8,153.4z"/>
<path class="st1" d="M77,130.9L77,130.9c-4.6,0-8.3-3.7-8.3-8.3v0c0-4.6,3.7-8.3,8.3-8.3h0c4.6,0,8.3,3.7,8.3,8.3v0
	C85.3,127.1,81.6,130.9,77,130.9z"/>
<path class="st1" d="M99.6,130.9L99.6,130.9c-4.6,0-8.3-3.7-8.3-8.3v0c0-4.6,3.7-8.3,8.3-8.3h0c4.6,0,8.3,3.7,8.3,8.3v0
	C107.9,127.1,104.2,130.9,99.6,130.9z"/>
<path class="st1" d="M122.2,130.9L122.2,130.9c-4.6,0-8.3-3.7-8.3-8.3v0c0-4.6,3.7-8.3,8.3-8.3h0c4.6,0,8.3,3.7,8.3,8.3v0
	C130.5,127.1,126.7,130.9,122.2,130.9z"/>
<path class="st1" d="M144.8,130.9L144.8,130.9c-4.6,0-8.3-3.7-8.3-8.3v0c0-4.6,3.7-8.3,8.3-8.3h0c4.6,0,8.3,3.7,8.3,8.3v0
	C153,127.1,149.3,130.9,144.8,130.9z"/>
<path class="st1" d="M99.6,176L99.6,176c-4.6,0-8.3-3.7-8.3-8.3v0c0-4.6,3.7-8.3,8.3-8.3h0c4.6,0,8.3,3.7,8.3,8.3v0
	C107.9,172.3,104.2,176,99.6,176z"/>
<path class="st1" d="M122.2,176L122.2,176c-4.6,0-8.3-3.7-8.3-8.3v0c0-4.6,3.7-8.3,8.3-8.3h0c4.6,0,8.3,3.7,8.3,8.3v0
	C130.5,172.3,126.8,176,122.2,176z"/>
<path class="st1" d="M144.8,176L144.8,176c-4.6,0-8.3-3.7-8.3-8.3v0c0-4.6,3.7-8.3,8.3-8.3h0c4.6,0,8.3,3.7,8.3,8.3v0
	C153.1,172.3,149.3,176,144.8,176z"/>
<path class="st1" d="M122.2,221.1L122.2,221.1c-4.6,0-8.3-3.7-8.3-8.3v0c0-4.6,3.7-8.3,8.3-8.3h0c4.6,0,8.3,3.7,8.3,8.3v0
	C130.5,217.4,126.7,221.1,122.2,221.1z"/>
<path class="st1" d="M144.7,221.1L144.7,221.1c-4.6,0-8.3-3.7-8.3-8.3v0c0-4.6,3.7-8.3,8.3-8.3h0c4.6,0,8.3,3.7,8.3,8.3v0
	C153,217.4,149.3,221.1,144.7,221.1z"/>
<path class="st1" d="M122.2,198.6L122.2,198.6c-4.6,0-8.3-3.7-8.3-8.3v0c0-4.6,3.7-8.3,8.3-8.3h0c4.6,0,8.3,3.7,8.3,8.3v0
	C130.5,194.8,126.7,198.6,122.2,198.6z"/>
<path class="st1" d="M144.7,198.6L144.7,198.6c-4.6,0-8.3-3.7-8.3-8.3v0c0-4.6,3.7-8.3,8.3-8.3h0c4.6,0,8.3,3.7,8.3,8.3v0
	C153,194.8,149.3,198.6,144.7,198.6z"/>
<path class="st1" d="M77.1,469.6L77.1,469.6c-4.6,0-8.3-3.7-8.3-8.3v0c0-4.6,3.7-8.3,8.3-8.3h0c4.6,0,8.3,3.7,8.3,8.3v0
	C85.4,465.9,81.6,469.6,77.1,469.6z"/>
<path class="st1" d="M99.6,469.6L99.6,469.6c-4.6,0-8.3-3.7-8.3-8.3v0c0-4.6,3.7-8.3,8.3-8.3h0c4.6,0,8.3,3.7,8.3,8.3v0
	C107.9,465.9,104.2,469.6,99.6,469.6z"/>
<path class="st1" d="M122.2,469.6L122.2,469.6c-4.6,0-8.3-3.7-8.3-8.3v0c0-4.6,3.7-8.3,8.3-8.3h0c4.6,0,8.3,3.7,8.3,8.3v0
	C130.5,465.9,126.8,469.6,122.2,469.6z"/>
<path class="st1" d="M8.3,469.6L8.3,469.6c-4.6,0-8.3-3.7-8.3-8.3v0c0-4.6,3.7-8.3,8.3-8.3h0c4.6,0,8.3,3.7,8.3,8.3v0
	C16.6,465.9,12.8,469.6,8.3,469.6z"/>
<path class="st1" d="M30.9,469.6L30.9,469.6c-4.6,0-8.3-3.7-8.3-8.3v0c0-4.6,3.7-8.3,8.3-8.3h0c4.6,0,8.3,3.7,8.3,8.3v0
	C39.1,465.9,35.4,469.6,30.9,469.6z"/>
<path class="st1" d="M53.4,469.6L53.4,469.6c-4.6,0-8.3-3.7-8.3-8.3v0c0-4.6,3.7-8.3,8.3-8.3h0c4.6,0,8.3,3.7,8.3,8.3v0
	C61.7,465.9,58,469.6,53.4,469.6z"/>
<path class="st1" d="M77.1,492.2L77.1,492.2c-4.6,0-8.3-3.7-8.3-8.3l0,0c0-4.6,3.7-8.3,8.3-8.3h0c4.6,0,8.3,3.7,8.3,8.3l0,0
	C85.4,488.5,81.6,492.2,77.1,492.2z"/>
<path class="st1" d="M99.6,492.2L99.6,492.2c-4.6,0-8.3-3.7-8.3-8.3l0,0c0-4.6,3.7-8.3,8.3-8.3h0c4.6,0,8.3,3.7,8.3,8.3l0,0
	C107.9,488.5,104.2,492.2,99.6,492.2z"/>
<path class="st1" d="M8.3,492.2L8.3,492.2c-4.6,0-8.3-3.7-8.3-8.3l0,0c0-4.6,3.7-8.3,8.3-8.3h0c4.6,0,8.3,3.7,8.3,8.3l0,0
	C16.6,488.5,12.8,492.2,8.3,492.2z"/>
<path class="st1" d="M30.9,492.2L30.9,492.2c-4.6,0-8.3-3.7-8.3-8.3l0,0c0-4.6,3.7-8.3,8.3-8.3h0c4.6,0,8.3,3.7,8.3,8.3l0,0
	C39.1,488.5,35.4,492.2,30.9,492.2z"/>
<path class="st1" d="M53.4,492.2L53.4,492.2c-4.6,0-8.3-3.7-8.3-8.3l0,0c0-4.6,3.7-8.3,8.3-8.3h0c4.6,0,8.3,3.7,8.3,8.3l0,0
	C61.7,488.5,58,492.2,53.4,492.2z"/>
<path class="st1" d="M77.1,514.8L77.1,514.8c-4.6,0-8.3-3.7-8.3-8.3v0c0-4.6,3.7-8.3,8.3-8.3h0c4.6,0,8.3,3.7,8.3,8.3v0
	C85.4,511.1,81.6,514.8,77.1,514.8z"/>
<path class="st1" d="M99.6,514.8L99.6,514.8c-4.6,0-8.3-3.7-8.3-8.3v0c0-4.6,3.7-8.3,8.3-8.3h0c4.6,0,8.3,3.7,8.3,8.3v0
	C107.9,511.1,104.2,514.8,99.6,514.8z"/>
<path class="st1" d="M8.3,514.8L8.3,514.8c-4.6,0-8.3-3.7-8.3-8.3v0c0-4.6,3.7-8.3,8.3-8.3h0c4.6,0,8.3,3.7,8.3,8.3v0
	C16.6,511.1,12.8,514.8,8.3,514.8z"/>
<path class="st1" d="M30.9,514.8L30.9,514.8c-4.6,0-8.3-3.7-8.3-8.3v0c0-4.6,3.7-8.3,8.3-8.3h0c4.6,0,8.3,3.7,8.3,8.3v0
	C39.1,511.1,35.4,514.8,30.9,514.8z"/>
<path class="st1" d="M53.4,514.8L53.4,514.8c-4.6,0-8.3-3.7-8.3-8.3v0c0-4.6,3.7-8.3,8.3-8.3h0c4.6,0,8.3,3.7,8.3,8.3v0
	C61.7,511.1,58,514.8,53.4,514.8z"/>
<path class="st1" d="M145.8,514.8L145.8,514.8c-4.6,0-8.3-3.7-8.3-8.3v0c0-4.6,3.7-8.3,8.3-8.3h0c4.6,0,8.3,3.7,8.3,8.3v0
	C154.1,511.1,150.4,514.8,145.8,514.8z"/>
<path class="st1" d="M168.4,514.8L168.4,514.8c-4.6,0-8.3-3.7-8.3-8.3v0c0-4.6,3.7-8.3,8.3-8.3h0c4.6,0,8.3,3.7,8.3,8.3v0
	C176.7,511.1,173,514.8,168.4,514.8z"/>
<path class="st1" d="M122.2,514.8L122.2,514.8c-4.6,0-8.3-3.7-8.3-8.3v0c0-4.6,3.7-8.3,8.3-8.3h0c4.6,0,8.3,3.7,8.3,8.3v0
	C130.5,511.1,126.7,514.8,122.2,514.8z"/>
<path class="st1" d="M77.1,537.4L77.1,537.4c-4.6,0-8.3-3.7-8.3-8.3l0,0c0-4.6,3.7-8.3,8.3-8.3h0c4.6,0,8.3,3.7,8.3,8.3l0,0
	C85.4,533.7,81.6,537.4,77.1,537.4z"/>
<path class="st1" d="M99.6,537.4L99.6,537.4c-4.6,0-8.3-3.7-8.3-8.3l0,0c0-4.6,3.7-8.3,8.3-8.3h0c4.6,0,8.3,3.7,8.3,8.3l0,0
	C107.9,533.7,104.2,537.4,99.6,537.4z"/>
<path class="st1" d="M8.3,537.4L8.3,537.4c-4.6,0-8.3-3.7-8.3-8.3l0,0c0-4.6,3.7-8.3,8.3-8.3h0c4.6,0,8.3,3.7,8.3,8.3l0,0
	C16.6,533.7,12.8,537.4,8.3,537.4z"/>
<path class="st1" d="M30.9,537.4L30.9,537.4c-4.6,0-8.3-3.7-8.3-8.3l0,0c0-4.6,3.7-8.3,8.3-8.3h0c4.6,0,8.3,3.7,8.3,8.3l0,0
	C39.1,533.7,35.4,537.4,30.9,537.4z"/>
<path class="st1" d="M53.4,537.4L53.4,537.4c-4.6,0-8.3-3.7-8.3-8.3l0,0c0-4.6,3.7-8.3,8.3-8.3h0c4.6,0,8.3,3.7,8.3,8.3l0,0
	C61.7,533.7,58,537.4,53.4,537.4z"/>
<path class="st1" d="M145.8,537.4L145.8,537.4c-4.6,0-8.3-3.7-8.3-8.3l0,0c0-4.6,3.7-8.3,8.3-8.3h0c4.6,0,8.3,3.7,8.3,8.3l0,0
	C154.1,533.7,150.4,537.4,145.8,537.4z"/>
<path class="st1" d="M168.4,537.4L168.4,537.4c-4.6,0-8.3-3.7-8.3-8.3l0,0c0-4.6,3.7-8.3,8.3-8.3h0c4.6,0,8.3,3.7,8.3,8.3l0,0
	C176.7,533.7,173,537.4,168.4,537.4z"/>
<path class="st1" d="M122.2,537.4L122.2,537.4c-4.6,0-8.3-3.7-8.3-8.3l0,0c0-4.6,3.7-8.3,8.3-8.3h0c4.6,0,8.3,3.7,8.3,8.3l0,0
	C130.5,533.7,126.7,537.4,122.2,537.4z"/>
<path class="st1" d="M212.4,537.4L212.4,537.4c-4.6,0-8.3-3.7-8.3-8.3l0,0c0-4.6,3.7-8.3,8.3-8.3h0c4.6,0,8.3,3.7,8.3,8.3l0,0
	C220.7,533.7,217,537.4,212.4,537.4z"/>
<path class="st1" d="M235,537.4L235,537.4c-4.6,0-8.3-3.7-8.3-8.3l0,0c0-4.6,3.7-8.3,8.3-8.3h0c4.6,0,8.3,3.7,8.3,8.3l0,0
	C243.3,533.7,239.5,537.4,235,537.4z"/>
<path class="st1" d="M189.8,537.4L189.8,537.4c-4.6,0-8.3-3.7-8.3-8.3l0,0c0-4.6,3.7-8.3,8.3-8.3h0c4.6,0,8.3,3.7,8.3,8.3l0,0
	C198.1,533.7,194.3,537.4,189.8,537.4z"/>
<path class="st1" d="M257.5,559.9L257.5,559.9c-4.6,0-8.3-3.7-8.3-8.3l0,0c0-4.6,3.7-8.3,8.3-8.3l0,0c4.6,0,8.3,3.7,8.3,8.3l0,0
	C265.7,556.2,262,559.9,257.5,559.9z"/>
<path class="st1" d="M280,559.9L280,559.9c-4.6,0-8.3-3.7-8.3-8.3l0,0c0-4.6,3.7-8.3,8.3-8.3h0c4.6,0,8.3,3.7,8.3,8.3l0,0
	C288.3,556.2,284.6,559.9,280,559.9z"/>
<path class="st1" d="M302.6,559.9L302.6,559.9c-4.6,0-8.3-3.7-8.3-8.3l0,0c0-4.6,3.7-8.3,8.3-8.3h0c4.6,0,8.3,3.7,8.3,8.3l0,0
	C310.9,556.2,307.2,559.9,302.6,559.9z"/>
<path class="st1" d="M325.2,559.9L325.2,559.9c-4.6,0-8.3-3.7-8.3-8.3l0,0c0-4.6,3.7-8.3,8.3-8.3l0,0c4.6,0,8.3,3.7,8.3,8.3l0,0
	C333.5,556.2,329.7,559.9,325.2,559.9z"/>
<path class="st1" d="M77.1,560L77.1,560c-4.6,0-8.3-3.7-8.3-8.3v0c0-4.6,3.7-8.3,8.3-8.3h0c4.6,0,8.3,3.7,8.3,8.3v0
	C85.4,556.3,81.6,560,77.1,560z"/>
<path class="st1" d="M99.6,560L99.6,560c-4.6,0-8.3-3.7-8.3-8.3v0c0-4.6,3.7-8.3,8.3-8.3h0c4.6,0,8.3,3.7,8.3,8.3v0
	C107.9,556.3,104.2,560,99.6,560z"/>
<path class="st1" d="M8.3,560L8.3,560c-4.6,0-8.3-3.7-8.3-8.3v0c0-4.6,3.7-8.3,8.3-8.3h0c4.6,0,8.3,3.7,8.3,8.3v0
	C16.6,556.3,12.8,560,8.3,560z"/>
<path class="st1" d="M30.9,560L30.9,560c-4.6,0-8.3-3.7-8.3-8.3v0c0-4.6,3.7-8.3,8.3-8.3h0c4.6,0,8.3,3.7,8.3,8.3v0
	C39.1,556.3,35.4,560,30.9,560z"/>
<path class="st1" d="M53.4,560L53.4,560c-4.6,0-8.3-3.7-8.3-8.3v0c0-4.6,3.7-8.3,8.3-8.3h0c4.6,0,8.3,3.7,8.3,8.3v0
	C61.7,556.3,58,560,53.4,560z"/>
<path class="st1" d="M145.8,560L145.8,560c-4.6,0-8.3-3.7-8.3-8.3v0c0-4.6,3.7-8.3,8.3-8.3h0c4.6,0,8.3,3.7,8.3,8.3v0
	C154.1,556.3,150.4,560,145.8,560z"/>
<path class="st1" d="M168.4,560L168.4,560c-4.6,0-8.3-3.7-8.3-8.3v0c0-4.6,3.7-8.3,8.3-8.3h0c4.6,0,8.3,3.7,8.3,8.3v0
	C176.7,556.3,173,560,168.4,560z"/>
<path class="st1" d="M122.2,560L122.2,560c-4.6,0-8.3-3.7-8.3-8.3v0c0-4.6,3.7-8.3,8.3-8.3h0c4.6,0,8.3,3.7,8.3,8.3v0
	C130.5,556.3,126.7,560,122.2,560z"/>
<path class="st1" d="M212.4,560L212.4,560c-4.6,0-8.3-3.7-8.3-8.3v0c0-4.6,3.7-8.3,8.3-8.3h0c4.6,0,8.3,3.7,8.3,8.3v0
	C220.7,556.3,217,560,212.4,560z"/>
<path class="st1" d="M235,560L235,560c-4.6,0-8.3-3.7-8.3-8.3v0c0-4.6,3.7-8.3,8.3-8.3h0c4.6,0,8.3,3.7,8.3,8.3v0
	C243.3,556.3,239.5,560,235,560z"/>
<path class="st1" d="M189.8,560L189.8,560c-4.6,0-8.3-3.7-8.3-8.3v0c0-4.6,3.7-8.3,8.3-8.3h0c4.6,0,8.3,3.7,8.3,8.3v0
	C198.1,556.3,194.3,560,189.8,560z"/>
<path class="st1" d="M257.5,582.5L257.5,582.5c-4.6,0-8.3-3.7-8.3-8.3l0,0c0-4.6,3.7-8.3,8.3-8.3l0,0c4.6,0,8.3,3.7,8.3,8.3l0,0
	C265.7,578.8,262,582.5,257.5,582.5z"/>
<path class="st1" d="M280,582.5L280,582.5c-4.6,0-8.3-3.7-8.3-8.3l0,0c0-4.6,3.7-8.3,8.3-8.3h0c4.6,0,8.3,3.7,8.3,8.3l0,0
	C288.3,578.8,284.6,582.5,280,582.5z"/>
<path class="st1" d="M302.6,582.5L302.6,582.5c-4.6,0-8.3-3.7-8.3-8.3l0,0c0-4.6,3.7-8.3,8.3-8.3h0c4.6,0,8.3,3.7,8.3,8.3l0,0
	C310.9,578.8,307.2,582.5,302.6,582.5z"/>
<path class="st1" d="M325.2,582.5L325.2,582.5c-4.6,0-8.3-3.7-8.3-8.3l0,0c0-4.6,3.7-8.3,8.3-8.3l0,0c4.6,0,8.3,3.7,8.3,8.3l0,0
	C333.5,578.8,329.7,582.5,325.2,582.5z"/>
<path class="st1" d="M77.1,582.6L77.1,582.6c-4.6,0-8.3-3.7-8.3-8.3v0c0-4.6,3.7-8.3,8.3-8.3h0c4.6,0,8.3,3.7,8.3,8.3v0
	C85.4,578.8,81.6,582.6,77.1,582.6z"/>
<path class="st1" d="M99.6,582.6L99.6,582.6c-4.6,0-8.3-3.7-8.3-8.3v0c0-4.6,3.7-8.3,8.3-8.3h0c4.6,0,8.3,3.7,8.3,8.3v0
	C107.9,578.8,104.2,582.6,99.6,582.6z"/>
<path class="st1" d="M8.3,582.6L8.3,582.6c-4.6,0-8.3-3.7-8.3-8.3v0c0-4.6,3.7-8.3,8.3-8.3h0c4.6,0,8.3,3.7,8.3,8.3v0
	C16.6,578.8,12.8,582.6,8.3,582.6z"/>
<path class="st1" d="M30.9,582.6L30.9,582.6c-4.6,0-8.3-3.7-8.3-8.3v0c0-4.6,3.7-8.3,8.3-8.3h0c4.6,0,8.3,3.7,8.3,8.3v0
	C39.1,578.8,35.4,582.6,30.9,582.6z"/>
<path class="st1" d="M53.4,582.6L53.4,582.6c-4.6,0-8.3-3.7-8.3-8.3v0c0-4.6,3.7-8.3,8.3-8.3h0c4.6,0,8.3,3.7,8.3,8.3v0
	C61.7,578.8,58,582.6,53.4,582.6z"/>
<path class="st1" d="M145.8,582.6L145.8,582.6c-4.6,0-8.3-3.7-8.3-8.3v0c0-4.6,3.7-8.3,8.3-8.3h0c4.6,0,8.3,3.7,8.3,8.3v0
	C154.1,578.8,150.4,582.6,145.8,582.6z"/>
<path class="st1" d="M168.4,582.6L168.4,582.6c-4.6,0-8.3-3.7-8.3-8.3v0c0-4.6,3.7-8.3,8.3-8.3h0c4.6,0,8.3,3.7,8.3,8.3v0
	C176.7,578.8,173,582.6,168.4,582.6z"/>
<path class="st1" d="M122.2,582.6L122.2,582.6c-4.6,0-8.3-3.7-8.3-8.3v0c0-4.6,3.7-8.3,8.3-8.3h0c4.6,0,8.3,3.7,8.3,8.3v0
	C130.5,578.8,126.7,582.6,122.2,582.6z"/>
<path class="st1" d="M212.4,582.6L212.4,582.6c-4.6,0-8.3-3.7-8.3-8.3v0c0-4.6,3.7-8.3,8.3-8.3h0c4.6,0,8.3,3.7,8.3,8.3v0
	C220.7,578.8,217,582.6,212.4,582.6z"/>
<path class="st1" d="M235,582.6L235,582.6c-4.6,0-8.3-3.7-8.3-8.3v0c0-4.6,3.7-8.3,8.3-8.3h0c4.6,0,8.3,3.7,8.3,8.3v0
	C243.3,578.8,239.5,582.6,235,582.6z"/>
<path class="st1" d="M189.8,582.6L189.8,582.6c-4.6,0-8.3-3.7-8.3-8.3v0c0-4.6,3.7-8.3,8.3-8.3h0c4.6,0,8.3,3.7,8.3,8.3v0
	C198.1,578.8,194.3,582.6,189.8,582.6z"/>
<path class="st1" d="M257.5,605.1L257.5,605.1c-4.6,0-8.3-3.7-8.3-8.3l0,0c0-4.6,3.7-8.3,8.3-8.3l0,0c4.6,0,8.3,3.7,8.3,8.3l0,0
	C265.7,601.4,262,605.1,257.5,605.1z"/>
<path class="st1" d="M280,605.1L280,605.1c-4.6,0-8.3-3.7-8.3-8.3l0,0c0-4.6,3.7-8.3,8.3-8.3h0c4.6,0,8.3,3.7,8.3,8.3l0,0
	C288.3,601.4,284.6,605.1,280,605.1z"/>
<path class="st1" d="M302.6,605.1L302.6,605.1c-4.6,0-8.3-3.7-8.3-8.3l0,0c0-4.6,3.7-8.3,8.3-8.3h0c4.6,0,8.3,3.7,8.3,8.3l0,0
	C310.9,601.4,307.2,605.1,302.6,605.1z"/>
<path class="st1" d="M325.2,605.1L325.2,605.1c-4.6,0-8.3-3.7-8.3-8.3l0,0c0-4.6,3.7-8.3,8.3-8.3l0,0c4.6,0,8.3,3.7,8.3,8.3l0,0
	C333.5,601.4,329.7,605.1,325.2,605.1z"/>
<path class="st1" d="M77.1,605.1L77.1,605.1c-4.6,0-8.3-3.7-8.3-8.3v0c0-4.6,3.7-8.3,8.3-8.3h0c4.6,0,8.3,3.7,8.3,8.3v0
	C85.4,601.4,81.6,605.1,77.1,605.1z"/>
<path class="st1" d="M99.6,605.1L99.6,605.1c-4.6,0-8.3-3.7-8.3-8.3v0c0-4.6,3.7-8.3,8.3-8.3h0c4.6,0,8.3,3.7,8.3,8.3v0
	C107.9,601.4,104.2,605.1,99.6,605.1z"/>
<path class="st1" d="M8.3,605.1L8.3,605.1c-4.6,0-8.3-3.7-8.3-8.3v0c0-4.6,3.7-8.3,8.3-8.3h0c4.6,0,8.3,3.7,8.3,8.3v0
	C16.6,601.4,12.8,605.1,8.3,605.1z"/>
<path class="st1" d="M30.9,605.1L30.9,605.1c-4.6,0-8.3-3.7-8.3-8.3v0c0-4.6,3.7-8.3,8.3-8.3h0c4.6,0,8.3,3.7,8.3,8.3v0
	C39.1,601.4,35.4,605.1,30.9,605.1z"/>
<path class="st1" d="M53.4,605.1L53.4,605.1c-4.6,0-8.3-3.7-8.3-8.3v0c0-4.6,3.7-8.3,8.3-8.3h0c4.6,0,8.3,3.7,8.3,8.3v0
	C61.7,601.4,58,605.1,53.4,605.1z"/>
<path class="st1" d="M145.8,605.1L145.8,605.1c-4.6,0-8.3-3.7-8.3-8.3v0c0-4.6,3.7-8.3,8.3-8.3h0c4.6,0,8.3,3.7,8.3,8.3v0
	C154.1,601.4,150.4,605.1,145.8,605.1z"/>
<path class="st1" d="M168.4,605.1L168.4,605.1c-4.6,0-8.3-3.7-8.3-8.3v0c0-4.6,3.7-8.3,8.3-8.3h0c4.6,0,8.3,3.7,8.3,8.3v0
	C176.7,601.4,173,605.1,168.4,605.1z"/>
<path class="st1" d="M122.2,605.1L122.2,605.1c-4.6,0-8.3-3.7-8.3-8.3v0c0-4.6,3.7-8.3,8.3-8.3h0c4.6,0,8.3,3.7,8.3,8.3v0
	C130.5,601.4,126.7,605.1,122.2,605.1z"/>
<path class="st1" d="M212.4,605.1L212.4,605.1c-4.6,0-8.3-3.7-8.3-8.3v0c0-4.6,3.7-8.3,8.3-8.3h0c4.6,0,8.3,3.7,8.3,8.3v0
	C220.7,601.4,217,605.1,212.4,605.1z"/>
<path class="st1" d="M235,605.1L235,605.1c-4.6,0-8.3-3.7-8.3-8.3v0c0-4.6,3.7-8.3,8.3-8.3h0c4.6,0,8.3,3.7,8.3,8.3v0
	C243.3,601.4,239.5,605.1,235,605.1z"/>
<path class="st1" d="M189.8,605.1L189.8,605.1c-4.6,0-8.3-3.7-8.3-8.3v0c0-4.6,3.7-8.3,8.3-8.3h0c4.6,0,8.3,3.7,8.3,8.3v0
	C198.1,601.4,194.3,605.1,189.8,605.1z"/>
<path class="st1" d="M144.8,469.6L144.8,469.6c-4.6,0-8.3-3.7-8.3-8.3v0c0-4.6,3.7-8.3,8.3-8.3h0c4.6,0,8.3,3.7,8.3,8.3v0
	C153.1,465.9,149.3,469.6,144.8,469.6z"/>
<path class="st1" d="M122.2,492.2L122.2,492.2c-4.6,0-8.3-3.7-8.3-8.3v0c0-4.6,3.7-8.3,8.3-8.3h0c4.6,0,8.3,3.7,8.3,8.3v0
	C130.5,488.5,126.7,492.2,122.2,492.2z"/>
<path class="st1" d="M144.8,492.2L144.8,492.2c-4.6,0-8.3-3.7-8.3-8.3v0c0-4.6,3.7-8.3,8.3-8.3h0c4.6,0,8.3,3.7,8.3,8.3v0
	C153,488.5,149.3,492.2,144.8,492.2z"/>
<path class="st1" d="M77,63.1L77,63.1c-4.6,0-8.3-3.7-8.3-8.3v0c0-4.6,3.7-8.3,8.3-8.3h0c4.6,0,8.3,3.7,8.3,8.3v0
	C85.3,59.4,81.6,63.1,77,63.1z"/>
<path class="st1" d="M99.6,63.1L99.6,63.1c-4.6,0-8.3-3.7-8.3-8.3v0c0-4.6,3.7-8.3,8.3-8.3h0c4.6,0,8.3,3.7,8.3,8.3v0
	C107.9,59.4,104.1,63.1,99.6,63.1z"/>
<path class="st1" d="M54.4,108.3L54.4,108.3c-4.6,0-8.3-3.7-8.3-8.3v0c0-4.6,3.7-8.3,8.3-8.3h0c4.6,0,8.3,3.7,8.3,8.3v0
	C62.7,104.6,59,108.3,54.4,108.3z"/>
<path class="st1" d="M54.4,85.7L54.4,85.7c-4.6,0-8.3-3.7-8.3-8.3v0c0-4.6,3.7-8.3,8.3-8.3h0c4.6,0,8.3,3.7,8.3,8.3v0
	C62.7,82,59,85.7,54.4,85.7z"/>
<path class="st1" d="M31.9,63.1L31.9,63.1c-4.6,0-8.3-3.7-8.3-8.3v0c0-4.6,3.7-8.3,8.3-8.3h0c4.6,0,8.3,3.7,8.3,8.3v0
	C40.1,59.4,36.4,63.1,31.9,63.1z"/>
<path class="st1" d="M9.3,63.1L9.3,63.1c-4.6,0-8.3-3.7-8.3-8.3v0c0-4.6,3.7-8.3,8.3-8.3h0c4.6,0,8.3,3.7,8.3,8.3v0
	C17.6,59.4,13.8,63.1,9.3,63.1z"/>
<path class="st1" d="M31.9,85.7L31.9,85.7c-4.6,0-8.3-3.7-8.3-8.3v0c0-4.6,3.7-8.3,8.3-8.3h0c4.6,0,8.3,3.7,8.3,8.3v0
	C40.1,82,36.4,85.7,31.9,85.7z"/>
<path class="st1" d="M9.3,85.7L9.3,85.7C4.7,85.7,1,82,1,77.4v0c0-4.6,3.7-8.3,8.3-8.3h0c4.6,0,8.3,3.7,8.3,8.3v0
	C17.6,82,13.8,85.7,9.3,85.7z"/>
<path class="st1" d="M31.9,108.3L31.9,108.3c-4.6,0-8.3-3.7-8.3-8.3v0c0-4.6,3.7-8.3,8.3-8.3h0c4.6,0,8.3,3.7,8.3,8.3v0
	C40.1,104.6,36.4,108.3,31.9,108.3z"/>
<path class="st1" d="M9.3,108.3L9.3,108.3c-4.6,0-8.3-3.7-8.3-8.3v0c0-4.6,3.7-8.3,8.3-8.3h0c4.6,0,8.3,3.7,8.3,8.3v0
	C17.6,104.6,13.8,108.3,9.3,108.3z"/>
<path class="st1" d="M31.9,130.9L31.9,130.9c-4.6,0-8.3-3.7-8.3-8.3v0c0-4.6,3.7-8.3,8.3-8.3h0c4.6,0,8.3,3.7,8.3,8.3v0
	C40.1,127.2,36.4,130.9,31.9,130.9z"/>
<path class="st1" d="M54.4,130.9L54.4,130.9c-4.6,0-8.3-3.7-8.3-8.3v0c0-4.6,3.7-8.3,8.3-8.3h0c4.6,0,8.3,3.7,8.3,8.3v0
	C62.7,127.2,59,130.9,54.4,130.9z"/>
<path class="st1" d="M9.3,130.9L9.3,130.9c-4.6,0-8.3-3.7-8.3-8.3v0c0-4.6,3.7-8.3,8.3-8.3h0c4.6,0,8.3,3.7,8.3,8.3v0
	C17.6,127.2,13.8,130.9,9.3,130.9z"/>
<path class="st1" d="M31.9,153.4L31.9,153.4c-4.6,0-8.3-3.7-8.3-8.3v0c0-4.6,3.7-8.3,8.3-8.3h0c4.6,0,8.3,3.7,8.3,8.3v0
	C40.1,149.7,36.4,153.4,31.9,153.4z"/>
<path class="st1" d="M9.3,153.4L9.3,153.4c-4.6,0-8.3-3.7-8.3-8.3v0c0-4.6,3.7-8.3,8.3-8.3h0c4.6,0,8.3,3.7,8.3,8.3v0
	C17.6,149.7,13.8,153.4,9.3,153.4z"/>
<path class="st1" d="M31.9,176L31.9,176c-4.6,0-8.3-3.7-8.3-8.3v0c0-4.6,3.7-8.3,8.3-8.3h0c4.6,0,8.3,3.7,8.3,8.3v0
	C40.1,172.3,36.4,176,31.9,176z"/>
<path class="st1" d="M54.4,153.4L54.4,153.4c-4.6,0-8.3-3.7-8.3-8.3v0c0-4.6,3.7-8.3,8.3-8.3h0c4.6,0,8.3,3.7,8.3,8.3v0
	C62.7,149.7,59,153.4,54.4,153.4z"/>
<path class="st1" d="M54.4,176L54.4,176c-4.6,0-8.3-3.7-8.3-8.3v0c0-4.6,3.7-8.3,8.3-8.3h0c4.6,0,8.3,3.7,8.3,8.3v0
	C62.7,172.3,59,176,54.4,176z"/>
<path class="st1" d="M9.3,176L9.3,176c-4.6,0-8.3-3.7-8.3-8.3v0c0-4.6,3.7-8.3,8.3-8.3h0c4.6,0,8.3,3.7,8.3,8.3v0
	C17.6,172.3,13.8,176,9.3,176z"/>
<path class="st1" d="M31.9,198.6L31.9,198.6c-4.6,0-8.3-3.7-8.3-8.3v0c0-4.6,3.7-8.3,8.3-8.3h0c4.6,0,8.3,3.7,8.3,8.3v0
	C40.1,194.9,36.4,198.6,31.9,198.6z"/>
<path class="st1" d="M54.4,198.6L54.4,198.6c-4.6,0-8.3-3.7-8.3-8.3v0c0-4.6,3.7-8.3,8.3-8.3h0c4.6,0,8.3,3.7,8.3,8.3v0
	C62.7,194.9,59,198.6,54.4,198.6z"/>
<path class="st1" d="M77,176L77,176c-4.6,0-8.3-3.7-8.3-8.3v0c0-4.6,3.7-8.3,8.3-8.3h0c4.6,0,8.3,3.7,8.3,8.3v0
	C85.3,172.3,81.6,176,77,176z"/>
<path class="st1" d="M77,198.6L77,198.6c-4.6,0-8.3-3.7-8.3-8.3v0c0-4.6,3.7-8.3,8.3-8.3h0c4.6,0,8.3,3.7,8.3,8.3v0
	C85.3,194.9,81.6,198.6,77,198.6z"/>
<path class="st1" d="M99.6,198.6L99.6,198.6c-4.6,0-8.3-3.7-8.3-8.3v0c0-4.6,3.7-8.3,8.3-8.3h0c4.6,0,8.3,3.7,8.3,8.3v0
	C107.9,194.9,104.2,198.6,99.6,198.6z"/>
<path class="st1" d="M9.3,198.6L9.3,198.6c-4.6,0-8.3-3.7-8.3-8.3v0c0-4.6,3.7-8.3,8.3-8.3h0c4.6,0,8.3,3.7,8.3,8.3v0
	C17.6,194.9,13.8,198.6,9.3,198.6z"/>
<path class="st1" d="M31.9,221.1L31.9,221.1c-4.6,0-8.3-3.7-8.3-8.3v0c0-4.6,3.7-8.3,8.3-8.3h0c4.6,0,8.3,3.7,8.3,8.3v0
	C40.1,217.4,36.4,221.1,31.9,221.1z"/>
<path class="st1" d="M54.4,221.1L54.4,221.1c-4.6,0-8.3-3.7-8.3-8.3v0c0-4.6,3.7-8.3,8.3-8.3h0c4.6,0,8.3,3.7,8.3,8.3v0
	C62.7,217.4,59,221.1,54.4,221.1z"/>
<path class="st1" d="M77,221.1L77,221.1c-4.6,0-8.3-3.7-8.3-8.3v0c0-4.6,3.7-8.3,8.3-8.3h0c4.6,0,8.3,3.7,8.3,8.3v0
	C85.3,217.4,81.6,221.1,77,221.1z"/>
<path class="st1" d="M99.6,221.1L99.6,221.1c-4.6,0-8.3-3.7-8.3-8.3v0c0-4.6,3.7-8.3,8.3-8.3h0c4.6,0,8.3,3.7,8.3,8.3v0
	C107.9,217.4,104.2,221.1,99.6,221.1z"/>
<path class="st1" d="M9.3,221.1L9.3,221.1c-4.6,0-8.3-3.7-8.3-8.3v0c0-4.6,3.7-8.3,8.3-8.3h0c4.6,0,8.3,3.7,8.3,8.3v0
	C17.6,217.4,13.8,221.1,9.3,221.1z"/>
<path class="st1" d="M144.7,243.7L144.7,243.7c-4.6,0-8.3-3.7-8.3-8.3v0c0-4.6,3.7-8.3,8.3-8.3h0c4.6,0,8.3,3.7,8.3,8.3v0
	C153,240,149.3,243.7,144.7,243.7z"/>
<path class="st1" d="M76.9,243.7L76.9,243.7c-4.6,0-8.3-3.7-8.3-8.3v0c0-4.6,3.7-8.3,8.3-8.3h0c4.6,0,8.3,3.7,8.3,8.3v0
	C85.2,240,81.5,243.7,76.9,243.7z"/>
<path class="st1" d="M99.5,243.7L99.5,243.7c-4.6,0-8.3-3.7-8.3-8.3v0c0-4.6,3.7-8.3,8.3-8.3h0c4.6,0,8.3,3.7,8.3,8.3v0
	C107.8,240,104.1,243.7,99.5,243.7z"/>
<path class="st1" d="M76.9,266.3L76.9,266.3c-4.6,0-8.3-3.7-8.3-8.3l0,0c0-4.6,3.7-8.3,8.3-8.3h0c4.6,0,8.3,3.7,8.3,8.3l0,0
	C85.2,262.6,81.5,266.3,76.9,266.3z"/>
<path class="st1" d="M99.5,266.3L99.5,266.3c-4.6,0-8.3-3.7-8.3-8.3l0,0c0-4.6,3.7-8.3,8.3-8.3h0c4.6,0,8.3,3.7,8.3,8.3l0,0
	C107.8,262.6,104.1,266.3,99.5,266.3z"/>
<path class="st1" d="M122.1,243.7L122.1,243.7c-4.6,0-8.3-3.7-8.3-8.3v0c0-4.6,3.7-8.3,8.3-8.3h0c4.6,0,8.3,3.7,8.3,8.3v0
	C130.4,240,126.6,243.7,122.1,243.7z"/>
<path class="st1" d="M122.1,266.3L122.1,266.3c-4.6,0-8.3-3.7-8.3-8.3l0,0c0-4.6,3.7-8.3,8.3-8.3h0c4.6,0,8.3,3.7,8.3,8.3l0,0
	C130.4,262.6,126.6,266.3,122.1,266.3z"/>
<path class="st1" d="M144.7,266.3L144.7,266.3c-4.6,0-8.3-3.7-8.3-8.3l0,0c0-4.6,3.7-8.3,8.3-8.3h0c4.6,0,8.3,3.7,8.3,8.3l0,0
	C153,262.6,149.3,266.3,144.7,266.3z"/>
<path class="st1" d="M76.9,288.8L76.9,288.8c-4.6,0-8.3-3.7-8.3-8.3l0,0c0-4.6,3.7-8.3,8.3-8.3h0c4.6,0,8.3,3.7,8.3,8.3l0,0
	C85.2,285.1,81.5,288.8,76.9,288.8z"/>
<path class="st1" d="M99.5,288.8L99.5,288.8c-4.6,0-8.3-3.7-8.3-8.3l0,0c0-4.6,3.7-8.3,8.3-8.3h0c4.6,0,8.3,3.7,8.3,8.3l0,0
	C107.8,285.1,104.1,288.8,99.5,288.8z"/>
<path class="st1" d="M122.1,288.8L122.1,288.8c-4.6,0-8.3-3.7-8.3-8.3l0,0c0-4.6,3.7-8.3,8.3-8.3h0c4.6,0,8.3,3.7,8.3,8.3l0,0
	C130.4,285.1,126.6,288.8,122.1,288.8z"/>
<path class="st1" d="M144.7,288.8L144.7,288.8c-4.6,0-8.3-3.7-8.3-8.3l0,0c0-4.6,3.7-8.3,8.3-8.3h0c4.6,0,8.3,3.7,8.3,8.3l0,0
	C153,285.1,149.3,288.8,144.7,288.8z"/>
<path class="st1" d="M76.9,311.4L76.9,311.4c-4.6,0-8.3-3.7-8.3-8.3v0c0-4.6,3.7-8.3,8.3-8.3h0c4.6,0,8.3,3.7,8.3,8.3v0
	C85.2,307.7,81.5,311.4,76.9,311.4z"/>
<path class="st1" d="M99.5,311.4L99.5,311.4c-4.6,0-8.3-3.7-8.3-8.3v0c0-4.6,3.7-8.3,8.3-8.3h0c4.6,0,8.3,3.7,8.3,8.3v0
	C107.8,307.7,104.1,311.4,99.5,311.4z"/>
<path class="st1" d="M122.1,311.4L122.1,311.4c-4.6,0-8.3-3.7-8.3-8.3v0c0-4.6,3.7-8.3,8.3-8.3h0c4.6,0,8.3,3.7,8.3,8.3v0
	C130.4,307.7,126.6,311.4,122.1,311.4z"/>
<path class="st1" d="M144.7,311.4L144.7,311.4c-4.6,0-8.3-3.7-8.3-8.3v0c0-4.6,3.7-8.3,8.3-8.3h0c4.6,0,8.3,3.7,8.3,8.3v0
	C153,307.7,149.3,311.4,144.7,311.4z"/>
<path class="st1" d="M76.9,333.9L76.9,333.9c-4.6,0-8.3-3.7-8.3-8.3v0c0-4.6,3.7-8.3,8.3-8.3h0c4.6,0,8.3,3.7,8.3,8.3v0
	C85.2,330.2,81.5,333.9,76.9,333.9z"/>
<path class="st1" d="M99.5,333.9L99.5,333.9c-4.6,0-8.3-3.7-8.3-8.3v0c0-4.6,3.7-8.3,8.3-8.3h0c4.6,0,8.3,3.7,8.3,8.3v0
	C107.8,330.2,104.1,333.9,99.5,333.9z"/>
<path class="st1" d="M122.1,333.9L122.1,333.9c-4.6,0-8.3-3.7-8.3-8.3v0c0-4.6,3.7-8.3,8.3-8.3h0c4.6,0,8.3,3.7,8.3,8.3v0
	C130.4,330.2,126.6,333.9,122.1,333.9z"/>
<path class="st1" d="M144.7,333.9L144.7,333.9c-4.6,0-8.3-3.7-8.3-8.3v0c0-4.6,3.7-8.3,8.3-8.3h0c4.6,0,8.3,3.7,8.3,8.3v0
	C153,330.2,149.3,333.9,144.7,333.9z"/>
<path class="st1" d="M144.7,356.5L144.7,356.5c-4.6,0-8.3-3.7-8.3-8.3v0c0-4.6,3.7-8.3,8.3-8.3h0c4.6,0,8.3,3.7,8.3,8.3v0
	C153,352.8,149.3,356.5,144.7,356.5z"/>
<path class="st1" d="M76.9,356.5L76.9,356.5c-4.6,0-8.3-3.7-8.3-8.3l0,0c0-4.6,3.7-8.3,8.3-8.3h0c4.6,0,8.3,3.7,8.3,8.3l0,0
	C85.2,352.8,81.5,356.5,76.9,356.5z"/>
<path class="st1" d="M99.5,356.5L99.5,356.5c-4.6,0-8.3-3.7-8.3-8.3l0,0c0-4.6,3.7-8.3,8.3-8.3h0c4.6,0,8.3,3.7,8.3,8.3l0,0
	C107.8,352.8,104.1,356.5,99.5,356.5z"/>
<path class="st1" d="M76.9,379.1L76.9,379.1c-4.6,0-8.3-3.7-8.3-8.3l0,0c0-4.6,3.7-8.3,8.3-8.3h0c4.6,0,8.3,3.7,8.3,8.3l0,0
	C85.2,375.4,81.5,379.1,76.9,379.1z"/>
<path class="st1" d="M99.5,379.1L99.5,379.1c-4.6,0-8.3-3.7-8.3-8.3l0,0c0-4.6,3.7-8.3,8.3-8.3h0c4.6,0,8.3,3.7,8.3,8.3l0,0
	C107.8,375.4,104.1,379.1,99.5,379.1z"/>
<path class="st1" d="M122.1,356.5L122.1,356.5c-4.6,0-8.3-3.7-8.3-8.3l0,0c0-4.6,3.7-8.3,8.3-8.3h0c4.6,0,8.3,3.7,8.3,8.3l0,0
	C130.4,352.8,126.6,356.5,122.1,356.5z"/>
<path class="st1" d="M122.1,379.1L122.1,379.1c-4.6,0-8.3-3.7-8.3-8.3l0,0c0-4.6,3.7-8.3,8.3-8.3h0c4.6,0,8.3,3.7,8.3,8.3l0,0
	C130.4,375.4,126.6,379.1,122.1,379.1z"/>
<path class="st1" d="M144.7,379.1L144.7,379.1c-4.6,0-8.3-3.7-8.3-8.3l0,0c0-4.6,3.7-8.3,8.3-8.3h0c4.6,0,8.3,3.7,8.3,8.3l0,0
	C153,375.4,149.3,379.1,144.7,379.1z"/>
<path class="st1" d="M76.9,401.6L76.9,401.6c-4.6,0-8.3-3.7-8.3-8.3l0,0c0-4.6,3.7-8.3,8.3-8.3h0c4.6,0,8.3,3.7,8.3,8.3l0,0
	C85.2,397.9,81.5,401.6,76.9,401.6z"/>
<path class="st1" d="M99.5,401.6L99.5,401.6c-4.6,0-8.3-3.7-8.3-8.3l0,0c0-4.6,3.7-8.3,8.3-8.3h0c4.6,0,8.3,3.7,8.3,8.3l0,0
	C107.8,397.9,104.1,401.6,99.5,401.6z"/>
<path class="st1" d="M122.1,401.6L122.1,401.6c-4.6,0-8.3-3.7-8.3-8.3l0,0c0-4.6,3.7-8.3,8.3-8.3h0c4.6,0,8.3,3.7,8.3,8.3l0,0
	C130.4,397.9,126.6,401.6,122.1,401.6z"/>
<path class="st1" d="M144.7,401.6L144.7,401.6c-4.6,0-8.3-3.7-8.3-8.3l0,0c0-4.6,3.7-8.3,8.3-8.3h0c4.6,0,8.3,3.7,8.3,8.3l0,0
	C153,397.9,149.3,401.6,144.7,401.6z"/>
<path class="st1" d="M189.9,243.7L189.9,243.7c-4.6,0-8.3-3.7-8.3-8.3v0c0-4.6,3.7-8.3,8.3-8.3h0c4.6,0,8.3,3.7,8.3,8.3v0
	C198.2,240,194.5,243.7,189.9,243.7z"/>
<path class="st1" d="M167.3,243.7L167.3,243.7c-4.6,0-8.3-3.7-8.3-8.3v0c0-4.6,3.7-8.3,8.3-8.3h0c4.6,0,8.3,3.7,8.3,8.3v0
	C175.6,240,171.9,243.7,167.3,243.7z"/>
<path class="st1" d="M167.3,266.3L167.3,266.3c-4.6,0-8.3-3.7-8.3-8.3l0,0c0-4.6,3.7-8.3,8.3-8.3h0c4.6,0,8.3,3.7,8.3,8.3l0,0
	C175.6,262.6,171.9,266.3,167.3,266.3z"/>
<path class="st1" d="M189.9,266.3L189.9,266.3c-4.6,0-8.3-3.7-8.3-8.3l0,0c0-4.6,3.7-8.3,8.3-8.3h0c4.6,0,8.3,3.7,8.3,8.3l0,0
	C198.2,262.6,194.5,266.3,189.9,266.3z"/>
<path class="st1" d="M167.3,288.8L167.3,288.8c-4.6,0-8.3-3.7-8.3-8.3l0,0c0-4.6,3.7-8.3,8.3-8.3h0c4.6,0,8.3,3.7,8.3,8.3l0,0
	C175.6,285.1,171.9,288.8,167.3,288.8z"/>
<path class="st1" d="M189.9,288.8L189.9,288.8c-4.6,0-8.3-3.7-8.3-8.3l0,0c0-4.6,3.7-8.3,8.3-8.3h0c4.6,0,8.3,3.7,8.3,8.3l0,0
	C198.2,285.1,194.5,288.8,189.9,288.8z"/>
<path class="st1" d="M167.3,311.4L167.3,311.4c-4.6,0-8.3-3.7-8.3-8.3v0c0-4.6,3.7-8.3,8.3-8.3h0c4.6,0,8.3,3.7,8.3,8.3v0
	C175.6,307.7,171.9,311.4,167.3,311.4z"/>
<path class="st1" d="M189.9,311.4L189.9,311.4c-4.6,0-8.3-3.7-8.3-8.3v0c0-4.6,3.7-8.3,8.3-8.3h0c4.6,0,8.3,3.7,8.3,8.3v0
	C198.2,307.7,194.5,311.4,189.9,311.4z"/>
<path class="st1" d="M167.3,333.9L167.3,333.9c-4.6,0-8.3-3.7-8.3-8.3v0c0-4.6,3.7-8.3,8.3-8.3h0c4.6,0,8.3,3.7,8.3,8.3v0
	C175.6,330.2,171.9,333.9,167.3,333.9z"/>
<path class="st1" d="M189.9,333.9L189.9,333.9c-4.6,0-8.3-3.7-8.3-8.3v0c0-4.6,3.7-8.3,8.3-8.3h0c4.6,0,8.3,3.7,8.3,8.3v0
	C198.2,330.2,194.5,333.9,189.9,333.9z"/>
<path class="st1" d="M189.9,356.5L189.9,356.5c-4.6,0-8.3-3.7-8.3-8.3v0c0-4.6,3.7-8.3,8.3-8.3h0c4.6,0,8.3,3.7,8.3,8.3v0
	C198.2,352.8,194.5,356.5,189.9,356.5z"/>
<path class="st1" d="M167.3,356.5L167.3,356.5c-4.6,0-8.3-3.7-8.3-8.3l0,0c0-4.6,3.7-8.3,8.3-8.3h0c4.6,0,8.3,3.7,8.3,8.3l0,0
	C175.6,352.8,171.9,356.5,167.3,356.5z"/>
<path class="st1" d="M167.3,379.1L167.3,379.1c-4.6,0-8.3-3.7-8.3-8.3l0,0c0-4.6,3.7-8.3,8.3-8.3h0c4.6,0,8.3,3.7,8.3,8.3l0,0
	C175.6,375.4,171.9,379.1,167.3,379.1z"/>
<path class="st1" d="M189.9,379.1L189.9,379.1c-4.6,0-8.3-3.7-8.3-8.3l0,0c0-4.6,3.7-8.3,8.3-8.3h0c4.6,0,8.3,3.7,8.3,8.3l0,0
	C198.2,375.4,194.5,379.1,189.9,379.1z"/>
<path class="st1" d="M167.3,401.6L167.3,401.6c-4.6,0-8.3-3.7-8.3-8.3l0,0c0-4.6,3.7-8.3,8.3-8.3h0c4.6,0,8.3,3.7,8.3,8.3l0,0
	C175.6,397.9,171.9,401.6,167.3,401.6z"/>
<path class="st1" d="M189.9,401.6L189.9,401.6c-4.6,0-8.3-3.7-8.3-8.3l0,0c0-4.6,3.7-8.3,8.3-8.3h0c4.6,0,8.3,3.7,8.3,8.3l0,0
	C198.2,397.9,194.5,401.6,189.9,401.6z"/>
<path class="st1" d="M212.5,288.8L212.5,288.8c-4.6,0-8.3-3.7-8.3-8.3l0,0c0-4.6,3.7-8.3,8.3-8.3h0c4.6,0,8.3,3.7,8.3,8.3l0,0
	C220.8,285.1,217.1,288.8,212.5,288.8z"/>
<path class="st1" d="M212.5,311.4L212.5,311.4c-4.6,0-8.3-3.7-8.3-8.3v0c0-4.6,3.7-8.3,8.3-8.3h0c4.6,0,8.3,3.7,8.3,8.3v0
	C220.8,307.7,217.1,311.4,212.5,311.4z"/>
<path class="st1" d="M212.5,333.9L212.5,333.9c-4.6,0-8.3-3.7-8.3-8.3v0c0-4.6,3.7-8.3,8.3-8.3h0c4.6,0,8.3,3.7,8.3,8.3v0
	C220.8,330.2,217.1,333.9,212.5,333.9z"/>
<path class="st1" d="M212.5,356.5L212.5,356.5c-4.6,0-8.3-3.7-8.3-8.3v0c0-4.6,3.7-8.3,8.3-8.3h0c4.6,0,8.3,3.7,8.3,8.3v0
	C220.8,352.8,217.1,356.5,212.5,356.5z"/>
<path class="st1" d="M212.5,379.1L212.5,379.1c-4.6,0-8.3-3.7-8.3-8.3l0,0c0-4.6,3.7-8.3,8.3-8.3h0c4.6,0,8.3,3.7,8.3,8.3l0,0
	C220.8,375.4,217.1,379.1,212.5,379.1z"/>
<path class="st1" d="M212.5,401.6L212.5,401.6c-4.6,0-8.3-3.7-8.3-8.3l0,0c0-4.6,3.7-8.3,8.3-8.3h0c4.6,0,8.3,3.7,8.3,8.3l0,0
	C220.8,397.9,217.1,401.6,212.5,401.6z"/>
<path class="st1" d="M235.1,333.9L235.1,333.9c-4.6,0-8.3-3.7-8.3-8.3v0c0-4.6,3.7-8.3,8.3-8.3h0c4.6,0,8.3,3.7,8.3,8.3v0
	C243.4,330.2,239.7,333.9,235.1,333.9z"/>
<path class="st1" d="M235.1,356.5L235.1,356.5c-4.6,0-8.3-3.7-8.3-8.3v0c0-4.6,3.7-8.3,8.3-8.3h0c4.6,0,8.3,3.7,8.3,8.3v0
	C243.4,352.8,239.7,356.5,235.1,356.5z"/>
<path class="st1" d="M235.1,379.1L235.1,379.1c-4.6,0-8.3-3.7-8.3-8.3l0,0c0-4.6,3.7-8.3,8.3-8.3h0c4.6,0,8.3,3.7,8.3,8.3l0,0
	C243.4,375.4,239.7,379.1,235.1,379.1z"/>
<path class="st1" d="M235.1,401.6L235.1,401.6c-4.6,0-8.3-3.7-8.3-8.3l0,0c0-4.6,3.7-8.3,8.3-8.3h0c4.6,0,8.3,3.7,8.3,8.3l0,0
	C243.4,397.9,239.7,401.6,235.1,401.6z"/>
<path class="st1" d="M257.7,356.5L257.7,356.5c-4.6,0-8.3-3.7-8.3-8.3v0c0-4.6,3.7-8.3,8.3-8.3l0,0c4.6,0,8.3,3.7,8.3,8.3v0
	C266,352.8,262.3,356.5,257.7,356.5z"/>
<path class="st1" d="M257.7,379.1L257.7,379.1c-4.6,0-8.3-3.7-8.3-8.3l0,0c0-4.6,3.7-8.3,8.3-8.3h0c4.6,0,8.3,3.7,8.3,8.3l0,0
	C266,375.4,262.3,379.1,257.7,379.1z"/>
<path class="st1" d="M257.7,401.6L257.7,401.6c-4.6,0-8.3-3.7-8.3-8.3l0,0c0-4.6,3.7-8.3,8.3-8.3h0c4.6,0,8.3,3.7,8.3,8.3l0,0
	C266,397.9,262.3,401.6,257.7,401.6z"/>
<path class="st1" d="M279.9,424.3L279.9,424.3c-4.6,0-8.3-3.7-8.3-8.3l0,0c0-4.6,3.7-8.3,8.3-8.3l0,0c4.6,0,8.3,3.7,8.3,8.3l0,0
	C288.2,420.6,284.5,424.3,279.9,424.3z"/>
<path class="st1" d="M235.2,446.9L235.2,446.9c-4.6,0-8.3-3.7-8.3-8.3l0,0c0-4.6,3.7-8.3,8.3-8.3h0c4.6,0,8.3,3.7,8.3,8.3l0,0
	C243.5,443.2,239.7,446.9,235.2,446.9z"/>
<path class="st1" d="M76.9,424.2L76.9,424.2c-4.6,0-8.3-3.7-8.3-8.3l0,0c0-4.6,3.7-8.3,8.3-8.3h0c4.6,0,8.3,3.7,8.3,8.3l0,0
	C85.2,420.5,81.5,424.2,76.9,424.2z"/>
<path class="st1" d="M99.5,424.2L99.5,424.2c-4.6,0-8.3-3.7-8.3-8.3l0,0c0-4.6,3.7-8.3,8.3-8.3h0c4.6,0,8.3,3.7,8.3,8.3l0,0
	C107.8,420.5,104.1,424.2,99.5,424.2z"/>
<path class="st1" d="M122.1,424.2L122.1,424.2c-4.6,0-8.3-3.7-8.3-8.3l0,0c0-4.6,3.7-8.3,8.3-8.3h0c4.6,0,8.3,3.7,8.3,8.3l0,0
	C130.4,420.5,126.6,424.2,122.1,424.2z"/>
<path class="st1" d="M144.7,424.2L144.7,424.2c-4.6,0-8.3-3.7-8.3-8.3l0,0c0-4.6,3.7-8.3,8.3-8.3h0c4.6,0,8.3,3.7,8.3,8.3l0,0
	C153,420.5,149.3,424.2,144.7,424.2z"/>
<path class="st1" d="M31.9,446.7L31.9,446.7c-4.6,0-8.3-3.7-8.3-8.3l0,0c0-4.6,3.7-8.3,8.3-8.3h0c4.6,0,8.3,3.7,8.3,8.3l0,0
	C40.1,443,36.4,446.7,31.9,446.7z"/>
<path class="st1" d="M54.4,446.7L54.4,446.7c-4.6,0-8.3-3.7-8.3-8.3l0,0c0-4.6,3.7-8.3,8.3-8.3h0c4.6,0,8.3,3.7,8.3,8.3l0,0
	C62.7,443,59,446.7,54.4,446.7z"/>
<path class="st1" d="M77,446.7L77,446.7c-4.6,0-8.3-3.7-8.3-8.3l0,0c0-4.6,3.7-8.3,8.3-8.3h0c4.6,0,8.3,3.7,8.3,8.3l0,0
	C85.3,443,81.6,446.7,77,446.7z"/>
<path class="st1" d="M99.6,446.7L99.6,446.7c-4.6,0-8.3-3.7-8.3-8.3l0,0c0-4.6,3.7-8.3,8.3-8.3h0c4.6,0,8.3,3.7,8.3,8.3l0,0
	C107.9,443,104.2,446.7,99.6,446.7z"/>
<path class="st1" d="M167.3,424.2L167.3,424.2c-4.6,0-8.3-3.7-8.3-8.3l0,0c0-4.6,3.7-8.3,8.3-8.3h0c4.6,0,8.3,3.7,8.3,8.3l0,0
	C175.6,420.5,171.9,424.2,167.3,424.2z"/>
<path class="st1" d="M189.9,424.2L189.9,424.2c-4.6,0-8.3-3.7-8.3-8.3l0,0c0-4.6,3.7-8.3,8.3-8.3h0c4.6,0,8.3,3.7,8.3,8.3l0,0
	C198.2,420.5,194.5,424.2,189.9,424.2z"/>
<path class="st1" d="M122.2,446.7L122.2,446.7c-4.6,0-8.3-3.7-8.3-8.3l0,0c0-4.6,3.7-8.3,8.3-8.3h0c4.6,0,8.3,3.7,8.3,8.3l0,0
	C130.5,443,126.8,446.7,122.2,446.7z"/>
<path class="st1" d="M144.8,446.7L144.8,446.7c-4.6,0-8.3-3.7-8.3-8.3l0,0c0-4.6,3.7-8.3,8.3-8.3h0c4.6,0,8.3,3.7,8.3,8.3l0,0
	C153.1,443,149.4,446.7,144.8,446.7z"/>
<path class="st1" d="M212.5,424.2L212.5,424.2c-4.6,0-8.3-3.7-8.3-8.3l0,0c0-4.6,3.7-8.3,8.3-8.3h0c4.6,0,8.3,3.7,8.3,8.3l0,0
	C220.8,420.5,217.1,424.2,212.5,424.2z"/>
<path class="st1" d="M167.4,446.7L167.4,446.7c-4.6,0-8.3-3.7-8.3-8.3l0,0c0-4.6,3.7-8.3,8.3-8.3h0c4.6,0,8.3,3.7,8.3,8.3l0,0
	C175.7,443,172,446.7,167.4,446.7z"/>
<path class="st1" d="M235.1,424.2L235.1,424.2c-4.6,0-8.3-3.7-8.3-8.3l0,0c0-4.6,3.7-8.3,8.3-8.3h0c4.6,0,8.3,3.7,8.3,8.3l0,0
	C243.4,420.5,239.7,424.2,235.1,424.2z"/>
<path class="st1" d="M190,446.7L190,446.7c-4.6,0-8.3-3.7-8.3-8.3l0,0c0-4.6,3.7-8.3,8.3-8.3h0c4.6,0,8.3,3.7,8.3,8.3l0,0
	C198.3,443,194.6,446.7,190,446.7z"/>
<path class="st1" d="M257.7,424.2L257.7,424.2c-4.6,0-8.3-3.7-8.3-8.3l0,0c0-4.6,3.7-8.3,8.3-8.3h0c4.6,0,8.3,3.7,8.3,8.3l0,0
	C266,420.5,262.3,424.2,257.7,424.2z"/>
<path class="st1" d="M212.6,446.7L212.6,446.7c-4.6,0-8.3-3.7-8.3-8.3l0,0c0-4.6,3.7-8.3,8.3-8.3h0c4.6,0,8.3,3.7,8.3,8.3l0,0
	C220.9,443,217.2,446.7,212.6,446.7z"/>
<path class="st1" d="M9.3,446.7L9.3,446.7c-4.6,0-8.3-3.7-8.3-8.3l0,0c0-4.6,3.7-8.3,8.3-8.3h0c4.6,0,8.3,3.7,8.3,8.3l0,0
	C17.6,443,13.8,446.7,9.3,446.7z"/>
<path class="st1" d="M54.4,63.1L54.4,63.1c-4.6,0-8.3-3.7-8.3-8.3v0c0-4.6,3.7-8.3,8.3-8.3h0c4.6,0,8.3,3.7,8.3,8.3v0
	C62.7,59.4,59,63.1,54.4,63.1z"/>
<path class="st1" d="M122.2,63.1L122.2,63.1c-4.6,0-8.3-3.7-8.3-8.3v0c0-4.6,3.7-8.3,8.3-8.3h0c4.6,0,8.3,3.7,8.3,8.3v0
	C130.4,59.4,126.7,63.1,122.2,63.1z"/>
<path class="st1" d="M144.7,63.1L144.7,63.1c-4.6,0-8.3-3.7-8.3-8.3v0c0-4.6,3.7-8.3,8.3-8.3h0c4.6,0,8.3,3.7,8.3,8.3v0
	C153,59.4,149.3,63.1,144.7,63.1z"/>
<path class="st1" d="M257.4,63.1L257.4,63.1c-4.6,0-8.3-3.7-8.3-8.3v0c0-4.6,3.7-8.3,8.3-8.3h0c4.6,0,8.3,3.7,8.3,8.3v0
	C265.7,59.4,262,63.1,257.4,63.1z"/>
<path class="st1" d="M280,63.1L280,63.1c-4.6,0-8.3-3.7-8.3-8.3v0c0-4.6,3.7-8.3,8.3-8.3l0,0c4.6,0,8.3,3.7,8.3,8.3v0
	C288.2,59.4,284.5,63.1,280,63.1z"/>
<path class="st1" d="M302.5,63.1L302.5,63.1c-4.6,0-8.3-3.7-8.3-8.3v0c0-4.6,3.7-8.3,8.3-8.3l0,0c4.6,0,8.3,3.7,8.3,8.3v0
	C310.8,59.4,307.1,63.1,302.5,63.1z"/>
<path class="st1" d="M325.1,63.1L325.1,63.1c-4.6,0-8.3-3.7-8.3-8.3v0c0-4.6,3.7-8.3,8.3-8.3h0c4.6,0,8.3,3.7,8.3,8.3v0
	C333.4,59.4,329.7,63.1,325.1,63.1z"/>
<path class="st1" d="M257.5,627.8L257.5,627.8c-4.6,0-8.3-3.7-8.3-8.3l0,0c0-4.6,3.7-8.3,8.3-8.3l0,0c4.6,0,8.3,3.7,8.3,8.3l0,0
	C265.7,624,262,627.8,257.5,627.8z"/>
<path class="st1" d="M280,627.8L280,627.8c-4.6,0-8.3-3.7-8.3-8.3l0,0c0-4.6,3.7-8.3,8.3-8.3h0c4.6,0,8.3,3.7,8.3,8.3l0,0
	C288.3,624,284.6,627.8,280,627.8z"/>
<path class="st1" d="M302.6,627.8L302.6,627.8c-4.6,0-8.3-3.7-8.3-8.3l0,0c0-4.6,3.7-8.3,8.3-8.3h0c4.6,0,8.3,3.7,8.3,8.3l0,0
	C310.9,624,307.2,627.8,302.6,627.8z"/>
<path class="st1" d="M325.2,627.8L325.2,627.8c-4.6,0-8.3-3.7-8.3-8.3l0,0c0-4.6,3.7-8.3,8.3-8.3l0,0c4.6,0,8.3,3.7,8.3,8.3l0,0
	C333.5,624,329.7,627.8,325.2,627.8z"/>
<path class="st1" d="M77.1,627.8L77.1,627.8c-4.6,0-8.3-3.7-8.3-8.3l0,0c0-4.6,3.7-8.3,8.3-8.3h0c4.6,0,8.3,3.7,8.3,8.3l0,0
	C85.4,624.1,81.6,627.8,77.1,627.8z"/>
<path class="st1" d="M99.6,627.8L99.6,627.8c-4.6,0-8.3-3.7-8.3-8.3l0,0c0-4.6,3.7-8.3,8.3-8.3h0c4.6,0,8.3,3.7,8.3,8.3l0,0
	C107.9,624.1,104.2,627.8,99.6,627.8z"/>
<path class="st1" d="M8.3,627.8L8.3,627.8c-4.6,0-8.3-3.7-8.3-8.3l0,0c0-4.6,3.7-8.3,8.3-8.3h0c4.6,0,8.3,3.7,8.3,8.3l0,0
	C16.6,624.1,12.8,627.8,8.3,627.8z"/>
<path class="st1" d="M30.9,627.8L30.9,627.8c-4.6,0-8.3-3.7-8.3-8.3l0,0c0-4.6,3.7-8.3,8.3-8.3h0c4.6,0,8.3,3.7,8.3,8.3l0,0
	C39.1,624.1,35.4,627.8,30.9,627.8z"/>
<path class="st1" d="M53.4,627.8L53.4,627.8c-4.6,0-8.3-3.7-8.3-8.3l0,0c0-4.6,3.7-8.3,8.3-8.3h0c4.6,0,8.3,3.7,8.3,8.3l0,0
	C61.7,624.1,58,627.8,53.4,627.8z"/>
<path class="st1" d="M145.8,627.8L145.8,627.8c-4.6,0-8.3-3.7-8.3-8.3l0,0c0-4.6,3.7-8.3,8.3-8.3h0c4.6,0,8.3,3.7,8.3,8.3l0,0
	C154.1,624.1,150.4,627.8,145.8,627.8z"/>
<path class="st1" d="M168.4,627.8L168.4,627.8c-4.6,0-8.3-3.7-8.3-8.3l0,0c0-4.6,3.7-8.3,8.3-8.3h0c4.6,0,8.3,3.7,8.3,8.3l0,0
	C176.7,624.1,173,627.8,168.4,627.8z"/>
<path class="st1" d="M122.2,627.8L122.2,627.8c-4.6,0-8.3-3.7-8.3-8.3l0,0c0-4.6,3.7-8.3,8.3-8.3h0c4.6,0,8.3,3.7,8.3,8.3l0,0
	C130.5,624.1,126.7,627.8,122.2,627.8z"/>
<path class="st1" d="M212.4,627.8L212.4,627.8c-4.6,0-8.3-3.7-8.3-8.3l0,0c0-4.6,3.7-8.3,8.3-8.3h0c4.6,0,8.3,3.7,8.3,8.3l0,0
	C220.7,624.1,217,627.8,212.4,627.8z"/>
<path class="st1" d="M235,627.8L235,627.8c-4.6,0-8.3-3.7-8.3-8.3l0,0c0-4.6,3.7-8.3,8.3-8.3h0c4.6,0,8.3,3.7,8.3,8.3l0,0
	C243.3,624.1,239.5,627.8,235,627.8z"/>
<path class="st1" d="M189.8,627.8L189.8,627.8c-4.6,0-8.3-3.7-8.3-8.3l0,0c0-4.6,3.7-8.3,8.3-8.3h0c4.6,0,8.3,3.7,8.3,8.3l0,0
	C198.1,624.1,194.3,627.8,189.8,627.8z"/>
<g>
	<text transform="matrix(1 0 0 1 7.3141 57.5308)" class="st2 st3 st4">1</text>
	<text transform="matrix(1 0 0 1 29.3756 57.5308)" class="st2 st3 st4">2</text>
	<text transform="matrix(1 0 0 1 51.9499 57.5308)" class="st2 st3 st4">3</text>
	<text transform="matrix(1 0 0 1 74.4645 57.5308)" class="st2 st3 st4">4</text>
	<text transform="matrix(1 0 0 1 97.1383 57.5308)" class="st2 st3 st4">5</text>
	<text transform="matrix(1 0 0 1 119.4606 57.5308)" class="st2 st3 st4">6</text>
	<text transform="matrix(1 0 0 1 142.487 57.5308)" class="st2 st3 st4">7</text>
	<text transform="matrix(1 0 0 1 164.6774 57.5308)" class="st2 st3 st4">8</text>
	<text transform="matrix(1 0 0 1 187.1715 57.5308)" class="st2 st3 st4">9</text>
	<text transform="matrix(1 0 0 1 207.821 57.5308)" class="st2 st3 st4">10</text>
	<text transform="matrix(1 0 0 1 231.3034 57.5308)" class="st2 st3 st4">11</text>
	<text transform="matrix(1 0 0 1 253.3659 57.5308)" class="st2 st3 st4">12</text>
	<text transform="matrix(1 0 0 1 275.9391 57.5308)" class="st2 st3 st4">13</text>
	<text transform="matrix(1 0 0 1 298.4528 57.5308)" class="st2 st3 st4">14</text>
	<text transform="matrix(1 0 0 1 321.1276 57.5308)" class="st2 st3 st4">15</text>
	<text transform="matrix(1 0 0 1 120.3087 10.2193)" class="st2 st3 st4">1</text>
	<text transform="matrix(1 0 0 1 142.3703 10.2193)" class="st2 st3 st4">2</text>
	<text transform="matrix(1 0 0 1 164.9445 10.2193)" class="st2 st3 st4">3</text>
	<text transform="matrix(1 0 0 1 187.4591 10.2193)" class="st2 st3 st4">4</text>
	<text transform="matrix(1 0 0 1 210.133 10.2193)" class="st2 st3 st4">5</text>
	<text transform="matrix(1 0 0 1 232.4552 10.2193)" class="st2 st3 st4">6</text>
	<text transform="matrix(1 0 0 1 255.4816 10.2193)" class="st2 st3 st4">7</text>
	<text transform="matrix(1 0 0 1 277.672 10.2193)" class="st2 st3 st4">8</text>
	<text transform="matrix(1 0 0 1 300.1662 10.2193)" class="st2 st3 st4">9</text>
	<text transform="matrix(1 0 0 1 320.8156 10.2193)" class="st2 st3 st4">10</text>
	<text transform="matrix(1 0 0 1 7.3141 80.1783)" class="st2 st3 st4">1</text>
	<text transform="matrix(1 0 0 1 29.3756 80.1783)" class="st2 st3 st4">2</text>
	<text transform="matrix(1 0 0 1 51.9499 80.1783)" class="st2 st3 st4">3</text>
	<text transform="matrix(1 0 0 1 74.4645 80.1783)" class="st2 st3 st4">4</text>
	<text transform="matrix(1 0 0 1 97.1383 80.1783)" class="st2 st3 st4">5</text>
	<text transform="matrix(1 0 0 1 119.4606 80.1783)" class="st2 st3 st4">6</text>
	<text transform="matrix(1 0 0 1 142.487 80.1783)" class="st2 st3 st4">7</text>
	<text transform="matrix(1 0 0 1 164.6774 80.1783)" class="st2 st3 st4">8</text>
	<text transform="matrix(1 0 0 1 187.1715 80.1783)" class="st2 st3 st4">9</text>
	<text transform="matrix(1 0 0 1 207.821 80.1783)" class="st2 st3 st4">10</text>
	<text transform="matrix(1 0 0 1 231.3034 80.1783)" class="st2 st3 st4">11</text>
	<text transform="matrix(1 0 0 1 253.3659 80.1783)" class="st2 st3 st4">12</text>
	<text transform="matrix(1 0 0 1 275.9391 80.1783)" class="st2 st3 st4">13</text>
	<text transform="matrix(1 0 0 1 298.4528 80.1783)" class="st2 st3 st4">14</text>
	<text transform="matrix(1 0 0 1 321.1276 80.1783)" class="st2 st3 st4">15</text>
	<text transform="matrix(1 0 0 1 7.3141 102.4341)" class="st2 st3 st4">1</text>
	<text transform="matrix(1 0 0 1 29.3756 102.4341)" class="st2 st3 st4">2</text>
	<text transform="matrix(1 0 0 1 51.9499 102.4341)" class="st2 st3 st4">3</text>
	<text transform="matrix(1 0 0 1 74.4645 102.4341)" class="st2 st3 st4">4</text>
	<text transform="matrix(1 0 0 1 97.1383 102.4341)" class="st2 st3 st4">5</text>
	<text transform="matrix(1 0 0 1 119.4606 102.4341)" class="st2 st3 st4">6</text>
	<text transform="matrix(1 0 0 1 142.487 102.4341)" class="st2 st3 st4">7</text>
	<text transform="matrix(1 0 0 1 164.6774 102.4341)" class="st2 st3 st4">8</text>
	<text transform="matrix(1 0 0 1 187.1715 102.4341)" class="st2 st3 st4">9</text>
	<text transform="matrix(1 0 0 1 207.821 102.4341)" class="st2 st3 st4">10</text>
	<text transform="matrix(1 0 0 1 231.3034 102.4341)" class="st2 st3 st4">11</text>
	<text transform="matrix(1 0 0 1 253.3659 102.4341)" class="st2 st3 st4">12</text>
	<text transform="matrix(1 0 0 1 275.9391 102.4341)" class="st2 st3 st4">13</text>
	<text transform="matrix(1 0 0 1 298.4528 102.4341)" class="st2 st3 st4">14</text>
	<text transform="matrix(1 0 0 1 321.1276 102.4341)" class="st2 st3 st4">15</text>
	<text transform="matrix(1 0 0 1 7.3141 125.3209)" class="st2 st3 st4">1</text>
	<text transform="matrix(1 0 0 1 29.3756 125.3209)" class="st2 st3 st4">2</text>
	<text transform="matrix(1 0 0 1 51.9499 125.3209)" class="st2 st3 st4">3</text>
	<text transform="matrix(1 0 0 1 74.4645 125.3209)" class="st2 st3 st4">4</text>
	<text transform="matrix(1 0 0 1 97.1383 125.3209)" class="st2 st3 st4">5</text>
	<text transform="matrix(1 0 0 1 119.4606 125.3209)" class="st2 st3 st4">6</text>
	<text transform="matrix(1 0 0 1 142.487 125.3209)" class="st2 st3 st4">7</text>
	<text transform="matrix(1 0 0 1 164.6774 125.3209)" class="st2 st3 st4">8</text>
	<text transform="matrix(1 0 0 1 187.1715 125.3209)" class="st2 st3 st4">9</text>
	<text transform="matrix(1 0 0 1 207.821 125.3209)" class="st2 st3 st4">10</text>
	<text transform="matrix(1 0 0 1 231.3034 125.3209)" class="st2 st3 st4">11</text>
	<text transform="matrix(1 0 0 1 253.3659 125.3209)" class="st2 st3 st4">12</text>
	<text transform="matrix(1 0 0 1 275.9391 125.3209)" class="st2 st3 st4">13</text>
	<text transform="matrix(1 0 0 1 298.4528 125.3209)" class="st2 st3 st4">14</text>
	<text transform="matrix(1 0 0 1 321.1276 125.3209)" class="st2 st3 st4">15</text>
	<text transform="matrix(1 0 0 1 7.3141 147.0855)" class="st2 st3 st4">1</text>
	<text transform="matrix(1 0 0 1 29.3756 147.0855)" class="st2 st3 st4">2</text>
	<text transform="matrix(1 0 0 1 51.9499 147.0855)" class="st2 st3 st4">3</text>
	<text transform="matrix(1 0 0 1 74.4645 147.0855)" class="st2 st3 st4">4</text>
	<text transform="matrix(1 0 0 1 97.1383 147.0855)" class="st2 st3 st4">5</text>
	<text transform="matrix(1 0 0 1 119.4606 147.0855)" class="st2 st3 st4">6</text>
	<text transform="matrix(1 0 0 1 142.487 147.0855)" class="st2 st3 st4">7</text>
	<text transform="matrix(1 0 0 1 164.6774 147.0855)" class="st2 st3 st4">8</text>
	<text transform="matrix(1 0 0 1 187.1715 147.0855)" class="st2 st3 st4">9</text>
	<text transform="matrix(1 0 0 1 207.821 147.0855)" class="st2 st3 st4">10</text>
	<text transform="matrix(1 0 0 1 231.3034 147.0855)" class="st2 st3 st4">11</text>
	<text transform="matrix(1 0 0 1 253.3659 147.0855)" class="st2 st3 st4">12</text>
	<text transform="matrix(1 0 0 1 275.9391 147.0855)" class="st2 st3 st4">13</text>
	<text transform="matrix(1 0 0 1 298.4528 147.0855)" class="st2 st3 st4">14</text>
	<text transform="matrix(1 0 0 1 321.1276 147.0855)" class="st2 st3 st4">15</text>
	<text transform="matrix(1 0 0 1 7.3141 169.439)" class="st2 st3 st4">1</text>
	<text transform="matrix(1 0 0 1 29.3756 169.439)" class="st2 st3 st4">2</text>
	<text transform="matrix(1 0 0 1 51.9499 169.439)" class="st2 st3 st4">3</text>
	<text transform="matrix(1 0 0 1 74.4645 169.439)" class="st2 st3 st4">4</text>
	<text transform="matrix(1 0 0 1 97.1383 169.439)" class="st2 st3 st4">5</text>
	<text transform="matrix(1 0 0 1 119.4606 169.439)" class="st2 st3 st4">6</text>
	<text transform="matrix(1 0 0 1 142.487 169.439)" class="st2 st3 st4">7</text>
	<text transform="matrix(1 0 0 1 164.6774 169.439)" class="st2 st3 st4">8</text>
	<text transform="matrix(1 0 0 1 187.1715 169.439)" class="st2 st3 st4">9</text>
	<text transform="matrix(1 0 0 1 207.821 169.439)" class="st2 st3 st4">10</text>
	<text transform="matrix(1 0 0 1 231.3034 169.439)" class="st2 st3 st4">11</text>
	<text transform="matrix(1 0 0 1 253.3659 169.439)" class="st2 st3 st4">12</text>
	<text transform="matrix(1 0 0 1 275.9391 169.439)" class="st2 st3 st4">13</text>
	<text transform="matrix(1 0 0 1 298.4528 169.439)" class="st2 st3 st4">14</text>
	<text transform="matrix(1 0 0 1 321.1276 169.439)" class="st2 st3 st4">15</text>
	<text transform="matrix(1 0 0 1 7.3141 192.0699)" class="st2 st3 st4">1</text>
	<text transform="matrix(1 0 0 1 29.3756 192.0699)" class="st2 st3 st4">2</text>
	<text transform="matrix(1 0 0 1 51.9499 192.0699)" class="st2 st3 st4">3</text>
	<text transform="matrix(1 0 0 1 74.4645 192.0699)" class="st2 st3 st4">4</text>
	<text transform="matrix(1 0 0 1 97.1383 192.0699)" class="st2 st3 st4">5</text>
	<text transform="matrix(1 0 0 1 119.4606 192.0699)" class="st2 st3 st4">6</text>
	<text transform="matrix(1 0 0 1 142.487 192.0699)" class="st2 st3 st4">7</text>
	<text transform="matrix(1 0 0 1 164.6774 192.0699)" class="st2 st3 st4">8</text>
	<text transform="matrix(1 0 0 1 187.1715 192.0699)" class="st2 st3 st4">9</text>
	<text transform="matrix(1 0 0 1 207.821 192.0699)" class="st2 st3 st4">10</text>
	<text transform="matrix(1 0 0 1 231.3034 192.0699)" class="st2 st3 st4">11</text>
	<text transform="matrix(1 0 0 1 253.3659 192.0699)" class="st2 st3 st4">12</text>
	<text transform="matrix(1 0 0 1 275.9391 192.0699)" class="st2 st3 st4">13</text>
	<text transform="matrix(1 0 0 1 298.4528 192.0699)" class="st2 st3 st4">14</text>
	<text transform="matrix(1 0 0 1 321.1276 192.0699)" class="st2 st3 st4">15</text>
	<text transform="matrix(1 0 0 1 7.3141 215.2281)" class="st2 st3 st4">1</text>
	<text transform="matrix(1 0 0 1 29.3756 215.2281)" class="st2 st3 st4">2</text>
	<text transform="matrix(1 0 0 1 51.9499 215.2281)" class="st2 st3 st4">3</text>
	<text transform="matrix(1 0 0 1 74.4645 215.2281)" class="st2 st3 st4">4</text>
	<text transform="matrix(1 0 0 1 97.1383 215.2281)" class="st2 st3 st4">5</text>
	<text transform="matrix(1 0 0 1 119.4606 215.2281)" class="st2 st3 st4">6</text>
	<text transform="matrix(1 0 0 1 142.487 215.2281)" class="st2 st3 st4">7</text>
	<text transform="matrix(1 0 0 1 164.6774 215.2281)" class="st2 st3 st4">8</text>
	<text transform="matrix(1 0 0 1 187.1715 215.2281)" class="st2 st3 st4">9</text>
	<text transform="matrix(1 0 0 1 207.821 215.2281)" class="st2 st3 st4">10</text>
	<text transform="matrix(1 0 0 1 231.3034 215.2281)" class="st2 st3 st4">11</text>
	<text transform="matrix(1 0 0 1 253.3659 215.2281)" class="st2 st3 st4">12</text>
	<text transform="matrix(1 0 0 1 275.9391 215.2281)" class="st2 st3 st4">13</text>
	<text transform="matrix(1 0 0 1 298.4528 215.2281)" class="st2 st3 st4">14</text>
	<text transform="matrix(1 0 0 1 321.1276 215.2281)" class="st2 st3 st4">15</text>
	<text transform="matrix(1 0 0 1 75.0236 238.607)" class="st2 st3 st4">1</text>
	<text transform="matrix(1 0 0 1 97.0851 238.607)" class="st2 st3 st4">2</text>
	<text transform="matrix(1 0 0 1 119.6593 238.607)" class="st2 st3 st4">3</text>
	<text transform="matrix(1 0 0 1 142.174 238.607)" class="st2 st3 st4">4</text>
	<text transform="matrix(1 0 0 1 164.8478 238.607)" class="st2 st3 st4">5</text>
	<text transform="matrix(1 0 0 1 187.1701 238.607)" class="st2 st3 st4">6</text>
	<text transform="matrix(1 0 0 1 210.1964 238.607)" class="st2 st3 st4">7</text>
	<text transform="matrix(1 0 0 1 232.3869 238.607)" class="st2 st3 st4">8</text>
	<text transform="matrix(1 0 0 1 254.881 238.607)" class="st2 st3 st4">9</text>
	<text transform="matrix(1 0 0 1 275.5304 238.607)" class="st2 st3 st4">10</text>
	<text transform="matrix(1 0 0 1 299.0128 238.607)" class="st2 st3 st4">11</text>
	<text transform="matrix(1 0 0 1 321.0753 238.607)" class="st2 st3 st4">12</text>
	<text transform="matrix(1 0 0 1 75.0236 261.2545)" class="st2 st3 st4">1</text>
	<text transform="matrix(1 0 0 1 97.0851 261.2545)" class="st2 st3 st4">2</text>
	<text transform="matrix(1 0 0 1 119.6593 261.2545)" class="st2 st3 st4">3</text>
	<text transform="matrix(1 0 0 1 142.174 261.2545)" class="st2 st3 st4">4</text>
	<text transform="matrix(1 0 0 1 164.8478 261.2545)" class="st2 st3 st4">5</text>
	<text transform="matrix(1 0 0 1 187.1701 261.2545)" class="st2 st3 st4">6</text>
	<text transform="matrix(1 0 0 1 210.1964 261.2545)" class="st2 st3 st4">7</text>
	<text transform="matrix(1 0 0 1 232.3869 261.2545)" class="st2 st3 st4">8</text>
	<text transform="matrix(1 0 0 1 254.881 261.2545)" class="st2 st3 st4">9</text>
	<text transform="matrix(1 0 0 1 275.5304 261.2545)" class="st2 st3 st4">10</text>
	<text transform="matrix(1 0 0 1 299.0128 261.2545)" class="st2 st3 st4">11</text>
	<text transform="matrix(1 0 0 1 321.0753 261.2545)" class="st2 st3 st4">12</text>
	<text transform="matrix(1 0 0 1 75.0236 283.5103)" class="st2 st3 st4">1</text>
	<text transform="matrix(1 0 0 1 97.0851 283.5103)" class="st2 st3 st4">2</text>
	<text transform="matrix(1 0 0 1 119.6593 283.5103)" class="st2 st3 st4">3</text>
	<text transform="matrix(1 0 0 1 142.174 283.5103)" class="st2 st3 st4">4</text>
	<text transform="matrix(1 0 0 1 164.8478 283.5103)" class="st2 st3 st4">5</text>
	<text transform="matrix(1 0 0 1 187.1701 283.5103)" class="st2 st3 st4">6</text>
	<text transform="matrix(1 0 0 1 210.1964 283.5103)" class="st2 st3 st4">7</text>
	<text transform="matrix(1 0 0 1 232.3869 283.5103)" class="st2 st3 st4">8</text>
	<text transform="matrix(1 0 0 1 254.881 283.5103)" class="st2 st3 st4">9</text>
	<text transform="matrix(1 0 0 1 275.5304 283.5103)" class="st2 st3 st4">10</text>
	<text transform="matrix(1 0 0 1 299.0128 283.5103)" class="st2 st3 st4">11</text>
	<text transform="matrix(1 0 0 1 321.0753 283.5103)" class="st2 st3 st4">12</text>
	<text transform="matrix(1 0 0 1 75.0236 306.397)" class="st2 st3 st4">1</text>
	<text transform="matrix(1 0 0 1 97.0851 306.397)" class="st2 st3 st4">2</text>
	<text transform="matrix(1 0 0 1 119.6593 306.397)" class="st2 st3 st4">3</text>
	<text transform="matrix(1 0 0 1 142.174 306.397)" class="st2 st3 st4">4</text>
	<text transform="matrix(1 0 0 1 164.8478 306.397)" class="st2 st3 st4">5</text>
	<text transform="matrix(1 0 0 1 187.1701 306.397)" class="st2 st3 st4">6</text>
	<text transform="matrix(1 0 0 1 210.1964 306.397)" class="st2 st3 st4">7</text>
	<text transform="matrix(1 0 0 1 232.3869 306.397)" class="st2 st3 st4">8</text>
	<text transform="matrix(1 0 0 1 254.881 306.397)" class="st2 st3 st4">9</text>
	<text transform="matrix(1 0 0 1 275.5304 306.397)" class="st2 st3 st4">10</text>
	<text transform="matrix(1 0 0 1 299.0128 306.397)" class="st2 st3 st4">11</text>
	<text transform="matrix(1 0 0 1 321.0753 306.397)" class="st2 st3 st4">12</text>
	<text transform="matrix(1 0 0 1 75.0236 328.1617)" class="st2 st3 st4">1</text>
	<text transform="matrix(1 0 0 1 97.0851 328.1617)" class="st2 st3 st4">2</text>
	<text transform="matrix(1 0 0 1 119.6593 328.1617)" class="st2 st3 st4">3</text>
	<text transform="matrix(1 0 0 1 142.174 328.1617)" class="st2 st3 st4">4</text>
	<text transform="matrix(1 0 0 1 164.8478 328.1617)" class="st2 st3 st4">5</text>
	<text transform="matrix(1 0 0 1 187.1701 328.1617)" class="st2 st3 st4">6</text>
	<text transform="matrix(1 0 0 1 210.1964 328.1617)" class="st2 st3 st4">7</text>
	<text transform="matrix(1 0 0 1 232.3869 328.1617)" class="st2 st3 st4">8</text>
	<text transform="matrix(1 0 0 1 254.881 328.1617)" class="st2 st3 st4">9</text>
	<text transform="matrix(1 0 0 1 275.5304 328.1617)" class="st2 st3 st4">10</text>
	<text transform="matrix(1 0 0 1 299.0128 328.1617)" class="st2 st3 st4">11</text>
	<text transform="matrix(1 0 0 1 321.0753 328.1617)" class="st2 st3 st4">12</text>
	<text transform="matrix(1 0 0 1 75.0236 350.5152)" class="st2 st3 st4">1</text>
	<text transform="matrix(1 0 0 1 97.0851 350.5152)" class="st2 st3 st4">2</text>
	<text transform="matrix(1 0 0 1 119.6593 350.5152)" class="st2 st3 st4">3</text>
	<text transform="matrix(1 0 0 1 142.174 350.5152)" class="st2 st3 st4">4</text>
	<text transform="matrix(1 0 0 1 164.8478 350.5152)" class="st2 st3 st4">5</text>
	<text transform="matrix(1 0 0 1 187.1701 350.5152)" class="st2 st3 st4">6</text>
	<text transform="matrix(1 0 0 1 210.1964 350.5152)" class="st2 st3 st4">7</text>
	<text transform="matrix(1 0 0 1 232.3869 350.5152)" class="st2 st3 st4">8</text>
	<text transform="matrix(1 0 0 1 254.881 350.5152)" class="st2 st3 st4">9</text>
	<text transform="matrix(1 0 0 1 275.5304 350.5152)" class="st2 st3 st4">10</text>
	<text transform="matrix(1 0 0 1 299.0128 350.5152)" class="st2 st3 st4">11</text>
	<text transform="matrix(1 0 0 1 321.0753 350.5152)" class="st2 st3 st4">12</text>
	<text transform="matrix(1 0 0 1 75.0236 373.1461)" class="st2 st3 st4">1</text>
	<text transform="matrix(1 0 0 1 97.0851 373.1461)" class="st2 st3 st4">2</text>
	<text transform="matrix(1 0 0 1 119.6593 373.1461)" class="st2 st3 st4">3</text>
	<text transform="matrix(1 0 0 1 142.174 373.1461)" class="st2 st3 st4">4</text>
	<text transform="matrix(1 0 0 1 164.8478 373.1461)" class="st2 st3 st4">5</text>
	<text transform="matrix(1 0 0 1 187.1701 373.1461)" class="st2 st3 st4">6</text>
	<text transform="matrix(1 0 0 1 210.1964 373.1461)" class="st2 st3 st4">7</text>
	<text transform="matrix(1 0 0 1 232.3869 373.1461)" class="st2 st3 st4">8</text>
	<text transform="matrix(1 0 0 1 254.881 373.1461)" class="st2 st3 st4">9</text>
	<text transform="matrix(1 0 0 1 275.5304 373.1461)" class="st2 st3 st4">10</text>
	<text transform="matrix(1 0 0 1 299.0128 373.1461)" class="st2 st3 st4">11</text>
	<text transform="matrix(1 0 0 1 321.0753 373.1461)" class="st2 st3 st4">12</text>
	<text transform="matrix(1 0 0 1 75.0236 396.3043)" class="st2 st3 st4">1</text>
	<text transform="matrix(1 0 0 1 97.0851 396.3043)" class="st2 st3 st4">2</text>
	<text transform="matrix(1 0 0 1 119.6593 396.3043)" class="st2 st3 st4">3</text>
	<text transform="matrix(1 0 0 1 142.174 396.3043)" class="st2 st3 st4">4</text>
	<text transform="matrix(1 0 0 1 164.8478 396.3043)" class="st2 st3 st4">5</text>
	<text transform="matrix(1 0 0 1 187.1701 396.3043)" class="st2 st3 st4">6</text>
	<text transform="matrix(1 0 0 1 210.1964 396.3043)" class="st2 st3 st4">7</text>
	<text transform="matrix(1 0 0 1 232.3869 396.3043)" class="st2 st3 st4">8</text>
	<text transform="matrix(1 0 0 1 254.881 396.3043)" class="st2 st3 st4">9</text>
	<text transform="matrix(1 0 0 1 275.5304 396.3043)" class="st2 st3 st4">10</text>
	<text transform="matrix(1 0 0 1 299.0128 396.3043)" class="st2 st3 st4">11</text>
	<text transform="matrix(1 0 0 1 321.0753 396.3043)" class="st2 st3 st4">12</text>
	<text transform="matrix(1 0 0 1 75.0236 418.3716)" class="st2 st3 st4">1</text>
	<text transform="matrix(1 0 0 1 97.0851 418.3716)" class="st2 st3 st4">2</text>
	<text transform="matrix(1 0 0 1 119.6593 418.3716)" class="st2 st3 st4">3</text>
	<text transform="matrix(1 0 0 1 142.174 418.3716)" class="st2 st3 st4">4</text>
	<text transform="matrix(1 0 0 1 164.8478 418.3716)" class="st2 st3 st4">5</text>
	<text transform="matrix(1 0 0 1 187.1701 418.3716)" class="st2 st3 st4">6</text>
	<text transform="matrix(1 0 0 1 210.1964 418.3716)" class="st2 st3 st4">7</text>
	<text transform="matrix(1 0 0 1 232.3869 418.3716)" class="st2 st3 st4">8</text>
	<text transform="matrix(1 0 0 1 254.881 418.3716)" class="st2 st3 st4">9</text>
	<text transform="matrix(1 0 0 1 275.5304 418.3716)" class="st2 st3 st4">10</text>
	<text transform="matrix(1 0 0 1 299.0128 418.3716)" class="st2 st3 st4">11</text>
	<text transform="matrix(1 0 0 1 321.0753 418.3716)" class="st2 st3 st4">12</text>
	<text transform="matrix(1 0 0 1 7.3141 441.8257)" class="st2 st3 st4">1</text>
	<text transform="matrix(1 0 0 1 29.3756 441.8257)" class="st2 st3 st4">2</text>
	<text transform="matrix(1 0 0 1 51.9499 441.8257)" class="st2 st3 st4">3</text>
	<text transform="matrix(1 0 0 1 74.4645 441.8257)" class="st2 st3 st4">4</text>
	<text transform="matrix(1 0 0 1 97.1383 441.8257)" class="st2 st3 st4">5</text>
	<text transform="matrix(1 0 0 1 119.4606 441.8257)" class="st2 st3 st4">6</text>
	<text transform="matrix(1 0 0 1 142.487 441.8257)" class="st2 st3 st4">7</text>
	<text transform="matrix(1 0 0 1 164.6774 441.8257)" class="st2 st3 st4">8</text>
	<text transform="matrix(1 0 0 1 187.1715 441.8257)" class="st2 st3 st4">9</text>
	<text transform="matrix(1 0 0 1 207.821 441.8257)" class="st2 st3 st4">10</text>
	<text transform="matrix(1 0 0 1 231.3034 441.8257)" class="st2 st3 st4">11</text>
	<text transform="matrix(1 0 0 1 253.3659 441.8257)" class="st2 st3 st4">12</text>
	<text transform="matrix(1 0 0 1 275.9391 441.8257)" class="st2 st3 st4">13</text>
	<text transform="matrix(1 0 0 1 298.4528 441.8257)" class="st2 st3 st4">14</text>
	<text transform="matrix(1 0 0 1 321.1276 441.8257)" class="st2 st3 st4">15</text>
	<text transform="matrix(1 0 0 1 7.3141 464.4732)" class="st2 st3 st4">1</text>
	<text transform="matrix(1 0 0 1 29.3756 464.4732)" class="st2 st3 st4">2</text>
	<text transform="matrix(1 0 0 1 51.9499 464.4732)" class="st2 st3 st4">3</text>
	<text transform="matrix(1 0 0 1 74.4645 464.4732)" class="st2 st3 st4">4</text>
	<text transform="matrix(1 0 0 1 97.1383 464.4732)" class="st2 st3 st4">5</text>
	<text transform="matrix(1 0 0 1 119.4606 464.4732)" class="st2 st3 st4">6</text>
	<text transform="matrix(1 0 0 1 142.487 464.4732)" class="st2 st3 st4">7</text>
	<text transform="matrix(1 0 0 1 164.6774 464.4732)" class="st2 st3 st4">8</text>
	<text transform="matrix(1 0 0 1 187.1715 464.4732)" class="st2 st3 st4">9</text>
	<text transform="matrix(1 0 0 1 207.821 464.4732)" class="st2 st3 st4">10</text>
	<text transform="matrix(1 0 0 1 231.3034 464.4732)" class="st2 st3 st4">11</text>
	<text transform="matrix(1 0 0 1 253.3659 464.4732)" class="st2 st3 st4">12</text>
	<text transform="matrix(1 0 0 1 275.9391 464.4732)" class="st2 st3 st4">13</text>
	<text transform="matrix(1 0 0 1 298.4528 464.4732)" class="st2 st3 st4">14</text>
	<text transform="matrix(1 0 0 1 321.1276 464.4732)" class="st2 st3 st4">15</text>
	<text transform="matrix(1 0 0 1 7.3141 486.7291)" class="st2 st3 st4">1</text>
	<text transform="matrix(1 0 0 1 29.3756 486.7291)" class="st2 st3 st4">2</text>
	<text transform="matrix(1 0 0 1 51.9499 486.7291)" class="st2 st3 st4">3</text>
	<text transform="matrix(1 0 0 1 74.4645 486.7291)" class="st2 st3 st4">4</text>
	<text transform="matrix(1 0 0 1 97.1383 486.7291)" class="st2 st3 st4">5</text>
	<text transform="matrix(1 0 0 1 119.4606 486.7291)" class="st2 st3 st4">6</text>
	<text transform="matrix(1 0 0 1 142.487 486.7291)" class="st2 st3 st4">7</text>
	<text transform="matrix(1 0 0 1 164.6774 486.7291)" class="st2 st3 st4">8</text>
	<text transform="matrix(1 0 0 1 187.1715 486.7291)" class="st2 st3 st4">9</text>
	<text transform="matrix(1 0 0 1 207.821 486.7291)" class="st2 st3 st4">10</text>
	<text transform="matrix(1 0 0 1 231.3034 486.7291)" class="st2 st3 st4">11</text>
	<text transform="matrix(1 0 0 1 253.3659 486.7291)" class="st2 st3 st4">12</text>
	<text transform="matrix(1 0 0 1 275.9391 486.7291)" class="st2 st3 st4">13</text>
	<text transform="matrix(1 0 0 1 298.4528 486.7291)" class="st2 st3 st4">14</text>
	<text transform="matrix(1 0 0 1 321.1276 486.7291)" class="st2 st3 st4">15</text>
	<text transform="matrix(1 0 0 1 7.3141 509.6158)" class="st2 st3 st4">1</text>
	<text transform="matrix(1 0 0 1 29.3756 509.6158)" class="st2 st3 st4">2</text>
	<text transform="matrix(1 0 0 1 51.9499 509.6158)" class="st2 st3 st4">3</text>
	<text transform="matrix(1 0 0 1 74.4645 509.6158)" class="st2 st3 st4">4</text>
	<text transform="matrix(1 0 0 1 97.1383 509.6158)" class="st2 st3 st4">5</text>
	<text transform="matrix(1 0 0 1 119.4606 509.6158)" class="st2 st3 st4">6</text>
	<text transform="matrix(1 0 0 1 142.487 509.6158)" class="st2 st3 st4">7</text>
	<text transform="matrix(1 0 0 1 164.6774 509.6158)" class="st2 st3 st4">8</text>
	<text transform="matrix(1 0 0 1 187.1715 509.6158)" class="st2 st3 st4">9</text>
	<text transform="matrix(1 0 0 1 207.821 509.6158)" class="st2 st3 st4">10</text>
	<text transform="matrix(1 0 0 1 231.3034 509.6158)" class="st2 st3 st4">11</text>
	<text transform="matrix(1 0 0 1 253.3659 509.6158)" class="st2 st3 st4">12</text>
	<text transform="matrix(1 0 0 1 275.9391 509.6158)" class="st2 st3 st4">13</text>
	<text transform="matrix(1 0 0 1 298.4528 509.6158)" class="st2 st3 st4">14</text>
	<text transform="matrix(1 0 0 1 321.1276 509.6158)" class="st2 st3 st4">15</text>
	<text transform="matrix(1 0 0 1 7.3141 531.3804)" class="st2 st3 st4">1</text>
	<text transform="matrix(1 0 0 1 29.3756 531.3804)" class="st2 st3 st4">2</text>
	<text transform="matrix(1 0 0 1 51.9499 531.3804)" class="st2 st3 st4">3</text>
	<text transform="matrix(1 0 0 1 74.4645 531.3804)" class="st2 st3 st4">4</text>
	<text transform="matrix(1 0 0 1 97.1383 531.3804)" class="st2 st3 st4">5</text>
	<text transform="matrix(1 0 0 1 119.4606 531.3804)" class="st2 st3 st4">6</text>
	<text transform="matrix(1 0 0 1 142.487 531.3804)" class="st2 st3 st4">7</text>
	<text transform="matrix(1 0 0 1 164.6774 531.3804)" class="st2 st3 st4">8</text>
	<text transform="matrix(1 0 0 1 187.1715 531.3804)" class="st2 st3 st4">9</text>
	<text transform="matrix(1 0 0 1 207.821 531.3804)" class="st2 st3 st4">10</text>
	<text transform="matrix(1 0 0 1 231.3034 531.3804)" class="st2 st3 st4">11</text>
	<text transform="matrix(1 0 0 1 253.3659 531.3804)" class="st2 st3 st4">12</text>
	<text transform="matrix(1 0 0 1 275.9391 531.3804)" class="st2 st3 st4">13</text>
	<text transform="matrix(1 0 0 1 298.4528 531.3804)" class="st2 st3 st4">14</text>
	<text transform="matrix(1 0 0 1 321.1276 531.3804)" class="st2 st3 st4">15</text>
	<text transform="matrix(1 0 0 1 7.3141 553.7339)" class="st2 st3 st4">1</text>
	<text transform="matrix(1 0 0 1 29.3756 553.7339)" class="st2 st3 st4">2</text>
	<text transform="matrix(1 0 0 1 51.9499 553.7339)" class="st2 st3 st4">3</text>
	<text transform="matrix(1 0 0 1 74.4645 553.7339)" class="st2 st3 st4">4</text>
	<text transform="matrix(1 0 0 1 97.1383 553.7339)" class="st2 st3 st4">5</text>
	<text transform="matrix(1 0 0 1 119.4606 553.7339)" class="st2 st3 st4">6</text>
	<text transform="matrix(1 0 0 1 142.487 553.7339)" class="st2 st3 st4">7</text>
	<text transform="matrix(1 0 0 1 164.6774 553.7339)" class="st2 st3 st4">8</text>
	<text transform="matrix(1 0 0 1 187.1715 553.7339)" class="st2 st3 st4">9</text>
	<text transform="matrix(1 0 0 1 207.821 553.7339)" class="st2 st3 st4">10</text>
	<text transform="matrix(1 0 0 1 231.3034 553.7339)" class="st2 st3 st4">11</text>
	<text transform="matrix(1 0 0 1 253.3659 553.7339)" class="st2 st3 st4">12</text>
	<text transform="matrix(1 0 0 1 275.9391 553.7339)" class="st2 st3 st4">13</text>
	<text transform="matrix(1 0 0 1 298.4528 553.7339)" class="st2 st3 st4">14</text>
	<text transform="matrix(1 0 0 1 321.1276 553.7339)" class="st2 st3 st4">15</text>
	<text transform="matrix(1 0 0 1 7.3141 576.3648)" class="st2 st3 st4">1</text>
	<text transform="matrix(1 0 0 1 29.3756 576.3648)" class="st2 st3 st4">2</text>
	<text transform="matrix(1 0 0 1 51.9499 576.3648)" class="st2 st3 st4">3</text>
	<text transform="matrix(1 0 0 1 74.4645 576.3648)" class="st2 st3 st4">4</text>
	<text transform="matrix(1 0 0 1 97.1383 576.3648)" class="st2 st3 st4">5</text>
	<text transform="matrix(1 0 0 1 119.4606 576.3648)" class="st2 st3 st4">6</text>
	<text transform="matrix(1 0 0 1 142.487 576.3648)" class="st2 st3 st4">7</text>
	<text transform="matrix(1 0 0 1 164.6774 576.3648)" class="st2 st3 st4">8</text>
	<text transform="matrix(1 0 0 1 187.1715 576.3648)" class="st2 st3 st4">9</text>
	<text transform="matrix(1 0 0 1 207.821 576.3648)" class="st2 st3 st4">10</text>
	<text transform="matrix(1 0 0 1 231.3034 576.3648)" class="st2 st3 st4">11</text>
	<text transform="matrix(1 0 0 1 253.3659 576.3648)" class="st2 st3 st4">12</text>
	<text transform="matrix(1 0 0 1 275.9391 576.3648)" class="st2 st3 st4">13</text>
	<text transform="matrix(1 0 0 1 298.4528 576.3648)" class="st2 st3 st4">14</text>
	<text transform="matrix(1 0 0 1 321.1276 576.3648)" class="st2 st3 st4">15</text>
	<text transform="matrix(1 0 0 1 7.3141 599.523)" class="st2 st3 st4">1</text>
	<text transform="matrix(1 0 0 1 29.3756 599.523)" class="st2 st3 st4">2</text>
	<text transform="matrix(1 0 0 1 51.9499 599.523)" class="st2 st3 st4">3</text>
	<text transform="matrix(1 0 0 1 74.4645 599.523)" class="st2 st3 st4">4</text>
	<text transform="matrix(1 0 0 1 97.1383 599.523)" class="st2 st3 st4">5</text>
	<text transform="matrix(1 0 0 1 119.4606 599.523)" class="st2 st3 st4">6</text>
	<text transform="matrix(1 0 0 1 142.487 599.523)" class="st2 st3 st4">7</text>
	<text transform="matrix(1 0 0 1 164.6774 599.523)" class="st2 st3 st4">8</text>
	<text transform="matrix(1 0 0 1 187.1715 599.523)" class="st2 st3 st4">9</text>
	<text transform="matrix(1 0 0 1 207.821 599.523)" class="st2 st3 st4">10</text>
	<text transform="matrix(1 0 0 1 231.3034 599.523)" class="st2 st3 st4">11</text>
	<text transform="matrix(1 0 0 1 253.3659 599.523)" class="st2 st3 st4">12</text>
	<text transform="matrix(1 0 0 1 275.9391 599.523)" class="st2 st3 st4">13</text>
	<text transform="matrix(1 0 0 1 298.4528 599.523)" class="st2 st3 st4">14</text>
	<text transform="matrix(1 0 0 1 321.1276 599.523)" class="st2 st3 st4">15</text>
	<text transform="matrix(1 0 0 1 7.3141 621.6949)" class="st2 st3 st4">1</text>
	<text transform="matrix(1 0 0 1 29.3756 621.6949)" class="st2 st3 st4">2</text>
	<text transform="matrix(1 0 0 1 51.9499 621.6949)" class="st2 st3 st4">3</text>
	<text transform="matrix(1 0 0 1 74.4645 621.6949)" class="st2 st3 st4">4</text>
	<text transform="matrix(1 0 0 1 97.1383 621.6949)" class="st2 st3 st4">5</text>
	<text transform="matrix(1 0 0 1 119.4606 621.6949)" class="st2 st3 st4">6</text>
	<text transform="matrix(1 0 0 1 142.487 621.6949)" class="st2 st3 st4">7</text>
	<text transform="matrix(1 0 0 1 164.6774 621.6949)" class="st2 st3 st4">8</text>
	<text transform="matrix(1 0 0 1 187.1715 621.6949)" class="st2 st3 st4">9</text>
	<text transform="matrix(1 0 0 1 207.821 621.6949)" class="st2 st3 st4">10</text>
	<text transform="matrix(1 0 0 1 231.3034 621.6949)" class="st2 st3 st4">11</text>
	<text transform="matrix(1 0 0 1 253.3659 621.6949)" class="st2 st3 st4">12</text>
	<text transform="matrix(1 0 0 1 275.9391 621.6949)" class="st2 st3 st4">13</text>
	<text transform="matrix(1 0 0 1 298.4528 621.6949)" class="st2 st3 st4">14</text>
	<text transform="matrix(1 0 0 1 321.1276 621.6949)" class="st2 st3 st4">15</text>
</g>
<g>
	<text transform="matrix(1 0 0 1 383.4211 55.1871)" class="st5 st6 st7">29</text>
	<text transform="matrix(1 0 0 1 383.4211 10.816)" class="st5 st6 st7">30</text>
	<text transform="matrix(1 0 0 1 383.4211 100.6832)" class="st5 st6 st7">27</text>
	<text transform="matrix(1 0 0 1 383.4211 78.1128)" class="st5 st6 st7">28</text>
	<text transform="matrix(1 0 0 1 383.4211 145.8257)" class="st5 st6 st7">25</text>
	<text transform="matrix(1 0 0 1 383.2609 326.4254)" class="st5 st6 st7">17</text>
	<text transform="matrix(1 0 0 1 383.2609 348.9771)" class="st5 st6 st7">16</text>
	<text transform="matrix(1 0 0 1 383.4211 371.6129)" class="st5 st6 st7">15</text>
	<text transform="matrix(1 0 0 1 383.4211 394.1646)" class="st5 st6 st7">14</text>
	<text transform="matrix(1 0 0 1 383.2336 416.7974)" class="st5 st6 st7">13</text>
	<text transform="matrix(1 0 0 1 383.2609 439.3502)" class="st5 st6 st7">12</text>
	<text transform="matrix(1 0 0 1 383.5968 620.0474)" class="st5 st6 st7">4</text>
	<text transform="matrix(1 0 0 1 383.4211 123.2554)" class="st5 st6 st7">26</text>
	<text transform="matrix(1 0 0 1 383.4211 168.2798)" class="st5 st6 st7">24</text>
	<text transform="matrix(1 0 0 1 383.4211 213.4673)" class="st5 st6 st7">22</text>
	<text transform="matrix(1 0 0 1 383.4211 190.897)" class="st5 st6 st7">23</text>
	<text transform="matrix(1 0 0 1 383.4211 258.6119)" class="st5 st6 st7">20</text>
	<text transform="matrix(1 0 0 1 383.4211 236.0416)" class="st5 st6 st7">21</text>
	<text transform="matrix(1 0 0 1 383.2336 303.7545)" class="st5 st6 st7">18</text>
	<text transform="matrix(1 0 0 1 383.2609 281.1841)" class="st5 st6 st7">19</text>
	<text transform="matrix(1 0 0 1 383.2609 461.9039)" class="st5 st6 st7">11</text>
	<text transform="matrix(1 0 0 1 383.2609 507.0914)" class="st5 st6 st7">9</text>
	<text transform="matrix(1 0 0 1 383.2609 484.5211)" class="st5 st6 st7">10</text>
	<text transform="matrix(1 0 0 1 383.8683 552.2369)" class="st5 st6 st7">7</text>
	<text transform="matrix(1 0 0 1 383.2336 529.6666)" class="st5 st6 st7">8</text>
	<text transform="matrix(1 0 0 1 383.2609 574.8091)" class="st5 st6 st7">6</text>
	<text transform="matrix(1 0 0 1 383.8683 597.3922)" class="st5 st6 st7">5</text>
</g>
</svg>
