<?xml version="1.0" encoding="utf-8"?>
<!-- Generator: Adobe Illustrator 20.1.0, SVG Export Plug-In . SVG Version: 6.00 Build 0)  -->
<svg version="1.1" id="Layer_1" xmlns="http://www.w3.org/2000/svg" xmlns:xlink="http://www.w3.org/1999/xlink" x="0px" y="0px"
	 viewBox="0 0 426.8 627.8" style="enable-background:new 0 0 426.8 627.8;" xml:space="preserve">
<style type="text/css">
	.st0{fill:#D9F6E1;}
	.st1{fill:#FFFFFF;}
	.st2{fill:#737373;}
	.st3{font-family:'OsnovaPro';}
	.st4{font-size:8px;}
	.st5{fill:#7B878F;}
	.st6{font-family:'OsnovaProLight';}
	.st7{font-size:9px;}
</style>
<path class="st0" d="M9.3,16.6L9.3,16.6C4.7,16.6,1,12.8,1,8.3v0C1,3.7,4.7,0,9.3,0h0c4.6,0,8.3,3.7,8.3,8.3v0
	C17.6,12.8,13.8,16.6,9.3,16.6z"/>
<path class="st0" d="M31.9,16.6L31.9,16.6c-4.6,0-8.3-3.7-8.3-8.3v0c0-4.6,3.7-8.3,8.3-8.3h0c4.6,0,8.3,3.7,8.3,8.3v0
	C40.1,12.8,36.4,16.6,31.9,16.6z"/>
<path class="st0" d="M54.4,16.6L54.4,16.6c-4.6,0-8.3-3.7-8.3-8.3v0c0-4.6,3.7-8.3,8.3-8.3h0c4.6,0,8.3,3.7,8.3,8.3v0
	C62.7,12.8,59,16.6,54.4,16.6z"/>
<path class="st0" d="M77,16.6L77,16.6c-4.6,0-8.3-3.7-8.3-8.3v0C68.7,3.7,72.4,0,77,0h0c4.6,0,8.3,3.7,8.3,8.3v0
	C85.3,12.8,81.6,16.6,77,16.6z"/>
<path class="st0" d="M99.6,16.6L99.6,16.6c-4.6,0-8.3-3.7-8.3-8.3v0C91.3,3.7,95,0,99.6,0h0c4.6,0,8.3,3.7,8.3,8.3v0
	C107.9,12.8,104.1,16.6,99.6,16.6z"/>
<path class="st0" d="M122.1,16.6L122.1,16.6c-4.6,0-8.3-3.7-8.3-8.3v0c0-4.6,3.7-8.3,8.3-8.3h0c4.6,0,8.3,3.7,8.3,8.3v0
	C130.4,12.8,126.7,16.6,122.1,16.6z"/>
<path class="st0" d="M144.6,16.6L144.6,16.6c-4.6,0-8.3-3.7-8.3-8.3v0c0-4.6,3.7-8.3,8.3-8.3h0c4.6,0,8.3,3.7,8.3,8.3v0
	C152.9,12.8,149.2,16.6,144.6,16.6z"/>
<path class="st0" d="M167.2,16.6L167.2,16.6c-4.6,0-8.3-3.7-8.3-8.3v0c0-4.6,3.7-8.3,8.3-8.3h0c4.6,0,8.3,3.7,8.3,8.3v0
	C175.5,12.8,171.8,16.6,167.2,16.6z"/>
<path class="st0" d="M189.8,16.6L189.8,16.6c-4.6,0-8.3-3.7-8.3-8.3v0c0-4.6,3.7-8.3,8.3-8.3h0c4.6,0,8.3,3.7,8.3,8.3v0
	C198,12.8,194.3,16.6,189.8,16.6z"/>
<path class="st0" d="M212.3,16.6L212.3,16.6c-4.6,0-8.3-3.7-8.3-8.3v0c0-4.6,3.7-8.3,8.3-8.3h0c4.6,0,8.3,3.7,8.3,8.3v0
	C220.6,12.8,216.9,16.6,212.3,16.6z"/>
<path class="st1" d="M167.1,108.3L167.1,108.3c-4.6,0-8.3-3.7-8.3-8.3v0c0-4.6,3.7-8.3,8.3-8.3h0c4.6,0,8.3,3.7,8.3,8.3v0
	C175.4,104.6,171.7,108.3,167.1,108.3z"/>
<path class="st1" d="M189.7,108.3L189.7,108.3c-4.6,0-8.3-3.7-8.3-8.3v0c0-4.6,3.7-8.3,8.3-8.3h0c4.6,0,8.3,3.7,8.3,8.3v0
	C198,104.6,194.2,108.3,189.7,108.3z"/>
<path class="st1" d="M212.3,108.3L212.3,108.3c-4.6,0-8.3-3.7-8.3-8.3v0c0-4.6,3.7-8.3,8.3-8.3h0c4.6,0,8.3,3.7,8.3,8.3v0
	C220.5,104.6,216.8,108.3,212.3,108.3z"/>
<path class="st1" d="M234.8,108.3L234.8,108.3c-4.6,0-8.3-3.7-8.3-8.3v0c0-4.6,3.7-8.3,8.3-8.3h0c4.6,0,8.3,3.7,8.3,8.3v0
	C243.1,104.6,239.4,108.3,234.8,108.3z"/>
<path class="st1" d="M257.4,108.3L257.4,108.3c-4.6,0-8.3-3.7-8.3-8.3v0c0-4.6,3.7-8.3,8.3-8.3h0c4.6,0,8.3,3.7,8.3,8.3v0
	C265.7,104.6,262,108.3,257.4,108.3z"/>
<path class="st1" d="M280,108.3L280,108.3c-4.6,0-8.3-3.7-8.3-8.3v0c0-4.6,3.7-8.3,8.3-8.3l0,0c4.6,0,8.3,3.7,8.3,8.3v0
	C288.2,104.6,284.5,108.3,280,108.3z"/>
<path class="st1" d="M302.5,108.3L302.5,108.3c-4.6,0-8.3-3.7-8.3-8.3v0c0-4.6,3.7-8.3,8.3-8.3l0,0c4.6,0,8.3,3.7,8.3,8.3v0
	C310.8,104.6,307.1,108.3,302.5,108.3z"/>
<path class="st1" d="M325.1,108.3L325.1,108.3c-4.6,0-8.3-3.7-8.3-8.3v0c0-4.6,3.7-8.3,8.3-8.3h0c4.6,0,8.3,3.7,8.3,8.3v0
	C333.4,104.6,329.7,108.3,325.1,108.3z"/>
<path class="st1" d="M167.1,85.7L167.1,85.7c-4.6,0-8.3-3.7-8.3-8.3v0c0-4.6,3.7-8.3,8.3-8.3h0c4.6,0,8.3,3.7,8.3,8.3v0
	C175.4,82,171.7,85.7,167.1,85.7z"/>
<path class="st1" d="M189.7,85.7L189.7,85.7c-4.6,0-8.3-3.7-8.3-8.3v0c0-4.6,3.7-8.3,8.3-8.3h0c4.6,0,8.3,3.7,8.3,8.3v0
	C198,82,194.2,85.7,189.7,85.7z"/>
<path class="st1" d="M212.3,85.7L212.3,85.7c-4.6,0-8.3-3.7-8.3-8.3v0c0-4.6,3.7-8.3,8.3-8.3h0c4.6,0,8.3,3.7,8.3,8.3v0
	C220.5,82,216.8,85.7,212.3,85.7z"/>
<path class="st1" d="M234.8,85.7L234.8,85.7c-4.6,0-8.3-3.7-8.3-8.3v0c0-4.6,3.7-8.3,8.3-8.3h0c4.6,0,8.3,3.7,8.3,8.3v0
	C243.1,82,239.4,85.7,234.8,85.7z"/>
<path class="st1" d="M257.4,85.7L257.4,85.7c-4.6,0-8.3-3.7-8.3-8.3v0c0-4.6,3.7-8.3,8.3-8.3h0c4.6,0,8.3,3.7,8.3,8.3v0
	C265.7,82,262,85.7,257.4,85.7z"/>
<path class="st1" d="M280,85.7L280,85.7c-4.6,0-8.3-3.7-8.3-8.3v0c0-4.6,3.7-8.3,8.3-8.3l0,0c4.6,0,8.3,3.7,8.3,8.3v0
	C288.2,82,284.5,85.7,280,85.7z"/>
<path class="st1" d="M302.5,85.7L302.5,85.7c-4.6,0-8.3-3.7-8.3-8.3v0c0-4.6,3.7-8.3,8.3-8.3l0,0c4.6,0,8.3,3.7,8.3,8.3v0
	C310.8,82,307.1,85.7,302.5,85.7z"/>
<path class="st1" d="M325.1,85.7L325.1,85.7c-4.6,0-8.3-3.7-8.3-8.3v0c0-4.6,3.7-8.3,8.3-8.3h0c4.6,0,8.3,3.7,8.3,8.3v0
	C333.4,82,329.7,85.7,325.1,85.7z"/>
<path class="st1" d="M167.1,153.4L167.1,153.4c-4.6,0-8.3-3.7-8.3-8.3v0c0-4.6,3.7-8.3,8.3-8.3h0c4.6,0,8.3,3.7,8.3,8.3v0
	C175.4,149.7,171.7,153.4,167.1,153.4z"/>
<path class="st1" d="M189.7,153.4L189.7,153.4c-4.6,0-8.3-3.7-8.3-8.3v0c0-4.6,3.7-8.3,8.3-8.3h0c4.6,0,8.3,3.7,8.3,8.3v0
	C198,149.7,194.3,153.4,189.7,153.4z"/>
<path class="st1" d="M212.3,153.4L212.3,153.4c-4.6,0-8.3-3.7-8.3-8.3v0c0-4.6,3.7-8.3,8.3-8.3h0c4.6,0,8.3,3.7,8.3,8.3v0
	C220.6,149.7,216.8,153.4,212.3,153.4z"/>
<path class="st1" d="M234.8,153.4L234.8,153.4c-4.6,0-8.3-3.7-8.3-8.3v0c0-4.6,3.7-8.3,8.3-8.3h0c4.6,0,8.3,3.7,8.3,8.3v0
	C243.1,149.7,239.4,153.4,234.8,153.4z"/>
<path class="st1" d="M257.4,153.4L257.4,153.4c-4.6,0-8.3-3.7-8.3-8.3v0c0-4.6,3.7-8.3,8.3-8.3l0,0c4.6,0,8.3,3.7,8.3,8.3v0
	C265.7,149.7,262,153.4,257.4,153.4z"/>
<path class="st1" d="M280,153.4L280,153.4c-4.6,0-8.3-3.7-8.3-8.3v0c0-4.6,3.7-8.3,8.3-8.3h0c4.6,0,8.3,3.7,8.3,8.3v0
	C288.3,149.7,284.5,153.4,280,153.4z"/>
<path class="st1" d="M302.6,153.4L302.6,153.4c-4.6,0-8.3-3.7-8.3-8.3v0c0-4.6,3.7-8.3,8.3-8.3h0c4.6,0,8.3,3.7,8.3,8.3v0
	C310.8,149.7,307.1,153.4,302.6,153.4z"/>
<path class="st1" d="M325.1,153.4L325.1,153.4c-4.6,0-8.3-3.7-8.3-8.3v0c0-4.6,3.7-8.3,8.3-8.3l0,0c4.6,0,8.3,3.7,8.3,8.3v0
	C333.4,149.7,329.7,153.4,325.1,153.4z"/>
<path class="st1" d="M189.7,334L189.7,334c-4.6,0-8.3-3.7-8.3-8.3l0,0c0-4.6,3.7-8.3,8.3-8.3h0c4.6,0,8.3,3.7,8.3,8.3l0,0
	C198,330.3,194.2,334,189.7,334z"/>
<path class="st1" d="M212.3,334L212.3,334c-4.6,0-8.3-3.7-8.3-8.3l0,0c0-4.6,3.7-8.3,8.3-8.3h0c4.6,0,8.3,3.7,8.3,8.3l0,0
	C220.5,330.3,216.8,334,212.3,334z"/>
<path class="st1" d="M234.8,334L234.8,334c-4.6,0-8.3-3.7-8.3-8.3l0,0c0-4.6,3.7-8.3,8.3-8.3h0c4.6,0,8.3,3.7,8.3,8.3l0,0
	C243.1,330.3,239.4,334,234.8,334z"/>
<path class="st1" d="M257.4,334L257.4,334c-4.6,0-8.3-3.7-8.3-8.3l0,0c0-4.6,3.7-8.3,8.3-8.3h0c4.6,0,8.3,3.7,8.3,8.3l0,0
	C265.7,330.3,262,334,257.4,334z"/>
<path class="st1" d="M212.3,356.6L212.3,356.6c-4.6,0-8.3-3.7-8.3-8.3v0c0-4.6,3.7-8.3,8.3-8.3h0c4.6,0,8.3,3.7,8.3,8.3v0
	C220.5,352.9,216.8,356.6,212.3,356.6z"/>
<path class="st1" d="M234.8,356.6L234.8,356.6c-4.6,0-8.3-3.7-8.3-8.3v0c0-4.6,3.7-8.3,8.3-8.3h0c4.6,0,8.3,3.7,8.3,8.3v0
	C243.1,352.9,239.4,356.6,234.8,356.6z"/>
<path class="st1" d="M257.4,356.6L257.4,356.6c-4.6,0-8.3-3.7-8.3-8.3v0c0-4.6,3.7-8.3,8.3-8.3h0c4.6,0,8.3,3.7,8.3,8.3v0
	C265.7,352.9,262,356.6,257.4,356.6z"/>
<path class="st1" d="M212.3,379.2L212.3,379.2c-4.6,0-8.3-3.7-8.3-8.3l0,0c0-4.6,3.7-8.3,8.3-8.3h0c4.6,0,8.3,3.7,8.3,8.3l0,0
	C220.5,375.5,216.8,379.2,212.3,379.2z"/>
<path class="st1" d="M234.8,379.2L234.8,379.2c-4.6,0-8.3-3.7-8.3-8.3l0,0c0-4.6,3.7-8.3,8.3-8.3h0c4.6,0,8.3,3.7,8.3,8.3l0,0
	C243.1,375.5,239.4,379.2,234.8,379.2z"/>
<path class="st1" d="M257.4,379.2L257.4,379.2c-4.6,0-8.3-3.7-8.3-8.3l0,0c0-4.6,3.7-8.3,8.3-8.3h0c4.6,0,8.3,3.7,8.3,8.3l0,0
	C265.7,375.5,262,379.2,257.4,379.2z"/>
<path class="st1" d="M234.8,401.8L234.8,401.8c-4.6,0-8.3-3.7-8.3-8.3v0c0-4.6,3.7-8.3,8.3-8.3h0c4.6,0,8.3,3.7,8.3,8.3v0
	C243.1,398,239.4,401.8,234.8,401.8z"/>
<path class="st1" d="M212.6,401.8L212.6,401.8c-4.6,0-8.3-3.7-8.3-8.3v0c0-4.6,3.7-8.3,8.3-8.3h0c4.6,0,8.3,3.7,8.3,8.3v0
	C220.9,398,217.1,401.8,212.6,401.8z"/>
<path class="st1" d="M257.4,401.8L257.4,401.8c-4.6,0-8.3-3.7-8.3-8.3v0c0-4.6,3.7-8.3,8.3-8.3h0c4.6,0,8.3,3.7,8.3,8.3v0
	C265.7,398,262,401.8,257.4,401.8z"/>
<path class="st1" d="M234.8,424.4L234.8,424.4c-4.6,0-8.3-3.7-8.3-8.3l0,0c0-4.6,3.7-8.3,8.3-8.3h0c4.6,0,8.3,3.7,8.3,8.3l0,0
	C243.1,420.7,239.4,424.4,234.8,424.4z"/>
<path class="st1" d="M257.4,424.4L257.4,424.4c-4.6,0-8.3-3.7-8.3-8.3l0,0c0-4.6,3.7-8.3,8.3-8.3h0c4.6,0,8.3,3.7,8.3,8.3l0,0
	C265.7,420.7,262,424.4,257.4,424.4z"/>
<path class="st1" d="M257.4,447L257.4,447c-4.6,0-8.3-3.7-8.3-8.3l0,0c0-4.6,3.7-8.3,8.3-8.3l0,0c4.6,0,8.3,3.7,8.3,8.3l0,0
	C265.7,443.2,262,447,257.4,447z"/>
<path class="st1" d="M280,447L280,447c-4.6,0-8.3-3.7-8.3-8.3l0,0c0-4.6,3.7-8.3,8.3-8.3h0c4.6,0,8.3,3.7,8.3,8.3l0,0
	C288.3,443.2,284.5,447,280,447z"/>
<path class="st1" d="M302.6,447L302.6,447c-4.6,0-8.3-3.7-8.3-8.3l0,0c0-4.6,3.7-8.3,8.3-8.3h0c4.6,0,8.3,3.7,8.3,8.3l0,0
	C310.8,443.2,307.1,447,302.6,447z"/>
<path class="st1" d="M325.1,447L325.1,447c-4.6,0-8.3-3.7-8.3-8.3l0,0c0-4.6,3.7-8.3,8.3-8.3l0,0c4.6,0,8.3,3.7,8.3,8.3l0,0
	C333.4,443.2,329.7,447,325.1,447z"/>
<path class="st1" d="M167.1,130.9L167.1,130.9c-4.6,0-8.3-3.7-8.3-8.3v0c0-4.6,3.7-8.3,8.3-8.3h0c4.6,0,8.3,3.7,8.3,8.3v0
	C175.4,127.1,171.7,130.9,167.1,130.9z"/>
<path class="st1" d="M189.7,130.9L189.7,130.9c-4.6,0-8.3-3.7-8.3-8.3v0c0-4.6,3.7-8.3,8.3-8.3h0c4.6,0,8.3,3.7,8.3,8.3v0
	C198,127.1,194.3,130.9,189.7,130.9z"/>
<path class="st1" d="M212.3,130.9L212.3,130.9c-4.6,0-8.3-3.7-8.3-8.3v0c0-4.6,3.7-8.3,8.3-8.3h0c4.6,0,8.3,3.7,8.3,8.3v0
	C220.6,127.1,216.8,130.9,212.3,130.9z"/>
<path class="st1" d="M234.8,130.9L234.8,130.9c-4.6,0-8.3-3.7-8.3-8.3v0c0-4.6,3.7-8.3,8.3-8.3h0c4.6,0,8.3,3.7,8.3,8.3v0
	C243.1,127.1,239.4,130.9,234.8,130.9z"/>
<path class="st1" d="M257.4,130.9L257.4,130.9c-4.6,0-8.3-3.7-8.3-8.3v0c0-4.6,3.7-8.3,8.3-8.3l0,0c4.6,0,8.3,3.7,8.3,8.3v0
	C265.7,127.1,262,130.9,257.4,130.9z"/>
<path class="st1" d="M280,130.9L280,130.9c-4.6,0-8.3-3.7-8.3-8.3v0c0-4.6,3.7-8.3,8.3-8.3h0c4.6,0,8.3,3.7,8.3,8.3v0
	C288.3,127.1,284.5,130.9,280,130.9z"/>
<path class="st1" d="M302.6,130.9L302.6,130.9c-4.6,0-8.3-3.7-8.3-8.3v0c0-4.6,3.7-8.3,8.3-8.3h0c4.6,0,8.3,3.7,8.3,8.3v0
	C310.8,127.1,307.1,130.9,302.6,130.9z"/>
<path class="st1" d="M325.1,130.9L325.1,130.9c-4.6,0-8.3-3.7-8.3-8.3v0c0-4.6,3.7-8.3,8.3-8.3l0,0c4.6,0,8.3,3.7,8.3,8.3v0
	C333.4,127.1,329.7,130.9,325.1,130.9z"/>
<path class="st1" d="M167.2,176L167.2,176c-4.6,0-8.3-3.7-8.3-8.3v0c0-4.6,3.7-8.3,8.3-8.3h0c4.6,0,8.3,3.7,8.3,8.3v0
	C175.4,172.3,171.7,176,167.2,176z"/>
<path class="st1" d="M189.7,176L189.7,176c-4.6,0-8.3-3.7-8.3-8.3v0c0-4.6,3.7-8.3,8.3-8.3h0c4.6,0,8.3,3.7,8.3,8.3v0
	C198,172.3,194.3,176,189.7,176z"/>
<path class="st1" d="M212.3,176L212.3,176c-4.6,0-8.3-3.7-8.3-8.3v0c0-4.6,3.7-8.3,8.3-8.3h0c4.6,0,8.3,3.7,8.3,8.3v0
	C220.6,172.3,216.9,176,212.3,176z"/>
<path class="st1" d="M234.9,176L234.9,176c-4.6,0-8.3-3.7-8.3-8.3v0c0-4.6,3.7-8.3,8.3-8.3h0c4.6,0,8.3,3.7,8.3,8.3v0
	C243.2,172.3,239.4,176,234.9,176z"/>
<path class="st1" d="M257.4,176L257.4,176c-4.6,0-8.3-3.7-8.3-8.3v0c0-4.6,3.7-8.3,8.3-8.3l0,0c4.6,0,8.3,3.7,8.3,8.3v0
	C265.7,172.3,262,176,257.4,176z"/>
<path class="st1" d="M280,176L280,176c-4.6,0-8.3-3.7-8.3-8.3v0c0-4.6,3.7-8.3,8.3-8.3h0c4.6,0,8.3,3.7,8.3,8.3v0
	C288.3,172.3,284.6,176,280,176z"/>
<path class="st1" d="M302.6,176L302.6,176c-4.6,0-8.3-3.7-8.3-8.3v0c0-4.6,3.7-8.3,8.3-8.3h0c4.6,0,8.3,3.7,8.3,8.3v0
	C310.9,172.3,307.1,176,302.6,176z"/>
<path class="st1" d="M325.2,176L325.2,176c-4.6,0-8.3-3.7-8.3-8.3v0c0-4.6,3.7-8.3,8.3-8.3l0,0c4.6,0,8.3,3.7,8.3,8.3v0
	C333.4,172.3,329.7,176,325.2,176z"/>
<path class="st1" d="M167.1,221.1L167.1,221.1c-4.6,0-8.3-3.7-8.3-8.3v0c0-4.6,3.7-8.3,8.3-8.3h0c4.6,0,8.3,3.7,8.3,8.3v0
	C175.4,217.4,171.7,221.1,167.1,221.1z"/>
<path class="st1" d="M189.7,221.1L189.7,221.1c-4.6,0-8.3-3.7-8.3-8.3v0c0-4.6,3.7-8.3,8.3-8.3h0c4.6,0,8.3,3.7,8.3,8.3v0
	C198,217.4,194.3,221.1,189.7,221.1z"/>
<path class="st1" d="M212.3,221.1L212.3,221.1c-4.6,0-8.3-3.7-8.3-8.3v0c0-4.6,3.7-8.3,8.3-8.3h0c4.6,0,8.3,3.7,8.3,8.3v0
	C220.6,217.4,216.8,221.1,212.3,221.1z"/>
<path class="st1" d="M234.8,221.1L234.8,221.1c-4.6,0-8.3-3.7-8.3-8.3v0c0-4.6,3.7-8.3,8.3-8.3h0c4.6,0,8.3,3.7,8.3,8.3v0
	C243.1,217.4,239.4,221.1,234.8,221.1z"/>
<path class="st1" d="M257.4,221.1L257.4,221.1c-4.6,0-8.3-3.7-8.3-8.3v0c0-4.6,3.7-8.3,8.3-8.3l0,0c4.6,0,8.3,3.7,8.3,8.3v0
	C265.7,217.4,262,221.1,257.4,221.1z"/>
<path class="st1" d="M280,221.1L280,221.1c-4.6,0-8.3-3.7-8.3-8.3v0c0-4.6,3.7-8.3,8.3-8.3l0,0c4.6,0,8.3,3.7,8.3,8.3v0
	C288.3,217.4,284.5,221.1,280,221.1z"/>
<path class="st1" d="M302.6,221.1L302.6,221.1c-4.6,0-8.3-3.7-8.3-8.3v0c0-4.6,3.7-8.3,8.3-8.3l0,0c4.6,0,8.3,3.7,8.3,8.3v0
	C310.8,217.4,307.1,221.1,302.6,221.1z"/>
<path class="st1" d="M325.1,221.1L325.1,221.1c-4.6,0-8.3-3.7-8.3-8.3v0c0-4.6,3.7-8.3,8.3-8.3h0c4.6,0,8.3,3.7,8.3,8.3v0
	C333.4,217.4,329.7,221.1,325.1,221.1z"/>
<path class="st1" d="M167.1,198.6L167.1,198.6c-4.6,0-8.3-3.7-8.3-8.3v0c0-4.6,3.7-8.3,8.3-8.3h0c4.6,0,8.3,3.7,8.3,8.3v0
	C175.4,194.8,171.7,198.6,167.1,198.6z"/>
<path class="st1" d="M189.7,198.6L189.7,198.6c-4.6,0-8.3-3.7-8.3-8.3v0c0-4.6,3.7-8.3,8.3-8.3h0c4.6,0,8.3,3.7,8.3,8.3v0
	C198,194.8,194.3,198.6,189.7,198.6z"/>
<path class="st1" d="M212.3,198.6L212.3,198.6c-4.6,0-8.3-3.7-8.3-8.3v0c0-4.6,3.7-8.3,8.3-8.3h0c4.6,0,8.3,3.7,8.3,8.3v0
	C220.6,194.8,216.8,198.6,212.3,198.6z"/>
<path class="st1" d="M234.8,198.6L234.8,198.6c-4.6,0-8.3-3.7-8.3-8.3v0c0-4.6,3.7-8.3,8.3-8.3h0c4.6,0,8.3,3.7,8.3,8.3v0
	C243.1,194.8,239.4,198.6,234.8,198.6z"/>
<path class="st1" d="M257.4,198.6L257.4,198.6c-4.6,0-8.3-3.7-8.3-8.3v0c0-4.6,3.7-8.3,8.3-8.3l0,0c4.6,0,8.3,3.7,8.3,8.3v0
	C265.7,194.8,262,198.6,257.4,198.6z"/>
<path class="st1" d="M280,198.6L280,198.6c-4.6,0-8.3-3.7-8.3-8.3v0c0-4.6,3.7-8.3,8.3-8.3l0,0c4.6,0,8.3,3.7,8.3,8.3v0
	C288.3,194.8,284.5,198.6,280,198.6z"/>
<path class="st1" d="M302.6,198.6L302.6,198.6c-4.6,0-8.3-3.7-8.3-8.3v0c0-4.6,3.7-8.3,8.3-8.3l0,0c4.6,0,8.3,3.7,8.3,8.3v0
	C310.8,194.8,307.1,198.6,302.6,198.6z"/>
<path class="st1" d="M325.1,198.6L325.1,198.6c-4.6,0-8.3-3.7-8.3-8.3v0c0-4.6,3.7-8.3,8.3-8.3h0c4.6,0,8.3,3.7,8.3,8.3v0
	C333.4,194.8,329.7,198.6,325.1,198.6z"/>
<path class="st1" d="M144.6,243.7L144.6,243.7c-4.6,0-8.3-3.7-8.3-8.3v0c0-4.6,3.7-8.3,8.3-8.3h0c4.6,0,8.3,3.7,8.3,8.3v0
	C152.8,240,149.1,243.7,144.6,243.7z"/>
<path class="st1" d="M167.1,243.7L167.1,243.7c-4.6,0-8.3-3.7-8.3-8.3v0c0-4.6,3.7-8.3,8.3-8.3h0c4.6,0,8.3,3.7,8.3,8.3v0
	C175.4,240,171.7,243.7,167.1,243.7z"/>
<path class="st1" d="M189.7,243.7L189.7,243.7c-4.6,0-8.3-3.7-8.3-8.3v0c0-4.6,3.7-8.3,8.3-8.3h0c4.6,0,8.3,3.7,8.3,8.3v0
	C198,240,194.3,243.7,189.7,243.7z"/>
<path class="st1" d="M212.3,243.7L212.3,243.7c-4.6,0-8.3-3.7-8.3-8.3v0c0-4.6,3.7-8.3,8.3-8.3h0c4.6,0,8.3,3.7,8.3,8.3v0
	C220.6,240,216.8,243.7,212.3,243.7z"/>
<path class="st1" d="M234.8,243.7L234.8,243.7c-4.6,0-8.3-3.7-8.3-8.3v0c0-4.6,3.7-8.3,8.3-8.3h0c4.6,0,8.3,3.7,8.3,8.3v0
	C243.1,240,239.4,243.7,234.8,243.7z"/>
<path class="st1" d="M257.4,243.7L257.4,243.7c-4.6,0-8.3-3.7-8.3-8.3v0c0-4.6,3.7-8.3,8.3-8.3l0,0c4.6,0,8.3,3.7,8.3,8.3v0
	C265.7,240,262,243.7,257.4,243.7z"/>
<path class="st1" d="M167.1,288.8L167.1,288.8c-4.6,0-8.3-3.7-8.3-8.3v0c0-4.6,3.7-8.3,8.3-8.3h0c4.6,0,8.3,3.7,8.3,8.3v0
	C175.4,285.1,171.7,288.8,167.1,288.8z"/>
<path class="st1" d="M189.7,288.8L189.7,288.8c-4.6,0-8.3-3.7-8.3-8.3v0c0-4.6,3.7-8.3,8.3-8.3h0c4.6,0,8.3,3.7,8.3,8.3v0
	C198,285.1,194.2,288.8,189.7,288.8z"/>
<path class="st1" d="M212.2,288.8L212.2,288.8c-4.6,0-8.3-3.7-8.3-8.3v0c0-4.6,3.7-8.3,8.3-8.3h0c4.6,0,8.3,3.7,8.3,8.3v0
	C220.5,285.1,216.8,288.8,212.2,288.8z"/>
<path class="st1" d="M234.8,288.8L234.8,288.8c-4.6,0-8.3-3.7-8.3-8.3v0c0-4.6,3.7-8.3,8.3-8.3h0c4.6,0,8.3,3.7,8.3,8.3v0
	C243.1,285.1,239.4,288.8,234.8,288.8z"/>
<path class="st1" d="M257.4,288.8L257.4,288.8c-4.6,0-8.3-3.7-8.3-8.3v0c0-4.6,3.7-8.3,8.3-8.3h0c4.6,0,8.3,3.7,8.3,8.3v0
	C265.7,285.1,261.9,288.8,257.4,288.8z"/>
<path class="st1" d="M144.5,266.3L144.5,266.3c-4.6,0-8.3-3.7-8.3-8.3l0,0c0-4.6,3.7-8.3,8.3-8.3h0c4.6,0,8.3,3.7,8.3,8.3l0,0
	C152.8,262.5,149.1,266.3,144.5,266.3z"/>
<path class="st1" d="M167.1,266.3L167.1,266.3c-4.6,0-8.3-3.7-8.3-8.3l0,0c0-4.6,3.7-8.3,8.3-8.3h0c4.6,0,8.3,3.7,8.3,8.3l0,0
	C175.4,262.5,171.7,266.3,167.1,266.3z"/>
<path class="st1" d="M189.7,266.3L189.7,266.3c-4.6,0-8.3-3.7-8.3-8.3l0,0c0-4.6,3.7-8.3,8.3-8.3h0c4.6,0,8.3,3.7,8.3,8.3l0,0
	C198,262.5,194.2,266.3,189.7,266.3z"/>
<path class="st1" d="M212.2,266.3L212.2,266.3c-4.6,0-8.3-3.7-8.3-8.3l0,0c0-4.6,3.7-8.3,8.3-8.3h0c4.6,0,8.3,3.7,8.3,8.3l0,0
	C220.5,262.5,216.8,266.3,212.2,266.3z"/>
<path class="st1" d="M234.8,266.3L234.8,266.3c-4.6,0-8.3-3.7-8.3-8.3l0,0c0-4.6,3.7-8.3,8.3-8.3h0c4.6,0,8.3,3.7,8.3,8.3l0,0
	C243.1,262.5,239.4,266.3,234.8,266.3z"/>
<path class="st1" d="M257.4,266.3L257.4,266.3c-4.6,0-8.3-3.7-8.3-8.3l0,0c0-4.6,3.7-8.3,8.3-8.3h0c4.6,0,8.3,3.7,8.3,8.3l0,0
	C265.7,262.5,261.9,266.3,257.4,266.3z"/>
<path class="st1" d="M167.2,469.6L167.2,469.6c-4.6,0-8.3-3.7-8.3-8.3v0c0-4.6,3.7-8.3,8.3-8.3h0c4.6,0,8.3,3.7,8.3,8.3v0
	C175.5,465.9,171.7,469.6,167.2,469.6z"/>
<path class="st1" d="M189.7,469.6L189.7,469.6c-4.6,0-8.3-3.7-8.3-8.3v0c0-4.6,3.7-8.3,8.3-8.3h0c4.6,0,8.3,3.7,8.3,8.3v0
	C198,465.9,194.3,469.6,189.7,469.6z"/>
<path class="st1" d="M212.3,469.6L212.3,469.6c-4.6,0-8.3-3.7-8.3-8.3v0c0-4.6,3.7-8.3,8.3-8.3h0c4.6,0,8.3,3.7,8.3,8.3v0
	C220.6,465.9,216.9,469.6,212.3,469.6z"/>
<path class="st1" d="M234.9,469.6L234.9,469.6c-4.6,0-8.3-3.7-8.3-8.3v0c0-4.6,3.7-8.3,8.3-8.3h0c4.6,0,8.3,3.7,8.3,8.3v0
	C243.2,465.9,239.4,469.6,234.9,469.6z"/>
<path class="st1" d="M257.5,469.6L257.5,469.6c-4.6,0-8.3-3.7-8.3-8.3v0c0-4.6,3.7-8.3,8.3-8.3l0,0c4.6,0,8.3,3.7,8.3,8.3v0
	C265.7,465.9,262,469.6,257.5,469.6z"/>
<path class="st1" d="M280,469.6L280,469.6c-4.6,0-8.3-3.7-8.3-8.3v0c0-4.6,3.7-8.3,8.3-8.3h0c4.6,0,8.3,3.7,8.3,8.3v0
	C288.3,465.9,284.6,469.6,280,469.6z"/>
<path class="st1" d="M302.6,469.6L302.6,469.6c-4.6,0-8.3-3.7-8.3-8.3v0c0-4.6,3.7-8.3,8.3-8.3h0c4.6,0,8.3,3.7,8.3,8.3v0
	C310.9,465.9,307.2,469.6,302.6,469.6z"/>
<path class="st1" d="M325.2,469.6L325.2,469.6c-4.6,0-8.3-3.7-8.3-8.3v0c0-4.6,3.7-8.3,8.3-8.3l0,0c4.6,0,8.3,3.7,8.3,8.3v0
	C333.5,465.9,329.7,469.6,325.2,469.6z"/>
<path class="st1" d="M189.7,514.8L189.7,514.8c-4.6,0-8.3-3.7-8.3-8.3v0c0-4.6,3.7-8.3,8.3-8.3h0c4.6,0,8.3,3.7,8.3,8.3v0
	C198,511,194.3,514.8,189.7,514.8z"/>
<path class="st1" d="M212.3,514.8L212.3,514.8c-4.6,0-8.3-3.7-8.3-8.3v0c0-4.6,3.7-8.3,8.3-8.3h0c4.6,0,8.3,3.7,8.3,8.3v0
	C220.6,511,216.8,514.8,212.3,514.8z"/>
<path class="st1" d="M234.9,514.8L234.9,514.8c-4.6,0-8.3-3.7-8.3-8.3v0c0-4.6,3.7-8.3,8.3-8.3h0c4.6,0,8.3,3.7,8.3,8.3v0
	C243.1,511,239.4,514.8,234.9,514.8z"/>
<path class="st1" d="M257.4,514.8L257.4,514.8c-4.6,0-8.3-3.7-8.3-8.3v0c0-4.6,3.7-8.3,8.3-8.3l0,0c4.6,0,8.3,3.7,8.3,8.3v0
	C265.7,511,262,514.8,257.4,514.8z"/>
<path class="st1" d="M280,514.8L280,514.8c-4.6,0-8.3-3.7-8.3-8.3v0c0-4.6,3.7-8.3,8.3-8.3l0,0c4.6,0,8.3,3.7,8.3,8.3v0
	C288.3,511,284.6,514.8,280,514.8z"/>
<path class="st1" d="M302.6,514.8L302.6,514.8c-4.6,0-8.3-3.7-8.3-8.3v0c0-4.6,3.7-8.3,8.3-8.3l0,0c4.6,0,8.3,3.7,8.3,8.3v0
	C310.9,511,307.1,514.8,302.6,514.8z"/>
<path class="st1" d="M325.1,514.8L325.1,514.8c-4.6,0-8.3-3.7-8.3-8.3v0c0-4.6,3.7-8.3,8.3-8.3h0c4.6,0,8.3,3.7,8.3,8.3v0
	C333.4,511,329.7,514.8,325.1,514.8z"/>
<path class="st1" d="M167.2,492.2L167.2,492.2c-4.6,0-8.3-3.7-8.3-8.3v0c0-4.6,3.7-8.3,8.3-8.3h0c4.6,0,8.3,3.7,8.3,8.3v0
	C175.4,488.5,171.7,492.2,167.2,492.2z"/>
<path class="st1" d="M189.7,492.2L189.7,492.2c-4.6,0-8.3-3.7-8.3-8.3v0c0-4.6,3.7-8.3,8.3-8.3h0c4.6,0,8.3,3.7,8.3,8.3v0
	C198,488.5,194.3,492.2,189.7,492.2z"/>
<path class="st1" d="M212.3,492.2L212.3,492.2c-4.6,0-8.3-3.7-8.3-8.3v0c0-4.6,3.7-8.3,8.3-8.3h0c4.6,0,8.3,3.7,8.3,8.3v0
	C220.6,488.5,216.8,492.2,212.3,492.2z"/>
<path class="st1" d="M234.9,492.2L234.9,492.2c-4.6,0-8.3-3.7-8.3-8.3v0c0-4.6,3.7-8.3,8.3-8.3h0c4.6,0,8.3,3.7,8.3,8.3v0
	C243.1,488.5,239.4,492.2,234.9,492.2z"/>
<path class="st1" d="M257.4,492.2L257.4,492.2c-4.6,0-8.3-3.7-8.3-8.3v0c0-4.6,3.7-8.3,8.3-8.3l0,0c4.6,0,8.3,3.7,8.3,8.3v0
	C265.7,488.5,262,492.2,257.4,492.2z"/>
<path class="st1" d="M280,492.2L280,492.2c-4.6,0-8.3-3.7-8.3-8.3v0c0-4.6,3.7-8.3,8.3-8.3l0,0c4.6,0,8.3,3.7,8.3,8.3v0
	C288.3,488.5,284.6,492.2,280,492.2z"/>
<path class="st1" d="M302.6,492.2L302.6,492.2c-4.6,0-8.3-3.7-8.3-8.3v0c0-4.6,3.7-8.3,8.3-8.3l0,0c4.6,0,8.3,3.7,8.3,8.3v0
	C310.9,488.5,307.1,492.2,302.6,492.2z"/>
<path class="st1" d="M325.1,492.2L325.1,492.2c-4.6,0-8.3-3.7-8.3-8.3v0c0-4.6,3.7-8.3,8.3-8.3h0c4.6,0,8.3,3.7,8.3,8.3v0
	C333.4,488.5,329.7,492.2,325.1,492.2z"/>
<path class="st1" d="M257.5,537.3L257.5,537.3c-4.6,0-8.3-3.7-8.3-8.3v0c0-4.6,3.7-8.3,8.3-8.3l0,0c4.6,0,8.3,3.7,8.3,8.3v0
	C265.7,533.6,262,537.3,257.5,537.3z"/>
<path class="st1" d="M280,537.3L280,537.3c-4.6,0-8.3-3.7-8.3-8.3v0c0-4.6,3.7-8.3,8.3-8.3h0c4.6,0,8.3,3.7,8.3,8.3v0
	C288.3,533.6,284.6,537.3,280,537.3z"/>
<path class="st1" d="M302.6,537.3L302.6,537.3c-4.6,0-8.3-3.7-8.3-8.3v0c0-4.6,3.7-8.3,8.3-8.3h0c4.6,0,8.3,3.7,8.3,8.3v0
	C310.9,533.6,307.2,537.3,302.6,537.3z"/>
<path class="st1" d="M325.2,537.3L325.2,537.3c-4.6,0-8.3-3.7-8.3-8.3v0c0-4.6,3.7-8.3,8.3-8.3l0,0c4.6,0,8.3,3.7,8.3,8.3v0
	C333.5,533.6,329.7,537.3,325.2,537.3z"/>
<path class="st1" d="M167.1,311.5L167.1,311.5c-4.6,0-8.3-3.7-8.3-8.3v0c0-4.6,3.7-8.3,8.3-8.3h0c4.6,0,8.3,3.7,8.3,8.3v0
	C175.4,307.7,171.7,311.5,167.1,311.5z"/>
<path class="st1" d="M189.7,311.5L189.7,311.5c-4.6,0-8.3-3.7-8.3-8.3v0c0-4.6,3.7-8.3,8.3-8.3h0c4.6,0,8.3,3.7,8.3,8.3v0
	C198,307.7,194.2,311.5,189.7,311.5z"/>
<path class="st1" d="M212.2,311.5L212.2,311.5c-4.6,0-8.3-3.7-8.3-8.3v0c0-4.6,3.7-8.3,8.3-8.3h0c4.6,0,8.3,3.7,8.3,8.3v0
	C220.5,307.7,216.8,311.5,212.2,311.5z"/>
<path class="st1" d="M234.8,311.5L234.8,311.5c-4.6,0-8.3-3.7-8.3-8.3v0c0-4.6,3.7-8.3,8.3-8.3h0c4.6,0,8.3,3.7,8.3,8.3v0
	C243.1,307.7,239.4,311.5,234.8,311.5z"/>
<path class="st1" d="M257.4,311.5L257.4,311.5c-4.6,0-8.3-3.7-8.3-8.3v0c0-4.6,3.7-8.3,8.3-8.3h0c4.6,0,8.3,3.7,8.3,8.3v0
	C265.7,307.7,261.9,311.5,257.4,311.5z"/>
<path class="st1" d="M167.1,63.1L167.1,63.1c-4.6,0-8.3-3.7-8.3-8.3v0c0-4.6,3.7-8.3,8.3-8.3h0c4.6,0,8.3,3.7,8.3,8.3v0
	C175.4,59.4,171.7,63.1,167.1,63.1z"/>
<path class="st1" d="M189.7,63.1L189.7,63.1c-4.6,0-8.3-3.7-8.3-8.3v0c0-4.6,3.7-8.3,8.3-8.3h0c4.6,0,8.3,3.7,8.3,8.3v0
	C198,59.4,194.2,63.1,189.7,63.1z"/>
<path class="st1" d="M212.3,63.1L212.3,63.1c-4.6,0-8.3-3.7-8.3-8.3v0c0-4.6,3.7-8.3,8.3-8.3h0c4.6,0,8.3,3.7,8.3,8.3v0
	C220.5,59.4,216.8,63.1,212.3,63.1z"/>
<path class="st1" d="M234.8,63.1L234.8,63.1c-4.6,0-8.3-3.7-8.3-8.3v0c0-4.6,3.7-8.3,8.3-8.3h0c4.6,0,8.3,3.7,8.3,8.3v0
	C243.1,59.4,239.4,63.1,234.8,63.1z"/>
<path class="st1" d="M77,108.3L77,108.3c-4.6,0-8.3-3.7-8.3-8.3v0c0-4.6,3.7-8.3,8.3-8.3h0c4.6,0,8.3,3.7,8.3,8.3v0
	C85.3,104.6,81.6,108.3,77,108.3z"/>
<path class="st1" d="M99.6,108.3L99.6,108.3c-4.6,0-8.3-3.7-8.3-8.3v0c0-4.6,3.7-8.3,8.3-8.3h0c4.6,0,8.3,3.7,8.3,8.3v0
	C107.9,104.6,104.1,108.3,99.6,108.3z"/>
<path class="st1" d="M122.2,108.3L122.2,108.3c-4.6,0-8.3-3.7-8.3-8.3v0c0-4.6,3.7-8.3,8.3-8.3h0c4.6,0,8.3,3.7,8.3,8.3v0
	C130.4,104.6,126.7,108.3,122.2,108.3z"/>
<path class="st1" d="M144.7,108.3L144.7,108.3c-4.6,0-8.3-3.7-8.3-8.3v0c0-4.6,3.7-8.3,8.3-8.3h0c4.6,0,8.3,3.7,8.3,8.3v0
	C153,104.6,149.3,108.3,144.7,108.3z"/>
<path class="st1" d="M77,85.7L77,85.7c-4.6,0-8.3-3.7-8.3-8.3v0c0-4.6,3.7-8.3,8.3-8.3h0c4.6,0,8.3,3.7,8.3,8.3v0
	C85.3,82,81.6,85.7,77,85.7z"/>
<path class="st1" d="M99.6,85.7L99.6,85.7c-4.6,0-8.3-3.7-8.3-8.3v0c0-4.6,3.7-8.3,8.3-8.3h0c4.6,0,8.3,3.7,8.3,8.3v0
	C107.9,82,104.1,85.7,99.6,85.7z"/>
<path class="st1" d="M122.2,85.7L122.2,85.7c-4.6,0-8.3-3.7-8.3-8.3v0c0-4.6,3.7-8.3,8.3-8.3h0c4.6,0,8.3,3.7,8.3,8.3v0
	C130.4,82,126.7,85.7,122.2,85.7z"/>
<path class="st1" d="M144.7,85.7L144.7,85.7c-4.6,0-8.3-3.7-8.3-8.3v0c0-4.6,3.7-8.3,8.3-8.3h0c4.6,0,8.3,3.7,8.3,8.3v0
	C153,82,149.3,85.7,144.7,85.7z"/>
<path class="st1" d="M77,153.4L77,153.4c-4.6,0-8.3-3.7-8.3-8.3v0c0-4.6,3.7-8.3,8.3-8.3h0c4.6,0,8.3,3.7,8.3,8.3v0
	C85.3,149.7,81.6,153.4,77,153.4z"/>
<path class="st1" d="M99.6,153.4L99.6,153.4c-4.6,0-8.3-3.7-8.3-8.3v0c0-4.6,3.7-8.3,8.3-8.3h0c4.6,0,8.3,3.7,8.3,8.3v0
	C107.9,149.7,104.2,153.4,99.6,153.4z"/>
<path class="st1" d="M122.2,153.4L122.2,153.4c-4.6,0-8.3-3.7-8.3-8.3v0c0-4.6,3.7-8.3,8.3-8.3h0c4.6,0,8.3,3.7,8.3,8.3v0
	C130.5,149.7,126.7,153.4,122.2,153.4z"/>
<path class="st1" d="M144.8,153.4L144.8,153.4c-4.6,0-8.3-3.7-8.3-8.3v0c0-4.6,3.7-8.3,8.3-8.3h0c4.6,0,8.3,3.7,8.3,8.3v0
	C153,149.7,149.3,153.4,144.8,153.4z"/>
<path class="st1" d="M77,130.9L77,130.9c-4.6,0-8.3-3.7-8.3-8.3v0c0-4.6,3.7-8.3,8.3-8.3h0c4.6,0,8.3,3.7,8.3,8.3v0
	C85.3,127.1,81.6,130.9,77,130.9z"/>
<path class="st1" d="M99.6,130.9L99.6,130.9c-4.6,0-8.3-3.7-8.3-8.3v0c0-4.6,3.7-8.3,8.3-8.3h0c4.6,0,8.3,3.7,8.3,8.3v0
	C107.9,127.1,104.2,130.9,99.6,130.9z"/>
<path class="st1" d="M122.2,130.9L122.2,130.9c-4.6,0-8.3-3.7-8.3-8.3v0c0-4.6,3.7-8.3,8.3-8.3h0c4.6,0,8.3,3.7,8.3,8.3v0
	C130.5,127.1,126.7,130.9,122.2,130.9z"/>
<path class="st1" d="M144.8,130.9L144.8,130.9c-4.6,0-8.3-3.7-8.3-8.3v0c0-4.6,3.7-8.3,8.3-8.3h0c4.6,0,8.3,3.7,8.3,8.3v0
	C153,127.1,149.3,130.9,144.8,130.9z"/>
<path class="st1" d="M99.6,176L99.6,176c-4.6,0-8.3-3.7-8.3-8.3v0c0-4.6,3.7-8.3,8.3-8.3h0c4.6,0,8.3,3.7,8.3,8.3v0
	C107.9,172.3,104.2,176,99.6,176z"/>
<path class="st1" d="M122.2,176L122.2,176c-4.6,0-8.3-3.7-8.3-8.3v0c0-4.6,3.7-8.3,8.3-8.3h0c4.6,0,8.3,3.7,8.3,8.3v0
	C130.5,172.3,126.8,176,122.2,176z"/>
<path class="st1" d="M144.8,176L144.8,176c-4.6,0-8.3-3.7-8.3-8.3v0c0-4.6,3.7-8.3,8.3-8.3h0c4.6,0,8.3,3.7,8.3,8.3v0
	C153.1,172.3,149.3,176,144.8,176z"/>
<path class="st1" d="M122.2,221.1L122.2,221.1c-4.6,0-8.3-3.7-8.3-8.3v0c0-4.6,3.7-8.3,8.3-8.3h0c4.6,0,8.3,3.7,8.3,8.3v0
	C130.5,217.4,126.7,221.1,122.2,221.1z"/>
<path class="st1" d="M144.7,221.1L144.7,221.1c-4.6,0-8.3-3.7-8.3-8.3v0c0-4.6,3.7-8.3,8.3-8.3h0c4.6,0,8.3,3.7,8.3,8.3v0
	C153,217.4,149.3,221.1,144.7,221.1z"/>
<path class="st1" d="M122.2,198.6L122.2,198.6c-4.6,0-8.3-3.7-8.3-8.3v0c0-4.6,3.7-8.3,8.3-8.3h0c4.6,0,8.3,3.7,8.3,8.3v0
	C130.5,194.8,126.7,198.6,122.2,198.6z"/>
<path class="st1" d="M144.7,198.6L144.7,198.6c-4.6,0-8.3-3.7-8.3-8.3v0c0-4.6,3.7-8.3,8.3-8.3h0c4.6,0,8.3,3.7,8.3,8.3v0
	C153,194.8,149.3,198.6,144.7,198.6z"/>
<path class="st1" d="M77.1,469.6L77.1,469.6c-4.6,0-8.3-3.7-8.3-8.3v0c0-4.6,3.7-8.3,8.3-8.3h0c4.6,0,8.3,3.7,8.3,8.3v0
	C85.4,465.9,81.6,469.6,77.1,469.6z"/>
<path class="st1" d="M99.6,469.6L99.6,469.6c-4.6,0-8.3-3.7-8.3-8.3v0c0-4.6,3.7-8.3,8.3-8.3h0c4.6,0,8.3,3.7,8.3,8.3v0
	C107.9,465.9,104.2,469.6,99.6,469.6z"/>
<path class="st1" d="M122.2,469.6L122.2,469.6c-4.6,0-8.3-3.7-8.3-8.3v0c0-4.6,3.7-8.3,8.3-8.3h0c4.6,0,8.3,3.7,8.3,8.3v0
	C130.5,465.9,126.8,469.6,122.2,469.6z"/>
<path class="st1" d="M8.3,469.6L8.3,469.6c-4.6,0-8.3-3.7-8.3-8.3v0c0-4.6,3.7-8.3,8.3-8.3h0c4.6,0,8.3,3.7,8.3,8.3v0
	C16.6,465.9,12.8,469.6,8.3,469.6z"/>
<path class="st1" d="M30.9,469.6L30.9,469.6c-4.6,0-8.3-3.7-8.3-8.3v0c0-4.6,3.7-8.3,8.3-8.3h0c4.6,0,8.3,3.7,8.3,8.3v0
	C39.1,465.9,35.4,469.6,30.9,469.6z"/>
<path class="st1" d="M53.4,469.6L53.4,469.6c-4.6,0-8.3-3.7-8.3-8.3v0c0-4.6,3.7-8.3,8.3-8.3h0c4.6,0,8.3,3.7,8.3,8.3v0
	C61.7,465.9,58,469.6,53.4,469.6z"/>
<path class="st1" d="M77.1,492.2L77.1,492.2c-4.6,0-8.3-3.7-8.3-8.3l0,0c0-4.6,3.7-8.3,8.3-8.3h0c4.6,0,8.3,3.7,8.3,8.3l0,0
	C85.4,488.5,81.6,492.2,77.1,492.2z"/>
<path class="st1" d="M99.6,492.2L99.6,492.2c-4.6,0-8.3-3.7-8.3-8.3l0,0c0-4.6,3.7-8.3,8.3-8.3h0c4.6,0,8.3,3.7,8.3,8.3l0,0
	C107.9,488.5,104.2,492.2,99.6,492.2z"/>
<path class="st1" d="M8.3,492.2L8.3,492.2c-4.6,0-8.3-3.7-8.3-8.3l0,0c0-4.6,3.7-8.3,8.3-8.3h0c4.6,0,8.3,3.7,8.3,8.3l0,0
	C16.6,488.5,12.8,492.2,8.3,492.2z"/>
<path class="st1" d="M30.9,492.2L30.9,492.2c-4.6,0-8.3-3.7-8.3-8.3l0,0c0-4.6,3.7-8.3,8.3-8.3h0c4.6,0,8.3,3.7,8.3,8.3l0,0
	C39.1,488.5,35.4,492.2,30.9,492.2z"/>
<path class="st1" d="M53.4,492.2L53.4,492.2c-4.6,0-8.3-3.7-8.3-8.3l0,0c0-4.6,3.7-8.3,8.3-8.3h0c4.6,0,8.3,3.7,8.3,8.3l0,0
	C61.7,488.5,58,492.2,53.4,492.2z"/>
<path class="st1" d="M77.1,514.8L77.1,514.8c-4.6,0-8.3-3.7-8.3-8.3v0c0-4.6,3.7-8.3,8.3-8.3h0c4.6,0,8.3,3.7,8.3,8.3v0
	C85.4,511.1,81.6,514.8,77.1,514.8z"/>
<path class="st1" d="M99.6,514.8L99.6,514.8c-4.6,0-8.3-3.7-8.3-8.3v0c0-4.6,3.7-8.3,8.3-8.3h0c4.6,0,8.3,3.7,8.3,8.3v0
	C107.9,511.1,104.2,514.8,99.6,514.8z"/>
<path class="st1" d="M8.3,514.8L8.3,514.8c-4.6,0-8.3-3.7-8.3-8.3v0c0-4.6,3.7-8.3,8.3-8.3h0c4.6,0,8.3,3.7,8.3,8.3v0
	C16.6,511.1,12.8,514.8,8.3,514.8z"/>
<path class="st1" d="M30.9,514.8L30.9,514.8c-4.6,0-8.3-3.7-8.3-8.3v0c0-4.6,3.7-8.3,8.3-8.3h0c4.6,0,8.3,3.7,8.3,8.3v0
	C39.1,511.1,35.4,514.8,30.9,514.8z"/>
<path class="st1" d="M53.4,514.8L53.4,514.8c-4.6,0-8.3-3.7-8.3-8.3v0c0-4.6,3.7-8.3,8.3-8.3h0c4.6,0,8.3,3.7,8.3,8.3v0
	C61.7,511.1,58,514.8,53.4,514.8z"/>
<path class="st1" d="M145.8,514.8L145.8,514.8c-4.6,0-8.3-3.7-8.3-8.3v0c0-4.6,3.7-8.3,8.3-8.3h0c4.6,0,8.3,3.7,8.3,8.3v0
	C154.1,511.1,150.4,514.8,145.8,514.8z"/>
<path class="st1" d="M168.4,514.8L168.4,514.8c-4.6,0-8.3-3.7-8.3-8.3v0c0-4.6,3.7-8.3,8.3-8.3h0c4.6,0,8.3,3.7,8.3,8.3v0
	C176.7,511.1,173,514.8,168.4,514.8z"/>
<path class="st1" d="M122.2,514.8L122.2,514.8c-4.6,0-8.3-3.7-8.3-8.3v0c0-4.6,3.7-8.3,8.3-8.3h0c4.6,0,8.3,3.7,8.3,8.3v0
	C130.5,511.1,126.7,514.8,122.2,514.8z"/>
<path class="st1" d="M77.1,537.4L77.1,537.4c-4.6,0-8.3-3.7-8.3-8.3l0,0c0-4.6,3.7-8.3,8.3-8.3h0c4.6,0,8.3,3.7,8.3,8.3l0,0
	C85.4,533.7,81.6,537.4,77.1,537.4z"/>
<path class="st1" d="M99.6,537.4L99.6,537.4c-4.6,0-8.3-3.7-8.3-8.3l0,0c0-4.6,3.7-8.3,8.3-8.3h0c4.6,0,8.3,3.7,8.3,8.3l0,0
	C107.9,533.7,104.2,537.4,99.6,537.4z"/>
<path class="st1" d="M8.3,537.4L8.3,537.4c-4.6,0-8.3-3.7-8.3-8.3l0,0c0-4.6,3.7-8.3,8.3-8.3h0c4.6,0,8.3,3.7,8.3,8.3l0,0
	C16.6,533.7,12.8,537.4,8.3,537.4z"/>
<path class="st1" d="M30.9,537.4L30.9,537.4c-4.6,0-8.3-3.7-8.3-8.3l0,0c0-4.6,3.7-8.3,8.3-8.3h0c4.6,0,8.3,3.7,8.3,8.3l0,0
	C39.1,533.7,35.4,537.4,30.9,537.4z"/>
<path class="st1" d="M53.4,537.4L53.4,537.4c-4.6,0-8.3-3.7-8.3-8.3l0,0c0-4.6,3.7-8.3,8.3-8.3h0c4.6,0,8.3,3.7,8.3,8.3l0,0
	C61.7,533.7,58,537.4,53.4,537.4z"/>
<path class="st1" d="M145.8,537.4L145.8,537.4c-4.6,0-8.3-3.7-8.3-8.3l0,0c0-4.6,3.7-8.3,8.3-8.3h0c4.6,0,8.3,3.7,8.3,8.3l0,0
	C154.1,533.7,150.4,537.4,145.8,537.4z"/>
<path class="st1" d="M168.4,537.4L168.4,537.4c-4.6,0-8.3-3.7-8.3-8.3l0,0c0-4.6,3.7-8.3,8.3-8.3h0c4.6,0,8.3,3.7,8.3,8.3l0,0
	C176.7,533.7,173,537.4,168.4,537.4z"/>
<path class="st1" d="M122.2,537.4L122.2,537.4c-4.6,0-8.3-3.7-8.3-8.3l0,0c0-4.6,3.7-8.3,8.3-8.3h0c4.6,0,8.3,3.7,8.3,8.3l0,0
	C130.5,533.7,126.7,537.4,122.2,537.4z"/>
<path class="st1" d="M212.4,537.4L212.4,537.4c-4.6,0-8.3-3.7-8.3-8.3l0,0c0-4.6,3.7-8.3,8.3-8.3h0c4.6,0,8.3,3.7,8.3,8.3l0,0
	C220.7,533.7,217,537.4,212.4,537.4z"/>
<path class="st1" d="M235,537.4L235,537.4c-4.6,0-8.3-3.7-8.3-8.3l0,0c0-4.6,3.7-8.3,8.3-8.3h0c4.6,0,8.3,3.7,8.3,8.3l0,0
	C243.3,533.7,239.5,537.4,235,537.4z"/>
<path class="st1" d="M189.8,537.4L189.8,537.4c-4.6,0-8.3-3.7-8.3-8.3l0,0c0-4.6,3.7-8.3,8.3-8.3h0c4.6,0,8.3,3.7,8.3,8.3l0,0
	C198.1,533.7,194.3,537.4,189.8,537.4z"/>
<path class="st1" d="M257.5,559.9L257.5,559.9c-4.6,0-8.3-3.7-8.3-8.3l0,0c0-4.6,3.7-8.3,8.3-8.3l0,0c4.6,0,8.3,3.7,8.3,8.3l0,0
	C265.7,556.2,262,559.9,257.5,559.9z"/>
<path class="st1" d="M280,559.9L280,559.9c-4.6,0-8.3-3.7-8.3-8.3l0,0c0-4.6,3.7-8.3,8.3-8.3h0c4.6,0,8.3,3.7,8.3,8.3l0,0
	C288.3,556.2,284.6,559.9,280,559.9z"/>
<path class="st1" d="M302.6,559.9L302.6,559.9c-4.6,0-8.3-3.7-8.3-8.3l0,0c0-4.6,3.7-8.3,8.3-8.3h0c4.6,0,8.3,3.7,8.3,8.3l0,0
	C310.9,556.2,307.2,559.9,302.6,559.9z"/>
<path class="st1" d="M325.2,559.9L325.2,559.9c-4.6,0-8.3-3.7-8.3-8.3l0,0c0-4.6,3.7-8.3,8.3-8.3l0,0c4.6,0,8.3,3.7,8.3,8.3l0,0
	C333.5,556.2,329.7,559.9,325.2,559.9z"/>
<path class="st1" d="M77.1,560L77.1,560c-4.6,0-8.3-3.7-8.3-8.3v0c0-4.6,3.7-8.3,8.3-8.3h0c4.6,0,8.3,3.7,8.3,8.3v0
	C85.4,556.3,81.6,560,77.1,560z"/>
<path class="st1" d="M99.6,560L99.6,560c-4.6,0-8.3-3.7-8.3-8.3v0c0-4.6,3.7-8.3,8.3-8.3h0c4.6,0,8.3,3.7,8.3,8.3v0
	C107.9,556.3,104.2,560,99.6,560z"/>
<path class="st1" d="M8.3,560L8.3,560c-4.6,0-8.3-3.7-8.3-8.3v0c0-4.6,3.7-8.3,8.3-8.3h0c4.6,0,8.3,3.7,8.3,8.3v0
	C16.6,556.3,12.8,560,8.3,560z"/>
<path class="st1" d="M30.9,560L30.9,560c-4.6,0-8.3-3.7-8.3-8.3v0c0-4.6,3.7-8.3,8.3-8.3h0c4.6,0,8.3,3.7,8.3,8.3v0
	C39.1,556.3,35.4,560,30.9,560z"/>
<path class="st1" d="M53.4,560L53.4,560c-4.6,0-8.3-3.7-8.3-8.3v0c0-4.6,3.7-8.3,8.3-8.3h0c4.6,0,8.3,3.7,8.3,8.3v0
	C61.7,556.3,58,560,53.4,560z"/>
<path class="st1" d="M145.8,560L145.8,560c-4.6,0-8.3-3.7-8.3-8.3v0c0-4.6,3.7-8.3,8.3-8.3h0c4.6,0,8.3,3.7,8.3,8.3v0
	C154.1,556.3,150.4,560,145.8,560z"/>
<path class="st1" d="M168.4,560L168.4,560c-4.6,0-8.3-3.7-8.3-8.3v0c0-4.6,3.7-8.3,8.3-8.3h0c4.6,0,8.3,3.7,8.3,8.3v0
	C176.7,556.3,173,560,168.4,560z"/>
<path class="st1" d="M122.2,560L122.2,560c-4.6,0-8.3-3.7-8.3-8.3v0c0-4.6,3.7-8.3,8.3-8.3h0c4.6,0,8.3,3.7,8.3,8.3v0
	C130.5,556.3,126.7,560,122.2,560z"/>
<path class="st1" d="M212.4,560L212.4,560c-4.6,0-8.3-3.7-8.3-8.3v0c0-4.6,3.7-8.3,8.3-8.3h0c4.6,0,8.3,3.7,8.3,8.3v0
	C220.7,556.3,217,560,212.4,560z"/>
<path class="st1" d="M235,560L235,560c-4.6,0-8.3-3.7-8.3-8.3v0c0-4.6,3.7-8.3,8.3-8.3h0c4.6,0,8.3,3.7,8.3,8.3v0
	C243.3,556.3,239.5,560,235,560z"/>
<path class="st1" d="M189.8,560L189.8,560c-4.6,0-8.3-3.7-8.3-8.3v0c0-4.6,3.7-8.3,8.3-8.3h0c4.6,0,8.3,3.7,8.3,8.3v0
	C198.1,556.3,194.3,560,189.8,560z"/>
<path class="st1" d="M257.5,582.5L257.5,582.5c-4.6,0-8.3-3.7-8.3-8.3l0,0c0-4.6,3.7-8.3,8.3-8.3l0,0c4.6,0,8.3,3.7,8.3,8.3l0,0
	C265.7,578.8,262,582.5,257.5,582.5z"/>
<path class="st1" d="M280,582.5L280,582.5c-4.6,0-8.3-3.7-8.3-8.3l0,0c0-4.6,3.7-8.3,8.3-8.3h0c4.6,0,8.3,3.7,8.3,8.3l0,0
	C288.3,578.8,284.6,582.5,280,582.5z"/>
<path class="st1" d="M302.6,582.5L302.6,582.5c-4.6,0-8.3-3.7-8.3-8.3l0,0c0-4.6,3.7-8.3,8.3-8.3h0c4.6,0,8.3,3.7,8.3,8.3l0,0
	C310.9,578.8,307.2,582.5,302.6,582.5z"/>
<path class="st1" d="M325.2,582.5L325.2,582.5c-4.6,0-8.3-3.7-8.3-8.3l0,0c0-4.6,3.7-8.3,8.3-8.3l0,0c4.6,0,8.3,3.7,8.3,8.3l0,0
	C333.5,578.8,329.7,582.5,325.2,582.5z"/>
<path class="st1" d="M77.1,582.6L77.1,582.6c-4.6,0-8.3-3.7-8.3-8.3v0c0-4.6,3.7-8.3,8.3-8.3h0c4.6,0,8.3,3.7,8.3,8.3v0
	C85.4,578.8,81.6,582.6,77.1,582.6z"/>
<path class="st1" d="M99.6,582.6L99.6,582.6c-4.6,0-8.3-3.7-8.3-8.3v0c0-4.6,3.7-8.3,8.3-8.3h0c4.6,0,8.3,3.7,8.3,8.3v0
	C107.9,578.8,104.2,582.6,99.6,582.6z"/>
<path class="st1" d="M8.3,582.6L8.3,582.6c-4.6,0-8.3-3.7-8.3-8.3v0c0-4.6,3.7-8.3,8.3-8.3h0c4.6,0,8.3,3.7,8.3,8.3v0
	C16.6,578.8,12.8,582.6,8.3,582.6z"/>
<path class="st1" d="M30.9,582.6L30.9,582.6c-4.6,0-8.3-3.7-8.3-8.3v0c0-4.6,3.7-8.3,8.3-8.3h0c4.6,0,8.3,3.7,8.3,8.3v0
	C39.1,578.8,35.4,582.6,30.9,582.6z"/>
<path class="st1" d="M53.4,582.6L53.4,582.6c-4.6,0-8.3-3.7-8.3-8.3v0c0-4.6,3.7-8.3,8.3-8.3h0c4.6,0,8.3,3.7,8.3,8.3v0
	C61.7,578.8,58,582.6,53.4,582.6z"/>
<path class="st1" d="M145.8,582.6L145.8,582.6c-4.6,0-8.3-3.7-8.3-8.3v0c0-4.6,3.7-8.3,8.3-8.3h0c4.6,0,8.3,3.7,8.3,8.3v0
	C154.1,578.8,150.4,582.6,145.8,582.6z"/>
<path class="st1" d="M168.4,582.6L168.4,582.6c-4.6,0-8.3-3.7-8.3-8.3v0c0-4.6,3.7-8.3,8.3-8.3h0c4.6,0,8.3,3.7,8.3,8.3v0
	C176.7,578.8,173,582.6,168.4,582.6z"/>
<path class="st1" d="M122.2,582.6L122.2,582.6c-4.6,0-8.3-3.7-8.3-8.3v0c0-4.6,3.7-8.3,8.3-8.3h0c4.6,0,8.3,3.7,8.3,8.3v0
	C130.5,578.8,126.7,582.6,122.2,582.6z"/>
<path class="st1" d="M212.4,582.6L212.4,582.6c-4.6,0-8.3-3.7-8.3-8.3v0c0-4.6,3.7-8.3,8.3-8.3h0c4.6,0,8.3,3.7,8.3,8.3v0
	C220.7,578.8,217,582.6,212.4,582.6z"/>
<path class="st1" d="M235,582.6L235,582.6c-4.6,0-8.3-3.7-8.3-8.3v0c0-4.6,3.7-8.3,8.3-8.3h0c4.6,0,8.3,3.7,8.3,8.3v0
	C243.3,578.8,239.5,582.6,235,582.6z"/>
<path class="st1" d="M189.8,582.6L189.8,582.6c-4.6,0-8.3-3.7-8.3-8.3v0c0-4.6,3.7-8.3,8.3-8.3h0c4.6,0,8.3,3.7,8.3,8.3v0
	C198.1,578.8,194.3,582.6,189.8,582.6z"/>
<path class="st1" d="M257.5,605.1L257.5,605.1c-4.6,0-8.3-3.7-8.3-8.3l0,0c0-4.6,3.7-8.3,8.3-8.3l0,0c4.6,0,8.3,3.7,8.3,8.3l0,0
	C265.7,601.4,262,605.1,257.5,605.1z"/>
<path class="st1" d="M280,605.1L280,605.1c-4.6,0-8.3-3.7-8.3-8.3l0,0c0-4.6,3.7-8.3,8.3-8.3h0c4.6,0,8.3,3.7,8.3,8.3l0,0
	C288.3,601.4,284.6,605.1,280,605.1z"/>
<path class="st1" d="M302.6,605.1L302.6,605.1c-4.6,0-8.3-3.7-8.3-8.3l0,0c0-4.6,3.7-8.3,8.3-8.3h0c4.6,0,8.3,3.7,8.3,8.3l0,0
	C310.9,601.4,307.2,605.1,302.6,605.1z"/>
<path class="st1" d="M325.2,605.1L325.2,605.1c-4.6,0-8.3-3.7-8.3-8.3l0,0c0-4.6,3.7-8.3,8.3-8.3l0,0c4.6,0,8.3,3.7,8.3,8.3l0,0
	C333.5,601.4,329.7,605.1,325.2,605.1z"/>
<path class="st1" d="M77.1,605.1L77.1,605.1c-4.6,0-8.3-3.7-8.3-8.3v0c0-4.6,3.7-8.3,8.3-8.3h0c4.6,0,8.3,3.7,8.3,8.3v0
	C85.4,601.4,81.6,605.1,77.1,605.1z"/>
<path class="st1" d="M99.6,605.1L99.6,605.1c-4.6,0-8.3-3.7-8.3-8.3v0c0-4.6,3.7-8.3,8.3-8.3h0c4.6,0,8.3,3.7,8.3,8.3v0
	C107.9,601.4,104.2,605.1,99.6,605.1z"/>
<path class="st1" d="M8.3,605.1L8.3,605.1c-4.6,0-8.3-3.7-8.3-8.3v0c0-4.6,3.7-8.3,8.3-8.3h0c4.6,0,8.3,3.7,8.3,8.3v0
	C16.6,601.4,12.8,605.1,8.3,605.1z"/>
<path class="st1" d="M30.9,605.1L30.9,605.1c-4.6,0-8.3-3.7-8.3-8.3v0c0-4.6,3.7-8.3,8.3-8.3h0c4.6,0,8.3,3.7,8.3,8.3v0
	C39.1,601.4,35.4,605.1,30.9,605.1z"/>
<path class="st1" d="M53.4,605.1L53.4,605.1c-4.6,0-8.3-3.7-8.3-8.3v0c0-4.6,3.7-8.3,8.3-8.3h0c4.6,0,8.3,3.7,8.3,8.3v0
	C61.7,601.4,58,605.1,53.4,605.1z"/>
<path class="st1" d="M145.8,605.1L145.8,605.1c-4.6,0-8.3-3.7-8.3-8.3v0c0-4.6,3.7-8.3,8.3-8.3h0c4.6,0,8.3,3.7,8.3,8.3v0
	C154.1,601.4,150.4,605.1,145.8,605.1z"/>
<path class="st1" d="M168.4,605.1L168.4,605.1c-4.6,0-8.3-3.7-8.3-8.3v0c0-4.6,3.7-8.3,8.3-8.3h0c4.6,0,8.3,3.7,8.3,8.3v0
	C176.7,601.4,173,605.1,168.4,605.1z"/>
<path class="st1" d="M122.2,605.1L122.2,605.1c-4.6,0-8.3-3.7-8.3-8.3v0c0-4.6,3.7-8.3,8.3-8.3h0c4.6,0,8.3,3.7,8.3,8.3v0
	C130.5,601.4,126.7,605.1,122.2,605.1z"/>
<path class="st1" d="M212.4,605.1L212.4,605.1c-4.6,0-8.3-3.7-8.3-8.3v0c0-4.6,3.7-8.3,8.3-8.3h0c4.6,0,8.3,3.7,8.3,8.3v0
	C220.7,601.4,217,605.1,212.4,605.1z"/>
<path class="st1" d="M235,605.1L235,605.1c-4.6,0-8.3-3.7-8.3-8.3v0c0-4.6,3.7-8.3,8.3-8.3h0c4.6,0,8.3,3.7,8.3,8.3v0
	C243.3,601.4,239.5,605.1,235,605.1z"/>
<path class="st1" d="M189.8,605.1L189.8,605.1c-4.6,0-8.3-3.7-8.3-8.3v0c0-4.6,3.7-8.3,8.3-8.3h0c4.6,0,8.3,3.7,8.3,8.3v0
	C198.1,601.4,194.3,605.1,189.8,605.1z"/>
<path class="st1" d="M144.8,469.6L144.8,469.6c-4.6,0-8.3-3.7-8.3-8.3v0c0-4.6,3.7-8.3,8.3-8.3h0c4.6,0,8.3,3.7,8.3,8.3v0
	C153.1,465.9,149.3,469.6,144.8,469.6z"/>
<path class="st1" d="M122.2,492.2L122.2,492.2c-4.6,0-8.3-3.7-8.3-8.3v0c0-4.6,3.7-8.3,8.3-8.3h0c4.6,0,8.3,3.7,8.3,8.3v0
	C130.5,488.5,126.7,492.2,122.2,492.2z"/>
<path class="st1" d="M144.8,492.2L144.8,492.2c-4.6,0-8.3-3.7-8.3-8.3v0c0-4.6,3.7-8.3,8.3-8.3h0c4.6,0,8.3,3.7,8.3,8.3v0
	C153,488.5,149.3,492.2,144.8,492.2z"/>
<path class="st1" d="M77,63.1L77,63.1c-4.6,0-8.3-3.7-8.3-8.3v0c0-4.6,3.7-8.3,8.3-8.3h0c4.6,0,8.3,3.7,8.3,8.3v0
	C85.3,59.4,81.6,63.1,77,63.1z"/>
<path class="st1" d="M99.6,63.1L99.6,63.1c-4.6,0-8.3-3.7-8.3-8.3v0c0-4.6,3.7-8.3,8.3-8.3h0c4.6,0,8.3,3.7,8.3,8.3v0
	C107.9,59.4,104.1,63.1,99.6,63.1z"/>
<path class="st1" d="M54.4,108.3L54.4,108.3c-4.6,0-8.3-3.7-8.3-8.3v0c0-4.6,3.7-8.3,8.3-8.3h0c4.6,0,8.3,3.7,8.3,8.3v0
	C62.7,104.6,59,108.3,54.4,108.3z"/>
<path class="st1" d="M54.4,85.7L54.4,85.7c-4.6,0-8.3-3.7-8.3-8.3v0c0-4.6,3.7-8.3,8.3-8.3h0c4.6,0,8.3,3.7,8.3,8.3v0
	C62.7,82,59,85.7,54.4,85.7z"/>
<path class="st1" d="M31.9,63.1L31.9,63.1c-4.6,0-8.3-3.7-8.3-8.3v0c0-4.6,3.7-8.3,8.3-8.3h0c4.6,0,8.3,3.7,8.3,8.3v0
	C40.1,59.4,36.4,63.1,31.9,63.1z"/>
<path class="st1" d="M9.3,63.1L9.3,63.1c-4.6,0-8.3-3.7-8.3-8.3v0c0-4.6,3.7-8.3,8.3-8.3h0c4.6,0,8.3,3.7,8.3,8.3v0
	C17.6,59.4,13.8,63.1,9.3,63.1z"/>
<path class="st1" d="M31.9,85.7L31.9,85.7c-4.6,0-8.3-3.7-8.3-8.3v0c0-4.6,3.7-8.3,8.3-8.3h0c4.6,0,8.3,3.7,8.3,8.3v0
	C40.1,82,36.4,85.7,31.9,85.7z"/>
<path class="st1" d="M9.3,85.7L9.3,85.7C4.7,85.7,1,82,1,77.4v0c0-4.6,3.7-8.3,8.3-8.3h0c4.6,0,8.3,3.7,8.3,8.3v0
	C17.6,82,13.8,85.7,9.3,85.7z"/>
<path class="st1" d="M31.9,108.3L31.9,108.3c-4.6,0-8.3-3.7-8.3-8.3v0c0-4.6,3.7-8.3,8.3-8.3h0c4.6,0,8.3,3.7,8.3,8.3v0
	C40.1,104.6,36.4,108.3,31.9,108.3z"/>
<path class="st1" d="M9.3,108.3L9.3,108.3c-4.6,0-8.3-3.7-8.3-8.3v0c0-4.6,3.7-8.3,8.3-8.3h0c4.6,0,8.3,3.7,8.3,8.3v0
	C17.6,104.6,13.8,108.3,9.3,108.3z"/>
<path class="st1" d="M31.9,130.9L31.9,130.9c-4.6,0-8.3-3.7-8.3-8.3v0c0-4.6,3.7-8.3,8.3-8.3h0c4.6,0,8.3,3.7,8.3,8.3v0
	C40.1,127.2,36.4,130.9,31.9,130.9z"/>
<path class="st1" d="M54.4,130.9L54.4,130.9c-4.6,0-8.3-3.7-8.3-8.3v0c0-4.6,3.7-8.3,8.3-8.3h0c4.6,0,8.3,3.7,8.3,8.3v0
	C62.7,127.2,59,130.9,54.4,130.9z"/>
<path class="st1" d="M9.3,130.9L9.3,130.9c-4.6,0-8.3-3.7-8.3-8.3v0c0-4.6,3.7-8.3,8.3-8.3h0c4.6,0,8.3,3.7,8.3,8.3v0
	C17.6,127.2,13.8,130.9,9.3,130.9z"/>
<path class="st1" d="M31.9,153.4L31.9,153.4c-4.6,0-8.3-3.7-8.3-8.3v0c0-4.6,3.7-8.3,8.3-8.3h0c4.6,0,8.3,3.7,8.3,8.3v0
	C40.1,149.7,36.4,153.4,31.9,153.4z"/>
<path class="st1" d="M9.3,153.4L9.3,153.4c-4.6,0-8.3-3.7-8.3-8.3v0c0-4.6,3.7-8.3,8.3-8.3h0c4.6,0,8.3,3.7,8.3,8.3v0
	C17.6,149.7,13.8,153.4,9.3,153.4z"/>
<path class="st1" d="M31.9,176L31.9,176c-4.6,0-8.3-3.7-8.3-8.3v0c0-4.6,3.7-8.3,8.3-8.3h0c4.6,0,8.3,3.7,8.3,8.3v0
	C40.1,172.3,36.4,176,31.9,176z"/>
<path class="st1" d="M54.4,153.4L54.4,153.4c-4.6,0-8.3-3.7-8.3-8.3v0c0-4.6,3.7-8.3,8.3-8.3h0c4.6,0,8.3,3.7,8.3,8.3v0
	C62.7,149.7,59,153.4,54.4,153.4z"/>
<path class="st1" d="M54.4,176L54.4,176c-4.6,0-8.3-3.7-8.3-8.3v0c0-4.6,3.7-8.3,8.3-8.3h0c4.6,0,8.3,3.7,8.3,8.3v0
	C62.7,172.3,59,176,54.4,176z"/>
<path class="st1" d="M9.3,176L9.3,176c-4.6,0-8.3-3.7-8.3-8.3v0c0-4.6,3.7-8.3,8.3-8.3h0c4.6,0,8.3,3.7,8.3,8.3v0
	C17.6,172.3,13.8,176,9.3,176z"/>
<path class="st1" d="M31.9,198.6L31.9,198.6c-4.6,0-8.3-3.7-8.3-8.3v0c0-4.6,3.7-8.3,8.3-8.3h0c4.6,0,8.3,3.7,8.3,8.3v0
	C40.1,194.9,36.4,198.6,31.9,198.6z"/>
<path class="st1" d="M54.4,198.6L54.4,198.6c-4.6,0-8.3-3.7-8.3-8.3v0c0-4.6,3.7-8.3,8.3-8.3h0c4.6,0,8.3,3.7,8.3,8.3v0
	C62.7,194.9,59,198.6,54.4,198.6z"/>
<path class="st1" d="M77,176L77,176c-4.6,0-8.3-3.7-8.3-8.3v0c0-4.6,3.7-8.3,8.3-8.3h0c4.6,0,8.3,3.7,8.3,8.3v0
	C85.3,172.3,81.6,176,77,176z"/>
<path class="st1" d="M77,198.6L77,198.6c-4.6,0-8.3-3.7-8.3-8.3v0c0-4.6,3.7-8.3,8.3-8.3h0c4.6,0,8.3,3.7,8.3,8.3v0
	C85.3,194.9,81.6,198.6,77,198.6z"/>
<path class="st1" d="M99.6,198.6L99.6,198.6c-4.6,0-8.3-3.7-8.3-8.3v0c0-4.6,3.7-8.3,8.3-8.3h0c4.6,0,8.3,3.7,8.3,8.3v0
	C107.9,194.9,104.2,198.6,99.6,198.6z"/>
<path class="st1" d="M9.3,198.6L9.3,198.6c-4.6,0-8.3-3.7-8.3-8.3v0c0-4.6,3.7-8.3,8.3-8.3h0c4.6,0,8.3,3.7,8.3,8.3v0
	C17.6,194.9,13.8,198.6,9.3,198.6z"/>
<path class="st1" d="M31.9,221.1L31.9,221.1c-4.6,0-8.3-3.7-8.3-8.3v0c0-4.6,3.7-8.3,8.3-8.3h0c4.6,0,8.3,3.7,8.3,8.3v0
	C40.1,217.4,36.4,221.1,31.9,221.1z"/>
<path class="st1" d="M54.4,221.1L54.4,221.1c-4.6,0-8.3-3.7-8.3-8.3v0c0-4.6,3.7-8.3,8.3-8.3h0c4.6,0,8.3,3.7,8.3,8.3v0
	C62.7,217.4,59,221.1,54.4,221.1z"/>
<path class="st1" d="M77,221.1L77,221.1c-4.6,0-8.3-3.7-8.3-8.3v0c0-4.6,3.7-8.3,8.3-8.3h0c4.6,0,8.3,3.7,8.3,8.3v0
	C85.3,217.4,81.6,221.1,77,221.1z"/>
<path class="st1" d="M99.6,221.1L99.6,221.1c-4.6,0-8.3-3.7-8.3-8.3v0c0-4.6,3.7-8.3,8.3-8.3h0c4.6,0,8.3,3.7,8.3,8.3v0
	C107.9,217.4,104.2,221.1,99.6,221.1z"/>
<path class="st1" d="M9.3,221.1L9.3,221.1c-4.6,0-8.3-3.7-8.3-8.3v0c0-4.6,3.7-8.3,8.3-8.3h0c4.6,0,8.3,3.7,8.3,8.3v0
	C17.6,217.4,13.8,221.1,9.3,221.1z"/>
<path class="st1" d="M77,243.7L77,243.7c-4.6,0-8.3-3.7-8.3-8.3v0c0-4.6,3.7-8.3,8.3-8.3h0c4.6,0,8.3,3.7,8.3,8.3v0
	C85.3,240,81.6,243.7,77,243.7z"/>
<path class="st1" d="M9.3,243.7L9.3,243.7c-4.6,0-8.3-3.7-8.3-8.3v0c0-4.6,3.7-8.3,8.3-8.3h0c4.6,0,8.3,3.7,8.3,8.3v0
	C17.5,240,13.8,243.7,9.3,243.7z"/>
<path class="st1" d="M31.8,243.7L31.8,243.7c-4.6,0-8.3-3.7-8.3-8.3v0c0-4.6,3.7-8.3,8.3-8.3h0c4.6,0,8.3,3.7,8.3,8.3v0
	C40.1,240,36.4,243.7,31.8,243.7z"/>
<path class="st1" d="M9.3,266.3L9.3,266.3c-4.6,0-8.3-3.7-8.3-8.3l0,0c0-4.6,3.7-8.3,8.3-8.3h0c4.6,0,8.3,3.7,8.3,8.3l0,0
	C17.5,262.6,13.8,266.3,9.3,266.3z"/>
<path class="st1" d="M31.8,266.3L31.8,266.3c-4.6,0-8.3-3.7-8.3-8.3l0,0c0-4.6,3.7-8.3,8.3-8.3h0c4.6,0,8.3,3.7,8.3,8.3l0,0
	C40.1,262.6,36.4,266.3,31.8,266.3z"/>
<path class="st1" d="M54.4,243.7L54.4,243.7c-4.6,0-8.3-3.7-8.3-8.3v0c0-4.6,3.7-8.3,8.3-8.3h0c4.6,0,8.3,3.7,8.3,8.3v0
	C62.7,240,59,243.7,54.4,243.7z"/>
<path class="st1" d="M54.4,266.3L54.4,266.3c-4.6,0-8.3-3.7-8.3-8.3l0,0c0-4.6,3.7-8.3,8.3-8.3h0c4.6,0,8.3,3.7,8.3,8.3l0,0
	C62.7,262.6,59,266.3,54.4,266.3z"/>
<path class="st1" d="M77,266.3L77,266.3c-4.6,0-8.3-3.7-8.3-8.3l0,0c0-4.6,3.7-8.3,8.3-8.3h0c4.6,0,8.3,3.7,8.3,8.3l0,0
	C85.3,262.6,81.6,266.3,77,266.3z"/>
<path class="st1" d="M9.3,288.8L9.3,288.8c-4.6,0-8.3-3.7-8.3-8.3l0,0c0-4.6,3.7-8.3,8.3-8.3h0c4.6,0,8.3,3.7,8.3,8.3l0,0
	C17.5,285.1,13.8,288.8,9.3,288.8z"/>
<path class="st1" d="M31.8,288.8L31.8,288.8c-4.6,0-8.3-3.7-8.3-8.3l0,0c0-4.6,3.7-8.3,8.3-8.3h0c4.6,0,8.3,3.7,8.3,8.3l0,0
	C40.1,285.1,36.4,288.8,31.8,288.8z"/>
<path class="st1" d="M54.4,288.8L54.4,288.8c-4.6,0-8.3-3.7-8.3-8.3l0,0c0-4.6,3.7-8.3,8.3-8.3h0c4.6,0,8.3,3.7,8.3,8.3l0,0
	C62.7,285.1,59,288.8,54.4,288.8z"/>
<path class="st1" d="M77,288.8L77,288.8c-4.6,0-8.3-3.7-8.3-8.3l0,0c0-4.6,3.7-8.3,8.3-8.3h0c4.6,0,8.3,3.7,8.3,8.3l0,0
	C85.3,285.1,81.6,288.8,77,288.8z"/>
<path class="st1" d="M9.3,311.4L9.3,311.4c-4.6,0-8.3-3.7-8.3-8.3v0c0-4.6,3.7-8.3,8.3-8.3h0c4.6,0,8.3,3.7,8.3,8.3v0
	C17.5,307.7,13.8,311.4,9.3,311.4z"/>
<path class="st1" d="M31.8,311.4L31.8,311.4c-4.6,0-8.3-3.7-8.3-8.3v0c0-4.6,3.7-8.3,8.3-8.3h0c4.6,0,8.3,3.7,8.3,8.3v0
	C40.1,307.7,36.4,311.4,31.8,311.4z"/>
<path class="st1" d="M54.4,311.4L54.4,311.4c-4.6,0-8.3-3.7-8.3-8.3v0c0-4.6,3.7-8.3,8.3-8.3h0c4.6,0,8.3,3.7,8.3,8.3v0
	C62.7,307.7,59,311.4,54.4,311.4z"/>
<path class="st1" d="M77,311.4L77,311.4c-4.6,0-8.3-3.7-8.3-8.3v0c0-4.6,3.7-8.3,8.3-8.3h0c4.6,0,8.3,3.7,8.3,8.3v0
	C85.3,307.7,81.6,311.4,77,311.4z"/>
<path class="st1" d="M9.3,333.9L9.3,333.9c-4.6,0-8.3-3.7-8.3-8.3v0c0-4.6,3.7-8.3,8.3-8.3h0c4.6,0,8.3,3.7,8.3,8.3v0
	C17.5,330.2,13.8,333.9,9.3,333.9z"/>
<path class="st1" d="M31.8,333.9L31.8,333.9c-4.6,0-8.3-3.7-8.3-8.3v0c0-4.6,3.7-8.3,8.3-8.3h0c4.6,0,8.3,3.7,8.3,8.3v0
	C40.1,330.2,36.4,333.9,31.8,333.9z"/>
<path class="st1" d="M54.4,333.9L54.4,333.9c-4.6,0-8.3-3.7-8.3-8.3v0c0-4.6,3.7-8.3,8.3-8.3h0c4.6,0,8.3,3.7,8.3,8.3v0
	C62.7,330.2,59,333.9,54.4,333.9z"/>
<path class="st1" d="M77,333.9L77,333.9c-4.6,0-8.3-3.7-8.3-8.3v0c0-4.6,3.7-8.3,8.3-8.3h0c4.6,0,8.3,3.7,8.3,8.3v0
	C85.3,330.2,81.6,333.9,77,333.9z"/>
<path class="st1" d="M77,356.5L77,356.5c-4.6,0-8.3-3.7-8.3-8.3v0c0-4.6,3.7-8.3,8.3-8.3h0c4.6,0,8.3,3.7,8.3,8.3v0
	C85.3,352.8,81.6,356.5,77,356.5z"/>
<path class="st1" d="M9.3,356.5L9.3,356.5c-4.6,0-8.3-3.7-8.3-8.3l0,0c0-4.6,3.7-8.3,8.3-8.3h0c4.6,0,8.3,3.7,8.3,8.3l0,0
	C17.5,352.8,13.8,356.5,9.3,356.5z"/>
<path class="st1" d="M31.8,356.5L31.8,356.5c-4.6,0-8.3-3.7-8.3-8.3l0,0c0-4.6,3.7-8.3,8.3-8.3h0c4.6,0,8.3,3.7,8.3,8.3l0,0
	C40.1,352.8,36.4,356.5,31.8,356.5z"/>
<path class="st1" d="M9.3,379.1L9.3,379.1c-4.6,0-8.3-3.7-8.3-8.3l0,0c0-4.6,3.7-8.3,8.3-8.3h0c4.6,0,8.3,3.7,8.3,8.3l0,0
	C17.5,375.4,13.8,379.1,9.3,379.1z"/>
<path class="st1" d="M31.8,379.1L31.8,379.1c-4.6,0-8.3-3.7-8.3-8.3l0,0c0-4.6,3.7-8.3,8.3-8.3h0c4.6,0,8.3,3.7,8.3,8.3l0,0
	C40.1,375.4,36.4,379.1,31.8,379.1z"/>
<path class="st1" d="M54.4,356.5L54.4,356.5c-4.6,0-8.3-3.7-8.3-8.3l0,0c0-4.6,3.7-8.3,8.3-8.3h0c4.6,0,8.3,3.7,8.3,8.3l0,0
	C62.7,352.8,59,356.5,54.4,356.5z"/>
<path class="st1" d="M54.4,379.1L54.4,379.1c-4.6,0-8.3-3.7-8.3-8.3l0,0c0-4.6,3.7-8.3,8.3-8.3h0c4.6,0,8.3,3.7,8.3,8.3l0,0
	C62.7,375.4,59,379.1,54.4,379.1z"/>
<path class="st1" d="M77,379.1L77,379.1c-4.6,0-8.3-3.7-8.3-8.3l0,0c0-4.6,3.7-8.3,8.3-8.3h0c4.6,0,8.3,3.7,8.3,8.3l0,0
	C85.3,375.4,81.6,379.1,77,379.1z"/>
<path class="st1" d="M9.3,401.6L9.3,401.6c-4.6,0-8.3-3.7-8.3-8.3l0,0c0-4.6,3.7-8.3,8.3-8.3h0c4.6,0,8.3,3.7,8.3,8.3l0,0
	C17.5,397.9,13.8,401.6,9.3,401.6z"/>
<path class="st1" d="M31.8,401.6L31.8,401.6c-4.6,0-8.3-3.7-8.3-8.3l0,0c0-4.6,3.7-8.3,8.3-8.3h0c4.6,0,8.3,3.7,8.3,8.3l0,0
	C40.1,397.9,36.4,401.6,31.8,401.6z"/>
<path class="st1" d="M54.4,401.6L54.4,401.6c-4.6,0-8.3-3.7-8.3-8.3l0,0c0-4.6,3.7-8.3,8.3-8.3h0c4.6,0,8.3,3.7,8.3,8.3l0,0
	C62.7,397.9,59,401.6,54.4,401.6z"/>
<path class="st1" d="M77,401.6L77,401.6c-4.6,0-8.3-3.7-8.3-8.3l0,0c0-4.6,3.7-8.3,8.3-8.3h0c4.6,0,8.3,3.7,8.3,8.3l0,0
	C85.3,397.9,81.6,401.6,77,401.6z"/>
<path class="st1" d="M122.3,243.7L122.3,243.7c-4.6,0-8.3-3.7-8.3-8.3v0c0-4.6,3.7-8.3,8.3-8.3h0c4.6,0,8.3,3.7,8.3,8.3v0
	C130.5,240,126.8,243.7,122.3,243.7z"/>
<path class="st1" d="M99.6,243.7L99.6,243.7c-4.6,0-8.3-3.7-8.3-8.3v0c0-4.6,3.7-8.3,8.3-8.3h0c4.6,0,8.3,3.7,8.3,8.3v0
	C107.9,240,104.2,243.7,99.6,243.7z"/>
<path class="st1" d="M99.6,266.3L99.6,266.3c-4.6,0-8.3-3.7-8.3-8.3l0,0c0-4.6,3.7-8.3,8.3-8.3h0c4.6,0,8.3,3.7,8.3,8.3l0,0
	C107.9,262.6,104.2,266.3,99.6,266.3z"/>
<path class="st1" d="M122.2,266.3L122.2,266.3c-4.6,0-8.3-3.7-8.3-8.3l0,0c0-4.6,3.7-8.3,8.3-8.3h0c4.6,0,8.3,3.7,8.3,8.3l0,0
	C130.5,262.6,126.8,266.3,122.2,266.3z"/>
<path class="st1" d="M99.6,288.8L99.6,288.8c-4.6,0-8.3-3.7-8.3-8.3l0,0c0-4.6,3.7-8.3,8.3-8.3h0c4.6,0,8.3,3.7,8.3,8.3l0,0
	C107.9,285.1,104.2,288.8,99.6,288.8z"/>
<path class="st1" d="M122.2,288.8L122.2,288.8c-4.6,0-8.3-3.7-8.3-8.3l0,0c0-4.6,3.7-8.3,8.3-8.3h0c4.6,0,8.3,3.7,8.3,8.3l0,0
	C130.5,285.1,126.8,288.8,122.2,288.8z"/>
<path class="st1" d="M99.6,311.4L99.6,311.4c-4.6,0-8.3-3.7-8.3-8.3v0c0-4.6,3.7-8.3,8.3-8.3h0c4.6,0,8.3,3.7,8.3,8.3v0
	C107.9,307.7,104.2,311.4,99.6,311.4z"/>
<path class="st1" d="M122.2,311.4L122.2,311.4c-4.6,0-8.3-3.7-8.3-8.3v0c0-4.6,3.7-8.3,8.3-8.3h0c4.6,0,8.3,3.7,8.3,8.3v0
	C130.5,307.7,126.8,311.4,122.2,311.4z"/>
<path class="st1" d="M99.6,333.9L99.6,333.9c-4.6,0-8.3-3.7-8.3-8.3v0c0-4.6,3.7-8.3,8.3-8.3h0c4.6,0,8.3,3.7,8.3,8.3v0
	C107.9,330.2,104.2,333.9,99.6,333.9z"/>
<path class="st1" d="M122.2,333.9L122.2,333.9c-4.6,0-8.3-3.7-8.3-8.3v0c0-4.6,3.7-8.3,8.3-8.3h0c4.6,0,8.3,3.7,8.3,8.3v0
	C130.5,330.2,126.8,333.9,122.2,333.9z"/>
<path class="st1" d="M122.3,356.5L122.3,356.5c-4.6,0-8.3-3.7-8.3-8.3v0c0-4.6,3.7-8.3,8.3-8.3h0c4.6,0,8.3,3.7,8.3,8.3v0
	C130.5,352.8,126.8,356.5,122.3,356.5z"/>
<path class="st1" d="M99.6,356.5L99.6,356.5c-4.6,0-8.3-3.7-8.3-8.3l0,0c0-4.6,3.7-8.3,8.3-8.3h0c4.6,0,8.3,3.7,8.3,8.3l0,0
	C107.9,352.8,104.2,356.5,99.6,356.5z"/>
<path class="st1" d="M99.6,379.1L99.6,379.1c-4.6,0-8.3-3.7-8.3-8.3l0,0c0-4.6,3.7-8.3,8.3-8.3h0c4.6,0,8.3,3.7,8.3,8.3l0,0
	C107.9,375.4,104.2,379.1,99.6,379.1z"/>
<path class="st1" d="M122.2,379.1L122.2,379.1c-4.6,0-8.3-3.7-8.3-8.3l0,0c0-4.6,3.7-8.3,8.3-8.3h0c4.6,0,8.3,3.7,8.3,8.3l0,0
	C130.5,375.4,126.8,379.1,122.2,379.1z"/>
<path class="st1" d="M99.6,401.6L99.6,401.6c-4.6,0-8.3-3.7-8.3-8.3l0,0c0-4.6,3.7-8.3,8.3-8.3h0c4.6,0,8.3,3.7,8.3,8.3l0,0
	C107.9,397.9,104.2,401.6,99.6,401.6z"/>
<path class="st1" d="M122.2,401.6L122.2,401.6c-4.6,0-8.3-3.7-8.3-8.3l0,0c0-4.6,3.7-8.3,8.3-8.3h0c4.6,0,8.3,3.7,8.3,8.3l0,0
	C130.5,397.9,126.8,401.6,122.2,401.6z"/>
<path class="st1" d="M144.8,288.8L144.8,288.8c-4.6,0-8.3-3.7-8.3-8.3l0,0c0-4.6,3.7-8.3,8.3-8.3h0c4.6,0,8.3,3.7,8.3,8.3l0,0
	C153.1,285.1,149.4,288.8,144.8,288.8z"/>
<path class="st1" d="M144.8,311.4L144.8,311.4c-4.6,0-8.3-3.7-8.3-8.3v0c0-4.6,3.7-8.3,8.3-8.3h0c4.6,0,8.3,3.7,8.3,8.3v0
	C153.1,307.7,149.4,311.4,144.8,311.4z"/>
<path class="st1" d="M144.8,333.9L144.8,333.9c-4.6,0-8.3-3.7-8.3-8.3v0c0-4.6,3.7-8.3,8.3-8.3h0c4.6,0,8.3,3.7,8.3,8.3v0
	C153.1,330.2,149.4,333.9,144.8,333.9z"/>
<path class="st1" d="M144.9,356.5L144.9,356.5c-4.6,0-8.3-3.7-8.3-8.3v0c0-4.6,3.7-8.3,8.3-8.3h0c4.6,0,8.3,3.7,8.3,8.3v0
	C153.1,352.8,149.4,356.5,144.9,356.5z"/>
<path class="st1" d="M144.8,379.1L144.8,379.1c-4.6,0-8.3-3.7-8.3-8.3l0,0c0-4.6,3.7-8.3,8.3-8.3h0c4.6,0,8.3,3.7,8.3,8.3l0,0
	C153.1,375.4,149.4,379.1,144.8,379.1z"/>
<path class="st1" d="M144.8,401.6L144.8,401.6c-4.6,0-8.3-3.7-8.3-8.3l0,0c0-4.6,3.7-8.3,8.3-8.3h0c4.6,0,8.3,3.7,8.3,8.3l0,0
	C153.1,397.9,149.4,401.6,144.8,401.6z"/>
<path class="st1" d="M167.4,333.9L167.4,333.9c-4.6,0-8.3-3.7-8.3-8.3v0c0-4.6,3.7-8.3,8.3-8.3h0c4.6,0,8.3,3.7,8.3,8.3v0
	C175.7,330.2,172,333.9,167.4,333.9z"/>
<path class="st1" d="M167.5,356.5L167.5,356.5c-4.6,0-8.3-3.7-8.3-8.3v0c0-4.6,3.7-8.3,8.3-8.3h0c4.6,0,8.3,3.7,8.3,8.3v0
	C175.7,352.8,172,356.5,167.5,356.5z"/>
<path class="st1" d="M167.4,379.1L167.4,379.1c-4.6,0-8.3-3.7-8.3-8.3l0,0c0-4.6,3.7-8.3,8.3-8.3h0c4.6,0,8.3,3.7,8.3,8.3l0,0
	C175.7,375.4,172,379.1,167.4,379.1z"/>
<path class="st1" d="M167.4,401.6L167.4,401.6c-4.6,0-8.3-3.7-8.3-8.3l0,0c0-4.6,3.7-8.3,8.3-8.3h0c4.6,0,8.3,3.7,8.3,8.3l0,0
	C175.7,397.9,172,401.6,167.4,401.6z"/>
<path class="st1" d="M190,356.5L190,356.5c-4.6,0-8.3-3.7-8.3-8.3v0c0-4.6,3.7-8.3,8.3-8.3h0c4.6,0,8.3,3.7,8.3,8.3v0
	C198.3,352.8,194.6,356.5,190,356.5z"/>
<path class="st1" d="M190,379.1L190,379.1c-4.6,0-8.3-3.7-8.3-8.3l0,0c0-4.6,3.7-8.3,8.3-8.3h0c4.6,0,8.3,3.7,8.3,8.3l0,0
	C198.3,375.4,194.6,379.1,190,379.1z"/>
<path class="st1" d="M190,401.6L190,401.6c-4.6,0-8.3-3.7-8.3-8.3l0,0c0-4.6,3.7-8.3,8.3-8.3h0c4.6,0,8.3,3.7,8.3,8.3l0,0
	C198.3,397.9,194.6,401.6,190,401.6z"/>
<path class="st1" d="M212.3,424.3L212.3,424.3c-4.6,0-8.3-3.7-8.3-8.3l0,0c0-4.6,3.7-8.3,8.3-8.3h0c4.6,0,8.3,3.7,8.3,8.3l0,0
	C220.5,420.6,216.8,424.3,212.3,424.3z"/>
<path class="st1" d="M235.2,446.9L235.2,446.9c-4.6,0-8.3-3.7-8.3-8.3l0,0c0-4.6,3.7-8.3,8.3-8.3h0c4.6,0,8.3,3.7,8.3,8.3l0,0
	C243.5,443.2,239.7,446.9,235.2,446.9z"/>
<path class="st1" d="M9.3,424.2L9.3,424.2c-4.6,0-8.3-3.7-8.3-8.3l0,0c0-4.6,3.7-8.3,8.3-8.3h0c4.6,0,8.3,3.7,8.3,8.3l0,0
	C17.5,420.5,13.8,424.2,9.3,424.2z"/>
<path class="st1" d="M31.8,424.2L31.8,424.2c-4.6,0-8.3-3.7-8.3-8.3l0,0c0-4.6,3.7-8.3,8.3-8.3h0c4.6,0,8.3,3.7,8.3,8.3l0,0
	C40.1,420.5,36.4,424.2,31.8,424.2z"/>
<path class="st1" d="M54.4,424.2L54.4,424.2c-4.6,0-8.3-3.7-8.3-8.3l0,0c0-4.6,3.7-8.3,8.3-8.3h0c4.6,0,8.3,3.7,8.3,8.3l0,0
	C62.7,420.5,59,424.2,54.4,424.2z"/>
<path class="st1" d="M77,424.2L77,424.2c-4.6,0-8.3-3.7-8.3-8.3l0,0c0-4.6,3.7-8.3,8.3-8.3h0c4.6,0,8.3,3.7,8.3,8.3l0,0
	C85.3,420.5,81.6,424.2,77,424.2z"/>
<path class="st1" d="M31.9,446.7L31.9,446.7c-4.6,0-8.3-3.7-8.3-8.3l0,0c0-4.6,3.7-8.3,8.3-8.3h0c4.6,0,8.3,3.7,8.3,8.3l0,0
	C40.1,443,36.4,446.7,31.9,446.7z"/>
<path class="st1" d="M54.4,446.7L54.4,446.7c-4.6,0-8.3-3.7-8.3-8.3l0,0c0-4.6,3.7-8.3,8.3-8.3h0c4.6,0,8.3,3.7,8.3,8.3l0,0
	C62.7,443,59,446.7,54.4,446.7z"/>
<path class="st1" d="M77,446.7L77,446.7c-4.6,0-8.3-3.7-8.3-8.3l0,0c0-4.6,3.7-8.3,8.3-8.3h0c4.6,0,8.3,3.7,8.3,8.3l0,0
	C85.3,443,81.6,446.7,77,446.7z"/>
<path class="st1" d="M99.6,446.7L99.6,446.7c-4.6,0-8.3-3.7-8.3-8.3l0,0c0-4.6,3.7-8.3,8.3-8.3h0c4.6,0,8.3,3.7,8.3,8.3l0,0
	C107.9,443,104.2,446.7,99.6,446.7z"/>
<path class="st1" d="M99.6,424.2L99.6,424.2c-4.6,0-8.3-3.7-8.3-8.3l0,0c0-4.6,3.7-8.3,8.3-8.3h0c4.6,0,8.3,3.7,8.3,8.3l0,0
	C107.9,420.5,104.2,424.2,99.6,424.2z"/>
<path class="st1" d="M122.2,424.2L122.2,424.2c-4.6,0-8.3-3.7-8.3-8.3l0,0c0-4.6,3.7-8.3,8.3-8.3h0c4.6,0,8.3,3.7,8.3,8.3l0,0
	C130.5,420.5,126.8,424.2,122.2,424.2z"/>
<path class="st1" d="M122.2,446.7L122.2,446.7c-4.6,0-8.3-3.7-8.3-8.3l0,0c0-4.6,3.7-8.3,8.3-8.3h0c4.6,0,8.3,3.7,8.3,8.3l0,0
	C130.5,443,126.8,446.7,122.2,446.7z"/>
<path class="st1" d="M144.8,446.7L144.8,446.7c-4.6,0-8.3-3.7-8.3-8.3l0,0c0-4.6,3.7-8.3,8.3-8.3h0c4.6,0,8.3,3.7,8.3,8.3l0,0
	C153.1,443,149.4,446.7,144.8,446.7z"/>
<path class="st1" d="M144.8,424.2L144.8,424.2c-4.6,0-8.3-3.7-8.3-8.3l0,0c0-4.6,3.7-8.3,8.3-8.3h0c4.6,0,8.3,3.7,8.3,8.3l0,0
	C153.1,420.5,149.4,424.2,144.8,424.2z"/>
<path class="st1" d="M167.4,446.7L167.4,446.7c-4.6,0-8.3-3.7-8.3-8.3l0,0c0-4.6,3.7-8.3,8.3-8.3h0c4.6,0,8.3,3.7,8.3,8.3l0,0
	C175.7,443,172,446.7,167.4,446.7z"/>
<path class="st1" d="M167.4,424.2L167.4,424.2c-4.6,0-8.3-3.7-8.3-8.3l0,0c0-4.6,3.7-8.3,8.3-8.3h0c4.6,0,8.3,3.7,8.3,8.3l0,0
	C175.7,420.5,172,424.2,167.4,424.2z"/>
<path class="st1" d="M190,446.7L190,446.7c-4.6,0-8.3-3.7-8.3-8.3l0,0c0-4.6,3.7-8.3,8.3-8.3h0c4.6,0,8.3,3.7,8.3,8.3l0,0
	C198.3,443,194.6,446.7,190,446.7z"/>
<path class="st1" d="M190,424.2L190,424.2c-4.6,0-8.3-3.7-8.3-8.3l0,0c0-4.6,3.7-8.3,8.3-8.3h0c4.6,0,8.3,3.7,8.3,8.3l0,0
	C198.3,420.5,194.6,424.2,190,424.2z"/>
<path class="st1" d="M212.6,446.7L212.6,446.7c-4.6,0-8.3-3.7-8.3-8.3l0,0c0-4.6,3.7-8.3,8.3-8.3h0c4.6,0,8.3,3.7,8.3,8.3l0,0
	C220.9,443,217.2,446.7,212.6,446.7z"/>
<path class="st1" d="M9.3,446.7L9.3,446.7c-4.6,0-8.3-3.7-8.3-8.3l0,0c0-4.6,3.7-8.3,8.3-8.3h0c4.6,0,8.3,3.7,8.3,8.3l0,0
	C17.6,443,13.8,446.7,9.3,446.7z"/>
<path class="st1" d="M54.4,63.1L54.4,63.1c-4.6,0-8.3-3.7-8.3-8.3v0c0-4.6,3.7-8.3,8.3-8.3h0c4.6,0,8.3,3.7,8.3,8.3v0
	C62.7,59.4,59,63.1,54.4,63.1z"/>
<path class="st1" d="M122.2,63.1L122.2,63.1c-4.6,0-8.3-3.7-8.3-8.3v0c0-4.6,3.7-8.3,8.3-8.3h0c4.6,0,8.3,3.7,8.3,8.3v0
	C130.4,59.4,126.7,63.1,122.2,63.1z"/>
<path class="st1" d="M144.7,63.1L144.7,63.1c-4.6,0-8.3-3.7-8.3-8.3v0c0-4.6,3.7-8.3,8.3-8.3h0c4.6,0,8.3,3.7,8.3,8.3v0
	C153,59.4,149.3,63.1,144.7,63.1z"/>
<path class="st1" d="M257.4,63.1L257.4,63.1c-4.6,0-8.3-3.7-8.3-8.3v0c0-4.6,3.7-8.3,8.3-8.3h0c4.6,0,8.3,3.7,8.3,8.3v0
	C265.7,59.4,262,63.1,257.4,63.1z"/>
<path class="st1" d="M280,63.1L280,63.1c-4.6,0-8.3-3.7-8.3-8.3v0c0-4.6,3.7-8.3,8.3-8.3l0,0c4.6,0,8.3,3.7,8.3,8.3v0
	C288.2,59.4,284.5,63.1,280,63.1z"/>
<path class="st1" d="M302.5,63.1L302.5,63.1c-4.6,0-8.3-3.7-8.3-8.3v0c0-4.6,3.7-8.3,8.3-8.3l0,0c4.6,0,8.3,3.7,8.3,8.3v0
	C310.8,59.4,307.1,63.1,302.5,63.1z"/>
<path class="st1" d="M325.1,63.1L325.1,63.1c-4.6,0-8.3-3.7-8.3-8.3v0c0-4.6,3.7-8.3,8.3-8.3h0c4.6,0,8.3,3.7,8.3,8.3v0
	C333.4,59.4,329.7,63.1,325.1,63.1z"/>
<path class="st1" d="M257.5,627.8L257.5,627.8c-4.6,0-8.3-3.7-8.3-8.3l0,0c0-4.6,3.7-8.3,8.3-8.3l0,0c4.6,0,8.3,3.7,8.3,8.3l0,0
	C265.7,624,262,627.8,257.5,627.8z"/>
<path class="st1" d="M280,627.8L280,627.8c-4.6,0-8.3-3.7-8.3-8.3l0,0c0-4.6,3.7-8.3,8.3-8.3h0c4.6,0,8.3,3.7,8.3,8.3l0,0
	C288.3,624,284.6,627.8,280,627.8z"/>
<path class="st1" d="M302.6,627.8L302.6,627.8c-4.6,0-8.3-3.7-8.3-8.3l0,0c0-4.6,3.7-8.3,8.3-8.3h0c4.6,0,8.3,3.7,8.3,8.3l0,0
	C310.9,624,307.2,627.8,302.6,627.8z"/>
<path class="st1" d="M325.2,627.8L325.2,627.8c-4.6,0-8.3-3.7-8.3-8.3l0,0c0-4.6,3.7-8.3,8.3-8.3l0,0c4.6,0,8.3,3.7,8.3,8.3l0,0
	C333.5,624,329.7,627.8,325.2,627.8z"/>
<path class="st1" d="M347.7,108.3L347.7,108.3c-4.6,0-8.3-3.7-8.3-8.3v0c0-4.6,3.7-8.3,8.3-8.3l0,0c4.6,0,8.3,3.7,8.3,8.3v0
	C356,104.6,352.3,108.3,347.7,108.3z"/>
<path class="st1" d="M347.7,85.7L347.7,85.7c-4.6,0-8.3-3.7-8.3-8.3v0c0-4.6,3.7-8.3,8.3-8.3l0,0c4.6,0,8.3,3.7,8.3,8.3v0
	C356,82,352.3,85.7,347.7,85.7z"/>
<path class="st1" d="M347.7,153.4L347.7,153.4c-4.6,0-8.3-3.7-8.3-8.3v0c0-4.6,3.7-8.3,8.3-8.3h0c4.6,0,8.3,3.7,8.3,8.3v0
	C356,149.7,352.3,153.4,347.7,153.4z"/>
<path class="st1" d="M280,334L280,334c-4.6,0-8.3-3.7-8.3-8.3l0,0c0-4.6,3.7-8.3,8.3-8.3h0c4.6,0,8.3,3.7,8.3,8.3l0,0
	C288.3,330.3,284.6,334,280,334z"/>
<path class="st1" d="M280,356.6L280,356.6c-4.6,0-8.3-3.7-8.3-8.3v0c0-4.6,3.7-8.3,8.3-8.3h0c4.6,0,8.3,3.7,8.3,8.3v0
	C288.3,352.9,284.6,356.6,280,356.6z"/>
<path class="st1" d="M280,379.2L280,379.2c-4.6,0-8.3-3.7-8.3-8.3l0,0c0-4.6,3.7-8.3,8.3-8.3h0c4.6,0,8.3,3.7,8.3,8.3l0,0
	C288.3,375.5,284.6,379.2,280,379.2z"/>
<path class="st1" d="M280,401.8L280,401.8c-4.6,0-8.3-3.7-8.3-8.3v0c0-4.6,3.7-8.3,8.3-8.3h0c4.6,0,8.3,3.7,8.3,8.3v0
	C288.3,398,284.6,401.8,280,401.8z"/>
<path class="st1" d="M280,424.4L280,424.4c-4.6,0-8.3-3.7-8.3-8.3l0,0c0-4.6,3.7-8.3,8.3-8.3h0c4.6,0,8.3,3.7,8.3,8.3l0,0
	C288.3,420.7,284.6,424.4,280,424.4z"/>
<path class="st1" d="M347.7,447L347.7,447c-4.6,0-8.3-3.7-8.3-8.3l0,0c0-4.6,3.7-8.3,8.3-8.3h0c4.6,0,8.3,3.7,8.3,8.3l0,0
	C356,443.2,352.3,447,347.7,447z"/>
<path class="st1" d="M347.7,130.9L347.7,130.9c-4.6,0-8.3-3.7-8.3-8.3v0c0-4.6,3.7-8.3,8.3-8.3h0c4.6,0,8.3,3.7,8.3,8.3v0
	C356,127.1,352.3,130.9,347.7,130.9z"/>
<path class="st1" d="M347.8,176L347.8,176c-4.6,0-8.3-3.7-8.3-8.3v0c0-4.6,3.7-8.3,8.3-8.3h0c4.6,0,8.3,3.7,8.3,8.3v0
	C356.1,172.3,352.3,176,347.8,176z"/>
<path class="st1" d="M347.7,221.1L347.7,221.1c-4.6,0-8.3-3.7-8.3-8.3v0c0-4.6,3.7-8.3,8.3-8.3l0,0c4.6,0,8.3,3.7,8.3,8.3v0
	C356,217.4,352.3,221.1,347.7,221.1z"/>
<path class="st1" d="M347.7,198.6L347.7,198.6c-4.6,0-8.3-3.7-8.3-8.3v0c0-4.6,3.7-8.3,8.3-8.3l0,0c4.6,0,8.3,3.7,8.3,8.3v0
	C356,194.8,352.3,198.6,347.7,198.6z"/>
<path class="st1" d="M280,243.7L280,243.7c-4.6,0-8.3-3.7-8.3-8.3v0c0-4.6,3.7-8.3,8.3-8.3h0c4.6,0,8.3,3.7,8.3,8.3v0
	C288.3,240,284.6,243.7,280,243.7z"/>
<path class="st1" d="M280,288.8L280,288.8c-4.6,0-8.3-3.7-8.3-8.3v0c0-4.6,3.7-8.3,8.3-8.3l0,0c4.6,0,8.3,3.7,8.3,8.3v0
	C288.3,285.1,284.6,288.8,280,288.8z"/>
<path class="st1" d="M280,266.3L280,266.3c-4.6,0-8.3-3.7-8.3-8.3l0,0c0-4.6,3.7-8.3,8.3-8.3l0,0c4.6,0,8.3,3.7,8.3,8.3l0,0
	C288.3,262.5,284.6,266.3,280,266.3z"/>
<path class="st1" d="M347.8,469.6L347.8,469.6c-4.6,0-8.3-3.7-8.3-8.3v0c0-4.6,3.7-8.3,8.3-8.3h0c4.6,0,8.3,3.7,8.3,8.3v0
	C356.1,465.9,352.3,469.6,347.8,469.6z"/>
<path class="st1" d="M347.8,514.8L347.8,514.8c-4.6,0-8.3-3.7-8.3-8.3v0c0-4.6,3.7-8.3,8.3-8.3l0,0c4.6,0,8.3,3.7,8.3,8.3v0
	C356,511,352.3,514.8,347.8,514.8z"/>
<path class="st1" d="M347.8,492.2L347.8,492.2c-4.6,0-8.3-3.7-8.3-8.3v0c0-4.6,3.7-8.3,8.3-8.3l0,0c4.6,0,8.3,3.7,8.3,8.3v0
	C356,488.5,352.3,492.2,347.8,492.2z"/>
<path class="st1" d="M347.8,537.3L347.8,537.3c-4.6,0-8.3-3.7-8.3-8.3v0c0-4.6,3.7-8.3,8.3-8.3h0c4.6,0,8.3,3.7,8.3,8.3v0
	C356.1,533.6,352.3,537.3,347.8,537.3z"/>
<path class="st1" d="M280,311.5L280,311.5c-4.6,0-8.3-3.7-8.3-8.3v0c0-4.6,3.7-8.3,8.3-8.3l0,0c4.6,0,8.3,3.7,8.3,8.3v0
	C288.3,307.7,284.6,311.5,280,311.5z"/>
<path class="st1" d="M347.8,559.9L347.8,559.9c-4.6,0-8.3-3.7-8.3-8.3l0,0c0-4.6,3.7-8.3,8.3-8.3h0c4.6,0,8.3,3.7,8.3,8.3l0,0
	C356.1,556.2,352.3,559.9,347.8,559.9z"/>
<path class="st1" d="M347.8,582.5L347.8,582.5c-4.6,0-8.3-3.7-8.3-8.3l0,0c0-4.6,3.7-8.3,8.3-8.3h0c4.6,0,8.3,3.7,8.3,8.3l0,0
	C356.1,578.8,352.3,582.5,347.8,582.5z"/>
<path class="st1" d="M347.8,605.1L347.8,605.1c-4.6,0-8.3-3.7-8.3-8.3l0,0c0-4.6,3.7-8.3,8.3-8.3h0c4.6,0,8.3,3.7,8.3,8.3l0,0
	C356.1,601.4,352.3,605.1,347.8,605.1z"/>
<path class="st1" d="M347.7,63.1L347.7,63.1c-4.6,0-8.3-3.7-8.3-8.3v0c0-4.6,3.7-8.3,8.3-8.3l0,0c4.6,0,8.3,3.7,8.3,8.3v0
	C356,59.4,352.3,63.1,347.7,63.1z"/>
<path class="st1" d="M347.8,627.8L347.8,627.8c-4.6,0-8.3-3.7-8.3-8.3l0,0c0-4.6,3.7-8.3,8.3-8.3h0c4.6,0,8.3,3.7,8.3,8.3l0,0
	C356.1,624,352.3,627.8,347.8,627.8z"/>
<path class="st1" d="M77.1,627.8L77.1,627.8c-4.6,0-8.3-3.7-8.3-8.3l0,0c0-4.6,3.7-8.3,8.3-8.3h0c4.6,0,8.3,3.7,8.3,8.3l0,0
	C85.4,624.1,81.6,627.8,77.1,627.8z"/>
<path class="st1" d="M99.6,627.8L99.6,627.8c-4.6,0-8.3-3.7-8.3-8.3l0,0c0-4.6,3.7-8.3,8.3-8.3h0c4.6,0,8.3,3.7,8.3,8.3l0,0
	C107.9,624.1,104.2,627.8,99.6,627.8z"/>
<path class="st1" d="M8.3,627.8L8.3,627.8c-4.6,0-8.3-3.7-8.3-8.3l0,0c0-4.6,3.7-8.3,8.3-8.3h0c4.6,0,8.3,3.7,8.3,8.3l0,0
	C16.6,624.1,12.8,627.8,8.3,627.8z"/>
<path class="st1" d="M30.9,627.8L30.9,627.8c-4.6,0-8.3-3.7-8.3-8.3l0,0c0-4.6,3.7-8.3,8.3-8.3h0c4.6,0,8.3,3.7,8.3,8.3l0,0
	C39.1,624.1,35.4,627.8,30.9,627.8z"/>
<path class="st1" d="M53.4,627.8L53.4,627.8c-4.6,0-8.3-3.7-8.3-8.3l0,0c0-4.6,3.7-8.3,8.3-8.3h0c4.6,0,8.3,3.7,8.3,8.3l0,0
	C61.7,624.1,58,627.8,53.4,627.8z"/>
<path class="st1" d="M145.8,627.8L145.8,627.8c-4.6,0-8.3-3.7-8.3-8.3l0,0c0-4.6,3.7-8.3,8.3-8.3h0c4.6,0,8.3,3.7,8.3,8.3l0,0
	C154.1,624.1,150.4,627.8,145.8,627.8z"/>
<path class="st1" d="M168.4,627.8L168.4,627.8c-4.6,0-8.3-3.7-8.3-8.3l0,0c0-4.6,3.7-8.3,8.3-8.3h0c4.6,0,8.3,3.7,8.3,8.3l0,0
	C176.7,624.1,173,627.8,168.4,627.8z"/>
<path class="st1" d="M122.2,627.8L122.2,627.8c-4.6,0-8.3-3.7-8.3-8.3l0,0c0-4.6,3.7-8.3,8.3-8.3h0c4.6,0,8.3,3.7,8.3,8.3l0,0
	C130.5,624.1,126.7,627.8,122.2,627.8z"/>
<path class="st1" d="M212.4,627.8L212.4,627.8c-4.6,0-8.3-3.7-8.3-8.3l0,0c0-4.6,3.7-8.3,8.3-8.3h0c4.6,0,8.3,3.7,8.3,8.3l0,0
	C220.7,624.1,217,627.8,212.4,627.8z"/>
<path class="st1" d="M235,627.8L235,627.8c-4.6,0-8.3-3.7-8.3-8.3l0,0c0-4.6,3.7-8.3,8.3-8.3h0c4.6,0,8.3,3.7,8.3,8.3l0,0
	C243.3,624.1,239.5,627.8,235,627.8z"/>
<path class="st1" d="M189.8,627.8L189.8,627.8c-4.6,0-8.3-3.7-8.3-8.3l0,0c0-4.6,3.7-8.3,8.3-8.3h0c4.6,0,8.3,3.7,8.3,8.3l0,0
	C198.1,624.1,194.3,627.8,189.8,627.8z"/>
<g>
	<text transform="matrix(1 0 0 1 7.3127 57.5319)" class="st2 st3 st4">1</text>
	<text transform="matrix(1 0 0 1 29.3742 57.5319)" class="st2 st3 st4">2</text>
	<text transform="matrix(1 0 0 1 51.9484 57.5319)" class="st2 st3 st4">3</text>
	<text transform="matrix(1 0 0 1 74.4631 57.5319)" class="st2 st3 st4">4</text>
	<text transform="matrix(1 0 0 1 97.1369 57.5319)" class="st2 st3 st4">5</text>
	<text transform="matrix(1 0 0 1 119.4591 57.5319)" class="st2 st3 st4">6</text>
	<text transform="matrix(1 0 0 1 142.4855 57.5319)" class="st2 st3 st4">7</text>
	<text transform="matrix(1 0 0 1 164.6759 57.5319)" class="st2 st3 st4">8</text>
	<text transform="matrix(1 0 0 1 187.1701 57.5319)" class="st2 st3 st4">9</text>
	<text transform="matrix(1 0 0 1 207.8195 57.5319)" class="st2 st3 st4">10</text>
	<text transform="matrix(1 0 0 1 231.3019 57.5319)" class="st2 st3 st4">11</text>
	<text transform="matrix(1 0 0 1 253.3644 57.5319)" class="st2 st3 st4">12</text>
	<text transform="matrix(1 0 0 1 275.9377 57.5319)" class="st2 st3 st4">13</text>
	<text transform="matrix(1 0 0 1 298.4513 57.5319)" class="st2 st3 st4">14</text>
	<text transform="matrix(1 0 0 1 321.1261 57.5319)" class="st2 st3 st4">15</text>
	<text transform="matrix(1 0 0 1 343.591 57.5319)" class="st2 st3 st4">16</text>
	<text transform="matrix(1 0 0 1 343.591 80.1793)" class="st2 st3 st4">16</text>
	<text transform="matrix(1 0 0 1 343.591 102.4352)" class="st2 st3 st4">16</text>
	<text transform="matrix(1 0 0 1 343.591 125.0826)" class="st2 st3 st4">16</text>
	<text transform="matrix(1 0 0 1 343.591 147.0865)" class="st2 st3 st4">16</text>
	<text transform="matrix(1 0 0 1 343.591 169.734)" class="st2 st3 st4">16</text>
	<text transform="matrix(1 0 0 1 343.591 192.0709)" class="st2 st3 st4">16</text>
	<text transform="matrix(1 0 0 1 343.591 214.7184)" class="st2 st3 st4">16</text>
	<text transform="matrix(1 0 0 1 343.591 441.8131)" class="st2 st3 st4">16</text>
	<text transform="matrix(1 0 0 1 343.591 464.4606)" class="st2 st3 st4">16</text>
	<text transform="matrix(1 0 0 1 343.591 486.7164)" class="st2 st3 st4">16</text>
	<text transform="matrix(1 0 0 1 343.591 509.3639)" class="st2 st3 st4">16</text>
	<text transform="matrix(1 0 0 1 343.591 531.3678)" class="st2 st3 st4">16</text>
	<text transform="matrix(1 0 0 1 343.591 554.0153)" class="st2 st3 st4">16</text>
	<text transform="matrix(1 0 0 1 343.591 576.3522)" class="st2 st3 st4">16</text>
	<text transform="matrix(1 0 0 1 343.591 598.9996)" class="st2 st3 st4">16</text>
	<text transform="matrix(1 0 0 1 343.591 621.7994)" class="st2 st3 st4">16</text>
	<text transform="matrix(1 0 0 1 7.3127 10.2203)" class="st2 st3 st4">1</text>
	<text transform="matrix(1 0 0 1 29.3742 10.2203)" class="st2 st3 st4">2</text>
	<text transform="matrix(1 0 0 1 51.9484 10.2203)" class="st2 st3 st4">3</text>
	<text transform="matrix(1 0 0 1 74.4631 10.2203)" class="st2 st3 st4">4</text>
	<text transform="matrix(1 0 0 1 97.1369 10.2203)" class="st2 st3 st4">5</text>
	<text transform="matrix(1 0 0 1 119.4591 10.2203)" class="st2 st3 st4">6</text>
	<text transform="matrix(1 0 0 1 142.4855 10.2203)" class="st2 st3 st4">7</text>
	<text transform="matrix(1 0 0 1 164.6759 10.2203)" class="st2 st3 st4">8</text>
	<text transform="matrix(1 0 0 1 187.1701 10.2203)" class="st2 st3 st4">9</text>
	<text transform="matrix(1 0 0 1 207.8195 10.2203)" class="st2 st3 st4">10</text>
	<text transform="matrix(1 0 0 1 7.3127 80.1793)" class="st2 st3 st4">1</text>
	<text transform="matrix(1 0 0 1 29.3742 80.1793)" class="st2 st3 st4">2</text>
	<text transform="matrix(1 0 0 1 51.9484 80.1793)" class="st2 st3 st4">3</text>
	<text transform="matrix(1 0 0 1 74.4631 80.1793)" class="st2 st3 st4">4</text>
	<text transform="matrix(1 0 0 1 97.1369 80.1793)" class="st2 st3 st4">5</text>
	<text transform="matrix(1 0 0 1 119.4591 80.1793)" class="st2 st3 st4">6</text>
	<text transform="matrix(1 0 0 1 142.4855 80.1793)" class="st2 st3 st4">7</text>
	<text transform="matrix(1 0 0 1 164.6759 80.1793)" class="st2 st3 st4">8</text>
	<text transform="matrix(1 0 0 1 187.1701 80.1793)" class="st2 st3 st4">9</text>
	<text transform="matrix(1 0 0 1 207.8195 80.1793)" class="st2 st3 st4">10</text>
	<text transform="matrix(1 0 0 1 231.3019 80.1793)" class="st2 st3 st4">11</text>
	<text transform="matrix(1 0 0 1 253.3644 80.1793)" class="st2 st3 st4">12</text>
	<text transform="matrix(1 0 0 1 275.9377 80.1793)" class="st2 st3 st4">13</text>
	<text transform="matrix(1 0 0 1 298.4513 80.1793)" class="st2 st3 st4">14</text>
	<text transform="matrix(1 0 0 1 321.1261 80.1793)" class="st2 st3 st4">15</text>
	<text transform="matrix(1 0 0 1 7.3127 102.4352)" class="st2 st3 st4">1</text>
	<text transform="matrix(1 0 0 1 29.3742 102.4352)" class="st2 st3 st4">2</text>
	<text transform="matrix(1 0 0 1 51.9484 102.4352)" class="st2 st3 st4">3</text>
	<text transform="matrix(1 0 0 1 74.4631 102.4352)" class="st2 st3 st4">4</text>
	<text transform="matrix(1 0 0 1 97.1369 102.4352)" class="st2 st3 st4">5</text>
	<text transform="matrix(1 0 0 1 119.4591 102.4352)" class="st2 st3 st4">6</text>
	<text transform="matrix(1 0 0 1 142.4855 102.4352)" class="st2 st3 st4">7</text>
	<text transform="matrix(1 0 0 1 164.6759 102.4352)" class="st2 st3 st4">8</text>
	<text transform="matrix(1 0 0 1 187.1701 102.4352)" class="st2 st3 st4">9</text>
	<text transform="matrix(1 0 0 1 207.8195 102.4352)" class="st2 st3 st4">10</text>
	<text transform="matrix(1 0 0 1 231.3019 102.4352)" class="st2 st3 st4">11</text>
	<text transform="matrix(1 0 0 1 253.3644 102.4352)" class="st2 st3 st4">12</text>
	<text transform="matrix(1 0 0 1 275.9377 102.4352)" class="st2 st3 st4">13</text>
	<text transform="matrix(1 0 0 1 298.4513 102.4352)" class="st2 st3 st4">14</text>
	<text transform="matrix(1 0 0 1 321.1261 102.4352)" class="st2 st3 st4">15</text>
	<text transform="matrix(1 0 0 1 7.3127 125.3219)" class="st2 st3 st4">1</text>
	<text transform="matrix(1 0 0 1 29.3742 125.3219)" class="st2 st3 st4">2</text>
	<text transform="matrix(1 0 0 1 51.9484 125.3219)" class="st2 st3 st4">3</text>
	<text transform="matrix(1 0 0 1 74.4631 125.3219)" class="st2 st3 st4">4</text>
	<text transform="matrix(1 0 0 1 97.1369 125.3219)" class="st2 st3 st4">5</text>
	<text transform="matrix(1 0 0 1 119.4591 125.3219)" class="st2 st3 st4">6</text>
	<text transform="matrix(1 0 0 1 142.4855 125.3219)" class="st2 st3 st4">7</text>
	<text transform="matrix(1 0 0 1 164.6759 125.3219)" class="st2 st3 st4">8</text>
	<text transform="matrix(1 0 0 1 187.1701 125.3219)" class="st2 st3 st4">9</text>
	<text transform="matrix(1 0 0 1 207.8195 125.3219)" class="st2 st3 st4">10</text>
	<text transform="matrix(1 0 0 1 231.3019 125.3219)" class="st2 st3 st4">11</text>
	<text transform="matrix(1 0 0 1 253.3644 125.3219)" class="st2 st3 st4">12</text>
	<text transform="matrix(1 0 0 1 275.9377 125.3219)" class="st2 st3 st4">13</text>
	<text transform="matrix(1 0 0 1 298.4513 125.3219)" class="st2 st3 st4">14</text>
	<text transform="matrix(1 0 0 1 321.1261 125.3219)" class="st2 st3 st4">15</text>
	<text transform="matrix(1 0 0 1 7.3127 147.0865)" class="st2 st3 st4">1</text>
	<text transform="matrix(1 0 0 1 29.3742 147.0865)" class="st2 st3 st4">2</text>
	<text transform="matrix(1 0 0 1 51.9484 147.0865)" class="st2 st3 st4">3</text>
	<text transform="matrix(1 0 0 1 74.4631 147.0865)" class="st2 st3 st4">4</text>
	<text transform="matrix(1 0 0 1 97.1369 147.0865)" class="st2 st3 st4">5</text>
	<text transform="matrix(1 0 0 1 119.4591 147.0865)" class="st2 st3 st4">6</text>
	<text transform="matrix(1 0 0 1 142.4855 147.0865)" class="st2 st3 st4">7</text>
	<text transform="matrix(1 0 0 1 164.6759 147.0865)" class="st2 st3 st4">8</text>
	<text transform="matrix(1 0 0 1 187.1701 147.0865)" class="st2 st3 st4">9</text>
	<text transform="matrix(1 0 0 1 207.8195 147.0865)" class="st2 st3 st4">10</text>
	<text transform="matrix(1 0 0 1 231.3019 147.0865)" class="st2 st3 st4">11</text>
	<text transform="matrix(1 0 0 1 253.3644 147.0865)" class="st2 st3 st4">12</text>
	<text transform="matrix(1 0 0 1 275.9377 147.0865)" class="st2 st3 st4">13</text>
	<text transform="matrix(1 0 0 1 298.4513 147.0865)" class="st2 st3 st4">14</text>
	<text transform="matrix(1 0 0 1 321.1261 147.0865)" class="st2 st3 st4">15</text>
	<text transform="matrix(1 0 0 1 7.3127 169.4401)" class="st2 st3 st4">1</text>
	<text transform="matrix(1 0 0 1 29.3742 169.4401)" class="st2 st3 st4">2</text>
	<text transform="matrix(1 0 0 1 51.9484 169.4401)" class="st2 st3 st4">3</text>
	<text transform="matrix(1 0 0 1 74.4631 169.4401)" class="st2 st3 st4">4</text>
	<text transform="matrix(1 0 0 1 97.1369 169.4401)" class="st2 st3 st4">5</text>
	<text transform="matrix(1 0 0 1 119.4591 169.4401)" class="st2 st3 st4">6</text>
	<text transform="matrix(1 0 0 1 142.4855 169.4401)" class="st2 st3 st4">7</text>
	<text transform="matrix(1 0 0 1 164.6759 169.4401)" class="st2 st3 st4">8</text>
	<text transform="matrix(1 0 0 1 187.1701 169.4401)" class="st2 st3 st4">9</text>
	<text transform="matrix(1 0 0 1 207.8195 169.4401)" class="st2 st3 st4">10</text>
	<text transform="matrix(1 0 0 1 231.3019 169.4401)" class="st2 st3 st4">11</text>
	<text transform="matrix(1 0 0 1 253.3644 169.4401)" class="st2 st3 st4">12</text>
	<text transform="matrix(1 0 0 1 275.9377 169.4401)" class="st2 st3 st4">13</text>
	<text transform="matrix(1 0 0 1 298.4513 169.4401)" class="st2 st3 st4">14</text>
	<text transform="matrix(1 0 0 1 321.1261 169.4401)" class="st2 st3 st4">15</text>
	<text transform="matrix(1 0 0 1 7.3127 192.0709)" class="st2 st3 st4">1</text>
	<text transform="matrix(1 0 0 1 29.3742 192.0709)" class="st2 st3 st4">2</text>
	<text transform="matrix(1 0 0 1 51.9484 192.0709)" class="st2 st3 st4">3</text>
	<text transform="matrix(1 0 0 1 74.4631 192.0709)" class="st2 st3 st4">4</text>
	<text transform="matrix(1 0 0 1 97.1369 192.0709)" class="st2 st3 st4">5</text>
	<text transform="matrix(1 0 0 1 119.4591 192.0709)" class="st2 st3 st4">6</text>
	<text transform="matrix(1 0 0 1 142.4855 192.0709)" class="st2 st3 st4">7</text>
	<text transform="matrix(1 0 0 1 164.6759 192.0709)" class="st2 st3 st4">8</text>
	<text transform="matrix(1 0 0 1 187.1701 192.0709)" class="st2 st3 st4">9</text>
	<text transform="matrix(1 0 0 1 207.8195 192.0709)" class="st2 st3 st4">10</text>
	<text transform="matrix(1 0 0 1 231.3019 192.0709)" class="st2 st3 st4">11</text>
	<text transform="matrix(1 0 0 1 253.3644 192.0709)" class="st2 st3 st4">12</text>
	<text transform="matrix(1 0 0 1 275.9377 192.0709)" class="st2 st3 st4">13</text>
	<text transform="matrix(1 0 0 1 298.4513 192.0709)" class="st2 st3 st4">14</text>
	<text transform="matrix(1 0 0 1 321.1261 192.0709)" class="st2 st3 st4">15</text>
	<text transform="matrix(1 0 0 1 7.3127 215.2291)" class="st2 st3 st4">1</text>
	<text transform="matrix(1 0 0 1 29.3742 215.2291)" class="st2 st3 st4">2</text>
	<text transform="matrix(1 0 0 1 51.9484 215.2291)" class="st2 st3 st4">3</text>
	<text transform="matrix(1 0 0 1 74.4631 215.2291)" class="st2 st3 st4">4</text>
	<text transform="matrix(1 0 0 1 97.1369 215.2291)" class="st2 st3 st4">5</text>
	<text transform="matrix(1 0 0 1 119.4591 215.2291)" class="st2 st3 st4">6</text>
	<text transform="matrix(1 0 0 1 142.4855 215.2291)" class="st2 st3 st4">7</text>
	<text transform="matrix(1 0 0 1 164.6759 215.2291)" class="st2 st3 st4">8</text>
	<text transform="matrix(1 0 0 1 187.1701 215.2291)" class="st2 st3 st4">9</text>
	<text transform="matrix(1 0 0 1 207.8195 215.2291)" class="st2 st3 st4">10</text>
	<text transform="matrix(1 0 0 1 231.3019 215.2291)" class="st2 st3 st4">11</text>
	<text transform="matrix(1 0 0 1 253.3644 215.2291)" class="st2 st3 st4">12</text>
	<text transform="matrix(1 0 0 1 275.9377 215.2291)" class="st2 st3 st4">13</text>
	<text transform="matrix(1 0 0 1 275.9377 238.6813)" class="st2 st3 st4">13</text>
	<text transform="matrix(1 0 0 1 275.9377 261.3287)" class="st2 st3 st4">13</text>
	<text transform="matrix(1 0 0 1 275.9377 283.5846)" class="st2 st3 st4">13</text>
	<text transform="matrix(1 0 0 1 275.9377 306.4713)" class="st2 st3 st4">13</text>
	<text transform="matrix(1 0 0 1 275.9377 328.236)" class="st2 st3 st4">13</text>
	<text transform="matrix(1 0 0 1 275.9377 350.5895)" class="st2 st3 st4">13</text>
	<text transform="matrix(1 0 0 1 275.9377 373.2203)" class="st2 st3 st4">13</text>
	<text transform="matrix(1 0 0 1 275.9377 396.3785)" class="st2 st3 st4">13</text>
	<text transform="matrix(1 0 0 1 275.9377 418.2955)" class="st2 st3 st4">13</text>
	<text transform="matrix(1 0 0 1 298.4513 215.2291)" class="st2 st3 st4">14</text>
	<text transform="matrix(1 0 0 1 321.1261 215.2291)" class="st2 st3 st4">15</text>
	<text transform="matrix(1 0 0 1 6.5724 238.608)" class="st2 st3 st4">1</text>
	<text transform="matrix(1 0 0 1 28.6339 238.608)" class="st2 st3 st4">2</text>
	<text transform="matrix(1 0 0 1 51.2082 238.608)" class="st2 st3 st4">3</text>
	<text transform="matrix(1 0 0 1 73.7228 238.608)" class="st2 st3 st4">4</text>
	<text transform="matrix(1 0 0 1 96.3966 238.608)" class="st2 st3 st4">5</text>
	<text transform="matrix(1 0 0 1 118.7189 238.608)" class="st2 st3 st4">6</text>
	<text transform="matrix(1 0 0 1 141.7453 238.608)" class="st2 st3 st4">7</text>
	<text transform="matrix(1 0 0 1 163.9357 238.608)" class="st2 st3 st4">8</text>
	<text transform="matrix(1 0 0 1 186.4298 238.608)" class="st2 st3 st4">9</text>
	<text transform="matrix(1 0 0 1 207.0793 238.608)" class="st2 st3 st4">10</text>
	<text transform="matrix(1 0 0 1 230.5617 238.608)" class="st2 st3 st4">11</text>
	<text transform="matrix(1 0 0 1 252.6242 238.608)" class="st2 st3 st4">12</text>
	<text transform="matrix(1 0 0 1 6.5724 261.2555)" class="st2 st3 st4">1</text>
	<text transform="matrix(1 0 0 1 28.6339 261.2555)" class="st2 st3 st4">2</text>
	<text transform="matrix(1 0 0 1 51.2082 261.2555)" class="st2 st3 st4">3</text>
	<text transform="matrix(1 0 0 1 73.7228 261.2555)" class="st2 st3 st4">4</text>
	<text transform="matrix(1 0 0 1 96.3966 261.2555)" class="st2 st3 st4">5</text>
	<text transform="matrix(1 0 0 1 118.7189 261.2555)" class="st2 st3 st4">6</text>
	<text transform="matrix(1 0 0 1 141.7453 261.2555)" class="st2 st3 st4">7</text>
	<text transform="matrix(1 0 0 1 163.9357 261.2555)" class="st2 st3 st4">8</text>
	<text transform="matrix(1 0 0 1 186.4298 261.2555)" class="st2 st3 st4">9</text>
	<text transform="matrix(1 0 0 1 207.0793 261.2555)" class="st2 st3 st4">10</text>
	<text transform="matrix(1 0 0 1 230.5617 261.2555)" class="st2 st3 st4">11</text>
	<text transform="matrix(1 0 0 1 252.6242 261.2555)" class="st2 st3 st4">12</text>
	<text transform="matrix(1 0 0 1 6.5724 283.5114)" class="st2 st3 st4">1</text>
	<text transform="matrix(1 0 0 1 28.6339 283.5114)" class="st2 st3 st4">2</text>
	<text transform="matrix(1 0 0 1 51.2082 283.5114)" class="st2 st3 st4">3</text>
	<text transform="matrix(1 0 0 1 73.7228 283.5114)" class="st2 st3 st4">4</text>
	<text transform="matrix(1 0 0 1 96.3966 283.5114)" class="st2 st3 st4">5</text>
	<text transform="matrix(1 0 0 1 118.7189 283.5114)" class="st2 st3 st4">6</text>
	<text transform="matrix(1 0 0 1 141.7453 283.5114)" class="st2 st3 st4">7</text>
	<text transform="matrix(1 0 0 1 163.9357 283.5114)" class="st2 st3 st4">8</text>
	<text transform="matrix(1 0 0 1 186.4298 283.5114)" class="st2 st3 st4">9</text>
	<text transform="matrix(1 0 0 1 207.0793 283.5114)" class="st2 st3 st4">10</text>
	<text transform="matrix(1 0 0 1 230.5617 283.5114)" class="st2 st3 st4">11</text>
	<text transform="matrix(1 0 0 1 252.6242 283.5114)" class="st2 st3 st4">12</text>
	<text transform="matrix(1 0 0 1 6.5724 306.3981)" class="st2 st3 st4">1</text>
	<text transform="matrix(1 0 0 1 28.6339 306.3981)" class="st2 st3 st4">2</text>
	<text transform="matrix(1 0 0 1 51.2082 306.3981)" class="st2 st3 st4">3</text>
	<text transform="matrix(1 0 0 1 73.7228 306.3981)" class="st2 st3 st4">4</text>
	<text transform="matrix(1 0 0 1 96.3966 306.3981)" class="st2 st3 st4">5</text>
	<text transform="matrix(1 0 0 1 118.7189 306.3981)" class="st2 st3 st4">6</text>
	<text transform="matrix(1 0 0 1 141.7453 306.3981)" class="st2 st3 st4">7</text>
	<text transform="matrix(1 0 0 1 163.9357 306.3981)" class="st2 st3 st4">8</text>
	<text transform="matrix(1 0 0 1 186.4298 306.3981)" class="st2 st3 st4">9</text>
	<text transform="matrix(1 0 0 1 207.0793 306.3981)" class="st2 st3 st4">10</text>
	<text transform="matrix(1 0 0 1 230.5617 306.3981)" class="st2 st3 st4">11</text>
	<text transform="matrix(1 0 0 1 252.6242 306.3981)" class="st2 st3 st4">12</text>
	<text transform="matrix(1 0 0 1 6.5724 328.1627)" class="st2 st3 st4">1</text>
	<text transform="matrix(1 0 0 1 28.6339 328.1627)" class="st2 st3 st4">2</text>
	<text transform="matrix(1 0 0 1 51.2082 328.1627)" class="st2 st3 st4">3</text>
	<text transform="matrix(1 0 0 1 73.7228 328.1627)" class="st2 st3 st4">4</text>
	<text transform="matrix(1 0 0 1 96.3966 328.1627)" class="st2 st3 st4">5</text>
	<text transform="matrix(1 0 0 1 118.7189 328.1627)" class="st2 st3 st4">6</text>
	<text transform="matrix(1 0 0 1 141.7453 328.1627)" class="st2 st3 st4">7</text>
	<text transform="matrix(1 0 0 1 163.9357 328.1627)" class="st2 st3 st4">8</text>
	<text transform="matrix(1 0 0 1 186.4298 328.1627)" class="st2 st3 st4">9</text>
	<text transform="matrix(1 0 0 1 207.0793 328.1627)" class="st2 st3 st4">10</text>
	<text transform="matrix(1 0 0 1 230.5617 328.1627)" class="st2 st3 st4">11</text>
	<text transform="matrix(1 0 0 1 252.6242 328.1627)" class="st2 st3 st4">12</text>
	<text transform="matrix(1 0 0 1 6.5724 350.5162)" class="st2 st3 st4">1</text>
	<text transform="matrix(1 0 0 1 28.6339 350.5162)" class="st2 st3 st4">2</text>
	<text transform="matrix(1 0 0 1 51.2082 350.5162)" class="st2 st3 st4">3</text>
	<text transform="matrix(1 0 0 1 73.7228 350.5162)" class="st2 st3 st4">4</text>
	<text transform="matrix(1 0 0 1 96.3966 350.5162)" class="st2 st3 st4">5</text>
	<text transform="matrix(1 0 0 1 118.7189 350.5162)" class="st2 st3 st4">6</text>
	<text transform="matrix(1 0 0 1 141.7453 350.5162)" class="st2 st3 st4">7</text>
	<text transform="matrix(1 0 0 1 163.9357 350.5162)" class="st2 st3 st4">8</text>
	<text transform="matrix(1 0 0 1 186.4298 350.5162)" class="st2 st3 st4">9</text>
	<text transform="matrix(1 0 0 1 207.0793 350.5162)" class="st2 st3 st4">10</text>
	<text transform="matrix(1 0 0 1 230.5617 350.5162)" class="st2 st3 st4">11</text>
	<text transform="matrix(1 0 0 1 252.6242 350.5162)" class="st2 st3 st4">12</text>
	<text transform="matrix(1 0 0 1 6.5724 373.1471)" class="st2 st3 st4">1</text>
	<text transform="matrix(1 0 0 1 28.6339 373.1471)" class="st2 st3 st4">2</text>
	<text transform="matrix(1 0 0 1 51.2082 373.1471)" class="st2 st3 st4">3</text>
	<text transform="matrix(1 0 0 1 73.7228 373.1471)" class="st2 st3 st4">4</text>
	<text transform="matrix(1 0 0 1 96.3966 373.1471)" class="st2 st3 st4">5</text>
	<text transform="matrix(1 0 0 1 118.7189 373.1471)" class="st2 st3 st4">6</text>
	<text transform="matrix(1 0 0 1 141.7453 373.1471)" class="st2 st3 st4">7</text>
	<text transform="matrix(1 0 0 1 163.9357 373.1471)" class="st2 st3 st4">8</text>
	<text transform="matrix(1 0 0 1 186.4298 373.1471)" class="st2 st3 st4">9</text>
	<text transform="matrix(1 0 0 1 207.0793 373.1471)" class="st2 st3 st4">10</text>
	<text transform="matrix(1 0 0 1 230.5617 373.1471)" class="st2 st3 st4">11</text>
	<text transform="matrix(1 0 0 1 252.6242 373.1471)" class="st2 st3 st4">12</text>
	<text transform="matrix(1 0 0 1 6.5724 396.3053)" class="st2 st3 st4">1</text>
	<text transform="matrix(1 0 0 1 28.6339 396.3053)" class="st2 st3 st4">2</text>
	<text transform="matrix(1 0 0 1 51.2082 396.3053)" class="st2 st3 st4">3</text>
	<text transform="matrix(1 0 0 1 73.7228 396.3053)" class="st2 st3 st4">4</text>
	<text transform="matrix(1 0 0 1 96.3966 396.3053)" class="st2 st3 st4">5</text>
	<text transform="matrix(1 0 0 1 118.7189 396.3053)" class="st2 st3 st4">6</text>
	<text transform="matrix(1 0 0 1 141.7453 396.3053)" class="st2 st3 st4">7</text>
	<text transform="matrix(1 0 0 1 163.9357 396.3053)" class="st2 st3 st4">8</text>
	<text transform="matrix(1 0 0 1 186.4298 396.3053)" class="st2 st3 st4">9</text>
	<text transform="matrix(1 0 0 1 207.0793 396.3053)" class="st2 st3 st4">10</text>
	<text transform="matrix(1 0 0 1 230.5617 396.3053)" class="st2 st3 st4">11</text>
	<text transform="matrix(1 0 0 1 252.6242 396.3053)" class="st2 st3 st4">12</text>
	<text transform="matrix(1 0 0 1 6.5724 418.3727)" class="st2 st3 st4">1</text>
	<text transform="matrix(1 0 0 1 28.6339 418.3727)" class="st2 st3 st4">2</text>
	<text transform="matrix(1 0 0 1 51.2082 418.3727)" class="st2 st3 st4">3</text>
	<text transform="matrix(1 0 0 1 73.7228 418.3727)" class="st2 st3 st4">4</text>
	<text transform="matrix(1 0 0 1 96.3966 418.3727)" class="st2 st3 st4">5</text>
	<text transform="matrix(1 0 0 1 118.7189 418.3727)" class="st2 st3 st4">6</text>
	<text transform="matrix(1 0 0 1 141.7453 418.3727)" class="st2 st3 st4">7</text>
	<text transform="matrix(1 0 0 1 163.9357 418.3727)" class="st2 st3 st4">8</text>
	<text transform="matrix(1 0 0 1 186.4298 418.3727)" class="st2 st3 st4">9</text>
	<text transform="matrix(1 0 0 1 207.0793 418.3727)" class="st2 st3 st4">10</text>
	<text transform="matrix(1 0 0 1 230.5617 418.3727)" class="st2 st3 st4">11</text>
	<text transform="matrix(1 0 0 1 252.6242 418.3727)" class="st2 st3 st4">12</text>
	<text transform="matrix(1 0 0 1 7.3127 441.8268)" class="st2 st3 st4">1</text>
	<text transform="matrix(1 0 0 1 29.3742 441.8268)" class="st2 st3 st4">2</text>
	<text transform="matrix(1 0 0 1 51.9484 441.8268)" class="st2 st3 st4">3</text>
	<text transform="matrix(1 0 0 1 74.4631 441.8268)" class="st2 st3 st4">4</text>
	<text transform="matrix(1 0 0 1 97.1369 441.8268)" class="st2 st3 st4">5</text>
	<text transform="matrix(1 0 0 1 119.4591 441.8268)" class="st2 st3 st4">6</text>
	<text transform="matrix(1 0 0 1 142.4855 441.8268)" class="st2 st3 st4">7</text>
	<text transform="matrix(1 0 0 1 164.6759 441.8268)" class="st2 st3 st4">8</text>
	<text transform="matrix(1 0 0 1 187.1701 441.8268)" class="st2 st3 st4">9</text>
	<text transform="matrix(1 0 0 1 207.8195 441.8268)" class="st2 st3 st4">10</text>
	<text transform="matrix(1 0 0 1 231.3019 441.8268)" class="st2 st3 st4">11</text>
	<text transform="matrix(1 0 0 1 253.3644 441.8268)" class="st2 st3 st4">12</text>
	<text transform="matrix(1 0 0 1 275.9377 441.8268)" class="st2 st3 st4">13</text>
	<text transform="matrix(1 0 0 1 298.4513 441.8268)" class="st2 st3 st4">14</text>
	<text transform="matrix(1 0 0 1 321.1261 441.8268)" class="st2 st3 st4">15</text>
	<text transform="matrix(1 0 0 1 7.3127 464.4742)" class="st2 st3 st4">1</text>
	<text transform="matrix(1 0 0 1 29.3742 464.4742)" class="st2 st3 st4">2</text>
	<text transform="matrix(1 0 0 1 51.9484 464.4742)" class="st2 st3 st4">3</text>
	<text transform="matrix(1 0 0 1 74.4631 464.4742)" class="st2 st3 st4">4</text>
	<text transform="matrix(1 0 0 1 97.1369 464.4742)" class="st2 st3 st4">5</text>
	<text transform="matrix(1 0 0 1 119.4591 464.4742)" class="st2 st3 st4">6</text>
	<text transform="matrix(1 0 0 1 142.4855 464.4742)" class="st2 st3 st4">7</text>
	<text transform="matrix(1 0 0 1 164.6759 464.4742)" class="st2 st3 st4">8</text>
	<text transform="matrix(1 0 0 1 187.1701 464.4742)" class="st2 st3 st4">9</text>
	<text transform="matrix(1 0 0 1 207.8195 464.4742)" class="st2 st3 st4">10</text>
	<text transform="matrix(1 0 0 1 231.3019 464.4742)" class="st2 st3 st4">11</text>
	<text transform="matrix(1 0 0 1 253.3644 464.4742)" class="st2 st3 st4">12</text>
	<text transform="matrix(1 0 0 1 275.9377 464.4742)" class="st2 st3 st4">13</text>
	<text transform="matrix(1 0 0 1 298.4513 464.4742)" class="st2 st3 st4">14</text>
	<text transform="matrix(1 0 0 1 321.1261 464.4742)" class="st2 st3 st4">15</text>
	<text transform="matrix(1 0 0 1 7.3127 486.7301)" class="st2 st3 st4">1</text>
	<text transform="matrix(1 0 0 1 29.3742 486.7301)" class="st2 st3 st4">2</text>
	<text transform="matrix(1 0 0 1 51.9484 486.7301)" class="st2 st3 st4">3</text>
	<text transform="matrix(1 0 0 1 74.4631 486.7301)" class="st2 st3 st4">4</text>
	<text transform="matrix(1 0 0 1 97.1369 486.7301)" class="st2 st3 st4">5</text>
	<text transform="matrix(1 0 0 1 119.4591 486.7301)" class="st2 st3 st4">6</text>
	<text transform="matrix(1 0 0 1 142.4855 486.7301)" class="st2 st3 st4">7</text>
	<text transform="matrix(1 0 0 1 164.6759 486.7301)" class="st2 st3 st4">8</text>
	<text transform="matrix(1 0 0 1 187.1701 486.7301)" class="st2 st3 st4">9</text>
	<text transform="matrix(1 0 0 1 207.8195 486.7301)" class="st2 st3 st4">10</text>
	<text transform="matrix(1 0 0 1 231.3019 486.7301)" class="st2 st3 st4">11</text>
	<text transform="matrix(1 0 0 1 253.3644 486.7301)" class="st2 st3 st4">12</text>
	<text transform="matrix(1 0 0 1 275.9377 486.7301)" class="st2 st3 st4">13</text>
	<text transform="matrix(1 0 0 1 298.4513 486.7301)" class="st2 st3 st4">14</text>
	<text transform="matrix(1 0 0 1 321.1261 486.7301)" class="st2 st3 st4">15</text>
	<text transform="matrix(1 0 0 1 7.3127 509.6168)" class="st2 st3 st4">1</text>
	<text transform="matrix(1 0 0 1 29.3742 509.6168)" class="st2 st3 st4">2</text>
	<text transform="matrix(1 0 0 1 51.9484 509.6168)" class="st2 st3 st4">3</text>
	<text transform="matrix(1 0 0 1 74.4631 509.6168)" class="st2 st3 st4">4</text>
	<text transform="matrix(1 0 0 1 97.1369 509.6168)" class="st2 st3 st4">5</text>
	<text transform="matrix(1 0 0 1 119.4591 509.6168)" class="st2 st3 st4">6</text>
	<text transform="matrix(1 0 0 1 142.4855 509.6168)" class="st2 st3 st4">7</text>
	<text transform="matrix(1 0 0 1 164.6759 509.6168)" class="st2 st3 st4">8</text>
	<text transform="matrix(1 0 0 1 187.1701 509.6168)" class="st2 st3 st4">9</text>
	<text transform="matrix(1 0 0 1 207.8195 509.6168)" class="st2 st3 st4">10</text>
	<text transform="matrix(1 0 0 1 231.3019 509.6168)" class="st2 st3 st4">11</text>
	<text transform="matrix(1 0 0 1 253.3644 509.6168)" class="st2 st3 st4">12</text>
	<text transform="matrix(1 0 0 1 275.9377 509.6168)" class="st2 st3 st4">13</text>
	<text transform="matrix(1 0 0 1 298.4513 509.6168)" class="st2 st3 st4">14</text>
	<text transform="matrix(1 0 0 1 321.1261 509.6168)" class="st2 st3 st4">15</text>
	<text transform="matrix(1 0 0 1 7.3127 531.3815)" class="st2 st3 st4">1</text>
	<text transform="matrix(1 0 0 1 29.3742 531.3815)" class="st2 st3 st4">2</text>
	<text transform="matrix(1 0 0 1 51.9484 531.3815)" class="st2 st3 st4">3</text>
	<text transform="matrix(1 0 0 1 74.4631 531.3815)" class="st2 st3 st4">4</text>
	<text transform="matrix(1 0 0 1 97.1369 531.3815)" class="st2 st3 st4">5</text>
	<text transform="matrix(1 0 0 1 119.4591 531.3815)" class="st2 st3 st4">6</text>
	<text transform="matrix(1 0 0 1 142.4855 531.3815)" class="st2 st3 st4">7</text>
	<text transform="matrix(1 0 0 1 164.6759 531.3815)" class="st2 st3 st4">8</text>
	<text transform="matrix(1 0 0 1 187.1701 531.3815)" class="st2 st3 st4">9</text>
	<text transform="matrix(1 0 0 1 207.8195 531.3815)" class="st2 st3 st4">10</text>
	<text transform="matrix(1 0 0 1 231.3019 531.3815)" class="st2 st3 st4">11</text>
	<text transform="matrix(1 0 0 1 253.3644 531.3815)" class="st2 st3 st4">12</text>
	<text transform="matrix(1 0 0 1 275.9377 531.3815)" class="st2 st3 st4">13</text>
	<text transform="matrix(1 0 0 1 298.4513 531.3815)" class="st2 st3 st4">14</text>
	<text transform="matrix(1 0 0 1 321.1261 531.3815)" class="st2 st3 st4">15</text>
	<text transform="matrix(1 0 0 1 7.3127 553.735)" class="st2 st3 st4">1</text>
	<text transform="matrix(1 0 0 1 29.3742 553.735)" class="st2 st3 st4">2</text>
	<text transform="matrix(1 0 0 1 51.9484 553.735)" class="st2 st3 st4">3</text>
	<text transform="matrix(1 0 0 1 74.4631 553.735)" class="st2 st3 st4">4</text>
	<text transform="matrix(1 0 0 1 97.1369 553.735)" class="st2 st3 st4">5</text>
	<text transform="matrix(1 0 0 1 119.4591 553.735)" class="st2 st3 st4">6</text>
	<text transform="matrix(1 0 0 1 142.4855 553.735)" class="st2 st3 st4">7</text>
	<text transform="matrix(1 0 0 1 164.6759 553.735)" class="st2 st3 st4">8</text>
	<text transform="matrix(1 0 0 1 187.1701 553.735)" class="st2 st3 st4">9</text>
	<text transform="matrix(1 0 0 1 207.8195 553.735)" class="st2 st3 st4">10</text>
	<text transform="matrix(1 0 0 1 231.3019 553.735)" class="st2 st3 st4">11</text>
	<text transform="matrix(1 0 0 1 253.3644 553.735)" class="st2 st3 st4">12</text>
	<text transform="matrix(1 0 0 1 275.9377 553.735)" class="st2 st3 st4">13</text>
	<text transform="matrix(1 0 0 1 298.4513 553.735)" class="st2 st3 st4">14</text>
	<text transform="matrix(1 0 0 1 321.1261 553.735)" class="st2 st3 st4">15</text>
	<text transform="matrix(1 0 0 1 7.3127 576.3658)" class="st2 st3 st4">1</text>
	<text transform="matrix(1 0 0 1 29.3742 576.3658)" class="st2 st3 st4">2</text>
	<text transform="matrix(1 0 0 1 51.9484 576.3658)" class="st2 st3 st4">3</text>
	<text transform="matrix(1 0 0 1 74.4631 576.3658)" class="st2 st3 st4">4</text>
	<text transform="matrix(1 0 0 1 97.1369 576.3658)" class="st2 st3 st4">5</text>
	<text transform="matrix(1 0 0 1 119.4591 576.3658)" class="st2 st3 st4">6</text>
	<text transform="matrix(1 0 0 1 142.4855 576.3658)" class="st2 st3 st4">7</text>
	<text transform="matrix(1 0 0 1 164.6759 576.3658)" class="st2 st3 st4">8</text>
	<text transform="matrix(1 0 0 1 187.1701 576.3658)" class="st2 st3 st4">9</text>
	<text transform="matrix(1 0 0 1 207.8195 576.3658)" class="st2 st3 st4">10</text>
	<text transform="matrix(1 0 0 1 231.3019 576.3658)" class="st2 st3 st4">11</text>
	<text transform="matrix(1 0 0 1 253.3644 576.3658)" class="st2 st3 st4">12</text>
	<text transform="matrix(1 0 0 1 275.9377 576.3658)" class="st2 st3 st4">13</text>
	<text transform="matrix(1 0 0 1 298.4513 576.3658)" class="st2 st3 st4">14</text>
	<text transform="matrix(1 0 0 1 321.1261 576.3658)" class="st2 st3 st4">15</text>
	<text transform="matrix(1 0 0 1 7.3127 599.524)" class="st2 st3 st4">1</text>
	<text transform="matrix(1 0 0 1 29.3742 599.524)" class="st2 st3 st4">2</text>
	<text transform="matrix(1 0 0 1 51.9484 599.524)" class="st2 st3 st4">3</text>
	<text transform="matrix(1 0 0 1 74.4631 599.524)" class="st2 st3 st4">4</text>
	<text transform="matrix(1 0 0 1 97.1369 599.524)" class="st2 st3 st4">5</text>
	<text transform="matrix(1 0 0 1 119.4591 599.524)" class="st2 st3 st4">6</text>
	<text transform="matrix(1 0 0 1 142.4855 599.524)" class="st2 st3 st4">7</text>
	<text transform="matrix(1 0 0 1 164.6759 599.524)" class="st2 st3 st4">8</text>
	<text transform="matrix(1 0 0 1 187.1701 599.524)" class="st2 st3 st4">9</text>
	<text transform="matrix(1 0 0 1 207.8195 599.524)" class="st2 st3 st4">10</text>
	<text transform="matrix(1 0 0 1 231.3019 599.524)" class="st2 st3 st4">11</text>
	<text transform="matrix(1 0 0 1 253.3644 599.524)" class="st2 st3 st4">12</text>
	<text transform="matrix(1 0 0 1 275.9377 599.524)" class="st2 st3 st4">13</text>
	<text transform="matrix(1 0 0 1 298.4513 599.524)" class="st2 st3 st4">14</text>
	<text transform="matrix(1 0 0 1 321.1261 599.524)" class="st2 st3 st4">15</text>
	<text transform="matrix(1 0 0 1 7.3127 621.6959)" class="st2 st3 st4">1</text>
	<text transform="matrix(1 0 0 1 29.3742 621.6959)" class="st2 st3 st4">2</text>
	<text transform="matrix(1 0 0 1 51.9484 621.6959)" class="st2 st3 st4">3</text>
	<text transform="matrix(1 0 0 1 74.4631 621.6959)" class="st2 st3 st4">4</text>
	<text transform="matrix(1 0 0 1 97.1369 621.6959)" class="st2 st3 st4">5</text>
	<text transform="matrix(1 0 0 1 119.4591 621.6959)" class="st2 st3 st4">6</text>
	<text transform="matrix(1 0 0 1 142.4855 621.6959)" class="st2 st3 st4">7</text>
	<text transform="matrix(1 0 0 1 164.6759 621.6959)" class="st2 st3 st4">8</text>
	<text transform="matrix(1 0 0 1 187.1701 621.6959)" class="st2 st3 st4">9</text>
	<text transform="matrix(1 0 0 1 207.8195 621.6959)" class="st2 st3 st4">10</text>
	<text transform="matrix(1 0 0 1 231.3019 621.6959)" class="st2 st3 st4">11</text>
	<text transform="matrix(1 0 0 1 253.3644 621.6959)" class="st2 st3 st4">12</text>
	<text transform="matrix(1 0 0 1 275.9377 621.6959)" class="st2 st3 st4">13</text>
	<text transform="matrix(1 0 0 1 298.4513 621.6959)" class="st2 st3 st4">14</text>
	<text transform="matrix(1 0 0 1 321.1261 621.6959)" class="st2 st3 st4">15</text>
</g>
<g>
	<text transform="matrix(1 0 0 1 415.9541 56.5084)" class="st5 st6 st7">29</text>
	<text transform="matrix(1 0 0 1 415.9541 12.1373)" class="st5 st6 st7">30</text>
	<text transform="matrix(1 0 0 1 415.9541 102.0045)" class="st5 st6 st7">27</text>
	<text transform="matrix(1 0 0 1 415.9541 79.4342)" class="st5 st6 st7">28</text>
	<text transform="matrix(1 0 0 1 415.9541 147.1471)" class="st5 st6 st7">25</text>
	<text transform="matrix(1 0 0 1 415.794 327.7467)" class="st5 st6 st7">17</text>
	<text transform="matrix(1 0 0 1 415.794 350.2985)" class="st5 st6 st7">16</text>
	<text transform="matrix(1 0 0 1 415.9541 372.9342)" class="st5 st6 st7">15</text>
	<text transform="matrix(1 0 0 1 415.9541 395.486)" class="st5 st6 st7">14</text>
	<text transform="matrix(1 0 0 1 415.7666 418.1188)" class="st5 st6 st7">13</text>
	<text transform="matrix(1 0 0 1 415.794 440.6715)" class="st5 st6 st7">12</text>
	<text transform="matrix(1 0 0 1 416.1299 621.3688)" class="st5 st6 st7">4</text>
	<text transform="matrix(1 0 0 1 415.9541 124.5768)" class="st5 st6 st7">26</text>
	<text transform="matrix(1 0 0 1 415.9541 169.6012)" class="st5 st6 st7">24</text>
	<text transform="matrix(1 0 0 1 415.9541 214.7887)" class="st5 st6 st7">22</text>
	<text transform="matrix(1 0 0 1 415.9541 192.2184)" class="st5 st6 st7">23</text>
	<text transform="matrix(1 0 0 1 415.9541 259.9332)" class="st5 st6 st7">20</text>
	<text transform="matrix(1 0 0 1 415.9541 237.3629)" class="st5 st6 st7">21</text>
	<text transform="matrix(1 0 0 1 415.7666 305.0758)" class="st5 st6 st7">18</text>
	<text transform="matrix(1 0 0 1 415.794 282.5055)" class="st5 st6 st7">19</text>
	<text transform="matrix(1 0 0 1 415.794 463.2252)" class="st5 st6 st7">11</text>
	<text transform="matrix(1 0 0 1 415.794 508.4127)" class="st5 st6 st7">9</text>
	<text transform="matrix(1 0 0 1 415.794 485.8424)" class="st5 st6 st7">10</text>
	<text transform="matrix(1 0 0 1 416.4014 553.5582)" class="st5 st6 st7">7</text>
	<text transform="matrix(1 0 0 1 415.7666 530.9879)" class="st5 st6 st7">8</text>
	<text transform="matrix(1 0 0 1 415.794 576.1305)" class="st5 st6 st7">6</text>
	<text transform="matrix(1 0 0 1 416.4014 598.7135)" class="st5 st6 st7">5</text>
</g>
</svg>
