<?xml version="1.0" encoding="utf-8"?>
<!-- Generator: Adobe Illustrator 20.1.0, SVG Export Plug-In . SVG Version: 6.00 Build 0)  -->
<svg version="1.1" id="Layer_1" xmlns="http://www.w3.org/2000/svg" xmlns:xlink="http://www.w3.org/1999/xlink" x="0px" y="0px"
	 viewBox="0 0 426.1 627.3" style="enable-background:new 0 0 426.1 627.3;" xml:space="preserve">
<style type="text/css">
	.st0{fill:#D9F6E1;}
	.st1{fill:#FFFFFF;}
	.st2{fill:#737373;}
	.st3{font-family:'OsnovaPro';}
	.st4{font-size:8px;}
	.st5{fill:#7B878F;}
	.st6{font-family:'OsnovaProLight';}
	.st7{font-size:9px;}
</style>
<path class="st0" d="M143.8,16.6L143.8,16.6c-4.6,0-8.3-3.7-8.3-8.3v0c0-4.6,3.7-8.3,8.3-8.3h0c4.6,0,8.3,3.7,8.3,8.3v0
	C152,12.8,148.3,16.6,143.8,16.6z"/>
<path class="st0" d="M166.3,16.6L166.3,16.6c-4.6,0-8.3-3.7-8.3-8.3v0c0-4.6,3.7-8.3,8.3-8.3h0c4.6,0,8.3,3.7,8.3,8.3v0
	C174.6,12.8,170.9,16.6,166.3,16.6z"/>
<path class="st0" d="M188.9,16.6L188.9,16.6c-4.6,0-8.3-3.7-8.3-8.3v0c0-4.6,3.7-8.3,8.3-8.3h0c4.6,0,8.3,3.7,8.3,8.3v0
	C197.2,12.8,193.5,16.6,188.9,16.6z"/>
<path class="st0" d="M211.5,16.6L211.5,16.6c-4.6,0-8.3-3.7-8.3-8.3v0c0-4.6,3.7-8.3,8.3-8.3h0c4.6,0,8.3,3.7,8.3,8.3v0
	C219.8,12.8,216,16.6,211.5,16.6z"/>
<path class="st0" d="M234,16.6L234,16.6c-4.6,0-8.3-3.7-8.3-8.3v0c0-4.6,3.7-8.3,8.3-8.3h0c4.6,0,8.3,3.7,8.3,8.3v0
	C242.3,12.8,238.6,16.6,234,16.6z"/>
<path class="st0" d="M256.6,16.6L256.6,16.6c-4.6,0-8.3-3.7-8.3-8.3v0c0-4.6,3.7-8.3,8.3-8.3h0c4.6,0,8.3,3.7,8.3,8.3v0
	C264.9,12.8,261.2,16.6,256.6,16.6z"/>
<path class="st0" d="M279.2,16.6L279.2,16.6c-4.6,0-8.3-3.7-8.3-8.3v0c0-4.6,3.7-8.3,8.3-8.3h0c4.6,0,8.3,3.7,8.3,8.3v0
	C287.5,12.8,283.7,16.6,279.2,16.6z"/>
<path class="st0" d="M301.7,16.6L301.7,16.6c-4.6,0-8.3-3.7-8.3-8.3v0c0-4.6,3.7-8.3,8.3-8.3l0,0c4.6,0,8.3,3.7,8.3,8.3v0
	C310,12.8,306.3,16.6,301.7,16.6z"/>
<path class="st0" d="M324.3,16.6L324.3,16.6c-4.6,0-8.3-3.7-8.3-8.3v0c0-4.6,3.7-8.3,8.3-8.3l0,0c4.6,0,8.3,3.7,8.3,8.3v0
	C332.6,12.8,328.9,16.6,324.3,16.6z"/>
<path class="st0" d="M346.9,16.6L346.9,16.6c-4.6,0-8.3-3.7-8.3-8.3v0c0-4.6,3.7-8.3,8.3-8.3l0,0c4.6,0,8.3,3.7,8.3,8.3v0
	C355.2,12.8,351.4,16.6,346.9,16.6z"/>
<path class="st1" d="M8.3,107.9L8.3,107.9c-4.6,0-8.3-3.7-8.3-8.3v0c0-4.6,3.7-8.3,8.3-8.3h0c4.6,0,8.3,3.7,8.3,8.3v0
	C16.6,104.2,12.8,107.9,8.3,107.9z"/>
<path class="st1" d="M30.9,107.9L30.9,107.9c-4.6,0-8.3-3.7-8.3-8.3v0c0-4.6,3.7-8.3,8.3-8.3h0c4.6,0,8.3,3.7,8.3,8.3v0
	C39.1,104.2,35.4,107.9,30.9,107.9z"/>
<path class="st1" d="M53.4,107.9L53.4,107.9c-4.6,0-8.3-3.7-8.3-8.3v0c0-4.6,3.7-8.3,8.3-8.3h0c4.6,0,8.3,3.7,8.3,8.3v0
	C61.7,104.2,58,107.9,53.4,107.9z"/>
<path class="st1" d="M76,107.9L76,107.9c-4.6,0-8.3-3.7-8.3-8.3v0c0-4.6,3.7-8.3,8.3-8.3h0c4.6,0,8.3,3.7,8.3,8.3v0
	C84.3,104.2,80.6,107.9,76,107.9z"/>
<path class="st1" d="M98.6,107.9L98.6,107.9c-4.6,0-8.3-3.7-8.3-8.3v0c0-4.6,3.7-8.3,8.3-8.3h0c4.6,0,8.3,3.7,8.3,8.3v0
	C106.9,104.2,103.1,107.9,98.6,107.9z"/>
<path class="st1" d="M121.1,107.9L121.1,107.9c-4.6,0-8.3-3.7-8.3-8.3v0c0-4.6,3.7-8.3,8.3-8.3h0c4.6,0,8.3,3.7,8.3,8.3v0
	C129.4,104.2,125.7,107.9,121.1,107.9z"/>
<path class="st1" d="M143.7,107.9L143.7,107.9c-4.6,0-8.3-3.7-8.3-8.3v0c0-4.6,3.7-8.3,8.3-8.3h0c4.6,0,8.3,3.7,8.3,8.3v0
	C152,104.2,148.3,107.9,143.7,107.9z"/>
<path class="st1" d="M166.3,107.9L166.3,107.9c-4.6,0-8.3-3.7-8.3-8.3v0c0-4.6,3.7-8.3,8.3-8.3h0c4.6,0,8.3,3.7,8.3,8.3v0
	C174.6,104.2,170.8,107.9,166.3,107.9z"/>
<path class="st1" d="M188.8,107.9L188.8,107.9c-4.6,0-8.3-3.7-8.3-8.3v0c0-4.6,3.7-8.3,8.3-8.3h0c4.6,0,8.3,3.7,8.3,8.3v0
	C197.1,104.2,193.4,107.9,188.8,107.9z"/>
<path class="st1" d="M211.4,107.9L211.4,107.9c-4.6,0-8.3-3.7-8.3-8.3v0c0-4.6,3.7-8.3,8.3-8.3h0c4.6,0,8.3,3.7,8.3,8.3v0
	C219.7,104.2,216,107.9,211.4,107.9z"/>
<path class="st1" d="M234,107.9L234,107.9c-4.6,0-8.3-3.7-8.3-8.3v0c0-4.6,3.7-8.3,8.3-8.3h0c4.6,0,8.3,3.7,8.3,8.3v0
	C242.3,104.2,238.5,107.9,234,107.9z"/>
<path class="st1" d="M256.6,107.9L256.6,107.9c-4.6,0-8.3-3.7-8.3-8.3v0c0-4.6,3.7-8.3,8.3-8.3h0c4.6,0,8.3,3.7,8.3,8.3v0
	C264.8,104.2,261.1,107.9,256.6,107.9z"/>
<path class="st1" d="M279.1,107.9L279.1,107.9c-4.6,0-8.3-3.7-8.3-8.3v0c0-4.6,3.7-8.3,8.3-8.3h0c4.6,0,8.3,3.7,8.3,8.3v0
	C287.4,104.2,283.7,107.9,279.1,107.9z"/>
<path class="st1" d="M301.7,107.9L301.7,107.9c-4.6,0-8.3-3.7-8.3-8.3v0c0-4.6,3.7-8.3,8.3-8.3l0,0c4.6,0,8.3,3.7,8.3,8.3v0
	C310,104.2,306.3,107.9,301.7,107.9z"/>
<path class="st1" d="M324.3,107.9L324.3,107.9c-4.6,0-8.3-3.7-8.3-8.3v0c0-4.6,3.7-8.3,8.3-8.3l0,0c4.6,0,8.3,3.7,8.3,8.3v0
	C332.6,104.2,328.8,107.9,324.3,107.9z"/>
<path class="st1" d="M346.8,107.9L346.8,107.9c-4.6,0-8.3-3.7-8.3-8.3v0c0-4.6,3.7-8.3,8.3-8.3h0c4.6,0,8.3,3.7,8.3,8.3v0
	C355.1,104.2,351.4,107.9,346.8,107.9z"/>
<path class="st1" d="M8.3,85.3L8.3,85.3C3.7,85.3,0,81.6,0,77v0c0-4.6,3.7-8.3,8.3-8.3h0c4.6,0,8.3,3.7,8.3,8.3v0
	C16.6,81.6,12.8,85.3,8.3,85.3z"/>
<path class="st1" d="M30.9,85.3L30.9,85.3c-4.6,0-8.3-3.7-8.3-8.3v0c0-4.6,3.7-8.3,8.3-8.3h0c4.6,0,8.3,3.7,8.3,8.3v0
	C39.1,81.6,35.4,85.3,30.9,85.3z"/>
<path class="st1" d="M53.4,85.3L53.4,85.3c-4.6,0-8.3-3.7-8.3-8.3v0c0-4.6,3.7-8.3,8.3-8.3h0c4.6,0,8.3,3.7,8.3,8.3v0
	C61.7,81.6,58,85.3,53.4,85.3z"/>
<path class="st1" d="M76,85.3L76,85.3c-4.6,0-8.3-3.7-8.3-8.3v0c0-4.6,3.7-8.3,8.3-8.3h0c4.6,0,8.3,3.7,8.3,8.3v0
	C84.3,81.6,80.6,85.3,76,85.3z"/>
<path class="st1" d="M98.6,85.3L98.6,85.3c-4.6,0-8.3-3.7-8.3-8.3v0c0-4.6,3.7-8.3,8.3-8.3h0c4.6,0,8.3,3.7,8.3,8.3v0
	C106.9,81.6,103.1,85.3,98.6,85.3z"/>
<path class="st1" d="M121.1,85.3L121.1,85.3c-4.6,0-8.3-3.7-8.3-8.3v0c0-4.6,3.7-8.3,8.3-8.3h0c4.6,0,8.3,3.7,8.3,8.3v0
	C129.4,81.6,125.7,85.3,121.1,85.3z"/>
<path class="st1" d="M143.7,85.3L143.7,85.3c-4.6,0-8.3-3.7-8.3-8.3v0c0-4.6,3.7-8.3,8.3-8.3h0c4.6,0,8.3,3.7,8.3,8.3v0
	C152,81.6,148.3,85.3,143.7,85.3z"/>
<path class="st1" d="M166.3,85.3L166.3,85.3c-4.6,0-8.3-3.7-8.3-8.3v0c0-4.6,3.7-8.3,8.3-8.3h0c4.6,0,8.3,3.7,8.3,8.3v0
	C174.6,81.6,170.8,85.3,166.3,85.3z"/>
<path class="st1" d="M188.8,85.3L188.8,85.3c-4.6,0-8.3-3.7-8.3-8.3v0c0-4.6,3.7-8.3,8.3-8.3h0c4.6,0,8.3,3.7,8.3,8.3v0
	C197.1,81.6,193.4,85.3,188.8,85.3z"/>
<path class="st1" d="M211.4,85.3L211.4,85.3c-4.6,0-8.3-3.7-8.3-8.3v0c0-4.6,3.7-8.3,8.3-8.3h0c4.6,0,8.3,3.7,8.3,8.3v0
	C219.7,81.6,216,85.3,211.4,85.3z"/>
<path class="st1" d="M234,85.3L234,85.3c-4.6,0-8.3-3.7-8.3-8.3v0c0-4.6,3.7-8.3,8.3-8.3h0c4.6,0,8.3,3.7,8.3,8.3v0
	C242.3,81.6,238.5,85.3,234,85.3z"/>
<path class="st1" d="M256.6,85.3L256.6,85.3c-4.6,0-8.3-3.7-8.3-8.3v0c0-4.6,3.7-8.3,8.3-8.3h0c4.6,0,8.3,3.7,8.3,8.3v0
	C264.8,81.6,261.1,85.3,256.6,85.3z"/>
<path class="st1" d="M279.1,85.3L279.1,85.3c-4.6,0-8.3-3.7-8.3-8.3v0c0-4.6,3.7-8.3,8.3-8.3h0c4.6,0,8.3,3.7,8.3,8.3v0
	C287.4,81.6,283.7,85.3,279.1,85.3z"/>
<path class="st1" d="M301.7,85.3L301.7,85.3c-4.6,0-8.3-3.7-8.3-8.3v0c0-4.6,3.7-8.3,8.3-8.3l0,0c4.6,0,8.3,3.7,8.3,8.3v0
	C310,81.6,306.3,85.3,301.7,85.3z"/>
<path class="st1" d="M324.3,85.3L324.3,85.3c-4.6,0-8.3-3.7-8.3-8.3v0c0-4.6,3.7-8.3,8.3-8.3l0,0c4.6,0,8.3,3.7,8.3,8.3v0
	C332.6,81.6,328.8,85.3,324.3,85.3z"/>
<path class="st1" d="M346.8,85.3L346.8,85.3c-4.6,0-8.3-3.7-8.3-8.3v0c0-4.6,3.7-8.3,8.3-8.3h0c4.6,0,8.3,3.7,8.3,8.3v0
	C355.1,81.6,351.4,85.3,346.8,85.3z"/>
<path class="st1" d="M8.3,153L8.3,153c-4.6,0-8.3-3.7-8.3-8.3v0c0-4.6,3.7-8.3,8.3-8.3h0c4.6,0,8.3,3.7,8.3,8.3v0
	C16.6,149.3,12.9,153,8.3,153z"/>
<path class="st1" d="M30.9,153L30.9,153c-4.6,0-8.3-3.7-8.3-8.3v0c0-4.6,3.7-8.3,8.3-8.3h0c4.6,0,8.3,3.7,8.3,8.3v0
	C39.2,149.3,35.4,153,30.9,153z"/>
<path class="st1" d="M53.5,153L53.5,153c-4.6,0-8.3-3.7-8.3-8.3v0c0-4.6,3.7-8.3,8.3-8.3h0c4.6,0,8.3,3.7,8.3,8.3v0
	C61.7,149.3,58,153,53.5,153z"/>
<path class="st1" d="M76,153L76,153c-4.6,0-8.3-3.7-8.3-8.3v0c0-4.6,3.7-8.3,8.3-8.3h0c4.6,0,8.3,3.7,8.3,8.3v0
	C84.3,149.3,80.6,153,76,153z"/>
<path class="st1" d="M98.6,153L98.6,153c-4.6,0-8.3-3.7-8.3-8.3v0c0-4.6,3.7-8.3,8.3-8.3h0c4.6,0,8.3,3.7,8.3,8.3v0
	C106.9,149.3,103.1,153,98.6,153z"/>
<path class="st1" d="M121.2,153L121.2,153c-4.6,0-8.3-3.7-8.3-8.3v0c0-4.6,3.7-8.3,8.3-8.3h0c4.6,0,8.3,3.7,8.3,8.3v0
	C129.4,149.3,125.7,153,121.2,153z"/>
<path class="st1" d="M143.7,153L143.7,153c-4.6,0-8.3-3.7-8.3-8.3v0c0-4.6,3.7-8.3,8.3-8.3h0c4.6,0,8.3,3.7,8.3,8.3v0
	C152,149.3,148.3,153,143.7,153z"/>
<path class="st1" d="M166.3,153L166.3,153c-4.6,0-8.3-3.7-8.3-8.3v0c0-4.6,3.7-8.3,8.3-8.3h0c4.6,0,8.3,3.7,8.3,8.3v0
	C174.6,149.3,170.9,153,166.3,153z"/>
<path class="st1" d="M188.9,153L188.9,153c-4.6,0-8.3-3.7-8.3-8.3v0c0-4.6,3.7-8.3,8.3-8.3h0c4.6,0,8.3,3.7,8.3,8.3v0
	C197.2,149.3,193.4,153,188.9,153z"/>
<path class="st1" d="M211.4,153L211.4,153c-4.6,0-8.3-3.7-8.3-8.3v0c0-4.6,3.7-8.3,8.3-8.3h0c4.6,0,8.3,3.7,8.3,8.3v0
	C219.7,149.3,216,153,211.4,153z"/>
<path class="st1" d="M234,153L234,153c-4.6,0-8.3-3.7-8.3-8.3v0c0-4.6,3.7-8.3,8.3-8.3h0c4.6,0,8.3,3.7,8.3,8.3v0
	C242.3,149.3,238.6,153,234,153z"/>
<path class="st1" d="M256.6,153L256.6,153c-4.6,0-8.3-3.7-8.3-8.3v0c0-4.6,3.7-8.3,8.3-8.3l0,0c4.6,0,8.3,3.7,8.3,8.3v0
	C264.9,149.3,261.1,153,256.6,153z"/>
<path class="st1" d="M279.2,153L279.2,153c-4.6,0-8.3-3.7-8.3-8.3v0c0-4.6,3.7-8.3,8.3-8.3l0,0c4.6,0,8.3,3.7,8.3,8.3v0
	C287.4,149.3,283.7,153,279.2,153z"/>
<path class="st1" d="M301.7,153L301.7,153c-4.6,0-8.3-3.7-8.3-8.3v0c0-4.6,3.7-8.3,8.3-8.3h0c4.6,0,8.3,3.7,8.3,8.3v0
	C310,149.3,306.3,153,301.7,153z"/>
<path class="st1" d="M324.3,153L324.3,153c-4.6,0-8.3-3.7-8.3-8.3v0c0-4.6,3.7-8.3,8.3-8.3h0c4.6,0,8.3,3.7,8.3,8.3v0
	C332.6,149.3,328.9,153,324.3,153z"/>
<path class="st1" d="M53.6,333.6L53.6,333.6c-4.6,0-8.3-3.7-8.3-8.3v0c0-4.6,3.7-8.3,8.3-8.3h0c4.6,0,8.3,3.7,8.3,8.3v0
	C61.8,329.9,58.1,333.6,53.6,333.6z"/>
<path class="st1" d="M76.1,333.6L76.1,333.6c-4.6,0-8.3-3.7-8.3-8.3v0c0-4.6,3.7-8.3,8.3-8.3h0c4.6,0,8.3,3.7,8.3,8.3v0
	C84.4,329.9,80.7,333.6,76.1,333.6z"/>
<path class="st1" d="M98.7,333.6L98.7,333.6c-4.6,0-8.3-3.7-8.3-8.3v0c0-4.6,3.7-8.3,8.3-8.3h0c4.6,0,8.3,3.7,8.3,8.3v0
	C107,329.9,103.3,333.6,98.7,333.6z"/>
<path class="st1" d="M121.3,333.6L121.3,333.6c-4.6,0-8.3-3.7-8.3-8.3v0c0-4.6,3.7-8.3,8.3-8.3h0c4.6,0,8.3,3.7,8.3,8.3v0
	C129.6,329.9,125.8,333.6,121.3,333.6z"/>
<path class="st1" d="M143.8,333.6L143.8,333.6c-4.6,0-8.3-3.7-8.3-8.3v0c0-4.6,3.7-8.3,8.3-8.3h0c4.6,0,8.3,3.7,8.3,8.3v0
	C152.1,329.9,148.4,333.6,143.8,333.6z"/>
<path class="st1" d="M166.4,333.6L166.4,333.6c-4.6,0-8.3-3.7-8.3-8.3v0c0-4.6,3.7-8.3,8.3-8.3h0c4.6,0,8.3,3.7,8.3,8.3v0
	C174.7,329.9,171,333.6,166.4,333.6z"/>
<path class="st1" d="M189,333.6L189,333.6c-4.6,0-8.3-3.7-8.3-8.3v0c0-4.6,3.7-8.3,8.3-8.3h0c4.6,0,8.3,3.7,8.3,8.3v0
	C197.3,329.9,193.5,333.6,189,333.6z"/>
<path class="st1" d="M211.6,333.6L211.6,333.6c-4.6,0-8.3-3.7-8.3-8.3v0c0-4.6,3.7-8.3,8.3-8.3h0c4.6,0,8.3,3.7,8.3,8.3v0
	C219.8,329.9,216.1,333.6,211.6,333.6z"/>
<path class="st1" d="M234.1,333.6L234.1,333.6c-4.6,0-8.3-3.7-8.3-8.3v0c0-4.6,3.7-8.3,8.3-8.3h0c4.6,0,8.3,3.7,8.3,8.3v0
	C242.4,329.9,238.7,333.6,234.1,333.6z"/>
<path class="st1" d="M53.6,356.2L53.6,356.2c-4.6,0-8.3-3.7-8.3-8.3l0,0c0-4.6,3.7-8.3,8.3-8.3h0c4.6,0,8.3,3.7,8.3,8.3l0,0
	C61.8,352.4,58.1,356.2,53.6,356.2z"/>
<path class="st1" d="M76.1,356.2L76.1,356.2c-4.6,0-8.3-3.7-8.3-8.3l0,0c0-4.6,3.7-8.3,8.3-8.3h0c4.6,0,8.3,3.7,8.3,8.3l0,0
	C84.4,352.4,80.7,356.2,76.1,356.2z"/>
<path class="st1" d="M98.7,356.2L98.7,356.2c-4.6,0-8.3-3.7-8.3-8.3l0,0c0-4.6,3.7-8.3,8.3-8.3h0c4.6,0,8.3,3.7,8.3,8.3l0,0
	C107,352.4,103.3,356.2,98.7,356.2z"/>
<path class="st1" d="M121.3,356.2L121.3,356.2c-4.6,0-8.3-3.7-8.3-8.3l0,0c0-4.6,3.7-8.3,8.3-8.3h0c4.6,0,8.3,3.7,8.3,8.3l0,0
	C129.6,352.4,125.8,356.2,121.3,356.2z"/>
<path class="st1" d="M143.8,356.2L143.8,356.2c-4.6,0-8.3-3.7-8.3-8.3l0,0c0-4.6,3.7-8.3,8.3-8.3h0c4.6,0,8.3,3.7,8.3,8.3l0,0
	C152.1,352.4,148.4,356.2,143.8,356.2z"/>
<path class="st1" d="M166.4,356.2L166.4,356.2c-4.6,0-8.3-3.7-8.3-8.3l0,0c0-4.6,3.7-8.3,8.3-8.3h0c4.6,0,8.3,3.7,8.3,8.3l0,0
	C174.7,352.4,171,356.2,166.4,356.2z"/>
<path class="st1" d="M189,356.2L189,356.2c-4.6,0-8.3-3.7-8.3-8.3l0,0c0-4.6,3.7-8.3,8.3-8.3h0c4.6,0,8.3,3.7,8.3,8.3l0,0
	C197.3,352.4,193.5,356.2,189,356.2z"/>
<path class="st1" d="M211.6,356.2L211.6,356.2c-4.6,0-8.3-3.7-8.3-8.3l0,0c0-4.6,3.7-8.3,8.3-8.3h0c4.6,0,8.3,3.7,8.3,8.3l0,0
	C219.8,352.4,216.1,356.2,211.6,356.2z"/>
<path class="st1" d="M234.1,356.2L234.1,356.2c-4.6,0-8.3-3.7-8.3-8.3l0,0c0-4.6,3.7-8.3,8.3-8.3h0c4.6,0,8.3,3.7,8.3,8.3l0,0
	C242.4,352.4,238.7,356.2,234.1,356.2z"/>
<path class="st1" d="M234.1,378.8L234.1,378.8c-4.6,0-8.3-3.7-8.3-8.3v0c0-4.6,3.7-8.3,8.3-8.3h0c4.6,0,8.3,3.7,8.3,8.3v0
	C242.4,375.1,238.7,378.8,234.1,378.8z"/>
<path class="st1" d="M53.6,378.8L53.6,378.8c-4.6,0-8.3-3.7-8.3-8.3v0c0-4.6,3.7-8.3,8.3-8.3h0c4.6,0,8.3,3.7,8.3,8.3v0
	C61.8,375.1,58.1,378.8,53.6,378.8z"/>
<path class="st1" d="M76.1,378.8L76.1,378.8c-4.6,0-8.3-3.7-8.3-8.3v0c0-4.6,3.7-8.3,8.3-8.3h0c4.6,0,8.3,3.7,8.3,8.3v0
	C84.4,375.1,80.7,378.8,76.1,378.8z"/>
<path class="st1" d="M98.7,378.8L98.7,378.8c-4.6,0-8.3-3.7-8.3-8.3v0c0-4.6,3.7-8.3,8.3-8.3h0c4.6,0,8.3,3.7,8.3,8.3v0
	C107,375.1,103.3,378.8,98.7,378.8z"/>
<path class="st1" d="M121.3,378.8L121.3,378.8c-4.6,0-8.3-3.7-8.3-8.3v0c0-4.6,3.7-8.3,8.3-8.3h0c4.6,0,8.3,3.7,8.3,8.3v0
	C129.6,375.1,125.8,378.8,121.3,378.8z"/>
<path class="st1" d="M143.8,378.8L143.8,378.8c-4.6,0-8.3-3.7-8.3-8.3v0c0-4.6,3.7-8.3,8.3-8.3h0c4.6,0,8.3,3.7,8.3,8.3v0
	C152.1,375.1,148.4,378.8,143.8,378.8z"/>
<path class="st1" d="M166.4,378.8L166.4,378.8c-4.6,0-8.3-3.7-8.3-8.3v0c0-4.6,3.7-8.3,8.3-8.3h0c4.6,0,8.3,3.7,8.3,8.3v0
	C174.7,375.1,171,378.8,166.4,378.8z"/>
<path class="st1" d="M189,378.8L189,378.8c-4.6,0-8.3-3.7-8.3-8.3v0c0-4.6,3.7-8.3,8.3-8.3h0c4.6,0,8.3,3.7,8.3,8.3v0
	C197.3,375.1,193.5,378.8,189,378.8z"/>
<path class="st1" d="M211.6,378.8L211.6,378.8c-4.6,0-8.3-3.7-8.3-8.3v0c0-4.6,3.7-8.3,8.3-8.3h0c4.6,0,8.3,3.7,8.3,8.3v0
	C219.8,375.1,216.1,378.8,211.6,378.8z"/>
<path class="st1" d="M53.6,401.4L53.6,401.4c-4.6,0-8.3-3.7-8.3-8.3l0,0c0-4.6,3.7-8.3,8.3-8.3h0c4.6,0,8.3,3.7,8.3,8.3l0,0
	C61.8,397.6,58.1,401.4,53.6,401.4z"/>
<path class="st1" d="M76.1,401.4L76.1,401.4c-4.6,0-8.3-3.7-8.3-8.3l0,0c0-4.6,3.7-8.3,8.3-8.3h0c4.6,0,8.3,3.7,8.3,8.3l0,0
	C84.4,397.6,80.7,401.4,76.1,401.4z"/>
<path class="st1" d="M98.7,401.4L98.7,401.4c-4.6,0-8.3-3.7-8.3-8.3l0,0c0-4.6,3.7-8.3,8.3-8.3h0c4.6,0,8.3,3.7,8.3,8.3l0,0
	C107,397.6,103.3,401.4,98.7,401.4z"/>
<path class="st1" d="M121.3,401.4L121.3,401.4c-4.6,0-8.3-3.7-8.3-8.3l0,0c0-4.6,3.7-8.3,8.3-8.3h0c4.6,0,8.3,3.7,8.3,8.3l0,0
	C129.6,397.6,125.8,401.4,121.3,401.4z"/>
<path class="st1" d="M143.8,401.4L143.8,401.4c-4.6,0-8.3-3.7-8.3-8.3l0,0c0-4.6,3.7-8.3,8.3-8.3h0c4.6,0,8.3,3.7,8.3,8.3l0,0
	C152.1,397.6,148.4,401.4,143.8,401.4z"/>
<path class="st1" d="M166.4,401.4L166.4,401.4c-4.6,0-8.3-3.7-8.3-8.3l0,0c0-4.6,3.7-8.3,8.3-8.3h0c4.6,0,8.3,3.7,8.3,8.3l0,0
	C174.7,397.6,171,401.4,166.4,401.4z"/>
<path class="st1" d="M189,401.4L189,401.4c-4.6,0-8.3-3.7-8.3-8.3l0,0c0-4.6,3.7-8.3,8.3-8.3h0c4.6,0,8.3,3.7,8.3,8.3l0,0
	C197.3,397.6,193.5,401.4,189,401.4z"/>
<path class="st1" d="M211.6,401.4L211.6,401.4c-4.6,0-8.3-3.7-8.3-8.3l0,0c0-4.6,3.7-8.3,8.3-8.3h0c4.6,0,8.3,3.7,8.3,8.3l0,0
	C219.8,397.6,216.1,401.4,211.6,401.4z"/>
<path class="st1" d="M53.6,424L53.6,424c-4.6,0-8.3-3.7-8.3-8.3v0c0-4.6,3.7-8.3,8.3-8.3h0c4.6,0,8.3,3.7,8.3,8.3v0
	C61.8,420.3,58.1,424,53.6,424z"/>
<path class="st1" d="M76.1,424L76.1,424c-4.6,0-8.3-3.7-8.3-8.3v0c0-4.6,3.7-8.3,8.3-8.3h0c4.6,0,8.3,3.7,8.3,8.3v0
	C84.4,420.3,80.7,424,76.1,424z"/>
<path class="st1" d="M98.7,424L98.7,424c-4.6,0-8.3-3.7-8.3-8.3v0c0-4.6,3.7-8.3,8.3-8.3h0c4.6,0,8.3,3.7,8.3,8.3v0
	C107,420.3,103.3,424,98.7,424z"/>
<path class="st1" d="M121.3,424L121.3,424c-4.6,0-8.3-3.7-8.3-8.3v0c0-4.6,3.7-8.3,8.3-8.3h0c4.6,0,8.3,3.7,8.3,8.3v0
	C129.6,420.3,125.8,424,121.3,424z"/>
<path class="st1" d="M143.8,424L143.8,424c-4.6,0-8.3-3.7-8.3-8.3v0c0-4.6,3.7-8.3,8.3-8.3h0c4.6,0,8.3,3.7,8.3,8.3v0
	C152.1,420.3,148.4,424,143.8,424z"/>
<path class="st1" d="M166.4,424L166.4,424c-4.6,0-8.3-3.7-8.3-8.3v0c0-4.6,3.7-8.3,8.3-8.3h0c4.6,0,8.3,3.7,8.3,8.3v0
	C174.7,420.3,171,424,166.4,424z"/>
<path class="st1" d="M189,424L189,424c-4.6,0-8.3-3.7-8.3-8.3v0c0-4.6,3.7-8.3,8.3-8.3h0c4.6,0,8.3,3.7,8.3,8.3v0
	C197.3,420.3,193.5,424,189,424z"/>
<path class="st1" d="M211.6,424L211.6,424c-4.6,0-8.3-3.7-8.3-8.3v0c0-4.6,3.7-8.3,8.3-8.3h0c4.6,0,8.3,3.7,8.3,8.3v0
	C219.9,420.3,216.2,424,211.6,424z"/>
<path class="st1" d="M8.3,446.5L8.3,446.5c-4.6,0-8.3-3.7-8.3-8.3l0,0c0-4.6,3.7-8.3,8.3-8.3h0c4.6,0,8.3,3.7,8.3,8.3l0,0
	C16.6,442.8,12.9,446.5,8.3,446.5z"/>
<path class="st1" d="M30.9,446.5L30.9,446.5c-4.6,0-8.3-3.7-8.3-8.3l0,0c0-4.6,3.7-8.3,8.3-8.3h0c4.6,0,8.3,3.7,8.3,8.3l0,0
	C39.2,442.8,35.4,446.5,30.9,446.5z"/>
<path class="st1" d="M53.5,446.5L53.5,446.5c-4.6,0-8.3-3.7-8.3-8.3l0,0c0-4.6,3.7-8.3,8.3-8.3h0c4.6,0,8.3,3.7,8.3,8.3l0,0
	C61.7,442.8,58,446.5,53.5,446.5z"/>
<path class="st1" d="M76,446.5L76,446.5c-4.6,0-8.3-3.7-8.3-8.3l0,0c0-4.6,3.7-8.3,8.3-8.3h0c4.6,0,8.3,3.7,8.3,8.3l0,0
	C84.3,442.8,80.6,446.5,76,446.5z"/>
<path class="st1" d="M98.6,446.5L98.6,446.5c-4.6,0-8.3-3.7-8.3-8.3l0,0c0-4.6,3.7-8.3,8.3-8.3h0c4.6,0,8.3,3.7,8.3,8.3l0,0
	C106.9,442.8,103.1,446.5,98.6,446.5z"/>
<path class="st1" d="M121.2,446.5L121.2,446.5c-4.6,0-8.3-3.7-8.3-8.3l0,0c0-4.6,3.7-8.3,8.3-8.3h0c4.6,0,8.3,3.7,8.3,8.3l0,0
	C129.4,442.8,125.7,446.5,121.2,446.5z"/>
<path class="st1" d="M143.7,446.5L143.7,446.5c-4.6,0-8.3-3.7-8.3-8.3l0,0c0-4.6,3.7-8.3,8.3-8.3h0c4.6,0,8.3,3.7,8.3,8.3l0,0
	C152,442.8,148.3,446.5,143.7,446.5z"/>
<path class="st1" d="M166.3,446.5L166.3,446.5c-4.6,0-8.3-3.7-8.3-8.3l0,0c0-4.6,3.7-8.3,8.3-8.3h0c4.6,0,8.3,3.7,8.3,8.3l0,0
	C174.6,442.8,170.9,446.5,166.3,446.5z"/>
<path class="st1" d="M188.9,446.5L188.9,446.5c-4.6,0-8.3-3.7-8.3-8.3l0,0c0-4.6,3.7-8.3,8.3-8.3h0c4.6,0,8.3,3.7,8.3,8.3l0,0
	C197.2,442.8,193.4,446.5,188.9,446.5z"/>
<path class="st1" d="M211.6,446.5L211.6,446.5c-4.6,0-8.3-3.7-8.3-8.3l0,0c0-4.6,3.7-8.3,8.3-8.3h0c4.6,0,8.3,3.7,8.3,8.3l0,0
	C219.9,442.8,216.2,446.5,211.6,446.5z"/>
<path class="st1" d="M8.3,130.5L8.3,130.5c-4.6,0-8.3-3.7-8.3-8.3v0c0-4.6,3.7-8.3,8.3-8.3h0c4.6,0,8.3,3.7,8.3,8.3v0
	C16.6,126.7,12.9,130.5,8.3,130.5z"/>
<path class="st1" d="M30.9,130.5L30.9,130.5c-4.6,0-8.3-3.7-8.3-8.3v0c0-4.6,3.7-8.3,8.3-8.3h0c4.6,0,8.3,3.7,8.3,8.3v0
	C39.2,126.7,35.4,130.5,30.9,130.5z"/>
<path class="st1" d="M53.5,130.5L53.5,130.5c-4.6,0-8.3-3.7-8.3-8.3v0c0-4.6,3.7-8.3,8.3-8.3h0c4.6,0,8.3,3.7,8.3,8.3v0
	C61.7,126.7,58,130.5,53.5,130.5z"/>
<path class="st1" d="M76,130.5L76,130.5c-4.6,0-8.3-3.7-8.3-8.3v0c0-4.6,3.7-8.3,8.3-8.3h0c4.6,0,8.3,3.7,8.3,8.3v0
	C84.3,126.7,80.6,130.5,76,130.5z"/>
<path class="st1" d="M98.6,130.5L98.6,130.5c-4.6,0-8.3-3.7-8.3-8.3v0c0-4.6,3.7-8.3,8.3-8.3h0c4.6,0,8.3,3.7,8.3,8.3v0
	C106.9,126.7,103.1,130.5,98.6,130.5z"/>
<path class="st1" d="M121.2,130.5L121.2,130.5c-4.6,0-8.3-3.7-8.3-8.3v0c0-4.6,3.7-8.3,8.3-8.3h0c4.6,0,8.3,3.7,8.3,8.3v0
	C129.4,126.7,125.7,130.5,121.2,130.5z"/>
<path class="st1" d="M143.7,130.5L143.7,130.5c-4.6,0-8.3-3.7-8.3-8.3v0c0-4.6,3.7-8.3,8.3-8.3h0c4.6,0,8.3,3.7,8.3,8.3v0
	C152,126.7,148.3,130.5,143.7,130.5z"/>
<path class="st1" d="M166.3,130.5L166.3,130.5c-4.6,0-8.3-3.7-8.3-8.3v0c0-4.6,3.7-8.3,8.3-8.3h0c4.6,0,8.3,3.7,8.3,8.3v0
	C174.6,126.7,170.9,130.5,166.3,130.5z"/>
<path class="st1" d="M188.9,130.5L188.9,130.5c-4.6,0-8.3-3.7-8.3-8.3v0c0-4.6,3.7-8.3,8.3-8.3h0c4.6,0,8.3,3.7,8.3,8.3v0
	C197.2,126.7,193.4,130.5,188.9,130.5z"/>
<path class="st1" d="M211.4,130.5L211.4,130.5c-4.6,0-8.3-3.7-8.3-8.3v0c0-4.6,3.7-8.3,8.3-8.3h0c4.6,0,8.3,3.7,8.3,8.3v0
	C219.7,126.7,216,130.5,211.4,130.5z"/>
<path class="st1" d="M234,130.5L234,130.5c-4.6,0-8.3-3.7-8.3-8.3v0c0-4.6,3.7-8.3,8.3-8.3h0c4.6,0,8.3,3.7,8.3,8.3v0
	C242.3,126.7,238.6,130.5,234,130.5z"/>
<path class="st1" d="M256.6,130.5L256.6,130.5c-4.6,0-8.3-3.7-8.3-8.3v0c0-4.6,3.7-8.3,8.3-8.3l0,0c4.6,0,8.3,3.7,8.3,8.3v0
	C264.9,126.7,261.1,130.5,256.6,130.5z"/>
<path class="st1" d="M279.2,130.5L279.2,130.5c-4.6,0-8.3-3.7-8.3-8.3v0c0-4.6,3.7-8.3,8.3-8.3l0,0c4.6,0,8.3,3.7,8.3,8.3v0
	C287.4,126.7,283.7,130.5,279.2,130.5z"/>
<path class="st1" d="M301.7,130.5L301.7,130.5c-4.6,0-8.3-3.7-8.3-8.3v0c0-4.6,3.7-8.3,8.3-8.3h0c4.6,0,8.3,3.7,8.3,8.3v0
	C310,126.7,306.3,130.5,301.7,130.5z"/>
<path class="st1" d="M324.3,130.5L324.3,130.5c-4.6,0-8.3-3.7-8.3-8.3v0c0-4.6,3.7-8.3,8.3-8.3h0c4.6,0,8.3,3.7,8.3,8.3v0
	C332.6,126.7,328.9,130.5,324.3,130.5z"/>
<path class="st1" d="M8.3,175.6L8.3,175.6c-4.6,0-8.3-3.7-8.3-8.3v0c0-4.6,3.7-8.3,8.3-8.3h0c4.6,0,8.3,3.7,8.3,8.3v0
	C16.6,171.9,12.9,175.6,8.3,175.6z"/>
<path class="st1" d="M30.9,175.6L30.9,175.6c-4.6,0-8.3-3.7-8.3-8.3v0c0-4.6,3.7-8.3,8.3-8.3h0c4.6,0,8.3,3.7,8.3,8.3v0
	C39.2,171.9,35.5,175.6,30.9,175.6z"/>
<path class="st1" d="M53.5,175.6L53.5,175.6c-4.6,0-8.3-3.7-8.3-8.3v0c0-4.6,3.7-8.3,8.3-8.3h0c4.6,0,8.3,3.7,8.3,8.3v0
	C61.8,171.9,58,175.6,53.5,175.6z"/>
<path class="st1" d="M76,175.6L76,175.6c-4.6,0-8.3-3.7-8.3-8.3v0c0-4.6,3.7-8.3,8.3-8.3h0c4.6,0,8.3,3.7,8.3,8.3v0
	C84.3,171.9,80.6,175.6,76,175.6z"/>
<path class="st1" d="M98.6,175.6L98.6,175.6c-4.6,0-8.3-3.7-8.3-8.3v0c0-4.6,3.7-8.3,8.3-8.3h0c4.6,0,8.3,3.7,8.3,8.3v0
	C106.9,171.9,103.2,175.6,98.6,175.6z"/>
<path class="st1" d="M121.2,175.6L121.2,175.6c-4.6,0-8.3-3.7-8.3-8.3v0c0-4.6,3.7-8.3,8.3-8.3h0c4.6,0,8.3,3.7,8.3,8.3v0
	C129.5,171.9,125.7,175.6,121.2,175.6z"/>
<path class="st1" d="M143.8,175.6L143.8,175.6c-4.6,0-8.3-3.7-8.3-8.3v0c0-4.6,3.7-8.3,8.3-8.3h0c4.6,0,8.3,3.7,8.3,8.3v0
	C152,171.9,148.3,175.6,143.8,175.6z"/>
<path class="st1" d="M166.3,175.6L166.3,175.6c-4.6,0-8.3-3.7-8.3-8.3v0c0-4.6,3.7-8.3,8.3-8.3h0c4.6,0,8.3,3.7,8.3,8.3v0
	C174.6,171.9,170.9,175.6,166.3,175.6z"/>
<path class="st1" d="M188.9,175.6L188.9,175.6c-4.6,0-8.3-3.7-8.3-8.3v0c0-4.6,3.7-8.3,8.3-8.3h0c4.6,0,8.3,3.7,8.3,8.3v0
	C197.2,171.9,193.4,175.6,188.9,175.6z"/>
<path class="st1" d="M211.5,175.6L211.5,175.6c-4.6,0-8.3-3.7-8.3-8.3v0c0-4.6,3.7-8.3,8.3-8.3h0c4.6,0,8.3,3.7,8.3,8.3v0
	C219.7,171.9,216,175.6,211.5,175.6z"/>
<path class="st1" d="M234,175.6L234,175.6c-4.6,0-8.3-3.7-8.3-8.3v0c0-4.6,3.7-8.3,8.3-8.3h0c4.6,0,8.3,3.7,8.3,8.3v0
	C242.3,171.9,238.6,175.6,234,175.6z"/>
<path class="st1" d="M256.6,175.6L256.6,175.6c-4.6,0-8.3-3.7-8.3-8.3v0c0-4.6,3.7-8.3,8.3-8.3l0,0c4.6,0,8.3,3.7,8.3,8.3v0
	C264.9,171.9,261.2,175.6,256.6,175.6z"/>
<path class="st1" d="M8.3,220.7L8.3,220.7c-4.6,0-8.3-3.7-8.3-8.3v0c0-4.6,3.7-8.3,8.3-8.3h0c4.6,0,8.3,3.7,8.3,8.3v0
	C16.6,217,12.9,220.7,8.3,220.7z"/>
<path class="st1" d="M30.9,220.7L30.9,220.7c-4.6,0-8.3-3.7-8.3-8.3v0c0-4.6,3.7-8.3,8.3-8.3h0c4.6,0,8.3,3.7,8.3,8.3v0
	C39.2,217,35.4,220.7,30.9,220.7z"/>
<path class="st1" d="M53.4,220.7L53.4,220.7c-4.6,0-8.3-3.7-8.3-8.3v0c0-4.6,3.7-8.3,8.3-8.3h0c4.6,0,8.3,3.7,8.3,8.3v0
	C61.7,217,58,220.7,53.4,220.7z"/>
<path class="st1" d="M76,220.7L76,220.7c-4.6,0-8.3-3.7-8.3-8.3v0c0-4.6,3.7-8.3,8.3-8.3h0c4.6,0,8.3,3.7,8.3,8.3v0
	C84.3,217,80.6,220.7,76,220.7z"/>
<path class="st1" d="M98.6,220.7L98.6,220.7c-4.6,0-8.3-3.7-8.3-8.3v0c0-4.6,3.7-8.3,8.3-8.3h0c4.6,0,8.3,3.7,8.3,8.3v0
	C106.9,217,103.1,220.7,98.6,220.7z"/>
<path class="st1" d="M121.2,220.7L121.2,220.7c-4.6,0-8.3-3.7-8.3-8.3v0c0-4.6,3.7-8.3,8.3-8.3h0c4.6,0,8.3,3.7,8.3,8.3v0
	C129.4,217,125.7,220.7,121.2,220.7z"/>
<path class="st1" d="M143.7,220.7L143.7,220.7c-4.6,0-8.3-3.7-8.3-8.3v0c0-4.6,3.7-8.3,8.3-8.3h0c4.6,0,8.3,3.7,8.3,8.3v0
	C152,217,148.3,220.7,143.7,220.7z"/>
<path class="st1" d="M166.3,220.7L166.3,220.7c-4.6,0-8.3-3.7-8.3-8.3v0c0-4.6,3.7-8.3,8.3-8.3h0c4.6,0,8.3,3.7,8.3,8.3v0
	C174.6,217,170.9,220.7,166.3,220.7z"/>
<path class="st1" d="M188.9,220.7L188.9,220.7c-4.6,0-8.3-3.7-8.3-8.3v0c0-4.6,3.7-8.3,8.3-8.3h0c4.6,0,8.3,3.7,8.3,8.3v0
	C197.2,217,193.4,220.7,188.9,220.7z"/>
<path class="st1" d="M211.4,220.7L211.4,220.7c-4.6,0-8.3-3.7-8.3-8.3v0c0-4.6,3.7-8.3,8.3-8.3h0c4.6,0,8.3,3.7,8.3,8.3v0
	C219.7,217,216,220.7,211.4,220.7z"/>
<path class="st1" d="M234,220.7L234,220.7c-4.6,0-8.3-3.7-8.3-8.3v0c0-4.6,3.7-8.3,8.3-8.3h0c4.6,0,8.3,3.7,8.3,8.3v0
	C242.3,217,238.6,220.7,234,220.7z"/>
<path class="st1" d="M256.6,220.7L256.6,220.7c-4.6,0-8.3-3.7-8.3-8.3v0c0-4.6,3.7-8.3,8.3-8.3h0c4.6,0,8.3,3.7,8.3,8.3v0
	C264.9,217,261.1,220.7,256.6,220.7z"/>
<path class="st1" d="M8.3,198.2L8.3,198.2c-4.6,0-8.3-3.7-8.3-8.3v0c0-4.6,3.7-8.3,8.3-8.3h0c4.6,0,8.3,3.7,8.3,8.3v0
	C16.6,194.4,12.9,198.2,8.3,198.2z"/>
<path class="st1" d="M30.9,198.2L30.9,198.2c-4.6,0-8.3-3.7-8.3-8.3v0c0-4.6,3.7-8.3,8.3-8.3h0c4.6,0,8.3,3.7,8.3,8.3v0
	C39.2,194.4,35.4,198.2,30.9,198.2z"/>
<path class="st1" d="M53.4,198.2L53.4,198.2c-4.6,0-8.3-3.7-8.3-8.3v0c0-4.6,3.7-8.3,8.3-8.3h0c4.6,0,8.3,3.7,8.3,8.3v0
	C61.7,194.4,58,198.2,53.4,198.2z"/>
<path class="st1" d="M76,198.2L76,198.2c-4.6,0-8.3-3.7-8.3-8.3v0c0-4.6,3.7-8.3,8.3-8.3h0c4.6,0,8.3,3.7,8.3,8.3v0
	C84.3,194.4,80.6,198.2,76,198.2z"/>
<path class="st1" d="M98.6,198.2L98.6,198.2c-4.6,0-8.3-3.7-8.3-8.3v0c0-4.6,3.7-8.3,8.3-8.3h0c4.6,0,8.3,3.7,8.3,8.3v0
	C106.9,194.4,103.1,198.2,98.6,198.2z"/>
<path class="st1" d="M121.2,198.2L121.2,198.2c-4.6,0-8.3-3.7-8.3-8.3v0c0-4.6,3.7-8.3,8.3-8.3h0c4.6,0,8.3,3.7,8.3,8.3v0
	C129.4,194.4,125.7,198.2,121.2,198.2z"/>
<path class="st1" d="M143.7,198.2L143.7,198.2c-4.6,0-8.3-3.7-8.3-8.3v0c0-4.6,3.7-8.3,8.3-8.3h0c4.6,0,8.3,3.7,8.3,8.3v0
	C152,194.4,148.3,198.2,143.7,198.2z"/>
<path class="st1" d="M166.3,198.2L166.3,198.2c-4.6,0-8.3-3.7-8.3-8.3v0c0-4.6,3.7-8.3,8.3-8.3h0c4.6,0,8.3,3.7,8.3,8.3v0
	C174.6,194.4,170.9,198.2,166.3,198.2z"/>
<path class="st1" d="M188.9,198.2L188.9,198.2c-4.6,0-8.3-3.7-8.3-8.3v0c0-4.6,3.7-8.3,8.3-8.3h0c4.6,0,8.3,3.7,8.3,8.3v0
	C197.2,194.4,193.4,198.2,188.9,198.2z"/>
<path class="st1" d="M211.4,198.2L211.4,198.2c-4.6,0-8.3-3.7-8.3-8.3v0c0-4.6,3.7-8.3,8.3-8.3h0c4.6,0,8.3,3.7,8.3,8.3v0
	C219.7,194.4,216,198.2,211.4,198.2z"/>
<path class="st1" d="M234,198.2L234,198.2c-4.6,0-8.3-3.7-8.3-8.3v0c0-4.6,3.7-8.3,8.3-8.3h0c4.6,0,8.3,3.7,8.3,8.3v0
	C242.3,194.4,238.6,198.2,234,198.2z"/>
<path class="st1" d="M256.6,198.2L256.6,198.2c-4.6,0-8.3-3.7-8.3-8.3v0c0-4.6,3.7-8.3,8.3-8.3h0c4.6,0,8.3,3.7,8.3,8.3v0
	C264.9,194.4,261.1,198.2,256.6,198.2z"/>
<path class="st1" d="M53.5,243.3L53.5,243.3c-4.6,0-8.3-3.7-8.3-8.3v0c0-4.6,3.7-8.3,8.3-8.3h0c4.6,0,8.3,3.7,8.3,8.3v0
	C61.8,239.6,58,243.3,53.5,243.3z"/>
<path class="st1" d="M76,243.3L76,243.3c-4.6,0-8.3-3.7-8.3-8.3v0c0-4.6,3.7-8.3,8.3-8.3h0c4.6,0,8.3,3.7,8.3,8.3v0
	C84.3,239.6,80.6,243.3,76,243.3z"/>
<path class="st1" d="M98.6,243.3L98.6,243.3c-4.6,0-8.3-3.7-8.3-8.3v0c0-4.6,3.7-8.3,8.3-8.3h0c4.6,0,8.3,3.7,8.3,8.3v0
	C106.9,239.6,103.2,243.3,98.6,243.3z"/>
<path class="st1" d="M121.2,243.3L121.2,243.3c-4.6,0-8.3-3.7-8.3-8.3v0c0-4.6,3.7-8.3,8.3-8.3h0c4.6,0,8.3,3.7,8.3,8.3v0
	C129.5,239.6,125.7,243.3,121.2,243.3z"/>
<path class="st1" d="M143.8,243.3L143.8,243.3c-4.6,0-8.3-3.7-8.3-8.3v0c0-4.6,3.7-8.3,8.3-8.3h0c4.6,0,8.3,3.7,8.3,8.3v0
	C152,239.6,148.3,243.3,143.8,243.3z"/>
<path class="st1" d="M166.3,243.3L166.3,243.3c-4.6,0-8.3-3.7-8.3-8.3v0c0-4.6,3.7-8.3,8.3-8.3h0c4.6,0,8.3,3.7,8.3,8.3v0
	C174.6,239.6,170.9,243.3,166.3,243.3z"/>
<path class="st1" d="M188.9,243.3L188.9,243.3c-4.6,0-8.3-3.7-8.3-8.3v0c0-4.6,3.7-8.3,8.3-8.3h0c4.6,0,8.3,3.7,8.3,8.3v0
	C197.2,239.6,193.4,243.3,188.9,243.3z"/>
<path class="st1" d="M211.5,243.3L211.5,243.3c-4.6,0-8.3-3.7-8.3-8.3v0c0-4.6,3.7-8.3,8.3-8.3h0c4.6,0,8.3,3.7,8.3,8.3v0
	C219.7,239.6,216,243.3,211.5,243.3z"/>
<path class="st1" d="M234,243.3L234,243.3c-4.6,0-8.3-3.7-8.3-8.3v0c0-4.6,3.7-8.3,8.3-8.3h0c4.6,0,8.3,3.7,8.3,8.3v0
	C242.3,239.6,238.6,243.3,234,243.3z"/>
<path class="st1" d="M256.6,243.3L256.6,243.3c-4.6,0-8.3-3.7-8.3-8.3v0c0-4.6,3.7-8.3,8.3-8.3l0,0c4.6,0,8.3,3.7,8.3,8.3v0
	C264.9,239.6,261.2,243.3,256.6,243.3z"/>
<path class="st1" d="M53.6,288.4L53.6,288.4c-4.6,0-8.3-3.7-8.3-8.3v0c0-4.6,3.7-8.3,8.3-8.3h0c4.6,0,8.3,3.7,8.3,8.3v0
	C61.8,284.7,58.1,288.4,53.6,288.4z"/>
<path class="st1" d="M76.1,288.4L76.1,288.4c-4.6,0-8.3-3.7-8.3-8.3v0c0-4.6,3.7-8.3,8.3-8.3h0c4.6,0,8.3,3.7,8.3,8.3v0
	C84.4,284.7,80.7,288.4,76.1,288.4z"/>
<path class="st1" d="M98.7,288.4L98.7,288.4c-4.6,0-8.3-3.7-8.3-8.3v0c0-4.6,3.7-8.3,8.3-8.3h0c4.6,0,8.3,3.7,8.3,8.3v0
	C107,284.7,103.3,288.4,98.7,288.4z"/>
<path class="st1" d="M121.3,288.4L121.3,288.4c-4.6,0-8.3-3.7-8.3-8.3v0c0-4.6,3.7-8.3,8.3-8.3h0c4.6,0,8.3,3.7,8.3,8.3v0
	C129.5,284.7,125.8,288.4,121.3,288.4z"/>
<path class="st1" d="M143.8,288.4L143.8,288.4c-4.6,0-8.3-3.7-8.3-8.3v0c0-4.6,3.7-8.3,8.3-8.3h0c4.6,0,8.3,3.7,8.3,8.3v0
	C152.1,284.7,148.4,288.4,143.8,288.4z"/>
<path class="st1" d="M166.4,288.4L166.4,288.4c-4.6,0-8.3-3.7-8.3-8.3v0c0-4.6,3.7-8.3,8.3-8.3h0c4.6,0,8.3,3.7,8.3,8.3v0
	C174.7,284.7,171,288.4,166.4,288.4z"/>
<path class="st1" d="M189,288.4L189,288.4c-4.6,0-8.3-3.7-8.3-8.3v0c0-4.6,3.7-8.3,8.3-8.3h0c4.6,0,8.3,3.7,8.3,8.3v0
	C197.3,284.7,193.5,288.4,189,288.4z"/>
<path class="st1" d="M211.5,288.4L211.5,288.4c-4.6,0-8.3-3.7-8.3-8.3v0c0-4.6,3.7-8.3,8.3-8.3h0c4.6,0,8.3,3.7,8.3,8.3v0
	C219.8,284.7,216.1,288.4,211.5,288.4z"/>
<path class="st1" d="M234.1,288.4L234.1,288.4c-4.6,0-8.3-3.7-8.3-8.3v0c0-4.6,3.7-8.3,8.3-8.3h0c4.6,0,8.3,3.7,8.3,8.3v0
	C242.4,284.7,238.7,288.4,234.1,288.4z"/>
<path class="st1" d="M256.7,288.4L256.7,288.4c-4.6,0-8.3-3.7-8.3-8.3v0c0-4.6,3.7-8.3,8.3-8.3h0c4.6,0,8.3,3.7,8.3,8.3v0
	C265,284.7,261.2,288.4,256.7,288.4z"/>
<path class="st1" d="M53.6,265.9L53.6,265.9c-4.6,0-8.3-3.7-8.3-8.3v0c0-4.6,3.7-8.3,8.3-8.3h0c4.6,0,8.3,3.7,8.3,8.3v0
	C61.8,262.1,58.1,265.9,53.6,265.9z"/>
<path class="st1" d="M76.1,265.9L76.1,265.9c-4.6,0-8.3-3.7-8.3-8.3v0c0-4.6,3.7-8.3,8.3-8.3h0c4.6,0,8.3,3.7,8.3,8.3v0
	C84.4,262.1,80.7,265.9,76.1,265.9z"/>
<path class="st1" d="M98.7,265.9L98.7,265.9c-4.6,0-8.3-3.7-8.3-8.3v0c0-4.6,3.7-8.3,8.3-8.3h0c4.6,0,8.3,3.7,8.3,8.3v0
	C107,262.1,103.3,265.9,98.7,265.9z"/>
<path class="st1" d="M121.3,265.9L121.3,265.9c-4.6,0-8.3-3.7-8.3-8.3v0c0-4.6,3.7-8.3,8.3-8.3h0c4.6,0,8.3,3.7,8.3,8.3v0
	C129.5,262.1,125.8,265.9,121.3,265.9z"/>
<path class="st1" d="M143.8,265.9L143.8,265.9c-4.6,0-8.3-3.7-8.3-8.3v0c0-4.6,3.7-8.3,8.3-8.3h0c4.6,0,8.3,3.7,8.3,8.3v0
	C152.1,262.1,148.4,265.9,143.8,265.9z"/>
<path class="st1" d="M166.4,265.9L166.4,265.9c-4.6,0-8.3-3.7-8.3-8.3v0c0-4.6,3.7-8.3,8.3-8.3h0c4.6,0,8.3,3.7,8.3,8.3v0
	C174.7,262.1,171,265.9,166.4,265.9z"/>
<path class="st1" d="M189,265.9L189,265.9c-4.6,0-8.3-3.7-8.3-8.3v0c0-4.6,3.7-8.3,8.3-8.3h0c4.6,0,8.3,3.7,8.3,8.3v0
	C197.3,262.1,193.5,265.9,189,265.9z"/>
<path class="st1" d="M211.5,265.9L211.5,265.9c-4.6,0-8.3-3.7-8.3-8.3v0c0-4.6,3.7-8.3,8.3-8.3h0c4.6,0,8.3,3.7,8.3,8.3v0
	C219.8,262.1,216.1,265.9,211.5,265.9z"/>
<path class="st1" d="M234.1,265.9L234.1,265.9c-4.6,0-8.3-3.7-8.3-8.3v0c0-4.6,3.7-8.3,8.3-8.3h0c4.6,0,8.3,3.7,8.3,8.3v0
	C242.4,262.1,238.7,265.9,234.1,265.9z"/>
<path class="st1" d="M256.7,265.9L256.7,265.9c-4.6,0-8.3-3.7-8.3-8.3v0c0-4.6,3.7-8.3,8.3-8.3h0c4.6,0,8.3,3.7,8.3,8.3v0
	C265,262.1,261.2,265.9,256.7,265.9z"/>
<path class="st1" d="M8.4,469.2L8.4,469.2c-4.6,0-8.3-3.7-8.3-8.3l0,0c0-4.6,3.7-8.3,8.3-8.3h0c4.6,0,8.3,3.7,8.3,8.3l0,0
	C16.6,465.5,12.9,469.2,8.4,469.2z"/>
<path class="st1" d="M30.9,469.2L30.9,469.2c-4.6,0-8.3-3.7-8.3-8.3l0,0c0-4.6,3.7-8.3,8.3-8.3h0c4.6,0,8.3,3.7,8.3,8.3l0,0
	C39.2,465.5,35.5,469.2,30.9,469.2z"/>
<path class="st1" d="M53.5,469.2L53.5,469.2c-4.6,0-8.3-3.7-8.3-8.3l0,0c0-4.6,3.7-8.3,8.3-8.3h0c4.6,0,8.3,3.7,8.3,8.3l0,0
	C61.8,465.5,58,469.2,53.5,469.2z"/>
<path class="st1" d="M76.1,469.2L76.1,469.2c-4.6,0-8.3-3.7-8.3-8.3l0,0c0-4.6,3.7-8.3,8.3-8.3h0c4.6,0,8.3,3.7,8.3,8.3l0,0
	C84.3,465.5,80.6,469.2,76.1,469.2z"/>
<path class="st1" d="M98.6,469.2L98.6,469.2c-4.6,0-8.3-3.7-8.3-8.3l0,0c0-4.6,3.7-8.3,8.3-8.3h0c4.6,0,8.3,3.7,8.3,8.3l0,0
	C106.9,465.5,103.2,469.2,98.6,469.2z"/>
<path class="st1" d="M121.2,469.2L121.2,469.2c-4.6,0-8.3-3.7-8.3-8.3l0,0c0-4.6,3.7-8.3,8.3-8.3h0c4.6,0,8.3,3.7,8.3,8.3l0,0
	C129.5,465.5,125.8,469.2,121.2,469.2z"/>
<path class="st1" d="M143.8,469.2L143.8,469.2c-4.6,0-8.3-3.7-8.3-8.3l0,0c0-4.6,3.7-8.3,8.3-8.3h0c4.6,0,8.3,3.7,8.3,8.3l0,0
	C152.1,465.5,148.3,469.2,143.8,469.2z"/>
<path class="st1" d="M166.3,469.2L166.3,469.2c-4.6,0-8.3-3.7-8.3-8.3l0,0c0-4.6,3.7-8.3,8.3-8.3h0c4.6,0,8.3,3.7,8.3,8.3l0,0
	C174.6,465.5,170.9,469.2,166.3,469.2z"/>
<path class="st1" d="M188.9,469.2L188.9,469.2c-4.6,0-8.3-3.7-8.3-8.3l0,0c0-4.6,3.7-8.3,8.3-8.3h0c4.6,0,8.3,3.7,8.3,8.3l0,0
	C197.2,465.5,193.5,469.2,188.9,469.2z"/>
<path class="st1" d="M211.6,469.2L211.6,469.2c-4.6,0-8.3-3.7-8.3-8.3l0,0c0-4.6,3.7-8.3,8.3-8.3h0c4.6,0,8.3,3.7,8.3,8.3l0,0
	C219.9,465.5,216.2,469.2,211.6,469.2z"/>
<path class="st1" d="M8.3,514.3L8.3,514.3c-4.6,0-8.3-3.7-8.3-8.3l0,0c0-4.6,3.7-8.3,8.3-8.3h0c4.6,0,8.3,3.7,8.3,8.3l0,0
	C16.6,510.6,12.9,514.3,8.3,514.3z"/>
<path class="st1" d="M30.9,514.3L30.9,514.3c-4.6,0-8.3-3.7-8.3-8.3l0,0c0-4.6,3.7-8.3,8.3-8.3h0c4.6,0,8.3,3.7,8.3,8.3l0,0
	C39.2,510.6,35.5,514.3,30.9,514.3z"/>
<path class="st1" d="M53.5,514.3L53.5,514.3c-4.6,0-8.3-3.7-8.3-8.3l0,0c0-4.6,3.7-8.3,8.3-8.3h0c4.6,0,8.3,3.7,8.3,8.3l0,0
	C61.7,510.6,58,514.3,53.5,514.3z"/>
<path class="st1" d="M76,514.3L76,514.3c-4.6,0-8.3-3.7-8.3-8.3l0,0c0-4.6,3.7-8.3,8.3-8.3h0c4.6,0,8.3,3.7,8.3,8.3l0,0
	C84.3,510.6,80.6,514.3,76,514.3z"/>
<path class="st1" d="M98.6,514.3L98.6,514.3c-4.6,0-8.3-3.7-8.3-8.3l0,0c0-4.6,3.7-8.3,8.3-8.3h0c4.6,0,8.3,3.7,8.3,8.3l0,0
	C106.9,510.6,103.2,514.3,98.6,514.3z"/>
<path class="st1" d="M121.2,514.3L121.2,514.3c-4.6,0-8.3-3.7-8.3-8.3l0,0c0-4.6,3.7-8.3,8.3-8.3h0c4.6,0,8.3,3.7,8.3,8.3l0,0
	C129.5,510.6,125.7,514.3,121.2,514.3z"/>
<path class="st1" d="M143.7,514.3L143.7,514.3c-4.6,0-8.3-3.7-8.3-8.3l0,0c0-4.6,3.7-8.3,8.3-8.3h0c4.6,0,8.3,3.7,8.3,8.3l0,0
	C152,510.6,148.3,514.3,143.7,514.3z"/>
<path class="st1" d="M166.3,514.3L166.3,514.3c-4.6,0-8.3-3.7-8.3-8.3l0,0c0-4.6,3.7-8.3,8.3-8.3h0c4.6,0,8.3,3.7,8.3,8.3l0,0
	C174.6,510.6,170.9,514.3,166.3,514.3z"/>
<path class="st1" d="M8.3,491.8L8.3,491.8c-4.6,0-8.3-3.7-8.3-8.3l0,0c0-4.6,3.7-8.3,8.3-8.3h0c4.6,0,8.3,3.7,8.3,8.3l0,0
	C16.6,488,12.9,491.8,8.3,491.8z"/>
<path class="st1" d="M30.9,491.8L30.9,491.8c-4.6,0-8.3-3.7-8.3-8.3l0,0c0-4.6,3.7-8.3,8.3-8.3h0c4.6,0,8.3,3.7,8.3,8.3l0,0
	C39.2,488,35.5,491.8,30.9,491.8z"/>
<path class="st1" d="M53.5,491.8L53.5,491.8c-4.6,0-8.3-3.7-8.3-8.3l0,0c0-4.6,3.7-8.3,8.3-8.3h0c4.6,0,8.3,3.7,8.3,8.3l0,0
	C61.7,488,58,491.8,53.5,491.8z"/>
<path class="st1" d="M76,491.8L76,491.8c-4.6,0-8.3-3.7-8.3-8.3l0,0c0-4.6,3.7-8.3,8.3-8.3h0c4.6,0,8.3,3.7,8.3,8.3l0,0
	C84.3,488,80.6,491.8,76,491.8z"/>
<path class="st1" d="M98.6,491.8L98.6,491.8c-4.6,0-8.3-3.7-8.3-8.3l0,0c0-4.6,3.7-8.3,8.3-8.3h0c4.6,0,8.3,3.7,8.3,8.3l0,0
	C106.9,488,103.2,491.8,98.6,491.8z"/>
<path class="st1" d="M121.2,491.8L121.2,491.8c-4.6,0-8.3-3.7-8.3-8.3l0,0c0-4.6,3.7-8.3,8.3-8.3h0c4.6,0,8.3,3.7,8.3,8.3l0,0
	C129.5,488,125.7,491.8,121.2,491.8z"/>
<path class="st1" d="M143.7,491.8L143.7,491.8c-4.6,0-8.3-3.7-8.3-8.3l0,0c0-4.6,3.7-8.3,8.3-8.3h0c4.6,0,8.3,3.7,8.3,8.3l0,0
	C152,488,148.3,491.8,143.7,491.8z"/>
<path class="st1" d="M166.3,491.8L166.3,491.8c-4.6,0-8.3-3.7-8.3-8.3l0,0c0-4.6,3.7-8.3,8.3-8.3h0c4.6,0,8.3,3.7,8.3,8.3l0,0
	C174.6,488,170.9,491.8,166.3,491.8z"/>
<path class="st1" d="M188.9,491.8L188.9,491.8c-4.6,0-8.3-3.7-8.3-8.3l0,0c0-4.6,3.7-8.3,8.3-8.3h0c4.6,0,8.3,3.7,8.3,8.3l0,0
	C197.2,488,193.4,491.8,188.9,491.8z"/>
<path class="st1" d="M188.9,514.3L188.9,514.3c-4.6,0-8.3-3.7-8.3-8.3l0,0c0-4.6,3.7-8.3,8.3-8.3h0c4.6,0,8.3,3.7,8.3,8.3l0,0
	C197.2,510.6,193.5,514.3,188.9,514.3z"/>
<path class="st1" d="M188.9,536.9L188.9,536.9c-4.6,0-8.3-3.7-8.3-8.3l0,0c0-4.6,3.7-8.3,8.3-8.3h0c4.6,0,8.3,3.7,8.3,8.3l0,0
	C197.2,533.2,193.4,536.9,188.9,536.9z"/>
<path class="st1" d="M8.4,536.9L8.4,536.9c-4.6,0-8.3-3.7-8.3-8.3v0c0-4.6,3.7-8.3,8.3-8.3h0c4.6,0,8.3,3.7,8.3,8.3v0
	C16.6,533.2,12.9,536.9,8.4,536.9z"/>
<path class="st1" d="M30.9,536.9L30.9,536.9c-4.6,0-8.3-3.7-8.3-8.3v0c0-4.6,3.7-8.3,8.3-8.3h0c4.6,0,8.3,3.7,8.3,8.3v0
	C39.2,533.2,35.5,536.9,30.9,536.9z"/>
<path class="st1" d="M53.5,536.9L53.5,536.9c-4.6,0-8.3-3.7-8.3-8.3v0c0-4.6,3.7-8.3,8.3-8.3h0c4.6,0,8.3,3.7,8.3,8.3v0
	C61.8,533.2,58,536.9,53.5,536.9z"/>
<path class="st1" d="M76.1,536.9L76.1,536.9c-4.6,0-8.3-3.7-8.3-8.3v0c0-4.6,3.7-8.3,8.3-8.3h0c4.6,0,8.3,3.7,8.3,8.3v0
	C84.3,533.2,80.6,536.9,76.1,536.9z"/>
<path class="st1" d="M98.6,536.9L98.6,536.9c-4.6,0-8.3-3.7-8.3-8.3v0c0-4.6,3.7-8.3,8.3-8.3h0c4.6,0,8.3,3.7,8.3,8.3v0
	C106.9,533.2,103.2,536.9,98.6,536.9z"/>
<path class="st1" d="M121.2,536.9L121.2,536.9c-4.6,0-8.3-3.7-8.3-8.3v0c0-4.6,3.7-8.3,8.3-8.3h0c4.6,0,8.3,3.7,8.3,8.3v0
	C129.5,533.2,125.8,536.9,121.2,536.9z"/>
<path class="st1" d="M143.8,536.9L143.8,536.9c-4.6,0-8.3-3.7-8.3-8.3v0c0-4.6,3.7-8.3,8.3-8.3h0c4.6,0,8.3,3.7,8.3,8.3v0
	C152.1,533.2,148.3,536.9,143.8,536.9z"/>
<path class="st1" d="M166.3,536.9L166.3,536.9c-4.6,0-8.3-3.7-8.3-8.3v0c0-4.6,3.7-8.3,8.3-8.3h0c4.6,0,8.3,3.7,8.3,8.3v0
	C174.6,533.2,170.9,536.9,166.3,536.9z"/>
<path class="st1" d="M8.3,582.1L8.3,582.1c-4.6,0-8.3-3.7-8.3-8.3l0,0c0-4.6,3.7-8.3,8.3-8.3h0c4.6,0,8.3,3.7,8.3,8.3l0,0
	C16.6,578.3,12.9,582.1,8.3,582.1z"/>
<path class="st1" d="M30.9,582.1L30.9,582.1c-4.6,0-8.3-3.7-8.3-8.3l0,0c0-4.6,3.7-8.3,8.3-8.3h0c4.6,0,8.3,3.7,8.3,8.3l0,0
	C39.2,578.3,35.5,582.1,30.9,582.1z"/>
<path class="st1" d="M53.5,582.1L53.5,582.1c-4.6,0-8.3-3.7-8.3-8.3l0,0c0-4.6,3.7-8.3,8.3-8.3h0c4.6,0,8.3,3.7,8.3,8.3l0,0
	C61.7,578.3,58,582.1,53.5,582.1z"/>
<path class="st1" d="M76,582.1L76,582.1c-4.6,0-8.3-3.7-8.3-8.3l0,0c0-4.6,3.7-8.3,8.3-8.3h0c4.6,0,8.3,3.7,8.3,8.3l0,0
	C84.3,578.3,80.6,582.1,76,582.1z"/>
<path class="st1" d="M98.6,582.1L98.6,582.1c-4.6,0-8.3-3.7-8.3-8.3l0,0c0-4.6,3.7-8.3,8.3-8.3h0c4.6,0,8.3,3.7,8.3,8.3l0,0
	C106.9,578.3,103.2,582.1,98.6,582.1z"/>
<path class="st1" d="M121.2,582.1L121.2,582.1c-4.6,0-8.3-3.7-8.3-8.3l0,0c0-4.6,3.7-8.3,8.3-8.3h0c4.6,0,8.3,3.7,8.3,8.3l0,0
	C129.5,578.3,125.7,582.1,121.2,582.1z"/>
<path class="st1" d="M143.7,582.1L143.7,582.1c-4.6,0-8.3-3.7-8.3-8.3l0,0c0-4.6,3.7-8.3,8.3-8.3h0c4.6,0,8.3,3.7,8.3,8.3l0,0
	C152,578.3,148.3,582.1,143.7,582.1z"/>
<path class="st1" d="M8.3,559.5L8.3,559.5c-4.6,0-8.3-3.7-8.3-8.3l0,0c0-4.6,3.7-8.3,8.3-8.3h0c4.6,0,8.3,3.7,8.3,8.3l0,0
	C16.6,555.8,12.9,559.5,8.3,559.5z"/>
<path class="st1" d="M30.9,559.5L30.9,559.5c-4.6,0-8.3-3.7-8.3-8.3l0,0c0-4.6,3.7-8.3,8.3-8.3h0c4.6,0,8.3,3.7,8.3,8.3l0,0
	C39.2,555.8,35.5,559.5,30.9,559.5z"/>
<path class="st1" d="M53.5,559.5L53.5,559.5c-4.6,0-8.3-3.7-8.3-8.3l0,0c0-4.6,3.7-8.3,8.3-8.3h0c4.6,0,8.3,3.7,8.3,8.3l0,0
	C61.7,555.8,58,559.5,53.5,559.5z"/>
<path class="st1" d="M76,559.5L76,559.5c-4.6,0-8.3-3.7-8.3-8.3l0,0c0-4.6,3.7-8.3,8.3-8.3h0c4.6,0,8.3,3.7,8.3,8.3l0,0
	C84.3,555.8,80.6,559.5,76,559.5z"/>
<path class="st1" d="M98.6,559.5L98.6,559.5c-4.6,0-8.3-3.7-8.3-8.3l0,0c0-4.6,3.7-8.3,8.3-8.3h0c4.6,0,8.3,3.7,8.3,8.3l0,0
	C106.9,555.8,103.2,559.5,98.6,559.5z"/>
<path class="st1" d="M121.2,559.5L121.2,559.5c-4.6,0-8.3-3.7-8.3-8.3l0,0c0-4.6,3.7-8.3,8.3-8.3h0c4.6,0,8.3,3.7,8.3,8.3l0,0
	C129.5,555.8,125.7,559.5,121.2,559.5z"/>
<path class="st1" d="M143.7,559.5L143.7,559.5c-4.6,0-8.3-3.7-8.3-8.3l0,0c0-4.6,3.7-8.3,8.3-8.3h0c4.6,0,8.3,3.7,8.3,8.3l0,0
	C152,555.8,148.3,559.5,143.7,559.5z"/>
<path class="st1" d="M166.3,582.1L166.3,582.1c-4.6,0-8.3-3.7-8.3-8.3l0,0c0-4.6,3.7-8.3,8.3-8.3h0c4.6,0,8.3,3.7,8.3,8.3l0,0
	C174.6,578.3,170.8,582.1,166.3,582.1z"/>
<path class="st1" d="M166.3,559.5L166.3,559.5c-4.6,0-8.3-3.7-8.3-8.3l0,0c0-4.6,3.7-8.3,8.3-8.3h0c4.6,0,8.3,3.7,8.3,8.3l0,0
	C174.6,555.8,170.8,559.5,166.3,559.5z"/>
<path class="st1" d="M143.7,627.2L143.7,627.2c-4.6,0-8.3-3.7-8.3-8.3l0,0c0-4.6,3.7-8.3,8.3-8.3h0c4.6,0,8.3,3.7,8.3,8.3l0,0
	C152,623.5,148.3,627.2,143.7,627.2z"/>
<path class="st1" d="M143.7,604.6L143.7,604.6c-4.6,0-8.3-3.7-8.3-8.3v0c0-4.6,3.7-8.3,8.3-8.3h0c4.6,0,8.3,3.7,8.3,8.3v0
	C152,600.9,148.3,604.6,143.7,604.6z"/>
<path class="st1" d="M166.3,604.6L166.3,604.6c-4.6,0-8.3-3.7-8.3-8.3v0c0-4.6,3.7-8.3,8.3-8.3h0c4.6,0,8.3,3.7,8.3,8.3v0
	C174.6,600.9,170.8,604.6,166.3,604.6z"/>
<path class="st1" d="M8.3,62L8.3,62C3.7,62,0,58.3,0,53.7v0c0-4.6,3.7-8.3,8.3-8.3h0c4.6,0,8.3,3.7,8.3,8.3v0
	C16.6,58.3,12.8,62,8.3,62z"/>
<path class="st1" d="M30.9,62L30.9,62c-4.6,0-8.3-3.7-8.3-8.3v0c0-4.6,3.7-8.3,8.3-8.3h0c4.6,0,8.3,3.7,8.3,8.3v0
	C39.1,58.3,35.4,62,30.9,62z"/>
<path class="st1" d="M53.4,62L53.4,62c-4.6,0-8.3-3.7-8.3-8.3v0c0-4.6,3.7-8.3,8.3-8.3h0c4.6,0,8.3,3.7,8.3,8.3v0
	C61.7,58.3,58,62,53.4,62z"/>
<path class="st1" d="M76,62L76,62c-4.6,0-8.3-3.7-8.3-8.3v0c0-4.6,3.7-8.3,8.3-8.3h0c4.6,0,8.3,3.7,8.3,8.3v0
	C84.3,58.3,80.6,62,76,62z"/>
<path class="st1" d="M98.6,62L98.6,62c-4.6,0-8.3-3.7-8.3-8.3v0c0-4.6,3.7-8.3,8.3-8.3h0c4.6,0,8.3,3.7,8.3,8.3v0
	C106.9,58.3,103.1,62,98.6,62z"/>
<path class="st1" d="M121.1,62L121.1,62c-4.6,0-8.3-3.7-8.3-8.3v0c0-4.6,3.7-8.3,8.3-8.3h0c4.6,0,8.3,3.7,8.3,8.3v0
	C129.4,58.3,125.7,62,121.1,62z"/>
<path class="st1" d="M143.7,62L143.7,62c-4.6,0-8.3-3.7-8.3-8.3v0c0-4.6,3.7-8.3,8.3-8.3h0c4.6,0,8.3,3.7,8.3,8.3v0
	C152,58.3,148.3,62,143.7,62z"/>
<path class="st1" d="M166.3,62L166.3,62c-4.6,0-8.3-3.7-8.3-8.3v0c0-4.6,3.7-8.3,8.3-8.3h0c4.6,0,8.3,3.7,8.3,8.3v0
	C174.6,58.3,170.8,62,166.3,62z"/>
<path class="st1" d="M188.8,62L188.8,62c-4.6,0-8.3-3.7-8.3-8.3v0c0-4.6,3.7-8.3,8.3-8.3h0c4.6,0,8.3,3.7,8.3,8.3v0
	C197.1,58.3,193.4,62,188.8,62z"/>
<path class="st1" d="M211.4,62L211.4,62c-4.6,0-8.3-3.7-8.3-8.3v0c0-4.6,3.7-8.3,8.3-8.3h0c4.6,0,8.3,3.7,8.3,8.3v0
	C219.7,58.3,216,62,211.4,62z"/>
<path class="st1" d="M234,62L234,62c-4.6,0-8.3-3.7-8.3-8.3v0c0-4.6,3.7-8.3,8.3-8.3h0c4.6,0,8.3,3.7,8.3,8.3v0
	C242.3,58.3,238.5,62,234,62z"/>
<path class="st1" d="M256.6,62L256.6,62c-4.6,0-8.3-3.7-8.3-8.3v0c0-4.6,3.7-8.3,8.3-8.3h0c4.6,0,8.3,3.7,8.3,8.3v0
	C264.8,58.3,261.1,62,256.6,62z"/>
<path class="st1" d="M279.1,62L279.1,62c-4.6,0-8.3-3.7-8.3-8.3v0c0-4.6,3.7-8.3,8.3-8.3h0c4.6,0,8.3,3.7,8.3,8.3v0
	C287.4,58.3,283.7,62,279.1,62z"/>
<path class="st1" d="M301.7,62L301.7,62c-4.6,0-8.3-3.7-8.3-8.3v0c0-4.6,3.7-8.3,8.3-8.3l0,0c4.6,0,8.3,3.7,8.3,8.3v0
	C310,58.3,306.3,62,301.7,62z"/>
<path class="st1" d="M324.3,62L324.3,62c-4.6,0-8.3-3.7-8.3-8.3v0c0-4.6,3.7-8.3,8.3-8.3l0,0c4.6,0,8.3,3.7,8.3,8.3v0
	C332.6,58.3,328.8,62,324.3,62z"/>
<path class="st1" d="M346.8,62L346.8,62c-4.6,0-8.3-3.7-8.3-8.3v0c0-4.6,3.7-8.3,8.3-8.3h0c4.6,0,8.3,3.7,8.3,8.3v0
	C355.1,58.3,351.4,62,346.8,62z"/>
<path class="st1" d="M8.3,604.6L8.3,604.6c-4.6,0-8.3-3.7-8.3-8.3v0c0-4.6,3.7-8.3,8.3-8.3h0c4.6,0,8.3,3.7,8.3,8.3v0
	C16.6,600.9,12.9,604.6,8.3,604.6z"/>
<path class="st1" d="M30.9,604.6L30.9,604.6c-4.6,0-8.3-3.7-8.3-8.3v0c0-4.6,3.7-8.3,8.3-8.3h0c4.6,0,8.3,3.7,8.3,8.3v0
	C39.2,600.9,35.5,604.6,30.9,604.6z"/>
<path class="st1" d="M53.5,604.6L53.5,604.6c-4.6,0-8.3-3.7-8.3-8.3v0c0-4.6,3.7-8.3,8.3-8.3h0c4.6,0,8.3,3.7,8.3,8.3v0
	C61.7,600.9,58,604.6,53.5,604.6z"/>
<path class="st1" d="M76,604.6L76,604.6c-4.6,0-8.3-3.7-8.3-8.3v0c0-4.6,3.7-8.3,8.3-8.3h0c4.6,0,8.3,3.7,8.3,8.3v0
	C84.3,600.9,80.6,604.6,76,604.6z"/>
<path class="st1" d="M98.6,604.6L98.6,604.6c-4.6,0-8.3-3.7-8.3-8.3v0c0-4.6,3.7-8.3,8.3-8.3h0c4.6,0,8.3,3.7,8.3,8.3v0
	C106.9,600.9,103.2,604.6,98.6,604.6z"/>
<path class="st1" d="M121.2,604.6L121.2,604.6c-4.6,0-8.3-3.7-8.3-8.3v0c0-4.6,3.7-8.3,8.3-8.3h0c4.6,0,8.3,3.7,8.3,8.3v0
	C129.5,600.9,125.7,604.6,121.2,604.6z"/>
<path class="st1" d="M53.6,311L53.6,311c-4.6,0-8.3-3.7-8.3-8.3l0,0c0-4.6,3.7-8.3,8.3-8.3h0c4.6,0,8.3,3.7,8.3,8.3l0,0
	C61.8,307.3,58.1,311,53.6,311z"/>
<path class="st1" d="M76.1,311L76.1,311c-4.6,0-8.3-3.7-8.3-8.3l0,0c0-4.6,3.7-8.3,8.3-8.3h0c4.6,0,8.3,3.7,8.3,8.3l0,0
	C84.4,307.3,80.7,311,76.1,311z"/>
<path class="st1" d="M98.7,311L98.7,311c-4.6,0-8.3-3.7-8.3-8.3l0,0c0-4.6,3.7-8.3,8.3-8.3h0c4.6,0,8.3,3.7,8.3,8.3l0,0
	C107,307.3,103.3,311,98.7,311z"/>
<path class="st1" d="M121.3,311L121.3,311c-4.6,0-8.3-3.7-8.3-8.3l0,0c0-4.6,3.7-8.3,8.3-8.3h0c4.6,0,8.3,3.7,8.3,8.3l0,0
	C129.5,307.3,125.8,311,121.3,311z"/>
<path class="st1" d="M143.8,311L143.8,311c-4.6,0-8.3-3.7-8.3-8.3l0,0c0-4.6,3.7-8.3,8.3-8.3h0c4.6,0,8.3,3.7,8.3,8.3l0,0
	C152.1,307.3,148.4,311,143.8,311z"/>
<path class="st1" d="M166.4,311L166.4,311c-4.6,0-8.3-3.7-8.3-8.3l0,0c0-4.6,3.7-8.3,8.3-8.3h0c4.6,0,8.3,3.7,8.3,8.3l0,0
	C174.7,307.3,171,311,166.4,311z"/>
<path class="st1" d="M189,311L189,311c-4.6,0-8.3-3.7-8.3-8.3l0,0c0-4.6,3.7-8.3,8.3-8.3h0c4.6,0,8.3,3.7,8.3,8.3l0,0
	C197.3,307.3,193.5,311,189,311z"/>
<path class="st1" d="M211.5,311L211.5,311c-4.6,0-8.3-3.7-8.3-8.3l0,0c0-4.6,3.7-8.3,8.3-8.3h0c4.6,0,8.3,3.7,8.3,8.3l0,0
	C219.8,307.3,216.1,311,211.5,311z"/>
<path class="st1" d="M234.1,311L234.1,311c-4.6,0-8.3-3.7-8.3-8.3l0,0c0-4.6,3.7-8.3,8.3-8.3h0c4.6,0,8.3,3.7,8.3,8.3l0,0
	C242.4,307.3,238.7,311,234.1,311z"/>
<path class="st1" d="M256.7,311L256.7,311c-4.6,0-8.3-3.7-8.3-8.3l0,0c0-4.6,3.7-8.3,8.3-8.3h0c4.6,0,8.3,3.7,8.3,8.3l0,0
	C265,307.3,261.2,311,256.7,311z"/>
<path class="st1" d="M279.2,175.6L279.2,175.6c-4.6,0-8.3-3.7-8.3-8.3v0c0-4.6,3.7-8.3,8.3-8.3h0c4.6,0,8.3,3.7,8.3,8.3v0
	C287.5,171.9,283.8,175.6,279.2,175.6z"/>
<path class="st1" d="M279.2,220.7L279.2,220.7c-4.6,0-8.3-3.7-8.3-8.3v0c0-4.6,3.7-8.3,8.3-8.3l0,0c4.6,0,8.3,3.7,8.3,8.3v0
	C287.5,217,283.7,220.7,279.2,220.7z"/>
<path class="st1" d="M279.2,198.2L279.2,198.2c-4.6,0-8.3-3.7-8.3-8.3v0c0-4.6,3.7-8.3,8.3-8.3l0,0c4.6,0,8.3,3.7,8.3,8.3v0
	C287.5,194.4,283.7,198.2,279.2,198.2z"/>
<path class="st1" d="M279.2,243.3L279.2,243.3c-4.6,0-8.3-3.7-8.3-8.3v0c0-4.6,3.7-8.3,8.3-8.3h0c4.6,0,8.3,3.7,8.3,8.3v0
	C287.5,239.6,283.8,243.3,279.2,243.3z"/>
<path class="st1" d="M301.7,175.6L301.7,175.6c-4.6,0-8.3-3.7-8.3-8.3v0c0-4.6,3.7-8.3,8.3-8.3l0,0c4.6,0,8.3,3.7,8.3,8.3v0
	C310,171.9,306.3,175.6,301.7,175.6z"/>
<path class="st1" d="M301.7,220.7L301.7,220.7c-4.6,0-8.3-3.7-8.3-8.3v0c0-4.6,3.7-8.3,8.3-8.3l0,0c4.6,0,8.3,3.7,8.3,8.3v0
	C310,217,306.3,220.7,301.7,220.7z"/>
<path class="st1" d="M301.7,198.2L301.7,198.2c-4.6,0-8.3-3.7-8.3-8.3v0c0-4.6,3.7-8.3,8.3-8.3l0,0c4.6,0,8.3,3.7,8.3,8.3v0
	C310,194.4,306.3,198.2,301.7,198.2z"/>
<path class="st1" d="M8.4,627.3L8.4,627.3c-4.6,0-8.3-3.7-8.3-8.3l0,0c0-4.6,3.7-8.3,8.3-8.3h0c4.6,0,8.3,3.7,8.3,8.3l0,0
	C16.6,623.5,12.9,627.3,8.4,627.3z"/>
<path class="st1" d="M30.9,627.3L30.9,627.3c-4.6,0-8.3-3.7-8.3-8.3l0,0c0-4.6,3.7-8.3,8.3-8.3h0c4.6,0,8.3,3.7,8.3,8.3l0,0
	C39.2,623.5,35.5,627.3,30.9,627.3z"/>
<path class="st1" d="M53.5,627.3L53.5,627.3c-4.6,0-8.3-3.7-8.3-8.3l0,0c0-4.6,3.7-8.3,8.3-8.3h0c4.6,0,8.3,3.7,8.3,8.3l0,0
	C61.8,623.5,58,627.3,53.5,627.3z"/>
<path class="st1" d="M76.1,627.3L76.1,627.3c-4.6,0-8.3-3.7-8.3-8.3l0,0c0-4.6,3.7-8.3,8.3-8.3h0c4.6,0,8.3,3.7,8.3,8.3l0,0
	C84.3,623.5,80.6,627.3,76.1,627.3z"/>
<path class="st1" d="M98.6,627.3L98.6,627.3c-4.6,0-8.3-3.7-8.3-8.3l0,0c0-4.6,3.7-8.3,8.3-8.3h0c4.6,0,8.3,3.7,8.3,8.3l0,0
	C106.9,623.5,103.2,627.3,98.6,627.3z"/>
<path class="st1" d="M121.2,627.3L121.2,627.3c-4.6,0-8.3-3.7-8.3-8.3l0,0c0-4.6,3.7-8.3,8.3-8.3h0c4.6,0,8.3,3.7,8.3,8.3l0,0
	C129.5,623.5,125.8,627.3,121.2,627.3z"/>
<g>
	<text transform="matrix(1 0 0 1 142.0202 10.376)" class="st2 st3 st4">1</text>
	<text transform="matrix(1 0 0 1 164.0827 10.376)" class="st2 st3 st4">2</text>
	<text transform="matrix(1 0 0 1 186.6569 10.376)" class="st2 st3 st4">3</text>
	<text transform="matrix(1 0 0 1 209.1714 10.376)" class="st2 st3 st4">4</text>
	<text transform="matrix(1 0 0 1 231.8443 10.376)" class="st2 st3 st4">5</text>
	<text transform="matrix(1 0 0 1 254.1665 10.376)" class="st2 st3 st4">6</text>
	<text transform="matrix(1 0 0 1 277.1929 10.376)" class="st2 st3 st4">7</text>
	<text transform="matrix(1 0 0 1 299.3833 10.376)" class="st2 st3 st4">8</text>
	<text transform="matrix(1 0 0 1 321.8765 10.376)" class="st2 st3 st4">9</text>
	<text transform="matrix(1 0 0 1 342.5269 10.376)" class="st2 st3 st4">10</text>
	<text transform="matrix(1 0 0 1 6.5729 101.8536)" class="st2 st3 st4">1</text>
	<text transform="matrix(1 0 0 1 28.6344 101.8536)" class="st2 st3 st4">2</text>
	<text transform="matrix(1 0 0 1 51.2086 101.8536)" class="st2 st3 st4">3</text>
	<text transform="matrix(1 0 0 1 73.7233 101.8536)" class="st2 st3 st4">4</text>
	<text transform="matrix(1 0 0 1 96.3971 101.8536)" class="st2 st3 st4">5</text>
	<text transform="matrix(1 0 0 1 118.7194 101.8536)" class="st2 st3 st4">6</text>
	<text transform="matrix(1 0 0 1 141.7458 101.8536)" class="st2 st3 st4">7</text>
	<text transform="matrix(1 0 0 1 163.9362 101.8536)" class="st2 st3 st4">8</text>
	<text transform="matrix(1 0 0 1 186.4303 101.8536)" class="st2 st3 st4">9</text>
	<text transform="matrix(1 0 0 1 207.0796 101.8536)" class="st2 st3 st4">10</text>
	<text transform="matrix(1 0 0 1 230.562 101.8536)" class="st2 st3 st4">11</text>
	<text transform="matrix(1 0 0 1 252.6245 101.8536)" class="st2 st3 st4">12</text>
	<text transform="matrix(1 0 0 1 275.1978 101.8536)" class="st2 st3 st4">13</text>
	<text transform="matrix(1 0 0 1 297.7115 101.8536)" class="st2 st3 st4">14</text>
	<text transform="matrix(1 0 0 1 320.3863 101.8536)" class="st2 st3 st4">15</text>
	<text transform="matrix(1 0 0 1 342.7085 101.8536)" class="st2 st3 st4">16</text>
	<text transform="matrix(1 0 0 1 6.5729 79.2833)" class="st2 st3 st4">1</text>
	<text transform="matrix(1 0 0 1 28.6344 79.2833)" class="st2 st3 st4">2</text>
	<text transform="matrix(1 0 0 1 51.2086 79.2833)" class="st2 st3 st4">3</text>
	<text transform="matrix(1 0 0 1 73.7233 79.2833)" class="st2 st3 st4">4</text>
	<text transform="matrix(1 0 0 1 96.3971 79.2833)" class="st2 st3 st4">5</text>
	<text transform="matrix(1 0 0 1 118.7194 79.2833)" class="st2 st3 st4">6</text>
	<text transform="matrix(1 0 0 1 141.7458 79.2833)" class="st2 st3 st4">7</text>
	<text transform="matrix(1 0 0 1 163.9362 79.2833)" class="st2 st3 st4">8</text>
	<text transform="matrix(1 0 0 1 186.4303 79.2833)" class="st2 st3 st4">9</text>
	<text transform="matrix(1 0 0 1 207.0796 79.2833)" class="st2 st3 st4">10</text>
	<text transform="matrix(1 0 0 1 230.562 79.2833)" class="st2 st3 st4">11</text>
	<text transform="matrix(1 0 0 1 252.6245 79.2833)" class="st2 st3 st4">12</text>
	<text transform="matrix(1 0 0 1 275.1978 79.2833)" class="st2 st3 st4">13</text>
	<text transform="matrix(1 0 0 1 297.7115 79.2833)" class="st2 st3 st4">14</text>
	<text transform="matrix(1 0 0 1 320.3863 79.2833)" class="st2 st3 st4">15</text>
	<text transform="matrix(1 0 0 1 342.7085 79.2833)" class="st2 st3 st4">16</text>
	<text transform="matrix(1 0 0 1 6.5729 55.9415)" class="st2 st3 st4">1</text>
	<text transform="matrix(1 0 0 1 28.6344 55.9415)" class="st2 st3 st4">2</text>
	<text transform="matrix(1 0 0 1 51.2086 55.9415)" class="st2 st3 st4">3</text>
	<text transform="matrix(1 0 0 1 73.7233 55.9415)" class="st2 st3 st4">4</text>
	<text transform="matrix(1 0 0 1 96.3971 55.9415)" class="st2 st3 st4">5</text>
	<text transform="matrix(1 0 0 1 118.7194 55.9415)" class="st2 st3 st4">6</text>
	<text transform="matrix(1 0 0 1 141.7458 55.9415)" class="st2 st3 st4">7</text>
	<text transform="matrix(1 0 0 1 163.9362 55.9415)" class="st2 st3 st4">8</text>
	<text transform="matrix(1 0 0 1 186.4303 55.9415)" class="st2 st3 st4">9</text>
	<text transform="matrix(1 0 0 1 207.0796 55.9415)" class="st2 st3 st4">10</text>
	<text transform="matrix(1 0 0 1 230.562 55.9415)" class="st2 st3 st4">11</text>
	<text transform="matrix(1 0 0 1 252.6245 55.9415)" class="st2 st3 st4">12</text>
	<text transform="matrix(1 0 0 1 275.1978 55.9415)" class="st2 st3 st4">13</text>
	<text transform="matrix(1 0 0 1 297.7115 55.9415)" class="st2 st3 st4">14</text>
	<text transform="matrix(1 0 0 1 320.3863 55.9415)" class="st2 st3 st4">15</text>
	<text transform="matrix(1 0 0 1 342.7085 55.9415)" class="st2 st3 st4">16</text>
	<text transform="matrix(1 0 0 1 6.5993 146.9962)" class="st2 st3 st4">1</text>
	<text transform="matrix(1 0 0 1 28.6618 146.9962)" class="st2 st3 st4">2</text>
	<text transform="matrix(1 0 0 1 51.236 146.9962)" class="st2 st3 st4">3</text>
	<text transform="matrix(1 0 0 1 73.7506 146.9962)" class="st2 st3 st4">4</text>
	<text transform="matrix(1 0 0 1 96.4235 146.9962)" class="st2 st3 st4">5</text>
	<text transform="matrix(1 0 0 1 118.7458 146.9962)" class="st2 st3 st4">6</text>
	<text transform="matrix(1 0 0 1 141.7721 146.9962)" class="st2 st3 st4">7</text>
	<text transform="matrix(1 0 0 1 163.9626 146.9962)" class="st2 st3 st4">8</text>
	<text transform="matrix(1 0 0 1 186.4557 146.9962)" class="st2 st3 st4">9</text>
	<text transform="matrix(1 0 0 1 207.106 146.9962)" class="st2 st3 st4">10</text>
	<text transform="matrix(1 0 0 1 230.5884 146.9962)" class="st2 st3 st4">11</text>
	<text transform="matrix(1 0 0 1 252.6509 146.9962)" class="st2 st3 st4">12</text>
	<text transform="matrix(1 0 0 1 275.2251 146.9962)" class="st2 st3 st4">13</text>
	<text transform="matrix(1 0 0 1 297.7388 146.9962)" class="st2 st3 st4">14</text>
	<text transform="matrix(1 0 0 1 320.4126 146.9962)" class="st2 st3 st4">15</text>
	<text transform="matrix(1 0 0 1 51.8278 327.5958)" class="st2 st3 st4">1</text>
	<text transform="matrix(1 0 0 1 73.8903 327.5958)" class="st2 st3 st4">2</text>
	<text transform="matrix(1 0 0 1 96.4645 327.5958)" class="st2 st3 st4">3</text>
	<text transform="matrix(1 0 0 1 118.9791 327.5958)" class="st2 st3 st4">4</text>
	<text transform="matrix(1 0 0 1 141.652 327.5958)" class="st2 st3 st4">5</text>
	<text transform="matrix(1 0 0 1 163.9743 327.5958)" class="st2 st3 st4">6</text>
	<text transform="matrix(1 0 0 1 187.0006 327.5958)" class="st2 st3 st4">7</text>
	<text transform="matrix(1 0 0 1 209.1909 327.5958)" class="st2 st3 st4">8</text>
	<text transform="matrix(1 0 0 1 231.6841 327.5958)" class="st2 st3 st4">9</text>
	<text transform="matrix(1 0 0 1 51.8278 350.1475)" class="st2 st3 st4">1</text>
	<text transform="matrix(1 0 0 1 73.8903 350.1475)" class="st2 st3 st4">2</text>
	<text transform="matrix(1 0 0 1 96.4645 350.1475)" class="st2 st3 st4">3</text>
	<text transform="matrix(1 0 0 1 118.9791 350.1475)" class="st2 st3 st4">4</text>
	<text transform="matrix(1 0 0 1 141.652 350.1475)" class="st2 st3 st4">5</text>
	<text transform="matrix(1 0 0 1 163.9743 350.1475)" class="st2 st3 st4">6</text>
	<text transform="matrix(1 0 0 1 187.0006 350.1475)" class="st2 st3 st4">7</text>
	<text transform="matrix(1 0 0 1 209.1909 350.1475)" class="st2 st3 st4">8</text>
	<text transform="matrix(1 0 0 1 231.7632 350.0538)" class="st2 st3 st4">9</text>
	<text transform="matrix(1 0 0 1 231.7632 372.879)" class="st2 st3 st4">9</text>
	<text transform="matrix(1 0 0 1 51.8278 372.7833)" class="st2 st3 st4">1</text>
	<text transform="matrix(1 0 0 1 73.8903 372.7833)" class="st2 st3 st4">2</text>
	<text transform="matrix(1 0 0 1 96.4645 372.7833)" class="st2 st3 st4">3</text>
	<text transform="matrix(1 0 0 1 118.9791 372.7833)" class="st2 st3 st4">4</text>
	<text transform="matrix(1 0 0 1 141.652 372.7833)" class="st2 st3 st4">5</text>
	<text transform="matrix(1 0 0 1 163.9743 372.7833)" class="st2 st3 st4">6</text>
	<text transform="matrix(1 0 0 1 187.0006 372.7833)" class="st2 st3 st4">7</text>
	<text transform="matrix(1 0 0 1 209.1909 372.7833)" class="st2 st3 st4">8</text>
	<text transform="matrix(1 0 0 1 51.8278 395.335)" class="st2 st3 st4">1</text>
	<text transform="matrix(1 0 0 1 73.8903 395.335)" class="st2 st3 st4">2</text>
	<text transform="matrix(1 0 0 1 96.4645 395.335)" class="st2 st3 st4">3</text>
	<text transform="matrix(1 0 0 1 118.9791 395.335)" class="st2 st3 st4">4</text>
	<text transform="matrix(1 0 0 1 141.652 395.335)" class="st2 st3 st4">5</text>
	<text transform="matrix(1 0 0 1 163.9743 395.335)" class="st2 st3 st4">6</text>
	<text transform="matrix(1 0 0 1 187.0006 395.335)" class="st2 st3 st4">7</text>
	<text transform="matrix(1 0 0 1 209.1909 395.335)" class="st2 st3 st4">8</text>
	<text transform="matrix(1 0 0 1 209.1909 418.1934)" class="st2 st3 st4">8</text>
	<text transform="matrix(1 0 0 1 51.8278 417.9678)" class="st2 st3 st4">1</text>
	<text transform="matrix(1 0 0 1 73.8903 417.9678)" class="st2 st3 st4">2</text>
	<text transform="matrix(1 0 0 1 96.4645 417.9678)" class="st2 st3 st4">3</text>
	<text transform="matrix(1 0 0 1 118.9791 417.9678)" class="st2 st3 st4">4</text>
	<text transform="matrix(1 0 0 1 141.652 417.9678)" class="st2 st3 st4">5</text>
	<text transform="matrix(1 0 0 1 163.9743 417.9678)" class="st2 st3 st4">6</text>
	<text transform="matrix(1 0 0 1 187.0006 417.9678)" class="st2 st3 st4">7</text>
	<text transform="matrix(1 0 0 1 6.5993 440.5206)" class="st2 st3 st4">1</text>
	<text transform="matrix(1 0 0 1 28.6618 440.5206)" class="st2 st3 st4">2</text>
	<text transform="matrix(1 0 0 1 51.236 440.5206)" class="st2 st3 st4">3</text>
	<text transform="matrix(1 0 0 1 73.7506 440.5206)" class="st2 st3 st4">4</text>
	<text transform="matrix(1 0 0 1 96.4235 440.5206)" class="st2 st3 st4">5</text>
	<text transform="matrix(1 0 0 1 118.7458 440.5206)" class="st2 st3 st4">6</text>
	<text transform="matrix(1 0 0 1 141.7721 440.5206)" class="st2 st3 st4">7</text>
	<text transform="matrix(1 0 0 1 163.9626 440.5206)" class="st2 st3 st4">8</text>
	<text transform="matrix(1 0 0 1 186.4557 440.5206)" class="st2 st3 st4">9</text>
	<text transform="matrix(1 0 0 1 207.106 440.5206)" class="st2 st3 st4">10</text>
	<text transform="matrix(1 0 0 1 207.106 462.8145)" class="st2 st3 st4">10</text>
	<text transform="matrix(1 0 0 1 6.5993 124.4258)" class="st2 st3 st4">1</text>
	<text transform="matrix(1 0 0 1 28.6618 124.4258)" class="st2 st3 st4">2</text>
	<text transform="matrix(1 0 0 1 51.236 124.4258)" class="st2 st3 st4">3</text>
	<text transform="matrix(1 0 0 1 73.7506 124.4258)" class="st2 st3 st4">4</text>
	<text transform="matrix(1 0 0 1 96.4235 124.4258)" class="st2 st3 st4">5</text>
	<text transform="matrix(1 0 0 1 118.7458 124.4258)" class="st2 st3 st4">6</text>
	<text transform="matrix(1 0 0 1 141.7721 124.4258)" class="st2 st3 st4">7</text>
	<text transform="matrix(1 0 0 1 163.9626 124.4258)" class="st2 st3 st4">8</text>
	<text transform="matrix(1 0 0 1 186.4557 124.4258)" class="st2 st3 st4">9</text>
	<text transform="matrix(1 0 0 1 207.106 124.4258)" class="st2 st3 st4">10</text>
	<text transform="matrix(1 0 0 1 230.5884 124.4258)" class="st2 st3 st4">11</text>
	<text transform="matrix(1 0 0 1 252.6509 124.4258)" class="st2 st3 st4">12</text>
	<text transform="matrix(1 0 0 1 275.2251 124.4258)" class="st2 st3 st4">13</text>
	<text transform="matrix(1 0 0 1 297.7388 124.4258)" class="st2 st3 st4">14</text>
	<text transform="matrix(1 0 0 1 320.4126 124.4258)" class="st2 st3 st4">15</text>
	<text transform="matrix(1 0 0 1 6.5719 169.5538)" class="st2 st3 st4">1</text>
	<text transform="matrix(1 0 0 1 28.6344 169.5538)" class="st2 st3 st4">2</text>
	<text transform="matrix(1 0 0 1 51.2086 169.5538)" class="st2 st3 st4">3</text>
	<text transform="matrix(1 0 0 1 73.7233 169.5538)" class="st2 st3 st4">4</text>
	<text transform="matrix(1 0 0 1 96.3971 169.5538)" class="st2 st3 st4">5</text>
	<text transform="matrix(1 0 0 1 118.7194 169.5538)" class="st2 st3 st4">6</text>
	<text transform="matrix(1 0 0 1 141.7458 169.5538)" class="st2 st3 st4">7</text>
	<text transform="matrix(1 0 0 1 163.9362 169.5538)" class="st2 st3 st4">8</text>
	<text transform="matrix(1 0 0 1 186.4303 169.5538)" class="st2 st3 st4">9</text>
	<text transform="matrix(1 0 0 1 207.0806 169.5538)" class="st2 st3 st4">10</text>
	<text transform="matrix(1 0 0 1 230.5611 169.5538)" class="st2 st3 st4">11</text>
	<text transform="matrix(1 0 0 1 252.6236 169.5538)" class="st2 st3 st4">12</text>
	<text transform="matrix(1 0 0 1 275.1978 169.5538)" class="st2 st3 st4">13</text>
	<text transform="matrix(1 0 0 1 297.7115 169.5538)" class="st2 st3 st4">14</text>
	<text transform="matrix(1 0 0 1 6.5719 191.9044)" class="st2 st3 st4">1</text>
	<text transform="matrix(1 0 0 1 28.6344 191.9044)" class="st2 st3 st4">2</text>
	<text transform="matrix(1 0 0 1 51.2086 191.9044)" class="st2 st3 st4">3</text>
	<text transform="matrix(1 0 0 1 73.7233 191.9044)" class="st2 st3 st4">4</text>
	<text transform="matrix(1 0 0 1 96.3971 191.9044)" class="st2 st3 st4">5</text>
	<text transform="matrix(1 0 0 1 118.7194 191.9044)" class="st2 st3 st4">6</text>
	<text transform="matrix(1 0 0 1 141.7458 191.9044)" class="st2 st3 st4">7</text>
	<text transform="matrix(1 0 0 1 163.9362 191.9044)" class="st2 st3 st4">8</text>
	<text transform="matrix(1 0 0 1 186.4303 191.9044)" class="st2 st3 st4">9</text>
	<text transform="matrix(1 0 0 1 207.0806 191.9044)" class="st2 st3 st4">10</text>
	<text transform="matrix(1 0 0 1 230.5611 191.9044)" class="st2 st3 st4">11</text>
	<text transform="matrix(1 0 0 1 252.6236 191.9044)" class="st2 st3 st4">12</text>
	<text transform="matrix(1 0 0 1 275.1978 191.9044)" class="st2 st3 st4">13</text>
	<text transform="matrix(1 0 0 1 297.7115 191.9044)" class="st2 st3 st4">14</text>
	<text transform="matrix(1 0 0 1 6.5719 214.7383)" class="st2 st3 st4">1</text>
	<text transform="matrix(1 0 0 1 28.6344 214.7383)" class="st2 st3 st4">2</text>
	<text transform="matrix(1 0 0 1 51.2086 214.7383)" class="st2 st3 st4">3</text>
	<text transform="matrix(1 0 0 1 73.7233 214.7383)" class="st2 st3 st4">4</text>
	<text transform="matrix(1 0 0 1 96.3971 214.7383)" class="st2 st3 st4">5</text>
	<text transform="matrix(1 0 0 1 118.7194 214.7383)" class="st2 st3 st4">6</text>
	<text transform="matrix(1 0 0 1 141.7458 214.7383)" class="st2 st3 st4">7</text>
	<text transform="matrix(1 0 0 1 163.9362 214.7383)" class="st2 st3 st4">8</text>
	<text transform="matrix(1 0 0 1 186.4303 214.7383)" class="st2 st3 st4">9</text>
	<text transform="matrix(1 0 0 1 207.0806 214.7383)" class="st2 st3 st4">10</text>
	<text transform="matrix(1 0 0 1 230.5611 214.7383)" class="st2 st3 st4">11</text>
	<text transform="matrix(1 0 0 1 252.6236 214.7383)" class="st2 st3 st4">12</text>
	<text transform="matrix(1 0 0 1 275.1978 214.7383)" class="st2 st3 st4">13</text>
	<text transform="matrix(1 0 0 1 297.7115 214.7383)" class="st2 st3 st4">14</text>
	<text transform="matrix(1 0 0 1 51.9049 237.2686)" class="st2 st3 st4">1</text>
	<text transform="matrix(1 0 0 1 73.9674 237.2686)" class="st2 st3 st4">2</text>
	<text transform="matrix(1 0 0 1 96.5416 237.2686)" class="st2 st3 st4">3</text>
	<text transform="matrix(1 0 0 1 119.0563 237.2686)" class="st2 st3 st4">4</text>
	<text transform="matrix(1 0 0 1 141.7301 237.2686)" class="st2 st3 st4">5</text>
	<text transform="matrix(1 0 0 1 164.0524 237.2686)" class="st2 st3 st4">6</text>
	<text transform="matrix(1 0 0 1 187.0788 237.2686)" class="st2 st3 st4">7</text>
	<text transform="matrix(1 0 0 1 209.2691 237.2686)" class="st2 st3 st4">8</text>
	<text transform="matrix(1 0 0 1 231.7632 237.2686)" class="st2 st3 st4">9</text>
	<text transform="matrix(1 0 0 1 252.4136 237.2686)" class="st2 st3 st4">10</text>
	<text transform="matrix(1 0 0 1 275.8941 237.2686)" class="st2 st3 st4">11</text>
	<text transform="matrix(1 0 0 1 51.8004 259.6192)" class="st2 st3 st4">1</text>
	<text transform="matrix(1 0 0 1 73.8629 259.6192)" class="st2 st3 st4">2</text>
	<text transform="matrix(1 0 0 1 96.4372 259.6192)" class="st2 st3 st4">3</text>
	<text transform="matrix(1 0 0 1 118.9518 259.6192)" class="st2 st3 st4">4</text>
	<text transform="matrix(1 0 0 1 141.6256 259.6192)" class="st2 st3 st4">5</text>
	<text transform="matrix(1 0 0 1 163.9479 259.6192)" class="st2 st3 st4">6</text>
	<text transform="matrix(1 0 0 1 186.9743 259.6192)" class="st2 st3 st4">7</text>
	<text transform="matrix(1 0 0 1 209.1646 259.6192)" class="st2 st3 st4">8</text>
	<text transform="matrix(1 0 0 1 231.6587 259.6192)" class="st2 st3 st4">9</text>
	<text transform="matrix(1 0 0 1 252.3091 259.6192)" class="st2 st3 st4">10</text>
	<text transform="matrix(1 0 0 1 51.8004 282.4532)" class="st2 st3 st4">1</text>
	<text transform="matrix(1 0 0 1 73.8629 282.4532)" class="st2 st3 st4">2</text>
	<text transform="matrix(1 0 0 1 96.4372 282.4532)" class="st2 st3 st4">3</text>
	<text transform="matrix(1 0 0 1 118.9518 282.4532)" class="st2 st3 st4">4</text>
	<text transform="matrix(1 0 0 1 141.6256 282.4532)" class="st2 st3 st4">5</text>
	<text transform="matrix(1 0 0 1 163.9479 282.4532)" class="st2 st3 st4">6</text>
	<text transform="matrix(1 0 0 1 186.9743 282.4532)" class="st2 st3 st4">7</text>
	<text transform="matrix(1 0 0 1 209.1646 282.4532)" class="st2 st3 st4">8</text>
	<text transform="matrix(1 0 0 1 231.6587 282.4532)" class="st2 st3 st4">9</text>
	<text transform="matrix(1 0 0 1 252.3091 282.4532)" class="st2 st3 st4">10</text>
	<text transform="matrix(1 0 0 1 6.5719 463.1778)" class="st2 st3 st4">1</text>
	<text transform="matrix(1 0 0 1 28.6344 463.1778)" class="st2 st3 st4">2</text>
	<text transform="matrix(1 0 0 1 51.2086 463.1778)" class="st2 st3 st4">3</text>
	<text transform="matrix(1 0 0 1 73.7233 463.1778)" class="st2 st3 st4">4</text>
	<text transform="matrix(1 0 0 1 96.3971 463.1778)" class="st2 st3 st4">5</text>
	<text transform="matrix(1 0 0 1 118.7194 463.1778)" class="st2 st3 st4">6</text>
	<text transform="matrix(1 0 0 1 141.7458 463.1778)" class="st2 st3 st4">7</text>
	<text transform="matrix(1 0 0 1 163.9362 463.1778)" class="st2 st3 st4">8</text>
	<text transform="matrix(1 0 0 1 186.4303 463.1778)" class="st2 st3 st4">9</text>
	<text transform="matrix(1 0 0 1 6.5719 485.5294)" class="st2 st3 st4">1</text>
	<text transform="matrix(1 0 0 1 28.6344 485.5294)" class="st2 st3 st4">2</text>
	<text transform="matrix(1 0 0 1 51.2086 485.5294)" class="st2 st3 st4">3</text>
	<text transform="matrix(1 0 0 1 73.7233 485.5294)" class="st2 st3 st4">4</text>
	<text transform="matrix(1 0 0 1 96.3971 485.5294)" class="st2 st3 st4">5</text>
	<text transform="matrix(1 0 0 1 118.7194 485.5294)" class="st2 st3 st4">6</text>
	<text transform="matrix(1 0 0 1 141.7458 485.5294)" class="st2 st3 st4">7</text>
	<text transform="matrix(1 0 0 1 163.9362 485.5294)" class="st2 st3 st4">8</text>
	<text transform="matrix(1 0 0 1 186.4303 485.5294)" class="st2 st3 st4">9</text>
	<text transform="matrix(1 0 0 1 186.4303 508.168)" class="st2 st3 st4">9</text>
	<text transform="matrix(1 0 0 1 186.4303 530.5196)" class="st2 st3 st4">9</text>
	<text transform="matrix(1 0 0 1 6.5719 508.3624)" class="st2 st3 st4">1</text>
	<text transform="matrix(1 0 0 1 28.6344 508.3624)" class="st2 st3 st4">2</text>
	<text transform="matrix(1 0 0 1 51.2086 508.3624)" class="st2 st3 st4">3</text>
	<text transform="matrix(1 0 0 1 73.7233 508.3624)" class="st2 st3 st4">4</text>
	<text transform="matrix(1 0 0 1 96.3971 508.3624)" class="st2 st3 st4">5</text>
	<text transform="matrix(1 0 0 1 118.7194 508.3624)" class="st2 st3 st4">6</text>
	<text transform="matrix(1 0 0 1 141.7458 508.3624)" class="st2 st3 st4">7</text>
	<text transform="matrix(1 0 0 1 163.9362 508.3624)" class="st2 st3 st4">8</text>
	<text transform="matrix(1 0 0 1 6.5719 530.8926)" class="st2 st3 st4">1</text>
	<text transform="matrix(1 0 0 1 28.6344 530.8926)" class="st2 st3 st4">2</text>
	<text transform="matrix(1 0 0 1 51.2086 530.8926)" class="st2 st3 st4">3</text>
	<text transform="matrix(1 0 0 1 73.7233 530.8926)" class="st2 st3 st4">4</text>
	<text transform="matrix(1 0 0 1 96.3971 530.8926)" class="st2 st3 st4">5</text>
	<text transform="matrix(1 0 0 1 118.7194 530.8926)" class="st2 st3 st4">6</text>
	<text transform="matrix(1 0 0 1 141.7458 530.8926)" class="st2 st3 st4">7</text>
	<text transform="matrix(1 0 0 1 163.9362 530.8926)" class="st2 st3 st4">8</text>
	<text transform="matrix(1 0 0 1 163.9362 552.9258)" class="st2 st3 st4">8</text>
	<text transform="matrix(1 0 0 1 163.9362 575.7589)" class="st2 st3 st4">8</text>
	<text transform="matrix(1 0 0 1 163.9362 598.2891)" class="st2 st3 st4">8</text>
	<text transform="matrix(1 0 0 1 6.5719 553.2442)" class="st2 st3 st4">1</text>
	<text transform="matrix(1 0 0 1 28.6344 553.2442)" class="st2 st3 st4">2</text>
	<text transform="matrix(1 0 0 1 51.2086 553.2442)" class="st2 st3 st4">3</text>
	<text transform="matrix(1 0 0 1 73.7233 553.2442)" class="st2 st3 st4">4</text>
	<text transform="matrix(1 0 0 1 96.3971 553.2442)" class="st2 st3 st4">5</text>
	<text transform="matrix(1 0 0 1 118.7194 553.2442)" class="st2 st3 st4">6</text>
	<text transform="matrix(1 0 0 1 141.7458 553.2442)" class="st2 st3 st4">7</text>
	<text transform="matrix(1 0 0 1 6.5719 576.0772)" class="st2 st3 st4">1</text>
	<text transform="matrix(1 0 0 1 28.6344 576.0772)" class="st2 st3 st4">2</text>
	<text transform="matrix(1 0 0 1 51.2086 576.0772)" class="st2 st3 st4">3</text>
	<text transform="matrix(1 0 0 1 73.7233 576.0772)" class="st2 st3 st4">4</text>
	<text transform="matrix(1 0 0 1 96.3971 576.0772)" class="st2 st3 st4">5</text>
	<text transform="matrix(1 0 0 1 118.7194 576.0772)" class="st2 st3 st4">6</text>
	<text transform="matrix(1 0 0 1 141.7458 576.0772)" class="st2 st3 st4">7</text>
	<text transform="matrix(1 0 0 1 141.7458 598.3682)" class="st2 st3 st4">7</text>
	<text transform="matrix(1 0 0 1 141.7458 621.709)" class="st2 st3 st4">7</text>
	<text transform="matrix(1 0 0 1 6.5719 598.6602)" class="st2 st3 st4">1</text>
	<text transform="matrix(1 0 0 1 28.6344 598.6602)" class="st2 st3 st4">2</text>
	<text transform="matrix(1 0 0 1 51.2086 598.6602)" class="st2 st3 st4">3</text>
	<text transform="matrix(1 0 0 1 73.7233 598.6602)" class="st2 st3 st4">4</text>
	<text transform="matrix(1 0 0 1 96.3971 598.6602)" class="st2 st3 st4">5</text>
	<text transform="matrix(1 0 0 1 118.7194 598.6602)" class="st2 st3 st4">6</text>
	<text transform="matrix(1 0 0 1 6.5719 621.0069)" class="st2 st3 st4">1</text>
	<text transform="matrix(1 0 0 1 28.6344 621.0069)" class="st2 st3 st4">2</text>
	<text transform="matrix(1 0 0 1 51.2086 621.0069)" class="st2 st3 st4">3</text>
	<text transform="matrix(1 0 0 1 73.7233 621.0069)" class="st2 st3 st4">4</text>
	<text transform="matrix(1 0 0 1 96.3971 621.0069)" class="st2 st3 st4">5</text>
	<text transform="matrix(1 0 0 1 118.7194 621.0069)" class="st2 st3 st4">6</text>
	<text transform="matrix(1 0 0 1 51.8483 305.0587)" class="st2 st3 st4">1</text>
	<text transform="matrix(1 0 0 1 73.9108 305.0587)" class="st2 st3 st4">2</text>
	<text transform="matrix(1 0 0 1 96.484 305.0587)" class="st2 st3 st4">3</text>
	<text transform="matrix(1 0 0 1 118.9987 305.0587)" class="st2 st3 st4">4</text>
	<text transform="matrix(1 0 0 1 141.6725 305.0587)" class="st2 st3 st4">5</text>
	<text transform="matrix(1 0 0 1 163.9948 305.0587)" class="st2 st3 st4">6</text>
	<text transform="matrix(1 0 0 1 187.0211 305.0587)" class="st2 st3 st4">7</text>
	<text transform="matrix(1 0 0 1 209.2115 305.0587)" class="st2 st3 st4">8</text>
	<text transform="matrix(1 0 0 1 231.7056 305.0587)" class="st2 st3 st4">9</text>
	<text transform="matrix(1 0 0 1 252.356 305.0587)" class="st2 st3 st4">10</text>
</g>
<g>
	<text transform="matrix(1 0 0 1 415.2554 56.8174)" class="st5 st6 st7">29</text>
	<text transform="matrix(1 0 0 1 415.2554 12.4464)" class="st5 st6 st7">30</text>
	<text transform="matrix(1 0 0 1 415.2554 102.3135)" class="st5 st6 st7">27</text>
	<text transform="matrix(1 0 0 1 415.2554 79.7432)" class="st5 st6 st7">28</text>
	<text transform="matrix(1 0 0 1 415.2554 147.4561)" class="st5 st6 st7">25</text>
	<text transform="matrix(1 0 0 1 415.0952 328.0557)" class="st5 st6 st7">17</text>
	<text transform="matrix(1 0 0 1 415.0952 350.6075)" class="st5 st6 st7">16</text>
	<text transform="matrix(1 0 0 1 415.2554 373.2432)" class="st5 st6 st7">15</text>
	<text transform="matrix(1 0 0 1 415.2554 395.795)" class="st5 st6 st7">14</text>
	<text transform="matrix(1 0 0 1 415.0679 418.4278)" class="st5 st6 st7">13</text>
	<text transform="matrix(1 0 0 1 415.0952 440.9805)" class="st5 st6 st7">12</text>
	<text transform="matrix(1 0 0 1 415.4312 621.6778)" class="st5 st6 st7">4</text>
	<text transform="matrix(1 0 0 1 415.2554 124.8858)" class="st5 st6 st7">26</text>
	<text transform="matrix(1 0 0 1 415.2554 169.9102)" class="st5 st6 st7">24</text>
	<text transform="matrix(1 0 0 1 415.2554 215.0977)" class="st5 st6 st7">22</text>
	<text transform="matrix(1 0 0 1 415.2554 192.5274)" class="st5 st6 st7">23</text>
	<text transform="matrix(1 0 0 1 415.2554 260.2422)" class="st5 st6 st7">20</text>
	<text transform="matrix(1 0 0 1 415.2554 237.6719)" class="st5 st6 st7">21</text>
	<text transform="matrix(1 0 0 1 415.0679 305.3848)" class="st5 st6 st7">18</text>
	<text transform="matrix(1 0 0 1 415.0952 282.8145)" class="st5 st6 st7">19</text>
	<text transform="matrix(1 0 0 1 415.0952 463.5342)" class="st5 st6 st7">11</text>
	<text transform="matrix(1 0 0 1 415.0952 508.7217)" class="st5 st6 st7">9</text>
	<text transform="matrix(1 0 0 1 415.0952 486.1514)" class="st5 st6 st7">10</text>
	<text transform="matrix(1 0 0 1 415.7027 553.8672)" class="st5 st6 st7">7</text>
	<text transform="matrix(1 0 0 1 415.0679 531.2969)" class="st5 st6 st7">8</text>
	<text transform="matrix(1 0 0 1 415.0952 576.4395)" class="st5 st6 st7">6</text>
	<text transform="matrix(1 0 0 1 415.7027 599.0225)" class="st5 st6 st7">5</text>
</g>
</svg>
