<?xml version="1.0" encoding="utf-8"?>
<!-- Generator: Adobe Illustrator 20.1.0, SVG Export Plug-In . SVG Version: 6.00 Build 0)  -->
<svg version="1.1" id="Layer_1" xmlns="http://www.w3.org/2000/svg" xmlns:xlink="http://www.w3.org/1999/xlink" x="0px" y="0px"
	 viewBox="0 0 425.7 627.6" style="enable-background:new 0 0 425.7 627.6;" xml:space="preserve">
<style type="text/css">
	.st0{fill:#D9F6E1;}
	.st1{fill:#FFFFFF;}
	.st2{fill:#737373;}
	.st3{font-family:'OsnovaPro';}
	.st4{font-size:8px;}
	.st5{fill:#7B878F;}
	.st6{font-family:'OsnovaProLight';}
	.st7{font-size:9px;}
</style>
<path class="st0" d="M98.5,16.6L98.5,16.6c-4.6,0-8.3-3.7-8.3-8.3v0c0-4.6,3.7-8.3,8.3-8.3h0c4.6,0,8.3,3.7,8.3,8.3v0
	C106.8,12.8,103.1,16.6,98.5,16.6z"/>
<path class="st0" d="M121.1,16.6L121.1,16.6c-4.6,0-8.3-3.7-8.3-8.3v0c0-4.6,3.7-8.3,8.3-8.3h0c4.6,0,8.3,3.7,8.3,8.3v0
	C129.4,12.8,125.6,16.6,121.1,16.6z"/>
<path class="st0" d="M143.6,16.6L143.6,16.6c-4.6,0-8.3-3.7-8.3-8.3v0c0-4.6,3.7-8.3,8.3-8.3h0c4.6,0,8.3,3.7,8.3,8.3v0
	C151.8,12.8,148.1,16.6,143.6,16.6z"/>
<path class="st0" d="M166.1,16.6L166.1,16.6c-4.6,0-8.3-3.7-8.3-8.3v0c0-4.6,3.7-8.3,8.3-8.3h0c4.6,0,8.3,3.7,8.3,8.3v0
	C174.4,12.8,170.7,16.6,166.1,16.6z"/>
<path class="st0" d="M188.7,16.6L188.7,16.6c-4.6,0-8.3-3.7-8.3-8.3v0c0-4.6,3.7-8.3,8.3-8.3h0c4.6,0,8.3,3.7,8.3,8.3v0
	C197,12.8,193.3,16.6,188.7,16.6z"/>
<path class="st0" d="M211.3,16.6L211.3,16.6c-4.6,0-8.3-3.7-8.3-8.3v0c0-4.6,3.7-8.3,8.3-8.3h0c4.6,0,8.3,3.7,8.3,8.3v0
	C219.6,12.8,215.8,16.6,211.3,16.6z"/>
<path class="st0" d="M233.8,16.6L233.8,16.6c-4.6,0-8.3-3.7-8.3-8.3v0c0-4.6,3.7-8.3,8.3-8.3h0c4.6,0,8.3,3.7,8.3,8.3v0
	C242.1,12.8,238.4,16.6,233.8,16.6z"/>
<path class="st0" d="M256.4,16.6L256.4,16.6c-4.6,0-8.3-3.7-8.3-8.3v0c0-4.6,3.7-8.3,8.3-8.3l0,0c4.6,0,8.3,3.7,8.3,8.3v0
	C264.7,12.8,261,16.6,256.4,16.6z"/>
<path class="st0" d="M278.9,16.6L278.9,16.6c-4.6,0-8.3-3.7-8.3-8.3v0c0-4.6,3.7-8.3,8.3-8.3h0c4.6,0,8.3,3.7,8.3,8.3v0
	C287.2,12.8,283.5,16.6,278.9,16.6z"/>
<path class="st0" d="M301.5,16.6L301.5,16.6c-4.6,0-8.3-3.7-8.3-8.3v0c0-4.6,3.7-8.3,8.3-8.3l0,0c4.6,0,8.3,3.7,8.3,8.3v0
	C309.8,12.8,306.1,16.6,301.5,16.6z"/>
<path class="st0" d="M324.1,16.6L324.1,16.6c-4.6,0-8.3-3.7-8.3-8.3v0c0-4.6,3.7-8.3,8.3-8.3l0,0c4.6,0,8.3,3.7,8.3,8.3v0
	C332.4,12.8,328.6,16.6,324.1,16.6z"/>
<path class="st0" d="M346.7,16.6L346.7,16.6c-4.6,0-8.3-3.7-8.3-8.3v0c0-4.6,3.7-8.3,8.3-8.3h0c4.6,0,8.3,3.7,8.3,8.3v0
	C354.9,12.8,351.2,16.6,346.7,16.6z"/>
<path class="st1" d="M30.9,108.3L30.9,108.3c-4.6,0-8.3-3.7-8.3-8.3v0c0-4.6,3.7-8.3,8.3-8.3h0c4.6,0,8.3,3.7,8.3,8.3v0
	C39.1,104.6,35.4,108.3,30.9,108.3z"/>
<path class="st1" d="M53.4,108.3L53.4,108.3c-4.6,0-8.3-3.7-8.3-8.3v0c0-4.6,3.7-8.3,8.3-8.3h0c4.6,0,8.3,3.7,8.3,8.3v0
	C61.7,104.6,58,108.3,53.4,108.3z"/>
<path class="st1" d="M76,108.3L76,108.3c-4.6,0-8.3-3.7-8.3-8.3v0c0-4.6,3.7-8.3,8.3-8.3h0c4.6,0,8.3,3.7,8.3,8.3v0
	C84.3,104.6,80.6,108.3,76,108.3z"/>
<path class="st1" d="M98.6,108.3L98.6,108.3c-4.6,0-8.3-3.7-8.3-8.3v0c0-4.6,3.7-8.3,8.3-8.3h0c4.6,0,8.3,3.7,8.3,8.3v0
	C106.9,104.6,103.1,108.3,98.6,108.3z"/>
<path class="st1" d="M121.1,108.3L121.1,108.3c-4.6,0-8.3-3.7-8.3-8.3v0c0-4.6,3.7-8.3,8.3-8.3h0c4.6,0,8.3,3.7,8.3,8.3v0
	C129.4,104.6,125.7,108.3,121.1,108.3z"/>
<path class="st1" d="M143.7,108.3L143.7,108.3c-4.6,0-8.3-3.7-8.3-8.3v0c0-4.6,3.7-8.3,8.3-8.3h0c4.6,0,8.3,3.7,8.3,8.3v0
	C152,104.6,148.3,108.3,143.7,108.3z"/>
<path class="st1" d="M166.3,108.3L166.3,108.3c-4.6,0-8.3-3.7-8.3-8.3v0c0-4.6,3.7-8.3,8.3-8.3h0c4.6,0,8.3,3.7,8.3,8.3v0
	C174.6,104.6,170.8,108.3,166.3,108.3z"/>
<path class="st1" d="M188.8,108.3L188.8,108.3c-4.6,0-8.3-3.7-8.3-8.3v0c0-4.6,3.7-8.3,8.3-8.3h0c4.6,0,8.3,3.7,8.3,8.3v0
	C197.1,104.6,193.4,108.3,188.8,108.3z"/>
<path class="st1" d="M211.4,108.3L211.4,108.3c-4.6,0-8.3-3.7-8.3-8.3v0c0-4.6,3.7-8.3,8.3-8.3h0c4.6,0,8.3,3.7,8.3,8.3v0
	C219.7,104.6,216,108.3,211.4,108.3z"/>
<path class="st1" d="M234,108.3L234,108.3c-4.6,0-8.3-3.7-8.3-8.3v0c0-4.6,3.7-8.3,8.3-8.3h0c4.6,0,8.3,3.7,8.3,8.3v0
	C242.3,104.6,238.5,108.3,234,108.3z"/>
<path class="st1" d="M256.6,108.3L256.6,108.3c-4.6,0-8.3-3.7-8.3-8.3v0c0-4.6,3.7-8.3,8.3-8.3h0c4.6,0,8.3,3.7,8.3,8.3v0
	C264.8,104.6,261.1,108.3,256.6,108.3z"/>
<path class="st1" d="M279.1,108.3L279.1,108.3c-4.6,0-8.3-3.7-8.3-8.3v0c0-4.6,3.7-8.3,8.3-8.3h0c4.6,0,8.3,3.7,8.3,8.3v0
	C287.4,104.6,283.7,108.3,279.1,108.3z"/>
<path class="st1" d="M301.7,108.3L301.7,108.3c-4.6,0-8.3-3.7-8.3-8.3v0c0-4.6,3.7-8.3,8.3-8.3l0,0c4.6,0,8.3,3.7,8.3,8.3v0
	C310,104.6,306.3,108.3,301.7,108.3z"/>
<path class="st1" d="M8.3,85.7L8.3,85.7C3.7,85.7,0,82,0,77.4v0c0-4.6,3.7-8.3,8.3-8.3h0c4.6,0,8.3,3.7,8.3,8.3v0
	C16.6,82,12.8,85.7,8.3,85.7z"/>
<path class="st1" d="M30.9,85.7L30.9,85.7c-4.6,0-8.3-3.7-8.3-8.3v0c0-4.6,3.7-8.3,8.3-8.3h0c4.6,0,8.3,3.7,8.3,8.3v0
	C39.1,82,35.4,85.7,30.9,85.7z"/>
<path class="st1" d="M53.4,85.7L53.4,85.7c-4.6,0-8.3-3.7-8.3-8.3v0c0-4.6,3.7-8.3,8.3-8.3h0c4.6,0,8.3,3.7,8.3,8.3v0
	C61.7,82,58,85.7,53.4,85.7z"/>
<path class="st1" d="M76,85.7L76,85.7c-4.6,0-8.3-3.7-8.3-8.3v0c0-4.6,3.7-8.3,8.3-8.3h0c4.6,0,8.3,3.7,8.3,8.3v0
	C84.3,82,80.6,85.7,76,85.7z"/>
<path class="st1" d="M98.6,85.7L98.6,85.7c-4.6,0-8.3-3.7-8.3-8.3v0c0-4.6,3.7-8.3,8.3-8.3h0c4.6,0,8.3,3.7,8.3,8.3v0
	C106.9,82,103.1,85.7,98.6,85.7z"/>
<path class="st1" d="M121.1,85.7L121.1,85.7c-4.6,0-8.3-3.7-8.3-8.3v0c0-4.6,3.7-8.3,8.3-8.3h0c4.6,0,8.3,3.7,8.3,8.3v0
	C129.4,82,125.7,85.7,121.1,85.7z"/>
<path class="st1" d="M143.7,85.7L143.7,85.7c-4.6,0-8.3-3.7-8.3-8.3v0c0-4.6,3.7-8.3,8.3-8.3h0c4.6,0,8.3,3.7,8.3,8.3v0
	C152,82,148.3,85.7,143.7,85.7z"/>
<path class="st1" d="M166.3,85.7L166.3,85.7c-4.6,0-8.3-3.7-8.3-8.3v0c0-4.6,3.7-8.3,8.3-8.3h0c4.6,0,8.3,3.7,8.3,8.3v0
	C174.6,82,170.8,85.7,166.3,85.7z"/>
<path class="st1" d="M188.8,85.7L188.8,85.7c-4.6,0-8.3-3.7-8.3-8.3v0c0-4.6,3.7-8.3,8.3-8.3h0c4.6,0,8.3,3.7,8.3,8.3v0
	C197.1,82,193.4,85.7,188.8,85.7z"/>
<path class="st1" d="M211.4,85.7L211.4,85.7c-4.6,0-8.3-3.7-8.3-8.3v0c0-4.6,3.7-8.3,8.3-8.3h0c4.6,0,8.3,3.7,8.3,8.3v0
	C219.7,82,216,85.7,211.4,85.7z"/>
<path class="st1" d="M234,85.7L234,85.7c-4.6,0-8.3-3.7-8.3-8.3v0c0-4.6,3.7-8.3,8.3-8.3h0c4.6,0,8.3,3.7,8.3,8.3v0
	C242.3,82,238.5,85.7,234,85.7z"/>
<path class="st1" d="M256.6,85.7L256.6,85.7c-4.6,0-8.3-3.7-8.3-8.3v0c0-4.6,3.7-8.3,8.3-8.3h0c4.6,0,8.3,3.7,8.3,8.3v0
	C264.8,82,261.1,85.7,256.6,85.7z"/>
<path class="st1" d="M279.1,85.7L279.1,85.7c-4.6,0-8.3-3.7-8.3-8.3v0c0-4.6,3.7-8.3,8.3-8.3h0c4.6,0,8.3,3.7,8.3,8.3v0
	C287.4,82,283.7,85.7,279.1,85.7z"/>
<path class="st1" d="M301.7,85.7L301.7,85.7c-4.6,0-8.3-3.7-8.3-8.3v0c0-4.6,3.7-8.3,8.3-8.3l0,0c4.6,0,8.3,3.7,8.3,8.3v0
	C310,82,306.3,85.7,301.7,85.7z"/>
<path class="st1" d="M53.5,153.4L53.5,153.4c-4.6,0-8.3-3.7-8.3-8.3v0c0-4.6,3.7-8.3,8.3-8.3h0c4.6,0,8.3,3.7,8.3,8.3v0
	C61.7,149.7,58,153.4,53.5,153.4z"/>
<path class="st1" d="M76,153.4L76,153.4c-4.6,0-8.3-3.7-8.3-8.3v0c0-4.6,3.7-8.3,8.3-8.3h0c4.6,0,8.3,3.7,8.3,8.3v0
	C84.3,149.7,80.6,153.4,76,153.4z"/>
<path class="st1" d="M98.6,153.4L98.6,153.4c-4.6,0-8.3-3.7-8.3-8.3v0c0-4.6,3.7-8.3,8.3-8.3h0c4.6,0,8.3,3.7,8.3,8.3v0
	C106.9,149.7,103.1,153.4,98.6,153.4z"/>
<path class="st1" d="M121.2,153.4L121.2,153.4c-4.6,0-8.3-3.7-8.3-8.3v0c0-4.6,3.7-8.3,8.3-8.3h0c4.6,0,8.3,3.7,8.3,8.3v0
	C129.4,149.7,125.7,153.4,121.2,153.4z"/>
<path class="st1" d="M143.7,153.4L143.7,153.4c-4.6,0-8.3-3.7-8.3-8.3v0c0-4.6,3.7-8.3,8.3-8.3h0c4.6,0,8.3,3.7,8.3,8.3v0
	C152,149.7,148.3,153.4,143.7,153.4z"/>
<path class="st1" d="M166.3,153.4L166.3,153.4c-4.6,0-8.3-3.7-8.3-8.3v0c0-4.6,3.7-8.3,8.3-8.3h0c4.6,0,8.3,3.7,8.3,8.3v0
	C174.6,149.7,170.9,153.4,166.3,153.4z"/>
<path class="st1" d="M188.9,153.4L188.9,153.4c-4.6,0-8.3-3.7-8.3-8.3v0c0-4.6,3.7-8.3,8.3-8.3h0c4.6,0,8.3,3.7,8.3,8.3v0
	C197.2,149.7,193.4,153.4,188.9,153.4z"/>
<path class="st1" d="M211.4,153.4L211.4,153.4c-4.6,0-8.3-3.7-8.3-8.3v0c0-4.6,3.7-8.3,8.3-8.3h0c4.6,0,8.3,3.7,8.3,8.3v0
	C219.7,149.7,216,153.4,211.4,153.4z"/>
<path class="st1" d="M234,153.4L234,153.4c-4.6,0-8.3-3.7-8.3-8.3v0c0-4.6,3.7-8.3,8.3-8.3h0c4.6,0,8.3,3.7,8.3,8.3v0
	C242.3,149.7,238.6,153.4,234,153.4z"/>
<path class="st1" d="M256.6,153.4L256.6,153.4c-4.6,0-8.3-3.7-8.3-8.3v0c0-4.6,3.7-8.3,8.3-8.3l0,0c4.6,0,8.3,3.7,8.3,8.3v0
	C264.9,149.7,261.1,153.4,256.6,153.4z"/>
<path class="st1" d="M279.2,153.4L279.2,153.4c-4.6,0-8.3-3.7-8.3-8.3v0c0-4.6,3.7-8.3,8.3-8.3l0,0c4.6,0,8.3,3.7,8.3,8.3v0
	C287.4,149.7,283.7,153.4,279.2,153.4z"/>
<path class="st1" d="M301.7,153.4L301.7,153.4c-4.6,0-8.3-3.7-8.3-8.3v0c0-4.6,3.7-8.3,8.3-8.3h0c4.6,0,8.3,3.7,8.3,8.3v0
	C310,149.7,306.3,153.4,301.7,153.4z"/>
<path class="st1" d="M143.7,334L143.7,334c-4.6,0-8.3-3.7-8.3-8.3l0,0c0-4.6,3.7-8.3,8.3-8.3h0c4.6,0,8.3,3.7,8.3,8.3l0,0
	C152,330.3,148.3,334,143.7,334z"/>
<path class="st1" d="M166.3,334L166.3,334c-4.6,0-8.3-3.7-8.3-8.3l0,0c0-4.6,3.7-8.3,8.3-8.3h0c4.6,0,8.3,3.7,8.3,8.3l0,0
	C174.6,330.3,170.9,334,166.3,334z"/>
<path class="st1" d="M188.9,334L188.9,334c-4.6,0-8.3-3.7-8.3-8.3l0,0c0-4.6,3.7-8.3,8.3-8.3h0c4.6,0,8.3,3.7,8.3,8.3l0,0
	C197.2,330.3,193.4,334,188.9,334z"/>
<path class="st1" d="M211.4,334L211.4,334c-4.6,0-8.3-3.7-8.3-8.3l0,0c0-4.6,3.7-8.3,8.3-8.3h0c4.6,0,8.3,3.7,8.3,8.3l0,0
	C219.7,330.3,216,334,211.4,334z"/>
<path class="st1" d="M234,334L234,334c-4.6,0-8.3-3.7-8.3-8.3l0,0c0-4.6,3.7-8.3,8.3-8.3h0c4.6,0,8.3,3.7,8.3,8.3l0,0
	C242.3,330.3,238.6,334,234,334z"/>
<path class="st1" d="M256.6,334L256.6,334c-4.6,0-8.3-3.7-8.3-8.3l0,0c0-4.6,3.7-8.3,8.3-8.3l0,0c4.6,0,8.3,3.7,8.3,8.3l0,0
	C264.9,330.3,261.1,334,256.6,334z"/>
<path class="st1" d="M143.7,356.6L143.7,356.6c-4.6,0-8.3-3.7-8.3-8.3v0c0-4.6,3.7-8.3,8.3-8.3h0c4.6,0,8.3,3.7,8.3,8.3v0
	C152,352.9,148.3,356.6,143.7,356.6z"/>
<path class="st1" d="M166.3,356.6L166.3,356.6c-4.6,0-8.3-3.7-8.3-8.3v0c0-4.6,3.7-8.3,8.3-8.3h0c4.6,0,8.3,3.7,8.3,8.3v0
	C174.6,352.9,170.9,356.6,166.3,356.6z"/>
<path class="st1" d="M188.9,356.6L188.9,356.6c-4.6,0-8.3-3.7-8.3-8.3v0c0-4.6,3.7-8.3,8.3-8.3h0c4.6,0,8.3,3.7,8.3,8.3v0
	C197.2,352.9,193.4,356.6,188.9,356.6z"/>
<path class="st1" d="M211.4,356.6L211.4,356.6c-4.6,0-8.3-3.7-8.3-8.3v0c0-4.6,3.7-8.3,8.3-8.3h0c4.6,0,8.3,3.7,8.3,8.3v0
	C219.7,352.9,216,356.6,211.4,356.6z"/>
<path class="st1" d="M234,356.6L234,356.6c-4.6,0-8.3-3.7-8.3-8.3v0c0-4.6,3.7-8.3,8.3-8.3h0c4.6,0,8.3,3.7,8.3,8.3v0
	C242.3,352.9,238.6,356.6,234,356.6z"/>
<path class="st1" d="M256.6,356.6L256.6,356.6c-4.6,0-8.3-3.7-8.3-8.3v0c0-4.6,3.7-8.3,8.3-8.3l0,0c4.6,0,8.3,3.7,8.3,8.3v0
	C264.9,352.9,261.1,356.6,256.6,356.6z"/>
<path class="st1" d="M143.7,379.2L143.7,379.2c-4.6,0-8.3-3.7-8.3-8.3l0,0c0-4.6,3.7-8.3,8.3-8.3h0c4.6,0,8.3,3.7,8.3,8.3l0,0
	C152,375.5,148.3,379.2,143.7,379.2z"/>
<path class="st1" d="M166.3,379.2L166.3,379.2c-4.6,0-8.3-3.7-8.3-8.3l0,0c0-4.6,3.7-8.3,8.3-8.3h0c4.6,0,8.3,3.7,8.3,8.3l0,0
	C174.6,375.5,170.9,379.2,166.3,379.2z"/>
<path class="st1" d="M188.9,379.2L188.9,379.2c-4.6,0-8.3-3.7-8.3-8.3l0,0c0-4.6,3.7-8.3,8.3-8.3h0c4.6,0,8.3,3.7,8.3,8.3l0,0
	C197.2,375.5,193.4,379.2,188.9,379.2z"/>
<path class="st1" d="M211.4,379.2L211.4,379.2c-4.6,0-8.3-3.7-8.3-8.3l0,0c0-4.6,3.7-8.3,8.3-8.3h0c4.6,0,8.3,3.7,8.3,8.3l0,0
	C219.7,375.5,216,379.2,211.4,379.2z"/>
<path class="st1" d="M234,379.2L234,379.2c-4.6,0-8.3-3.7-8.3-8.3l0,0c0-4.6,3.7-8.3,8.3-8.3h0c4.6,0,8.3,3.7,8.3,8.3l0,0
	C242.3,375.5,238.6,379.2,234,379.2z"/>
<path class="st1" d="M256.6,379.2L256.6,379.2c-4.6,0-8.3-3.7-8.3-8.3l0,0c0-4.6,3.7-8.3,8.3-8.3l0,0c4.6,0,8.3,3.7,8.3,8.3l0,0
	C264.9,375.5,261.1,379.2,256.6,379.2z"/>
<path class="st1" d="M166.3,401.8L166.3,401.8c-4.6,0-8.3-3.7-8.3-8.3v0c0-4.6,3.7-8.3,8.3-8.3h0c4.6,0,8.3,3.7,8.3,8.3v0
	C174.6,398,170.9,401.8,166.3,401.8z"/>
<path class="st1" d="M188.9,401.8L188.9,401.8c-4.6,0-8.3-3.7-8.3-8.3v0c0-4.6,3.7-8.3,8.3-8.3h0c4.6,0,8.3,3.7,8.3,8.3v0
	C197.2,398,193.4,401.8,188.9,401.8z"/>
<path class="st1" d="M211.4,401.8L211.4,401.8c-4.6,0-8.3-3.7-8.3-8.3v0c0-4.6,3.7-8.3,8.3-8.3h0c4.6,0,8.3,3.7,8.3,8.3v0
	C219.7,398,216,401.8,211.4,401.8z"/>
<path class="st1" d="M234,401.8L234,401.8c-4.6,0-8.3-3.7-8.3-8.3v0c0-4.6,3.7-8.3,8.3-8.3h0c4.6,0,8.3,3.7,8.3,8.3v0
	C242.3,398,238.6,401.8,234,401.8z"/>
<path class="st1" d="M256.6,401.8L256.6,401.8c-4.6,0-8.3-3.7-8.3-8.3v0c0-4.6,3.7-8.3,8.3-8.3l0,0c4.6,0,8.3,3.7,8.3,8.3v0
	C264.9,398,261.1,401.8,256.6,401.8z"/>
<path class="st1" d="M166.3,424.4L166.3,424.4c-4.6,0-8.3-3.7-8.3-8.3l0,0c0-4.6,3.7-8.3,8.3-8.3h0c4.6,0,8.3,3.7,8.3,8.3l0,0
	C174.6,420.7,170.9,424.4,166.3,424.4z"/>
<path class="st1" d="M188.9,424.4L188.9,424.4c-4.6,0-8.3-3.7-8.3-8.3l0,0c0-4.6,3.7-8.3,8.3-8.3h0c4.6,0,8.3,3.7,8.3,8.3l0,0
	C197.2,420.7,193.4,424.4,188.9,424.4z"/>
<path class="st1" d="M211.4,424.4L211.4,424.4c-4.6,0-8.3-3.7-8.3-8.3l0,0c0-4.6,3.7-8.3,8.3-8.3h0c4.6,0,8.3,3.7,8.3,8.3l0,0
	C219.7,420.7,216,424.4,211.4,424.4z"/>
<path class="st1" d="M234,424.4L234,424.4c-4.6,0-8.3-3.7-8.3-8.3l0,0c0-4.6,3.7-8.3,8.3-8.3h0c4.6,0,8.3,3.7,8.3,8.3l0,0
	C242.3,420.7,238.6,424.4,234,424.4z"/>
<path class="st1" d="M256.6,424.4L256.6,424.4c-4.6,0-8.3-3.7-8.3-8.3l0,0c0-4.6,3.7-8.3,8.3-8.3l0,0c4.6,0,8.3,3.7,8.3,8.3l0,0
	C264.9,420.7,261.1,424.4,256.6,424.4z"/>
<path class="st1" d="M166.3,447L166.3,447c-4.6,0-8.3-3.7-8.3-8.3l0,0c0-4.6,3.7-8.3,8.3-8.3h0c4.6,0,8.3,3.7,8.3,8.3l0,0
	C174.6,443.2,170.9,447,166.3,447z"/>
<path class="st1" d="M188.9,447L188.9,447c-4.6,0-8.3-3.7-8.3-8.3l0,0c0-4.6,3.7-8.3,8.3-8.3h0c4.6,0,8.3,3.7,8.3,8.3l0,0
	C197.2,443.2,193.4,447,188.9,447z"/>
<path class="st1" d="M211.4,447L211.4,447c-4.6,0-8.3-3.7-8.3-8.3l0,0c0-4.6,3.7-8.3,8.3-8.3h0c4.6,0,8.3,3.7,8.3,8.3l0,0
	C219.7,443.2,216,447,211.4,447z"/>
<path class="st1" d="M234,447L234,447c-4.6,0-8.3-3.7-8.3-8.3l0,0c0-4.6,3.7-8.3,8.3-8.3h0c4.6,0,8.3,3.7,8.3,8.3l0,0
	C242.3,443.2,238.6,447,234,447z"/>
<path class="st1" d="M256.6,447L256.6,447c-4.6,0-8.3-3.7-8.3-8.3l0,0c0-4.6,3.7-8.3,8.3-8.3l0,0c4.6,0,8.3,3.7,8.3,8.3l0,0
	C264.9,443.2,261.1,447,256.6,447z"/>
<path class="st1" d="M279.2,447L279.2,447c-4.6,0-8.3-3.7-8.3-8.3l0,0c0-4.6,3.7-8.3,8.3-8.3l0,0c4.6,0,8.3,3.7,8.3,8.3l0,0
	C287.4,443.2,283.7,447,279.2,447z"/>
<path class="st1" d="M301.7,447L301.7,447c-4.6,0-8.3-3.7-8.3-8.3l0,0c0-4.6,3.7-8.3,8.3-8.3h0c4.6,0,8.3,3.7,8.3,8.3l0,0
	C310,443.2,306.3,447,301.7,447z"/>
<path class="st1" d="M234,469.6L234,469.6c-4.6,0-8.3-3.7-8.3-8.3v0c0-4.6,3.7-8.3,8.3-8.3h0c4.6,0,8.3,3.7,8.3,8.3v0
	C242.3,465.9,238.6,469.6,234,469.6z"/>
<path class="st1" d="M256.6,469.6L256.6,469.6c-4.6,0-8.3-3.7-8.3-8.3v0c0-4.6,3.7-8.3,8.3-8.3h0c4.6,0,8.3,3.7,8.3,8.3v0
	C264.9,465.9,261.2,469.6,256.6,469.6z"/>
<path class="st1" d="M279.2,469.6L279.2,469.6c-4.6,0-8.3-3.7-8.3-8.3v0c0-4.6,3.7-8.3,8.3-8.3h0c4.6,0,8.3,3.7,8.3,8.3v0
	C287.5,465.9,283.7,469.6,279.2,469.6z"/>
<path class="st1" d="M234,492.2L234,492.2c-4.6,0-8.3-3.7-8.3-8.3v0c0-4.6,3.7-8.3,8.3-8.3h0c4.6,0,8.3,3.7,8.3,8.3v0
	C242.3,488.4,238.6,492.2,234,492.2z"/>
<path class="st1" d="M256.6,492.2L256.6,492.2c-4.6,0-8.3-3.7-8.3-8.3v0c0-4.6,3.7-8.3,8.3-8.3h0c4.6,0,8.3,3.7,8.3,8.3v0
	C264.9,488.4,261.2,492.2,256.6,492.2z"/>
<path class="st1" d="M279.2,492.2L279.2,492.2c-4.6,0-8.3-3.7-8.3-8.3v0c0-4.6,3.7-8.3,8.3-8.3h0c4.6,0,8.3,3.7,8.3,8.3v0
	C287.5,488.4,283.7,492.2,279.2,492.2z"/>
<path class="st1" d="M234,514.8L234,514.8c-4.6,0-8.3-3.7-8.3-8.3v0c0-4.6,3.7-8.3,8.3-8.3h0c4.6,0,8.3,3.7,8.3,8.3v0
	C242.3,511.1,238.6,514.8,234,514.8z"/>
<path class="st1" d="M256.6,514.8L256.6,514.8c-4.6,0-8.3-3.7-8.3-8.3v0c0-4.6,3.7-8.3,8.3-8.3h0c4.6,0,8.3,3.7,8.3,8.3v0
	C264.9,511.1,261.2,514.8,256.6,514.8z"/>
<path class="st1" d="M279.2,514.8L279.2,514.8c-4.6,0-8.3-3.7-8.3-8.3v0c0-4.6,3.7-8.3,8.3-8.3h0c4.6,0,8.3,3.7,8.3,8.3v0
	C287.5,511.1,283.7,514.8,279.2,514.8z"/>
<path class="st1" d="M234,537.3L234,537.3c-4.6,0-8.3-3.7-8.3-8.3l0,0c0-4.6,3.7-8.3,8.3-8.3h0c4.6,0,8.3,3.7,8.3,8.3l0,0
	C242.3,533.6,238.6,537.3,234,537.3z"/>
<path class="st1" d="M256.6,537.3L256.6,537.3c-4.6,0-8.3-3.7-8.3-8.3l0,0c0-4.6,3.7-8.3,8.3-8.3h0c4.6,0,8.3,3.7,8.3,8.3l0,0
	C264.9,533.6,261.2,537.3,256.6,537.3z"/>
<path class="st1" d="M279.2,537.3L279.2,537.3c-4.6,0-8.3-3.7-8.3-8.3l0,0c0-4.6,3.7-8.3,8.3-8.3h0c4.6,0,8.3,3.7,8.3,8.3l0,0
	C287.5,533.6,283.7,537.3,279.2,537.3z"/>
<path class="st1" d="M234,560L234,560c-4.6,0-8.3-3.7-8.3-8.3v0c0-4.6,3.7-8.3,8.3-8.3h0c4.6,0,8.3,3.7,8.3,8.3v0
	C242.3,556.3,238.6,560,234,560z"/>
<path class="st1" d="M256.6,560L256.6,560c-4.6,0-8.3-3.7-8.3-8.3v0c0-4.6,3.7-8.3,8.3-8.3h0c4.6,0,8.3,3.7,8.3,8.3v0
	C264.9,556.3,261.2,560,256.6,560z"/>
<path class="st1" d="M279.2,560L279.2,560c-4.6,0-8.3-3.7-8.3-8.3v0c0-4.6,3.7-8.3,8.3-8.3h0c4.6,0,8.3,3.7,8.3,8.3v0
	C287.5,556.3,283.7,560,279.2,560z"/>
<path class="st1" d="M234,582.5L234,582.5c-4.6,0-8.3-3.7-8.3-8.3l0,0c0-4.6,3.7-8.3,8.3-8.3h0c4.6,0,8.3,3.7,8.3,8.3l0,0
	C242.3,578.8,238.6,582.5,234,582.5z"/>
<path class="st1" d="M256.6,582.5L256.6,582.5c-4.6,0-8.3-3.7-8.3-8.3l0,0c0-4.6,3.7-8.3,8.3-8.3h0c4.6,0,8.3,3.7,8.3,8.3l0,0
	C264.9,578.8,261.2,582.5,256.6,582.5z"/>
<path class="st1" d="M279.2,582.5L279.2,582.5c-4.6,0-8.3-3.7-8.3-8.3l0,0c0-4.6,3.7-8.3,8.3-8.3h0c4.6,0,8.3,3.7,8.3,8.3l0,0
	C287.5,578.8,283.7,582.5,279.2,582.5z"/>
<path class="st1" d="M30.9,130.9L30.9,130.9c-4.6,0-8.3-3.7-8.3-8.3v0c0-4.6,3.7-8.3,8.3-8.3h0c4.6,0,8.3,3.7,8.3,8.3v0
	C39.2,127.1,35.4,130.9,30.9,130.9z"/>
<path class="st1" d="M53.5,130.9L53.5,130.9c-4.6,0-8.3-3.7-8.3-8.3v0c0-4.6,3.7-8.3,8.3-8.3h0c4.6,0,8.3,3.7,8.3,8.3v0
	C61.7,127.1,58,130.9,53.5,130.9z"/>
<path class="st1" d="M76,130.9L76,130.9c-4.6,0-8.3-3.7-8.3-8.3v0c0-4.6,3.7-8.3,8.3-8.3h0c4.6,0,8.3,3.7,8.3,8.3v0
	C84.3,127.1,80.6,130.9,76,130.9z"/>
<path class="st1" d="M98.6,130.9L98.6,130.9c-4.6,0-8.3-3.7-8.3-8.3v0c0-4.6,3.7-8.3,8.3-8.3h0c4.6,0,8.3,3.7,8.3,8.3v0
	C106.9,127.1,103.1,130.9,98.6,130.9z"/>
<path class="st1" d="M121.2,130.9L121.2,130.9c-4.6,0-8.3-3.7-8.3-8.3v0c0-4.6,3.7-8.3,8.3-8.3h0c4.6,0,8.3,3.7,8.3,8.3v0
	C129.4,127.1,125.7,130.9,121.2,130.9z"/>
<path class="st1" d="M143.7,130.9L143.7,130.9c-4.6,0-8.3-3.7-8.3-8.3v0c0-4.6,3.7-8.3,8.3-8.3h0c4.6,0,8.3,3.7,8.3,8.3v0
	C152,127.1,148.3,130.9,143.7,130.9z"/>
<path class="st1" d="M166.3,130.9L166.3,130.9c-4.6,0-8.3-3.7-8.3-8.3v0c0-4.6,3.7-8.3,8.3-8.3h0c4.6,0,8.3,3.7,8.3,8.3v0
	C174.6,127.1,170.9,130.9,166.3,130.9z"/>
<path class="st1" d="M188.9,130.9L188.9,130.9c-4.6,0-8.3-3.7-8.3-8.3v0c0-4.6,3.7-8.3,8.3-8.3h0c4.6,0,8.3,3.7,8.3,8.3v0
	C197.2,127.1,193.4,130.9,188.9,130.9z"/>
<path class="st1" d="M211.4,130.9L211.4,130.9c-4.6,0-8.3-3.7-8.3-8.3v0c0-4.6,3.7-8.3,8.3-8.3h0c4.6,0,8.3,3.7,8.3,8.3v0
	C219.7,127.1,216,130.9,211.4,130.9z"/>
<path class="st1" d="M234,130.9L234,130.9c-4.6,0-8.3-3.7-8.3-8.3v0c0-4.6,3.7-8.3,8.3-8.3h0c4.6,0,8.3,3.7,8.3,8.3v0
	C242.3,127.1,238.6,130.9,234,130.9z"/>
<path class="st1" d="M256.6,130.9L256.6,130.9c-4.6,0-8.3-3.7-8.3-8.3v0c0-4.6,3.7-8.3,8.3-8.3l0,0c4.6,0,8.3,3.7,8.3,8.3v0
	C264.9,127.1,261.1,130.9,256.6,130.9z"/>
<path class="st1" d="M279.2,130.9L279.2,130.9c-4.6,0-8.3-3.7-8.3-8.3v0c0-4.6,3.7-8.3,8.3-8.3l0,0c4.6,0,8.3,3.7,8.3,8.3v0
	C287.4,127.1,283.7,130.9,279.2,130.9z"/>
<path class="st1" d="M301.7,130.9L301.7,130.9c-4.6,0-8.3-3.7-8.3-8.3v0c0-4.6,3.7-8.3,8.3-8.3h0c4.6,0,8.3,3.7,8.3,8.3v0
	C310,127.1,306.3,130.9,301.7,130.9z"/>
<path class="st1" d="M53.5,176L53.5,176c-4.6,0-8.3-3.7-8.3-8.3v0c0-4.6,3.7-8.3,8.3-8.3h0c4.6,0,8.3,3.7,8.3,8.3v0
	C61.8,172.3,58,176,53.5,176z"/>
<path class="st1" d="M76,176L76,176c-4.6,0-8.3-3.7-8.3-8.3v0c0-4.6,3.7-8.3,8.3-8.3h0c4.6,0,8.3,3.7,8.3,8.3v0
	C84.3,172.3,80.6,176,76,176z"/>
<path class="st1" d="M98.6,176L98.6,176c-4.6,0-8.3-3.7-8.3-8.3v0c0-4.6,3.7-8.3,8.3-8.3h0c4.6,0,8.3,3.7,8.3,8.3v0
	C106.9,172.3,103.2,176,98.6,176z"/>
<path class="st1" d="M121.2,176L121.2,176c-4.6,0-8.3-3.7-8.3-8.3v0c0-4.6,3.7-8.3,8.3-8.3h0c4.6,0,8.3,3.7,8.3,8.3v0
	C129.5,172.3,125.7,176,121.2,176z"/>
<path class="st1" d="M143.8,176L143.8,176c-4.6,0-8.3-3.7-8.3-8.3v0c0-4.6,3.7-8.3,8.3-8.3h0c4.6,0,8.3,3.7,8.3,8.3v0
	C152,172.3,148.3,176,143.8,176z"/>
<path class="st1" d="M166.3,176L166.3,176c-4.6,0-8.3-3.7-8.3-8.3v0c0-4.6,3.7-8.3,8.3-8.3h0c4.6,0,8.3,3.7,8.3,8.3v0
	C174.6,172.3,170.9,176,166.3,176z"/>
<path class="st1" d="M188.9,176L188.9,176c-4.6,0-8.3-3.7-8.3-8.3v0c0-4.6,3.7-8.3,8.3-8.3h0c4.6,0,8.3,3.7,8.3,8.3v0
	C197.2,172.3,193.4,176,188.9,176z"/>
<path class="st1" d="M211.5,176L211.5,176c-4.6,0-8.3-3.7-8.3-8.3v0c0-4.6,3.7-8.3,8.3-8.3h0c4.6,0,8.3,3.7,8.3,8.3v0
	C219.7,172.3,216,176,211.5,176z"/>
<path class="st1" d="M76,221.1L76,221.1c-4.6,0-8.3-3.7-8.3-8.3v0c0-4.6,3.7-8.3,8.3-8.3h0c4.6,0,8.3,3.7,8.3,8.3v0
	C84.3,217.4,80.6,221.1,76,221.1z"/>
<path class="st1" d="M98.6,221.1L98.6,221.1c-4.6,0-8.3-3.7-8.3-8.3v0c0-4.6,3.7-8.3,8.3-8.3h0c4.6,0,8.3,3.7,8.3,8.3v0
	C106.9,217.4,103.1,221.1,98.6,221.1z"/>
<path class="st1" d="M121.2,221.1L121.2,221.1c-4.6,0-8.3-3.7-8.3-8.3v0c0-4.6,3.7-8.3,8.3-8.3h0c4.6,0,8.3,3.7,8.3,8.3v0
	C129.4,217.4,125.7,221.1,121.2,221.1z"/>
<path class="st1" d="M143.7,221.1L143.7,221.1c-4.6,0-8.3-3.7-8.3-8.3v0c0-4.6,3.7-8.3,8.3-8.3h0c4.6,0,8.3,3.7,8.3,8.3v0
	C152,217.4,148.3,221.1,143.7,221.1z"/>
<path class="st1" d="M166.3,221.1L166.3,221.1c-4.6,0-8.3-3.7-8.3-8.3v0c0-4.6,3.7-8.3,8.3-8.3h0c4.6,0,8.3,3.7,8.3,8.3v0
	C174.6,217.4,170.9,221.1,166.3,221.1z"/>
<path class="st1" d="M188.9,221.1L188.9,221.1c-4.6,0-8.3-3.7-8.3-8.3v0c0-4.6,3.7-8.3,8.3-8.3h0c4.6,0,8.3,3.7,8.3,8.3v0
	C197.2,217.4,193.4,221.1,188.9,221.1z"/>
<path class="st1" d="M211.4,221.1L211.4,221.1c-4.6,0-8.3-3.7-8.3-8.3v0c0-4.6,3.7-8.3,8.3-8.3h0c4.6,0,8.3,3.7,8.3,8.3v0
	C219.7,217.4,216,221.1,211.4,221.1z"/>
<path class="st1" d="M53.4,198.6L53.4,198.6c-4.6,0-8.3-3.7-8.3-8.3v0c0-4.6,3.7-8.3,8.3-8.3h0c4.6,0,8.3,3.7,8.3,8.3v0
	C61.7,194.8,58,198.6,53.4,198.6z"/>
<path class="st1" d="M76,198.6L76,198.6c-4.6,0-8.3-3.7-8.3-8.3v0c0-4.6,3.7-8.3,8.3-8.3h0c4.6,0,8.3,3.7,8.3,8.3v0
	C84.3,194.8,80.6,198.6,76,198.6z"/>
<path class="st1" d="M98.6,198.6L98.6,198.6c-4.6,0-8.3-3.7-8.3-8.3v0c0-4.6,3.7-8.3,8.3-8.3h0c4.6,0,8.3,3.7,8.3,8.3v0
	C106.9,194.8,103.1,198.6,98.6,198.6z"/>
<path class="st1" d="M121.2,198.6L121.2,198.6c-4.6,0-8.3-3.7-8.3-8.3v0c0-4.6,3.7-8.3,8.3-8.3h0c4.6,0,8.3,3.7,8.3,8.3v0
	C129.4,194.8,125.7,198.6,121.2,198.6z"/>
<path class="st1" d="M143.7,198.6L143.7,198.6c-4.6,0-8.3-3.7-8.3-8.3v0c0-4.6,3.7-8.3,8.3-8.3h0c4.6,0,8.3,3.7,8.3,8.3v0
	C152,194.8,148.3,198.6,143.7,198.6z"/>
<path class="st1" d="M166.3,198.6L166.3,198.6c-4.6,0-8.3-3.7-8.3-8.3v0c0-4.6,3.7-8.3,8.3-8.3h0c4.6,0,8.3,3.7,8.3,8.3v0
	C174.6,194.8,170.9,198.6,166.3,198.6z"/>
<path class="st1" d="M188.9,198.6L188.9,198.6c-4.6,0-8.3-3.7-8.3-8.3v0c0-4.6,3.7-8.3,8.3-8.3h0c4.6,0,8.3,3.7,8.3,8.3v0
	C197.2,194.8,193.4,198.6,188.9,198.6z"/>
<path class="st1" d="M211.4,198.6L211.4,198.6c-4.6,0-8.3-3.7-8.3-8.3v0c0-4.6,3.7-8.3,8.3-8.3h0c4.6,0,8.3,3.7,8.3,8.3v0
	C219.7,194.8,216,198.6,211.4,198.6z"/>
<path class="st1" d="M98.6,243.7L98.6,243.7c-4.6,0-8.3-3.7-8.3-8.3v0c0-4.6,3.7-8.3,8.3-8.3h0c4.6,0,8.3,3.7,8.3,8.3v0
	C106.9,240,103.2,243.7,98.6,243.7z"/>
<path class="st1" d="M121.2,243.7L121.2,243.7c-4.6,0-8.3-3.7-8.3-8.3v0c0-4.6,3.7-8.3,8.3-8.3h0c4.6,0,8.3,3.7,8.3,8.3v0
	C129.5,240,125.7,243.7,121.2,243.7z"/>
<path class="st1" d="M143.8,243.7L143.8,243.7c-4.6,0-8.3-3.7-8.3-8.3v0c0-4.6,3.7-8.3,8.3-8.3h0c4.6,0,8.3,3.7,8.3,8.3v0
	C152,240,148.3,243.7,143.8,243.7z"/>
<path class="st1" d="M166.3,243.7L166.3,243.7c-4.6,0-8.3-3.7-8.3-8.3v0c0-4.6,3.7-8.3,8.3-8.3h0c4.6,0,8.3,3.7,8.3,8.3v0
	C174.6,240,170.9,243.7,166.3,243.7z"/>
<path class="st1" d="M188.9,243.7L188.9,243.7c-4.6,0-8.3-3.7-8.3-8.3v0c0-4.6,3.7-8.3,8.3-8.3h0c4.6,0,8.3,3.7,8.3,8.3v0
	C197.2,240,193.4,243.7,188.9,243.7z"/>
<path class="st1" d="M211.5,243.7L211.5,243.7c-4.6,0-8.3-3.7-8.3-8.3v0c0-4.6,3.7-8.3,8.3-8.3h0c4.6,0,8.3,3.7,8.3,8.3v0
	C219.7,240,216,243.7,211.5,243.7z"/>
<path class="st1" d="M121.2,288.8L121.2,288.8c-4.6,0-8.3-3.7-8.3-8.3v0c0-4.6,3.7-8.3,8.3-8.3h0c4.6,0,8.3,3.7,8.3,8.3v0
	C129.4,285.1,125.7,288.8,121.2,288.8z"/>
<path class="st1" d="M143.7,288.8L143.7,288.8c-4.6,0-8.3-3.7-8.3-8.3v0c0-4.6,3.7-8.3,8.3-8.3h0c4.6,0,8.3,3.7,8.3,8.3v0
	C152,285.1,148.3,288.8,143.7,288.8z"/>
<path class="st1" d="M166.3,288.8L166.3,288.8c-4.6,0-8.3-3.7-8.3-8.3v0c0-4.6,3.7-8.3,8.3-8.3h0c4.6,0,8.3,3.7,8.3,8.3v0
	C174.6,285.1,170.9,288.8,166.3,288.8z"/>
<path class="st1" d="M188.9,288.8L188.9,288.8c-4.6,0-8.3-3.7-8.3-8.3v0c0-4.6,3.7-8.3,8.3-8.3h0c4.6,0,8.3,3.7,8.3,8.3v0
	C197.2,285.1,193.4,288.8,188.9,288.8z"/>
<path class="st1" d="M211.4,288.8L211.4,288.8c-4.6,0-8.3-3.7-8.3-8.3v0c0-4.6,3.7-8.3,8.3-8.3h0c4.6,0,8.3,3.7,8.3,8.3v0
	C219.7,285.1,216,288.8,211.4,288.8z"/>
<path class="st1" d="M98.6,266.3L98.6,266.3c-4.6,0-8.3-3.7-8.3-8.3l0,0c0-4.6,3.7-8.3,8.3-8.3h0c4.6,0,8.3,3.7,8.3,8.3l0,0
	C106.9,262.5,103.1,266.3,98.6,266.3z"/>
<path class="st1" d="M121.2,266.3L121.2,266.3c-4.6,0-8.3-3.7-8.3-8.3l0,0c0-4.6,3.7-8.3,8.3-8.3h0c4.6,0,8.3,3.7,8.3,8.3l0,0
	C129.4,262.5,125.7,266.3,121.2,266.3z"/>
<path class="st1" d="M143.7,266.3L143.7,266.3c-4.6,0-8.3-3.7-8.3-8.3l0,0c0-4.6,3.7-8.3,8.3-8.3h0c4.6,0,8.3,3.7,8.3,8.3l0,0
	C152,262.5,148.3,266.3,143.7,266.3z"/>
<path class="st1" d="M166.3,266.3L166.3,266.3c-4.6,0-8.3-3.7-8.3-8.3l0,0c0-4.6,3.7-8.3,8.3-8.3h0c4.6,0,8.3,3.7,8.3,8.3l0,0
	C174.6,262.5,170.9,266.3,166.3,266.3z"/>
<path class="st1" d="M188.9,266.3L188.9,266.3c-4.6,0-8.3-3.7-8.3-8.3l0,0c0-4.6,3.7-8.3,8.3-8.3h0c4.6,0,8.3,3.7,8.3,8.3l0,0
	C197.2,262.5,193.4,266.3,188.9,266.3z"/>
<path class="st1" d="M211.4,266.3L211.4,266.3c-4.6,0-8.3-3.7-8.3-8.3l0,0c0-4.6,3.7-8.3,8.3-8.3h0c4.6,0,8.3,3.7,8.3,8.3l0,0
	C219.7,262.5,216,266.3,211.4,266.3z"/>
<path class="st1" d="M166.3,469.6L166.3,469.6c-4.6,0-8.3-3.7-8.3-8.3v0c0-4.6,3.7-8.3,8.3-8.3h0c4.6,0,8.3,3.7,8.3,8.3v0
	C174.6,465.9,170.9,469.6,166.3,469.6z"/>
<path class="st1" d="M188.9,469.6L188.9,469.6c-4.6,0-8.3-3.7-8.3-8.3v0c0-4.6,3.7-8.3,8.3-8.3h0c4.6,0,8.3,3.7,8.3,8.3v0
	C197.2,465.9,193.5,469.6,188.9,469.6z"/>
<path class="st1" d="M211.5,469.6L211.5,469.6c-4.6,0-8.3-3.7-8.3-8.3v0c0-4.6,3.7-8.3,8.3-8.3h0c4.6,0,8.3,3.7,8.3,8.3v0
	C219.8,465.9,216,469.6,211.5,469.6z"/>
<path class="st1" d="M188.9,514.8L188.9,514.8c-4.6,0-8.3-3.7-8.3-8.3v0c0-4.6,3.7-8.3,8.3-8.3h0c4.6,0,8.3,3.7,8.3,8.3v0
	C197.2,511,193.4,514.8,188.9,514.8z"/>
<path class="st1" d="M211.5,514.8L211.5,514.8c-4.6,0-8.3-3.7-8.3-8.3v0c0-4.6,3.7-8.3,8.3-8.3h0c4.6,0,8.3,3.7,8.3,8.3v0
	C219.7,511,216,514.8,211.5,514.8z"/>
<path class="st1" d="M188.9,492.2L188.9,492.2c-4.6,0-8.3-3.7-8.3-8.3v0c0-4.6,3.7-8.3,8.3-8.3h0c4.6,0,8.3,3.7,8.3,8.3v0
	C197.2,488.5,193.4,492.2,188.9,492.2z"/>
<path class="st1" d="M211.5,492.2L211.5,492.2c-4.6,0-8.3-3.7-8.3-8.3v0c0-4.6,3.7-8.3,8.3-8.3h0c4.6,0,8.3,3.7,8.3,8.3v0
	C219.7,488.5,216,492.2,211.5,492.2z"/>
<path class="st1" d="M211.5,537.3L211.5,537.3c-4.6,0-8.3-3.7-8.3-8.3v0c0-4.6,3.7-8.3,8.3-8.3h0c4.6,0,8.3,3.7,8.3,8.3v0
	C219.8,533.6,216,537.3,211.5,537.3z"/>
<path class="st1" d="M211.5,559.9L211.5,559.9c-4.6,0-8.3-3.7-8.3-8.3l0,0c0-4.6,3.7-8.3,8.3-8.3h0c4.6,0,8.3,3.7,8.3,8.3l0,0
	C219.7,556.2,216,559.9,211.5,559.9z"/>
<path class="st1" d="M121.2,311.5L121.2,311.5c-4.6,0-8.3-3.7-8.3-8.3v0c0-4.6,3.7-8.3,8.3-8.3h0c4.6,0,8.3,3.7,8.3,8.3v0
	C129.4,307.7,125.7,311.5,121.2,311.5z"/>
<path class="st1" d="M143.7,311.5L143.7,311.5c-4.6,0-8.3-3.7-8.3-8.3v0c0-4.6,3.7-8.3,8.3-8.3h0c4.6,0,8.3,3.7,8.3,8.3v0
	C152,307.7,148.3,311.5,143.7,311.5z"/>
<path class="st1" d="M166.3,311.5L166.3,311.5c-4.6,0-8.3-3.7-8.3-8.3v0c0-4.6,3.7-8.3,8.3-8.3h0c4.6,0,8.3,3.7,8.3,8.3v0
	C174.6,307.7,170.9,311.5,166.3,311.5z"/>
<path class="st1" d="M188.9,311.5L188.9,311.5c-4.6,0-8.3-3.7-8.3-8.3v0c0-4.6,3.7-8.3,8.3-8.3h0c4.6,0,8.3,3.7,8.3,8.3v0
	C197.2,307.7,193.4,311.5,188.9,311.5z"/>
<path class="st1" d="M211.4,311.5L211.4,311.5c-4.6,0-8.3-3.7-8.3-8.3v0c0-4.6,3.7-8.3,8.3-8.3h0c4.6,0,8.3,3.7,8.3,8.3v0
	C219.7,307.7,216,311.5,211.4,311.5z"/>
<path class="st1" d="M234.1,176L234.1,176c-4.6,0-8.3-3.7-8.3-8.3v0c0-4.6,3.7-8.3,8.3-8.3h0c4.6,0,8.3,3.7,8.3,8.3v0
	C242.3,172.3,238.6,176,234.1,176z"/>
<path class="st1" d="M234,221.1L234,221.1c-4.6,0-8.3-3.7-8.3-8.3v0c0-4.6,3.7-8.3,8.3-8.3h0c4.6,0,8.3,3.7,8.3,8.3v0
	C242.3,217.4,238.6,221.1,234,221.1z"/>
<path class="st1" d="M234,198.6L234,198.6c-4.6,0-8.3-3.7-8.3-8.3v0c0-4.6,3.7-8.3,8.3-8.3h0c4.6,0,8.3,3.7,8.3,8.3v0
	C242.3,194.8,238.6,198.6,234,198.6z"/>
<path class="st1" d="M234.1,243.7L234.1,243.7c-4.6,0-8.3-3.7-8.3-8.3v0c0-4.6,3.7-8.3,8.3-8.3h0c4.6,0,8.3,3.7,8.3,8.3v0
	C242.3,240,238.6,243.7,234.1,243.7z"/>
<path class="st1" d="M234,288.8L234,288.8c-4.6,0-8.3-3.7-8.3-8.3v0c0-4.6,3.7-8.3,8.3-8.3h0c4.6,0,8.3,3.7,8.3,8.3v0
	C242.3,285.1,238.6,288.8,234,288.8z"/>
<path class="st1" d="M234,266.3L234,266.3c-4.6,0-8.3-3.7-8.3-8.3l0,0c0-4.6,3.7-8.3,8.3-8.3h0c4.6,0,8.3,3.7,8.3,8.3l0,0
	C242.3,262.5,238.6,266.3,234,266.3z"/>
<path class="st1" d="M234,311.5L234,311.5c-4.6,0-8.3-3.7-8.3-8.3v0c0-4.6,3.7-8.3,8.3-8.3h0c4.6,0,8.3,3.7,8.3,8.3v0
	C242.3,307.7,238.6,311.5,234,311.5z"/>
<path class="st1" d="M256.6,176L256.6,176c-4.6,0-8.3-3.7-8.3-8.3v0c0-4.6,3.7-8.3,8.3-8.3h0c4.6,0,8.3,3.7,8.3,8.3v0
	C264.9,172.3,261.1,176,256.6,176z"/>
<path class="st1" d="M256.6,221.1L256.6,221.1c-4.6,0-8.3-3.7-8.3-8.3v0c0-4.6,3.7-8.3,8.3-8.3h0c4.6,0,8.3,3.7,8.3,8.3v0
	C264.8,217.4,261.1,221.1,256.6,221.1z"/>
<path class="st1" d="M256.6,198.6L256.6,198.6c-4.6,0-8.3-3.7-8.3-8.3v0c0-4.6,3.7-8.3,8.3-8.3h0c4.6,0,8.3,3.7,8.3,8.3v0
	C264.8,194.8,261.1,198.6,256.6,198.6z"/>
<path class="st1" d="M256.6,243.7L256.6,243.7c-4.6,0-8.3-3.7-8.3-8.3v0c0-4.6,3.7-8.3,8.3-8.3h0c4.6,0,8.3,3.7,8.3,8.3v0
	C264.9,240,261.1,243.7,256.6,243.7z"/>
<path class="st1" d="M256.6,288.8L256.6,288.8c-4.6,0-8.3-3.7-8.3-8.3v0c0-4.6,3.7-8.3,8.3-8.3h0c4.6,0,8.3,3.7,8.3,8.3v0
	C264.8,285.1,261.1,288.8,256.6,288.8z"/>
<path class="st1" d="M256.6,266.3L256.6,266.3c-4.6,0-8.3-3.7-8.3-8.3l0,0c0-4.6,3.7-8.3,8.3-8.3h0c4.6,0,8.3,3.7,8.3,8.3l0,0
	C264.8,262.5,261.1,266.3,256.6,266.3z"/>
<path class="st1" d="M256.6,311.5L256.6,311.5c-4.6,0-8.3-3.7-8.3-8.3v0c0-4.6,3.7-8.3,8.3-8.3h0c4.6,0,8.3,3.7,8.3,8.3v0
	C264.8,307.7,261.1,311.5,256.6,311.5z"/>
<path class="st1" d="M279.2,176L279.2,176c-4.6,0-8.3-3.7-8.3-8.3v0c0-4.6,3.7-8.3,8.3-8.3h0c4.6,0,8.3,3.7,8.3,8.3v0
	C287.4,172.3,283.7,176,279.2,176z"/>
<path class="st1" d="M279.1,221.1L279.1,221.1c-4.6,0-8.3-3.7-8.3-8.3v0c0-4.6,3.7-8.3,8.3-8.3h0c4.6,0,8.3,3.7,8.3,8.3v0
	C287.4,217.4,283.7,221.1,279.1,221.1z"/>
<path class="st1" d="M279.1,198.6L279.1,198.6c-4.6,0-8.3-3.7-8.3-8.3v0c0-4.6,3.7-8.3,8.3-8.3h0c4.6,0,8.3,3.7,8.3,8.3v0
	C287.4,194.8,283.7,198.6,279.1,198.6z"/>
<path class="st1" d="M279.2,243.7L279.2,243.7c-4.6,0-8.3-3.7-8.3-8.3v0c0-4.6,3.7-8.3,8.3-8.3h0c4.6,0,8.3,3.7,8.3,8.3v0
	C287.4,240,283.7,243.7,279.2,243.7z"/>
<path class="st1" d="M301.8,176L301.8,176c-4.6,0-8.3-3.7-8.3-8.3v0c0-4.6,3.7-8.3,8.3-8.3h0c4.6,0,8.3,3.7,8.3,8.3v0
	C310.1,172.3,306.4,176,301.8,176z"/>
<path class="st1" d="M301.8,221.1L301.8,221.1c-4.6,0-8.3-3.7-8.3-8.3v0c0-4.6,3.7-8.3,8.3-8.3l0,0c4.6,0,8.3,3.7,8.3,8.3v0
	C310.1,217.4,306.4,221.1,301.8,221.1z"/>
<path class="st1" d="M301.8,198.6L301.8,198.6c-4.6,0-8.3-3.7-8.3-8.3v0c0-4.6,3.7-8.3,8.3-8.3l0,0c4.6,0,8.3,3.7,8.3,8.3v0
	C310.1,194.8,306.4,198.6,301.8,198.6z"/>
<path class="st1" d="M301.8,492L301.8,492c-4.6,0-8.3-3.7-8.3-8.3v0c0-4.6,3.7-8.3,8.3-8.3l0,0c4.6,0,8.3,3.7,8.3,8.3v0
	C310.1,488.3,306.4,492,301.8,492z"/>
<path class="st1" d="M301.8,469.4L301.8,469.4c-4.6,0-8.3-3.7-8.3-8.3v0c0-4.6,3.7-8.3,8.3-8.3l0,0c4.6,0,8.3,3.7,8.3,8.3v0
	C310.1,465.7,306.4,469.4,301.8,469.4z"/>
<path class="st1" d="M301.8,514.6L301.8,514.6c-4.6,0-8.3-3.7-8.3-8.3l0,0c0-4.6,3.7-8.3,8.3-8.3l0,0c4.6,0,8.3,3.7,8.3,8.3l0,0
	C310.1,510.9,306.4,514.6,301.8,514.6z"/>
<path class="st1" d="M301.9,559.9L301.9,559.9c-4.6,0-8.3-3.7-8.3-8.3l0,0c0-4.6,3.7-8.3,8.3-8.3h0c4.6,0,8.3,3.7,8.3,8.3l0,0
	C310.1,556.2,306.4,559.9,301.9,559.9z"/>
<path class="st1" d="M301.9,537.3L301.9,537.3c-4.6,0-8.3-3.7-8.3-8.3l0,0c0-4.6,3.7-8.3,8.3-8.3h0c4.6,0,8.3,3.7,8.3,8.3l0,0
	C310.1,533.6,306.4,537.3,301.9,537.3z"/>
<path class="st1" d="M301.9,582.5L301.9,582.5c-4.6,0-8.3-3.7-8.3-8.3l0,0c0-4.6,3.7-8.3,8.3-8.3h0c4.6,0,8.3,3.7,8.3,8.3l0,0
	C310.1,578.7,306.4,582.5,301.9,582.5z"/>
<path class="st1" d="M234,605.1L234,605.1c-4.6,0-8.3-3.7-8.3-8.3l0,0c0-4.6,3.7-8.3,8.3-8.3h0c4.6,0,8.3,3.7,8.3,8.3l0,0
	C242.3,601.3,238.6,605.1,234,605.1z"/>
<path class="st1" d="M256.6,605.1L256.6,605.1c-4.6,0-8.3-3.7-8.3-8.3l0,0c0-4.6,3.7-8.3,8.3-8.3h0c4.6,0,8.3,3.7,8.3,8.3l0,0
	C264.9,601.3,261.2,605.1,256.6,605.1z"/>
<path class="st1" d="M279.2,605.1L279.2,605.1c-4.6,0-8.3-3.7-8.3-8.3l0,0c0-4.6,3.7-8.3,8.3-8.3h0c4.6,0,8.3,3.7,8.3,8.3l0,0
	C287.5,601.3,283.7,605.1,279.2,605.1z"/>
<path class="st1" d="M301.9,605L301.9,605c-4.6,0-8.3-3.7-8.3-8.3v0c0-4.6,3.7-8.3,8.3-8.3h0c4.6,0,8.3,3.7,8.3,8.3v0
	C310.1,601.3,306.4,605,301.9,605z"/>
<path class="st1" d="M324.3,108.3L324.3,108.3c-4.6,0-8.3-3.7-8.3-8.3v0c0-4.6,3.7-8.3,8.3-8.3l0,0c4.6,0,8.3,3.7,8.3,8.3v0
	C332.6,104.6,328.9,108.3,324.3,108.3z"/>
<path class="st1" d="M346.9,108.3L346.9,108.3c-4.6,0-8.3-3.7-8.3-8.3v0c0-4.6,3.7-8.3,8.3-8.3l0,0c4.6,0,8.3,3.7,8.3,8.3v0
	C355.1,104.6,351.4,108.3,346.9,108.3z"/>
<path class="st1" d="M324.3,85.7L324.3,85.7c-4.6,0-8.3-3.7-8.3-8.3v0c0-4.6,3.7-8.3,8.3-8.3l0,0c4.6,0,8.3,3.7,8.3,8.3v0
	C332.6,82,328.9,85.7,324.3,85.7z"/>
<path class="st1" d="M346.9,85.7L346.9,85.7c-4.6,0-8.3-3.7-8.3-8.3v0c0-4.6,3.7-8.3,8.3-8.3l0,0c4.6,0,8.3,3.7,8.3,8.3v0
	C355.1,82,351.4,85.7,346.9,85.7z"/>
<path class="st1" d="M8.3,63.1L8.3,63.1c-4.6,0-8.3-3.7-8.3-8.3v0c0-4.6,3.7-8.3,8.3-8.3h0c4.6,0,8.3,3.7,8.3,8.3v0
	C16.6,59.4,12.8,63.1,8.3,63.1z"/>
<path class="st1" d="M30.9,63.1L30.9,63.1c-4.6,0-8.3-3.7-8.3-8.3v0c0-4.6,3.7-8.3,8.3-8.3h0c4.6,0,8.3,3.7,8.3,8.3v0
	C39.1,59.4,35.4,63.1,30.9,63.1z"/>
<path class="st1" d="M53.4,63.1L53.4,63.1c-4.6,0-8.3-3.7-8.3-8.3v0c0-4.6,3.7-8.3,8.3-8.3h0c4.6,0,8.3,3.7,8.3,8.3v0
	C61.7,59.4,58,63.1,53.4,63.1z"/>
<path class="st1" d="M76,63.1L76,63.1c-4.6,0-8.3-3.7-8.3-8.3v0c0-4.6,3.7-8.3,8.3-8.3h0c4.6,0,8.3,3.7,8.3,8.3v0
	C84.3,59.4,80.6,63.1,76,63.1z"/>
<path class="st1" d="M98.6,63.1L98.6,63.1c-4.6,0-8.3-3.7-8.3-8.3v0c0-4.6,3.7-8.3,8.3-8.3h0c4.6,0,8.3,3.7,8.3,8.3v0
	C106.9,59.4,103.1,63.1,98.6,63.1z"/>
<path class="st1" d="M121.1,63.1L121.1,63.1c-4.6,0-8.3-3.7-8.3-8.3v0c0-4.6,3.7-8.3,8.3-8.3h0c4.6,0,8.3,3.7,8.3,8.3v0
	C129.4,59.4,125.7,63.1,121.1,63.1z"/>
<path class="st1" d="M143.7,63.1L143.7,63.1c-4.6,0-8.3-3.7-8.3-8.3v0c0-4.6,3.7-8.3,8.3-8.3h0c4.6,0,8.3,3.7,8.3,8.3v0
	C152,59.4,148.3,63.1,143.7,63.1z"/>
<path class="st1" d="M166.3,63.1L166.3,63.1c-4.6,0-8.3-3.7-8.3-8.3v0c0-4.6,3.7-8.3,8.3-8.3h0c4.6,0,8.3,3.7,8.3,8.3v0
	C174.6,59.4,170.8,63.1,166.3,63.1z"/>
<path class="st1" d="M188.8,63.1L188.8,63.1c-4.6,0-8.3-3.7-8.3-8.3v0c0-4.6,3.7-8.3,8.3-8.3h0c4.6,0,8.3,3.7,8.3,8.3v0
	C197.1,59.4,193.4,63.1,188.8,63.1z"/>
<path class="st1" d="M211.4,63.1L211.4,63.1c-4.6,0-8.3-3.7-8.3-8.3v0c0-4.6,3.7-8.3,8.3-8.3h0c4.6,0,8.3,3.7,8.3,8.3v0
	C219.7,59.4,216,63.1,211.4,63.1z"/>
<path class="st1" d="M234,63.1L234,63.1c-4.6,0-8.3-3.7-8.3-8.3v0c0-4.6,3.7-8.3,8.3-8.3h0c4.6,0,8.3,3.7,8.3,8.3v0
	C242.3,59.4,238.5,63.1,234,63.1z"/>
<path class="st1" d="M256.6,63.1L256.6,63.1c-4.6,0-8.3-3.7-8.3-8.3v0c0-4.6,3.7-8.3,8.3-8.3h0c4.6,0,8.3,3.7,8.3,8.3v0
	C264.8,59.4,261.1,63.1,256.6,63.1z"/>
<path class="st1" d="M279.1,63.1L279.1,63.1c-4.6,0-8.3-3.7-8.3-8.3v0c0-4.6,3.7-8.3,8.3-8.3h0c4.6,0,8.3,3.7,8.3,8.3v0
	C287.4,59.4,283.7,63.1,279.1,63.1z"/>
<path class="st1" d="M301.7,63.1L301.7,63.1c-4.6,0-8.3-3.7-8.3-8.3v0c0-4.6,3.7-8.3,8.3-8.3l0,0c4.6,0,8.3,3.7,8.3,8.3v0
	C310,59.4,306.3,63.1,301.7,63.1z"/>
<path class="st1" d="M324.3,63.1L324.3,63.1c-4.6,0-8.3-3.7-8.3-8.3v0c0-4.6,3.7-8.3,8.3-8.3l0,0c4.6,0,8.3,3.7,8.3,8.3v0
	C332.6,59.4,328.9,63.1,324.3,63.1z"/>
<path class="st1" d="M346.9,63.1L346.9,63.1c-4.6,0-8.3-3.7-8.3-8.3v0c0-4.6,3.7-8.3,8.3-8.3l0,0c4.6,0,8.3,3.7,8.3,8.3v0
	C355.1,59.4,351.4,63.1,346.9,63.1z"/>
<path class="st1" d="M324.3,153.4L324.3,153.4c-4.6,0-8.3-3.7-8.3-8.3v0c0-4.6,3.7-8.3,8.3-8.3l0,0c4.6,0,8.3,3.7,8.3,8.3v0
	C332.6,149.7,328.9,153.4,324.3,153.4z"/>
<path class="st1" d="M346.9,153.4L346.9,153.4c-4.6,0-8.3-3.7-8.3-8.3v0c0-4.6,3.7-8.3,8.3-8.3h0c4.6,0,8.3,3.7,8.3,8.3v0
	C355.2,149.7,351.4,153.4,346.9,153.4z"/>
<path class="st1" d="M279.2,334L279.2,334c-4.6,0-8.3-3.7-8.3-8.3l0,0c0-4.6,3.7-8.3,8.3-8.3h0c4.6,0,8.3,3.7,8.3,8.3l0,0
	C287.5,330.3,283.7,334,279.2,334z"/>
<path class="st1" d="M279.2,356.6L279.2,356.6c-4.6,0-8.3-3.7-8.3-8.3v0c0-4.6,3.7-8.3,8.3-8.3h0c4.6,0,8.3,3.7,8.3,8.3v0
	C287.5,352.9,283.7,356.6,279.2,356.6z"/>
<path class="st1" d="M279.2,379.2L279.2,379.2c-4.6,0-8.3-3.7-8.3-8.3l0,0c0-4.6,3.7-8.3,8.3-8.3h0c4.6,0,8.3,3.7,8.3,8.3l0,0
	C287.5,375.5,283.7,379.2,279.2,379.2z"/>
<path class="st1" d="M279.2,401.8L279.2,401.8c-4.6,0-8.3-3.7-8.3-8.3v0c0-4.6,3.7-8.3,8.3-8.3h0c4.6,0,8.3,3.7,8.3,8.3v0
	C287.5,398,283.7,401.8,279.2,401.8z"/>
<path class="st1" d="M279.2,424.4L279.2,424.4c-4.6,0-8.3-3.7-8.3-8.3l0,0c0-4.6,3.7-8.3,8.3-8.3h0c4.6,0,8.3,3.7,8.3,8.3l0,0
	C287.5,420.7,283.7,424.4,279.2,424.4z"/>
<path class="st1" d="M324.3,447L324.3,447c-4.6,0-8.3-3.7-8.3-8.3l0,0c0-4.6,3.7-8.3,8.3-8.3l0,0c4.6,0,8.3,3.7,8.3,8.3l0,0
	C332.6,443.2,328.9,447,324.3,447z"/>
<path class="st1" d="M346.9,447L346.9,447c-4.6,0-8.3-3.7-8.3-8.3l0,0c0-4.6,3.7-8.3,8.3-8.3h0c4.6,0,8.3,3.7,8.3,8.3l0,0
	C355.2,443.2,351.4,447,346.9,447z"/>
<path class="st1" d="M324.3,469.6L324.3,469.6c-4.6,0-8.3-3.7-8.3-8.3v0c0-4.6,3.7-8.3,8.3-8.3l0,0c4.6,0,8.3,3.7,8.3,8.3v0
	C332.6,465.9,328.9,469.6,324.3,469.6z"/>
<path class="st1" d="M324.3,492.2L324.3,492.2c-4.6,0-8.3-3.7-8.3-8.3v0c0-4.6,3.7-8.3,8.3-8.3l0,0c4.6,0,8.3,3.7,8.3,8.3v0
	C332.6,488.4,328.9,492.2,324.3,492.2z"/>
<path class="st1" d="M324.3,514.8L324.3,514.8c-4.6,0-8.3-3.7-8.3-8.3v0c0-4.6,3.7-8.3,8.3-8.3l0,0c4.6,0,8.3,3.7,8.3,8.3v0
	C332.6,511.1,328.9,514.8,324.3,514.8z"/>
<path class="st1" d="M324.3,537.3L324.3,537.3c-4.6,0-8.3-3.7-8.3-8.3l0,0c0-4.6,3.7-8.3,8.3-8.3l0,0c4.6,0,8.3,3.7,8.3,8.3l0,0
	C332.6,533.6,328.9,537.3,324.3,537.3z"/>
<path class="st1" d="M324.3,560L324.3,560c-4.6,0-8.3-3.7-8.3-8.3v0c0-4.6,3.7-8.3,8.3-8.3l0,0c4.6,0,8.3,3.7,8.3,8.3v0
	C332.6,556.3,328.9,560,324.3,560z"/>
<path class="st1" d="M324.3,582.5L324.3,582.5c-4.6,0-8.3-3.7-8.3-8.3l0,0c0-4.6,3.7-8.3,8.3-8.3l0,0c4.6,0,8.3,3.7,8.3,8.3l0,0
	C332.6,578.8,328.9,582.5,324.3,582.5z"/>
<path class="st1" d="M324.3,605.2L324.3,605.2c-4.6,0-8.3-3.7-8.3-8.3l0,0c0-4.6,3.7-8.3,8.3-8.3l0,0c4.6,0,8.3,3.7,8.3,8.3l0,0
	C332.6,601.4,328.9,605.2,324.3,605.2z"/>
<path class="st1" d="M324.3,130.9L324.3,130.9c-4.6,0-8.3-3.7-8.3-8.3v0c0-4.6,3.7-8.3,8.3-8.3l0,0c4.6,0,8.3,3.7,8.3,8.3v0
	C332.6,127.1,328.9,130.9,324.3,130.9z"/>
<path class="st1" d="M346.9,130.9L346.9,130.9c-4.6,0-8.3-3.7-8.3-8.3v0c0-4.6,3.7-8.3,8.3-8.3h0c4.6,0,8.3,3.7,8.3,8.3v0
	C355.2,127.1,351.4,130.9,346.9,130.9z"/>
<path class="st1" d="M279.2,288.8L279.2,288.8c-4.6,0-8.3-3.7-8.3-8.3v0c0-4.6,3.7-8.3,8.3-8.3l0,0c4.6,0,8.3,3.7,8.3,8.3v0
	C287.5,285.1,283.8,288.8,279.2,288.8z"/>
<path class="st1" d="M279.2,266.3L279.2,266.3c-4.6,0-8.3-3.7-8.3-8.3l0,0c0-4.6,3.7-8.3,8.3-8.3l0,0c4.6,0,8.3,3.7,8.3,8.3l0,0
	C287.5,262.5,283.8,266.3,279.2,266.3z"/>
<path class="st1" d="M279.2,311.5L279.2,311.5c-4.6,0-8.3-3.7-8.3-8.3v0c0-4.6,3.7-8.3,8.3-8.3l0,0c4.6,0,8.3,3.7,8.3,8.3v0
	C287.5,307.7,283.8,311.5,279.2,311.5z"/>
<path class="st1" d="M301.8,243.7L301.8,243.7c-4.6,0-8.3-3.7-8.3-8.3v0c0-4.6,3.7-8.3,8.3-8.3l0,0c4.6,0,8.3,3.7,8.3,8.3v0
	C310.1,240,306.3,243.7,301.8,243.7z"/>
<path class="st1" d="M301.8,334L301.8,334c-4.6,0-8.3-3.7-8.3-8.3l0,0c0-4.6,3.7-8.3,8.3-8.3l0,0c4.6,0,8.3,3.7,8.3,8.3l0,0
	C310.1,330.3,306.3,334,301.8,334z"/>
<path class="st1" d="M301.8,356.6L301.8,356.6c-4.6,0-8.3-3.7-8.3-8.3v0c0-4.6,3.7-8.3,8.3-8.3l0,0c4.6,0,8.3,3.7,8.3,8.3v0
	C310.1,352.9,306.3,356.6,301.8,356.6z"/>
<path class="st1" d="M301.8,379.2L301.8,379.2c-4.6,0-8.3-3.7-8.3-8.3l0,0c0-4.6,3.7-8.3,8.3-8.3l0,0c4.6,0,8.3,3.7,8.3,8.3l0,0
	C310.1,375.5,306.3,379.2,301.8,379.2z"/>
<path class="st1" d="M301.8,401.8L301.8,401.8c-4.6,0-8.3-3.7-8.3-8.3v0c0-4.6,3.7-8.3,8.3-8.3l0,0c4.6,0,8.3,3.7,8.3,8.3v0
	C310.1,398,306.3,401.8,301.8,401.8z"/>
<path class="st1" d="M301.8,424.4L301.8,424.4c-4.6,0-8.3-3.7-8.3-8.3l0,0c0-4.6,3.7-8.3,8.3-8.3l0,0c4.6,0,8.3,3.7,8.3,8.3l0,0
	C310.1,420.7,306.3,424.4,301.8,424.4z"/>
<path class="st1" d="M301.8,288.8L301.8,288.8c-4.6,0-8.3-3.7-8.3-8.3v0c0-4.6,3.7-8.3,8.3-8.3l0,0c4.6,0,8.3,3.7,8.3,8.3v0
	C310.1,285.1,306.4,288.8,301.8,288.8z"/>
<path class="st1" d="M301.8,266.3L301.8,266.3c-4.6,0-8.3-3.7-8.3-8.3l0,0c0-4.6,3.7-8.3,8.3-8.3l0,0c4.6,0,8.3,3.7,8.3,8.3l0,0
	C310.1,262.5,306.4,266.3,301.8,266.3z"/>
<path class="st1" d="M301.8,311.5L301.8,311.5c-4.6,0-8.3-3.7-8.3-8.3v0c0-4.6,3.7-8.3,8.3-8.3l0,0c4.6,0,8.3,3.7,8.3,8.3v0
	C310.1,307.7,306.4,311.5,301.8,311.5z"/>
<path class="st1" d="M324.3,176L324.3,176c-4.6,0-8.3-3.7-8.3-8.3v0c0-4.6,3.7-8.3,8.3-8.3l0,0c4.6,0,8.3,3.7,8.3,8.3v0
	C332.6,172.3,328.9,176,324.3,176z"/>
<path class="st1" d="M324.3,221.1L324.3,221.1c-4.6,0-8.3-3.7-8.3-8.3v0c0-4.6,3.7-8.3,8.3-8.3h0c4.6,0,8.3,3.7,8.3,8.3v0
	C332.6,217.4,328.9,221.1,324.3,221.1z"/>
<path class="st1" d="M324.3,198.6L324.3,198.6c-4.6,0-8.3-3.7-8.3-8.3v0c0-4.6,3.7-8.3,8.3-8.3h0c4.6,0,8.3,3.7,8.3,8.3v0
	C332.6,194.8,328.9,198.6,324.3,198.6z"/>
<path class="st1" d="M347,176L347,176c-4.6,0-8.3-3.7-8.3-8.3v0c0-4.6,3.7-8.3,8.3-8.3h0c4.6,0,8.3,3.7,8.3,8.3v0
	C355.3,172.3,351.6,176,347,176z"/>
<path class="st1" d="M347,221.1L347,221.1c-4.6,0-8.3-3.7-8.3-8.3v0c0-4.6,3.7-8.3,8.3-8.3l0,0c4.6,0,8.3,3.7,8.3,8.3v0
	C355.3,217.4,351.5,221.1,347,221.1z"/>
<path class="st1" d="M347,198.6L347,198.6c-4.6,0-8.3-3.7-8.3-8.3v0c0-4.6,3.7-8.3,8.3-8.3l0,0c4.6,0,8.3,3.7,8.3,8.3v0
	C355.3,194.8,351.5,198.6,347,198.6z"/>
<path class="st1" d="M347,492L347,492c-4.6,0-8.3-3.7-8.3-8.3v0c0-4.6,3.7-8.3,8.3-8.3l0,0c4.6,0,8.3,3.7,8.3,8.3v0
	C355.3,488.3,351.5,492,347,492z"/>
<path class="st1" d="M347,469.4L347,469.4c-4.6,0-8.3-3.7-8.3-8.3v0c0-4.6,3.7-8.3,8.3-8.3l0,0c4.6,0,8.3,3.7,8.3,8.3v0
	C355.3,465.7,351.5,469.4,347,469.4z"/>
<path class="st1" d="M347,514.6L347,514.6c-4.6,0-8.3-3.7-8.3-8.3l0,0c0-4.6,3.7-8.3,8.3-8.3l0,0c4.6,0,8.3,3.7,8.3,8.3l0,0
	C355.3,510.9,351.5,514.6,347,514.6z"/>
<path class="st1" d="M347,559.9L347,559.9c-4.6,0-8.3-3.7-8.3-8.3l0,0c0-4.6,3.7-8.3,8.3-8.3h0c4.6,0,8.3,3.7,8.3,8.3l0,0
	C355.3,556.2,351.6,559.9,347,559.9z"/>
<path class="st1" d="M347,537.3L347,537.3c-4.6,0-8.3-3.7-8.3-8.3l0,0c0-4.6,3.7-8.3,8.3-8.3h0c4.6,0,8.3,3.7,8.3,8.3l0,0
	C355.3,533.6,351.6,537.3,347,537.3z"/>
<path class="st1" d="M347,582.5L347,582.5c-4.6,0-8.3-3.7-8.3-8.3l0,0c0-4.6,3.7-8.3,8.3-8.3h0c4.6,0,8.3,3.7,8.3,8.3l0,0
	C355.3,578.7,351.6,582.5,347,582.5z"/>
<path class="st1" d="M347,605L347,605c-4.6,0-8.3-3.7-8.3-8.3l0,0c0-4.6,3.7-8.3,8.3-8.3l0,0c4.6,0,8.3,3.7,8.3,8.3l0,0
	C355.3,601.3,351.5,605,347,605z"/>
<path class="st1" d="M234,627.6L234,627.6c-4.6,0-8.3-3.7-8.3-8.3l0,0c0-4.6,3.7-8.3,8.3-8.3h0c4.6,0,8.3,3.7,8.3,8.3l0,0
	C242.3,623.9,238.6,627.6,234,627.6z"/>
<g>
	<text transform="matrix(1 0 0 1 6.035 79.6885)" class="st2 st3 st4">1</text>
	<text transform="matrix(1 0 0 1 28.0965 79.6885)" class="st2 st3 st4">2</text>
	<text transform="matrix(1 0 0 1 50.6707 79.6885)" class="st2 st3 st4">3</text>
	<text transform="matrix(1 0 0 1 73.1854 79.6885)" class="st2 st3 st4">4</text>
	<text transform="matrix(1 0 0 1 95.8592 79.6885)" class="st2 st3 st4">5</text>
	<text transform="matrix(1 0 0 1 118.1815 79.6885)" class="st2 st3 st4">6</text>
	<text transform="matrix(1 0 0 1 141.2078 79.6885)" class="st2 st3 st4">7</text>
	<text transform="matrix(1 0 0 1 163.3983 79.6885)" class="st2 st3 st4">8</text>
	<text transform="matrix(1 0 0 1 185.8924 79.6885)" class="st2 st3 st4">9</text>
	<text transform="matrix(1 0 0 1 206.5417 79.6885)" class="st2 st3 st4">10</text>
	<text transform="matrix(1 0 0 1 230.0241 79.6885)" class="st2 st3 st4">11</text>
	<text transform="matrix(1 0 0 1 252.0866 79.6885)" class="st2 st3 st4">12</text>
	<text transform="matrix(1 0 0 1 274.6599 79.6885)" class="st2 st3 st4">13</text>
	<text transform="matrix(1 0 0 1 297.1736 79.6885)" class="st2 st3 st4">14</text>
	<text transform="matrix(1 0 0 1 319.8484 79.6885)" class="st2 st3 st4">15</text>
	<text transform="matrix(1 0 0 1 342.1706 79.6885)" class="st2 st3 st4">16</text>
	<text transform="matrix(1 0 0 1 6.1317 57.5323)" class="st2 st3 st4">1</text>
	<text transform="matrix(1 0 0 1 28.1932 57.5323)" class="st2 st3 st4">2</text>
	<text transform="matrix(1 0 0 1 50.7674 57.5323)" class="st2 st3 st4">3</text>
	<text transform="matrix(1 0 0 1 73.2821 57.5323)" class="st2 st3 st4">4</text>
	<text transform="matrix(1 0 0 1 95.9559 57.5323)" class="st2 st3 st4">5</text>
	<text transform="matrix(1 0 0 1 118.2782 57.5323)" class="st2 st3 st4">6</text>
	<text transform="matrix(1 0 0 1 141.3045 57.5323)" class="st2 st3 st4">7</text>
	<text transform="matrix(1 0 0 1 163.4949 57.5323)" class="st2 st3 st4">8</text>
	<text transform="matrix(1 0 0 1 185.9891 57.5323)" class="st2 st3 st4">9</text>
	<text transform="matrix(1 0 0 1 206.6384 57.5323)" class="st2 st3 st4">10</text>
	<text transform="matrix(1 0 0 1 230.1208 57.5323)" class="st2 st3 st4">11</text>
	<text transform="matrix(1 0 0 1 252.1833 57.5323)" class="st2 st3 st4">12</text>
	<text transform="matrix(1 0 0 1 274.7566 57.5323)" class="st2 st3 st4">13</text>
	<text transform="matrix(1 0 0 1 297.2702 57.5323)" class="st2 st3 st4">14</text>
	<text transform="matrix(1 0 0 1 319.945 57.5323)" class="st2 st3 st4">15</text>
	<text transform="matrix(1 0 0 1 342.2673 57.5323)" class="st2 st3 st4">16</text>
	<text transform="matrix(1 0 0 1 96.9002 10.2208)" class="st2 st3 st4">1</text>
	<text transform="matrix(1 0 0 1 118.9618 10.2208)" class="st2 st3 st4">2</text>
	<text transform="matrix(1 0 0 1 141.536 10.2208)" class="st2 st3 st4">3</text>
	<text transform="matrix(1 0 0 1 164.0506 10.2208)" class="st2 st3 st4">4</text>
	<text transform="matrix(1 0 0 1 186.7244 10.2208)" class="st2 st3 st4">5</text>
	<text transform="matrix(1 0 0 1 209.0466 10.2208)" class="st2 st3 st4">6</text>
	<text transform="matrix(1 0 0 1 232.073 10.2208)" class="st2 st3 st4">7</text>
	<text transform="matrix(1 0 0 1 254.2634 10.2208)" class="st2 st3 st4">8</text>
	<text transform="matrix(1 0 0 1 276.7575 10.2208)" class="st2 st3 st4">9</text>
	<text transform="matrix(1 0 0 1 297.407 10.2208)" class="st2 st3 st4">10</text>
	<text transform="matrix(1 0 0 1 320.8894 10.2208)" class="st2 st3 st4">11</text>
	<text transform="matrix(1 0 0 1 342.9519 10.2208)" class="st2 st3 st4">12</text>
	<text transform="matrix(1 0 0 1 141.7567 328.001)" class="st2 st3 st4">1</text>
	<text transform="matrix(1 0 0 1 163.8192 328.001)" class="st2 st3 st4">2</text>
	<text transform="matrix(1 0 0 1 186.3934 328.001)" class="st2 st3 st4">3</text>
	<text transform="matrix(1 0 0 1 208.9079 328.001)" class="st2 st3 st4">4</text>
	<text transform="matrix(1 0 0 1 231.5808 328.001)" class="st2 st3 st4">5</text>
	<text transform="matrix(1 0 0 1 253.903 328.001)" class="st2 st3 st4">6</text>
	<text transform="matrix(1 0 0 1 276.9294 328.001)" class="st2 st3 st4">7</text>
	<text transform="matrix(1 0 0 1 299.1198 328.001)" class="st2 st3 st4">8</text>
	<text transform="matrix(1 0 0 1 142.3992 350.5528)" class="st2 st3 st4">1</text>
	<text transform="matrix(1 0 0 1 164.4617 350.5528)" class="st2 st3 st4">2</text>
	<text transform="matrix(1 0 0 1 187.036 350.5528)" class="st2 st3 st4">3</text>
	<text transform="matrix(1 0 0 1 209.5505 350.5528)" class="st2 st3 st4">4</text>
	<text transform="matrix(1 0 0 1 232.2233 350.5528)" class="st2 st3 st4">5</text>
	<text transform="matrix(1 0 0 1 254.5456 350.5528)" class="st2 st3 st4">6</text>
	<text transform="matrix(1 0 0 1 277.572 350.5528)" class="st2 st3 st4">7</text>
	<text transform="matrix(1 0 0 1 299.7624 350.5528)" class="st2 st3 st4">8</text>
	<text transform="matrix(1 0 0 1 142.3992 372.8067)" class="st2 st3 st4">1</text>
	<text transform="matrix(1 0 0 1 164.4617 372.8067)" class="st2 st3 st4">2</text>
	<text transform="matrix(1 0 0 1 187.036 372.8067)" class="st2 st3 st4">3</text>
	<text transform="matrix(1 0 0 1 209.5505 372.8067)" class="st2 st3 st4">4</text>
	<text transform="matrix(1 0 0 1 232.2233 372.8067)" class="st2 st3 st4">5</text>
	<text transform="matrix(1 0 0 1 254.5456 372.8067)" class="st2 st3 st4">6</text>
	<text transform="matrix(1 0 0 1 277.572 372.8067)" class="st2 st3 st4">7</text>
	<text transform="matrix(1 0 0 1 299.7624 372.8067)" class="st2 st3 st4">8</text>
	<text transform="matrix(1 0 0 1 164.9686 396.6905)" class="st2 st3 st4">1</text>
	<text transform="matrix(1 0 0 1 187.0311 396.6905)" class="st2 st3 st4">2</text>
	<text transform="matrix(1 0 0 1 209.6052 396.6905)" class="st2 st3 st4">3</text>
	<text transform="matrix(1 0 0 1 232.1198 396.6905)" class="st2 st3 st4">4</text>
	<text transform="matrix(1 0 0 1 254.7927 396.6905)" class="st2 st3 st4">5</text>
	<text transform="matrix(1 0 0 1 277.115 396.6905)" class="st2 st3 st4">6</text>
	<text transform="matrix(1 0 0 1 300.1413 396.6905)" class="st2 st3 st4">7</text>
	<text transform="matrix(1 0 0 1 164.326 418.1104)" class="st2 st3 st4">1</text>
	<text transform="matrix(1 0 0 1 186.3885 418.1104)" class="st2 st3 st4">2</text>
	<text transform="matrix(1 0 0 1 208.9626 418.1104)" class="st2 st3 st4">3</text>
	<text transform="matrix(1 0 0 1 231.4772 418.1104)" class="st2 st3 st4">4</text>
	<text transform="matrix(1 0 0 1 254.1501 418.1104)" class="st2 st3 st4">5</text>
	<text transform="matrix(1 0 0 1 276.4724 418.1104)" class="st2 st3 st4">6</text>
	<text transform="matrix(1 0 0 1 299.4987 418.1104)" class="st2 st3 st4">7</text>
	<text transform="matrix(1 0 0 1 164.5457 440.9258)" class="st2 st3 st4">1</text>
	<text transform="matrix(1 0 0 1 186.6082 440.9258)" class="st2 st3 st4">2</text>
	<text transform="matrix(1 0 0 1 209.1823 440.9258)" class="st2 st3 st4">3</text>
	<text transform="matrix(1 0 0 1 231.697 440.9258)" class="st2 st3 st4">4</text>
	<text transform="matrix(1 0 0 1 254.3698 440.9258)" class="st2 st3 st4">5</text>
	<text transform="matrix(1 0 0 1 276.6921 440.9258)" class="st2 st3 st4">6</text>
	<text transform="matrix(1 0 0 1 299.7185 440.9258)" class="st2 st3 st4">7</text>
	<text transform="matrix(1 0 0 1 321.9089 440.9258)" class="st2 st3 st4">8</text>
	<text transform="matrix(1 0 0 1 344.4021 440.9258)" class="st2 st3 st4">9</text>
	<text transform="matrix(1 0 0 1 164.5457 463.1905)" class="st2 st3 st4">1</text>
	<text transform="matrix(1 0 0 1 186.6082 463.1905)" class="st2 st3 st4">2</text>
	<text transform="matrix(1 0 0 1 209.1823 463.1905)" class="st2 st3 st4">3</text>
	<text transform="matrix(1 0 0 1 231.697 463.1905)" class="st2 st3 st4">4</text>
	<text transform="matrix(1 0 0 1 254.3698 463.1905)" class="st2 st3 st4">5</text>
	<text transform="matrix(1 0 0 1 276.6921 463.1905)" class="st2 st3 st4">6</text>
	<text transform="matrix(1 0 0 1 299.7185 463.1905)" class="st2 st3 st4">7</text>
	<text transform="matrix(1 0 0 1 321.9089 463.1905)" class="st2 st3 st4">8</text>
	<text transform="matrix(1 0 0 1 344.4021 463.1905)" class="st2 st3 st4">9</text>
	<text transform="matrix(1 0 0 1 29.1698 124.8311)" class="st2 st3 st4">1</text>
	<text transform="matrix(1 0 0 1 51.2323 124.8311)" class="st2 st3 st4">2</text>
	<text transform="matrix(1 0 0 1 73.8065 124.8311)" class="st2 st3 st4">3</text>
	<text transform="matrix(1 0 0 1 96.3211 124.8311)" class="st2 st3 st4">4</text>
	<text transform="matrix(1 0 0 1 118.994 124.8311)" class="st2 st3 st4">5</text>
	<text transform="matrix(1 0 0 1 141.3162 124.8311)" class="st2 st3 st4">6</text>
	<text transform="matrix(1 0 0 1 164.3426 124.8311)" class="st2 st3 st4">7</text>
	<text transform="matrix(1 0 0 1 186.533 124.8311)" class="st2 st3 st4">8</text>
	<text transform="matrix(1 0 0 1 209.0261 124.8311)" class="st2 st3 st4">9</text>
	<text transform="matrix(1 0 0 1 229.6765 124.8311)" class="st2 st3 st4">10</text>
	<text transform="matrix(1 0 0 1 253.1589 124.8311)" class="st2 st3 st4">11</text>
	<text transform="matrix(1 0 0 1 275.2214 124.8311)" class="st2 st3 st4">12</text>
	<text transform="matrix(1 0 0 1 297.7956 124.8311)" class="st2 st3 st4">13</text>
	<text transform="matrix(1 0 0 1 320.3093 124.8311)" class="st2 st3 st4">14</text>
	<text transform="matrix(1 0 0 1 342.9831 124.8311)" class="st2 st3 st4">15</text>
	<text transform="matrix(1 0 0 1 29.1698 103.0801)" class="st2 st3 st4">1</text>
	<text transform="matrix(1 0 0 1 51.2323 103.0801)" class="st2 st3 st4">2</text>
	<text transform="matrix(1 0 0 1 73.8065 103.0801)" class="st2 st3 st4">3</text>
	<text transform="matrix(1 0 0 1 96.3211 103.0801)" class="st2 st3 st4">4</text>
	<text transform="matrix(1 0 0 1 118.994 103.0801)" class="st2 st3 st4">5</text>
	<text transform="matrix(1 0 0 1 141.3162 103.0801)" class="st2 st3 st4">6</text>
	<text transform="matrix(1 0 0 1 164.3426 103.0801)" class="st2 st3 st4">7</text>
	<text transform="matrix(1 0 0 1 186.533 103.0801)" class="st2 st3 st4">8</text>
	<text transform="matrix(1 0 0 1 209.0261 103.0801)" class="st2 st3 st4">9</text>
	<text transform="matrix(1 0 0 1 229.6765 103.0801)" class="st2 st3 st4">10</text>
	<text transform="matrix(1 0 0 1 253.1589 103.0801)" class="st2 st3 st4">11</text>
	<text transform="matrix(1 0 0 1 275.2214 103.0801)" class="st2 st3 st4">12</text>
	<text transform="matrix(1 0 0 1 297.7956 103.0801)" class="st2 st3 st4">13</text>
	<text transform="matrix(1 0 0 1 320.3093 103.0801)" class="st2 st3 st4">14</text>
	<text transform="matrix(1 0 0 1 342.9831 103.0801)" class="st2 st3 st4">15</text>
	<text transform="matrix(1 0 0 1 51.2723 169.959)" class="st2 st3 st4">1</text>
	<text transform="matrix(1 0 0 1 73.3348 169.959)" class="st2 st3 st4">2</text>
	<text transform="matrix(1 0 0 1 95.909 169.959)" class="st2 st3 st4">3</text>
	<text transform="matrix(1 0 0 1 118.4237 169.959)" class="st2 st3 st4">4</text>
	<text transform="matrix(1 0 0 1 141.0975 169.959)" class="st2 st3 st4">5</text>
	<text transform="matrix(1 0 0 1 163.4198 169.959)" class="st2 st3 st4">6</text>
	<text transform="matrix(1 0 0 1 186.4461 169.959)" class="st2 st3 st4">7</text>
	<text transform="matrix(1 0 0 1 208.6364 169.959)" class="st2 st3 st4">8</text>
	<text transform="matrix(1 0 0 1 231.1306 169.959)" class="st2 st3 st4">9</text>
	<text transform="matrix(1 0 0 1 251.781 169.959)" class="st2 st3 st4">10</text>
	<text transform="matrix(1 0 0 1 275.2614 169.959)" class="st2 st3 st4">11</text>
	<text transform="matrix(1 0 0 1 297.3239 169.959)" class="st2 st3 st4">12</text>
	<text transform="matrix(1 0 0 1 319.8982 169.959)" class="st2 st3 st4">13</text>
	<text transform="matrix(1 0 0 1 342.4118 169.959)" class="st2 st3 st4">14</text>
	<text transform="matrix(1 0 0 1 51.2723 147.0089)" class="st2 st3 st4">1</text>
	<text transform="matrix(1 0 0 1 73.3348 147.0089)" class="st2 st3 st4">2</text>
	<text transform="matrix(1 0 0 1 95.909 147.0089)" class="st2 st3 st4">3</text>
	<text transform="matrix(1 0 0 1 118.4237 147.0089)" class="st2 st3 st4">4</text>
	<text transform="matrix(1 0 0 1 141.0975 147.0089)" class="st2 st3 st4">5</text>
	<text transform="matrix(1 0 0 1 163.4198 147.0089)" class="st2 st3 st4">6</text>
	<text transform="matrix(1 0 0 1 186.4461 147.0089)" class="st2 st3 st4">7</text>
	<text transform="matrix(1 0 0 1 208.6364 147.0089)" class="st2 st3 st4">8</text>
	<text transform="matrix(1 0 0 1 231.1306 147.0089)" class="st2 st3 st4">9</text>
	<text transform="matrix(1 0 0 1 251.781 147.0089)" class="st2 st3 st4">10</text>
	<text transform="matrix(1 0 0 1 275.2614 147.0089)" class="st2 st3 st4">11</text>
	<text transform="matrix(1 0 0 1 297.3239 147.0089)" class="st2 st3 st4">12</text>
	<text transform="matrix(1 0 0 1 319.8982 147.0089)" class="st2 st3 st4">13</text>
	<text transform="matrix(1 0 0 1 342.4118 147.0089)" class="st2 st3 st4">14</text>
	<text transform="matrix(1 0 0 1 51.2723 192.502)" class="st2 st3 st4">1</text>
	<text transform="matrix(1 0 0 1 73.3348 192.502)" class="st2 st3 st4">2</text>
	<text transform="matrix(1 0 0 1 95.909 192.502)" class="st2 st3 st4">3</text>
	<text transform="matrix(1 0 0 1 118.4237 192.502)" class="st2 st3 st4">4</text>
	<text transform="matrix(1 0 0 1 141.0975 192.502)" class="st2 st3 st4">5</text>
	<text transform="matrix(1 0 0 1 163.4198 192.502)" class="st2 st3 st4">6</text>
	<text transform="matrix(1 0 0 1 186.4461 192.502)" class="st2 st3 st4">7</text>
	<text transform="matrix(1 0 0 1 208.6364 192.502)" class="st2 st3 st4">8</text>
	<text transform="matrix(1 0 0 1 231.1306 192.502)" class="st2 st3 st4">9</text>
	<text transform="matrix(1 0 0 1 251.781 192.502)" class="st2 st3 st4">10</text>
	<text transform="matrix(1 0 0 1 275.2614 192.502)" class="st2 st3 st4">11</text>
	<text transform="matrix(1 0 0 1 297.3239 192.502)" class="st2 st3 st4">12</text>
	<text transform="matrix(1 0 0 1 319.8982 192.502)" class="st2 st3 st4">13</text>
	<text transform="matrix(1 0 0 1 342.4118 192.502)" class="st2 st3 st4">14</text>
	<text transform="matrix(1 0 0 1 73.8836 215.1417)" class="st2 st3 st4">1</text>
	<text transform="matrix(1 0 0 1 95.9461 215.1417)" class="st2 st3 st4">2</text>
	<text transform="matrix(1 0 0 1 118.5203 215.1417)" class="st2 st3 st4">3</text>
	<text transform="matrix(1 0 0 1 141.035 215.1417)" class="st2 st3 st4">4</text>
	<text transform="matrix(1 0 0 1 163.7088 215.1417)" class="st2 st3 st4">5</text>
	<text transform="matrix(1 0 0 1 186.0311 215.1417)" class="st2 st3 st4">6</text>
	<text transform="matrix(1 0 0 1 209.0573 215.1417)" class="st2 st3 st4">7</text>
	<text transform="matrix(1 0 0 1 231.2478 215.1417)" class="st2 st3 st4">8</text>
	<text transform="matrix(1 0 0 1 253.7419 215.1417)" class="st2 st3 st4">9</text>
	<text transform="matrix(1 0 0 1 274.3923 215.1417)" class="st2 st3 st4">10</text>
	<text transform="matrix(1 0 0 1 297.8728 215.1417)" class="st2 st3 st4">11</text>
	<text transform="matrix(1 0 0 1 319.9353 215.1417)" class="st2 st3 st4">12</text>
	<text transform="matrix(1 0 0 1 342.5095 215.1417)" class="st2 st3 st4">13</text>
	<text transform="matrix(1 0 0 1 96.6151 237.6739)" class="st2 st3 st4">1</text>
	<text transform="matrix(1 0 0 1 118.6776 237.6739)" class="st2 st3 st4">2</text>
	<text transform="matrix(1 0 0 1 141.2518 237.6739)" class="st2 st3 st4">3</text>
	<text transform="matrix(1 0 0 1 163.7664 237.6739)" class="st2 st3 st4">4</text>
	<text transform="matrix(1 0 0 1 186.4403 237.6739)" class="st2 st3 st4">5</text>
	<text transform="matrix(1 0 0 1 208.7624 237.6739)" class="st2 st3 st4">6</text>
	<text transform="matrix(1 0 0 1 231.7888 237.6739)" class="st2 st3 st4">7</text>
	<text transform="matrix(1 0 0 1 253.9792 237.6739)" class="st2 st3 st4">8</text>
	<text transform="matrix(1 0 0 1 276.4734 237.6739)" class="st2 st3 st4">9</text>
	<text transform="matrix(1 0 0 1 297.1237 237.6739)" class="st2 st3 st4">10</text>
	<text transform="matrix(1 0 0 1 119.8289 282.8585)" class="st2 st3 st4">1</text>
	<text transform="matrix(1 0 0 1 141.8914 282.8585)" class="st2 st3 st4">2</text>
	<text transform="matrix(1 0 0 1 164.4657 282.8585)" class="st2 st3 st4">3</text>
	<text transform="matrix(1 0 0 1 186.9803 282.8585)" class="st2 st3 st4">4</text>
	<text transform="matrix(1 0 0 1 209.654 282.8585)" class="st2 st3 st4">5</text>
	<text transform="matrix(1 0 0 1 231.9763 282.8585)" class="st2 st3 st4">6</text>
	<text transform="matrix(1 0 0 1 255.0026 282.8585)" class="st2 st3 st4">7</text>
	<text transform="matrix(1 0 0 1 277.1931 282.8585)" class="st2 st3 st4">8</text>
	<text transform="matrix(1 0 0 1 299.6872 282.8585)" class="st2 st3 st4">9</text>
	<text transform="matrix(1 0 0 1 119.8289 305.3819)" class="st2 st3 st4">1</text>
	<text transform="matrix(1 0 0 1 141.8914 305.3819)" class="st2 st3 st4">2</text>
	<text transform="matrix(1 0 0 1 164.4657 305.3819)" class="st2 st3 st4">3</text>
	<text transform="matrix(1 0 0 1 186.9803 305.3819)" class="st2 st3 st4">4</text>
	<text transform="matrix(1 0 0 1 209.654 305.3819)" class="st2 st3 st4">5</text>
	<text transform="matrix(1 0 0 1 231.9763 305.3819)" class="st2 st3 st4">6</text>
	<text transform="matrix(1 0 0 1 255.0026 305.3819)" class="st2 st3 st4">7</text>
	<text transform="matrix(1 0 0 1 277.1931 305.3819)" class="st2 st3 st4">8</text>
	<text transform="matrix(1 0 0 1 299.6872 305.3819)" class="st2 st3 st4">9</text>
	<text transform="matrix(1 0 0 1 96.453 260.2169)" class="st2 st3 st4">1</text>
	<text transform="matrix(1 0 0 1 118.5155 260.2169)" class="st2 st3 st4">2</text>
	<text transform="matrix(1 0 0 1 141.0897 260.2169)" class="st2 st3 st4">3</text>
	<text transform="matrix(1 0 0 1 163.6043 260.2169)" class="st2 st3 st4">4</text>
	<text transform="matrix(1 0 0 1 186.2782 260.2169)" class="st2 st3 st4">5</text>
	<text transform="matrix(1 0 0 1 208.6003 260.2169)" class="st2 st3 st4">6</text>
	<text transform="matrix(1 0 0 1 231.6267 260.2169)" class="st2 st3 st4">7</text>
	<text transform="matrix(1 0 0 1 253.8171 260.2169)" class="st2 st3 st4">8</text>
	<text transform="matrix(1 0 0 1 276.3112 260.2169)" class="st2 st3 st4">9</text>
	<text transform="matrix(1 0 0 1 296.9616 260.2169)" class="st2 st3 st4">10</text>
	<text transform="matrix(1 0 0 1 187.9617 487.0714)" class="st2 st3 st4">1</text>
	<text transform="matrix(1 0 0 1 210.0241 487.0714)" class="st2 st3 st4">2</text>
	<text transform="matrix(1 0 0 1 232.5983 487.0714)" class="st2 st3 st4">3</text>
	<text transform="matrix(1 0 0 1 255.113 487.0714)" class="st2 st3 st4">4</text>
	<text transform="matrix(1 0 0 1 277.7868 487.0714)" class="st2 st3 st4">5</text>
	<text transform="matrix(1 0 0 1 300.1091 487.0714)" class="st2 st3 st4">6</text>
	<text transform="matrix(1 0 0 1 323.1355 487.0714)" class="st2 st3 st4">7</text>
	<text transform="matrix(1 0 0 1 345.3259 487.0714)" class="st2 st3 st4">8</text>
	<text transform="matrix(1 0 0 1 187.9617 508.5997)" class="st2 st3 st4">1</text>
	<text transform="matrix(1 0 0 1 210.0241 508.5997)" class="st2 st3 st4">2</text>
	<text transform="matrix(1 0 0 1 232.5983 508.5997)" class="st2 st3 st4">3</text>
	<text transform="matrix(1 0 0 1 255.113 508.5997)" class="st2 st3 st4">4</text>
	<text transform="matrix(1 0 0 1 277.7868 508.5997)" class="st2 st3 st4">5</text>
	<text transform="matrix(1 0 0 1 300.1091 508.5997)" class="st2 st3 st4">6</text>
	<text transform="matrix(1 0 0 1 323.1355 508.5997)" class="st2 st3 st4">7</text>
	<text transform="matrix(1 0 0 1 345.3259 508.5997)" class="st2 st3 st4">8</text>
	<text transform="matrix(1 0 0 1 210.1091 554.3038)" class="st2 st3 st4">1</text>
	<text transform="matrix(1 0 0 1 232.1716 554.3038)" class="st2 st3 st4">2</text>
	<text transform="matrix(1 0 0 1 254.7458 554.3038)" class="st2 st3 st4">3</text>
	<text transform="matrix(1 0 0 1 277.2605 554.3038)" class="st2 st3 st4">4</text>
	<text transform="matrix(1 0 0 1 299.9343 554.3038)" class="st2 st3 st4">5</text>
	<text transform="matrix(1 0 0 1 322.2566 554.3038)" class="st2 st3 st4">6</text>
	<text transform="matrix(1 0 0 1 345.2829 554.3038)" class="st2 st3 st4">7</text>
	<text transform="matrix(1 0 0 1 210.1091 532.0626)" class="st2 st3 st4">1</text>
	<text transform="matrix(1 0 0 1 232.1716 532.0626)" class="st2 st3 st4">2</text>
	<text transform="matrix(1 0 0 1 254.7458 532.0626)" class="st2 st3 st4">3</text>
	<text transform="matrix(1 0 0 1 277.2605 532.0626)" class="st2 st3 st4">4</text>
	<text transform="matrix(1 0 0 1 299.9343 532.0626)" class="st2 st3 st4">5</text>
	<text transform="matrix(1 0 0 1 322.2566 532.0626)" class="st2 st3 st4">6</text>
	<text transform="matrix(1 0 0 1 345.2829 532.0626)" class="st2 st3 st4">7</text>
	<text transform="matrix(1 0 0 1 231.8337 576.5616)" class="st2 st3 st4">1</text>
	<text transform="matrix(1 0 0 1 253.8962 576.5616)" class="st2 st3 st4">2</text>
	<text transform="matrix(1 0 0 1 276.4704 576.5616)" class="st2 st3 st4">3</text>
	<text transform="matrix(1 0 0 1 298.9851 576.5616)" class="st2 st3 st4">4</text>
	<text transform="matrix(1 0 0 1 321.6589 576.5616)" class="st2 st3 st4">5</text>
	<text transform="matrix(1 0 0 1 343.9812 576.5616)" class="st2 st3 st4">6</text>
	<text transform="matrix(1 0 0 1 232.6794 599.6036)" class="st2 st3 st4">1</text>
	<text transform="matrix(1 0 0 1 254.7419 599.6036)" class="st2 st3 st4">2</text>
	<text transform="matrix(1 0 0 1 277.3161 599.6036)" class="st2 st3 st4">3</text>
	<text transform="matrix(1 0 0 1 299.8308 599.6036)" class="st2 st3 st4">4</text>
	<text transform="matrix(1 0 0 1 322.5046 599.6036)" class="st2 st3 st4">5</text>
	<text transform="matrix(1 0 0 1 344.8269 599.6036)" class="st2 st3 st4">6</text>
	<text transform="matrix(1 0 0 1 231.736 621.6046)" class="st2 st3 st4">1</text>
</g>
<g>
	<text transform="matrix(1 0 0 1 414.9314 55.9503)" class="st5 st6 st7">29</text>
	<text transform="matrix(1 0 0 1 414.9314 11.5792)" class="st5 st6 st7">30</text>
	<text transform="matrix(1 0 0 1 414.9314 101.4464)" class="st5 st6 st7">27</text>
	<text transform="matrix(1 0 0 1 414.9314 78.876)" class="st5 st6 st7">28</text>
	<text transform="matrix(1 0 0 1 414.9314 146.5889)" class="st5 st6 st7">25</text>
	<text transform="matrix(1 0 0 1 414.7712 327.1885)" class="st5 st6 st7">17</text>
	<text transform="matrix(1 0 0 1 414.7712 349.7403)" class="st5 st6 st7">16</text>
	<text transform="matrix(1 0 0 1 414.9314 372.376)" class="st5 st6 st7">15</text>
	<text transform="matrix(1 0 0 1 414.9314 394.9278)" class="st5 st6 st7">14</text>
	<text transform="matrix(1 0 0 1 414.7439 417.5606)" class="st5 st6 st7">13</text>
	<text transform="matrix(1 0 0 1 414.7712 440.1133)" class="st5 st6 st7">12</text>
	<text transform="matrix(1 0 0 1 415.1071 620.8106)" class="st5 st6 st7">4</text>
	<text transform="matrix(1 0 0 1 414.9314 124.0186)" class="st5 st6 st7">26</text>
	<text transform="matrix(1 0 0 1 414.9314 169.043)" class="st5 st6 st7">24</text>
	<text transform="matrix(1 0 0 1 414.9314 214.2305)" class="st5 st6 st7">22</text>
	<text transform="matrix(1 0 0 1 414.9314 191.6602)" class="st5 st6 st7">23</text>
	<text transform="matrix(1 0 0 1 414.9314 259.3751)" class="st5 st6 st7">20</text>
	<text transform="matrix(1 0 0 1 414.9314 236.8047)" class="st5 st6 st7">21</text>
	<text transform="matrix(1 0 0 1 414.7439 304.5176)" class="st5 st6 st7">18</text>
	<text transform="matrix(1 0 0 1 414.7712 281.9473)" class="st5 st6 st7">19</text>
	<text transform="matrix(1 0 0 1 414.7712 462.6671)" class="st5 st6 st7">11</text>
	<text transform="matrix(1 0 0 1 414.7712 507.8546)" class="st5 st6 st7">9</text>
	<text transform="matrix(1 0 0 1 414.7712 485.2842)" class="st5 st6 st7">10</text>
	<text transform="matrix(1 0 0 1 415.3786 553.0001)" class="st5 st6 st7">7</text>
	<text transform="matrix(1 0 0 1 414.7439 530.4297)" class="st5 st6 st7">8</text>
	<text transform="matrix(1 0 0 1 414.7712 575.5723)" class="st5 st6 st7">6</text>
	<text transform="matrix(1 0 0 1 415.3786 598.1553)" class="st5 st6 st7">5</text>
</g>
</svg>
