<?xml version="1.0" encoding="utf-8"?>
<!-- Generator: Adobe Illustrator 20.1.0, SVG Export Plug-In . SVG Version: 6.00 Build 0)  -->
<svg version="1.1" id="Layer_1" xmlns="http://www.w3.org/2000/svg" xmlns:xlink="http://www.w3.org/1999/xlink" x="0px" y="0px"
	 viewBox="0 0 358 447" style="enable-background:new 0 0 358 447;" xml:space="preserve">
<style type="text/css">
	.st0{fill:#D9F6E1;}
	.st1{fill:#FFFFFF;}
	.st2{fill:#737373;}
	.st3{font-family:'OsnovaPro';}
	.st4{font-size:8px;}
	.st5{fill:#7B878F;}
	.st6{font-family:'OsnovaProLight';}
	.st7{font-size:9px;}
</style>
<path class="st0" d="M76.4,16.6L76.4,16.6c-4.6,0-8.3-3.7-8.3-8.3v0c0-4.6,3.7-8.3,8.3-8.3h0c4.6,0,8.3,3.7,8.3,8.3v0
	C84.6,12.8,80.9,16.6,76.4,16.6z"/>
<path class="st0" d="M98.9,16.6L98.9,16.6c-4.6,0-8.3-3.7-8.3-8.3v0c0-4.6,3.7-8.3,8.3-8.3h0c4.6,0,8.3,3.7,8.3,8.3v0
	C107.2,12.8,103.5,16.6,98.9,16.6z"/>
<path class="st0" d="M121.5,16.6L121.5,16.6c-4.6,0-8.3-3.7-8.3-8.3v0c0-4.6,3.7-8.3,8.3-8.3h0c4.6,0,8.3,3.7,8.3,8.3v0
	C129.8,12.8,126.1,16.6,121.5,16.6z"/>
<path class="st0" d="M144.1,16.6L144.1,16.6c-4.6,0-8.3-3.7-8.3-8.3v0c0-4.6,3.7-8.3,8.3-8.3h0c4.6,0,8.3,3.7,8.3,8.3v0
	C152.4,12.8,148.6,16.6,144.1,16.6z"/>
<path class="st0" d="M166.6,16.6L166.6,16.6c-4.6,0-8.3-3.7-8.3-8.3v0c0-4.6,3.7-8.3,8.3-8.3h0c4.6,0,8.3,3.7,8.3,8.3v0
	C174.9,12.8,171.2,16.6,166.6,16.6z"/>
<path class="st0" d="M189.2,16.6L189.2,16.6c-4.6,0-8.3-3.7-8.3-8.3v0c0-4.6,3.7-8.3,8.3-8.3h0c4.6,0,8.3,3.7,8.3,8.3v0
	C197.5,12.8,193.7,16.6,189.2,16.6z"/>
<path class="st0" d="M211.7,16.6L211.7,16.6c-4.6,0-8.3-3.7-8.3-8.3v0c0-4.6,3.7-8.3,8.3-8.3h0c4.6,0,8.3,3.7,8.3,8.3v0
	C220,12.8,216.3,16.6,211.7,16.6z"/>
<path class="st0" d="M234.3,16.6L234.3,16.6c-4.6,0-8.3-3.7-8.3-8.3v0c0-4.6,3.7-8.3,8.3-8.3h0c4.6,0,8.3,3.7,8.3,8.3v0
	C242.6,12.8,238.9,16.6,234.3,16.6z"/>
<path class="st0" d="M256.8,16.6L256.8,16.6c-4.6,0-8.3-3.7-8.3-8.3v0c0-4.6,3.7-8.3,8.3-8.3l0,0c4.6,0,8.3,3.7,8.3,8.3v0
	C265.1,12.8,261.4,16.6,256.8,16.6z"/>
<path class="st0" d="M279.4,16.6L279.4,16.6c-4.6,0-8.3-3.7-8.3-8.3v0c0-4.6,3.7-8.3,8.3-8.3l0,0c4.6,0,8.3,3.7,8.3,8.3v0
	C287.7,12.8,284,16.6,279.4,16.6z"/>
<path class="st1" d="M30.9,108.3L30.9,108.3c-4.6,0-8.3-3.7-8.3-8.3v0c0-4.6,3.7-8.3,8.3-8.3h0c4.6,0,8.3,3.7,8.3,8.3v0
	C39.1,104.6,35.4,108.3,30.9,108.3z"/>
<path class="st1" d="M53.4,108.3L53.4,108.3c-4.6,0-8.3-3.7-8.3-8.3v0c0-4.6,3.7-8.3,8.3-8.3h0c4.6,0,8.3,3.7,8.3,8.3v0
	C61.7,104.6,58,108.3,53.4,108.3z"/>
<path class="st1" d="M76,108.3L76,108.3c-4.6,0-8.3-3.7-8.3-8.3v0c0-4.6,3.7-8.3,8.3-8.3h0c4.6,0,8.3,3.7,8.3,8.3v0
	C84.3,104.6,80.6,108.3,76,108.3z"/>
<path class="st1" d="M98.6,108.3L98.6,108.3c-4.6,0-8.3-3.7-8.3-8.3v0c0-4.6,3.7-8.3,8.3-8.3h0c4.6,0,8.3,3.7,8.3,8.3v0
	C106.9,104.6,103.1,108.3,98.6,108.3z"/>
<path class="st1" d="M121.1,108.3L121.1,108.3c-4.6,0-8.3-3.7-8.3-8.3v0c0-4.6,3.7-8.3,8.3-8.3h0c4.6,0,8.3,3.7,8.3,8.3v0
	C129.4,104.6,125.7,108.3,121.1,108.3z"/>
<path class="st1" d="M143.7,108.3L143.7,108.3c-4.6,0-8.3-3.7-8.3-8.3v0c0-4.6,3.7-8.3,8.3-8.3h0c4.6,0,8.3,3.7,8.3,8.3v0
	C152,104.6,148.3,108.3,143.7,108.3z"/>
<path class="st1" d="M166.3,108.3L166.3,108.3c-4.6,0-8.3-3.7-8.3-8.3v0c0-4.6,3.7-8.3,8.3-8.3h0c4.6,0,8.3,3.7,8.3,8.3v0
	C174.6,104.6,170.8,108.3,166.3,108.3z"/>
<path class="st1" d="M188.8,108.3L188.8,108.3c-4.6,0-8.3-3.7-8.3-8.3v0c0-4.6,3.7-8.3,8.3-8.3h0c4.6,0,8.3,3.7,8.3,8.3v0
	C197.1,104.6,193.4,108.3,188.8,108.3z"/>
<path class="st1" d="M211.4,108.3L211.4,108.3c-4.6,0-8.3-3.7-8.3-8.3v0c0-4.6,3.7-8.3,8.3-8.3h0c4.6,0,8.3,3.7,8.3,8.3v0
	C219.7,104.6,216,108.3,211.4,108.3z"/>
<path class="st1" d="M234,108.3L234,108.3c-4.6,0-8.3-3.7-8.3-8.3v0c0-4.6,3.7-8.3,8.3-8.3h0c4.6,0,8.3,3.7,8.3,8.3v0
	C242.3,104.6,238.5,108.3,234,108.3z"/>
<path class="st1" d="M8.3,85.7L8.3,85.7C3.7,85.7,0,82,0,77.4v0c0-4.6,3.7-8.3,8.3-8.3h0c4.6,0,8.3,3.7,8.3,8.3v0
	C16.6,82,12.8,85.7,8.3,85.7z"/>
<path class="st1" d="M30.9,85.7L30.9,85.7c-4.6,0-8.3-3.7-8.3-8.3v0c0-4.6,3.7-8.3,8.3-8.3h0c4.6,0,8.3,3.7,8.3,8.3v0
	C39.1,82,35.4,85.7,30.9,85.7z"/>
<path class="st1" d="M53.4,85.7L53.4,85.7c-4.6,0-8.3-3.7-8.3-8.3v0c0-4.6,3.7-8.3,8.3-8.3h0c4.6,0,8.3,3.7,8.3,8.3v0
	C61.7,82,58,85.7,53.4,85.7z"/>
<path class="st1" d="M76,85.7L76,85.7c-4.6,0-8.3-3.7-8.3-8.3v0c0-4.6,3.7-8.3,8.3-8.3h0c4.6,0,8.3,3.7,8.3,8.3v0
	C84.3,82,80.6,85.7,76,85.7z"/>
<path class="st1" d="M98.6,85.7L98.6,85.7c-4.6,0-8.3-3.7-8.3-8.3v0c0-4.6,3.7-8.3,8.3-8.3h0c4.6,0,8.3,3.7,8.3,8.3v0
	C106.9,82,103.1,85.7,98.6,85.7z"/>
<path class="st1" d="M121.1,85.7L121.1,85.7c-4.6,0-8.3-3.7-8.3-8.3v0c0-4.6,3.7-8.3,8.3-8.3h0c4.6,0,8.3,3.7,8.3,8.3v0
	C129.4,82,125.7,85.7,121.1,85.7z"/>
<path class="st1" d="M143.7,85.7L143.7,85.7c-4.6,0-8.3-3.7-8.3-8.3v0c0-4.6,3.7-8.3,8.3-8.3h0c4.6,0,8.3,3.7,8.3,8.3v0
	C152,82,148.3,85.7,143.7,85.7z"/>
<path class="st1" d="M166.3,85.7L166.3,85.7c-4.6,0-8.3-3.7-8.3-8.3v0c0-4.6,3.7-8.3,8.3-8.3h0c4.6,0,8.3,3.7,8.3,8.3v0
	C174.6,82,170.8,85.7,166.3,85.7z"/>
<path class="st1" d="M188.8,85.7L188.8,85.7c-4.6,0-8.3-3.7-8.3-8.3v0c0-4.6,3.7-8.3,8.3-8.3h0c4.6,0,8.3,3.7,8.3,8.3v0
	C197.1,82,193.4,85.7,188.8,85.7z"/>
<path class="st1" d="M211.4,85.7L211.4,85.7c-4.6,0-8.3-3.7-8.3-8.3v0c0-4.6,3.7-8.3,8.3-8.3h0c4.6,0,8.3,3.7,8.3,8.3v0
	C219.7,82,216,85.7,211.4,85.7z"/>
<path class="st1" d="M234,85.7L234,85.7c-4.6,0-8.3-3.7-8.3-8.3v0c0-4.6,3.7-8.3,8.3-8.3h0c4.6,0,8.3,3.7,8.3,8.3v0
	C242.3,82,238.5,85.7,234,85.7z"/>
<path class="st1" d="M30.9,153.4L30.9,153.4c-4.6,0-8.3-3.7-8.3-8.3v0c0-4.6,3.7-8.3,8.3-8.3h0c4.6,0,8.3,3.7,8.3,8.3v0
	C39.2,149.7,35.4,153.4,30.9,153.4z"/>
<path class="st1" d="M53.5,153.4L53.5,153.4c-4.6,0-8.3-3.7-8.3-8.3v0c0-4.6,3.7-8.3,8.3-8.3h0c4.6,0,8.3,3.7,8.3,8.3v0
	C61.7,149.7,58,153.4,53.5,153.4z"/>
<path class="st1" d="M76,153.4L76,153.4c-4.6,0-8.3-3.7-8.3-8.3v0c0-4.6,3.7-8.3,8.3-8.3h0c4.6,0,8.3,3.7,8.3,8.3v0
	C84.3,149.7,80.6,153.4,76,153.4z"/>
<path class="st1" d="M98.6,153.4L98.6,153.4c-4.6,0-8.3-3.7-8.3-8.3v0c0-4.6,3.7-8.3,8.3-8.3h0c4.6,0,8.3,3.7,8.3,8.3v0
	C106.9,149.7,103.1,153.4,98.6,153.4z"/>
<path class="st1" d="M121.2,153.4L121.2,153.4c-4.6,0-8.3-3.7-8.3-8.3v0c0-4.6,3.7-8.3,8.3-8.3h0c4.6,0,8.3,3.7,8.3,8.3v0
	C129.4,149.7,125.7,153.4,121.2,153.4z"/>
<path class="st1" d="M143.7,153.4L143.7,153.4c-4.6,0-8.3-3.7-8.3-8.3v0c0-4.6,3.7-8.3,8.3-8.3h0c4.6,0,8.3,3.7,8.3,8.3v0
	C152,149.7,148.3,153.4,143.7,153.4z"/>
<path class="st1" d="M166.3,153.4L166.3,153.4c-4.6,0-8.3-3.7-8.3-8.3v0c0-4.6,3.7-8.3,8.3-8.3h0c4.6,0,8.3,3.7,8.3,8.3v0
	C174.6,149.7,170.9,153.4,166.3,153.4z"/>
<path class="st1" d="M188.9,153.4L188.9,153.4c-4.6,0-8.3-3.7-8.3-8.3v0c0-4.6,3.7-8.3,8.3-8.3h0c4.6,0,8.3,3.7,8.3,8.3v0
	C197.2,149.7,193.4,153.4,188.9,153.4z"/>
<path class="st1" d="M211.4,153.4L211.4,153.4c-4.6,0-8.3-3.7-8.3-8.3v0c0-4.6,3.7-8.3,8.3-8.3h0c4.6,0,8.3,3.7,8.3,8.3v0
	C219.7,149.7,216,153.4,211.4,153.4z"/>
<path class="st1" d="M234,153.4L234,153.4c-4.6,0-8.3-3.7-8.3-8.3v0c0-4.6,3.7-8.3,8.3-8.3h0c4.6,0,8.3,3.7,8.3,8.3v0
	C242.3,149.7,238.6,153.4,234,153.4z"/>
<path class="st1" d="M98.6,334L98.6,334c-4.6,0-8.3-3.7-8.3-8.3l0,0c0-4.6,3.7-8.3,8.3-8.3h0c4.6,0,8.3,3.7,8.3,8.3l0,0
	C106.9,330.3,103.1,334,98.6,334z"/>
<path class="st1" d="M121.2,334L121.2,334c-4.6,0-8.3-3.7-8.3-8.3l0,0c0-4.6,3.7-8.3,8.3-8.3h0c4.6,0,8.3,3.7,8.3,8.3l0,0
	C129.4,330.3,125.7,334,121.2,334z"/>
<path class="st1" d="M143.7,334L143.7,334c-4.6,0-8.3-3.7-8.3-8.3l0,0c0-4.6,3.7-8.3,8.3-8.3h0c4.6,0,8.3,3.7,8.3,8.3l0,0
	C152,330.3,148.3,334,143.7,334z"/>
<path class="st1" d="M166.3,334L166.3,334c-4.6,0-8.3-3.7-8.3-8.3l0,0c0-4.6,3.7-8.3,8.3-8.3h0c4.6,0,8.3,3.7,8.3,8.3l0,0
	C174.6,330.3,170.9,334,166.3,334z"/>
<path class="st1" d="M188.9,334L188.9,334c-4.6,0-8.3-3.7-8.3-8.3l0,0c0-4.6,3.7-8.3,8.3-8.3h0c4.6,0,8.3,3.7,8.3,8.3l0,0
	C197.2,330.3,193.4,334,188.9,334z"/>
<path class="st1" d="M121.2,356.6L121.2,356.6c-4.6,0-8.3-3.7-8.3-8.3v0c0-4.6,3.7-8.3,8.3-8.3h0c4.6,0,8.3,3.7,8.3,8.3v0
	C129.4,352.9,125.7,356.6,121.2,356.6z"/>
<path class="st1" d="M143.7,356.6L143.7,356.6c-4.6,0-8.3-3.7-8.3-8.3v0c0-4.6,3.7-8.3,8.3-8.3h0c4.6,0,8.3,3.7,8.3,8.3v0
	C152,352.9,148.3,356.6,143.7,356.6z"/>
<path class="st1" d="M166.3,356.6L166.3,356.6c-4.6,0-8.3-3.7-8.3-8.3v0c0-4.6,3.7-8.3,8.3-8.3h0c4.6,0,8.3,3.7,8.3,8.3v0
	C174.6,352.9,170.9,356.6,166.3,356.6z"/>
<path class="st1" d="M188.9,356.6L188.9,356.6c-4.6,0-8.3-3.7-8.3-8.3v0c0-4.6,3.7-8.3,8.3-8.3h0c4.6,0,8.3,3.7,8.3,8.3v0
	C197.2,352.9,193.4,356.6,188.9,356.6z"/>
<path class="st1" d="M121.2,379.2L121.2,379.2c-4.6,0-8.3-3.7-8.3-8.3l0,0c0-4.6,3.7-8.3,8.3-8.3h0c4.6,0,8.3,3.7,8.3,8.3l0,0
	C129.4,375.5,125.7,379.2,121.2,379.2z"/>
<path class="st1" d="M143.7,379.2L143.7,379.2c-4.6,0-8.3-3.7-8.3-8.3l0,0c0-4.6,3.7-8.3,8.3-8.3h0c4.6,0,8.3,3.7,8.3,8.3l0,0
	C152,375.5,148.3,379.2,143.7,379.2z"/>
<path class="st1" d="M166.3,379.2L166.3,379.2c-4.6,0-8.3-3.7-8.3-8.3l0,0c0-4.6,3.7-8.3,8.3-8.3h0c4.6,0,8.3,3.7,8.3,8.3l0,0
	C174.6,375.5,170.9,379.2,166.3,379.2z"/>
<path class="st1" d="M188.9,379.2L188.9,379.2c-4.6,0-8.3-3.7-8.3-8.3l0,0c0-4.6,3.7-8.3,8.3-8.3h0c4.6,0,8.3,3.7,8.3,8.3l0,0
	C197.2,375.5,193.4,379.2,188.9,379.2z"/>
<path class="st1" d="M121.2,401.8L121.2,401.8c-4.6,0-8.3-3.7-8.3-8.3v0c0-4.6,3.7-8.3,8.3-8.3h0c4.6,0,8.3,3.7,8.3,8.3v0
	C129.4,398,125.7,401.8,121.2,401.8z"/>
<path class="st1" d="M143.7,401.8L143.7,401.8c-4.6,0-8.3-3.7-8.3-8.3v0c0-4.6,3.7-8.3,8.3-8.3h0c4.6,0,8.3,3.7,8.3,8.3v0
	C152,398,148.3,401.8,143.7,401.8z"/>
<path class="st1" d="M166.3,401.8L166.3,401.8c-4.6,0-8.3-3.7-8.3-8.3v0c0-4.6,3.7-8.3,8.3-8.3h0c4.6,0,8.3,3.7,8.3,8.3v0
	C174.6,398,170.9,401.8,166.3,401.8z"/>
<path class="st1" d="M188.9,401.8L188.9,401.8c-4.6,0-8.3-3.7-8.3-8.3v0c0-4.6,3.7-8.3,8.3-8.3h0c4.6,0,8.3,3.7,8.3,8.3v0
	C197.2,398,193.4,401.8,188.9,401.8z"/>
<path class="st1" d="M143.7,424.4L143.7,424.4c-4.6,0-8.3-3.7-8.3-8.3l0,0c0-4.6,3.7-8.3,8.3-8.3h0c4.6,0,8.3,3.7,8.3,8.3l0,0
	C152,420.7,148.3,424.4,143.7,424.4z"/>
<path class="st1" d="M166.3,424.4L166.3,424.4c-4.6,0-8.3-3.7-8.3-8.3l0,0c0-4.6,3.7-8.3,8.3-8.3h0c4.6,0,8.3,3.7,8.3,8.3l0,0
	C174.6,420.7,170.9,424.4,166.3,424.4z"/>
<path class="st1" d="M188.9,424.4L188.9,424.4c-4.6,0-8.3-3.7-8.3-8.3l0,0c0-4.6,3.7-8.3,8.3-8.3h0c4.6,0,8.3,3.7,8.3,8.3l0,0
	C197.2,420.7,193.4,424.4,188.9,424.4z"/>
<path class="st1" d="M143.7,447L143.7,447c-4.6,0-8.3-3.7-8.3-8.3l0,0c0-4.6,3.7-8.3,8.3-8.3h0c4.6,0,8.3,3.7,8.3,8.3l0,0
	C152,443.2,148.3,447,143.7,447z"/>
<path class="st1" d="M166.3,447L166.3,447c-4.6,0-8.3-3.7-8.3-8.3l0,0c0-4.6,3.7-8.3,8.3-8.3h0c4.6,0,8.3,3.7,8.3,8.3l0,0
	C174.6,443.2,170.9,447,166.3,447z"/>
<path class="st1" d="M188.9,447L188.9,447c-4.6,0-8.3-3.7-8.3-8.3l0,0c0-4.6,3.7-8.3,8.3-8.3h0c4.6,0,8.3,3.7,8.3,8.3l0,0
	C197.2,443.2,193.4,447,188.9,447z"/>
<path class="st1" d="M211.4,447L211.4,447c-4.6,0-8.3-3.7-8.3-8.3l0,0c0-4.6,3.7-8.3,8.3-8.3h0c4.6,0,8.3,3.7,8.3,8.3l0,0
	C219.7,443.2,216,447,211.4,447z"/>
<path class="st1" d="M234,447L234,447c-4.6,0-8.3-3.7-8.3-8.3l0,0c0-4.6,3.7-8.3,8.3-8.3h0c4.6,0,8.3,3.7,8.3,8.3l0,0
	C242.3,443.2,238.6,447,234,447z"/>
<path class="st1" d="M30.9,130.9L30.9,130.9c-4.6,0-8.3-3.7-8.3-8.3v0c0-4.6,3.7-8.3,8.3-8.3h0c4.6,0,8.3,3.7,8.3,8.3v0
	C39.2,127.1,35.4,130.9,30.9,130.9z"/>
<path class="st1" d="M53.5,130.9L53.5,130.9c-4.6,0-8.3-3.7-8.3-8.3v0c0-4.6,3.7-8.3,8.3-8.3h0c4.6,0,8.3,3.7,8.3,8.3v0
	C61.7,127.1,58,130.9,53.5,130.9z"/>
<path class="st1" d="M76,130.9L76,130.9c-4.6,0-8.3-3.7-8.3-8.3v0c0-4.6,3.7-8.3,8.3-8.3h0c4.6,0,8.3,3.7,8.3,8.3v0
	C84.3,127.1,80.6,130.9,76,130.9z"/>
<path class="st1" d="M98.6,130.9L98.6,130.9c-4.6,0-8.3-3.7-8.3-8.3v0c0-4.6,3.7-8.3,8.3-8.3h0c4.6,0,8.3,3.7,8.3,8.3v0
	C106.9,127.1,103.1,130.9,98.6,130.9z"/>
<path class="st1" d="M121.2,130.9L121.2,130.9c-4.6,0-8.3-3.7-8.3-8.3v0c0-4.6,3.7-8.3,8.3-8.3h0c4.6,0,8.3,3.7,8.3,8.3v0
	C129.4,127.1,125.7,130.9,121.2,130.9z"/>
<path class="st1" d="M143.7,130.9L143.7,130.9c-4.6,0-8.3-3.7-8.3-8.3v0c0-4.6,3.7-8.3,8.3-8.3h0c4.6,0,8.3,3.7,8.3,8.3v0
	C152,127.1,148.3,130.9,143.7,130.9z"/>
<path class="st1" d="M166.3,130.9L166.3,130.9c-4.6,0-8.3-3.7-8.3-8.3v0c0-4.6,3.7-8.3,8.3-8.3h0c4.6,0,8.3,3.7,8.3,8.3v0
	C174.6,127.1,170.9,130.9,166.3,130.9z"/>
<path class="st1" d="M188.9,130.9L188.9,130.9c-4.6,0-8.3-3.7-8.3-8.3v0c0-4.6,3.7-8.3,8.3-8.3h0c4.6,0,8.3,3.7,8.3,8.3v0
	C197.2,127.1,193.4,130.9,188.9,130.9z"/>
<path class="st1" d="M211.4,130.9L211.4,130.9c-4.6,0-8.3-3.7-8.3-8.3v0c0-4.6,3.7-8.3,8.3-8.3h0c4.6,0,8.3,3.7,8.3,8.3v0
	C219.7,127.1,216,130.9,211.4,130.9z"/>
<path class="st1" d="M234,130.9L234,130.9c-4.6,0-8.3-3.7-8.3-8.3v0c0-4.6,3.7-8.3,8.3-8.3h0c4.6,0,8.3,3.7,8.3,8.3v0
	C242.3,127.1,238.6,130.9,234,130.9z"/>
<path class="st1" d="M53.5,176L53.5,176c-4.6,0-8.3-3.7-8.3-8.3v0c0-4.6,3.7-8.3,8.3-8.3h0c4.6,0,8.3,3.7,8.3,8.3v0
	C61.8,172.3,58,176,53.5,176z"/>
<path class="st1" d="M76,176L76,176c-4.6,0-8.3-3.7-8.3-8.3v0c0-4.6,3.7-8.3,8.3-8.3h0c4.6,0,8.3,3.7,8.3,8.3v0
	C84.3,172.3,80.6,176,76,176z"/>
<path class="st1" d="M98.6,176L98.6,176c-4.6,0-8.3-3.7-8.3-8.3v0c0-4.6,3.7-8.3,8.3-8.3h0c4.6,0,8.3,3.7,8.3,8.3v0
	C106.9,172.3,103.2,176,98.6,176z"/>
<path class="st1" d="M121.2,176L121.2,176c-4.6,0-8.3-3.7-8.3-8.3v0c0-4.6,3.7-8.3,8.3-8.3h0c4.6,0,8.3,3.7,8.3,8.3v0
	C129.5,172.3,125.7,176,121.2,176z"/>
<path class="st1" d="M143.8,176L143.8,176c-4.6,0-8.3-3.7-8.3-8.3v0c0-4.6,3.7-8.3,8.3-8.3h0c4.6,0,8.3,3.7,8.3,8.3v0
	C152,172.3,148.3,176,143.8,176z"/>
<path class="st1" d="M53.4,221.1L53.4,221.1c-4.6,0-8.3-3.7-8.3-8.3v0c0-4.6,3.7-8.3,8.3-8.3h0c4.6,0,8.3,3.7,8.3,8.3v0
	C61.7,217.4,58,221.1,53.4,221.1z"/>
<path class="st1" d="M76,221.1L76,221.1c-4.6,0-8.3-3.7-8.3-8.3v0c0-4.6,3.7-8.3,8.3-8.3h0c4.6,0,8.3,3.7,8.3,8.3v0
	C84.3,217.4,80.6,221.1,76,221.1z"/>
<path class="st1" d="M98.6,221.1L98.6,221.1c-4.6,0-8.3-3.7-8.3-8.3v0c0-4.6,3.7-8.3,8.3-8.3h0c4.6,0,8.3,3.7,8.3,8.3v0
	C106.9,217.4,103.1,221.1,98.6,221.1z"/>
<path class="st1" d="M121.2,221.1L121.2,221.1c-4.6,0-8.3-3.7-8.3-8.3v0c0-4.6,3.7-8.3,8.3-8.3h0c4.6,0,8.3,3.7,8.3,8.3v0
	C129.4,217.4,125.7,221.1,121.2,221.1z"/>
<path class="st1" d="M143.7,221.1L143.7,221.1c-4.6,0-8.3-3.7-8.3-8.3v0c0-4.6,3.7-8.3,8.3-8.3h0c4.6,0,8.3,3.7,8.3,8.3v0
	C152,217.4,148.3,221.1,143.7,221.1z"/>
<path class="st1" d="M53.4,198.6L53.4,198.6c-4.6,0-8.3-3.7-8.3-8.3v0c0-4.6,3.7-8.3,8.3-8.3h0c4.6,0,8.3,3.7,8.3,8.3v0
	C61.7,194.8,58,198.6,53.4,198.6z"/>
<path class="st1" d="M76,198.6L76,198.6c-4.6,0-8.3-3.7-8.3-8.3v0c0-4.6,3.7-8.3,8.3-8.3h0c4.6,0,8.3,3.7,8.3,8.3v0
	C84.3,194.8,80.6,198.6,76,198.6z"/>
<path class="st1" d="M98.6,198.6L98.6,198.6c-4.6,0-8.3-3.7-8.3-8.3v0c0-4.6,3.7-8.3,8.3-8.3h0c4.6,0,8.3,3.7,8.3,8.3v0
	C106.9,194.8,103.1,198.6,98.6,198.6z"/>
<path class="st1" d="M121.2,198.6L121.2,198.6c-4.6,0-8.3-3.7-8.3-8.3v0c0-4.6,3.7-8.3,8.3-8.3h0c4.6,0,8.3,3.7,8.3,8.3v0
	C129.4,194.8,125.7,198.6,121.2,198.6z"/>
<path class="st1" d="M143.7,198.6L143.7,198.6c-4.6,0-8.3-3.7-8.3-8.3v0c0-4.6,3.7-8.3,8.3-8.3h0c4.6,0,8.3,3.7,8.3,8.3v0
	C152,194.8,148.3,198.6,143.7,198.6z"/>
<path class="st1" d="M76,243.7L76,243.7c-4.6,0-8.3-3.7-8.3-8.3v0c0-4.6,3.7-8.3,8.3-8.3h0c4.6,0,8.3,3.7,8.3,8.3v0
	C84.3,240,80.6,243.7,76,243.7z"/>
<path class="st1" d="M98.6,243.7L98.6,243.7c-4.6,0-8.3-3.7-8.3-8.3v0c0-4.6,3.7-8.3,8.3-8.3h0c4.6,0,8.3,3.7,8.3,8.3v0
	C106.9,240,103.2,243.7,98.6,243.7z"/>
<path class="st1" d="M121.2,243.7L121.2,243.7c-4.6,0-8.3-3.7-8.3-8.3v0c0-4.6,3.7-8.3,8.3-8.3h0c4.6,0,8.3,3.7,8.3,8.3v0
	C129.5,240,125.7,243.7,121.2,243.7z"/>
<path class="st1" d="M143.8,243.7L143.8,243.7c-4.6,0-8.3-3.7-8.3-8.3v0c0-4.6,3.7-8.3,8.3-8.3h0c4.6,0,8.3,3.7,8.3,8.3v0
	C152,240,148.3,243.7,143.8,243.7z"/>
<path class="st1" d="M76,288.8L76,288.8c-4.6,0-8.3-3.7-8.3-8.3v0c0-4.6,3.7-8.3,8.3-8.3h0c4.6,0,8.3,3.7,8.3,8.3v0
	C84.3,285.1,80.6,288.8,76,288.8z"/>
<path class="st1" d="M98.6,288.8L98.6,288.8c-4.6,0-8.3-3.7-8.3-8.3v0c0-4.6,3.7-8.3,8.3-8.3h0c4.6,0,8.3,3.7,8.3,8.3v0
	C106.9,285.1,103.1,288.8,98.6,288.8z"/>
<path class="st1" d="M121.2,288.8L121.2,288.8c-4.6,0-8.3-3.7-8.3-8.3v0c0-4.6,3.7-8.3,8.3-8.3h0c4.6,0,8.3,3.7,8.3,8.3v0
	C129.4,285.1,125.7,288.8,121.2,288.8z"/>
<path class="st1" d="M143.7,288.8L143.7,288.8c-4.6,0-8.3-3.7-8.3-8.3v0c0-4.6,3.7-8.3,8.3-8.3h0c4.6,0,8.3,3.7,8.3,8.3v0
	C152,285.1,148.3,288.8,143.7,288.8z"/>
<path class="st1" d="M76,266.3L76,266.3c-4.6,0-8.3-3.7-8.3-8.3l0,0c0-4.6,3.7-8.3,8.3-8.3h0c4.6,0,8.3,3.7,8.3,8.3l0,0
	C84.3,262.5,80.6,266.3,76,266.3z"/>
<path class="st1" d="M98.6,266.3L98.6,266.3c-4.6,0-8.3-3.7-8.3-8.3l0,0c0-4.6,3.7-8.3,8.3-8.3h0c4.6,0,8.3,3.7,8.3,8.3l0,0
	C106.9,262.5,103.1,266.3,98.6,266.3z"/>
<path class="st1" d="M121.2,266.3L121.2,266.3c-4.6,0-8.3-3.7-8.3-8.3l0,0c0-4.6,3.7-8.3,8.3-8.3h0c4.6,0,8.3,3.7,8.3,8.3l0,0
	C129.4,262.5,125.7,266.3,121.2,266.3z"/>
<path class="st1" d="M143.7,266.3L143.7,266.3c-4.6,0-8.3-3.7-8.3-8.3l0,0c0-4.6,3.7-8.3,8.3-8.3h0c4.6,0,8.3,3.7,8.3,8.3l0,0
	C152,262.5,148.3,266.3,143.7,266.3z"/>
<path class="st1" d="M98.6,311.5L98.6,311.5c-4.6,0-8.3-3.7-8.3-8.3v0c0-4.6,3.7-8.3,8.3-8.3h0c4.6,0,8.3,3.7,8.3,8.3v0
	C106.9,307.7,103.1,311.5,98.6,311.5z"/>
<path class="st1" d="M121.2,311.5L121.2,311.5c-4.6,0-8.3-3.7-8.3-8.3v0c0-4.6,3.7-8.3,8.3-8.3h0c4.6,0,8.3,3.7,8.3,8.3v0
	C129.4,307.7,125.7,311.5,121.2,311.5z"/>
<path class="st1" d="M143.7,311.5L143.7,311.5c-4.6,0-8.3-3.7-8.3-8.3v0c0-4.6,3.7-8.3,8.3-8.3h0c4.6,0,8.3,3.7,8.3,8.3v0
	C152,307.7,148.3,311.5,143.7,311.5z"/>
<path class="st1" d="M166.3,176L166.3,176c-4.6,0-8.3-3.7-8.3-8.3v0c0-4.6,3.7-8.3,8.3-8.3h0c4.6,0,8.3,3.7,8.3,8.3v0
	C174.6,172.3,170.9,176,166.3,176z"/>
<path class="st1" d="M166.3,221.1L166.3,221.1c-4.6,0-8.3-3.7-8.3-8.3v0c0-4.6,3.7-8.3,8.3-8.3h0c4.6,0,8.3,3.7,8.3,8.3v0
	C174.6,217.4,170.9,221.1,166.3,221.1z"/>
<path class="st1" d="M166.3,198.6L166.3,198.6c-4.6,0-8.3-3.7-8.3-8.3v0c0-4.6,3.7-8.3,8.3-8.3h0c4.6,0,8.3,3.7,8.3,8.3v0
	C174.6,194.8,170.9,198.6,166.3,198.6z"/>
<path class="st1" d="M166.3,243.7L166.3,243.7c-4.6,0-8.3-3.7-8.3-8.3v0c0-4.6,3.7-8.3,8.3-8.3h0c4.6,0,8.3,3.7,8.3,8.3v0
	C174.6,240,170.9,243.7,166.3,243.7z"/>
<path class="st1" d="M166.3,288.8L166.3,288.8c-4.6,0-8.3-3.7-8.3-8.3v0c0-4.6,3.7-8.3,8.3-8.3h0c4.6,0,8.3,3.7,8.3,8.3v0
	C174.6,285.1,170.9,288.8,166.3,288.8z"/>
<path class="st1" d="M166.3,266.3L166.3,266.3c-4.6,0-8.3-3.7-8.3-8.3l0,0c0-4.6,3.7-8.3,8.3-8.3h0c4.6,0,8.3,3.7,8.3,8.3l0,0
	C174.6,262.5,170.9,266.3,166.3,266.3z"/>
<path class="st1" d="M166.3,311.5L166.3,311.5c-4.6,0-8.3-3.7-8.3-8.3v0c0-4.6,3.7-8.3,8.3-8.3h0c4.6,0,8.3,3.7,8.3,8.3v0
	C174.6,307.7,170.9,311.5,166.3,311.5z"/>
<path class="st1" d="M188.9,176L188.9,176c-4.6,0-8.3-3.7-8.3-8.3v0c0-4.6,3.7-8.3,8.3-8.3h0c4.6,0,8.3,3.7,8.3,8.3v0
	C197.2,172.3,193.4,176,188.9,176z"/>
<path class="st1" d="M188.9,221.1L188.9,221.1c-4.6,0-8.3-3.7-8.3-8.3v0c0-4.6,3.7-8.3,8.3-8.3h0c4.6,0,8.3,3.7,8.3,8.3v0
	C197.1,217.4,193.4,221.1,188.9,221.1z"/>
<path class="st1" d="M188.9,198.6L188.9,198.6c-4.6,0-8.3-3.7-8.3-8.3v0c0-4.6,3.7-8.3,8.3-8.3h0c4.6,0,8.3,3.7,8.3,8.3v0
	C197.1,194.8,193.4,198.6,188.9,198.6z"/>
<path class="st1" d="M188.9,243.7L188.9,243.7c-4.6,0-8.3-3.7-8.3-8.3v0c0-4.6,3.7-8.3,8.3-8.3h0c4.6,0,8.3,3.7,8.3,8.3v0
	C197.2,240,193.4,243.7,188.9,243.7z"/>
<path class="st1" d="M188.9,288.8L188.9,288.8c-4.6,0-8.3-3.7-8.3-8.3v0c0-4.6,3.7-8.3,8.3-8.3h0c4.6,0,8.3,3.7,8.3,8.3v0
	C197.1,285.1,193.4,288.8,188.9,288.8z"/>
<path class="st1" d="M188.9,266.3L188.9,266.3c-4.6,0-8.3-3.7-8.3-8.3l0,0c0-4.6,3.7-8.3,8.3-8.3h0c4.6,0,8.3,3.7,8.3,8.3l0,0
	C197.1,262.5,193.4,266.3,188.9,266.3z"/>
<path class="st1" d="M188.9,311.5L188.9,311.5c-4.6,0-8.3-3.7-8.3-8.3v0c0-4.6,3.7-8.3,8.3-8.3h0c4.6,0,8.3,3.7,8.3,8.3v0
	C197.1,307.7,193.4,311.5,188.9,311.5z"/>
<path class="st1" d="M211.5,176L211.5,176c-4.6,0-8.3-3.7-8.3-8.3v0c0-4.6,3.7-8.3,8.3-8.3h0c4.6,0,8.3,3.7,8.3,8.3v0
	C219.7,172.3,216,176,211.5,176z"/>
<path class="st1" d="M211.4,221.1L211.4,221.1c-4.6,0-8.3-3.7-8.3-8.3v0c0-4.6,3.7-8.3,8.3-8.3h0c4.6,0,8.3,3.7,8.3,8.3v0
	C219.7,217.4,216,221.1,211.4,221.1z"/>
<path class="st1" d="M211.4,198.6L211.4,198.6c-4.6,0-8.3-3.7-8.3-8.3v0c0-4.6,3.7-8.3,8.3-8.3h0c4.6,0,8.3,3.7,8.3,8.3v0
	C219.7,194.8,216,198.6,211.4,198.6z"/>
<path class="st1" d="M211.5,243.7L211.5,243.7c-4.6,0-8.3-3.7-8.3-8.3v0c0-4.6,3.7-8.3,8.3-8.3h0c4.6,0,8.3,3.7,8.3,8.3v0
	C219.7,240,216,243.7,211.5,243.7z"/>
<path class="st1" d="M234.1,176L234.1,176c-4.6,0-8.3-3.7-8.3-8.3v0c0-4.6,3.7-8.3,8.3-8.3h0c4.6,0,8.3,3.7,8.3,8.3v0
	C242.4,172.3,238.7,176,234.1,176z"/>
<path class="st1" d="M234.1,221.1L234.1,221.1c-4.6,0-8.3-3.7-8.3-8.3v0c0-4.6,3.7-8.3,8.3-8.3h0c4.6,0,8.3,3.7,8.3,8.3v0
	C242.4,217.4,238.7,221.1,234.1,221.1z"/>
<path class="st1" d="M234.1,198.6L234.1,198.6c-4.6,0-8.3-3.7-8.3-8.3v0c0-4.6,3.7-8.3,8.3-8.3h0c4.6,0,8.3,3.7,8.3,8.3v0
	C242.4,194.8,238.7,198.6,234.1,198.6z"/>
<path class="st1" d="M234.1,243.7L234.1,243.7c-4.6,0-8.3-3.7-8.3-8.3v0c0-4.6,3.7-8.3,8.3-8.3h0c4.6,0,8.3,3.7,8.3,8.3v0
	C242.4,240,238.7,243.7,234.1,243.7z"/>
<path class="st1" d="M256.6,108.3L256.6,108.3c-4.6,0-8.3-3.7-8.3-8.3v0c0-4.6,3.7-8.3,8.3-8.3l0,0c4.6,0,8.3,3.7,8.3,8.3v0
	C264.9,104.6,261.1,108.3,256.6,108.3z"/>
<path class="st1" d="M279.2,108.3L279.2,108.3c-4.6,0-8.3-3.7-8.3-8.3v0c0-4.6,3.7-8.3,8.3-8.3h0c4.6,0,8.3,3.7,8.3,8.3v0
	C287.4,104.6,283.7,108.3,279.2,108.3z"/>
<path class="st1" d="M256.6,85.7L256.6,85.7c-4.6,0-8.3-3.7-8.3-8.3v0c0-4.6,3.7-8.3,8.3-8.3l0,0c4.6,0,8.3,3.7,8.3,8.3v0
	C264.9,82,261.1,85.7,256.6,85.7z"/>
<path class="st1" d="M279.2,85.7L279.2,85.7c-4.6,0-8.3-3.7-8.3-8.3v0c0-4.6,3.7-8.3,8.3-8.3h0c4.6,0,8.3,3.7,8.3,8.3v0
	C287.4,82,283.7,85.7,279.2,85.7z"/>
<path class="st1" d="M8.3,63.1L8.3,63.1c-4.6,0-8.3-3.7-8.3-8.3v0c0-4.6,3.7-8.3,8.3-8.3h0c4.6,0,8.3,3.7,8.3,8.3v0
	C16.6,59.4,12.8,63.1,8.3,63.1z"/>
<path class="st1" d="M30.9,63.1L30.9,63.1c-4.6,0-8.3-3.7-8.3-8.3v0c0-4.6,3.7-8.3,8.3-8.3h0c4.6,0,8.3,3.7,8.3,8.3v0
	C39.1,59.4,35.4,63.1,30.9,63.1z"/>
<path class="st1" d="M53.4,63.1L53.4,63.1c-4.6,0-8.3-3.7-8.3-8.3v0c0-4.6,3.7-8.3,8.3-8.3h0c4.6,0,8.3,3.7,8.3,8.3v0
	C61.7,59.4,58,63.1,53.4,63.1z"/>
<path class="st1" d="M76,63.1L76,63.1c-4.6,0-8.3-3.7-8.3-8.3v0c0-4.6,3.7-8.3,8.3-8.3h0c4.6,0,8.3,3.7,8.3,8.3v0
	C84.3,59.4,80.6,63.1,76,63.1z"/>
<path class="st1" d="M98.6,63.1L98.6,63.1c-4.6,0-8.3-3.7-8.3-8.3v0c0-4.6,3.7-8.3,8.3-8.3h0c4.6,0,8.3,3.7,8.3,8.3v0
	C106.9,59.4,103.1,63.1,98.6,63.1z"/>
<path class="st1" d="M121.1,63.1L121.1,63.1c-4.6,0-8.3-3.7-8.3-8.3v0c0-4.6,3.7-8.3,8.3-8.3h0c4.6,0,8.3,3.7,8.3,8.3v0
	C129.4,59.4,125.7,63.1,121.1,63.1z"/>
<path class="st1" d="M143.7,63.1L143.7,63.1c-4.6,0-8.3-3.7-8.3-8.3v0c0-4.6,3.7-8.3,8.3-8.3h0c4.6,0,8.3,3.7,8.3,8.3v0
	C152,59.4,148.3,63.1,143.7,63.1z"/>
<path class="st1" d="M166.3,63.1L166.3,63.1c-4.6,0-8.3-3.7-8.3-8.3v0c0-4.6,3.7-8.3,8.3-8.3h0c4.6,0,8.3,3.7,8.3,8.3v0
	C174.6,59.4,170.8,63.1,166.3,63.1z"/>
<path class="st1" d="M188.8,63.1L188.8,63.1c-4.6,0-8.3-3.7-8.3-8.3v0c0-4.6,3.7-8.3,8.3-8.3h0c4.6,0,8.3,3.7,8.3,8.3v0
	C197.1,59.4,193.4,63.1,188.8,63.1z"/>
<path class="st1" d="M211.4,63.1L211.4,63.1c-4.6,0-8.3-3.7-8.3-8.3v0c0-4.6,3.7-8.3,8.3-8.3h0c4.6,0,8.3,3.7,8.3,8.3v0
	C219.7,59.4,216,63.1,211.4,63.1z"/>
<path class="st1" d="M234,63.1L234,63.1c-4.6,0-8.3-3.7-8.3-8.3v0c0-4.6,3.7-8.3,8.3-8.3h0c4.6,0,8.3,3.7,8.3,8.3v0
	C242.3,59.4,238.5,63.1,234,63.1z"/>
<path class="st1" d="M256.6,63.1L256.6,63.1c-4.6,0-8.3-3.7-8.3-8.3v0c0-4.6,3.7-8.3,8.3-8.3l0,0c4.6,0,8.3,3.7,8.3,8.3v0
	C264.9,59.4,261.1,63.1,256.6,63.1z"/>
<path class="st1" d="M279.3,63.1L279.3,63.1c-4.6,0-8.3-3.7-8.3-8.3v0c0-4.6,3.7-8.3,8.3-8.3l0,0c4.6,0,8.3,3.7,8.3,8.3v0
	C287.6,59.4,283.8,63.1,279.3,63.1z"/>
<path class="st1" d="M256.6,153.4L256.6,153.4c-4.6,0-8.3-3.7-8.3-8.3v0c0-4.6,3.7-8.3,8.3-8.3h0c4.6,0,8.3,3.7,8.3,8.3v0
	C264.9,149.7,261.2,153.4,256.6,153.4z"/>
<path class="st1" d="M279.2,153.4L279.2,153.4c-4.6,0-8.3-3.7-8.3-8.3v0c0-4.6,3.7-8.3,8.3-8.3h0c4.6,0,8.3,3.7,8.3,8.3v0
	C287.5,149.7,283.7,153.4,279.2,153.4z"/>
<path class="st1" d="M211.5,334L211.5,334c-4.6,0-8.3-3.7-8.3-8.3l0,0c0-4.6,3.7-8.3,8.3-8.3h0c4.6,0,8.3,3.7,8.3,8.3l0,0
	C219.8,330.3,216,334,211.5,334z"/>
<path class="st1" d="M234,334L234,334c-4.6,0-8.3-3.7-8.3-8.3l0,0c0-4.6,3.7-8.3,8.3-8.3h0c4.6,0,8.3,3.7,8.3,8.3l0,0
	C242.3,330.3,238.6,334,234,334z"/>
<path class="st1" d="M211.5,356.6L211.5,356.6c-4.6,0-8.3-3.7-8.3-8.3v0c0-4.6,3.7-8.3,8.3-8.3h0c4.6,0,8.3,3.7,8.3,8.3v0
	C219.8,352.9,216,356.6,211.5,356.6z"/>
<path class="st1" d="M234,356.6L234,356.6c-4.6,0-8.3-3.7-8.3-8.3v0c0-4.6,3.7-8.3,8.3-8.3h0c4.6,0,8.3,3.7,8.3,8.3v0
	C242.3,352.9,238.6,356.6,234,356.6z"/>
<path class="st1" d="M211.5,379.2L211.5,379.2c-4.6,0-8.3-3.7-8.3-8.3l0,0c0-4.6,3.7-8.3,8.3-8.3h0c4.6,0,8.3,3.7,8.3,8.3l0,0
	C219.8,375.5,216,379.2,211.5,379.2z"/>
<path class="st1" d="M234,379.2L234,379.2c-4.6,0-8.3-3.7-8.3-8.3l0,0c0-4.6,3.7-8.3,8.3-8.3h0c4.6,0,8.3,3.7,8.3,8.3l0,0
	C242.3,375.5,238.6,379.2,234,379.2z"/>
<path class="st1" d="M211.5,401.8L211.5,401.8c-4.6,0-8.3-3.7-8.3-8.3v0c0-4.6,3.7-8.3,8.3-8.3h0c4.6,0,8.3,3.7,8.3,8.3v0
	C219.8,398,216,401.8,211.5,401.8z"/>
<path class="st1" d="M234,401.8L234,401.8c-4.6,0-8.3-3.7-8.3-8.3v0c0-4.6,3.7-8.3,8.3-8.3h0c4.6,0,8.3,3.7,8.3,8.3v0
	C242.3,398,238.6,401.8,234,401.8z"/>
<path class="st1" d="M211.5,424.4L211.5,424.4c-4.6,0-8.3-3.7-8.3-8.3l0,0c0-4.6,3.7-8.3,8.3-8.3h0c4.6,0,8.3,3.7,8.3,8.3l0,0
	C219.8,420.7,216,424.4,211.5,424.4z"/>
<path class="st1" d="M234,424.4L234,424.4c-4.6,0-8.3-3.7-8.3-8.3l0,0c0-4.6,3.7-8.3,8.3-8.3h0c4.6,0,8.3,3.7,8.3,8.3l0,0
	C242.3,420.7,238.6,424.4,234,424.4z"/>
<path class="st1" d="M256.6,447L256.6,447c-4.6,0-8.3-3.7-8.3-8.3l0,0c0-4.6,3.7-8.3,8.3-8.3h0c4.6,0,8.3,3.7,8.3,8.3l0,0
	C264.9,443.2,261.2,447,256.6,447z"/>
<path class="st1" d="M279.2,447L279.2,447c-4.6,0-8.3-3.7-8.3-8.3l0,0c0-4.6,3.7-8.3,8.3-8.3h0c4.6,0,8.3,3.7,8.3,8.3l0,0
	C287.5,443.2,283.7,447,279.2,447z"/>
<path class="st1" d="M256.6,130.9L256.6,130.9c-4.6,0-8.3-3.7-8.3-8.3v0c0-4.6,3.7-8.3,8.3-8.3h0c4.6,0,8.3,3.7,8.3,8.3v0
	C264.9,127.1,261.2,130.9,256.6,130.9z"/>
<path class="st1" d="M279.2,130.9L279.2,130.9c-4.6,0-8.3-3.7-8.3-8.3v0c0-4.6,3.7-8.3,8.3-8.3h0c4.6,0,8.3,3.7,8.3,8.3v0
	C287.5,127.1,283.7,130.9,279.2,130.9z"/>
<path class="st1" d="M211.5,288.8L211.5,288.8c-4.6,0-8.3-3.7-8.3-8.3v0c0-4.6,3.7-8.3,8.3-8.3h0c4.6,0,8.3,3.7,8.3,8.3v0
	C219.8,285.1,216,288.8,211.5,288.8z"/>
<path class="st1" d="M211.5,266.3L211.5,266.3c-4.6,0-8.3-3.7-8.3-8.3l0,0c0-4.6,3.7-8.3,8.3-8.3h0c4.6,0,8.3,3.7,8.3,8.3l0,0
	C219.8,262.5,216,266.3,211.5,266.3z"/>
<path class="st1" d="M211.5,311.5L211.5,311.5c-4.6,0-8.3-3.7-8.3-8.3v0c0-4.6,3.7-8.3,8.3-8.3h0c4.6,0,8.3,3.7,8.3,8.3v0
	C219.8,307.7,216,311.5,211.5,311.5z"/>
<path class="st1" d="M234,288.8L234,288.8c-4.6,0-8.3-3.7-8.3-8.3v0c0-4.6,3.7-8.3,8.3-8.3h0c4.6,0,8.3,3.7,8.3,8.3v0
	C242.3,285.1,238.6,288.8,234,288.8z"/>
<path class="st1" d="M234,266.3L234,266.3c-4.6,0-8.3-3.7-8.3-8.3l0,0c0-4.6,3.7-8.3,8.3-8.3h0c4.6,0,8.3,3.7,8.3,8.3l0,0
	C242.3,262.5,238.6,266.3,234,266.3z"/>
<path class="st1" d="M234,311.5L234,311.5c-4.6,0-8.3-3.7-8.3-8.3v0c0-4.6,3.7-8.3,8.3-8.3h0c4.6,0,8.3,3.7,8.3,8.3v0
	C242.3,307.7,238.6,311.5,234,311.5z"/>
<path class="st1" d="M256.6,176L256.6,176c-4.6,0-8.3-3.7-8.3-8.3v0c0-4.6,3.7-8.3,8.3-8.3l0,0c4.6,0,8.3,3.7,8.3,8.3v0
	C264.9,172.3,261.2,176,256.6,176z"/>
<path class="st1" d="M256.6,221.1L256.6,221.1c-4.6,0-8.3-3.7-8.3-8.3v0c0-4.6,3.7-8.3,8.3-8.3h0c4.6,0,8.3,3.7,8.3,8.3v0
	C264.9,217.4,261.1,221.1,256.6,221.1z"/>
<path class="st1" d="M256.6,198.6L256.6,198.6c-4.6,0-8.3-3.7-8.3-8.3v0c0-4.6,3.7-8.3,8.3-8.3h0c4.6,0,8.3,3.7,8.3,8.3v0
	C264.9,194.8,261.1,198.6,256.6,198.6z"/>
<path class="st1" d="M279.3,176L279.3,176c-4.6,0-8.3-3.7-8.3-8.3v0c0-4.6,3.7-8.3,8.3-8.3l0,0c4.6,0,8.3,3.7,8.3,8.3v0
	C287.6,172.3,283.8,176,279.3,176z"/>
<path class="st1" d="M279.3,221.1L279.3,221.1c-4.6,0-8.3-3.7-8.3-8.3v0c0-4.6,3.7-8.3,8.3-8.3h0c4.6,0,8.3,3.7,8.3,8.3v0
	C287.5,217.4,283.8,221.1,279.3,221.1z"/>
<path class="st1" d="M279.3,198.6L279.3,198.6c-4.6,0-8.3-3.7-8.3-8.3v0c0-4.6,3.7-8.3,8.3-8.3h0c4.6,0,8.3,3.7,8.3,8.3v0
	C287.5,194.8,283.8,198.6,279.3,198.6z"/>
<path class="st1" d="M256.6,266.3L256.6,266.3c-4.6,0-8.3-3.7-8.3-8.3v0c0-4.6,3.7-8.3,8.3-8.3l0,0c4.6,0,8.3,3.7,8.3,8.3v0
	C264.9,262.5,261.1,266.3,256.6,266.3z"/>
<path class="st1" d="M279.2,266.3L279.2,266.3c-4.6,0-8.3-3.7-8.3-8.3v0c0-4.6,3.7-8.3,8.3-8.3h0c4.6,0,8.3,3.7,8.3,8.3v0
	C287.4,262.5,283.7,266.3,279.2,266.3z"/>
<path class="st1" d="M256.6,243.7L256.6,243.7c-4.6,0-8.3-3.7-8.3-8.3v0c0-4.6,3.7-8.3,8.3-8.3l0,0c4.6,0,8.3,3.7,8.3,8.3v0
	C264.9,240,261.1,243.7,256.6,243.7z"/>
<path class="st1" d="M279.2,243.7L279.2,243.7c-4.6,0-8.3-3.7-8.3-8.3v0c0-4.6,3.7-8.3,8.3-8.3h0c4.6,0,8.3,3.7,8.3,8.3v0
	C287.4,240,283.7,243.7,279.2,243.7z"/>
<path class="st1" d="M256.6,311.4L256.6,311.4c-4.6,0-8.3-3.7-8.3-8.3l0,0c0-4.6,3.7-8.3,8.3-8.3h0c4.6,0,8.3,3.7,8.3,8.3l0,0
	C264.9,307.7,261.2,311.4,256.6,311.4z"/>
<path class="st1" d="M279.2,311.4L279.2,311.4c-4.6,0-8.3-3.7-8.3-8.3l0,0c0-4.6,3.7-8.3,8.3-8.3h0c4.6,0,8.3,3.7,8.3,8.3l0,0
	C287.5,307.7,283.7,311.4,279.2,311.4z"/>
<path class="st1" d="M256.6,288.8L256.6,288.8c-4.6,0-8.3-3.7-8.3-8.3v0c0-4.6,3.7-8.3,8.3-8.3h0c4.6,0,8.3,3.7,8.3,8.3v0
	C264.9,285.1,261.2,288.8,256.6,288.8z"/>
<path class="st1" d="M279.2,288.8L279.2,288.8c-4.6,0-8.3-3.7-8.3-8.3v0c0-4.6,3.7-8.3,8.3-8.3h0c4.6,0,8.3,3.7,8.3,8.3v0
	C287.5,285.1,283.7,288.8,279.2,288.8z"/>
<path class="st1" d="M256.6,334L256.6,334c-4.6,0-8.3-3.7-8.3-8.3l0,0c0-4.6,3.7-8.3,8.3-8.3l0,0c4.6,0,8.3,3.7,8.3,8.3l0,0
	C264.9,330.2,261.2,334,256.6,334z"/>
<path class="st1" d="M256.6,379.1L256.6,379.1c-4.6,0-8.3-3.7-8.3-8.3l0,0c0-4.6,3.7-8.3,8.3-8.3h0c4.6,0,8.3,3.7,8.3,8.3l0,0
	C264.9,375.4,261.1,379.1,256.6,379.1z"/>
<path class="st1" d="M256.6,356.5L256.6,356.5c-4.6,0-8.3-3.7-8.3-8.3v0c0-4.6,3.7-8.3,8.3-8.3h0c4.6,0,8.3,3.7,8.3,8.3v0
	C264.9,352.8,261.1,356.5,256.6,356.5z"/>
<path class="st1" d="M279.3,334L279.3,334c-4.6,0-8.3-3.7-8.3-8.3l0,0c0-4.6,3.7-8.3,8.3-8.3l0,0c4.6,0,8.3,3.7,8.3,8.3l0,0
	C287.6,330.2,283.8,334,279.3,334z"/>
<path class="st1" d="M279.3,379.1L279.3,379.1c-4.6,0-8.3-3.7-8.3-8.3l0,0c0-4.6,3.7-8.3,8.3-8.3h0c4.6,0,8.3,3.7,8.3,8.3l0,0
	C287.5,375.4,283.8,379.1,279.3,379.1z"/>
<path class="st1" d="M279.3,356.5L279.3,356.5c-4.6,0-8.3-3.7-8.3-8.3v0c0-4.6,3.7-8.3,8.3-8.3h0c4.6,0,8.3,3.7,8.3,8.3v0
	C287.5,352.8,283.8,356.5,279.3,356.5z"/>
<path class="st1" d="M256.6,424.4L256.6,424.4c-4.6,0-8.3-3.7-8.3-8.3v0c0-4.6,3.7-8.3,8.3-8.3h0c4.6,0,8.3,3.7,8.3,8.3v0
	C264.9,420.6,261.1,424.4,256.6,424.4z"/>
<path class="st1" d="M256.6,401.8L256.6,401.8c-4.6,0-8.3-3.7-8.3-8.3v0c0-4.6,3.7-8.3,8.3-8.3h0c4.6,0,8.3,3.7,8.3,8.3v0
	C264.9,398.1,261.1,401.8,256.6,401.8z"/>
<path class="st1" d="M279.3,424.4L279.3,424.4c-4.6,0-8.3-3.7-8.3-8.3v0c0-4.6,3.7-8.3,8.3-8.3h0c4.6,0,8.3,3.7,8.3,8.3v0
	C287.5,420.6,283.8,424.4,279.3,424.4z"/>
<path class="st1" d="M279.3,401.8L279.3,401.8c-4.6,0-8.3-3.7-8.3-8.3v0c0-4.6,3.7-8.3,8.3-8.3h0c4.6,0,8.3,3.7,8.3,8.3v0
	C287.5,398.1,283.8,401.8,279.3,401.8z"/>
<g>
	<text transform="matrix(1 0 0 1 6.8076 57.531)" class="st2 st3 st4">1</text>
	<text transform="matrix(1 0 0 1 28.8692 57.531)" class="st2 st3 st4">2</text>
	<text transform="matrix(1 0 0 1 51.4434 57.531)" class="st2 st3 st4">3</text>
	<text transform="matrix(1 0 0 1 73.958 57.531)" class="st2 st3 st4">4</text>
	<text transform="matrix(1 0 0 1 96.6319 57.531)" class="st2 st3 st4">5</text>
	<text transform="matrix(1 0 0 1 118.9541 57.531)" class="st2 st3 st4">6</text>
	<text transform="matrix(1 0 0 1 141.9805 57.531)" class="st2 st3 st4">7</text>
	<text transform="matrix(1 0 0 1 164.1709 57.531)" class="st2 st3 st4">8</text>
	<text transform="matrix(1 0 0 1 186.6651 57.531)" class="st2 st3 st4">9</text>
	<text transform="matrix(1 0 0 1 207.3145 57.531)" class="st2 st3 st4">10</text>
	<text transform="matrix(1 0 0 1 230.7969 57.531)" class="st2 st3 st4">11</text>
	<text transform="matrix(1 0 0 1 252.8594 57.531)" class="st2 st3 st4">12</text>
	<text transform="matrix(1 0 0 1 275.4326 57.531)" class="st2 st3 st4">13</text>
	<text transform="matrix(1 0 0 1 74.2842 10.2195)" class="st2 st3 st4">1</text>
	<text transform="matrix(1 0 0 1 96.3457 10.2195)" class="st2 st3 st4">2</text>
	<text transform="matrix(1 0 0 1 118.9199 10.2195)" class="st2 st3 st4">3</text>
	<text transform="matrix(1 0 0 1 141.4346 10.2195)" class="st2 st3 st4">4</text>
	<text transform="matrix(1 0 0 1 164.1084 10.2195)" class="st2 st3 st4">5</text>
	<text transform="matrix(1 0 0 1 186.4307 10.2195)" class="st2 st3 st4">6</text>
	<text transform="matrix(1 0 0 1 209.457 10.2195)" class="st2 st3 st4">7</text>
	<text transform="matrix(1 0 0 1 231.6475 10.2195)" class="st2 st3 st4">8</text>
	<text transform="matrix(1 0 0 1 254.1416 10.2195)" class="st2 st3 st4">9</text>
	<text transform="matrix(1 0 0 1 274.791 10.2195)" class="st2 st3 st4">10</text>
	<text transform="matrix(1 0 0 1 6.8076 80.1785)" class="st2 st3 st4">1</text>
	<text transform="matrix(1 0 0 1 28.8692 80.1785)" class="st2 st3 st4">2</text>
	<text transform="matrix(1 0 0 1 51.4434 80.1785)" class="st2 st3 st4">3</text>
	<text transform="matrix(1 0 0 1 73.958 80.1785)" class="st2 st3 st4">4</text>
	<text transform="matrix(1 0 0 1 96.6319 80.1785)" class="st2 st3 st4">5</text>
	<text transform="matrix(1 0 0 1 118.9541 80.1785)" class="st2 st3 st4">6</text>
	<text transform="matrix(1 0 0 1 141.9805 80.1785)" class="st2 st3 st4">7</text>
	<text transform="matrix(1 0 0 1 164.1709 80.1785)" class="st2 st3 st4">8</text>
	<text transform="matrix(1 0 0 1 186.6651 80.1785)" class="st2 st3 st4">9</text>
	<text transform="matrix(1 0 0 1 207.3145 80.1785)" class="st2 st3 st4">10</text>
	<text transform="matrix(1 0 0 1 230.7969 80.1785)" class="st2 st3 st4">11</text>
	<text transform="matrix(1 0 0 1 252.8594 80.1785)" class="st2 st3 st4">12</text>
	<text transform="matrix(1 0 0 1 275.4326 80.1785)" class="st2 st3 st4">13</text>
	<text transform="matrix(1 0 0 1 29.3926 102.4344)" class="st2 st3 st4">1</text>
	<text transform="matrix(1 0 0 1 51.4541 102.4344)" class="st2 st3 st4">2</text>
	<text transform="matrix(1 0 0 1 74.0283 102.4344)" class="st2 st3 st4">3</text>
	<text transform="matrix(1 0 0 1 96.543 102.4344)" class="st2 st3 st4">4</text>
	<text transform="matrix(1 0 0 1 119.2168 102.4344)" class="st2 st3 st4">5</text>
	<text transform="matrix(1 0 0 1 141.5391 102.4344)" class="st2 st3 st4">6</text>
	<text transform="matrix(1 0 0 1 164.5654 102.4344)" class="st2 st3 st4">7</text>
	<text transform="matrix(1 0 0 1 186.7559 102.4344)" class="st2 st3 st4">8</text>
	<text transform="matrix(1 0 0 1 209.25 102.4344)" class="st2 st3 st4">9</text>
	<text transform="matrix(1 0 0 1 229.8994 102.4344)" class="st2 st3 st4">10</text>
	<text transform="matrix(1 0 0 1 253.3819 102.4344)" class="st2 st3 st4">11</text>
	<text transform="matrix(1 0 0 1 275.4444 102.4344)" class="st2 st3 st4">12</text>
	<text transform="matrix(1 0 0 1 29.3926 124.241)" class="st2 st3 st4">1</text>
	<text transform="matrix(1 0 0 1 51.4541 124.241)" class="st2 st3 st4">2</text>
	<text transform="matrix(1 0 0 1 74.0283 124.241)" class="st2 st3 st4">3</text>
	<text transform="matrix(1 0 0 1 96.543 124.241)" class="st2 st3 st4">4</text>
	<text transform="matrix(1 0 0 1 119.2168 124.241)" class="st2 st3 st4">5</text>
	<text transform="matrix(1 0 0 1 141.5391 124.241)" class="st2 st3 st4">6</text>
	<text transform="matrix(1 0 0 1 164.5654 124.241)" class="st2 st3 st4">7</text>
	<text transform="matrix(1 0 0 1 186.7559 124.241)" class="st2 st3 st4">8</text>
	<text transform="matrix(1 0 0 1 209.25 124.241)" class="st2 st3 st4">9</text>
	<text transform="matrix(1 0 0 1 229.8994 124.241)" class="st2 st3 st4">10</text>
	<text transform="matrix(1 0 0 1 253.3819 124.241)" class="st2 st3 st4">11</text>
	<text transform="matrix(1 0 0 1 275.4444 124.241)" class="st2 st3 st4">12</text>
	<text transform="matrix(1 0 0 1 29.3926 147.8914)" class="st2 st3 st4">1</text>
	<text transform="matrix(1 0 0 1 51.4541 147.8914)" class="st2 st3 st4">2</text>
	<text transform="matrix(1 0 0 1 74.0283 147.8914)" class="st2 st3 st4">3</text>
	<text transform="matrix(1 0 0 1 96.543 147.8914)" class="st2 st3 st4">4</text>
	<text transform="matrix(1 0 0 1 119.2168 147.8914)" class="st2 st3 st4">5</text>
	<text transform="matrix(1 0 0 1 141.5391 147.8914)" class="st2 st3 st4">6</text>
	<text transform="matrix(1 0 0 1 164.5654 147.8914)" class="st2 st3 st4">7</text>
	<text transform="matrix(1 0 0 1 186.7559 147.8914)" class="st2 st3 st4">8</text>
	<text transform="matrix(1 0 0 1 209.25 147.8914)" class="st2 st3 st4">9</text>
	<text transform="matrix(1 0 0 1 229.8994 147.8914)" class="st2 st3 st4">10</text>
	<text transform="matrix(1 0 0 1 253.3819 147.8914)" class="st2 st3 st4">11</text>
	<text transform="matrix(1 0 0 1 51.9473 169.8934)" class="st2 st3 st4">1</text>
	<text transform="matrix(1 0 0 1 74.0088 169.8934)" class="st2 st3 st4">2</text>
	<text transform="matrix(1 0 0 1 96.583 169.8934)" class="st2 st3 st4">3</text>
	<text transform="matrix(1 0 0 1 119.0977 169.8934)" class="st2 st3 st4">4</text>
	<text transform="matrix(1 0 0 1 141.7715 169.8934)" class="st2 st3 st4">5</text>
	<text transform="matrix(1 0 0 1 164.0938 169.8934)" class="st2 st3 st4">6</text>
	<text transform="matrix(1 0 0 1 187.1201 169.8934)" class="st2 st3 st4">7</text>
	<text transform="matrix(1 0 0 1 209.3106 169.8934)" class="st2 st3 st4">8</text>
	<text transform="matrix(1 0 0 1 231.8047 169.8934)" class="st2 st3 st4">9</text>
	<text transform="matrix(1 0 0 1 252.4541 169.8934)" class="st2 st3 st4">10</text>
	<text transform="matrix(1 0 0 1 275.9366 169.8934)" class="st2 st3 st4">11</text>
	<text transform="matrix(1 0 0 1 51.9473 191.7)" class="st2 st3 st4">1</text>
	<text transform="matrix(1 0 0 1 74.0088 191.7)" class="st2 st3 st4">2</text>
	<text transform="matrix(1 0 0 1 96.583 191.7)" class="st2 st3 st4">3</text>
	<text transform="matrix(1 0 0 1 119.0977 191.7)" class="st2 st3 st4">4</text>
	<text transform="matrix(1 0 0 1 141.7715 191.7)" class="st2 st3 st4">5</text>
	<text transform="matrix(1 0 0 1 164.0938 191.7)" class="st2 st3 st4">6</text>
	<text transform="matrix(1 0 0 1 187.1201 191.7)" class="st2 st3 st4">7</text>
	<text transform="matrix(1 0 0 1 209.3106 191.7)" class="st2 st3 st4">8</text>
	<text transform="matrix(1 0 0 1 231.8047 191.7)" class="st2 st3 st4">9</text>
	<text transform="matrix(1 0 0 1 252.4541 191.7)" class="st2 st3 st4">10</text>
	<text transform="matrix(1 0 0 1 275.9366 191.7)" class="st2 st3 st4">11</text>
	<text transform="matrix(1 0 0 1 51.9473 215.3504)" class="st2 st3 st4">1</text>
	<text transform="matrix(1 0 0 1 74.0088 215.3504)" class="st2 st3 st4">2</text>
	<text transform="matrix(1 0 0 1 96.583 215.3504)" class="st2 st3 st4">3</text>
	<text transform="matrix(1 0 0 1 119.0977 215.3504)" class="st2 st3 st4">4</text>
	<text transform="matrix(1 0 0 1 141.7715 215.3504)" class="st2 st3 st4">5</text>
	<text transform="matrix(1 0 0 1 164.0938 215.3504)" class="st2 st3 st4">6</text>
	<text transform="matrix(1 0 0 1 187.1201 215.3504)" class="st2 st3 st4">7</text>
	<text transform="matrix(1 0 0 1 209.3106 215.3504)" class="st2 st3 st4">8</text>
	<text transform="matrix(1 0 0 1 231.8047 215.3504)" class="st2 st3 st4">9</text>
	<text transform="matrix(1 0 0 1 252.4541 215.3504)" class="st2 st3 st4">10</text>
	<text transform="matrix(1 0 0 1 74.3106 238.1932)" class="st2 st3 st4">1</text>
	<text transform="matrix(1 0 0 1 96.3721 238.1932)" class="st2 st3 st4">2</text>
	<text transform="matrix(1 0 0 1 118.9463 238.1932)" class="st2 st3 st4">3</text>
	<text transform="matrix(1 0 0 1 141.461 238.1932)" class="st2 st3 st4">4</text>
	<text transform="matrix(1 0 0 1 164.1348 238.1932)" class="st2 st3 st4">5</text>
	<text transform="matrix(1 0 0 1 186.457 238.1932)" class="st2 st3 st4">6</text>
	<text transform="matrix(1 0 0 1 209.4834 238.1932)" class="st2 st3 st4">7</text>
	<text transform="matrix(1 0 0 1 231.6738 238.1932)" class="st2 st3 st4">8</text>
	<text transform="matrix(1 0 0 1 254.168 238.1932)" class="st2 st3 st4">9</text>
	<text transform="matrix(1 0 0 1 274.8174 238.1932)" class="st2 st3 st4">10</text>
	<text transform="matrix(1 0 0 1 74.3106 259.9998)" class="st2 st3 st4">1</text>
	<text transform="matrix(1 0 0 1 96.3721 259.9998)" class="st2 st3 st4">2</text>
	<text transform="matrix(1 0 0 1 118.9463 259.9998)" class="st2 st3 st4">3</text>
	<text transform="matrix(1 0 0 1 141.461 259.9998)" class="st2 st3 st4">4</text>
	<text transform="matrix(1 0 0 1 164.1348 259.9998)" class="st2 st3 st4">5</text>
	<text transform="matrix(1 0 0 1 186.457 259.9998)" class="st2 st3 st4">6</text>
	<text transform="matrix(1 0 0 1 209.4834 259.9998)" class="st2 st3 st4">7</text>
	<text transform="matrix(1 0 0 1 231.6738 259.9998)" class="st2 st3 st4">8</text>
	<text transform="matrix(1 0 0 1 254.168 259.9998)" class="st2 st3 st4">9</text>
	<text transform="matrix(1 0 0 1 97.0879 304.9988)" class="st2 st3 st4">1</text>
	<text transform="matrix(1 0 0 1 119.1494 304.9988)" class="st2 st3 st4">2</text>
	<text transform="matrix(1 0 0 1 141.7236 304.9988)" class="st2 st3 st4">3</text>
	<text transform="matrix(1 0 0 1 164.2383 304.9988)" class="st2 st3 st4">4</text>
	<text transform="matrix(1 0 0 1 186.9121 304.9988)" class="st2 st3 st4">5</text>
	<text transform="matrix(1 0 0 1 209.2344 304.9988)" class="st2 st3 st4">6</text>
	<text transform="matrix(1 0 0 1 232.2608 304.9988)" class="st2 st3 st4">7</text>
	<text transform="matrix(1 0 0 1 254.4512 304.9988)" class="st2 st3 st4">8</text>
	<text transform="matrix(1 0 0 1 276.9453 304.9988)" class="st2 st3 st4">9</text>
	<text transform="matrix(1 0 0 1 97.0879 326.8055)" class="st2 st3 st4">1</text>
	<text transform="matrix(1 0 0 1 119.1494 326.8055)" class="st2 st3 st4">2</text>
	<text transform="matrix(1 0 0 1 141.7236 326.8055)" class="st2 st3 st4">3</text>
	<text transform="matrix(1 0 0 1 164.2383 326.8055)" class="st2 st3 st4">4</text>
	<text transform="matrix(1 0 0 1 186.9121 326.8055)" class="st2 st3 st4">5</text>
	<text transform="matrix(1 0 0 1 209.2344 326.8055)" class="st2 st3 st4">6</text>
	<text transform="matrix(1 0 0 1 232.2608 326.8055)" class="st2 st3 st4">7</text>
	<text transform="matrix(1 0 0 1 254.4512 326.8055)" class="st2 st3 st4">8</text>
	<text transform="matrix(1 0 0 1 276.9453 326.8055)" class="st2 st3 st4">9</text>
	<text transform="matrix(1 0 0 1 274.8174 259.9998)" class="st2 st3 st4">10</text>
	<text transform="matrix(1 0 0 1 74.3106 283.6502)" class="st2 st3 st4">1</text>
	<text transform="matrix(1 0 0 1 96.3721 283.6502)" class="st2 st3 st4">2</text>
	<text transform="matrix(1 0 0 1 118.9463 283.6502)" class="st2 st3 st4">3</text>
	<text transform="matrix(1 0 0 1 141.461 283.6502)" class="st2 st3 st4">4</text>
	<text transform="matrix(1 0 0 1 164.1348 283.6502)" class="st2 st3 st4">5</text>
	<text transform="matrix(1 0 0 1 186.457 283.6502)" class="st2 st3 st4">6</text>
	<text transform="matrix(1 0 0 1 209.4834 283.6502)" class="st2 st3 st4">7</text>
	<text transform="matrix(1 0 0 1 231.6738 283.6502)" class="st2 st3 st4">8</text>
	<text transform="matrix(1 0 0 1 119.2979 350.7986)" class="st2 st3 st4">1</text>
	<text transform="matrix(1 0 0 1 141.3594 350.7986)" class="st2 st3 st4">2</text>
	<text transform="matrix(1 0 0 1 163.9336 350.7986)" class="st2 st3 st4">3</text>
	<text transform="matrix(1 0 0 1 186.4483 350.7986)" class="st2 st3 st4">4</text>
	<text transform="matrix(1 0 0 1 209.1221 350.7986)" class="st2 st3 st4">5</text>
	<text transform="matrix(1 0 0 1 231.4444 350.7986)" class="st2 st3 st4">6</text>
	<text transform="matrix(1 0 0 1 254.4707 350.7986)" class="st2 st3 st4">7</text>
	<text transform="matrix(1 0 0 1 276.6612 350.7986)" class="st2 st3 st4">8</text>
	<text transform="matrix(1 0 0 1 119.2979 372.6053)" class="st2 st3 st4">1</text>
	<text transform="matrix(1 0 0 1 141.3594 372.6053)" class="st2 st3 st4">2</text>
	<text transform="matrix(1 0 0 1 163.9336 372.6053)" class="st2 st3 st4">3</text>
	<text transform="matrix(1 0 0 1 186.4483 372.6053)" class="st2 st3 st4">4</text>
	<text transform="matrix(1 0 0 1 209.1221 372.6053)" class="st2 st3 st4">5</text>
	<text transform="matrix(1 0 0 1 231.4444 372.6053)" class="st2 st3 st4">6</text>
	<text transform="matrix(1 0 0 1 254.4707 372.6053)" class="st2 st3 st4">7</text>
	<text transform="matrix(1 0 0 1 276.6612 372.6053)" class="st2 st3 st4">8</text>
	<text transform="matrix(1 0 0 1 119.2979 396.2556)" class="st2 st3 st4">1</text>
	<text transform="matrix(1 0 0 1 141.3594 396.2556)" class="st2 st3 st4">2</text>
	<text transform="matrix(1 0 0 1 163.9336 396.2556)" class="st2 st3 st4">3</text>
	<text transform="matrix(1 0 0 1 186.4483 396.2556)" class="st2 st3 st4">4</text>
	<text transform="matrix(1 0 0 1 209.1221 396.2556)" class="st2 st3 st4">5</text>
	<text transform="matrix(1 0 0 1 231.4444 396.2556)" class="st2 st3 st4">6</text>
	<text transform="matrix(1 0 0 1 254.4707 396.2556)" class="st2 st3 st4">7</text>
	<text transform="matrix(1 0 0 1 142.6602 418.3562)" class="st2 st3 st4">1</text>
	<text transform="matrix(1 0 0 1 164.7217 418.3562)" class="st2 st3 st4">2</text>
	<text transform="matrix(1 0 0 1 187.2959 418.3562)" class="st2 st3 st4">3</text>
	<text transform="matrix(1 0 0 1 209.8106 418.3562)" class="st2 st3 st4">4</text>
	<text transform="matrix(1 0 0 1 232.4844 418.3562)" class="st2 st3 st4">5</text>
	<text transform="matrix(1 0 0 1 254.8067 418.3562)" class="st2 st3 st4">6</text>
	<text transform="matrix(1 0 0 1 277.833 418.3562)" class="st2 st3 st4">7</text>
	<text transform="matrix(1 0 0 1 142.6602 442.0066)" class="st2 st3 st4">1</text>
	<text transform="matrix(1 0 0 1 164.7217 442.0066)" class="st2 st3 st4">2</text>
	<text transform="matrix(1 0 0 1 187.2959 442.0066)" class="st2 st3 st4">3</text>
	<text transform="matrix(1 0 0 1 209.8106 442.0066)" class="st2 st3 st4">4</text>
	<text transform="matrix(1 0 0 1 232.4844 442.0066)" class="st2 st3 st4">5</text>
	<text transform="matrix(1 0 0 1 254.8067 442.0066)" class="st2 st3 st4">6</text>
	<text transform="matrix(1 0 0 1 277.833 442.0066)" class="st2 st3 st4">7</text>
	<text transform="matrix(1 0 0 1 276.6612 396.2556)" class="st2 st3 st4">8</text>
	<text transform="matrix(1 0 0 1 254.168 283.6502)" class="st2 st3 st4">9</text>
	<text transform="matrix(1 0 0 1 274.8174 283.6502)" class="st2 st3 st4">10</text>
	<text transform="matrix(1 0 0 1 275.9366 215.3504)" class="st2 st3 st4">11</text>
	<text transform="matrix(1 0 0 1 275.4444 147.8914)" class="st2 st3 st4">12</text>
</g>
<g>
	<text transform="matrix(1 0 0 1 347.1626 56.0008)" class="st5 st6 st7">29</text>
	<text transform="matrix(1 0 0 1 347.1626 11.6297)" class="st5 st6 st7">30</text>
	<text transform="matrix(1 0 0 1 347.1626 101.4969)" class="st5 st6 st7">27</text>
	<text transform="matrix(1 0 0 1 347.1626 78.9266)" class="st5 st6 st7">28</text>
	<text transform="matrix(1 0 0 1 347.1626 146.6395)" class="st5 st6 st7">25</text>
	<text transform="matrix(1 0 0 1 347.0025 327.239)" class="st5 st6 st7">17</text>
	<text transform="matrix(1 0 0 1 347.0025 349.7908)" class="st5 st6 st7">16</text>
	<text transform="matrix(1 0 0 1 347.1626 372.4265)" class="st5 st6 st7">15</text>
	<text transform="matrix(1 0 0 1 347.1626 394.9783)" class="st5 st6 st7">14</text>
	<text transform="matrix(1 0 0 1 346.9751 417.6111)" class="st5 st6 st7">13</text>
	<text transform="matrix(1 0 0 1 347.0025 440.1638)" class="st5 st6 st7">12</text>
	<text transform="matrix(1 0 0 1 347.1626 124.0691)" class="st5 st6 st7">26</text>
	<text transform="matrix(1 0 0 1 347.1626 169.0936)" class="st5 st6 st7">24</text>
	<text transform="matrix(1 0 0 1 347.1626 214.2811)" class="st5 st6 st7">22</text>
	<text transform="matrix(1 0 0 1 347.1626 191.7107)" class="st5 st6 st7">23</text>
	<text transform="matrix(1 0 0 1 347.1626 259.4256)" class="st5 st6 st7">20</text>
	<text transform="matrix(1 0 0 1 347.1626 236.8553)" class="st5 st6 st7">21</text>
	<text transform="matrix(1 0 0 1 346.9751 304.5681)" class="st5 st6 st7">18</text>
	<text transform="matrix(1 0 0 1 347.0025 281.9978)" class="st5 st6 st7">19</text>
</g>
</svg>
