<?xml version="1.0" encoding="utf-8"?>
<!-- Generator: Adobe Illustrator 20.1.0, SVG Export Plug-In . SVG Version: 6.00 Build 0)  -->
<svg version="1.1" id="Layer_1" xmlns="http://www.w3.org/2000/svg" xmlns:xlink="http://www.w3.org/1999/xlink" x="0px" y="0px"
	 viewBox="0 0 425.5 672.4" style="enable-background:new 0 0 425.5 672.4;" xml:space="preserve">
<style type="text/css">
	.st0{fill:#D9F6E1;}
	.st1{fill:#FFFFFF;}
	.st2{fill:#737373;}
	.st3{font-family:'OsnovaPro';}
	.st4{font-size:8px;}
	.st5{fill:#7B878F;}
	.st6{font-family:'OsnovaProLight';}
	.st7{font-size:9px;}
</style>
<path class="st0" d="M8.3,16.6L8.3,16.6C3.8,16.6,0,12.8,0,8.3v0C0,3.7,3.8,0,8.3,0h0c4.6,0,8.3,3.7,8.3,8.3v0
	C16.6,12.8,12.9,16.6,8.3,16.6z"/>
<path class="st0" d="M30.9,16.6L30.9,16.6c-4.6,0-8.3-3.7-8.3-8.3v0c0-4.6,3.7-8.3,8.3-8.3h0c4.6,0,8.3,3.7,8.3,8.3v0
	C39.2,12.8,35.4,16.6,30.9,16.6z"/>
<path class="st0" d="M53.5,16.6L53.5,16.6c-4.6,0-8.3-3.7-8.3-8.3v0c0-4.6,3.7-8.3,8.3-8.3h0c4.6,0,8.3,3.7,8.3,8.3v0
	C61.7,12.8,58,16.6,53.5,16.6z"/>
<path class="st0" d="M76,16.6L76,16.6c-4.6,0-8.3-3.7-8.3-8.3v0C67.7,3.7,71.5,0,76,0h0c4.6,0,8.3,3.7,8.3,8.3v0
	C84.3,12.8,80.6,16.6,76,16.6z"/>
<path class="st0" d="M98.6,16.6L98.6,16.6c-4.6,0-8.3-3.7-8.3-8.3v0C90.3,3.7,94,0,98.6,0h0c4.6,0,8.3,3.7,8.3,8.3v0
	C106.9,12.8,103.1,16.6,98.6,16.6z"/>
<path class="st0" d="M121.2,16.6L121.2,16.6c-4.6,0-8.3-3.7-8.3-8.3v0c0-4.6,3.7-8.3,8.3-8.3h0c4.6,0,8.3,3.7,8.3,8.3v0
	C129.4,12.8,125.7,16.6,121.2,16.6z"/>
<path class="st0" d="M143.8,16.6L143.8,16.6c-4.6,0-8.3-3.7-8.3-8.3v0c0-4.6,3.7-8.3,8.3-8.3h0c4.6,0,8.3,3.7,8.3,8.3v0
	C152.1,12.8,148.3,16.6,143.8,16.6z"/>
<path class="st0" d="M166.3,16.6L166.3,16.6c-4.6,0-8.3-3.7-8.3-8.3v0c0-4.6,3.7-8.3,8.3-8.3h0c4.6,0,8.3,3.7,8.3,8.3v0
	C174.6,12.8,170.9,16.6,166.3,16.6z"/>
<path class="st0" d="M188.9,16.6L188.9,16.6c-4.6,0-8.3-3.7-8.3-8.3v0c0-4.6,3.7-8.3,8.3-8.3h0c4.6,0,8.3,3.7,8.3,8.3v0
	C197.2,12.8,193.5,16.6,188.9,16.6z"/>
<path class="st0" d="M211.5,16.6L211.5,16.6c-4.6,0-8.3-3.7-8.3-8.3v0c0-4.6,3.7-8.3,8.3-8.3h0c4.6,0,8.3,3.7,8.3,8.3v0
	C219.8,12.8,216,16.6,211.5,16.6z"/>
<path class="st0" d="M234.1,16.6L234.1,16.6c-4.6,0-8.3-3.7-8.3-8.3v0c0-4.6,3.7-8.3,8.3-8.3h0c4.6,0,8.3,3.7,8.3,8.3v0
	C242.3,12.8,238.6,16.6,234.1,16.6z"/>
<path class="st0" d="M256.6,16.6L256.6,16.6c-4.6,0-8.3-3.7-8.3-8.3v0c0-4.6,3.7-8.3,8.3-8.3h0c4.6,0,8.3,3.7,8.3,8.3v0
	C264.9,12.8,261.2,16.6,256.6,16.6z"/>
<path class="st1" d="M8.3,107.9L8.3,107.9c-4.6,0-8.3-3.7-8.3-8.3v0c0-4.6,3.7-8.3,8.3-8.3h0c4.6,0,8.3,3.7,8.3,8.3v0
	C16.6,104.2,12.8,107.9,8.3,107.9z"/>
<path class="st1" d="M30.9,107.9L30.9,107.9c-4.6,0-8.3-3.7-8.3-8.3v0c0-4.6,3.7-8.3,8.3-8.3h0c4.6,0,8.3,3.7,8.3,8.3v0
	C39.1,104.2,35.4,107.9,30.9,107.9z"/>
<path class="st1" d="M53.4,107.9L53.4,107.9c-4.6,0-8.3-3.7-8.3-8.3v0c0-4.6,3.7-8.3,8.3-8.3h0c4.6,0,8.3,3.7,8.3,8.3v0
	C61.7,104.2,58,107.9,53.4,107.9z"/>
<path class="st1" d="M76,107.9L76,107.9c-4.6,0-8.3-3.7-8.3-8.3v0c0-4.6,3.7-8.3,8.3-8.3h0c4.6,0,8.3,3.7,8.3,8.3v0
	C84.3,104.2,80.6,107.9,76,107.9z"/>
<path class="st1" d="M98.6,107.9L98.6,107.9c-4.6,0-8.3-3.7-8.3-8.3v0c0-4.6,3.7-8.3,8.3-8.3h0c4.6,0,8.3,3.7,8.3,8.3v0
	C106.9,104.2,103.1,107.9,98.6,107.9z"/>
<path class="st1" d="M121.1,107.9L121.1,107.9c-4.6,0-8.3-3.7-8.3-8.3v0c0-4.6,3.7-8.3,8.3-8.3h0c4.6,0,8.3,3.7,8.3,8.3v0
	C129.4,104.2,125.7,107.9,121.1,107.9z"/>
<path class="st1" d="M143.7,107.9L143.7,107.9c-4.6,0-8.3-3.7-8.3-8.3v0c0-4.6,3.7-8.3,8.3-8.3h0c4.6,0,8.3,3.7,8.3,8.3v0
	C152,104.2,148.3,107.9,143.7,107.9z"/>
<path class="st1" d="M166.3,107.9L166.3,107.9c-4.6,0-8.3-3.7-8.3-8.3v0c0-4.6,3.7-8.3,8.3-8.3h0c4.6,0,8.3,3.7,8.3,8.3v0
	C174.6,104.2,170.8,107.9,166.3,107.9z"/>
<path class="st1" d="M188.8,107.9L188.8,107.9c-4.6,0-8.3-3.7-8.3-8.3v0c0-4.6,3.7-8.3,8.3-8.3h0c4.6,0,8.3,3.7,8.3,8.3v0
	C197.1,104.2,193.4,107.9,188.8,107.9z"/>
<path class="st1" d="M211.4,107.9L211.4,107.9c-4.6,0-8.3-3.7-8.3-8.3v0c0-4.6,3.7-8.3,8.3-8.3h0c4.6,0,8.3,3.7,8.3,8.3v0
	C219.7,104.2,216,107.9,211.4,107.9z"/>
<path class="st1" d="M234,107.9L234,107.9c-4.6,0-8.3-3.7-8.3-8.3v0c0-4.6,3.7-8.3,8.3-8.3h0c4.6,0,8.3,3.7,8.3,8.3v0
	C242.3,104.2,238.5,107.9,234,107.9z"/>
<path class="st1" d="M256.6,107.9L256.6,107.9c-4.6,0-8.3-3.7-8.3-8.3v0c0-4.6,3.7-8.3,8.3-8.3h0c4.6,0,8.3,3.7,8.3,8.3v0
	C264.8,104.2,261.1,107.9,256.6,107.9z"/>
<path class="st1" d="M279.1,107.9L279.1,107.9c-4.6,0-8.3-3.7-8.3-8.3v0c0-4.6,3.7-8.3,8.3-8.3h0c4.6,0,8.3,3.7,8.3,8.3v0
	C287.4,104.2,283.7,107.9,279.1,107.9z"/>
<path class="st1" d="M301.7,107.9L301.7,107.9c-4.6,0-8.3-3.7-8.3-8.3v0c0-4.6,3.7-8.3,8.3-8.3l0,0c4.6,0,8.3,3.7,8.3,8.3v0
	C310,104.2,306.3,107.9,301.7,107.9z"/>
<path class="st1" d="M324.3,107.9L324.3,107.9c-4.6,0-8.3-3.7-8.3-8.3v0c0-4.6,3.7-8.3,8.3-8.3l0,0c4.6,0,8.3,3.7,8.3,8.3v0
	C332.6,104.2,328.8,107.9,324.3,107.9z"/>
<path class="st1" d="M8.3,85.3L8.3,85.3C3.7,85.3,0,81.6,0,77v0c0-4.6,3.7-8.3,8.3-8.3h0c4.6,0,8.3,3.7,8.3,8.3v0
	C16.6,81.6,12.8,85.3,8.3,85.3z"/>
<path class="st1" d="M30.9,85.3L30.9,85.3c-4.6,0-8.3-3.7-8.3-8.3v0c0-4.6,3.7-8.3,8.3-8.3h0c4.6,0,8.3,3.7,8.3,8.3v0
	C39.1,81.6,35.4,85.3,30.9,85.3z"/>
<path class="st1" d="M53.4,85.3L53.4,85.3c-4.6,0-8.3-3.7-8.3-8.3v0c0-4.6,3.7-8.3,8.3-8.3h0c4.6,0,8.3,3.7,8.3,8.3v0
	C61.7,81.6,58,85.3,53.4,85.3z"/>
<path class="st1" d="M76,85.3L76,85.3c-4.6,0-8.3-3.7-8.3-8.3v0c0-4.6,3.7-8.3,8.3-8.3h0c4.6,0,8.3,3.7,8.3,8.3v0
	C84.3,81.6,80.6,85.3,76,85.3z"/>
<path class="st1" d="M98.6,85.3L98.6,85.3c-4.6,0-8.3-3.7-8.3-8.3v0c0-4.6,3.7-8.3,8.3-8.3h0c4.6,0,8.3,3.7,8.3,8.3v0
	C106.9,81.6,103.1,85.3,98.6,85.3z"/>
<path class="st1" d="M121.1,85.3L121.1,85.3c-4.6,0-8.3-3.7-8.3-8.3v0c0-4.6,3.7-8.3,8.3-8.3h0c4.6,0,8.3,3.7,8.3,8.3v0
	C129.4,81.6,125.7,85.3,121.1,85.3z"/>
<path class="st1" d="M143.7,85.3L143.7,85.3c-4.6,0-8.3-3.7-8.3-8.3v0c0-4.6,3.7-8.3,8.3-8.3h0c4.6,0,8.3,3.7,8.3,8.3v0
	C152,81.6,148.3,85.3,143.7,85.3z"/>
<path class="st1" d="M166.3,85.3L166.3,85.3c-4.6,0-8.3-3.7-8.3-8.3v0c0-4.6,3.7-8.3,8.3-8.3h0c4.6,0,8.3,3.7,8.3,8.3v0
	C174.6,81.6,170.8,85.3,166.3,85.3z"/>
<path class="st1" d="M188.8,85.3L188.8,85.3c-4.6,0-8.3-3.7-8.3-8.3v0c0-4.6,3.7-8.3,8.3-8.3h0c4.6,0,8.3,3.7,8.3,8.3v0
	C197.1,81.6,193.4,85.3,188.8,85.3z"/>
<path class="st1" d="M211.4,85.3L211.4,85.3c-4.6,0-8.3-3.7-8.3-8.3v0c0-4.6,3.7-8.3,8.3-8.3h0c4.6,0,8.3,3.7,8.3,8.3v0
	C219.7,81.6,216,85.3,211.4,85.3z"/>
<path class="st1" d="M234,85.3L234,85.3c-4.6,0-8.3-3.7-8.3-8.3v0c0-4.6,3.7-8.3,8.3-8.3h0c4.6,0,8.3,3.7,8.3,8.3v0
	C242.3,81.6,238.5,85.3,234,85.3z"/>
<path class="st1" d="M256.6,85.3L256.6,85.3c-4.6,0-8.3-3.7-8.3-8.3v0c0-4.6,3.7-8.3,8.3-8.3h0c4.6,0,8.3,3.7,8.3,8.3v0
	C264.8,81.6,261.1,85.3,256.6,85.3z"/>
<path class="st1" d="M279.1,85.3L279.1,85.3c-4.6,0-8.3-3.7-8.3-8.3v0c0-4.6,3.7-8.3,8.3-8.3h0c4.6,0,8.3,3.7,8.3,8.3v0
	C287.4,81.6,283.7,85.3,279.1,85.3z"/>
<path class="st1" d="M301.7,85.3L301.7,85.3c-4.6,0-8.3-3.7-8.3-8.3v0c0-4.6,3.7-8.3,8.3-8.3l0,0c4.6,0,8.3,3.7,8.3,8.3v0
	C310,81.6,306.3,85.3,301.7,85.3z"/>
<path class="st1" d="M324.3,85.3L324.3,85.3c-4.6,0-8.3-3.7-8.3-8.3v0c0-4.6,3.7-8.3,8.3-8.3l0,0c4.6,0,8.3,3.7,8.3,8.3v0
	C332.6,81.6,328.8,85.3,324.3,85.3z"/>
<path class="st1" d="M346.8,85.3L346.8,85.3c-4.6,0-8.3-3.7-8.3-8.3v0c0-4.6,3.7-8.3,8.3-8.3h0c4.6,0,8.3,3.7,8.3,8.3v0
	C355.1,81.6,351.4,85.3,346.8,85.3z"/>
<path class="st1" d="M8.3,153L8.3,153c-4.6,0-8.3-3.7-8.3-8.3v0c0-4.6,3.7-8.3,8.3-8.3h0c4.6,0,8.3,3.7,8.3,8.3v0
	C16.6,149.3,12.9,153,8.3,153z"/>
<path class="st1" d="M30.9,153L30.9,153c-4.6,0-8.3-3.7-8.3-8.3v0c0-4.6,3.7-8.3,8.3-8.3h0c4.6,0,8.3,3.7,8.3,8.3v0
	C39.2,149.3,35.4,153,30.9,153z"/>
<path class="st1" d="M53.5,153L53.5,153c-4.6,0-8.3-3.7-8.3-8.3v0c0-4.6,3.7-8.3,8.3-8.3h0c4.6,0,8.3,3.7,8.3,8.3v0
	C61.7,149.3,58,153,53.5,153z"/>
<path class="st1" d="M76,153L76,153c-4.6,0-8.3-3.7-8.3-8.3v0c0-4.6,3.7-8.3,8.3-8.3h0c4.6,0,8.3,3.7,8.3,8.3v0
	C84.3,149.3,80.6,153,76,153z"/>
<path class="st1" d="M98.6,153L98.6,153c-4.6,0-8.3-3.7-8.3-8.3v0c0-4.6,3.7-8.3,8.3-8.3h0c4.6,0,8.3,3.7,8.3,8.3v0
	C106.9,149.3,103.1,153,98.6,153z"/>
<path class="st1" d="M121.2,153L121.2,153c-4.6,0-8.3-3.7-8.3-8.3v0c0-4.6,3.7-8.3,8.3-8.3h0c4.6,0,8.3,3.7,8.3,8.3v0
	C129.4,149.3,125.7,153,121.2,153z"/>
<path class="st1" d="M143.7,153L143.7,153c-4.6,0-8.3-3.7-8.3-8.3v0c0-4.6,3.7-8.3,8.3-8.3h0c4.6,0,8.3,3.7,8.3,8.3v0
	C152,149.3,148.3,153,143.7,153z"/>
<path class="st1" d="M166.3,153L166.3,153c-4.6,0-8.3-3.7-8.3-8.3v0c0-4.6,3.7-8.3,8.3-8.3h0c4.6,0,8.3,3.7,8.3,8.3v0
	C174.6,149.3,170.9,153,166.3,153z"/>
<path class="st1" d="M188.9,153L188.9,153c-4.6,0-8.3-3.7-8.3-8.3v0c0-4.6,3.7-8.3,8.3-8.3h0c4.6,0,8.3,3.7,8.3,8.3v0
	C197.2,149.3,193.4,153,188.9,153z"/>
<path class="st1" d="M211.4,153L211.4,153c-4.6,0-8.3-3.7-8.3-8.3v0c0-4.6,3.7-8.3,8.3-8.3h0c4.6,0,8.3,3.7,8.3,8.3v0
	C219.7,149.3,216,153,211.4,153z"/>
<path class="st1" d="M234,153L234,153c-4.6,0-8.3-3.7-8.3-8.3v0c0-4.6,3.7-8.3,8.3-8.3h0c4.6,0,8.3,3.7,8.3,8.3v0
	C242.3,149.3,238.6,153,234,153z"/>
<path class="st1" d="M256.6,153L256.6,153c-4.6,0-8.3-3.7-8.3-8.3v0c0-4.6,3.7-8.3,8.3-8.3l0,0c4.6,0,8.3,3.7,8.3,8.3v0
	C264.9,149.3,261.1,153,256.6,153z"/>
<path class="st1" d="M279.2,153L279.2,153c-4.6,0-8.3-3.7-8.3-8.3v0c0-4.6,3.7-8.3,8.3-8.3l0,0c4.6,0,8.3,3.7,8.3,8.3v0
	C287.4,149.3,283.7,153,279.2,153z"/>
<path class="st1" d="M301.7,153L301.7,153c-4.6,0-8.3-3.7-8.3-8.3v0c0-4.6,3.7-8.3,8.3-8.3h0c4.6,0,8.3,3.7,8.3,8.3v0
	C310,149.3,306.3,153,301.7,153z"/>
<path class="st1" d="M53.5,333.6L53.5,333.6c-4.6,0-8.3-3.7-8.3-8.3v0c0-4.6,3.7-8.3,8.3-8.3h0c4.6,0,8.3,3.7,8.3,8.3v0
	C61.8,329.9,58.1,333.6,53.5,333.6z"/>
<path class="st1" d="M76.1,333.6L76.1,333.6c-4.6,0-8.3-3.7-8.3-8.3v0c0-4.6,3.7-8.3,8.3-8.3h0c4.6,0,8.3,3.7,8.3,8.3v0
	C84.4,329.9,80.6,333.6,76.1,333.6z"/>
<path class="st1" d="M98.6,333.6L98.6,333.6c-4.6,0-8.3-3.7-8.3-8.3v0c0-4.6,3.7-8.3,8.3-8.3h0c4.6,0,8.3,3.7,8.3,8.3v0
	C106.9,329.9,103.2,333.6,98.6,333.6z"/>
<path class="st1" d="M121.2,333.6L121.2,333.6c-4.6,0-8.3-3.7-8.3-8.3v0c0-4.6,3.7-8.3,8.3-8.3h0c4.6,0,8.3,3.7,8.3,8.3v0
	C129.5,329.9,125.8,333.6,121.2,333.6z"/>
<path class="st1" d="M143.8,333.6L143.8,333.6c-4.6,0-8.3-3.7-8.3-8.3v0c0-4.6,3.7-8.3,8.3-8.3h0c4.6,0,8.3,3.7,8.3,8.3v0
	C152.1,329.9,148.3,333.6,143.8,333.6z"/>
<path class="st1" d="M166.3,333.6L166.3,333.6c-4.6,0-8.3-3.7-8.3-8.3v0c0-4.6,3.7-8.3,8.3-8.3h0c4.6,0,8.3,3.7,8.3,8.3v0
	C174.6,329.9,170.9,333.6,166.3,333.6z"/>
<path class="st1" d="M188.9,333.6L188.9,333.6c-4.6,0-8.3-3.7-8.3-8.3v0c0-4.6,3.7-8.3,8.3-8.3h0c4.6,0,8.3,3.7,8.3,8.3v0
	C197.2,329.9,193.5,333.6,188.9,333.6z"/>
<path class="st1" d="M211.5,333.6L211.5,333.6c-4.6,0-8.3-3.7-8.3-8.3v0c0-4.6,3.7-8.3,8.3-8.3h0c4.6,0,8.3,3.7,8.3,8.3v0
	C219.8,329.9,216,333.6,211.5,333.6z"/>
<path class="st1" d="M53.5,356.2L53.5,356.2c-4.6,0-8.3-3.7-8.3-8.3l0,0c0-4.6,3.7-8.3,8.3-8.3h0c4.6,0,8.3,3.7,8.3,8.3l0,0
	C61.8,352.4,58.1,356.2,53.5,356.2z"/>
<path class="st1" d="M76.1,356.2L76.1,356.2c-4.6,0-8.3-3.7-8.3-8.3l0,0c0-4.6,3.7-8.3,8.3-8.3h0c4.6,0,8.3,3.7,8.3,8.3l0,0
	C84.4,352.4,80.6,356.2,76.1,356.2z"/>
<path class="st1" d="M98.6,356.2L98.6,356.2c-4.6,0-8.3-3.7-8.3-8.3l0,0c0-4.6,3.7-8.3,8.3-8.3h0c4.6,0,8.3,3.7,8.3,8.3l0,0
	C106.9,352.4,103.2,356.2,98.6,356.2z"/>
<path class="st1" d="M121.2,356.2L121.2,356.2c-4.6,0-8.3-3.7-8.3-8.3l0,0c0-4.6,3.7-8.3,8.3-8.3h0c4.6,0,8.3,3.7,8.3,8.3l0,0
	C129.5,352.4,125.8,356.2,121.2,356.2z"/>
<path class="st1" d="M143.8,356.2L143.8,356.2c-4.6,0-8.3-3.7-8.3-8.3l0,0c0-4.6,3.7-8.3,8.3-8.3h0c4.6,0,8.3,3.7,8.3,8.3l0,0
	C152.1,352.4,148.3,356.2,143.8,356.2z"/>
<path class="st1" d="M166.3,356.2L166.3,356.2c-4.6,0-8.3-3.7-8.3-8.3l0,0c0-4.6,3.7-8.3,8.3-8.3h0c4.6,0,8.3,3.7,8.3,8.3l0,0
	C174.6,352.4,170.9,356.2,166.3,356.2z"/>
<path class="st1" d="M188.9,356.2L188.9,356.2c-4.6,0-8.3-3.7-8.3-8.3l0,0c0-4.6,3.7-8.3,8.3-8.3h0c4.6,0,8.3,3.7,8.3,8.3l0,0
	C197.2,352.4,193.5,356.2,188.9,356.2z"/>
<path class="st1" d="M211.5,356.2L211.5,356.2c-4.6,0-8.3-3.7-8.3-8.3l0,0c0-4.6,3.7-8.3,8.3-8.3h0c4.6,0,8.3,3.7,8.3,8.3l0,0
	C219.8,352.4,216,356.2,211.5,356.2z"/>
<path class="st1" d="M53.5,378.8L53.5,378.8c-4.6,0-8.3-3.7-8.3-8.3v0c0-4.6,3.7-8.3,8.3-8.3h0c4.6,0,8.3,3.7,8.3,8.3v0
	C61.8,375.1,58.1,378.8,53.5,378.8z"/>
<path class="st1" d="M76.1,378.8L76.1,378.8c-4.6,0-8.3-3.7-8.3-8.3v0c0-4.6,3.7-8.3,8.3-8.3h0c4.6,0,8.3,3.7,8.3,8.3v0
	C84.4,375.1,80.6,378.8,76.1,378.8z"/>
<path class="st1" d="M98.6,378.8L98.6,378.8c-4.6,0-8.3-3.7-8.3-8.3v0c0-4.6,3.7-8.3,8.3-8.3h0c4.6,0,8.3,3.7,8.3,8.3v0
	C106.9,375.1,103.2,378.8,98.6,378.8z"/>
<path class="st1" d="M121.2,378.8L121.2,378.8c-4.6,0-8.3-3.7-8.3-8.3v0c0-4.6,3.7-8.3,8.3-8.3h0c4.6,0,8.3,3.7,8.3,8.3v0
	C129.5,375.1,125.8,378.8,121.2,378.8z"/>
<path class="st1" d="M143.8,378.8L143.8,378.8c-4.6,0-8.3-3.7-8.3-8.3v0c0-4.6,3.7-8.3,8.3-8.3h0c4.6,0,8.3,3.7,8.3,8.3v0
	C152.1,375.1,148.3,378.8,143.8,378.8z"/>
<path class="st1" d="M166.3,378.8L166.3,378.8c-4.6,0-8.3-3.7-8.3-8.3v0c0-4.6,3.7-8.3,8.3-8.3h0c4.6,0,8.3,3.7,8.3,8.3v0
	C174.6,375.1,170.9,378.8,166.3,378.8z"/>
<path class="st1" d="M188.9,378.8L188.9,378.8c-4.6,0-8.3-3.7-8.3-8.3v0c0-4.6,3.7-8.3,8.3-8.3h0c4.6,0,8.3,3.7,8.3,8.3v0
	C197.2,375.1,193.5,378.8,188.9,378.8z"/>
<path class="st1" d="M211.5,378.8L211.5,378.8c-4.6,0-8.3-3.7-8.3-8.3v0c0-4.6,3.7-8.3,8.3-8.3h0c4.6,0,8.3,3.7,8.3,8.3v0
	C219.8,375.1,216,378.8,211.5,378.8z"/>
<path class="st1" d="M53.5,401.4L53.5,401.4c-4.6,0-8.3-3.7-8.3-8.3l0,0c0-4.6,3.7-8.3,8.3-8.3h0c4.6,0,8.3,3.7,8.3,8.3l0,0
	C61.8,397.6,58.1,401.4,53.5,401.4z"/>
<path class="st1" d="M76.1,401.4L76.1,401.4c-4.6,0-8.3-3.7-8.3-8.3l0,0c0-4.6,3.7-8.3,8.3-8.3h0c4.6,0,8.3,3.7,8.3,8.3l0,0
	C84.4,397.6,80.6,401.4,76.1,401.4z"/>
<path class="st1" d="M98.6,401.4L98.6,401.4c-4.6,0-8.3-3.7-8.3-8.3l0,0c0-4.6,3.7-8.3,8.3-8.3h0c4.6,0,8.3,3.7,8.3,8.3l0,0
	C106.9,397.6,103.2,401.4,98.6,401.4z"/>
<path class="st1" d="M121.2,401.4L121.2,401.4c-4.6,0-8.3-3.7-8.3-8.3l0,0c0-4.6,3.7-8.3,8.3-8.3h0c4.6,0,8.3,3.7,8.3,8.3l0,0
	C129.5,397.6,125.8,401.4,121.2,401.4z"/>
<path class="st1" d="M143.8,401.4L143.8,401.4c-4.6,0-8.3-3.7-8.3-8.3l0,0c0-4.6,3.7-8.3,8.3-8.3h0c4.6,0,8.3,3.7,8.3,8.3l0,0
	C152.1,397.6,148.3,401.4,143.8,401.4z"/>
<path class="st1" d="M166.3,401.4L166.3,401.4c-4.6,0-8.3-3.7-8.3-8.3l0,0c0-4.6,3.7-8.3,8.3-8.3h0c4.6,0,8.3,3.7,8.3,8.3l0,0
	C174.6,397.6,170.9,401.4,166.3,401.4z"/>
<path class="st1" d="M188.9,401.4L188.9,401.4c-4.6,0-8.3-3.7-8.3-8.3l0,0c0-4.6,3.7-8.3,8.3-8.3h0c4.6,0,8.3,3.7,8.3,8.3l0,0
	C197.2,397.6,193.5,401.4,188.9,401.4z"/>
<path class="st1" d="M53.5,424L53.5,424c-4.6,0-8.3-3.7-8.3-8.3v0c0-4.6,3.7-8.3,8.3-8.3h0c4.6,0,8.3,3.7,8.3,8.3v0
	C61.8,420.3,58.1,424,53.5,424z"/>
<path class="st1" d="M76.1,424L76.1,424c-4.6,0-8.3-3.7-8.3-8.3v0c0-4.6,3.7-8.3,8.3-8.3h0c4.6,0,8.3,3.7,8.3,8.3v0
	C84.4,420.3,80.6,424,76.1,424z"/>
<path class="st1" d="M98.6,424L98.6,424c-4.6,0-8.3-3.7-8.3-8.3v0c0-4.6,3.7-8.3,8.3-8.3h0c4.6,0,8.3,3.7,8.3,8.3v0
	C106.9,420.3,103.2,424,98.6,424z"/>
<path class="st1" d="M121.2,424L121.2,424c-4.6,0-8.3-3.7-8.3-8.3v0c0-4.6,3.7-8.3,8.3-8.3h0c4.6,0,8.3,3.7,8.3,8.3v0
	C129.5,420.3,125.8,424,121.2,424z"/>
<path class="st1" d="M143.8,424L143.8,424c-4.6,0-8.3-3.7-8.3-8.3v0c0-4.6,3.7-8.3,8.3-8.3h0c4.6,0,8.3,3.7,8.3,8.3v0
	C152.1,420.3,148.3,424,143.8,424z"/>
<path class="st1" d="M166.3,424L166.3,424c-4.6,0-8.3-3.7-8.3-8.3v0c0-4.6,3.7-8.3,8.3-8.3h0c4.6,0,8.3,3.7,8.3,8.3v0
	C174.6,420.3,170.9,424,166.3,424z"/>
<path class="st1" d="M188.9,424L188.9,424c-4.6,0-8.3-3.7-8.3-8.3v0c0-4.6,3.7-8.3,8.3-8.3h0c4.6,0,8.3,3.7,8.3,8.3v0
	C197.2,420.3,193.5,424,188.9,424z"/>
<path class="st1" d="M8.3,446.5L8.3,446.5c-4.6,0-8.3-3.7-8.3-8.3l0,0c0-4.6,3.7-8.3,8.3-8.3h0c4.6,0,8.3,3.7,8.3,8.3l0,0
	C16.6,442.8,12.9,446.5,8.3,446.5z"/>
<path class="st1" d="M30.9,446.5L30.9,446.5c-4.6,0-8.3-3.7-8.3-8.3l0,0c0-4.6,3.7-8.3,8.3-8.3h0c4.6,0,8.3,3.7,8.3,8.3l0,0
	C39.2,442.8,35.4,446.5,30.9,446.5z"/>
<path class="st1" d="M53.5,446.5L53.5,446.5c-4.6,0-8.3-3.7-8.3-8.3l0,0c0-4.6,3.7-8.3,8.3-8.3h0c4.6,0,8.3,3.7,8.3,8.3l0,0
	C61.7,442.8,58,446.5,53.5,446.5z"/>
<path class="st1" d="M76,446.5L76,446.5c-4.6,0-8.3-3.7-8.3-8.3l0,0c0-4.6,3.7-8.3,8.3-8.3h0c4.6,0,8.3,3.7,8.3,8.3l0,0
	C84.3,442.8,80.6,446.5,76,446.5z"/>
<path class="st1" d="M98.6,446.5L98.6,446.5c-4.6,0-8.3-3.7-8.3-8.3l0,0c0-4.6,3.7-8.3,8.3-8.3h0c4.6,0,8.3,3.7,8.3,8.3l0,0
	C106.9,442.8,103.1,446.5,98.6,446.5z"/>
<path class="st1" d="M121.2,446.5L121.2,446.5c-4.6,0-8.3-3.7-8.3-8.3l0,0c0-4.6,3.7-8.3,8.3-8.3h0c4.6,0,8.3,3.7,8.3,8.3l0,0
	C129.4,442.8,125.7,446.5,121.2,446.5z"/>
<path class="st1" d="M143.7,446.5L143.7,446.5c-4.6,0-8.3-3.7-8.3-8.3l0,0c0-4.6,3.7-8.3,8.3-8.3h0c4.6,0,8.3,3.7,8.3,8.3l0,0
	C152,442.8,148.3,446.5,143.7,446.5z"/>
<path class="st1" d="M166.3,446.5L166.3,446.5c-4.6,0-8.3-3.7-8.3-8.3l0,0c0-4.6,3.7-8.3,8.3-8.3h0c4.6,0,8.3,3.7,8.3,8.3l0,0
	C174.6,442.8,170.9,446.5,166.3,446.5z"/>
<path class="st1" d="M188.9,446.5L188.9,446.5c-4.6,0-8.3-3.7-8.3-8.3l0,0c0-4.6,3.7-8.3,8.3-8.3h0c4.6,0,8.3,3.7,8.3,8.3l0,0
	C197.2,442.8,193.4,446.5,188.9,446.5z"/>
<path class="st1" d="M279.2,469.2L279.2,469.2c-4.6,0-8.3-3.7-8.3-8.3l0,0c0-4.6,3.7-8.3,8.3-8.3h0c4.6,0,8.3,3.7,8.3,8.3l0,0
	C287.5,465.5,283.7,469.2,279.2,469.2z"/>
<path class="st1" d="M301.7,469.2L301.7,469.2c-4.6,0-8.3-3.7-8.3-8.3l0,0c0-4.6,3.7-8.3,8.3-8.3l0,0c4.6,0,8.3,3.7,8.3,8.3l0,0
	C310,465.5,306.3,469.2,301.7,469.2z"/>
<path class="st1" d="M279.2,491.8L279.2,491.8c-4.6,0-8.3-3.7-8.3-8.3v0c0-4.6,3.7-8.3,8.3-8.3h0c4.6,0,8.3,3.7,8.3,8.3v0
	C287.5,488,283.7,491.8,279.2,491.8z"/>
<path class="st1" d="M8.3,130.5L8.3,130.5c-4.6,0-8.3-3.7-8.3-8.3v0c0-4.6,3.7-8.3,8.3-8.3h0c4.6,0,8.3,3.7,8.3,8.3v0
	C16.6,126.7,12.9,130.5,8.3,130.5z"/>
<path class="st1" d="M30.9,130.5L30.9,130.5c-4.6,0-8.3-3.7-8.3-8.3v0c0-4.6,3.7-8.3,8.3-8.3h0c4.6,0,8.3,3.7,8.3,8.3v0
	C39.2,126.7,35.4,130.5,30.9,130.5z"/>
<path class="st1" d="M53.5,130.5L53.5,130.5c-4.6,0-8.3-3.7-8.3-8.3v0c0-4.6,3.7-8.3,8.3-8.3h0c4.6,0,8.3,3.7,8.3,8.3v0
	C61.7,126.7,58,130.5,53.5,130.5z"/>
<path class="st1" d="M76,130.5L76,130.5c-4.6,0-8.3-3.7-8.3-8.3v0c0-4.6,3.7-8.3,8.3-8.3h0c4.6,0,8.3,3.7,8.3,8.3v0
	C84.3,126.7,80.6,130.5,76,130.5z"/>
<path class="st1" d="M98.6,130.5L98.6,130.5c-4.6,0-8.3-3.7-8.3-8.3v0c0-4.6,3.7-8.3,8.3-8.3h0c4.6,0,8.3,3.7,8.3,8.3v0
	C106.9,126.7,103.1,130.5,98.6,130.5z"/>
<path class="st1" d="M121.2,130.5L121.2,130.5c-4.6,0-8.3-3.7-8.3-8.3v0c0-4.6,3.7-8.3,8.3-8.3h0c4.6,0,8.3,3.7,8.3,8.3v0
	C129.4,126.7,125.7,130.5,121.2,130.5z"/>
<path class="st1" d="M143.7,130.5L143.7,130.5c-4.6,0-8.3-3.7-8.3-8.3v0c0-4.6,3.7-8.3,8.3-8.3h0c4.6,0,8.3,3.7,8.3,8.3v0
	C152,126.7,148.3,130.5,143.7,130.5z"/>
<path class="st1" d="M166.3,130.5L166.3,130.5c-4.6,0-8.3-3.7-8.3-8.3v0c0-4.6,3.7-8.3,8.3-8.3h0c4.6,0,8.3,3.7,8.3,8.3v0
	C174.6,126.7,170.9,130.5,166.3,130.5z"/>
<path class="st1" d="M188.9,130.5L188.9,130.5c-4.6,0-8.3-3.7-8.3-8.3v0c0-4.6,3.7-8.3,8.3-8.3h0c4.6,0,8.3,3.7,8.3,8.3v0
	C197.2,126.7,193.4,130.5,188.9,130.5z"/>
<path class="st1" d="M211.4,130.5L211.4,130.5c-4.6,0-8.3-3.7-8.3-8.3v0c0-4.6,3.7-8.3,8.3-8.3h0c4.6,0,8.3,3.7,8.3,8.3v0
	C219.7,126.7,216,130.5,211.4,130.5z"/>
<path class="st1" d="M234,130.5L234,130.5c-4.6,0-8.3-3.7-8.3-8.3v0c0-4.6,3.7-8.3,8.3-8.3h0c4.6,0,8.3,3.7,8.3,8.3v0
	C242.3,126.7,238.6,130.5,234,130.5z"/>
<path class="st1" d="M256.6,130.5L256.6,130.5c-4.6,0-8.3-3.7-8.3-8.3v0c0-4.6,3.7-8.3,8.3-8.3l0,0c4.6,0,8.3,3.7,8.3,8.3v0
	C264.9,126.7,261.1,130.5,256.6,130.5z"/>
<path class="st1" d="M279.2,130.5L279.2,130.5c-4.6,0-8.3-3.7-8.3-8.3v0c0-4.6,3.7-8.3,8.3-8.3l0,0c4.6,0,8.3,3.7,8.3,8.3v0
	C287.4,126.7,283.7,130.5,279.2,130.5z"/>
<path class="st1" d="M301.7,130.5L301.7,130.5c-4.6,0-8.3-3.7-8.3-8.3v0c0-4.6,3.7-8.3,8.3-8.3h0c4.6,0,8.3,3.7,8.3,8.3v0
	C310,126.7,306.3,130.5,301.7,130.5z"/>
<path class="st1" d="M324.3,130.5L324.3,130.5c-4.6,0-8.3-3.7-8.3-8.3v0c0-4.6,3.7-8.3,8.3-8.3h0c4.6,0,8.3,3.7,8.3,8.3v0
	C332.6,126.7,328.9,130.5,324.3,130.5z"/>
<path class="st1" d="M8.3,175.6L8.3,175.6c-4.6,0-8.3-3.7-8.3-8.3v0c0-4.6,3.7-8.3,8.3-8.3h0c4.6,0,8.3,3.7,8.3,8.3v0
	C16.6,171.9,12.9,175.6,8.3,175.6z"/>
<path class="st1" d="M30.9,175.6L30.9,175.6c-4.6,0-8.3-3.7-8.3-8.3v0c0-4.6,3.7-8.3,8.3-8.3h0c4.6,0,8.3,3.7,8.3,8.3v0
	C39.2,171.9,35.5,175.6,30.9,175.6z"/>
<path class="st1" d="M53.5,175.6L53.5,175.6c-4.6,0-8.3-3.7-8.3-8.3v0c0-4.6,3.7-8.3,8.3-8.3h0c4.6,0,8.3,3.7,8.3,8.3v0
	C61.8,171.9,58,175.6,53.5,175.6z"/>
<path class="st1" d="M76,175.6L76,175.6c-4.6,0-8.3-3.7-8.3-8.3v0c0-4.6,3.7-8.3,8.3-8.3h0c4.6,0,8.3,3.7,8.3,8.3v0
	C84.3,171.9,80.6,175.6,76,175.6z"/>
<path class="st1" d="M98.6,175.6L98.6,175.6c-4.6,0-8.3-3.7-8.3-8.3v0c0-4.6,3.7-8.3,8.3-8.3h0c4.6,0,8.3,3.7,8.3,8.3v0
	C106.9,171.9,103.2,175.6,98.6,175.6z"/>
<path class="st1" d="M121.2,175.6L121.2,175.6c-4.6,0-8.3-3.7-8.3-8.3v0c0-4.6,3.7-8.3,8.3-8.3h0c4.6,0,8.3,3.7,8.3,8.3v0
	C129.5,171.9,125.7,175.6,121.2,175.6z"/>
<path class="st1" d="M143.8,175.6L143.8,175.6c-4.6,0-8.3-3.7-8.3-8.3v0c0-4.6,3.7-8.3,8.3-8.3h0c4.6,0,8.3,3.7,8.3,8.3v0
	C152,171.9,148.3,175.6,143.8,175.6z"/>
<path class="st1" d="M166.3,175.6L166.3,175.6c-4.6,0-8.3-3.7-8.3-8.3v0c0-4.6,3.7-8.3,8.3-8.3h0c4.6,0,8.3,3.7,8.3,8.3v0
	C174.6,171.9,170.9,175.6,166.3,175.6z"/>
<path class="st1" d="M188.9,175.6L188.9,175.6c-4.6,0-8.3-3.7-8.3-8.3v0c0-4.6,3.7-8.3,8.3-8.3h0c4.6,0,8.3,3.7,8.3,8.3v0
	C197.2,171.9,193.4,175.6,188.9,175.6z"/>
<path class="st1" d="M211.5,175.6L211.5,175.6c-4.6,0-8.3-3.7-8.3-8.3v0c0-4.6,3.7-8.3,8.3-8.3h0c4.6,0,8.3,3.7,8.3,8.3v0
	C219.7,171.9,216,175.6,211.5,175.6z"/>
<path class="st1" d="M234,175.6L234,175.6c-4.6,0-8.3-3.7-8.3-8.3v0c0-4.6,3.7-8.3,8.3-8.3h0c4.6,0,8.3,3.7,8.3,8.3v0
	C242.3,171.9,238.6,175.6,234,175.6z"/>
<path class="st1" d="M256.6,175.6L256.6,175.6c-4.6,0-8.3-3.7-8.3-8.3v0c0-4.6,3.7-8.3,8.3-8.3l0,0c4.6,0,8.3,3.7,8.3,8.3v0
	C264.9,171.9,261.2,175.6,256.6,175.6z"/>
<path class="st1" d="M8.3,220.7L8.3,220.7c-4.6,0-8.3-3.7-8.3-8.3v0c0-4.6,3.7-8.3,8.3-8.3h0c4.6,0,8.3,3.7,8.3,8.3v0
	C16.6,217,12.9,220.7,8.3,220.7z"/>
<path class="st1" d="M30.9,220.7L30.9,220.7c-4.6,0-8.3-3.7-8.3-8.3v0c0-4.6,3.7-8.3,8.3-8.3h0c4.6,0,8.3,3.7,8.3,8.3v0
	C39.2,217,35.4,220.7,30.9,220.7z"/>
<path class="st1" d="M53.4,220.7L53.4,220.7c-4.6,0-8.3-3.7-8.3-8.3v0c0-4.6,3.7-8.3,8.3-8.3h0c4.6,0,8.3,3.7,8.3,8.3v0
	C61.7,217,58,220.7,53.4,220.7z"/>
<path class="st1" d="M76,220.7L76,220.7c-4.6,0-8.3-3.7-8.3-8.3v0c0-4.6,3.7-8.3,8.3-8.3h0c4.6,0,8.3,3.7,8.3,8.3v0
	C84.3,217,80.6,220.7,76,220.7z"/>
<path class="st1" d="M98.6,220.7L98.6,220.7c-4.6,0-8.3-3.7-8.3-8.3v0c0-4.6,3.7-8.3,8.3-8.3h0c4.6,0,8.3,3.7,8.3,8.3v0
	C106.9,217,103.1,220.7,98.6,220.7z"/>
<path class="st1" d="M121.2,220.7L121.2,220.7c-4.6,0-8.3-3.7-8.3-8.3v0c0-4.6,3.7-8.3,8.3-8.3h0c4.6,0,8.3,3.7,8.3,8.3v0
	C129.4,217,125.7,220.7,121.2,220.7z"/>
<path class="st1" d="M143.7,220.7L143.7,220.7c-4.6,0-8.3-3.7-8.3-8.3v0c0-4.6,3.7-8.3,8.3-8.3h0c4.6,0,8.3,3.7,8.3,8.3v0
	C152,217,148.3,220.7,143.7,220.7z"/>
<path class="st1" d="M166.3,220.7L166.3,220.7c-4.6,0-8.3-3.7-8.3-8.3v0c0-4.6,3.7-8.3,8.3-8.3h0c4.6,0,8.3,3.7,8.3,8.3v0
	C174.6,217,170.9,220.7,166.3,220.7z"/>
<path class="st1" d="M188.9,220.7L188.9,220.7c-4.6,0-8.3-3.7-8.3-8.3v0c0-4.6,3.7-8.3,8.3-8.3h0c4.6,0,8.3,3.7,8.3,8.3v0
	C197.2,217,193.4,220.7,188.9,220.7z"/>
<path class="st1" d="M211.4,220.7L211.4,220.7c-4.6,0-8.3-3.7-8.3-8.3v0c0-4.6,3.7-8.3,8.3-8.3h0c4.6,0,8.3,3.7,8.3,8.3v0
	C219.7,217,216,220.7,211.4,220.7z"/>
<path class="st1" d="M234,220.7L234,220.7c-4.6,0-8.3-3.7-8.3-8.3v0c0-4.6,3.7-8.3,8.3-8.3h0c4.6,0,8.3,3.7,8.3,8.3v0
	C242.3,217,238.6,220.7,234,220.7z"/>
<path class="st1" d="M256.6,220.7L256.6,220.7c-4.6,0-8.3-3.7-8.3-8.3v0c0-4.6,3.7-8.3,8.3-8.3h0c4.6,0,8.3,3.7,8.3,8.3v0
	C264.9,217,261.1,220.7,256.6,220.7z"/>
<path class="st1" d="M8.3,198.2L8.3,198.2c-4.6,0-8.3-3.7-8.3-8.3v0c0-4.6,3.7-8.3,8.3-8.3h0c4.6,0,8.3,3.7,8.3,8.3v0
	C16.6,194.4,12.9,198.2,8.3,198.2z"/>
<path class="st1" d="M30.9,198.2L30.9,198.2c-4.6,0-8.3-3.7-8.3-8.3v0c0-4.6,3.7-8.3,8.3-8.3h0c4.6,0,8.3,3.7,8.3,8.3v0
	C39.2,194.4,35.4,198.2,30.9,198.2z"/>
<path class="st1" d="M53.4,198.2L53.4,198.2c-4.6,0-8.3-3.7-8.3-8.3v0c0-4.6,3.7-8.3,8.3-8.3h0c4.6,0,8.3,3.7,8.3,8.3v0
	C61.7,194.4,58,198.2,53.4,198.2z"/>
<path class="st1" d="M76,198.2L76,198.2c-4.6,0-8.3-3.7-8.3-8.3v0c0-4.6,3.7-8.3,8.3-8.3h0c4.6,0,8.3,3.7,8.3,8.3v0
	C84.3,194.4,80.6,198.2,76,198.2z"/>
<path class="st1" d="M98.6,198.2L98.6,198.2c-4.6,0-8.3-3.7-8.3-8.3v0c0-4.6,3.7-8.3,8.3-8.3h0c4.6,0,8.3,3.7,8.3,8.3v0
	C106.9,194.4,103.1,198.2,98.6,198.2z"/>
<path class="st1" d="M121.2,198.2L121.2,198.2c-4.6,0-8.3-3.7-8.3-8.3v0c0-4.6,3.7-8.3,8.3-8.3h0c4.6,0,8.3,3.7,8.3,8.3v0
	C129.4,194.4,125.7,198.2,121.2,198.2z"/>
<path class="st1" d="M143.7,198.2L143.7,198.2c-4.6,0-8.3-3.7-8.3-8.3v0c0-4.6,3.7-8.3,8.3-8.3h0c4.6,0,8.3,3.7,8.3,8.3v0
	C152,194.4,148.3,198.2,143.7,198.2z"/>
<path class="st1" d="M166.3,198.2L166.3,198.2c-4.6,0-8.3-3.7-8.3-8.3v0c0-4.6,3.7-8.3,8.3-8.3h0c4.6,0,8.3,3.7,8.3,8.3v0
	C174.6,194.4,170.9,198.2,166.3,198.2z"/>
<path class="st1" d="M188.9,198.2L188.9,198.2c-4.6,0-8.3-3.7-8.3-8.3v0c0-4.6,3.7-8.3,8.3-8.3h0c4.6,0,8.3,3.7,8.3,8.3v0
	C197.2,194.4,193.4,198.2,188.9,198.2z"/>
<path class="st1" d="M211.4,198.2L211.4,198.2c-4.6,0-8.3-3.7-8.3-8.3v0c0-4.6,3.7-8.3,8.3-8.3h0c4.6,0,8.3,3.7,8.3,8.3v0
	C219.7,194.4,216,198.2,211.4,198.2z"/>
<path class="st1" d="M234,198.2L234,198.2c-4.6,0-8.3-3.7-8.3-8.3v0c0-4.6,3.7-8.3,8.3-8.3h0c4.6,0,8.3,3.7,8.3,8.3v0
	C242.3,194.4,238.6,198.2,234,198.2z"/>
<path class="st1" d="M256.6,198.2L256.6,198.2c-4.6,0-8.3-3.7-8.3-8.3v0c0-4.6,3.7-8.3,8.3-8.3h0c4.6,0,8.3,3.7,8.3,8.3v0
	C264.9,194.4,261.1,198.2,256.6,198.2z"/>
<path class="st1" d="M53.5,243.3L53.5,243.3c-4.6,0-8.3-3.7-8.3-8.3v0c0-4.6,3.7-8.3,8.3-8.3h0c4.6,0,8.3,3.7,8.3,8.3v0
	C61.8,239.6,58,243.3,53.5,243.3z"/>
<path class="st1" d="M76,243.3L76,243.3c-4.6,0-8.3-3.7-8.3-8.3v0c0-4.6,3.7-8.3,8.3-8.3h0c4.6,0,8.3,3.7,8.3,8.3v0
	C84.3,239.6,80.6,243.3,76,243.3z"/>
<path class="st1" d="M98.6,243.3L98.6,243.3c-4.6,0-8.3-3.7-8.3-8.3v0c0-4.6,3.7-8.3,8.3-8.3h0c4.6,0,8.3,3.7,8.3,8.3v0
	C106.9,239.6,103.2,243.3,98.6,243.3z"/>
<path class="st1" d="M121.2,243.3L121.2,243.3c-4.6,0-8.3-3.7-8.3-8.3v0c0-4.6,3.7-8.3,8.3-8.3h0c4.6,0,8.3,3.7,8.3,8.3v0
	C129.5,239.6,125.7,243.3,121.2,243.3z"/>
<path class="st1" d="M143.8,243.3L143.8,243.3c-4.6,0-8.3-3.7-8.3-8.3v0c0-4.6,3.7-8.3,8.3-8.3h0c4.6,0,8.3,3.7,8.3,8.3v0
	C152,239.6,148.3,243.3,143.8,243.3z"/>
<path class="st1" d="M166.3,243.3L166.3,243.3c-4.6,0-8.3-3.7-8.3-8.3v0c0-4.6,3.7-8.3,8.3-8.3h0c4.6,0,8.3,3.7,8.3,8.3v0
	C174.6,239.6,170.9,243.3,166.3,243.3z"/>
<path class="st1" d="M188.9,243.3L188.9,243.3c-4.6,0-8.3-3.7-8.3-8.3v0c0-4.6,3.7-8.3,8.3-8.3h0c4.6,0,8.3,3.7,8.3,8.3v0
	C197.2,239.6,193.4,243.3,188.9,243.3z"/>
<path class="st1" d="M211.5,243.3L211.5,243.3c-4.6,0-8.3-3.7-8.3-8.3v0c0-4.6,3.7-8.3,8.3-8.3h0c4.6,0,8.3,3.7,8.3,8.3v0
	C219.7,239.6,216,243.3,211.5,243.3z"/>
<path class="st1" d="M234,243.3L234,243.3c-4.6,0-8.3-3.7-8.3-8.3v0c0-4.6,3.7-8.3,8.3-8.3h0c4.6,0,8.3,3.7,8.3,8.3v0
	C242.3,239.6,238.6,243.3,234,243.3z"/>
<path class="st1" d="M256.6,243.3L256.6,243.3c-4.6,0-8.3-3.7-8.3-8.3v0c0-4.6,3.7-8.3,8.3-8.3l0,0c4.6,0,8.3,3.7,8.3,8.3v0
	C264.9,239.6,261.2,243.3,256.6,243.3z"/>
<path class="st1" d="M53.5,288.4L53.5,288.4c-4.6,0-8.3-3.7-8.3-8.3v0c0-4.6,3.7-8.3,8.3-8.3h0c4.6,0,8.3,3.7,8.3,8.3v0
	C61.8,284.7,58,288.4,53.5,288.4z"/>
<path class="st1" d="M76.1,288.4L76.1,288.4c-4.6,0-8.3-3.7-8.3-8.3v0c0-4.6,3.7-8.3,8.3-8.3h0c4.6,0,8.3,3.7,8.3,8.3v0
	C84.3,284.7,80.6,288.4,76.1,288.4z"/>
<path class="st1" d="M98.6,288.4L98.6,288.4c-4.6,0-8.3-3.7-8.3-8.3v0c0-4.6,3.7-8.3,8.3-8.3h0c4.6,0,8.3,3.7,8.3,8.3v0
	C106.9,284.7,103.2,288.4,98.6,288.4z"/>
<path class="st1" d="M121.2,288.4L121.2,288.4c-4.6,0-8.3-3.7-8.3-8.3v0c0-4.6,3.7-8.3,8.3-8.3h0c4.6,0,8.3,3.7,8.3,8.3v0
	C129.5,284.7,125.8,288.4,121.2,288.4z"/>
<path class="st1" d="M143.8,288.4L143.8,288.4c-4.6,0-8.3-3.7-8.3-8.3v0c0-4.6,3.7-8.3,8.3-8.3h0c4.6,0,8.3,3.7,8.3,8.3v0
	C152.1,284.7,148.3,288.4,143.8,288.4z"/>
<path class="st1" d="M166.3,288.4L166.3,288.4c-4.6,0-8.3-3.7-8.3-8.3v0c0-4.6,3.7-8.3,8.3-8.3h0c4.6,0,8.3,3.7,8.3,8.3v0
	C174.6,284.7,170.9,288.4,166.3,288.4z"/>
<path class="st1" d="M188.9,288.4L188.9,288.4c-4.6,0-8.3-3.7-8.3-8.3v0c0-4.6,3.7-8.3,8.3-8.3h0c4.6,0,8.3,3.7,8.3,8.3v0
	C197.2,284.7,193.5,288.4,188.9,288.4z"/>
<path class="st1" d="M211.5,288.4L211.5,288.4c-4.6,0-8.3-3.7-8.3-8.3v0c0-4.6,3.7-8.3,8.3-8.3h0c4.6,0,8.3,3.7,8.3,8.3v0
	C219.8,284.7,216,288.4,211.5,288.4z"/>
<path class="st1" d="M234.1,288.4L234.1,288.4c-4.6,0-8.3-3.7-8.3-8.3v0c0-4.6,3.7-8.3,8.3-8.3h0c4.6,0,8.3,3.7,8.3,8.3v0
	C242.3,284.7,238.6,288.4,234.1,288.4z"/>
<path class="st1" d="M53.5,265.9L53.5,265.9c-4.6,0-8.3-3.7-8.3-8.3v0c0-4.6,3.7-8.3,8.3-8.3h0c4.6,0,8.3,3.7,8.3,8.3v0
	C61.8,262.1,58,265.9,53.5,265.9z"/>
<path class="st1" d="M76.1,265.9L76.1,265.9c-4.6,0-8.3-3.7-8.3-8.3v0c0-4.6,3.7-8.3,8.3-8.3h0c4.6,0,8.3,3.7,8.3,8.3v0
	C84.3,262.1,80.6,265.9,76.1,265.9z"/>
<path class="st1" d="M98.6,265.9L98.6,265.9c-4.6,0-8.3-3.7-8.3-8.3v0c0-4.6,3.7-8.3,8.3-8.3h0c4.6,0,8.3,3.7,8.3,8.3v0
	C106.9,262.1,103.2,265.9,98.6,265.9z"/>
<path class="st1" d="M121.2,265.9L121.2,265.9c-4.6,0-8.3-3.7-8.3-8.3v0c0-4.6,3.7-8.3,8.3-8.3h0c4.6,0,8.3,3.7,8.3,8.3v0
	C129.5,262.1,125.8,265.9,121.2,265.9z"/>
<path class="st1" d="M143.8,265.9L143.8,265.9c-4.6,0-8.3-3.7-8.3-8.3v0c0-4.6,3.7-8.3,8.3-8.3h0c4.6,0,8.3,3.7,8.3,8.3v0
	C152.1,262.1,148.3,265.9,143.8,265.9z"/>
<path class="st1" d="M166.3,265.9L166.3,265.9c-4.6,0-8.3-3.7-8.3-8.3v0c0-4.6,3.7-8.3,8.3-8.3h0c4.6,0,8.3,3.7,8.3,8.3v0
	C174.6,262.1,170.9,265.9,166.3,265.9z"/>
<path class="st1" d="M188.9,265.9L188.9,265.9c-4.6,0-8.3-3.7-8.3-8.3v0c0-4.6,3.7-8.3,8.3-8.3h0c4.6,0,8.3,3.7,8.3,8.3v0
	C197.2,262.1,193.5,265.9,188.9,265.9z"/>
<path class="st1" d="M211.5,265.9L211.5,265.9c-4.6,0-8.3-3.7-8.3-8.3v0c0-4.6,3.7-8.3,8.3-8.3h0c4.6,0,8.3,3.7,8.3,8.3v0
	C219.8,262.1,216,265.9,211.5,265.9z"/>
<path class="st1" d="M234.1,265.9L234.1,265.9c-4.6,0-8.3-3.7-8.3-8.3v0c0-4.6,3.7-8.3,8.3-8.3h0c4.6,0,8.3,3.7,8.3,8.3v0
	C242.3,262.1,238.6,265.9,234.1,265.9z"/>
<path class="st1" d="M256.6,265.9L256.6,265.9c-4.6,0-8.3-3.7-8.3-8.3v0c0-4.6,3.7-8.3,8.3-8.3l0,0c4.6,0,8.3,3.7,8.3,8.3v0
	C264.9,262.1,261.2,265.9,256.6,265.9z"/>
<path class="st1" d="M8.4,469.2L8.4,469.2c-4.6,0-8.3-3.7-8.3-8.3l0,0c0-4.6,3.7-8.3,8.3-8.3h0c4.6,0,8.3,3.7,8.3,8.3l0,0
	C16.6,465.5,12.9,469.2,8.4,469.2z"/>
<path class="st1" d="M30.9,469.2L30.9,469.2c-4.6,0-8.3-3.7-8.3-8.3l0,0c0-4.6,3.7-8.3,8.3-8.3h0c4.6,0,8.3,3.7,8.3,8.3l0,0
	C39.2,465.5,35.5,469.2,30.9,469.2z"/>
<path class="st1" d="M53.5,469.2L53.5,469.2c-4.6,0-8.3-3.7-8.3-8.3l0,0c0-4.6,3.7-8.3,8.3-8.3h0c4.6,0,8.3,3.7,8.3,8.3l0,0
	C61.8,465.5,58,469.2,53.5,469.2z"/>
<path class="st1" d="M76.1,469.2L76.1,469.2c-4.6,0-8.3-3.7-8.3-8.3l0,0c0-4.6,3.7-8.3,8.3-8.3h0c4.6,0,8.3,3.7,8.3,8.3l0,0
	C84.3,465.5,80.6,469.2,76.1,469.2z"/>
<path class="st1" d="M98.6,469.2L98.6,469.2c-4.6,0-8.3-3.7-8.3-8.3l0,0c0-4.6,3.7-8.3,8.3-8.3h0c4.6,0,8.3,3.7,8.3,8.3l0,0
	C106.9,465.5,103.2,469.2,98.6,469.2z"/>
<path class="st1" d="M121.2,469.2L121.2,469.2c-4.6,0-8.3-3.7-8.3-8.3l0,0c0-4.6,3.7-8.3,8.3-8.3h0c4.6,0,8.3,3.7,8.3,8.3l0,0
	C129.5,465.5,125.8,469.2,121.2,469.2z"/>
<path class="st1" d="M143.8,469.2L143.8,469.2c-4.6,0-8.3-3.7-8.3-8.3l0,0c0-4.6,3.7-8.3,8.3-8.3h0c4.6,0,8.3,3.7,8.3,8.3l0,0
	C152.1,465.5,148.3,469.2,143.8,469.2z"/>
<path class="st1" d="M166.3,469.2L166.3,469.2c-4.6,0-8.3-3.7-8.3-8.3l0,0c0-4.6,3.7-8.3,8.3-8.3h0c4.6,0,8.3,3.7,8.3,8.3l0,0
	C174.6,465.5,170.9,469.2,166.3,469.2z"/>
<path class="st1" d="M188.9,469.2L188.9,469.2c-4.6,0-8.3-3.7-8.3-8.3l0,0c0-4.6,3.7-8.3,8.3-8.3h0c4.6,0,8.3,3.7,8.3,8.3l0,0
	C197.2,465.5,193.5,469.2,188.9,469.2z"/>
<path class="st1" d="M211.5,469.2L211.5,469.2c-4.6,0-8.3-3.7-8.3-8.3l0,0c0-4.6,3.7-8.3,8.3-8.3h0c4.6,0,8.3,3.7,8.3,8.3l0,0
	C219.8,465.5,216,469.2,211.5,469.2z"/>
<path class="st1" d="M234.1,469.2L234.1,469.2c-4.6,0-8.3-3.7-8.3-8.3l0,0c0-4.6,3.7-8.3,8.3-8.3h0c4.6,0,8.3,3.7,8.3,8.3l0,0
	C242.3,465.5,238.6,469.2,234.1,469.2z"/>
<path class="st1" d="M256.6,469.2L256.6,469.2c-4.6,0-8.3-3.7-8.3-8.3l0,0c0-4.6,3.7-8.3,8.3-8.3l0,0c4.6,0,8.3,3.7,8.3,8.3l0,0
	C264.9,465.5,261.2,469.2,256.6,469.2z"/>
<path class="st1" d="M8.3,514.3L8.3,514.3c-4.6,0-8.3-3.7-8.3-8.3l0,0c0-4.6,3.7-8.3,8.3-8.3h0c4.6,0,8.3,3.7,8.3,8.3l0,0
	C16.6,510.6,12.9,514.3,8.3,514.3z"/>
<path class="st1" d="M30.9,514.3L30.9,514.3c-4.6,0-8.3-3.7-8.3-8.3l0,0c0-4.6,3.7-8.3,8.3-8.3h0c4.6,0,8.3,3.7,8.3,8.3l0,0
	C39.2,510.6,35.5,514.3,30.9,514.3z"/>
<path class="st1" d="M53.5,514.3L53.5,514.3c-4.6,0-8.3-3.7-8.3-8.3l0,0c0-4.6,3.7-8.3,8.3-8.3h0c4.6,0,8.3,3.7,8.3,8.3l0,0
	C61.7,510.6,58,514.3,53.5,514.3z"/>
<path class="st1" d="M76,514.3L76,514.3c-4.6,0-8.3-3.7-8.3-8.3l0,0c0-4.6,3.7-8.3,8.3-8.3h0c4.6,0,8.3,3.7,8.3,8.3l0,0
	C84.3,510.6,80.6,514.3,76,514.3z"/>
<path class="st1" d="M98.6,514.3L98.6,514.3c-4.6,0-8.3-3.7-8.3-8.3l0,0c0-4.6,3.7-8.3,8.3-8.3h0c4.6,0,8.3,3.7,8.3,8.3l0,0
	C106.9,510.6,103.2,514.3,98.6,514.3z"/>
<path class="st1" d="M121.2,514.3L121.2,514.3c-4.6,0-8.3-3.7-8.3-8.3l0,0c0-4.6,3.7-8.3,8.3-8.3h0c4.6,0,8.3,3.7,8.3,8.3l0,0
	C129.5,510.6,125.7,514.3,121.2,514.3z"/>
<path class="st1" d="M143.7,514.3L143.7,514.3c-4.6,0-8.3-3.7-8.3-8.3l0,0c0-4.6,3.7-8.3,8.3-8.3h0c4.6,0,8.3,3.7,8.3,8.3l0,0
	C152,510.6,148.3,514.3,143.7,514.3z"/>
<path class="st1" d="M166.3,514.3L166.3,514.3c-4.6,0-8.3-3.7-8.3-8.3l0,0c0-4.6,3.7-8.3,8.3-8.3h0c4.6,0,8.3,3.7,8.3,8.3l0,0
	C174.6,510.6,170.9,514.3,166.3,514.3z"/>
<path class="st1" d="M188.9,514.3L188.9,514.3c-4.6,0-8.3-3.7-8.3-8.3l0,0c0-4.6,3.7-8.3,8.3-8.3h0c4.6,0,8.3,3.7,8.3,8.3l0,0
	C197.2,510.6,193.4,514.3,188.9,514.3z"/>
<path class="st1" d="M211.5,514.3L211.5,514.3c-4.6,0-8.3-3.7-8.3-8.3l0,0c0-4.6,3.7-8.3,8.3-8.3h0c4.6,0,8.3,3.7,8.3,8.3l0,0
	C219.7,510.6,216,514.3,211.5,514.3z"/>
<path class="st1" d="M234,514.3L234,514.3c-4.6,0-8.3-3.7-8.3-8.3l0,0c0-4.6,3.7-8.3,8.3-8.3h0c4.6,0,8.3,3.7,8.3,8.3l0,0
	C242.3,510.6,238.6,514.3,234,514.3z"/>
<path class="st1" d="M256.6,514.3L256.6,514.3c-4.6,0-8.3-3.7-8.3-8.3l0,0c0-4.6,3.7-8.3,8.3-8.3h0c4.6,0,8.3,3.7,8.3,8.3l0,0
	C264.9,510.6,261.2,514.3,256.6,514.3z"/>
<path class="st1" d="M8.3,491.8L8.3,491.8c-4.6,0-8.3-3.7-8.3-8.3l0,0c0-4.6,3.7-8.3,8.3-8.3h0c4.6,0,8.3,3.7,8.3,8.3l0,0
	C16.6,488.1,12.9,491.8,8.3,491.8z"/>
<path class="st1" d="M30.9,491.8L30.9,491.8c-4.6,0-8.3-3.7-8.3-8.3l0,0c0-4.6,3.7-8.3,8.3-8.3h0c4.6,0,8.3,3.7,8.3,8.3l0,0
	C39.2,488.1,35.5,491.8,30.9,491.8z"/>
<path class="st1" d="M53.5,491.8L53.5,491.8c-4.6,0-8.3-3.7-8.3-8.3l0,0c0-4.6,3.7-8.3,8.3-8.3h0c4.6,0,8.3,3.7,8.3,8.3l0,0
	C61.7,488.1,58,491.8,53.5,491.8z"/>
<path class="st1" d="M76,491.8L76,491.8c-4.6,0-8.3-3.7-8.3-8.3l0,0c0-4.6,3.7-8.3,8.3-8.3h0c4.6,0,8.3,3.7,8.3,8.3l0,0
	C84.3,488.1,80.6,491.8,76,491.8z"/>
<path class="st1" d="M98.6,491.8L98.6,491.8c-4.6,0-8.3-3.7-8.3-8.3l0,0c0-4.6,3.7-8.3,8.3-8.3h0c4.6,0,8.3,3.7,8.3,8.3l0,0
	C106.9,488.1,103.2,491.8,98.6,491.8z"/>
<path class="st1" d="M121.2,491.8L121.2,491.8c-4.6,0-8.3-3.7-8.3-8.3l0,0c0-4.6,3.7-8.3,8.3-8.3h0c4.6,0,8.3,3.7,8.3,8.3l0,0
	C129.5,488.1,125.7,491.8,121.2,491.8z"/>
<path class="st1" d="M143.7,491.8L143.7,491.8c-4.6,0-8.3-3.7-8.3-8.3l0,0c0-4.6,3.7-8.3,8.3-8.3h0c4.6,0,8.3,3.7,8.3,8.3l0,0
	C152,488.1,148.3,491.8,143.7,491.8z"/>
<path class="st1" d="M166.3,491.8L166.3,491.8c-4.6,0-8.3-3.7-8.3-8.3l0,0c0-4.6,3.7-8.3,8.3-8.3h0c4.6,0,8.3,3.7,8.3,8.3l0,0
	C174.6,488.1,170.9,491.8,166.3,491.8z"/>
<path class="st1" d="M188.9,491.8L188.9,491.8c-4.6,0-8.3-3.7-8.3-8.3l0,0c0-4.6,3.7-8.3,8.3-8.3h0c4.6,0,8.3,3.7,8.3,8.3l0,0
	C197.2,488.1,193.4,491.8,188.9,491.8z"/>
<path class="st1" d="M211.5,491.8L211.5,491.8c-4.6,0-8.3-3.7-8.3-8.3l0,0c0-4.6,3.7-8.3,8.3-8.3h0c4.6,0,8.3,3.7,8.3,8.3l0,0
	C219.7,488.1,216,491.8,211.5,491.8z"/>
<path class="st1" d="M234,491.8L234,491.8c-4.6,0-8.3-3.7-8.3-8.3l0,0c0-4.6,3.7-8.3,8.3-8.3h0c4.6,0,8.3,3.7,8.3,8.3l0,0
	C242.3,488.1,238.6,491.8,234,491.8z"/>
<path class="st1" d="M256.6,491.8L256.6,491.8c-4.6,0-8.3-3.7-8.3-8.3l0,0c0-4.6,3.7-8.3,8.3-8.3h0c4.6,0,8.3,3.7,8.3,8.3l0,0
	C264.9,488.1,261.2,491.8,256.6,491.8z"/>
<path class="st1" d="M8.4,536.9L8.4,536.9c-4.6,0-8.3-3.7-8.3-8.3v0c0-4.6,3.7-8.3,8.3-8.3h0c4.6,0,8.3,3.7,8.3,8.3v0
	C16.6,533.2,12.9,536.9,8.4,536.9z"/>
<path class="st1" d="M30.9,536.9L30.9,536.9c-4.6,0-8.3-3.7-8.3-8.3v0c0-4.6,3.7-8.3,8.3-8.3h0c4.6,0,8.3,3.7,8.3,8.3v0
	C39.2,533.2,35.5,536.9,30.9,536.9z"/>
<path class="st1" d="M53.5,536.9L53.5,536.9c-4.6,0-8.3-3.7-8.3-8.3v0c0-4.6,3.7-8.3,8.3-8.3h0c4.6,0,8.3,3.7,8.3,8.3v0
	C61.8,533.2,58,536.9,53.5,536.9z"/>
<path class="st1" d="M76.1,536.9L76.1,536.9c-4.6,0-8.3-3.7-8.3-8.3v0c0-4.6,3.7-8.3,8.3-8.3h0c4.6,0,8.3,3.7,8.3,8.3v0
	C84.3,533.2,80.6,536.9,76.1,536.9z"/>
<path class="st1" d="M98.6,536.9L98.6,536.9c-4.6,0-8.3-3.7-8.3-8.3v0c0-4.6,3.7-8.3,8.3-8.3h0c4.6,0,8.3,3.7,8.3,8.3v0
	C106.9,533.2,103.2,536.9,98.6,536.9z"/>
<path class="st1" d="M121.2,536.9L121.2,536.9c-4.6,0-8.3-3.7-8.3-8.3v0c0-4.6,3.7-8.3,8.3-8.3h0c4.6,0,8.3,3.7,8.3,8.3v0
	C129.5,533.2,125.8,536.9,121.2,536.9z"/>
<path class="st1" d="M143.8,536.9L143.8,536.9c-4.6,0-8.3-3.7-8.3-8.3v0c0-4.6,3.7-8.3,8.3-8.3h0c4.6,0,8.3,3.7,8.3,8.3v0
	C152.1,533.2,148.3,536.9,143.8,536.9z"/>
<path class="st1" d="M166.3,536.9L166.3,536.9c-4.6,0-8.3-3.7-8.3-8.3v0c0-4.6,3.7-8.3,8.3-8.3h0c4.6,0,8.3,3.7,8.3,8.3v0
	C174.6,533.2,170.9,536.9,166.3,536.9z"/>
<path class="st1" d="M188.9,536.9L188.9,536.9c-4.6,0-8.3-3.7-8.3-8.3v0c0-4.6,3.7-8.3,8.3-8.3h0c4.6,0,8.3,3.7,8.3,8.3v0
	C197.2,533.2,193.5,536.9,188.9,536.9z"/>
<path class="st1" d="M211.5,536.9L211.5,536.9c-4.6,0-8.3-3.7-8.3-8.3v0c0-4.6,3.7-8.3,8.3-8.3h0c4.6,0,8.3,3.7,8.3,8.3v0
	C219.8,533.2,216,536.9,211.5,536.9z"/>
<path class="st1" d="M234.1,536.9L234.1,536.9c-4.6,0-8.3-3.7-8.3-8.3v0c0-4.6,3.7-8.3,8.3-8.3h0c4.6,0,8.3,3.7,8.3,8.3v0
	C242.3,533.2,238.6,536.9,234.1,536.9z"/>
<path class="st1" d="M256.6,536.9L256.6,536.9c-4.6,0-8.3-3.7-8.3-8.3v0c0-4.6,3.7-8.3,8.3-8.3l0,0c4.6,0,8.3,3.7,8.3,8.3v0
	C264.9,533.2,261.2,536.9,256.6,536.9z"/>
<path class="st1" d="M8.3,582.1L8.3,582.1c-4.6,0-8.3-3.7-8.3-8.3l0,0c0-4.6,3.7-8.3,8.3-8.3h0c4.6,0,8.3,3.7,8.3,8.3l0,0
	C16.6,578.3,12.9,582.1,8.3,582.1z"/>
<path class="st1" d="M30.9,582.1L30.9,582.1c-4.6,0-8.3-3.7-8.3-8.3l0,0c0-4.6,3.7-8.3,8.3-8.3h0c4.6,0,8.3,3.7,8.3,8.3l0,0
	C39.2,578.3,35.5,582.1,30.9,582.1z"/>
<path class="st1" d="M53.5,582.1L53.5,582.1c-4.6,0-8.3-3.7-8.3-8.3l0,0c0-4.6,3.7-8.3,8.3-8.3h0c4.6,0,8.3,3.7,8.3,8.3l0,0
	C61.7,578.3,58,582.1,53.5,582.1z"/>
<path class="st1" d="M76,582.1L76,582.1c-4.6,0-8.3-3.7-8.3-8.3l0,0c0-4.6,3.7-8.3,8.3-8.3h0c4.6,0,8.3,3.7,8.3,8.3l0,0
	C84.3,578.3,80.6,582.1,76,582.1z"/>
<path class="st1" d="M98.6,582.1L98.6,582.1c-4.6,0-8.3-3.7-8.3-8.3l0,0c0-4.6,3.7-8.3,8.3-8.3h0c4.6,0,8.3,3.7,8.3,8.3l0,0
	C106.9,578.3,103.2,582.1,98.6,582.1z"/>
<path class="st1" d="M121.2,582.1L121.2,582.1c-4.6,0-8.3-3.7-8.3-8.3l0,0c0-4.6,3.7-8.3,8.3-8.3h0c4.6,0,8.3,3.7,8.3,8.3l0,0
	C129.5,578.3,125.7,582.1,121.2,582.1z"/>
<path class="st1" d="M143.7,582.1L143.7,582.1c-4.6,0-8.3-3.7-8.3-8.3l0,0c0-4.6,3.7-8.3,8.3-8.3h0c4.6,0,8.3,3.7,8.3,8.3l0,0
	C152,578.3,148.3,582.1,143.7,582.1z"/>
<path class="st1" d="M166.3,582.1L166.3,582.1c-4.6,0-8.3-3.7-8.3-8.3l0,0c0-4.6,3.7-8.3,8.3-8.3h0c4.6,0,8.3,3.7,8.3,8.3l0,0
	C174.6,578.3,170.9,582.1,166.3,582.1z"/>
<path class="st1" d="M188.9,582.1L188.9,582.1c-4.6,0-8.3-3.7-8.3-8.3l0,0c0-4.6,3.7-8.3,8.3-8.3h0c4.6,0,8.3,3.7,8.3,8.3l0,0
	C197.2,578.3,193.4,582.1,188.9,582.1z"/>
<path class="st1" d="M211.5,582.1L211.5,582.1c-4.6,0-8.3-3.7-8.3-8.3l0,0c0-4.6,3.7-8.3,8.3-8.3h0c4.6,0,8.3,3.7,8.3,8.3l0,0
	C219.7,578.3,216,582.1,211.5,582.1z"/>
<path class="st1" d="M8.3,559.5L8.3,559.5c-4.6,0-8.3-3.7-8.3-8.3l0,0c0-4.6,3.7-8.3,8.3-8.3h0c4.6,0,8.3,3.7,8.3,8.3l0,0
	C16.6,555.8,12.9,559.5,8.3,559.5z"/>
<path class="st1" d="M30.9,559.5L30.9,559.5c-4.6,0-8.3-3.7-8.3-8.3l0,0c0-4.6,3.7-8.3,8.3-8.3h0c4.6,0,8.3,3.7,8.3,8.3l0,0
	C39.2,555.8,35.5,559.5,30.9,559.5z"/>
<path class="st1" d="M53.5,559.5L53.5,559.5c-4.6,0-8.3-3.7-8.3-8.3l0,0c0-4.6,3.7-8.3,8.3-8.3h0c4.6,0,8.3,3.7,8.3,8.3l0,0
	C61.7,555.8,58,559.5,53.5,559.5z"/>
<path class="st1" d="M76,559.5L76,559.5c-4.6,0-8.3-3.7-8.3-8.3l0,0c0-4.6,3.7-8.3,8.3-8.3h0c4.6,0,8.3,3.7,8.3,8.3l0,0
	C84.3,555.8,80.6,559.5,76,559.5z"/>
<path class="st1" d="M98.6,559.5L98.6,559.5c-4.6,0-8.3-3.7-8.3-8.3l0,0c0-4.6,3.7-8.3,8.3-8.3h0c4.6,0,8.3,3.7,8.3,8.3l0,0
	C106.9,555.8,103.2,559.5,98.6,559.5z"/>
<path class="st1" d="M121.2,559.5L121.2,559.5c-4.6,0-8.3-3.7-8.3-8.3l0,0c0-4.6,3.7-8.3,8.3-8.3h0c4.6,0,8.3,3.7,8.3,8.3l0,0
	C129.5,555.8,125.7,559.5,121.2,559.5z"/>
<path class="st1" d="M143.7,559.5L143.7,559.5c-4.6,0-8.3-3.7-8.3-8.3l0,0c0-4.6,3.7-8.3,8.3-8.3h0c4.6,0,8.3,3.7,8.3,8.3l0,0
	C152,555.8,148.3,559.5,143.7,559.5z"/>
<path class="st1" d="M166.3,559.5L166.3,559.5c-4.6,0-8.3-3.7-8.3-8.3l0,0c0-4.6,3.7-8.3,8.3-8.3h0c4.6,0,8.3,3.7,8.3,8.3l0,0
	C174.6,555.8,170.9,559.5,166.3,559.5z"/>
<path class="st1" d="M188.9,559.5L188.9,559.5c-4.6,0-8.3-3.7-8.3-8.3l0,0c0-4.6,3.7-8.3,8.3-8.3h0c4.6,0,8.3,3.7,8.3,8.3l0,0
	C197.2,555.8,193.4,559.5,188.9,559.5z"/>
<path class="st1" d="M211.5,559.5L211.5,559.5c-4.6,0-8.3-3.7-8.3-8.3l0,0c0-4.6,3.7-8.3,8.3-8.3h0c4.6,0,8.3,3.7,8.3,8.3l0,0
	C219.7,555.8,216,559.5,211.5,559.5z"/>
<path class="st1" d="M234,559.5L234,559.5c-4.6,0-8.3-3.7-8.3-8.3l0,0c0-4.6,3.7-8.3,8.3-8.3h0c4.6,0,8.3,3.7,8.3,8.3l0,0
	C242.3,555.8,238.6,559.5,234,559.5z"/>
<path class="st1" d="M8.3,604.6L8.3,604.6c-4.6,0-8.3-3.7-8.3-8.3v0c0-4.6,3.7-8.3,8.3-8.3h0c4.6,0,8.3,3.7,8.3,8.3v0
	C16.6,600.9,12.9,604.6,8.3,604.6z"/>
<path class="st1" d="M30.9,604.6L30.9,604.6c-4.6,0-8.3-3.7-8.3-8.3v0c0-4.6,3.7-8.3,8.3-8.3h0c4.6,0,8.3,3.7,8.3,8.3v0
	C39.2,600.9,35.5,604.6,30.9,604.6z"/>
<path class="st1" d="M53.5,604.6L53.5,604.6c-4.6,0-8.3-3.7-8.3-8.3v0c0-4.6,3.7-8.3,8.3-8.3h0c4.6,0,8.3,3.7,8.3,8.3v0
	C61.7,600.9,58,604.6,53.5,604.6z"/>
<path class="st1" d="M76,604.6L76,604.6c-4.6,0-8.3-3.7-8.3-8.3v0c0-4.6,3.7-8.3,8.3-8.3h0c4.6,0,8.3,3.7,8.3,8.3v0
	C84.3,600.9,80.6,604.6,76,604.6z"/>
<path class="st1" d="M98.6,604.6L98.6,604.6c-4.6,0-8.3-3.7-8.3-8.3v0c0-4.6,3.7-8.3,8.3-8.3h0c4.6,0,8.3,3.7,8.3,8.3v0
	C106.9,600.9,103.2,604.6,98.6,604.6z"/>
<path class="st1" d="M121.2,604.6L121.2,604.6c-4.6,0-8.3-3.7-8.3-8.3v0c0-4.6,3.7-8.3,8.3-8.3h0c4.6,0,8.3,3.7,8.3,8.3v0
	C129.5,600.9,125.7,604.6,121.2,604.6z"/>
<path class="st1" d="M143.7,604.6L143.7,604.6c-4.6,0-8.3-3.7-8.3-8.3v0c0-4.6,3.7-8.3,8.3-8.3h0c4.6,0,8.3,3.7,8.3,8.3v0
	C152,600.9,148.3,604.6,143.7,604.6z"/>
<path class="st1" d="M166.3,604.6L166.3,604.6c-4.6,0-8.3-3.7-8.3-8.3v0c0-4.6,3.7-8.3,8.3-8.3h0c4.6,0,8.3,3.7,8.3,8.3v0
	C174.6,600.9,170.9,604.6,166.3,604.6z"/>
<path class="st1" d="M188.9,604.6L188.9,604.6c-4.6,0-8.3-3.7-8.3-8.3v0c0-4.6,3.7-8.3,8.3-8.3h0c4.6,0,8.3,3.7,8.3,8.3v0
	C197.2,600.9,193.4,604.6,188.9,604.6z"/>
<path class="st1" d="M53.5,311L53.5,311c-4.6,0-8.3-3.7-8.3-8.3l0,0c0-4.6,3.7-8.3,8.3-8.3h0c4.6,0,8.3,3.7,8.3,8.3l0,0
	C61.8,307.3,58,311,53.5,311z"/>
<path class="st1" d="M76.1,311L76.1,311c-4.6,0-8.3-3.7-8.3-8.3l0,0c0-4.6,3.7-8.3,8.3-8.3h0c4.6,0,8.3,3.7,8.3,8.3l0,0
	C84.3,307.3,80.6,311,76.1,311z"/>
<path class="st1" d="M98.6,311L98.6,311c-4.6,0-8.3-3.7-8.3-8.3l0,0c0-4.6,3.7-8.3,8.3-8.3h0c4.6,0,8.3,3.7,8.3,8.3l0,0
	C106.9,307.3,103.2,311,98.6,311z"/>
<path class="st1" d="M121.2,311L121.2,311c-4.6,0-8.3-3.7-8.3-8.3l0,0c0-4.6,3.7-8.3,8.3-8.3h0c4.6,0,8.3,3.7,8.3,8.3l0,0
	C129.5,307.3,125.8,311,121.2,311z"/>
<path class="st1" d="M143.8,311L143.8,311c-4.6,0-8.3-3.7-8.3-8.3l0,0c0-4.6,3.7-8.3,8.3-8.3h0c4.6,0,8.3,3.7,8.3,8.3l0,0
	C152.1,307.3,148.3,311,143.8,311z"/>
<path class="st1" d="M166.3,311L166.3,311c-4.6,0-8.3-3.7-8.3-8.3l0,0c0-4.6,3.7-8.3,8.3-8.3h0c4.6,0,8.3,3.7,8.3,8.3l0,0
	C174.6,307.3,170.9,311,166.3,311z"/>
<path class="st1" d="M188.9,311L188.9,311c-4.6,0-8.3-3.7-8.3-8.3l0,0c0-4.6,3.7-8.3,8.3-8.3h0c4.6,0,8.3,3.7,8.3,8.3l0,0
	C197.2,307.3,193.5,311,188.9,311z"/>
<path class="st1" d="M211.5,311L211.5,311c-4.6,0-8.3-3.7-8.3-8.3l0,0c0-4.6,3.7-8.3,8.3-8.3h0c4.6,0,8.3,3.7,8.3,8.3l0,0
	C219.8,307.3,216,311,211.5,311z"/>
<path class="st1" d="M234.1,311L234.1,311c-4.6,0-8.3-3.7-8.3-8.3l0,0c0-4.6,3.7-8.3,8.3-8.3h0c4.6,0,8.3,3.7,8.3,8.3l0,0
	C242.3,307.3,238.6,311,234.1,311z"/>
<path class="st1" d="M279.2,175.6L279.2,175.6c-4.6,0-8.3-3.7-8.3-8.3v0c0-4.6,3.7-8.3,8.3-8.3h0c4.6,0,8.3,3.7,8.3,8.3v0
	C287.5,171.9,283.8,175.6,279.2,175.6z"/>
<path class="st1" d="M279.2,220.7L279.2,220.7c-4.6,0-8.3-3.7-8.3-8.3v0c0-4.6,3.7-8.3,8.3-8.3l0,0c4.6,0,8.3,3.7,8.3,8.3v0
	C287.5,217,283.7,220.7,279.2,220.7z"/>
<path class="st1" d="M279.2,198.2L279.2,198.2c-4.6,0-8.3-3.7-8.3-8.3v0c0-4.6,3.7-8.3,8.3-8.3l0,0c4.6,0,8.3,3.7,8.3,8.3v0
	C287.5,194.4,283.7,198.2,279.2,198.2z"/>
<path class="st1" d="M301.7,175.6L301.7,175.6c-4.6,0-8.3-3.7-8.3-8.3v0c0-4.6,3.7-8.3,8.3-8.3l0,0c4.6,0,8.3,3.7,8.3,8.3v0
	C310,171.9,306.3,175.6,301.7,175.6z"/>
<path class="st1" d="M301.7,198.2L301.7,198.2c-4.6,0-8.3-3.7-8.3-8.3v0c0-4.6,3.7-8.3,8.3-8.3l0,0c4.6,0,8.3,3.7,8.3,8.3v0
	C310,194.4,306.3,198.2,301.7,198.2z"/>
<path class="st1" d="M8.4,627.3L8.4,627.3c-4.6,0-8.3-3.7-8.3-8.3l0,0c0-4.6,3.7-8.3,8.3-8.3h0c4.6,0,8.3,3.7,8.3,8.3l0,0
	C16.6,623.5,12.9,627.3,8.4,627.3z"/>
<path class="st1" d="M30.9,627.3L30.9,627.3c-4.6,0-8.3-3.7-8.3-8.3l0,0c0-4.6,3.7-8.3,8.3-8.3h0c4.6,0,8.3,3.7,8.3,8.3l0,0
	C39.2,623.5,35.5,627.3,30.9,627.3z"/>
<path class="st1" d="M53.5,627.3L53.5,627.3c-4.6,0-8.3-3.7-8.3-8.3l0,0c0-4.6,3.7-8.3,8.3-8.3h0c4.6,0,8.3,3.7,8.3,8.3l0,0
	C61.8,623.5,58,627.3,53.5,627.3z"/>
<path class="st1" d="M76.1,627.3L76.1,627.3c-4.6,0-8.3-3.7-8.3-8.3l0,0c0-4.6,3.7-8.3,8.3-8.3h0c4.6,0,8.3,3.7,8.3,8.3l0,0
	C84.3,623.5,80.6,627.3,76.1,627.3z"/>
<path class="st1" d="M98.6,627.3L98.6,627.3c-4.6,0-8.3-3.7-8.3-8.3l0,0c0-4.6,3.7-8.3,8.3-8.3h0c4.6,0,8.3,3.7,8.3,8.3l0,0
	C106.9,623.5,103.2,627.3,98.6,627.3z"/>
<path class="st1" d="M121.2,627.3L121.2,627.3c-4.6,0-8.3-3.7-8.3-8.3l0,0c0-4.6,3.7-8.3,8.3-8.3h0c4.6,0,8.3,3.7,8.3,8.3l0,0
	C129.5,623.5,125.8,627.3,121.2,627.3z"/>
<path class="st1" d="M143.8,627.3L143.8,627.3c-4.6,0-8.3-3.7-8.3-8.3l0,0c0-4.6,3.7-8.3,8.3-8.3h0c4.6,0,8.3,3.7,8.3,8.3l0,0
	C152.1,623.5,148.3,627.3,143.8,627.3z"/>
<path class="st1" d="M166.3,627.3L166.3,627.3c-4.6,0-8.3-3.7-8.3-8.3l0,0c0-4.6,3.7-8.3,8.3-8.3h0c4.6,0,8.3,3.7,8.3,8.3l0,0
	C174.6,623.5,170.9,627.3,166.3,627.3z"/>
<path class="st1" d="M188.9,627.3L188.9,627.3c-4.6,0-8.3-3.7-8.3-8.3l0,0c0-4.6,3.7-8.3,8.3-8.3h0c4.6,0,8.3,3.7,8.3,8.3l0,0
	C197.2,623.5,193.5,627.3,188.9,627.3z"/>
<path class="st1" d="M8.3,672.4L8.3,672.4c-4.6,0-8.3-3.7-8.3-8.3v0c0-4.6,3.7-8.3,8.3-8.3h0c4.6,0,8.3,3.7,8.3,8.3v0
	C16.6,668.7,12.9,672.4,8.3,672.4z"/>
<path class="st1" d="M30.9,672.4L30.9,672.4c-4.6,0-8.3-3.7-8.3-8.3v0c0-4.6,3.7-8.3,8.3-8.3h0c4.6,0,8.3,3.7,8.3,8.3v0
	C39.2,668.7,35.5,672.4,30.9,672.4z"/>
<path class="st1" d="M53.5,672.4L53.5,672.4c-4.6,0-8.3-3.7-8.3-8.3v0c0-4.6,3.7-8.3,8.3-8.3h0c4.6,0,8.3,3.7,8.3,8.3v0
	C61.7,668.7,58,672.4,53.5,672.4z"/>
<path class="st1" d="M76,672.4L76,672.4c-4.6,0-8.3-3.7-8.3-8.3v0c0-4.6,3.7-8.3,8.3-8.3h0c4.6,0,8.3,3.7,8.3,8.3v0
	C84.3,668.7,80.6,672.4,76,672.4z"/>
<path class="st1" d="M98.6,672.4L98.6,672.4c-4.6,0-8.3-3.7-8.3-8.3v0c0-4.6,3.7-8.3,8.3-8.3h0c4.6,0,8.3,3.7,8.3,8.3v0
	C106.9,668.7,103.2,672.4,98.6,672.4z"/>
<path class="st1" d="M121.2,672.4L121.2,672.4c-4.6,0-8.3-3.7-8.3-8.3v0c0-4.6,3.7-8.3,8.3-8.3h0c4.6,0,8.3,3.7,8.3,8.3v0
	C129.5,668.7,125.7,672.4,121.2,672.4z"/>
<path class="st1" d="M8.3,649.8L8.3,649.8c-4.6,0-8.3-3.7-8.3-8.3v0c0-4.6,3.7-8.3,8.3-8.3h0c4.6,0,8.3,3.7,8.3,8.3v0
	C16.6,646.1,12.9,649.8,8.3,649.8z"/>
<path class="st1" d="M30.9,649.8L30.9,649.8c-4.6,0-8.3-3.7-8.3-8.3v0c0-4.6,3.7-8.3,8.3-8.3h0c4.6,0,8.3,3.7,8.3,8.3v0
	C39.2,646.1,35.5,649.8,30.9,649.8z"/>
<path class="st1" d="M53.5,649.8L53.5,649.8c-4.6,0-8.3-3.7-8.3-8.3v0c0-4.6,3.7-8.3,8.3-8.3h0c4.6,0,8.3,3.7,8.3,8.3v0
	C61.7,646.1,58,649.8,53.5,649.8z"/>
<path class="st1" d="M76,649.8L76,649.8c-4.6,0-8.3-3.7-8.3-8.3v0c0-4.6,3.7-8.3,8.3-8.3h0c4.6,0,8.3,3.7,8.3,8.3v0
	C84.3,646.1,80.6,649.8,76,649.8z"/>
<path class="st1" d="M98.6,649.8L98.6,649.8c-4.6,0-8.3-3.7-8.3-8.3v0c0-4.6,3.7-8.3,8.3-8.3h0c4.6,0,8.3,3.7,8.3,8.3v0
	C106.9,646.1,103.2,649.8,98.6,649.8z"/>
<path class="st1" d="M121.2,649.8L121.2,649.8c-4.6,0-8.3-3.7-8.3-8.3v0c0-4.6,3.7-8.3,8.3-8.3h0c4.6,0,8.3,3.7,8.3,8.3v0
	C129.5,646.1,125.7,649.8,121.2,649.8z"/>
<path class="st1" d="M143.7,649.8L143.7,649.8c-4.6,0-8.3-3.7-8.3-8.3v0c0-4.6,3.7-8.3,8.3-8.3h0c4.6,0,8.3,3.7,8.3,8.3v0
	C152,646.1,148.3,649.8,143.7,649.8z"/>
<path class="st1" d="M166.3,649.8L166.3,649.8c-4.6,0-8.3-3.7-8.3-8.3v0c0-4.6,3.7-8.3,8.3-8.3h0c4.6,0,8.3,3.7,8.3,8.3v0
	C174.6,646.1,170.9,649.8,166.3,649.8z"/>
<path class="st1" d="M8.3,62.7L8.3,62.7C3.7,62.7,0,59,0,54.5v0c0-4.6,3.7-8.3,8.3-8.3h0c4.6,0,8.3,3.7,8.3,8.3v0
	C16.6,59,12.8,62.7,8.3,62.7z"/>
<path class="st1" d="M30.9,62.7L30.9,62.7c-4.6,0-8.3-3.7-8.3-8.3v0c0-4.6,3.7-8.3,8.3-8.3h0c4.6,0,8.3,3.7,8.3,8.3v0
	C39.1,59,35.4,62.7,30.9,62.7z"/>
<path class="st1" d="M53.4,62.7L53.4,62.7c-4.6,0-8.3-3.7-8.3-8.3v0c0-4.6,3.7-8.3,8.3-8.3h0c4.6,0,8.3,3.7,8.3,8.3v0
	C61.7,59,58,62.7,53.4,62.7z"/>
<path class="st1" d="M76,62.7L76,62.7c-4.6,0-8.3-3.7-8.3-8.3v0c0-4.6,3.7-8.3,8.3-8.3h0c4.6,0,8.3,3.7,8.3,8.3v0
	C84.3,59,80.6,62.7,76,62.7z"/>
<path class="st1" d="M98.6,62.7L98.6,62.7c-4.6,0-8.3-3.7-8.3-8.3v0c0-4.6,3.7-8.3,8.3-8.3h0c4.6,0,8.3,3.7,8.3,8.3v0
	C106.9,59,103.1,62.7,98.6,62.7z"/>
<path class="st1" d="M121.1,62.7L121.1,62.7c-4.6,0-8.3-3.7-8.3-8.3v0c0-4.6,3.7-8.3,8.3-8.3h0c4.6,0,8.3,3.7,8.3,8.3v0
	C129.4,59,125.7,62.7,121.1,62.7z"/>
<path class="st1" d="M143.7,62.7L143.7,62.7c-4.6,0-8.3-3.7-8.3-8.3v0c0-4.6,3.7-8.3,8.3-8.3h0c4.6,0,8.3,3.7,8.3,8.3v0
	C152,59,148.3,62.7,143.7,62.7z"/>
<path class="st1" d="M166.3,62.7L166.3,62.7c-4.6,0-8.3-3.7-8.3-8.3v0c0-4.6,3.7-8.3,8.3-8.3h0c4.6,0,8.3,3.7,8.3,8.3v0
	C174.6,59,170.8,62.7,166.3,62.7z"/>
<path class="st1" d="M188.8,62.7L188.8,62.7c-4.6,0-8.3-3.7-8.3-8.3v0c0-4.6,3.7-8.3,8.3-8.3h0c4.6,0,8.3,3.7,8.3,8.3v0
	C197.1,59,193.4,62.7,188.8,62.7z"/>
<path class="st1" d="M211.4,62.7L211.4,62.7c-4.6,0-8.3-3.7-8.3-8.3v0c0-4.6,3.7-8.3,8.3-8.3h0c4.6,0,8.3,3.7,8.3,8.3v0
	C219.7,59,216,62.7,211.4,62.7z"/>
<path class="st1" d="M234,62.7L234,62.7c-4.6,0-8.3-3.7-8.3-8.3v0c0-4.6,3.7-8.3,8.3-8.3h0c4.6,0,8.3,3.7,8.3,8.3v0
	C242.3,59,238.5,62.7,234,62.7z"/>
<path class="st1" d="M256.6,62.7L256.6,62.7c-4.6,0-8.3-3.7-8.3-8.3v0c0-4.6,3.7-8.3,8.3-8.3h0c4.6,0,8.3,3.7,8.3,8.3v0
	C264.8,59,261.1,62.7,256.6,62.7z"/>
<path class="st1" d="M279.1,62.7L279.1,62.7c-4.6,0-8.3-3.7-8.3-8.3v0c0-4.6,3.7-8.3,8.3-8.3h0c4.6,0,8.3,3.7,8.3,8.3v0
	C287.4,59,283.7,62.7,279.1,62.7z"/>
<path class="st1" d="M301.7,62.7L301.7,62.7c-4.6,0-8.3-3.7-8.3-8.3v0c0-4.6,3.7-8.3,8.3-8.3l0,0c4.6,0,8.3,3.7,8.3,8.3v0
	C310,59,306.3,62.7,301.7,62.7z"/>
<path class="st1" d="M324.3,62.7L324.3,62.7c-4.6,0-8.3-3.7-8.3-8.3v0c0-4.6,3.7-8.3,8.3-8.3l0,0c4.6,0,8.3,3.7,8.3,8.3v0
	C332.6,59,328.8,62.7,324.3,62.7z"/>
<path class="st1" d="M346.8,62.7L346.8,62.7c-4.6,0-8.3-3.7-8.3-8.3v0c0-4.6,3.7-8.3,8.3-8.3h0c4.6,0,8.3,3.7,8.3,8.3v0
	C355.1,59,351.4,62.7,346.8,62.7z"/>
<g>
	<text transform="matrix(1 0 0 1 6.6385 10.1288)" class="st2 st3 st4">1</text>
	<text transform="matrix(1 0 0 1 28.701 10.1288)" class="st2 st3 st4">2</text>
	<text transform="matrix(1 0 0 1 51.2752 10.1288)" class="st2 st3 st4">3</text>
	<text transform="matrix(1 0 0 1 73.7899 10.1288)" class="st2 st3 st4">4</text>
	<text transform="matrix(1 0 0 1 96.4627 10.1288)" class="st2 st3 st4">5</text>
	<text transform="matrix(1 0 0 1 118.785 10.1288)" class="st2 st3 st4">6</text>
	<text transform="matrix(1 0 0 1 141.7459 10.1288)" class="st2 st3 st4">7</text>
	<text transform="matrix(1 0 0 1 164.0077 10.1288)" class="st2 st3 st4">8</text>
	<text transform="matrix(1 0 0 1 186.6244 10.1288)" class="st2 st3 st4">9</text>
	<text transform="matrix(1 0 0 1 207.0804 10.1288)" class="st2 st3 st4">10</text>
	<text transform="matrix(1 0 0 1 230.6341 10.1288)" class="st2 st3 st4">11</text>
	<text transform="matrix(1 0 0 1 252.6244 10.1288)" class="st2 st3 st4">12</text>
	<text transform="matrix(1 0 0 1 6.5736 101.8525)" class="st2 st3 st4">1</text>
	<text transform="matrix(1 0 0 1 28.6351 101.8525)" class="st2 st3 st4">2</text>
	<text transform="matrix(1 0 0 1 51.2093 101.8525)" class="st2 st3 st4">3</text>
	<text transform="matrix(1 0 0 1 73.724 101.8525)" class="st2 st3 st4">4</text>
	<text transform="matrix(1 0 0 1 96.3978 101.8525)" class="st2 st3 st4">5</text>
	<text transform="matrix(1 0 0 1 118.7201 101.8525)" class="st2 st3 st4">6</text>
	<text transform="matrix(1 0 0 1 141.7464 101.8525)" class="st2 st3 st4">7</text>
	<text transform="matrix(1 0 0 1 163.9369 101.8525)" class="st2 st3 st4">8</text>
	<text transform="matrix(1 0 0 1 186.431 101.8525)" class="st2 st3 st4">9</text>
	<text transform="matrix(1 0 0 1 207.0804 101.8525)" class="st2 st3 st4">10</text>
	<text transform="matrix(1 0 0 1 230.5628 101.8525)" class="st2 st3 st4">11</text>
	<text transform="matrix(1 0 0 1 252.6253 101.8525)" class="st2 st3 st4">12</text>
	<text transform="matrix(1 0 0 1 275.1986 101.8525)" class="st2 st3 st4">13</text>
	<text transform="matrix(1 0 0 1 297.7122 101.8525)" class="st2 st3 st4">14</text>
	<text transform="matrix(1 0 0 1 320.3871 101.8525)" class="st2 st3 st4">15</text>
	<text transform="matrix(1 0 0 1 6.5736 79.2821)" class="st2 st3 st4">1</text>
	<text transform="matrix(1 0 0 1 28.6351 79.2821)" class="st2 st3 st4">2</text>
	<text transform="matrix(1 0 0 1 51.2093 79.2821)" class="st2 st3 st4">3</text>
	<text transform="matrix(1 0 0 1 73.724 79.2821)" class="st2 st3 st4">4</text>
	<text transform="matrix(1 0 0 1 96.3978 79.2821)" class="st2 st3 st4">5</text>
	<text transform="matrix(1 0 0 1 118.7201 79.2821)" class="st2 st3 st4">6</text>
	<text transform="matrix(1 0 0 1 141.7464 79.2821)" class="st2 st3 st4">7</text>
	<text transform="matrix(1 0 0 1 163.9369 79.2821)" class="st2 st3 st4">8</text>
	<text transform="matrix(1 0 0 1 186.431 79.2821)" class="st2 st3 st4">9</text>
	<text transform="matrix(1 0 0 1 207.0804 79.2821)" class="st2 st3 st4">10</text>
	<text transform="matrix(1 0 0 1 230.5628 79.2821)" class="st2 st3 st4">11</text>
	<text transform="matrix(1 0 0 1 252.6253 79.2821)" class="st2 st3 st4">12</text>
	<text transform="matrix(1 0 0 1 275.1986 79.2821)" class="st2 st3 st4">13</text>
	<text transform="matrix(1 0 0 1 297.7122 79.2821)" class="st2 st3 st4">14</text>
	<text transform="matrix(1 0 0 1 320.3871 79.2821)" class="st2 st3 st4">15</text>
	<text transform="matrix(1 0 0 1 342.7093 79.2821)" class="st2 st3 st4">16</text>
	<text transform="matrix(1 0 0 1 6.5736 57.4403)" class="st2 st3 st4">1</text>
	<text transform="matrix(1 0 0 1 28.6351 57.4403)" class="st2 st3 st4">2</text>
	<text transform="matrix(1 0 0 1 51.2093 57.4403)" class="st2 st3 st4">3</text>
	<text transform="matrix(1 0 0 1 73.724 57.4403)" class="st2 st3 st4">4</text>
	<text transform="matrix(1 0 0 1 96.3978 57.4403)" class="st2 st3 st4">5</text>
	<text transform="matrix(1 0 0 1 118.7201 57.4403)" class="st2 st3 st4">6</text>
	<text transform="matrix(1 0 0 1 141.7464 57.4403)" class="st2 st3 st4">7</text>
	<text transform="matrix(1 0 0 1 163.9369 57.4403)" class="st2 st3 st4">8</text>
	<text transform="matrix(1 0 0 1 186.431 57.4403)" class="st2 st3 st4">9</text>
	<text transform="matrix(1 0 0 1 207.0804 57.4403)" class="st2 st3 st4">10</text>
	<text transform="matrix(1 0 0 1 230.5628 57.4403)" class="st2 st3 st4">11</text>
	<text transform="matrix(1 0 0 1 252.6253 57.4403)" class="st2 st3 st4">12</text>
	<text transform="matrix(1 0 0 1 275.1986 57.4403)" class="st2 st3 st4">13</text>
	<text transform="matrix(1 0 0 1 297.7122 57.4403)" class="st2 st3 st4">14</text>
	<text transform="matrix(1 0 0 1 320.3871 57.4403)" class="st2 st3 st4">15</text>
	<text transform="matrix(1 0 0 1 342.7093 57.4403)" class="st2 st3 st4">16</text>
	<text transform="matrix(1 0 0 1 6.5999 146.995)" class="st2 st3 st4">1</text>
	<text transform="matrix(1 0 0 1 28.6624 146.995)" class="st2 st3 st4">2</text>
	<text transform="matrix(1 0 0 1 51.2367 146.995)" class="st2 st3 st4">3</text>
	<text transform="matrix(1 0 0 1 73.7513 146.995)" class="st2 st3 st4">4</text>
	<text transform="matrix(1 0 0 1 96.4242 146.995)" class="st2 st3 st4">5</text>
	<text transform="matrix(1 0 0 1 118.7464 146.995)" class="st2 st3 st4">6</text>
	<text transform="matrix(1 0 0 1 141.7728 146.995)" class="st2 st3 st4">7</text>
	<text transform="matrix(1 0 0 1 163.9632 146.995)" class="st2 st3 st4">8</text>
	<text transform="matrix(1 0 0 1 186.4564 146.995)" class="st2 st3 st4">9</text>
	<text transform="matrix(1 0 0 1 207.1068 146.995)" class="st2 st3 st4">10</text>
	<text transform="matrix(1 0 0 1 230.5892 146.995)" class="st2 st3 st4">11</text>
	<text transform="matrix(1 0 0 1 252.6517 146.995)" class="st2 st3 st4">12</text>
	<text transform="matrix(1 0 0 1 275.2259 146.995)" class="st2 st3 st4">13</text>
	<text transform="matrix(1 0 0 1 297.7396 146.995)" class="st2 st3 st4">14</text>
	<text transform="matrix(1 0 0 1 51.8753 327.5946)" class="st2 st3 st4">1</text>
	<text transform="matrix(1 0 0 1 73.9378 327.5946)" class="st2 st3 st4">2</text>
	<text transform="matrix(1 0 0 1 96.5121 327.5946)" class="st2 st3 st4">3</text>
	<text transform="matrix(1 0 0 1 119.0267 327.5946)" class="st2 st3 st4">4</text>
	<text transform="matrix(1 0 0 1 141.6996 327.5946)" class="st2 st3 st4">5</text>
	<text transform="matrix(1 0 0 1 164.0218 327.5946)" class="st2 st3 st4">6</text>
	<text transform="matrix(1 0 0 1 187.0482 327.5946)" class="st2 st3 st4">7</text>
	<text transform="matrix(1 0 0 1 209.2386 327.5946)" class="st2 st3 st4">8</text>
	<text transform="matrix(1 0 0 1 51.8753 350.1464)" class="st2 st3 st4">1</text>
	<text transform="matrix(1 0 0 1 73.9378 350.1464)" class="st2 st3 st4">2</text>
	<text transform="matrix(1 0 0 1 96.5121 350.1464)" class="st2 st3 st4">3</text>
	<text transform="matrix(1 0 0 1 119.0267 350.1464)" class="st2 st3 st4">4</text>
	<text transform="matrix(1 0 0 1 141.6996 350.1464)" class="st2 st3 st4">5</text>
	<text transform="matrix(1 0 0 1 164.0218 350.1464)" class="st2 st3 st4">6</text>
	<text transform="matrix(1 0 0 1 187.0482 350.1464)" class="st2 st3 st4">7</text>
	<text transform="matrix(1 0 0 1 209.2386 350.1464)" class="st2 st3 st4">8</text>
	<text transform="matrix(1 0 0 1 51.8753 372.7821)" class="st2 st3 st4">1</text>
	<text transform="matrix(1 0 0 1 73.9378 372.7821)" class="st2 st3 st4">2</text>
	<text transform="matrix(1 0 0 1 96.5121 372.7821)" class="st2 st3 st4">3</text>
	<text transform="matrix(1 0 0 1 119.0267 372.7821)" class="st2 st3 st4">4</text>
	<text transform="matrix(1 0 0 1 141.6996 372.7821)" class="st2 st3 st4">5</text>
	<text transform="matrix(1 0 0 1 164.0218 372.7821)" class="st2 st3 st4">6</text>
	<text transform="matrix(1 0 0 1 187.0482 372.7821)" class="st2 st3 st4">7</text>
	<text transform="matrix(1 0 0 1 209.2386 372.7821)" class="st2 st3 st4">8</text>
	<text transform="matrix(1 0 0 1 51.8753 395.3339)" class="st2 st3 st4">1</text>
	<text transform="matrix(1 0 0 1 73.9378 395.3339)" class="st2 st3 st4">2</text>
	<text transform="matrix(1 0 0 1 96.5121 395.3339)" class="st2 st3 st4">3</text>
	<text transform="matrix(1 0 0 1 119.0267 395.3339)" class="st2 st3 st4">4</text>
	<text transform="matrix(1 0 0 1 141.6996 395.3339)" class="st2 st3 st4">5</text>
	<text transform="matrix(1 0 0 1 164.0218 395.3339)" class="st2 st3 st4">6</text>
	<text transform="matrix(1 0 0 1 187.0482 395.3339)" class="st2 st3 st4">7</text>
	<text transform="matrix(1 0 0 1 51.8753 417.9667)" class="st2 st3 st4">1</text>
	<text transform="matrix(1 0 0 1 73.9378 417.9667)" class="st2 st3 st4">2</text>
	<text transform="matrix(1 0 0 1 96.5121 417.9667)" class="st2 st3 st4">3</text>
	<text transform="matrix(1 0 0 1 119.0267 417.9667)" class="st2 st3 st4">4</text>
	<text transform="matrix(1 0 0 1 141.6996 417.9667)" class="st2 st3 st4">5</text>
	<text transform="matrix(1 0 0 1 164.0218 417.9667)" class="st2 st3 st4">6</text>
	<text transform="matrix(1 0 0 1 187.0482 417.9667)" class="st2 st3 st4">7</text>
	<text transform="matrix(1 0 0 1 6.5999 440.5194)" class="st2 st3 st4">1</text>
	<text transform="matrix(1 0 0 1 28.6624 440.5194)" class="st2 st3 st4">2</text>
	<text transform="matrix(1 0 0 1 51.2367 440.5194)" class="st2 st3 st4">3</text>
	<text transform="matrix(1 0 0 1 73.7513 440.5194)" class="st2 st3 st4">4</text>
	<text transform="matrix(1 0 0 1 96.4242 440.5194)" class="st2 st3 st4">5</text>
	<text transform="matrix(1 0 0 1 118.7464 440.5194)" class="st2 st3 st4">6</text>
	<text transform="matrix(1 0 0 1 141.7728 440.5194)" class="st2 st3 st4">7</text>
	<text transform="matrix(1 0 0 1 163.9632 440.5194)" class="st2 st3 st4">8</text>
	<text transform="matrix(1 0 0 1 186.4564 440.5194)" class="st2 st3 st4">9</text>
	<text transform="matrix(1 0 0 1 6.5999 124.4247)" class="st2 st3 st4">1</text>
	<text transform="matrix(1 0 0 1 28.6624 124.4247)" class="st2 st3 st4">2</text>
	<text transform="matrix(1 0 0 1 51.2367 124.4247)" class="st2 st3 st4">3</text>
	<text transform="matrix(1 0 0 1 73.7513 124.4247)" class="st2 st3 st4">4</text>
	<text transform="matrix(1 0 0 1 96.4242 124.4247)" class="st2 st3 st4">5</text>
	<text transform="matrix(1 0 0 1 118.7464 124.4247)" class="st2 st3 st4">6</text>
	<text transform="matrix(1 0 0 1 141.7728 124.4247)" class="st2 st3 st4">7</text>
	<text transform="matrix(1 0 0 1 163.9632 124.4247)" class="st2 st3 st4">8</text>
	<text transform="matrix(1 0 0 1 186.4564 124.4247)" class="st2 st3 st4">9</text>
	<text transform="matrix(1 0 0 1 207.1068 124.4247)" class="st2 st3 st4">10</text>
	<text transform="matrix(1 0 0 1 230.5892 124.4247)" class="st2 st3 st4">11</text>
	<text transform="matrix(1 0 0 1 252.6517 124.4247)" class="st2 st3 st4">12</text>
	<text transform="matrix(1 0 0 1 275.2259 124.4247)" class="st2 st3 st4">13</text>
	<text transform="matrix(1 0 0 1 297.7396 124.4247)" class="st2 st3 st4">14</text>
	<text transform="matrix(1 0 0 1 320.4134 124.4247)" class="st2 st3 st4">15</text>
	<text transform="matrix(1 0 0 1 6.5726 169.5526)" class="st2 st3 st4">1</text>
	<text transform="matrix(1 0 0 1 28.6351 169.5526)" class="st2 st3 st4">2</text>
	<text transform="matrix(1 0 0 1 51.2093 169.5526)" class="st2 st3 st4">3</text>
	<text transform="matrix(1 0 0 1 73.724 169.5526)" class="st2 st3 st4">4</text>
	<text transform="matrix(1 0 0 1 96.3978 169.5526)" class="st2 st3 st4">5</text>
	<text transform="matrix(1 0 0 1 118.7201 169.5526)" class="st2 st3 st4">6</text>
	<text transform="matrix(1 0 0 1 141.7464 169.5526)" class="st2 st3 st4">7</text>
	<text transform="matrix(1 0 0 1 163.9369 169.5526)" class="st2 st3 st4">8</text>
	<text transform="matrix(1 0 0 1 186.431 169.5526)" class="st2 st3 st4">9</text>
	<text transform="matrix(1 0 0 1 207.0814 169.5526)" class="st2 st3 st4">10</text>
	<text transform="matrix(1 0 0 1 230.5619 169.5526)" class="st2 st3 st4">11</text>
	<text transform="matrix(1 0 0 1 252.6244 169.5526)" class="st2 st3 st4">12</text>
	<text transform="matrix(1 0 0 1 275.1986 169.5526)" class="st2 st3 st4">13</text>
	<text transform="matrix(1 0 0 1 297.7122 169.5526)" class="st2 st3 st4">14</text>
	<text transform="matrix(1 0 0 1 6.5726 191.9032)" class="st2 st3 st4">1</text>
	<text transform="matrix(1 0 0 1 28.6351 191.9032)" class="st2 st3 st4">2</text>
	<text transform="matrix(1 0 0 1 51.2093 191.9032)" class="st2 st3 st4">3</text>
	<text transform="matrix(1 0 0 1 73.724 191.9032)" class="st2 st3 st4">4</text>
	<text transform="matrix(1 0 0 1 96.3978 191.9032)" class="st2 st3 st4">5</text>
	<text transform="matrix(1 0 0 1 118.7201 191.9032)" class="st2 st3 st4">6</text>
	<text transform="matrix(1 0 0 1 141.7464 191.9032)" class="st2 st3 st4">7</text>
	<text transform="matrix(1 0 0 1 163.9369 191.9032)" class="st2 st3 st4">8</text>
	<text transform="matrix(1 0 0 1 186.431 191.9032)" class="st2 st3 st4">9</text>
	<text transform="matrix(1 0 0 1 207.0814 191.9032)" class="st2 st3 st4">10</text>
	<text transform="matrix(1 0 0 1 230.5619 191.9032)" class="st2 st3 st4">11</text>
	<text transform="matrix(1 0 0 1 252.6244 191.9032)" class="st2 st3 st4">12</text>
	<text transform="matrix(1 0 0 1 275.1986 191.9032)" class="st2 st3 st4">13</text>
	<text transform="matrix(1 0 0 1 297.7122 191.9032)" class="st2 st3 st4">14</text>
	<text transform="matrix(1 0 0 1 6.5726 214.7372)" class="st2 st3 st4">1</text>
	<text transform="matrix(1 0 0 1 28.6351 214.7372)" class="st2 st3 st4">2</text>
	<text transform="matrix(1 0 0 1 51.2093 214.7372)" class="st2 st3 st4">3</text>
	<text transform="matrix(1 0 0 1 73.724 214.7372)" class="st2 st3 st4">4</text>
	<text transform="matrix(1 0 0 1 96.3978 214.7372)" class="st2 st3 st4">5</text>
	<text transform="matrix(1 0 0 1 118.7201 214.7372)" class="st2 st3 st4">6</text>
	<text transform="matrix(1 0 0 1 141.7464 214.7372)" class="st2 st3 st4">7</text>
	<text transform="matrix(1 0 0 1 163.9369 214.7372)" class="st2 st3 st4">8</text>
	<text transform="matrix(1 0 0 1 186.431 214.7372)" class="st2 st3 st4">9</text>
	<text transform="matrix(1 0 0 1 207.0814 214.7372)" class="st2 st3 st4">10</text>
	<text transform="matrix(1 0 0 1 230.5619 214.7372)" class="st2 st3 st4">11</text>
	<text transform="matrix(1 0 0 1 252.6244 214.7372)" class="st2 st3 st4">12</text>
	<text transform="matrix(1 0 0 1 275.1986 214.7372)" class="st2 st3 st4">13</text>
	<text transform="matrix(1 0 0 1 51.7132 237.2675)" class="st2 st3 st4">1</text>
	<text transform="matrix(1 0 0 1 73.7757 237.2675)" class="st2 st3 st4">2</text>
	<text transform="matrix(1 0 0 1 96.3499 237.2675)" class="st2 st3 st4">3</text>
	<text transform="matrix(1 0 0 1 118.8646 237.2675)" class="st2 st3 st4">4</text>
	<text transform="matrix(1 0 0 1 141.5384 237.2675)" class="st2 st3 st4">5</text>
	<text transform="matrix(1 0 0 1 163.8607 237.2675)" class="st2 st3 st4">6</text>
	<text transform="matrix(1 0 0 1 186.8871 237.2675)" class="st2 st3 st4">7</text>
	<text transform="matrix(1 0 0 1 209.0775 237.2675)" class="st2 st3 st4">8</text>
	<text transform="matrix(1 0 0 1 231.5716 237.2675)" class="st2 st3 st4">9</text>
	<text transform="matrix(1 0 0 1 252.222 237.2675)" class="st2 st3 st4">10</text>
	<text transform="matrix(1 0 0 1 51.848 259.6181)" class="st2 st3 st4">1</text>
	<text transform="matrix(1 0 0 1 73.9105 259.6181)" class="st2 st3 st4">2</text>
	<text transform="matrix(1 0 0 1 96.4847 259.6181)" class="st2 st3 st4">3</text>
	<text transform="matrix(1 0 0 1 118.9994 259.6181)" class="st2 st3 st4">4</text>
	<text transform="matrix(1 0 0 1 141.6732 259.6181)" class="st2 st3 st4">5</text>
	<text transform="matrix(1 0 0 1 163.9955 259.6181)" class="st2 st3 st4">6</text>
	<text transform="matrix(1 0 0 1 187.0218 259.6181)" class="st2 st3 st4">7</text>
	<text transform="matrix(1 0 0 1 209.2122 259.6181)" class="st2 st3 st4">8</text>
	<text transform="matrix(1 0 0 1 231.7064 259.6181)" class="st2 st3 st4">9</text>
	<text transform="matrix(1 0 0 1 252.3568 259.6181)" class="st2 st3 st4">10</text>
	<text transform="matrix(1 0 0 1 51.848 282.4521)" class="st2 st3 st4">1</text>
	<text transform="matrix(1 0 0 1 73.9105 282.4521)" class="st2 st3 st4">2</text>
	<text transform="matrix(1 0 0 1 96.4847 282.4521)" class="st2 st3 st4">3</text>
	<text transform="matrix(1 0 0 1 118.9994 282.4521)" class="st2 st3 st4">4</text>
	<text transform="matrix(1 0 0 1 141.6732 282.4521)" class="st2 st3 st4">5</text>
	<text transform="matrix(1 0 0 1 163.9955 282.4521)" class="st2 st3 st4">6</text>
	<text transform="matrix(1 0 0 1 187.0218 282.4521)" class="st2 st3 st4">7</text>
	<text transform="matrix(1 0 0 1 209.2122 282.4521)" class="st2 st3 st4">8</text>
	<text transform="matrix(1 0 0 1 231.7064 282.4521)" class="st2 st3 st4">9</text>
	<text transform="matrix(1 0 0 1 6.5726 463.1767)" class="st2 st3 st4">1</text>
	<text transform="matrix(1 0 0 1 28.6351 463.1767)" class="st2 st3 st4">2</text>
	<text transform="matrix(1 0 0 1 51.2093 463.1767)" class="st2 st3 st4">3</text>
	<text transform="matrix(1 0 0 1 73.724 463.1767)" class="st2 st3 st4">4</text>
	<text transform="matrix(1 0 0 1 96.3978 463.1767)" class="st2 st3 st4">5</text>
	<text transform="matrix(1 0 0 1 118.7201 463.1767)" class="st2 st3 st4">6</text>
	<text transform="matrix(1 0 0 1 141.7464 463.1767)" class="st2 st3 st4">7</text>
	<text transform="matrix(1 0 0 1 163.9369 463.1767)" class="st2 st3 st4">8</text>
	<text transform="matrix(1 0 0 1 186.431 463.1767)" class="st2 st3 st4">9</text>
	<text transform="matrix(1 0 0 1 207.0814 463.1767)" class="st2 st3 st4">10</text>
	<text transform="matrix(1 0 0 1 230.5619 463.1767)" class="st2 st3 st4">11</text>
	<text transform="matrix(1 0 0 1 252.6244 463.1767)" class="st2 st3 st4">12</text>
	<text transform="matrix(1 0 0 1 275.1986 463.1767)" class="st2 st3 st4">13</text>
	<text transform="matrix(1 0 0 1 297.7122 463.1767)" class="st2 st3 st4">14</text>
	<text transform="matrix(1 0 0 1 6.5726 485.5282)" class="st2 st3 st4">1</text>
	<text transform="matrix(1 0 0 1 28.6351 485.5282)" class="st2 st3 st4">2</text>
	<text transform="matrix(1 0 0 1 51.2093 485.5282)" class="st2 st3 st4">3</text>
	<text transform="matrix(1 0 0 1 73.724 485.5282)" class="st2 st3 st4">4</text>
	<text transform="matrix(1 0 0 1 96.3978 485.5282)" class="st2 st3 st4">5</text>
	<text transform="matrix(1 0 0 1 118.7201 485.5282)" class="st2 st3 st4">6</text>
	<text transform="matrix(1 0 0 1 141.7464 485.5282)" class="st2 st3 st4">7</text>
	<text transform="matrix(1 0 0 1 163.9369 485.5282)" class="st2 st3 st4">8</text>
	<text transform="matrix(1 0 0 1 186.431 485.5282)" class="st2 st3 st4">9</text>
	<text transform="matrix(1 0 0 1 207.0814 485.5282)" class="st2 st3 st4">10</text>
	<text transform="matrix(1 0 0 1 230.5619 485.5282)" class="st2 st3 st4">11</text>
	<text transform="matrix(1 0 0 1 252.6244 485.5282)" class="st2 st3 st4">12</text>
	<text transform="matrix(1 0 0 1 275.1986 485.5282)" class="st2 st3 st4">13</text>
	<text transform="matrix(1 0 0 1 6.5726 508.3612)" class="st2 st3 st4">1</text>
	<text transform="matrix(1 0 0 1 28.6351 508.3612)" class="st2 st3 st4">2</text>
	<text transform="matrix(1 0 0 1 51.2093 508.3612)" class="st2 st3 st4">3</text>
	<text transform="matrix(1 0 0 1 73.724 508.3612)" class="st2 st3 st4">4</text>
	<text transform="matrix(1 0 0 1 96.3978 508.3612)" class="st2 st3 st4">5</text>
	<text transform="matrix(1 0 0 1 118.7201 508.3612)" class="st2 st3 st4">6</text>
	<text transform="matrix(1 0 0 1 141.7464 508.3612)" class="st2 st3 st4">7</text>
	<text transform="matrix(1 0 0 1 163.9369 508.3612)" class="st2 st3 st4">8</text>
	<text transform="matrix(1 0 0 1 186.431 508.3612)" class="st2 st3 st4">9</text>
	<text transform="matrix(1 0 0 1 207.0814 508.3612)" class="st2 st3 st4">10</text>
	<text transform="matrix(1 0 0 1 230.5619 508.3612)" class="st2 st3 st4">11</text>
	<text transform="matrix(1 0 0 1 252.6244 508.3612)" class="st2 st3 st4">12</text>
	<text transform="matrix(1 0 0 1 6.5726 530.8915)" class="st2 st3 st4">1</text>
	<text transform="matrix(1 0 0 1 28.6351 530.8915)" class="st2 st3 st4">2</text>
	<text transform="matrix(1 0 0 1 51.2093 530.8915)" class="st2 st3 st4">3</text>
	<text transform="matrix(1 0 0 1 73.724 530.8915)" class="st2 st3 st4">4</text>
	<text transform="matrix(1 0 0 1 96.3978 530.8915)" class="st2 st3 st4">5</text>
	<text transform="matrix(1 0 0 1 118.7201 530.8915)" class="st2 st3 st4">6</text>
	<text transform="matrix(1 0 0 1 141.7464 530.8915)" class="st2 st3 st4">7</text>
	<text transform="matrix(1 0 0 1 163.9369 530.8915)" class="st2 st3 st4">8</text>
	<text transform="matrix(1 0 0 1 186.431 530.8915)" class="st2 st3 st4">9</text>
	<text transform="matrix(1 0 0 1 207.0814 530.8915)" class="st2 st3 st4">10</text>
	<text transform="matrix(1 0 0 1 230.5619 530.8915)" class="st2 st3 st4">11</text>
	<text transform="matrix(1 0 0 1 252.6244 530.8915)" class="st2 st3 st4">12</text>
	<text transform="matrix(1 0 0 1 6.5726 553.2431)" class="st2 st3 st4">1</text>
	<text transform="matrix(1 0 0 1 28.6351 553.2431)" class="st2 st3 st4">2</text>
	<text transform="matrix(1 0 0 1 51.2093 553.2431)" class="st2 st3 st4">3</text>
	<text transform="matrix(1 0 0 1 73.724 553.2431)" class="st2 st3 st4">4</text>
	<text transform="matrix(1 0 0 1 96.3978 553.2431)" class="st2 st3 st4">5</text>
	<text transform="matrix(1 0 0 1 118.7201 553.2431)" class="st2 st3 st4">6</text>
	<text transform="matrix(1 0 0 1 141.7464 553.2431)" class="st2 st3 st4">7</text>
	<text transform="matrix(1 0 0 1 163.9369 553.2431)" class="st2 st3 st4">8</text>
	<text transform="matrix(1 0 0 1 186.431 553.2431)" class="st2 st3 st4">9</text>
	<text transform="matrix(1 0 0 1 207.0814 553.2431)" class="st2 st3 st4">10</text>
	<text transform="matrix(1 0 0 1 230.5619 553.2431)" class="st2 st3 st4">11</text>
	<text transform="matrix(1 0 0 1 6.5726 576.0761)" class="st2 st3 st4">1</text>
	<text transform="matrix(1 0 0 1 28.6351 576.0761)" class="st2 st3 st4">2</text>
	<text transform="matrix(1 0 0 1 51.2093 576.0761)" class="st2 st3 st4">3</text>
	<text transform="matrix(1 0 0 1 73.724 576.0761)" class="st2 st3 st4">4</text>
	<text transform="matrix(1 0 0 1 96.3978 576.0761)" class="st2 st3 st4">5</text>
	<text transform="matrix(1 0 0 1 118.7201 576.0761)" class="st2 st3 st4">6</text>
	<text transform="matrix(1 0 0 1 141.7464 576.0761)" class="st2 st3 st4">7</text>
	<text transform="matrix(1 0 0 1 163.9369 576.0761)" class="st2 st3 st4">8</text>
	<text transform="matrix(1 0 0 1 186.431 576.0761)" class="st2 st3 st4">9</text>
	<text transform="matrix(1 0 0 1 207.0814 576.0761)" class="st2 st3 st4">10</text>
	<text transform="matrix(1 0 0 1 6.5726 598.6591)" class="st2 st3 st4">1</text>
	<text transform="matrix(1 0 0 1 28.6351 598.6591)" class="st2 st3 st4">2</text>
	<text transform="matrix(1 0 0 1 51.2093 598.6591)" class="st2 st3 st4">3</text>
	<text transform="matrix(1 0 0 1 73.724 598.6591)" class="st2 st3 st4">4</text>
	<text transform="matrix(1 0 0 1 96.3978 598.6591)" class="st2 st3 st4">5</text>
	<text transform="matrix(1 0 0 1 118.7201 598.6591)" class="st2 st3 st4">6</text>
	<text transform="matrix(1 0 0 1 141.7464 598.6591)" class="st2 st3 st4">7</text>
	<text transform="matrix(1 0 0 1 163.9369 598.6591)" class="st2 st3 st4">8</text>
	<text transform="matrix(1 0 0 1 186.431 598.6591)" class="st2 st3 st4">9</text>
	<text transform="matrix(1 0 0 1 6.5726 621.0058)" class="st2 st3 st4">1</text>
	<text transform="matrix(1 0 0 1 28.6351 621.0058)" class="st2 st3 st4">2</text>
	<text transform="matrix(1 0 0 1 51.2093 621.0058)" class="st2 st3 st4">3</text>
	<text transform="matrix(1 0 0 1 73.724 621.0058)" class="st2 st3 st4">4</text>
	<text transform="matrix(1 0 0 1 96.3978 621.0058)" class="st2 st3 st4">5</text>
	<text transform="matrix(1 0 0 1 118.7201 621.0058)" class="st2 st3 st4">6</text>
	<text transform="matrix(1 0 0 1 141.7464 621.0058)" class="st2 st3 st4">7</text>
	<text transform="matrix(1 0 0 1 163.9369 621.0058)" class="st2 st3 st4">8</text>
	<text transform="matrix(1 0 0 1 186.431 621.0058)" class="st2 st3 st4">9</text>
	<text transform="matrix(1 0 0 1 6.5726 643.3574)" class="st2 st3 st4">1</text>
	<text transform="matrix(1 0 0 1 28.6351 643.3574)" class="st2 st3 st4">2</text>
	<text transform="matrix(1 0 0 1 51.2093 643.3574)" class="st2 st3 st4">3</text>
	<text transform="matrix(1 0 0 1 73.724 643.3574)" class="st2 st3 st4">4</text>
	<text transform="matrix(1 0 0 1 96.3978 643.3574)" class="st2 st3 st4">5</text>
	<text transform="matrix(1 0 0 1 118.7201 643.3574)" class="st2 st3 st4">6</text>
	<text transform="matrix(1 0 0 1 141.7464 643.3574)" class="st2 st3 st4">7</text>
	<text transform="matrix(1 0 0 1 163.9369 643.3574)" class="st2 st3 st4">8</text>
	<text transform="matrix(1 0 0 1 6.5726 666.1904)" class="st2 st3 st4">1</text>
	<text transform="matrix(1 0 0 1 28.6351 666.1904)" class="st2 st3 st4">2</text>
	<text transform="matrix(1 0 0 1 51.2093 666.1904)" class="st2 st3 st4">3</text>
	<text transform="matrix(1 0 0 1 73.724 666.1904)" class="st2 st3 st4">4</text>
	<text transform="matrix(1 0 0 1 96.3978 666.1904)" class="st2 st3 st4">5</text>
	<text transform="matrix(1 0 0 1 118.7201 666.1904)" class="st2 st3 st4">6</text>
	<text transform="matrix(1 0 0 1 51.8958 305.0575)" class="st2 st3 st4">1</text>
	<text transform="matrix(1 0 0 1 73.9583 305.0575)" class="st2 st3 st4">2</text>
	<text transform="matrix(1 0 0 1 96.5316 305.0575)" class="st2 st3 st4">3</text>
	<text transform="matrix(1 0 0 1 119.0462 305.0575)" class="st2 st3 st4">4</text>
	<text transform="matrix(1 0 0 1 141.7201 305.0575)" class="st2 st3 st4">5</text>
	<text transform="matrix(1 0 0 1 164.0423 305.0575)" class="st2 st3 st4">6</text>
	<text transform="matrix(1 0 0 1 187.0687 305.0575)" class="st2 st3 st4">7</text>
	<text transform="matrix(1 0 0 1 209.2591 305.0575)" class="st2 st3 st4">8</text>
	<text transform="matrix(1 0 0 1 231.7533 305.0575)" class="st2 st3 st4">9</text>
</g>
<g>
	<text transform="matrix(1 0 0 1 414.7413 55.2802)" class="st5 st6 st7">29</text>
	<text transform="matrix(1 0 0 1 414.7413 10.9091)" class="st5 st6 st7">30</text>
	<text transform="matrix(1 0 0 1 414.7413 100.7763)" class="st5 st6 st7">27</text>
	<text transform="matrix(1 0 0 1 414.7413 78.206)" class="st5 st6 st7">28</text>
	<text transform="matrix(1 0 0 1 414.7413 145.9189)" class="st5 st6 st7">25</text>
	<text transform="matrix(1 0 0 1 414.5811 326.5185)" class="st5 st6 st7">17</text>
	<text transform="matrix(1 0 0 1 414.5811 349.0702)" class="st5 st6 st7">16</text>
	<text transform="matrix(1 0 0 1 414.7413 371.706)" class="st5 st6 st7">15</text>
	<text transform="matrix(1 0 0 1 414.7413 394.2577)" class="st5 st6 st7">14</text>
	<text transform="matrix(1 0 0 1 414.5538 416.8905)" class="st5 st6 st7">13</text>
	<text transform="matrix(1 0 0 1 414.5811 439.4433)" class="st5 st6 st7">12</text>
	<text transform="matrix(1 0 0 1 414.9181 620.1406)" class="st5 st6 st7">4</text>
	<text transform="matrix(1 0 0 1 414.9181 642.7734)" class="st5 st6 st7">3</text>
	<text transform="matrix(1 0 0 1 414.5538 665.3261)" class="st5 st6 st7">2</text>
	<text transform="matrix(1 0 0 1 414.7413 123.3485)" class="st5 st6 st7">26</text>
	<text transform="matrix(1 0 0 1 414.7413 168.373)" class="st5 st6 st7">24</text>
	<text transform="matrix(1 0 0 1 414.7413 213.5605)" class="st5 st6 st7">22</text>
	<text transform="matrix(1 0 0 1 414.7413 190.9901)" class="st5 st6 st7">23</text>
	<text transform="matrix(1 0 0 1 414.7413 258.705)" class="st5 st6 st7">20</text>
	<text transform="matrix(1 0 0 1 414.7413 236.1347)" class="st5 st6 st7">21</text>
	<text transform="matrix(1 0 0 1 414.5538 303.8476)" class="st5 st6 st7">18</text>
	<text transform="matrix(1 0 0 1 414.5811 281.2773)" class="st5 st6 st7">19</text>
	<text transform="matrix(1 0 0 1 414.5811 461.997)" class="st5 st6 st7">11</text>
	<text transform="matrix(1 0 0 1 414.5811 507.1845)" class="st5 st6 st7">9</text>
	<text transform="matrix(1 0 0 1 414.5811 484.6142)" class="st5 st6 st7">10</text>
	<text transform="matrix(1 0 0 1 415.1886 552.33)" class="st5 st6 st7">7</text>
	<text transform="matrix(1 0 0 1 414.5538 529.7597)" class="st5 st6 st7">8</text>
	<text transform="matrix(1 0 0 1 414.5811 574.9023)" class="st5 st6 st7">6</text>
	<text transform="matrix(1 0 0 1 415.1886 597.4853)" class="st5 st6 st7">5</text>
</g>
</svg>
