<?xml version="1.0" encoding="utf-8"?>
<!-- Generator: Adobe Illustrator 20.1.0, SVG Export Plug-In . SVG Version: 6.00 Build 0)  -->
<svg version="1.1" id="Layer_1" xmlns="http://www.w3.org/2000/svg" xmlns:xlink="http://www.w3.org/1999/xlink" x="0px" y="0px"
	 viewBox="0 0 628.9 446.5" style="enable-background:new 0 0 628.9 446.5;" xml:space="preserve">
<style type="text/css">
	.st0{fill:#D9F6E1;}
	.st1{fill:#FFFFFF;}
	.st2{fill:#737373;}
	.st3{font-family:'OsnovaPro';}
	.st4{font-size:8px;}
	.st5{fill:#7B878F;}
	.st6{font-family:'OsnovaProLight';}
	.st7{font-size:9px;}
</style>
<path class="st0" d="M8.3,16.6L8.3,16.6C3.8,16.6,0,12.8,0,8.3v0C0,3.7,3.8,0,8.3,0h0c4.6,0,8.3,3.7,8.3,8.3v0
	C16.6,12.8,12.9,16.6,8.3,16.6z"/>
<path class="st0" d="M30.9,16.6L30.9,16.6c-4.6,0-8.3-3.7-8.3-8.3v0c0-4.6,3.7-8.3,8.3-8.3h0c4.6,0,8.3,3.7,8.3,8.3v0
	C39.2,12.8,35.4,16.6,30.9,16.6z"/>
<path class="st0" d="M53.5,16.6L53.5,16.6c-4.6,0-8.3-3.7-8.3-8.3v0c0-4.6,3.7-8.3,8.3-8.3h0c4.6,0,8.3,3.7,8.3,8.3v0
	C61.7,12.8,58,16.6,53.5,16.6z"/>
<path class="st0" d="M76,16.6L76,16.6c-4.6,0-8.3-3.7-8.3-8.3v0C67.7,3.7,71.5,0,76,0h0c4.6,0,8.3,3.7,8.3,8.3v0
	C84.3,12.8,80.6,16.6,76,16.6z"/>
<path class="st0" d="M98.6,16.6L98.6,16.6c-4.6,0-8.3-3.7-8.3-8.3v0C90.3,3.7,94,0,98.6,0h0c4.6,0,8.3,3.7,8.3,8.3v0
	C106.9,12.8,103.1,16.6,98.6,16.6z"/>
<path class="st0" d="M121.2,16.6L121.2,16.6c-4.6,0-8.3-3.7-8.3-8.3v0c0-4.6,3.7-8.3,8.3-8.3h0c4.6,0,8.3,3.7,8.3,8.3v0
	C129.4,12.8,125.7,16.6,121.2,16.6z"/>
<path class="st0" d="M143.8,16.6L143.8,16.6c-4.6,0-8.3-3.7-8.3-8.3v0c0-4.6,3.7-8.3,8.3-8.3h0c4.6,0,8.3,3.7,8.3,8.3v0
	C152.1,12.8,148.3,16.6,143.8,16.6z"/>
<path class="st0" d="M166.3,16.6L166.3,16.6c-4.6,0-8.3-3.7-8.3-8.3v0c0-4.6,3.7-8.3,8.3-8.3h0c4.6,0,8.3,3.7,8.3,8.3v0
	C174.6,12.8,170.9,16.6,166.3,16.6z"/>
<path class="st0" d="M188.9,16.6L188.9,16.6c-4.6,0-8.3-3.7-8.3-8.3v0c0-4.6,3.7-8.3,8.3-8.3h0c4.6,0,8.3,3.7,8.3,8.3v0
	C197.2,12.8,193.5,16.6,188.9,16.6z"/>
<path class="st0" d="M211.5,16.6L211.5,16.6c-4.6,0-8.3-3.7-8.3-8.3v0c0-4.6,3.7-8.3,8.3-8.3h0c4.6,0,8.3,3.7,8.3,8.3v0
	C219.8,12.8,216,16.6,211.5,16.6z"/>
<path class="st0" d="M234.1,16.6L234.1,16.6c-4.6,0-8.3-3.7-8.3-8.3v0c0-4.6,3.7-8.3,8.3-8.3h0c4.6,0,8.3,3.7,8.3,8.3v0
	C242.3,12.8,238.6,16.6,234.1,16.6z"/>
<path class="st0" d="M256.6,16.6L256.6,16.6c-4.6,0-8.3-3.7-8.3-8.3v0c0-4.6,3.7-8.3,8.3-8.3h0c4.6,0,8.3,3.7,8.3,8.3v0
	C264.9,12.8,261.2,16.6,256.6,16.6z"/>
<path class="st0" d="M279.2,16.6L279.2,16.6c-4.6,0-8.3-3.7-8.3-8.3v0c0-4.6,3.7-8.3,8.3-8.3h0c4.6,0,8.3,3.7,8.3,8.3v0
	C287.5,12.8,283.8,16.6,279.2,16.6z"/>
<path class="st0" d="M301.8,16.6L301.8,16.6c-4.6,0-8.3-3.7-8.3-8.3v0c0-4.6,3.7-8.3,8.3-8.3l0,0c4.6,0,8.3,3.7,8.3,8.3v0
	C310.1,12.8,306.4,16.6,301.8,16.6z"/>
<path class="st0" d="M324.4,16.6L324.4,16.6c-4.6,0-8.3-3.7-8.3-8.3v0c0-4.6,3.7-8.3,8.3-8.3h0c4.6,0,8.3,3.7,8.3,8.3v0
	C332.7,12.8,328.9,16.6,324.4,16.6z"/>
<path class="st0" d="M347,16.6L347,16.6c-4.6,0-8.3-3.7-8.3-8.3v0c0-4.6,3.7-8.3,8.3-8.3h0c4.6,0,8.3,3.7,8.3,8.3v0
	C355.2,12.8,351.5,16.6,347,16.6z"/>
<path class="st0" d="M369.5,16.6L369.5,16.6c-4.6,0-8.3-3.7-8.3-8.3v0c0-4.6,3.7-8.3,8.3-8.3h0c4.6,0,8.3,3.7,8.3,8.3v0
	C377.8,12.8,374.1,16.6,369.5,16.6z"/>
<path class="st0" d="M392.1,16.6L392.1,16.6c-4.6,0-8.3-3.7-8.3-8.3v0c0-4.6,3.7-8.3,8.3-8.3l0,0c4.6,0,8.3,3.7,8.3,8.3v0
	C400.4,12.8,396.7,16.6,392.1,16.6z"/>
<path class="st1" d="M8.3,107.9L8.3,107.9c-4.6,0-8.3-3.7-8.3-8.3v0c0-4.6,3.7-8.3,8.3-8.3h0c4.6,0,8.3,3.7,8.3,8.3v0
	C16.6,104.2,12.8,107.9,8.3,107.9z"/>
<path class="st1" d="M30.9,107.9L30.9,107.9c-4.6,0-8.3-3.7-8.3-8.3v0c0-4.6,3.7-8.3,8.3-8.3h0c4.6,0,8.3,3.7,8.3,8.3v0
	C39.1,104.2,35.4,107.9,30.9,107.9z"/>
<path class="st1" d="M53.4,107.9L53.4,107.9c-4.6,0-8.3-3.7-8.3-8.3v0c0-4.6,3.7-8.3,8.3-8.3h0c4.6,0,8.3,3.7,8.3,8.3v0
	C61.7,104.2,58,107.9,53.4,107.9z"/>
<path class="st1" d="M76,107.9L76,107.9c-4.6,0-8.3-3.7-8.3-8.3v0c0-4.6,3.7-8.3,8.3-8.3h0c4.6,0,8.3,3.7,8.3,8.3v0
	C84.3,104.2,80.6,107.9,76,107.9z"/>
<path class="st1" d="M98.6,107.9L98.6,107.9c-4.6,0-8.3-3.7-8.3-8.3v0c0-4.6,3.7-8.3,8.3-8.3h0c4.6,0,8.3,3.7,8.3,8.3v0
	C106.9,104.2,103.1,107.9,98.6,107.9z"/>
<path class="st1" d="M121.1,107.9L121.1,107.9c-4.6,0-8.3-3.7-8.3-8.3v0c0-4.6,3.7-8.3,8.3-8.3h0c4.6,0,8.3,3.7,8.3,8.3v0
	C129.4,104.2,125.7,107.9,121.1,107.9z"/>
<path class="st1" d="M143.7,107.9L143.7,107.9c-4.6,0-8.3-3.7-8.3-8.3v0c0-4.6,3.7-8.3,8.3-8.3h0c4.6,0,8.3,3.7,8.3,8.3v0
	C152,104.2,148.3,107.9,143.7,107.9z"/>
<path class="st1" d="M166.3,107.9L166.3,107.9c-4.6,0-8.3-3.7-8.3-8.3v0c0-4.6,3.7-8.3,8.3-8.3h0c4.6,0,8.3,3.7,8.3,8.3v0
	C174.6,104.2,170.8,107.9,166.3,107.9z"/>
<path class="st1" d="M188.8,107.9L188.8,107.9c-4.6,0-8.3-3.7-8.3-8.3v0c0-4.6,3.7-8.3,8.3-8.3h0c4.6,0,8.3,3.7,8.3,8.3v0
	C197.1,104.2,193.4,107.9,188.8,107.9z"/>
<path class="st1" d="M211.4,107.9L211.4,107.9c-4.6,0-8.3-3.7-8.3-8.3v0c0-4.6,3.7-8.3,8.3-8.3h0c4.6,0,8.3,3.7,8.3,8.3v0
	C219.7,104.2,216,107.9,211.4,107.9z"/>
<path class="st1" d="M234,107.9L234,107.9c-4.6,0-8.3-3.7-8.3-8.3v0c0-4.6,3.7-8.3,8.3-8.3h0c4.6,0,8.3,3.7,8.3,8.3v0
	C242.3,104.2,238.5,107.9,234,107.9z"/>
<path class="st1" d="M256.6,107.9L256.6,107.9c-4.6,0-8.3-3.7-8.3-8.3v0c0-4.6,3.7-8.3,8.3-8.3h0c4.6,0,8.3,3.7,8.3,8.3v0
	C264.8,104.2,261.1,107.9,256.6,107.9z"/>
<path class="st1" d="M279.1,107.9L279.1,107.9c-4.6,0-8.3-3.7-8.3-8.3v0c0-4.6,3.7-8.3,8.3-8.3h0c4.6,0,8.3,3.7,8.3,8.3v0
	C287.4,104.2,283.7,107.9,279.1,107.9z"/>
<path class="st1" d="M301.7,107.9L301.7,107.9c-4.6,0-8.3-3.7-8.3-8.3v0c0-4.6,3.7-8.3,8.3-8.3l0,0c4.6,0,8.3,3.7,8.3,8.3v0
	C310,104.2,306.3,107.9,301.7,107.9z"/>
<path class="st1" d="M324.3,107.9L324.3,107.9c-4.6,0-8.3-3.7-8.3-8.3v0c0-4.6,3.7-8.3,8.3-8.3l0,0c4.6,0,8.3,3.7,8.3,8.3v0
	C332.6,104.2,328.8,107.9,324.3,107.9z"/>
<path class="st1" d="M8.3,85.3L8.3,85.3C3.7,85.3,0,81.6,0,77v0c0-4.6,3.7-8.3,8.3-8.3h0c4.6,0,8.3,3.7,8.3,8.3v0
	C16.6,81.6,12.8,85.3,8.3,85.3z"/>
<path class="st1" d="M30.9,85.3L30.9,85.3c-4.6,0-8.3-3.7-8.3-8.3v0c0-4.6,3.7-8.3,8.3-8.3h0c4.6,0,8.3,3.7,8.3,8.3v0
	C39.1,81.6,35.4,85.3,30.9,85.3z"/>
<path class="st1" d="M53.4,85.3L53.4,85.3c-4.6,0-8.3-3.7-8.3-8.3v0c0-4.6,3.7-8.3,8.3-8.3h0c4.6,0,8.3,3.7,8.3,8.3v0
	C61.7,81.6,58,85.3,53.4,85.3z"/>
<path class="st1" d="M76,85.3L76,85.3c-4.6,0-8.3-3.7-8.3-8.3v0c0-4.6,3.7-8.3,8.3-8.3h0c4.6,0,8.3,3.7,8.3,8.3v0
	C84.3,81.6,80.6,85.3,76,85.3z"/>
<path class="st1" d="M98.6,85.3L98.6,85.3c-4.6,0-8.3-3.7-8.3-8.3v0c0-4.6,3.7-8.3,8.3-8.3h0c4.6,0,8.3,3.7,8.3,8.3v0
	C106.9,81.6,103.1,85.3,98.6,85.3z"/>
<path class="st1" d="M121.1,85.3L121.1,85.3c-4.6,0-8.3-3.7-8.3-8.3v0c0-4.6,3.7-8.3,8.3-8.3h0c4.6,0,8.3,3.7,8.3,8.3v0
	C129.4,81.6,125.7,85.3,121.1,85.3z"/>
<path class="st1" d="M143.7,85.3L143.7,85.3c-4.6,0-8.3-3.7-8.3-8.3v0c0-4.6,3.7-8.3,8.3-8.3h0c4.6,0,8.3,3.7,8.3,8.3v0
	C152,81.6,148.3,85.3,143.7,85.3z"/>
<path class="st1" d="M166.3,85.3L166.3,85.3c-4.6,0-8.3-3.7-8.3-8.3v0c0-4.6,3.7-8.3,8.3-8.3h0c4.6,0,8.3,3.7,8.3,8.3v0
	C174.6,81.6,170.8,85.3,166.3,85.3z"/>
<path class="st1" d="M188.8,85.3L188.8,85.3c-4.6,0-8.3-3.7-8.3-8.3v0c0-4.6,3.7-8.3,8.3-8.3h0c4.6,0,8.3,3.7,8.3,8.3v0
	C197.1,81.6,193.4,85.3,188.8,85.3z"/>
<path class="st1" d="M211.4,85.3L211.4,85.3c-4.6,0-8.3-3.7-8.3-8.3v0c0-4.6,3.7-8.3,8.3-8.3h0c4.6,0,8.3,3.7,8.3,8.3v0
	C219.7,81.6,216,85.3,211.4,85.3z"/>
<path class="st1" d="M234,85.3L234,85.3c-4.6,0-8.3-3.7-8.3-8.3v0c0-4.6,3.7-8.3,8.3-8.3h0c4.6,0,8.3,3.7,8.3,8.3v0
	C242.3,81.6,238.5,85.3,234,85.3z"/>
<path class="st1" d="M256.6,85.3L256.6,85.3c-4.6,0-8.3-3.7-8.3-8.3v0c0-4.6,3.7-8.3,8.3-8.3h0c4.6,0,8.3,3.7,8.3,8.3v0
	C264.8,81.6,261.1,85.3,256.6,85.3z"/>
<path class="st1" d="M279.1,85.3L279.1,85.3c-4.6,0-8.3-3.7-8.3-8.3v0c0-4.6,3.7-8.3,8.3-8.3h0c4.6,0,8.3,3.7,8.3,8.3v0
	C287.4,81.6,283.7,85.3,279.1,85.3z"/>
<path class="st1" d="M301.7,85.3L301.7,85.3c-4.6,0-8.3-3.7-8.3-8.3v0c0-4.6,3.7-8.3,8.3-8.3l0,0c4.6,0,8.3,3.7,8.3,8.3v0
	C310,81.6,306.3,85.3,301.7,85.3z"/>
<path class="st1" d="M324.3,85.3L324.3,85.3c-4.6,0-8.3-3.7-8.3-8.3v0c0-4.6,3.7-8.3,8.3-8.3l0,0c4.6,0,8.3,3.7,8.3,8.3v0
	C332.6,81.6,328.8,85.3,324.3,85.3z"/>
<path class="st1" d="M346.8,85.3L346.8,85.3c-4.6,0-8.3-3.7-8.3-8.3v0c0-4.6,3.7-8.3,8.3-8.3h0c4.6,0,8.3,3.7,8.3,8.3v0
	C355.1,81.6,351.4,85.3,346.8,85.3z"/>
<path class="st1" d="M8.3,153L8.3,153c-4.6,0-8.3-3.7-8.3-8.3v0c0-4.6,3.7-8.3,8.3-8.3h0c4.6,0,8.3,3.7,8.3,8.3v0
	C16.6,149.3,12.9,153,8.3,153z"/>
<path class="st1" d="M30.9,153L30.9,153c-4.6,0-8.3-3.7-8.3-8.3v0c0-4.6,3.7-8.3,8.3-8.3h0c4.6,0,8.3,3.7,8.3,8.3v0
	C39.2,149.3,35.4,153,30.9,153z"/>
<path class="st1" d="M53.5,153L53.5,153c-4.6,0-8.3-3.7-8.3-8.3v0c0-4.6,3.7-8.3,8.3-8.3h0c4.6,0,8.3,3.7,8.3,8.3v0
	C61.7,149.3,58,153,53.5,153z"/>
<path class="st1" d="M76,153L76,153c-4.6,0-8.3-3.7-8.3-8.3v0c0-4.6,3.7-8.3,8.3-8.3h0c4.6,0,8.3,3.7,8.3,8.3v0
	C84.3,149.3,80.6,153,76,153z"/>
<path class="st1" d="M98.6,153L98.6,153c-4.6,0-8.3-3.7-8.3-8.3v0c0-4.6,3.7-8.3,8.3-8.3h0c4.6,0,8.3,3.7,8.3,8.3v0
	C106.9,149.3,103.1,153,98.6,153z"/>
<path class="st1" d="M121.2,153L121.2,153c-4.6,0-8.3-3.7-8.3-8.3v0c0-4.6,3.7-8.3,8.3-8.3h0c4.6,0,8.3,3.7,8.3,8.3v0
	C129.4,149.3,125.7,153,121.2,153z"/>
<path class="st1" d="M143.7,153L143.7,153c-4.6,0-8.3-3.7-8.3-8.3v0c0-4.6,3.7-8.3,8.3-8.3h0c4.6,0,8.3,3.7,8.3,8.3v0
	C152,149.3,148.3,153,143.7,153z"/>
<path class="st1" d="M166.3,153L166.3,153c-4.6,0-8.3-3.7-8.3-8.3v0c0-4.6,3.7-8.3,8.3-8.3h0c4.6,0,8.3,3.7,8.3,8.3v0
	C174.6,149.3,170.9,153,166.3,153z"/>
<path class="st1" d="M188.9,153L188.9,153c-4.6,0-8.3-3.7-8.3-8.3v0c0-4.6,3.7-8.3,8.3-8.3h0c4.6,0,8.3,3.7,8.3,8.3v0
	C197.2,149.3,193.4,153,188.9,153z"/>
<path class="st1" d="M211.4,153L211.4,153c-4.6,0-8.3-3.7-8.3-8.3v0c0-4.6,3.7-8.3,8.3-8.3h0c4.6,0,8.3,3.7,8.3,8.3v0
	C219.7,149.3,216,153,211.4,153z"/>
<path class="st1" d="M234,153L234,153c-4.6,0-8.3-3.7-8.3-8.3v0c0-4.6,3.7-8.3,8.3-8.3h0c4.6,0,8.3,3.7,8.3,8.3v0
	C242.3,149.3,238.6,153,234,153z"/>
<path class="st1" d="M256.6,153L256.6,153c-4.6,0-8.3-3.7-8.3-8.3v0c0-4.6,3.7-8.3,8.3-8.3l0,0c4.6,0,8.3,3.7,8.3,8.3v0
	C264.9,149.3,261.1,153,256.6,153z"/>
<path class="st1" d="M279.2,153L279.2,153c-4.6,0-8.3-3.7-8.3-8.3v0c0-4.6,3.7-8.3,8.3-8.3l0,0c4.6,0,8.3,3.7,8.3,8.3v0
	C287.4,149.3,283.7,153,279.2,153z"/>
<path class="st1" d="M301.7,153L301.7,153c-4.6,0-8.3-3.7-8.3-8.3v0c0-4.6,3.7-8.3,8.3-8.3h0c4.6,0,8.3,3.7,8.3,8.3v0
	C310,149.3,306.3,153,301.7,153z"/>
<path class="st1" d="M53.5,333.6L53.5,333.6c-4.6,0-8.3-3.7-8.3-8.3v0c0-4.6,3.7-8.3,8.3-8.3h0c4.6,0,8.3,3.7,8.3,8.3v0
	C61.8,329.9,58.1,333.6,53.5,333.6z"/>
<path class="st1" d="M76.1,333.6L76.1,333.6c-4.6,0-8.3-3.7-8.3-8.3v0c0-4.6,3.7-8.3,8.3-8.3h0c4.6,0,8.3,3.7,8.3,8.3v0
	C84.4,329.9,80.6,333.6,76.1,333.6z"/>
<path class="st1" d="M98.6,333.6L98.6,333.6c-4.6,0-8.3-3.7-8.3-8.3v0c0-4.6,3.7-8.3,8.3-8.3h0c4.6,0,8.3,3.7,8.3,8.3v0
	C106.9,329.9,103.2,333.6,98.6,333.6z"/>
<path class="st1" d="M121.2,333.6L121.2,333.6c-4.6,0-8.3-3.7-8.3-8.3v0c0-4.6,3.7-8.3,8.3-8.3h0c4.6,0,8.3,3.7,8.3,8.3v0
	C129.5,329.9,125.8,333.6,121.2,333.6z"/>
<path class="st1" d="M143.8,333.6L143.8,333.6c-4.6,0-8.3-3.7-8.3-8.3v0c0-4.6,3.7-8.3,8.3-8.3h0c4.6,0,8.3,3.7,8.3,8.3v0
	C152.1,329.9,148.3,333.6,143.8,333.6z"/>
<path class="st1" d="M166.3,333.6L166.3,333.6c-4.6,0-8.3-3.7-8.3-8.3v0c0-4.6,3.7-8.3,8.3-8.3h0c4.6,0,8.3,3.7,8.3,8.3v0
	C174.6,329.9,170.9,333.6,166.3,333.6z"/>
<path class="st1" d="M188.9,333.6L188.9,333.6c-4.6,0-8.3-3.7-8.3-8.3v0c0-4.6,3.7-8.3,8.3-8.3h0c4.6,0,8.3,3.7,8.3,8.3v0
	C197.2,329.9,193.5,333.6,188.9,333.6z"/>
<path class="st1" d="M211.5,333.6L211.5,333.6c-4.6,0-8.3-3.7-8.3-8.3v0c0-4.6,3.7-8.3,8.3-8.3h0c4.6,0,8.3,3.7,8.3,8.3v0
	C219.8,329.9,216,333.6,211.5,333.6z"/>
<path class="st1" d="M53.5,356.2L53.5,356.2c-4.6,0-8.3-3.7-8.3-8.3l0,0c0-4.6,3.7-8.3,8.3-8.3h0c4.6,0,8.3,3.7,8.3,8.3l0,0
	C61.8,352.4,58.1,356.2,53.5,356.2z"/>
<path class="st1" d="M76.1,356.2L76.1,356.2c-4.6,0-8.3-3.7-8.3-8.3l0,0c0-4.6,3.7-8.3,8.3-8.3h0c4.6,0,8.3,3.7,8.3,8.3l0,0
	C84.4,352.4,80.6,356.2,76.1,356.2z"/>
<path class="st1" d="M98.6,356.2L98.6,356.2c-4.6,0-8.3-3.7-8.3-8.3l0,0c0-4.6,3.7-8.3,8.3-8.3h0c4.6,0,8.3,3.7,8.3,8.3l0,0
	C106.9,352.4,103.2,356.2,98.6,356.2z"/>
<path class="st1" d="M121.2,356.2L121.2,356.2c-4.6,0-8.3-3.7-8.3-8.3l0,0c0-4.6,3.7-8.3,8.3-8.3h0c4.6,0,8.3,3.7,8.3,8.3l0,0
	C129.5,352.4,125.8,356.2,121.2,356.2z"/>
<path class="st1" d="M143.8,356.2L143.8,356.2c-4.6,0-8.3-3.7-8.3-8.3l0,0c0-4.6,3.7-8.3,8.3-8.3h0c4.6,0,8.3,3.7,8.3,8.3l0,0
	C152.1,352.4,148.3,356.2,143.8,356.2z"/>
<path class="st1" d="M166.3,356.2L166.3,356.2c-4.6,0-8.3-3.7-8.3-8.3l0,0c0-4.6,3.7-8.3,8.3-8.3h0c4.6,0,8.3,3.7,8.3,8.3l0,0
	C174.6,352.4,170.9,356.2,166.3,356.2z"/>
<path class="st1" d="M188.9,356.2L188.9,356.2c-4.6,0-8.3-3.7-8.3-8.3l0,0c0-4.6,3.7-8.3,8.3-8.3h0c4.6,0,8.3,3.7,8.3,8.3l0,0
	C197.2,352.4,193.5,356.2,188.9,356.2z"/>
<path class="st1" d="M211.5,356.2L211.5,356.2c-4.6,0-8.3-3.7-8.3-8.3l0,0c0-4.6,3.7-8.3,8.3-8.3h0c4.6,0,8.3,3.7,8.3,8.3l0,0
	C219.8,352.4,216,356.2,211.5,356.2z"/>
<path class="st1" d="M53.5,378.8L53.5,378.8c-4.6,0-8.3-3.7-8.3-8.3v0c0-4.6,3.7-8.3,8.3-8.3h0c4.6,0,8.3,3.7,8.3,8.3v0
	C61.8,375.1,58.1,378.8,53.5,378.8z"/>
<path class="st1" d="M76.1,378.8L76.1,378.8c-4.6,0-8.3-3.7-8.3-8.3v0c0-4.6,3.7-8.3,8.3-8.3h0c4.6,0,8.3,3.7,8.3,8.3v0
	C84.4,375.1,80.6,378.8,76.1,378.8z"/>
<path class="st1" d="M98.6,378.8L98.6,378.8c-4.6,0-8.3-3.7-8.3-8.3v0c0-4.6,3.7-8.3,8.3-8.3h0c4.6,0,8.3,3.7,8.3,8.3v0
	C106.9,375.1,103.2,378.8,98.6,378.8z"/>
<path class="st1" d="M121.2,378.8L121.2,378.8c-4.6,0-8.3-3.7-8.3-8.3v0c0-4.6,3.7-8.3,8.3-8.3h0c4.6,0,8.3,3.7,8.3,8.3v0
	C129.5,375.1,125.8,378.8,121.2,378.8z"/>
<path class="st1" d="M143.8,378.8L143.8,378.8c-4.6,0-8.3-3.7-8.3-8.3v0c0-4.6,3.7-8.3,8.3-8.3h0c4.6,0,8.3,3.7,8.3,8.3v0
	C152.1,375.1,148.3,378.8,143.8,378.8z"/>
<path class="st1" d="M166.3,378.8L166.3,378.8c-4.6,0-8.3-3.7-8.3-8.3v0c0-4.6,3.7-8.3,8.3-8.3h0c4.6,0,8.3,3.7,8.3,8.3v0
	C174.6,375.1,170.9,378.8,166.3,378.8z"/>
<path class="st1" d="M188.9,378.8L188.9,378.8c-4.6,0-8.3-3.7-8.3-8.3v0c0-4.6,3.7-8.3,8.3-8.3h0c4.6,0,8.3,3.7,8.3,8.3v0
	C197.2,375.1,193.5,378.8,188.9,378.8z"/>
<path class="st1" d="M211.5,378.8L211.5,378.8c-4.6,0-8.3-3.7-8.3-8.3v0c0-4.6,3.7-8.3,8.3-8.3h0c4.6,0,8.3,3.7,8.3,8.3v0
	C219.8,375.1,216,378.8,211.5,378.8z"/>
<path class="st1" d="M211.5,401.4L211.5,401.4c-4.6,0-8.3-3.7-8.3-8.3l0,0c0-4.6,3.7-8.3,8.3-8.3h0c4.6,0,8.3,3.7,8.3,8.3l0,0
	C219.8,397.6,216,401.4,211.5,401.4z"/>
<path class="st1" d="M211.5,423.9L211.5,423.9c-4.6,0-8.3-3.7-8.3-8.3v0c0-4.6,3.7-8.3,8.3-8.3h0c4.6,0,8.3,3.7,8.3,8.3v0
	C219.8,420.2,216,423.9,211.5,423.9z"/>
<path class="st1" d="M211.5,446.5L211.5,446.5c-4.6,0-8.3-3.7-8.3-8.3l0,0c0-4.6,3.7-8.3,8.3-8.3h0c4.6,0,8.3,3.7,8.3,8.3l0,0
	C219.8,442.8,216,446.5,211.5,446.5z"/>
<path class="st1" d="M53.5,401.4L53.5,401.4c-4.6,0-8.3-3.7-8.3-8.3l0,0c0-4.6,3.7-8.3,8.3-8.3h0c4.6,0,8.3,3.7,8.3,8.3l0,0
	C61.8,397.6,58.1,401.4,53.5,401.4z"/>
<path class="st1" d="M76.1,401.4L76.1,401.4c-4.6,0-8.3-3.7-8.3-8.3l0,0c0-4.6,3.7-8.3,8.3-8.3h0c4.6,0,8.3,3.7,8.3,8.3l0,0
	C84.4,397.6,80.6,401.4,76.1,401.4z"/>
<path class="st1" d="M98.6,401.4L98.6,401.4c-4.6,0-8.3-3.7-8.3-8.3l0,0c0-4.6,3.7-8.3,8.3-8.3h0c4.6,0,8.3,3.7,8.3,8.3l0,0
	C106.9,397.6,103.2,401.4,98.6,401.4z"/>
<path class="st1" d="M121.2,401.4L121.2,401.4c-4.6,0-8.3-3.7-8.3-8.3l0,0c0-4.6,3.7-8.3,8.3-8.3h0c4.6,0,8.3,3.7,8.3,8.3l0,0
	C129.5,397.6,125.8,401.4,121.2,401.4z"/>
<path class="st1" d="M143.8,401.4L143.8,401.4c-4.6,0-8.3-3.7-8.3-8.3l0,0c0-4.6,3.7-8.3,8.3-8.3h0c4.6,0,8.3,3.7,8.3,8.3l0,0
	C152.1,397.6,148.3,401.4,143.8,401.4z"/>
<path class="st1" d="M166.3,401.4L166.3,401.4c-4.6,0-8.3-3.7-8.3-8.3l0,0c0-4.6,3.7-8.3,8.3-8.3h0c4.6,0,8.3,3.7,8.3,8.3l0,0
	C174.6,397.6,170.9,401.4,166.3,401.4z"/>
<path class="st1" d="M188.9,401.4L188.9,401.4c-4.6,0-8.3-3.7-8.3-8.3l0,0c0-4.6,3.7-8.3,8.3-8.3h0c4.6,0,8.3,3.7,8.3,8.3l0,0
	C197.2,397.6,193.5,401.4,188.9,401.4z"/>
<path class="st1" d="M53.5,424L53.5,424c-4.6,0-8.3-3.7-8.3-8.3v0c0-4.6,3.7-8.3,8.3-8.3h0c4.6,0,8.3,3.7,8.3,8.3v0
	C61.8,420.3,58.1,424,53.5,424z"/>
<path class="st1" d="M76.1,424L76.1,424c-4.6,0-8.3-3.7-8.3-8.3v0c0-4.6,3.7-8.3,8.3-8.3h0c4.6,0,8.3,3.7,8.3,8.3v0
	C84.4,420.3,80.6,424,76.1,424z"/>
<path class="st1" d="M98.6,424L98.6,424c-4.6,0-8.3-3.7-8.3-8.3v0c0-4.6,3.7-8.3,8.3-8.3h0c4.6,0,8.3,3.7,8.3,8.3v0
	C106.9,420.3,103.2,424,98.6,424z"/>
<path class="st1" d="M121.2,424L121.2,424c-4.6,0-8.3-3.7-8.3-8.3v0c0-4.6,3.7-8.3,8.3-8.3h0c4.6,0,8.3,3.7,8.3,8.3v0
	C129.5,420.3,125.8,424,121.2,424z"/>
<path class="st1" d="M143.8,424L143.8,424c-4.6,0-8.3-3.7-8.3-8.3v0c0-4.6,3.7-8.3,8.3-8.3h0c4.6,0,8.3,3.7,8.3,8.3v0
	C152.1,420.3,148.3,424,143.8,424z"/>
<path class="st1" d="M166.3,424L166.3,424c-4.6,0-8.3-3.7-8.3-8.3v0c0-4.6,3.7-8.3,8.3-8.3h0c4.6,0,8.3,3.7,8.3,8.3v0
	C174.6,420.3,170.9,424,166.3,424z"/>
<path class="st1" d="M188.9,424L188.9,424c-4.6,0-8.3-3.7-8.3-8.3v0c0-4.6,3.7-8.3,8.3-8.3h0c4.6,0,8.3,3.7,8.3,8.3v0
	C197.2,420.3,193.5,424,188.9,424z"/>
<path class="st1" d="M8.3,446.5L8.3,446.5c-4.6,0-8.3-3.7-8.3-8.3l0,0c0-4.6,3.7-8.3,8.3-8.3h0c4.6,0,8.3,3.7,8.3,8.3l0,0
	C16.6,442.8,12.9,446.5,8.3,446.5z"/>
<path class="st1" d="M30.9,446.5L30.9,446.5c-4.6,0-8.3-3.7-8.3-8.3l0,0c0-4.6,3.7-8.3,8.3-8.3h0c4.6,0,8.3,3.7,8.3,8.3l0,0
	C39.2,442.8,35.4,446.5,30.9,446.5z"/>
<path class="st1" d="M53.5,446.5L53.5,446.5c-4.6,0-8.3-3.7-8.3-8.3l0,0c0-4.6,3.7-8.3,8.3-8.3h0c4.6,0,8.3,3.7,8.3,8.3l0,0
	C61.7,442.8,58,446.5,53.5,446.5z"/>
<path class="st1" d="M76,446.5L76,446.5c-4.6,0-8.3-3.7-8.3-8.3l0,0c0-4.6,3.7-8.3,8.3-8.3h0c4.6,0,8.3,3.7,8.3,8.3l0,0
	C84.3,442.8,80.6,446.5,76,446.5z"/>
<path class="st1" d="M98.6,446.5L98.6,446.5c-4.6,0-8.3-3.7-8.3-8.3l0,0c0-4.6,3.7-8.3,8.3-8.3h0c4.6,0,8.3,3.7,8.3,8.3l0,0
	C106.9,442.8,103.1,446.5,98.6,446.5z"/>
<path class="st1" d="M121.2,446.5L121.2,446.5c-4.6,0-8.3-3.7-8.3-8.3l0,0c0-4.6,3.7-8.3,8.3-8.3h0c4.6,0,8.3,3.7,8.3,8.3l0,0
	C129.4,442.8,125.7,446.5,121.2,446.5z"/>
<path class="st1" d="M143.7,446.5L143.7,446.5c-4.6,0-8.3-3.7-8.3-8.3l0,0c0-4.6,3.7-8.3,8.3-8.3h0c4.6,0,8.3,3.7,8.3,8.3l0,0
	C152,442.8,148.3,446.5,143.7,446.5z"/>
<path class="st1" d="M166.3,446.5L166.3,446.5c-4.6,0-8.3-3.7-8.3-8.3l0,0c0-4.6,3.7-8.3,8.3-8.3h0c4.6,0,8.3,3.7,8.3,8.3l0,0
	C174.6,442.8,170.9,446.5,166.3,446.5z"/>
<path class="st1" d="M188.9,446.5L188.9,446.5c-4.6,0-8.3-3.7-8.3-8.3l0,0c0-4.6,3.7-8.3,8.3-8.3h0c4.6,0,8.3,3.7,8.3,8.3l0,0
	C197.2,442.8,193.4,446.5,188.9,446.5z"/>
<path class="st1" d="M8.3,130.5L8.3,130.5c-4.6,0-8.3-3.7-8.3-8.3v0c0-4.6,3.7-8.3,8.3-8.3h0c4.6,0,8.3,3.7,8.3,8.3v0
	C16.6,126.7,12.9,130.5,8.3,130.5z"/>
<path class="st1" d="M30.9,130.5L30.9,130.5c-4.6,0-8.3-3.7-8.3-8.3v0c0-4.6,3.7-8.3,8.3-8.3h0c4.6,0,8.3,3.7,8.3,8.3v0
	C39.2,126.7,35.4,130.5,30.9,130.5z"/>
<path class="st1" d="M53.5,130.5L53.5,130.5c-4.6,0-8.3-3.7-8.3-8.3v0c0-4.6,3.7-8.3,8.3-8.3h0c4.6,0,8.3,3.7,8.3,8.3v0
	C61.7,126.7,58,130.5,53.5,130.5z"/>
<path class="st1" d="M76,130.5L76,130.5c-4.6,0-8.3-3.7-8.3-8.3v0c0-4.6,3.7-8.3,8.3-8.3h0c4.6,0,8.3,3.7,8.3,8.3v0
	C84.3,126.7,80.6,130.5,76,130.5z"/>
<path class="st1" d="M98.6,130.5L98.6,130.5c-4.6,0-8.3-3.7-8.3-8.3v0c0-4.6,3.7-8.3,8.3-8.3h0c4.6,0,8.3,3.7,8.3,8.3v0
	C106.9,126.7,103.1,130.5,98.6,130.5z"/>
<path class="st1" d="M121.2,130.5L121.2,130.5c-4.6,0-8.3-3.7-8.3-8.3v0c0-4.6,3.7-8.3,8.3-8.3h0c4.6,0,8.3,3.7,8.3,8.3v0
	C129.4,126.7,125.7,130.5,121.2,130.5z"/>
<path class="st1" d="M143.7,130.5L143.7,130.5c-4.6,0-8.3-3.7-8.3-8.3v0c0-4.6,3.7-8.3,8.3-8.3h0c4.6,0,8.3,3.7,8.3,8.3v0
	C152,126.7,148.3,130.5,143.7,130.5z"/>
<path class="st1" d="M166.3,130.5L166.3,130.5c-4.6,0-8.3-3.7-8.3-8.3v0c0-4.6,3.7-8.3,8.3-8.3h0c4.6,0,8.3,3.7,8.3,8.3v0
	C174.6,126.7,170.9,130.5,166.3,130.5z"/>
<path class="st1" d="M188.9,130.5L188.9,130.5c-4.6,0-8.3-3.7-8.3-8.3v0c0-4.6,3.7-8.3,8.3-8.3h0c4.6,0,8.3,3.7,8.3,8.3v0
	C197.2,126.7,193.4,130.5,188.9,130.5z"/>
<path class="st1" d="M211.4,130.5L211.4,130.5c-4.6,0-8.3-3.7-8.3-8.3v0c0-4.6,3.7-8.3,8.3-8.3h0c4.6,0,8.3,3.7,8.3,8.3v0
	C219.7,126.7,216,130.5,211.4,130.5z"/>
<path class="st1" d="M234,130.5L234,130.5c-4.6,0-8.3-3.7-8.3-8.3v0c0-4.6,3.7-8.3,8.3-8.3h0c4.6,0,8.3,3.7,8.3,8.3v0
	C242.3,126.7,238.6,130.5,234,130.5z"/>
<path class="st1" d="M256.6,130.5L256.6,130.5c-4.6,0-8.3-3.7-8.3-8.3v0c0-4.6,3.7-8.3,8.3-8.3l0,0c4.6,0,8.3,3.7,8.3,8.3v0
	C264.9,126.7,261.1,130.5,256.6,130.5z"/>
<path class="st1" d="M279.2,130.5L279.2,130.5c-4.6,0-8.3-3.7-8.3-8.3v0c0-4.6,3.7-8.3,8.3-8.3l0,0c4.6,0,8.3,3.7,8.3,8.3v0
	C287.4,126.7,283.7,130.5,279.2,130.5z"/>
<path class="st1" d="M301.7,130.5L301.7,130.5c-4.6,0-8.3-3.7-8.3-8.3v0c0-4.6,3.7-8.3,8.3-8.3h0c4.6,0,8.3,3.7,8.3,8.3v0
	C310,126.7,306.3,130.5,301.7,130.5z"/>
<path class="st1" d="M324.3,130.5L324.3,130.5c-4.6,0-8.3-3.7-8.3-8.3v0c0-4.6,3.7-8.3,8.3-8.3h0c4.6,0,8.3,3.7,8.3,8.3v0
	C332.6,126.7,328.9,130.5,324.3,130.5z"/>
<path class="st1" d="M8.3,175.6L8.3,175.6c-4.6,0-8.3-3.7-8.3-8.3v0c0-4.6,3.7-8.3,8.3-8.3h0c4.6,0,8.3,3.7,8.3,8.3v0
	C16.6,171.9,12.9,175.6,8.3,175.6z"/>
<path class="st1" d="M30.9,175.6L30.9,175.6c-4.6,0-8.3-3.7-8.3-8.3v0c0-4.6,3.7-8.3,8.3-8.3h0c4.6,0,8.3,3.7,8.3,8.3v0
	C39.2,171.9,35.5,175.6,30.9,175.6z"/>
<path class="st1" d="M53.5,175.6L53.5,175.6c-4.6,0-8.3-3.7-8.3-8.3v0c0-4.6,3.7-8.3,8.3-8.3h0c4.6,0,8.3,3.7,8.3,8.3v0
	C61.8,171.9,58,175.6,53.5,175.6z"/>
<path class="st1" d="M76,175.6L76,175.6c-4.6,0-8.3-3.7-8.3-8.3v0c0-4.6,3.7-8.3,8.3-8.3h0c4.6,0,8.3,3.7,8.3,8.3v0
	C84.3,171.9,80.6,175.6,76,175.6z"/>
<path class="st1" d="M98.6,175.6L98.6,175.6c-4.6,0-8.3-3.7-8.3-8.3v0c0-4.6,3.7-8.3,8.3-8.3h0c4.6,0,8.3,3.7,8.3,8.3v0
	C106.9,171.9,103.2,175.6,98.6,175.6z"/>
<path class="st1" d="M121.2,175.6L121.2,175.6c-4.6,0-8.3-3.7-8.3-8.3v0c0-4.6,3.7-8.3,8.3-8.3h0c4.6,0,8.3,3.7,8.3,8.3v0
	C129.5,171.9,125.7,175.6,121.2,175.6z"/>
<path class="st1" d="M143.8,175.6L143.8,175.6c-4.6,0-8.3-3.7-8.3-8.3v0c0-4.6,3.7-8.3,8.3-8.3h0c4.6,0,8.3,3.7,8.3,8.3v0
	C152,171.9,148.3,175.6,143.8,175.6z"/>
<path class="st1" d="M166.3,175.6L166.3,175.6c-4.6,0-8.3-3.7-8.3-8.3v0c0-4.6,3.7-8.3,8.3-8.3h0c4.6,0,8.3,3.7,8.3,8.3v0
	C174.6,171.9,170.9,175.6,166.3,175.6z"/>
<path class="st1" d="M188.9,175.6L188.9,175.6c-4.6,0-8.3-3.7-8.3-8.3v0c0-4.6,3.7-8.3,8.3-8.3h0c4.6,0,8.3,3.7,8.3,8.3v0
	C197.2,171.9,193.4,175.6,188.9,175.6z"/>
<path class="st1" d="M211.5,175.6L211.5,175.6c-4.6,0-8.3-3.7-8.3-8.3v0c0-4.6,3.7-8.3,8.3-8.3h0c4.6,0,8.3,3.7,8.3,8.3v0
	C219.7,171.9,216,175.6,211.5,175.6z"/>
<path class="st1" d="M234,175.6L234,175.6c-4.6,0-8.3-3.7-8.3-8.3v0c0-4.6,3.7-8.3,8.3-8.3h0c4.6,0,8.3,3.7,8.3,8.3v0
	C242.3,171.9,238.6,175.6,234,175.6z"/>
<path class="st1" d="M256.6,175.6L256.6,175.6c-4.6,0-8.3-3.7-8.3-8.3v0c0-4.6,3.7-8.3,8.3-8.3l0,0c4.6,0,8.3,3.7,8.3,8.3v0
	C264.9,171.9,261.2,175.6,256.6,175.6z"/>
<path class="st1" d="M8.3,220.7L8.3,220.7c-4.6,0-8.3-3.7-8.3-8.3v0c0-4.6,3.7-8.3,8.3-8.3h0c4.6,0,8.3,3.7,8.3,8.3v0
	C16.6,217,12.9,220.7,8.3,220.7z"/>
<path class="st1" d="M30.9,220.7L30.9,220.7c-4.6,0-8.3-3.7-8.3-8.3v0c0-4.6,3.7-8.3,8.3-8.3h0c4.6,0,8.3,3.7,8.3,8.3v0
	C39.2,217,35.4,220.7,30.9,220.7z"/>
<path class="st1" d="M53.4,220.7L53.4,220.7c-4.6,0-8.3-3.7-8.3-8.3v0c0-4.6,3.7-8.3,8.3-8.3h0c4.6,0,8.3,3.7,8.3,8.3v0
	C61.7,217,58,220.7,53.4,220.7z"/>
<path class="st1" d="M76,220.7L76,220.7c-4.6,0-8.3-3.7-8.3-8.3v0c0-4.6,3.7-8.3,8.3-8.3h0c4.6,0,8.3,3.7,8.3,8.3v0
	C84.3,217,80.6,220.7,76,220.7z"/>
<path class="st1" d="M98.6,220.7L98.6,220.7c-4.6,0-8.3-3.7-8.3-8.3v0c0-4.6,3.7-8.3,8.3-8.3h0c4.6,0,8.3,3.7,8.3,8.3v0
	C106.9,217,103.1,220.7,98.6,220.7z"/>
<path class="st1" d="M121.2,220.7L121.2,220.7c-4.6,0-8.3-3.7-8.3-8.3v0c0-4.6,3.7-8.3,8.3-8.3h0c4.6,0,8.3,3.7,8.3,8.3v0
	C129.4,217,125.7,220.7,121.2,220.7z"/>
<path class="st1" d="M143.7,220.7L143.7,220.7c-4.6,0-8.3-3.7-8.3-8.3v0c0-4.6,3.7-8.3,8.3-8.3h0c4.6,0,8.3,3.7,8.3,8.3v0
	C152,217,148.3,220.7,143.7,220.7z"/>
<path class="st1" d="M166.3,220.7L166.3,220.7c-4.6,0-8.3-3.7-8.3-8.3v0c0-4.6,3.7-8.3,8.3-8.3h0c4.6,0,8.3,3.7,8.3,8.3v0
	C174.6,217,170.9,220.7,166.3,220.7z"/>
<path class="st1" d="M188.9,220.7L188.9,220.7c-4.6,0-8.3-3.7-8.3-8.3v0c0-4.6,3.7-8.3,8.3-8.3h0c4.6,0,8.3,3.7,8.3,8.3v0
	C197.2,217,193.4,220.7,188.9,220.7z"/>
<path class="st1" d="M211.4,220.7L211.4,220.7c-4.6,0-8.3-3.7-8.3-8.3v0c0-4.6,3.7-8.3,8.3-8.3h0c4.6,0,8.3,3.7,8.3,8.3v0
	C219.7,217,216,220.7,211.4,220.7z"/>
<path class="st1" d="M234,220.7L234,220.7c-4.6,0-8.3-3.7-8.3-8.3v0c0-4.6,3.7-8.3,8.3-8.3h0c4.6,0,8.3,3.7,8.3,8.3v0
	C242.3,217,238.6,220.7,234,220.7z"/>
<path class="st1" d="M256.6,220.7L256.6,220.7c-4.6,0-8.3-3.7-8.3-8.3v0c0-4.6,3.7-8.3,8.3-8.3h0c4.6,0,8.3,3.7,8.3,8.3v0
	C264.9,217,261.1,220.7,256.6,220.7z"/>
<path class="st1" d="M8.3,198.2L8.3,198.2c-4.6,0-8.3-3.7-8.3-8.3v0c0-4.6,3.7-8.3,8.3-8.3h0c4.6,0,8.3,3.7,8.3,8.3v0
	C16.6,194.4,12.9,198.2,8.3,198.2z"/>
<path class="st1" d="M30.9,198.2L30.9,198.2c-4.6,0-8.3-3.7-8.3-8.3v0c0-4.6,3.7-8.3,8.3-8.3h0c4.6,0,8.3,3.7,8.3,8.3v0
	C39.2,194.4,35.4,198.2,30.9,198.2z"/>
<path class="st1" d="M53.4,198.2L53.4,198.2c-4.6,0-8.3-3.7-8.3-8.3v0c0-4.6,3.7-8.3,8.3-8.3h0c4.6,0,8.3,3.7,8.3,8.3v0
	C61.7,194.4,58,198.2,53.4,198.2z"/>
<path class="st1" d="M76,198.2L76,198.2c-4.6,0-8.3-3.7-8.3-8.3v0c0-4.6,3.7-8.3,8.3-8.3h0c4.6,0,8.3,3.7,8.3,8.3v0
	C84.3,194.4,80.6,198.2,76,198.2z"/>
<path class="st1" d="M98.6,198.2L98.6,198.2c-4.6,0-8.3-3.7-8.3-8.3v0c0-4.6,3.7-8.3,8.3-8.3h0c4.6,0,8.3,3.7,8.3,8.3v0
	C106.9,194.4,103.1,198.2,98.6,198.2z"/>
<path class="st1" d="M121.2,198.2L121.2,198.2c-4.6,0-8.3-3.7-8.3-8.3v0c0-4.6,3.7-8.3,8.3-8.3h0c4.6,0,8.3,3.7,8.3,8.3v0
	C129.4,194.4,125.7,198.2,121.2,198.2z"/>
<path class="st1" d="M143.7,198.2L143.7,198.2c-4.6,0-8.3-3.7-8.3-8.3v0c0-4.6,3.7-8.3,8.3-8.3h0c4.6,0,8.3,3.7,8.3,8.3v0
	C152,194.4,148.3,198.2,143.7,198.2z"/>
<path class="st1" d="M166.3,198.2L166.3,198.2c-4.6,0-8.3-3.7-8.3-8.3v0c0-4.6,3.7-8.3,8.3-8.3h0c4.6,0,8.3,3.7,8.3,8.3v0
	C174.6,194.4,170.9,198.2,166.3,198.2z"/>
<path class="st1" d="M188.9,198.2L188.9,198.2c-4.6,0-8.3-3.7-8.3-8.3v0c0-4.6,3.7-8.3,8.3-8.3h0c4.6,0,8.3,3.7,8.3,8.3v0
	C197.2,194.4,193.4,198.2,188.9,198.2z"/>
<path class="st1" d="M211.4,198.2L211.4,198.2c-4.6,0-8.3-3.7-8.3-8.3v0c0-4.6,3.7-8.3,8.3-8.3h0c4.6,0,8.3,3.7,8.3,8.3v0
	C219.7,194.4,216,198.2,211.4,198.2z"/>
<path class="st1" d="M234,198.2L234,198.2c-4.6,0-8.3-3.7-8.3-8.3v0c0-4.6,3.7-8.3,8.3-8.3h0c4.6,0,8.3,3.7,8.3,8.3v0
	C242.3,194.4,238.6,198.2,234,198.2z"/>
<path class="st1" d="M256.6,198.2L256.6,198.2c-4.6,0-8.3-3.7-8.3-8.3v0c0-4.6,3.7-8.3,8.3-8.3h0c4.6,0,8.3,3.7,8.3,8.3v0
	C264.9,194.4,261.1,198.2,256.6,198.2z"/>
<path class="st1" d="M53.5,243.3L53.5,243.3c-4.6,0-8.3-3.7-8.3-8.3v0c0-4.6,3.7-8.3,8.3-8.3h0c4.6,0,8.3,3.7,8.3,8.3v0
	C61.8,239.6,58,243.3,53.5,243.3z"/>
<path class="st1" d="M76,243.3L76,243.3c-4.6,0-8.3-3.7-8.3-8.3v0c0-4.6,3.7-8.3,8.3-8.3h0c4.6,0,8.3,3.7,8.3,8.3v0
	C84.3,239.6,80.6,243.3,76,243.3z"/>
<path class="st1" d="M98.6,243.3L98.6,243.3c-4.6,0-8.3-3.7-8.3-8.3v0c0-4.6,3.7-8.3,8.3-8.3h0c4.6,0,8.3,3.7,8.3,8.3v0
	C106.9,239.6,103.2,243.3,98.6,243.3z"/>
<path class="st1" d="M121.2,243.3L121.2,243.3c-4.6,0-8.3-3.7-8.3-8.3v0c0-4.6,3.7-8.3,8.3-8.3h0c4.6,0,8.3,3.7,8.3,8.3v0
	C129.5,239.6,125.7,243.3,121.2,243.3z"/>
<path class="st1" d="M143.8,243.3L143.8,243.3c-4.6,0-8.3-3.7-8.3-8.3v0c0-4.6,3.7-8.3,8.3-8.3h0c4.6,0,8.3,3.7,8.3,8.3v0
	C152,239.6,148.3,243.3,143.8,243.3z"/>
<path class="st1" d="M166.3,243.3L166.3,243.3c-4.6,0-8.3-3.7-8.3-8.3v0c0-4.6,3.7-8.3,8.3-8.3h0c4.6,0,8.3,3.7,8.3,8.3v0
	C174.6,239.6,170.9,243.3,166.3,243.3z"/>
<path class="st1" d="M188.9,243.3L188.9,243.3c-4.6,0-8.3-3.7-8.3-8.3v0c0-4.6,3.7-8.3,8.3-8.3h0c4.6,0,8.3,3.7,8.3,8.3v0
	C197.2,239.6,193.4,243.3,188.9,243.3z"/>
<path class="st1" d="M211.5,243.3L211.5,243.3c-4.6,0-8.3-3.7-8.3-8.3v0c0-4.6,3.7-8.3,8.3-8.3h0c4.6,0,8.3,3.7,8.3,8.3v0
	C219.7,239.6,216,243.3,211.5,243.3z"/>
<path class="st1" d="M234,243.3L234,243.3c-4.6,0-8.3-3.7-8.3-8.3v0c0-4.6,3.7-8.3,8.3-8.3h0c4.6,0,8.3,3.7,8.3,8.3v0
	C242.3,239.6,238.6,243.3,234,243.3z"/>
<path class="st1" d="M256.6,243.3L256.6,243.3c-4.6,0-8.3-3.7-8.3-8.3v0c0-4.6,3.7-8.3,8.3-8.3l0,0c4.6,0,8.3,3.7,8.3,8.3v0
	C264.9,239.6,261.2,243.3,256.6,243.3z"/>
<path class="st1" d="M53.5,288.4L53.5,288.4c-4.6,0-8.3-3.7-8.3-8.3v0c0-4.6,3.7-8.3,8.3-8.3h0c4.6,0,8.3,3.7,8.3,8.3v0
	C61.8,284.7,58,288.4,53.5,288.4z"/>
<path class="st1" d="M76.1,288.4L76.1,288.4c-4.6,0-8.3-3.7-8.3-8.3v0c0-4.6,3.7-8.3,8.3-8.3h0c4.6,0,8.3,3.7,8.3,8.3v0
	C84.3,284.7,80.6,288.4,76.1,288.4z"/>
<path class="st1" d="M98.6,288.4L98.6,288.4c-4.6,0-8.3-3.7-8.3-8.3v0c0-4.6,3.7-8.3,8.3-8.3h0c4.6,0,8.3,3.7,8.3,8.3v0
	C106.9,284.7,103.2,288.4,98.6,288.4z"/>
<path class="st1" d="M121.2,288.4L121.2,288.4c-4.6,0-8.3-3.7-8.3-8.3v0c0-4.6,3.7-8.3,8.3-8.3h0c4.6,0,8.3,3.7,8.3,8.3v0
	C129.5,284.7,125.8,288.4,121.2,288.4z"/>
<path class="st1" d="M143.8,288.4L143.8,288.4c-4.6,0-8.3-3.7-8.3-8.3v0c0-4.6,3.7-8.3,8.3-8.3h0c4.6,0,8.3,3.7,8.3,8.3v0
	C152.1,284.7,148.3,288.4,143.8,288.4z"/>
<path class="st1" d="M166.3,288.4L166.3,288.4c-4.6,0-8.3-3.7-8.3-8.3v0c0-4.6,3.7-8.3,8.3-8.3h0c4.6,0,8.3,3.7,8.3,8.3v0
	C174.6,284.7,170.9,288.4,166.3,288.4z"/>
<path class="st1" d="M188.9,288.4L188.9,288.4c-4.6,0-8.3-3.7-8.3-8.3v0c0-4.6,3.7-8.3,8.3-8.3h0c4.6,0,8.3,3.7,8.3,8.3v0
	C197.2,284.7,193.5,288.4,188.9,288.4z"/>
<path class="st1" d="M211.5,288.4L211.5,288.4c-4.6,0-8.3-3.7-8.3-8.3v0c0-4.6,3.7-8.3,8.3-8.3h0c4.6,0,8.3,3.7,8.3,8.3v0
	C219.8,284.7,216,288.4,211.5,288.4z"/>
<path class="st1" d="M234.1,288.4L234.1,288.4c-4.6,0-8.3-3.7-8.3-8.3v0c0-4.6,3.7-8.3,8.3-8.3h0c4.6,0,8.3,3.7,8.3,8.3v0
	C242.3,284.7,238.6,288.4,234.1,288.4z"/>
<path class="st1" d="M53.5,265.9L53.5,265.9c-4.6,0-8.3-3.7-8.3-8.3v0c0-4.6,3.7-8.3,8.3-8.3h0c4.6,0,8.3,3.7,8.3,8.3v0
	C61.8,262.1,58,265.9,53.5,265.9z"/>
<path class="st1" d="M76.1,265.9L76.1,265.9c-4.6,0-8.3-3.7-8.3-8.3v0c0-4.6,3.7-8.3,8.3-8.3h0c4.6,0,8.3,3.7,8.3,8.3v0
	C84.3,262.1,80.6,265.9,76.1,265.9z"/>
<path class="st1" d="M98.6,265.9L98.6,265.9c-4.6,0-8.3-3.7-8.3-8.3v0c0-4.6,3.7-8.3,8.3-8.3h0c4.6,0,8.3,3.7,8.3,8.3v0
	C106.9,262.1,103.2,265.9,98.6,265.9z"/>
<path class="st1" d="M121.2,265.9L121.2,265.9c-4.6,0-8.3-3.7-8.3-8.3v0c0-4.6,3.7-8.3,8.3-8.3h0c4.6,0,8.3,3.7,8.3,8.3v0
	C129.5,262.1,125.8,265.9,121.2,265.9z"/>
<path class="st1" d="M143.8,265.9L143.8,265.9c-4.6,0-8.3-3.7-8.3-8.3v0c0-4.6,3.7-8.3,8.3-8.3h0c4.6,0,8.3,3.7,8.3,8.3v0
	C152.1,262.1,148.3,265.9,143.8,265.9z"/>
<path class="st1" d="M166.3,265.9L166.3,265.9c-4.6,0-8.3-3.7-8.3-8.3v0c0-4.6,3.7-8.3,8.3-8.3h0c4.6,0,8.3,3.7,8.3,8.3v0
	C174.6,262.1,170.9,265.9,166.3,265.9z"/>
<path class="st1" d="M188.9,265.9L188.9,265.9c-4.6,0-8.3-3.7-8.3-8.3v0c0-4.6,3.7-8.3,8.3-8.3h0c4.6,0,8.3,3.7,8.3,8.3v0
	C197.2,262.1,193.5,265.9,188.9,265.9z"/>
<path class="st1" d="M211.5,265.9L211.5,265.9c-4.6,0-8.3-3.7-8.3-8.3v0c0-4.6,3.7-8.3,8.3-8.3h0c4.6,0,8.3,3.7,8.3,8.3v0
	C219.8,262.1,216,265.9,211.5,265.9z"/>
<path class="st1" d="M234.1,265.9L234.1,265.9c-4.6,0-8.3-3.7-8.3-8.3v0c0-4.6,3.7-8.3,8.3-8.3h0c4.6,0,8.3,3.7,8.3,8.3v0
	C242.3,262.1,238.6,265.9,234.1,265.9z"/>
<path class="st1" d="M256.6,265.9L256.6,265.9c-4.6,0-8.3-3.7-8.3-8.3v0c0-4.6,3.7-8.3,8.3-8.3l0,0c4.6,0,8.3,3.7,8.3,8.3v0
	C264.9,262.1,261.2,265.9,256.6,265.9z"/>
<path class="st1" d="M53.5,311L53.5,311c-4.6,0-8.3-3.7-8.3-8.3l0,0c0-4.6,3.7-8.3,8.3-8.3h0c4.6,0,8.3,3.7,8.3,8.3l0,0
	C61.8,307.3,58,311,53.5,311z"/>
<path class="st1" d="M76.1,311L76.1,311c-4.6,0-8.3-3.7-8.3-8.3l0,0c0-4.6,3.7-8.3,8.3-8.3h0c4.6,0,8.3,3.7,8.3,8.3l0,0
	C84.3,307.3,80.6,311,76.1,311z"/>
<path class="st1" d="M98.6,311L98.6,311c-4.6,0-8.3-3.7-8.3-8.3l0,0c0-4.6,3.7-8.3,8.3-8.3h0c4.6,0,8.3,3.7,8.3,8.3l0,0
	C106.9,307.3,103.2,311,98.6,311z"/>
<path class="st1" d="M121.2,311L121.2,311c-4.6,0-8.3-3.7-8.3-8.3l0,0c0-4.6,3.7-8.3,8.3-8.3h0c4.6,0,8.3,3.7,8.3,8.3l0,0
	C129.5,307.3,125.8,311,121.2,311z"/>
<path class="st1" d="M143.8,311L143.8,311c-4.6,0-8.3-3.7-8.3-8.3l0,0c0-4.6,3.7-8.3,8.3-8.3h0c4.6,0,8.3,3.7,8.3,8.3l0,0
	C152.1,307.3,148.3,311,143.8,311z"/>
<path class="st1" d="M166.3,311L166.3,311c-4.6,0-8.3-3.7-8.3-8.3l0,0c0-4.6,3.7-8.3,8.3-8.3h0c4.6,0,8.3,3.7,8.3,8.3l0,0
	C174.6,307.3,170.9,311,166.3,311z"/>
<path class="st1" d="M188.9,311L188.9,311c-4.6,0-8.3-3.7-8.3-8.3l0,0c0-4.6,3.7-8.3,8.3-8.3h0c4.6,0,8.3,3.7,8.3,8.3l0,0
	C197.2,307.3,193.5,311,188.9,311z"/>
<path class="st1" d="M211.5,311L211.5,311c-4.6,0-8.3-3.7-8.3-8.3l0,0c0-4.6,3.7-8.3,8.3-8.3h0c4.6,0,8.3,3.7,8.3,8.3l0,0
	C219.8,307.3,216,311,211.5,311z"/>
<path class="st1" d="M234.1,311L234.1,311c-4.6,0-8.3-3.7-8.3-8.3l0,0c0-4.6,3.7-8.3,8.3-8.3h0c4.6,0,8.3,3.7,8.3,8.3l0,0
	C242.3,307.3,238.6,311,234.1,311z"/>
<path class="st1" d="M279.2,175.6L279.2,175.6c-4.6,0-8.3-3.7-8.3-8.3v0c0-4.6,3.7-8.3,8.3-8.3h0c4.6,0,8.3,3.7,8.3,8.3v0
	C287.5,171.9,283.8,175.6,279.2,175.6z"/>
<path class="st1" d="M279.2,220.7L279.2,220.7c-4.6,0-8.3-3.7-8.3-8.3v0c0-4.6,3.7-8.3,8.3-8.3l0,0c4.6,0,8.3,3.7,8.3,8.3v0
	C287.5,217,283.7,220.7,279.2,220.7z"/>
<path class="st1" d="M279.2,198.2L279.2,198.2c-4.6,0-8.3-3.7-8.3-8.3v0c0-4.6,3.7-8.3,8.3-8.3l0,0c4.6,0,8.3,3.7,8.3,8.3v0
	C287.5,194.4,283.7,198.2,279.2,198.2z"/>
<path class="st1" d="M301.7,175.6L301.7,175.6c-4.6,0-8.3-3.7-8.3-8.3v0c0-4.6,3.7-8.3,8.3-8.3l0,0c4.6,0,8.3,3.7,8.3,8.3v0
	C310,171.9,306.3,175.6,301.7,175.6z"/>
<path class="st1" d="M301.7,198.2L301.7,198.2c-4.6,0-8.3-3.7-8.3-8.3v0c0-4.6,3.7-8.3,8.3-8.3l0,0c4.6,0,8.3,3.7,8.3,8.3v0
	C310,194.4,306.3,198.2,301.7,198.2z"/>
<path class="st1" d="M301.7,220.7L301.7,220.7c-4.6,0-8.3-3.7-8.3-8.3v0c0-4.6,3.7-8.3,8.3-8.3l0,0c4.6,0,8.3,3.7,8.3,8.3v0
	C310,217,306.3,220.7,301.7,220.7z"/>
<path class="st1" d="M8.3,62.7L8.3,62.7C3.7,62.7,0,59,0,54.5v0c0-4.6,3.7-8.3,8.3-8.3h0c4.6,0,8.3,3.7,8.3,8.3v0
	C16.6,59,12.8,62.7,8.3,62.7z"/>
<path class="st1" d="M30.9,62.7L30.9,62.7c-4.6,0-8.3-3.7-8.3-8.3v0c0-4.6,3.7-8.3,8.3-8.3h0c4.6,0,8.3,3.7,8.3,8.3v0
	C39.1,59,35.4,62.7,30.9,62.7z"/>
<path class="st1" d="M8.3,288.4L8.3,288.4c-4.6,0-8.3-3.7-8.3-8.3l0,0c0-4.6,3.7-8.3,8.3-8.3h0c4.6,0,8.3,3.7,8.3,8.3l0,0
	C16.6,284.7,12.8,288.4,8.3,288.4z"/>
<path class="st1" d="M30.9,288.4L30.9,288.4c-4.6,0-8.3-3.7-8.3-8.3l0,0c0-4.6,3.7-8.3,8.3-8.3h0c4.6,0,8.3,3.7,8.3,8.3l0,0
	C39.1,284.7,35.4,288.4,30.9,288.4z"/>
<path class="st1" d="M8.3,265.9L8.3,265.9c-4.6,0-8.3-3.7-8.3-8.3v0c0-4.6,3.7-8.3,8.3-8.3h0c4.6,0,8.3,3.7,8.3,8.3v0
	C16.6,262.1,12.8,265.9,8.3,265.9z"/>
<path class="st1" d="M30.9,265.9L30.9,265.9c-4.6,0-8.3-3.7-8.3-8.3v0c0-4.6,3.7-8.3,8.3-8.3h0c4.6,0,8.3,3.7,8.3,8.3v0
	C39.1,262.1,35.4,265.9,30.9,265.9z"/>
<path class="st1" d="M8.3,333.6L8.3,333.6c-4.6,0-8.3-3.7-8.3-8.3v0c0-4.6,3.7-8.3,8.3-8.3h0c4.6,0,8.3,3.7,8.3,8.3v0
	C16.6,329.8,12.9,333.6,8.3,333.6z"/>
<path class="st1" d="M30.9,333.6L30.9,333.6c-4.6,0-8.3-3.7-8.3-8.3v0c0-4.6,3.7-8.3,8.3-8.3h0c4.6,0,8.3,3.7,8.3,8.3v0
	C39.2,329.8,35.4,333.6,30.9,333.6z"/>
<path class="st1" d="M8.3,311L8.3,311c-4.6,0-8.3-3.7-8.3-8.3v0c0-4.6,3.7-8.3,8.3-8.3h0c4.6,0,8.3,3.7,8.3,8.3v0
	C16.6,307.3,12.9,311,8.3,311z"/>
<path class="st1" d="M30.9,311L30.9,311c-4.6,0-8.3-3.7-8.3-8.3v0c0-4.6,3.7-8.3,8.3-8.3h0c4.6,0,8.3,3.7,8.3,8.3v0
	C39.2,307.3,35.4,311,30.9,311z"/>
<path class="st1" d="M8.3,356.1L8.3,356.1c-4.6,0-8.3-3.7-8.3-8.3v0c0-4.6,3.7-8.3,8.3-8.3h0c4.6,0,8.3,3.7,8.3,8.3v0
	C16.6,352.4,12.9,356.1,8.3,356.1z"/>
<path class="st1" d="M30.9,356.1L30.9,356.1c-4.6,0-8.3-3.7-8.3-8.3v0c0-4.6,3.7-8.3,8.3-8.3h0c4.6,0,8.3,3.7,8.3,8.3v0
	C39.2,352.4,35.5,356.1,30.9,356.1z"/>
<path class="st1" d="M8.3,401.3L8.3,401.3c-4.6,0-8.3-3.7-8.3-8.3v0c0-4.6,3.7-8.3,8.3-8.3h0c4.6,0,8.3,3.7,8.3,8.3v0
	C16.6,397.6,12.9,401.3,8.3,401.3z"/>
<path class="st1" d="M30.9,401.3L30.9,401.3c-4.6,0-8.3-3.7-8.3-8.3v0c0-4.6,3.7-8.3,8.3-8.3h0c4.6,0,8.3,3.7,8.3,8.3v0
	C39.2,397.6,35.4,401.3,30.9,401.3z"/>
<path class="st1" d="M8.3,424L8.3,424c-4.6,0-8.3-3.7-8.3-8.3v0c0-4.6,3.7-8.3,8.3-8.3h0c4.6,0,8.3,3.7,8.3,8.3v0
	C16.6,420.3,12.9,424,8.3,424z"/>
<path class="st1" d="M30.9,424L30.9,424c-4.6,0-8.3-3.7-8.3-8.3v0c0-4.6,3.7-8.3,8.3-8.3h0c4.6,0,8.3,3.7,8.3,8.3v0
	C39.2,420.3,35.4,424,30.9,424z"/>
<path class="st1" d="M8.3,378.7L8.3,378.7c-4.6,0-8.3-3.7-8.3-8.3v0c0-4.6,3.7-8.3,8.3-8.3h0c4.6,0,8.3,3.7,8.3,8.3v0
	C16.6,375,12.9,378.7,8.3,378.7z"/>
<path class="st1" d="M30.9,378.7L30.9,378.7c-4.6,0-8.3-3.7-8.3-8.3v0c0-4.6,3.7-8.3,8.3-8.3h0c4.6,0,8.3,3.7,8.3,8.3v0
	C39.2,375,35.4,378.7,30.9,378.7z"/>
<path class="st1" d="M8.3,243.3L8.3,243.3c-4.6,0-8.3-3.7-8.3-8.3v0c0-4.6,3.7-8.3,8.3-8.3h0c4.6,0,8.3,3.7,8.3,8.3v0
	C16.6,239.6,12.8,243.3,8.3,243.3z"/>
<path class="st1" d="M30.9,243.3L30.9,243.3c-4.6,0-8.3-3.7-8.3-8.3v0c0-4.6,3.7-8.3,8.3-8.3h0c4.6,0,8.3,3.7,8.3,8.3v0
	C39.1,239.6,35.4,243.3,30.9,243.3z"/>
<path class="st1" d="M53.4,62.7L53.4,62.7c-4.6,0-8.3-3.7-8.3-8.3v0c0-4.6,3.7-8.3,8.3-8.3h0c4.6,0,8.3,3.7,8.3,8.3v0
	C61.7,59,58,62.7,53.4,62.7z"/>
<path class="st1" d="M76,62.7L76,62.7c-4.6,0-8.3-3.7-8.3-8.3v0c0-4.6,3.7-8.3,8.3-8.3h0c4.6,0,8.3,3.7,8.3,8.3v0
	C84.3,59,80.6,62.7,76,62.7z"/>
<path class="st1" d="M98.6,62.7L98.6,62.7c-4.6,0-8.3-3.7-8.3-8.3v0c0-4.6,3.7-8.3,8.3-8.3h0c4.6,0,8.3,3.7,8.3,8.3v0
	C106.9,59,103.1,62.7,98.6,62.7z"/>
<path class="st1" d="M121.1,62.7L121.1,62.7c-4.6,0-8.3-3.7-8.3-8.3v0c0-4.6,3.7-8.3,8.3-8.3h0c4.6,0,8.3,3.7,8.3,8.3v0
	C129.4,59,125.7,62.7,121.1,62.7z"/>
<path class="st1" d="M143.7,62.7L143.7,62.7c-4.6,0-8.3-3.7-8.3-8.3v0c0-4.6,3.7-8.3,8.3-8.3h0c4.6,0,8.3,3.7,8.3,8.3v0
	C152,59,148.3,62.7,143.7,62.7z"/>
<path class="st1" d="M166.3,62.7L166.3,62.7c-4.6,0-8.3-3.7-8.3-8.3v0c0-4.6,3.7-8.3,8.3-8.3h0c4.6,0,8.3,3.7,8.3,8.3v0
	C174.6,59,170.8,62.7,166.3,62.7z"/>
<path class="st1" d="M188.8,62.7L188.8,62.7c-4.6,0-8.3-3.7-8.3-8.3v0c0-4.6,3.7-8.3,8.3-8.3h0c4.6,0,8.3,3.7,8.3,8.3v0
	C197.1,59,193.4,62.7,188.8,62.7z"/>
<path class="st1" d="M211.4,62.7L211.4,62.7c-4.6,0-8.3-3.7-8.3-8.3v0c0-4.6,3.7-8.3,8.3-8.3h0c4.6,0,8.3,3.7,8.3,8.3v0
	C219.7,59,216,62.7,211.4,62.7z"/>
<path class="st1" d="M234,62.7L234,62.7c-4.6,0-8.3-3.7-8.3-8.3v0c0-4.6,3.7-8.3,8.3-8.3h0c4.6,0,8.3,3.7,8.3,8.3v0
	C242.3,59,238.5,62.7,234,62.7z"/>
<path class="st1" d="M256.6,62.7L256.6,62.7c-4.6,0-8.3-3.7-8.3-8.3v0c0-4.6,3.7-8.3,8.3-8.3h0c4.6,0,8.3,3.7,8.3,8.3v0
	C264.8,59,261.1,62.7,256.6,62.7z"/>
<path class="st1" d="M279.1,62.7L279.1,62.7c-4.6,0-8.3-3.7-8.3-8.3v0c0-4.6,3.7-8.3,8.3-8.3h0c4.6,0,8.3,3.7,8.3,8.3v0
	C287.4,59,283.7,62.7,279.1,62.7z"/>
<path class="st1" d="M301.7,62.7L301.7,62.7c-4.6,0-8.3-3.7-8.3-8.3v0c0-4.6,3.7-8.3,8.3-8.3l0,0c4.6,0,8.3,3.7,8.3,8.3v0
	C310,59,306.3,62.7,301.7,62.7z"/>
<path class="st1" d="M324.3,62.7L324.3,62.7c-4.6,0-8.3-3.7-8.3-8.3v0c0-4.6,3.7-8.3,8.3-8.3l0,0c4.6,0,8.3,3.7,8.3,8.3v0
	C332.6,59,328.8,62.7,324.3,62.7z"/>
<path class="st1" d="M346.8,62.7L346.8,62.7c-4.6,0-8.3-3.7-8.3-8.3v0c0-4.6,3.7-8.3,8.3-8.3h0c4.6,0,8.3,3.7,8.3,8.3v0
	C355.1,59,351.4,62.7,346.8,62.7z"/>
<path class="st1" d="M369.4,85.3L369.4,85.3c-4.6,0-8.3-3.7-8.3-8.3v0c0-4.6,3.7-8.3,8.3-8.3h0c4.6,0,8.3,3.7,8.3,8.3v0
	C377.7,81.6,374,85.3,369.4,85.3z"/>
<path class="st1" d="M392,85.3L392,85.3c-4.6,0-8.3-3.7-8.3-8.3v0c0-4.6,3.7-8.3,8.3-8.3l0,0c4.6,0,8.3,3.7,8.3,8.3v0
	C400.3,81.6,396.5,85.3,392,85.3z"/>
<path class="st1" d="M414.5,85.3L414.5,85.3c-4.6,0-8.3-3.7-8.3-8.3v0c0-4.6,3.7-8.3,8.3-8.3l0,0c4.6,0,8.3,3.7,8.3,8.3v0
	C422.8,81.6,419.1,85.3,414.5,85.3z"/>
<path class="st1" d="M437.1,85.3L437.1,85.3c-4.6,0-8.3-3.7-8.3-8.3v0c0-4.6,3.7-8.3,8.3-8.3h0c4.6,0,8.3,3.7,8.3,8.3v0
	C445.4,81.6,441.7,85.3,437.1,85.3z"/>
<path class="st1" d="M459.7,85.3L459.7,85.3c-4.6,0-8.3-3.7-8.3-8.3v0c0-4.6,3.7-8.3,8.3-8.3h0c4.6,0,8.3,3.7,8.3,8.3v0
	C468,81.6,464.2,85.3,459.7,85.3z"/>
<path class="st1" d="M482.3,85.3L482.3,85.3c-4.6,0-8.3-3.7-8.3-8.3v0c0-4.6,3.7-8.3,8.3-8.3h0c4.6,0,8.3,3.7,8.3,8.3v0
	C490.5,81.6,486.8,85.3,482.3,85.3z"/>
<path class="st1" d="M504.8,85.3L504.8,85.3c-4.6,0-8.3-3.7-8.3-8.3v0c0-4.6,3.7-8.3,8.3-8.3l0,0c4.6,0,8.3,3.7,8.3,8.3v0
	C513.1,81.6,509.4,85.3,504.8,85.3z"/>
<path class="st1" d="M527.4,85.3L527.4,85.3c-4.6,0-8.3-3.7-8.3-8.3v0c0-4.6,3.7-8.3,8.3-8.3l0,0c4.6,0,8.3,3.7,8.3,8.3v0
	C535.7,81.6,532,85.3,527.4,85.3z"/>
<path class="st1" d="M369.4,62.7L369.4,62.7c-4.6,0-8.3-3.7-8.3-8.3v0c0-4.6,3.7-8.3,8.3-8.3h0c4.6,0,8.3,3.7,8.3,8.3v0
	C377.7,59,374,62.7,369.4,62.7z"/>
<path class="st1" d="M392,62.7L392,62.7c-4.6,0-8.3-3.7-8.3-8.3v0c0-4.6,3.7-8.3,8.3-8.3l0,0c4.6,0,8.3,3.7,8.3,8.3v0
	C400.3,59,396.5,62.7,392,62.7z"/>
<path class="st1" d="M414.5,62.7L414.5,62.7c-4.6,0-8.3-3.7-8.3-8.3v0c0-4.6,3.7-8.3,8.3-8.3l0,0c4.6,0,8.3,3.7,8.3,8.3v0
	C422.8,59,419.1,62.7,414.5,62.7z"/>
<path class="st1" d="M437.1,62.7L437.1,62.7c-4.6,0-8.3-3.7-8.3-8.3v0c0-4.6,3.7-8.3,8.3-8.3h0c4.6,0,8.3,3.7,8.3,8.3v0
	C445.4,59,441.7,62.7,437.1,62.7z"/>
<path class="st1" d="M459.7,62.7L459.7,62.7c-4.6,0-8.3-3.7-8.3-8.3v0c0-4.6,3.7-8.3,8.3-8.3h0c4.6,0,8.3,3.7,8.3,8.3v0
	C468,59,464.2,62.7,459.7,62.7z"/>
<path class="st1" d="M482.3,62.7L482.3,62.7c-4.6,0-8.3-3.7-8.3-8.3v0c0-4.6,3.7-8.3,8.3-8.3h0c4.6,0,8.3,3.7,8.3,8.3v0
	C490.5,59,486.8,62.7,482.3,62.7z"/>
<path class="st1" d="M504.8,62.7L504.8,62.7c-4.6,0-8.3-3.7-8.3-8.3v0c0-4.6,3.7-8.3,8.3-8.3l0,0c4.6,0,8.3,3.7,8.3,8.3v0
	C513.1,59,509.4,62.7,504.8,62.7z"/>
<path class="st1" d="M527.4,62.7L527.4,62.7c-4.6,0-8.3-3.7-8.3-8.3v0c0-4.6,3.7-8.3,8.3-8.3l0,0c4.6,0,8.3,3.7,8.3,8.3v0
	C535.7,59,532,62.7,527.4,62.7z"/>
<path class="st1" d="M550,62.7L550,62.7c-4.6,0-8.3-3.7-8.3-8.3v0c0-4.6,3.7-8.3,8.3-8.3l0,0c4.6,0,8.3,3.7,8.3,8.3v0
	C558.3,59,554.5,62.7,550,62.7z"/>
<path class="st1" d="M346.8,130.4L346.8,130.4c-4.6,0-8.3-3.7-8.3-8.3v0c0-4.6,3.7-8.3,8.3-8.3h0c4.6,0,8.3,3.7,8.3,8.3v0
	C355.1,126.7,351.4,130.4,346.8,130.4z"/>
<path class="st1" d="M346.8,107.9L346.8,107.9c-4.6,0-8.3-3.7-8.3-8.3v0c0-4.6,3.7-8.3,8.3-8.3h0c4.6,0,8.3,3.7,8.3,8.3v0
	C355.1,104.2,351.4,107.9,346.8,107.9z"/>
<path class="st1" d="M369.4,130.4L369.4,130.4c-4.6,0-8.3-3.7-8.3-8.3v0c0-4.6,3.7-8.3,8.3-8.3h0c4.6,0,8.3,3.7,8.3,8.3v0
	C377.7,126.7,374,130.4,369.4,130.4z"/>
<path class="st1" d="M392,130.4L392,130.4c-4.6,0-8.3-3.7-8.3-8.3v0c0-4.6,3.7-8.3,8.3-8.3l0,0c4.6,0,8.3,3.7,8.3,8.3v0
	C400.3,126.7,396.5,130.4,392,130.4z"/>
<path class="st1" d="M414.5,130.4L414.5,130.4c-4.6,0-8.3-3.7-8.3-8.3v0c0-4.6,3.7-8.3,8.3-8.3l0,0c4.6,0,8.3,3.7,8.3,8.3v0
	C422.8,126.7,419.1,130.4,414.5,130.4z"/>
<path class="st1" d="M437.1,130.4L437.1,130.4c-4.6,0-8.3-3.7-8.3-8.3v0c0-4.6,3.7-8.3,8.3-8.3h0c4.6,0,8.3,3.7,8.3,8.3v0
	C445.4,126.7,441.7,130.4,437.1,130.4z"/>
<path class="st1" d="M459.7,130.4L459.7,130.4c-4.6,0-8.3-3.7-8.3-8.3v0c0-4.6,3.7-8.3,8.3-8.3h0c4.6,0,8.3,3.7,8.3,8.3v0
	C468,126.7,464.2,130.4,459.7,130.4z"/>
<path class="st1" d="M482.3,130.4L482.3,130.4c-4.6,0-8.3-3.7-8.3-8.3v0c0-4.6,3.7-8.3,8.3-8.3h0c4.6,0,8.3,3.7,8.3,8.3v0
	C490.5,126.7,486.8,130.4,482.3,130.4z"/>
<path class="st1" d="M504.8,130.4L504.8,130.4c-4.6,0-8.3-3.7-8.3-8.3v0c0-4.6,3.7-8.3,8.3-8.3l0,0c4.6,0,8.3,3.7,8.3,8.3v0
	C513.1,126.7,509.4,130.4,504.8,130.4z"/>
<path class="st1" d="M369.4,107.9L369.4,107.9c-4.6,0-8.3-3.7-8.3-8.3v0c0-4.6,3.7-8.3,8.3-8.3h0c4.6,0,8.3,3.7,8.3,8.3v0
	C377.7,104.2,374,107.9,369.4,107.9z"/>
<path class="st1" d="M392,107.9L392,107.9c-4.6,0-8.3-3.7-8.3-8.3v0c0-4.6,3.7-8.3,8.3-8.3l0,0c4.6,0,8.3,3.7,8.3,8.3v0
	C400.3,104.2,396.5,107.9,392,107.9z"/>
<path class="st1" d="M414.5,107.9L414.5,107.9c-4.6,0-8.3-3.7-8.3-8.3v0c0-4.6,3.7-8.3,8.3-8.3l0,0c4.6,0,8.3,3.7,8.3,8.3v0
	C422.8,104.2,419.1,107.9,414.5,107.9z"/>
<path class="st1" d="M437.1,107.9L437.1,107.9c-4.6,0-8.3-3.7-8.3-8.3v0c0-4.6,3.7-8.3,8.3-8.3h0c4.6,0,8.3,3.7,8.3,8.3v0
	C445.4,104.2,441.7,107.9,437.1,107.9z"/>
<path class="st1" d="M459.7,107.9L459.7,107.9c-4.6,0-8.3-3.7-8.3-8.3v0c0-4.6,3.7-8.3,8.3-8.3h0c4.6,0,8.3,3.7,8.3,8.3v0
	C468,104.2,464.2,107.9,459.7,107.9z"/>
<path class="st1" d="M482.3,107.9L482.3,107.9c-4.6,0-8.3-3.7-8.3-8.3v0c0-4.6,3.7-8.3,8.3-8.3h0c4.6,0,8.3,3.7,8.3,8.3v0
	C490.5,104.2,486.8,107.9,482.3,107.9z"/>
<path class="st1" d="M504.8,107.9L504.8,107.9c-4.6,0-8.3-3.7-8.3-8.3v0c0-4.6,3.7-8.3,8.3-8.3l0,0c4.6,0,8.3,3.7,8.3,8.3v0
	C513.1,104.2,509.4,107.9,504.8,107.9z"/>
<path class="st1" d="M527.4,107.9L527.4,107.9c-4.6,0-8.3-3.7-8.3-8.3v0c0-4.6,3.7-8.3,8.3-8.3l0,0c4.6,0,8.3,3.7,8.3,8.3v0
	C535.7,104.2,532,107.9,527.4,107.9z"/>
<path class="st1" d="M324.3,198.2L324.3,198.2c-4.6,0-8.3-3.7-8.3-8.3v0c0-4.6,3.7-8.3,8.3-8.3l0,0c4.6,0,8.3,3.7,8.3,8.3v0
	C332.6,194.4,328.8,198.2,324.3,198.2z"/>
<path class="st1" d="M324.3,175.6L324.3,175.6c-4.6,0-8.3-3.7-8.3-8.3v0c0-4.6,3.7-8.3,8.3-8.3l0,0c4.6,0,8.3,3.7,8.3,8.3v0
	C332.6,171.9,328.8,175.6,324.3,175.6z"/>
<path class="st1" d="M346.8,175.6L346.8,175.6c-4.6,0-8.3-3.7-8.3-8.3v0c0-4.6,3.7-8.3,8.3-8.3h0c4.6,0,8.3,3.7,8.3,8.3v0
	C355.1,171.9,351.4,175.6,346.8,175.6z"/>
<path class="st1" d="M324.3,220.7L324.3,220.7c-4.6,0-8.3-3.7-8.3-8.3v0c0-4.6,3.7-8.3,8.3-8.3h0c4.6,0,8.3,3.7,8.3,8.3v0
	C332.6,217,328.9,220.7,324.3,220.7z"/>
<path class="st1" d="M324.3,153L324.3,153c-4.6,0-8.3-3.7-8.3-8.3v0c0-4.6,3.7-8.3,8.3-8.3l0,0c4.6,0,8.3,3.7,8.3,8.3v0
	C332.6,149.3,328.8,153,324.3,153z"/>
<path class="st1" d="M346.8,153L346.8,153c-4.6,0-8.3-3.7-8.3-8.3v0c0-4.6,3.7-8.3,8.3-8.3h0c4.6,0,8.3,3.7,8.3,8.3v0
	C355.1,149.3,351.4,153,346.8,153z"/>
<path class="st1" d="M369.4,175.6L369.4,175.6c-4.6,0-8.3-3.7-8.3-8.3v0c0-4.6,3.7-8.3,8.3-8.3h0c4.6,0,8.3,3.7,8.3,8.3v0
	C377.7,171.9,374,175.6,369.4,175.6z"/>
<path class="st1" d="M392,175.6L392,175.6c-4.6,0-8.3-3.7-8.3-8.3v0c0-4.6,3.7-8.3,8.3-8.3l0,0c4.6,0,8.3,3.7,8.3,8.3v0
	C400.3,171.9,396.5,175.6,392,175.6z"/>
<path class="st1" d="M414.5,175.6L414.5,175.6c-4.6,0-8.3-3.7-8.3-8.3v0c0-4.6,3.7-8.3,8.3-8.3l0,0c4.6,0,8.3,3.7,8.3,8.3v0
	C422.8,171.9,419.1,175.6,414.5,175.6z"/>
<path class="st1" d="M437.1,175.6L437.1,175.6c-4.6,0-8.3-3.7-8.3-8.3v0c0-4.6,3.7-8.3,8.3-8.3h0c4.6,0,8.3,3.7,8.3,8.3v0
	C445.4,171.9,441.7,175.6,437.1,175.6z"/>
<path class="st1" d="M459.7,175.6L459.7,175.6c-4.6,0-8.3-3.7-8.3-8.3v0c0-4.6,3.7-8.3,8.3-8.3h0c4.6,0,8.3,3.7,8.3,8.3v0
	C468,171.9,464.2,175.6,459.7,175.6z"/>
<path class="st1" d="M482.3,175.6L482.3,175.6c-4.6,0-8.3-3.7-8.3-8.3v0c0-4.6,3.7-8.3,8.3-8.3h0c4.6,0,8.3,3.7,8.3,8.3v0
	C490.5,171.9,486.8,175.6,482.3,175.6z"/>
<path class="st1" d="M369.4,153L369.4,153c-4.6,0-8.3-3.7-8.3-8.3v0c0-4.6,3.7-8.3,8.3-8.3h0c4.6,0,8.3,3.7,8.3,8.3v0
	C377.7,149.3,374,153,369.4,153z"/>
<path class="st1" d="M392,153L392,153c-4.6,0-8.3-3.7-8.3-8.3v0c0-4.6,3.7-8.3,8.3-8.3l0,0c4.6,0,8.3,3.7,8.3,8.3v0
	C400.3,149.3,396.5,153,392,153z"/>
<path class="st1" d="M414.5,153L414.5,153c-4.6,0-8.3-3.7-8.3-8.3v0c0-4.6,3.7-8.3,8.3-8.3l0,0c4.6,0,8.3,3.7,8.3,8.3v0
	C422.8,149.3,419.1,153,414.5,153z"/>
<path class="st1" d="M437.1,153L437.1,153c-4.6,0-8.3-3.7-8.3-8.3v0c0-4.6,3.7-8.3,8.3-8.3h0c4.6,0,8.3,3.7,8.3,8.3v0
	C445.4,149.3,441.7,153,437.1,153z"/>
<path class="st1" d="M459.7,153L459.7,153c-4.6,0-8.3-3.7-8.3-8.3v0c0-4.6,3.7-8.3,8.3-8.3h0c4.6,0,8.3,3.7,8.3,8.3v0
	C468,149.3,464.2,153,459.7,153z"/>
<path class="st1" d="M482.3,153L482.3,153c-4.6,0-8.3-3.7-8.3-8.3v0c0-4.6,3.7-8.3,8.3-8.3h0c4.6,0,8.3,3.7,8.3,8.3v0
	C490.5,149.3,486.8,153,482.3,153z"/>
<path class="st1" d="M504.8,153L504.8,153c-4.6,0-8.3-3.7-8.3-8.3v0c0-4.6,3.7-8.3,8.3-8.3l0,0c4.6,0,8.3,3.7,8.3,8.3v0
	C513.1,149.3,509.4,153,504.8,153z"/>
<path class="st1" d="M346.8,220.7L346.8,220.7c-4.6,0-8.3-3.7-8.3-8.3v0c0-4.6,3.7-8.3,8.3-8.3h0c4.6,0,8.3,3.7,8.3,8.3v0
	C355.1,217,351.4,220.7,346.8,220.7z"/>
<path class="st1" d="M346.8,198.2L346.8,198.2c-4.6,0-8.3-3.7-8.3-8.3v0c0-4.6,3.7-8.3,8.3-8.3h0c4.6,0,8.3,3.7,8.3,8.3v0
	C355.1,194.4,351.4,198.2,346.8,198.2z"/>
<path class="st1" d="M369.4,220.7L369.4,220.7c-4.6,0-8.3-3.7-8.3-8.3v0c0-4.6,3.7-8.3,8.3-8.3h0c4.6,0,8.3,3.7,8.3,8.3v0
	C377.7,217,374,220.7,369.4,220.7z"/>
<path class="st1" d="M392,220.7L392,220.7c-4.6,0-8.3-3.7-8.3-8.3v0c0-4.6,3.7-8.3,8.3-8.3l0,0c4.6,0,8.3,3.7,8.3,8.3v0
	C400.3,217,396.5,220.7,392,220.7z"/>
<path class="st1" d="M414.5,220.7L414.5,220.7c-4.6,0-8.3-3.7-8.3-8.3v0c0-4.6,3.7-8.3,8.3-8.3l0,0c4.6,0,8.3,3.7,8.3,8.3v0
	C422.8,217,419.1,220.7,414.5,220.7z"/>
<path class="st1" d="M437.1,220.7L437.1,220.7c-4.6,0-8.3-3.7-8.3-8.3v0c0-4.6,3.7-8.3,8.3-8.3h0c4.6,0,8.3,3.7,8.3,8.3v0
	C445.4,217,441.7,220.7,437.1,220.7z"/>
<path class="st1" d="M459.7,220.7L459.7,220.7c-4.6,0-8.3-3.7-8.3-8.3v0c0-4.6,3.7-8.3,8.3-8.3h0c4.6,0,8.3,3.7,8.3,8.3v0
	C468,217,464.2,220.7,459.7,220.7z"/>
<path class="st1" d="M369.4,198.2L369.4,198.2c-4.6,0-8.3-3.7-8.3-8.3v0c0-4.6,3.7-8.3,8.3-8.3h0c4.6,0,8.3,3.7,8.3,8.3v0
	C377.7,194.4,374,198.2,369.4,198.2z"/>
<path class="st1" d="M392,198.2L392,198.2c-4.6,0-8.3-3.7-8.3-8.3v0c0-4.6,3.7-8.3,8.3-8.3l0,0c4.6,0,8.3,3.7,8.3,8.3v0
	C400.3,194.4,396.5,198.2,392,198.2z"/>
<path class="st1" d="M414.5,198.2L414.5,198.2c-4.6,0-8.3-3.7-8.3-8.3v0c0-4.6,3.7-8.3,8.3-8.3l0,0c4.6,0,8.3,3.7,8.3,8.3v0
	C422.8,194.4,419.1,198.2,414.5,198.2z"/>
<path class="st1" d="M437.1,198.2L437.1,198.2c-4.6,0-8.3-3.7-8.3-8.3v0c0-4.6,3.7-8.3,8.3-8.3h0c4.6,0,8.3,3.7,8.3,8.3v0
	C445.4,194.4,441.7,198.2,437.1,198.2z"/>
<path class="st1" d="M459.7,198.2L459.7,198.2c-4.6,0-8.3-3.7-8.3-8.3v0c0-4.6,3.7-8.3,8.3-8.3h0c4.6,0,8.3,3.7,8.3,8.3v0
	C468,194.4,464.2,198.2,459.7,198.2z"/>
<path class="st1" d="M279.2,265.9L279.2,265.9c-4.6,0-8.3-3.7-8.3-8.3l0,0c0-4.6,3.7-8.3,8.3-8.3l0,0c4.6,0,8.3,3.7,8.3,8.3l0,0
	C287.5,262.2,283.7,265.9,279.2,265.9z"/>
<path class="st1" d="M279.2,243.3L279.2,243.3c-4.6,0-8.3-3.7-8.3-8.3v0c0-4.6,3.7-8.3,8.3-8.3l0,0c4.6,0,8.3,3.7,8.3,8.3v0
	C287.5,239.6,283.7,243.3,279.2,243.3z"/>
<path class="st1" d="M301.7,243.3L301.7,243.3c-4.6,0-8.3-3.7-8.3-8.3v0c0-4.6,3.7-8.3,8.3-8.3l0,0c4.6,0,8.3,3.7,8.3,8.3v0
	C310,239.6,306.3,243.3,301.7,243.3z"/>
<path class="st1" d="M301.7,265.9L301.7,265.9c-4.6,0-8.3-3.7-8.3-8.3l0,0c0-4.6,3.7-8.3,8.3-8.3l0,0c4.6,0,8.3,3.7,8.3,8.3l0,0
	C310,262.2,306.3,265.9,301.7,265.9z"/>
<path class="st1" d="M324.3,243.3L324.3,243.3c-4.6,0-8.3-3.7-8.3-8.3v0c0-4.6,3.7-8.3,8.3-8.3l0,0c4.6,0,8.3,3.7,8.3,8.3v0
	C332.6,239.6,328.8,243.3,324.3,243.3z"/>
<path class="st1" d="M324.3,265.9L324.3,265.9c-4.6,0-8.3-3.7-8.3-8.3l0,0c0-4.6,3.7-8.3,8.3-8.3h0c4.6,0,8.3,3.7,8.3,8.3l0,0
	C332.6,262.2,328.9,265.9,324.3,265.9z"/>
<path class="st1" d="M346.8,265.9L346.8,265.9c-4.6,0-8.3-3.7-8.3-8.3l0,0c0-4.6,3.7-8.3,8.3-8.3h0c4.6,0,8.3,3.7,8.3,8.3l0,0
	C355.1,262.2,351.4,265.9,346.8,265.9z"/>
<path class="st1" d="M346.8,243.3L346.8,243.3c-4.6,0-8.3-3.7-8.3-8.3v0c0-4.6,3.7-8.3,8.3-8.3h0c4.6,0,8.3,3.7,8.3,8.3v0
	C355.1,239.6,351.4,243.3,346.8,243.3z"/>
<path class="st1" d="M369.4,265.9L369.4,265.9c-4.6,0-8.3-3.7-8.3-8.3l0,0c0-4.6,3.7-8.3,8.3-8.3h0c4.6,0,8.3,3.7,8.3,8.3l0,0
	C377.7,262.2,374,265.9,369.4,265.9z"/>
<path class="st1" d="M392,265.9L392,265.9c-4.6,0-8.3-3.7-8.3-8.3l0,0c0-4.6,3.7-8.3,8.3-8.3l0,0c4.6,0,8.3,3.7,8.3,8.3l0,0
	C400.3,262.2,396.5,265.9,392,265.9z"/>
<path class="st1" d="M414.5,265.9L414.5,265.9c-4.6,0-8.3-3.7-8.3-8.3l0,0c0-4.6,3.7-8.3,8.3-8.3l0,0c4.6,0,8.3,3.7,8.3,8.3l0,0
	C422.8,262.2,419.1,265.9,414.5,265.9z"/>
<path class="st1" d="M369.4,243.3L369.4,243.3c-4.6,0-8.3-3.7-8.3-8.3v0c0-4.6,3.7-8.3,8.3-8.3h0c4.6,0,8.3,3.7,8.3,8.3v0
	C377.7,239.6,374,243.3,369.4,243.3z"/>
<path class="st1" d="M392,243.3L392,243.3c-4.6,0-8.3-3.7-8.3-8.3v0c0-4.6,3.7-8.3,8.3-8.3l0,0c4.6,0,8.3,3.7,8.3,8.3v0
	C400.3,239.6,396.5,243.3,392,243.3z"/>
<path class="st1" d="M414.5,243.3L414.5,243.3c-4.6,0-8.3-3.7-8.3-8.3v0c0-4.6,3.7-8.3,8.3-8.3l0,0c4.6,0,8.3,3.7,8.3,8.3v0
	C422.8,239.6,419.1,243.3,414.5,243.3z"/>
<path class="st1" d="M437.1,243.3L437.1,243.3c-4.6,0-8.3-3.7-8.3-8.3v0c0-4.6,3.7-8.3,8.3-8.3h0c4.6,0,8.3,3.7,8.3,8.3v0
	C445.4,239.6,441.7,243.3,437.1,243.3z"/>
<path class="st1" d="M256.6,311L256.6,311c-4.6,0-8.3-3.7-8.3-8.3v0c0-4.6,3.7-8.3,8.3-8.3h0c4.6,0,8.3,3.7,8.3,8.3v0
	C264.8,307.3,261.1,311,256.6,311z"/>
<path class="st1" d="M279.1,311L279.1,311c-4.6,0-8.3-3.7-8.3-8.3v0c0-4.6,3.7-8.3,8.3-8.3h0c4.6,0,8.3,3.7,8.3,8.3v0
	C287.4,307.3,283.7,311,279.1,311z"/>
<path class="st1" d="M301.7,311L301.7,311c-4.6,0-8.3-3.7-8.3-8.3v0c0-4.6,3.7-8.3,8.3-8.3l0,0c4.6,0,8.3,3.7,8.3,8.3v0
	C310,307.3,306.3,311,301.7,311z"/>
<path class="st1" d="M324.3,311L324.3,311c-4.6,0-8.3-3.7-8.3-8.3v0c0-4.6,3.7-8.3,8.3-8.3l0,0c4.6,0,8.3,3.7,8.3,8.3v0
	C332.6,307.3,328.8,311,324.3,311z"/>
<path class="st1" d="M256.6,288.5L256.6,288.5c-4.6,0-8.3-3.7-8.3-8.3v0c0-4.6,3.7-8.3,8.3-8.3h0c4.6,0,8.3,3.7,8.3,8.3v0
	C264.8,284.7,261.1,288.5,256.6,288.5z"/>
<path class="st1" d="M279.1,288.5L279.1,288.5c-4.6,0-8.3-3.7-8.3-8.3v0c0-4.6,3.7-8.3,8.3-8.3h0c4.6,0,8.3,3.7,8.3,8.3v0
	C287.4,284.7,283.7,288.5,279.1,288.5z"/>
<path class="st1" d="M301.7,288.5L301.7,288.5c-4.6,0-8.3-3.7-8.3-8.3v0c0-4.6,3.7-8.3,8.3-8.3l0,0c4.6,0,8.3,3.7,8.3,8.3v0
	C310,284.7,306.3,288.5,301.7,288.5z"/>
<path class="st1" d="M324.3,288.5L324.3,288.5c-4.6,0-8.3-3.7-8.3-8.3v0c0-4.6,3.7-8.3,8.3-8.3l0,0c4.6,0,8.3,3.7,8.3,8.3v0
	C332.6,284.7,328.8,288.5,324.3,288.5z"/>
<path class="st1" d="M346.8,288.5L346.8,288.5c-4.6,0-8.3-3.7-8.3-8.3v0c0-4.6,3.7-8.3,8.3-8.3h0c4.6,0,8.3,3.7,8.3,8.3v0
	C355.1,284.7,351.4,288.5,346.8,288.5z"/>
<path class="st1" d="M256.6,356.2L256.6,356.2c-4.6,0-8.3-3.7-8.3-8.3l0,0c0-4.6,3.7-8.3,8.3-8.3l0,0c4.6,0,8.3,3.7,8.3,8.3l0,0
	C264.9,352.4,261.1,356.2,256.6,356.2z"/>
<path class="st1" d="M279.2,356.2L279.2,356.2c-4.6,0-8.3-3.7-8.3-8.3l0,0c0-4.6,3.7-8.3,8.3-8.3l0,0c4.6,0,8.3,3.7,8.3,8.3l0,0
	C287.4,352.4,283.7,356.2,279.2,356.2z"/>
<path class="st1" d="M301.7,356.2L301.7,356.2c-4.6,0-8.3-3.7-8.3-8.3l0,0c0-4.6,3.7-8.3,8.3-8.3h0c4.6,0,8.3,3.7,8.3,8.3l0,0
	C310,352.4,306.3,356.2,301.7,356.2z"/>
<path class="st1" d="M256.6,333.6L256.6,333.6c-4.6,0-8.3-3.7-8.3-8.3l0,0c0-4.6,3.7-8.3,8.3-8.3l0,0c4.6,0,8.3,3.7,8.3,8.3l0,0
	C264.9,329.9,261.1,333.6,256.6,333.6z"/>
<path class="st1" d="M279.2,333.6L279.2,333.6c-4.6,0-8.3-3.7-8.3-8.3l0,0c0-4.6,3.7-8.3,8.3-8.3l0,0c4.6,0,8.3,3.7,8.3,8.3l0,0
	C287.4,329.9,283.7,333.6,279.2,333.6z"/>
<path class="st1" d="M301.7,333.6L301.7,333.6c-4.6,0-8.3-3.7-8.3-8.3l0,0c0-4.6,3.7-8.3,8.3-8.3h0c4.6,0,8.3,3.7,8.3,8.3l0,0
	C310,329.9,306.3,333.6,301.7,333.6z"/>
<path class="st1" d="M324.3,333.6L324.3,333.6c-4.6,0-8.3-3.7-8.3-8.3l0,0c0-4.6,3.7-8.3,8.3-8.3h0c4.6,0,8.3,3.7,8.3,8.3l0,0
	C332.6,329.9,328.9,333.6,324.3,333.6z"/>
<path class="st1" d="M256.6,378.7L256.6,378.7c-4.6,0-8.3-3.7-8.3-8.3l0,0c0-4.6,3.7-8.3,8.3-8.3l0,0c4.6,0,8.3,3.7,8.3,8.3l0,0
	C264.9,375,261.2,378.7,256.6,378.7z"/>
<path class="st1" d="M256.6,423.9L256.6,423.9c-4.6,0-8.3-3.7-8.3-8.3l0,0c0-4.6,3.7-8.3,8.3-8.3h0c4.6,0,8.3,3.7,8.3,8.3l0,0
	C264.9,420.1,261.1,423.9,256.6,423.9z"/>
<path class="st1" d="M256.6,401.3L256.6,401.3c-4.6,0-8.3-3.7-8.3-8.3l0,0c0-4.6,3.7-8.3,8.3-8.3h0c4.6,0,8.3,3.7,8.3,8.3l0,0
	C264.9,397.6,261.1,401.3,256.6,401.3z"/>
<path class="st1" d="M256.6,446.4L256.6,446.4c-4.6,0-8.3-3.7-8.3-8.3v0c0-4.6,3.7-8.3,8.3-8.3l0,0c4.6,0,8.3,3.7,8.3,8.3v0
	C264.9,442.7,261.2,446.4,256.6,446.4z"/>
<path class="st1" d="M234,356.2L234,356.2c-4.6,0-8.3-3.7-8.3-8.3l0,0c0-4.6,3.7-8.3,8.3-8.3h0c4.6,0,8.3,3.7,8.3,8.3l0,0
	C242.3,352.4,238.5,356.2,234,356.2z"/>
<path class="st1" d="M234,333.6L234,333.6c-4.6,0-8.3-3.7-8.3-8.3l0,0c0-4.6,3.7-8.3,8.3-8.3h0c4.6,0,8.3,3.7,8.3,8.3l0,0
	C242.3,329.9,238.5,333.6,234,333.6z"/>
<path class="st1" d="M234,378.7L234,378.7c-4.6,0-8.3-3.7-8.3-8.3l0,0c0-4.6,3.7-8.3,8.3-8.3h0c4.6,0,8.3,3.7,8.3,8.3l0,0
	C242.3,375,238.6,378.7,234,378.7z"/>
<path class="st1" d="M234,423.9L234,423.9c-4.6,0-8.3-3.7-8.3-8.3l0,0c0-4.6,3.7-8.3,8.3-8.3h0c4.6,0,8.3,3.7,8.3,8.3l0,0
	C242.3,420.1,238.5,423.9,234,423.9z"/>
<path class="st1" d="M234,401.3L234,401.3c-4.6,0-8.3-3.7-8.3-8.3l0,0c0-4.6,3.7-8.3,8.3-8.3h0c4.6,0,8.3,3.7,8.3,8.3l0,0
	C242.3,397.6,238.5,401.3,234,401.3z"/>
<path class="st1" d="M234,446.4L234,446.4c-4.6,0-8.3-3.7-8.3-8.3v0c0-4.6,3.7-8.3,8.3-8.3h0c4.6,0,8.3,3.7,8.3,8.3v0
	C242.3,442.7,238.6,446.4,234,446.4z"/>
<path class="st1" d="M279.2,378.7L279.2,378.7c-4.6,0-8.3-3.7-8.3-8.3l0,0c0-4.6,3.7-8.3,8.3-8.3h0c4.6,0,8.3,3.7,8.3,8.3l0,0
	C287.5,375,283.8,378.7,279.2,378.7z"/>
<path class="st1" d="M279.2,423.9L279.2,423.9c-4.6,0-8.3-3.7-8.3-8.3l0,0c0-4.6,3.7-8.3,8.3-8.3l0,0c4.6,0,8.3,3.7,8.3,8.3l0,0
	C287.5,420.1,283.7,423.9,279.2,423.9z"/>
<path class="st1" d="M279.2,401.3L279.2,401.3c-4.6,0-8.3-3.7-8.3-8.3l0,0c0-4.6,3.7-8.3,8.3-8.3l0,0c4.6,0,8.3,3.7,8.3,8.3l0,0
	C287.5,397.6,283.7,401.3,279.2,401.3z"/>
<path class="st1" d="M301.7,378.7L301.7,378.7c-4.6,0-8.3-3.7-8.3-8.3l0,0c0-4.6,3.7-8.3,8.3-8.3l0,0c4.6,0,8.3,3.7,8.3,8.3l0,0
	C310,375,306.3,378.7,301.7,378.7z"/>
<path class="st1" d="M301.7,401.3L301.7,401.3c-4.6,0-8.3-3.7-8.3-8.3l0,0c0-4.6,3.7-8.3,8.3-8.3l0,0c4.6,0,8.3,3.7,8.3,8.3l0,0
	C310,397.6,306.3,401.3,301.7,401.3z"/>
<path class="st1" d="M301.7,423.9L301.7,423.9c-4.6,0-8.3-3.7-8.3-8.3l0,0c0-4.6,3.7-8.3,8.3-8.3l0,0c4.6,0,8.3,3.7,8.3,8.3l0,0
	C310,420.2,306.3,423.9,301.7,423.9z"/>
<path class="st1" d="M369.4,288.5L369.4,288.5c-4.6,0-8.3-3.7-8.3-8.3v0c0-4.6,3.7-8.3,8.3-8.3h0c4.6,0,8.3,3.7,8.3,8.3v0
	C377.7,284.7,374,288.5,369.4,288.5z"/>
<path class="st1" d="M392,288.5L392,288.5c-4.6,0-8.3-3.7-8.3-8.3v0c0-4.6,3.7-8.3,8.3-8.3l0,0c4.6,0,8.3,3.7,8.3,8.3v0
	C400.3,284.7,396.5,288.5,392,288.5z"/>
<path class="st1" d="M414.5,288.5L414.5,288.5c-4.6,0-8.3-3.7-8.3-8.3v0c0-4.6,3.7-8.3,8.3-8.3l0,0c4.6,0,8.3,3.7,8.3,8.3v0
	C422.8,284.7,419.1,288.5,414.5,288.5z"/>
<path class="st1" d="M346.8,333.6L346.8,333.6c-4.6,0-8.3-3.7-8.3-8.3l0,0c0-4.6,3.7-8.3,8.3-8.3h0c4.6,0,8.3,3.7,8.3,8.3l0,0
	C355.1,329.9,351.4,333.6,346.8,333.6z"/>
<path class="st1" d="M346.8,311L346.8,311c-4.6,0-8.3-3.7-8.3-8.3v0c0-4.6,3.7-8.3,8.3-8.3h0c4.6,0,8.3,3.7,8.3,8.3v0
	C355.1,307.3,351.4,311,346.8,311z"/>
<path class="st1" d="M369.4,333.6L369.4,333.6c-4.6,0-8.3-3.7-8.3-8.3l0,0c0-4.6,3.7-8.3,8.3-8.3h0c4.6,0,8.3,3.7,8.3,8.3l0,0
	C377.7,329.9,374,333.6,369.4,333.6z"/>
<path class="st1" d="M392,333.6L392,333.6c-4.6,0-8.3-3.7-8.3-8.3l0,0c0-4.6,3.7-8.3,8.3-8.3l0,0c4.6,0,8.3,3.7,8.3,8.3l0,0
	C400.3,329.9,396.5,333.6,392,333.6z"/>
<path class="st1" d="M369.4,311L369.4,311c-4.6,0-8.3-3.7-8.3-8.3v0c0-4.6,3.7-8.3,8.3-8.3h0c4.6,0,8.3,3.7,8.3,8.3v0
	C377.7,307.3,374,311,369.4,311z"/>
<path class="st1" d="M392,311L392,311c-4.6,0-8.3-3.7-8.3-8.3v0c0-4.6,3.7-8.3,8.3-8.3l0,0c4.6,0,8.3,3.7,8.3,8.3v0
	C400.3,307.3,396.5,311,392,311z"/>
<path class="st1" d="M324.3,401.3L324.3,401.3c-4.6,0-8.3-3.7-8.3-8.3v0c0-4.6,3.7-8.3,8.3-8.3l0,0c4.6,0,8.3,3.7,8.3,8.3v0
	C332.6,397.6,328.8,401.3,324.3,401.3z"/>
<path class="st1" d="M324.3,378.7L324.3,378.7c-4.6,0-8.3-3.7-8.3-8.3v0c0-4.6,3.7-8.3,8.3-8.3l0,0c4.6,0,8.3,3.7,8.3,8.3v0
	C332.6,375,328.8,378.7,324.3,378.7z"/>
<path class="st1" d="M346.8,378.7L346.8,378.7c-4.6,0-8.3-3.7-8.3-8.3v0c0-4.6,3.7-8.3,8.3-8.3h0c4.6,0,8.3,3.7,8.3,8.3v0
	C355.1,375,351.4,378.7,346.8,378.7z"/>
<path class="st1" d="M324.3,423.9L324.3,423.9c-4.6,0-8.3-3.7-8.3-8.3l0,0c0-4.6,3.7-8.3,8.3-8.3h0c4.6,0,8.3,3.7,8.3,8.3l0,0
	C332.6,420.2,328.9,423.9,324.3,423.9z"/>
<path class="st1" d="M324.3,356.2L324.3,356.2c-4.6,0-8.3-3.7-8.3-8.3l0,0c0-4.6,3.7-8.3,8.3-8.3l0,0c4.6,0,8.3,3.7,8.3,8.3l0,0
	C332.6,352.4,328.8,356.2,324.3,356.2z"/>
<path class="st1" d="M346.8,356.2L346.8,356.2c-4.6,0-8.3-3.7-8.3-8.3l0,0c0-4.6,3.7-8.3,8.3-8.3h0c4.6,0,8.3,3.7,8.3,8.3l0,0
	C355.1,352.4,351.4,356.2,346.8,356.2z"/>
<path class="st1" d="M369.4,356.2L369.4,356.2c-4.6,0-8.3-3.7-8.3-8.3l0,0c0-4.6,3.7-8.3,8.3-8.3h0c4.6,0,8.3,3.7,8.3,8.3l0,0
	C377.7,352.4,374,356.2,369.4,356.2z"/>
<path class="st1" d="M346.8,401.3L346.8,401.3c-4.6,0-8.3-3.7-8.3-8.3v0c0-4.6,3.7-8.3,8.3-8.3h0c4.6,0,8.3,3.7,8.3,8.3v0
	C355.1,397.6,351.4,401.3,346.8,401.3z"/>
<path class="st1" d="M279.2,446.5L279.2,446.5c-4.6,0-8.3-3.7-8.3-8.3l0,0c0-4.6,3.7-8.3,8.3-8.3l0,0c4.6,0,8.3,3.7,8.3,8.3l0,0
	C287.5,442.7,283.7,446.5,279.2,446.5z"/>
<path class="st1" d="M301.7,446.5L301.7,446.5c-4.6,0-8.3-3.7-8.3-8.3l0,0c0-4.6,3.7-8.3,8.3-8.3l0,0c4.6,0,8.3,3.7,8.3,8.3l0,0
	C310,442.7,306.3,446.5,301.7,446.5z"/>
<g>
	<text transform="matrix(1 0 0 1 6.6388 10.1287)" class="st2 st3 st4">1</text>
	<text transform="matrix(1 0 0 1 28.7013 10.1287)" class="st2 st3 st4">2</text>
	<text transform="matrix(1 0 0 1 51.2755 10.1287)" class="st2 st3 st4">3</text>
	<text transform="matrix(1 0 0 1 73.7902 10.1287)" class="st2 st3 st4">4</text>
	<text transform="matrix(1 0 0 1 96.463 10.1287)" class="st2 st3 st4">5</text>
	<text transform="matrix(1 0 0 1 118.7853 10.1287)" class="st2 st3 st4">6</text>
	<text transform="matrix(1 0 0 1 141.7462 10.1287)" class="st2 st3 st4">7</text>
	<text transform="matrix(1 0 0 1 164.0079 10.1287)" class="st2 st3 st4">8</text>
	<text transform="matrix(1 0 0 1 186.6241 10.1287)" class="st2 st3 st4">9</text>
	<text transform="matrix(1 0 0 1 207.0802 10.1287)" class="st2 st3 st4">10</text>
	<text transform="matrix(1 0 0 1 230.6339 10.1287)" class="st2 st3 st4">11</text>
	<text transform="matrix(1 0 0 1 252.6241 10.1287)" class="st2 st3 st4">12</text>
	<text transform="matrix(1 0 0 1 6.5734 57.4403)" class="st2 st3 st4">1</text>
	<text transform="matrix(1 0 0 1 28.6349 57.4403)" class="st2 st3 st4">2</text>
	<text transform="matrix(1 0 0 1 51.2091 57.4403)" class="st2 st3 st4">3</text>
	<text transform="matrix(1 0 0 1 73.7237 57.4403)" class="st2 st3 st4">4</text>
	<text transform="matrix(1 0 0 1 96.3976 57.4403)" class="st2 st3 st4">5</text>
	<text transform="matrix(1 0 0 1 118.7198 57.4403)" class="st2 st3 st4">6</text>
	<text transform="matrix(1 0 0 1 141.7462 57.4403)" class="st2 st3 st4">7</text>
	<text transform="matrix(1 0 0 1 163.9366 57.4403)" class="st2 st3 st4">8</text>
	<text transform="matrix(1 0 0 1 186.4308 57.4403)" class="st2 st3 st4">9</text>
	<text transform="matrix(1 0 0 1 207.0802 57.4403)" class="st2 st3 st4">10</text>
	<text transform="matrix(1 0 0 1 230.5626 57.4403)" class="st2 st3 st4">11</text>
	<text transform="matrix(1 0 0 1 252.6251 57.4403)" class="st2 st3 st4">12</text>
	<text transform="matrix(1 0 0 1 275.1984 57.4403)" class="st2 st3 st4">13</text>
	<text transform="matrix(1 0 0 1 297.712 57.4403)" class="st2 st3 st4">14</text>
	<text transform="matrix(1 0 0 1 320.3868 57.4403)" class="st2 st3 st4">15</text>
	<text transform="matrix(1 0 0 1 342.7091 57.4403)" class="st2 st3 st4">16</text>
	<text transform="matrix(1 0 0 1 365.3849 57.4403)" class="st2 st3 st4">17</text>
	<text transform="matrix(1 0 0 1 387.5743 57.4403)" class="st2 st3 st4">18</text>
	<text transform="matrix(1 0 0 1 275.1984 10.1287)" class="st2 st3 st4">13</text>
	<text transform="matrix(1 0 0 1 297.712 10.1287)" class="st2 st3 st4">14</text>
	<text transform="matrix(1 0 0 1 320.3868 10.1287)" class="st2 st3 st4">15</text>
	<text transform="matrix(1 0 0 1 342.7091 10.1287)" class="st2 st3 st4">16</text>
	<text transform="matrix(1 0 0 1 365.3849 10.1287)" class="st2 st3 st4">17</text>
	<text transform="matrix(1 0 0 1 387.5743 10.1287)" class="st2 st3 st4">18</text>
	<text transform="matrix(1 0 0 1 410.0685 57.4403)" class="st2 st3 st4">19</text>
	<text transform="matrix(1 0 0 1 431.923 57.4403)" class="st2 st3 st4">20</text>
	<text transform="matrix(1 0 0 1 455.4054 57.4403)" class="st2 st3 st4">21</text>
	<text transform="matrix(1 0 0 1 477.6866 57.4403)" class="st2 st3 st4">22</text>
	<text transform="matrix(1 0 0 1 500.2609 57.4403)" class="st2 st3 st4">23</text>
	<text transform="matrix(1 0 0 1 522.7745 57.4403)" class="st2 st3 st4">24</text>
	<text transform="matrix(1 0 0 1 545.4493 57.4403)" class="st2 st3 st4">25</text>
	<text transform="matrix(1 0 0 1 6.5734 79.7733)" class="st2 st3 st4">1</text>
	<text transform="matrix(1 0 0 1 28.6349 79.7733)" class="st2 st3 st4">2</text>
	<text transform="matrix(1 0 0 1 51.2091 79.7733)" class="st2 st3 st4">3</text>
	<text transform="matrix(1 0 0 1 73.7237 79.7733)" class="st2 st3 st4">4</text>
	<text transform="matrix(1 0 0 1 96.3976 79.7733)" class="st2 st3 st4">5</text>
	<text transform="matrix(1 0 0 1 118.7198 79.7733)" class="st2 st3 st4">6</text>
	<text transform="matrix(1 0 0 1 141.7462 79.7733)" class="st2 st3 st4">7</text>
	<text transform="matrix(1 0 0 1 163.9366 79.7733)" class="st2 st3 st4">8</text>
	<text transform="matrix(1 0 0 1 186.4308 79.7733)" class="st2 st3 st4">9</text>
	<text transform="matrix(1 0 0 1 207.0802 79.7733)" class="st2 st3 st4">10</text>
	<text transform="matrix(1 0 0 1 230.5626 79.7733)" class="st2 st3 st4">11</text>
	<text transform="matrix(1 0 0 1 252.6251 79.7733)" class="st2 st3 st4">12</text>
	<text transform="matrix(1 0 0 1 275.1984 79.7733)" class="st2 st3 st4">13</text>
	<text transform="matrix(1 0 0 1 297.712 79.7733)" class="st2 st3 st4">14</text>
	<text transform="matrix(1 0 0 1 320.3868 79.7733)" class="st2 st3 st4">15</text>
	<text transform="matrix(1 0 0 1 342.7091 79.7733)" class="st2 st3 st4">16</text>
	<text transform="matrix(1 0 0 1 365.3849 79.7733)" class="st2 st3 st4">17</text>
	<text transform="matrix(1 0 0 1 387.5743 79.7733)" class="st2 st3 st4">18</text>
	<text transform="matrix(1 0 0 1 410.0685 79.7733)" class="st2 st3 st4">19</text>
	<text transform="matrix(1 0 0 1 431.923 79.7733)" class="st2 st3 st4">20</text>
	<text transform="matrix(1 0 0 1 455.4054 79.7733)" class="st2 st3 st4">21</text>
	<text transform="matrix(1 0 0 1 477.6866 79.7733)" class="st2 st3 st4">22</text>
	<text transform="matrix(1 0 0 1 500.2609 79.7733)" class="st2 st3 st4">23</text>
	<text transform="matrix(1 0 0 1 522.7745 79.7733)" class="st2 st3 st4">24</text>
	<text transform="matrix(1 0 0 1 6.5734 101.8524)" class="st2 st3 st4">1</text>
	<text transform="matrix(1 0 0 1 28.6349 101.8524)" class="st2 st3 st4">2</text>
	<text transform="matrix(1 0 0 1 51.2091 101.8524)" class="st2 st3 st4">3</text>
	<text transform="matrix(1 0 0 1 73.7237 101.8524)" class="st2 st3 st4">4</text>
	<text transform="matrix(1 0 0 1 96.3976 101.8524)" class="st2 st3 st4">5</text>
	<text transform="matrix(1 0 0 1 118.7198 101.8524)" class="st2 st3 st4">6</text>
	<text transform="matrix(1 0 0 1 141.7462 101.8524)" class="st2 st3 st4">7</text>
	<text transform="matrix(1 0 0 1 163.9366 101.8524)" class="st2 st3 st4">8</text>
	<text transform="matrix(1 0 0 1 186.4308 101.8524)" class="st2 st3 st4">9</text>
	<text transform="matrix(1 0 0 1 207.0802 101.8524)" class="st2 st3 st4">10</text>
	<text transform="matrix(1 0 0 1 230.5626 101.8524)" class="st2 st3 st4">11</text>
	<text transform="matrix(1 0 0 1 252.6251 101.8524)" class="st2 st3 st4">12</text>
	<text transform="matrix(1 0 0 1 275.1984 101.8524)" class="st2 st3 st4">13</text>
	<text transform="matrix(1 0 0 1 297.712 101.8524)" class="st2 st3 st4">14</text>
	<text transform="matrix(1 0 0 1 320.3868 101.8524)" class="st2 st3 st4">15</text>
	<text transform="matrix(1 0 0 1 342.7091 101.8524)" class="st2 st3 st4">16</text>
	<text transform="matrix(1 0 0 1 365.3849 101.8524)" class="st2 st3 st4">17</text>
	<text transform="matrix(1 0 0 1 387.5743 101.8524)" class="st2 st3 st4">18</text>
	<text transform="matrix(1 0 0 1 410.0685 101.8524)" class="st2 st3 st4">19</text>
	<text transform="matrix(1 0 0 1 431.923 101.8524)" class="st2 st3 st4">20</text>
	<text transform="matrix(1 0 0 1 455.4054 101.8524)" class="st2 st3 st4">21</text>
	<text transform="matrix(1 0 0 1 477.6866 101.8524)" class="st2 st3 st4">22</text>
	<text transform="matrix(1 0 0 1 500.2609 101.8524)" class="st2 st3 st4">23</text>
	<text transform="matrix(1 0 0 1 522.7745 101.8524)" class="st2 st3 st4">24</text>
	<text transform="matrix(1 0 0 1 6.5734 124.9159)" class="st2 st3 st4">1</text>
	<text transform="matrix(1 0 0 1 28.6349 124.9159)" class="st2 st3 st4">2</text>
	<text transform="matrix(1 0 0 1 51.2091 124.9159)" class="st2 st3 st4">3</text>
	<text transform="matrix(1 0 0 1 73.7237 124.9159)" class="st2 st3 st4">4</text>
	<text transform="matrix(1 0 0 1 96.3976 124.9159)" class="st2 st3 st4">5</text>
	<text transform="matrix(1 0 0 1 118.7198 124.9159)" class="st2 st3 st4">6</text>
	<text transform="matrix(1 0 0 1 141.7462 124.9159)" class="st2 st3 st4">7</text>
	<text transform="matrix(1 0 0 1 163.9366 124.9159)" class="st2 st3 st4">8</text>
	<text transform="matrix(1 0 0 1 186.4308 124.9159)" class="st2 st3 st4">9</text>
	<text transform="matrix(1 0 0 1 207.0802 124.9159)" class="st2 st3 st4">10</text>
	<text transform="matrix(1 0 0 1 230.5626 124.9159)" class="st2 st3 st4">11</text>
	<text transform="matrix(1 0 0 1 252.6251 124.9159)" class="st2 st3 st4">12</text>
	<text transform="matrix(1 0 0 1 275.1984 124.9159)" class="st2 st3 st4">13</text>
	<text transform="matrix(1 0 0 1 297.712 124.9159)" class="st2 st3 st4">14</text>
	<text transform="matrix(1 0 0 1 320.3868 124.9159)" class="st2 st3 st4">15</text>
	<text transform="matrix(1 0 0 1 342.7091 124.9159)" class="st2 st3 st4">16</text>
	<text transform="matrix(1 0 0 1 365.3849 124.9159)" class="st2 st3 st4">17</text>
	<text transform="matrix(1 0 0 1 387.5743 124.9159)" class="st2 st3 st4">18</text>
	<text transform="matrix(1 0 0 1 410.0685 124.9159)" class="st2 st3 st4">19</text>
	<text transform="matrix(1 0 0 1 431.923 124.9159)" class="st2 st3 st4">20</text>
	<text transform="matrix(1 0 0 1 455.4054 124.9159)" class="st2 st3 st4">21</text>
	<text transform="matrix(1 0 0 1 477.6866 124.9159)" class="st2 st3 st4">22</text>
	<text transform="matrix(1 0 0 1 500.2609 124.9159)" class="st2 st3 st4">23</text>
	<text transform="matrix(1 0 0 1 6.5734 146.7772)" class="st2 st3 st4">1</text>
	<text transform="matrix(1 0 0 1 28.6349 146.7772)" class="st2 st3 st4">2</text>
	<text transform="matrix(1 0 0 1 51.2091 146.7772)" class="st2 st3 st4">3</text>
	<text transform="matrix(1 0 0 1 73.7237 146.7772)" class="st2 st3 st4">4</text>
	<text transform="matrix(1 0 0 1 96.3976 146.7772)" class="st2 st3 st4">5</text>
	<text transform="matrix(1 0 0 1 118.7198 146.7772)" class="st2 st3 st4">6</text>
	<text transform="matrix(1 0 0 1 141.7462 146.7772)" class="st2 st3 st4">7</text>
	<text transform="matrix(1 0 0 1 163.9366 146.7772)" class="st2 st3 st4">8</text>
	<text transform="matrix(1 0 0 1 186.4308 146.7772)" class="st2 st3 st4">9</text>
	<text transform="matrix(1 0 0 1 207.0802 146.7772)" class="st2 st3 st4">10</text>
	<text transform="matrix(1 0 0 1 230.5626 146.7772)" class="st2 st3 st4">11</text>
	<text transform="matrix(1 0 0 1 252.6251 146.7772)" class="st2 st3 st4">12</text>
	<text transform="matrix(1 0 0 1 275.1984 146.7772)" class="st2 st3 st4">13</text>
	<text transform="matrix(1 0 0 1 297.712 146.7772)" class="st2 st3 st4">14</text>
	<text transform="matrix(1 0 0 1 320.3868 146.7772)" class="st2 st3 st4">15</text>
	<text transform="matrix(1 0 0 1 342.7091 146.7772)" class="st2 st3 st4">16</text>
	<text transform="matrix(1 0 0 1 365.3849 146.7772)" class="st2 st3 st4">17</text>
	<text transform="matrix(1 0 0 1 387.5743 146.7772)" class="st2 st3 st4">18</text>
	<text transform="matrix(1 0 0 1 410.0685 146.7772)" class="st2 st3 st4">19</text>
	<text transform="matrix(1 0 0 1 431.923 146.7772)" class="st2 st3 st4">20</text>
	<text transform="matrix(1 0 0 1 455.4054 146.7772)" class="st2 st3 st4">21</text>
	<text transform="matrix(1 0 0 1 477.6866 146.7772)" class="st2 st3 st4">22</text>
	<text transform="matrix(1 0 0 1 500.2609 146.7772)" class="st2 st3 st4">23</text>
	<text transform="matrix(1 0 0 1 6.5734 169.9403)" class="st2 st3 st4">1</text>
	<text transform="matrix(1 0 0 1 28.6349 169.9403)" class="st2 st3 st4">2</text>
	<text transform="matrix(1 0 0 1 51.2091 169.9403)" class="st2 st3 st4">3</text>
	<text transform="matrix(1 0 0 1 73.7237 169.9403)" class="st2 st3 st4">4</text>
	<text transform="matrix(1 0 0 1 96.3976 169.9403)" class="st2 st3 st4">5</text>
	<text transform="matrix(1 0 0 1 118.7198 169.9403)" class="st2 st3 st4">6</text>
	<text transform="matrix(1 0 0 1 141.7462 169.9403)" class="st2 st3 st4">7</text>
	<text transform="matrix(1 0 0 1 163.9366 169.9403)" class="st2 st3 st4">8</text>
	<text transform="matrix(1 0 0 1 186.4308 169.9403)" class="st2 st3 st4">9</text>
	<text transform="matrix(1 0 0 1 207.0802 169.9403)" class="st2 st3 st4">10</text>
	<text transform="matrix(1 0 0 1 230.5626 169.9403)" class="st2 st3 st4">11</text>
	<text transform="matrix(1 0 0 1 252.6251 169.9403)" class="st2 st3 st4">12</text>
	<text transform="matrix(1 0 0 1 275.1984 169.9403)" class="st2 st3 st4">13</text>
	<text transform="matrix(1 0 0 1 297.712 169.9403)" class="st2 st3 st4">14</text>
	<text transform="matrix(1 0 0 1 320.3868 169.9403)" class="st2 st3 st4">15</text>
	<text transform="matrix(1 0 0 1 342.7091 169.9403)" class="st2 st3 st4">16</text>
	<text transform="matrix(1 0 0 1 365.3849 169.9403)" class="st2 st3 st4">17</text>
	<text transform="matrix(1 0 0 1 387.5743 169.9403)" class="st2 st3 st4">18</text>
	<text transform="matrix(1 0 0 1 410.0685 169.9403)" class="st2 st3 st4">19</text>
	<text transform="matrix(1 0 0 1 431.923 169.9403)" class="st2 st3 st4">20</text>
	<text transform="matrix(1 0 0 1 455.4054 169.9403)" class="st2 st3 st4">21</text>
	<text transform="matrix(1 0 0 1 6.5734 192.4403)" class="st2 st3 st4">1</text>
	<text transform="matrix(1 0 0 1 28.6349 192.4403)" class="st2 st3 st4">2</text>
	<text transform="matrix(1 0 0 1 51.2091 192.4403)" class="st2 st3 st4">3</text>
	<text transform="matrix(1 0 0 1 73.7237 192.4403)" class="st2 st3 st4">4</text>
	<text transform="matrix(1 0 0 1 96.3976 192.4403)" class="st2 st3 st4">5</text>
	<text transform="matrix(1 0 0 1 118.7198 192.4403)" class="st2 st3 st4">6</text>
	<text transform="matrix(1 0 0 1 141.7462 192.4403)" class="st2 st3 st4">7</text>
	<text transform="matrix(1 0 0 1 163.9366 192.4403)" class="st2 st3 st4">8</text>
	<text transform="matrix(1 0 0 1 186.4308 192.4403)" class="st2 st3 st4">9</text>
	<text transform="matrix(1 0 0 1 207.0802 192.4403)" class="st2 st3 st4">10</text>
	<text transform="matrix(1 0 0 1 230.5626 192.4403)" class="st2 st3 st4">11</text>
	<text transform="matrix(1 0 0 1 252.6251 192.4403)" class="st2 st3 st4">12</text>
	<text transform="matrix(1 0 0 1 275.1984 192.4403)" class="st2 st3 st4">13</text>
	<text transform="matrix(1 0 0 1 297.712 192.4403)" class="st2 st3 st4">14</text>
	<text transform="matrix(1 0 0 1 320.3868 192.4403)" class="st2 st3 st4">15</text>
	<text transform="matrix(1 0 0 1 342.7091 192.4403)" class="st2 st3 st4">16</text>
	<text transform="matrix(1 0 0 1 365.3849 192.4403)" class="st2 st3 st4">17</text>
	<text transform="matrix(1 0 0 1 387.5743 192.4403)" class="st2 st3 st4">18</text>
	<text transform="matrix(1 0 0 1 410.0685 192.4403)" class="st2 st3 st4">19</text>
	<text transform="matrix(1 0 0 1 431.923 192.4403)" class="st2 st3 st4">20</text>
	<text transform="matrix(1 0 0 1 455.4054 192.4403)" class="st2 st3 st4">21</text>
	<text transform="matrix(1 0 0 1 6.5734 215.1375)" class="st2 st3 st4">1</text>
	<text transform="matrix(1 0 0 1 28.6349 215.1375)" class="st2 st3 st4">2</text>
	<text transform="matrix(1 0 0 1 51.2091 215.1375)" class="st2 st3 st4">3</text>
	<text transform="matrix(1 0 0 1 73.7237 215.1375)" class="st2 st3 st4">4</text>
	<text transform="matrix(1 0 0 1 96.3976 215.1375)" class="st2 st3 st4">5</text>
	<text transform="matrix(1 0 0 1 118.7198 215.1375)" class="st2 st3 st4">6</text>
	<text transform="matrix(1 0 0 1 141.7462 215.1375)" class="st2 st3 st4">7</text>
	<text transform="matrix(1 0 0 1 163.9366 215.1375)" class="st2 st3 st4">8</text>
	<text transform="matrix(1 0 0 1 186.4308 215.1375)" class="st2 st3 st4">9</text>
	<text transform="matrix(1 0 0 1 207.0802 215.1375)" class="st2 st3 st4">10</text>
	<text transform="matrix(1 0 0 1 230.5626 215.1375)" class="st2 st3 st4">11</text>
	<text transform="matrix(1 0 0 1 252.6251 215.1375)" class="st2 st3 st4">12</text>
	<text transform="matrix(1 0 0 1 275.1984 215.1375)" class="st2 st3 st4">13</text>
	<text transform="matrix(1 0 0 1 297.712 215.1375)" class="st2 st3 st4">14</text>
	<text transform="matrix(1 0 0 1 320.3868 215.1375)" class="st2 st3 st4">15</text>
	<text transform="matrix(1 0 0 1 342.7091 215.1375)" class="st2 st3 st4">16</text>
	<text transform="matrix(1 0 0 1 365.3849 215.1375)" class="st2 st3 st4">17</text>
	<text transform="matrix(1 0 0 1 387.5743 215.1375)" class="st2 st3 st4">18</text>
	<text transform="matrix(1 0 0 1 410.0685 215.1375)" class="st2 st3 st4">19</text>
	<text transform="matrix(1 0 0 1 431.923 215.1375)" class="st2 st3 st4">20</text>
	<text transform="matrix(1 0 0 1 455.4054 215.1375)" class="st2 st3 st4">21</text>
	<text transform="matrix(1 0 0 1 6.5734 237.2674)" class="st2 st3 st4">1</text>
	<text transform="matrix(1 0 0 1 28.6349 237.2674)" class="st2 st3 st4">2</text>
	<text transform="matrix(1 0 0 1 51.2091 237.2674)" class="st2 st3 st4">3</text>
	<text transform="matrix(1 0 0 1 73.7237 237.2674)" class="st2 st3 st4">4</text>
	<text transform="matrix(1 0 0 1 96.3976 237.2674)" class="st2 st3 st4">5</text>
	<text transform="matrix(1 0 0 1 118.7198 237.2674)" class="st2 st3 st4">6</text>
	<text transform="matrix(1 0 0 1 141.7462 237.2674)" class="st2 st3 st4">7</text>
	<text transform="matrix(1 0 0 1 163.9366 237.2674)" class="st2 st3 st4">8</text>
	<text transform="matrix(1 0 0 1 186.4308 237.2674)" class="st2 st3 st4">9</text>
	<text transform="matrix(1 0 0 1 207.0802 237.2674)" class="st2 st3 st4">10</text>
	<text transform="matrix(1 0 0 1 230.5626 237.2674)" class="st2 st3 st4">11</text>
	<text transform="matrix(1 0 0 1 252.6251 237.2674)" class="st2 st3 st4">12</text>
	<text transform="matrix(1 0 0 1 275.1984 237.2674)" class="st2 st3 st4">13</text>
	<text transform="matrix(1 0 0 1 297.712 237.2674)" class="st2 st3 st4">14</text>
	<text transform="matrix(1 0 0 1 320.3868 237.2674)" class="st2 st3 st4">15</text>
	<text transform="matrix(1 0 0 1 342.7091 237.2674)" class="st2 st3 st4">16</text>
	<text transform="matrix(1 0 0 1 365.3849 237.2674)" class="st2 st3 st4">17</text>
	<text transform="matrix(1 0 0 1 387.5743 237.2674)" class="st2 st3 st4">18</text>
	<text transform="matrix(1 0 0 1 410.0685 237.2674)" class="st2 st3 st4">19</text>
	<text transform="matrix(1 0 0 1 431.923 237.2674)" class="st2 st3 st4">20</text>
	<text transform="matrix(1 0 0 1 6.5734 259.6805)" class="st2 st3 st4">1</text>
	<text transform="matrix(1 0 0 1 28.6349 259.6805)" class="st2 st3 st4">2</text>
	<text transform="matrix(1 0 0 1 51.2091 259.6805)" class="st2 st3 st4">3</text>
	<text transform="matrix(1 0 0 1 73.7237 259.6805)" class="st2 st3 st4">4</text>
	<text transform="matrix(1 0 0 1 96.3976 259.6805)" class="st2 st3 st4">5</text>
	<text transform="matrix(1 0 0 1 118.7198 259.6805)" class="st2 st3 st4">6</text>
	<text transform="matrix(1 0 0 1 141.7462 259.6805)" class="st2 st3 st4">7</text>
	<text transform="matrix(1 0 0 1 163.9366 259.6805)" class="st2 st3 st4">8</text>
	<text transform="matrix(1 0 0 1 186.4308 259.6805)" class="st2 st3 st4">9</text>
	<text transform="matrix(1 0 0 1 207.0802 259.6805)" class="st2 st3 st4">10</text>
	<text transform="matrix(1 0 0 1 230.5626 259.6805)" class="st2 st3 st4">11</text>
	<text transform="matrix(1 0 0 1 252.6251 259.6805)" class="st2 st3 st4">12</text>
	<text transform="matrix(1 0 0 1 275.1984 259.6805)" class="st2 st3 st4">13</text>
	<text transform="matrix(1 0 0 1 297.712 259.6805)" class="st2 st3 st4">14</text>
	<text transform="matrix(1 0 0 1 320.3868 259.6805)" class="st2 st3 st4">15</text>
	<text transform="matrix(1 0 0 1 342.7091 259.6805)" class="st2 st3 st4">16</text>
	<text transform="matrix(1 0 0 1 365.3849 259.6805)" class="st2 st3 st4">17</text>
	<text transform="matrix(1 0 0 1 387.5743 259.6805)" class="st2 st3 st4">18</text>
	<text transform="matrix(1 0 0 1 410.0685 259.6805)" class="st2 st3 st4">19</text>
	<text transform="matrix(1 0 0 1 6.5734 283.1805)" class="st2 st3 st4">1</text>
	<text transform="matrix(1 0 0 1 28.6349 283.1805)" class="st2 st3 st4">2</text>
	<text transform="matrix(1 0 0 1 51.2091 283.1805)" class="st2 st3 st4">3</text>
	<text transform="matrix(1 0 0 1 73.7237 283.1805)" class="st2 st3 st4">4</text>
	<text transform="matrix(1 0 0 1 96.3976 283.1805)" class="st2 st3 st4">5</text>
	<text transform="matrix(1 0 0 1 118.7198 283.1805)" class="st2 st3 st4">6</text>
	<text transform="matrix(1 0 0 1 141.7462 283.1805)" class="st2 st3 st4">7</text>
	<text transform="matrix(1 0 0 1 163.9366 283.1805)" class="st2 st3 st4">8</text>
	<text transform="matrix(1 0 0 1 186.4308 283.1805)" class="st2 st3 st4">9</text>
	<text transform="matrix(1 0 0 1 207.0802 283.1805)" class="st2 st3 st4">10</text>
	<text transform="matrix(1 0 0 1 230.5626 283.1805)" class="st2 st3 st4">11</text>
	<text transform="matrix(1 0 0 1 252.6251 283.1805)" class="st2 st3 st4">12</text>
	<text transform="matrix(1 0 0 1 275.1984 283.1805)" class="st2 st3 st4">13</text>
	<text transform="matrix(1 0 0 1 297.712 283.1805)" class="st2 st3 st4">14</text>
	<text transform="matrix(1 0 0 1 320.3868 283.1805)" class="st2 st3 st4">15</text>
	<text transform="matrix(1 0 0 1 342.7091 283.1805)" class="st2 st3 st4">16</text>
	<text transform="matrix(1 0 0 1 365.3849 283.1805)" class="st2 st3 st4">17</text>
	<text transform="matrix(1 0 0 1 387.5743 283.1805)" class="st2 st3 st4">18</text>
	<text transform="matrix(1 0 0 1 410.0685 283.1805)" class="st2 st3 st4">19</text>
	<text transform="matrix(1 0 0 1 6.5734 305.0575)" class="st2 st3 st4">1</text>
	<text transform="matrix(1 0 0 1 28.6349 305.0575)" class="st2 st3 st4">2</text>
	<text transform="matrix(1 0 0 1 51.2091 305.0575)" class="st2 st3 st4">3</text>
	<text transform="matrix(1 0 0 1 73.7237 305.0575)" class="st2 st3 st4">4</text>
	<text transform="matrix(1 0 0 1 96.3976 305.0575)" class="st2 st3 st4">5</text>
	<text transform="matrix(1 0 0 1 118.7198 305.0575)" class="st2 st3 st4">6</text>
	<text transform="matrix(1 0 0 1 141.7462 305.0575)" class="st2 st3 st4">7</text>
	<text transform="matrix(1 0 0 1 163.9366 305.0575)" class="st2 st3 st4">8</text>
	<text transform="matrix(1 0 0 1 186.4308 305.0575)" class="st2 st3 st4">9</text>
	<text transform="matrix(1 0 0 1 207.0802 305.0575)" class="st2 st3 st4">10</text>
	<text transform="matrix(1 0 0 1 230.5626 305.0575)" class="st2 st3 st4">11</text>
	<text transform="matrix(1 0 0 1 252.6251 305.0575)" class="st2 st3 st4">12</text>
	<text transform="matrix(1 0 0 1 275.1984 305.0575)" class="st2 st3 st4">13</text>
	<text transform="matrix(1 0 0 1 297.712 305.0575)" class="st2 st3 st4">14</text>
	<text transform="matrix(1 0 0 1 320.3868 305.0575)" class="st2 st3 st4">15</text>
	<text transform="matrix(1 0 0 1 342.7091 305.0575)" class="st2 st3 st4">16</text>
	<text transform="matrix(1 0 0 1 365.3849 305.0575)" class="st2 st3 st4">17</text>
	<text transform="matrix(1 0 0 1 387.5743 305.0575)" class="st2 st3 st4">18</text>
	<text transform="matrix(1 0 0 1 6.5734 327.494)" class="st2 st3 st4">1</text>
	<text transform="matrix(1 0 0 1 28.6349 327.494)" class="st2 st3 st4">2</text>
	<text transform="matrix(1 0 0 1 51.2091 327.494)" class="st2 st3 st4">3</text>
	<text transform="matrix(1 0 0 1 73.7237 327.494)" class="st2 st3 st4">4</text>
	<text transform="matrix(1 0 0 1 96.3976 327.494)" class="st2 st3 st4">5</text>
	<text transform="matrix(1 0 0 1 118.7198 327.494)" class="st2 st3 st4">6</text>
	<text transform="matrix(1 0 0 1 141.7462 327.494)" class="st2 st3 st4">7</text>
	<text transform="matrix(1 0 0 1 163.9366 327.494)" class="st2 st3 st4">8</text>
	<text transform="matrix(1 0 0 1 186.4308 327.494)" class="st2 st3 st4">9</text>
	<text transform="matrix(1 0 0 1 207.0802 327.494)" class="st2 st3 st4">10</text>
	<text transform="matrix(1 0 0 1 230.5626 327.494)" class="st2 st3 st4">11</text>
	<text transform="matrix(1 0 0 1 252.6251 327.494)" class="st2 st3 st4">12</text>
	<text transform="matrix(1 0 0 1 275.1984 327.494)" class="st2 st3 st4">13</text>
	<text transform="matrix(1 0 0 1 297.712 327.494)" class="st2 st3 st4">14</text>
	<text transform="matrix(1 0 0 1 320.3868 327.494)" class="st2 st3 st4">15</text>
	<text transform="matrix(1 0 0 1 342.7091 327.494)" class="st2 st3 st4">16</text>
	<text transform="matrix(1 0 0 1 365.3849 327.494)" class="st2 st3 st4">17</text>
	<text transform="matrix(1 0 0 1 387.5743 327.494)" class="st2 st3 st4">18</text>
	<text transform="matrix(1 0 0 1 6.5734 350.0457)" class="st2 st3 st4">1</text>
	<text transform="matrix(1 0 0 1 28.6349 350.0457)" class="st2 st3 st4">2</text>
	<text transform="matrix(1 0 0 1 51.2091 350.0457)" class="st2 st3 st4">3</text>
	<text transform="matrix(1 0 0 1 73.7237 350.0457)" class="st2 st3 st4">4</text>
	<text transform="matrix(1 0 0 1 96.3976 350.0457)" class="st2 st3 st4">5</text>
	<text transform="matrix(1 0 0 1 118.7198 350.0457)" class="st2 st3 st4">6</text>
	<text transform="matrix(1 0 0 1 141.7462 350.0457)" class="st2 st3 st4">7</text>
	<text transform="matrix(1 0 0 1 163.9366 350.0457)" class="st2 st3 st4">8</text>
	<text transform="matrix(1 0 0 1 186.4308 350.0457)" class="st2 st3 st4">9</text>
	<text transform="matrix(1 0 0 1 207.0802 350.0457)" class="st2 st3 st4">10</text>
	<text transform="matrix(1 0 0 1 230.5626 350.0457)" class="st2 st3 st4">11</text>
	<text transform="matrix(1 0 0 1 252.6251 350.0457)" class="st2 st3 st4">12</text>
	<text transform="matrix(1 0 0 1 275.1984 350.0457)" class="st2 st3 st4">13</text>
	<text transform="matrix(1 0 0 1 297.712 350.0457)" class="st2 st3 st4">14</text>
	<text transform="matrix(1 0 0 1 320.3868 350.0457)" class="st2 st3 st4">15</text>
	<text transform="matrix(1 0 0 1 342.7091 350.0457)" class="st2 st3 st4">16</text>
	<text transform="matrix(1 0 0 1 6.5734 372.6815)" class="st2 st3 st4">1</text>
	<text transform="matrix(1 0 0 1 28.6349 372.6815)" class="st2 st3 st4">2</text>
	<text transform="matrix(1 0 0 1 51.2091 372.6815)" class="st2 st3 st4">3</text>
	<text transform="matrix(1 0 0 1 73.7237 372.6815)" class="st2 st3 st4">4</text>
	<text transform="matrix(1 0 0 1 96.3976 372.6815)" class="st2 st3 st4">5</text>
	<text transform="matrix(1 0 0 1 118.7198 372.6815)" class="st2 st3 st4">6</text>
	<text transform="matrix(1 0 0 1 141.7462 372.6815)" class="st2 st3 st4">7</text>
	<text transform="matrix(1 0 0 1 163.9366 372.6815)" class="st2 st3 st4">8</text>
	<text transform="matrix(1 0 0 1 186.4308 372.6815)" class="st2 st3 st4">9</text>
	<text transform="matrix(1 0 0 1 207.0802 372.6815)" class="st2 st3 st4">10</text>
	<text transform="matrix(1 0 0 1 230.5626 372.6815)" class="st2 st3 st4">11</text>
	<text transform="matrix(1 0 0 1 252.6251 372.6815)" class="st2 st3 st4">12</text>
	<text transform="matrix(1 0 0 1 275.1984 372.6815)" class="st2 st3 st4">13</text>
	<text transform="matrix(1 0 0 1 297.712 372.6815)" class="st2 st3 st4">14</text>
	<text transform="matrix(1 0 0 1 320.3868 372.6815)" class="st2 st3 st4">15</text>
	<text transform="matrix(1 0 0 1 342.7091 372.6815)" class="st2 st3 st4">16</text>
	<text transform="matrix(1 0 0 1 6.5734 394.742)" class="st2 st3 st4">1</text>
	<text transform="matrix(1 0 0 1 28.6349 394.742)" class="st2 st3 st4">2</text>
	<text transform="matrix(1 0 0 1 51.2091 394.742)" class="st2 st3 st4">3</text>
	<text transform="matrix(1 0 0 1 73.7237 394.742)" class="st2 st3 st4">4</text>
	<text transform="matrix(1 0 0 1 96.3976 394.742)" class="st2 st3 st4">5</text>
	<text transform="matrix(1 0 0 1 118.7198 394.742)" class="st2 st3 st4">6</text>
	<text transform="matrix(1 0 0 1 141.7462 394.742)" class="st2 st3 st4">7</text>
	<text transform="matrix(1 0 0 1 163.9366 394.742)" class="st2 st3 st4">8</text>
	<text transform="matrix(1 0 0 1 186.4308 394.742)" class="st2 st3 st4">9</text>
	<text transform="matrix(1 0 0 1 207.0802 394.742)" class="st2 st3 st4">10</text>
	<text transform="matrix(1 0 0 1 230.5626 394.742)" class="st2 st3 st4">11</text>
	<text transform="matrix(1 0 0 1 252.6251 394.742)" class="st2 st3 st4">12</text>
	<text transform="matrix(1 0 0 1 275.1984 394.742)" class="st2 st3 st4">13</text>
	<text transform="matrix(1 0 0 1 297.712 394.742)" class="st2 st3 st4">14</text>
	<text transform="matrix(1 0 0 1 320.3868 394.742)" class="st2 st3 st4">15</text>
	<text transform="matrix(1 0 0 1 342.7091 394.742)" class="st2 st3 st4">16</text>
	<text transform="matrix(1 0 0 1 6.5734 418.4579)" class="st2 st3 st4">1</text>
	<text transform="matrix(1 0 0 1 28.6349 418.4579)" class="st2 st3 st4">2</text>
	<text transform="matrix(1 0 0 1 51.2091 418.4579)" class="st2 st3 st4">3</text>
	<text transform="matrix(1 0 0 1 73.7237 418.4579)" class="st2 st3 st4">4</text>
	<text transform="matrix(1 0 0 1 96.3976 418.4579)" class="st2 st3 st4">5</text>
	<text transform="matrix(1 0 0 1 118.7198 418.4579)" class="st2 st3 st4">6</text>
	<text transform="matrix(1 0 0 1 141.7462 418.4579)" class="st2 st3 st4">7</text>
	<text transform="matrix(1 0 0 1 163.9366 418.4579)" class="st2 st3 st4">8</text>
	<text transform="matrix(1 0 0 1 186.4308 418.4579)" class="st2 st3 st4">9</text>
	<text transform="matrix(1 0 0 1 207.0802 418.4579)" class="st2 st3 st4">10</text>
	<text transform="matrix(1 0 0 1 230.5626 418.4579)" class="st2 st3 st4">11</text>
	<text transform="matrix(1 0 0 1 252.6251 418.4579)" class="st2 st3 st4">12</text>
	<text transform="matrix(1 0 0 1 275.1984 418.4579)" class="st2 st3 st4">13</text>
	<text transform="matrix(1 0 0 1 297.712 418.4579)" class="st2 st3 st4">14</text>
	<text transform="matrix(1 0 0 1 6.5734 439.9276)" class="st2 st3 st4">1</text>
	<text transform="matrix(1 0 0 1 28.6349 439.9276)" class="st2 st3 st4">2</text>
	<text transform="matrix(1 0 0 1 51.2091 439.9276)" class="st2 st3 st4">3</text>
	<text transform="matrix(1 0 0 1 73.7237 439.9276)" class="st2 st3 st4">4</text>
	<text transform="matrix(1 0 0 1 96.3976 439.9276)" class="st2 st3 st4">5</text>
	<text transform="matrix(1 0 0 1 118.7198 439.9276)" class="st2 st3 st4">6</text>
	<text transform="matrix(1 0 0 1 141.7462 439.9276)" class="st2 st3 st4">7</text>
	<text transform="matrix(1 0 0 1 163.9366 439.9276)" class="st2 st3 st4">8</text>
	<text transform="matrix(1 0 0 1 186.4308 439.9276)" class="st2 st3 st4">9</text>
	<text transform="matrix(1 0 0 1 207.0802 439.9276)" class="st2 st3 st4">10</text>
	<text transform="matrix(1 0 0 1 230.5626 439.9276)" class="st2 st3 st4">11</text>
	<text transform="matrix(1 0 0 1 252.6251 439.9276)" class="st2 st3 st4">12</text>
	<text transform="matrix(1 0 0 1 275.1984 439.9276)" class="st2 st3 st4">13</text>
	<text transform="matrix(1 0 0 1 297.712 439.9276)" class="st2 st3 st4">14</text>
	<text transform="matrix(1 0 0 1 320.3868 418.4579)" class="st2 st3 st4">15</text>
	<text transform="matrix(1 0 0 1 365.3849 350.0457)" class="st2 st3 st4">17</text>
	<text transform="matrix(1 0 0 1 477.6866 169.9403)" class="st2 st3 st4">22</text>
</g>
<g>
	<text transform="matrix(1 0 0 1 618.1239 54.9276)" class="st5 st6 st7">29</text>
	<text transform="matrix(1 0 0 1 618.1239 10.5565)" class="st5 st6 st7">30</text>
	<text transform="matrix(1 0 0 1 618.1239 100.4237)" class="st5 st6 st7">27</text>
	<text transform="matrix(1 0 0 1 618.1239 77.8534)" class="st5 st6 st7">28</text>
	<text transform="matrix(1 0 0 1 618.1239 145.5662)" class="st5 st6 st7">25</text>
	<text transform="matrix(1 0 0 1 617.9637 326.1659)" class="st5 st6 st7">17</text>
	<text transform="matrix(1 0 0 1 617.9637 348.7176)" class="st5 st6 st7">16</text>
	<text transform="matrix(1 0 0 1 618.1239 371.3534)" class="st5 st6 st7">15</text>
	<text transform="matrix(1 0 0 1 618.1239 393.9051)" class="st5 st6 st7">14</text>
	<text transform="matrix(1 0 0 1 617.9364 416.5379)" class="st5 st6 st7">13</text>
	<text transform="matrix(1 0 0 1 617.9637 439.0907)" class="st5 st6 st7">12</text>
	<text transform="matrix(1 0 0 1 618.1239 122.9959)" class="st5 st6 st7">26</text>
	<text transform="matrix(1 0 0 1 618.1239 168.0203)" class="st5 st6 st7">24</text>
	<text transform="matrix(1 0 0 1 618.1239 213.2078)" class="st5 st6 st7">22</text>
	<text transform="matrix(1 0 0 1 618.1239 190.6375)" class="st5 st6 st7">23</text>
	<text transform="matrix(1 0 0 1 618.1239 258.3524)" class="st5 st6 st7">20</text>
	<text transform="matrix(1 0 0 1 618.1239 235.7821)" class="st5 st6 st7">21</text>
	<text transform="matrix(1 0 0 1 617.9364 303.495)" class="st5 st6 st7">18</text>
	<text transform="matrix(1 0 0 1 617.9637 280.9247)" class="st5 st6 st7">19</text>
</g>
</svg>
