<?xml version="1.0" encoding="utf-8"?>
<!-- Generator: Adobe Illustrator 20.1.0, SVG Export Plug-In . SVG Version: 6.00 Build 0)  -->
<svg version="1.1" id="Layer_1" xmlns="http://www.w3.org/2000/svg" xmlns:xlink="http://www.w3.org/1999/xlink" x="0px" y="0px"
	 viewBox="0 0 447.4 627.7" style="enable-background:new 0 0 447.4 627.7;" xml:space="preserve">
<style type="text/css">
	.st0{fill:#7B878F;}
	.st1{font-family:'OsnovaProLight';}
	.st2{font-size:9px;}
	.st3{fill:#D9F6E1;}
	.st4{fill:#FFFFFF;}
	.st5{fill:#737373;}
	.st6{font-family:'OsnovaPro';}
	.st7{font-size:8px;}
</style>
<g>
	<text transform="matrix(1 0 0 1 436.5612 57.0064)" class="st0 st1 st2">29</text>
	<text transform="matrix(1 0 0 1 436.5612 12.6353)" class="st0 st1 st2">30</text>
	<text transform="matrix(1 0 0 1 436.5612 102.5025)" class="st0 st1 st2">27</text>
	<text transform="matrix(1 0 0 1 436.5612 79.9322)" class="st0 st1 st2">28</text>
	<text transform="matrix(1 0 0 1 436.5612 147.6451)" class="st0 st1 st2">25</text>
	<text transform="matrix(1 0 0 1 436.401 328.2447)" class="st0 st1 st2">17</text>
	<text transform="matrix(1 0 0 1 436.401 350.7965)" class="st0 st1 st2">16</text>
	<text transform="matrix(1 0 0 1 436.5612 373.4322)" class="st0 st1 st2">15</text>
	<text transform="matrix(1 0 0 1 436.5612 395.984)" class="st0 st1 st2">14</text>
	<text transform="matrix(1 0 0 1 436.3737 418.6168)" class="st0 st1 st2">13</text>
	<text transform="matrix(1 0 0 1 436.401 441.1695)" class="st0 st1 st2">12</text>
	<text transform="matrix(1 0 0 1 436.7379 621.8668)" class="st0 st1 st2">4</text>
	<text transform="matrix(1 0 0 1 436.5612 125.0748)" class="st0 st1 st2">26</text>
	<text transform="matrix(1 0 0 1 436.5612 170.0992)" class="st0 st1 st2">24</text>
	<text transform="matrix(1 0 0 1 436.5612 215.2867)" class="st0 st1 st2">22</text>
	<text transform="matrix(1 0 0 1 436.5612 192.7164)" class="st0 st1 st2">23</text>
	<text transform="matrix(1 0 0 1 436.5612 260.4312)" class="st0 st1 st2">20</text>
	<text transform="matrix(1 0 0 1 436.5612 237.8609)" class="st0 st1 st2">21</text>
	<text transform="matrix(1 0 0 1 436.3737 305.5738)" class="st0 st1 st2">18</text>
	<text transform="matrix(1 0 0 1 436.401 283.0035)" class="st0 st1 st2">19</text>
	<text transform="matrix(1 0 0 1 436.401 463.7232)" class="st0 st1 st2">11</text>
	<text transform="matrix(1 0 0 1 436.401 508.9107)" class="st0 st1 st2">9</text>
	<text transform="matrix(1 0 0 1 436.401 486.3404)" class="st0 st1 st2">10</text>
	<text transform="matrix(1 0 0 1 437.0085 554.0562)" class="st0 st1 st2">7</text>
	<text transform="matrix(1 0 0 1 436.3737 531.4859)" class="st0 st1 st2">8</text>
	<text transform="matrix(1 0 0 1 436.401 576.6285)" class="st0 st1 st2">6</text>
	<text transform="matrix(1 0 0 1 437.0085 599.2115)" class="st0 st1 st2">5</text>
</g>
<path class="st3" d="M121.1,16.6L121.1,16.6c-4.6,0-8.3-3.7-8.3-8.3v0c0-4.6,3.7-8.3,8.3-8.3h0c4.6,0,8.3,3.7,8.3,8.3v0
	C129.4,12.8,125.6,16.6,121.1,16.6z"/>
<path class="st3" d="M143.6,16.6L143.6,16.6c-4.6,0-8.3-3.7-8.3-8.3v0c0-4.6,3.7-8.3,8.3-8.3h0c4.6,0,8.3,3.7,8.3,8.3v0
	C151.9,12.8,148.2,16.6,143.6,16.6z"/>
<path class="st3" d="M166.1,16.6L166.1,16.6c-4.6,0-8.3-3.7-8.3-8.3v0c0-4.6,3.7-8.3,8.3-8.3h0c4.6,0,8.3,3.7,8.3,8.3v0
	C174.4,12.8,170.7,16.6,166.1,16.6z"/>
<path class="st3" d="M188.7,16.6L188.7,16.6c-4.6,0-8.3-3.7-8.3-8.3v0c0-4.6,3.7-8.3,8.3-8.3h0c4.6,0,8.3,3.7,8.3,8.3v0
	C197,12.8,193.3,16.6,188.7,16.6z"/>
<path class="st3" d="M211.3,16.6L211.3,16.6c-4.6,0-8.3-3.7-8.3-8.3v0c0-4.6,3.7-8.3,8.3-8.3h0c4.6,0,8.3,3.7,8.3,8.3v0
	C219.6,12.8,215.8,16.6,211.3,16.6z"/>
<path class="st3" d="M233.8,16.6L233.8,16.6c-4.6,0-8.3-3.7-8.3-8.3v0c0-4.6,3.7-8.3,8.3-8.3h0c4.6,0,8.3,3.7,8.3,8.3v0
	C242.1,12.8,238.4,16.6,233.8,16.6z"/>
<path class="st3" d="M256.4,16.6L256.4,16.6c-4.6,0-8.3-3.7-8.3-8.3v0c0-4.6,3.7-8.3,8.3-8.3l0,0c4.6,0,8.3,3.7,8.3,8.3v0
	C264.7,12.8,261,16.6,256.4,16.6z"/>
<path class="st3" d="M279,16.6L279,16.6c-4.6,0-8.3-3.7-8.3-8.3v0c0-4.6,3.7-8.3,8.3-8.3l0,0c4.6,0,8.3,3.7,8.3,8.3v0
	C287.3,12.8,283.5,16.6,279,16.6z"/>
<path class="st3" d="M301.5,16.6L301.5,16.6c-4.6,0-8.3-3.7-8.3-8.3v0c0-4.6,3.7-8.3,8.3-8.3l0,0c4.6,0,8.3,3.7,8.3,8.3v0
	C309.8,12.8,306.1,16.6,301.5,16.6z"/>
<path class="st3" d="M324.1,16.6L324.1,16.6c-4.6,0-8.3-3.7-8.3-8.3v0c0-4.6,3.7-8.3,8.3-8.3l0,0c4.6,0,8.3,3.7,8.3,8.3v0
	C332.4,12.8,328.6,16.6,324.1,16.6z"/>
<path class="st3" d="M346.7,16.6L346.7,16.6c-4.6,0-8.3-3.7-8.3-8.3v0c0-4.6,3.7-8.3,8.3-8.3h0c4.6,0,8.3,3.7,8.3,8.3v0
	C354.9,12.8,351.2,16.6,346.7,16.6z"/>
<path class="st3" d="M369.2,16.6L369.2,16.6c-4.6,0-8.3-3.7-8.3-8.3v0c0-4.6,3.7-8.3,8.3-8.3h0c4.6,0,8.3,3.7,8.3,8.3v0
	C377.5,12.8,373.8,16.6,369.2,16.6z"/>
<path class="st4" d="M30.9,108.3L30.9,108.3c-4.6,0-8.3-3.7-8.3-8.3v0c0-4.6,3.7-8.3,8.3-8.3h0c4.6,0,8.3,3.7,8.3,8.3v0
	C39.1,104.6,35.4,108.3,30.9,108.3z"/>
<path class="st4" d="M53.4,108.3L53.4,108.3c-4.6,0-8.3-3.7-8.3-8.3v0c0-4.6,3.7-8.3,8.3-8.3h0c4.6,0,8.3,3.7,8.3,8.3v0
	C61.7,104.6,58,108.3,53.4,108.3z"/>
<path class="st4" d="M76,108.3L76,108.3c-4.6,0-8.3-3.7-8.3-8.3v0c0-4.6,3.7-8.3,8.3-8.3h0c4.6,0,8.3,3.7,8.3,8.3v0
	C84.3,104.6,80.6,108.3,76,108.3z"/>
<path class="st4" d="M98.6,108.3L98.6,108.3c-4.6,0-8.3-3.7-8.3-8.3v0c0-4.6,3.7-8.3,8.3-8.3h0c4.6,0,8.3,3.7,8.3,8.3v0
	C106.9,104.6,103.1,108.3,98.6,108.3z"/>
<path class="st4" d="M121.1,108.3L121.1,108.3c-4.6,0-8.3-3.7-8.3-8.3v0c0-4.6,3.7-8.3,8.3-8.3h0c4.6,0,8.3,3.7,8.3,8.3v0
	C129.4,104.6,125.7,108.3,121.1,108.3z"/>
<path class="st4" d="M143.7,108.3L143.7,108.3c-4.6,0-8.3-3.7-8.3-8.3v0c0-4.6,3.7-8.3,8.3-8.3h0c4.6,0,8.3,3.7,8.3,8.3v0
	C152,104.6,148.3,108.3,143.7,108.3z"/>
<path class="st4" d="M166.3,108.3L166.3,108.3c-4.6,0-8.3-3.7-8.3-8.3v0c0-4.6,3.7-8.3,8.3-8.3h0c4.6,0,8.3,3.7,8.3,8.3v0
	C174.6,104.6,170.8,108.3,166.3,108.3z"/>
<path class="st4" d="M188.8,108.3L188.8,108.3c-4.6,0-8.3-3.7-8.3-8.3v0c0-4.6,3.7-8.3,8.3-8.3h0c4.6,0,8.3,3.7,8.3,8.3v0
	C197.1,104.6,193.4,108.3,188.8,108.3z"/>
<path class="st4" d="M211.4,108.3L211.4,108.3c-4.6,0-8.3-3.7-8.3-8.3v0c0-4.6,3.7-8.3,8.3-8.3h0c4.6,0,8.3,3.7,8.3,8.3v0
	C219.7,104.6,216,108.3,211.4,108.3z"/>
<path class="st4" d="M234,108.3L234,108.3c-4.6,0-8.3-3.7-8.3-8.3v0c0-4.6,3.7-8.3,8.3-8.3h0c4.6,0,8.3,3.7,8.3,8.3v0
	C242.3,104.6,238.5,108.3,234,108.3z"/>
<path class="st4" d="M256.6,108.3L256.6,108.3c-4.6,0-8.3-3.7-8.3-8.3v0c0-4.6,3.7-8.3,8.3-8.3h0c4.6,0,8.3,3.7,8.3,8.3v0
	C264.8,104.6,261.1,108.3,256.6,108.3z"/>
<path class="st4" d="M279.1,108.3L279.1,108.3c-4.6,0-8.3-3.7-8.3-8.3v0c0-4.6,3.7-8.3,8.3-8.3h0c4.6,0,8.3,3.7,8.3,8.3v0
	C287.4,104.6,283.7,108.3,279.1,108.3z"/>
<path class="st4" d="M301.7,108.3L301.7,108.3c-4.6,0-8.3-3.7-8.3-8.3v0c0-4.6,3.7-8.3,8.3-8.3l0,0c4.6,0,8.3,3.7,8.3,8.3v0
	C310,104.6,306.3,108.3,301.7,108.3z"/>
<path class="st4" d="M324.3,108.3L324.3,108.3c-4.6,0-8.3-3.7-8.3-8.3v0c0-4.6,3.7-8.3,8.3-8.3l0,0c4.6,0,8.3,3.7,8.3,8.3v0
	C332.6,104.6,328.8,108.3,324.3,108.3z"/>
<path class="st4" d="M8.3,85.7L8.3,85.7C3.7,85.7,0,82,0,77.4v0c0-4.6,3.7-8.3,8.3-8.3h0c4.6,0,8.3,3.7,8.3,8.3v0
	C16.6,82,12.8,85.7,8.3,85.7z"/>
<path class="st4" d="M30.9,85.7L30.9,85.7c-4.6,0-8.3-3.7-8.3-8.3v0c0-4.6,3.7-8.3,8.3-8.3h0c4.6,0,8.3,3.7,8.3,8.3v0
	C39.1,82,35.4,85.7,30.9,85.7z"/>
<path class="st4" d="M53.4,85.7L53.4,85.7c-4.6,0-8.3-3.7-8.3-8.3v0c0-4.6,3.7-8.3,8.3-8.3h0c4.6,0,8.3,3.7,8.3,8.3v0
	C61.7,82,58,85.7,53.4,85.7z"/>
<path class="st4" d="M76,85.7L76,85.7c-4.6,0-8.3-3.7-8.3-8.3v0c0-4.6,3.7-8.3,8.3-8.3h0c4.6,0,8.3,3.7,8.3,8.3v0
	C84.3,82,80.6,85.7,76,85.7z"/>
<path class="st4" d="M98.6,85.7L98.6,85.7c-4.6,0-8.3-3.7-8.3-8.3v0c0-4.6,3.7-8.3,8.3-8.3h0c4.6,0,8.3,3.7,8.3,8.3v0
	C106.9,82,103.1,85.7,98.6,85.7z"/>
<path class="st4" d="M121.1,85.7L121.1,85.7c-4.6,0-8.3-3.7-8.3-8.3v0c0-4.6,3.7-8.3,8.3-8.3h0c4.6,0,8.3,3.7,8.3,8.3v0
	C129.4,82,125.7,85.7,121.1,85.7z"/>
<path class="st4" d="M143.7,85.7L143.7,85.7c-4.6,0-8.3-3.7-8.3-8.3v0c0-4.6,3.7-8.3,8.3-8.3h0c4.6,0,8.3,3.7,8.3,8.3v0
	C152,82,148.3,85.7,143.7,85.7z"/>
<path class="st4" d="M166.3,85.7L166.3,85.7c-4.6,0-8.3-3.7-8.3-8.3v0c0-4.6,3.7-8.3,8.3-8.3h0c4.6,0,8.3,3.7,8.3,8.3v0
	C174.6,82,170.8,85.7,166.3,85.7z"/>
<path class="st4" d="M188.8,85.7L188.8,85.7c-4.6,0-8.3-3.7-8.3-8.3v0c0-4.6,3.7-8.3,8.3-8.3h0c4.6,0,8.3,3.7,8.3,8.3v0
	C197.1,82,193.4,85.7,188.8,85.7z"/>
<path class="st4" d="M211.4,85.7L211.4,85.7c-4.6,0-8.3-3.7-8.3-8.3v0c0-4.6,3.7-8.3,8.3-8.3h0c4.6,0,8.3,3.7,8.3,8.3v0
	C219.7,82,216,85.7,211.4,85.7z"/>
<path class="st4" d="M234,85.7L234,85.7c-4.6,0-8.3-3.7-8.3-8.3v0c0-4.6,3.7-8.3,8.3-8.3h0c4.6,0,8.3,3.7,8.3,8.3v0
	C242.3,82,238.5,85.7,234,85.7z"/>
<path class="st4" d="M256.6,85.7L256.6,85.7c-4.6,0-8.3-3.7-8.3-8.3v0c0-4.6,3.7-8.3,8.3-8.3h0c4.6,0,8.3,3.7,8.3,8.3v0
	C264.8,82,261.1,85.7,256.6,85.7z"/>
<path class="st4" d="M279.1,85.7L279.1,85.7c-4.6,0-8.3-3.7-8.3-8.3v0c0-4.6,3.7-8.3,8.3-8.3h0c4.6,0,8.3,3.7,8.3,8.3v0
	C287.4,82,283.7,85.7,279.1,85.7z"/>
<path class="st4" d="M301.7,85.7L301.7,85.7c-4.6,0-8.3-3.7-8.3-8.3v0c0-4.6,3.7-8.3,8.3-8.3l0,0c4.6,0,8.3,3.7,8.3,8.3v0
	C310,82,306.3,85.7,301.7,85.7z"/>
<path class="st4" d="M324.3,85.7L324.3,85.7c-4.6,0-8.3-3.7-8.3-8.3v0c0-4.6,3.7-8.3,8.3-8.3l0,0c4.6,0,8.3,3.7,8.3,8.3v0
	C332.6,82,328.8,85.7,324.3,85.7z"/>
<path class="st4" d="M53.5,153.4L53.5,153.4c-4.6,0-8.3-3.7-8.3-8.3v0c0-4.6,3.7-8.3,8.3-8.3h0c4.6,0,8.3,3.7,8.3,8.3v0
	C61.7,149.7,58,153.4,53.5,153.4z"/>
<path class="st4" d="M76,153.4L76,153.4c-4.6,0-8.3-3.7-8.3-8.3v0c0-4.6,3.7-8.3,8.3-8.3h0c4.6,0,8.3,3.7,8.3,8.3v0
	C84.3,149.7,80.6,153.4,76,153.4z"/>
<path class="st4" d="M98.6,153.4L98.6,153.4c-4.6,0-8.3-3.7-8.3-8.3v0c0-4.6,3.7-8.3,8.3-8.3h0c4.6,0,8.3,3.7,8.3,8.3v0
	C106.9,149.7,103.1,153.4,98.6,153.4z"/>
<path class="st4" d="M121.2,153.4L121.2,153.4c-4.6,0-8.3-3.7-8.3-8.3v0c0-4.6,3.7-8.3,8.3-8.3h0c4.6,0,8.3,3.7,8.3,8.3v0
	C129.4,149.7,125.7,153.4,121.2,153.4z"/>
<path class="st4" d="M143.7,153.4L143.7,153.4c-4.6,0-8.3-3.7-8.3-8.3v0c0-4.6,3.7-8.3,8.3-8.3h0c4.6,0,8.3,3.7,8.3,8.3v0
	C152,149.7,148.3,153.4,143.7,153.4z"/>
<path class="st4" d="M166.3,153.4L166.3,153.4c-4.6,0-8.3-3.7-8.3-8.3v0c0-4.6,3.7-8.3,8.3-8.3h0c4.6,0,8.3,3.7,8.3,8.3v0
	C174.6,149.7,170.9,153.4,166.3,153.4z"/>
<path class="st4" d="M188.9,153.4L188.9,153.4c-4.6,0-8.3-3.7-8.3-8.3v0c0-4.6,3.7-8.3,8.3-8.3h0c4.6,0,8.3,3.7,8.3,8.3v0
	C197.2,149.7,193.4,153.4,188.9,153.4z"/>
<path class="st4" d="M211.4,153.4L211.4,153.4c-4.6,0-8.3-3.7-8.3-8.3v0c0-4.6,3.7-8.3,8.3-8.3h0c4.6,0,8.3,3.7,8.3,8.3v0
	C219.7,149.7,216,153.4,211.4,153.4z"/>
<path class="st4" d="M234,153.4L234,153.4c-4.6,0-8.3-3.7-8.3-8.3v0c0-4.6,3.7-8.3,8.3-8.3h0c4.6,0,8.3,3.7,8.3,8.3v0
	C242.3,149.7,238.6,153.4,234,153.4z"/>
<path class="st4" d="M256.6,153.4L256.6,153.4c-4.6,0-8.3-3.7-8.3-8.3v0c0-4.6,3.7-8.3,8.3-8.3l0,0c4.6,0,8.3,3.7,8.3,8.3v0
	C264.9,149.7,261.1,153.4,256.6,153.4z"/>
<path class="st4" d="M279.2,153.4L279.2,153.4c-4.6,0-8.3-3.7-8.3-8.3v0c0-4.6,3.7-8.3,8.3-8.3l0,0c4.6,0,8.3,3.7,8.3,8.3v0
	C287.4,149.7,283.7,153.4,279.2,153.4z"/>
<path class="st4" d="M301.7,153.4L301.7,153.4c-4.6,0-8.3-3.7-8.3-8.3v0c0-4.6,3.7-8.3,8.3-8.3h0c4.6,0,8.3,3.7,8.3,8.3v0
	C310,149.7,306.3,153.4,301.7,153.4z"/>
<path class="st4" d="M324.3,153.4L324.3,153.4c-4.6,0-8.3-3.7-8.3-8.3v0c0-4.6,3.7-8.3,8.3-8.3h0c4.6,0,8.3,3.7,8.3,8.3v0
	C332.6,149.7,328.9,153.4,324.3,153.4z"/>
<path class="st4" d="M121.2,334L121.2,334c-4.6,0-8.3-3.7-8.3-8.3l0,0c0-4.6,3.7-8.3,8.3-8.3h0c4.6,0,8.3,3.7,8.3,8.3l0,0
	C129.4,330.3,125.7,334,121.2,334z"/>
<path class="st4" d="M143.7,334L143.7,334c-4.6,0-8.3-3.7-8.3-8.3l0,0c0-4.6,3.7-8.3,8.3-8.3h0c4.6,0,8.3,3.7,8.3,8.3l0,0
	C152,330.3,148.3,334,143.7,334z"/>
<path class="st4" d="M166.3,334L166.3,334c-4.6,0-8.3-3.7-8.3-8.3l0,0c0-4.6,3.7-8.3,8.3-8.3h0c4.6,0,8.3,3.7,8.3,8.3l0,0
	C174.6,330.3,170.9,334,166.3,334z"/>
<path class="st4" d="M188.9,334L188.9,334c-4.6,0-8.3-3.7-8.3-8.3l0,0c0-4.6,3.7-8.3,8.3-8.3h0c4.6,0,8.3,3.7,8.3,8.3l0,0
	C197.2,330.3,193.4,334,188.9,334z"/>
<path class="st4" d="M211.4,334L211.4,334c-4.6,0-8.3-3.7-8.3-8.3l0,0c0-4.6,3.7-8.3,8.3-8.3h0c4.6,0,8.3,3.7,8.3,8.3l0,0
	C219.7,330.3,216,334,211.4,334z"/>
<path class="st4" d="M234,334L234,334c-4.6,0-8.3-3.7-8.3-8.3l0,0c0-4.6,3.7-8.3,8.3-8.3h0c4.6,0,8.3,3.7,8.3,8.3l0,0
	C242.3,330.3,238.6,334,234,334z"/>
<path class="st4" d="M256.6,334L256.6,334c-4.6,0-8.3-3.7-8.3-8.3l0,0c0-4.6,3.7-8.3,8.3-8.3l0,0c4.6,0,8.3,3.7,8.3,8.3l0,0
	C264.9,330.3,261.1,334,256.6,334z"/>
<path class="st4" d="M279.2,334L279.2,334c-4.6,0-8.3-3.7-8.3-8.3l0,0c0-4.6,3.7-8.3,8.3-8.3l0,0c4.6,0,8.3,3.7,8.3,8.3l0,0
	C287.4,330.3,283.7,334,279.2,334z"/>
<path class="st4" d="M121.2,356.6L121.2,356.6c-4.6,0-8.3-3.7-8.3-8.3v0c0-4.6,3.7-8.3,8.3-8.3h0c4.6,0,8.3,3.7,8.3,8.3v0
	C129.4,352.9,125.7,356.6,121.2,356.6z"/>
<path class="st4" d="M143.7,356.6L143.7,356.6c-4.6,0-8.3-3.7-8.3-8.3v0c0-4.6,3.7-8.3,8.3-8.3h0c4.6,0,8.3,3.7,8.3,8.3v0
	C152,352.9,148.3,356.6,143.7,356.6z"/>
<path class="st4" d="M166.3,356.6L166.3,356.6c-4.6,0-8.3-3.7-8.3-8.3v0c0-4.6,3.7-8.3,8.3-8.3h0c4.6,0,8.3,3.7,8.3,8.3v0
	C174.6,352.9,170.9,356.6,166.3,356.6z"/>
<path class="st4" d="M188.9,356.6L188.9,356.6c-4.6,0-8.3-3.7-8.3-8.3v0c0-4.6,3.7-8.3,8.3-8.3h0c4.6,0,8.3,3.7,8.3,8.3v0
	C197.2,352.9,193.4,356.6,188.9,356.6z"/>
<path class="st4" d="M211.4,356.6L211.4,356.6c-4.6,0-8.3-3.7-8.3-8.3v0c0-4.6,3.7-8.3,8.3-8.3h0c4.6,0,8.3,3.7,8.3,8.3v0
	C219.7,352.9,216,356.6,211.4,356.6z"/>
<path class="st4" d="M234,356.6L234,356.6c-4.6,0-8.3-3.7-8.3-8.3v0c0-4.6,3.7-8.3,8.3-8.3h0c4.6,0,8.3,3.7,8.3,8.3v0
	C242.3,352.9,238.6,356.6,234,356.6z"/>
<path class="st4" d="M256.6,356.6L256.6,356.6c-4.6,0-8.3-3.7-8.3-8.3v0c0-4.6,3.7-8.3,8.3-8.3l0,0c4.6,0,8.3,3.7,8.3,8.3v0
	C264.9,352.9,261.1,356.6,256.6,356.6z"/>
<path class="st4" d="M279.2,356.6L279.2,356.6c-4.6,0-8.3-3.7-8.3-8.3v0c0-4.6,3.7-8.3,8.3-8.3l0,0c4.6,0,8.3,3.7,8.3,8.3v0
	C287.4,352.9,283.7,356.6,279.2,356.6z"/>
<path class="st4" d="M143.7,379.2L143.7,379.2c-4.6,0-8.3-3.7-8.3-8.3l0,0c0-4.6,3.7-8.3,8.3-8.3h0c4.6,0,8.3,3.7,8.3,8.3l0,0
	C152,375.5,148.3,379.2,143.7,379.2z"/>
<path class="st4" d="M166.3,379.2L166.3,379.2c-4.6,0-8.3-3.7-8.3-8.3l0,0c0-4.6,3.7-8.3,8.3-8.3h0c4.6,0,8.3,3.7,8.3,8.3l0,0
	C174.6,375.5,170.9,379.2,166.3,379.2z"/>
<path class="st4" d="M188.9,379.2L188.9,379.2c-4.6,0-8.3-3.7-8.3-8.3l0,0c0-4.6,3.7-8.3,8.3-8.3h0c4.6,0,8.3,3.7,8.3,8.3l0,0
	C197.2,375.5,193.4,379.2,188.9,379.2z"/>
<path class="st4" d="M211.4,379.2L211.4,379.2c-4.6,0-8.3-3.7-8.3-8.3l0,0c0-4.6,3.7-8.3,8.3-8.3h0c4.6,0,8.3,3.7,8.3,8.3l0,0
	C219.7,375.5,216,379.2,211.4,379.2z"/>
<path class="st4" d="M234,379.2L234,379.2c-4.6,0-8.3-3.7-8.3-8.3l0,0c0-4.6,3.7-8.3,8.3-8.3h0c4.6,0,8.3,3.7,8.3,8.3l0,0
	C242.3,375.5,238.6,379.2,234,379.2z"/>
<path class="st4" d="M256.6,379.2L256.6,379.2c-4.6,0-8.3-3.7-8.3-8.3l0,0c0-4.6,3.7-8.3,8.3-8.3l0,0c4.6,0,8.3,3.7,8.3,8.3l0,0
	C264.9,375.5,261.1,379.2,256.6,379.2z"/>
<path class="st4" d="M279.2,379.2L279.2,379.2c-4.6,0-8.3-3.7-8.3-8.3l0,0c0-4.6,3.7-8.3,8.3-8.3l0,0c4.6,0,8.3,3.7,8.3,8.3l0,0
	C287.4,375.5,283.7,379.2,279.2,379.2z"/>
<path class="st4" d="M143.7,401.8L143.7,401.8c-4.6,0-8.3-3.7-8.3-8.3v0c0-4.6,3.7-8.3,8.3-8.3h0c4.6,0,8.3,3.7,8.3,8.3v0
	C152,398,148.3,401.8,143.7,401.8z"/>
<path class="st4" d="M166.3,401.8L166.3,401.8c-4.6,0-8.3-3.7-8.3-8.3v0c0-4.6,3.7-8.3,8.3-8.3h0c4.6,0,8.3,3.7,8.3,8.3v0
	C174.6,398,170.9,401.8,166.3,401.8z"/>
<path class="st4" d="M188.9,401.8L188.9,401.8c-4.6,0-8.3-3.7-8.3-8.3v0c0-4.6,3.7-8.3,8.3-8.3h0c4.6,0,8.3,3.7,8.3,8.3v0
	C197.2,398,193.4,401.8,188.9,401.8z"/>
<path class="st4" d="M211.4,401.8L211.4,401.8c-4.6,0-8.3-3.7-8.3-8.3v0c0-4.6,3.7-8.3,8.3-8.3h0c4.6,0,8.3,3.7,8.3,8.3v0
	C219.7,398,216,401.8,211.4,401.8z"/>
<path class="st4" d="M234,401.8L234,401.8c-4.6,0-8.3-3.7-8.3-8.3v0c0-4.6,3.7-8.3,8.3-8.3h0c4.6,0,8.3,3.7,8.3,8.3v0
	C242.3,398,238.6,401.8,234,401.8z"/>
<path class="st4" d="M256.6,401.8L256.6,401.8c-4.6,0-8.3-3.7-8.3-8.3v0c0-4.6,3.7-8.3,8.3-8.3l0,0c4.6,0,8.3,3.7,8.3,8.3v0
	C264.9,398,261.1,401.8,256.6,401.8z"/>
<path class="st4" d="M279.2,401.8L279.2,401.8c-4.6,0-8.3-3.7-8.3-8.3v0c0-4.6,3.7-8.3,8.3-8.3l0,0c4.6,0,8.3,3.7,8.3,8.3v0
	C287.4,398,283.7,401.8,279.2,401.8z"/>
<path class="st4" d="M166.3,424.4L166.3,424.4c-4.6,0-8.3-3.7-8.3-8.3l0,0c0-4.6,3.7-8.3,8.3-8.3h0c4.6,0,8.3,3.7,8.3,8.3l0,0
	C174.6,420.7,170.9,424.4,166.3,424.4z"/>
<path class="st4" d="M188.9,424.4L188.9,424.4c-4.6,0-8.3-3.7-8.3-8.3l0,0c0-4.6,3.7-8.3,8.3-8.3h0c4.6,0,8.3,3.7,8.3,8.3l0,0
	C197.2,420.7,193.4,424.4,188.9,424.4z"/>
<path class="st4" d="M211.4,424.4L211.4,424.4c-4.6,0-8.3-3.7-8.3-8.3l0,0c0-4.6,3.7-8.3,8.3-8.3h0c4.6,0,8.3,3.7,8.3,8.3l0,0
	C219.7,420.7,216,424.4,211.4,424.4z"/>
<path class="st4" d="M234,424.4L234,424.4c-4.6,0-8.3-3.7-8.3-8.3l0,0c0-4.6,3.7-8.3,8.3-8.3h0c4.6,0,8.3,3.7,8.3,8.3l0,0
	C242.3,420.7,238.6,424.4,234,424.4z"/>
<path class="st4" d="M256.6,424.4L256.6,424.4c-4.6,0-8.3-3.7-8.3-8.3l0,0c0-4.6,3.7-8.3,8.3-8.3l0,0c4.6,0,8.3,3.7,8.3,8.3l0,0
	C264.9,420.7,261.1,424.4,256.6,424.4z"/>
<path class="st4" d="M279.2,424.4L279.2,424.4c-4.6,0-8.3-3.7-8.3-8.3l0,0c0-4.6,3.7-8.3,8.3-8.3l0,0c4.6,0,8.3,3.7,8.3,8.3l0,0
	C287.4,420.7,283.7,424.4,279.2,424.4z"/>
<path class="st4" d="M166.3,447L166.3,447c-4.6,0-8.3-3.7-8.3-8.3l0,0c0-4.6,3.7-8.3,8.3-8.3h0c4.6,0,8.3,3.7,8.3,8.3l0,0
	C174.6,443.2,170.9,447,166.3,447z"/>
<path class="st4" d="M188.9,447L188.9,447c-4.6,0-8.3-3.7-8.3-8.3l0,0c0-4.6,3.7-8.3,8.3-8.3h0c4.6,0,8.3,3.7,8.3,8.3l0,0
	C197.2,443.2,193.4,447,188.9,447z"/>
<path class="st4" d="M211.4,447L211.4,447c-4.6,0-8.3-3.7-8.3-8.3l0,0c0-4.6,3.7-8.3,8.3-8.3h0c4.6,0,8.3,3.7,8.3,8.3l0,0
	C219.7,443.2,216,447,211.4,447z"/>
<path class="st4" d="M234,447L234,447c-4.6,0-8.3-3.7-8.3-8.3l0,0c0-4.6,3.7-8.3,8.3-8.3h0c4.6,0,8.3,3.7,8.3,8.3l0,0
	C242.3,443.2,238.6,447,234,447z"/>
<path class="st4" d="M256.6,447L256.6,447c-4.6,0-8.3-3.7-8.3-8.3l0,0c0-4.6,3.7-8.3,8.3-8.3l0,0c4.6,0,8.3,3.7,8.3,8.3l0,0
	C264.9,443.2,261.1,447,256.6,447z"/>
<path class="st4" d="M279.2,447L279.2,447c-4.6,0-8.3-3.7-8.3-8.3l0,0c0-4.6,3.7-8.3,8.3-8.3l0,0c4.6,0,8.3,3.7,8.3,8.3l0,0
	C287.4,443.2,283.7,447,279.2,447z"/>
<path class="st4" d="M301.7,447L301.7,447c-4.6,0-8.3-3.7-8.3-8.3l0,0c0-4.6,3.7-8.3,8.3-8.3h0c4.6,0,8.3,3.7,8.3,8.3l0,0
	C310,443.2,306.3,447,301.7,447z"/>
<path class="st4" d="M324.3,447L324.3,447c-4.6,0-8.3-3.7-8.3-8.3l0,0c0-4.6,3.7-8.3,8.3-8.3h0c4.6,0,8.3,3.7,8.3,8.3l0,0
	C332.6,443.2,328.9,447,324.3,447z"/>
<path class="st4" d="M256.6,469.6L256.6,469.6c-4.6,0-8.3-3.7-8.3-8.3v0c0-4.6,3.7-8.3,8.3-8.3h0c4.6,0,8.3,3.7,8.3,8.3v0
	C264.9,465.9,261.2,469.6,256.6,469.6z"/>
<path class="st4" d="M279.2,469.6L279.2,469.6c-4.6,0-8.3-3.7-8.3-8.3v0c0-4.6,3.7-8.3,8.3-8.3h0c4.6,0,8.3,3.7,8.3,8.3v0
	C287.5,465.9,283.7,469.6,279.2,469.6z"/>
<path class="st4" d="M301.7,469.6L301.7,469.6c-4.6,0-8.3-3.7-8.3-8.3v0c0-4.6,3.7-8.3,8.3-8.3l0,0c4.6,0,8.3,3.7,8.3,8.3v0
	C310,465.9,306.3,469.6,301.7,469.6z"/>
<path class="st4" d="M256.6,492.2L256.6,492.2c-4.6,0-8.3-3.7-8.3-8.3v0c0-4.6,3.7-8.3,8.3-8.3h0c4.6,0,8.3,3.7,8.3,8.3v0
	C264.9,488.4,261.2,492.2,256.6,492.2z"/>
<path class="st4" d="M279.2,492.2L279.2,492.2c-4.6,0-8.3-3.7-8.3-8.3v0c0-4.6,3.7-8.3,8.3-8.3h0c4.6,0,8.3,3.7,8.3,8.3v0
	C287.5,488.4,283.7,492.2,279.2,492.2z"/>
<path class="st4" d="M301.7,492.2L301.7,492.2c-4.6,0-8.3-3.7-8.3-8.3v0c0-4.6,3.7-8.3,8.3-8.3l0,0c4.6,0,8.3,3.7,8.3,8.3v0
	C310,488.4,306.3,492.2,301.7,492.2z"/>
<path class="st4" d="M256.6,514.8L256.6,514.8c-4.6,0-8.3-3.7-8.3-8.3v0c0-4.6,3.7-8.3,8.3-8.3h0c4.6,0,8.3,3.7,8.3,8.3v0
	C264.9,511.1,261.2,514.8,256.6,514.8z"/>
<path class="st4" d="M279.2,514.8L279.2,514.8c-4.6,0-8.3-3.7-8.3-8.3v0c0-4.6,3.7-8.3,8.3-8.3h0c4.6,0,8.3,3.7,8.3,8.3v0
	C287.5,511.1,283.7,514.8,279.2,514.8z"/>
<path class="st4" d="M301.7,514.8L301.7,514.8c-4.6,0-8.3-3.7-8.3-8.3v0c0-4.6,3.7-8.3,8.3-8.3l0,0c4.6,0,8.3,3.7,8.3,8.3v0
	C310,511.1,306.3,514.8,301.7,514.8z"/>
<path class="st4" d="M256.6,537.3L256.6,537.3c-4.6,0-8.3-3.7-8.3-8.3l0,0c0-4.6,3.7-8.3,8.3-8.3h0c4.6,0,8.3,3.7,8.3,8.3l0,0
	C264.9,533.6,261.2,537.3,256.6,537.3z"/>
<path class="st4" d="M279.2,537.3L279.2,537.3c-4.6,0-8.3-3.7-8.3-8.3l0,0c0-4.6,3.7-8.3,8.3-8.3h0c4.6,0,8.3,3.7,8.3,8.3l0,0
	C287.5,533.6,283.7,537.3,279.2,537.3z"/>
<path class="st4" d="M301.7,537.3L301.7,537.3c-4.6,0-8.3-3.7-8.3-8.3l0,0c0-4.6,3.7-8.3,8.3-8.3l0,0c4.6,0,8.3,3.7,8.3,8.3l0,0
	C310,533.6,306.3,537.3,301.7,537.3z"/>
<path class="st4" d="M256.6,560L256.6,560c-4.6,0-8.3-3.7-8.3-8.3v0c0-4.6,3.7-8.3,8.3-8.3h0c4.6,0,8.3,3.7,8.3,8.3v0
	C264.9,556.3,261.2,560,256.6,560z"/>
<path class="st4" d="M279.2,560L279.2,560c-4.6,0-8.3-3.7-8.3-8.3v0c0-4.6,3.7-8.3,8.3-8.3h0c4.6,0,8.3,3.7,8.3,8.3v0
	C287.5,556.3,283.7,560,279.2,560z"/>
<path class="st4" d="M301.7,560L301.7,560c-4.6,0-8.3-3.7-8.3-8.3v0c0-4.6,3.7-8.3,8.3-8.3l0,0c4.6,0,8.3,3.7,8.3,8.3v0
	C310,556.3,306.3,560,301.7,560z"/>
<path class="st4" d="M256.6,582.5L256.6,582.5c-4.6,0-8.3-3.7-8.3-8.3l0,0c0-4.6,3.7-8.3,8.3-8.3h0c4.6,0,8.3,3.7,8.3,8.3l0,0
	C264.9,578.8,261.2,582.5,256.6,582.5z"/>
<path class="st4" d="M279.2,582.5L279.2,582.5c-4.6,0-8.3-3.7-8.3-8.3l0,0c0-4.6,3.7-8.3,8.3-8.3h0c4.6,0,8.3,3.7,8.3,8.3l0,0
	C287.5,578.8,283.7,582.5,279.2,582.5z"/>
<path class="st4" d="M301.7,582.5L301.7,582.5c-4.6,0-8.3-3.7-8.3-8.3l0,0c0-4.6,3.7-8.3,8.3-8.3l0,0c4.6,0,8.3,3.7,8.3,8.3l0,0
	C310,578.8,306.3,582.5,301.7,582.5z"/>
<path class="st4" d="M30.9,130.9L30.9,130.9c-4.6,0-8.3-3.7-8.3-8.3v0c0-4.6,3.7-8.3,8.3-8.3h0c4.6,0,8.3,3.7,8.3,8.3v0
	C39.2,127.1,35.4,130.9,30.9,130.9z"/>
<path class="st4" d="M53.5,130.9L53.5,130.9c-4.6,0-8.3-3.7-8.3-8.3v0c0-4.6,3.7-8.3,8.3-8.3h0c4.6,0,8.3,3.7,8.3,8.3v0
	C61.7,127.1,58,130.9,53.5,130.9z"/>
<path class="st4" d="M76,130.9L76,130.9c-4.6,0-8.3-3.7-8.3-8.3v0c0-4.6,3.7-8.3,8.3-8.3h0c4.6,0,8.3,3.7,8.3,8.3v0
	C84.3,127.1,80.6,130.9,76,130.9z"/>
<path class="st4" d="M98.6,130.9L98.6,130.9c-4.6,0-8.3-3.7-8.3-8.3v0c0-4.6,3.7-8.3,8.3-8.3h0c4.6,0,8.3,3.7,8.3,8.3v0
	C106.9,127.1,103.1,130.9,98.6,130.9z"/>
<path class="st4" d="M121.2,130.9L121.2,130.9c-4.6,0-8.3-3.7-8.3-8.3v0c0-4.6,3.7-8.3,8.3-8.3h0c4.6,0,8.3,3.7,8.3,8.3v0
	C129.4,127.1,125.7,130.9,121.2,130.9z"/>
<path class="st4" d="M143.7,130.9L143.7,130.9c-4.6,0-8.3-3.7-8.3-8.3v0c0-4.6,3.7-8.3,8.3-8.3h0c4.6,0,8.3,3.7,8.3,8.3v0
	C152,127.1,148.3,130.9,143.7,130.9z"/>
<path class="st4" d="M166.3,130.9L166.3,130.9c-4.6,0-8.3-3.7-8.3-8.3v0c0-4.6,3.7-8.3,8.3-8.3h0c4.6,0,8.3,3.7,8.3,8.3v0
	C174.6,127.1,170.9,130.9,166.3,130.9z"/>
<path class="st4" d="M188.9,130.9L188.9,130.9c-4.6,0-8.3-3.7-8.3-8.3v0c0-4.6,3.7-8.3,8.3-8.3h0c4.6,0,8.3,3.7,8.3,8.3v0
	C197.2,127.1,193.4,130.9,188.9,130.9z"/>
<path class="st4" d="M211.4,130.9L211.4,130.9c-4.6,0-8.3-3.7-8.3-8.3v0c0-4.6,3.7-8.3,8.3-8.3h0c4.6,0,8.3,3.7,8.3,8.3v0
	C219.7,127.1,216,130.9,211.4,130.9z"/>
<path class="st4" d="M234,130.9L234,130.9c-4.6,0-8.3-3.7-8.3-8.3v0c0-4.6,3.7-8.3,8.3-8.3h0c4.6,0,8.3,3.7,8.3,8.3v0
	C242.3,127.1,238.6,130.9,234,130.9z"/>
<path class="st4" d="M256.6,130.9L256.6,130.9c-4.6,0-8.3-3.7-8.3-8.3v0c0-4.6,3.7-8.3,8.3-8.3l0,0c4.6,0,8.3,3.7,8.3,8.3v0
	C264.9,127.1,261.1,130.9,256.6,130.9z"/>
<path class="st4" d="M279.2,130.9L279.2,130.9c-4.6,0-8.3-3.7-8.3-8.3v0c0-4.6,3.7-8.3,8.3-8.3l0,0c4.6,0,8.3,3.7,8.3,8.3v0
	C287.4,127.1,283.7,130.9,279.2,130.9z"/>
<path class="st4" d="M301.7,130.9L301.7,130.9c-4.6,0-8.3-3.7-8.3-8.3v0c0-4.6,3.7-8.3,8.3-8.3h0c4.6,0,8.3,3.7,8.3,8.3v0
	C310,127.1,306.3,130.9,301.7,130.9z"/>
<path class="st4" d="M324.3,130.9L324.3,130.9c-4.6,0-8.3-3.7-8.3-8.3v0c0-4.6,3.7-8.3,8.3-8.3h0c4.6,0,8.3,3.7,8.3,8.3v0
	C332.6,127.1,328.9,130.9,324.3,130.9z"/>
<path class="st4" d="M53.5,176L53.5,176c-4.6,0-8.3-3.7-8.3-8.3v0c0-4.6,3.7-8.3,8.3-8.3h0c4.6,0,8.3,3.7,8.3,8.3v0
	C61.8,172.3,58,176,53.5,176z"/>
<path class="st4" d="M76,176L76,176c-4.6,0-8.3-3.7-8.3-8.3v0c0-4.6,3.7-8.3,8.3-8.3h0c4.6,0,8.3,3.7,8.3,8.3v0
	C84.3,172.3,80.6,176,76,176z"/>
<path class="st4" d="M98.6,176L98.6,176c-4.6,0-8.3-3.7-8.3-8.3v0c0-4.6,3.7-8.3,8.3-8.3h0c4.6,0,8.3,3.7,8.3,8.3v0
	C106.9,172.3,103.2,176,98.6,176z"/>
<path class="st4" d="M121.2,176L121.2,176c-4.6,0-8.3-3.7-8.3-8.3v0c0-4.6,3.7-8.3,8.3-8.3h0c4.6,0,8.3,3.7,8.3,8.3v0
	C129.5,172.3,125.7,176,121.2,176z"/>
<path class="st4" d="M143.8,176L143.8,176c-4.6,0-8.3-3.7-8.3-8.3v0c0-4.6,3.7-8.3,8.3-8.3h0c4.6,0,8.3,3.7,8.3,8.3v0
	C152,172.3,148.3,176,143.8,176z"/>
<path class="st4" d="M166.3,176L166.3,176c-4.6,0-8.3-3.7-8.3-8.3v0c0-4.6,3.7-8.3,8.3-8.3h0c4.6,0,8.3,3.7,8.3,8.3v0
	C174.6,172.3,170.9,176,166.3,176z"/>
<path class="st4" d="M188.9,176L188.9,176c-4.6,0-8.3-3.7-8.3-8.3v0c0-4.6,3.7-8.3,8.3-8.3h0c4.6,0,8.3,3.7,8.3,8.3v0
	C197.2,172.3,193.4,176,188.9,176z"/>
<path class="st4" d="M211.5,176L211.5,176c-4.6,0-8.3-3.7-8.3-8.3v0c0-4.6,3.7-8.3,8.3-8.3h0c4.6,0,8.3,3.7,8.3,8.3v0
	C219.7,172.3,216,176,211.5,176z"/>
<path class="st4" d="M234,176L234,176c-4.6,0-8.3-3.7-8.3-8.3v0c0-4.6,3.7-8.3,8.3-8.3h0c4.6,0,8.3,3.7,8.3,8.3v0
	C242.3,172.3,238.6,176,234,176z"/>
<path class="st4" d="M76,221.1L76,221.1c-4.6,0-8.3-3.7-8.3-8.3v0c0-4.6,3.7-8.3,8.3-8.3h0c4.6,0,8.3,3.7,8.3,8.3v0
	C84.3,217.4,80.6,221.1,76,221.1z"/>
<path class="st4" d="M98.6,221.1L98.6,221.1c-4.6,0-8.3-3.7-8.3-8.3v0c0-4.6,3.7-8.3,8.3-8.3h0c4.6,0,8.3,3.7,8.3,8.3v0
	C106.9,217.4,103.1,221.1,98.6,221.1z"/>
<path class="st4" d="M121.2,221.1L121.2,221.1c-4.6,0-8.3-3.7-8.3-8.3v0c0-4.6,3.7-8.3,8.3-8.3h0c4.6,0,8.3,3.7,8.3,8.3v0
	C129.4,217.4,125.7,221.1,121.2,221.1z"/>
<path class="st4" d="M143.7,221.1L143.7,221.1c-4.6,0-8.3-3.7-8.3-8.3v0c0-4.6,3.7-8.3,8.3-8.3h0c4.6,0,8.3,3.7,8.3,8.3v0
	C152,217.4,148.3,221.1,143.7,221.1z"/>
<path class="st4" d="M166.3,221.1L166.3,221.1c-4.6,0-8.3-3.7-8.3-8.3v0c0-4.6,3.7-8.3,8.3-8.3h0c4.6,0,8.3,3.7,8.3,8.3v0
	C174.6,217.4,170.9,221.1,166.3,221.1z"/>
<path class="st4" d="M188.9,221.1L188.9,221.1c-4.6,0-8.3-3.7-8.3-8.3v0c0-4.6,3.7-8.3,8.3-8.3h0c4.6,0,8.3,3.7,8.3,8.3v0
	C197.2,217.4,193.4,221.1,188.9,221.1z"/>
<path class="st4" d="M211.4,221.1L211.4,221.1c-4.6,0-8.3-3.7-8.3-8.3v0c0-4.6,3.7-8.3,8.3-8.3h0c4.6,0,8.3,3.7,8.3,8.3v0
	C219.7,217.4,216,221.1,211.4,221.1z"/>
<path class="st4" d="M234,221.1L234,221.1c-4.6,0-8.3-3.7-8.3-8.3v0c0-4.6,3.7-8.3,8.3-8.3h0c4.6,0,8.3,3.7,8.3,8.3v0
	C242.3,217.4,238.6,221.1,234,221.1z"/>
<path class="st4" d="M76,198.6L76,198.6c-4.6,0-8.3-3.7-8.3-8.3v0c0-4.6,3.7-8.3,8.3-8.3h0c4.6,0,8.3,3.7,8.3,8.3v0
	C84.3,194.8,80.6,198.6,76,198.6z"/>
<path class="st4" d="M98.6,198.6L98.6,198.6c-4.6,0-8.3-3.7-8.3-8.3v0c0-4.6,3.7-8.3,8.3-8.3h0c4.6,0,8.3,3.7,8.3,8.3v0
	C106.9,194.8,103.1,198.6,98.6,198.6z"/>
<path class="st4" d="M121.2,198.6L121.2,198.6c-4.6,0-8.3-3.7-8.3-8.3v0c0-4.6,3.7-8.3,8.3-8.3h0c4.6,0,8.3,3.7,8.3,8.3v0
	C129.4,194.8,125.7,198.6,121.2,198.6z"/>
<path class="st4" d="M143.7,198.6L143.7,198.6c-4.6,0-8.3-3.7-8.3-8.3v0c0-4.6,3.7-8.3,8.3-8.3h0c4.6,0,8.3,3.7,8.3,8.3v0
	C152,194.8,148.3,198.6,143.7,198.6z"/>
<path class="st4" d="M166.3,198.6L166.3,198.6c-4.6,0-8.3-3.7-8.3-8.3v0c0-4.6,3.7-8.3,8.3-8.3h0c4.6,0,8.3,3.7,8.3,8.3v0
	C174.6,194.8,170.9,198.6,166.3,198.6z"/>
<path class="st4" d="M188.9,198.6L188.9,198.6c-4.6,0-8.3-3.7-8.3-8.3v0c0-4.6,3.7-8.3,8.3-8.3h0c4.6,0,8.3,3.7,8.3,8.3v0
	C197.2,194.8,193.4,198.6,188.9,198.6z"/>
<path class="st4" d="M211.4,198.6L211.4,198.6c-4.6,0-8.3-3.7-8.3-8.3v0c0-4.6,3.7-8.3,8.3-8.3h0c4.6,0,8.3,3.7,8.3,8.3v0
	C219.7,194.8,216,198.6,211.4,198.6z"/>
<path class="st4" d="M234,198.6L234,198.6c-4.6,0-8.3-3.7-8.3-8.3v0c0-4.6,3.7-8.3,8.3-8.3h0c4.6,0,8.3,3.7,8.3,8.3v0
	C242.3,194.8,238.6,198.6,234,198.6z"/>
<path class="st4" d="M76,243.7L76,243.7c-4.6,0-8.3-3.7-8.3-8.3v0c0-4.6,3.7-8.3,8.3-8.3h0c4.6,0,8.3,3.7,8.3,8.3v0
	C84.3,240,80.6,243.7,76,243.7z"/>
<path class="st4" d="M98.6,243.7L98.6,243.7c-4.6,0-8.3-3.7-8.3-8.3v0c0-4.6,3.7-8.3,8.3-8.3h0c4.6,0,8.3,3.7,8.3,8.3v0
	C106.9,240,103.2,243.7,98.6,243.7z"/>
<path class="st4" d="M121.2,243.7L121.2,243.7c-4.6,0-8.3-3.7-8.3-8.3v0c0-4.6,3.7-8.3,8.3-8.3h0c4.6,0,8.3,3.7,8.3,8.3v0
	C129.5,240,125.7,243.7,121.2,243.7z"/>
<path class="st4" d="M143.8,243.7L143.8,243.7c-4.6,0-8.3-3.7-8.3-8.3v0c0-4.6,3.7-8.3,8.3-8.3h0c4.6,0,8.3,3.7,8.3,8.3v0
	C152,240,148.3,243.7,143.8,243.7z"/>
<path class="st4" d="M166.3,243.7L166.3,243.7c-4.6,0-8.3-3.7-8.3-8.3v0c0-4.6,3.7-8.3,8.3-8.3h0c4.6,0,8.3,3.7,8.3,8.3v0
	C174.6,240,170.9,243.7,166.3,243.7z"/>
<path class="st4" d="M188.9,243.7L188.9,243.7c-4.6,0-8.3-3.7-8.3-8.3v0c0-4.6,3.7-8.3,8.3-8.3h0c4.6,0,8.3,3.7,8.3,8.3v0
	C197.2,240,193.4,243.7,188.9,243.7z"/>
<path class="st4" d="M211.5,243.7L211.5,243.7c-4.6,0-8.3-3.7-8.3-8.3v0c0-4.6,3.7-8.3,8.3-8.3h0c4.6,0,8.3,3.7,8.3,8.3v0
	C219.7,240,216,243.7,211.5,243.7z"/>
<path class="st4" d="M234,243.7L234,243.7c-4.6,0-8.3-3.7-8.3-8.3v0c0-4.6,3.7-8.3,8.3-8.3h0c4.6,0,8.3,3.7,8.3,8.3v0
	C242.3,240,238.6,243.7,234,243.7z"/>
<path class="st4" d="M98.6,288.8L98.6,288.8c-4.6,0-8.3-3.7-8.3-8.3v0c0-4.6,3.7-8.3,8.3-8.3h0c4.6,0,8.3,3.7,8.3,8.3v0
	C106.9,285.1,103.1,288.8,98.6,288.8z"/>
<path class="st4" d="M121.2,288.8L121.2,288.8c-4.6,0-8.3-3.7-8.3-8.3v0c0-4.6,3.7-8.3,8.3-8.3h0c4.6,0,8.3,3.7,8.3,8.3v0
	C129.4,285.1,125.7,288.8,121.2,288.8z"/>
<path class="st4" d="M143.7,288.8L143.7,288.8c-4.6,0-8.3-3.7-8.3-8.3v0c0-4.6,3.7-8.3,8.3-8.3h0c4.6,0,8.3,3.7,8.3,8.3v0
	C152,285.1,148.3,288.8,143.7,288.8z"/>
<path class="st4" d="M166.3,288.8L166.3,288.8c-4.6,0-8.3-3.7-8.3-8.3v0c0-4.6,3.7-8.3,8.3-8.3h0c4.6,0,8.3,3.7,8.3,8.3v0
	C174.6,285.1,170.9,288.8,166.3,288.8z"/>
<path class="st4" d="M188.9,288.8L188.9,288.8c-4.6,0-8.3-3.7-8.3-8.3v0c0-4.6,3.7-8.3,8.3-8.3h0c4.6,0,8.3,3.7,8.3,8.3v0
	C197.2,285.1,193.4,288.8,188.9,288.8z"/>
<path class="st4" d="M211.4,288.8L211.4,288.8c-4.6,0-8.3-3.7-8.3-8.3v0c0-4.6,3.7-8.3,8.3-8.3h0c4.6,0,8.3,3.7,8.3,8.3v0
	C219.7,285.1,216,288.8,211.4,288.8z"/>
<path class="st4" d="M234,288.8L234,288.8c-4.6,0-8.3-3.7-8.3-8.3v0c0-4.6,3.7-8.3,8.3-8.3h0c4.6,0,8.3,3.7,8.3,8.3v0
	C242.3,285.1,238.6,288.8,234,288.8z"/>
<path class="st4" d="M76,266.3L76,266.3c-4.6,0-8.3-3.7-8.3-8.3l0,0c0-4.6,3.7-8.3,8.3-8.3h0c4.6,0,8.3,3.7,8.3,8.3l0,0
	C84.3,262.5,80.6,266.3,76,266.3z"/>
<path class="st4" d="M98.6,266.3L98.6,266.3c-4.6,0-8.3-3.7-8.3-8.3l0,0c0-4.6,3.7-8.3,8.3-8.3h0c4.6,0,8.3,3.7,8.3,8.3l0,0
	C106.9,262.5,103.1,266.3,98.6,266.3z"/>
<path class="st4" d="M121.2,266.3L121.2,266.3c-4.6,0-8.3-3.7-8.3-8.3l0,0c0-4.6,3.7-8.3,8.3-8.3h0c4.6,0,8.3,3.7,8.3,8.3l0,0
	C129.4,262.5,125.7,266.3,121.2,266.3z"/>
<path class="st4" d="M143.7,266.3L143.7,266.3c-4.6,0-8.3-3.7-8.3-8.3l0,0c0-4.6,3.7-8.3,8.3-8.3h0c4.6,0,8.3,3.7,8.3,8.3l0,0
	C152,262.5,148.3,266.3,143.7,266.3z"/>
<path class="st4" d="M166.3,266.3L166.3,266.3c-4.6,0-8.3-3.7-8.3-8.3l0,0c0-4.6,3.7-8.3,8.3-8.3h0c4.6,0,8.3,3.7,8.3,8.3l0,0
	C174.6,262.5,170.9,266.3,166.3,266.3z"/>
<path class="st4" d="M188.9,266.3L188.9,266.3c-4.6,0-8.3-3.7-8.3-8.3l0,0c0-4.6,3.7-8.3,8.3-8.3h0c4.6,0,8.3,3.7,8.3,8.3l0,0
	C197.2,262.5,193.4,266.3,188.9,266.3z"/>
<path class="st4" d="M211.4,266.3L211.4,266.3c-4.6,0-8.3-3.7-8.3-8.3l0,0c0-4.6,3.7-8.3,8.3-8.3h0c4.6,0,8.3,3.7,8.3,8.3l0,0
	C219.7,262.5,216,266.3,211.4,266.3z"/>
<path class="st4" d="M234,266.3L234,266.3c-4.6,0-8.3-3.7-8.3-8.3l0,0c0-4.6,3.7-8.3,8.3-8.3h0c4.6,0,8.3,3.7,8.3,8.3l0,0
	C242.3,262.5,238.6,266.3,234,266.3z"/>
<path class="st4" d="M188.9,469.6L188.9,469.6c-4.6,0-8.3-3.7-8.3-8.3v0c0-4.6,3.7-8.3,8.3-8.3h0c4.6,0,8.3,3.7,8.3,8.3v0
	C197.2,465.9,193.5,469.6,188.9,469.6z"/>
<path class="st4" d="M211.5,469.6L211.5,469.6c-4.6,0-8.3-3.7-8.3-8.3v0c0-4.6,3.7-8.3,8.3-8.3h0c4.6,0,8.3,3.7,8.3,8.3v0
	C219.8,465.9,216,469.6,211.5,469.6z"/>
<path class="st4" d="M234.1,469.6L234.1,469.6c-4.6,0-8.3-3.7-8.3-8.3v0c0-4.6,3.7-8.3,8.3-8.3h0c4.6,0,8.3,3.7,8.3,8.3v0
	C242.3,465.9,238.6,469.6,234.1,469.6z"/>
<path class="st4" d="M211.5,514.8L211.5,514.8c-4.6,0-8.3-3.7-8.3-8.3v0c0-4.6,3.7-8.3,8.3-8.3h0c4.6,0,8.3,3.7,8.3,8.3v0
	C219.7,511,216,514.8,211.5,514.8z"/>
<path class="st4" d="M234,514.8L234,514.8c-4.6,0-8.3-3.7-8.3-8.3v0c0-4.6,3.7-8.3,8.3-8.3h0c4.6,0,8.3,3.7,8.3,8.3v0
	C242.3,511,238.6,514.8,234,514.8z"/>
<path class="st4" d="M188.9,492.2L188.9,492.2c-4.6,0-8.3-3.7-8.3-8.3v0c0-4.6,3.7-8.3,8.3-8.3h0c4.6,0,8.3,3.7,8.3,8.3v0
	C197.2,488.5,193.4,492.2,188.9,492.2z"/>
<path class="st4" d="M211.5,492.2L211.5,492.2c-4.6,0-8.3-3.7-8.3-8.3v0c0-4.6,3.7-8.3,8.3-8.3h0c4.6,0,8.3,3.7,8.3,8.3v0
	C219.7,488.5,216,492.2,211.5,492.2z"/>
<path class="st4" d="M234,492.2L234,492.2c-4.6,0-8.3-3.7-8.3-8.3v0c0-4.6,3.7-8.3,8.3-8.3h0c4.6,0,8.3,3.7,8.3,8.3v0
	C242.3,488.5,238.6,492.2,234,492.2z"/>
<path class="st4" d="M211.5,537.3L211.5,537.3c-4.6,0-8.3-3.7-8.3-8.3v0c0-4.6,3.7-8.3,8.3-8.3h0c4.6,0,8.3,3.7,8.3,8.3v0
	C219.8,533.6,216,537.3,211.5,537.3z"/>
<path class="st4" d="M234.1,537.3L234.1,537.3c-4.6,0-8.3-3.7-8.3-8.3v0c0-4.6,3.7-8.3,8.3-8.3h0c4.6,0,8.3,3.7,8.3,8.3v0
	C242.3,533.6,238.6,537.3,234.1,537.3z"/>
<path class="st4" d="M234,559.9L234,559.9c-4.6,0-8.3-3.7-8.3-8.3l0,0c0-4.6,3.7-8.3,8.3-8.3h0c4.6,0,8.3,3.7,8.3,8.3l0,0
	C242.3,556.2,238.6,559.9,234,559.9z"/>
<path class="st4" d="M98.6,311.5L98.6,311.5c-4.6,0-8.3-3.7-8.3-8.3v0c0-4.6,3.7-8.3,8.3-8.3h0c4.6,0,8.3,3.7,8.3,8.3v0
	C106.9,307.7,103.1,311.5,98.6,311.5z"/>
<path class="st4" d="M121.2,311.5L121.2,311.5c-4.6,0-8.3-3.7-8.3-8.3v0c0-4.6,3.7-8.3,8.3-8.3h0c4.6,0,8.3,3.7,8.3,8.3v0
	C129.4,307.7,125.7,311.5,121.2,311.5z"/>
<path class="st4" d="M143.7,311.5L143.7,311.5c-4.6,0-8.3-3.7-8.3-8.3v0c0-4.6,3.7-8.3,8.3-8.3h0c4.6,0,8.3,3.7,8.3,8.3v0
	C152,307.7,148.3,311.5,143.7,311.5z"/>
<path class="st4" d="M166.3,311.5L166.3,311.5c-4.6,0-8.3-3.7-8.3-8.3v0c0-4.6,3.7-8.3,8.3-8.3h0c4.6,0,8.3,3.7,8.3,8.3v0
	C174.6,307.7,170.9,311.5,166.3,311.5z"/>
<path class="st4" d="M188.9,311.5L188.9,311.5c-4.6,0-8.3-3.7-8.3-8.3v0c0-4.6,3.7-8.3,8.3-8.3h0c4.6,0,8.3,3.7,8.3,8.3v0
	C197.2,307.7,193.4,311.5,188.9,311.5z"/>
<path class="st4" d="M211.4,311.5L211.4,311.5c-4.6,0-8.3-3.7-8.3-8.3v0c0-4.6,3.7-8.3,8.3-8.3h0c4.6,0,8.3,3.7,8.3,8.3v0
	C219.7,307.7,216,311.5,211.4,311.5z"/>
<path class="st4" d="M234,311.5L234,311.5c-4.6,0-8.3-3.7-8.3-8.3v0c0-4.6,3.7-8.3,8.3-8.3h0c4.6,0,8.3,3.7,8.3,8.3v0
	C242.3,307.7,238.6,311.5,234,311.5z"/>
<path class="st4" d="M256.6,176L256.6,176c-4.6,0-8.3-3.7-8.3-8.3v0c0-4.6,3.7-8.3,8.3-8.3h0c4.6,0,8.3,3.7,8.3,8.3v0
	C264.9,172.3,261.2,176,256.6,176z"/>
<path class="st4" d="M256.6,221.1L256.6,221.1c-4.6,0-8.3-3.7-8.3-8.3v0c0-4.6,3.7-8.3,8.3-8.3l0,0c4.6,0,8.3,3.7,8.3,8.3v0
	C264.9,217.4,261.2,221.1,256.6,221.1z"/>
<path class="st4" d="M256.6,198.6L256.6,198.6c-4.6,0-8.3-3.7-8.3-8.3v0c0-4.6,3.7-8.3,8.3-8.3l0,0c4.6,0,8.3,3.7,8.3,8.3v0
	C264.9,194.8,261.2,198.6,256.6,198.6z"/>
<path class="st4" d="M256.6,243.7L256.6,243.7c-4.6,0-8.3-3.7-8.3-8.3v0c0-4.6,3.7-8.3,8.3-8.3h0c4.6,0,8.3,3.7,8.3,8.3v0
	C264.9,240,261.2,243.7,256.6,243.7z"/>
<path class="st4" d="M256.6,288.8L256.6,288.8c-4.6,0-8.3-3.7-8.3-8.3v0c0-4.6,3.7-8.3,8.3-8.3l0,0c4.6,0,8.3,3.7,8.3,8.3v0
	C264.9,285.1,261.2,288.8,256.6,288.8z"/>
<path class="st4" d="M256.6,266.3L256.6,266.3c-4.6,0-8.3-3.7-8.3-8.3l0,0c0-4.6,3.7-8.3,8.3-8.3l0,0c4.6,0,8.3,3.7,8.3,8.3l0,0
	C264.9,262.5,261.2,266.3,256.6,266.3z"/>
<path class="st4" d="M256.6,311.5L256.6,311.5c-4.6,0-8.3-3.7-8.3-8.3v0c0-4.6,3.7-8.3,8.3-8.3l0,0c4.6,0,8.3,3.7,8.3,8.3v0
	C264.9,307.7,261.2,311.5,256.6,311.5z"/>
<path class="st4" d="M279.2,176L279.2,176c-4.6,0-8.3-3.7-8.3-8.3v0c0-4.6,3.7-8.3,8.3-8.3l0,0c4.6,0,8.3,3.7,8.3,8.3v0
	C287.4,172.3,283.7,176,279.2,176z"/>
<path class="st4" d="M279.1,221.1L279.1,221.1c-4.6,0-8.3-3.7-8.3-8.3v0c0-4.6,3.7-8.3,8.3-8.3h0c4.6,0,8.3,3.7,8.3,8.3v0
	C287.4,217.4,283.7,221.1,279.1,221.1z"/>
<path class="st4" d="M279.1,198.6L279.1,198.6c-4.6,0-8.3-3.7-8.3-8.3v0c0-4.6,3.7-8.3,8.3-8.3h0c4.6,0,8.3,3.7,8.3,8.3v0
	C287.4,194.8,283.7,198.6,279.1,198.6z"/>
<path class="st4" d="M279.2,243.7L279.2,243.7c-4.6,0-8.3-3.7-8.3-8.3v0c0-4.6,3.7-8.3,8.3-8.3l0,0c4.6,0,8.3,3.7,8.3,8.3v0
	C287.4,240,283.7,243.7,279.2,243.7z"/>
<path class="st4" d="M279.1,288.8L279.1,288.8c-4.6,0-8.3-3.7-8.3-8.3v0c0-4.6,3.7-8.3,8.3-8.3h0c4.6,0,8.3,3.7,8.3,8.3v0
	C287.4,285.1,283.7,288.8,279.1,288.8z"/>
<path class="st4" d="M279.1,266.3L279.1,266.3c-4.6,0-8.3-3.7-8.3-8.3l0,0c0-4.6,3.7-8.3,8.3-8.3h0c4.6,0,8.3,3.7,8.3,8.3l0,0
	C287.4,262.5,283.7,266.3,279.1,266.3z"/>
<path class="st4" d="M279.1,311.5L279.1,311.5c-4.6,0-8.3-3.7-8.3-8.3v0c0-4.6,3.7-8.3,8.3-8.3h0c4.6,0,8.3,3.7,8.3,8.3v0
	C287.4,307.7,283.7,311.5,279.1,311.5z"/>
<path class="st4" d="M301.7,176L301.7,176c-4.6,0-8.3-3.7-8.3-8.3v0c0-4.6,3.7-8.3,8.3-8.3l0,0c4.6,0,8.3,3.7,8.3,8.3v0
	C310,172.3,306.3,176,301.7,176z"/>
<path class="st4" d="M301.7,221.1L301.7,221.1c-4.6,0-8.3-3.7-8.3-8.3v0c0-4.6,3.7-8.3,8.3-8.3h0c4.6,0,8.3,3.7,8.3,8.3v0
	C310,217.4,306.3,221.1,301.7,221.1z"/>
<path class="st4" d="M301.7,198.6L301.7,198.6c-4.6,0-8.3-3.7-8.3-8.3v0c0-4.6,3.7-8.3,8.3-8.3h0c4.6,0,8.3,3.7,8.3,8.3v0
	C310,194.8,306.3,198.6,301.7,198.6z"/>
<path class="st4" d="M301.7,243.7L301.7,243.7c-4.6,0-8.3-3.7-8.3-8.3v0c0-4.6,3.7-8.3,8.3-8.3l0,0c4.6,0,8.3,3.7,8.3,8.3v0
	C310,240,306.3,243.7,301.7,243.7z"/>
<path class="st4" d="M324.4,176L324.4,176c-4.6,0-8.3-3.7-8.3-8.3v0c0-4.6,3.7-8.3,8.3-8.3h0c4.6,0,8.3,3.7,8.3,8.3v0
	C332.7,172.3,329,176,324.4,176z"/>
<path class="st4" d="M324.4,221.1L324.4,221.1c-4.6,0-8.3-3.7-8.3-8.3v0c0-4.6,3.7-8.3,8.3-8.3h0c4.6,0,8.3,3.7,8.3,8.3v0
	C332.7,217.4,328.9,221.1,324.4,221.1z"/>
<path class="st4" d="M324.4,198.6L324.4,198.6c-4.6,0-8.3-3.7-8.3-8.3v0c0-4.6,3.7-8.3,8.3-8.3h0c4.6,0,8.3,3.7,8.3,8.3v0
	C332.7,194.8,328.9,198.6,324.4,198.6z"/>
<path class="st4" d="M324.4,492L324.4,492c-4.6,0-8.3-3.7-8.3-8.3v0c0-4.6,3.7-8.3,8.3-8.3h0c4.6,0,8.3,3.7,8.3,8.3v0
	C332.7,488.3,329,492,324.4,492z"/>
<path class="st4" d="M324.4,469.4L324.4,469.4c-4.6,0-8.3-3.7-8.3-8.3v0c0-4.6,3.7-8.3,8.3-8.3h0c4.6,0,8.3,3.7,8.3,8.3v0
	C332.7,465.7,329,469.4,324.4,469.4z"/>
<path class="st4" d="M324.4,514.6L324.4,514.6c-4.6,0-8.3-3.7-8.3-8.3l0,0c0-4.6,3.7-8.3,8.3-8.3h0c4.6,0,8.3,3.7,8.3,8.3l0,0
	C332.7,510.9,329,514.6,324.4,514.6z"/>
<path class="st4" d="M324.4,559.9L324.4,559.9c-4.6,0-8.3-3.7-8.3-8.3l0,0c0-4.6,3.7-8.3,8.3-8.3h0c4.6,0,8.3,3.7,8.3,8.3l0,0
	C332.7,556.2,329,559.9,324.4,559.9z"/>
<path class="st4" d="M324.4,537.3L324.4,537.3c-4.6,0-8.3-3.7-8.3-8.3l0,0c0-4.6,3.7-8.3,8.3-8.3h0c4.6,0,8.3,3.7,8.3,8.3l0,0
	C332.7,533.6,329,537.3,324.4,537.3z"/>
<path class="st4" d="M324.4,582.5L324.4,582.5c-4.6,0-8.3-3.7-8.3-8.3l0,0c0-4.6,3.7-8.3,8.3-8.3h0c4.6,0,8.3,3.7,8.3,8.3l0,0
	C332.7,578.7,329,582.5,324.4,582.5z"/>
<path class="st4" d="M256.6,605.1L256.6,605.1c-4.6,0-8.3-3.7-8.3-8.3l0,0c0-4.6,3.7-8.3,8.3-8.3h0c4.6,0,8.3,3.7,8.3,8.3l0,0
	C264.9,601.3,261.2,605.1,256.6,605.1z"/>
<path class="st4" d="M234,582.5L234,582.5c-4.6,0-8.3-3.7-8.3-8.3l0,0c0-4.6,3.7-8.3,8.3-8.3h0c4.6,0,8.3,3.7,8.3,8.3l0,0
	C242.3,578.8,238.6,582.5,234,582.5z"/>
<path class="st4" d="M234,605.1L234,605.1c-4.6,0-8.3-3.7-8.3-8.3l0,0c0-4.6,3.7-8.3,8.3-8.3h0c4.6,0,8.3,3.7,8.3,8.3l0,0
	C242.3,601.3,238.6,605.1,234,605.1z"/>
<path class="st4" d="M279.2,605.1L279.2,605.1c-4.6,0-8.3-3.7-8.3-8.3l0,0c0-4.6,3.7-8.3,8.3-8.3h0c4.6,0,8.3,3.7,8.3,8.3l0,0
	C287.5,601.3,283.7,605.1,279.2,605.1z"/>
<path class="st4" d="M301.7,605.1L301.7,605.1c-4.6,0-8.3-3.7-8.3-8.3l0,0c0-4.6,3.7-8.3,8.3-8.3l0,0c4.6,0,8.3,3.7,8.3,8.3l0,0
	C310,601.3,306.3,605.1,301.7,605.1z"/>
<path class="st4" d="M324.4,605L324.4,605c-4.6,0-8.3-3.7-8.3-8.3v0c0-4.6,3.7-8.3,8.3-8.3h0c4.6,0,8.3,3.7,8.3,8.3v0
	C332.7,601.3,329,605,324.4,605z"/>
<path class="st4" d="M346.9,108.3L346.9,108.3c-4.6,0-8.3-3.7-8.3-8.3v0c0-4.6,3.7-8.3,8.3-8.3l0,0c4.6,0,8.3,3.7,8.3,8.3v0
	C355.1,104.6,351.4,108.3,346.9,108.3z"/>
<path class="st4" d="M369.4,108.3L369.4,108.3c-4.6,0-8.3-3.7-8.3-8.3v0c0-4.6,3.7-8.3,8.3-8.3l0,0c4.6,0,8.3,3.7,8.3,8.3v0
	C377.7,104.6,374,108.3,369.4,108.3z"/>
<path class="st4" d="M346.9,85.7L346.9,85.7c-4.6,0-8.3-3.7-8.3-8.3v0c0-4.6,3.7-8.3,8.3-8.3l0,0c4.6,0,8.3,3.7,8.3,8.3v0
	C355.1,82,351.4,85.7,346.9,85.7z"/>
<path class="st4" d="M369.4,85.7L369.4,85.7c-4.6,0-8.3-3.7-8.3-8.3v0c0-4.6,3.7-8.3,8.3-8.3l0,0c4.6,0,8.3,3.7,8.3,8.3v0
	C377.7,82,374,85.7,369.4,85.7z"/>
<path class="st4" d="M8.3,63.1L8.3,63.1c-4.6,0-8.3-3.7-8.3-8.3v0c0-4.6,3.7-8.3,8.3-8.3h0c4.6,0,8.3,3.7,8.3,8.3v0
	C16.6,59.4,12.8,63.1,8.3,63.1z"/>
<path class="st4" d="M30.9,63.1L30.9,63.1c-4.6,0-8.3-3.7-8.3-8.3v0c0-4.6,3.7-8.3,8.3-8.3h0c4.6,0,8.3,3.7,8.3,8.3v0
	C39.1,59.4,35.4,63.1,30.9,63.1z"/>
<path class="st4" d="M53.4,63.1L53.4,63.1c-4.6,0-8.3-3.7-8.3-8.3v0c0-4.6,3.7-8.3,8.3-8.3h0c4.6,0,8.3,3.7,8.3,8.3v0
	C61.7,59.4,58,63.1,53.4,63.1z"/>
<path class="st4" d="M76,63.1L76,63.1c-4.6,0-8.3-3.7-8.3-8.3v0c0-4.6,3.7-8.3,8.3-8.3h0c4.6,0,8.3,3.7,8.3,8.3v0
	C84.3,59.4,80.6,63.1,76,63.1z"/>
<path class="st4" d="M98.6,63.1L98.6,63.1c-4.6,0-8.3-3.7-8.3-8.3v0c0-4.6,3.7-8.3,8.3-8.3h0c4.6,0,8.3,3.7,8.3,8.3v0
	C106.9,59.4,103.1,63.1,98.6,63.1z"/>
<path class="st4" d="M121.1,63.1L121.1,63.1c-4.6,0-8.3-3.7-8.3-8.3v0c0-4.6,3.7-8.3,8.3-8.3h0c4.6,0,8.3,3.7,8.3,8.3v0
	C129.4,59.4,125.7,63.1,121.1,63.1z"/>
<path class="st4" d="M143.7,63.1L143.7,63.1c-4.6,0-8.3-3.7-8.3-8.3v0c0-4.6,3.7-8.3,8.3-8.3h0c4.6,0,8.3,3.7,8.3,8.3v0
	C152,59.4,148.3,63.1,143.7,63.1z"/>
<path class="st4" d="M166.3,63.1L166.3,63.1c-4.6,0-8.3-3.7-8.3-8.3v0c0-4.6,3.7-8.3,8.3-8.3h0c4.6,0,8.3,3.7,8.3,8.3v0
	C174.6,59.4,170.8,63.1,166.3,63.1z"/>
<path class="st4" d="M188.8,63.1L188.8,63.1c-4.6,0-8.3-3.7-8.3-8.3v0c0-4.6,3.7-8.3,8.3-8.3h0c4.6,0,8.3,3.7,8.3,8.3v0
	C197.1,59.4,193.4,63.1,188.8,63.1z"/>
<path class="st4" d="M211.4,63.1L211.4,63.1c-4.6,0-8.3-3.7-8.3-8.3v0c0-4.6,3.7-8.3,8.3-8.3h0c4.6,0,8.3,3.7,8.3,8.3v0
	C219.7,59.4,216,63.1,211.4,63.1z"/>
<path class="st4" d="M234,63.1L234,63.1c-4.6,0-8.3-3.7-8.3-8.3v0c0-4.6,3.7-8.3,8.3-8.3h0c4.6,0,8.3,3.7,8.3,8.3v0
	C242.3,59.4,238.5,63.1,234,63.1z"/>
<path class="st4" d="M256.6,63.1L256.6,63.1c-4.6,0-8.3-3.7-8.3-8.3v0c0-4.6,3.7-8.3,8.3-8.3h0c4.6,0,8.3,3.7,8.3,8.3v0
	C264.8,59.4,261.1,63.1,256.6,63.1z"/>
<path class="st4" d="M279.1,63.1L279.1,63.1c-4.6,0-8.3-3.7-8.3-8.3v0c0-4.6,3.7-8.3,8.3-8.3h0c4.6,0,8.3,3.7,8.3,8.3v0
	C287.4,59.4,283.7,63.1,279.1,63.1z"/>
<path class="st4" d="M301.7,63.1L301.7,63.1c-4.6,0-8.3-3.7-8.3-8.3v0c0-4.6,3.7-8.3,8.3-8.3l0,0c4.6,0,8.3,3.7,8.3,8.3v0
	C310,59.4,306.3,63.1,301.7,63.1z"/>
<path class="st4" d="M324.3,63.1L324.3,63.1c-4.6,0-8.3-3.7-8.3-8.3v0c0-4.6,3.7-8.3,8.3-8.3l0,0c4.6,0,8.3,3.7,8.3,8.3v0
	C332.6,59.4,328.8,63.1,324.3,63.1z"/>
<path class="st4" d="M346.9,63.1L346.9,63.1c-4.6,0-8.3-3.7-8.3-8.3v0c0-4.6,3.7-8.3,8.3-8.3l0,0c4.6,0,8.3,3.7,8.3,8.3v0
	C355.1,59.4,351.4,63.1,346.9,63.1z"/>
<path class="st4" d="M369.4,63.1L369.4,63.1c-4.6,0-8.3-3.7-8.3-8.3v0c0-4.6,3.7-8.3,8.3-8.3l0,0c4.6,0,8.3,3.7,8.3,8.3v0
	C377.7,59.4,374,63.1,369.4,63.1z"/>
<path class="st4" d="M346.9,153.4L346.9,153.4c-4.6,0-8.3-3.7-8.3-8.3v0c0-4.6,3.7-8.3,8.3-8.3h0c4.6,0,8.3,3.7,8.3,8.3v0
	C355.2,149.7,351.4,153.4,346.9,153.4z"/>
<path class="st4" d="M369.5,153.4L369.5,153.4c-4.6,0-8.3-3.7-8.3-8.3v0c0-4.6,3.7-8.3,8.3-8.3h0c4.6,0,8.3,3.7,8.3,8.3v0
	C377.7,149.7,374,153.4,369.5,153.4z"/>
<path class="st4" d="M301.7,334L301.7,334c-4.6,0-8.3-3.7-8.3-8.3l0,0c0-4.6,3.7-8.3,8.3-8.3l0,0c4.6,0,8.3,3.7,8.3,8.3l0,0
	C310,330.3,306.3,334,301.7,334z"/>
<path class="st4" d="M301.7,356.6L301.7,356.6c-4.6,0-8.3-3.7-8.3-8.3v0c0-4.6,3.7-8.3,8.3-8.3l0,0c4.6,0,8.3,3.7,8.3,8.3v0
	C310,352.9,306.3,356.6,301.7,356.6z"/>
<path class="st4" d="M301.7,379.2L301.7,379.2c-4.6,0-8.3-3.7-8.3-8.3l0,0c0-4.6,3.7-8.3,8.3-8.3l0,0c4.6,0,8.3,3.7,8.3,8.3l0,0
	C310,375.5,306.3,379.2,301.7,379.2z"/>
<path class="st4" d="M301.7,401.8L301.7,401.8c-4.6,0-8.3-3.7-8.3-8.3v0c0-4.6,3.7-8.3,8.3-8.3l0,0c4.6,0,8.3,3.7,8.3,8.3v0
	C310,398,306.3,401.8,301.7,401.8z"/>
<path class="st4" d="M301.7,424.4L301.7,424.4c-4.6,0-8.3-3.7-8.3-8.3l0,0c0-4.6,3.7-8.3,8.3-8.3l0,0c4.6,0,8.3,3.7,8.3,8.3l0,0
	C310,420.7,306.3,424.4,301.7,424.4z"/>
<path class="st4" d="M346.9,447L346.9,447c-4.6,0-8.3-3.7-8.3-8.3l0,0c0-4.6,3.7-8.3,8.3-8.3h0c4.6,0,8.3,3.7,8.3,8.3l0,0
	C355.2,443.2,351.4,447,346.9,447z"/>
<path class="st4" d="M369.5,447L369.5,447c-4.6,0-8.3-3.7-8.3-8.3l0,0c0-4.6,3.7-8.3,8.3-8.3h0c4.6,0,8.3,3.7,8.3,8.3l0,0
	C377.7,443.2,374,447,369.5,447z"/>
<path class="st4" d="M346.9,469.6L346.9,469.6c-4.6,0-8.3-3.7-8.3-8.3v0c0-4.6,3.7-8.3,8.3-8.3l0,0c4.6,0,8.3,3.7,8.3,8.3v0
	C355.2,465.9,351.5,469.6,346.9,469.6z"/>
<path class="st4" d="M346.9,492.2L346.9,492.2c-4.6,0-8.3-3.7-8.3-8.3v0c0-4.6,3.7-8.3,8.3-8.3l0,0c4.6,0,8.3,3.7,8.3,8.3v0
	C355.2,488.4,351.5,492.2,346.9,492.2z"/>
<path class="st4" d="M346.9,514.8L346.9,514.8c-4.6,0-8.3-3.7-8.3-8.3v0c0-4.6,3.7-8.3,8.3-8.3l0,0c4.6,0,8.3,3.7,8.3,8.3v0
	C355.2,511.1,351.5,514.8,346.9,514.8z"/>
<path class="st4" d="M346.9,537.3L346.9,537.3c-4.6,0-8.3-3.7-8.3-8.3l0,0c0-4.6,3.7-8.3,8.3-8.3l0,0c4.6,0,8.3,3.7,8.3,8.3l0,0
	C355.2,533.6,351.5,537.3,346.9,537.3z"/>
<path class="st4" d="M346.9,560L346.9,560c-4.6,0-8.3-3.7-8.3-8.3v0c0-4.6,3.7-8.3,8.3-8.3l0,0c4.6,0,8.3,3.7,8.3,8.3v0
	C355.2,556.3,351.5,560,346.9,560z"/>
<path class="st4" d="M346.9,582.5L346.9,582.5c-4.6,0-8.3-3.7-8.3-8.3l0,0c0-4.6,3.7-8.3,8.3-8.3l0,0c4.6,0,8.3,3.7,8.3,8.3l0,0
	C355.2,578.8,351.5,582.5,346.9,582.5z"/>
<path class="st4" d="M346.9,605.2L346.9,605.2c-4.6,0-8.3-3.7-8.3-8.3l0,0c0-4.6,3.7-8.3,8.3-8.3l0,0c4.6,0,8.3,3.7,8.3,8.3l0,0
	C355.2,601.4,351.5,605.2,346.9,605.2z"/>
<path class="st4" d="M346.9,130.9L346.9,130.9c-4.6,0-8.3-3.7-8.3-8.3v0c0-4.6,3.7-8.3,8.3-8.3h0c4.6,0,8.3,3.7,8.3,8.3v0
	C355.2,127.1,351.4,130.9,346.9,130.9z"/>
<path class="st4" d="M369.5,130.9L369.5,130.9c-4.6,0-8.3-3.7-8.3-8.3v0c0-4.6,3.7-8.3,8.3-8.3h0c4.6,0,8.3,3.7,8.3,8.3v0
	C377.7,127.1,374,130.9,369.5,130.9z"/>
<path class="st4" d="M301.8,288.8L301.8,288.8c-4.6,0-8.3-3.7-8.3-8.3v0c0-4.6,3.7-8.3,8.3-8.3l0,0c4.6,0,8.3,3.7,8.3,8.3v0
	C310.1,285.1,306.3,288.8,301.8,288.8z"/>
<path class="st4" d="M301.8,266.3L301.8,266.3c-4.6,0-8.3-3.7-8.3-8.3l0,0c0-4.6,3.7-8.3,8.3-8.3l0,0c4.6,0,8.3,3.7,8.3,8.3l0,0
	C310.1,262.5,306.3,266.3,301.8,266.3z"/>
<path class="st4" d="M301.8,311.5L301.8,311.5c-4.6,0-8.3-3.7-8.3-8.3v0c0-4.6,3.7-8.3,8.3-8.3l0,0c4.6,0,8.3,3.7,8.3,8.3v0
	C310.1,307.7,306.3,311.5,301.8,311.5z"/>
<path class="st4" d="M346.9,176L346.9,176c-4.6,0-8.3-3.7-8.3-8.3v0c0-4.6,3.7-8.3,8.3-8.3l0,0c4.6,0,8.3,3.7,8.3,8.3v0
	C355.2,172.3,351.5,176,346.9,176z"/>
<path class="st4" d="M346.9,221.1L346.9,221.1c-4.6,0-8.3-3.7-8.3-8.3v0c0-4.6,3.7-8.3,8.3-8.3h0c4.6,0,8.3,3.7,8.3,8.3v0
	C355.2,217.4,351.4,221.1,346.9,221.1z"/>
<path class="st4" d="M346.9,198.6L346.9,198.6c-4.6,0-8.3-3.7-8.3-8.3v0c0-4.6,3.7-8.3,8.3-8.3h0c4.6,0,8.3,3.7,8.3,8.3v0
	C355.2,194.8,351.4,198.6,346.9,198.6z"/>
<path class="st4" d="M369.6,176L369.6,176c-4.6,0-8.3-3.7-8.3-8.3v0c0-4.6,3.7-8.3,8.3-8.3h0c4.6,0,8.3,3.7,8.3,8.3v0
	C377.9,172.3,374.1,176,369.6,176z"/>
<path class="st4" d="M369.5,221.1L369.5,221.1c-4.6,0-8.3-3.7-8.3-8.3v0c0-4.6,3.7-8.3,8.3-8.3h0c4.6,0,8.3,3.7,8.3,8.3v0
	C377.8,217.4,374.1,221.1,369.5,221.1z"/>
<path class="st4" d="M369.5,198.6L369.5,198.6c-4.6,0-8.3-3.7-8.3-8.3v0c0-4.6,3.7-8.3,8.3-8.3h0c4.6,0,8.3,3.7,8.3,8.3v0
	C377.8,194.8,374.1,198.6,369.5,198.6z"/>
<path class="st4" d="M369.6,492L369.6,492c-4.6,0-8.3-3.7-8.3-8.3v0c0-4.6,3.7-8.3,8.3-8.3h0c4.6,0,8.3,3.7,8.3,8.3v0
	C377.8,488.3,374.1,492,369.6,492z"/>
<path class="st4" d="M369.6,469.4L369.6,469.4c-4.6,0-8.3-3.7-8.3-8.3v0c0-4.6,3.7-8.3,8.3-8.3h0c4.6,0,8.3,3.7,8.3,8.3v0
	C377.8,465.7,374.1,469.4,369.6,469.4z"/>
<path class="st4" d="M369.6,514.6L369.6,514.6c-4.6,0-8.3-3.7-8.3-8.3l0,0c0-4.6,3.7-8.3,8.3-8.3h0c4.6,0,8.3,3.7,8.3,8.3l0,0
	C377.8,510.9,374.1,514.6,369.6,514.6z"/>
<path class="st4" d="M369.6,559.9L369.6,559.9c-4.6,0-8.3-3.7-8.3-8.3l0,0c0-4.6,3.7-8.3,8.3-8.3h0c4.6,0,8.3,3.7,8.3,8.3l0,0
	C377.9,556.2,374.1,559.9,369.6,559.9z"/>
<path class="st4" d="M369.6,537.3L369.6,537.3c-4.6,0-8.3-3.7-8.3-8.3l0,0c0-4.6,3.7-8.3,8.3-8.3h0c4.6,0,8.3,3.7,8.3,8.3l0,0
	C377.9,533.6,374.1,537.3,369.6,537.3z"/>
<path class="st4" d="M369.6,582.5L369.6,582.5c-4.6,0-8.3-3.7-8.3-8.3l0,0c0-4.6,3.7-8.3,8.3-8.3h0c4.6,0,8.3,3.7,8.3,8.3l0,0
	C377.9,578.7,374.1,582.5,369.6,582.5z"/>
<path class="st4" d="M369.6,605L369.6,605c-4.6,0-8.3-3.7-8.3-8.3l0,0c0-4.6,3.7-8.3,8.3-8.3h0c4.6,0,8.3,3.7,8.3,8.3l0,0
	C377.8,601.3,374.1,605,369.6,605z"/>
<path class="st4" d="M256.6,627.6L256.6,627.6c-4.6,0-8.3-3.7-8.3-8.3l0,0c0-4.6,3.7-8.3,8.3-8.3h0c4.6,0,8.3,3.7,8.3,8.3l0,0
	C264.9,623.9,261.2,627.6,256.6,627.6z"/>
<path class="st4" d="M279.2,627.6L279.2,627.6c-4.6,0-8.3-3.7-8.3-8.3l0,0c0-4.6,3.7-8.3,8.3-8.3h0c4.6,0,8.3,3.7,8.3,8.3l0,0
	C287.5,623.9,283.7,627.6,279.2,627.6z"/>
<path class="st4" d="M301.7,627.6L301.7,627.6c-4.6,0-8.3-3.7-8.3-8.3l0,0c0-4.6,3.7-8.3,8.3-8.3l0,0c4.6,0,8.3,3.7,8.3,8.3l0,0
	C310,623.9,306.3,627.6,301.7,627.6z"/>
<path class="st4" d="M324.4,627.5L324.4,627.5c-4.6,0-8.3-3.7-8.3-8.3l0,0c0-4.6,3.7-8.3,8.3-8.3h0c4.6,0,8.3,3.7,8.3,8.3l0,0
	C332.7,623.8,329,627.5,324.4,627.5z"/>
<path class="st4" d="M346.9,627.7L346.9,627.7c-4.6,0-8.3-3.7-8.3-8.3v0c0-4.6,3.7-8.3,8.3-8.3l0,0c4.6,0,8.3,3.7,8.3,8.3v0
	C355.2,624,351.5,627.7,346.9,627.7z"/>
<path class="st4" d="M369.6,627.6L369.6,627.6c-4.6,0-8.3-3.7-8.3-8.3l0,0c0-4.6,3.7-8.3,8.3-8.3h0c4.6,0,8.3,3.7,8.3,8.3l0,0
	C377.8,623.9,374.1,627.6,369.6,627.6z"/>
<g>
	<text transform="matrix(1 0 0 1 28.4504 102.2584)" class="st5 st6 st7">1</text>
	<text transform="matrix(1 0 0 1 50.5119 102.2584)" class="st5 st6 st7">2</text>
	<text transform="matrix(1 0 0 1 73.0861 102.2584)" class="st5 st6 st7">3</text>
	<text transform="matrix(1 0 0 1 95.6007 102.2584)" class="st5 st6 st7">4</text>
	<text transform="matrix(1 0 0 1 118.2746 102.2584)" class="st5 st6 st7">5</text>
	<text transform="matrix(1 0 0 1 140.5968 102.2584)" class="st5 st6 st7">6</text>
	<text transform="matrix(1 0 0 1 163.6232 102.2584)" class="st5 st6 st7">7</text>
	<text transform="matrix(1 0 0 1 185.8136 102.2584)" class="st5 st6 st7">8</text>
	<text transform="matrix(1 0 0 1 208.3078 102.2584)" class="st5 st6 st7">9</text>
	<text transform="matrix(1 0 0 1 228.9572 102.2584)" class="st5 st6 st7">10</text>
	<text transform="matrix(1 0 0 1 252.4396 102.2584)" class="st5 st6 st7">11</text>
	<text transform="matrix(1 0 0 1 274.5021 102.2584)" class="st5 st6 st7">12</text>
	<text transform="matrix(1 0 0 1 297.0753 102.2584)" class="st5 st6 st7">13</text>
	<text transform="matrix(1 0 0 1 319.589 102.2584)" class="st5 st6 st7">14</text>
	<text transform="matrix(1 0 0 1 342.2638 102.2584)" class="st5 st6 st7">15</text>
	<text transform="matrix(1 0 0 1 364.5861 102.2584)" class="st5 st6 st7">16</text>
	<text transform="matrix(1 0 0 1 5.9982 79.6881)" class="st5 st6 st7">1</text>
	<text transform="matrix(1 0 0 1 28.0597 79.6881)" class="st5 st6 st7">2</text>
	<text transform="matrix(1 0 0 1 50.6339 79.6881)" class="st5 st6 st7">3</text>
	<text transform="matrix(1 0 0 1 73.1486 79.6881)" class="st5 st6 st7">4</text>
	<text transform="matrix(1 0 0 1 95.8224 79.6881)" class="st5 st6 st7">5</text>
	<text transform="matrix(1 0 0 1 118.1447 79.6881)" class="st5 st6 st7">6</text>
	<text transform="matrix(1 0 0 1 141.1711 79.6881)" class="st5 st6 st7">7</text>
	<text transform="matrix(1 0 0 1 163.3615 79.6881)" class="st5 st6 st7">8</text>
	<text transform="matrix(1 0 0 1 185.8556 79.6881)" class="st5 st6 st7">9</text>
	<text transform="matrix(1 0 0 1 206.505 79.6881)" class="st5 st6 st7">10</text>
	<text transform="matrix(1 0 0 1 229.9875 79.6881)" class="st5 st6 st7">11</text>
	<text transform="matrix(1 0 0 1 252.05 79.6881)" class="st5 st6 st7">12</text>
	<text transform="matrix(1 0 0 1 274.6232 79.6881)" class="st5 st6 st7">13</text>
	<text transform="matrix(1 0 0 1 297.1369 79.6881)" class="st5 st6 st7">14</text>
	<text transform="matrix(1 0 0 1 319.8117 79.6881)" class="st5 st6 st7">15</text>
	<text transform="matrix(1 0 0 1 342.1339 79.6881)" class="st5 st6 st7">16</text>
	<text transform="matrix(1 0 0 1 6.0949 57.5318)" class="st5 st6 st7">1</text>
	<text transform="matrix(1 0 0 1 28.1564 57.5318)" class="st5 st6 st7">2</text>
	<text transform="matrix(1 0 0 1 50.7306 57.5318)" class="st5 st6 st7">3</text>
	<text transform="matrix(1 0 0 1 73.2453 57.5318)" class="st5 st6 st7">4</text>
	<text transform="matrix(1 0 0 1 95.9191 57.5318)" class="st5 st6 st7">5</text>
	<text transform="matrix(1 0 0 1 118.2414 57.5318)" class="st5 st6 st7">6</text>
	<text transform="matrix(1 0 0 1 141.2677 57.5318)" class="st5 st6 st7">7</text>
	<text transform="matrix(1 0 0 1 163.4582 57.5318)" class="st5 st6 st7">8</text>
	<text transform="matrix(1 0 0 1 185.9523 57.5318)" class="st5 st6 st7">9</text>
	<text transform="matrix(1 0 0 1 206.6017 57.5318)" class="st5 st6 st7">10</text>
	<text transform="matrix(1 0 0 1 230.0841 57.5318)" class="st5 st6 st7">11</text>
	<text transform="matrix(1 0 0 1 252.1466 57.5318)" class="st5 st6 st7">12</text>
	<text transform="matrix(1 0 0 1 274.7199 57.5318)" class="st5 st6 st7">13</text>
	<text transform="matrix(1 0 0 1 297.2336 57.5318)" class="st5 st6 st7">14</text>
	<text transform="matrix(1 0 0 1 319.9084 57.5318)" class="st5 st6 st7">15</text>
	<text transform="matrix(1 0 0 1 342.2306 57.5318)" class="st5 st6 st7">16</text>
	<text transform="matrix(1 0 0 1 119.4709 10.2203)" class="st5 st6 st7">1</text>
	<text transform="matrix(1 0 0 1 141.5324 10.2203)" class="st5 st6 st7">2</text>
	<text transform="matrix(1 0 0 1 164.1066 10.2203)" class="st5 st6 st7">3</text>
	<text transform="matrix(1 0 0 1 186.6212 10.2203)" class="st5 st6 st7">4</text>
	<text transform="matrix(1 0 0 1 209.2951 10.2203)" class="st5 st6 st7">5</text>
	<text transform="matrix(1 0 0 1 231.6173 10.2203)" class="st5 st6 st7">6</text>
	<text transform="matrix(1 0 0 1 254.6437 10.2203)" class="st5 st6 st7">7</text>
	<text transform="matrix(1 0 0 1 276.8341 10.2203)" class="st5 st6 st7">8</text>
	<text transform="matrix(1 0 0 1 299.3283 10.2203)" class="st5 st6 st7">9</text>
	<text transform="matrix(1 0 0 1 319.9777 10.2203)" class="st5 st6 st7">10</text>
	<text transform="matrix(1 0 0 1 343.4601 10.2203)" class="st5 st6 st7">11</text>
	<text transform="matrix(1 0 0 1 365.5226 10.2203)" class="st5 st6 st7">12</text>
	<text transform="matrix(1 0 0 1 365.172 57.5318)" class="st5 st6 st7">17</text>
	<text transform="matrix(1 0 0 1 365.172 80.6383)" class="st5 st6 st7">17</text>
	<text transform="matrix(1 0 0 1 51.151 147.401)" class="st5 st6 st7">1</text>
	<text transform="matrix(1 0 0 1 73.2135 147.401)" class="st5 st6 st7">2</text>
	<text transform="matrix(1 0 0 1 95.7878 147.401)" class="st5 st6 st7">3</text>
	<text transform="matrix(1 0 0 1 118.3024 147.401)" class="st5 st6 st7">4</text>
	<text transform="matrix(1 0 0 1 140.9753 147.401)" class="st5 st6 st7">5</text>
	<text transform="matrix(1 0 0 1 163.2975 147.401)" class="st5 st6 st7">6</text>
	<text transform="matrix(1 0 0 1 186.3239 147.401)" class="st5 st6 st7">7</text>
	<text transform="matrix(1 0 0 1 208.5143 147.401)" class="st5 st6 st7">8</text>
	<text transform="matrix(1 0 0 1 231.0075 147.401)" class="st5 st6 st7">9</text>
	<text transform="matrix(1 0 0 1 251.6579 147.401)" class="st5 st6 st7">10</text>
	<text transform="matrix(1 0 0 1 275.1403 147.401)" class="st5 st6 st7">11</text>
	<text transform="matrix(1 0 0 1 297.2028 147.401)" class="st5 st6 st7">12</text>
	<text transform="matrix(1 0 0 1 319.777 147.401)" class="st5 st6 st7">13</text>
	<text transform="matrix(1 0 0 1 342.2907 147.401)" class="st5 st6 st7">14</text>
	<text transform="matrix(1 0 0 1 364.9645 147.401)" class="st5 st6 st7">15</text>
	<text transform="matrix(1 0 0 1 119.1867 328.0006)" class="st5 st6 st7">1</text>
	<text transform="matrix(1 0 0 1 141.2492 328.0006)" class="st5 st6 st7">2</text>
	<text transform="matrix(1 0 0 1 163.8234 328.0006)" class="st5 st6 st7">3</text>
	<text transform="matrix(1 0 0 1 186.338 328.0006)" class="st5 st6 st7">4</text>
	<text transform="matrix(1 0 0 1 209.0109 328.0006)" class="st5 st6 st7">5</text>
	<text transform="matrix(1 0 0 1 231.3332 328.0006)" class="st5 st6 st7">6</text>
	<text transform="matrix(1 0 0 1 254.3595 328.0006)" class="st5 st6 st7">7</text>
	<text transform="matrix(1 0 0 1 276.55 328.0006)" class="st5 st6 st7">8</text>
	<text transform="matrix(1 0 0 1 299.0431 328.0006)" class="st5 st6 st7">9</text>
	<text transform="matrix(1 0 0 1 119.8288 350.5523)" class="st5 st6 st7">1</text>
	<text transform="matrix(1 0 0 1 141.8913 350.5523)" class="st5 st6 st7">2</text>
	<text transform="matrix(1 0 0 1 164.4655 350.5523)" class="st5 st6 st7">3</text>
	<text transform="matrix(1 0 0 1 186.9801 350.5523)" class="st5 st6 st7">4</text>
	<text transform="matrix(1 0 0 1 209.653 350.5523)" class="st5 st6 st7">5</text>
	<text transform="matrix(1 0 0 1 231.9753 350.5523)" class="st5 st6 st7">6</text>
	<text transform="matrix(1 0 0 1 255.0016 350.5523)" class="st5 st6 st7">7</text>
	<text transform="matrix(1 0 0 1 277.192 350.5523)" class="st5 st6 st7">8</text>
	<text transform="matrix(1 0 0 1 299.6852 350.5523)" class="st5 st6 st7">9</text>
	<text transform="matrix(1 0 0 1 142.3991 373.1881)" class="st5 st6 st7">1</text>
	<text transform="matrix(1 0 0 1 164.4616 373.1881)" class="st5 st6 st7">2</text>
	<text transform="matrix(1 0 0 1 187.0358 373.1881)" class="st5 st6 st7">3</text>
	<text transform="matrix(1 0 0 1 209.5504 373.1881)" class="st5 st6 st7">4</text>
	<text transform="matrix(1 0 0 1 232.2233 373.1881)" class="st5 st6 st7">5</text>
	<text transform="matrix(1 0 0 1 254.5456 373.1881)" class="st5 st6 st7">6</text>
	<text transform="matrix(1 0 0 1 277.5719 373.1881)" class="st5 st6 st7">7</text>
	<text transform="matrix(1 0 0 1 299.7624 373.1881)" class="st5 st6 st7">8</text>
	<text transform="matrix(1 0 0 1 142.3991 396.69)" class="st5 st6 st7">1</text>
	<text transform="matrix(1 0 0 1 164.4616 396.69)" class="st5 st6 st7">2</text>
	<text transform="matrix(1 0 0 1 187.0358 396.69)" class="st5 st6 st7">3</text>
	<text transform="matrix(1 0 0 1 209.5504 396.69)" class="st5 st6 st7">4</text>
	<text transform="matrix(1 0 0 1 232.2233 396.69)" class="st5 st6 st7">5</text>
	<text transform="matrix(1 0 0 1 254.5456 396.69)" class="st5 st6 st7">6</text>
	<text transform="matrix(1 0 0 1 277.5719 396.69)" class="st5 st6 st7">7</text>
	<text transform="matrix(1 0 0 1 299.7624 396.69)" class="st5 st6 st7">8</text>
	<text transform="matrix(1 0 0 1 163.8214 418.3727)" class="st5 st6 st7">1</text>
	<text transform="matrix(1 0 0 1 185.8839 418.3727)" class="st5 st6 st7">2</text>
	<text transform="matrix(1 0 0 1 208.4582 418.3727)" class="st5 st6 st7">3</text>
	<text transform="matrix(1 0 0 1 230.9728 418.3727)" class="st5 st6 st7">4</text>
	<text transform="matrix(1 0 0 1 253.6457 418.3727)" class="st5 st6 st7">5</text>
	<text transform="matrix(1 0 0 1 275.9679 418.3727)" class="st5 st6 st7">6</text>
	<text transform="matrix(1 0 0 1 298.9943 418.3727)" class="st5 st6 st7">7</text>
	<text transform="matrix(1 0 0 1 164.1242 440.9254)" class="st5 st6 st7">1</text>
	<text transform="matrix(1 0 0 1 186.1867 440.9254)" class="st5 st6 st7">2</text>
	<text transform="matrix(1 0 0 1 208.7609 440.9254)" class="st5 st6 st7">3</text>
	<text transform="matrix(1 0 0 1 231.2755 440.9254)" class="st5 st6 st7">4</text>
	<text transform="matrix(1 0 0 1 253.9484 440.9254)" class="st5 st6 st7">5</text>
	<text transform="matrix(1 0 0 1 276.2707 440.9254)" class="st5 st6 st7">6</text>
	<text transform="matrix(1 0 0 1 299.297 440.9254)" class="st5 st6 st7">7</text>
	<text transform="matrix(1 0 0 1 321.4875 440.9254)" class="st5 st6 st7">8</text>
	<text transform="matrix(1 0 0 1 343.9806 440.9254)" class="st5 st6 st7">9</text>
	<text transform="matrix(1 0 0 1 364.631 440.9254)" class="st5 st6 st7">10</text>
	<text transform="matrix(1 0 0 1 28.4508 124.8307)" class="st5 st6 st7">1</text>
	<text transform="matrix(1 0 0 1 50.5133 124.8307)" class="st5 st6 st7">2</text>
	<text transform="matrix(1 0 0 1 73.0876 124.8307)" class="st5 st6 st7">3</text>
	<text transform="matrix(1 0 0 1 95.6022 124.8307)" class="st5 st6 st7">4</text>
	<text transform="matrix(1 0 0 1 118.2751 124.8307)" class="st5 st6 st7">5</text>
	<text transform="matrix(1 0 0 1 140.5973 124.8307)" class="st5 st6 st7">6</text>
	<text transform="matrix(1 0 0 1 163.6237 124.8307)" class="st5 st6 st7">7</text>
	<text transform="matrix(1 0 0 1 185.8141 124.8307)" class="st5 st6 st7">8</text>
	<text transform="matrix(1 0 0 1 208.3073 124.8307)" class="st5 st6 st7">9</text>
	<text transform="matrix(1 0 0 1 228.9577 124.8307)" class="st5 st6 st7">10</text>
	<text transform="matrix(1 0 0 1 252.4401 124.8307)" class="st5 st6 st7">11</text>
	<text transform="matrix(1 0 0 1 274.5026 124.8307)" class="st5 st6 st7">12</text>
	<text transform="matrix(1 0 0 1 297.0768 124.8307)" class="st5 st6 st7">13</text>
	<text transform="matrix(1 0 0 1 319.5905 124.8307)" class="st5 st6 st7">14</text>
	<text transform="matrix(1 0 0 1 342.2643 124.8307)" class="st5 st6 st7">15</text>
	<text transform="matrix(1 0 0 1 364.5866 124.8307)" class="st5 st6 st7">16</text>
	<text transform="matrix(1 0 0 1 51.2721 169.9586)" class="st5 st6 st7">1</text>
	<text transform="matrix(1 0 0 1 73.3346 169.9586)" class="st5 st6 st7">2</text>
	<text transform="matrix(1 0 0 1 95.9088 169.9586)" class="st5 st6 st7">3</text>
	<text transform="matrix(1 0 0 1 118.4235 169.9586)" class="st5 st6 st7">4</text>
	<text transform="matrix(1 0 0 1 141.0973 169.9586)" class="st5 st6 st7">5</text>
	<text transform="matrix(1 0 0 1 163.4196 169.9586)" class="st5 st6 st7">6</text>
	<text transform="matrix(1 0 0 1 186.446 169.9586)" class="st5 st6 st7">7</text>
	<text transform="matrix(1 0 0 1 208.6364 169.9586)" class="st5 st6 st7">8</text>
	<text transform="matrix(1 0 0 1 231.1305 169.9586)" class="st5 st6 st7">9</text>
	<text transform="matrix(1 0 0 1 251.7809 169.9586)" class="st5 st6 st7">10</text>
	<text transform="matrix(1 0 0 1 275.2614 169.9586)" class="st5 st6 st7">11</text>
	<text transform="matrix(1 0 0 1 297.3239 169.9586)" class="st5 st6 st7">12</text>
	<text transform="matrix(1 0 0 1 319.8981 169.9586)" class="st5 st6 st7">13</text>
	<text transform="matrix(1 0 0 1 342.4118 169.9586)" class="st5 st6 st7">14</text>
	<text transform="matrix(1 0 0 1 365.0866 169.9586)" class="st5 st6 st7">15</text>
	<text transform="matrix(1 0 0 1 73.7204 192.3092)" class="st5 st6 st7">1</text>
	<text transform="matrix(1 0 0 1 95.7829 192.3092)" class="st5 st6 st7">2</text>
	<text transform="matrix(1 0 0 1 118.3571 192.3092)" class="st5 st6 st7">3</text>
	<text transform="matrix(1 0 0 1 140.8717 192.3092)" class="st5 st6 st7">4</text>
	<text transform="matrix(1 0 0 1 163.5456 192.3092)" class="st5 st6 st7">5</text>
	<text transform="matrix(1 0 0 1 185.8678 192.3092)" class="st5 st6 st7">6</text>
	<text transform="matrix(1 0 0 1 208.8942 192.3092)" class="st5 st6 st7">7</text>
	<text transform="matrix(1 0 0 1 231.0846 192.3092)" class="st5 st6 st7">8</text>
	<text transform="matrix(1 0 0 1 253.5788 192.3092)" class="st5 st6 st7">9</text>
	<text transform="matrix(1 0 0 1 274.2292 192.3092)" class="st5 st6 st7">10</text>
	<text transform="matrix(1 0 0 1 297.7096 192.3092)" class="st5 st6 st7">11</text>
	<text transform="matrix(1 0 0 1 319.7721 192.3092)" class="st5 st6 st7">12</text>
	<text transform="matrix(1 0 0 1 342.3463 192.3092)" class="st5 st6 st7">13</text>
	<text transform="matrix(1 0 0 1 364.86 192.3092)" class="st5 st6 st7">14</text>
	<text transform="matrix(1 0 0 1 73.7204 215.1432)" class="st5 st6 st7">1</text>
	<text transform="matrix(1 0 0 1 95.7829 215.1432)" class="st5 st6 st7">2</text>
	<text transform="matrix(1 0 0 1 118.3571 215.1432)" class="st5 st6 st7">3</text>
	<text transform="matrix(1 0 0 1 140.8717 215.1432)" class="st5 st6 st7">4</text>
	<text transform="matrix(1 0 0 1 163.5456 215.1432)" class="st5 st6 st7">5</text>
	<text transform="matrix(1 0 0 1 185.8678 215.1432)" class="st5 st6 st7">6</text>
	<text transform="matrix(1 0 0 1 208.8942 215.1432)" class="st5 st6 st7">7</text>
	<text transform="matrix(1 0 0 1 231.0846 215.1432)" class="st5 st6 st7">8</text>
	<text transform="matrix(1 0 0 1 253.5788 215.1432)" class="st5 st6 st7">9</text>
	<text transform="matrix(1 0 0 1 274.2292 215.1432)" class="st5 st6 st7">10</text>
	<text transform="matrix(1 0 0 1 297.7096 215.1432)" class="st5 st6 st7">11</text>
	<text transform="matrix(1 0 0 1 319.7721 215.1432)" class="st5 st6 st7">12</text>
	<text transform="matrix(1 0 0 1 342.3463 215.1432)" class="st5 st6 st7">13</text>
	<text transform="matrix(1 0 0 1 364.86 215.1432)" class="st5 st6 st7">14</text>
	<text transform="matrix(1 0 0 1 74.0822 237.6734)" class="st5 st6 st7">1</text>
	<text transform="matrix(1 0 0 1 96.1447 237.6734)" class="st5 st6 st7">2</text>
	<text transform="matrix(1 0 0 1 118.7189 237.6734)" class="st5 st6 st7">3</text>
	<text transform="matrix(1 0 0 1 141.2336 237.6734)" class="st5 st6 st7">4</text>
	<text transform="matrix(1 0 0 1 163.9074 237.6734)" class="st5 st6 st7">5</text>
	<text transform="matrix(1 0 0 1 186.2296 237.6734)" class="st5 st6 st7">6</text>
	<text transform="matrix(1 0 0 1 209.256 237.6734)" class="st5 st6 st7">7</text>
	<text transform="matrix(1 0 0 1 231.4464 237.6734)" class="st5 st6 st7">8</text>
	<text transform="matrix(1 0 0 1 253.9406 237.6734)" class="st5 st6 st7">9</text>
	<text transform="matrix(1 0 0 1 274.591 237.6734)" class="st5 st6 st7">10</text>
	<text transform="matrix(1 0 0 1 298.0714 237.6734)" class="st5 st6 st7">11</text>
	<text transform="matrix(1 0 0 1 74.0822 260.024)" class="st5 st6 st7">1</text>
	<text transform="matrix(1 0 0 1 96.1447 260.024)" class="st5 st6 st7">2</text>
	<text transform="matrix(1 0 0 1 118.7189 260.024)" class="st5 st6 st7">3</text>
	<text transform="matrix(1 0 0 1 141.2336 260.024)" class="st5 st6 st7">4</text>
	<text transform="matrix(1 0 0 1 163.9074 260.024)" class="st5 st6 st7">5</text>
	<text transform="matrix(1 0 0 1 186.2296 260.024)" class="st5 st6 st7">6</text>
	<text transform="matrix(1 0 0 1 209.256 260.024)" class="st5 st6 st7">7</text>
	<text transform="matrix(1 0 0 1 231.4464 260.024)" class="st5 st6 st7">8</text>
	<text transform="matrix(1 0 0 1 253.9406 260.024)" class="st5 st6 st7">9</text>
	<text transform="matrix(1 0 0 1 274.591 260.024)" class="st5 st6 st7">10</text>
	<text transform="matrix(1 0 0 1 298.0714 260.024)" class="st5 st6 st7">11</text>
	<text transform="matrix(1 0 0 1 96.152 282.858)" class="st5 st6 st7">1</text>
	<text transform="matrix(1 0 0 1 118.2145 282.858)" class="st5 st6 st7">2</text>
	<text transform="matrix(1 0 0 1 140.7887 282.858)" class="st5 st6 st7">3</text>
	<text transform="matrix(1 0 0 1 163.3034 282.858)" class="st5 st6 st7">4</text>
	<text transform="matrix(1 0 0 1 185.9772 282.858)" class="st5 st6 st7">5</text>
	<text transform="matrix(1 0 0 1 208.2995 282.858)" class="st5 st6 st7">6</text>
	<text transform="matrix(1 0 0 1 231.3258 282.858)" class="st5 st6 st7">7</text>
	<text transform="matrix(1 0 0 1 253.5163 282.858)" class="st5 st6 st7">8</text>
	<text transform="matrix(1 0 0 1 276.0104 282.858)" class="st5 st6 st7">9</text>
	<text transform="matrix(1 0 0 1 296.6608 282.858)" class="st5 st6 st7">10</text>
	<text transform="matrix(1 0 0 1 187.5392 463.5826)" class="st5 st6 st7">1</text>
	<text transform="matrix(1 0 0 1 209.6017 463.5826)" class="st5 st6 st7">2</text>
	<text transform="matrix(1 0 0 1 232.1759 463.5826)" class="st5 st6 st7">3</text>
	<text transform="matrix(1 0 0 1 254.6906 463.5826)" class="st5 st6 st7">4</text>
	<text transform="matrix(1 0 0 1 277.3644 463.5826)" class="st5 st6 st7">5</text>
	<text transform="matrix(1 0 0 1 299.6867 463.5826)" class="st5 st6 st7">6</text>
	<text transform="matrix(1 0 0 1 322.713 463.5826)" class="st5 st6 st7">7</text>
	<text transform="matrix(1 0 0 1 344.9035 463.5826)" class="st5 st6 st7">8</text>
	<text transform="matrix(1 0 0 1 367.3976 463.5826)" class="st5 st6 st7">9</text>
	<text transform="matrix(1 0 0 1 187.5392 487.0709)" class="st5 st6 st7">1</text>
	<text transform="matrix(1 0 0 1 209.6017 487.0709)" class="st5 st6 st7">2</text>
	<text transform="matrix(1 0 0 1 232.1759 487.0709)" class="st5 st6 st7">3</text>
	<text transform="matrix(1 0 0 1 254.6906 487.0709)" class="st5 st6 st7">4</text>
	<text transform="matrix(1 0 0 1 277.3644 487.0709)" class="st5 st6 st7">5</text>
	<text transform="matrix(1 0 0 1 299.6867 487.0709)" class="st5 st6 st7">6</text>
	<text transform="matrix(1 0 0 1 322.713 487.0709)" class="st5 st6 st7">7</text>
	<text transform="matrix(1 0 0 1 344.9035 487.0709)" class="st5 st6 st7">8</text>
	<text transform="matrix(1 0 0 1 367.3976 487.0709)" class="st5 st6 st7">9</text>
	<text transform="matrix(1 0 0 1 210.1095 508.7672)" class="st5 st6 st7">1</text>
	<text transform="matrix(1 0 0 1 232.172 508.7672)" class="st5 st6 st7">2</text>
	<text transform="matrix(1 0 0 1 254.7462 508.7672)" class="st5 st6 st7">3</text>
	<text transform="matrix(1 0 0 1 277.2609 508.7672)" class="st5 st6 st7">4</text>
	<text transform="matrix(1 0 0 1 299.9347 508.7672)" class="st5 st6 st7">5</text>
	<text transform="matrix(1 0 0 1 322.257 508.7672)" class="st5 st6 st7">6</text>
	<text transform="matrix(1 0 0 1 345.2834 508.7672)" class="st5 st6 st7">7</text>
	<text transform="matrix(1 0 0 1 367.4738 508.7672)" class="st5 st6 st7">8</text>
	<text transform="matrix(1 0 0 1 210.1095 531.2974)" class="st5 st6 st7">1</text>
	<text transform="matrix(1 0 0 1 232.172 531.2974)" class="st5 st6 st7">2</text>
	<text transform="matrix(1 0 0 1 254.7462 531.2974)" class="st5 st6 st7">3</text>
	<text transform="matrix(1 0 0 1 277.2609 531.2974)" class="st5 st6 st7">4</text>
	<text transform="matrix(1 0 0 1 299.9347 531.2974)" class="st5 st6 st7">5</text>
	<text transform="matrix(1 0 0 1 322.257 531.2974)" class="st5 st6 st7">6</text>
	<text transform="matrix(1 0 0 1 345.2834 531.2974)" class="st5 st6 st7">7</text>
	<text transform="matrix(1 0 0 1 367.4738 531.2974)" class="st5 st6 st7">8</text>
	<text transform="matrix(1 0 0 1 232.6798 554.3033)" class="st5 st6 st7">1</text>
	<text transform="matrix(1 0 0 1 254.7423 554.3033)" class="st5 st6 st7">2</text>
	<text transform="matrix(1 0 0 1 277.3166 554.3033)" class="st5 st6 st7">3</text>
	<text transform="matrix(1 0 0 1 299.8312 554.3033)" class="st5 st6 st7">4</text>
	<text transform="matrix(1 0 0 1 322.505 554.3033)" class="st5 st6 st7">5</text>
	<text transform="matrix(1 0 0 1 344.8273 554.3033)" class="st5 st6 st7">6</text>
	<text transform="matrix(1 0 0 1 367.8537 554.3033)" class="st5 st6 st7">7</text>
	<text transform="matrix(1 0 0 1 232.6798 576.5611)" class="st5 st6 st7">1</text>
	<text transform="matrix(1 0 0 1 254.7423 576.5611)" class="st5 st6 st7">2</text>
	<text transform="matrix(1 0 0 1 277.3166 576.5611)" class="st5 st6 st7">3</text>
	<text transform="matrix(1 0 0 1 299.8312 576.5611)" class="st5 st6 st7">4</text>
	<text transform="matrix(1 0 0 1 322.505 576.5611)" class="st5 st6 st7">5</text>
	<text transform="matrix(1 0 0 1 344.8273 576.5611)" class="st5 st6 st7">6</text>
	<text transform="matrix(1 0 0 1 367.8537 576.5611)" class="st5 st6 st7">7</text>
	<text transform="matrix(1 0 0 1 232.6798 599.6031)" class="st5 st6 st7">1</text>
	<text transform="matrix(1 0 0 1 254.7423 599.6031)" class="st5 st6 st7">2</text>
	<text transform="matrix(1 0 0 1 277.3166 599.6031)" class="st5 st6 st7">3</text>
	<text transform="matrix(1 0 0 1 299.8312 599.6031)" class="st5 st6 st7">4</text>
	<text transform="matrix(1 0 0 1 322.505 599.6031)" class="st5 st6 st7">5</text>
	<text transform="matrix(1 0 0 1 344.8273 599.6031)" class="st5 st6 st7">6</text>
	<text transform="matrix(1 0 0 1 367.8537 599.6031)" class="st5 st6 st7">7</text>
	<text transform="matrix(1 0 0 1 255.2502 620.983)" class="st5 st6 st7">1</text>
	<text transform="matrix(1 0 0 1 277.3127 620.983)" class="st5 st6 st7">2</text>
	<text transform="matrix(1 0 0 1 299.8869 620.983)" class="st5 st6 st7">3</text>
	<text transform="matrix(1 0 0 1 322.4015 620.983)" class="st5 st6 st7">4</text>
	<text transform="matrix(1 0 0 1 345.0753 620.983)" class="st5 st6 st7">5</text>
	<text transform="matrix(1 0 0 1 367.3976 620.983)" class="st5 st6 st7">6</text>
	<text transform="matrix(1 0 0 1 96.1999 305.4635)" class="st5 st6 st7">1</text>
	<text transform="matrix(1 0 0 1 118.2624 305.4635)" class="st5 st6 st7">2</text>
	<text transform="matrix(1 0 0 1 140.8356 305.4635)" class="st5 st6 st7">3</text>
	<text transform="matrix(1 0 0 1 163.3503 305.4635)" class="st5 st6 st7">4</text>
	<text transform="matrix(1 0 0 1 186.0241 305.4635)" class="st5 st6 st7">5</text>
	<text transform="matrix(1 0 0 1 208.3463 305.4635)" class="st5 st6 st7">6</text>
	<text transform="matrix(1 0 0 1 231.3727 305.4635)" class="st5 st6 st7">7</text>
	<text transform="matrix(1 0 0 1 253.5631 305.4635)" class="st5 st6 st7">8</text>
	<text transform="matrix(1 0 0 1 276.0573 305.4635)" class="st5 st6 st7">9</text>
	<text transform="matrix(1 0 0 1 296.7077 305.4635)" class="st5 st6 st7">10</text>
</g>
</svg>
