<?xml version="1.0" encoding="utf-8"?>
<!-- Generator: Adobe Illustrator 20.1.0, SVG Export Plug-In . SVG Version: 6.00 Build 0)  -->
<svg version="1.1" id="Layer_1" xmlns="http://www.w3.org/2000/svg" xmlns:xlink="http://www.w3.org/1999/xlink" x="0px" y="0px"
	 viewBox="0 0 425.1 672.4" style="enable-background:new 0 0 425.1 672.4;" xml:space="preserve">
<style type="text/css">
	.st0{fill:#D9F6E1;}
	.st1{fill:#FFFFFF;}
	.st2{fill:#737373;}
	.st3{font-family:'OsnovaPro';}
	.st4{font-size:8px;}
	.st5{fill:#7B878F;}
	.st6{font-family:'OsnovaProLight';}
	.st7{font-size:9px;}
</style>
<path class="st0" d="M346.8,16.6L346.8,16.6c4.6,0,8.3-3.7,8.3-8.3v0c0-4.6-3.7-8.3-8.3-8.3l0,0c-4.6,0-8.3,3.7-8.3,8.3v0
	C338.5,12.8,342.3,16.6,346.8,16.6z"/>
<path class="st0" d="M324.2,16.6L324.2,16.6c4.6,0,8.3-3.7,8.3-8.3v0c0-4.6-3.7-8.3-8.3-8.3h0c-4.6,0-8.3,3.7-8.3,8.3v0
	C316,12.8,319.7,16.6,324.2,16.6z"/>
<path class="st0" d="M301.7,16.6L301.7,16.6c4.6,0,8.3-3.7,8.3-8.3v0c0-4.6-3.7-8.3-8.3-8.3h0c-4.6,0-8.3,3.7-8.3,8.3v0
	C293.4,12.8,297.1,16.6,301.7,16.6z"/>
<path class="st0" d="M279.1,16.6L279.1,16.6c4.6,0,8.3-3.7,8.3-8.3v0c0-4.6-3.7-8.3-8.3-8.3h0c-4.6,0-8.3,3.7-8.3,8.3v0
	C270.8,12.8,274.5,16.6,279.1,16.6z"/>
<path class="st0" d="M256.5,16.6L256.5,16.6c4.6,0,8.3-3.7,8.3-8.3v0c0-4.6-3.7-8.3-8.3-8.3l0,0c-4.6,0-8.3,3.7-8.3,8.3v0
	C248.2,12.8,252,16.6,256.5,16.6z"/>
<path class="st0" d="M234,16.6L234,16.6c4.6,0,8.3-3.7,8.3-8.3v0c0-4.6-3.7-8.3-8.3-8.3h0c-4.6,0-8.3,3.7-8.3,8.3v0
	C225.7,12.8,229.4,16.6,234,16.6z"/>
<path class="st0" d="M211.3,16.6L211.3,16.6c4.6,0,8.3-3.7,8.3-8.3v0c0-4.6-3.7-8.3-8.3-8.3h0c-4.6,0-8.3,3.7-8.3,8.3v0
	C203.1,12.8,206.8,16.6,211.3,16.6z"/>
<path class="st0" d="M188.8,16.6L188.8,16.6c4.6,0,8.3-3.7,8.3-8.3v0c0-4.6-3.7-8.3-8.3-8.3h0c-4.6,0-8.3,3.7-8.3,8.3v0
	C180.5,12.8,184.2,16.6,188.8,16.6z"/>
<path class="st0" d="M166.2,16.6L166.2,16.6c4.6,0,8.3-3.7,8.3-8.3v0c0-4.6-3.7-8.3-8.3-8.3h0c-4.6,0-8.3,3.7-8.3,8.3v0
	C157.9,12.8,161.6,16.6,166.2,16.6z"/>
<path class="st0" d="M143.6,16.6L143.6,16.6c4.6,0,8.3-3.7,8.3-8.3v0c0-4.6-3.7-8.3-8.3-8.3h0c-4.6,0-8.3,3.7-8.3,8.3v0
	C135.3,12.8,139.1,16.6,143.6,16.6z"/>
<path class="st0" d="M121.1,16.6L121.1,16.6c4.6,0,8.3-3.7,8.3-8.3v0c0-4.6-3.7-8.3-8.3-8.3l0,0c-4.6,0-8.3,3.7-8.3,8.3v0
	C112.8,12.8,116.5,16.6,121.1,16.6z"/>
<path class="st0" d="M98.5,16.6L98.5,16.6c4.6,0,8.3-3.7,8.3-8.3v0c0-4.6-3.7-8.3-8.3-8.3h0c-4.6,0-8.3,3.7-8.3,8.3v0
	C90.2,12.8,93.9,16.6,98.5,16.6z"/>
<path class="st1" d="M346.8,107.9L346.8,107.9c4.6,0,8.3-3.7,8.3-8.3v0c0-4.6-3.7-8.3-8.3-8.3h0c-4.6,0-8.3,3.7-8.3,8.3v0
	C338.6,104.2,342.3,107.9,346.8,107.9z"/>
<path class="st1" d="M324.3,107.9L324.3,107.9c4.6,0,8.3-3.7,8.3-8.3v0c0-4.6-3.7-8.3-8.3-8.3l0,0c-4.6,0-8.3,3.7-8.3,8.3v0
	C316,104.2,319.7,107.9,324.3,107.9z"/>
<path class="st1" d="M301.7,107.9L301.7,107.9c4.6,0,8.3-3.7,8.3-8.3v0c0-4.6-3.7-8.3-8.3-8.3l0,0c-4.6,0-8.3,3.7-8.3,8.3v0
	C293.4,104.2,297.1,107.9,301.7,107.9z"/>
<path class="st1" d="M279.1,107.9L279.1,107.9c4.6,0,8.3-3.7,8.3-8.3v0c0-4.6-3.7-8.3-8.3-8.3h0c-4.6,0-8.3,3.7-8.3,8.3v0
	C270.8,104.2,274.6,107.9,279.1,107.9z"/>
<path class="st1" d="M256.6,107.9L256.6,107.9c4.6,0,8.3-3.7,8.3-8.3v0c0-4.6-3.7-8.3-8.3-8.3h0c-4.6,0-8.3,3.7-8.3,8.3v0
	C248.3,104.2,252,107.9,256.6,107.9z"/>
<path class="st1" d="M234,107.9L234,107.9c4.6,0,8.3-3.7,8.3-8.3v0c0-4.6-3.7-8.3-8.3-8.3h0c-4.6,0-8.3,3.7-8.3,8.3v0
	C225.7,104.2,229.4,107.9,234,107.9z"/>
<path class="st1" d="M211.4,107.9L211.4,107.9c4.6,0,8.3-3.7,8.3-8.3v0c0-4.6-3.7-8.3-8.3-8.3h0c-4.6,0-8.3,3.7-8.3,8.3v0
	C203.1,104.2,206.9,107.9,211.4,107.9z"/>
<path class="st1" d="M188.8,107.9L188.8,107.9c4.6,0,8.3-3.7,8.3-8.3v0c0-4.6-3.7-8.3-8.3-8.3h0c-4.6,0-8.3,3.7-8.3,8.3v0
	C180.6,104.2,184.3,107.9,188.8,107.9z"/>
<path class="st1" d="M166.3,107.9L166.3,107.9c4.6,0,8.3-3.7,8.3-8.3v0c0-4.6-3.7-8.3-8.3-8.3h0c-4.6,0-8.3,3.7-8.3,8.3v0
	C158,104.2,161.7,107.9,166.3,107.9z"/>
<path class="st1" d="M143.7,107.9L143.7,107.9c4.6,0,8.3-3.7,8.3-8.3v0c0-4.6-3.7-8.3-8.3-8.3h0c-4.6,0-8.3,3.7-8.3,8.3v0
	C135.4,104.2,139.1,107.9,143.7,107.9z"/>
<path class="st1" d="M121.1,107.9L121.1,107.9c4.6,0,8.3-3.7,8.3-8.3v0c0-4.6-3.7-8.3-8.3-8.3h0c-4.6,0-8.3,3.7-8.3,8.3v0
	C112.9,104.2,116.6,107.9,121.1,107.9z"/>
<path class="st1" d="M98.6,107.9L98.6,107.9c4.6,0,8.3-3.7,8.3-8.3v0c0-4.6-3.7-8.3-8.3-8.3h0c-4.6,0-8.3,3.7-8.3,8.3v0
	C90.3,104.2,94,107.9,98.6,107.9z"/>
<path class="st1" d="M76,107.9L76,107.9c4.6,0,8.3-3.7,8.3-8.3v0c0-4.6-3.7-8.3-8.3-8.3h0c-4.6,0-8.3,3.7-8.3,8.3v0
	C67.7,104.2,71.4,107.9,76,107.9z"/>
<path class="st1" d="M53.4,107.9L53.4,107.9c4.6,0,8.3-3.7,8.3-8.3v0c0-4.6-3.7-8.3-8.3-8.3h0c-4.6,0-8.3,3.7-8.3,8.3v0
	C45.1,104.2,48.9,107.9,53.4,107.9z"/>
<path class="st1" d="M30.9,107.9L30.9,107.9c4.6,0,8.3-3.7,8.3-8.3v0c0-4.6-3.7-8.3-8.3-8.3h0c-4.6,0-8.3,3.7-8.3,8.3v0
	C22.6,104.2,26.3,107.9,30.9,107.9z"/>
<path class="st1" d="M346.8,85.3L346.8,85.3c4.6,0,8.3-3.7,8.3-8.3v0c0-4.6-3.7-8.3-8.3-8.3h0c-4.6,0-8.3,3.7-8.3,8.3v0
	C338.6,81.6,342.3,85.3,346.8,85.3z"/>
<path class="st1" d="M324.3,85.3L324.3,85.3c4.6,0,8.3-3.7,8.3-8.3v0c0-4.6-3.7-8.3-8.3-8.3l0,0c-4.6,0-8.3,3.7-8.3,8.3v0
	C316,81.6,319.7,85.3,324.3,85.3z"/>
<path class="st1" d="M301.7,85.3L301.7,85.3c4.6,0,8.3-3.7,8.3-8.3v0c0-4.6-3.7-8.3-8.3-8.3l0,0c-4.6,0-8.3,3.7-8.3,8.3v0
	C293.4,81.6,297.1,85.3,301.7,85.3z"/>
<path class="st1" d="M279.1,85.3L279.1,85.3c4.6,0,8.3-3.7,8.3-8.3v0c0-4.6-3.7-8.3-8.3-8.3h0c-4.6,0-8.3,3.7-8.3,8.3v0
	C270.8,81.6,274.6,85.3,279.1,85.3z"/>
<path class="st1" d="M256.6,85.3L256.6,85.3c4.6,0,8.3-3.7,8.3-8.3v0c0-4.6-3.7-8.3-8.3-8.3h0c-4.6,0-8.3,3.7-8.3,8.3v0
	C248.3,81.6,252,85.3,256.6,85.3z"/>
<path class="st1" d="M234,85.3L234,85.3c4.6,0,8.3-3.7,8.3-8.3v0c0-4.6-3.7-8.3-8.3-8.3h0c-4.6,0-8.3,3.7-8.3,8.3v0
	C225.7,81.6,229.4,85.3,234,85.3z"/>
<path class="st1" d="M211.4,85.3L211.4,85.3c4.6,0,8.3-3.7,8.3-8.3v0c0-4.6-3.7-8.3-8.3-8.3h0c-4.6,0-8.3,3.7-8.3,8.3v0
	C203.1,81.6,206.9,85.3,211.4,85.3z"/>
<path class="st1" d="M188.8,85.3L188.8,85.3c4.6,0,8.3-3.7,8.3-8.3v0c0-4.6-3.7-8.3-8.3-8.3h0c-4.6,0-8.3,3.7-8.3,8.3v0
	C180.6,81.6,184.3,85.3,188.8,85.3z"/>
<path class="st1" d="M166.3,85.3L166.3,85.3c4.6,0,8.3-3.7,8.3-8.3v0c0-4.6-3.7-8.3-8.3-8.3h0c-4.6,0-8.3,3.7-8.3,8.3v0
	C158,81.6,161.7,85.3,166.3,85.3z"/>
<path class="st1" d="M143.7,85.3L143.7,85.3c4.6,0,8.3-3.7,8.3-8.3v0c0-4.6-3.7-8.3-8.3-8.3h0c-4.6,0-8.3,3.7-8.3,8.3v0
	C135.4,81.6,139.1,85.3,143.7,85.3z"/>
<path class="st1" d="M121.1,85.3L121.1,85.3c4.6,0,8.3-3.7,8.3-8.3v0c0-4.6-3.7-8.3-8.3-8.3h0c-4.6,0-8.3,3.7-8.3,8.3v0
	C112.9,81.6,116.6,85.3,121.1,85.3z"/>
<path class="st1" d="M98.6,85.3L98.6,85.3c4.6,0,8.3-3.7,8.3-8.3v0c0-4.6-3.7-8.3-8.3-8.3h0c-4.6,0-8.3,3.7-8.3,8.3v0
	C90.3,81.6,94,85.3,98.6,85.3z"/>
<path class="st1" d="M76,85.3L76,85.3c4.6,0,8.3-3.7,8.3-8.3v0c0-4.6-3.7-8.3-8.3-8.3h0c-4.6,0-8.3,3.7-8.3,8.3v0
	C67.7,81.6,71.4,85.3,76,85.3z"/>
<path class="st1" d="M53.4,85.3L53.4,85.3c4.6,0,8.3-3.7,8.3-8.3v0c0-4.6-3.7-8.3-8.3-8.3h0c-4.6,0-8.3,3.7-8.3,8.3v0
	C45.1,81.6,48.9,85.3,53.4,85.3z"/>
<path class="st1" d="M30.9,85.3L30.9,85.3c4.6,0,8.3-3.7,8.3-8.3v0c0-4.6-3.7-8.3-8.3-8.3h0c-4.6,0-8.3,3.7-8.3,8.3v0
	C22.6,81.6,26.3,85.3,30.9,85.3z"/>
<path class="st1" d="M8.3,85.3L8.3,85.3c4.6,0,8.3-3.7,8.3-8.3v0c0-4.6-3.7-8.3-8.3-8.3h0C3.7,68.7,0,72.5,0,77v0
	C0,81.6,3.7,85.3,8.3,85.3z"/>
<path class="st1" d="M346.8,153L346.8,153c4.6,0,8.3-3.7,8.3-8.3v0c0-4.6-3.7-8.3-8.3-8.3l0,0c-4.6,0-8.3,3.7-8.3,8.3v0
	C338.5,149.3,342.3,153,346.8,153z"/>
<path class="st1" d="M324.2,153L324.2,153c4.6,0,8.3-3.7,8.3-8.3v0c0-4.6-3.7-8.3-8.3-8.3h0c-4.6,0-8.3,3.7-8.3,8.3v0
	C316,149.3,319.7,153,324.2,153z"/>
<path class="st1" d="M301.7,153L301.7,153c4.6,0,8.3-3.7,8.3-8.3v0c0-4.6-3.7-8.3-8.3-8.3h0c-4.6,0-8.3,3.7-8.3,8.3v0
	C293.4,149.3,297.1,153,301.7,153z"/>
<path class="st1" d="M279.1,153L279.1,153c4.6,0,8.3-3.7,8.3-8.3v0c0-4.6-3.7-8.3-8.3-8.3h0c-4.6,0-8.3,3.7-8.3,8.3v0
	C270.8,149.3,274.5,153,279.1,153z"/>
<path class="st1" d="M256.5,153L256.5,153c4.6,0,8.3-3.7,8.3-8.3v0c0-4.6-3.7-8.3-8.3-8.3l0,0c-4.6,0-8.3,3.7-8.3,8.3v0
	C248.2,149.3,252,153,256.5,153z"/>
<path class="st1" d="M234,153L234,153c4.6,0,8.3-3.7,8.3-8.3v0c0-4.6-3.7-8.3-8.3-8.3h0c-4.6,0-8.3,3.7-8.3,8.3v0
	C225.7,149.3,229.4,153,234,153z"/>
<path class="st1" d="M211.4,153L211.4,153c4.6,0,8.3-3.7,8.3-8.3v0c0-4.6-3.7-8.3-8.3-8.3h0c-4.6,0-8.3,3.7-8.3,8.3v0
	C203.1,149.3,206.8,153,211.4,153z"/>
<path class="st1" d="M188.8,153L188.8,153c4.6,0,8.3-3.7,8.3-8.3v0c0-4.6-3.7-8.3-8.3-8.3h0c-4.6,0-8.3,3.7-8.3,8.3v0
	C180.5,149.3,184.3,153,188.8,153z"/>
<path class="st1" d="M166.2,153L166.2,153c4.6,0,8.3-3.7,8.3-8.3v0c0-4.6-3.7-8.3-8.3-8.3h0c-4.6,0-8.3,3.7-8.3,8.3v0
	C158,149.3,161.7,153,166.2,153z"/>
<path class="st1" d="M143.7,153L143.7,153c4.6,0,8.3-3.7,8.3-8.3v0c0-4.6-3.7-8.3-8.3-8.3h0c-4.6,0-8.3,3.7-8.3,8.3v0
	C135.4,149.3,139.1,153,143.7,153z"/>
<path class="st1" d="M121.1,153L121.1,153c4.6,0,8.3-3.7,8.3-8.3v0c0-4.6-3.7-8.3-8.3-8.3h0c-4.6,0-8.3,3.7-8.3,8.3v0
	C112.8,149.3,116.6,153,121.1,153z"/>
<path class="st1" d="M98.5,153L98.5,153c4.6,0,8.3-3.7,8.3-8.3v0c0-4.6-3.7-8.3-8.3-8.3h0c-4.6,0-8.3,3.7-8.3,8.3v0
	C90.3,149.3,94,153,98.5,153z"/>
<path class="st1" d="M76,153L76,153c4.6,0,8.3-3.7,8.3-8.3v0c0-4.6-3.7-8.3-8.3-8.3h0c-4.6,0-8.3,3.7-8.3,8.3v0
	C67.7,149.3,71.4,153,76,153z"/>
<path class="st1" d="M53.4,153L53.4,153c4.6,0,8.3-3.7,8.3-8.3v0c0-4.6-3.7-8.3-8.3-8.3h0c-4.6,0-8.3,3.7-8.3,8.3v0
	C45.1,149.3,48.8,153,53.4,153z"/>
<path class="st1" d="M301.6,333.6L301.6,333.6c4.6,0,8.3-3.7,8.3-8.3v0c0-4.6-3.7-8.3-8.3-8.3l0,0c-4.6,0-8.3,3.7-8.3,8.3v0
	C293.3,329.9,297.1,333.6,301.6,333.6z"/>
<path class="st1" d="M279.1,333.6L279.1,333.6c4.6,0,8.3-3.7,8.3-8.3v0c0-4.6-3.7-8.3-8.3-8.3l0,0c-4.6,0-8.3,3.7-8.3,8.3v0
	C270.8,329.9,274.5,333.6,279.1,333.6z"/>
<path class="st1" d="M256.5,333.6L256.5,333.6c4.6,0,8.3-3.7,8.3-8.3v0c0-4.6-3.7-8.3-8.3-8.3h0c-4.6,0-8.3,3.7-8.3,8.3v0
	C248.2,329.9,251.9,333.6,256.5,333.6z"/>
<path class="st1" d="M233.9,333.6L233.9,333.6c4.6,0,8.3-3.7,8.3-8.3v0c0-4.6-3.7-8.3-8.3-8.3h0c-4.6,0-8.3,3.7-8.3,8.3v0
	C225.6,329.9,229.4,333.6,233.9,333.6z"/>
<path class="st1" d="M211.3,333.6L211.3,333.6c4.6,0,8.3-3.7,8.3-8.3v0c0-4.6-3.7-8.3-8.3-8.3h0c-4.6,0-8.3,3.7-8.3,8.3v0
	C203.1,329.9,206.8,333.6,211.3,333.6z"/>
<path class="st1" d="M188.8,333.6L188.8,333.6c4.6,0,8.3-3.7,8.3-8.3v0c0-4.6-3.7-8.3-8.3-8.3h0c-4.6,0-8.3,3.7-8.3,8.3v0
	C180.5,329.9,184.2,333.6,188.8,333.6z"/>
<path class="st1" d="M166.2,333.6L166.2,333.6c4.6,0,8.3-3.7,8.3-8.3v0c0-4.6-3.7-8.3-8.3-8.3h0c-4.6,0-8.3,3.7-8.3,8.3v0
	C157.9,329.9,161.6,333.6,166.2,333.6z"/>
<path class="st1" d="M143.6,333.6L143.6,333.6c4.6,0,8.3-3.7,8.3-8.3v0c0-4.6-3.7-8.3-8.3-8.3h0c-4.6,0-8.3,3.7-8.3,8.3v0
	C135.3,329.9,139.1,333.6,143.6,333.6z"/>
<path class="st1" d="M301.6,356.2L301.6,356.2c4.6,0,8.3-3.7,8.3-8.3l0,0c0-4.6-3.7-8.3-8.3-8.3l0,0c-4.6,0-8.3,3.7-8.3,8.3l0,0
	C293.3,352.4,297.1,356.2,301.6,356.2z"/>
<path class="st1" d="M279.1,356.2L279.1,356.2c4.6,0,8.3-3.7,8.3-8.3l0,0c0-4.6-3.7-8.3-8.3-8.3l0,0c-4.6,0-8.3,3.7-8.3,8.3l0,0
	C270.8,352.4,274.5,356.2,279.1,356.2z"/>
<path class="st1" d="M256.5,356.2L256.5,356.2c4.6,0,8.3-3.7,8.3-8.3l0,0c0-4.6-3.7-8.3-8.3-8.3h0c-4.6,0-8.3,3.7-8.3,8.3l0,0
	C248.2,352.4,251.9,356.2,256.5,356.2z"/>
<path class="st1" d="M233.9,356.2L233.9,356.2c4.6,0,8.3-3.7,8.3-8.3l0,0c0-4.6-3.7-8.3-8.3-8.3h0c-4.6,0-8.3,3.7-8.3,8.3l0,0
	C225.6,352.4,229.4,356.2,233.9,356.2z"/>
<path class="st1" d="M211.3,356.2L211.3,356.2c4.6,0,8.3-3.7,8.3-8.3l0,0c0-4.6-3.7-8.3-8.3-8.3h0c-4.6,0-8.3,3.7-8.3,8.3l0,0
	C203.1,352.4,206.8,356.2,211.3,356.2z"/>
<path class="st1" d="M188.8,356.2L188.8,356.2c4.6,0,8.3-3.7,8.3-8.3l0,0c0-4.6-3.7-8.3-8.3-8.3h0c-4.6,0-8.3,3.7-8.3,8.3l0,0
	C180.5,352.4,184.2,356.2,188.8,356.2z"/>
<path class="st1" d="M166.2,356.2L166.2,356.2c4.6,0,8.3-3.7,8.3-8.3l0,0c0-4.6-3.7-8.3-8.3-8.3h0c-4.6,0-8.3,3.7-8.3,8.3l0,0
	C157.9,352.4,161.6,356.2,166.2,356.2z"/>
<path class="st1" d="M143.6,356.2L143.6,356.2c4.6,0,8.3-3.7,8.3-8.3l0,0c0-4.6-3.7-8.3-8.3-8.3h0c-4.6,0-8.3,3.7-8.3,8.3l0,0
	C135.3,352.4,139.1,356.2,143.6,356.2z"/>
<path class="st1" d="M301.6,378.8L301.6,378.8c4.6,0,8.3-3.7,8.3-8.3v0c0-4.6-3.7-8.3-8.3-8.3l0,0c-4.6,0-8.3,3.7-8.3,8.3v0
	C293.3,375.1,297.1,378.8,301.6,378.8z"/>
<path class="st1" d="M279.1,378.8L279.1,378.8c4.6,0,8.3-3.7,8.3-8.3v0c0-4.6-3.7-8.3-8.3-8.3l0,0c-4.6,0-8.3,3.7-8.3,8.3v0
	C270.8,375.1,274.5,378.8,279.1,378.8z"/>
<path class="st1" d="M256.5,378.8L256.5,378.8c4.6,0,8.3-3.7,8.3-8.3v0c0-4.6-3.7-8.3-8.3-8.3h0c-4.6,0-8.3,3.7-8.3,8.3v0
	C248.2,375.1,251.9,378.8,256.5,378.8z"/>
<path class="st1" d="M233.9,378.8L233.9,378.8c4.6,0,8.3-3.7,8.3-8.3v0c0-4.6-3.7-8.3-8.3-8.3h0c-4.6,0-8.3,3.7-8.3,8.3v0
	C225.6,375.1,229.4,378.8,233.9,378.8z"/>
<path class="st1" d="M211.3,378.8L211.3,378.8c4.6,0,8.3-3.7,8.3-8.3v0c0-4.6-3.7-8.3-8.3-8.3h0c-4.6,0-8.3,3.7-8.3,8.3v0
	C203.1,375.1,206.8,378.8,211.3,378.8z"/>
<path class="st1" d="M188.8,378.8L188.8,378.8c4.6,0,8.3-3.7,8.3-8.3v0c0-4.6-3.7-8.3-8.3-8.3h0c-4.6,0-8.3,3.7-8.3,8.3v0
	C180.5,375.1,184.2,378.8,188.8,378.8z"/>
<path class="st1" d="M166.2,378.8L166.2,378.8c4.6,0,8.3-3.7,8.3-8.3v0c0-4.6-3.7-8.3-8.3-8.3h0c-4.6,0-8.3,3.7-8.3,8.3v0
	C157.9,375.1,161.6,378.8,166.2,378.8z"/>
<path class="st1" d="M143.6,378.8L143.6,378.8c4.6,0,8.3-3.7,8.3-8.3v0c0-4.6-3.7-8.3-8.3-8.3h0c-4.6,0-8.3,3.7-8.3,8.3v0
	C135.3,375.1,139.1,378.8,143.6,378.8z"/>
<path class="st1" d="M301.6,401.4L301.6,401.4c4.6,0,8.3-3.7,8.3-8.3l0,0c0-4.6-3.7-8.3-8.3-8.3l0,0c-4.6,0-8.3,3.7-8.3,8.3l0,0
	C293.3,397.6,297.1,401.4,301.6,401.4z"/>
<path class="st1" d="M279.1,401.4L279.1,401.4c4.6,0,8.3-3.7,8.3-8.3l0,0c0-4.6-3.7-8.3-8.3-8.3l0,0c-4.6,0-8.3,3.7-8.3,8.3l0,0
	C270.8,397.6,274.5,401.4,279.1,401.4z"/>
<path class="st1" d="M256.5,401.4L256.5,401.4c4.6,0,8.3-3.7,8.3-8.3l0,0c0-4.6-3.7-8.3-8.3-8.3h0c-4.6,0-8.3,3.7-8.3,8.3l0,0
	C248.2,397.6,251.9,401.4,256.5,401.4z"/>
<path class="st1" d="M233.9,401.4L233.9,401.4c4.6,0,8.3-3.7,8.3-8.3l0,0c0-4.6-3.7-8.3-8.3-8.3h0c-4.6,0-8.3,3.7-8.3,8.3l0,0
	C225.6,397.6,229.4,401.4,233.9,401.4z"/>
<path class="st1" d="M211.3,401.4L211.3,401.4c4.6,0,8.3-3.7,8.3-8.3l0,0c0-4.6-3.7-8.3-8.3-8.3h0c-4.6,0-8.3,3.7-8.3,8.3l0,0
	C203.1,397.6,206.8,401.4,211.3,401.4z"/>
<path class="st1" d="M188.8,401.4L188.8,401.4c4.6,0,8.3-3.7,8.3-8.3l0,0c0-4.6-3.7-8.3-8.3-8.3h0c-4.6,0-8.3,3.7-8.3,8.3l0,0
	C180.5,397.6,184.2,401.4,188.8,401.4z"/>
<path class="st1" d="M166.2,401.4L166.2,401.4c4.6,0,8.3-3.7,8.3-8.3l0,0c0-4.6-3.7-8.3-8.3-8.3h0c-4.6,0-8.3,3.7-8.3,8.3l0,0
	C157.9,397.6,161.6,401.4,166.2,401.4z"/>
<path class="st1" d="M301.6,424L301.6,424c4.6,0,8.3-3.7,8.3-8.3v0c0-4.6-3.7-8.3-8.3-8.3l0,0c-4.6,0-8.3,3.7-8.3,8.3v0
	C293.3,420.3,297.1,424,301.6,424z"/>
<path class="st1" d="M279.1,424L279.1,424c4.6,0,8.3-3.7,8.3-8.3v0c0-4.6-3.7-8.3-8.3-8.3l0,0c-4.6,0-8.3,3.7-8.3,8.3v0
	C270.8,420.3,274.5,424,279.1,424z"/>
<path class="st1" d="M256.5,424L256.5,424c4.6,0,8.3-3.7,8.3-8.3v0c0-4.6-3.7-8.3-8.3-8.3h0c-4.6,0-8.3,3.7-8.3,8.3v0
	C248.2,420.3,251.9,424,256.5,424z"/>
<path class="st1" d="M233.9,424L233.9,424c4.6,0,8.3-3.7,8.3-8.3v0c0-4.6-3.7-8.3-8.3-8.3h0c-4.6,0-8.3,3.7-8.3,8.3v0
	C225.6,420.3,229.4,424,233.9,424z"/>
<path class="st1" d="M211.3,424L211.3,424c4.6,0,8.3-3.7,8.3-8.3v0c0-4.6-3.7-8.3-8.3-8.3h0c-4.6,0-8.3,3.7-8.3,8.3v0
	C203.1,420.3,206.8,424,211.3,424z"/>
<path class="st1" d="M188.8,424L188.8,424c4.6,0,8.3-3.7,8.3-8.3v0c0-4.6-3.7-8.3-8.3-8.3h0c-4.6,0-8.3,3.7-8.3,8.3v0
	C180.5,420.3,184.2,424,188.8,424z"/>
<path class="st1" d="M166.2,424L166.2,424c4.6,0,8.3-3.7,8.3-8.3v0c0-4.6-3.7-8.3-8.3-8.3h0c-4.6,0-8.3,3.7-8.3,8.3v0
	C157.9,420.3,161.6,424,166.2,424z"/>
<path class="st1" d="M346.8,446.5L346.8,446.5c4.6,0,8.3-3.7,8.3-8.3l0,0c0-4.6-3.7-8.3-8.3-8.3l0,0c-4.6,0-8.3,3.7-8.3,8.3l0,0
	C338.5,442.8,342.3,446.5,346.8,446.5z"/>
<path class="st1" d="M324.2,446.5L324.2,446.5c4.6,0,8.3-3.7,8.3-8.3l0,0c0-4.6-3.7-8.3-8.3-8.3h0c-4.6,0-8.3,3.7-8.3,8.3l0,0
	C316,442.8,319.7,446.5,324.2,446.5z"/>
<path class="st1" d="M301.7,446.5L301.7,446.5c4.6,0,8.3-3.7,8.3-8.3l0,0c0-4.6-3.7-8.3-8.3-8.3h0c-4.6,0-8.3,3.7-8.3,8.3l0,0
	C293.4,442.8,297.1,446.5,301.7,446.5z"/>
<path class="st1" d="M279.1,446.5L279.1,446.5c4.6,0,8.3-3.7,8.3-8.3l0,0c0-4.6-3.7-8.3-8.3-8.3h0c-4.6,0-8.3,3.7-8.3,8.3l0,0
	C270.8,442.8,274.5,446.5,279.1,446.5z"/>
<path class="st1" d="M256.5,446.5L256.5,446.5c4.6,0,8.3-3.7,8.3-8.3l0,0c0-4.6-3.7-8.3-8.3-8.3l0,0c-4.6,0-8.3,3.7-8.3,8.3l0,0
	C248.2,442.8,252,446.5,256.5,446.5z"/>
<path class="st1" d="M234,446.5L234,446.5c4.6,0,8.3-3.7,8.3-8.3l0,0c0-4.6-3.7-8.3-8.3-8.3h0c-4.6,0-8.3,3.7-8.3,8.3l0,0
	C225.7,442.8,229.4,446.5,234,446.5z"/>
<path class="st1" d="M211.4,446.5L211.4,446.5c4.6,0,8.3-3.7,8.3-8.3l0,0c0-4.6-3.7-8.3-8.3-8.3h0c-4.6,0-8.3,3.7-8.3,8.3l0,0
	C203.1,442.8,206.8,446.5,211.4,446.5z"/>
<path class="st1" d="M188.8,446.5L188.8,446.5c4.6,0,8.3-3.7,8.3-8.3l0,0c0-4.6-3.7-8.3-8.3-8.3h0c-4.6,0-8.3,3.7-8.3,8.3l0,0
	C180.5,442.8,184.3,446.5,188.8,446.5z"/>
<path class="st1" d="M166.2,446.5L166.2,446.5c4.6,0,8.3-3.7,8.3-8.3l0,0c0-4.6-3.7-8.3-8.3-8.3h0c-4.6,0-8.3,3.7-8.3,8.3l0,0
	C158,442.8,161.7,446.5,166.2,446.5z"/>
<path class="st1" d="M76,469.2L76,469.2c4.6,0,8.3-3.7,8.3-8.3l0,0c0-4.6-3.7-8.3-8.3-8.3h0c-4.6,0-8.3,3.7-8.3,8.3l0,0
	C67.7,465.5,71.4,469.2,76,469.2z"/>
<path class="st1" d="M53.4,469.2L53.4,469.2c4.6,0,8.3-3.7,8.3-8.3l0,0c0-4.6-3.7-8.3-8.3-8.3h0c-4.6,0-8.3,3.7-8.3,8.3l0,0
	C45.1,465.5,48.8,469.2,53.4,469.2z"/>
<path class="st1" d="M76,491.8L76,491.8c4.6,0,8.3-3.7,8.3-8.3v0c0-4.6-3.7-8.3-8.3-8.3h0c-4.6,0-8.3,3.7-8.3,8.3v0
	C67.7,488,71.4,491.8,76,491.8z"/>
<path class="st1" d="M346.8,130.5L346.8,130.5c4.6,0,8.3-3.7,8.3-8.3v0c0-4.6-3.7-8.3-8.3-8.3l0,0c-4.6,0-8.3,3.7-8.3,8.3v0
	C338.5,126.7,342.3,130.5,346.8,130.5z"/>
<path class="st1" d="M324.2,130.5L324.2,130.5c4.6,0,8.3-3.7,8.3-8.3v0c0-4.6-3.7-8.3-8.3-8.3h0c-4.6,0-8.3,3.7-8.3,8.3v0
	C316,126.7,319.7,130.5,324.2,130.5z"/>
<path class="st1" d="M301.7,130.5L301.7,130.5c4.6,0,8.3-3.7,8.3-8.3v0c0-4.6-3.7-8.3-8.3-8.3h0c-4.6,0-8.3,3.7-8.3,8.3v0
	C293.4,126.7,297.1,130.5,301.7,130.5z"/>
<path class="st1" d="M279.1,130.5L279.1,130.5c4.6,0,8.3-3.7,8.3-8.3v0c0-4.6-3.7-8.3-8.3-8.3h0c-4.6,0-8.3,3.7-8.3,8.3v0
	C270.8,126.7,274.5,130.5,279.1,130.5z"/>
<path class="st1" d="M256.5,130.5L256.5,130.5c4.6,0,8.3-3.7,8.3-8.3v0c0-4.6-3.7-8.3-8.3-8.3l0,0c-4.6,0-8.3,3.7-8.3,8.3v0
	C248.2,126.7,252,130.5,256.5,130.5z"/>
<path class="st1" d="M234,130.5L234,130.5c4.6,0,8.3-3.7,8.3-8.3v0c0-4.6-3.7-8.3-8.3-8.3h0c-4.6,0-8.3,3.7-8.3,8.3v0
	C225.7,126.7,229.4,130.5,234,130.5z"/>
<path class="st1" d="M211.4,130.5L211.4,130.5c4.6,0,8.3-3.7,8.3-8.3v0c0-4.6-3.7-8.3-8.3-8.3h0c-4.6,0-8.3,3.7-8.3,8.3v0
	C203.1,126.7,206.8,130.5,211.4,130.5z"/>
<path class="st1" d="M188.8,130.5L188.8,130.5c4.6,0,8.3-3.7,8.3-8.3v0c0-4.6-3.7-8.3-8.3-8.3h0c-4.6,0-8.3,3.7-8.3,8.3v0
	C180.5,126.7,184.3,130.5,188.8,130.5z"/>
<path class="st1" d="M166.2,130.5L166.2,130.5c4.6,0,8.3-3.7,8.3-8.3v0c0-4.6-3.7-8.3-8.3-8.3h0c-4.6,0-8.3,3.7-8.3,8.3v0
	C158,126.7,161.7,130.5,166.2,130.5z"/>
<path class="st1" d="M143.7,130.5L143.7,130.5c4.6,0,8.3-3.7,8.3-8.3v0c0-4.6-3.7-8.3-8.3-8.3h0c-4.6,0-8.3,3.7-8.3,8.3v0
	C135.4,126.7,139.1,130.5,143.7,130.5z"/>
<path class="st1" d="M121.1,130.5L121.1,130.5c4.6,0,8.3-3.7,8.3-8.3v0c0-4.6-3.7-8.3-8.3-8.3h0c-4.6,0-8.3,3.7-8.3,8.3v0
	C112.8,126.7,116.6,130.5,121.1,130.5z"/>
<path class="st1" d="M98.5,130.5L98.5,130.5c4.6,0,8.3-3.7,8.3-8.3v0c0-4.6-3.7-8.3-8.3-8.3h0c-4.6,0-8.3,3.7-8.3,8.3v0
	C90.3,126.7,94,130.5,98.5,130.5z"/>
<path class="st1" d="M76,130.5L76,130.5c4.6,0,8.3-3.7,8.3-8.3v0c0-4.6-3.7-8.3-8.3-8.3h0c-4.6,0-8.3,3.7-8.3,8.3v0
	C67.7,126.7,71.4,130.5,76,130.5z"/>
<path class="st1" d="M53.4,130.5L53.4,130.5c4.6,0,8.3-3.7,8.3-8.3v0c0-4.6-3.7-8.3-8.3-8.3h0c-4.6,0-8.3,3.7-8.3,8.3v0
	C45.1,126.7,48.8,130.5,53.4,130.5z"/>
<path class="st1" d="M30.8,130.5L30.8,130.5c4.6,0,8.3-3.7,8.3-8.3v0c0-4.6-3.7-8.3-8.3-8.3h0c-4.6,0-8.3,3.7-8.3,8.3v0
	C22.5,126.7,26.3,130.5,30.8,130.5z"/>
<path class="st1" d="M30.8,153L30.8,153c4.6,0,8.3-3.7,8.3-8.3v0c0-4.6-3.7-8.3-8.3-8.3h0c-4.6,0-8.3,3.7-8.3,8.3v0
	C22.5,149.3,26.3,153,30.8,153z"/>
<path class="st1" d="M346.8,175.6L346.8,175.6c4.6,0,8.3-3.7,8.3-8.3v0c0-4.6-3.7-8.3-8.3-8.3l0,0c-4.6,0-8.3,3.7-8.3,8.3v0
	C338.5,171.9,342.2,175.6,346.8,175.6z"/>
<path class="st1" d="M324.2,175.6L324.2,175.6c4.6,0,8.3-3.7,8.3-8.3v0c0-4.6-3.7-8.3-8.3-8.3h0c-4.6,0-8.3,3.7-8.3,8.3v0
	C315.9,171.9,319.7,175.6,324.2,175.6z"/>
<path class="st1" d="M301.7,175.6L301.7,175.6c4.6,0,8.3-3.7,8.3-8.3v0c0-4.6-3.7-8.3-8.3-8.3h0c-4.6,0-8.3,3.7-8.3,8.3v0
	C293.4,171.9,297.1,175.6,301.7,175.6z"/>
<path class="st1" d="M279.1,175.6L279.1,175.6c4.6,0,8.3-3.7,8.3-8.3v0c0-4.6-3.7-8.3-8.3-8.3h0c-4.6,0-8.3,3.7-8.3,8.3v0
	C270.8,171.9,274.5,175.6,279.1,175.6z"/>
<path class="st1" d="M256.5,175.6L256.5,175.6c4.6,0,8.3-3.7,8.3-8.3v0c0-4.6-3.7-8.3-8.3-8.3l0,0c-4.6,0-8.3,3.7-8.3,8.3v0
	C248.2,171.9,252,175.6,256.5,175.6z"/>
<path class="st1" d="M233.9,175.6L233.9,175.6c4.6,0,8.3-3.7,8.3-8.3v0c0-4.6-3.7-8.3-8.3-8.3h0c-4.6,0-8.3,3.7-8.3,8.3v0
	C225.7,171.9,229.4,175.6,233.9,175.6z"/>
<path class="st1" d="M211.4,175.6L211.4,175.6c4.6,0,8.3-3.7,8.3-8.3v0c0-4.6-3.7-8.3-8.3-8.3h0c-4.6,0-8.3,3.7-8.3,8.3v0
	C203.1,171.9,206.8,175.6,211.4,175.6z"/>
<path class="st1" d="M188.8,175.6L188.8,175.6c4.6,0,8.3-3.7,8.3-8.3v0c0-4.6-3.7-8.3-8.3-8.3h0c-4.6,0-8.3,3.7-8.3,8.3v0
	C180.5,171.9,184.2,175.6,188.8,175.6z"/>
<path class="st1" d="M166.2,175.6L166.2,175.6c4.6,0,8.3-3.7,8.3-8.3v0c0-4.6-3.7-8.3-8.3-8.3h0c-4.6,0-8.3,3.7-8.3,8.3v0
	C157.9,171.9,161.7,175.6,166.2,175.6z"/>
<path class="st1" d="M143.7,175.6L143.7,175.6c4.6,0,8.3-3.7,8.3-8.3v0c0-4.6-3.7-8.3-8.3-8.3h0c-4.6,0-8.3,3.7-8.3,8.3v0
	C135.4,171.9,139.1,175.6,143.7,175.6z"/>
<path class="st1" d="M121.1,175.6L121.1,175.6c4.6,0,8.3-3.7,8.3-8.3v0c0-4.6-3.7-8.3-8.3-8.3h0c-4.6,0-8.3,3.7-8.3,8.3v0
	C112.8,171.9,116.5,175.6,121.1,175.6z"/>
<path class="st1" d="M98.5,175.6L98.5,175.6c4.6,0,8.3-3.7,8.3-8.3v0c0-4.6-3.7-8.3-8.3-8.3h0c-4.6,0-8.3,3.7-8.3,8.3v0
	C90.2,171.9,94,175.6,98.5,175.6z"/>
<path class="st1" d="M346.8,220.7L346.8,220.7c4.6,0,8.3-3.7,8.3-8.3v0c0-4.6-3.7-8.3-8.3-8.3h0c-4.6,0-8.3,3.7-8.3,8.3v0
	C338.5,217,342.3,220.7,346.8,220.7z"/>
<path class="st1" d="M324.2,220.7L324.2,220.7c4.6,0,8.3-3.7,8.3-8.3v0c0-4.6-3.7-8.3-8.3-8.3l0,0c-4.6,0-8.3,3.7-8.3,8.3v0
	C316,217,319.7,220.7,324.2,220.7z"/>
<path class="st1" d="M301.7,220.7L301.7,220.7c4.6,0,8.3-3.7,8.3-8.3v0c0-4.6-3.7-8.3-8.3-8.3l0,0c-4.6,0-8.3,3.7-8.3,8.3v0
	C293.4,217,297.1,220.7,301.7,220.7z"/>
<path class="st1" d="M279.1,220.7L279.1,220.7c4.6,0,8.3-3.7,8.3-8.3v0c0-4.6-3.7-8.3-8.3-8.3h0c-4.6,0-8.3,3.7-8.3,8.3v0
	C270.8,217,274.5,220.7,279.1,220.7z"/>
<path class="st1" d="M256.5,220.7L256.5,220.7c4.6,0,8.3-3.7,8.3-8.3v0c0-4.6-3.7-8.3-8.3-8.3h0c-4.6,0-8.3,3.7-8.3,8.3v0
	C248.3,217,252,220.7,256.5,220.7z"/>
<path class="st1" d="M234,220.7L234,220.7c4.6,0,8.3-3.7,8.3-8.3v0c0-4.6-3.7-8.3-8.3-8.3h0c-4.6,0-8.3,3.7-8.3,8.3v0
	C225.7,217,229.4,220.7,234,220.7z"/>
<path class="st1" d="M211.4,220.7L211.4,220.7c4.6,0,8.3-3.7,8.3-8.3v0c0-4.6-3.7-8.3-8.3-8.3h0c-4.6,0-8.3,3.7-8.3,8.3v0
	C203.1,217,206.8,220.7,211.4,220.7z"/>
<path class="st1" d="M188.8,220.7L188.8,220.7c4.6,0,8.3-3.7,8.3-8.3v0c0-4.6-3.7-8.3-8.3-8.3h0c-4.6,0-8.3,3.7-8.3,8.3v0
	C180.5,217,184.3,220.7,188.8,220.7z"/>
<path class="st1" d="M166.3,220.7L166.3,220.7c4.6,0,8.3-3.7,8.3-8.3v0c0-4.6-3.7-8.3-8.3-8.3h0c-4.6,0-8.3,3.7-8.3,8.3v0
	C158,217,161.7,220.7,166.3,220.7z"/>
<path class="st1" d="M143.7,220.7L143.7,220.7c4.6,0,8.3-3.7,8.3-8.3v0c0-4.6-3.7-8.3-8.3-8.3h0c-4.6,0-8.3,3.7-8.3,8.3v0
	C135.4,217,139.1,220.7,143.7,220.7z"/>
<path class="st1" d="M121.1,220.7L121.1,220.7c4.6,0,8.3-3.7,8.3-8.3v0c0-4.6-3.7-8.3-8.3-8.3h0c-4.6,0-8.3,3.7-8.3,8.3v0
	C112.8,217,116.6,220.7,121.1,220.7z"/>
<path class="st1" d="M98.5,220.7L98.5,220.7c4.6,0,8.3-3.7,8.3-8.3v0c0-4.6-3.7-8.3-8.3-8.3h0c-4.6,0-8.3,3.7-8.3,8.3v0
	C90.3,217,94,220.7,98.5,220.7z"/>
<path class="st1" d="M346.8,198.2L346.8,198.2c4.6,0,8.3-3.7,8.3-8.3v0c0-4.6-3.7-8.3-8.3-8.3h0c-4.6,0-8.3,3.7-8.3,8.3v0
	C338.5,194.4,342.3,198.2,346.8,198.2z"/>
<path class="st1" d="M324.2,198.2L324.2,198.2c4.6,0,8.3-3.7,8.3-8.3v0c0-4.6-3.7-8.3-8.3-8.3l0,0c-4.6,0-8.3,3.7-8.3,8.3v0
	C316,194.4,319.7,198.2,324.2,198.2z"/>
<path class="st1" d="M301.7,198.2L301.7,198.2c4.6,0,8.3-3.7,8.3-8.3v0c0-4.6-3.7-8.3-8.3-8.3l0,0c-4.6,0-8.3,3.7-8.3,8.3v0
	C293.4,194.4,297.1,198.2,301.7,198.2z"/>
<path class="st1" d="M279.1,198.2L279.1,198.2c4.6,0,8.3-3.7,8.3-8.3v0c0-4.6-3.7-8.3-8.3-8.3h0c-4.6,0-8.3,3.7-8.3,8.3v0
	C270.8,194.4,274.5,198.2,279.1,198.2z"/>
<path class="st1" d="M256.5,198.2L256.5,198.2c4.6,0,8.3-3.7,8.3-8.3v0c0-4.6-3.7-8.3-8.3-8.3h0c-4.6,0-8.3,3.7-8.3,8.3v0
	C248.3,194.4,252,198.2,256.5,198.2z"/>
<path class="st1" d="M234,198.2L234,198.2c4.6,0,8.3-3.7,8.3-8.3v0c0-4.6-3.7-8.3-8.3-8.3h0c-4.6,0-8.3,3.7-8.3,8.3v0
	C225.7,194.4,229.4,198.2,234,198.2z"/>
<path class="st1" d="M211.4,198.2L211.4,198.2c4.6,0,8.3-3.7,8.3-8.3v0c0-4.6-3.7-8.3-8.3-8.3h0c-4.6,0-8.3,3.7-8.3,8.3v0
	C203.1,194.4,206.8,198.2,211.4,198.2z"/>
<path class="st1" d="M188.8,198.2L188.8,198.2c4.6,0,8.3-3.7,8.3-8.3v0c0-4.6-3.7-8.3-8.3-8.3h0c-4.6,0-8.3,3.7-8.3,8.3v0
	C180.5,194.4,184.3,198.2,188.8,198.2z"/>
<path class="st1" d="M166.3,198.2L166.3,198.2c4.6,0,8.3-3.7,8.3-8.3v0c0-4.6-3.7-8.3-8.3-8.3h0c-4.6,0-8.3,3.7-8.3,8.3v0
	C158,194.4,161.7,198.2,166.3,198.2z"/>
<path class="st1" d="M143.7,198.2L143.7,198.2c4.6,0,8.3-3.7,8.3-8.3v0c0-4.6-3.7-8.3-8.3-8.3h0c-4.6,0-8.3,3.7-8.3,8.3v0
	C135.4,194.4,139.1,198.2,143.7,198.2z"/>
<path class="st1" d="M121.1,198.2L121.1,198.2c4.6,0,8.3-3.7,8.3-8.3v0c0-4.6-3.7-8.3-8.3-8.3h0c-4.6,0-8.3,3.7-8.3,8.3v0
	C112.8,194.4,116.6,198.2,121.1,198.2z"/>
<path class="st1" d="M98.5,198.2L98.5,198.2c4.6,0,8.3-3.7,8.3-8.3v0c0-4.6-3.7-8.3-8.3-8.3h0c-4.6,0-8.3,3.7-8.3,8.3v0
	C90.3,194.4,94,198.2,98.5,198.2z"/>
<path class="st1" d="M301.7,243.3L301.7,243.3c4.6,0,8.3-3.7,8.3-8.3v0c0-4.6-3.7-8.3-8.3-8.3h0c-4.6,0-8.3,3.7-8.3,8.3v0
	C293.4,239.6,297.1,243.3,301.7,243.3z"/>
<path class="st1" d="M279.1,243.3L279.1,243.3c4.6,0,8.3-3.7,8.3-8.3v0c0-4.6-3.7-8.3-8.3-8.3h0c-4.6,0-8.3,3.7-8.3,8.3v0
	C270.8,239.6,274.5,243.3,279.1,243.3z"/>
<path class="st1" d="M256.5,243.3L256.5,243.3c4.6,0,8.3-3.7,8.3-8.3v0c0-4.6-3.7-8.3-8.3-8.3l0,0c-4.6,0-8.3,3.7-8.3,8.3v0
	C248.2,239.6,252,243.3,256.5,243.3z"/>
<path class="st1" d="M233.9,243.3L233.9,243.3c4.6,0,8.3-3.7,8.3-8.3v0c0-4.6-3.7-8.3-8.3-8.3h0c-4.6,0-8.3,3.7-8.3,8.3v0
	C225.7,239.6,229.4,243.3,233.9,243.3z"/>
<path class="st1" d="M211.4,243.3L211.4,243.3c4.6,0,8.3-3.7,8.3-8.3v0c0-4.6-3.7-8.3-8.3-8.3h0c-4.6,0-8.3,3.7-8.3,8.3v0
	C203.1,239.6,206.8,243.3,211.4,243.3z"/>
<path class="st1" d="M188.8,243.3L188.8,243.3c4.6,0,8.3-3.7,8.3-8.3v0c0-4.6-3.7-8.3-8.3-8.3h0c-4.6,0-8.3,3.7-8.3,8.3v0
	C180.5,239.6,184.2,243.3,188.8,243.3z"/>
<path class="st1" d="M166.2,243.3L166.2,243.3c4.6,0,8.3-3.7,8.3-8.3v0c0-4.6-3.7-8.3-8.3-8.3h0c-4.6,0-8.3,3.7-8.3,8.3v0
	C157.9,239.6,161.7,243.3,166.2,243.3z"/>
<path class="st1" d="M143.7,243.3L143.7,243.3c4.6,0,8.3-3.7,8.3-8.3v0c0-4.6-3.7-8.3-8.3-8.3h0c-4.6,0-8.3,3.7-8.3,8.3v0
	C135.4,239.6,139.1,243.3,143.7,243.3z"/>
<path class="st1" d="M121.1,243.3L121.1,243.3c4.6,0,8.3-3.7,8.3-8.3v0c0-4.6-3.7-8.3-8.3-8.3h0c-4.6,0-8.3,3.7-8.3,8.3v0
	C112.8,239.6,116.5,243.3,121.1,243.3z"/>
<path class="st1" d="M98.5,243.3L98.5,243.3c4.6,0,8.3-3.7,8.3-8.3v0c0-4.6-3.7-8.3-8.3-8.3h0c-4.6,0-8.3,3.7-8.3,8.3v0
	C90.2,239.6,94,243.3,98.5,243.3z"/>
<path class="st1" d="M301.6,288.4L301.6,288.4c4.6,0,8.3-3.7,8.3-8.3v0c0-4.6-3.7-8.3-8.3-8.3h0c-4.6,0-8.3,3.7-8.3,8.3v0
	C293.3,284.7,297.1,288.4,301.6,288.4z"/>
<path class="st1" d="M279.1,288.4L279.1,288.4c4.6,0,8.3-3.7,8.3-8.3v0c0-4.6-3.7-8.3-8.3-8.3h0c-4.6,0-8.3,3.7-8.3,8.3v0
	C270.8,284.7,274.5,288.4,279.1,288.4z"/>
<path class="st1" d="M256.5,288.4L256.5,288.4c4.6,0,8.3-3.7,8.3-8.3v0c0-4.6-3.7-8.3-8.3-8.3l0,0c-4.6,0-8.3,3.7-8.3,8.3v0
	C248.2,284.7,251.9,288.4,256.5,288.4z"/>
<path class="st1" d="M233.9,288.4L233.9,288.4c4.6,0,8.3-3.7,8.3-8.3v0c0-4.6-3.7-8.3-8.3-8.3h0c-4.6,0-8.3,3.7-8.3,8.3v0
	C225.6,284.7,229.4,288.4,233.9,288.4z"/>
<path class="st1" d="M211.4,288.4L211.4,288.4c4.6,0,8.3-3.7,8.3-8.3v0c0-4.6-3.7-8.3-8.3-8.3h0c-4.6,0-8.3,3.7-8.3,8.3v0
	C203.1,284.7,206.8,288.4,211.4,288.4z"/>
<path class="st1" d="M188.8,288.4L188.8,288.4c4.6,0,8.3-3.7,8.3-8.3v0c0-4.6-3.7-8.3-8.3-8.3h0c-4.6,0-8.3,3.7-8.3,8.3v0
	C180.5,284.7,184.2,288.4,188.8,288.4z"/>
<path class="st1" d="M166.2,288.4L166.2,288.4c4.6,0,8.3-3.7,8.3-8.3v0c0-4.6-3.7-8.3-8.3-8.3h0c-4.6,0-8.3,3.7-8.3,8.3v0
	C157.9,284.7,161.7,288.4,166.2,288.4z"/>
<path class="st1" d="M143.6,288.4L143.6,288.4c4.6,0,8.3-3.7,8.3-8.3v0c0-4.6-3.7-8.3-8.3-8.3h0c-4.6,0-8.3,3.7-8.3,8.3v0
	C135.4,284.7,139.1,288.4,143.6,288.4z"/>
<path class="st1" d="M121.1,288.4L121.1,288.4c4.6,0,8.3-3.7,8.3-8.3v0c0-4.6-3.7-8.3-8.3-8.3h0c-4.6,0-8.3,3.7-8.3,8.3v0
	C112.8,284.7,116.5,288.4,121.1,288.4z"/>
<path class="st1" d="M301.6,265.9L301.6,265.9c4.6,0,8.3-3.7,8.3-8.3v0c0-4.6-3.7-8.3-8.3-8.3h0c-4.6,0-8.3,3.7-8.3,8.3v0
	C293.3,262.1,297.1,265.9,301.6,265.9z"/>
<path class="st1" d="M279.1,265.9L279.1,265.9c4.6,0,8.3-3.7,8.3-8.3v0c0-4.6-3.7-8.3-8.3-8.3h0c-4.6,0-8.3,3.7-8.3,8.3v0
	C270.8,262.1,274.5,265.9,279.1,265.9z"/>
<path class="st1" d="M256.5,265.9L256.5,265.9c4.6,0,8.3-3.7,8.3-8.3v0c0-4.6-3.7-8.3-8.3-8.3l0,0c-4.6,0-8.3,3.7-8.3,8.3v0
	C248.2,262.1,251.9,265.9,256.5,265.9z"/>
<path class="st1" d="M233.9,265.9L233.9,265.9c4.6,0,8.3-3.7,8.3-8.3v0c0-4.6-3.7-8.3-8.3-8.3h0c-4.6,0-8.3,3.7-8.3,8.3v0
	C225.6,262.1,229.4,265.9,233.9,265.9z"/>
<path class="st1" d="M211.4,265.9L211.4,265.9c4.6,0,8.3-3.7,8.3-8.3v0c0-4.6-3.7-8.3-8.3-8.3h0c-4.6,0-8.3,3.7-8.3,8.3v0
	C203.1,262.1,206.8,265.9,211.4,265.9z"/>
<path class="st1" d="M188.8,265.9L188.8,265.9c4.6,0,8.3-3.7,8.3-8.3v0c0-4.6-3.7-8.3-8.3-8.3h0c-4.6,0-8.3,3.7-8.3,8.3v0
	C180.5,262.1,184.2,265.9,188.8,265.9z"/>
<path class="st1" d="M166.2,265.9L166.2,265.9c4.6,0,8.3-3.7,8.3-8.3v0c0-4.6-3.7-8.3-8.3-8.3h0c-4.6,0-8.3,3.7-8.3,8.3v0
	C157.9,262.1,161.7,265.9,166.2,265.9z"/>
<path class="st1" d="M143.6,265.9L143.6,265.9c4.6,0,8.3-3.7,8.3-8.3v0c0-4.6-3.7-8.3-8.3-8.3h0c-4.6,0-8.3,3.7-8.3,8.3v0
	C135.4,262.1,139.1,265.9,143.6,265.9z"/>
<path class="st1" d="M121.1,265.9L121.1,265.9c4.6,0,8.3-3.7,8.3-8.3v0c0-4.6-3.7-8.3-8.3-8.3h0c-4.6,0-8.3,3.7-8.3,8.3v0
	C112.8,262.1,116.5,265.9,121.1,265.9z"/>
<path class="st1" d="M98.5,265.9L98.5,265.9c4.6,0,8.3-3.7,8.3-8.3v0c0-4.6-3.7-8.3-8.3-8.3h0c-4.6,0-8.3,3.7-8.3,8.3v0
	C90.2,262.1,93.9,265.9,98.5,265.9z"/>
<path class="st1" d="M346.8,469.2L346.8,469.2c4.6,0,8.3-3.7,8.3-8.3l0,0c0-4.6-3.7-8.3-8.3-8.3l0,0c-4.6,0-8.3,3.7-8.3,8.3l0,0
	C338.5,465.5,342.2,469.2,346.8,469.2z"/>
<path class="st1" d="M324.2,469.2L324.2,469.2c4.6,0,8.3-3.7,8.3-8.3l0,0c0-4.6-3.7-8.3-8.3-8.3h0c-4.6,0-8.3,3.7-8.3,8.3l0,0
	C315.9,465.5,319.6,469.2,324.2,469.2z"/>
<path class="st1" d="M301.6,469.2L301.6,469.2c4.6,0,8.3-3.7,8.3-8.3l0,0c0-4.6-3.7-8.3-8.3-8.3h0c-4.6,0-8.3,3.7-8.3,8.3l0,0
	C293.3,465.5,297.1,469.2,301.6,469.2z"/>
<path class="st1" d="M279.1,469.2L279.1,469.2c4.6,0,8.3-3.7,8.3-8.3l0,0c0-4.6-3.7-8.3-8.3-8.3h0c-4.6,0-8.3,3.7-8.3,8.3l0,0
	C270.8,465.5,274.5,469.2,279.1,469.2z"/>
<path class="st1" d="M256.5,469.2L256.5,469.2c4.6,0,8.3-3.7,8.3-8.3l0,0c0-4.6-3.7-8.3-8.3-8.3l0,0c-4.6,0-8.3,3.7-8.3,8.3l0,0
	C248.2,465.5,251.9,469.2,256.5,469.2z"/>
<path class="st1" d="M233.9,469.2L233.9,469.2c4.6,0,8.3-3.7,8.3-8.3l0,0c0-4.6-3.7-8.3-8.3-8.3h0c-4.6,0-8.3,3.7-8.3,8.3l0,0
	C225.6,465.5,229.4,469.2,233.9,469.2z"/>
<path class="st1" d="M211.4,469.2L211.4,469.2c4.6,0,8.3-3.7,8.3-8.3l0,0c0-4.6-3.7-8.3-8.3-8.3h0c-4.6,0-8.3,3.7-8.3,8.3l0,0
	C203.1,465.5,206.8,469.2,211.4,469.2z"/>
<path class="st1" d="M188.8,469.2L188.8,469.2c4.6,0,8.3-3.7,8.3-8.3l0,0c0-4.6-3.7-8.3-8.3-8.3h0c-4.6,0-8.3,3.7-8.3,8.3l0,0
	C180.5,465.5,184.2,469.2,188.8,469.2z"/>
<path class="st1" d="M166.2,469.2L166.2,469.2c4.6,0,8.3-3.7,8.3-8.3l0,0c0-4.6-3.7-8.3-8.3-8.3h0c-4.6,0-8.3,3.7-8.3,8.3l0,0
	C157.9,465.5,161.7,469.2,166.2,469.2z"/>
<path class="st1" d="M143.6,469.2L143.6,469.2c4.6,0,8.3-3.7,8.3-8.3l0,0c0-4.6-3.7-8.3-8.3-8.3h0c-4.6,0-8.3,3.7-8.3,8.3l0,0
	C135.4,465.5,139.1,469.2,143.6,469.2z"/>
<path class="st1" d="M121.1,469.2L121.1,469.2c4.6,0,8.3-3.7,8.3-8.3l0,0c0-4.6-3.7-8.3-8.3-8.3h0c-4.6,0-8.3,3.7-8.3,8.3l0,0
	C112.8,465.5,116.5,469.2,121.1,469.2z"/>
<path class="st1" d="M98.5,469.2L98.5,469.2c4.6,0,8.3-3.7,8.3-8.3l0,0c0-4.6-3.7-8.3-8.3-8.3h0c-4.6,0-8.3,3.7-8.3,8.3l0,0
	C90.2,465.5,93.9,469.2,98.5,469.2z"/>
<path class="st1" d="M346.8,514.3L346.8,514.3c4.6,0,8.3-3.7,8.3-8.3l0,0c0-4.6-3.7-8.3-8.3-8.3h0c-4.6,0-8.3,3.7-8.3,8.3l0,0
	C338.5,510.6,342.2,514.3,346.8,514.3z"/>
<path class="st1" d="M324.2,514.3L324.2,514.3c4.6,0,8.3-3.7,8.3-8.3l0,0c0-4.6-3.7-8.3-8.3-8.3l0,0c-4.6,0-8.3,3.7-8.3,8.3l0,0
	C315.9,510.6,319.7,514.3,324.2,514.3z"/>
<path class="st1" d="M301.7,514.3L301.7,514.3c4.6,0,8.3-3.7,8.3-8.3l0,0c0-4.6-3.7-8.3-8.3-8.3l0,0c-4.6,0-8.3,3.7-8.3,8.3l0,0
	C293.4,510.6,297.1,514.3,301.7,514.3z"/>
<path class="st1" d="M279.1,514.3L279.1,514.3c4.6,0,8.3-3.7,8.3-8.3l0,0c0-4.6-3.7-8.3-8.3-8.3h0c-4.6,0-8.3,3.7-8.3,8.3l0,0
	C270.8,510.6,274.5,514.3,279.1,514.3z"/>
<path class="st1" d="M256.5,514.3L256.5,514.3c4.6,0,8.3-3.7,8.3-8.3l0,0c0-4.6-3.7-8.3-8.3-8.3h0c-4.6,0-8.3,3.7-8.3,8.3l0,0
	C248.2,510.6,252,514.3,256.5,514.3z"/>
<path class="st1" d="M233.9,514.3L233.9,514.3c4.6,0,8.3-3.7,8.3-8.3l0,0c0-4.6-3.7-8.3-8.3-8.3h0c-4.6,0-8.3,3.7-8.3,8.3l0,0
	C225.7,510.6,229.4,514.3,233.9,514.3z"/>
<path class="st1" d="M211.4,514.3L211.4,514.3c4.6,0,8.3-3.7,8.3-8.3l0,0c0-4.6-3.7-8.3-8.3-8.3h0c-4.6,0-8.3,3.7-8.3,8.3l0,0
	C203.1,510.6,206.8,514.3,211.4,514.3z"/>
<path class="st1" d="M188.8,514.3L188.8,514.3c4.6,0,8.3-3.7,8.3-8.3l0,0c0-4.6-3.7-8.3-8.3-8.3h0c-4.6,0-8.3,3.7-8.3,8.3l0,0
	C180.5,510.6,184.3,514.3,188.8,514.3z"/>
<path class="st1" d="M166.2,514.3L166.2,514.3c4.6,0,8.3-3.7,8.3-8.3l0,0c0-4.6-3.7-8.3-8.3-8.3h0c-4.6,0-8.3,3.7-8.3,8.3l0,0
	C158,510.6,161.7,514.3,166.2,514.3z"/>
<path class="st1" d="M143.7,514.3L143.7,514.3c4.6,0,8.3-3.7,8.3-8.3l0,0c0-4.6-3.7-8.3-8.3-8.3h0c-4.6,0-8.3,3.7-8.3,8.3l0,0
	C135.4,510.6,139.1,514.3,143.7,514.3z"/>
<path class="st1" d="M121.1,514.3L121.1,514.3c4.6,0,8.3-3.7,8.3-8.3l0,0c0-4.6-3.7-8.3-8.3-8.3h0c-4.6,0-8.3,3.7-8.3,8.3l0,0
	C112.8,510.6,116.5,514.3,121.1,514.3z"/>
<path class="st1" d="M98.5,514.3L98.5,514.3c4.6,0,8.3-3.7,8.3-8.3l0,0c0-4.6-3.7-8.3-8.3-8.3h0c-4.6,0-8.3,3.7-8.3,8.3l0,0
	C90.2,510.6,94,514.3,98.5,514.3z"/>
<path class="st1" d="M346.8,491.8L346.8,491.8c4.6,0,8.3-3.7,8.3-8.3l0,0c0-4.6-3.7-8.3-8.3-8.3h0c-4.6,0-8.3,3.7-8.3,8.3l0,0
	C338.5,488.1,342.2,491.8,346.8,491.8z"/>
<path class="st1" d="M324.2,491.8L324.2,491.8c4.6,0,8.3-3.7,8.3-8.3l0,0c0-4.6-3.7-8.3-8.3-8.3l0,0c-4.6,0-8.3,3.7-8.3,8.3l0,0
	C315.9,488.1,319.7,491.8,324.2,491.8z"/>
<path class="st1" d="M301.7,491.8L301.7,491.8c4.6,0,8.3-3.7,8.3-8.3l0,0c0-4.6-3.7-8.3-8.3-8.3l0,0c-4.6,0-8.3,3.7-8.3,8.3l0,0
	C293.4,488.1,297.1,491.8,301.7,491.8z"/>
<path class="st1" d="M279.1,491.8L279.1,491.8c4.6,0,8.3-3.7,8.3-8.3l0,0c0-4.6-3.7-8.3-8.3-8.3h0c-4.6,0-8.3,3.7-8.3,8.3l0,0
	C270.8,488.1,274.5,491.8,279.1,491.8z"/>
<path class="st1" d="M256.5,491.8L256.5,491.8c4.6,0,8.3-3.7,8.3-8.3l0,0c0-4.6-3.7-8.3-8.3-8.3h0c-4.6,0-8.3,3.7-8.3,8.3l0,0
	C248.2,488.1,252,491.8,256.5,491.8z"/>
<path class="st1" d="M233.9,491.8L233.9,491.8c4.6,0,8.3-3.7,8.3-8.3l0,0c0-4.6-3.7-8.3-8.3-8.3h0c-4.6,0-8.3,3.7-8.3,8.3l0,0
	C225.7,488.1,229.4,491.8,233.9,491.8z"/>
<path class="st1" d="M211.4,491.8L211.4,491.8c4.6,0,8.3-3.7,8.3-8.3l0,0c0-4.6-3.7-8.3-8.3-8.3h0c-4.6,0-8.3,3.7-8.3,8.3l0,0
	C203.1,488.1,206.8,491.8,211.4,491.8z"/>
<path class="st1" d="M188.8,491.8L188.8,491.8c4.6,0,8.3-3.7,8.3-8.3l0,0c0-4.6-3.7-8.3-8.3-8.3h0c-4.6,0-8.3,3.7-8.3,8.3l0,0
	C180.5,488.1,184.3,491.8,188.8,491.8z"/>
<path class="st1" d="M166.2,491.8L166.2,491.8c4.6,0,8.3-3.7,8.3-8.3l0,0c0-4.6-3.7-8.3-8.3-8.3h0c-4.6,0-8.3,3.7-8.3,8.3l0,0
	C158,488.1,161.7,491.8,166.2,491.8z"/>
<path class="st1" d="M143.7,491.8L143.7,491.8c4.6,0,8.3-3.7,8.3-8.3l0,0c0-4.6-3.7-8.3-8.3-8.3h0c-4.6,0-8.3,3.7-8.3,8.3l0,0
	C135.4,488.1,139.1,491.8,143.7,491.8z"/>
<path class="st1" d="M121.1,491.8L121.1,491.8c4.6,0,8.3-3.7,8.3-8.3l0,0c0-4.6-3.7-8.3-8.3-8.3h0c-4.6,0-8.3,3.7-8.3,8.3l0,0
	C112.8,488.1,116.5,491.8,121.1,491.8z"/>
<path class="st1" d="M98.5,491.8L98.5,491.8c4.6,0,8.3-3.7,8.3-8.3l0,0c0-4.6-3.7-8.3-8.3-8.3h0c-4.6,0-8.3,3.7-8.3,8.3l0,0
	C90.2,488.1,94,491.8,98.5,491.8z"/>
<path class="st1" d="M346.8,536.9L346.8,536.9c4.6,0,8.3-3.7,8.3-8.3v0c0-4.6-3.7-8.3-8.3-8.3l0,0c-4.6,0-8.3,3.7-8.3,8.3v0
	C338.5,533.2,342.2,536.9,346.8,536.9z"/>
<path class="st1" d="M324.2,536.9L324.2,536.9c4.6,0,8.3-3.7,8.3-8.3v0c0-4.6-3.7-8.3-8.3-8.3h0c-4.6,0-8.3,3.7-8.3,8.3v0
	C315.9,533.2,319.6,536.9,324.2,536.9z"/>
<path class="st1" d="M301.6,536.9L301.6,536.9c4.6,0,8.3-3.7,8.3-8.3v0c0-4.6-3.7-8.3-8.3-8.3h0c-4.6,0-8.3,3.7-8.3,8.3v0
	C293.3,533.2,297.1,536.9,301.6,536.9z"/>
<path class="st1" d="M279.1,536.9L279.1,536.9c4.6,0,8.3-3.7,8.3-8.3v0c0-4.6-3.7-8.3-8.3-8.3h0c-4.6,0-8.3,3.7-8.3,8.3v0
	C270.8,533.2,274.5,536.9,279.1,536.9z"/>
<path class="st1" d="M256.5,536.9L256.5,536.9c4.6,0,8.3-3.7,8.3-8.3v0c0-4.6-3.7-8.3-8.3-8.3l0,0c-4.6,0-8.3,3.7-8.3,8.3v0
	C248.2,533.2,251.9,536.9,256.5,536.9z"/>
<path class="st1" d="M233.9,536.9L233.9,536.9c4.6,0,8.3-3.7,8.3-8.3v0c0-4.6-3.7-8.3-8.3-8.3h0c-4.6,0-8.3,3.7-8.3,8.3v0
	C225.6,533.2,229.4,536.9,233.9,536.9z"/>
<path class="st1" d="M211.4,536.9L211.4,536.9c4.6,0,8.3-3.7,8.3-8.3v0c0-4.6-3.7-8.3-8.3-8.3h0c-4.6,0-8.3,3.7-8.3,8.3v0
	C203.1,533.2,206.8,536.9,211.4,536.9z"/>
<path class="st1" d="M188.8,536.9L188.8,536.9c4.6,0,8.3-3.7,8.3-8.3v0c0-4.6-3.7-8.3-8.3-8.3h0c-4.6,0-8.3,3.7-8.3,8.3v0
	C180.5,533.2,184.2,536.9,188.8,536.9z"/>
<path class="st1" d="M166.2,536.9L166.2,536.9c4.6,0,8.3-3.7,8.3-8.3v0c0-4.6-3.7-8.3-8.3-8.3h0c-4.6,0-8.3,3.7-8.3,8.3v0
	C157.9,533.2,161.7,536.9,166.2,536.9z"/>
<path class="st1" d="M143.6,536.9L143.6,536.9c4.6,0,8.3-3.7,8.3-8.3v0c0-4.6-3.7-8.3-8.3-8.3h0c-4.6,0-8.3,3.7-8.3,8.3v0
	C135.4,533.2,139.1,536.9,143.6,536.9z"/>
<path class="st1" d="M121.1,536.9L121.1,536.9c4.6,0,8.3-3.7,8.3-8.3v0c0-4.6-3.7-8.3-8.3-8.3h0c-4.6,0-8.3,3.7-8.3,8.3v0
	C112.8,533.2,116.5,536.9,121.1,536.9z"/>
<path class="st1" d="M98.5,536.9L98.5,536.9c4.6,0,8.3-3.7,8.3-8.3v0c0-4.6-3.7-8.3-8.3-8.3h0c-4.6,0-8.3,3.7-8.3,8.3v0
	C90.2,533.2,93.9,536.9,98.5,536.9z"/>
<path class="st1" d="M346.8,582.1L346.8,582.1c4.6,0,8.3-3.7,8.3-8.3l0,0c0-4.6-3.7-8.3-8.3-8.3h0c-4.6,0-8.3,3.7-8.3,8.3l0,0
	C338.5,578.3,342.2,582.1,346.8,582.1z"/>
<path class="st1" d="M324.2,582.1L324.2,582.1c4.6,0,8.3-3.7,8.3-8.3l0,0c0-4.6-3.7-8.3-8.3-8.3l0,0c-4.6,0-8.3,3.7-8.3,8.3l0,0
	C315.9,578.3,319.7,582.1,324.2,582.1z"/>
<path class="st1" d="M301.7,582.1L301.7,582.1c4.6,0,8.3-3.7,8.3-8.3l0,0c0-4.6-3.7-8.3-8.3-8.3l0,0c-4.6,0-8.3,3.7-8.3,8.3l0,0
	C293.4,578.3,297.1,582.1,301.7,582.1z"/>
<path class="st1" d="M279.1,582.1L279.1,582.1c4.6,0,8.3-3.7,8.3-8.3l0,0c0-4.6-3.7-8.3-8.3-8.3h0c-4.6,0-8.3,3.7-8.3,8.3l0,0
	C270.8,578.3,274.5,582.1,279.1,582.1z"/>
<path class="st1" d="M256.5,582.1L256.5,582.1c4.6,0,8.3-3.7,8.3-8.3l0,0c0-4.6-3.7-8.3-8.3-8.3h0c-4.6,0-8.3,3.7-8.3,8.3l0,0
	C248.2,578.3,252,582.1,256.5,582.1z"/>
<path class="st1" d="M233.9,582.1L233.9,582.1c4.6,0,8.3-3.7,8.3-8.3l0,0c0-4.6-3.7-8.3-8.3-8.3h0c-4.6,0-8.3,3.7-8.3,8.3l0,0
	C225.7,578.3,229.4,582.1,233.9,582.1z"/>
<path class="st1" d="M211.4,582.1L211.4,582.1c4.6,0,8.3-3.7,8.3-8.3l0,0c0-4.6-3.7-8.3-8.3-8.3h0c-4.6,0-8.3,3.7-8.3,8.3l0,0
	C203.1,578.3,206.8,582.1,211.4,582.1z"/>
<path class="st1" d="M188.8,582.1L188.8,582.1c4.6,0,8.3-3.7,8.3-8.3l0,0c0-4.6-3.7-8.3-8.3-8.3h0c-4.6,0-8.3,3.7-8.3,8.3l0,0
	C180.5,578.3,184.3,582.1,188.8,582.1z"/>
<path class="st1" d="M166.2,582.1L166.2,582.1c4.6,0,8.3-3.7,8.3-8.3l0,0c0-4.6-3.7-8.3-8.3-8.3h0c-4.6,0-8.3,3.7-8.3,8.3l0,0
	C158,578.3,161.7,582.1,166.2,582.1z"/>
<path class="st1" d="M143.7,582.1L143.7,582.1c4.6,0,8.3-3.7,8.3-8.3l0,0c0-4.6-3.7-8.3-8.3-8.3h0c-4.6,0-8.3,3.7-8.3,8.3l0,0
	C135.4,578.3,139.1,582.1,143.7,582.1z"/>
<path class="st1" d="M346.8,559.5L346.8,559.5c4.6,0,8.3-3.7,8.3-8.3l0,0c0-4.6-3.7-8.3-8.3-8.3h0c-4.6,0-8.3,3.7-8.3,8.3l0,0
	C338.5,555.8,342.2,559.5,346.8,559.5z"/>
<path class="st1" d="M324.2,559.5L324.2,559.5c4.6,0,8.3-3.7,8.3-8.3l0,0c0-4.6-3.7-8.3-8.3-8.3l0,0c-4.6,0-8.3,3.7-8.3,8.3l0,0
	C315.9,555.8,319.7,559.5,324.2,559.5z"/>
<path class="st1" d="M301.7,559.5L301.7,559.5c4.6,0,8.3-3.7,8.3-8.3l0,0c0-4.6-3.7-8.3-8.3-8.3l0,0c-4.6,0-8.3,3.7-8.3,8.3l0,0
	C293.4,555.8,297.1,559.5,301.7,559.5z"/>
<path class="st1" d="M279.1,559.5L279.1,559.5c4.6,0,8.3-3.7,8.3-8.3l0,0c0-4.6-3.7-8.3-8.3-8.3h0c-4.6,0-8.3,3.7-8.3,8.3l0,0
	C270.8,555.8,274.5,559.5,279.1,559.5z"/>
<path class="st1" d="M256.5,559.5L256.5,559.5c4.6,0,8.3-3.7,8.3-8.3l0,0c0-4.6-3.7-8.3-8.3-8.3h0c-4.6,0-8.3,3.7-8.3,8.3l0,0
	C248.2,555.8,252,559.5,256.5,559.5z"/>
<path class="st1" d="M233.9,559.5L233.9,559.5c4.6,0,8.3-3.7,8.3-8.3l0,0c0-4.6-3.7-8.3-8.3-8.3h0c-4.6,0-8.3,3.7-8.3,8.3l0,0
	C225.7,555.8,229.4,559.5,233.9,559.5z"/>
<path class="st1" d="M211.4,559.5L211.4,559.5c4.6,0,8.3-3.7,8.3-8.3l0,0c0-4.6-3.7-8.3-8.3-8.3h0c-4.6,0-8.3,3.7-8.3,8.3l0,0
	C203.1,555.8,206.8,559.5,211.4,559.5z"/>
<path class="st1" d="M188.8,559.5L188.8,559.5c4.6,0,8.3-3.7,8.3-8.3l0,0c0-4.6-3.7-8.3-8.3-8.3h0c-4.6,0-8.3,3.7-8.3,8.3l0,0
	C180.5,555.8,184.3,559.5,188.8,559.5z"/>
<path class="st1" d="M166.2,559.5L166.2,559.5c4.6,0,8.3-3.7,8.3-8.3l0,0c0-4.6-3.7-8.3-8.3-8.3h0c-4.6,0-8.3,3.7-8.3,8.3l0,0
	C158,555.8,161.7,559.5,166.2,559.5z"/>
<path class="st1" d="M143.7,559.5L143.7,559.5c4.6,0,8.3-3.7,8.3-8.3l0,0c0-4.6-3.7-8.3-8.3-8.3h0c-4.6,0-8.3,3.7-8.3,8.3l0,0
	C135.4,555.8,139.1,559.5,143.7,559.5z"/>
<path class="st1" d="M121.1,559.5L121.1,559.5c4.6,0,8.3-3.7,8.3-8.3l0,0c0-4.6-3.7-8.3-8.3-8.3h0c-4.6,0-8.3,3.7-8.3,8.3l0,0
	C112.8,555.8,116.5,559.5,121.1,559.5z"/>
<path class="st1" d="M346.8,604.6L346.8,604.6c4.6,0,8.3-3.7,8.3-8.3v0c0-4.6-3.7-8.3-8.3-8.3h0c-4.6,0-8.3,3.7-8.3,8.3v0
	C338.5,600.9,342.2,604.6,346.8,604.6z"/>
<path class="st1" d="M324.2,604.6L324.2,604.6c4.6,0,8.3-3.7,8.3-8.3v0c0-4.6-3.7-8.3-8.3-8.3l0,0c-4.6,0-8.3,3.7-8.3,8.3v0
	C315.9,600.9,319.7,604.6,324.2,604.6z"/>
<path class="st1" d="M301.7,604.6L301.7,604.6c4.6,0,8.3-3.7,8.3-8.3v0c0-4.6-3.7-8.3-8.3-8.3l0,0c-4.6,0-8.3,3.7-8.3,8.3v0
	C293.4,600.9,297.1,604.6,301.7,604.6z"/>
<path class="st1" d="M279.1,604.6L279.1,604.6c4.6,0,8.3-3.7,8.3-8.3v0c0-4.6-3.7-8.3-8.3-8.3h0c-4.6,0-8.3,3.7-8.3,8.3v0
	C270.8,600.9,274.5,604.6,279.1,604.6z"/>
<path class="st1" d="M256.5,604.6L256.5,604.6c4.6,0,8.3-3.7,8.3-8.3v0c0-4.6-3.7-8.3-8.3-8.3h0c-4.6,0-8.3,3.7-8.3,8.3v0
	C248.2,600.9,252,604.6,256.5,604.6z"/>
<path class="st1" d="M233.9,604.6L233.9,604.6c4.6,0,8.3-3.7,8.3-8.3v0c0-4.6-3.7-8.3-8.3-8.3h0c-4.6,0-8.3,3.7-8.3,8.3v0
	C225.7,600.9,229.4,604.6,233.9,604.6z"/>
<path class="st1" d="M211.4,604.6L211.4,604.6c4.6,0,8.3-3.7,8.3-8.3v0c0-4.6-3.7-8.3-8.3-8.3h0c-4.6,0-8.3,3.7-8.3,8.3v0
	C203.1,600.9,206.8,604.6,211.4,604.6z"/>
<path class="st1" d="M188.8,604.6L188.8,604.6c4.6,0,8.3-3.7,8.3-8.3v0c0-4.6-3.7-8.3-8.3-8.3h0c-4.6,0-8.3,3.7-8.3,8.3v0
	C180.5,600.9,184.3,604.6,188.8,604.6z"/>
<path class="st1" d="M166.2,604.6L166.2,604.6c4.6,0,8.3-3.7,8.3-8.3v0c0-4.6-3.7-8.3-8.3-8.3h0c-4.6,0-8.3,3.7-8.3,8.3v0
	C158,600.9,161.7,604.6,166.2,604.6z"/>
<path class="st1" d="M301.6,311L301.6,311c4.6,0,8.3-3.7,8.3-8.3l0,0c0-4.6-3.7-8.3-8.3-8.3h0c-4.6,0-8.3,3.7-8.3,8.3l0,0
	C293.3,307.3,297.1,311,301.6,311z"/>
<path class="st1" d="M279.1,311L279.1,311c4.6,0,8.3-3.7,8.3-8.3l0,0c0-4.6-3.7-8.3-8.3-8.3h0c-4.6,0-8.3,3.7-8.3,8.3l0,0
	C270.8,307.3,274.5,311,279.1,311z"/>
<path class="st1" d="M256.5,311L256.5,311c4.6,0,8.3-3.7,8.3-8.3l0,0c0-4.6-3.7-8.3-8.3-8.3l0,0c-4.6,0-8.3,3.7-8.3,8.3l0,0
	C248.2,307.3,251.9,311,256.5,311z"/>
<path class="st1" d="M233.9,311L233.9,311c4.6,0,8.3-3.7,8.3-8.3l0,0c0-4.6-3.7-8.3-8.3-8.3h0c-4.6,0-8.3,3.7-8.3,8.3l0,0
	C225.6,307.3,229.4,311,233.9,311z"/>
<path class="st1" d="M211.4,311L211.4,311c4.6,0,8.3-3.7,8.3-8.3l0,0c0-4.6-3.7-8.3-8.3-8.3h0c-4.6,0-8.3,3.7-8.3,8.3l0,0
	C203.1,307.3,206.8,311,211.4,311z"/>
<path class="st1" d="M188.8,311L188.8,311c4.6,0,8.3-3.7,8.3-8.3l0,0c0-4.6-3.7-8.3-8.3-8.3h0c-4.6,0-8.3,3.7-8.3,8.3l0,0
	C180.5,307.3,184.2,311,188.8,311z"/>
<path class="st1" d="M166.2,311L166.2,311c4.6,0,8.3-3.7,8.3-8.3l0,0c0-4.6-3.7-8.3-8.3-8.3h0c-4.6,0-8.3,3.7-8.3,8.3l0,0
	C157.9,307.3,161.7,311,166.2,311z"/>
<path class="st1" d="M143.6,311L143.6,311c4.6,0,8.3-3.7,8.3-8.3l0,0c0-4.6-3.7-8.3-8.3-8.3h0c-4.6,0-8.3,3.7-8.3,8.3l0,0
	C135.4,307.3,139.1,311,143.6,311z"/>
<path class="st1" d="M121.1,311L121.1,311c4.6,0,8.3-3.7,8.3-8.3l0,0c0-4.6-3.7-8.3-8.3-8.3h0c-4.6,0-8.3,3.7-8.3,8.3l0,0
	C112.8,307.3,116.5,311,121.1,311z"/>
<path class="st1" d="M75.9,175.6L75.9,175.6c4.6,0,8.3-3.7,8.3-8.3v0c0-4.6-3.7-8.3-8.3-8.3h0c-4.6,0-8.3,3.7-8.3,8.3v0
	C67.6,171.9,71.4,175.6,75.9,175.6z"/>
<path class="st1" d="M75.9,220.7L75.9,220.7c4.6,0,8.3-3.7,8.3-8.3v0c0-4.6-3.7-8.3-8.3-8.3h0c-4.6,0-8.3,3.7-8.3,8.3v0
	C67.7,217,71.4,220.7,75.9,220.7z"/>
<path class="st1" d="M75.9,198.2L75.9,198.2c4.6,0,8.3-3.7,8.3-8.3v0c0-4.6-3.7-8.3-8.3-8.3h0c-4.6,0-8.3,3.7-8.3,8.3v0
	C67.7,194.4,71.4,198.2,75.9,198.2z"/>
<path class="st1" d="M53.4,175.6L53.4,175.6c4.6,0,8.3-3.7,8.3-8.3v0c0-4.6-3.7-8.3-8.3-8.3h0c-4.6,0-8.3,3.7-8.3,8.3v0
	C45.1,171.9,48.8,175.6,53.4,175.6z"/>
<path class="st1" d="M53.4,198.2L53.4,198.2c4.6,0,8.3-3.7,8.3-8.3v0c0-4.6-3.7-8.3-8.3-8.3h0c-4.6,0-8.3,3.7-8.3,8.3v0
	C45.1,194.4,48.9,198.2,53.4,198.2z"/>
<path class="st1" d="M346.8,627.3L346.8,627.3c4.6,0,8.3-3.7,8.3-8.3l0,0c0-4.6-3.7-8.3-8.3-8.3l0,0c-4.6,0-8.3,3.7-8.3,8.3l0,0
	C338.5,623.5,342.2,627.3,346.8,627.3z"/>
<path class="st1" d="M324.2,627.3L324.2,627.3c4.6,0,8.3-3.7,8.3-8.3l0,0c0-4.6-3.7-8.3-8.3-8.3h0c-4.6,0-8.3,3.7-8.3,8.3l0,0
	C315.9,623.5,319.6,627.3,324.2,627.3z"/>
<path class="st1" d="M301.6,627.3L301.6,627.3c4.6,0,8.3-3.7,8.3-8.3l0,0c0-4.6-3.7-8.3-8.3-8.3h0c-4.6,0-8.3,3.7-8.3,8.3l0,0
	C293.3,623.5,297.1,627.3,301.6,627.3z"/>
<path class="st1" d="M279.1,627.3L279.1,627.3c4.6,0,8.3-3.7,8.3-8.3l0,0c0-4.6-3.7-8.3-8.3-8.3h0c-4.6,0-8.3,3.7-8.3,8.3l0,0
	C270.8,623.5,274.5,627.3,279.1,627.3z"/>
<path class="st1" d="M256.5,627.3L256.5,627.3c4.6,0,8.3-3.7,8.3-8.3l0,0c0-4.6-3.7-8.3-8.3-8.3l0,0c-4.6,0-8.3,3.7-8.3,8.3l0,0
	C248.2,623.5,251.9,627.3,256.5,627.3z"/>
<path class="st1" d="M233.9,627.3L233.9,627.3c4.6,0,8.3-3.7,8.3-8.3l0,0c0-4.6-3.7-8.3-8.3-8.3h0c-4.6,0-8.3,3.7-8.3,8.3l0,0
	C225.6,623.5,229.4,627.3,233.9,627.3z"/>
<path class="st1" d="M211.4,627.3L211.4,627.3c4.6,0,8.3-3.7,8.3-8.3l0,0c0-4.6-3.7-8.3-8.3-8.3h0c-4.6,0-8.3,3.7-8.3,8.3l0,0
	C203.1,623.5,206.8,627.3,211.4,627.3z"/>
<path class="st1" d="M188.8,627.3L188.8,627.3c4.6,0,8.3-3.7,8.3-8.3l0,0c0-4.6-3.7-8.3-8.3-8.3h0c-4.6,0-8.3,3.7-8.3,8.3l0,0
	C180.5,623.5,184.2,627.3,188.8,627.3z"/>
<path class="st1" d="M166.2,627.3L166.2,627.3c4.6,0,8.3-3.7,8.3-8.3l0,0c0-4.6-3.7-8.3-8.3-8.3h0c-4.6,0-8.3,3.7-8.3,8.3l0,0
	C157.9,623.5,161.7,627.3,166.2,627.3z"/>
<path class="st1" d="M346.8,672.4L346.8,672.4c4.6,0,8.3-3.7,8.3-8.3v0c0-4.6-3.7-8.3-8.3-8.3h0c-4.6,0-8.3,3.7-8.3,8.3v0
	C338.5,668.7,342.2,672.4,346.8,672.4z"/>
<path class="st1" d="M324.2,672.4L324.2,672.4c4.6,0,8.3-3.7,8.3-8.3v0c0-4.6-3.7-8.3-8.3-8.3l0,0c-4.6,0-8.3,3.7-8.3,8.3v0
	C315.9,668.7,319.7,672.4,324.2,672.4z"/>
<path class="st1" d="M301.7,672.4L301.7,672.4c4.6,0,8.3-3.7,8.3-8.3v0c0-4.6-3.7-8.3-8.3-8.3l0,0c-4.6,0-8.3,3.7-8.3,8.3v0
	C293.4,668.7,297.1,672.4,301.7,672.4z"/>
<path class="st1" d="M279.1,672.4L279.1,672.4c4.6,0,8.3-3.7,8.3-8.3v0c0-4.6-3.7-8.3-8.3-8.3h0c-4.6,0-8.3,3.7-8.3,8.3v0
	C270.8,668.7,274.5,672.4,279.1,672.4z"/>
<path class="st1" d="M256.5,672.4L256.5,672.4c4.6,0,8.3-3.7,8.3-8.3v0c0-4.6-3.7-8.3-8.3-8.3h0c-4.6,0-8.3,3.7-8.3,8.3v0
	C248.2,668.7,252,672.4,256.5,672.4z"/>
<path class="st1" d="M233.9,672.4L233.9,672.4c4.6,0,8.3-3.7,8.3-8.3v0c0-4.6-3.7-8.3-8.3-8.3h0c-4.6,0-8.3,3.7-8.3,8.3v0
	C225.7,668.7,229.4,672.4,233.9,672.4z"/>
<path class="st1" d="M346.8,649.8L346.8,649.8c4.6,0,8.3-3.7,8.3-8.3v0c0-4.6-3.7-8.3-8.3-8.3h0c-4.6,0-8.3,3.7-8.3,8.3v0
	C338.5,646.1,342.2,649.8,346.8,649.8z"/>
<path class="st1" d="M324.2,649.8L324.2,649.8c4.6,0,8.3-3.7,8.3-8.3v0c0-4.6-3.7-8.3-8.3-8.3l0,0c-4.6,0-8.3,3.7-8.3,8.3v0
	C315.9,646.1,319.7,649.8,324.2,649.8z"/>
<path class="st1" d="M301.7,649.8L301.7,649.8c4.6,0,8.3-3.7,8.3-8.3v0c0-4.6-3.7-8.3-8.3-8.3l0,0c-4.6,0-8.3,3.7-8.3,8.3v0
	C293.4,646.1,297.1,649.8,301.7,649.8z"/>
<path class="st1" d="M279.1,649.8L279.1,649.8c4.6,0,8.3-3.7,8.3-8.3v0c0-4.6-3.7-8.3-8.3-8.3h0c-4.6,0-8.3,3.7-8.3,8.3v0
	C270.8,646.1,274.5,649.8,279.1,649.8z"/>
<path class="st1" d="M256.5,649.8L256.5,649.8c4.6,0,8.3-3.7,8.3-8.3v0c0-4.6-3.7-8.3-8.3-8.3h0c-4.6,0-8.3,3.7-8.3,8.3v0
	C248.2,646.1,252,649.8,256.5,649.8z"/>
<path class="st1" d="M233.9,649.8L233.9,649.8c4.6,0,8.3-3.7,8.3-8.3v0c0-4.6-3.7-8.3-8.3-8.3h0c-4.6,0-8.3,3.7-8.3,8.3v0
	C225.7,646.1,229.4,649.8,233.9,649.8z"/>
<path class="st1" d="M211.4,649.8L211.4,649.8c4.6,0,8.3-3.7,8.3-8.3v0c0-4.6-3.7-8.3-8.3-8.3h0c-4.6,0-8.3,3.7-8.3,8.3v0
	C203.1,646.1,206.8,649.8,211.4,649.8z"/>
<path class="st1" d="M188.8,649.8L188.8,649.8c4.6,0,8.3-3.7,8.3-8.3v0c0-4.6-3.7-8.3-8.3-8.3h0c-4.6,0-8.3,3.7-8.3,8.3v0
	C180.5,646.1,184.3,649.8,188.8,649.8z"/>
<path class="st1" d="M346.8,62.7L346.8,62.7c4.6,0,8.3-3.7,8.3-8.3v0c0-4.6-3.7-8.3-8.3-8.3h0c-4.6,0-8.3,3.7-8.3,8.3v0
	C338.6,59,342.3,62.7,346.8,62.7z"/>
<path class="st1" d="M324.3,62.7L324.3,62.7c4.6,0,8.3-3.7,8.3-8.3v0c0-4.6-3.7-8.3-8.3-8.3l0,0c-4.6,0-8.3,3.7-8.3,8.3v0
	C316,59,319.7,62.7,324.3,62.7z"/>
<path class="st1" d="M301.7,62.7L301.7,62.7c4.6,0,8.3-3.7,8.3-8.3v0c0-4.6-3.7-8.3-8.3-8.3l0,0c-4.6,0-8.3,3.7-8.3,8.3v0
	C293.4,59,297.1,62.7,301.7,62.7z"/>
<path class="st1" d="M279.1,62.7L279.1,62.7c4.6,0,8.3-3.7,8.3-8.3v0c0-4.6-3.7-8.3-8.3-8.3h0c-4.6,0-8.3,3.7-8.3,8.3v0
	C270.8,59,274.6,62.7,279.1,62.7z"/>
<path class="st1" d="M256.6,62.7L256.6,62.7c4.6,0,8.3-3.7,8.3-8.3v0c0-4.6-3.7-8.3-8.3-8.3h0c-4.6,0-8.3,3.7-8.3,8.3v0
	C248.3,59,252,62.7,256.6,62.7z"/>
<path class="st1" d="M234,62.7L234,62.7c4.6,0,8.3-3.7,8.3-8.3v0c0-4.6-3.7-8.3-8.3-8.3h0c-4.6,0-8.3,3.7-8.3,8.3v0
	C225.7,59,229.4,62.7,234,62.7z"/>
<path class="st1" d="M211.4,62.7L211.4,62.7c4.6,0,8.3-3.7,8.3-8.3v0c0-4.6-3.7-8.3-8.3-8.3h0c-4.6,0-8.3,3.7-8.3,8.3v0
	C203.1,59,206.9,62.7,211.4,62.7z"/>
<path class="st1" d="M188.8,62.7L188.8,62.7c4.6,0,8.3-3.7,8.3-8.3v0c0-4.6-3.7-8.3-8.3-8.3h0c-4.6,0-8.3,3.7-8.3,8.3v0
	C180.6,59,184.3,62.7,188.8,62.7z"/>
<path class="st1" d="M166.3,62.7L166.3,62.7c4.6,0,8.3-3.7,8.3-8.3v0c0-4.6-3.7-8.3-8.3-8.3h0c-4.6,0-8.3,3.7-8.3,8.3v0
	C158,59,161.7,62.7,166.3,62.7z"/>
<path class="st1" d="M143.7,62.7L143.7,62.7c4.6,0,8.3-3.7,8.3-8.3v0c0-4.6-3.7-8.3-8.3-8.3h0c-4.6,0-8.3,3.7-8.3,8.3v0
	C135.4,59,139.1,62.7,143.7,62.7z"/>
<path class="st1" d="M121.1,62.7L121.1,62.7c4.6,0,8.3-3.7,8.3-8.3v0c0-4.6-3.7-8.3-8.3-8.3h0c-4.6,0-8.3,3.7-8.3,8.3v0
	C112.9,59,116.6,62.7,121.1,62.7z"/>
<path class="st1" d="M98.6,62.7L98.6,62.7c4.6,0,8.3-3.7,8.3-8.3v0c0-4.6-3.7-8.3-8.3-8.3h0c-4.6,0-8.3,3.7-8.3,8.3v0
	C90.3,59,94,62.7,98.6,62.7z"/>
<path class="st1" d="M76,62.7L76,62.7c4.6,0,8.3-3.7,8.3-8.3v0c0-4.6-3.7-8.3-8.3-8.3h0c-4.6,0-8.3,3.7-8.3,8.3v0
	C67.7,59,71.4,62.7,76,62.7z"/>
<path class="st1" d="M53.4,62.7L53.4,62.7c4.6,0,8.3-3.7,8.3-8.3v0c0-4.6-3.7-8.3-8.3-8.3h0c-4.6,0-8.3,3.7-8.3,8.3v0
	C45.1,59,48.9,62.7,53.4,62.7z"/>
<path class="st1" d="M30.9,62.7L30.9,62.7c4.6,0,8.3-3.7,8.3-8.3v0c0-4.6-3.7-8.3-8.3-8.3h0c-4.6,0-8.3,3.7-8.3,8.3v0
	C22.6,59,26.3,62.7,30.9,62.7z"/>
<path class="st1" d="M8.3,62.7L8.3,62.7c4.6,0,8.3-3.7,8.3-8.3v0c0-4.6-3.7-8.3-8.3-8.3h0c-4.6,0-8.3,3.7-8.3,8.3v0
	C0,59,3.7,62.7,8.3,62.7z"/>
<g>
	<text transform="matrix(1 0 0 1 96.1378 10.1286)" class="st2 st3 st4">1</text>
	<text transform="matrix(1 0 0 1 118.2003 10.1286)" class="st2 st3 st4">2</text>
	<text transform="matrix(1 0 0 1 140.7746 10.1286)" class="st2 st3 st4">3</text>
	<text transform="matrix(1 0 0 1 163.2892 10.1286)" class="st2 st3 st4">4</text>
	<text transform="matrix(1 0 0 1 185.963 10.1286)" class="st2 st3 st4">5</text>
	<text transform="matrix(1 0 0 1 208.2853 10.1286)" class="st2 st3 st4">6</text>
	<text transform="matrix(1 0 0 1 231.2453 10.1286)" class="st2 st3 st4">7</text>
	<text transform="matrix(1 0 0 1 253.5079 10.1286)" class="st2 st3 st4">8</text>
	<text transform="matrix(1 0 0 1 276.1241 10.1286)" class="st2 st3 st4">9</text>
	<text transform="matrix(1 0 0 1 296.5802 10.1286)" class="st2 st3 st4">10</text>
	<text transform="matrix(1 0 0 1 320.1339 10.1286)" class="st2 st3 st4">11</text>
	<text transform="matrix(1 0 0 1 342.1241 10.1286)" class="st2 st3 st4">12</text>
	<text transform="matrix(1 0 0 1 29.0695 101.8523)" class="st2 st3 st4">1</text>
	<text transform="matrix(1 0 0 1 51.132 101.8523)" class="st2 st3 st4">2</text>
	<text transform="matrix(1 0 0 1 73.7062 101.8523)" class="st2 st3 st4">3</text>
	<text transform="matrix(1 0 0 1 96.2208 101.8523)" class="st2 st3 st4">4</text>
	<text transform="matrix(1 0 0 1 118.8947 101.8523)" class="st2 st3 st4">5</text>
	<text transform="matrix(1 0 0 1 141.2169 101.8523)" class="st2 st3 st4">6</text>
	<text transform="matrix(1 0 0 1 164.2433 101.8523)" class="st2 st3 st4">7</text>
	<text transform="matrix(1 0 0 1 186.4337 101.8523)" class="st2 st3 st4">8</text>
	<text transform="matrix(1 0 0 1 208.9279 101.8523)" class="st2 st3 st4">9</text>
	<text transform="matrix(1 0 0 1 229.5763 101.8523)" class="st2 st3 st4">10</text>
	<text transform="matrix(1 0 0 1 253.0587 101.8523)" class="st2 st3 st4">11</text>
	<text transform="matrix(1 0 0 1 275.1212 101.8523)" class="st2 st3 st4">12</text>
	<text transform="matrix(1 0 0 1 297.6954 101.8523)" class="st2 st3 st4">13</text>
	<text transform="matrix(1 0 0 1 320.2091 101.8523)" class="st2 st3 st4">14</text>
	<text transform="matrix(1 0 0 1 342.8839 101.8523)" class="st2 st3 st4">15</text>
	<text transform="matrix(1 0 0 1 6.5734 79.2819)" class="st2 st3 st4">1</text>
	<text transform="matrix(1 0 0 1 28.6349 79.2819)" class="st2 st3 st4">2</text>
	<text transform="matrix(1 0 0 1 51.2091 79.2819)" class="st2 st3 st4">3</text>
	<text transform="matrix(1 0 0 1 73.7238 79.2819)" class="st2 st3 st4">4</text>
	<text transform="matrix(1 0 0 1 96.3976 79.2819)" class="st2 st3 st4">5</text>
	<text transform="matrix(1 0 0 1 118.7199 79.2819)" class="st2 st3 st4">6</text>
	<text transform="matrix(1 0 0 1 141.7462 79.2819)" class="st2 st3 st4">7</text>
	<text transform="matrix(1 0 0 1 163.9367 79.2819)" class="st2 st3 st4">8</text>
	<text transform="matrix(1 0 0 1 186.4308 79.2819)" class="st2 st3 st4">9</text>
	<text transform="matrix(1 0 0 1 207.0802 79.2819)" class="st2 st3 st4">10</text>
	<text transform="matrix(1 0 0 1 230.5626 79.2819)" class="st2 st3 st4">11</text>
	<text transform="matrix(1 0 0 1 252.6251 79.2819)" class="st2 st3 st4">12</text>
	<text transform="matrix(1 0 0 1 275.1984 79.2819)" class="st2 st3 st4">13</text>
	<text transform="matrix(1 0 0 1 297.712 79.2819)" class="st2 st3 st4">14</text>
	<text transform="matrix(1 0 0 1 320.3868 79.2819)" class="st2 st3 st4">15</text>
	<text transform="matrix(1 0 0 1 342.7091 79.2819)" class="st2 st3 st4">16</text>
	<text transform="matrix(1 0 0 1 6.5734 57.4401)" class="st2 st3 st4">1</text>
	<text transform="matrix(1 0 0 1 28.6349 57.4401)" class="st2 st3 st4">2</text>
	<text transform="matrix(1 0 0 1 51.2091 57.4401)" class="st2 st3 st4">3</text>
	<text transform="matrix(1 0 0 1 73.7238 57.4401)" class="st2 st3 st4">4</text>
	<text transform="matrix(1 0 0 1 96.3976 57.4401)" class="st2 st3 st4">5</text>
	<text transform="matrix(1 0 0 1 118.7199 57.4401)" class="st2 st3 st4">6</text>
	<text transform="matrix(1 0 0 1 141.7462 57.4401)" class="st2 st3 st4">7</text>
	<text transform="matrix(1 0 0 1 163.9367 57.4401)" class="st2 st3 st4">8</text>
	<text transform="matrix(1 0 0 1 186.4308 57.4401)" class="st2 st3 st4">9</text>
	<text transform="matrix(1 0 0 1 207.0802 57.4401)" class="st2 st3 st4">10</text>
	<text transform="matrix(1 0 0 1 230.5626 57.4401)" class="st2 st3 st4">11</text>
	<text transform="matrix(1 0 0 1 252.6251 57.4401)" class="st2 st3 st4">12</text>
	<text transform="matrix(1 0 0 1 275.1984 57.4401)" class="st2 st3 st4">13</text>
	<text transform="matrix(1 0 0 1 297.712 57.4401)" class="st2 st3 st4">14</text>
	<text transform="matrix(1 0 0 1 320.3868 57.4401)" class="st2 st3 st4">15</text>
	<text transform="matrix(1 0 0 1 342.7091 57.4401)" class="st2 st3 st4">16</text>
	<text transform="matrix(1 0 0 1 142.1554 327.5945)" class="st2 st3 st4">1</text>
	<text transform="matrix(1 0 0 1 164.2179 327.5945)" class="st2 st3 st4">2</text>
	<text transform="matrix(1 0 0 1 186.7921 327.5945)" class="st2 st3 st4">3</text>
	<text transform="matrix(1 0 0 1 209.3068 327.5945)" class="st2 st3 st4">4</text>
	<text transform="matrix(1 0 0 1 231.9796 327.5945)" class="st2 st3 st4">5</text>
	<text transform="matrix(1 0 0 1 254.3019 327.5945)" class="st2 st3 st4">6</text>
	<text transform="matrix(1 0 0 1 277.3282 327.5945)" class="st2 st3 st4">7</text>
	<text transform="matrix(1 0 0 1 299.5187 327.5945)" class="st2 st3 st4">8</text>
	<text transform="matrix(1 0 0 1 142.1554 350.1462)" class="st2 st3 st4">1</text>
	<text transform="matrix(1 0 0 1 164.2179 350.1462)" class="st2 st3 st4">2</text>
	<text transform="matrix(1 0 0 1 186.7921 350.1462)" class="st2 st3 st4">3</text>
	<text transform="matrix(1 0 0 1 209.3068 350.1462)" class="st2 st3 st4">4</text>
	<text transform="matrix(1 0 0 1 231.9796 350.1462)" class="st2 st3 st4">5</text>
	<text transform="matrix(1 0 0 1 254.3019 350.1462)" class="st2 st3 st4">6</text>
	<text transform="matrix(1 0 0 1 277.3282 350.1462)" class="st2 st3 st4">7</text>
	<text transform="matrix(1 0 0 1 299.5187 350.1462)" class="st2 st3 st4">8</text>
	<text transform="matrix(1 0 0 1 142.1554 372.782)" class="st2 st3 st4">1</text>
	<text transform="matrix(1 0 0 1 164.2179 372.782)" class="st2 st3 st4">2</text>
	<text transform="matrix(1 0 0 1 186.7921 372.782)" class="st2 st3 st4">3</text>
	<text transform="matrix(1 0 0 1 209.3068 372.782)" class="st2 st3 st4">4</text>
	<text transform="matrix(1 0 0 1 231.9796 372.782)" class="st2 st3 st4">5</text>
	<text transform="matrix(1 0 0 1 254.3019 372.782)" class="st2 st3 st4">6</text>
	<text transform="matrix(1 0 0 1 277.3282 372.782)" class="st2 st3 st4">7</text>
	<text transform="matrix(1 0 0 1 299.5187 372.782)" class="st2 st3 st4">8</text>
	<text transform="matrix(1 0 0 1 164.7247 395.3337)" class="st2 st3 st4">1</text>
	<text transform="matrix(1 0 0 1 186.7872 395.3337)" class="st2 st3 st4">2</text>
	<text transform="matrix(1 0 0 1 209.3615 395.3337)" class="st2 st3 st4">3</text>
	<text transform="matrix(1 0 0 1 231.8761 395.3337)" class="st2 st3 st4">4</text>
	<text transform="matrix(1 0 0 1 254.549 395.3337)" class="st2 st3 st4">5</text>
	<text transform="matrix(1 0 0 1 276.8712 395.3337)" class="st2 st3 st4">6</text>
	<text transform="matrix(1 0 0 1 299.8976 395.3337)" class="st2 st3 st4">7</text>
	<text transform="matrix(1 0 0 1 164.7247 417.9665)" class="st2 st3 st4">1</text>
	<text transform="matrix(1 0 0 1 186.7872 417.9665)" class="st2 st3 st4">2</text>
	<text transform="matrix(1 0 0 1 209.3615 417.9665)" class="st2 st3 st4">3</text>
	<text transform="matrix(1 0 0 1 231.8761 417.9665)" class="st2 st3 st4">4</text>
	<text transform="matrix(1 0 0 1 254.549 417.9665)" class="st2 st3 st4">5</text>
	<text transform="matrix(1 0 0 1 276.8712 417.9665)" class="st2 st3 st4">6</text>
	<text transform="matrix(1 0 0 1 299.8976 417.9665)" class="st2 st3 st4">7</text>
	<text transform="matrix(1 0 0 1 164.7257 440.5193)" class="st2 st3 st4">1</text>
	<text transform="matrix(1 0 0 1 186.7882 440.5193)" class="st2 st3 st4">2</text>
	<text transform="matrix(1 0 0 1 209.3624 440.5193)" class="st2 st3 st4">3</text>
	<text transform="matrix(1 0 0 1 231.8771 440.5193)" class="st2 st3 st4">4</text>
	<text transform="matrix(1 0 0 1 254.549 440.5193)" class="st2 st3 st4">5</text>
	<text transform="matrix(1 0 0 1 276.8712 440.5193)" class="st2 st3 st4">6</text>
	<text transform="matrix(1 0 0 1 299.8976 440.5193)" class="st2 st3 st4">7</text>
	<text transform="matrix(1 0 0 1 322.088 440.5193)" class="st2 st3 st4">8</text>
	<text transform="matrix(1 0 0 1 344.5822 440.5193)" class="st2 st3 st4">9</text>
	<text transform="matrix(1 0 0 1 29.0968 124.4245)" class="st2 st3 st4">1</text>
	<text transform="matrix(1 0 0 1 51.1593 124.4245)" class="st2 st3 st4">2</text>
	<text transform="matrix(1 0 0 1 73.7335 124.4245)" class="st2 st3 st4">3</text>
	<text transform="matrix(1 0 0 1 96.2482 124.4245)" class="st2 st3 st4">4</text>
	<text transform="matrix(1 0 0 1 118.9201 124.4245)" class="st2 st3 st4">5</text>
	<text transform="matrix(1 0 0 1 141.2423 124.4245)" class="st2 st3 st4">6</text>
	<text transform="matrix(1 0 0 1 164.2687 124.4245)" class="st2 st3 st4">7</text>
	<text transform="matrix(1 0 0 1 186.4591 124.4245)" class="st2 st3 st4">8</text>
	<text transform="matrix(1 0 0 1 208.9533 124.4245)" class="st2 st3 st4">9</text>
	<text transform="matrix(1 0 0 1 229.6037 124.4245)" class="st2 st3 st4">10</text>
	<text transform="matrix(1 0 0 1 253.0861 124.4245)" class="st2 st3 st4">11</text>
	<text transform="matrix(1 0 0 1 275.1486 124.4245)" class="st2 st3 st4">12</text>
	<text transform="matrix(1 0 0 1 297.7228 124.4245)" class="st2 st3 st4">13</text>
	<text transform="matrix(1 0 0 1 320.2365 124.4245)" class="st2 st3 st4">14</text>
	<text transform="matrix(1 0 0 1 342.9093 124.4245)" class="st2 st3 st4">15</text>
	<text transform="matrix(1 0 0 1 29.0968 146.7468)" class="st2 st3 st4">1</text>
	<text transform="matrix(1 0 0 1 51.1593 146.7468)" class="st2 st3 st4">2</text>
	<text transform="matrix(1 0 0 1 73.7335 146.7468)" class="st2 st3 st4">3</text>
	<text transform="matrix(1 0 0 1 96.2482 146.7468)" class="st2 st3 st4">4</text>
	<text transform="matrix(1 0 0 1 118.9201 146.7468)" class="st2 st3 st4">5</text>
	<text transform="matrix(1 0 0 1 141.2423 146.7468)" class="st2 st3 st4">6</text>
	<text transform="matrix(1 0 0 1 164.2687 146.7468)" class="st2 st3 st4">7</text>
	<text transform="matrix(1 0 0 1 186.4591 146.7468)" class="st2 st3 st4">8</text>
	<text transform="matrix(1 0 0 1 208.9533 146.7468)" class="st2 st3 st4">9</text>
	<text transform="matrix(1 0 0 1 229.6037 146.7468)" class="st2 st3 st4">10</text>
	<text transform="matrix(1 0 0 1 253.0861 146.7468)" class="st2 st3 st4">11</text>
	<text transform="matrix(1 0 0 1 275.1486 146.7468)" class="st2 st3 st4">12</text>
	<text transform="matrix(1 0 0 1 297.7228 146.7468)" class="st2 st3 st4">13</text>
	<text transform="matrix(1 0 0 1 320.2365 146.7468)" class="st2 st3 st4">14</text>
	<text transform="matrix(1 0 0 1 342.9093 146.7468)" class="st2 st3 st4">15</text>
	<text transform="matrix(1 0 0 1 51.6388 169.5524)" class="st2 st3 st4">1</text>
	<text transform="matrix(1 0 0 1 73.7013 169.5524)" class="st2 st3 st4">2</text>
	<text transform="matrix(1 0 0 1 96.2755 169.5524)" class="st2 st3 st4">3</text>
	<text transform="matrix(1 0 0 1 118.7902 169.5524)" class="st2 st3 st4">4</text>
	<text transform="matrix(1 0 0 1 141.464 169.5524)" class="st2 st3 st4">5</text>
	<text transform="matrix(1 0 0 1 163.7863 169.5524)" class="st2 st3 st4">6</text>
	<text transform="matrix(1 0 0 1 186.8126 169.5524)" class="st2 st3 st4">7</text>
	<text transform="matrix(1 0 0 1 209.0031 169.5524)" class="st2 st3 st4">8</text>
	<text transform="matrix(1 0 0 1 231.4972 169.5524)" class="st2 st3 st4">9</text>
	<text transform="matrix(1 0 0 1 252.1476 169.5524)" class="st2 st3 st4">10</text>
	<text transform="matrix(1 0 0 1 275.6281 169.5524)" class="st2 st3 st4">11</text>
	<text transform="matrix(1 0 0 1 297.6906 169.5524)" class="st2 st3 st4">12</text>
	<text transform="matrix(1 0 0 1 320.2648 169.5524)" class="st2 st3 st4">13</text>
	<text transform="matrix(1 0 0 1 342.7784 169.5524)" class="st2 st3 st4">14</text>
	<text transform="matrix(1 0 0 1 51.6388 191.903)" class="st2 st3 st4">1</text>
	<text transform="matrix(1 0 0 1 73.7013 191.903)" class="st2 st3 st4">2</text>
	<text transform="matrix(1 0 0 1 96.2755 191.903)" class="st2 st3 st4">3</text>
	<text transform="matrix(1 0 0 1 118.7902 191.903)" class="st2 st3 st4">4</text>
	<text transform="matrix(1 0 0 1 141.464 191.903)" class="st2 st3 st4">5</text>
	<text transform="matrix(1 0 0 1 163.7863 191.903)" class="st2 st3 st4">6</text>
	<text transform="matrix(1 0 0 1 186.8126 191.903)" class="st2 st3 st4">7</text>
	<text transform="matrix(1 0 0 1 209.0031 191.903)" class="st2 st3 st4">8</text>
	<text transform="matrix(1 0 0 1 231.4972 191.903)" class="st2 st3 st4">9</text>
	<text transform="matrix(1 0 0 1 252.1476 191.903)" class="st2 st3 st4">10</text>
	<text transform="matrix(1 0 0 1 275.6281 191.903)" class="st2 st3 st4">11</text>
	<text transform="matrix(1 0 0 1 297.6906 191.903)" class="st2 st3 st4">12</text>
	<text transform="matrix(1 0 0 1 320.2648 191.903)" class="st2 st3 st4">13</text>
	<text transform="matrix(1 0 0 1 342.7784 191.903)" class="st2 st3 st4">14</text>
	<text transform="matrix(1 0 0 1 74.2091 214.737)" class="st2 st3 st4">1</text>
	<text transform="matrix(1 0 0 1 96.2716 214.737)" class="st2 st3 st4">2</text>
	<text transform="matrix(1 0 0 1 118.8458 214.737)" class="st2 st3 st4">3</text>
	<text transform="matrix(1 0 0 1 141.3605 214.737)" class="st2 st3 st4">4</text>
	<text transform="matrix(1 0 0 1 164.0343 214.737)" class="st2 st3 st4">5</text>
	<text transform="matrix(1 0 0 1 186.3566 214.737)" class="st2 st3 st4">6</text>
	<text transform="matrix(1 0 0 1 209.3829 214.737)" class="st2 st3 st4">7</text>
	<text transform="matrix(1 0 0 1 231.5734 214.737)" class="st2 st3 st4">8</text>
	<text transform="matrix(1 0 0 1 254.0675 214.737)" class="st2 st3 st4">9</text>
	<text transform="matrix(1 0 0 1 274.7179 214.737)" class="st2 st3 st4">10</text>
	<text transform="matrix(1 0 0 1 298.1984 214.737)" class="st2 st3 st4">11</text>
	<text transform="matrix(1 0 0 1 320.2609 214.737)" class="st2 st3 st4">12</text>
	<text transform="matrix(1 0 0 1 342.8351 214.737)" class="st2 st3 st4">13</text>
	<text transform="matrix(1 0 0 1 96.6427 237.2673)" class="st2 st3 st4">1</text>
	<text transform="matrix(1 0 0 1 118.7052 237.2673)" class="st2 st3 st4">2</text>
	<text transform="matrix(1 0 0 1 141.2794 237.2673)" class="st2 st3 st4">3</text>
	<text transform="matrix(1 0 0 1 163.7941 237.2673)" class="st2 st3 st4">4</text>
	<text transform="matrix(1 0 0 1 186.4679 237.2673)" class="st2 st3 st4">5</text>
	<text transform="matrix(1 0 0 1 208.7902 237.2673)" class="st2 st3 st4">6</text>
	<text transform="matrix(1 0 0 1 231.8165 237.2673)" class="st2 st3 st4">7</text>
	<text transform="matrix(1 0 0 1 254.007 237.2673)" class="st2 st3 st4">8</text>
	<text transform="matrix(1 0 0 1 276.5011 237.2673)" class="st2 st3 st4">9</text>
	<text transform="matrix(1 0 0 1 297.1515 237.2673)" class="st2 st3 st4">10</text>
	<text transform="matrix(1 0 0 1 96.7775 259.6179)" class="st2 st3 st4">1</text>
	<text transform="matrix(1 0 0 1 118.84 259.6179)" class="st2 st3 st4">2</text>
	<text transform="matrix(1 0 0 1 141.4142 259.6179)" class="st2 st3 st4">3</text>
	<text transform="matrix(1 0 0 1 163.9288 259.6179)" class="st2 st3 st4">4</text>
	<text transform="matrix(1 0 0 1 186.6027 259.6179)" class="st2 st3 st4">5</text>
	<text transform="matrix(1 0 0 1 208.9249 259.6179)" class="st2 st3 st4">6</text>
	<text transform="matrix(1 0 0 1 231.9513 259.6179)" class="st2 st3 st4">7</text>
	<text transform="matrix(1 0 0 1 254.1417 259.6179)" class="st2 st3 st4">8</text>
	<text transform="matrix(1 0 0 1 276.6359 259.6179)" class="st2 st3 st4">9</text>
	<text transform="matrix(1 0 0 1 297.2863 259.6179)" class="st2 st3 st4">10</text>
	<text transform="matrix(1 0 0 1 121.0148 282.4519)" class="st2 st3 st4">1</text>
	<text transform="matrix(1 0 0 1 143.0773 282.4519)" class="st2 st3 st4">2</text>
	<text transform="matrix(1 0 0 1 165.6515 282.4519)" class="st2 st3 st4">3</text>
	<text transform="matrix(1 0 0 1 188.1662 282.4519)" class="st2 st3 st4">4</text>
	<text transform="matrix(1 0 0 1 210.84 282.4519)" class="st2 st3 st4">5</text>
	<text transform="matrix(1 0 0 1 233.1622 282.4519)" class="st2 st3 st4">6</text>
	<text transform="matrix(1 0 0 1 256.1886 282.4519)" class="st2 st3 st4">7</text>
	<text transform="matrix(1 0 0 1 278.379 282.4519)" class="st2 st3 st4">8</text>
	<text transform="matrix(1 0 0 1 300.8732 282.4519)" class="st2 st3 st4">9</text>
	<text transform="matrix(1 0 0 1 51.6388 463.1765)" class="st2 st3 st4">1</text>
	<text transform="matrix(1 0 0 1 73.7013 463.1765)" class="st2 st3 st4">2</text>
	<text transform="matrix(1 0 0 1 96.2755 463.1765)" class="st2 st3 st4">3</text>
	<text transform="matrix(1 0 0 1 118.7902 463.1765)" class="st2 st3 st4">4</text>
	<text transform="matrix(1 0 0 1 141.464 463.1765)" class="st2 st3 st4">5</text>
	<text transform="matrix(1 0 0 1 163.7863 463.1765)" class="st2 st3 st4">6</text>
	<text transform="matrix(1 0 0 1 186.8126 463.1765)" class="st2 st3 st4">7</text>
	<text transform="matrix(1 0 0 1 209.0031 463.1765)" class="st2 st3 st4">8</text>
	<text transform="matrix(1 0 0 1 231.4972 463.1765)" class="st2 st3 st4">9</text>
	<text transform="matrix(1 0 0 1 252.1476 463.1765)" class="st2 st3 st4">10</text>
	<text transform="matrix(1 0 0 1 275.6281 463.1765)" class="st2 st3 st4">11</text>
	<text transform="matrix(1 0 0 1 297.6906 463.1765)" class="st2 st3 st4">12</text>
	<text transform="matrix(1 0 0 1 320.2648 463.1765)" class="st2 st3 st4">13</text>
	<text transform="matrix(1 0 0 1 342.7784 463.1765)" class="st2 st3 st4">14</text>
	<text transform="matrix(1 0 0 1 74.4445 485.528)" class="st2 st3 st4">1</text>
	<text transform="matrix(1 0 0 1 96.507 485.528)" class="st2 st3 st4">2</text>
	<text transform="matrix(1 0 0 1 119.0812 485.528)" class="st2 st3 st4">3</text>
	<text transform="matrix(1 0 0 1 141.5958 485.528)" class="st2 st3 st4">4</text>
	<text transform="matrix(1 0 0 1 164.2697 485.528)" class="st2 st3 st4">5</text>
	<text transform="matrix(1 0 0 1 186.5919 485.528)" class="st2 st3 st4">6</text>
	<text transform="matrix(1 0 0 1 209.6183 485.528)" class="st2 st3 st4">7</text>
	<text transform="matrix(1 0 0 1 231.8087 485.528)" class="st2 st3 st4">8</text>
	<text transform="matrix(1 0 0 1 254.3029 485.528)" class="st2 st3 st4">9</text>
	<text transform="matrix(1 0 0 1 274.9532 485.528)" class="st2 st3 st4">10</text>
	<text transform="matrix(1 0 0 1 298.4337 485.528)" class="st2 st3 st4">11</text>
	<text transform="matrix(1 0 0 1 320.4962 485.528)" class="st2 st3 st4">12</text>
	<text transform="matrix(1 0 0 1 343.0704 485.528)" class="st2 st3 st4">13</text>
	<text transform="matrix(1 0 0 1 96.0724 508.3611)" class="st2 st3 st4">1</text>
	<text transform="matrix(1 0 0 1 118.1349 508.3611)" class="st2 st3 st4">2</text>
	<text transform="matrix(1 0 0 1 140.7091 508.3611)" class="st2 st3 st4">3</text>
	<text transform="matrix(1 0 0 1 163.2238 508.3611)" class="st2 st3 st4">4</text>
	<text transform="matrix(1 0 0 1 185.8976 508.3611)" class="st2 st3 st4">5</text>
	<text transform="matrix(1 0 0 1 208.2199 508.3611)" class="st2 st3 st4">6</text>
	<text transform="matrix(1 0 0 1 231.2462 508.3611)" class="st2 st3 st4">7</text>
	<text transform="matrix(1 0 0 1 253.4367 508.3611)" class="st2 st3 st4">8</text>
	<text transform="matrix(1 0 0 1 275.9308 508.3611)" class="st2 st3 st4">9</text>
	<text transform="matrix(1 0 0 1 296.5812 508.3611)" class="st2 st3 st4">10</text>
	<text transform="matrix(1 0 0 1 320.0616 508.3611)" class="st2 st3 st4">11</text>
	<text transform="matrix(1 0 0 1 342.1241 508.3611)" class="st2 st3 st4">12</text>
	<text transform="matrix(1 0 0 1 96.0724 530.8913)" class="st2 st3 st4">1</text>
	<text transform="matrix(1 0 0 1 118.1349 530.8913)" class="st2 st3 st4">2</text>
	<text transform="matrix(1 0 0 1 140.7091 530.8913)" class="st2 st3 st4">3</text>
	<text transform="matrix(1 0 0 1 163.2238 530.8913)" class="st2 st3 st4">4</text>
	<text transform="matrix(1 0 0 1 185.8976 530.8913)" class="st2 st3 st4">5</text>
	<text transform="matrix(1 0 0 1 208.2199 530.8913)" class="st2 st3 st4">6</text>
	<text transform="matrix(1 0 0 1 231.2462 530.8913)" class="st2 st3 st4">7</text>
	<text transform="matrix(1 0 0 1 253.4367 530.8913)" class="st2 st3 st4">8</text>
	<text transform="matrix(1 0 0 1 275.9308 530.8913)" class="st2 st3 st4">9</text>
	<text transform="matrix(1 0 0 1 296.5812 530.8913)" class="st2 st3 st4">10</text>
	<text transform="matrix(1 0 0 1 320.0616 530.8913)" class="st2 st3 st4">11</text>
	<text transform="matrix(1 0 0 1 342.1241 530.8913)" class="st2 st3 st4">12</text>
	<text transform="matrix(1 0 0 1 119.214 553.2429)" class="st2 st3 st4">1</text>
	<text transform="matrix(1 0 0 1 141.2765 553.2429)" class="st2 st3 st4">2</text>
	<text transform="matrix(1 0 0 1 163.8507 553.2429)" class="st2 st3 st4">3</text>
	<text transform="matrix(1 0 0 1 186.3654 553.2429)" class="st2 st3 st4">4</text>
	<text transform="matrix(1 0 0 1 209.0392 553.2429)" class="st2 st3 st4">5</text>
	<text transform="matrix(1 0 0 1 231.3615 553.2429)" class="st2 st3 st4">6</text>
	<text transform="matrix(1 0 0 1 254.3878 553.2429)" class="st2 st3 st4">7</text>
	<text transform="matrix(1 0 0 1 276.5782 553.2429)" class="st2 st3 st4">8</text>
	<text transform="matrix(1 0 0 1 299.0724 553.2429)" class="st2 st3 st4">9</text>
	<text transform="matrix(1 0 0 1 319.7228 553.2429)" class="st2 st3 st4">10</text>
	<text transform="matrix(1 0 0 1 343.2032 553.2429)" class="st2 st3 st4">11</text>
	<text transform="matrix(1 0 0 1 141.9171 576.0759)" class="st2 st3 st4">1</text>
	<text transform="matrix(1 0 0 1 163.9796 576.0759)" class="st2 st3 st4">2</text>
	<text transform="matrix(1 0 0 1 186.5538 576.0759)" class="st2 st3 st4">3</text>
	<text transform="matrix(1 0 0 1 209.0685 576.0759)" class="st2 st3 st4">4</text>
	<text transform="matrix(1 0 0 1 231.7423 576.0759)" class="st2 st3 st4">5</text>
	<text transform="matrix(1 0 0 1 254.0646 576.0759)" class="st2 st3 st4">6</text>
	<text transform="matrix(1 0 0 1 277.0909 576.0759)" class="st2 st3 st4">7</text>
	<text transform="matrix(1 0 0 1 299.2814 576.0759)" class="st2 st3 st4">8</text>
	<text transform="matrix(1 0 0 1 321.7755 576.0759)" class="st2 st3 st4">9</text>
	<text transform="matrix(1 0 0 1 342.4259 576.0759)" class="st2 st3 st4">10</text>
	<text transform="matrix(1 0 0 1 164.5636 598.6589)" class="st2 st3 st4">1</text>
	<text transform="matrix(1 0 0 1 186.6261 598.6589)" class="st2 st3 st4">2</text>
	<text transform="matrix(1 0 0 1 209.2003 598.6589)" class="st2 st3 st4">3</text>
	<text transform="matrix(1 0 0 1 231.715 598.6589)" class="st2 st3 st4">4</text>
	<text transform="matrix(1 0 0 1 254.3888 598.6589)" class="st2 st3 st4">5</text>
	<text transform="matrix(1 0 0 1 276.7111 598.6589)" class="st2 st3 st4">6</text>
	<text transform="matrix(1 0 0 1 299.7374 598.6589)" class="st2 st3 st4">7</text>
	<text transform="matrix(1 0 0 1 321.9279 598.6589)" class="st2 st3 st4">8</text>
	<text transform="matrix(1 0 0 1 344.422 598.6589)" class="st2 st3 st4">9</text>
	<text transform="matrix(1 0 0 1 164.5636 621.0056)" class="st2 st3 st4">1</text>
	<text transform="matrix(1 0 0 1 186.6261 621.0056)" class="st2 st3 st4">2</text>
	<text transform="matrix(1 0 0 1 209.2003 621.0056)" class="st2 st3 st4">3</text>
	<text transform="matrix(1 0 0 1 231.715 621.0056)" class="st2 st3 st4">4</text>
	<text transform="matrix(1 0 0 1 254.3888 621.0056)" class="st2 st3 st4">5</text>
	<text transform="matrix(1 0 0 1 276.7111 621.0056)" class="st2 st3 st4">6</text>
	<text transform="matrix(1 0 0 1 299.7374 621.0056)" class="st2 st3 st4">7</text>
	<text transform="matrix(1 0 0 1 321.9279 621.0056)" class="st2 st3 st4">8</text>
	<text transform="matrix(1 0 0 1 344.422 621.0056)" class="st2 st3 st4">9</text>
	<text transform="matrix(1 0 0 1 186.923 643.3571)" class="st2 st3 st4">1</text>
	<text transform="matrix(1 0 0 1 208.9855 643.3571)" class="st2 st3 st4">2</text>
	<text transform="matrix(1 0 0 1 231.5597 643.3571)" class="st2 st3 st4">3</text>
	<text transform="matrix(1 0 0 1 254.0744 643.3571)" class="st2 st3 st4">4</text>
	<text transform="matrix(1 0 0 1 276.7482 643.3571)" class="st2 st3 st4">5</text>
	<text transform="matrix(1 0 0 1 299.0704 643.3571)" class="st2 st3 st4">6</text>
	<text transform="matrix(1 0 0 1 322.0968 643.3571)" class="st2 st3 st4">7</text>
	<text transform="matrix(1 0 0 1 344.2872 643.3571)" class="st2 st3 st4">8</text>
	<text transform="matrix(1 0 0 1 232.0626 666.1901)" class="st2 st3 st4">1</text>
	<text transform="matrix(1 0 0 1 254.1251 666.1901)" class="st2 st3 st4">2</text>
	<text transform="matrix(1 0 0 1 276.6993 666.1901)" class="st2 st3 st4">3</text>
	<text transform="matrix(1 0 0 1 299.214 666.1901)" class="st2 st3 st4">4</text>
	<text transform="matrix(1 0 0 1 321.8878 666.1901)" class="st2 st3 st4">5</text>
	<text transform="matrix(1 0 0 1 344.2101 666.1901)" class="st2 st3 st4">6</text>
	<text transform="matrix(1 0 0 1 121.0626 305.0573)" class="st2 st3 st4">1</text>
	<text transform="matrix(1 0 0 1 143.1251 305.0573)" class="st2 st3 st4">2</text>
	<text transform="matrix(1 0 0 1 165.6984 305.0573)" class="st2 st3 st4">3</text>
	<text transform="matrix(1 0 0 1 188.213 305.0573)" class="st2 st3 st4">4</text>
	<text transform="matrix(1 0 0 1 210.8869 305.0573)" class="st2 st3 st4">5</text>
	<text transform="matrix(1 0 0 1 233.2091 305.0573)" class="st2 st3 st4">6</text>
	<text transform="matrix(1 0 0 1 256.2355 305.0573)" class="st2 st3 st4">7</text>
	<text transform="matrix(1 0 0 1 278.4259 305.0573)" class="st2 st3 st4">8</text>
	<text transform="matrix(1 0 0 1 300.92 305.0573)" class="st2 st3 st4">9</text>
</g>
<g>
	<text transform="matrix(1 0 0 1 414.3009 55.7282)" class="st5 st6 st7">29</text>
	<text transform="matrix(1 0 0 1 414.3009 11.3571)" class="st5 st6 st7">30</text>
	<text transform="matrix(1 0 0 1 414.3009 101.2243)" class="st5 st6 st7">27</text>
	<text transform="matrix(1 0 0 1 414.3009 78.654)" class="st5 st6 st7">28</text>
	<text transform="matrix(1 0 0 1 414.3009 146.3669)" class="st5 st6 st7">25</text>
	<text transform="matrix(1 0 0 1 414.1407 326.9665)" class="st5 st6 st7">17</text>
	<text transform="matrix(1 0 0 1 414.1407 349.5183)" class="st5 st6 st7">16</text>
	<text transform="matrix(1 0 0 1 414.3009 372.154)" class="st5 st6 st7">15</text>
	<text transform="matrix(1 0 0 1 414.3009 394.7058)" class="st5 st6 st7">14</text>
	<text transform="matrix(1 0 0 1 414.1134 417.3386)" class="st5 st6 st7">13</text>
	<text transform="matrix(1 0 0 1 414.1407 439.8913)" class="st5 st6 st7">12</text>
	<text transform="matrix(1 0 0 1 414.4767 620.5886)" class="st5 st6 st7">4</text>
	<text transform="matrix(1 0 0 1 414.4767 643.2214)" class="st5 st6 st7">3</text>
	<text transform="matrix(1 0 0 1 414.1134 665.7741)" class="st5 st6 st7">2</text>
	<text transform="matrix(1 0 0 1 414.3009 123.7966)" class="st5 st6 st7">26</text>
	<text transform="matrix(1 0 0 1 414.3009 168.821)" class="st5 st6 st7">24</text>
	<text transform="matrix(1 0 0 1 414.3009 214.0085)" class="st5 st6 st7">22</text>
	<text transform="matrix(1 0 0 1 414.3009 191.4382)" class="st5 st6 st7">23</text>
	<text transform="matrix(1 0 0 1 414.3009 259.153)" class="st5 st6 st7">20</text>
	<text transform="matrix(1 0 0 1 414.3009 236.5827)" class="st5 st6 st7">21</text>
	<text transform="matrix(1 0 0 1 414.1134 304.2956)" class="st5 st6 st7">18</text>
	<text transform="matrix(1 0 0 1 414.1407 281.7253)" class="st5 st6 st7">19</text>
	<text transform="matrix(1 0 0 1 414.1407 462.445)" class="st5 st6 st7">11</text>
	<text transform="matrix(1 0 0 1 414.1407 507.6325)" class="st5 st6 st7">9</text>
	<text transform="matrix(1 0 0 1 414.1407 485.0622)" class="st5 st6 st7">10</text>
	<text transform="matrix(1 0 0 1 414.7482 552.778)" class="st5 st6 st7">7</text>
	<text transform="matrix(1 0 0 1 414.1134 530.2077)" class="st5 st6 st7">8</text>
	<text transform="matrix(1 0 0 1 414.1407 575.3503)" class="st5 st6 st7">6</text>
	<text transform="matrix(1 0 0 1 414.7482 597.9333)" class="st5 st6 st7">5</text>
</g>
</svg>
