<?xml version="1.0" encoding="utf-8"?>
<!-- Generator: Adobe Illustrator 20.1.0, SVG Export Plug-In . SVG Version: 6.00 Build 0)  -->
<svg version="1.1" id="Layer_1" xmlns="http://www.w3.org/2000/svg" xmlns:xlink="http://www.w3.org/1999/xlink" x="0px" y="0px"
	 viewBox="0 0 358.6 671.8" style="enable-background:new 0 0 358.6 671.8;" xml:space="preserve">
<style type="text/css">
	.st0{fill:#FDCDFA;}
	.st1{fill:#FFFFFF;}
	.st2{fill:#737373;}
	.st3{font-family:'OsnovaPro';}
	.st4{font-size:8px;}
	.st5{fill:#7B878F;}
	.st6{font-family:'OsnovaProLight';}
	.st7{font-size:9px;}
</style>
<path class="st0" d="M9.3,16.6L9.3,16.6C4.7,16.6,1,12.8,1,8.3v0C1,3.7,4.7,0,9.3,0h0c4.6,0,8.3,3.7,8.3,8.3v0
	C17.6,12.8,13.8,16.6,9.3,16.6z"/>
<path class="st1" d="M167.1,129.5L167.1,129.5c-4.6,0-8.3-3.7-8.3-8.3v0c0-4.6,3.7-8.3,8.3-8.3h0c4.6,0,8.3,3.7,8.3,8.3v0
	C175.4,125.8,171.7,129.5,167.1,129.5z"/>
<path class="st1" d="M189.7,129.5L189.7,129.5c-4.6,0-8.3-3.7-8.3-8.3v0c0-4.6,3.7-8.3,8.3-8.3h0c4.6,0,8.3,3.7,8.3,8.3v0
	C198,125.8,194.3,129.5,189.7,129.5z"/>
<path class="st1" d="M212.3,129.5L212.3,129.5c-4.6,0-8.3-3.7-8.3-8.3v0c0-4.6,3.7-8.3,8.3-8.3h0c4.6,0,8.3,3.7,8.3,8.3v0
	C220.6,125.8,216.8,129.5,212.3,129.5z"/>
<path class="st1" d="M234.8,129.5L234.8,129.5c-4.6,0-8.3-3.7-8.3-8.3v0c0-4.6,3.7-8.3,8.3-8.3h0c4.6,0,8.3,3.7,8.3,8.3v0
	C243.1,125.8,239.4,129.5,234.8,129.5z"/>
<path class="st1" d="M257.4,129.5L257.4,129.5c-4.6,0-8.3-3.7-8.3-8.3v0c0-4.6,3.7-8.3,8.3-8.3l0,0c4.6,0,8.3,3.7,8.3,8.3v0
	C265.7,125.8,262,129.5,257.4,129.5z"/>
<path class="st1" d="M280,129.5L280,129.5c-4.6,0-8.3-3.7-8.3-8.3v0c0-4.6,3.7-8.3,8.3-8.3h0c4.6,0,8.3,3.7,8.3,8.3v0
	C288.3,125.8,284.5,129.5,280,129.5z"/>
<path class="st1" d="M212.3,310.1L212.3,310.1c-4.6,0-8.3-3.7-8.3-8.3v0c0-4.6,3.7-8.3,8.3-8.3h0c4.6,0,8.3,3.7,8.3,8.3v0
	C220.6,306.4,216.8,310.1,212.3,310.1z"/>
<path class="st1" d="M257.4,423L257.4,423c-4.6,0-8.3-3.7-8.3-8.3l0,0c0-4.6,3.7-8.3,8.3-8.3l0,0c4.6,0,8.3,3.7,8.3,8.3l0,0
	C265.7,419.3,262,423,257.4,423z"/>
<path class="st1" d="M280,423L280,423c-4.6,0-8.3-3.7-8.3-8.3l0,0c0-4.6,3.7-8.3,8.3-8.3h0c4.6,0,8.3,3.7,8.3,8.3l0,0
	C288.3,419.3,284.5,423,280,423z"/>
<path class="st1" d="M167.1,106.9L167.1,106.9c-4.6,0-8.3-3.7-8.3-8.3v0c0-4.6,3.7-8.3,8.3-8.3h0c4.6,0,8.3,3.7,8.3,8.3v0
	C175.4,103.2,171.7,106.9,167.1,106.9z"/>
<path class="st1" d="M189.7,106.9L189.7,106.9c-4.6,0-8.3-3.7-8.3-8.3v0c0-4.6,3.7-8.3,8.3-8.3h0c4.6,0,8.3,3.7,8.3,8.3v0
	C198,103.2,194.3,106.9,189.7,106.9z"/>
<path class="st1" d="M212.3,106.9L212.3,106.9c-4.6,0-8.3-3.7-8.3-8.3v0c0-4.6,3.7-8.3,8.3-8.3h0c4.6,0,8.3,3.7,8.3,8.3v0
	C220.6,103.2,216.8,106.9,212.3,106.9z"/>
<path class="st1" d="M234.8,106.9L234.8,106.9c-4.6,0-8.3-3.7-8.3-8.3v0c0-4.6,3.7-8.3,8.3-8.3h0c4.6,0,8.3,3.7,8.3,8.3v0
	C243.1,103.2,239.4,106.9,234.8,106.9z"/>
<path class="st1" d="M257.4,106.9L257.4,106.9c-4.6,0-8.3-3.7-8.3-8.3v0c0-4.6,3.7-8.3,8.3-8.3l0,0c4.6,0,8.3,3.7,8.3,8.3v0
	C265.7,103.2,262,106.9,257.4,106.9z"/>
<path class="st1" d="M280,106.9L280,106.9c-4.6,0-8.3-3.7-8.3-8.3v0c0-4.6,3.7-8.3,8.3-8.3h0c4.6,0,8.3,3.7,8.3,8.3v0
	C288.3,103.2,284.5,106.9,280,106.9z"/>
<path class="st1" d="M167.2,152.1L167.2,152.1c-4.6,0-8.3-3.7-8.3-8.3v0c0-4.6,3.7-8.3,8.3-8.3h0c4.6,0,8.3,3.7,8.3,8.3v0
	C175.4,148.3,171.7,152.1,167.2,152.1z"/>
<path class="st1" d="M189.7,152.1L189.7,152.1c-4.6,0-8.3-3.7-8.3-8.3v0c0-4.6,3.7-8.3,8.3-8.3h0c4.6,0,8.3,3.7,8.3,8.3v0
	C198,148.3,194.3,152.1,189.7,152.1z"/>
<path class="st1" d="M212.3,152.1L212.3,152.1c-4.6,0-8.3-3.7-8.3-8.3v0c0-4.6,3.7-8.3,8.3-8.3h0c4.6,0,8.3,3.7,8.3,8.3v0
	C220.6,148.3,216.9,152.1,212.3,152.1z"/>
<path class="st1" d="M234.9,152.1L234.9,152.1c-4.6,0-8.3-3.7-8.3-8.3v0c0-4.6,3.7-8.3,8.3-8.3h0c4.6,0,8.3,3.7,8.3,8.3v0
	C243.2,148.3,239.4,152.1,234.9,152.1z"/>
<path class="st1" d="M257.4,152.1L257.4,152.1c-4.6,0-8.3-3.7-8.3-8.3v0c0-4.6,3.7-8.3,8.3-8.3l0,0c4.6,0,8.3,3.7,8.3,8.3v0
	C265.7,148.3,262,152.1,257.4,152.1z"/>
<path class="st1" d="M280,152.1L280,152.1c-4.6,0-8.3-3.7-8.3-8.3v0c0-4.6,3.7-8.3,8.3-8.3h0c4.6,0,8.3,3.7,8.3,8.3v0
	C288.3,148.3,284.6,152.1,280,152.1z"/>
<path class="st1" d="M167.1,197.2L167.1,197.2c-4.6,0-8.3-3.7-8.3-8.3v0c0-4.6,3.7-8.3,8.3-8.3h0c4.6,0,8.3,3.7,8.3,8.3v0
	C175.4,193.5,171.7,197.2,167.1,197.2z"/>
<path class="st1" d="M189.7,197.2L189.7,197.2c-4.6,0-8.3-3.7-8.3-8.3v0c0-4.6,3.7-8.3,8.3-8.3h0c4.6,0,8.3,3.7,8.3,8.3v0
	C198,193.5,194.3,197.2,189.7,197.2z"/>
<path class="st1" d="M212.3,197.2L212.3,197.2c-4.6,0-8.3-3.7-8.3-8.3v0c0-4.6,3.7-8.3,8.3-8.3h0c4.6,0,8.3,3.7,8.3,8.3v0
	C220.6,193.5,216.8,197.2,212.3,197.2z"/>
<path class="st1" d="M167.1,174.6L167.1,174.6c-4.6,0-8.3-3.7-8.3-8.3v0c0-4.6,3.7-8.3,8.3-8.3h0c4.6,0,8.3,3.7,8.3,8.3v0
	C175.4,170.9,171.7,174.6,167.1,174.6z"/>
<path class="st1" d="M189.7,174.6L189.7,174.6c-4.6,0-8.3-3.7-8.3-8.3v0c0-4.6,3.7-8.3,8.3-8.3h0c4.6,0,8.3,3.7,8.3,8.3v0
	C198,170.9,194.3,174.6,189.7,174.6z"/>
<path class="st1" d="M212.3,174.6L212.3,174.6c-4.6,0-8.3-3.7-8.3-8.3v0c0-4.6,3.7-8.3,8.3-8.3h0c4.6,0,8.3,3.7,8.3,8.3v0
	C220.6,170.9,216.8,174.6,212.3,174.6z"/>
<path class="st1" d="M234.8,174.6L234.8,174.6c-4.6,0-8.3-3.7-8.3-8.3v0c0-4.6,3.7-8.3,8.3-8.3h0c4.6,0,8.3,3.7,8.3,8.3v0
	C243.1,170.9,239.4,174.6,234.8,174.6z"/>
<path class="st1" d="M257.4,174.6L257.4,174.6c-4.6,0-8.3-3.7-8.3-8.3v0c0-4.6,3.7-8.3,8.3-8.3l0,0c4.6,0,8.3,3.7,8.3,8.3v0
	C265.7,170.9,262,174.6,257.4,174.6z"/>
<path class="st1" d="M280,174.6L280,174.6c-4.6,0-8.3-3.7-8.3-8.3v0c0-4.6,3.7-8.3,8.3-8.3l0,0c4.6,0,8.3,3.7,8.3,8.3v0
	C288.3,170.9,284.5,174.6,280,174.6z"/>
<path class="st1" d="M234.8,197.2L234.8,197.2c-4.6,0-8.3-3.7-8.3-8.3v0c0-4.6,3.7-8.3,8.3-8.3h0c4.6,0,8.3,3.7,8.3,8.3v0
	C243.1,193.5,239.4,197.2,234.8,197.2z"/>
<path class="st1" d="M257.4,197.2L257.4,197.2c-4.6,0-8.3-3.7-8.3-8.3v0c0-4.6,3.7-8.3,8.3-8.3l0,0c4.6,0,8.3,3.7,8.3,8.3v0
	C265.7,193.5,262,197.2,257.4,197.2z"/>
<path class="st1" d="M280,197.2L280,197.2c-4.6,0-8.3-3.7-8.3-8.3v0c0-4.6,3.7-8.3,8.3-8.3l0,0c4.6,0,8.3,3.7,8.3,8.3v0
	C288.3,193.5,284.5,197.2,280,197.2z"/>
<path class="st1" d="M167.2,219.8L167.2,219.8c-4.6,0-8.3-3.7-8.3-8.3v0c0-4.6,3.7-8.3,8.3-8.3h0c4.6,0,8.3,3.7,8.3,8.3v0
	C175.4,216.1,171.7,219.8,167.2,219.8z"/>
<path class="st1" d="M189.7,219.8L189.7,219.8c-4.6,0-8.3-3.7-8.3-8.3v0c0-4.6,3.7-8.3,8.3-8.3h0c4.6,0,8.3,3.7,8.3,8.3v0
	C198,216.1,194.3,219.8,189.7,219.8z"/>
<path class="st1" d="M212.3,219.8L212.3,219.8c-4.6,0-8.3-3.7-8.3-8.3v0c0-4.6,3.7-8.3,8.3-8.3h0c4.6,0,8.3,3.7,8.3,8.3v0
	C220.6,216.1,216.9,219.8,212.3,219.8z"/>
<path class="st1" d="M189.7,264.9L189.7,264.9c-4.6,0-8.3-3.7-8.3-8.3v0c0-4.6,3.7-8.3,8.3-8.3h0c4.6,0,8.3,3.7,8.3,8.3v0
	C198,261.2,194.3,264.9,189.7,264.9z"/>
<path class="st1" d="M212.3,264.9L212.3,264.9c-4.6,0-8.3-3.7-8.3-8.3v0c0-4.6,3.7-8.3,8.3-8.3h0c4.6,0,8.3,3.7,8.3,8.3v0
	C220.6,261.2,216.8,264.9,212.3,264.9z"/>
<path class="st1" d="M167.1,242.4L167.1,242.4c-4.6,0-8.3-3.7-8.3-8.3v0c0-4.6,3.7-8.3,8.3-8.3h0c4.6,0,8.3,3.7,8.3,8.3v0
	C175.4,238.6,171.7,242.4,167.1,242.4z"/>
<path class="st1" d="M189.7,242.4L189.7,242.4c-4.6,0-8.3-3.7-8.3-8.3v0c0-4.6,3.7-8.3,8.3-8.3h0c4.6,0,8.3,3.7,8.3,8.3v0
	C198,238.6,194.3,242.4,189.7,242.4z"/>
<path class="st1" d="M212.3,242.4L212.3,242.4c-4.6,0-8.3-3.7-8.3-8.3v0c0-4.6,3.7-8.3,8.3-8.3h0c4.6,0,8.3,3.7,8.3,8.3v0
	C220.6,238.6,216.8,242.4,212.3,242.4z"/>
<path class="st1" d="M167.2,445.7L167.2,445.7c-4.6,0-8.3-3.7-8.3-8.3l0,0c0-4.6,3.7-8.3,8.3-8.3h0c4.6,0,8.3,3.7,8.3,8.3l0,0
	C175.5,442,171.7,445.7,167.2,445.7z"/>
<path class="st1" d="M189.7,445.7L189.7,445.7c-4.6,0-8.3-3.7-8.3-8.3l0,0c0-4.6,3.7-8.3,8.3-8.3h0c4.6,0,8.3,3.7,8.3,8.3l0,0
	C198,442,194.3,445.7,189.7,445.7z"/>
<path class="st1" d="M212.3,445.7L212.3,445.7c-4.6,0-8.3-3.7-8.3-8.3l0,0c0-4.6,3.7-8.3,8.3-8.3h0c4.6,0,8.3,3.7,8.3,8.3l0,0
	C220.6,442,216.9,445.7,212.3,445.7z"/>
<path class="st1" d="M234.9,445.7L234.9,445.7c-4.6,0-8.3-3.7-8.3-8.3l0,0c0-4.6,3.7-8.3,8.3-8.3h0c4.6,0,8.3,3.7,8.3,8.3l0,0
	C243.2,442,239.4,445.7,234.9,445.7z"/>
<path class="st1" d="M257.5,445.7L257.5,445.7c-4.6,0-8.3-3.7-8.3-8.3l0,0c0-4.6,3.7-8.3,8.3-8.3l0,0c4.6,0,8.3,3.7,8.3,8.3l0,0
	C265.7,442,262,445.7,257.5,445.7z"/>
<path class="st1" d="M280,445.7L280,445.7c-4.6,0-8.3-3.7-8.3-8.3l0,0c0-4.6,3.7-8.3,8.3-8.3h0c4.6,0,8.3,3.7,8.3,8.3l0,0
	C288.3,442,284.6,445.7,280,445.7z"/>
<path class="st1" d="M189.7,490.8L189.7,490.8c-4.6,0-8.3-3.7-8.3-8.3l0,0c0-4.6,3.7-8.3,8.3-8.3h0c4.6,0,8.3,3.7,8.3,8.3l0,0
	C198,487.1,194.3,490.8,189.7,490.8z"/>
<path class="st1" d="M212.3,490.8L212.3,490.8c-4.6,0-8.3-3.7-8.3-8.3l0,0c0-4.6,3.7-8.3,8.3-8.3h0c4.6,0,8.3,3.7,8.3,8.3l0,0
	C220.6,487.1,216.8,490.8,212.3,490.8z"/>
<path class="st1" d="M234.9,490.8L234.9,490.8c-4.6,0-8.3-3.7-8.3-8.3l0,0c0-4.6,3.7-8.3,8.3-8.3h0c4.6,0,8.3,3.7,8.3,8.3l0,0
	C243.1,487.1,239.4,490.8,234.9,490.8z"/>
<path class="st1" d="M257.4,490.8L257.4,490.8c-4.6,0-8.3-3.7-8.3-8.3l0,0c0-4.6,3.7-8.3,8.3-8.3l0,0c4.6,0,8.3,3.7,8.3,8.3l0,0
	C265.7,487.1,262,490.8,257.4,490.8z"/>
<path class="st1" d="M280,490.8L280,490.8c-4.6,0-8.3-3.7-8.3-8.3l0,0c0-4.6,3.7-8.3,8.3-8.3l0,0c4.6,0,8.3,3.7,8.3,8.3l0,0
	C288.3,487.1,284.6,490.8,280,490.8z"/>
<path class="st1" d="M167.2,468.3L167.2,468.3c-4.6,0-8.3-3.7-8.3-8.3l0,0c0-4.6,3.7-8.3,8.3-8.3h0c4.6,0,8.3,3.7,8.3,8.3l0,0
	C175.4,464.5,171.7,468.3,167.2,468.3z"/>
<path class="st1" d="M189.7,468.3L189.7,468.3c-4.6,0-8.3-3.7-8.3-8.3l0,0c0-4.6,3.7-8.3,8.3-8.3h0c4.6,0,8.3,3.7,8.3,8.3l0,0
	C198,464.5,194.3,468.3,189.7,468.3z"/>
<path class="st1" d="M212.3,468.3L212.3,468.3c-4.6,0-8.3-3.7-8.3-8.3l0,0c0-4.6,3.7-8.3,8.3-8.3h0c4.6,0,8.3,3.7,8.3,8.3l0,0
	C220.6,464.5,216.8,468.3,212.3,468.3z"/>
<path class="st1" d="M234.9,468.3L234.9,468.3c-4.6,0-8.3-3.7-8.3-8.3l0,0c0-4.6,3.7-8.3,8.3-8.3h0c4.6,0,8.3,3.7,8.3,8.3l0,0
	C243.1,464.5,239.4,468.3,234.9,468.3z"/>
<path class="st1" d="M257.4,468.3L257.4,468.3c-4.6,0-8.3-3.7-8.3-8.3l0,0c0-4.6,3.7-8.3,8.3-8.3l0,0c4.6,0,8.3,3.7,8.3,8.3l0,0
	C265.7,464.5,262,468.3,257.4,468.3z"/>
<path class="st1" d="M280,468.3L280,468.3c-4.6,0-8.3-3.7-8.3-8.3l0,0c0-4.6,3.7-8.3,8.3-8.3l0,0c4.6,0,8.3,3.7,8.3,8.3l0,0
	C288.3,464.5,284.6,468.3,280,468.3z"/>
<path class="st1" d="M257.5,513.4L257.5,513.4c-4.6,0-8.3-3.7-8.3-8.3v0c0-4.6,3.7-8.3,8.3-8.3l0,0c4.6,0,8.3,3.7,8.3,8.3v0
	C265.7,509.7,262,513.4,257.5,513.4z"/>
<path class="st1" d="M280,513.4L280,513.4c-4.6,0-8.3-3.7-8.3-8.3v0c0-4.6,3.7-8.3,8.3-8.3h0c4.6,0,8.3,3.7,8.3,8.3v0
	C288.3,509.7,284.6,513.4,280,513.4z"/>
<path class="st1" d="M189.7,287.5L189.7,287.5c-4.6,0-8.3-3.7-8.3-8.3l0,0c0-4.6,3.7-8.3,8.3-8.3h0c4.6,0,8.3,3.7,8.3,8.3l0,0
	C198,283.8,194.3,287.5,189.7,287.5z"/>
<path class="st1" d="M212.3,287.5L212.3,287.5c-4.6,0-8.3-3.7-8.3-8.3l0,0c0-4.6,3.7-8.3,8.3-8.3h0c4.6,0,8.3,3.7,8.3,8.3l0,0
	C220.6,283.8,216.8,287.5,212.3,287.5z"/>
<path class="st1" d="M77,84.4L77,84.4c-4.6,0-8.3-3.7-8.3-8.3v0c0-4.6,3.7-8.3,8.3-8.3h0c4.6,0,8.3,3.7,8.3,8.3v0
	C85.3,80.6,81.6,84.4,77,84.4z"/>
<path class="st1" d="M77,61.8L77,61.8c-4.6,0-8.3-3.7-8.3-8.3v0c0-4.6,3.7-8.3,8.3-8.3h0c4.6,0,8.3,3.7,8.3,8.3v0
	C85.3,58.1,81.6,61.8,77,61.8z"/>
<path class="st1" d="M77,129.5L77,129.5c-4.6,0-8.3-3.7-8.3-8.3v0c0-4.6,3.7-8.3,8.3-8.3h0c4.6,0,8.3,3.7,8.3,8.3v0
	C85.3,125.8,81.6,129.5,77,129.5z"/>
<path class="st1" d="M99.6,129.5L99.6,129.5c-4.6,0-8.3-3.7-8.3-8.3v0c0-4.6,3.7-8.3,8.3-8.3h0c4.6,0,8.3,3.7,8.3,8.3v0
	C107.9,125.8,104.2,129.5,99.6,129.5z"/>
<path class="st1" d="M122.2,129.5L122.2,129.5c-4.6,0-8.3-3.7-8.3-8.3v0c0-4.6,3.7-8.3,8.3-8.3h0c4.6,0,8.3,3.7,8.3,8.3v0
	C130.5,125.8,126.7,129.5,122.2,129.5z"/>
<path class="st1" d="M144.8,129.5L144.8,129.5c-4.6,0-8.3-3.7-8.3-8.3v0c0-4.6,3.7-8.3,8.3-8.3h0c4.6,0,8.3,3.7,8.3,8.3v0
	C153,125.8,149.3,129.5,144.8,129.5z"/>
<path class="st1" d="M77,106.9L77,106.9c-4.6,0-8.3-3.7-8.3-8.3v0c0-4.6,3.7-8.3,8.3-8.3h0c4.6,0,8.3,3.7,8.3,8.3v0
	C85.3,103.2,81.6,106.9,77,106.9z"/>
<path class="st1" d="M99.6,106.9L99.6,106.9c-4.6,0-8.3-3.7-8.3-8.3v0c0-4.6,3.7-8.3,8.3-8.3h0c4.6,0,8.3,3.7,8.3,8.3v0
	C107.9,103.2,104.2,106.9,99.6,106.9z"/>
<path class="st1" d="M122.2,106.9L122.2,106.9c-4.6,0-8.3-3.7-8.3-8.3v0c0-4.6,3.7-8.3,8.3-8.3h0c4.6,0,8.3,3.7,8.3,8.3v0
	C130.5,103.2,126.7,106.9,122.2,106.9z"/>
<path class="st1" d="M144.8,106.9L144.8,106.9c-4.6,0-8.3-3.7-8.3-8.3v0c0-4.6,3.7-8.3,8.3-8.3h0c4.6,0,8.3,3.7,8.3,8.3v0
	C153,103.2,149.3,106.9,144.8,106.9z"/>
<path class="st1" d="M99.6,152.1L99.6,152.1c-4.6,0-8.3-3.7-8.3-8.3v0c0-4.6,3.7-8.3,8.3-8.3h0c4.6,0,8.3,3.7,8.3,8.3v0
	C107.9,148.3,104.2,152.1,99.6,152.1z"/>
<path class="st1" d="M122.2,152.1L122.2,152.1c-4.6,0-8.3-3.7-8.3-8.3v0c0-4.6,3.7-8.3,8.3-8.3h0c4.6,0,8.3,3.7,8.3,8.3v0
	C130.5,148.3,126.8,152.1,122.2,152.1z"/>
<path class="st1" d="M144.8,152.1L144.8,152.1c-4.6,0-8.3-3.7-8.3-8.3v0c0-4.6,3.7-8.3,8.3-8.3h0c4.6,0,8.3,3.7,8.3,8.3v0
	C153.1,148.3,149.3,152.1,144.8,152.1z"/>
<path class="st1" d="M122.2,197.2L122.2,197.2c-4.6,0-8.3-3.7-8.3-8.3v0c0-4.6,3.7-8.3,8.3-8.3h0c4.6,0,8.3,3.7,8.3,8.3v0
	C130.5,193.5,126.7,197.2,122.2,197.2z"/>
<path class="st1" d="M144.7,197.2L144.7,197.2c-4.6,0-8.3-3.7-8.3-8.3v0c0-4.6,3.7-8.3,8.3-8.3h0c4.6,0,8.3,3.7,8.3,8.3v0
	C153,193.5,149.3,197.2,144.7,197.2z"/>
<path class="st1" d="M122.2,174.6L122.2,174.6c-4.6,0-8.3-3.7-8.3-8.3v0c0-4.6,3.7-8.3,8.3-8.3h0c4.6,0,8.3,3.7,8.3,8.3v0
	C130.5,170.9,126.7,174.6,122.2,174.6z"/>
<path class="st1" d="M144.7,174.6L144.7,174.6c-4.6,0-8.3-3.7-8.3-8.3v0c0-4.6,3.7-8.3,8.3-8.3h0c4.6,0,8.3,3.7,8.3,8.3v0
	C153,170.9,149.3,174.6,144.7,174.6z"/>
<path class="st1" d="M77.1,445.7L77.1,445.7c-4.6,0-8.3-3.7-8.3-8.3l0,0c0-4.6,3.7-8.3,8.3-8.3h0c4.6,0,8.3,3.7,8.3,8.3l0,0
	C85.4,442,81.6,445.7,77.1,445.7z"/>
<path class="st1" d="M99.6,445.7L99.6,445.7c-4.6,0-8.3-3.7-8.3-8.3l0,0c0-4.6,3.7-8.3,8.3-8.3h0c4.6,0,8.3,3.7,8.3,8.3l0,0
	C107.9,442,104.2,445.7,99.6,445.7z"/>
<path class="st1" d="M122.2,445.7L122.2,445.7c-4.6,0-8.3-3.7-8.3-8.3l0,0c0-4.6,3.7-8.3,8.3-8.3h0c4.6,0,8.3,3.7,8.3,8.3l0,0
	C130.5,442,126.8,445.7,122.2,445.7z"/>
<path class="st1" d="M8.3,445.7L8.3,445.7c-4.6,0-8.3-3.7-8.3-8.3l0,0c0-4.6,3.7-8.3,8.3-8.3h0c4.6,0,8.3,3.7,8.3,8.3l0,0
	C16.6,442,12.8,445.7,8.3,445.7z"/>
<path class="st1" d="M30.9,445.7L30.9,445.7c-4.6,0-8.3-3.7-8.3-8.3l0,0c0-4.6,3.7-8.3,8.3-8.3h0c4.6,0,8.3,3.7,8.3,8.3l0,0
	C39.1,442,35.4,445.7,30.9,445.7z"/>
<path class="st1" d="M53.4,445.7L53.4,445.7c-4.6,0-8.3-3.7-8.3-8.3l0,0c0-4.6,3.7-8.3,8.3-8.3h0c4.6,0,8.3,3.7,8.3,8.3l0,0
	C61.7,442,58,445.7,53.4,445.7z"/>
<path class="st1" d="M77.1,468.3L77.1,468.3c-4.6,0-8.3-3.7-8.3-8.3v0c0-4.6,3.7-8.3,8.3-8.3h0c4.6,0,8.3,3.7,8.3,8.3v0
	C85.4,464.6,81.6,468.3,77.1,468.3z"/>
<path class="st1" d="M99.6,468.3L99.6,468.3c-4.6,0-8.3-3.7-8.3-8.3v0c0-4.6,3.7-8.3,8.3-8.3h0c4.6,0,8.3,3.7,8.3,8.3v0
	C107.9,464.6,104.2,468.3,99.6,468.3z"/>
<path class="st1" d="M8.3,468.3L8.3,468.3c-4.6,0-8.3-3.7-8.3-8.3v0c0-4.6,3.7-8.3,8.3-8.3h0c4.6,0,8.3,3.7,8.3,8.3v0
	C16.6,464.6,12.8,468.3,8.3,468.3z"/>
<path class="st1" d="M30.9,468.3L30.9,468.3c-4.6,0-8.3-3.7-8.3-8.3v0c0-4.6,3.7-8.3,8.3-8.3h0c4.6,0,8.3,3.7,8.3,8.3v0
	C39.1,464.6,35.4,468.3,30.9,468.3z"/>
<path class="st1" d="M53.4,468.3L53.4,468.3c-4.6,0-8.3-3.7-8.3-8.3v0c0-4.6,3.7-8.3,8.3-8.3h0c4.6,0,8.3,3.7,8.3,8.3v0
	C61.7,464.6,58,468.3,53.4,468.3z"/>
<path class="st1" d="M77.1,490.9L77.1,490.9c-4.6,0-8.3-3.7-8.3-8.3v0c0-4.6,3.7-8.3,8.3-8.3h0c4.6,0,8.3,3.7,8.3,8.3v0
	C85.4,487.2,81.6,490.9,77.1,490.9z"/>
<path class="st1" d="M99.6,490.9L99.6,490.9c-4.6,0-8.3-3.7-8.3-8.3v0c0-4.6,3.7-8.3,8.3-8.3h0c4.6,0,8.3,3.7,8.3,8.3v0
	C107.9,487.2,104.2,490.9,99.6,490.9z"/>
<path class="st1" d="M8.3,490.9L8.3,490.9c-4.6,0-8.3-3.7-8.3-8.3v0c0-4.6,3.7-8.3,8.3-8.3h0c4.6,0,8.3,3.7,8.3,8.3v0
	C16.6,487.2,12.8,490.9,8.3,490.9z"/>
<path class="st1" d="M30.9,490.9L30.9,490.9c-4.6,0-8.3-3.7-8.3-8.3v0c0-4.6,3.7-8.3,8.3-8.3h0c4.6,0,8.3,3.7,8.3,8.3v0
	C39.1,487.2,35.4,490.9,30.9,490.9z"/>
<path class="st1" d="M53.4,490.9L53.4,490.9c-4.6,0-8.3-3.7-8.3-8.3v0c0-4.6,3.7-8.3,8.3-8.3h0c4.6,0,8.3,3.7,8.3,8.3v0
	C61.7,487.2,58,490.9,53.4,490.9z"/>
<path class="st1" d="M145.8,490.9L145.8,490.9c-4.6,0-8.3-3.7-8.3-8.3v0c0-4.6,3.7-8.3,8.3-8.3h0c4.6,0,8.3,3.7,8.3,8.3v0
	C154.1,487.2,150.4,490.9,145.8,490.9z"/>
<path class="st1" d="M168.4,490.9L168.4,490.9c-4.6,0-8.3-3.7-8.3-8.3v0c0-4.6,3.7-8.3,8.3-8.3h0c4.6,0,8.3,3.7,8.3,8.3v0
	C176.7,487.2,173,490.9,168.4,490.9z"/>
<path class="st1" d="M122.2,490.9L122.2,490.9c-4.6,0-8.3-3.7-8.3-8.3v0c0-4.6,3.7-8.3,8.3-8.3h0c4.6,0,8.3,3.7,8.3,8.3v0
	C130.5,487.2,126.7,490.9,122.2,490.9z"/>
<path class="st1" d="M77.1,513.5L77.1,513.5c-4.6,0-8.3-3.7-8.3-8.3l0,0c0-4.6,3.7-8.3,8.3-8.3h0c4.6,0,8.3,3.7,8.3,8.3l0,0
	C85.4,509.7,81.6,513.5,77.1,513.5z"/>
<path class="st1" d="M99.6,513.5L99.6,513.5c-4.6,0-8.3-3.7-8.3-8.3l0,0c0-4.6,3.7-8.3,8.3-8.3h0c4.6,0,8.3,3.7,8.3,8.3l0,0
	C107.9,509.7,104.2,513.5,99.6,513.5z"/>
<path class="st1" d="M8.3,513.5L8.3,513.5c-4.6,0-8.3-3.7-8.3-8.3l0,0c0-4.6,3.7-8.3,8.3-8.3h0c4.6,0,8.3,3.7,8.3,8.3l0,0
	C16.6,509.7,12.8,513.5,8.3,513.5z"/>
<path class="st1" d="M30.9,513.5L30.9,513.5c-4.6,0-8.3-3.7-8.3-8.3l0,0c0-4.6,3.7-8.3,8.3-8.3h0c4.6,0,8.3,3.7,8.3,8.3l0,0
	C39.1,509.7,35.4,513.5,30.9,513.5z"/>
<path class="st1" d="M53.4,513.5L53.4,513.5c-4.6,0-8.3-3.7-8.3-8.3l0,0c0-4.6,3.7-8.3,8.3-8.3h0c4.6,0,8.3,3.7,8.3,8.3l0,0
	C61.7,509.7,58,513.5,53.4,513.5z"/>
<path class="st1" d="M145.8,513.5L145.8,513.5c-4.6,0-8.3-3.7-8.3-8.3l0,0c0-4.6,3.7-8.3,8.3-8.3h0c4.6,0,8.3,3.7,8.3,8.3l0,0
	C154.1,509.7,150.4,513.5,145.8,513.5z"/>
<path class="st1" d="M168.4,513.5L168.4,513.5c-4.6,0-8.3-3.7-8.3-8.3l0,0c0-4.6,3.7-8.3,8.3-8.3h0c4.6,0,8.3,3.7,8.3,8.3l0,0
	C176.7,509.7,173,513.5,168.4,513.5z"/>
<path class="st1" d="M122.2,513.5L122.2,513.5c-4.6,0-8.3-3.7-8.3-8.3l0,0c0-4.6,3.7-8.3,8.3-8.3h0c4.6,0,8.3,3.7,8.3,8.3l0,0
	C130.5,509.7,126.7,513.5,122.2,513.5z"/>
<path class="st1" d="M212.4,513.5L212.4,513.5c-4.6,0-8.3-3.7-8.3-8.3l0,0c0-4.6,3.7-8.3,8.3-8.3h0c4.6,0,8.3,3.7,8.3,8.3l0,0
	C220.7,509.7,217,513.5,212.4,513.5z"/>
<path class="st1" d="M235,513.5L235,513.5c-4.6,0-8.3-3.7-8.3-8.3l0,0c0-4.6,3.7-8.3,8.3-8.3h0c4.6,0,8.3,3.7,8.3,8.3l0,0
	C243.3,509.7,239.5,513.5,235,513.5z"/>
<path class="st1" d="M189.8,513.5L189.8,513.5c-4.6,0-8.3-3.7-8.3-8.3l0,0c0-4.6,3.7-8.3,8.3-8.3h0c4.6,0,8.3,3.7,8.3,8.3l0,0
	C198.1,509.7,194.3,513.5,189.8,513.5z"/>
<path class="st1" d="M257.5,536L257.5,536c-4.6,0-8.3-3.7-8.3-8.3v0c0-4.6,3.7-8.3,8.3-8.3l0,0c4.6,0,8.3,3.7,8.3,8.3v0
	C265.7,532.3,262,536,257.5,536z"/>
<path class="st1" d="M280,536L280,536c-4.6,0-8.3-3.7-8.3-8.3v0c0-4.6,3.7-8.3,8.3-8.3h0c4.6,0,8.3,3.7,8.3,8.3v0
	C288.3,532.3,284.6,536,280,536z"/>
<path class="st1" d="M77.1,536.1L77.1,536.1c-4.6,0-8.3-3.7-8.3-8.3l0,0c0-4.6,3.7-8.3,8.3-8.3h0c4.6,0,8.3,3.7,8.3,8.3l0,0
	C85.4,532.4,81.6,536.1,77.1,536.1z"/>
<path class="st1" d="M99.6,536.1L99.6,536.1c-4.6,0-8.3-3.7-8.3-8.3l0,0c0-4.6,3.7-8.3,8.3-8.3h0c4.6,0,8.3,3.7,8.3,8.3l0,0
	C107.9,532.4,104.2,536.1,99.6,536.1z"/>
<path class="st1" d="M8.3,536.1L8.3,536.1c-4.6,0-8.3-3.7-8.3-8.3l0,0c0-4.6,3.7-8.3,8.3-8.3h0c4.6,0,8.3,3.7,8.3,8.3l0,0
	C16.6,532.4,12.8,536.1,8.3,536.1z"/>
<path class="st1" d="M30.9,536.1L30.9,536.1c-4.6,0-8.3-3.7-8.3-8.3l0,0c0-4.6,3.7-8.3,8.3-8.3h0c4.6,0,8.3,3.7,8.3,8.3l0,0
	C39.1,532.4,35.4,536.1,30.9,536.1z"/>
<path class="st1" d="M53.4,536.1L53.4,536.1c-4.6,0-8.3-3.7-8.3-8.3l0,0c0-4.6,3.7-8.3,8.3-8.3h0c4.6,0,8.3,3.7,8.3,8.3l0,0
	C61.7,532.4,58,536.1,53.4,536.1z"/>
<path class="st1" d="M145.8,536.1L145.8,536.1c-4.6,0-8.3-3.7-8.3-8.3l0,0c0-4.6,3.7-8.3,8.3-8.3h0c4.6,0,8.3,3.7,8.3,8.3l0,0
	C154.1,532.4,150.4,536.1,145.8,536.1z"/>
<path class="st1" d="M168.4,536.1L168.4,536.1c-4.6,0-8.3-3.7-8.3-8.3l0,0c0-4.6,3.7-8.3,8.3-8.3h0c4.6,0,8.3,3.7,8.3,8.3l0,0
	C176.7,532.4,173,536.1,168.4,536.1z"/>
<path class="st1" d="M122.2,536.1L122.2,536.1c-4.6,0-8.3-3.7-8.3-8.3l0,0c0-4.6,3.7-8.3,8.3-8.3h0c4.6,0,8.3,3.7,8.3,8.3l0,0
	C130.5,532.4,126.7,536.1,122.2,536.1z"/>
<path class="st1" d="M212.4,536.1L212.4,536.1c-4.6,0-8.3-3.7-8.3-8.3l0,0c0-4.6,3.7-8.3,8.3-8.3h0c4.6,0,8.3,3.7,8.3,8.3l0,0
	C220.7,532.4,217,536.1,212.4,536.1z"/>
<path class="st1" d="M235,536.1L235,536.1c-4.6,0-8.3-3.7-8.3-8.3l0,0c0-4.6,3.7-8.3,8.3-8.3h0c4.6,0,8.3,3.7,8.3,8.3l0,0
	C243.3,532.4,239.5,536.1,235,536.1z"/>
<path class="st1" d="M189.8,536.1L189.8,536.1c-4.6,0-8.3-3.7-8.3-8.3l0,0c0-4.6,3.7-8.3,8.3-8.3h0c4.6,0,8.3,3.7,8.3,8.3l0,0
	C198.1,532.4,194.3,536.1,189.8,536.1z"/>
<path class="st1" d="M257.5,558.6L257.5,558.6c-4.6,0-8.3-3.7-8.3-8.3v0c0-4.6,3.7-8.3,8.3-8.3l0,0c4.6,0,8.3,3.7,8.3,8.3v0
	C265.7,554.9,262,558.6,257.5,558.6z"/>
<path class="st1" d="M280,558.6L280,558.6c-4.6,0-8.3-3.7-8.3-8.3v0c0-4.6,3.7-8.3,8.3-8.3h0c4.6,0,8.3,3.7,8.3,8.3v0
	C288.3,554.9,284.6,558.6,280,558.6z"/>
<path class="st1" d="M77.1,558.7L77.1,558.7c-4.6,0-8.3-3.7-8.3-8.3l0,0c0-4.6,3.7-8.3,8.3-8.3h0c4.6,0,8.3,3.7,8.3,8.3l0,0
	C85.4,554.9,81.6,558.7,77.1,558.7z"/>
<path class="st1" d="M99.6,558.7L99.6,558.7c-4.6,0-8.3-3.7-8.3-8.3l0,0c0-4.6,3.7-8.3,8.3-8.3h0c4.6,0,8.3,3.7,8.3,8.3l0,0
	C107.9,554.9,104.2,558.7,99.6,558.7z"/>
<path class="st1" d="M8.3,558.7L8.3,558.7c-4.6,0-8.3-3.7-8.3-8.3l0,0c0-4.6,3.7-8.3,8.3-8.3h0c4.6,0,8.3,3.7,8.3,8.3l0,0
	C16.6,554.9,12.8,558.7,8.3,558.7z"/>
<path class="st1" d="M30.9,558.7L30.9,558.7c-4.6,0-8.3-3.7-8.3-8.3l0,0c0-4.6,3.7-8.3,8.3-8.3h0c4.6,0,8.3,3.7,8.3,8.3l0,0
	C39.1,554.9,35.4,558.7,30.9,558.7z"/>
<path class="st1" d="M53.4,558.7L53.4,558.7c-4.6,0-8.3-3.7-8.3-8.3l0,0c0-4.6,3.7-8.3,8.3-8.3h0c4.6,0,8.3,3.7,8.3,8.3l0,0
	C61.7,554.9,58,558.7,53.4,558.7z"/>
<path class="st1" d="M145.8,558.7L145.8,558.7c-4.6,0-8.3-3.7-8.3-8.3l0,0c0-4.6,3.7-8.3,8.3-8.3h0c4.6,0,8.3,3.7,8.3,8.3l0,0
	C154.1,554.9,150.4,558.7,145.8,558.7z"/>
<path class="st1" d="M168.4,558.7L168.4,558.7c-4.6,0-8.3-3.7-8.3-8.3l0,0c0-4.6,3.7-8.3,8.3-8.3h0c4.6,0,8.3,3.7,8.3,8.3l0,0
	C176.7,554.9,173,558.7,168.4,558.7z"/>
<path class="st1" d="M122.2,558.7L122.2,558.7c-4.6,0-8.3-3.7-8.3-8.3l0,0c0-4.6,3.7-8.3,8.3-8.3h0c4.6,0,8.3,3.7,8.3,8.3l0,0
	C130.5,554.9,126.7,558.7,122.2,558.7z"/>
<path class="st1" d="M212.4,558.7L212.4,558.7c-4.6,0-8.3-3.7-8.3-8.3l0,0c0-4.6,3.7-8.3,8.3-8.3h0c4.6,0,8.3,3.7,8.3,8.3l0,0
	C220.7,554.9,217,558.7,212.4,558.7z"/>
<path class="st1" d="M235,558.7L235,558.7c-4.6,0-8.3-3.7-8.3-8.3l0,0c0-4.6,3.7-8.3,8.3-8.3h0c4.6,0,8.3,3.7,8.3,8.3l0,0
	C243.3,554.9,239.5,558.7,235,558.7z"/>
<path class="st1" d="M189.8,558.7L189.8,558.7c-4.6,0-8.3-3.7-8.3-8.3l0,0c0-4.6,3.7-8.3,8.3-8.3h0c4.6,0,8.3,3.7,8.3,8.3l0,0
	C198.1,554.9,194.3,558.7,189.8,558.7z"/>
<path class="st1" d="M257.5,581.2L257.5,581.2c-4.6,0-8.3-3.7-8.3-8.3v0c0-4.6,3.7-8.3,8.3-8.3l0,0c4.6,0,8.3,3.7,8.3,8.3v0
	C265.7,577.4,262,581.2,257.5,581.2z"/>
<path class="st1" d="M280,581.2L280,581.2c-4.6,0-8.3-3.7-8.3-8.3v0c0-4.6,3.7-8.3,8.3-8.3h0c4.6,0,8.3,3.7,8.3,8.3v0
	C288.3,577.4,284.6,581.2,280,581.2z"/>
<path class="st1" d="M77.1,581.2L77.1,581.2c-4.6,0-8.3-3.7-8.3-8.3l0,0c0-4.6,3.7-8.3,8.3-8.3h0c4.6,0,8.3,3.7,8.3,8.3l0,0
	C85.4,577.5,81.6,581.2,77.1,581.2z"/>
<path class="st1" d="M99.6,581.2L99.6,581.2c-4.6,0-8.3-3.7-8.3-8.3l0,0c0-4.6,3.7-8.3,8.3-8.3h0c4.6,0,8.3,3.7,8.3,8.3l0,0
	C107.9,577.5,104.2,581.2,99.6,581.2z"/>
<path class="st1" d="M8.3,581.2L8.3,581.2c-4.6,0-8.3-3.7-8.3-8.3l0,0c0-4.6,3.7-8.3,8.3-8.3h0c4.6,0,8.3,3.7,8.3,8.3l0,0
	C16.6,577.5,12.8,581.2,8.3,581.2z"/>
<path class="st1" d="M30.9,581.2L30.9,581.2c-4.6,0-8.3-3.7-8.3-8.3l0,0c0-4.6,3.7-8.3,8.3-8.3h0c4.6,0,8.3,3.7,8.3,8.3l0,0
	C39.1,577.5,35.4,581.2,30.9,581.2z"/>
<path class="st1" d="M53.4,581.2L53.4,581.2c-4.6,0-8.3-3.7-8.3-8.3l0,0c0-4.6,3.7-8.3,8.3-8.3h0c4.6,0,8.3,3.7,8.3,8.3l0,0
	C61.7,577.5,58,581.2,53.4,581.2z"/>
<path class="st1" d="M145.8,581.2L145.8,581.2c-4.6,0-8.3-3.7-8.3-8.3l0,0c0-4.6,3.7-8.3,8.3-8.3h0c4.6,0,8.3,3.7,8.3,8.3l0,0
	C154.1,577.5,150.4,581.2,145.8,581.2z"/>
<path class="st1" d="M168.4,581.2L168.4,581.2c-4.6,0-8.3-3.7-8.3-8.3l0,0c0-4.6,3.7-8.3,8.3-8.3h0c4.6,0,8.3,3.7,8.3,8.3l0,0
	C176.7,577.5,173,581.2,168.4,581.2z"/>
<path class="st1" d="M122.2,581.2L122.2,581.2c-4.6,0-8.3-3.7-8.3-8.3l0,0c0-4.6,3.7-8.3,8.3-8.3h0c4.6,0,8.3,3.7,8.3,8.3l0,0
	C130.5,577.5,126.7,581.2,122.2,581.2z"/>
<path class="st1" d="M212.4,581.2L212.4,581.2c-4.6,0-8.3-3.7-8.3-8.3l0,0c0-4.6,3.7-8.3,8.3-8.3h0c4.6,0,8.3,3.7,8.3,8.3l0,0
	C220.7,577.5,217,581.2,212.4,581.2z"/>
<path class="st1" d="M235,581.2L235,581.2c-4.6,0-8.3-3.7-8.3-8.3l0,0c0-4.6,3.7-8.3,8.3-8.3h0c4.6,0,8.3,3.7,8.3,8.3l0,0
	C243.3,577.5,239.5,581.2,235,581.2z"/>
<path class="st1" d="M189.8,581.2L189.8,581.2c-4.6,0-8.3-3.7-8.3-8.3l0,0c0-4.6,3.7-8.3,8.3-8.3h0c4.6,0,8.3,3.7,8.3,8.3l0,0
	C198.1,577.5,194.3,581.2,189.8,581.2z"/>
<path class="st1" d="M144.8,445.7L144.8,445.7c-4.6,0-8.3-3.7-8.3-8.3l0,0c0-4.6,3.7-8.3,8.3-8.3h0c4.6,0,8.3,3.7,8.3,8.3l0,0
	C153.1,442,149.3,445.7,144.8,445.7z"/>
<path class="st1" d="M122.2,468.3L122.2,468.3c-4.6,0-8.3-3.7-8.3-8.3l0,0c0-4.6,3.7-8.3,8.3-8.3h0c4.6,0,8.3,3.7,8.3,8.3l0,0
	C130.5,464.5,126.7,468.3,122.2,468.3z"/>
<path class="st1" d="M144.8,468.3L144.8,468.3c-4.6,0-8.3-3.7-8.3-8.3l0,0c0-4.6,3.7-8.3,8.3-8.3h0c4.6,0,8.3,3.7,8.3,8.3l0,0
	C153,464.5,149.3,468.3,144.8,468.3z"/>
<path class="st1" d="M77,39.2L77,39.2c-4.6,0-8.3-3.7-8.3-8.3v0c0-4.6,3.7-8.3,8.3-8.3h0c4.6,0,8.3,3.7,8.3,8.3v0
	C85.3,35.5,81.6,39.2,77,39.2z"/>
<path class="st1" d="M54.4,84.4L54.4,84.4c-4.6,0-8.3-3.7-8.3-8.3v0c0-4.6,3.7-8.3,8.3-8.3h0c4.6,0,8.3,3.7,8.3,8.3v0
	C62.7,80.6,59,84.4,54.4,84.4z"/>
<path class="st1" d="M54.4,61.8L54.4,61.8c-4.6,0-8.3-3.7-8.3-8.3v0c0-4.6,3.7-8.3,8.3-8.3h0c4.6,0,8.3,3.7,8.3,8.3v0
	C62.7,58.1,59,61.8,54.4,61.8z"/>
<path class="st1" d="M31.9,39.2L31.9,39.2c-4.6,0-8.3-3.7-8.3-8.3v0c0-4.6,3.7-8.3,8.3-8.3h0c4.6,0,8.3,3.7,8.3,8.3v0
	C40.1,35.5,36.4,39.2,31.9,39.2z"/>
<path class="st1" d="M9.3,39.2L9.3,39.2c-4.6,0-8.3-3.7-8.3-8.3v0c0-4.6,3.7-8.3,8.3-8.3h0c4.6,0,8.3,3.7,8.3,8.3v0
	C17.6,35.5,13.8,39.2,9.3,39.2z"/>
<path class="st1" d="M31.9,61.8L31.9,61.8c-4.6,0-8.3-3.7-8.3-8.3v0c0-4.6,3.7-8.3,8.3-8.3h0c4.6,0,8.3,3.7,8.3,8.3v0
	C40.1,58.1,36.4,61.8,31.9,61.8z"/>
<path class="st1" d="M9.3,61.8L9.3,61.8c-4.6,0-8.3-3.7-8.3-8.3v0c0-4.6,3.7-8.3,8.3-8.3h0c4.6,0,8.3,3.7,8.3,8.3v0
	C17.6,58.1,13.8,61.8,9.3,61.8z"/>
<path class="st1" d="M31.9,84.4L31.9,84.4c-4.6,0-8.3-3.7-8.3-8.3v0c0-4.6,3.7-8.3,8.3-8.3h0c4.6,0,8.3,3.7,8.3,8.3v0
	C40.1,80.6,36.4,84.4,31.9,84.4z"/>
<path class="st1" d="M9.3,84.4L9.3,84.4c-4.6,0-8.3-3.7-8.3-8.3v0c0-4.6,3.7-8.3,8.3-8.3h0c4.6,0,8.3,3.7,8.3,8.3v0
	C17.6,80.6,13.8,84.4,9.3,84.4z"/>
<path class="st1" d="M31.9,107L31.9,107c-4.6,0-8.3-3.7-8.3-8.3v0c0-4.6,3.7-8.3,8.3-8.3h0c4.6,0,8.3,3.7,8.3,8.3v0
	C40.1,103.3,36.4,107,31.9,107z"/>
<path class="st1" d="M54.4,107L54.4,107c-4.6,0-8.3-3.7-8.3-8.3v0c0-4.6,3.7-8.3,8.3-8.3h0c4.6,0,8.3,3.7,8.3,8.3v0
	C62.7,103.3,59,107,54.4,107z"/>
<path class="st1" d="M9.3,107L9.3,107c-4.6,0-8.3-3.7-8.3-8.3v0c0-4.6,3.7-8.3,8.3-8.3h0c4.6,0,8.3,3.7,8.3,8.3v0
	C17.6,103.3,13.8,107,9.3,107z"/>
<path class="st1" d="M31.9,129.5L31.9,129.5c-4.6,0-8.3-3.7-8.3-8.3v0c0-4.6,3.7-8.3,8.3-8.3h0c4.6,0,8.3,3.7,8.3,8.3v0
	C40.1,125.8,36.4,129.5,31.9,129.5z"/>
<path class="st1" d="M9.3,129.5L9.3,129.5c-4.6,0-8.3-3.7-8.3-8.3v0c0-4.6,3.7-8.3,8.3-8.3h0c4.6,0,8.3,3.7,8.3,8.3v0
	C17.6,125.8,13.8,129.5,9.3,129.5z"/>
<path class="st1" d="M31.9,152.1L31.9,152.1c-4.6,0-8.3-3.7-8.3-8.3v0c0-4.6,3.7-8.3,8.3-8.3h0c4.6,0,8.3,3.7,8.3,8.3v0
	C40.1,148.4,36.4,152.1,31.9,152.1z"/>
<path class="st1" d="M54.4,129.5L54.4,129.5c-4.6,0-8.3-3.7-8.3-8.3v0c0-4.6,3.7-8.3,8.3-8.3h0c4.6,0,8.3,3.7,8.3,8.3v0
	C62.7,125.8,59,129.5,54.4,129.5z"/>
<path class="st1" d="M54.4,152.1L54.4,152.1c-4.6,0-8.3-3.7-8.3-8.3v0c0-4.6,3.7-8.3,8.3-8.3h0c4.6,0,8.3,3.7,8.3,8.3v0
	C62.7,148.4,59,152.1,54.4,152.1z"/>
<path class="st1" d="M9.3,152.1L9.3,152.1c-4.6,0-8.3-3.7-8.3-8.3v0c0-4.6,3.7-8.3,8.3-8.3h0c4.6,0,8.3,3.7,8.3,8.3v0
	C17.6,148.4,13.8,152.1,9.3,152.1z"/>
<path class="st1" d="M31.9,174.7L31.9,174.7c-4.6,0-8.3-3.7-8.3-8.3v0c0-4.6,3.7-8.3,8.3-8.3h0c4.6,0,8.3,3.7,8.3,8.3v0
	C40.1,171,36.4,174.7,31.9,174.7z"/>
<path class="st1" d="M54.4,174.7L54.4,174.7c-4.6,0-8.3-3.7-8.3-8.3v0c0-4.6,3.7-8.3,8.3-8.3h0c4.6,0,8.3,3.7,8.3,8.3v0
	C62.7,171,59,174.7,54.4,174.7z"/>
<path class="st1" d="M77,152.1L77,152.1c-4.6,0-8.3-3.7-8.3-8.3v0c0-4.6,3.7-8.3,8.3-8.3h0c4.6,0,8.3,3.7,8.3,8.3v0
	C85.3,148.4,81.6,152.1,77,152.1z"/>
<path class="st1" d="M77,174.7L77,174.7c-4.6,0-8.3-3.7-8.3-8.3v0c0-4.6,3.7-8.3,8.3-8.3h0c4.6,0,8.3,3.7,8.3,8.3v0
	C85.3,171,81.6,174.7,77,174.7z"/>
<path class="st1" d="M99.6,174.7L99.6,174.7c-4.6,0-8.3-3.7-8.3-8.3v0c0-4.6,3.7-8.3,8.3-8.3h0c4.6,0,8.3,3.7,8.3,8.3v0
	C107.9,171,104.2,174.7,99.6,174.7z"/>
<path class="st1" d="M9.3,174.7L9.3,174.7c-4.6,0-8.3-3.7-8.3-8.3v0c0-4.6,3.7-8.3,8.3-8.3h0c4.6,0,8.3,3.7,8.3,8.3v0
	C17.6,171,13.8,174.7,9.3,174.7z"/>
<path class="st1" d="M31.9,197.2L31.9,197.2c-4.6,0-8.3-3.7-8.3-8.3v0c0-4.6,3.7-8.3,8.3-8.3h0c4.6,0,8.3,3.7,8.3,8.3v0
	C40.1,193.5,36.4,197.2,31.9,197.2z"/>
<path class="st1" d="M54.4,197.2L54.4,197.2c-4.6,0-8.3-3.7-8.3-8.3v0c0-4.6,3.7-8.3,8.3-8.3h0c4.6,0,8.3,3.7,8.3,8.3v0
	C62.7,193.5,59,197.2,54.4,197.2z"/>
<path class="st1" d="M77,197.2L77,197.2c-4.6,0-8.3-3.7-8.3-8.3v0c0-4.6,3.7-8.3,8.3-8.3h0c4.6,0,8.3,3.7,8.3,8.3v0
	C85.3,193.5,81.6,197.2,77,197.2z"/>
<path class="st1" d="M99.6,197.2L99.6,197.2c-4.6,0-8.3-3.7-8.3-8.3v0c0-4.6,3.7-8.3,8.3-8.3h0c4.6,0,8.3,3.7,8.3,8.3v0
	C107.9,193.5,104.2,197.2,99.6,197.2z"/>
<path class="st1" d="M9.3,197.2L9.3,197.2c-4.6,0-8.3-3.7-8.3-8.3v0c0-4.6,3.7-8.3,8.3-8.3h0c4.6,0,8.3,3.7,8.3,8.3v0
	C17.6,193.5,13.8,197.2,9.3,197.2z"/>
<path class="st1" d="M99.6,219.8L99.6,219.8c-4.6,0-8.3-3.7-8.3-8.3v0c0-4.6,3.7-8.3,8.3-8.3h0c4.6,0,8.3,3.7,8.3,8.3v0
	C107.9,216.1,104.2,219.8,99.6,219.8z"/>
<path class="st1" d="M31.9,219.8L31.9,219.8c-4.6,0-8.3-3.7-8.3-8.3v0c0-4.6,3.7-8.3,8.3-8.3h0c4.6,0,8.3,3.7,8.3,8.3v0
	C40.1,216.1,36.4,219.8,31.9,219.8z"/>
<path class="st1" d="M54.4,219.8L54.4,219.8c-4.6,0-8.3-3.7-8.3-8.3v0c0-4.6,3.7-8.3,8.3-8.3h0c4.6,0,8.3,3.7,8.3,8.3v0
	C62.7,216.1,59,219.8,54.4,219.8z"/>
<path class="st1" d="M9.3,219.8L9.3,219.8c-4.6,0-8.3-3.7-8.3-8.3v0c0-4.6,3.7-8.3,8.3-8.3h0c4.6,0,8.3,3.7,8.3,8.3v0
	C17.6,216.1,13.8,219.8,9.3,219.8z"/>
<path class="st1" d="M31.9,242.4L31.9,242.4c-4.6,0-8.3-3.7-8.3-8.3v0c0-4.6,3.7-8.3,8.3-8.3h0c4.6,0,8.3,3.7,8.3,8.3v0
	C40.1,238.7,36.4,242.4,31.9,242.4z"/>
<path class="st1" d="M54.4,242.4L54.4,242.4c-4.6,0-8.3-3.7-8.3-8.3v0c0-4.6,3.7-8.3,8.3-8.3h0c4.6,0,8.3,3.7,8.3,8.3v0
	C62.7,238.7,59,242.4,54.4,242.4z"/>
<path class="st1" d="M77,219.8L77,219.8c-4.6,0-8.3-3.7-8.3-8.3v0c0-4.6,3.7-8.3,8.3-8.3h0c4.6,0,8.3,3.7,8.3,8.3v0
	C85.3,216.1,81.6,219.8,77,219.8z"/>
<path class="st1" d="M77,242.4L77,242.4c-4.6,0-8.3-3.7-8.3-8.3v0c0-4.6,3.7-8.3,8.3-8.3h0c4.6,0,8.3,3.7,8.3,8.3v0
	C85.3,238.7,81.6,242.4,77,242.4z"/>
<path class="st1" d="M99.6,242.4L99.6,242.4c-4.6,0-8.3-3.7-8.3-8.3v0c0-4.6,3.7-8.3,8.3-8.3h0c4.6,0,8.3,3.7,8.3,8.3v0
	C107.9,238.7,104.2,242.4,99.6,242.4z"/>
<path class="st1" d="M9.3,242.4L9.3,242.4c-4.6,0-8.3-3.7-8.3-8.3v0c0-4.6,3.7-8.3,8.3-8.3h0c4.6,0,8.3,3.7,8.3,8.3v0
	C17.6,238.7,13.8,242.4,9.3,242.4z"/>
<path class="st1" d="M31.9,264.9L31.9,264.9c-4.6,0-8.3-3.7-8.3-8.3l0,0c0-4.6,3.7-8.3,8.3-8.3h0c4.6,0,8.3,3.7,8.3,8.3l0,0
	C40.1,261.2,36.4,264.9,31.9,264.9z"/>
<path class="st1" d="M54.4,264.9L54.4,264.9c-4.6,0-8.3-3.7-8.3-8.3l0,0c0-4.6,3.7-8.3,8.3-8.3h0c4.6,0,8.3,3.7,8.3,8.3l0,0
	C62.7,261.2,59,264.9,54.4,264.9z"/>
<path class="st1" d="M77,264.9L77,264.9c-4.6,0-8.3-3.7-8.3-8.3l0,0c0-4.6,3.7-8.3,8.3-8.3h0c4.6,0,8.3,3.7,8.3,8.3l0,0
	C85.3,261.2,81.6,264.9,77,264.9z"/>
<path class="st1" d="M99.6,264.9L99.6,264.9c-4.6,0-8.3-3.7-8.3-8.3l0,0c0-4.6,3.7-8.3,8.3-8.3h0c4.6,0,8.3,3.7,8.3,8.3l0,0
	C107.9,261.2,104.2,264.9,99.6,264.9z"/>
<path class="st1" d="M9.3,264.9L9.3,264.9c-4.6,0-8.3-3.7-8.3-8.3l0,0c0-4.6,3.7-8.3,8.3-8.3h0c4.6,0,8.3,3.7,8.3,8.3l0,0
	C17.6,261.2,13.8,264.9,9.3,264.9z"/>
<path class="st1" d="M31.9,287.5L31.9,287.5c-4.6,0-8.3-3.7-8.3-8.3l0,0c0-4.6,3.7-8.3,8.3-8.3h0c4.6,0,8.3,3.7,8.3,8.3l0,0
	C40.1,283.8,36.4,287.5,31.9,287.5z"/>
<path class="st1" d="M54.4,287.5L54.4,287.5c-4.6,0-8.3-3.7-8.3-8.3l0,0c0-4.6,3.7-8.3,8.3-8.3h0c4.6,0,8.3,3.7,8.3,8.3l0,0
	C62.7,283.8,59,287.5,54.4,287.5z"/>
<path class="st1" d="M77,287.5L77,287.5c-4.6,0-8.3-3.7-8.3-8.3l0,0c0-4.6,3.7-8.3,8.3-8.3h0c4.6,0,8.3,3.7,8.3,8.3l0,0
	C85.3,283.8,81.6,287.5,77,287.5z"/>
<path class="st1" d="M99.6,287.5L99.6,287.5c-4.6,0-8.3-3.7-8.3-8.3l0,0c0-4.6,3.7-8.3,8.3-8.3h0c4.6,0,8.3,3.7,8.3,8.3l0,0
	C107.9,283.8,104.2,287.5,99.6,287.5z"/>
<path class="st1" d="M9.3,287.5L9.3,287.5c-4.6,0-8.3-3.7-8.3-8.3l0,0c0-4.6,3.7-8.3,8.3-8.3h0c4.6,0,8.3,3.7,8.3,8.3l0,0
	C17.6,283.8,13.8,287.5,9.3,287.5z"/>
<path class="st1" d="M31.9,310L31.9,310c-4.6,0-8.3-3.7-8.3-8.3l0,0c0-4.6,3.7-8.3,8.3-8.3h0c4.6,0,8.3,3.7,8.3,8.3l0,0
	C40.1,306.3,36.4,310,31.9,310z"/>
<path class="st1" d="M54.4,310L54.4,310c-4.6,0-8.3-3.7-8.3-8.3l0,0c0-4.6,3.7-8.3,8.3-8.3h0c4.6,0,8.3,3.7,8.3,8.3l0,0
	C62.7,306.3,59,310,54.4,310z"/>
<path class="st1" d="M77,310L77,310c-4.6,0-8.3-3.7-8.3-8.3l0,0c0-4.6,3.7-8.3,8.3-8.3h0c4.6,0,8.3,3.7,8.3,8.3l0,0
	C85.3,306.3,81.6,310,77,310z"/>
<path class="st1" d="M99.6,310L99.6,310c-4.6,0-8.3-3.7-8.3-8.3l0,0c0-4.6,3.7-8.3,8.3-8.3h0c4.6,0,8.3,3.7,8.3,8.3l0,0
	C107.9,306.3,104.2,310,99.6,310z"/>
<path class="st1" d="M9.3,310L9.3,310c-4.6,0-8.3-3.7-8.3-8.3l0,0c0-4.6,3.7-8.3,8.3-8.3h0c4.6,0,8.3,3.7,8.3,8.3l0,0
	C17.6,306.3,13.8,310,9.3,310z"/>
<path class="st1" d="M99.6,332.6L99.6,332.6c-4.6,0-8.3-3.7-8.3-8.3l0,0c0-4.6,3.7-8.3,8.3-8.3h0c4.6,0,8.3,3.7,8.3,8.3l0,0
	C107.9,328.8,104.2,332.6,99.6,332.6z"/>
<path class="st1" d="M31.9,332.6L31.9,332.6c-4.6,0-8.3-3.7-8.3-8.3v0c0-4.6,3.7-8.3,8.3-8.3h0c4.6,0,8.3,3.7,8.3,8.3v0
	C40.1,328.9,36.4,332.6,31.9,332.6z"/>
<path class="st1" d="M54.4,332.6L54.4,332.6c-4.6,0-8.3-3.7-8.3-8.3v0c0-4.6,3.7-8.3,8.3-8.3h0c4.6,0,8.3,3.7,8.3,8.3v0
	C62.7,328.9,59,332.6,54.4,332.6z"/>
<path class="st1" d="M9.3,332.6L9.3,332.6c-4.6,0-8.3-3.7-8.3-8.3v0c0-4.6,3.7-8.3,8.3-8.3h0c4.6,0,8.3,3.7,8.3,8.3v0
	C17.6,328.9,13.8,332.6,9.3,332.6z"/>
<path class="st1" d="M31.9,355.2L31.9,355.2c-4.6,0-8.3-3.7-8.3-8.3v0c0-4.6,3.7-8.3,8.3-8.3h0c4.6,0,8.3,3.7,8.3,8.3v0
	C40.1,351.5,36.4,355.2,31.9,355.2z"/>
<path class="st1" d="M54.4,355.2L54.4,355.2c-4.6,0-8.3-3.7-8.3-8.3v0c0-4.6,3.7-8.3,8.3-8.3h0c4.6,0,8.3,3.7,8.3,8.3v0
	C62.7,351.5,59,355.2,54.4,355.2z"/>
<path class="st1" d="M77,332.6L77,332.6c-4.6,0-8.3-3.7-8.3-8.3v0c0-4.6,3.7-8.3,8.3-8.3h0c4.6,0,8.3,3.7,8.3,8.3v0
	C85.3,328.9,81.6,332.6,77,332.6z"/>
<path class="st1" d="M77,355.2L77,355.2c-4.6,0-8.3-3.7-8.3-8.3v0c0-4.6,3.7-8.3,8.3-8.3h0c4.6,0,8.3,3.7,8.3,8.3v0
	C85.3,351.5,81.6,355.2,77,355.2z"/>
<path class="st1" d="M99.6,355.2L99.6,355.2c-4.6,0-8.3-3.7-8.3-8.3v0c0-4.6,3.7-8.3,8.3-8.3h0c4.6,0,8.3,3.7,8.3,8.3v0
	C107.9,351.5,104.2,355.2,99.6,355.2z"/>
<path class="st1" d="M9.3,355.2L9.3,355.2c-4.6,0-8.3-3.7-8.3-8.3v0c0-4.6,3.7-8.3,8.3-8.3h0c4.6,0,8.3,3.7,8.3,8.3v0
	C17.6,351.5,13.8,355.2,9.3,355.2z"/>
<path class="st1" d="M31.9,377.7L31.9,377.7c-4.6,0-8.3-3.7-8.3-8.3v0c0-4.6,3.7-8.3,8.3-8.3h0c4.6,0,8.3,3.7,8.3,8.3v0
	C40.1,374,36.4,377.7,31.9,377.7z"/>
<path class="st1" d="M54.4,377.7L54.4,377.7c-4.6,0-8.3-3.7-8.3-8.3v0c0-4.6,3.7-8.3,8.3-8.3h0c4.6,0,8.3,3.7,8.3,8.3v0
	C62.7,374,59,377.7,54.4,377.7z"/>
<path class="st1" d="M77,377.7L77,377.7c-4.6,0-8.3-3.7-8.3-8.3v0c0-4.6,3.7-8.3,8.3-8.3h0c4.6,0,8.3,3.7,8.3,8.3v0
	C85.3,374,81.6,377.7,77,377.7z"/>
<path class="st1" d="M99.6,377.7L99.6,377.7c-4.6,0-8.3-3.7-8.3-8.3v0c0-4.6,3.7-8.3,8.3-8.3h0c4.6,0,8.3,3.7,8.3,8.3v0
	C107.9,374,104.2,377.7,99.6,377.7z"/>
<path class="st1" d="M144.9,219.8L144.9,219.8c-4.6,0-8.3-3.7-8.3-8.3v0c0-4.6,3.7-8.3,8.3-8.3h0c4.6,0,8.3,3.7,8.3,8.3v0
	C153.1,216.1,149.4,219.8,144.9,219.8z"/>
<path class="st1" d="M122.2,219.8L122.2,219.8c-4.6,0-8.3-3.7-8.3-8.3v0c0-4.6,3.7-8.3,8.3-8.3h0c4.6,0,8.3,3.7,8.3,8.3v0
	C130.5,216.1,126.8,219.8,122.2,219.8z"/>
<path class="st1" d="M122.2,242.4L122.2,242.4c-4.6,0-8.3-3.7-8.3-8.3v0c0-4.6,3.7-8.3,8.3-8.3h0c4.6,0,8.3,3.7,8.3,8.3v0
	C130.5,238.7,126.8,242.4,122.2,242.4z"/>
<path class="st1" d="M144.8,242.4L144.8,242.4c-4.6,0-8.3-3.7-8.3-8.3v0c0-4.6,3.7-8.3,8.3-8.3h0c4.6,0,8.3,3.7,8.3,8.3v0
	C153.1,238.7,149.4,242.4,144.8,242.4z"/>
<path class="st1" d="M122.2,264.9L122.2,264.9c-4.6,0-8.3-3.7-8.3-8.3l0,0c0-4.6,3.7-8.3,8.3-8.3h0c4.6,0,8.3,3.7,8.3,8.3l0,0
	C130.5,261.2,126.8,264.9,122.2,264.9z"/>
<path class="st1" d="M144.8,264.9L144.8,264.9c-4.6,0-8.3-3.7-8.3-8.3l0,0c0-4.6,3.7-8.3,8.3-8.3h0c4.6,0,8.3,3.7,8.3,8.3l0,0
	C153.1,261.2,149.4,264.9,144.8,264.9z"/>
<path class="st1" d="M122.2,287.5L122.2,287.5c-4.6,0-8.3-3.7-8.3-8.3l0,0c0-4.6,3.7-8.3,8.3-8.3h0c4.6,0,8.3,3.7,8.3,8.3l0,0
	C130.5,283.8,126.8,287.5,122.2,287.5z"/>
<path class="st1" d="M144.8,287.5L144.8,287.5c-4.6,0-8.3-3.7-8.3-8.3l0,0c0-4.6,3.7-8.3,8.3-8.3h0c4.6,0,8.3,3.7,8.3,8.3l0,0
	C153.1,283.8,149.4,287.5,144.8,287.5z"/>
<path class="st1" d="M122.2,310L122.2,310c-4.6,0-8.3-3.7-8.3-8.3l0,0c0-4.6,3.7-8.3,8.3-8.3h0c4.6,0,8.3,3.7,8.3,8.3l0,0
	C130.5,306.3,126.8,310,122.2,310z"/>
<path class="st1" d="M144.8,310L144.8,310c-4.6,0-8.3-3.7-8.3-8.3l0,0c0-4.6,3.7-8.3,8.3-8.3h0c4.6,0,8.3,3.7,8.3,8.3l0,0
	C153.1,306.3,149.4,310,144.8,310z"/>
<path class="st1" d="M144.9,332.6L144.9,332.6c-4.6,0-8.3-3.7-8.3-8.3l0,0c0-4.6,3.7-8.3,8.3-8.3h0c4.6,0,8.3,3.7,8.3,8.3l0,0
	C153.1,328.8,149.4,332.6,144.9,332.6z"/>
<path class="st1" d="M122.2,332.6L122.2,332.6c-4.6,0-8.3-3.7-8.3-8.3v0c0-4.6,3.7-8.3,8.3-8.3h0c4.6,0,8.3,3.7,8.3,8.3v0
	C130.5,328.9,126.8,332.6,122.2,332.6z"/>
<path class="st1" d="M122.2,355.2L122.2,355.2c-4.6,0-8.3-3.7-8.3-8.3v0c0-4.6,3.7-8.3,8.3-8.3h0c4.6,0,8.3,3.7,8.3,8.3v0
	C130.5,351.5,126.8,355.2,122.2,355.2z"/>
<path class="st1" d="M144.8,355.2L144.8,355.2c-4.6,0-8.3-3.7-8.3-8.3v0c0-4.6,3.7-8.3,8.3-8.3h0c4.6,0,8.3,3.7,8.3,8.3v0
	C153.1,351.5,149.4,355.2,144.8,355.2z"/>
<path class="st1" d="M122.2,377.7L122.2,377.7c-4.6,0-8.3-3.7-8.3-8.3v0c0-4.6,3.7-8.3,8.3-8.3h0c4.6,0,8.3,3.7,8.3,8.3v0
	C130.5,374,126.8,377.7,122.2,377.7z"/>
<path class="st1" d="M144.8,377.7L144.8,377.7c-4.6,0-8.3-3.7-8.3-8.3v0c0-4.6,3.7-8.3,8.3-8.3h0c4.6,0,8.3,3.7,8.3,8.3v0
	C153.1,374,149.4,377.7,144.8,377.7z"/>
<path class="st1" d="M167.4,264.9L167.4,264.9c-4.6,0-8.3-3.7-8.3-8.3l0,0c0-4.6,3.7-8.3,8.3-8.3h0c4.6,0,8.3,3.7,8.3,8.3l0,0
	C175.7,261.2,172,264.9,167.4,264.9z"/>
<path class="st1" d="M167.4,287.5L167.4,287.5c-4.6,0-8.3-3.7-8.3-8.3l0,0c0-4.6,3.7-8.3,8.3-8.3h0c4.6,0,8.3,3.7,8.3,8.3l0,0
	C175.7,283.8,172,287.5,167.4,287.5z"/>
<path class="st1" d="M167.4,310L167.4,310c-4.6,0-8.3-3.7-8.3-8.3l0,0c0-4.6,3.7-8.3,8.3-8.3h0c4.6,0,8.3,3.7,8.3,8.3l0,0
	C175.7,306.3,172,310,167.4,310z"/>
<path class="st1" d="M167.5,332.6L167.5,332.6c-4.6,0-8.3-3.7-8.3-8.3l0,0c0-4.6,3.7-8.3,8.3-8.3h0c4.6,0,8.3,3.7,8.3,8.3l0,0
	C175.7,328.8,172,332.6,167.5,332.6z"/>
<path class="st1" d="M167.4,355.2L167.4,355.2c-4.6,0-8.3-3.7-8.3-8.3v0c0-4.6,3.7-8.3,8.3-8.3h0c4.6,0,8.3,3.7,8.3,8.3v0
	C175.7,351.5,172,355.2,167.4,355.2z"/>
<path class="st1" d="M167.4,377.7L167.4,377.7c-4.6,0-8.3-3.7-8.3-8.3v0c0-4.6,3.7-8.3,8.3-8.3h0c4.6,0,8.3,3.7,8.3,8.3v0
	C175.7,374,172,377.7,167.4,377.7z"/>
<path class="st1" d="M190,310L190,310c-4.6,0-8.3-3.7-8.3-8.3l0,0c0-4.6,3.7-8.3,8.3-8.3h0c4.6,0,8.3,3.7,8.3,8.3l0,0
	C198.3,306.3,194.6,310,190,310z"/>
<path class="st1" d="M190,332.6L190,332.6c-4.6,0-8.3-3.7-8.3-8.3l0,0c0-4.6,3.7-8.3,8.3-8.3h0c4.6,0,8.3,3.7,8.3,8.3l0,0
	C198.3,328.8,194.6,332.6,190,332.6z"/>
<path class="st1" d="M190,355.2L190,355.2c-4.6,0-8.3-3.7-8.3-8.3v0c0-4.6,3.7-8.3,8.3-8.3h0c4.6,0,8.3,3.7,8.3,8.3v0
	C198.3,351.5,194.6,355.2,190,355.2z"/>
<path class="st1" d="M190,377.7L190,377.7c-4.6,0-8.3-3.7-8.3-8.3v0c0-4.6,3.7-8.3,8.3-8.3h0c4.6,0,8.3,3.7,8.3,8.3v0
	C198.3,374,194.6,377.7,190,377.7z"/>
<path class="st1" d="M212.6,332.6L212.6,332.6c-4.6,0-8.3-3.7-8.3-8.3l0,0c0-4.6,3.7-8.3,8.3-8.3h0c4.6,0,8.3,3.7,8.3,8.3l0,0
	C220.9,328.8,217.2,332.6,212.6,332.6z"/>
<path class="st1" d="M212.6,355.2L212.6,355.2c-4.6,0-8.3-3.7-8.3-8.3v0c0-4.6,3.7-8.3,8.3-8.3h0c4.6,0,8.3,3.7,8.3,8.3v0
	C220.9,351.5,217.2,355.2,212.6,355.2z"/>
<path class="st1" d="M212.6,377.7L212.6,377.7c-4.6,0-8.3-3.7-8.3-8.3v0c0-4.6,3.7-8.3,8.3-8.3h0c4.6,0,8.3,3.7,8.3,8.3v0
	C220.9,374,217.2,377.7,212.6,377.7z"/>
<path class="st1" d="M9.3,377.7L9.3,377.7c-4.6,0-8.3-3.7-8.3-8.3v0c0-4.6,3.7-8.3,8.3-8.3h0c4.6,0,8.3,3.7,8.3,8.3v0
	C17.6,374,13.8,377.7,9.3,377.7z"/>
<path class="st1" d="M235.2,423L235.2,423c-4.6,0-8.3-3.7-8.3-8.3l0,0c0-4.6,3.7-8.3,8.3-8.3h0c4.6,0,8.3,3.7,8.3,8.3l0,0
	C243.5,419.2,239.7,423,235.2,423z"/>
<path class="st1" d="M31.9,400.3L31.9,400.3c-4.6,0-8.3-3.7-8.3-8.3v0c0-4.6,3.7-8.3,8.3-8.3h0c4.6,0,8.3,3.7,8.3,8.3v0
	C40.1,396.6,36.4,400.3,31.9,400.3z"/>
<path class="st1" d="M54.4,400.3L54.4,400.3c-4.6,0-8.3-3.7-8.3-8.3v0c0-4.6,3.7-8.3,8.3-8.3h0c4.6,0,8.3,3.7,8.3,8.3v0
	C62.7,396.6,59,400.3,54.4,400.3z"/>
<path class="st1" d="M77,400.3L77,400.3c-4.6,0-8.3-3.7-8.3-8.3v0c0-4.6,3.7-8.3,8.3-8.3h0c4.6,0,8.3,3.7,8.3,8.3v0
	C85.3,396.6,81.6,400.3,77,400.3z"/>
<path class="st1" d="M99.6,400.3L99.6,400.3c-4.6,0-8.3-3.7-8.3-8.3v0c0-4.6,3.7-8.3,8.3-8.3h0c4.6,0,8.3,3.7,8.3,8.3v0
	C107.9,396.6,104.2,400.3,99.6,400.3z"/>
<path class="st1" d="M9.3,400.3L9.3,400.3c-4.6,0-8.3-3.7-8.3-8.3v0c0-4.6,3.7-8.3,8.3-8.3h0c4.6,0,8.3,3.7,8.3,8.3v0
	C17.6,396.6,13.8,400.3,9.3,400.3z"/>
<path class="st1" d="M31.9,422.8L31.9,422.8c-4.6,0-8.3-3.7-8.3-8.3v0c0-4.6,3.7-8.3,8.3-8.3h0c4.6,0,8.3,3.7,8.3,8.3v0
	C40.1,419.1,36.4,422.8,31.9,422.8z"/>
<path class="st1" d="M54.4,422.8L54.4,422.8c-4.6,0-8.3-3.7-8.3-8.3v0c0-4.6,3.7-8.3,8.3-8.3h0c4.6,0,8.3,3.7,8.3,8.3v0
	C62.7,419.1,59,422.8,54.4,422.8z"/>
<path class="st1" d="M77,422.8L77,422.8c-4.6,0-8.3-3.7-8.3-8.3v0c0-4.6,3.7-8.3,8.3-8.3h0c4.6,0,8.3,3.7,8.3,8.3v0
	C85.3,419.1,81.6,422.8,77,422.8z"/>
<path class="st1" d="M99.6,422.8L99.6,422.8c-4.6,0-8.3-3.7-8.3-8.3v0c0-4.6,3.7-8.3,8.3-8.3h0c4.6,0,8.3,3.7,8.3,8.3v0
	C107.9,419.1,104.2,422.8,99.6,422.8z"/>
<path class="st1" d="M122.2,400.3L122.2,400.3c-4.6,0-8.3-3.7-8.3-8.3v0c0-4.6,3.7-8.3,8.3-8.3h0c4.6,0,8.3,3.7,8.3,8.3v0
	C130.5,396.6,126.8,400.3,122.2,400.3z"/>
<path class="st1" d="M144.8,400.3L144.8,400.3c-4.6,0-8.3-3.7-8.3-8.3v0c0-4.6,3.7-8.3,8.3-8.3h0c4.6,0,8.3,3.7,8.3,8.3v0
	C153.1,396.6,149.4,400.3,144.8,400.3z"/>
<path class="st1" d="M122.2,422.8L122.2,422.8c-4.6,0-8.3-3.7-8.3-8.3v0c0-4.6,3.7-8.3,8.3-8.3h0c4.6,0,8.3,3.7,8.3,8.3v0
	C130.5,419.1,126.8,422.8,122.2,422.8z"/>
<path class="st1" d="M144.8,422.8L144.8,422.8c-4.6,0-8.3-3.7-8.3-8.3v0c0-4.6,3.7-8.3,8.3-8.3h0c4.6,0,8.3,3.7,8.3,8.3v0
	C153.1,419.1,149.4,422.8,144.8,422.8z"/>
<path class="st1" d="M167.4,400.3L167.4,400.3c-4.6,0-8.3-3.7-8.3-8.3v0c0-4.6,3.7-8.3,8.3-8.3h0c4.6,0,8.3,3.7,8.3,8.3v0
	C175.7,396.6,172,400.3,167.4,400.3z"/>
<path class="st1" d="M167.4,422.8L167.4,422.8c-4.6,0-8.3-3.7-8.3-8.3v0c0-4.6,3.7-8.3,8.3-8.3h0c4.6,0,8.3,3.7,8.3,8.3v0
	C175.7,419.1,172,422.8,167.4,422.8z"/>
<path class="st1" d="M190,400.3L190,400.3c-4.6,0-8.3-3.7-8.3-8.3v0c0-4.6,3.7-8.3,8.3-8.3h0c4.6,0,8.3,3.7,8.3,8.3v0
	C198.3,396.6,194.6,400.3,190,400.3z"/>
<path class="st1" d="M190,422.8L190,422.8c-4.6,0-8.3-3.7-8.3-8.3v0c0-4.6,3.7-8.3,8.3-8.3h0c4.6,0,8.3,3.7,8.3,8.3v0
	C198.3,419.1,194.6,422.8,190,422.8z"/>
<path class="st1" d="M212.6,400.3L212.6,400.3c-4.6,0-8.3-3.7-8.3-8.3v0c0-4.6,3.7-8.3,8.3-8.3h0c4.6,0,8.3,3.7,8.3,8.3v0
	C220.9,396.6,217.2,400.3,212.6,400.3z"/>
<path class="st1" d="M212.6,422.8L212.6,422.8c-4.6,0-8.3-3.7-8.3-8.3v0c0-4.6,3.7-8.3,8.3-8.3h0c4.6,0,8.3,3.7,8.3,8.3v0
	C220.9,419.1,217.2,422.8,212.6,422.8z"/>
<path class="st1" d="M9.3,422.8L9.3,422.8c-4.6,0-8.3-3.7-8.3-8.3v0c0-4.6,3.7-8.3,8.3-8.3h0c4.6,0,8.3,3.7,8.3,8.3v0
	C17.6,419.1,13.8,422.8,9.3,422.8z"/>
<path class="st1" d="M54.4,39.2L54.4,39.2c-4.6,0-8.3-3.7-8.3-8.3v0c0-4.6,3.7-8.3,8.3-8.3h0c4.6,0,8.3,3.7,8.3,8.3v0
	C62.7,35.5,59,39.2,54.4,39.2z"/>
<path class="st1" d="M257.5,603.9L257.5,603.9c-4.6,0-8.3-3.7-8.3-8.3l0,0c0-4.6,3.7-8.3,8.3-8.3l0,0c4.6,0,8.3,3.7,8.3,8.3l0,0
	C265.7,600.1,262,603.9,257.5,603.9z"/>
<path class="st1" d="M280,603.9L280,603.9c-4.6,0-8.3-3.7-8.3-8.3l0,0c0-4.6,3.7-8.3,8.3-8.3h0c4.6,0,8.3,3.7,8.3,8.3l0,0
	C288.3,600.1,284.6,603.9,280,603.9z"/>
<path class="st1" d="M77.1,603.9L77.1,603.9c-4.6,0-8.3-3.7-8.3-8.3v0c0-4.6,3.7-8.3,8.3-8.3h0c4.6,0,8.3,3.7,8.3,8.3v0
	C85.4,600.2,81.6,603.9,77.1,603.9z"/>
<path class="st1" d="M99.6,603.9L99.6,603.9c-4.6,0-8.3-3.7-8.3-8.3v0c0-4.6,3.7-8.3,8.3-8.3h0c4.6,0,8.3,3.7,8.3,8.3v0
	C107.9,600.2,104.2,603.9,99.6,603.9z"/>
<path class="st1" d="M8.3,603.9L8.3,603.9c-4.6,0-8.3-3.7-8.3-8.3v0c0-4.6,3.7-8.3,8.3-8.3h0c4.6,0,8.3,3.7,8.3,8.3v0
	C16.6,600.2,12.8,603.9,8.3,603.9z"/>
<path class="st1" d="M30.9,603.9L30.9,603.9c-4.6,0-8.3-3.7-8.3-8.3v0c0-4.6,3.7-8.3,8.3-8.3h0c4.6,0,8.3,3.7,8.3,8.3v0
	C39.1,600.2,35.4,603.9,30.9,603.9z"/>
<path class="st1" d="M53.4,603.9L53.4,603.9c-4.6,0-8.3-3.7-8.3-8.3v0c0-4.6,3.7-8.3,8.3-8.3h0c4.6,0,8.3,3.7,8.3,8.3v0
	C61.7,600.2,58,603.9,53.4,603.9z"/>
<path class="st1" d="M145.8,603.9L145.8,603.9c-4.6,0-8.3-3.7-8.3-8.3v0c0-4.6,3.7-8.3,8.3-8.3h0c4.6,0,8.3,3.7,8.3,8.3v0
	C154.1,600.2,150.4,603.9,145.8,603.9z"/>
<path class="st1" d="M168.4,603.9L168.4,603.9c-4.6,0-8.3-3.7-8.3-8.3v0c0-4.6,3.7-8.3,8.3-8.3h0c4.6,0,8.3,3.7,8.3,8.3v0
	C176.7,600.2,173,603.9,168.4,603.9z"/>
<path class="st1" d="M122.2,603.9L122.2,603.9c-4.6,0-8.3-3.7-8.3-8.3v0c0-4.6,3.7-8.3,8.3-8.3h0c4.6,0,8.3,3.7,8.3,8.3v0
	C130.5,600.2,126.7,603.9,122.2,603.9z"/>
<path class="st1" d="M212.4,603.9L212.4,603.9c-4.6,0-8.3-3.7-8.3-8.3v0c0-4.6,3.7-8.3,8.3-8.3h0c4.6,0,8.3,3.7,8.3,8.3v0
	C220.7,600.2,217,603.9,212.4,603.9z"/>
<path class="st1" d="M235,603.9L235,603.9c-4.6,0-8.3-3.7-8.3-8.3v0c0-4.6,3.7-8.3,8.3-8.3h0c4.6,0,8.3,3.7,8.3,8.3v0
	C243.3,600.2,239.5,603.9,235,603.9z"/>
<path class="st1" d="M189.8,603.9L189.8,603.9c-4.6,0-8.3-3.7-8.3-8.3v0c0-4.6,3.7-8.3,8.3-8.3h0c4.6,0,8.3,3.7,8.3,8.3v0
	C198.1,600.2,194.3,603.9,189.8,603.9z"/>
<path class="st1" d="M257.5,626.5L257.5,626.5c-4.6,0-8.3-3.7-8.3-8.3l0,0c0-4.6,3.7-8.3,8.3-8.3l0,0c4.6,0,8.3,3.7,8.3,8.3l0,0
	C265.7,622.8,262,626.5,257.5,626.5z"/>
<path class="st1" d="M280,626.5L280,626.5c-4.6,0-8.3-3.7-8.3-8.3l0,0c0-4.6,3.7-8.3,8.3-8.3h0c4.6,0,8.3,3.7,8.3,8.3l0,0
	C288.3,622.8,284.6,626.5,280,626.5z"/>
<path class="st1" d="M77.1,626.5L77.1,626.5c-4.6,0-8.3-3.7-8.3-8.3v0c0-4.6,3.7-8.3,8.3-8.3h0c4.6,0,8.3,3.7,8.3,8.3v0
	C85.4,622.8,81.6,626.5,77.1,626.5z"/>
<path class="st1" d="M99.6,626.5L99.6,626.5c-4.6,0-8.3-3.7-8.3-8.3v0c0-4.6,3.7-8.3,8.3-8.3h0c4.6,0,8.3,3.7,8.3,8.3v0
	C107.9,622.8,104.2,626.5,99.6,626.5z"/>
<path class="st1" d="M8.3,626.5L8.3,626.5c-4.6,0-8.3-3.7-8.3-8.3v0c0-4.6,3.7-8.3,8.3-8.3h0c4.6,0,8.3,3.7,8.3,8.3v0
	C16.6,622.8,12.8,626.5,8.3,626.5z"/>
<path class="st1" d="M30.9,626.5L30.9,626.5c-4.6,0-8.3-3.7-8.3-8.3v0c0-4.6,3.7-8.3,8.3-8.3h0c4.6,0,8.3,3.7,8.3,8.3v0
	C39.1,622.8,35.4,626.5,30.9,626.5z"/>
<path class="st1" d="M53.4,626.5L53.4,626.5c-4.6,0-8.3-3.7-8.3-8.3v0c0-4.6,3.7-8.3,8.3-8.3h0c4.6,0,8.3,3.7,8.3,8.3v0
	C61.7,622.8,58,626.5,53.4,626.5z"/>
<path class="st1" d="M145.8,626.5L145.8,626.5c-4.6,0-8.3-3.7-8.3-8.3v0c0-4.6,3.7-8.3,8.3-8.3h0c4.6,0,8.3,3.7,8.3,8.3v0
	C154.1,622.8,150.4,626.5,145.8,626.5z"/>
<path class="st1" d="M168.4,626.5L168.4,626.5c-4.6,0-8.3-3.7-8.3-8.3v0c0-4.6,3.7-8.3,8.3-8.3h0c4.6,0,8.3,3.7,8.3,8.3v0
	C176.7,622.8,173,626.5,168.4,626.5z"/>
<path class="st1" d="M122.2,626.5L122.2,626.5c-4.6,0-8.3-3.7-8.3-8.3v0c0-4.6,3.7-8.3,8.3-8.3h0c4.6,0,8.3,3.7,8.3,8.3v0
	C130.5,622.8,126.7,626.5,122.2,626.5z"/>
<path class="st1" d="M212.4,626.5L212.4,626.5c-4.6,0-8.3-3.7-8.3-8.3v0c0-4.6,3.7-8.3,8.3-8.3h0c4.6,0,8.3,3.7,8.3,8.3v0
	C220.7,622.8,217,626.5,212.4,626.5z"/>
<path class="st1" d="M235,626.5L235,626.5c-4.6,0-8.3-3.7-8.3-8.3v0c0-4.6,3.7-8.3,8.3-8.3h0c4.6,0,8.3,3.7,8.3,8.3v0
	C243.3,622.8,239.5,626.5,235,626.5z"/>
<path class="st1" d="M189.8,626.5L189.8,626.5c-4.6,0-8.3-3.7-8.3-8.3v0c0-4.6,3.7-8.3,8.3-8.3h0c4.6,0,8.3,3.7,8.3,8.3v0
	C198.1,622.8,194.3,626.5,189.8,626.5z"/>
<path class="st1" d="M257.5,649.1L257.5,649.1c-4.6,0-8.3-3.7-8.3-8.3l0,0c0-4.6,3.7-8.3,8.3-8.3l0,0c4.6,0,8.3,3.7,8.3,8.3l0,0
	C265.7,645.3,262,649.1,257.5,649.1z"/>
<path class="st1" d="M280,649.1L280,649.1c-4.6,0-8.3-3.7-8.3-8.3l0,0c0-4.6,3.7-8.3,8.3-8.3h0c4.6,0,8.3,3.7,8.3,8.3l0,0
	C288.3,645.3,284.6,649.1,280,649.1z"/>
<path class="st1" d="M77.1,649.1L77.1,649.1c-4.6,0-8.3-3.7-8.3-8.3v0c0-4.6,3.7-8.3,8.3-8.3h0c4.6,0,8.3,3.7,8.3,8.3v0
	C85.4,645.4,81.6,649.1,77.1,649.1z"/>
<path class="st1" d="M99.6,649.1L99.6,649.1c-4.6,0-8.3-3.7-8.3-8.3v0c0-4.6,3.7-8.3,8.3-8.3h0c4.6,0,8.3,3.7,8.3,8.3v0
	C107.9,645.4,104.2,649.1,99.6,649.1z"/>
<path class="st1" d="M8.3,649.1L8.3,649.1c-4.6,0-8.3-3.7-8.3-8.3v0c0-4.6,3.7-8.3,8.3-8.3h0c4.6,0,8.3,3.7,8.3,8.3v0
	C16.6,645.4,12.8,649.1,8.3,649.1z"/>
<path class="st1" d="M30.9,649.1L30.9,649.1c-4.6,0-8.3-3.7-8.3-8.3v0c0-4.6,3.7-8.3,8.3-8.3h0c4.6,0,8.3,3.7,8.3,8.3v0
	C39.1,645.4,35.4,649.1,30.9,649.1z"/>
<path class="st1" d="M53.4,649.1L53.4,649.1c-4.6,0-8.3-3.7-8.3-8.3v0c0-4.6,3.7-8.3,8.3-8.3h0c4.6,0,8.3,3.7,8.3,8.3v0
	C61.7,645.4,58,649.1,53.4,649.1z"/>
<path class="st1" d="M145.8,649.1L145.8,649.1c-4.6,0-8.3-3.7-8.3-8.3v0c0-4.6,3.7-8.3,8.3-8.3h0c4.6,0,8.3,3.7,8.3,8.3v0
	C154.1,645.4,150.4,649.1,145.8,649.1z"/>
<path class="st1" d="M168.4,649.1L168.4,649.1c-4.6,0-8.3-3.7-8.3-8.3v0c0-4.6,3.7-8.3,8.3-8.3h0c4.6,0,8.3,3.7,8.3,8.3v0
	C176.7,645.4,173,649.1,168.4,649.1z"/>
<path class="st1" d="M122.2,649.1L122.2,649.1c-4.6,0-8.3-3.7-8.3-8.3v0c0-4.6,3.7-8.3,8.3-8.3h0c4.6,0,8.3,3.7,8.3,8.3v0
	C130.5,645.4,126.7,649.1,122.2,649.1z"/>
<path class="st1" d="M212.4,649.1L212.4,649.1c-4.6,0-8.3-3.7-8.3-8.3v0c0-4.6,3.7-8.3,8.3-8.3h0c4.6,0,8.3,3.7,8.3,8.3v0
	C220.7,645.4,217,649.1,212.4,649.1z"/>
<path class="st1" d="M235,649.1L235,649.1c-4.6,0-8.3-3.7-8.3-8.3v0c0-4.6,3.7-8.3,8.3-8.3h0c4.6,0,8.3,3.7,8.3,8.3v0
	C243.3,645.4,239.5,649.1,235,649.1z"/>
<path class="st1" d="M189.8,649.1L189.8,649.1c-4.6,0-8.3-3.7-8.3-8.3v0c0-4.6,3.7-8.3,8.3-8.3h0c4.6,0,8.3,3.7,8.3,8.3v0
	C198.1,645.4,194.3,649.1,189.8,649.1z"/>
<path class="st1" d="M257.5,671.7L257.5,671.7c-4.6,0-8.3-3.7-8.3-8.3l0,0c0-4.6,3.7-8.3,8.3-8.3l0,0c4.6,0,8.3,3.7,8.3,8.3l0,0
	C265.7,668,262,671.7,257.5,671.7z"/>
<path class="st1" d="M280,671.7L280,671.7c-4.6,0-8.3-3.7-8.3-8.3l0,0c0-4.6,3.7-8.3,8.3-8.3h0c4.6,0,8.3,3.7,8.3,8.3l0,0
	C288.3,668,284.6,671.7,280,671.7z"/>
<path class="st1" d="M77.1,671.8L77.1,671.8c-4.6,0-8.3-3.7-8.3-8.3l0,0c0-4.6,3.7-8.3,8.3-8.3h0c4.6,0,8.3,3.7,8.3,8.3l0,0
	C85.4,668.1,81.6,671.8,77.1,671.8z"/>
<path class="st1" d="M99.6,671.8L99.6,671.8c-4.6,0-8.3-3.7-8.3-8.3l0,0c0-4.6,3.7-8.3,8.3-8.3h0c4.6,0,8.3,3.7,8.3,8.3l0,0
	C107.9,668.1,104.2,671.8,99.6,671.8z"/>
<path class="st1" d="M8.3,671.8L8.3,671.8c-4.6,0-8.3-3.7-8.3-8.3l0,0c0-4.6,3.7-8.3,8.3-8.3h0c4.6,0,8.3,3.7,8.3,8.3l0,0
	C16.6,668.1,12.8,671.8,8.3,671.8z"/>
<path class="st1" d="M30.9,671.8L30.9,671.8c-4.6,0-8.3-3.7-8.3-8.3l0,0c0-4.6,3.7-8.3,8.3-8.3h0c4.6,0,8.3,3.7,8.3,8.3l0,0
	C39.1,668.1,35.4,671.8,30.9,671.8z"/>
<path class="st1" d="M53.4,671.8L53.4,671.8c-4.6,0-8.3-3.7-8.3-8.3l0,0c0-4.6,3.7-8.3,8.3-8.3h0c4.6,0,8.3,3.7,8.3,8.3l0,0
	C61.7,668.1,58,671.8,53.4,671.8z"/>
<path class="st1" d="M145.8,671.8L145.8,671.8c-4.6,0-8.3-3.7-8.3-8.3l0,0c0-4.6,3.7-8.3,8.3-8.3h0c4.6,0,8.3,3.7,8.3,8.3l0,0
	C154.1,668.1,150.4,671.8,145.8,671.8z"/>
<path class="st1" d="M168.4,671.8L168.4,671.8c-4.6,0-8.3-3.7-8.3-8.3l0,0c0-4.6,3.7-8.3,8.3-8.3h0c4.6,0,8.3,3.7,8.3,8.3l0,0
	C176.7,668.1,173,671.8,168.4,671.8z"/>
<path class="st1" d="M122.2,671.8L122.2,671.8c-4.6,0-8.3-3.7-8.3-8.3l0,0c0-4.6,3.7-8.3,8.3-8.3h0c4.6,0,8.3,3.7,8.3,8.3l0,0
	C130.5,668.1,126.7,671.8,122.2,671.8z"/>
<path class="st1" d="M212.4,671.8L212.4,671.8c-4.6,0-8.3-3.7-8.3-8.3l0,0c0-4.6,3.7-8.3,8.3-8.3h0c4.6,0,8.3,3.7,8.3,8.3l0,0
	C220.7,668.1,217,671.8,212.4,671.8z"/>
<path class="st1" d="M235,671.8L235,671.8c-4.6,0-8.3-3.7-8.3-8.3l0,0c0-4.6,3.7-8.3,8.3-8.3h0c4.6,0,8.3,3.7,8.3,8.3l0,0
	C243.3,668.1,239.5,671.8,235,671.8z"/>
<path class="st1" d="M189.8,671.8L189.8,671.8c-4.6,0-8.3-3.7-8.3-8.3l0,0c0-4.6,3.7-8.3,8.3-8.3h0c4.6,0,8.3,3.7,8.3,8.3l0,0
	C198.1,668.1,194.3,671.8,189.8,671.8z"/>
<g>
	<text transform="matrix(1 0 0 1 7.3138 33.6216)" class="st2 st3 st4">1</text>
	<text transform="matrix(1 0 0 1 7.3138 10.3189)" class="st2 st3 st4">1</text>
	<text transform="matrix(1 0 0 1 29.3753 33.6216)" class="st2 st3 st4">2</text>
	<text transform="matrix(1 0 0 1 51.9495 33.6216)" class="st2 st3 st4">3</text>
	<text transform="matrix(1 0 0 1 74.4642 33.6216)" class="st2 st3 st4">4</text>
	<text transform="matrix(1 0 0 1 7.3138 56.2691)" class="st2 st3 st4">1</text>
	<text transform="matrix(1 0 0 1 29.3753 56.2691)" class="st2 st3 st4">2</text>
	<text transform="matrix(1 0 0 1 51.9495 56.2691)" class="st2 st3 st4">3</text>
	<text transform="matrix(1 0 0 1 74.4642 56.2691)" class="st2 st3 st4">4</text>
	<text transform="matrix(1 0 0 1 7.3138 78.525)" class="st2 st3 st4">1</text>
	<text transform="matrix(1 0 0 1 29.3753 78.525)" class="st2 st3 st4">2</text>
	<text transform="matrix(1 0 0 1 51.9495 78.525)" class="st2 st3 st4">3</text>
	<text transform="matrix(1 0 0 1 74.4642 78.525)" class="st2 st3 st4">4</text>
	<text transform="matrix(1 0 0 1 7.3138 101.4117)" class="st2 st3 st4">1</text>
	<text transform="matrix(1 0 0 1 29.3753 101.4117)" class="st2 st3 st4">2</text>
	<text transform="matrix(1 0 0 1 51.9495 101.4117)" class="st2 st3 st4">3</text>
	<text transform="matrix(1 0 0 1 74.4642 101.4117)" class="st2 st3 st4">4</text>
	<text transform="matrix(1 0 0 1 97.138 101.4117)" class="st2 st3 st4">5</text>
	<text transform="matrix(1 0 0 1 119.4603 101.4117)" class="st2 st3 st4">6</text>
	<text transform="matrix(1 0 0 1 142.4866 101.4117)" class="st2 st3 st4">7</text>
	<text transform="matrix(1 0 0 1 164.677 101.4117)" class="st2 st3 st4">8</text>
	<text transform="matrix(1 0 0 1 187.1712 101.4117)" class="st2 st3 st4">9</text>
	<text transform="matrix(1 0 0 1 207.8206 101.4117)" class="st2 st3 st4">10</text>
	<text transform="matrix(1 0 0 1 231.303 101.4117)" class="st2 st3 st4">11</text>
	<text transform="matrix(1 0 0 1 253.3655 101.4117)" class="st2 st3 st4">12</text>
	<text transform="matrix(1 0 0 1 275.9388 101.4117)" class="st2 st3 st4">13</text>
	<text transform="matrix(1 0 0 1 7.3138 123.1763)" class="st2 st3 st4">1</text>
	<text transform="matrix(1 0 0 1 29.3753 123.1763)" class="st2 st3 st4">2</text>
	<text transform="matrix(1 0 0 1 51.9495 123.1763)" class="st2 st3 st4">3</text>
	<text transform="matrix(1 0 0 1 74.4642 123.1763)" class="st2 st3 st4">4</text>
	<text transform="matrix(1 0 0 1 97.138 123.1763)" class="st2 st3 st4">5</text>
	<text transform="matrix(1 0 0 1 119.4603 123.1763)" class="st2 st3 st4">6</text>
	<text transform="matrix(1 0 0 1 142.4866 123.1763)" class="st2 st3 st4">7</text>
	<text transform="matrix(1 0 0 1 164.677 123.1763)" class="st2 st3 st4">8</text>
	<text transform="matrix(1 0 0 1 187.1712 123.1763)" class="st2 st3 st4">9</text>
	<text transform="matrix(1 0 0 1 207.8206 123.1763)" class="st2 st3 st4">10</text>
	<text transform="matrix(1 0 0 1 231.303 123.1763)" class="st2 st3 st4">11</text>
	<text transform="matrix(1 0 0 1 253.3655 123.1763)" class="st2 st3 st4">12</text>
	<text transform="matrix(1 0 0 1 275.9388 123.1763)" class="st2 st3 st4">13</text>
	<text transform="matrix(1 0 0 1 7.3138 145.5298)" class="st2 st3 st4">1</text>
	<text transform="matrix(1 0 0 1 29.3753 145.5298)" class="st2 st3 st4">2</text>
	<text transform="matrix(1 0 0 1 51.9495 145.5298)" class="st2 st3 st4">3</text>
	<text transform="matrix(1 0 0 1 74.4642 145.5298)" class="st2 st3 st4">4</text>
	<text transform="matrix(1 0 0 1 97.138 145.5298)" class="st2 st3 st4">5</text>
	<text transform="matrix(1 0 0 1 119.4603 145.5298)" class="st2 st3 st4">6</text>
	<text transform="matrix(1 0 0 1 142.4866 145.5298)" class="st2 st3 st4">7</text>
	<text transform="matrix(1 0 0 1 164.677 145.5298)" class="st2 st3 st4">8</text>
	<text transform="matrix(1 0 0 1 187.1712 145.5298)" class="st2 st3 st4">9</text>
	<text transform="matrix(1 0 0 1 207.8206 145.5298)" class="st2 st3 st4">10</text>
	<text transform="matrix(1 0 0 1 231.303 145.5298)" class="st2 st3 st4">11</text>
	<text transform="matrix(1 0 0 1 253.3655 145.5298)" class="st2 st3 st4">12</text>
	<text transform="matrix(1 0 0 1 275.9388 145.5298)" class="st2 st3 st4">13</text>
	<text transform="matrix(1 0 0 1 7.3138 168.1607)" class="st2 st3 st4">1</text>
	<text transform="matrix(1 0 0 1 29.3753 168.1607)" class="st2 st3 st4">2</text>
	<text transform="matrix(1 0 0 1 51.9495 168.1607)" class="st2 st3 st4">3</text>
	<text transform="matrix(1 0 0 1 74.4642 168.1607)" class="st2 st3 st4">4</text>
	<text transform="matrix(1 0 0 1 97.138 168.1607)" class="st2 st3 st4">5</text>
	<text transform="matrix(1 0 0 1 119.4603 168.1607)" class="st2 st3 st4">6</text>
	<text transform="matrix(1 0 0 1 142.4866 168.1607)" class="st2 st3 st4">7</text>
	<text transform="matrix(1 0 0 1 164.677 168.1607)" class="st2 st3 st4">8</text>
	<text transform="matrix(1 0 0 1 187.1712 168.1607)" class="st2 st3 st4">9</text>
	<text transform="matrix(1 0 0 1 207.8206 168.1607)" class="st2 st3 st4">10</text>
	<text transform="matrix(1 0 0 1 231.303 168.1607)" class="st2 st3 st4">11</text>
	<text transform="matrix(1 0 0 1 253.3655 168.1607)" class="st2 st3 st4">12</text>
	<text transform="matrix(1 0 0 1 275.9388 168.1607)" class="st2 st3 st4">13</text>
	<text transform="matrix(1 0 0 1 231.303 190.9185)" class="st2 st3 st4">11</text>
	<text transform="matrix(1 0 0 1 253.3655 190.9185)" class="st2 st3 st4">12</text>
	<text transform="matrix(1 0 0 1 275.9388 190.9185)" class="st2 st3 st4">13</text>
	<text transform="matrix(1 0 0 1 7.3138 191.3189)" class="st2 st3 st4">1</text>
	<text transform="matrix(1 0 0 1 29.3753 191.3189)" class="st2 st3 st4">2</text>
	<text transform="matrix(1 0 0 1 51.9495 191.3189)" class="st2 st3 st4">3</text>
	<text transform="matrix(1 0 0 1 74.4642 191.3189)" class="st2 st3 st4">4</text>
	<text transform="matrix(1 0 0 1 97.138 191.3189)" class="st2 st3 st4">5</text>
	<text transform="matrix(1 0 0 1 119.4603 191.3189)" class="st2 st3 st4">6</text>
	<text transform="matrix(1 0 0 1 142.4866 191.3189)" class="st2 st3 st4">7</text>
	<text transform="matrix(1 0 0 1 164.677 191.3189)" class="st2 st3 st4">8</text>
	<text transform="matrix(1 0 0 1 187.1712 191.3189)" class="st2 st3 st4">9</text>
	<text transform="matrix(1 0 0 1 207.8206 191.3189)" class="st2 st3 st4">10</text>
	<text transform="matrix(1 0 0 1 7.3138 214.6978)" class="st2 st3 st4">1</text>
	<text transform="matrix(1 0 0 1 29.3753 214.6978)" class="st2 st3 st4">2</text>
	<text transform="matrix(1 0 0 1 51.9495 214.6978)" class="st2 st3 st4">3</text>
	<text transform="matrix(1 0 0 1 74.4642 214.6978)" class="st2 st3 st4">4</text>
	<text transform="matrix(1 0 0 1 97.138 214.6978)" class="st2 st3 st4">5</text>
	<text transform="matrix(1 0 0 1 119.4603 214.6978)" class="st2 st3 st4">6</text>
	<text transform="matrix(1 0 0 1 142.4866 214.6978)" class="st2 st3 st4">7</text>
	<text transform="matrix(1 0 0 1 164.677 214.6978)" class="st2 st3 st4">8</text>
	<text transform="matrix(1 0 0 1 187.1712 214.6978)" class="st2 st3 st4">9</text>
	<text transform="matrix(1 0 0 1 207.8206 214.6978)" class="st2 st3 st4">10</text>
	<text transform="matrix(1 0 0 1 7.3138 237.3453)" class="st2 st3 st4">1</text>
	<text transform="matrix(1 0 0 1 29.3753 237.3453)" class="st2 st3 st4">2</text>
	<text transform="matrix(1 0 0 1 51.9495 237.3453)" class="st2 st3 st4">3</text>
	<text transform="matrix(1 0 0 1 74.4642 237.3453)" class="st2 st3 st4">4</text>
	<text transform="matrix(1 0 0 1 97.138 237.3453)" class="st2 st3 st4">5</text>
	<text transform="matrix(1 0 0 1 119.4603 237.3453)" class="st2 st3 st4">6</text>
	<text transform="matrix(1 0 0 1 142.4866 237.3453)" class="st2 st3 st4">7</text>
	<text transform="matrix(1 0 0 1 164.677 237.3453)" class="st2 st3 st4">8</text>
	<text transform="matrix(1 0 0 1 187.1712 237.3453)" class="st2 st3 st4">9</text>
	<text transform="matrix(1 0 0 1 207.8206 237.3453)" class="st2 st3 st4">10</text>
	<text transform="matrix(1 0 0 1 7.3138 259.6011)" class="st2 st3 st4">1</text>
	<text transform="matrix(1 0 0 1 29.3753 259.6011)" class="st2 st3 st4">2</text>
	<text transform="matrix(1 0 0 1 51.9495 259.6011)" class="st2 st3 st4">3</text>
	<text transform="matrix(1 0 0 1 74.4642 259.6011)" class="st2 st3 st4">4</text>
	<text transform="matrix(1 0 0 1 97.138 259.6011)" class="st2 st3 st4">5</text>
	<text transform="matrix(1 0 0 1 119.4603 259.6011)" class="st2 st3 st4">6</text>
	<text transform="matrix(1 0 0 1 142.4866 259.6011)" class="st2 st3 st4">7</text>
	<text transform="matrix(1 0 0 1 164.677 259.6011)" class="st2 st3 st4">8</text>
	<text transform="matrix(1 0 0 1 187.1712 259.6011)" class="st2 st3 st4">9</text>
	<text transform="matrix(1 0 0 1 207.8206 259.6011)" class="st2 st3 st4">10</text>
	<text transform="matrix(1 0 0 1 7.3138 282.4879)" class="st2 st3 st4">1</text>
	<text transform="matrix(1 0 0 1 29.3753 282.4879)" class="st2 st3 st4">2</text>
	<text transform="matrix(1 0 0 1 51.9495 282.4879)" class="st2 st3 st4">3</text>
	<text transform="matrix(1 0 0 1 74.4642 282.4879)" class="st2 st3 st4">4</text>
	<text transform="matrix(1 0 0 1 97.138 282.4879)" class="st2 st3 st4">5</text>
	<text transform="matrix(1 0 0 1 119.4603 282.4879)" class="st2 st3 st4">6</text>
	<text transform="matrix(1 0 0 1 142.4866 282.4879)" class="st2 st3 st4">7</text>
	<text transform="matrix(1 0 0 1 164.677 282.4879)" class="st2 st3 st4">8</text>
	<text transform="matrix(1 0 0 1 187.1712 282.4879)" class="st2 st3 st4">9</text>
	<text transform="matrix(1 0 0 1 207.8206 282.4879)" class="st2 st3 st4">10</text>
	<text transform="matrix(1 0 0 1 7.3138 304.2525)" class="st2 st3 st4">1</text>
	<text transform="matrix(1 0 0 1 29.3753 304.2525)" class="st2 st3 st4">2</text>
	<text transform="matrix(1 0 0 1 51.9495 304.2525)" class="st2 st3 st4">3</text>
	<text transform="matrix(1 0 0 1 74.4642 304.2525)" class="st2 st3 st4">4</text>
	<text transform="matrix(1 0 0 1 97.138 304.2525)" class="st2 st3 st4">5</text>
	<text transform="matrix(1 0 0 1 119.4603 304.2525)" class="st2 st3 st4">6</text>
	<text transform="matrix(1 0 0 1 142.4866 304.2525)" class="st2 st3 st4">7</text>
	<text transform="matrix(1 0 0 1 164.677 304.2525)" class="st2 st3 st4">8</text>
	<text transform="matrix(1 0 0 1 187.1712 304.2525)" class="st2 st3 st4">9</text>
	<text transform="matrix(1 0 0 1 207.8206 304.2525)" class="st2 st3 st4">10</text>
	<text transform="matrix(1 0 0 1 7.3138 326.606)" class="st2 st3 st4">1</text>
	<text transform="matrix(1 0 0 1 29.3753 326.606)" class="st2 st3 st4">2</text>
	<text transform="matrix(1 0 0 1 51.9495 326.606)" class="st2 st3 st4">3</text>
	<text transform="matrix(1 0 0 1 74.4642 326.606)" class="st2 st3 st4">4</text>
	<text transform="matrix(1 0 0 1 97.138 326.606)" class="st2 st3 st4">5</text>
	<text transform="matrix(1 0 0 1 119.4603 326.606)" class="st2 st3 st4">6</text>
	<text transform="matrix(1 0 0 1 142.4866 326.606)" class="st2 st3 st4">7</text>
	<text transform="matrix(1 0 0 1 164.677 326.606)" class="st2 st3 st4">8</text>
	<text transform="matrix(1 0 0 1 187.1712 326.606)" class="st2 st3 st4">9</text>
	<text transform="matrix(1 0 0 1 207.8206 326.606)" class="st2 st3 st4">10</text>
	<text transform="matrix(1 0 0 1 7.3138 349.2369)" class="st2 st3 st4">1</text>
	<text transform="matrix(1 0 0 1 29.3753 349.2369)" class="st2 st3 st4">2</text>
	<text transform="matrix(1 0 0 1 51.9495 349.2369)" class="st2 st3 st4">3</text>
	<text transform="matrix(1 0 0 1 74.4642 349.2369)" class="st2 st3 st4">4</text>
	<text transform="matrix(1 0 0 1 97.138 349.2369)" class="st2 st3 st4">5</text>
	<text transform="matrix(1 0 0 1 119.4603 349.2369)" class="st2 st3 st4">6</text>
	<text transform="matrix(1 0 0 1 142.4866 349.2369)" class="st2 st3 st4">7</text>
	<text transform="matrix(1 0 0 1 164.677 349.2369)" class="st2 st3 st4">8</text>
	<text transform="matrix(1 0 0 1 187.1712 349.2369)" class="st2 st3 st4">9</text>
	<text transform="matrix(1 0 0 1 207.8206 349.2369)" class="st2 st3 st4">10</text>
	<text transform="matrix(1 0 0 1 7.3138 372.3951)" class="st2 st3 st4">1</text>
	<text transform="matrix(1 0 0 1 29.3753 372.3951)" class="st2 st3 st4">2</text>
	<text transform="matrix(1 0 0 1 51.9495 372.3951)" class="st2 st3 st4">3</text>
	<text transform="matrix(1 0 0 1 74.4642 372.3951)" class="st2 st3 st4">4</text>
	<text transform="matrix(1 0 0 1 97.138 372.3951)" class="st2 st3 st4">5</text>
	<text transform="matrix(1 0 0 1 119.4603 372.3951)" class="st2 st3 st4">6</text>
	<text transform="matrix(1 0 0 1 142.4866 372.3951)" class="st2 st3 st4">7</text>
	<text transform="matrix(1 0 0 1 164.677 372.3951)" class="st2 st3 st4">8</text>
	<text transform="matrix(1 0 0 1 187.1712 372.3951)" class="st2 st3 st4">9</text>
	<text transform="matrix(1 0 0 1 207.8206 372.3951)" class="st2 st3 st4">10</text>
	<text transform="matrix(1 0 0 1 7.3138 394.4625)" class="st2 st3 st4">1</text>
	<text transform="matrix(1 0 0 1 29.3753 394.4625)" class="st2 st3 st4">2</text>
	<text transform="matrix(1 0 0 1 51.9495 394.4625)" class="st2 st3 st4">3</text>
	<text transform="matrix(1 0 0 1 74.4642 394.4625)" class="st2 st3 st4">4</text>
	<text transform="matrix(1 0 0 1 97.138 394.4625)" class="st2 st3 st4">5</text>
	<text transform="matrix(1 0 0 1 119.4603 394.4625)" class="st2 st3 st4">6</text>
	<text transform="matrix(1 0 0 1 142.4866 394.4625)" class="st2 st3 st4">7</text>
	<text transform="matrix(1 0 0 1 164.677 394.4625)" class="st2 st3 st4">8</text>
	<text transform="matrix(1 0 0 1 187.1712 394.4625)" class="st2 st3 st4">9</text>
	<text transform="matrix(1 0 0 1 207.8206 394.4625)" class="st2 st3 st4">10</text>
	<text transform="matrix(1 0 0 1 7.3138 417.9166)" class="st2 st3 st4">1</text>
	<text transform="matrix(1 0 0 1 29.3753 417.9166)" class="st2 st3 st4">2</text>
	<text transform="matrix(1 0 0 1 51.9495 417.9166)" class="st2 st3 st4">3</text>
	<text transform="matrix(1 0 0 1 74.4642 417.9166)" class="st2 st3 st4">4</text>
	<text transform="matrix(1 0 0 1 97.138 417.9166)" class="st2 st3 st4">5</text>
	<text transform="matrix(1 0 0 1 119.4603 417.9166)" class="st2 st3 st4">6</text>
	<text transform="matrix(1 0 0 1 142.4866 417.9166)" class="st2 st3 st4">7</text>
	<text transform="matrix(1 0 0 1 164.677 417.9166)" class="st2 st3 st4">8</text>
	<text transform="matrix(1 0 0 1 187.1712 417.9166)" class="st2 st3 st4">9</text>
	<text transform="matrix(1 0 0 1 207.8206 417.9166)" class="st2 st3 st4">10</text>
	<text transform="matrix(1 0 0 1 231.303 417.9166)" class="st2 st3 st4">11</text>
	<text transform="matrix(1 0 0 1 253.3655 417.9166)" class="st2 st3 st4">12</text>
	<text transform="matrix(1 0 0 1 275.9388 417.9166)" class="st2 st3 st4">13</text>
	<text transform="matrix(1 0 0 1 7.3138 440.564)" class="st2 st3 st4">1</text>
	<text transform="matrix(1 0 0 1 29.3753 440.564)" class="st2 st3 st4">2</text>
	<text transform="matrix(1 0 0 1 51.9495 440.564)" class="st2 st3 st4">3</text>
	<text transform="matrix(1 0 0 1 74.4642 440.564)" class="st2 st3 st4">4</text>
	<text transform="matrix(1 0 0 1 97.138 440.564)" class="st2 st3 st4">5</text>
	<text transform="matrix(1 0 0 1 119.4603 440.564)" class="st2 st3 st4">6</text>
	<text transform="matrix(1 0 0 1 142.4866 440.564)" class="st2 st3 st4">7</text>
	<text transform="matrix(1 0 0 1 164.677 440.564)" class="st2 st3 st4">8</text>
	<text transform="matrix(1 0 0 1 187.1712 440.564)" class="st2 st3 st4">9</text>
	<text transform="matrix(1 0 0 1 207.8206 440.564)" class="st2 st3 st4">10</text>
	<text transform="matrix(1 0 0 1 231.303 440.564)" class="st2 st3 st4">11</text>
	<text transform="matrix(1 0 0 1 253.3655 440.564)" class="st2 st3 st4">12</text>
	<text transform="matrix(1 0 0 1 275.9388 440.564)" class="st2 st3 st4">13</text>
	<text transform="matrix(1 0 0 1 7.3138 462.8199)" class="st2 st3 st4">1</text>
	<text transform="matrix(1 0 0 1 29.3753 462.8199)" class="st2 st3 st4">2</text>
	<text transform="matrix(1 0 0 1 51.9495 462.8199)" class="st2 st3 st4">3</text>
	<text transform="matrix(1 0 0 1 74.4642 462.8199)" class="st2 st3 st4">4</text>
	<text transform="matrix(1 0 0 1 97.138 462.8199)" class="st2 st3 st4">5</text>
	<text transform="matrix(1 0 0 1 119.4603 462.8199)" class="st2 st3 st4">6</text>
	<text transform="matrix(1 0 0 1 142.4866 462.8199)" class="st2 st3 st4">7</text>
	<text transform="matrix(1 0 0 1 164.677 462.8199)" class="st2 st3 st4">8</text>
	<text transform="matrix(1 0 0 1 187.1712 462.8199)" class="st2 st3 st4">9</text>
	<text transform="matrix(1 0 0 1 207.8206 462.8199)" class="st2 st3 st4">10</text>
	<text transform="matrix(1 0 0 1 231.303 462.8199)" class="st2 st3 st4">11</text>
	<text transform="matrix(1 0 0 1 253.3655 462.8199)" class="st2 st3 st4">12</text>
	<text transform="matrix(1 0 0 1 275.9388 462.8199)" class="st2 st3 st4">13</text>
	<text transform="matrix(1 0 0 1 7.3138 485.7066)" class="st2 st3 st4">1</text>
	<text transform="matrix(1 0 0 1 29.3753 485.7066)" class="st2 st3 st4">2</text>
	<text transform="matrix(1 0 0 1 51.9495 485.7066)" class="st2 st3 st4">3</text>
	<text transform="matrix(1 0 0 1 74.4642 485.7066)" class="st2 st3 st4">4</text>
	<text transform="matrix(1 0 0 1 97.138 485.7066)" class="st2 st3 st4">5</text>
	<text transform="matrix(1 0 0 1 119.4603 485.7066)" class="st2 st3 st4">6</text>
	<text transform="matrix(1 0 0 1 142.4866 485.7066)" class="st2 st3 st4">7</text>
	<text transform="matrix(1 0 0 1 164.677 485.7066)" class="st2 st3 st4">8</text>
	<text transform="matrix(1 0 0 1 187.1712 485.7066)" class="st2 st3 st4">9</text>
	<text transform="matrix(1 0 0 1 207.8206 485.7066)" class="st2 st3 st4">10</text>
	<text transform="matrix(1 0 0 1 231.303 485.7066)" class="st2 st3 st4">11</text>
	<text transform="matrix(1 0 0 1 253.3655 485.7066)" class="st2 st3 st4">12</text>
	<text transform="matrix(1 0 0 1 275.9388 485.7066)" class="st2 st3 st4">13</text>
	<text transform="matrix(1 0 0 1 7.3138 507.4713)" class="st2 st3 st4">1</text>
	<text transform="matrix(1 0 0 1 29.3753 507.4713)" class="st2 st3 st4">2</text>
	<text transform="matrix(1 0 0 1 51.9495 507.4713)" class="st2 st3 st4">3</text>
	<text transform="matrix(1 0 0 1 74.4642 507.4713)" class="st2 st3 st4">4</text>
	<text transform="matrix(1 0 0 1 97.138 507.4713)" class="st2 st3 st4">5</text>
	<text transform="matrix(1 0 0 1 119.4603 507.4713)" class="st2 st3 st4">6</text>
	<text transform="matrix(1 0 0 1 142.4866 507.4713)" class="st2 st3 st4">7</text>
	<text transform="matrix(1 0 0 1 164.677 507.4713)" class="st2 st3 st4">8</text>
	<text transform="matrix(1 0 0 1 187.1712 507.4713)" class="st2 st3 st4">9</text>
	<text transform="matrix(1 0 0 1 207.8206 507.4713)" class="st2 st3 st4">10</text>
	<text transform="matrix(1 0 0 1 231.303 507.4713)" class="st2 st3 st4">11</text>
	<text transform="matrix(1 0 0 1 253.3655 507.4713)" class="st2 st3 st4">12</text>
	<text transform="matrix(1 0 0 1 275.9388 507.4713)" class="st2 st3 st4">13</text>
	<text transform="matrix(1 0 0 1 7.3138 529.8248)" class="st2 st3 st4">1</text>
	<text transform="matrix(1 0 0 1 29.3753 529.8248)" class="st2 st3 st4">2</text>
	<text transform="matrix(1 0 0 1 51.9495 529.8248)" class="st2 st3 st4">3</text>
	<text transform="matrix(1 0 0 1 74.4642 529.8248)" class="st2 st3 st4">4</text>
	<text transform="matrix(1 0 0 1 97.138 529.8248)" class="st2 st3 st4">5</text>
	<text transform="matrix(1 0 0 1 119.4603 529.8248)" class="st2 st3 st4">6</text>
	<text transform="matrix(1 0 0 1 142.4866 529.8248)" class="st2 st3 st4">7</text>
	<text transform="matrix(1 0 0 1 164.677 529.8248)" class="st2 st3 st4">8</text>
	<text transform="matrix(1 0 0 1 187.1712 529.8248)" class="st2 st3 st4">9</text>
	<text transform="matrix(1 0 0 1 207.8206 529.8248)" class="st2 st3 st4">10</text>
	<text transform="matrix(1 0 0 1 231.303 529.8248)" class="st2 st3 st4">11</text>
	<text transform="matrix(1 0 0 1 253.3655 529.8248)" class="st2 st3 st4">12</text>
	<text transform="matrix(1 0 0 1 275.9388 529.8248)" class="st2 st3 st4">13</text>
	<text transform="matrix(1 0 0 1 7.3138 552.4556)" class="st2 st3 st4">1</text>
	<text transform="matrix(1 0 0 1 29.3753 552.4556)" class="st2 st3 st4">2</text>
	<text transform="matrix(1 0 0 1 51.9495 552.4556)" class="st2 st3 st4">3</text>
	<text transform="matrix(1 0 0 1 74.4642 552.4556)" class="st2 st3 st4">4</text>
	<text transform="matrix(1 0 0 1 97.138 552.4556)" class="st2 st3 st4">5</text>
	<text transform="matrix(1 0 0 1 119.4603 552.4556)" class="st2 st3 st4">6</text>
	<text transform="matrix(1 0 0 1 142.4866 552.4556)" class="st2 st3 st4">7</text>
	<text transform="matrix(1 0 0 1 164.677 552.4556)" class="st2 st3 st4">8</text>
	<text transform="matrix(1 0 0 1 187.1712 552.4556)" class="st2 st3 st4">9</text>
	<text transform="matrix(1 0 0 1 207.8206 552.4556)" class="st2 st3 st4">10</text>
	<text transform="matrix(1 0 0 1 231.303 552.4556)" class="st2 st3 st4">11</text>
	<text transform="matrix(1 0 0 1 253.3655 552.4556)" class="st2 st3 st4">12</text>
	<text transform="matrix(1 0 0 1 275.9388 552.4556)" class="st2 st3 st4">13</text>
	<text transform="matrix(1 0 0 1 7.3138 575.6138)" class="st2 st3 st4">1</text>
	<text transform="matrix(1 0 0 1 29.3753 575.6138)" class="st2 st3 st4">2</text>
	<text transform="matrix(1 0 0 1 51.9495 575.6138)" class="st2 st3 st4">3</text>
	<text transform="matrix(1 0 0 1 74.4642 575.6138)" class="st2 st3 st4">4</text>
	<text transform="matrix(1 0 0 1 97.138 575.6138)" class="st2 st3 st4">5</text>
	<text transform="matrix(1 0 0 1 119.4603 575.6138)" class="st2 st3 st4">6</text>
	<text transform="matrix(1 0 0 1 142.4866 575.6138)" class="st2 st3 st4">7</text>
	<text transform="matrix(1 0 0 1 164.677 575.6138)" class="st2 st3 st4">8</text>
	<text transform="matrix(1 0 0 1 187.1712 575.6138)" class="st2 st3 st4">9</text>
	<text transform="matrix(1 0 0 1 207.8206 575.6138)" class="st2 st3 st4">10</text>
	<text transform="matrix(1 0 0 1 231.303 575.6138)" class="st2 st3 st4">11</text>
	<text transform="matrix(1 0 0 1 253.3655 575.6138)" class="st2 st3 st4">12</text>
	<text transform="matrix(1 0 0 1 275.9388 575.6138)" class="st2 st3 st4">13</text>
	<text transform="matrix(1 0 0 1 7.3138 597.7857)" class="st2 st3 st4">1</text>
	<text transform="matrix(1 0 0 1 29.3753 597.7857)" class="st2 st3 st4">2</text>
	<text transform="matrix(1 0 0 1 51.9495 597.7857)" class="st2 st3 st4">3</text>
	<text transform="matrix(1 0 0 1 74.4642 597.7857)" class="st2 st3 st4">4</text>
	<text transform="matrix(1 0 0 1 97.138 597.7857)" class="st2 st3 st4">5</text>
	<text transform="matrix(1 0 0 1 119.4603 597.7857)" class="st2 st3 st4">6</text>
	<text transform="matrix(1 0 0 1 142.4866 597.7857)" class="st2 st3 st4">7</text>
	<text transform="matrix(1 0 0 1 164.677 597.7857)" class="st2 st3 st4">8</text>
	<text transform="matrix(1 0 0 1 187.1712 597.7857)" class="st2 st3 st4">9</text>
	<text transform="matrix(1 0 0 1 207.8206 597.7857)" class="st2 st3 st4">10</text>
	<text transform="matrix(1 0 0 1 231.303 597.7857)" class="st2 st3 st4">11</text>
	<text transform="matrix(1 0 0 1 253.3655 597.7857)" class="st2 st3 st4">12</text>
	<text transform="matrix(1 0 0 1 275.9388 597.7857)" class="st2 st3 st4">13</text>
	<text transform="matrix(1 0 0 1 7.3138 621.148)" class="st2 st3 st4">1</text>
	<text transform="matrix(1 0 0 1 29.3753 621.148)" class="st2 st3 st4">2</text>
	<text transform="matrix(1 0 0 1 51.9495 621.148)" class="st2 st3 st4">3</text>
	<text transform="matrix(1 0 0 1 74.4642 621.148)" class="st2 st3 st4">4</text>
	<text transform="matrix(1 0 0 1 97.138 621.148)" class="st2 st3 st4">5</text>
	<text transform="matrix(1 0 0 1 119.4603 621.148)" class="st2 st3 st4">6</text>
	<text transform="matrix(1 0 0 1 142.4866 621.148)" class="st2 st3 st4">7</text>
	<text transform="matrix(1 0 0 1 164.677 621.148)" class="st2 st3 st4">8</text>
	<text transform="matrix(1 0 0 1 187.1712 621.148)" class="st2 st3 st4">9</text>
	<text transform="matrix(1 0 0 1 207.8206 621.148)" class="st2 st3 st4">10</text>
	<text transform="matrix(1 0 0 1 231.303 621.148)" class="st2 st3 st4">11</text>
	<text transform="matrix(1 0 0 1 253.3655 621.148)" class="st2 st3 st4">12</text>
	<text transform="matrix(1 0 0 1 275.9388 621.148)" class="st2 st3 st4">13</text>
	<text transform="matrix(1 0 0 1 7.3138 644.3062)" class="st2 st3 st4">1</text>
	<text transform="matrix(1 0 0 1 29.3753 644.3062)" class="st2 st3 st4">2</text>
	<text transform="matrix(1 0 0 1 51.9495 644.3062)" class="st2 st3 st4">3</text>
	<text transform="matrix(1 0 0 1 74.4642 644.3062)" class="st2 st3 st4">4</text>
	<text transform="matrix(1 0 0 1 97.138 644.3062)" class="st2 st3 st4">5</text>
	<text transform="matrix(1 0 0 1 119.4603 644.3062)" class="st2 st3 st4">6</text>
	<text transform="matrix(1 0 0 1 142.4866 644.3062)" class="st2 st3 st4">7</text>
	<text transform="matrix(1 0 0 1 164.677 644.3062)" class="st2 st3 st4">8</text>
	<text transform="matrix(1 0 0 1 187.1712 644.3062)" class="st2 st3 st4">9</text>
	<text transform="matrix(1 0 0 1 207.8206 644.3062)" class="st2 st3 st4">10</text>
	<text transform="matrix(1 0 0 1 231.303 644.3062)" class="st2 st3 st4">11</text>
	<text transform="matrix(1 0 0 1 253.3655 644.3062)" class="st2 st3 st4">12</text>
	<text transform="matrix(1 0 0 1 275.9388 644.3062)" class="st2 st3 st4">13</text>
	<text transform="matrix(1 0 0 1 7.3138 666.4781)" class="st2 st3 st4">1</text>
	<text transform="matrix(1 0 0 1 29.3753 666.4781)" class="st2 st3 st4">2</text>
	<text transform="matrix(1 0 0 1 51.9495 666.4781)" class="st2 st3 st4">3</text>
	<text transform="matrix(1 0 0 1 74.4642 666.4781)" class="st2 st3 st4">4</text>
	<text transform="matrix(1 0 0 1 97.138 666.4781)" class="st2 st3 st4">5</text>
	<text transform="matrix(1 0 0 1 119.4603 666.4781)" class="st2 st3 st4">6</text>
	<text transform="matrix(1 0 0 1 142.4866 666.4781)" class="st2 st3 st4">7</text>
	<text transform="matrix(1 0 0 1 164.677 666.4781)" class="st2 st3 st4">8</text>
	<text transform="matrix(1 0 0 1 187.1712 666.4781)" class="st2 st3 st4">9</text>
	<text transform="matrix(1 0 0 1 207.8206 666.4781)" class="st2 st3 st4">10</text>
	<text transform="matrix(1 0 0 1 231.303 666.4781)" class="st2 st3 st4">11</text>
	<text transform="matrix(1 0 0 1 253.3655 666.4781)" class="st2 st3 st4">12</text>
	<text transform="matrix(1 0 0 1 275.9388 666.4781)" class="st2 st3 st4">13</text>
</g>
<g>
	<text transform="matrix(1 0 0 1 347.8065 32.5894)" class="st5 st6 st7">29</text>
	<text transform="matrix(1 0 0 1 347.8065 11.857)" class="st5 st6 st7">30</text>
	<text transform="matrix(1 0 0 1 347.8065 78.0855)" class="st5 st6 st7">27</text>
	<text transform="matrix(1 0 0 1 347.8065 55.5152)" class="st5 st6 st7">28</text>
	<text transform="matrix(1 0 0 1 347.8065 123.2281)" class="st5 st6 st7">25</text>
	<text transform="matrix(1 0 0 1 347.6463 303.8277)" class="st5 st6 st7">17</text>
	<text transform="matrix(1 0 0 1 347.6463 326.3795)" class="st5 st6 st7">16</text>
	<text transform="matrix(1 0 0 1 347.8065 349.0152)" class="st5 st6 st7">15</text>
	<text transform="matrix(1 0 0 1 347.8065 371.567)" class="st5 st6 st7">14</text>
	<text transform="matrix(1 0 0 1 347.619 394.1998)" class="st5 st6 st7">13</text>
	<text transform="matrix(1 0 0 1 347.6463 416.7525)" class="st5 st6 st7">12</text>
	<text transform="matrix(1 0 0 1 347.9832 597.4498)" class="st5 st6 st7">4</text>
	<text transform="matrix(1 0 0 1 347.8065 100.6578)" class="st5 st6 st7">26</text>
	<text transform="matrix(1 0 0 1 347.8065 145.6822)" class="st5 st6 st7">24</text>
	<text transform="matrix(1 0 0 1 347.8065 190.8697)" class="st5 st6 st7">22</text>
	<text transform="matrix(1 0 0 1 347.8065 168.2994)" class="st5 st6 st7">23</text>
	<text transform="matrix(1 0 0 1 347.8065 236.0142)" class="st5 st6 st7">20</text>
	<text transform="matrix(1 0 0 1 347.8065 213.4439)" class="st5 st6 st7">21</text>
	<text transform="matrix(1 0 0 1 347.619 281.1568)" class="st5 st6 st7">18</text>
	<text transform="matrix(1 0 0 1 347.6463 258.5865)" class="st5 st6 st7">19</text>
	<text transform="matrix(1 0 0 1 347.6463 439.3062)" class="st5 st6 st7">11</text>
	<text transform="matrix(1 0 0 1 347.6463 484.4937)" class="st5 st6 st7">9</text>
	<text transform="matrix(1 0 0 1 347.6463 461.9234)" class="st5 st6 st7">10</text>
	<text transform="matrix(1 0 0 1 348.2537 529.6392)" class="st5 st6 st7">7</text>
	<text transform="matrix(1 0 0 1 347.619 507.0689)" class="st5 st6 st7">8</text>
	<text transform="matrix(1 0 0 1 347.6463 552.2115)" class="st5 st6 st7">6</text>
	<text transform="matrix(1 0 0 1 348.2537 574.7945)" class="st5 st6 st7">5</text>
	<text transform="matrix(1 0 0 1 347.9832 665.6109)" class="st5 st6 st7">1</text>
	<text transform="matrix(1 0 0 1 347.6463 620.3726)" class="st5 st6 st7">3</text>
	<text transform="matrix(1 0 0 1 348.2537 642.9556)" class="st5 st6 st7">2</text>
</g>
</svg>
