<?xml version="1.0" encoding="utf-8"?>
<!-- Generator: Adobe Illustrator 20.1.0, SVG Export Plug-In . SVG Version: 6.00 Build 0)  -->
<svg version="1.1" id="Layer_1" xmlns="http://www.w3.org/2000/svg" xmlns:xlink="http://www.w3.org/1999/xlink" x="0px" y="0px"
	 viewBox="0 0 358.2 693.7" style="enable-background:new 0 0 358.2 693.7;" xml:space="preserve">
<style type="text/css">
	.st0{fill:#FFFFFF;}
	.st1{fill:#D9F6E1;}
	.st2{fill:#737373;}
	.st3{font-family:'OsnovaPro';}
	.st4{font-size:8px;}
	.st5{fill:#7B878F;}
	.st6{font-family:'OsnovaProLight';}
	.st7{font-size:9px;}
</style>
<path class="st0" d="M167.1,151.4L167.1,151.4c-4.6,0-8.3-3.7-8.3-8.3v0c0-4.6,3.7-8.3,8.3-8.3h0c4.6,0,8.3,3.7,8.3,8.3v0
	C175.4,147.7,171.7,151.4,167.1,151.4z"/>
<path class="st0" d="M189.7,151.4L189.7,151.4c-4.6,0-8.3-3.7-8.3-8.3v0c0-4.6,3.7-8.3,8.3-8.3h0c4.6,0,8.3,3.7,8.3,8.3v0
	C198,147.7,194.3,151.4,189.7,151.4z"/>
<path class="st0" d="M212.3,151.4L212.3,151.4c-4.6,0-8.3-3.7-8.3-8.3v0c0-4.6,3.7-8.3,8.3-8.3h0c4.6,0,8.3,3.7,8.3,8.3v0
	C220.6,147.7,216.8,151.4,212.3,151.4z"/>
<path class="st0" d="M167.1,128.8L167.1,128.8c-4.6,0-8.3-3.7-8.3-8.3v0c0-4.6,3.7-8.3,8.3-8.3h0c4.6,0,8.3,3.7,8.3,8.3v0
	C175.4,125.1,171.7,128.8,167.1,128.8z"/>
<path class="st0" d="M189.7,128.8L189.7,128.8c-4.6,0-8.3-3.7-8.3-8.3v0c0-4.6,3.7-8.3,8.3-8.3h0c4.6,0,8.3,3.7,8.3,8.3v0
	C198,125.1,194.3,128.8,189.7,128.8z"/>
<path class="st0" d="M212.3,128.8L212.3,128.8c-4.6,0-8.3-3.7-8.3-8.3v0c0-4.6,3.7-8.3,8.3-8.3h0c4.6,0,8.3,3.7,8.3,8.3v0
	C220.6,125.1,216.8,128.8,212.3,128.8z"/>
<path class="st0" d="M167.2,174L167.2,174c-4.6,0-8.3-3.7-8.3-8.3v0c0-4.6,3.7-8.3,8.3-8.3h0c4.6,0,8.3,3.7,8.3,8.3v0
	C175.4,170.2,171.7,174,167.2,174z"/>
<path class="st0" d="M189.7,174L189.7,174c-4.6,0-8.3-3.7-8.3-8.3v0c0-4.6,3.7-8.3,8.3-8.3h0c4.6,0,8.3,3.7,8.3,8.3v0
	C198,170.2,194.3,174,189.7,174z"/>
<path class="st0" d="M212.3,174L212.3,174c-4.6,0-8.3-3.7-8.3-8.3v0c0-4.6,3.7-8.3,8.3-8.3h0c4.6,0,8.3,3.7,8.3,8.3v0
	C220.6,170.2,216.9,174,212.3,174z"/>
<path class="st0" d="M167.1,219.1L167.1,219.1c-4.6,0-8.3-3.7-8.3-8.3v0c0-4.6,3.7-8.3,8.3-8.3h0c4.6,0,8.3,3.7,8.3,8.3v0
	C175.4,215.4,171.7,219.1,167.1,219.1z"/>
<path class="st0" d="M189.7,219.1L189.7,219.1c-4.6,0-8.3-3.7-8.3-8.3v0c0-4.6,3.7-8.3,8.3-8.3h0c4.6,0,8.3,3.7,8.3,8.3v0
	C198,215.4,194.3,219.1,189.7,219.1z"/>
<path class="st0" d="M212.3,219.1L212.3,219.1c-4.6,0-8.3-3.7-8.3-8.3v0c0-4.6,3.7-8.3,8.3-8.3h0c4.6,0,8.3,3.7,8.3,8.3v0
	C220.6,215.4,216.8,219.1,212.3,219.1z"/>
<path class="st0" d="M167.1,196.5L167.1,196.5c-4.6,0-8.3-3.7-8.3-8.3v0c0-4.6,3.7-8.3,8.3-8.3h0c4.6,0,8.3,3.7,8.3,8.3v0
	C175.4,192.8,171.7,196.5,167.1,196.5z"/>
<path class="st0" d="M189.7,196.5L189.7,196.5c-4.6,0-8.3-3.7-8.3-8.3v0c0-4.6,3.7-8.3,8.3-8.3h0c4.6,0,8.3,3.7,8.3,8.3v0
	C198,192.8,194.3,196.5,189.7,196.5z"/>
<path class="st0" d="M212.3,196.5L212.3,196.5c-4.6,0-8.3-3.7-8.3-8.3v0c0-4.6,3.7-8.3,8.3-8.3h0c4.6,0,8.3,3.7,8.3,8.3v0
	C220.6,192.8,216.8,196.5,212.3,196.5z"/>
<path class="st0" d="M167.2,241.7L167.2,241.7c-4.6,0-8.3-3.7-8.3-8.3v0c0-4.6,3.7-8.3,8.3-8.3h0c4.6,0,8.3,3.7,8.3,8.3v0
	C175.4,238,171.7,241.7,167.2,241.7z"/>
<path class="st0" d="M189.7,241.7L189.7,241.7c-4.6,0-8.3-3.7-8.3-8.3v0c0-4.6,3.7-8.3,8.3-8.3h0c4.6,0,8.3,3.7,8.3,8.3v0
	C198,238,194.3,241.7,189.7,241.7z"/>
<path class="st0" d="M212.3,241.7L212.3,241.7c-4.6,0-8.3-3.7-8.3-8.3v0c0-4.6,3.7-8.3,8.3-8.3h0c4.6,0,8.3,3.7,8.3,8.3v0
	C220.6,238,216.9,241.7,212.3,241.7z"/>
<path class="st0" d="M212,264.3L212,264.3c-4.6,0-8.3-3.7-8.3-8.3v0c0-4.6,3.7-8.3,8.3-8.3h0c4.6,0,8.3,3.7,8.3,8.3v0
	C220.3,260.5,216.5,264.3,212,264.3z"/>
<path class="st0" d="M167.2,467.6L167.2,467.6c-4.6,0-8.3-3.7-8.3-8.3l0,0c0-4.6,3.7-8.3,8.3-8.3h0c4.6,0,8.3,3.7,8.3,8.3l0,0
	C175.5,463.9,171.7,467.6,167.2,467.6z"/>
<path class="st0" d="M189.7,467.6L189.7,467.6c-4.6,0-8.3-3.7-8.3-8.3l0,0c0-4.6,3.7-8.3,8.3-8.3h0c4.6,0,8.3,3.7,8.3,8.3l0,0
	C198,463.9,194.3,467.6,189.7,467.6z"/>
<path class="st0" d="M212.3,467.6L212.3,467.6c-4.6,0-8.3-3.7-8.3-8.3l0,0c0-4.6,3.7-8.3,8.3-8.3h0c4.6,0,8.3,3.7,8.3,8.3l0,0
	C220.6,463.9,216.9,467.6,212.3,467.6z"/>
<path class="st0" d="M189.7,512.7L189.7,512.7c-4.6,0-8.3-3.7-8.3-8.3l0,0c0-4.6,3.7-8.3,8.3-8.3h0c4.6,0,8.3,3.7,8.3,8.3l0,0
	C198,509,194.3,512.7,189.7,512.7z"/>
<path class="st0" d="M212.3,512.7L212.3,512.7c-4.6,0-8.3-3.7-8.3-8.3l0,0c0-4.6,3.7-8.3,8.3-8.3h0c4.6,0,8.3,3.7,8.3,8.3l0,0
	C220.6,509,216.8,512.7,212.3,512.7z"/>
<path class="st0" d="M167.2,490.2L167.2,490.2c-4.6,0-8.3-3.7-8.3-8.3v0c0-4.6,3.7-8.3,8.3-8.3h0c4.6,0,8.3,3.7,8.3,8.3v0
	C175.4,486.4,171.7,490.2,167.2,490.2z"/>
<path class="st0" d="M189.7,490.2L189.7,490.2c-4.6,0-8.3-3.7-8.3-8.3v0c0-4.6,3.7-8.3,8.3-8.3h0c4.6,0,8.3,3.7,8.3,8.3v0
	C198,486.4,194.3,490.2,189.7,490.2z"/>
<path class="st0" d="M212.3,490.2L212.3,490.2c-4.6,0-8.3-3.7-8.3-8.3v0c0-4.6,3.7-8.3,8.3-8.3h0c4.6,0,8.3,3.7,8.3,8.3v0
	C220.6,486.4,216.8,490.2,212.3,490.2z"/>
<path class="st0" d="M77,151.4L77,151.4c-4.6,0-8.3-3.7-8.3-8.3v0c0-4.6,3.7-8.3,8.3-8.3h0c4.6,0,8.3,3.7,8.3,8.3v0
	C85.3,147.7,81.6,151.4,77,151.4z"/>
<path class="st0" d="M99.6,151.4L99.6,151.4c-4.6,0-8.3-3.7-8.3-8.3v0c0-4.6,3.7-8.3,8.3-8.3h0c4.6,0,8.3,3.7,8.3,8.3v0
	C107.9,147.7,104.2,151.4,99.6,151.4z"/>
<path class="st0" d="M122.2,151.4L122.2,151.4c-4.6,0-8.3-3.7-8.3-8.3v0c0-4.6,3.7-8.3,8.3-8.3h0c4.6,0,8.3,3.7,8.3,8.3v0
	C130.5,147.7,126.7,151.4,122.2,151.4z"/>
<path class="st0" d="M144.8,151.4L144.8,151.4c-4.6,0-8.3-3.7-8.3-8.3v0c0-4.6,3.7-8.3,8.3-8.3h0c4.6,0,8.3,3.7,8.3,8.3v0
	C153,147.7,149.3,151.4,144.8,151.4z"/>
<path class="st0" d="M77,128.8L77,128.8c-4.6,0-8.3-3.7-8.3-8.3v0c0-4.6,3.7-8.3,8.3-8.3h0c4.6,0,8.3,3.7,8.3,8.3v0
	C85.3,125.1,81.6,128.8,77,128.8z"/>
<path class="st0" d="M99.6,128.8L99.6,128.8c-4.6,0-8.3-3.7-8.3-8.3v0c0-4.6,3.7-8.3,8.3-8.3h0c4.6,0,8.3,3.7,8.3,8.3v0
	C107.9,125.1,104.2,128.8,99.6,128.8z"/>
<path class="st0" d="M122.2,128.8L122.2,128.8c-4.6,0-8.3-3.7-8.3-8.3v0c0-4.6,3.7-8.3,8.3-8.3h0c4.6,0,8.3,3.7,8.3,8.3v0
	C130.5,125.1,126.7,128.8,122.2,128.8z"/>
<path class="st0" d="M144.8,128.8L144.8,128.8c-4.6,0-8.3-3.7-8.3-8.3v0c0-4.6,3.7-8.3,8.3-8.3h0c4.6,0,8.3,3.7,8.3,8.3v0
	C153,125.1,149.3,128.8,144.8,128.8z"/>
<path class="st0" d="M99.6,174L99.6,174c-4.6,0-8.3-3.7-8.3-8.3v0c0-4.6,3.7-8.3,8.3-8.3h0c4.6,0,8.3,3.7,8.3,8.3v0
	C107.9,170.2,104.2,174,99.6,174z"/>
<path class="st0" d="M122.2,174L122.2,174c-4.6,0-8.3-3.7-8.3-8.3v0c0-4.6,3.7-8.3,8.3-8.3h0c4.6,0,8.3,3.7,8.3,8.3v0
	C130.5,170.2,126.8,174,122.2,174z"/>
<path class="st0" d="M144.8,174L144.8,174c-4.6,0-8.3-3.7-8.3-8.3v0c0-4.6,3.7-8.3,8.3-8.3h0c4.6,0,8.3,3.7,8.3,8.3v0
	C153.1,170.2,149.3,174,144.8,174z"/>
<path class="st0" d="M212.3,84L212.3,84c-4.6,0-8.3-3.7-8.3-8.3v0c0-4.6,3.7-8.3,8.3-8.3h0c4.6,0,8.3,3.7,8.3,8.3v0
	C220.6,80.3,216.8,84,212.3,84z"/>
<path class="st0" d="M212.4,61.4L212.4,61.4c-4.6,0-8.3-3.7-8.3-8.3v0c0-4.6,3.7-8.3,8.3-8.3h0c4.6,0,8.3,3.7,8.3,8.3v0
	C220.7,57.7,216.9,61.4,212.4,61.4z"/>
<path class="st1" d="M279.9,16.6L279.9,16.6c-4.6,0-8.3-3.7-8.3-8.3v0c0-4.6,3.7-8.3,8.3-8.3l0,0c4.6,0,8.3,3.7,8.3,8.3v0
	C288.2,12.8,284.5,16.6,279.9,16.6z"/>
<path class="st0" d="M212.3,106.5L212.3,106.5c-4.6,0-8.3-3.7-8.3-8.3v0c0-4.6,3.7-8.3,8.3-8.3h0c4.6,0,8.3,3.7,8.3,8.3v0
	C220.6,102.8,216.9,106.5,212.3,106.5z"/>
<path class="st0" d="M122.2,219.1L122.2,219.1c-4.6,0-8.3-3.7-8.3-8.3v0c0-4.6,3.7-8.3,8.3-8.3h0c4.6,0,8.3,3.7,8.3,8.3v0
	C130.5,215.4,126.7,219.1,122.2,219.1z"/>
<path class="st0" d="M144.7,219.1L144.7,219.1c-4.6,0-8.3-3.7-8.3-8.3v0c0-4.6,3.7-8.3,8.3-8.3h0c4.6,0,8.3,3.7,8.3,8.3v0
	C153,215.4,149.3,219.1,144.7,219.1z"/>
<path class="st0" d="M122.2,196.5L122.2,196.5c-4.6,0-8.3-3.7-8.3-8.3v0c0-4.6,3.7-8.3,8.3-8.3h0c4.6,0,8.3,3.7,8.3,8.3v0
	C130.5,192.8,126.7,196.5,122.2,196.5z"/>
<path class="st0" d="M144.7,196.5L144.7,196.5c-4.6,0-8.3-3.7-8.3-8.3v0c0-4.6,3.7-8.3,8.3-8.3h0c4.6,0,8.3,3.7,8.3,8.3v0
	C153,192.8,149.3,196.5,144.7,196.5z"/>
<path class="st0" d="M77.1,467.6L77.1,467.6c-4.6,0-8.3-3.7-8.3-8.3l0,0c0-4.6,3.7-8.3,8.3-8.3h0c4.6,0,8.3,3.7,8.3,8.3l0,0
	C85.4,463.9,81.6,467.6,77.1,467.6z"/>
<path class="st0" d="M99.6,467.6L99.6,467.6c-4.6,0-8.3-3.7-8.3-8.3l0,0c0-4.6,3.7-8.3,8.3-8.3h0c4.6,0,8.3,3.7,8.3,8.3l0,0
	C107.9,463.9,104.2,467.6,99.6,467.6z"/>
<path class="st0" d="M122.2,467.6L122.2,467.6c-4.6,0-8.3-3.7-8.3-8.3l0,0c0-4.6,3.7-8.3,8.3-8.3h0c4.6,0,8.3,3.7,8.3,8.3l0,0
	C130.5,463.9,126.8,467.6,122.2,467.6z"/>
<path class="st0" d="M8.3,467.6L8.3,467.6c-4.6,0-8.3-3.7-8.3-8.3l0,0c0-4.6,3.7-8.3,8.3-8.3h0c4.6,0,8.3,3.7,8.3,8.3l0,0
	C16.6,463.9,12.8,467.6,8.3,467.6z"/>
<path class="st0" d="M30.9,467.6L30.9,467.6c-4.6,0-8.3-3.7-8.3-8.3l0,0c0-4.6,3.7-8.3,8.3-8.3h0c4.6,0,8.3,3.7,8.3,8.3l0,0
	C39.1,463.9,35.4,467.6,30.9,467.6z"/>
<path class="st0" d="M53.4,467.6L53.4,467.6c-4.6,0-8.3-3.7-8.3-8.3l0,0c0-4.6,3.7-8.3,8.3-8.3h0c4.6,0,8.3,3.7,8.3,8.3l0,0
	C61.7,463.9,58,467.6,53.4,467.6z"/>
<path class="st0" d="M77.1,490.2L77.1,490.2c-4.6,0-8.3-3.7-8.3-8.3v0c0-4.6,3.7-8.3,8.3-8.3h0c4.6,0,8.3,3.7,8.3,8.3v0
	C85.4,486.5,81.6,490.2,77.1,490.2z"/>
<path class="st0" d="M99.6,490.2L99.6,490.2c-4.6,0-8.3-3.7-8.3-8.3v0c0-4.6,3.7-8.3,8.3-8.3h0c4.6,0,8.3,3.7,8.3,8.3v0
	C107.9,486.5,104.2,490.2,99.6,490.2z"/>
<path class="st0" d="M8.3,490.2L8.3,490.2c-4.6,0-8.3-3.7-8.3-8.3v0c0-4.6,3.7-8.3,8.3-8.3h0c4.6,0,8.3,3.7,8.3,8.3v0
	C16.6,486.5,12.8,490.2,8.3,490.2z"/>
<path class="st0" d="M30.9,490.2L30.9,490.2c-4.6,0-8.3-3.7-8.3-8.3v0c0-4.6,3.7-8.3,8.3-8.3h0c4.6,0,8.3,3.7,8.3,8.3v0
	C39.1,486.5,35.4,490.2,30.9,490.2z"/>
<path class="st0" d="M53.4,490.2L53.4,490.2c-4.6,0-8.3-3.7-8.3-8.3v0c0-4.6,3.7-8.3,8.3-8.3h0c4.6,0,8.3,3.7,8.3,8.3v0
	C61.7,486.5,58,490.2,53.4,490.2z"/>
<path class="st0" d="M77.1,512.8L77.1,512.8c-4.6,0-8.3-3.7-8.3-8.3v0c0-4.6,3.7-8.3,8.3-8.3h0c4.6,0,8.3,3.7,8.3,8.3v0
	C85.4,509.1,81.6,512.8,77.1,512.8z"/>
<path class="st0" d="M99.6,512.8L99.6,512.8c-4.6,0-8.3-3.7-8.3-8.3v0c0-4.6,3.7-8.3,8.3-8.3h0c4.6,0,8.3,3.7,8.3,8.3v0
	C107.9,509.1,104.2,512.8,99.6,512.8z"/>
<path class="st0" d="M8.3,512.8L8.3,512.8c-4.6,0-8.3-3.7-8.3-8.3v0c0-4.6,3.7-8.3,8.3-8.3h0c4.6,0,8.3,3.7,8.3,8.3v0
	C16.6,509.1,12.8,512.8,8.3,512.8z"/>
<path class="st0" d="M30.9,512.8L30.9,512.8c-4.6,0-8.3-3.7-8.3-8.3v0c0-4.6,3.7-8.3,8.3-8.3h0c4.6,0,8.3,3.7,8.3,8.3v0
	C39.1,509.1,35.4,512.8,30.9,512.8z"/>
<path class="st0" d="M53.4,512.8L53.4,512.8c-4.6,0-8.3-3.7-8.3-8.3v0c0-4.6,3.7-8.3,8.3-8.3h0c4.6,0,8.3,3.7,8.3,8.3v0
	C61.7,509.1,58,512.8,53.4,512.8z"/>
<path class="st0" d="M145.8,512.8L145.8,512.8c-4.6,0-8.3-3.7-8.3-8.3v0c0-4.6,3.7-8.3,8.3-8.3h0c4.6,0,8.3,3.7,8.3,8.3v0
	C154.1,509.1,150.4,512.8,145.8,512.8z"/>
<path class="st0" d="M168.4,512.8L168.4,512.8c-4.6,0-8.3-3.7-8.3-8.3v0c0-4.6,3.7-8.3,8.3-8.3h0c4.6,0,8.3,3.7,8.3,8.3v0
	C176.7,509.1,173,512.8,168.4,512.8z"/>
<path class="st0" d="M122.2,512.8L122.2,512.8c-4.6,0-8.3-3.7-8.3-8.3v0c0-4.6,3.7-8.3,8.3-8.3h0c4.6,0,8.3,3.7,8.3,8.3v0
	C130.5,509.1,126.7,512.8,122.2,512.8z"/>
<path class="st0" d="M77.1,535.4L77.1,535.4c-4.6,0-8.3-3.7-8.3-8.3v0c0-4.6,3.7-8.3,8.3-8.3h0c4.6,0,8.3,3.7,8.3,8.3v0
	C85.4,531.6,81.6,535.4,77.1,535.4z"/>
<path class="st0" d="M99.6,535.4L99.6,535.4c-4.6,0-8.3-3.7-8.3-8.3v0c0-4.6,3.7-8.3,8.3-8.3h0c4.6,0,8.3,3.7,8.3,8.3v0
	C107.9,531.6,104.2,535.4,99.6,535.4z"/>
<path class="st0" d="M8.3,535.4L8.3,535.4c-4.6,0-8.3-3.7-8.3-8.3v0c0-4.6,3.7-8.3,8.3-8.3h0c4.6,0,8.3,3.7,8.3,8.3v0
	C16.6,531.6,12.8,535.4,8.3,535.4z"/>
<path class="st0" d="M30.9,535.4L30.9,535.4c-4.6,0-8.3-3.7-8.3-8.3v0c0-4.6,3.7-8.3,8.3-8.3h0c4.6,0,8.3,3.7,8.3,8.3v0
	C39.1,531.6,35.4,535.4,30.9,535.4z"/>
<path class="st0" d="M53.4,535.4L53.4,535.4c-4.6,0-8.3-3.7-8.3-8.3v0c0-4.6,3.7-8.3,8.3-8.3h0c4.6,0,8.3,3.7,8.3,8.3v0
	C61.7,531.6,58,535.4,53.4,535.4z"/>
<path class="st0" d="M145.8,535.4L145.8,535.4c-4.6,0-8.3-3.7-8.3-8.3v0c0-4.6,3.7-8.3,8.3-8.3h0c4.6,0,8.3,3.7,8.3,8.3v0
	C154.1,531.6,150.4,535.4,145.8,535.4z"/>
<path class="st0" d="M168.4,535.4L168.4,535.4c-4.6,0-8.3-3.7-8.3-8.3v0c0-4.6,3.7-8.3,8.3-8.3h0c4.6,0,8.3,3.7,8.3,8.3v0
	C176.7,531.6,173,535.4,168.4,535.4z"/>
<path class="st0" d="M122.2,535.4L122.2,535.4c-4.6,0-8.3-3.7-8.3-8.3v0c0-4.6,3.7-8.3,8.3-8.3h0c4.6,0,8.3,3.7,8.3,8.3v0
	C130.5,531.6,126.7,535.4,122.2,535.4z"/>
<path class="st0" d="M212.4,535.4L212.4,535.4c-4.6,0-8.3-3.7-8.3-8.3v0c0-4.6,3.7-8.3,8.3-8.3h0c4.6,0,8.3,3.7,8.3,8.3v0
	C220.7,531.6,217,535.4,212.4,535.4z"/>
<path class="st0" d="M189.8,535.4L189.8,535.4c-4.6,0-8.3-3.7-8.3-8.3v0c0-4.6,3.7-8.3,8.3-8.3h0c4.6,0,8.3,3.7,8.3,8.3v0
	C198.1,531.6,194.3,535.4,189.8,535.4z"/>
<path class="st0" d="M77.1,558L77.1,558c-4.6,0-8.3-3.7-8.3-8.3l0,0c0-4.6,3.7-8.3,8.3-8.3h0c4.6,0,8.3,3.7,8.3,8.3l0,0
	C85.4,554.2,81.6,558,77.1,558z"/>
<path class="st0" d="M99.6,558L99.6,558c-4.6,0-8.3-3.7-8.3-8.3l0,0c0-4.6,3.7-8.3,8.3-8.3h0c4.6,0,8.3,3.7,8.3,8.3l0,0
	C107.9,554.2,104.2,558,99.6,558z"/>
<path class="st0" d="M8.3,558L8.3,558c-4.6,0-8.3-3.7-8.3-8.3l0,0c0-4.6,3.7-8.3,8.3-8.3h0c4.6,0,8.3,3.7,8.3,8.3l0,0
	C16.6,554.2,12.8,558,8.3,558z"/>
<path class="st0" d="M30.9,558L30.9,558c-4.6,0-8.3-3.7-8.3-8.3l0,0c0-4.6,3.7-8.3,8.3-8.3h0c4.6,0,8.3,3.7,8.3,8.3l0,0
	C39.1,554.2,35.4,558,30.9,558z"/>
<path class="st0" d="M53.4,558L53.4,558c-4.6,0-8.3-3.7-8.3-8.3l0,0c0-4.6,3.7-8.3,8.3-8.3h0c4.6,0,8.3,3.7,8.3,8.3l0,0
	C61.7,554.2,58,558,53.4,558z"/>
<path class="st0" d="M145.8,558L145.8,558c-4.6,0-8.3-3.7-8.3-8.3l0,0c0-4.6,3.7-8.3,8.3-8.3h0c4.6,0,8.3,3.7,8.3,8.3l0,0
	C154.1,554.2,150.4,558,145.8,558z"/>
<path class="st0" d="M168.4,558L168.4,558c-4.6,0-8.3-3.7-8.3-8.3l0,0c0-4.6,3.7-8.3,8.3-8.3h0c4.6,0,8.3,3.7,8.3,8.3l0,0
	C176.7,554.2,173,558,168.4,558z"/>
<path class="st0" d="M122.2,558L122.2,558c-4.6,0-8.3-3.7-8.3-8.3l0,0c0-4.6,3.7-8.3,8.3-8.3h0c4.6,0,8.3,3.7,8.3,8.3l0,0
	C130.5,554.2,126.7,558,122.2,558z"/>
<path class="st0" d="M212.4,558L212.4,558c-4.6,0-8.3-3.7-8.3-8.3l0,0c0-4.6,3.7-8.3,8.3-8.3h0c4.6,0,8.3,3.7,8.3,8.3l0,0
	C220.7,554.2,217,558,212.4,558z"/>
<path class="st0" d="M189.8,558L189.8,558c-4.6,0-8.3-3.7-8.3-8.3l0,0c0-4.6,3.7-8.3,8.3-8.3h0c4.6,0,8.3,3.7,8.3,8.3l0,0
	C198.1,554.2,194.3,558,189.8,558z"/>
<path class="st0" d="M77.1,580.5L77.1,580.5c-4.6,0-8.3-3.7-8.3-8.3l0,0c0-4.6,3.7-8.3,8.3-8.3h0c4.6,0,8.3,3.7,8.3,8.3l0,0
	C85.4,576.8,81.6,580.5,77.1,580.5z"/>
<path class="st0" d="M99.6,580.5L99.6,580.5c-4.6,0-8.3-3.7-8.3-8.3l0,0c0-4.6,3.7-8.3,8.3-8.3h0c4.6,0,8.3,3.7,8.3,8.3l0,0
	C107.9,576.8,104.2,580.5,99.6,580.5z"/>
<path class="st0" d="M8.3,580.5L8.3,580.5c-4.6,0-8.3-3.7-8.3-8.3l0,0c0-4.6,3.7-8.3,8.3-8.3h0c4.6,0,8.3,3.7,8.3,8.3l0,0
	C16.6,576.8,12.8,580.5,8.3,580.5z"/>
<path class="st0" d="M30.9,580.5L30.9,580.5c-4.6,0-8.3-3.7-8.3-8.3l0,0c0-4.6,3.7-8.3,8.3-8.3h0c4.6,0,8.3,3.7,8.3,8.3l0,0
	C39.1,576.8,35.4,580.5,30.9,580.5z"/>
<path class="st0" d="M53.4,580.5L53.4,580.5c-4.6,0-8.3-3.7-8.3-8.3l0,0c0-4.6,3.7-8.3,8.3-8.3h0c4.6,0,8.3,3.7,8.3,8.3l0,0
	C61.7,576.8,58,580.5,53.4,580.5z"/>
<path class="st0" d="M145.8,580.5L145.8,580.5c-4.6,0-8.3-3.7-8.3-8.3l0,0c0-4.6,3.7-8.3,8.3-8.3h0c4.6,0,8.3,3.7,8.3,8.3l0,0
	C154.1,576.8,150.4,580.5,145.8,580.5z"/>
<path class="st0" d="M168.4,580.5L168.4,580.5c-4.6,0-8.3-3.7-8.3-8.3l0,0c0-4.6,3.7-8.3,8.3-8.3h0c4.6,0,8.3,3.7,8.3,8.3l0,0
	C176.7,576.8,173,580.5,168.4,580.5z"/>
<path class="st0" d="M122.2,580.5L122.2,580.5c-4.6,0-8.3-3.7-8.3-8.3l0,0c0-4.6,3.7-8.3,8.3-8.3h0c4.6,0,8.3,3.7,8.3,8.3l0,0
	C130.5,576.8,126.7,580.5,122.2,580.5z"/>
<path class="st0" d="M212.4,580.5L212.4,580.5c-4.6,0-8.3-3.7-8.3-8.3l0,0c0-4.6,3.7-8.3,8.3-8.3h0c4.6,0,8.3,3.7,8.3,8.3l0,0
	C220.7,576.8,217,580.5,212.4,580.5z"/>
<path class="st0" d="M189.8,580.5L189.8,580.5c-4.6,0-8.3-3.7-8.3-8.3l0,0c0-4.6,3.7-8.3,8.3-8.3h0c4.6,0,8.3,3.7,8.3,8.3l0,0
	C198.1,576.8,194.3,580.5,189.8,580.5z"/>
<path class="st0" d="M77.1,603.1L77.1,603.1c-4.6,0-8.3-3.7-8.3-8.3l0,0c0-4.6,3.7-8.3,8.3-8.3h0c4.6,0,8.3,3.7,8.3,8.3l0,0
	C85.4,599.4,81.6,603.1,77.1,603.1z"/>
<path class="st0" d="M99.6,603.1L99.6,603.1c-4.6,0-8.3-3.7-8.3-8.3l0,0c0-4.6,3.7-8.3,8.3-8.3h0c4.6,0,8.3,3.7,8.3,8.3l0,0
	C107.9,599.4,104.2,603.1,99.6,603.1z"/>
<path class="st0" d="M8.3,603.1L8.3,603.1c-4.6,0-8.3-3.7-8.3-8.3l0,0c0-4.6,3.7-8.3,8.3-8.3h0c4.6,0,8.3,3.7,8.3,8.3l0,0
	C16.6,599.4,12.8,603.1,8.3,603.1z"/>
<path class="st0" d="M30.9,603.1L30.9,603.1c-4.6,0-8.3-3.7-8.3-8.3l0,0c0-4.6,3.7-8.3,8.3-8.3h0c4.6,0,8.3,3.7,8.3,8.3l0,0
	C39.1,599.4,35.4,603.1,30.9,603.1z"/>
<path class="st0" d="M53.4,603.1L53.4,603.1c-4.6,0-8.3-3.7-8.3-8.3l0,0c0-4.6,3.7-8.3,8.3-8.3h0c4.6,0,8.3,3.7,8.3,8.3l0,0
	C61.7,599.4,58,603.1,53.4,603.1z"/>
<path class="st0" d="M145.8,603.1L145.8,603.1c-4.6,0-8.3-3.7-8.3-8.3l0,0c0-4.6,3.7-8.3,8.3-8.3h0c4.6,0,8.3,3.7,8.3,8.3l0,0
	C154.1,599.4,150.4,603.1,145.8,603.1z"/>
<path class="st0" d="M168.4,603.1L168.4,603.1c-4.6,0-8.3-3.7-8.3-8.3l0,0c0-4.6,3.7-8.3,8.3-8.3h0c4.6,0,8.3,3.7,8.3,8.3l0,0
	C176.7,599.4,173,603.1,168.4,603.1z"/>
<path class="st0" d="M122.2,603.1L122.2,603.1c-4.6,0-8.3-3.7-8.3-8.3l0,0c0-4.6,3.7-8.3,8.3-8.3h0c4.6,0,8.3,3.7,8.3,8.3l0,0
	C130.5,599.4,126.7,603.1,122.2,603.1z"/>
<path class="st0" d="M212.4,603.1L212.4,603.1c-4.6,0-8.3-3.7-8.3-8.3l0,0c0-4.6,3.7-8.3,8.3-8.3h0c4.6,0,8.3,3.7,8.3,8.3l0,0
	C220.7,599.4,217,603.1,212.4,603.1z"/>
<path class="st0" d="M189.8,603.1L189.8,603.1c-4.6,0-8.3-3.7-8.3-8.3l0,0c0-4.6,3.7-8.3,8.3-8.3h0c4.6,0,8.3,3.7,8.3,8.3l0,0
	C198.1,599.4,194.3,603.1,189.8,603.1z"/>
<path class="st0" d="M144.8,467.6L144.8,467.6c-4.6,0-8.3-3.7-8.3-8.3l0,0c0-4.6,3.7-8.3,8.3-8.3h0c4.6,0,8.3,3.7,8.3,8.3l0,0
	C153.1,463.9,149.3,467.6,144.8,467.6z"/>
<path class="st0" d="M122.2,490.2L122.2,490.2c-4.6,0-8.3-3.7-8.3-8.3v0c0-4.6,3.7-8.3,8.3-8.3h0c4.6,0,8.3,3.7,8.3,8.3v0
	C130.5,486.4,126.7,490.2,122.2,490.2z"/>
<path class="st0" d="M144.8,490.2L144.8,490.2c-4.6,0-8.3-3.7-8.3-8.3v0c0-4.6,3.7-8.3,8.3-8.3h0c4.6,0,8.3,3.7,8.3,8.3v0
	C153,486.4,149.3,490.2,144.8,490.2z"/>
<path class="st0" d="M31.9,128.9L31.9,128.9c-4.6,0-8.3-3.7-8.3-8.3v0c0-4.6,3.7-8.3,8.3-8.3h0c4.6,0,8.3,3.7,8.3,8.3v0
	C40.1,125.2,36.4,128.9,31.9,128.9z"/>
<path class="st0" d="M54.4,128.9L54.4,128.9c-4.6,0-8.3-3.7-8.3-8.3v0c0-4.6,3.7-8.3,8.3-8.3h0c4.6,0,8.3,3.7,8.3,8.3v0
	C62.7,125.2,59,128.9,54.4,128.9z"/>
<path class="st0" d="M9.3,128.9L9.3,128.9c-4.6,0-8.3-3.7-8.3-8.3v0c0-4.6,3.7-8.3,8.3-8.3h0c4.6,0,8.3,3.7,8.3,8.3v0
	C17.6,125.2,13.8,128.9,9.3,128.9z"/>
<path class="st0" d="M31.9,151.4L31.9,151.4c-4.6,0-8.3-3.7-8.3-8.3v0c0-4.6,3.7-8.3,8.3-8.3h0c4.6,0,8.3,3.7,8.3,8.3v0
	C40.1,147.7,36.4,151.4,31.9,151.4z"/>
<path class="st0" d="M9.3,151.4L9.3,151.4c-4.6,0-8.3-3.7-8.3-8.3v0c0-4.6,3.7-8.3,8.3-8.3h0c4.6,0,8.3,3.7,8.3,8.3v0
	C17.6,147.7,13.8,151.4,9.3,151.4z"/>
<path class="st0" d="M31.9,174L31.9,174c-4.6,0-8.3-3.7-8.3-8.3v0c0-4.6,3.7-8.3,8.3-8.3h0c4.6,0,8.3,3.7,8.3,8.3v0
	C40.1,170.3,36.4,174,31.9,174z"/>
<path class="st0" d="M54.4,151.4L54.4,151.4c-4.6,0-8.3-3.7-8.3-8.3v0c0-4.6,3.7-8.3,8.3-8.3h0c4.6,0,8.3,3.7,8.3,8.3v0
	C62.7,147.7,59,151.4,54.4,151.4z"/>
<path class="st0" d="M54.4,174L54.4,174c-4.6,0-8.3-3.7-8.3-8.3v0c0-4.6,3.7-8.3,8.3-8.3h0c4.6,0,8.3,3.7,8.3,8.3v0
	C62.7,170.3,59,174,54.4,174z"/>
<path class="st0" d="M9.3,174L9.3,174c-4.6,0-8.3-3.7-8.3-8.3v0c0-4.6,3.7-8.3,8.3-8.3h0c4.6,0,8.3,3.7,8.3,8.3v0
	C17.6,170.3,13.8,174,9.3,174z"/>
<path class="st0" d="M31.9,196.6L31.9,196.6c-4.6,0-8.3-3.7-8.3-8.3v0c0-4.6,3.7-8.3,8.3-8.3h0c4.6,0,8.3,3.7,8.3,8.3v0
	C40.1,192.9,36.4,196.6,31.9,196.6z"/>
<path class="st0" d="M54.4,196.6L54.4,196.6c-4.6,0-8.3-3.7-8.3-8.3v0c0-4.6,3.7-8.3,8.3-8.3h0c4.6,0,8.3,3.7,8.3,8.3v0
	C62.7,192.9,59,196.6,54.4,196.6z"/>
<path class="st0" d="M77,174L77,174c-4.6,0-8.3-3.7-8.3-8.3v0c0-4.6,3.7-8.3,8.3-8.3h0c4.6,0,8.3,3.7,8.3,8.3v0
	C85.3,170.3,81.6,174,77,174z"/>
<path class="st0" d="M77,196.6L77,196.6c-4.6,0-8.3-3.7-8.3-8.3v0c0-4.6,3.7-8.3,8.3-8.3h0c4.6,0,8.3,3.7,8.3,8.3v0
	C85.3,192.9,81.6,196.6,77,196.6z"/>
<path class="st0" d="M99.6,196.6L99.6,196.6c-4.6,0-8.3-3.7-8.3-8.3v0c0-4.6,3.7-8.3,8.3-8.3h0c4.6,0,8.3,3.7,8.3,8.3v0
	C107.9,192.9,104.2,196.6,99.6,196.6z"/>
<path class="st0" d="M9.3,196.6L9.3,196.6c-4.6,0-8.3-3.7-8.3-8.3v0c0-4.6,3.7-8.3,8.3-8.3h0c4.6,0,8.3,3.7,8.3,8.3v0
	C17.6,192.9,13.8,196.6,9.3,196.6z"/>
<path class="st0" d="M31.9,219.1L31.9,219.1c-4.6,0-8.3-3.7-8.3-8.3v0c0-4.6,3.7-8.3,8.3-8.3h0c4.6,0,8.3,3.7,8.3,8.3v0
	C40.1,215.4,36.4,219.1,31.9,219.1z"/>
<path class="st0" d="M54.4,219.1L54.4,219.1c-4.6,0-8.3-3.7-8.3-8.3v0c0-4.6,3.7-8.3,8.3-8.3h0c4.6,0,8.3,3.7,8.3,8.3v0
	C62.7,215.4,59,219.1,54.4,219.1z"/>
<path class="st0" d="M77,219.1L77,219.1c-4.6,0-8.3-3.7-8.3-8.3v0c0-4.6,3.7-8.3,8.3-8.3h0c4.6,0,8.3,3.7,8.3,8.3v0
	C85.3,215.4,81.6,219.1,77,219.1z"/>
<path class="st0" d="M99.6,219.1L99.6,219.1c-4.6,0-8.3-3.7-8.3-8.3v0c0-4.6,3.7-8.3,8.3-8.3h0c4.6,0,8.3,3.7,8.3,8.3v0
	C107.9,215.4,104.2,219.1,99.6,219.1z"/>
<path class="st0" d="M9.3,219.1L9.3,219.1c-4.6,0-8.3-3.7-8.3-8.3v0c0-4.6,3.7-8.3,8.3-8.3h0c4.6,0,8.3,3.7,8.3,8.3v0
	C17.6,215.4,13.8,219.1,9.3,219.1z"/>
<path class="st0" d="M99.6,241.7L99.6,241.7c-4.6,0-8.3-3.7-8.3-8.3v0c0-4.6,3.7-8.3,8.3-8.3h0c4.6,0,8.3,3.7,8.3,8.3v0
	C107.9,237.9,104.2,241.7,99.6,241.7z"/>
<path class="st0" d="M76.7,264.3L76.7,264.3c-4.6,0-8.3-3.7-8.3-8.3l0,0c0-4.6,3.7-8.3,8.3-8.3h0c4.6,0,8.3,3.7,8.3,8.3l0,0
	C85,260.6,81.3,264.3,76.7,264.3z"/>
<path class="st0" d="M99.3,264.3L99.3,264.3c-4.6,0-8.3-3.7-8.3-8.3l0,0c0-4.6,3.7-8.3,8.3-8.3h0c4.6,0,8.3,3.7,8.3,8.3l0,0
	C107.6,260.6,103.8,264.3,99.3,264.3z"/>
<path class="st0" d="M77,241.7L77,241.7c-4.6,0-8.3-3.7-8.3-8.3v0c0-4.6,3.7-8.3,8.3-8.3h0c4.6,0,8.3,3.7,8.3,8.3v0
	C85.3,238,81.6,241.7,77,241.7z"/>
<path class="st0" d="M121.8,264.3L121.8,264.3c-4.6,0-8.3-3.7-8.3-8.3l0,0c0-4.6,3.7-8.3,8.3-8.3h0c4.6,0,8.3,3.7,8.3,8.3l0,0
	C130.1,260.6,126.4,264.3,121.8,264.3z"/>
<path class="st0" d="M144.5,264.3L144.5,264.3c-4.6,0-8.3-3.7-8.3-8.3l0,0c0-4.6,3.7-8.3,8.3-8.3h0c4.6,0,8.3,3.7,8.3,8.3l0,0
	C152.7,260.6,149,264.3,144.5,264.3z"/>
<path class="st0" d="M76.7,286.8L76.7,286.8c-4.6,0-8.3-3.7-8.3-8.3l0,0c0-4.6,3.7-8.3,8.3-8.3h0c4.6,0,8.3,3.7,8.3,8.3l0,0
	C85,283.1,81.3,286.8,76.7,286.8z"/>
<path class="st0" d="M99.3,286.8L99.3,286.8c-4.6,0-8.3-3.7-8.3-8.3l0,0c0-4.6,3.7-8.3,8.3-8.3h0c4.6,0,8.3,3.7,8.3,8.3l0,0
	C107.6,283.1,103.8,286.8,99.3,286.8z"/>
<path class="st0" d="M121.8,286.8L121.8,286.8c-4.6,0-8.3-3.7-8.3-8.3l0,0c0-4.6,3.7-8.3,8.3-8.3h0c4.6,0,8.3,3.7,8.3,8.3l0,0
	C130.1,283.1,126.4,286.8,121.8,286.8z"/>
<path class="st0" d="M144.5,286.8L144.5,286.8c-4.6,0-8.3-3.7-8.3-8.3l0,0c0-4.6,3.7-8.3,8.3-8.3h0c4.6,0,8.3,3.7,8.3,8.3l0,0
	C152.7,283.1,149,286.8,144.5,286.8z"/>
<path class="st0" d="M76.7,309.4L76.7,309.4c-4.6,0-8.3-3.7-8.3-8.3v0c0-4.6,3.7-8.3,8.3-8.3h0c4.6,0,8.3,3.7,8.3,8.3v0
	C85,305.7,81.3,309.4,76.7,309.4z"/>
<path class="st0" d="M99.3,309.4L99.3,309.4c-4.6,0-8.3-3.7-8.3-8.3v0c0-4.6,3.7-8.3,8.3-8.3h0c4.6,0,8.3,3.7,8.3,8.3v0
	C107.6,305.7,103.8,309.4,99.3,309.4z"/>
<path class="st0" d="M121.8,309.4L121.8,309.4c-4.6,0-8.3-3.7-8.3-8.3v0c0-4.6,3.7-8.3,8.3-8.3h0c4.6,0,8.3,3.7,8.3,8.3v0
	C130.1,305.7,126.4,309.4,121.8,309.4z"/>
<path class="st0" d="M144.5,309.4L144.5,309.4c-4.6,0-8.3-3.7-8.3-8.3v0c0-4.6,3.7-8.3,8.3-8.3h0c4.6,0,8.3,3.7,8.3,8.3v0
	C152.7,305.7,149,309.4,144.5,309.4z"/>
<path class="st0" d="M76.7,331.9L76.7,331.9c-4.6,0-8.3-3.7-8.3-8.3v0c0-4.6,3.7-8.3,8.3-8.3h0c4.6,0,8.3,3.7,8.3,8.3v0
	C85,328.2,81.3,331.9,76.7,331.9z"/>
<path class="st0" d="M99.3,331.9L99.3,331.9c-4.6,0-8.3-3.7-8.3-8.3v0c0-4.6,3.7-8.3,8.3-8.3h0c4.6,0,8.3,3.7,8.3,8.3v0
	C107.6,328.2,103.8,331.9,99.3,331.9z"/>
<path class="st0" d="M121.8,331.9L121.8,331.9c-4.6,0-8.3-3.7-8.3-8.3v0c0-4.6,3.7-8.3,8.3-8.3h0c4.6,0,8.3,3.7,8.3,8.3v0
	C130.1,328.2,126.4,331.9,121.8,331.9z"/>
<path class="st0" d="M144.5,331.9L144.5,331.9c-4.6,0-8.3-3.7-8.3-8.3v0c0-4.6,3.7-8.3,8.3-8.3h0c4.6,0,8.3,3.7,8.3,8.3v0
	C152.7,328.2,149,331.9,144.5,331.9z"/>
<path class="st0" d="M144.5,354.5L144.5,354.5c-4.6,0-8.3-3.7-8.3-8.3l0,0c0-4.6,3.7-8.3,8.3-8.3h0c4.6,0,8.3,3.7,8.3,8.3l0,0
	C152.8,350.7,149,354.5,144.5,354.5z"/>
<path class="st0" d="M76.7,354.5L76.7,354.5c-4.6,0-8.3-3.7-8.3-8.3l0,0c0-4.6,3.7-8.3,8.3-8.3h0c4.6,0,8.3,3.7,8.3,8.3l0,0
	C85,350.8,81.3,354.5,76.7,354.5z"/>
<path class="st0" d="M99.3,354.5L99.3,354.5c-4.6,0-8.3-3.7-8.3-8.3l0,0c0-4.6,3.7-8.3,8.3-8.3h0c4.6,0,8.3,3.7,8.3,8.3l0,0
	C107.6,350.8,103.8,354.5,99.3,354.5z"/>
<path class="st0" d="M76.7,377.1L76.7,377.1c-4.6,0-8.3-3.7-8.3-8.3v0c0-4.6,3.7-8.3,8.3-8.3h0c4.6,0,8.3,3.7,8.3,8.3v0
	C85,373.4,81.3,377.1,76.7,377.1z"/>
<path class="st0" d="M99.3,377.1L99.3,377.1c-4.6,0-8.3-3.7-8.3-8.3v0c0-4.6,3.7-8.3,8.3-8.3h0c4.6,0,8.3,3.7,8.3,8.3v0
	C107.6,373.4,103.8,377.1,99.3,377.1z"/>
<path class="st0" d="M121.8,354.5L121.8,354.5c-4.6,0-8.3-3.7-8.3-8.3l0,0c0-4.6,3.7-8.3,8.3-8.3h0c4.6,0,8.3,3.7,8.3,8.3l0,0
	C130.1,350.8,126.4,354.5,121.8,354.5z"/>
<path class="st0" d="M121.8,377.1L121.8,377.1c-4.6,0-8.3-3.7-8.3-8.3v0c0-4.6,3.7-8.3,8.3-8.3h0c4.6,0,8.3,3.7,8.3,8.3v0
	C130.1,373.4,126.4,377.1,121.8,377.1z"/>
<path class="st0" d="M144.5,377.1L144.5,377.1c-4.6,0-8.3-3.7-8.3-8.3v0c0-4.6,3.7-8.3,8.3-8.3h0c4.6,0,8.3,3.7,8.3,8.3v0
	C152.7,373.4,149,377.1,144.5,377.1z"/>
<path class="st0" d="M76.7,399.6L76.7,399.6c-4.6,0-8.3-3.7-8.3-8.3v0c0-4.6,3.7-8.3,8.3-8.3h0c4.6,0,8.3,3.7,8.3,8.3v0
	C85,395.9,81.3,399.6,76.7,399.6z"/>
<path class="st0" d="M99.3,399.6L99.3,399.6c-4.6,0-8.3-3.7-8.3-8.3v0c0-4.6,3.7-8.3,8.3-8.3h0c4.6,0,8.3,3.7,8.3,8.3v0
	C107.6,395.9,103.8,399.6,99.3,399.6z"/>
<path class="st0" d="M121.8,399.6L121.8,399.6c-4.6,0-8.3-3.7-8.3-8.3v0c0-4.6,3.7-8.3,8.3-8.3h0c4.6,0,8.3,3.7,8.3,8.3v0
	C130.1,395.9,126.4,399.6,121.8,399.6z"/>
<path class="st0" d="M144.5,399.6L144.5,399.6c-4.6,0-8.3-3.7-8.3-8.3v0c0-4.6,3.7-8.3,8.3-8.3h0c4.6,0,8.3,3.7,8.3,8.3v0
	C152.7,395.9,149,399.6,144.5,399.6z"/>
<path class="st0" d="M144.9,241.7L144.9,241.7c-4.6,0-8.3-3.7-8.3-8.3v0c0-4.6,3.7-8.3,8.3-8.3h0c4.6,0,8.3,3.7,8.3,8.3v0
	C153.1,237.9,149.4,241.7,144.9,241.7z"/>
<path class="st0" d="M122.2,241.7L122.2,241.7c-4.6,0-8.3-3.7-8.3-8.3v0c0-4.6,3.7-8.3,8.3-8.3h0c4.6,0,8.3,3.7,8.3,8.3v0
	C130.5,238,126.8,241.7,122.2,241.7z"/>
<path class="st0" d="M167.1,264.3L167.1,264.3c-4.6,0-8.3-3.7-8.3-8.3l0,0c0-4.6,3.7-8.3,8.3-8.3h0c4.6,0,8.3,3.7,8.3,8.3l0,0
	C175.4,260.6,171.6,264.3,167.1,264.3z"/>
<path class="st0" d="M189.7,264.3L189.7,264.3c-4.6,0-8.3-3.7-8.3-8.3l0,0c0-4.6,3.7-8.3,8.3-8.3h0c4.6,0,8.3,3.7,8.3,8.3l0,0
	C198,260.6,194.2,264.3,189.7,264.3z"/>
<path class="st0" d="M167.1,286.8L167.1,286.8c-4.6,0-8.3-3.7-8.3-8.3l0,0c0-4.6,3.7-8.3,8.3-8.3h0c4.6,0,8.3,3.7,8.3,8.3l0,0
	C175.4,283.1,171.6,286.8,167.1,286.8z"/>
<path class="st0" d="M189.7,286.8L189.7,286.8c-4.6,0-8.3-3.7-8.3-8.3l0,0c0-4.6,3.7-8.3,8.3-8.3h0c4.6,0,8.3,3.7,8.3,8.3l0,0
	C198,283.1,194.2,286.8,189.7,286.8z"/>
<path class="st0" d="M167.1,309.4L167.1,309.4c-4.6,0-8.3-3.7-8.3-8.3v0c0-4.6,3.7-8.3,8.3-8.3h0c4.6,0,8.3,3.7,8.3,8.3v0
	C175.4,305.7,171.6,309.4,167.1,309.4z"/>
<path class="st0" d="M189.7,309.4L189.7,309.4c-4.6,0-8.3-3.7-8.3-8.3v0c0-4.6,3.7-8.3,8.3-8.3h0c4.6,0,8.3,3.7,8.3,8.3v0
	C198,305.7,194.2,309.4,189.7,309.4z"/>
<path class="st0" d="M167.1,331.9L167.1,331.9c-4.6,0-8.3-3.7-8.3-8.3v0c0-4.6,3.7-8.3,8.3-8.3h0c4.6,0,8.3,3.7,8.3,8.3v0
	C175.4,328.2,171.6,331.9,167.1,331.9z"/>
<path class="st0" d="M189.7,331.9L189.7,331.9c-4.6,0-8.3-3.7-8.3-8.3v0c0-4.6,3.7-8.3,8.3-8.3h0c4.6,0,8.3,3.7,8.3,8.3v0
	C198,328.2,194.2,331.9,189.7,331.9z"/>
<path class="st0" d="M189.7,354.5L189.7,354.5c-4.6,0-8.3-3.7-8.3-8.3l0,0c0-4.6,3.7-8.3,8.3-8.3h0c4.6,0,8.3,3.7,8.3,8.3l0,0
	C198,350.7,194.3,354.5,189.7,354.5z"/>
<path class="st0" d="M167.1,354.5L167.1,354.5c-4.6,0-8.3-3.7-8.3-8.3l0,0c0-4.6,3.7-8.3,8.3-8.3h0c4.6,0,8.3,3.7,8.3,8.3l0,0
	C175.4,350.8,171.6,354.5,167.1,354.5z"/>
<path class="st0" d="M167.1,377.1L167.1,377.1c-4.6,0-8.3-3.7-8.3-8.3v0c0-4.6,3.7-8.3,8.3-8.3h0c4.6,0,8.3,3.7,8.3,8.3v0
	C175.4,373.4,171.6,377.1,167.1,377.1z"/>
<path class="st0" d="M189.7,377.1L189.7,377.1c-4.6,0-8.3-3.7-8.3-8.3v0c0-4.6,3.7-8.3,8.3-8.3h0c4.6,0,8.3,3.7,8.3,8.3v0
	C198,373.4,194.2,377.1,189.7,377.1z"/>
<path class="st0" d="M167.1,399.6L167.1,399.6c-4.6,0-8.3-3.7-8.3-8.3v0c0-4.6,3.7-8.3,8.3-8.3h0c4.6,0,8.3,3.7,8.3,8.3v0
	C175.4,395.9,171.6,399.6,167.1,399.6z"/>
<path class="st0" d="M189.7,399.6L189.7,399.6c-4.6,0-8.3-3.7-8.3-8.3v0c0-4.6,3.7-8.3,8.3-8.3h0c4.6,0,8.3,3.7,8.3,8.3v0
	C198,395.9,194.2,399.6,189.7,399.6z"/>
<path class="st0" d="M212.3,286.8L212.3,286.8c-4.6,0-8.3-3.7-8.3-8.3l0,0c0-4.6,3.7-8.3,8.3-8.3h0c4.6,0,8.3,3.7,8.3,8.3l0,0
	C220.6,283.1,216.8,286.8,212.3,286.8z"/>
<path class="st0" d="M212.3,309.4L212.3,309.4c-4.6,0-8.3-3.7-8.3-8.3v0c0-4.6,3.7-8.3,8.3-8.3h0c4.6,0,8.3,3.7,8.3,8.3v0
	C220.6,305.7,216.8,309.4,212.3,309.4z"/>
<path class="st0" d="M212.3,331.9L212.3,331.9c-4.6,0-8.3-3.7-8.3-8.3v0c0-4.6,3.7-8.3,8.3-8.3h0c4.6,0,8.3,3.7,8.3,8.3v0
	C220.6,328.2,216.8,331.9,212.3,331.9z"/>
<path class="st0" d="M212.3,354.5L212.3,354.5c-4.6,0-8.3-3.7-8.3-8.3l0,0c0-4.6,3.7-8.3,8.3-8.3h0c4.6,0,8.3,3.7,8.3,8.3l0,0
	C220.6,350.7,216.9,354.5,212.3,354.5z"/>
<path class="st0" d="M212.3,377.1L212.3,377.1c-4.6,0-8.3-3.7-8.3-8.3v0c0-4.6,3.7-8.3,8.3-8.3h0c4.6,0,8.3,3.7,8.3,8.3v0
	C220.6,373.4,216.8,377.1,212.3,377.1z"/>
<path class="st0" d="M212.3,399.6L212.3,399.6c-4.6,0-8.3-3.7-8.3-8.3v0c0-4.6,3.7-8.3,8.3-8.3h0c4.6,0,8.3,3.7,8.3,8.3v0
	C220.6,395.9,216.8,399.6,212.3,399.6z"/>
<path class="st0" d="M76.7,422.2L76.7,422.2c-4.6,0-8.3-3.7-8.3-8.3v0c0-4.6,3.7-8.3,8.3-8.3h0c4.6,0,8.3,3.7,8.3,8.3v0
	C85,418.5,81.3,422.2,76.7,422.2z"/>
<path class="st0" d="M99.3,422.2L99.3,422.2c-4.6,0-8.3-3.7-8.3-8.3v0c0-4.6,3.7-8.3,8.3-8.3h0c4.6,0,8.3,3.7,8.3,8.3v0
	C107.6,418.5,103.8,422.2,99.3,422.2z"/>
<path class="st0" d="M121.8,422.2L121.8,422.2c-4.6,0-8.3-3.7-8.3-8.3v0c0-4.6,3.7-8.3,8.3-8.3h0c4.6,0,8.3,3.7,8.3,8.3v0
	C130.1,418.5,126.4,422.2,121.8,422.2z"/>
<path class="st0" d="M144.5,422.2L144.5,422.2c-4.6,0-8.3-3.7-8.3-8.3v0c0-4.6,3.7-8.3,8.3-8.3h0c4.6,0,8.3,3.7,8.3,8.3v0
	C152.7,418.5,149,422.2,144.5,422.2z"/>
<path class="st0" d="M31.9,444.7L31.9,444.7c-4.6,0-8.3-3.7-8.3-8.3v0c0-4.6,3.7-8.3,8.3-8.3h0c4.6,0,8.3,3.7,8.3,8.3v0
	C40.1,441,36.4,444.7,31.9,444.7z"/>
<path class="st0" d="M54.4,444.7L54.4,444.7c-4.6,0-8.3-3.7-8.3-8.3v0c0-4.6,3.7-8.3,8.3-8.3h0c4.6,0,8.3,3.7,8.3,8.3v0
	C62.7,441,59,444.7,54.4,444.7z"/>
<path class="st0" d="M77,444.7L77,444.7c-4.6,0-8.3-3.7-8.3-8.3v0c0-4.6,3.7-8.3,8.3-8.3h0c4.6,0,8.3,3.7,8.3,8.3v0
	C85.3,441,81.6,444.7,77,444.7z"/>
<path class="st0" d="M99.6,444.7L99.6,444.7c-4.6,0-8.3-3.7-8.3-8.3v0c0-4.6,3.7-8.3,8.3-8.3h0c4.6,0,8.3,3.7,8.3,8.3v0
	C107.9,441,104.2,444.7,99.6,444.7z"/>
<path class="st0" d="M167.1,422.2L167.1,422.2c-4.6,0-8.3-3.7-8.3-8.3v0c0-4.6,3.7-8.3,8.3-8.3h0c4.6,0,8.3,3.7,8.3,8.3v0
	C175.4,418.5,171.6,422.2,167.1,422.2z"/>
<path class="st0" d="M189.7,422.2L189.7,422.2c-4.6,0-8.3-3.7-8.3-8.3v0c0-4.6,3.7-8.3,8.3-8.3h0c4.6,0,8.3,3.7,8.3,8.3v0
	C198,418.5,194.2,422.2,189.7,422.2z"/>
<path class="st0" d="M122.2,444.7L122.2,444.7c-4.6,0-8.3-3.7-8.3-8.3v0c0-4.6,3.7-8.3,8.3-8.3h0c4.6,0,8.3,3.7,8.3,8.3v0
	C130.5,441,126.8,444.7,122.2,444.7z"/>
<path class="st0" d="M144.8,444.7L144.8,444.7c-4.6,0-8.3-3.7-8.3-8.3v0c0-4.6,3.7-8.3,8.3-8.3h0c4.6,0,8.3,3.7,8.3,8.3v0
	C153.1,441,149.4,444.7,144.8,444.7z"/>
<path class="st0" d="M212.3,422.2L212.3,422.2c-4.6,0-8.3-3.7-8.3-8.3v0c0-4.6,3.7-8.3,8.3-8.3h0c4.6,0,8.3,3.7,8.3,8.3v0
	C220.6,418.5,216.8,422.2,212.3,422.2z"/>
<path class="st0" d="M167.4,444.7L167.4,444.7c-4.6,0-8.3-3.7-8.3-8.3v0c0-4.6,3.7-8.3,8.3-8.3h0c4.6,0,8.3,3.7,8.3,8.3v0
	C175.7,441,172,444.7,167.4,444.7z"/>
<path class="st0" d="M190,444.7L190,444.7c-4.6,0-8.3-3.7-8.3-8.3v0c0-4.6,3.7-8.3,8.3-8.3h0c4.6,0,8.3,3.7,8.3,8.3v0
	C198.3,441,194.6,444.7,190,444.7z"/>
<path class="st0" d="M212.6,444.7L212.6,444.7c-4.6,0-8.3-3.7-8.3-8.3v0c0-4.6,3.7-8.3,8.3-8.3h0c4.6,0,8.3,3.7,8.3,8.3v0
	C220.9,441,217.2,444.7,212.6,444.7z"/>
<path class="st0" d="M9.3,444.7L9.3,444.7c-4.6,0-8.3-3.7-8.3-8.3v0c0-4.6,3.7-8.3,8.3-8.3h0c4.6,0,8.3,3.7,8.3,8.3v0
	C17.6,441,13.8,444.7,9.3,444.7z"/>
<path class="st0" d="M77.1,625.8L77.1,625.8c-4.6,0-8.3-3.7-8.3-8.3l0,0c0-4.6,3.7-8.3,8.3-8.3h0c4.6,0,8.3,3.7,8.3,8.3l0,0
	C85.4,622.1,81.6,625.8,77.1,625.8z"/>
<path class="st0" d="M99.6,625.8L99.6,625.8c-4.6,0-8.3-3.7-8.3-8.3l0,0c0-4.6,3.7-8.3,8.3-8.3h0c4.6,0,8.3,3.7,8.3,8.3l0,0
	C107.9,622.1,104.2,625.8,99.6,625.8z"/>
<path class="st0" d="M8.3,625.8L8.3,625.8c-4.6,0-8.3-3.7-8.3-8.3l0,0c0-4.6,3.7-8.3,8.3-8.3h0c4.6,0,8.3,3.7,8.3,8.3l0,0
	C16.6,622.1,12.8,625.8,8.3,625.8z"/>
<path class="st0" d="M30.9,625.8L30.9,625.8c-4.6,0-8.3-3.7-8.3-8.3l0,0c0-4.6,3.7-8.3,8.3-8.3h0c4.6,0,8.3,3.7,8.3,8.3l0,0
	C39.1,622.1,35.4,625.8,30.9,625.8z"/>
<path class="st0" d="M53.4,625.8L53.4,625.8c-4.6,0-8.3-3.7-8.3-8.3l0,0c0-4.6,3.7-8.3,8.3-8.3h0c4.6,0,8.3,3.7,8.3,8.3l0,0
	C61.7,622.1,58,625.8,53.4,625.8z"/>
<path class="st0" d="M145.8,625.8L145.8,625.8c-4.6,0-8.3-3.7-8.3-8.3l0,0c0-4.6,3.7-8.3,8.3-8.3h0c4.6,0,8.3,3.7,8.3,8.3l0,0
	C154.1,622.1,150.4,625.8,145.8,625.8z"/>
<path class="st0" d="M168.4,625.8L168.4,625.8c-4.6,0-8.3-3.7-8.3-8.3l0,0c0-4.6,3.7-8.3,8.3-8.3h0c4.6,0,8.3,3.7,8.3,8.3l0,0
	C176.7,622.1,173,625.8,168.4,625.8z"/>
<path class="st0" d="M122.2,625.8L122.2,625.8c-4.6,0-8.3-3.7-8.3-8.3l0,0c0-4.6,3.7-8.3,8.3-8.3h0c4.6,0,8.3,3.7,8.3,8.3l0,0
	C130.5,622.1,126.7,625.8,122.2,625.8z"/>
<path class="st0" d="M212.4,625.8L212.4,625.8c-4.6,0-8.3-3.7-8.3-8.3l0,0c0-4.6,3.7-8.3,8.3-8.3h0c4.6,0,8.3,3.7,8.3,8.3l0,0
	C220.7,622.1,217,625.8,212.4,625.8z"/>
<path class="st0" d="M189.8,625.8L189.8,625.8c-4.6,0-8.3-3.7-8.3-8.3l0,0c0-4.6,3.7-8.3,8.3-8.3h0c4.6,0,8.3,3.7,8.3,8.3l0,0
	C198.1,622.1,194.3,625.8,189.8,625.8z"/>
<path class="st0" d="M77.1,648.4L77.1,648.4c-4.6,0-8.3-3.7-8.3-8.3l0,0c0-4.6,3.7-8.3,8.3-8.3h0c4.6,0,8.3,3.7,8.3,8.3l0,0
	C85.4,644.7,81.6,648.4,77.1,648.4z"/>
<path class="st0" d="M99.6,648.4L99.6,648.4c-4.6,0-8.3-3.7-8.3-8.3l0,0c0-4.6,3.7-8.3,8.3-8.3h0c4.6,0,8.3,3.7,8.3,8.3l0,0
	C107.9,644.7,104.2,648.4,99.6,648.4z"/>
<path class="st0" d="M8.3,648.4L8.3,648.4c-4.6,0-8.3-3.7-8.3-8.3l0,0c0-4.6,3.7-8.3,8.3-8.3h0c4.6,0,8.3,3.7,8.3,8.3l0,0
	C16.6,644.7,12.8,648.4,8.3,648.4z"/>
<path class="st0" d="M30.9,648.4L30.9,648.4c-4.6,0-8.3-3.7-8.3-8.3l0,0c0-4.6,3.7-8.3,8.3-8.3h0c4.6,0,8.3,3.7,8.3,8.3l0,0
	C39.1,644.7,35.4,648.4,30.9,648.4z"/>
<path class="st0" d="M53.4,648.4L53.4,648.4c-4.6,0-8.3-3.7-8.3-8.3l0,0c0-4.6,3.7-8.3,8.3-8.3h0c4.6,0,8.3,3.7,8.3,8.3l0,0
	C61.7,644.7,58,648.4,53.4,648.4z"/>
<path class="st0" d="M145.8,648.4L145.8,648.4c-4.6,0-8.3-3.7-8.3-8.3l0,0c0-4.6,3.7-8.3,8.3-8.3h0c4.6,0,8.3,3.7,8.3,8.3l0,0
	C154.1,644.7,150.4,648.4,145.8,648.4z"/>
<path class="st0" d="M168.4,648.4L168.4,648.4c-4.6,0-8.3-3.7-8.3-8.3l0,0c0-4.6,3.7-8.3,8.3-8.3h0c4.6,0,8.3,3.7,8.3,8.3l0,0
	C176.7,644.7,173,648.4,168.4,648.4z"/>
<path class="st0" d="M122.2,648.4L122.2,648.4c-4.6,0-8.3-3.7-8.3-8.3l0,0c0-4.6,3.7-8.3,8.3-8.3h0c4.6,0,8.3,3.7,8.3,8.3l0,0
	C130.5,644.7,126.7,648.4,122.2,648.4z"/>
<path class="st0" d="M212.4,648.4L212.4,648.4c-4.6,0-8.3-3.7-8.3-8.3l0,0c0-4.6,3.7-8.3,8.3-8.3h0c4.6,0,8.3,3.7,8.3,8.3l0,0
	C220.7,644.7,217,648.4,212.4,648.4z"/>
<path class="st0" d="M189.8,648.4L189.8,648.4c-4.6,0-8.3-3.7-8.3-8.3l0,0c0-4.6,3.7-8.3,8.3-8.3h0c4.6,0,8.3,3.7,8.3,8.3l0,0
	C198.1,644.7,194.3,648.4,189.8,648.4z"/>
<path class="st0" d="M77.1,671L77.1,671c-4.6,0-8.3-3.7-8.3-8.3l0,0c0-4.6,3.7-8.3,8.3-8.3h0c4.6,0,8.3,3.7,8.3,8.3l0,0
	C85.4,667.3,81.6,671,77.1,671z"/>
<path class="st0" d="M99.6,671L99.6,671c-4.6,0-8.3-3.7-8.3-8.3l0,0c0-4.6,3.7-8.3,8.3-8.3h0c4.6,0,8.3,3.7,8.3,8.3l0,0
	C107.9,667.3,104.2,671,99.6,671z"/>
<path class="st0" d="M8.3,671L8.3,671c-4.6,0-8.3-3.7-8.3-8.3l0,0c0-4.6,3.7-8.3,8.3-8.3h0c4.6,0,8.3,3.7,8.3,8.3l0,0
	C16.6,667.3,12.8,671,8.3,671z"/>
<path class="st0" d="M30.9,671L30.9,671c-4.6,0-8.3-3.7-8.3-8.3l0,0c0-4.6,3.7-8.3,8.3-8.3h0c4.6,0,8.3,3.7,8.3,8.3l0,0
	C39.1,667.3,35.4,671,30.9,671z"/>
<path class="st0" d="M53.4,671L53.4,671c-4.6,0-8.3-3.7-8.3-8.3l0,0c0-4.6,3.7-8.3,8.3-8.3h0c4.6,0,8.3,3.7,8.3,8.3l0,0
	C61.7,667.3,58,671,53.4,671z"/>
<path class="st0" d="M145.8,671L145.8,671c-4.6,0-8.3-3.7-8.3-8.3l0,0c0-4.6,3.7-8.3,8.3-8.3h0c4.6,0,8.3,3.7,8.3,8.3l0,0
	C154.1,667.3,150.4,671,145.8,671z"/>
<path class="st0" d="M168.4,671L168.4,671c-4.6,0-8.3-3.7-8.3-8.3l0,0c0-4.6,3.7-8.3,8.3-8.3h0c4.6,0,8.3,3.7,8.3,8.3l0,0
	C176.7,667.3,173,671,168.4,671z"/>
<path class="st0" d="M122.2,671L122.2,671c-4.6,0-8.3-3.7-8.3-8.3l0,0c0-4.6,3.7-8.3,8.3-8.3h0c4.6,0,8.3,3.7,8.3,8.3l0,0
	C130.5,667.3,126.7,671,122.2,671z"/>
<path class="st0" d="M212.4,671L212.4,671c-4.6,0-8.3-3.7-8.3-8.3l0,0c0-4.6,3.7-8.3,8.3-8.3h0c4.6,0,8.3,3.7,8.3,8.3l0,0
	C220.7,667.3,217,671,212.4,671z"/>
<path class="st0" d="M189.8,671L189.8,671c-4.6,0-8.3-3.7-8.3-8.3l0,0c0-4.6,3.7-8.3,8.3-8.3h0c4.6,0,8.3,3.7,8.3,8.3l0,0
	C198.1,667.3,194.3,671,189.8,671z"/>
<path class="st0" d="M77.1,693.7L77.1,693.7c-4.6,0-8.3-3.7-8.3-8.3l0,0c0-4.6,3.7-8.3,8.3-8.3h0c4.6,0,8.3,3.7,8.3,8.3l0,0
	C85.4,690,81.6,693.7,77.1,693.7z"/>
<path class="st0" d="M99.6,693.7L99.6,693.7c-4.6,0-8.3-3.7-8.3-8.3l0,0c0-4.6,3.7-8.3,8.3-8.3h0c4.6,0,8.3,3.7,8.3,8.3l0,0
	C107.9,690,104.2,693.7,99.6,693.7z"/>
<path class="st0" d="M8.3,693.7L8.3,693.7c-4.6,0-8.3-3.7-8.3-8.3l0,0c0-4.6,3.7-8.3,8.3-8.3h0c4.6,0,8.3,3.7,8.3,8.3l0,0
	C16.6,690,12.8,693.7,8.3,693.7z"/>
<path class="st0" d="M30.9,693.7L30.9,693.7c-4.6,0-8.3-3.7-8.3-8.3l0,0c0-4.6,3.7-8.3,8.3-8.3h0c4.6,0,8.3,3.7,8.3,8.3l0,0
	C39.1,690,35.4,693.7,30.9,693.7z"/>
<path class="st0" d="M53.4,693.7L53.4,693.7c-4.6,0-8.3-3.7-8.3-8.3l0,0c0-4.6,3.7-8.3,8.3-8.3h0c4.6,0,8.3,3.7,8.3,8.3l0,0
	C61.7,690,58,693.7,53.4,693.7z"/>
<path class="st0" d="M145.8,693.7L145.8,693.7c-4.6,0-8.3-3.7-8.3-8.3l0,0c0-4.6,3.7-8.3,8.3-8.3h0c4.6,0,8.3,3.7,8.3,8.3l0,0
	C154.1,690,150.4,693.7,145.8,693.7z"/>
<path class="st0" d="M168.4,693.7L168.4,693.7c-4.6,0-8.3-3.7-8.3-8.3l0,0c0-4.6,3.7-8.3,8.3-8.3h0c4.6,0,8.3,3.7,8.3,8.3l0,0
	C176.7,690,173,693.7,168.4,693.7z"/>
<path class="st0" d="M122.2,693.7L122.2,693.7c-4.6,0-8.3-3.7-8.3-8.3l0,0c0-4.6,3.7-8.3,8.3-8.3h0c4.6,0,8.3,3.7,8.3,8.3l0,0
	C130.5,690,126.7,693.7,122.2,693.7z"/>
<path class="st0" d="M212.4,693.7L212.4,693.7c-4.6,0-8.3-3.7-8.3-8.3l0,0c0-4.6,3.7-8.3,8.3-8.3h0c4.6,0,8.3,3.7,8.3,8.3l0,0
	C220.7,690,217,693.7,212.4,693.7z"/>
<path class="st0" d="M189.8,693.7L189.8,693.7c-4.6,0-8.3-3.7-8.3-8.3l0,0c0-4.6,3.7-8.3,8.3-8.3h0c4.6,0,8.3,3.7,8.3,8.3l0,0
	C198.1,690,194.3,693.7,189.8,693.7z"/>
<path class="st0" d="M234.8,151.4L234.8,151.4c-4.6,0-8.3-3.7-8.3-8.3v0c0-4.6,3.7-8.3,8.3-8.3h0c4.6,0,8.3,3.7,8.3,8.3v0
	C243.1,147.7,239.4,151.4,234.8,151.4z"/>
<path class="st0" d="M257.4,151.4L257.4,151.4c-4.6,0-8.3-3.7-8.3-8.3v0c0-4.6,3.7-8.3,8.3-8.3l0,0c4.6,0,8.3,3.7,8.3,8.3v0
	C265.7,147.7,261.9,151.4,257.4,151.4z"/>
<path class="st0" d="M279.9,151.4L279.9,151.4c-4.6,0-8.3-3.7-8.3-8.3v0c0-4.6,3.7-8.3,8.3-8.3l0,0c4.6,0,8.3,3.7,8.3,8.3v0
	C288.2,147.7,284.5,151.4,279.9,151.4z"/>
<path class="st0" d="M234.8,128.8L234.8,128.8c-4.6,0-8.3-3.7-8.3-8.3v0c0-4.6,3.7-8.3,8.3-8.3h0c4.6,0,8.3,3.7,8.3,8.3v0
	C243.1,125.1,239.4,128.8,234.8,128.8z"/>
<path class="st0" d="M257.4,128.8L257.4,128.8c-4.6,0-8.3-3.7-8.3-8.3v0c0-4.6,3.7-8.3,8.3-8.3l0,0c4.6,0,8.3,3.7,8.3,8.3v0
	C265.7,125.1,261.9,128.8,257.4,128.8z"/>
<path class="st0" d="M279.9,128.8L279.9,128.8c-4.6,0-8.3-3.7-8.3-8.3v0c0-4.6,3.7-8.3,8.3-8.3l0,0c4.6,0,8.3,3.7,8.3,8.3v0
	C288.2,125.1,284.5,128.8,279.9,128.8z"/>
<path class="st0" d="M234.8,174L234.8,174c-4.6,0-8.3-3.7-8.3-8.3v0c0-4.6,3.7-8.3,8.3-8.3h0c4.6,0,8.3,3.7,8.3,8.3v0
	C243.1,170.2,239.4,174,234.8,174z"/>
<path class="st0" d="M257.4,174L257.4,174c-4.6,0-8.3-3.7-8.3-8.3v0c0-4.6,3.7-8.3,8.3-8.3l0,0c4.6,0,8.3,3.7,8.3,8.3v0
	C265.7,170.2,261.9,174,257.4,174z"/>
<path class="st0" d="M280,174L280,174c-4.6,0-8.3-3.7-8.3-8.3v0c0-4.6,3.7-8.3,8.3-8.3h0c4.6,0,8.3,3.7,8.3,8.3v0
	C288.2,170.2,284.5,174,280,174z"/>
<path class="st0" d="M234.8,219.1L234.8,219.1c-4.6,0-8.3-3.7-8.3-8.3v0c0-4.6,3.7-8.3,8.3-8.3h0c4.6,0,8.3,3.7,8.3,8.3v0
	C243.1,215.4,239.3,219.1,234.8,219.1z"/>
<path class="st0" d="M257.4,219.1L257.4,219.1c-4.6,0-8.3-3.7-8.3-8.3v0c0-4.6,3.7-8.3,8.3-8.3h0c4.6,0,8.3,3.7,8.3,8.3v0
	C265.6,215.4,261.9,219.1,257.4,219.1z"/>
<path class="st0" d="M279.9,219.1L279.9,219.1c-4.6,0-8.3-3.7-8.3-8.3v0c0-4.6,3.7-8.3,8.3-8.3l0,0c4.6,0,8.3,3.7,8.3,8.3v0
	C288.2,215.4,284.5,219.1,279.9,219.1z"/>
<path class="st0" d="M234.8,196.5L234.8,196.5c-4.6,0-8.3-3.7-8.3-8.3v0c0-4.6,3.7-8.3,8.3-8.3h0c4.6,0,8.3,3.7,8.3,8.3v0
	C243.1,192.8,239.3,196.5,234.8,196.5z"/>
<path class="st0" d="M257.4,196.5L257.4,196.5c-4.6,0-8.3-3.7-8.3-8.3v0c0-4.6,3.7-8.3,8.3-8.3h0c4.6,0,8.3,3.7,8.3,8.3v0
	C265.6,192.8,261.9,196.5,257.4,196.5z"/>
<path class="st0" d="M279.9,196.5L279.9,196.5c-4.6,0-8.3-3.7-8.3-8.3v0c0-4.6,3.7-8.3,8.3-8.3l0,0c4.6,0,8.3,3.7,8.3,8.3v0
	C288.2,192.8,284.5,196.5,279.9,196.5z"/>
<path class="st0" d="M234.8,241.7L234.8,241.7c-4.6,0-8.3-3.7-8.3-8.3v0c0-4.6,3.7-8.3,8.3-8.3h0c4.6,0,8.3,3.7,8.3,8.3v0
	C243.1,238,239.4,241.7,234.8,241.7z"/>
<path class="st0" d="M257.4,241.7L257.4,241.7c-4.6,0-8.3-3.7-8.3-8.3v0c0-4.6,3.7-8.3,8.3-8.3l0,0c4.6,0,8.3,3.7,8.3,8.3v0
	C265.7,238,261.9,241.7,257.4,241.7z"/>
<path class="st0" d="M280,241.7L280,241.7c-4.6,0-8.3-3.7-8.3-8.3v0c0-4.6,3.7-8.3,8.3-8.3h0c4.6,0,8.3,3.7,8.3,8.3v0
	C288.2,238,284.5,241.7,280,241.7z"/>
<path class="st0" d="M279.6,264.3L279.6,264.3c-4.6,0-8.3-3.7-8.3-8.3v0c0-4.6,3.7-8.3,8.3-8.3h0c4.6,0,8.3,3.7,8.3,8.3v0
	C287.9,260.5,284.2,264.3,279.6,264.3z"/>
<path class="st0" d="M234.8,467.6L234.8,467.6c-4.6,0-8.3-3.7-8.3-8.3l0,0c0-4.6,3.7-8.3,8.3-8.3h0c4.6,0,8.3,3.7,8.3,8.3l0,0
	C243.1,463.9,239.4,467.6,234.8,467.6z"/>
<path class="st0" d="M257.4,467.6L257.4,467.6c-4.6,0-8.3-3.7-8.3-8.3l0,0c0-4.6,3.7-8.3,8.3-8.3l0,0c4.6,0,8.3,3.7,8.3,8.3l0,0
	C265.7,463.9,262,467.6,257.4,467.6z"/>
<path class="st0" d="M280,467.6L280,467.6c-4.6,0-8.3-3.7-8.3-8.3l0,0c0-4.6,3.7-8.3,8.3-8.3h0c4.6,0,8.3,3.7,8.3,8.3l0,0
	C288.3,463.9,284.5,467.6,280,467.6z"/>
<path class="st0" d="M257.4,512.7L257.4,512.7c-4.6,0-8.3-3.7-8.3-8.3l0,0c0-4.6,3.7-8.3,8.3-8.3h0c4.6,0,8.3,3.7,8.3,8.3l0,0
	C265.7,509,261.9,512.7,257.4,512.7z"/>
<path class="st0" d="M279.9,512.7L279.9,512.7c-4.6,0-8.3-3.7-8.3-8.3l0,0c0-4.6,3.7-8.3,8.3-8.3l0,0c4.6,0,8.3,3.7,8.3,8.3l0,0
	C288.2,509,284.5,512.7,279.9,512.7z"/>
<path class="st0" d="M234.8,490.2L234.8,490.2c-4.6,0-8.3-3.7-8.3-8.3v0c0-4.6,3.7-8.3,8.3-8.3h0c4.6,0,8.3,3.7,8.3,8.3v0
	C243.1,486.4,239.4,490.2,234.8,490.2z"/>
<path class="st0" d="M257.4,490.2L257.4,490.2c-4.6,0-8.3-3.7-8.3-8.3v0c0-4.6,3.7-8.3,8.3-8.3h0c4.6,0,8.3,3.7,8.3,8.3v0
	C265.7,486.4,261.9,490.2,257.4,490.2z"/>
<path class="st0" d="M279.9,490.2L279.9,490.2c-4.6,0-8.3-3.7-8.3-8.3v0c0-4.6,3.7-8.3,8.3-8.3l0,0c4.6,0,8.3,3.7,8.3,8.3v0
	C288.2,486.4,284.5,490.2,279.9,490.2z"/>
<path class="st0" d="M234.8,84L234.8,84c-4.6,0-8.3-3.7-8.3-8.3v0c0-4.6,3.7-8.3,8.3-8.3h0c4.6,0,8.3,3.7,8.3,8.3v0
	C243.1,80.3,239.4,84,234.8,84z"/>
<path class="st0" d="M257.4,84L257.4,84c-4.6,0-8.3-3.7-8.3-8.3v0c0-4.6,3.7-8.3,8.3-8.3l0,0c4.6,0,8.3,3.7,8.3,8.3v0
	C265.7,80.3,261.9,84,257.4,84z"/>
<path class="st0" d="M279.9,84L279.9,84c-4.6,0-8.3-3.7-8.3-8.3v0c0-4.6,3.7-8.3,8.3-8.3l0,0c4.6,0,8.3,3.7,8.3,8.3v0
	C288.2,80.3,284.5,84,279.9,84z"/>
<path class="st0" d="M280,61.4L280,61.4c-4.6,0-8.3-3.7-8.3-8.3v0c0-4.6,3.7-8.3,8.3-8.3h0c4.6,0,8.3,3.7,8.3,8.3v0
	C288.3,57.7,284.6,61.4,280,61.4z"/>
<path class="st0" d="M234.8,106.5L234.8,106.5c-4.6,0-8.3-3.7-8.3-8.3v0c0-4.6,3.7-8.3,8.3-8.3h0c4.6,0,8.3,3.7,8.3,8.3v0
	C243.1,102.8,239.4,106.5,234.8,106.5z"/>
<path class="st0" d="M257.4,106.5L257.4,106.5c-4.6,0-8.3-3.7-8.3-8.3v0c0-4.6,3.7-8.3,8.3-8.3l0,0c4.6,0,8.3,3.7,8.3,8.3v0
	C265.7,102.8,261.9,106.5,257.4,106.5z"/>
<path class="st0" d="M280,106.5L280,106.5c-4.6,0-8.3-3.7-8.3-8.3v0c0-4.6,3.7-8.3,8.3-8.3h0c4.6,0,8.3,3.7,8.3,8.3v0
	C288.2,102.8,284.5,106.5,280,106.5z"/>
<path class="st0" d="M235.1,61.4L235.1,61.4c-4.6,0-8.3-3.7-8.3-8.3v0c0-4.6,3.7-8.3,8.3-8.3h0c4.6,0,8.3,3.7,8.3,8.3v0
	C243.4,57.7,239.6,61.4,235.1,61.4z"/>
<path class="st0" d="M257.7,61.4L257.7,61.4c-4.6,0-8.3-3.7-8.3-8.3v0c0-4.6,3.7-8.3,8.3-8.3l0,0c4.6,0,8.3,3.7,8.3,8.3v0
	C265.9,57.7,262.2,61.4,257.7,61.4z"/>
<path class="st0" d="M236.1,512.8L236.1,512.8c-4.6,0-8.3-3.7-8.3-8.3v0c0-4.6,3.7-8.3,8.3-8.3h0c4.6,0,8.3,3.7,8.3,8.3v0
	C244.3,509.1,240.6,512.8,236.1,512.8z"/>
<path class="st0" d="M236.1,535.4L236.1,535.4c-4.6,0-8.3-3.7-8.3-8.3v0c0-4.6,3.7-8.3,8.3-8.3h0c4.6,0,8.3,3.7,8.3,8.3v0
	C244.3,531.6,240.6,535.4,236.1,535.4z"/>
<path class="st0" d="M280.1,535.4L280.1,535.4c-4.6,0-8.3-3.7-8.3-8.3v0c0-4.6,3.7-8.3,8.3-8.3l0,0c4.6,0,8.3,3.7,8.3,8.3v0
	C288.3,531.6,284.6,535.4,280.1,535.4z"/>
<path class="st0" d="M257.4,535.4L257.4,535.4c-4.6,0-8.3-3.7-8.3-8.3v0c0-4.6,3.7-8.3,8.3-8.3h0c4.6,0,8.3,3.7,8.3,8.3v0
	C265.7,531.6,262,535.4,257.4,535.4z"/>
<path class="st0" d="M236.1,558L236.1,558c-4.6,0-8.3-3.7-8.3-8.3l0,0c0-4.6,3.7-8.3,8.3-8.3h0c4.6,0,8.3,3.7,8.3,8.3l0,0
	C244.3,554.2,240.6,558,236.1,558z"/>
<path class="st0" d="M280.1,558L280.1,558c-4.6,0-8.3-3.7-8.3-8.3l0,0c0-4.6,3.7-8.3,8.3-8.3l0,0c4.6,0,8.3,3.7,8.3,8.3l0,0
	C288.3,554.2,284.6,558,280.1,558z"/>
<path class="st0" d="M257.4,558L257.4,558c-4.6,0-8.3-3.7-8.3-8.3l0,0c0-4.6,3.7-8.3,8.3-8.3h0c4.6,0,8.3,3.7,8.3,8.3l0,0
	C265.7,554.2,262,558,257.4,558z"/>
<path class="st0" d="M236.1,580.5L236.1,580.5c-4.6,0-8.3-3.7-8.3-8.3l0,0c0-4.6,3.7-8.3,8.3-8.3h0c4.6,0,8.3,3.7,8.3,8.3l0,0
	C244.3,576.8,240.6,580.5,236.1,580.5z"/>
<path class="st0" d="M280.1,580.5L280.1,580.5c-4.6,0-8.3-3.7-8.3-8.3l0,0c0-4.6,3.7-8.3,8.3-8.3l0,0c4.6,0,8.3,3.7,8.3,8.3l0,0
	C288.3,576.8,284.6,580.5,280.1,580.5z"/>
<path class="st0" d="M257.4,580.5L257.4,580.5c-4.6,0-8.3-3.7-8.3-8.3l0,0c0-4.6,3.7-8.3,8.3-8.3h0c4.6,0,8.3,3.7,8.3,8.3l0,0
	C265.7,576.8,262,580.5,257.4,580.5z"/>
<path class="st0" d="M236.1,603.1L236.1,603.1c-4.6,0-8.3-3.7-8.3-8.3l0,0c0-4.6,3.7-8.3,8.3-8.3h0c4.6,0,8.3,3.7,8.3,8.3l0,0
	C244.3,599.4,240.6,603.1,236.1,603.1z"/>
<path class="st0" d="M280.1,603.1L280.1,603.1c-4.6,0-8.3-3.7-8.3-8.3l0,0c0-4.6,3.7-8.3,8.3-8.3l0,0c4.6,0,8.3,3.7,8.3,8.3l0,0
	C288.3,599.4,284.6,603.1,280.1,603.1z"/>
<path class="st0" d="M257.4,603.1L257.4,603.1c-4.6,0-8.3-3.7-8.3-8.3l0,0c0-4.6,3.7-8.3,8.3-8.3h0c4.6,0,8.3,3.7,8.3,8.3l0,0
	C265.7,599.4,262,603.1,257.4,603.1z"/>
<path class="st0" d="M234.7,264.3L234.7,264.3c-4.6,0-8.3-3.7-8.3-8.3l0,0c0-4.6,3.7-8.3,8.3-8.3h0c4.6,0,8.3,3.7,8.3,8.3l0,0
	C243,260.6,239.3,264.3,234.7,264.3z"/>
<path class="st0" d="M257.3,264.3L257.3,264.3c-4.6,0-8.3-3.7-8.3-8.3l0,0c0-4.6,3.7-8.3,8.3-8.3h0c4.6,0,8.3,3.7,8.3,8.3l0,0
	C265.6,260.6,261.9,264.3,257.3,264.3z"/>
<path class="st0" d="M234.7,286.8L234.7,286.8c-4.6,0-8.3-3.7-8.3-8.3l0,0c0-4.6,3.7-8.3,8.3-8.3h0c4.6,0,8.3,3.7,8.3,8.3l0,0
	C243,283.1,239.3,286.8,234.7,286.8z"/>
<path class="st0" d="M257.3,286.8L257.3,286.8c-4.6,0-8.3-3.7-8.3-8.3l0,0c0-4.6,3.7-8.3,8.3-8.3h0c4.6,0,8.3,3.7,8.3,8.3l0,0
	C265.6,283.1,261.9,286.8,257.3,286.8z"/>
<path class="st0" d="M234.7,309.4L234.7,309.4c-4.6,0-8.3-3.7-8.3-8.3v0c0-4.6,3.7-8.3,8.3-8.3h0c4.6,0,8.3,3.7,8.3,8.3v0
	C243,305.7,239.3,309.4,234.7,309.4z"/>
<path class="st0" d="M257.3,309.4L257.3,309.4c-4.6,0-8.3-3.7-8.3-8.3v0c0-4.6,3.7-8.3,8.3-8.3h0c4.6,0,8.3,3.7,8.3,8.3v0
	C265.6,305.7,261.9,309.4,257.3,309.4z"/>
<path class="st0" d="M234.7,331.9L234.7,331.9c-4.6,0-8.3-3.7-8.3-8.3v0c0-4.6,3.7-8.3,8.3-8.3h0c4.6,0,8.3,3.7,8.3,8.3v0
	C243,328.2,239.3,331.9,234.7,331.9z"/>
<path class="st0" d="M257.3,331.9L257.3,331.9c-4.6,0-8.3-3.7-8.3-8.3v0c0-4.6,3.7-8.3,8.3-8.3h0c4.6,0,8.3,3.7,8.3,8.3v0
	C265.6,328.2,261.9,331.9,257.3,331.9z"/>
<path class="st0" d="M257.4,354.5L257.4,354.5c-4.6,0-8.3-3.7-8.3-8.3l0,0c0-4.6,3.7-8.3,8.3-8.3h0c4.6,0,8.3,3.7,8.3,8.3l0,0
	C265.6,350.7,261.9,354.5,257.4,354.5z"/>
<path class="st0" d="M234.7,354.5L234.7,354.5c-4.6,0-8.3-3.7-8.3-8.3l0,0c0-4.6,3.7-8.3,8.3-8.3h0c4.6,0,8.3,3.7,8.3,8.3l0,0
	C243,350.8,239.3,354.5,234.7,354.5z"/>
<path class="st0" d="M234.7,377.1L234.7,377.1c-4.6,0-8.3-3.7-8.3-8.3v0c0-4.6,3.7-8.3,8.3-8.3h0c4.6,0,8.3,3.7,8.3,8.3v0
	C243,373.4,239.3,377.1,234.7,377.1z"/>
<path class="st0" d="M257.3,377.1L257.3,377.1c-4.6,0-8.3-3.7-8.3-8.3v0c0-4.6,3.7-8.3,8.3-8.3h0c4.6,0,8.3,3.7,8.3,8.3v0
	C265.6,373.4,261.9,377.1,257.3,377.1z"/>
<path class="st0" d="M234.7,399.6L234.7,399.6c-4.6,0-8.3-3.7-8.3-8.3v0c0-4.6,3.7-8.3,8.3-8.3h0c4.6,0,8.3,3.7,8.3,8.3v0
	C243,395.9,239.3,399.6,234.7,399.6z"/>
<path class="st0" d="M257.3,399.6L257.3,399.6c-4.6,0-8.3-3.7-8.3-8.3v0c0-4.6,3.7-8.3,8.3-8.3h0c4.6,0,8.3,3.7,8.3,8.3v0
	C265.6,395.9,261.9,399.6,257.3,399.6z"/>
<path class="st0" d="M279.9,286.8L279.9,286.8c-4.6,0-8.3-3.7-8.3-8.3l0,0c0-4.6,3.7-8.3,8.3-8.3l0,0c4.6,0,8.3,3.7,8.3,8.3l0,0
	C288.2,283.1,284.5,286.8,279.9,286.8z"/>
<path class="st0" d="M279.9,309.4L279.9,309.4c-4.6,0-8.3-3.7-8.3-8.3v0c0-4.6,3.7-8.3,8.3-8.3l0,0c4.6,0,8.3,3.7,8.3,8.3v0
	C288.2,305.7,284.5,309.4,279.9,309.4z"/>
<path class="st0" d="M279.9,331.9L279.9,331.9c-4.6,0-8.3-3.7-8.3-8.3v0c0-4.6,3.7-8.3,8.3-8.3l0,0c4.6,0,8.3,3.7,8.3,8.3v0
	C288.2,328.2,284.5,331.9,279.9,331.9z"/>
<path class="st0" d="M280,354.5L280,354.5c-4.6,0-8.3-3.7-8.3-8.3l0,0c0-4.6,3.7-8.3,8.3-8.3h0c4.6,0,8.3,3.7,8.3,8.3l0,0
	C288.2,350.7,284.5,354.5,280,354.5z"/>
<path class="st0" d="M279.9,377.1L279.9,377.1c-4.6,0-8.3-3.7-8.3-8.3v0c0-4.6,3.7-8.3,8.3-8.3l0,0c4.6,0,8.3,3.7,8.3,8.3v0
	C288.2,373.4,284.5,377.1,279.9,377.1z"/>
<path class="st0" d="M279.9,399.6L279.9,399.6c-4.6,0-8.3-3.7-8.3-8.3v0c0-4.6,3.7-8.3,8.3-8.3l0,0c4.6,0,8.3,3.7,8.3,8.3v0
	C288.2,395.9,284.5,399.6,279.9,399.6z"/>
<path class="st0" d="M234.7,422.2L234.7,422.2c-4.6,0-8.3-3.7-8.3-8.3v0c0-4.6,3.7-8.3,8.3-8.3h0c4.6,0,8.3,3.7,8.3,8.3v0
	C243,418.5,239.3,422.2,234.7,422.2z"/>
<path class="st0" d="M257.3,422.2L257.3,422.2c-4.6,0-8.3-3.7-8.3-8.3v0c0-4.6,3.7-8.3,8.3-8.3h0c4.6,0,8.3,3.7,8.3,8.3v0
	C265.6,418.5,261.9,422.2,257.3,422.2z"/>
<path class="st0" d="M279.9,422.2L279.9,422.2c-4.6,0-8.3-3.7-8.3-8.3v0c0-4.6,3.7-8.3,8.3-8.3l0,0c4.6,0,8.3,3.7,8.3,8.3v0
	C288.2,418.5,284.5,422.2,279.9,422.2z"/>
<path class="st0" d="M235.1,444.7L235.1,444.7c-4.6,0-8.3-3.7-8.3-8.3v0c0-4.6,3.7-8.3,8.3-8.3h0c4.6,0,8.3,3.7,8.3,8.3v0
	C243.4,441,239.6,444.7,235.1,444.7z"/>
<path class="st0" d="M257.7,444.7L257.7,444.7c-4.6,0-8.3-3.7-8.3-8.3v0c0-4.6,3.7-8.3,8.3-8.3h0c4.6,0,8.3,3.7,8.3,8.3v0
	C266,441,262.2,444.7,257.7,444.7z"/>
<path class="st0" d="M280.3,444.7L280.3,444.7c-4.6,0-8.3-3.7-8.3-8.3v0c0-4.6,3.7-8.3,8.3-8.3l0,0c4.6,0,8.3,3.7,8.3,8.3v0
	C288.6,441,284.8,444.7,280.3,444.7z"/>
<path class="st0" d="M236.1,625.8L236.1,625.8c-4.6,0-8.3-3.7-8.3-8.3l0,0c0-4.6,3.7-8.3,8.3-8.3h0c4.6,0,8.3,3.7,8.3,8.3l0,0
	C244.3,622.1,240.6,625.8,236.1,625.8z"/>
<path class="st0" d="M280.1,625.8L280.1,625.8c-4.6,0-8.3-3.7-8.3-8.3l0,0c0-4.6,3.7-8.3,8.3-8.3l0,0c4.6,0,8.3,3.7,8.3,8.3l0,0
	C288.3,622.1,284.6,625.8,280.1,625.8z"/>
<path class="st0" d="M257.4,625.8L257.4,625.8c-4.6,0-8.3-3.7-8.3-8.3l0,0c0-4.6,3.7-8.3,8.3-8.3h0c4.6,0,8.3,3.7,8.3,8.3l0,0
	C265.7,622.1,262,625.8,257.4,625.8z"/>
<path class="st0" d="M236.1,648.4L236.1,648.4c-4.6,0-8.3-3.7-8.3-8.3l0,0c0-4.6,3.7-8.3,8.3-8.3h0c4.6,0,8.3,3.7,8.3,8.3l0,0
	C244.3,644.7,240.6,648.4,236.1,648.4z"/>
<path class="st0" d="M280.1,648.4L280.1,648.4c-4.6,0-8.3-3.7-8.3-8.3l0,0c0-4.6,3.7-8.3,8.3-8.3l0,0c4.6,0,8.3,3.7,8.3,8.3l0,0
	C288.3,644.7,284.6,648.4,280.1,648.4z"/>
<path class="st0" d="M257.4,648.4L257.4,648.4c-4.6,0-8.3-3.7-8.3-8.3l0,0c0-4.6,3.7-8.3,8.3-8.3h0c4.6,0,8.3,3.7,8.3,8.3l0,0
	C265.7,644.7,262,648.4,257.4,648.4z"/>
<path class="st0" d="M236.1,671L236.1,671c-4.6,0-8.3-3.7-8.3-8.3l0,0c0-4.6,3.7-8.3,8.3-8.3h0c4.6,0,8.3,3.7,8.3,8.3l0,0
	C244.3,667.3,240.6,671,236.1,671z"/>
<path class="st0" d="M280.1,671L280.1,671c-4.6,0-8.3-3.7-8.3-8.3l0,0c0-4.6,3.7-8.3,8.3-8.3l0,0c4.6,0,8.3,3.7,8.3,8.3l0,0
	C288.3,667.3,284.6,671,280.1,671z"/>
<path class="st0" d="M257.4,671L257.4,671c-4.6,0-8.3-3.7-8.3-8.3l0,0c0-4.6,3.7-8.3,8.3-8.3h0c4.6,0,8.3,3.7,8.3,8.3l0,0
	C265.7,667.3,262,671,257.4,671z"/>
<path class="st0" d="M236.1,693.7L236.1,693.7c-4.6,0-8.3-3.7-8.3-8.3l0,0c0-4.6,3.7-8.3,8.3-8.3h0c4.6,0,8.3,3.7,8.3,8.3l0,0
	C244.3,690,240.6,693.7,236.1,693.7z"/>
<path class="st0" d="M280.1,693.7L280.1,693.7c-4.6,0-8.3-3.7-8.3-8.3l0,0c0-4.6,3.7-8.3,8.3-8.3l0,0c4.6,0,8.3,3.7,8.3,8.3l0,0
	C288.3,690,284.6,693.7,280.1,693.7z"/>
<path class="st0" d="M257.4,693.7L257.4,693.7c-4.6,0-8.3-3.7-8.3-8.3l0,0c0-4.6,3.7-8.3,8.3-8.3h0c4.6,0,8.3,3.7,8.3,8.3l0,0
	C265.7,690,262,693.7,257.4,693.7z"/>
<g>
	<text transform="matrix(1 0 0 1 7.3138 123.3071)" class="st2 st3 st4">1</text>
	<text transform="matrix(1 0 0 1 29.3753 123.3071)" class="st2 st3 st4">2</text>
	<text transform="matrix(1 0 0 1 51.9495 123.3071)" class="st2 st3 st4">3</text>
	<text transform="matrix(1 0 0 1 74.4642 123.3071)" class="st2 st3 st4">4</text>
	<text transform="matrix(1 0 0 1 97.138 123.3071)" class="st2 st3 st4">5</text>
	<text transform="matrix(1 0 0 1 119.4603 123.3071)" class="st2 st3 st4">6</text>
	<text transform="matrix(1 0 0 1 142.4866 123.3071)" class="st2 st3 st4">7</text>
	<text transform="matrix(1 0 0 1 164.6771 123.3071)" class="st2 st3 st4">8</text>
	<text transform="matrix(1 0 0 1 187.1712 123.3071)" class="st2 st3 st4">9</text>
	<text transform="matrix(1 0 0 1 207.8206 123.3071)" class="st2 st3 st4">10</text>
	<text transform="matrix(1 0 0 1 7.3138 145.0718)" class="st2 st3 st4">1</text>
	<text transform="matrix(1 0 0 1 29.3753 145.0718)" class="st2 st3 st4">2</text>
	<text transform="matrix(1 0 0 1 51.9495 145.0718)" class="st2 st3 st4">3</text>
	<text transform="matrix(1 0 0 1 74.4642 145.0718)" class="st2 st3 st4">4</text>
	<text transform="matrix(1 0 0 1 97.138 145.0718)" class="st2 st3 st4">5</text>
	<text transform="matrix(1 0 0 1 119.4603 145.0718)" class="st2 st3 st4">6</text>
	<text transform="matrix(1 0 0 1 142.4866 145.0718)" class="st2 st3 st4">7</text>
	<text transform="matrix(1 0 0 1 164.6771 145.0718)" class="st2 st3 st4">8</text>
	<text transform="matrix(1 0 0 1 187.1712 145.0718)" class="st2 st3 st4">9</text>
	<text transform="matrix(1 0 0 1 207.8206 145.0718)" class="st2 st3 st4">10</text>
	<text transform="matrix(1 0 0 1 7.3138 167.4253)" class="st2 st3 st4">1</text>
	<text transform="matrix(1 0 0 1 29.3753 167.4253)" class="st2 st3 st4">2</text>
	<text transform="matrix(1 0 0 1 51.9495 167.4253)" class="st2 st3 st4">3</text>
	<text transform="matrix(1 0 0 1 74.4642 167.4253)" class="st2 st3 st4">4</text>
	<text transform="matrix(1 0 0 1 97.138 167.4253)" class="st2 st3 st4">5</text>
	<text transform="matrix(1 0 0 1 119.4603 167.4253)" class="st2 st3 st4">6</text>
	<text transform="matrix(1 0 0 1 142.4866 167.4253)" class="st2 st3 st4">7</text>
	<text transform="matrix(1 0 0 1 164.6771 167.4253)" class="st2 st3 st4">8</text>
	<text transform="matrix(1 0 0 1 187.1712 167.4253)" class="st2 st3 st4">9</text>
	<text transform="matrix(1 0 0 1 207.8206 167.4253)" class="st2 st3 st4">10</text>
	<text transform="matrix(1 0 0 1 207.8206 77.8706)" class="st2 st3 st4">10</text>
	<text transform="matrix(1 0 0 1 207.8206 55.5171)" class="st2 st3 st4">10</text>
	<text transform="matrix(1 0 0 1 231.5941 55.5171)" class="st2 st3 st4">11</text>
	<text transform="matrix(1 0 0 1 253.4012 55.5171)" class="st2 st3 st4">12</text>
	<text transform="matrix(1 0 0 1 275.7098 55.5171)" class="st2 st3 st4">13</text>
	<text transform="matrix(1 0 0 1 231.5941 77.8706)" class="st2 st3 st4">11</text>
	<text transform="matrix(1 0 0 1 253.4012 77.8706)" class="st2 st3 st4">12</text>
	<text transform="matrix(1 0 0 1 275.7098 77.8706)" class="st2 st3 st4">13</text>
	<text transform="matrix(1 0 0 1 231.5941 100.4204)" class="st2 st3 st4">11</text>
	<text transform="matrix(1 0 0 1 253.4012 100.4204)" class="st2 st3 st4">12</text>
	<text transform="matrix(1 0 0 1 275.7098 100.4204)" class="st2 st3 st4">13</text>
	<text transform="matrix(1 0 0 1 231.5941 122.6206)" class="st2 st3 st4">11</text>
	<text transform="matrix(1 0 0 1 253.4012 122.6206)" class="st2 st3 st4">12</text>
	<text transform="matrix(1 0 0 1 275.7098 122.6206)" class="st2 st3 st4">13</text>
	<text transform="matrix(1 0 0 1 231.5941 144.9741)" class="st2 st3 st4">11</text>
	<text transform="matrix(1 0 0 1 253.4012 144.9741)" class="st2 st3 st4">12</text>
	<text transform="matrix(1 0 0 1 275.7098 144.9741)" class="st2 st3 st4">13</text>
	<text transform="matrix(1 0 0 1 231.5941 167.5239)" class="st2 st3 st4">11</text>
	<text transform="matrix(1 0 0 1 253.4012 167.5239)" class="st2 st3 st4">12</text>
	<text transform="matrix(1 0 0 1 275.7098 167.5239)" class="st2 st3 st4">13</text>
	<text transform="matrix(1 0 0 1 231.5941 190.0562)" class="st2 st3 st4">11</text>
	<text transform="matrix(1 0 0 1 253.4012 190.0562)" class="st2 st3 st4">12</text>
	<text transform="matrix(1 0 0 1 275.7098 190.0562)" class="st2 st3 st4">13</text>
	<text transform="matrix(1 0 0 1 231.5941 212.4097)" class="st2 st3 st4">11</text>
	<text transform="matrix(1 0 0 1 253.4012 212.4097)" class="st2 st3 st4">12</text>
	<text transform="matrix(1 0 0 1 275.7098 212.4097)" class="st2 st3 st4">13</text>
	<text transform="matrix(1 0 0 1 231.5941 438.4399)" class="st2 st3 st4">11</text>
	<text transform="matrix(1 0 0 1 253.4012 438.4399)" class="st2 st3 st4">12</text>
	<text transform="matrix(1 0 0 1 275.7098 438.4399)" class="st2 st3 st4">13</text>
	<text transform="matrix(1 0 0 1 231.5941 461.9556)" class="st2 st3 st4">11</text>
	<text transform="matrix(1 0 0 1 253.4012 461.9556)" class="st2 st3 st4">12</text>
	<text transform="matrix(1 0 0 1 275.7098 461.9556)" class="st2 st3 st4">13</text>
	<text transform="matrix(1 0 0 1 231.5941 484.3091)" class="st2 st3 st4">11</text>
	<text transform="matrix(1 0 0 1 253.4012 484.3091)" class="st2 st3 st4">12</text>
	<text transform="matrix(1 0 0 1 275.7098 484.3091)" class="st2 st3 st4">13</text>
	<text transform="matrix(1 0 0 1 231.5941 506.8589)" class="st2 st3 st4">11</text>
	<text transform="matrix(1 0 0 1 253.4012 506.8589)" class="st2 st3 st4">12</text>
	<text transform="matrix(1 0 0 1 275.7098 506.8589)" class="st2 st3 st4">13</text>
	<text transform="matrix(1 0 0 1 231.5941 530.897)" class="st2 st3 st4">11</text>
	<text transform="matrix(1 0 0 1 253.4012 530.897)" class="st2 st3 st4">12</text>
	<text transform="matrix(1 0 0 1 275.7098 530.897)" class="st2 st3 st4">13</text>
	<text transform="matrix(1 0 0 1 231.5941 553.2505)" class="st2 st3 st4">11</text>
	<text transform="matrix(1 0 0 1 253.4012 553.2505)" class="st2 st3 st4">12</text>
	<text transform="matrix(1 0 0 1 275.7098 553.2505)" class="st2 st3 st4">13</text>
	<text transform="matrix(1 0 0 1 231.5941 575.8003)" class="st2 st3 st4">11</text>
	<text transform="matrix(1 0 0 1 253.4012 575.8003)" class="st2 st3 st4">12</text>
	<text transform="matrix(1 0 0 1 275.7098 575.8003)" class="st2 st3 st4">13</text>
	<text transform="matrix(1 0 0 1 231.5941 598.0005)" class="st2 st3 st4">11</text>
	<text transform="matrix(1 0 0 1 253.4012 598.0005)" class="st2 st3 st4">12</text>
	<text transform="matrix(1 0 0 1 275.7098 598.0005)" class="st2 st3 st4">13</text>
	<text transform="matrix(1 0 0 1 231.5941 620.354)" class="st2 st3 st4">11</text>
	<text transform="matrix(1 0 0 1 253.4012 620.354)" class="st2 st3 st4">12</text>
	<text transform="matrix(1 0 0 1 275.7098 620.354)" class="st2 st3 st4">13</text>
	<text transform="matrix(1 0 0 1 231.5941 642.9038)" class="st2 st3 st4">11</text>
	<text transform="matrix(1 0 0 1 253.4012 642.9038)" class="st2 st3 st4">12</text>
	<text transform="matrix(1 0 0 1 275.7098 642.9038)" class="st2 st3 st4">13</text>
	<text transform="matrix(1 0 0 1 231.5941 665.436)" class="st2 st3 st4">11</text>
	<text transform="matrix(1 0 0 1 253.4012 665.436)" class="st2 st3 st4">12</text>
	<text transform="matrix(1 0 0 1 275.7098 665.436)" class="st2 st3 st4">13</text>
	<text transform="matrix(1 0 0 1 231.5941 687.7896)" class="st2 st3 st4">11</text>
	<text transform="matrix(1 0 0 1 253.4012 687.7896)" class="st2 st3 st4">12</text>
	<text transform="matrix(1 0 0 1 275.7098 687.7896)" class="st2 st3 st4">13</text>
	<text transform="matrix(1 0 0 1 277.9256 11.1431)" class="st2 st3 st4">1</text>
	<text transform="matrix(1 0 0 1 207.8206 100.2241)" class="st2 st3 st4">10</text>
	<text transform="matrix(1 0 0 1 7.3138 190.0562)" class="st2 st3 st4">1</text>
	<text transform="matrix(1 0 0 1 29.3753 190.0562)" class="st2 st3 st4">2</text>
	<text transform="matrix(1 0 0 1 51.9495 190.0562)" class="st2 st3 st4">3</text>
	<text transform="matrix(1 0 0 1 74.4642 190.0562)" class="st2 st3 st4">4</text>
	<text transform="matrix(1 0 0 1 97.138 190.0562)" class="st2 st3 st4">5</text>
	<text transform="matrix(1 0 0 1 119.4603 190.0562)" class="st2 st3 st4">6</text>
	<text transform="matrix(1 0 0 1 142.4866 190.0562)" class="st2 st3 st4">7</text>
	<text transform="matrix(1 0 0 1 164.6771 190.0562)" class="st2 st3 st4">8</text>
	<text transform="matrix(1 0 0 1 187.1712 190.0562)" class="st2 st3 st4">9</text>
	<text transform="matrix(1 0 0 1 207.8206 190.0562)" class="st2 st3 st4">10</text>
	<text transform="matrix(1 0 0 1 7.3138 213.2144)" class="st2 st3 st4">1</text>
	<text transform="matrix(1 0 0 1 29.3753 213.2144)" class="st2 st3 st4">2</text>
	<text transform="matrix(1 0 0 1 51.9495 213.2144)" class="st2 st3 st4">3</text>
	<text transform="matrix(1 0 0 1 74.4642 213.2144)" class="st2 st3 st4">4</text>
	<text transform="matrix(1 0 0 1 97.138 213.2144)" class="st2 st3 st4">5</text>
	<text transform="matrix(1 0 0 1 119.4603 213.2144)" class="st2 st3 st4">6</text>
	<text transform="matrix(1 0 0 1 142.4866 213.2144)" class="st2 st3 st4">7</text>
	<text transform="matrix(1 0 0 1 164.6771 213.2144)" class="st2 st3 st4">8</text>
	<text transform="matrix(1 0 0 1 187.1712 213.2144)" class="st2 st3 st4">9</text>
	<text transform="matrix(1 0 0 1 207.8206 213.2144)" class="st2 st3 st4">10</text>
	<text transform="matrix(1 0 0 1 74.5838 259.2407)" class="st2 st3 st4">1</text>
	<text transform="matrix(1 0 0 1 96.6453 259.2407)" class="st2 st3 st4">2</text>
	<text transform="matrix(1 0 0 1 119.2196 259.2407)" class="st2 st3 st4">3</text>
	<text transform="matrix(1 0 0 1 141.7342 259.2407)" class="st2 st3 st4">4</text>
	<text transform="matrix(1 0 0 1 164.408 259.2407)" class="st2 st3 st4">5</text>
	<text transform="matrix(1 0 0 1 186.7303 259.2407)" class="st2 st3 st4">6</text>
	<text transform="matrix(1 0 0 1 209.7567 259.2407)" class="st2 st3 st4">7</text>
	<text transform="matrix(1 0 0 1 231.9471 259.2407)" class="st2 st3 st4">8</text>
	<text transform="matrix(1 0 0 1 254.1112 259.2407)" class="st2 st3 st4">9</text>
	<text transform="matrix(1 0 0 1 274.7147 259.2407)" class="st2 st3 st4">10</text>
	<text transform="matrix(1 0 0 1 74.5838 236.7192)" class="st2 st3 st4">1</text>
	<text transform="matrix(1 0 0 1 96.6453 236.7192)" class="st2 st3 st4">2</text>
	<text transform="matrix(1 0 0 1 119.2196 236.7192)" class="st2 st3 st4">3</text>
	<text transform="matrix(1 0 0 1 141.7342 236.7192)" class="st2 st3 st4">4</text>
	<text transform="matrix(1 0 0 1 164.408 236.7192)" class="st2 st3 st4">5</text>
	<text transform="matrix(1 0 0 1 186.7303 236.7192)" class="st2 st3 st4">6</text>
	<text transform="matrix(1 0 0 1 209.7567 236.7192)" class="st2 st3 st4">7</text>
	<text transform="matrix(1 0 0 1 231.9471 236.7192)" class="st2 st3 st4">8</text>
	<text transform="matrix(1 0 0 1 254.1112 236.7192)" class="st2 st3 st4">9</text>
	<text transform="matrix(1 0 0 1 274.7147 236.7192)" class="st2 st3 st4">10</text>
	<text transform="matrix(1 0 0 1 254.1112 281.4966)" class="st2 st3 st4">9</text>
	<text transform="matrix(1 0 0 1 274.7147 281.4966)" class="st2 st3 st4">10</text>
	<text transform="matrix(1 0 0 1 254.1112 304.1177)" class="st2 st3 st4">9</text>
	<text transform="matrix(1 0 0 1 274.7147 304.1177)" class="st2 st3 st4">10</text>
	<text transform="matrix(1 0 0 1 254.1112 327.2759)" class="st2 st3 st4">9</text>
	<text transform="matrix(1 0 0 1 274.7147 327.2759)" class="st2 st3 st4">10</text>
	<text transform="matrix(1 0 0 1 254.1112 349.5317)" class="st2 st3 st4">9</text>
	<text transform="matrix(1 0 0 1 274.7147 349.5317)" class="st2 st3 st4">10</text>
	<text transform="matrix(1 0 0 1 254.1112 372.1528)" class="st2 st3 st4">9</text>
	<text transform="matrix(1 0 0 1 274.7147 372.1528)" class="st2 st3 st4">10</text>
	<text transform="matrix(1 0 0 1 254.1112 394.3403)" class="st2 st3 st4">9</text>
	<text transform="matrix(1 0 0 1 274.7147 394.3403)" class="st2 st3 st4">10</text>
	<text transform="matrix(1 0 0 1 254.1112 416.9614)" class="st2 st3 st4">9</text>
	<text transform="matrix(1 0 0 1 274.7147 416.9614)" class="st2 st3 st4">10</text>
	<text transform="matrix(1 0 0 1 74.5838 281.4966)" class="st2 st3 st4">1</text>
	<text transform="matrix(1 0 0 1 96.6453 281.4966)" class="st2 st3 st4">2</text>
	<text transform="matrix(1 0 0 1 119.2196 281.4966)" class="st2 st3 st4">3</text>
	<text transform="matrix(1 0 0 1 141.7342 281.4966)" class="st2 st3 st4">4</text>
	<text transform="matrix(1 0 0 1 164.408 281.4966)" class="st2 st3 st4">5</text>
	<text transform="matrix(1 0 0 1 186.7303 281.4966)" class="st2 st3 st4">6</text>
	<text transform="matrix(1 0 0 1 209.7567 281.4966)" class="st2 st3 st4">7</text>
	<text transform="matrix(1 0 0 1 231.9471 281.4966)" class="st2 st3 st4">8</text>
	<text transform="matrix(1 0 0 1 74.5838 304.3833)" class="st2 st3 st4">1</text>
	<text transform="matrix(1 0 0 1 96.6453 304.3833)" class="st2 st3 st4">2</text>
	<text transform="matrix(1 0 0 1 119.2196 304.3833)" class="st2 st3 st4">3</text>
	<text transform="matrix(1 0 0 1 141.7342 304.3833)" class="st2 st3 st4">4</text>
	<text transform="matrix(1 0 0 1 164.408 304.3833)" class="st2 st3 st4">5</text>
	<text transform="matrix(1 0 0 1 186.7303 304.3833)" class="st2 st3 st4">6</text>
	<text transform="matrix(1 0 0 1 209.7567 304.3833)" class="st2 st3 st4">7</text>
	<text transform="matrix(1 0 0 1 231.9471 304.3833)" class="st2 st3 st4">8</text>
	<text transform="matrix(1 0 0 1 74.5838 326.1479)" class="st2 st3 st4">1</text>
	<text transform="matrix(1 0 0 1 96.6453 326.1479)" class="st2 st3 st4">2</text>
	<text transform="matrix(1 0 0 1 119.2196 326.1479)" class="st2 st3 st4">3</text>
	<text transform="matrix(1 0 0 1 141.7342 326.1479)" class="st2 st3 st4">4</text>
	<text transform="matrix(1 0 0 1 164.408 326.1479)" class="st2 st3 st4">5</text>
	<text transform="matrix(1 0 0 1 186.7303 326.1479)" class="st2 st3 st4">6</text>
	<text transform="matrix(1 0 0 1 209.7567 326.1479)" class="st2 st3 st4">7</text>
	<text transform="matrix(1 0 0 1 231.9471 326.1479)" class="st2 st3 st4">8</text>
	<text transform="matrix(1 0 0 1 74.5838 348.5015)" class="st2 st3 st4">1</text>
	<text transform="matrix(1 0 0 1 96.6453 348.5015)" class="st2 st3 st4">2</text>
	<text transform="matrix(1 0 0 1 119.2196 348.5015)" class="st2 st3 st4">3</text>
	<text transform="matrix(1 0 0 1 141.7342 348.5015)" class="st2 st3 st4">4</text>
	<text transform="matrix(1 0 0 1 164.408 348.5015)" class="st2 st3 st4">5</text>
	<text transform="matrix(1 0 0 1 186.7303 348.5015)" class="st2 st3 st4">6</text>
	<text transform="matrix(1 0 0 1 209.7567 348.5015)" class="st2 st3 st4">7</text>
	<text transform="matrix(1 0 0 1 231.9471 348.5015)" class="st2 st3 st4">8</text>
	<text transform="matrix(1 0 0 1 74.5838 371.1323)" class="st2 st3 st4">1</text>
	<text transform="matrix(1 0 0 1 96.6453 371.1323)" class="st2 st3 st4">2</text>
	<text transform="matrix(1 0 0 1 119.2196 371.1323)" class="st2 st3 st4">3</text>
	<text transform="matrix(1 0 0 1 141.7342 371.1323)" class="st2 st3 st4">4</text>
	<text transform="matrix(1 0 0 1 164.408 371.1323)" class="st2 st3 st4">5</text>
	<text transform="matrix(1 0 0 1 186.7303 371.1323)" class="st2 st3 st4">6</text>
	<text transform="matrix(1 0 0 1 209.7567 371.1323)" class="st2 st3 st4">7</text>
	<text transform="matrix(1 0 0 1 231.9471 371.1323)" class="st2 st3 st4">8</text>
	<text transform="matrix(1 0 0 1 74.5838 394.2905)" class="st2 st3 st4">1</text>
	<text transform="matrix(1 0 0 1 96.6453 394.2905)" class="st2 st3 st4">2</text>
	<text transform="matrix(1 0 0 1 119.2196 394.2905)" class="st2 st3 st4">3</text>
	<text transform="matrix(1 0 0 1 141.7342 394.2905)" class="st2 st3 st4">4</text>
	<text transform="matrix(1 0 0 1 164.408 394.2905)" class="st2 st3 st4">5</text>
	<text transform="matrix(1 0 0 1 186.7303 394.2905)" class="st2 st3 st4">6</text>
	<text transform="matrix(1 0 0 1 209.7567 394.2905)" class="st2 st3 st4">7</text>
	<text transform="matrix(1 0 0 1 231.9471 394.2905)" class="st2 st3 st4">8</text>
	<text transform="matrix(1 0 0 1 74.5838 416.3579)" class="st2 st3 st4">1</text>
	<text transform="matrix(1 0 0 1 96.6453 416.3579)" class="st2 st3 st4">2</text>
	<text transform="matrix(1 0 0 1 119.2196 416.3579)" class="st2 st3 st4">3</text>
	<text transform="matrix(1 0 0 1 141.7342 416.3579)" class="st2 st3 st4">4</text>
	<text transform="matrix(1 0 0 1 164.408 416.3579)" class="st2 st3 st4">5</text>
	<text transform="matrix(1 0 0 1 186.7303 416.3579)" class="st2 st3 st4">6</text>
	<text transform="matrix(1 0 0 1 209.7567 416.3579)" class="st2 st3 st4">7</text>
	<text transform="matrix(1 0 0 1 231.9471 416.3579)" class="st2 st3 st4">8</text>
	<text transform="matrix(1 0 0 1 7.3138 439.812)" class="st2 st3 st4">1</text>
	<text transform="matrix(1 0 0 1 29.3753 439.812)" class="st2 st3 st4">2</text>
	<text transform="matrix(1 0 0 1 51.9495 439.812)" class="st2 st3 st4">3</text>
	<text transform="matrix(1 0 0 1 74.4642 439.812)" class="st2 st3 st4">4</text>
	<text transform="matrix(1 0 0 1 97.138 439.812)" class="st2 st3 st4">5</text>
	<text transform="matrix(1 0 0 1 119.4603 439.812)" class="st2 st3 st4">6</text>
	<text transform="matrix(1 0 0 1 142.4866 439.812)" class="st2 st3 st4">7</text>
	<text transform="matrix(1 0 0 1 164.6771 439.812)" class="st2 st3 st4">8</text>
	<text transform="matrix(1 0 0 1 187.1712 439.812)" class="st2 st3 st4">9</text>
	<text transform="matrix(1 0 0 1 207.8206 439.812)" class="st2 st3 st4">10</text>
	<text transform="matrix(1 0 0 1 7.3138 462.4595)" class="st2 st3 st4">1</text>
	<text transform="matrix(1 0 0 1 29.3753 462.4595)" class="st2 st3 st4">2</text>
	<text transform="matrix(1 0 0 1 51.9495 462.4595)" class="st2 st3 st4">3</text>
	<text transform="matrix(1 0 0 1 74.4642 462.4595)" class="st2 st3 st4">4</text>
	<text transform="matrix(1 0 0 1 97.138 462.4595)" class="st2 st3 st4">5</text>
	<text transform="matrix(1 0 0 1 119.4603 462.4595)" class="st2 st3 st4">6</text>
	<text transform="matrix(1 0 0 1 142.4866 462.4595)" class="st2 st3 st4">7</text>
	<text transform="matrix(1 0 0 1 164.6771 462.4595)" class="st2 st3 st4">8</text>
	<text transform="matrix(1 0 0 1 187.1712 462.4595)" class="st2 st3 st4">9</text>
	<text transform="matrix(1 0 0 1 207.8206 462.4595)" class="st2 st3 st4">10</text>
	<text transform="matrix(1 0 0 1 7.3138 484.7153)" class="st2 st3 st4">1</text>
	<text transform="matrix(1 0 0 1 29.3753 484.7153)" class="st2 st3 st4">2</text>
	<text transform="matrix(1 0 0 1 51.9495 484.7153)" class="st2 st3 st4">3</text>
	<text transform="matrix(1 0 0 1 74.4642 484.7153)" class="st2 st3 st4">4</text>
	<text transform="matrix(1 0 0 1 97.138 484.7153)" class="st2 st3 st4">5</text>
	<text transform="matrix(1 0 0 1 119.4603 484.7153)" class="st2 st3 st4">6</text>
	<text transform="matrix(1 0 0 1 142.4866 484.7153)" class="st2 st3 st4">7</text>
	<text transform="matrix(1 0 0 1 164.6771 484.7153)" class="st2 st3 st4">8</text>
	<text transform="matrix(1 0 0 1 187.1712 484.7153)" class="st2 st3 st4">9</text>
	<text transform="matrix(1 0 0 1 207.8206 484.7153)" class="st2 st3 st4">10</text>
	<text transform="matrix(1 0 0 1 7.3138 507.6021)" class="st2 st3 st4">1</text>
	<text transform="matrix(1 0 0 1 29.3753 507.6021)" class="st2 st3 st4">2</text>
	<text transform="matrix(1 0 0 1 51.9495 507.6021)" class="st2 st3 st4">3</text>
	<text transform="matrix(1 0 0 1 74.4642 507.6021)" class="st2 st3 st4">4</text>
	<text transform="matrix(1 0 0 1 97.138 507.6021)" class="st2 st3 st4">5</text>
	<text transform="matrix(1 0 0 1 119.4603 507.6021)" class="st2 st3 st4">6</text>
	<text transform="matrix(1 0 0 1 142.4866 507.6021)" class="st2 st3 st4">7</text>
	<text transform="matrix(1 0 0 1 164.6771 507.6021)" class="st2 st3 st4">8</text>
	<text transform="matrix(1 0 0 1 187.1712 507.6021)" class="st2 st3 st4">9</text>
	<text transform="matrix(1 0 0 1 207.8206 507.6021)" class="st2 st3 st4">10</text>
	<text transform="matrix(1 0 0 1 7.3138 529.3667)" class="st2 st3 st4">1</text>
	<text transform="matrix(1 0 0 1 29.3753 529.3667)" class="st2 st3 st4">2</text>
	<text transform="matrix(1 0 0 1 51.9495 529.3667)" class="st2 st3 st4">3</text>
	<text transform="matrix(1 0 0 1 74.4642 529.3667)" class="st2 st3 st4">4</text>
	<text transform="matrix(1 0 0 1 97.138 529.3667)" class="st2 st3 st4">5</text>
	<text transform="matrix(1 0 0 1 119.4603 529.3667)" class="st2 st3 st4">6</text>
	<text transform="matrix(1 0 0 1 142.4866 529.3667)" class="st2 st3 st4">7</text>
	<text transform="matrix(1 0 0 1 164.6771 529.3667)" class="st2 st3 st4">8</text>
	<text transform="matrix(1 0 0 1 187.1712 529.3667)" class="st2 st3 st4">9</text>
	<text transform="matrix(1 0 0 1 207.8206 529.3667)" class="st2 st3 st4">10</text>
	<text transform="matrix(1 0 0 1 7.3138 551.7202)" class="st2 st3 st4">1</text>
	<text transform="matrix(1 0 0 1 29.3753 551.7202)" class="st2 st3 st4">2</text>
	<text transform="matrix(1 0 0 1 51.9495 551.7202)" class="st2 st3 st4">3</text>
	<text transform="matrix(1 0 0 1 74.4642 551.7202)" class="st2 st3 st4">4</text>
	<text transform="matrix(1 0 0 1 97.138 551.7202)" class="st2 st3 st4">5</text>
	<text transform="matrix(1 0 0 1 119.4603 551.7202)" class="st2 st3 st4">6</text>
	<text transform="matrix(1 0 0 1 142.4866 551.7202)" class="st2 st3 st4">7</text>
	<text transform="matrix(1 0 0 1 164.6771 551.7202)" class="st2 st3 st4">8</text>
	<text transform="matrix(1 0 0 1 187.1712 551.7202)" class="st2 st3 st4">9</text>
	<text transform="matrix(1 0 0 1 207.8206 551.7202)" class="st2 st3 st4">10</text>
	<text transform="matrix(1 0 0 1 7.3138 574.3511)" class="st2 st3 st4">1</text>
	<text transform="matrix(1 0 0 1 29.3753 574.3511)" class="st2 st3 st4">2</text>
	<text transform="matrix(1 0 0 1 51.9495 574.3511)" class="st2 st3 st4">3</text>
	<text transform="matrix(1 0 0 1 74.4642 574.3511)" class="st2 st3 st4">4</text>
	<text transform="matrix(1 0 0 1 97.138 574.3511)" class="st2 st3 st4">5</text>
	<text transform="matrix(1 0 0 1 119.4603 574.3511)" class="st2 st3 st4">6</text>
	<text transform="matrix(1 0 0 1 142.4866 574.3511)" class="st2 st3 st4">7</text>
	<text transform="matrix(1 0 0 1 164.6771 574.3511)" class="st2 st3 st4">8</text>
	<text transform="matrix(1 0 0 1 187.1712 574.3511)" class="st2 st3 st4">9</text>
	<text transform="matrix(1 0 0 1 207.8206 574.3511)" class="st2 st3 st4">10</text>
	<text transform="matrix(1 0 0 1 7.3138 597.5093)" class="st2 st3 st4">1</text>
	<text transform="matrix(1 0 0 1 29.3753 597.5093)" class="st2 st3 st4">2</text>
	<text transform="matrix(1 0 0 1 51.9495 597.5093)" class="st2 st3 st4">3</text>
	<text transform="matrix(1 0 0 1 74.4642 597.5093)" class="st2 st3 st4">4</text>
	<text transform="matrix(1 0 0 1 97.138 597.5093)" class="st2 st3 st4">5</text>
	<text transform="matrix(1 0 0 1 119.4603 597.5093)" class="st2 st3 st4">6</text>
	<text transform="matrix(1 0 0 1 142.4866 597.5093)" class="st2 st3 st4">7</text>
	<text transform="matrix(1 0 0 1 164.6771 597.5093)" class="st2 st3 st4">8</text>
	<text transform="matrix(1 0 0 1 187.1712 597.5093)" class="st2 st3 st4">9</text>
	<text transform="matrix(1 0 0 1 207.8206 597.5093)" class="st2 st3 st4">10</text>
	<text transform="matrix(1 0 0 1 7.3138 619.6812)" class="st2 st3 st4">1</text>
	<text transform="matrix(1 0 0 1 29.3753 619.6812)" class="st2 st3 st4">2</text>
	<text transform="matrix(1 0 0 1 51.9495 619.6812)" class="st2 st3 st4">3</text>
	<text transform="matrix(1 0 0 1 74.4642 619.6812)" class="st2 st3 st4">4</text>
	<text transform="matrix(1 0 0 1 97.138 619.6812)" class="st2 st3 st4">5</text>
	<text transform="matrix(1 0 0 1 119.4603 619.6812)" class="st2 st3 st4">6</text>
	<text transform="matrix(1 0 0 1 142.4866 619.6812)" class="st2 st3 st4">7</text>
	<text transform="matrix(1 0 0 1 164.6771 619.6812)" class="st2 st3 st4">8</text>
	<text transform="matrix(1 0 0 1 187.1712 619.6812)" class="st2 st3 st4">9</text>
	<text transform="matrix(1 0 0 1 207.8206 619.6812)" class="st2 st3 st4">10</text>
	<text transform="matrix(1 0 0 1 7.3138 643.0435)" class="st2 st3 st4">1</text>
	<text transform="matrix(1 0 0 1 29.3753 643.0435)" class="st2 st3 st4">2</text>
	<text transform="matrix(1 0 0 1 51.9495 643.0435)" class="st2 st3 st4">3</text>
	<text transform="matrix(1 0 0 1 74.4642 643.0435)" class="st2 st3 st4">4</text>
	<text transform="matrix(1 0 0 1 97.138 643.0435)" class="st2 st3 st4">5</text>
	<text transform="matrix(1 0 0 1 119.4603 643.0435)" class="st2 st3 st4">6</text>
	<text transform="matrix(1 0 0 1 142.4866 643.0435)" class="st2 st3 st4">7</text>
	<text transform="matrix(1 0 0 1 164.6771 643.0435)" class="st2 st3 st4">8</text>
	<text transform="matrix(1 0 0 1 187.1712 643.0435)" class="st2 st3 st4">9</text>
	<text transform="matrix(1 0 0 1 207.8206 643.0435)" class="st2 st3 st4">10</text>
	<text transform="matrix(1 0 0 1 7.3138 666.2017)" class="st2 st3 st4">1</text>
	<text transform="matrix(1 0 0 1 29.3753 666.2017)" class="st2 st3 st4">2</text>
	<text transform="matrix(1 0 0 1 51.9495 666.2017)" class="st2 st3 st4">3</text>
	<text transform="matrix(1 0 0 1 74.4642 666.2017)" class="st2 st3 st4">4</text>
	<text transform="matrix(1 0 0 1 97.138 666.2017)" class="st2 st3 st4">5</text>
	<text transform="matrix(1 0 0 1 119.4603 666.2017)" class="st2 st3 st4">6</text>
	<text transform="matrix(1 0 0 1 142.4866 666.2017)" class="st2 st3 st4">7</text>
	<text transform="matrix(1 0 0 1 164.6771 666.2017)" class="st2 st3 st4">8</text>
	<text transform="matrix(1 0 0 1 187.1712 666.2017)" class="st2 st3 st4">9</text>
	<text transform="matrix(1 0 0 1 207.8206 666.2017)" class="st2 st3 st4">10</text>
	<text transform="matrix(1 0 0 1 7.3138 688.3735)" class="st2 st3 st4">1</text>
	<text transform="matrix(1 0 0 1 29.3753 688.3735)" class="st2 st3 st4">2</text>
	<text transform="matrix(1 0 0 1 51.9495 688.3735)" class="st2 st3 st4">3</text>
	<text transform="matrix(1 0 0 1 74.4642 688.3735)" class="st2 st3 st4">4</text>
	<text transform="matrix(1 0 0 1 97.138 688.3735)" class="st2 st3 st4">5</text>
	<text transform="matrix(1 0 0 1 119.4603 688.3735)" class="st2 st3 st4">6</text>
	<text transform="matrix(1 0 0 1 142.4866 688.3735)" class="st2 st3 st4">7</text>
	<text transform="matrix(1 0 0 1 164.6771 688.3735)" class="st2 st3 st4">8</text>
	<text transform="matrix(1 0 0 1 187.1712 688.3735)" class="st2 st3 st4">9</text>
	<text transform="matrix(1 0 0 1 207.8206 688.3735)" class="st2 st3 st4">10</text>
</g>
<g>
	<text transform="matrix(1 0 0 1 347.4398 55.7886)" class="st5 st6 st7">29</text>
	<text transform="matrix(1 0 0 1 347.4398 11.4175)" class="st5 st6 st7">30</text>
	<text transform="matrix(1 0 0 1 347.4398 101.2847)" class="st5 st6 st7">27</text>
	<text transform="matrix(1 0 0 1 347.4398 78.7143)" class="st5 st6 st7">28</text>
	<text transform="matrix(1 0 0 1 347.4398 146.4272)" class="st5 st6 st7">25</text>
	<text transform="matrix(1 0 0 1 347.2796 327.0269)" class="st5 st6 st7">17</text>
	<text transform="matrix(1 0 0 1 347.2796 349.5786)" class="st5 st6 st7">16</text>
	<text transform="matrix(1 0 0 1 347.4398 372.2144)" class="st5 st6 st7">15</text>
	<text transform="matrix(1 0 0 1 347.4398 394.7661)" class="st5 st6 st7">14</text>
	<text transform="matrix(1 0 0 1 347.2523 417.3989)" class="st5 st6 st7">13</text>
	<text transform="matrix(1 0 0 1 347.2796 439.9517)" class="st5 st6 st7">12</text>
	<text transform="matrix(1 0 0 1 347.6155 620.6489)" class="st5 st6 st7">4</text>
	<text transform="matrix(1 0 0 1 347.6155 643.2817)" class="st5 st6 st7">3</text>
	<text transform="matrix(1 0 0 1 347.2523 665.8345)" class="st5 st6 st7">2</text>
	<text transform="matrix(1 0 0 1 347.2523 689.8354)" class="st5 st6 st7">1</text>
	<text transform="matrix(1 0 0 1 347.4398 123.8569)" class="st5 st6 st7">26</text>
	<text transform="matrix(1 0 0 1 347.4398 168.8813)" class="st5 st6 st7">24</text>
	<text transform="matrix(1 0 0 1 347.4398 214.0688)" class="st5 st6 st7">22</text>
	<text transform="matrix(1 0 0 1 347.4398 191.4985)" class="st5 st6 st7">23</text>
	<text transform="matrix(1 0 0 1 347.4398 259.2134)" class="st5 st6 st7">20</text>
	<text transform="matrix(1 0 0 1 347.4398 236.6431)" class="st5 st6 st7">21</text>
	<text transform="matrix(1 0 0 1 347.2523 304.356)" class="st5 st6 st7">18</text>
	<text transform="matrix(1 0 0 1 347.2796 281.7856)" class="st5 st6 st7">19</text>
	<text transform="matrix(1 0 0 1 347.2796 462.5054)" class="st5 st6 st7">11</text>
	<text transform="matrix(1 0 0 1 347.2796 507.6929)" class="st5 st6 st7">9</text>
	<text transform="matrix(1 0 0 1 347.2796 485.1226)" class="st5 st6 st7">10</text>
	<text transform="matrix(1 0 0 1 347.887 552.8384)" class="st5 st6 st7">7</text>
	<text transform="matrix(1 0 0 1 347.2523 530.2681)" class="st5 st6 st7">8</text>
	<text transform="matrix(1 0 0 1 347.2796 575.4106)" class="st5 st6 st7">6</text>
	<text transform="matrix(1 0 0 1 347.887 597.9937)" class="st5 st6 st7">5</text>
</g>
</svg>
