<?xml version="1.0" encoding="utf-8"?>
<!-- Generator: Adobe Illustrator 20.1.0, SVG Export Plug-In . SVG Version: 6.00 Build 0)  -->
<svg version="1.1" id="Layer_1" xmlns="http://www.w3.org/2000/svg" xmlns:xlink="http://www.w3.org/1999/xlink" x="0px" y="0px"
	 viewBox="0 0 449.2 445.5" style="enable-background:new 0 0 449.2 445.5;" xml:space="preserve">
<style type="text/css">
	.st0{fill:#D9F6E1;}
	.st1{fill:#FFFFFF;}
	.st2{fill:#737373;}
	.st3{font-family:'OsnovaPro';}
	.st4{font-size:8px;}
	.st5{fill:#7B878F;}
	.st6{font-family:'OsnovaProLight';}
	.st7{font-size:9px;}
</style>
<path class="st0" d="M121.2,16.6L121.2,16.6c-4.6,0-8.3-3.7-8.3-8.3v0c0-4.6,3.7-8.3,8.3-8.3h0c4.6,0,8.3,3.7,8.3,8.3v0
	C129.4,12.8,125.7,16.6,121.2,16.6z"/>
<path class="st0" d="M143.7,16.6L143.7,16.6c-4.6,0-8.3-3.7-8.3-8.3v0c0-4.6,3.7-8.3,8.3-8.3h0c4.6,0,8.3,3.7,8.3,8.3v0
	C152,12.8,148.3,16.6,143.7,16.6z"/>
<path class="st0" d="M166.3,16.6L166.3,16.6c-4.6,0-8.3-3.7-8.3-8.3v0c0-4.6,3.7-8.3,8.3-8.3h0c4.6,0,8.3,3.7,8.3,8.3v0
	C174.6,12.8,170.9,16.6,166.3,16.6z"/>
<path class="st0" d="M188.9,16.6L188.9,16.6c-4.6,0-8.3-3.7-8.3-8.3v0c0-4.6,3.7-8.3,8.3-8.3h0c4.6,0,8.3,3.7,8.3,8.3v0
	C197.2,12.8,193.4,16.6,188.9,16.6z"/>
<path class="st0" d="M211.4,16.6L211.4,16.6c-4.6,0-8.3-3.7-8.3-8.3v0c0-4.6,3.7-8.3,8.3-8.3h0c4.6,0,8.3,3.7,8.3,8.3v0
	C219.7,12.8,216,16.6,211.4,16.6z"/>
<path class="st0" d="M234,16.6L234,16.6c-4.6,0-8.3-3.7-8.3-8.3v0c0-4.6,3.7-8.3,8.3-8.3h0c4.6,0,8.3,3.7,8.3,8.3v0
	C242.3,12.8,238.6,16.6,234,16.6z"/>
<path class="st0" d="M256.6,16.6L256.6,16.6c-4.6,0-8.3-3.7-8.3-8.3v0c0-4.6,3.7-8.3,8.3-8.3l0,0c4.6,0,8.3,3.7,8.3,8.3v0
	C264.9,12.8,261.1,16.6,256.6,16.6z"/>
<path class="st0" d="M279.2,16.6L279.2,16.6c-4.6,0-8.3-3.7-8.3-8.3v0c0-4.6,3.7-8.3,8.3-8.3h0c4.6,0,8.3,3.7,8.3,8.3v0
	C287.4,12.8,283.7,16.6,279.2,16.6z"/>
<path class="st0" d="M301.7,16.6L301.7,16.6c-4.6,0-8.3-3.7-8.3-8.3v0c0-4.6,3.7-8.3,8.3-8.3h0c4.6,0,8.3,3.7,8.3,8.3v0
	C310,12.8,306.3,16.6,301.7,16.6z"/>
<path class="st0" d="M324.3,16.6L324.3,16.6c-4.6,0-8.3-3.7-8.3-8.3v0c0-4.6,3.7-8.3,8.3-8.3l0,0c4.6,0,8.3,3.7,8.3,8.3v0
	C332.6,12.8,328.9,16.6,324.3,16.6z"/>
<path class="st0" d="M346.9,16.6L346.9,16.6c-4.6,0-8.3-3.7-8.3-8.3v0c0-4.6,3.7-8.3,8.3-8.3l0,0c4.6,0,8.3,3.7,8.3,8.3v0
	C355.1,12.8,351.4,16.6,346.9,16.6z"/>
<path class="st0" d="M369.4,16.6L369.4,16.6c-4.6,0-8.3-3.7-8.3-8.3v0c0-4.6,3.7-8.3,8.3-8.3l0,0c4.6,0,8.3,3.7,8.3,8.3v0
	C377.7,12.8,374,16.6,369.4,16.6z"/>
<path class="st1" d="M30.9,106.9L30.9,106.9c-4.6,0-8.3-3.7-8.3-8.3v0c0-4.6,3.7-8.3,8.3-8.3h0c4.6,0,8.3,3.7,8.3,8.3v0
	C39.1,103.1,35.4,106.9,30.9,106.9z"/>
<path class="st1" d="M53.4,106.9L53.4,106.9c-4.6,0-8.3-3.7-8.3-8.3v0c0-4.6,3.7-8.3,8.3-8.3h0c4.6,0,8.3,3.7,8.3,8.3v0
	C61.7,103.1,58,106.9,53.4,106.9z"/>
<path class="st1" d="M76,106.9L76,106.9c-4.6,0-8.3-3.7-8.3-8.3v0c0-4.6,3.7-8.3,8.3-8.3h0c4.6,0,8.3,3.7,8.3,8.3v0
	C84.3,103.1,80.6,106.9,76,106.9z"/>
<path class="st1" d="M98.6,106.9L98.6,106.9c-4.6,0-8.3-3.7-8.3-8.3v0c0-4.6,3.7-8.3,8.3-8.3h0c4.6,0,8.3,3.7,8.3,8.3v0
	C106.9,103.1,103.1,106.9,98.6,106.9z"/>
<path class="st1" d="M121.1,106.9L121.1,106.9c-4.6,0-8.3-3.7-8.3-8.3v0c0-4.6,3.7-8.3,8.3-8.3h0c4.6,0,8.3,3.7,8.3,8.3v0
	C129.4,103.1,125.7,106.9,121.1,106.9z"/>
<path class="st1" d="M143.7,106.9L143.7,106.9c-4.6,0-8.3-3.7-8.3-8.3v0c0-4.6,3.7-8.3,8.3-8.3h0c4.6,0,8.3,3.7,8.3,8.3v0
	C152,103.1,148.3,106.9,143.7,106.9z"/>
<path class="st1" d="M166.3,106.9L166.3,106.9c-4.6,0-8.3-3.7-8.3-8.3v0c0-4.6,3.7-8.3,8.3-8.3h0c4.6,0,8.3,3.7,8.3,8.3v0
	C174.6,103.1,170.8,106.9,166.3,106.9z"/>
<path class="st1" d="M188.8,106.9L188.8,106.9c-4.6,0-8.3-3.7-8.3-8.3v0c0-4.6,3.7-8.3,8.3-8.3h0c4.6,0,8.3,3.7,8.3,8.3v0
	C197.1,103.1,193.4,106.9,188.8,106.9z"/>
<path class="st1" d="M211.4,106.9L211.4,106.9c-4.6,0-8.3-3.7-8.3-8.3v0c0-4.6,3.7-8.3,8.3-8.3h0c4.6,0,8.3,3.7,8.3,8.3v0
	C219.7,103.1,216,106.9,211.4,106.9z"/>
<path class="st1" d="M234,106.9L234,106.9c-4.6,0-8.3-3.7-8.3-8.3v0c0-4.6,3.7-8.3,8.3-8.3h0c4.6,0,8.3,3.7,8.3,8.3v0
	C242.3,103.1,238.5,106.9,234,106.9z"/>
<path class="st1" d="M256.6,106.9L256.6,106.9c-4.6,0-8.3-3.7-8.3-8.3v0c0-4.6,3.7-8.3,8.3-8.3h0c4.6,0,8.3,3.7,8.3,8.3v0
	C264.8,103.1,261.1,106.9,256.6,106.9z"/>
<path class="st1" d="M279.1,106.9L279.1,106.9c-4.6,0-8.3-3.7-8.3-8.3v0c0-4.6,3.7-8.3,8.3-8.3h0c4.6,0,8.3,3.7,8.3,8.3v0
	C287.4,103.1,283.7,106.9,279.1,106.9z"/>
<path class="st1" d="M301.7,106.9L301.7,106.9c-4.6,0-8.3-3.7-8.3-8.3v0c0-4.6,3.7-8.3,8.3-8.3l0,0c4.6,0,8.3,3.7,8.3,8.3v0
	C310,103.1,306.3,106.9,301.7,106.9z"/>
<path class="st1" d="M324.3,106.9L324.3,106.9c-4.6,0-8.3-3.7-8.3-8.3v0c0-4.6,3.7-8.3,8.3-8.3l0,0c4.6,0,8.3,3.7,8.3,8.3v0
	C332.6,103.1,328.8,106.9,324.3,106.9z"/>
<path class="st1" d="M8.3,84.3L8.3,84.3C3.7,84.3,0,80.6,0,76v0c0-4.6,3.7-8.3,8.3-8.3h0c4.6,0,8.3,3.7,8.3,8.3v0
	C16.6,80.6,12.8,84.3,8.3,84.3z"/>
<path class="st1" d="M30.9,84.3L30.9,84.3c-4.6,0-8.3-3.7-8.3-8.3v0c0-4.6,3.7-8.3,8.3-8.3h0c4.6,0,8.3,3.7,8.3,8.3v0
	C39.1,80.6,35.4,84.3,30.9,84.3z"/>
<path class="st1" d="M53.4,84.3L53.4,84.3c-4.6,0-8.3-3.7-8.3-8.3v0c0-4.6,3.7-8.3,8.3-8.3h0c4.6,0,8.3,3.7,8.3,8.3v0
	C61.7,80.6,58,84.3,53.4,84.3z"/>
<path class="st1" d="M76,84.3L76,84.3c-4.6,0-8.3-3.7-8.3-8.3v0c0-4.6,3.7-8.3,8.3-8.3h0c4.6,0,8.3,3.7,8.3,8.3v0
	C84.3,80.6,80.6,84.3,76,84.3z"/>
<path class="st1" d="M98.6,84.3L98.6,84.3c-4.6,0-8.3-3.7-8.3-8.3v0c0-4.6,3.7-8.3,8.3-8.3h0c4.6,0,8.3,3.7,8.3,8.3v0
	C106.9,80.6,103.1,84.3,98.6,84.3z"/>
<path class="st1" d="M121.1,84.3L121.1,84.3c-4.6,0-8.3-3.7-8.3-8.3v0c0-4.6,3.7-8.3,8.3-8.3h0c4.6,0,8.3,3.7,8.3,8.3v0
	C129.4,80.6,125.7,84.3,121.1,84.3z"/>
<path class="st1" d="M143.7,84.3L143.7,84.3c-4.6,0-8.3-3.7-8.3-8.3v0c0-4.6,3.7-8.3,8.3-8.3h0c4.6,0,8.3,3.7,8.3,8.3v0
	C152,80.6,148.3,84.3,143.7,84.3z"/>
<path class="st1" d="M166.3,84.3L166.3,84.3c-4.6,0-8.3-3.7-8.3-8.3v0c0-4.6,3.7-8.3,8.3-8.3h0c4.6,0,8.3,3.7,8.3,8.3v0
	C174.6,80.6,170.8,84.3,166.3,84.3z"/>
<path class="st1" d="M188.8,84.3L188.8,84.3c-4.6,0-8.3-3.7-8.3-8.3v0c0-4.6,3.7-8.3,8.3-8.3h0c4.6,0,8.3,3.7,8.3,8.3v0
	C197.1,80.6,193.4,84.3,188.8,84.3z"/>
<path class="st1" d="M211.4,84.3L211.4,84.3c-4.6,0-8.3-3.7-8.3-8.3v0c0-4.6,3.7-8.3,8.3-8.3h0c4.6,0,8.3,3.7,8.3,8.3v0
	C219.7,80.6,216,84.3,211.4,84.3z"/>
<path class="st1" d="M234,84.3L234,84.3c-4.6,0-8.3-3.7-8.3-8.3v0c0-4.6,3.7-8.3,8.3-8.3h0c4.6,0,8.3,3.7,8.3,8.3v0
	C242.3,80.6,238.5,84.3,234,84.3z"/>
<path class="st1" d="M256.6,84.3L256.6,84.3c-4.6,0-8.3-3.7-8.3-8.3v0c0-4.6,3.7-8.3,8.3-8.3h0c4.6,0,8.3,3.7,8.3,8.3v0
	C264.8,80.6,261.1,84.3,256.6,84.3z"/>
<path class="st1" d="M279.1,84.3L279.1,84.3c-4.6,0-8.3-3.7-8.3-8.3v0c0-4.6,3.7-8.3,8.3-8.3h0c4.6,0,8.3,3.7,8.3,8.3v0
	C287.4,80.6,283.7,84.3,279.1,84.3z"/>
<path class="st1" d="M301.7,84.3L301.7,84.3c-4.6,0-8.3-3.7-8.3-8.3v0c0-4.6,3.7-8.3,8.3-8.3l0,0c4.6,0,8.3,3.7,8.3,8.3v0
	C310,80.6,306.3,84.3,301.7,84.3z"/>
<path class="st1" d="M324.3,84.3L324.3,84.3c-4.6,0-8.3-3.7-8.3-8.3v0c0-4.6,3.7-8.3,8.3-8.3l0,0c4.6,0,8.3,3.7,8.3,8.3v0
	C332.6,80.6,328.8,84.3,324.3,84.3z"/>
<path class="st1" d="M53.5,152L53.5,152c-4.6,0-8.3-3.7-8.3-8.3v0c0-4.6,3.7-8.3,8.3-8.3h0c4.6,0,8.3,3.7,8.3,8.3v0
	C61.7,148.3,58,152,53.5,152z"/>
<path class="st1" d="M76,152L76,152c-4.6,0-8.3-3.7-8.3-8.3v0c0-4.6,3.7-8.3,8.3-8.3h0c4.6,0,8.3,3.7,8.3,8.3v0
	C84.3,148.3,80.6,152,76,152z"/>
<path class="st1" d="M98.6,152L98.6,152c-4.6,0-8.3-3.7-8.3-8.3v0c0-4.6,3.7-8.3,8.3-8.3h0c4.6,0,8.3,3.7,8.3,8.3v0
	C106.9,148.3,103.1,152,98.6,152z"/>
<path class="st1" d="M121.2,152L121.2,152c-4.6,0-8.3-3.7-8.3-8.3v0c0-4.6,3.7-8.3,8.3-8.3h0c4.6,0,8.3,3.7,8.3,8.3v0
	C129.4,148.3,125.7,152,121.2,152z"/>
<path class="st1" d="M143.7,152L143.7,152c-4.6,0-8.3-3.7-8.3-8.3v0c0-4.6,3.7-8.3,8.3-8.3h0c4.6,0,8.3,3.7,8.3,8.3v0
	C152,148.3,148.3,152,143.7,152z"/>
<path class="st1" d="M166.3,152L166.3,152c-4.6,0-8.3-3.7-8.3-8.3v0c0-4.6,3.7-8.3,8.3-8.3h0c4.6,0,8.3,3.7,8.3,8.3v0
	C174.6,148.3,170.9,152,166.3,152z"/>
<path class="st1" d="M188.9,152L188.9,152c-4.6,0-8.3-3.7-8.3-8.3v0c0-4.6,3.7-8.3,8.3-8.3h0c4.6,0,8.3,3.7,8.3,8.3v0
	C197.2,148.3,193.4,152,188.9,152z"/>
<path class="st1" d="M211.4,152L211.4,152c-4.6,0-8.3-3.7-8.3-8.3v0c0-4.6,3.7-8.3,8.3-8.3h0c4.6,0,8.3,3.7,8.3,8.3v0
	C219.7,148.3,216,152,211.4,152z"/>
<path class="st1" d="M234,152L234,152c-4.6,0-8.3-3.7-8.3-8.3v0c0-4.6,3.7-8.3,8.3-8.3h0c4.6,0,8.3,3.7,8.3,8.3v0
	C242.3,148.3,238.6,152,234,152z"/>
<path class="st1" d="M256.6,152L256.6,152c-4.6,0-8.3-3.7-8.3-8.3v0c0-4.6,3.7-8.3,8.3-8.3l0,0c4.6,0,8.3,3.7,8.3,8.3v0
	C264.9,148.3,261.1,152,256.6,152z"/>
<path class="st1" d="M279.2,152L279.2,152c-4.6,0-8.3-3.7-8.3-8.3v0c0-4.6,3.7-8.3,8.3-8.3l0,0c4.6,0,8.3,3.7,8.3,8.3v0
	C287.4,148.3,283.7,152,279.2,152z"/>
<path class="st1" d="M301.7,152L301.7,152c-4.6,0-8.3-3.7-8.3-8.3v0c0-4.6,3.7-8.3,8.3-8.3h0c4.6,0,8.3,3.7,8.3,8.3v0
	C310,148.3,306.3,152,301.7,152z"/>
<path class="st1" d="M324.3,152L324.3,152c-4.6,0-8.3-3.7-8.3-8.3v0c0-4.6,3.7-8.3,8.3-8.3h0c4.6,0,8.3,3.7,8.3,8.3v0
	C332.6,148.3,328.9,152,324.3,152z"/>
<path class="st1" d="M121.1,332.6L121.1,332.6c-4.6,0-8.3-3.7-8.3-8.3l0,0c0-4.6,3.7-8.3,8.3-8.3h0c4.6,0,8.3,3.7,8.3,8.3l0,0
	C129.3,328.9,125.6,332.6,121.1,332.6z"/>
<path class="st1" d="M143.6,332.6L143.6,332.6c-4.6,0-8.3-3.7-8.3-8.3l0,0c0-4.6,3.7-8.3,8.3-8.3h0c4.6,0,8.3,3.7,8.3,8.3l0,0
	C151.9,328.9,148.2,332.6,143.6,332.6z"/>
<path class="st1" d="M166.2,332.6L166.2,332.6c-4.6,0-8.3-3.7-8.3-8.3l0,0c0-4.6,3.7-8.3,8.3-8.3h0c4.6,0,8.3,3.7,8.3,8.3l0,0
	C174.5,328.9,170.8,332.6,166.2,332.6z"/>
<path class="st1" d="M188.8,332.6L188.8,332.6c-4.6,0-8.3-3.7-8.3-8.3l0,0c0-4.6,3.7-8.3,8.3-8.3h0c4.6,0,8.3,3.7,8.3,8.3l0,0
	C197,328.9,193.3,332.6,188.8,332.6z"/>
<path class="st1" d="M211.3,332.6L211.3,332.6c-4.6,0-8.3-3.7-8.3-8.3l0,0c0-4.6,3.7-8.3,8.3-8.3h0c4.6,0,8.3,3.7,8.3,8.3l0,0
	C219.6,328.9,215.9,332.6,211.3,332.6z"/>
<path class="st1" d="M233.9,332.6L233.9,332.6c-4.6,0-8.3-3.7-8.3-8.3l0,0c0-4.6,3.7-8.3,8.3-8.3h0c4.6,0,8.3,3.7,8.3,8.3l0,0
	C242.2,328.9,238.5,332.6,233.9,332.6z"/>
<path class="st1" d="M256.5,332.6L256.5,332.6c-4.6,0-8.3-3.7-8.3-8.3l0,0c0-4.6,3.7-8.3,8.3-8.3l0,0c4.6,0,8.3,3.7,8.3,8.3l0,0
	C264.8,328.9,261,332.6,256.5,332.6z"/>
<path class="st1" d="M279,332.6L279,332.6c-4.6,0-8.3-3.7-8.3-8.3l0,0c0-4.6,3.7-8.3,8.3-8.3h0c4.6,0,8.3,3.7,8.3,8.3l0,0
	C287.3,328.9,283.6,332.6,279,332.6z"/>
<path class="st1" d="M301.6,332.6L301.6,332.6c-4.6,0-8.3-3.7-8.3-8.3l0,0c0-4.6,3.7-8.3,8.3-8.3h0c4.6,0,8.3,3.7,8.3,8.3l0,0
	C309.9,328.9,306.2,332.6,301.6,332.6z"/>
<path class="st1" d="M324.2,332.6L324.2,332.6c-4.6,0-8.3-3.7-8.3-8.3l0,0c0-4.6,3.7-8.3,8.3-8.3h0c4.6,0,8.3,3.7,8.3,8.3l0,0
	C332.5,328.9,328.7,332.6,324.2,332.6z"/>
<path class="st1" d="M143.6,355.2L143.6,355.2c-4.6,0-8.3-3.7-8.3-8.3v0c0-4.6,3.7-8.3,8.3-8.3h0c4.6,0,8.3,3.7,8.3,8.3v0
	C151.9,351.4,148.2,355.2,143.6,355.2z"/>
<path class="st1" d="M166.2,355.2L166.2,355.2c-4.6,0-8.3-3.7-8.3-8.3v0c0-4.6,3.7-8.3,8.3-8.3h0c4.6,0,8.3,3.7,8.3,8.3v0
	C174.5,351.4,170.8,355.2,166.2,355.2z"/>
<path class="st1" d="M188.8,355.2L188.8,355.2c-4.6,0-8.3-3.7-8.3-8.3v0c0-4.6,3.7-8.3,8.3-8.3h0c4.6,0,8.3,3.7,8.3,8.3v0
	C197,351.4,193.3,355.2,188.8,355.2z"/>
<path class="st1" d="M211.3,355.2L211.3,355.2c-4.6,0-8.3-3.7-8.3-8.3v0c0-4.6,3.7-8.3,8.3-8.3h0c4.6,0,8.3,3.7,8.3,8.3v0
	C219.6,351.4,215.9,355.2,211.3,355.2z"/>
<path class="st1" d="M233.9,355.2L233.9,355.2c-4.6,0-8.3-3.7-8.3-8.3v0c0-4.6,3.7-8.3,8.3-8.3h0c4.6,0,8.3,3.7,8.3,8.3v0
	C242.2,351.4,238.5,355.2,233.9,355.2z"/>
<path class="st1" d="M256.5,355.2L256.5,355.2c-4.6,0-8.3-3.7-8.3-8.3v0c0-4.6,3.7-8.3,8.3-8.3l0,0c4.6,0,8.3,3.7,8.3,8.3v0
	C264.8,351.4,261,355.2,256.5,355.2z"/>
<path class="st1" d="M279,355.2L279,355.2c-4.6,0-8.3-3.7-8.3-8.3v0c0-4.6,3.7-8.3,8.3-8.3h0c4.6,0,8.3,3.7,8.3,8.3v0
	C287.3,351.4,283.6,355.2,279,355.2z"/>
<path class="st1" d="M301.6,355.2L301.6,355.2c-4.6,0-8.3-3.7-8.3-8.3v0c0-4.6,3.7-8.3,8.3-8.3h0c4.6,0,8.3,3.7,8.3,8.3v0
	C309.9,351.4,306.2,355.2,301.6,355.2z"/>
<path class="st1" d="M324.2,355.2L324.2,355.2c-4.6,0-8.3-3.7-8.3-8.3v0c0-4.6,3.7-8.3,8.3-8.3h0c4.6,0,8.3,3.7,8.3,8.3v0
	C332.5,351.4,328.7,355.2,324.2,355.2z"/>
<path class="st1" d="M143.6,377.8L143.6,377.8c-4.6,0-8.3-3.7-8.3-8.3l0,0c0-4.6,3.7-8.3,8.3-8.3h0c4.6,0,8.3,3.7,8.3,8.3l0,0
	C151.9,374.1,148.2,377.8,143.6,377.8z"/>
<path class="st1" d="M166.2,377.8L166.2,377.8c-4.6,0-8.3-3.7-8.3-8.3l0,0c0-4.6,3.7-8.3,8.3-8.3h0c4.6,0,8.3,3.7,8.3,8.3l0,0
	C174.5,374.1,170.8,377.8,166.2,377.8z"/>
<path class="st1" d="M188.8,377.8L188.8,377.8c-4.6,0-8.3-3.7-8.3-8.3l0,0c0-4.6,3.7-8.3,8.3-8.3h0c4.6,0,8.3,3.7,8.3,8.3l0,0
	C197,374.1,193.3,377.8,188.8,377.8z"/>
<path class="st1" d="M211.3,377.8L211.3,377.8c-4.6,0-8.3-3.7-8.3-8.3l0,0c0-4.6,3.7-8.3,8.3-8.3h0c4.6,0,8.3,3.7,8.3,8.3l0,0
	C219.6,374.1,215.9,377.8,211.3,377.8z"/>
<path class="st1" d="M233.9,377.8L233.9,377.8c-4.6,0-8.3-3.7-8.3-8.3l0,0c0-4.6,3.7-8.3,8.3-8.3h0c4.6,0,8.3,3.7,8.3,8.3l0,0
	C242.2,374.1,238.5,377.8,233.9,377.8z"/>
<path class="st1" d="M256.5,377.8L256.5,377.8c-4.6,0-8.3-3.7-8.3-8.3l0,0c0-4.6,3.7-8.3,8.3-8.3l0,0c4.6,0,8.3,3.7,8.3,8.3l0,0
	C264.8,374.1,261,377.8,256.5,377.8z"/>
<path class="st1" d="M279,377.8L279,377.8c-4.6,0-8.3-3.7-8.3-8.3l0,0c0-4.6,3.7-8.3,8.3-8.3h0c4.6,0,8.3,3.7,8.3,8.3l0,0
	C287.3,374.1,283.6,377.8,279,377.8z"/>
<path class="st1" d="M301.6,377.8L301.6,377.8c-4.6,0-8.3-3.7-8.3-8.3l0,0c0-4.6,3.7-8.3,8.3-8.3h0c4.6,0,8.3,3.7,8.3,8.3l0,0
	C309.9,374.1,306.2,377.8,301.6,377.8z"/>
<path class="st1" d="M324.2,377.8L324.2,377.8c-4.6,0-8.3-3.7-8.3-8.3l0,0c0-4.6,3.7-8.3,8.3-8.3h0c4.6,0,8.3,3.7,8.3,8.3l0,0
	C332.5,374.1,328.7,377.8,324.2,377.8z"/>
<path class="st1" d="M166.2,400.3L166.2,400.3c-4.6,0-8.3-3.7-8.3-8.3v0c0-4.6,3.7-8.3,8.3-8.3h0c4.6,0,8.3,3.7,8.3,8.3v0
	C174.5,396.6,170.8,400.3,166.2,400.3z"/>
<path class="st1" d="M188.8,400.3L188.8,400.3c-4.6,0-8.3-3.7-8.3-8.3v0c0-4.6,3.7-8.3,8.3-8.3h0c4.6,0,8.3,3.7,8.3,8.3v0
	C197,396.6,193.3,400.3,188.8,400.3z"/>
<path class="st1" d="M211.3,400.3L211.3,400.3c-4.6,0-8.3-3.7-8.3-8.3v0c0-4.6,3.7-8.3,8.3-8.3h0c4.6,0,8.3,3.7,8.3,8.3v0
	C219.6,396.6,215.9,400.3,211.3,400.3z"/>
<path class="st1" d="M233.9,400.3L233.9,400.3c-4.6,0-8.3-3.7-8.3-8.3v0c0-4.6,3.7-8.3,8.3-8.3h0c4.6,0,8.3,3.7,8.3,8.3v0
	C242.2,396.6,238.5,400.3,233.9,400.3z"/>
<path class="st1" d="M256.5,400.3L256.5,400.3c-4.6,0-8.3-3.7-8.3-8.3v0c0-4.6,3.7-8.3,8.3-8.3l0,0c4.6,0,8.3,3.7,8.3,8.3v0
	C264.8,396.6,261,400.3,256.5,400.3z"/>
<path class="st1" d="M279,400.3L279,400.3c-4.6,0-8.3-3.7-8.3-8.3v0c0-4.6,3.7-8.3,8.3-8.3h0c4.6,0,8.3,3.7,8.3,8.3v0
	C287.3,396.6,283.6,400.3,279,400.3z"/>
<path class="st1" d="M301.6,400.3L301.6,400.3c-4.6,0-8.3-3.7-8.3-8.3v0c0-4.6,3.7-8.3,8.3-8.3h0c4.6,0,8.3,3.7,8.3,8.3v0
	C309.9,396.6,306.2,400.3,301.6,400.3z"/>
<path class="st1" d="M324.2,400.3L324.2,400.3c-4.6,0-8.3-3.7-8.3-8.3v0c0-4.6,3.7-8.3,8.3-8.3h0c4.6,0,8.3,3.7,8.3,8.3v0
	C332.5,396.6,328.7,400.3,324.2,400.3z"/>
<path class="st1" d="M166.2,423L166.2,423c-4.6,0-8.3-3.7-8.3-8.3l0,0c0-4.6,3.7-8.3,8.3-8.3h0c4.6,0,8.3,3.7,8.3,8.3l0,0
	C174.5,419.2,170.8,423,166.2,423z"/>
<path class="st1" d="M188.8,423L188.8,423c-4.6,0-8.3-3.7-8.3-8.3l0,0c0-4.6,3.7-8.3,8.3-8.3h0c4.6,0,8.3,3.7,8.3,8.3l0,0
	C197,419.2,193.3,423,188.8,423z"/>
<path class="st1" d="M211.3,423L211.3,423c-4.6,0-8.3-3.7-8.3-8.3l0,0c0-4.6,3.7-8.3,8.3-8.3h0c4.6,0,8.3,3.7,8.3,8.3l0,0
	C219.6,419.2,215.9,423,211.3,423z"/>
<path class="st1" d="M233.9,423L233.9,423c-4.6,0-8.3-3.7-8.3-8.3l0,0c0-4.6,3.7-8.3,8.3-8.3h0c4.6,0,8.3,3.7,8.3,8.3l0,0
	C242.2,419.2,238.5,423,233.9,423z"/>
<path class="st1" d="M256.5,423L256.5,423c-4.6,0-8.3-3.7-8.3-8.3l0,0c0-4.6,3.7-8.3,8.3-8.3l0,0c4.6,0,8.3,3.7,8.3,8.3l0,0
	C264.8,419.2,261,423,256.5,423z"/>
<path class="st1" d="M279,423L279,423c-4.6,0-8.3-3.7-8.3-8.3l0,0c0-4.6,3.7-8.3,8.3-8.3h0c4.6,0,8.3,3.7,8.3,8.3l0,0
	C287.3,419.2,283.6,423,279,423z"/>
<path class="st1" d="M301.6,423L301.6,423c-4.6,0-8.3-3.7-8.3-8.3l0,0c0-4.6,3.7-8.3,8.3-8.3h0c4.6,0,8.3,3.7,8.3,8.3l0,0
	C309.9,419.2,306.2,423,301.6,423z"/>
<path class="st1" d="M324.2,423L324.2,423c-4.6,0-8.3-3.7-8.3-8.3l0,0c0-4.6,3.7-8.3,8.3-8.3h0c4.6,0,8.3,3.7,8.3,8.3l0,0
	C332.5,419.2,328.7,423,324.2,423z"/>
<path class="st1" d="M188.9,445.5L188.9,445.5c-4.6,0-8.3-3.7-8.3-8.3v0c0-4.6,3.7-8.3,8.3-8.3h0c4.6,0,8.3,3.7,8.3,8.3v0
	C197.2,441.8,193.4,445.5,188.9,445.5z"/>
<path class="st1" d="M166.2,445.5L166.2,445.5c-4.6,0-8.3-3.7-8.3-8.3v0c0-4.6,3.7-8.3,8.3-8.3h0c4.6,0,8.3,3.7,8.3,8.3v0
	C174.5,441.8,170.8,445.5,166.2,445.5z"/>
<path class="st1" d="M211.4,445.5L211.4,445.5c-4.6,0-8.3-3.7-8.3-8.3v0c0-4.6,3.7-8.3,8.3-8.3h0c4.6,0,8.3,3.7,8.3,8.3v0
	C219.7,441.8,216,445.5,211.4,445.5z"/>
<path class="st1" d="M234,445.5L234,445.5c-4.6,0-8.3-3.7-8.3-8.3v0c0-4.6,3.7-8.3,8.3-8.3h0c4.6,0,8.3,3.7,8.3,8.3v0
	C242.3,441.8,238.6,445.5,234,445.5z"/>
<path class="st1" d="M256.6,445.5L256.6,445.5c-4.6,0-8.3-3.7-8.3-8.3v0c0-4.6,3.7-8.3,8.3-8.3l0,0c4.6,0,8.3,3.7,8.3,8.3v0
	C264.9,441.8,261.1,445.5,256.6,445.5z"/>
<path class="st1" d="M279.2,445.5L279.2,445.5c-4.6,0-8.3-3.7-8.3-8.3v0c0-4.6,3.7-8.3,8.3-8.3l0,0c4.6,0,8.3,3.7,8.3,8.3v0
	C287.4,441.8,283.7,445.5,279.2,445.5z"/>
<path class="st1" d="M301.7,445.5L301.7,445.5c-4.6,0-8.3-3.7-8.3-8.3v0c0-4.6,3.7-8.3,8.3-8.3h0c4.6,0,8.3,3.7,8.3,8.3v0
	C310,441.8,306.3,445.5,301.7,445.5z"/>
<path class="st1" d="M324.3,445.5L324.3,445.5c-4.6,0-8.3-3.7-8.3-8.3v0c0-4.6,3.7-8.3,8.3-8.3h0c4.6,0,8.3,3.7,8.3,8.3v0
	C332.6,441.8,328.9,445.5,324.3,445.5z"/>
<path class="st1" d="M30.9,129.4L30.9,129.4c-4.6,0-8.3-3.7-8.3-8.3v0c0-4.6,3.7-8.3,8.3-8.3h0c4.6,0,8.3,3.7,8.3,8.3v0
	C39.2,125.7,35.4,129.4,30.9,129.4z"/>
<path class="st1" d="M53.5,129.4L53.5,129.4c-4.6,0-8.3-3.7-8.3-8.3v0c0-4.6,3.7-8.3,8.3-8.3h0c4.6,0,8.3,3.7,8.3,8.3v0
	C61.7,125.7,58,129.4,53.5,129.4z"/>
<path class="st1" d="M76,129.4L76,129.4c-4.6,0-8.3-3.7-8.3-8.3v0c0-4.6,3.7-8.3,8.3-8.3h0c4.6,0,8.3,3.7,8.3,8.3v0
	C84.3,125.7,80.6,129.4,76,129.4z"/>
<path class="st1" d="M98.6,129.4L98.6,129.4c-4.6,0-8.3-3.7-8.3-8.3v0c0-4.6,3.7-8.3,8.3-8.3h0c4.6,0,8.3,3.7,8.3,8.3v0
	C106.9,125.7,103.1,129.4,98.6,129.4z"/>
<path class="st1" d="M121.2,129.4L121.2,129.4c-4.6,0-8.3-3.7-8.3-8.3v0c0-4.6,3.7-8.3,8.3-8.3h0c4.6,0,8.3,3.7,8.3,8.3v0
	C129.4,125.7,125.7,129.4,121.2,129.4z"/>
<path class="st1" d="M143.7,129.4L143.7,129.4c-4.6,0-8.3-3.7-8.3-8.3v0c0-4.6,3.7-8.3,8.3-8.3h0c4.6,0,8.3,3.7,8.3,8.3v0
	C152,125.7,148.3,129.4,143.7,129.4z"/>
<path class="st1" d="M166.3,129.4L166.3,129.4c-4.6,0-8.3-3.7-8.3-8.3v0c0-4.6,3.7-8.3,8.3-8.3h0c4.6,0,8.3,3.7,8.3,8.3v0
	C174.6,125.7,170.9,129.4,166.3,129.4z"/>
<path class="st1" d="M188.9,129.4L188.9,129.4c-4.6,0-8.3-3.7-8.3-8.3v0c0-4.6,3.7-8.3,8.3-8.3h0c4.6,0,8.3,3.7,8.3,8.3v0
	C197.2,125.7,193.4,129.4,188.9,129.4z"/>
<path class="st1" d="M211.4,129.4L211.4,129.4c-4.6,0-8.3-3.7-8.3-8.3v0c0-4.6,3.7-8.3,8.3-8.3h0c4.6,0,8.3,3.7,8.3,8.3v0
	C219.7,125.7,216,129.4,211.4,129.4z"/>
<path class="st1" d="M234,129.4L234,129.4c-4.6,0-8.3-3.7-8.3-8.3v0c0-4.6,3.7-8.3,8.3-8.3h0c4.6,0,8.3,3.7,8.3,8.3v0
	C242.3,125.7,238.6,129.4,234,129.4z"/>
<path class="st1" d="M256.6,129.4L256.6,129.4c-4.6,0-8.3-3.7-8.3-8.3v0c0-4.6,3.7-8.3,8.3-8.3l0,0c4.6,0,8.3,3.7,8.3,8.3v0
	C264.9,125.7,261.1,129.4,256.6,129.4z"/>
<path class="st1" d="M279.2,129.4L279.2,129.4c-4.6,0-8.3-3.7-8.3-8.3v0c0-4.6,3.7-8.3,8.3-8.3l0,0c4.6,0,8.3,3.7,8.3,8.3v0
	C287.4,125.7,283.7,129.4,279.2,129.4z"/>
<path class="st1" d="M301.7,129.4L301.7,129.4c-4.6,0-8.3-3.7-8.3-8.3v0c0-4.6,3.7-8.3,8.3-8.3h0c4.6,0,8.3,3.7,8.3,8.3v0
	C310,125.7,306.3,129.4,301.7,129.4z"/>
<path class="st1" d="M324.3,129.4L324.3,129.4c-4.6,0-8.3-3.7-8.3-8.3v0c0-4.6,3.7-8.3,8.3-8.3h0c4.6,0,8.3,3.7,8.3,8.3v0
	C332.6,125.7,328.9,129.4,324.3,129.4z"/>
<path class="st1" d="M53.5,174.6L53.5,174.6c-4.6,0-8.3-3.7-8.3-8.3v0c0-4.6,3.7-8.3,8.3-8.3h0c4.6,0,8.3,3.7,8.3,8.3v0
	C61.8,170.8,58,174.6,53.5,174.6z"/>
<path class="st1" d="M53.5,197.1L53.5,197.1c-4.6,0-8.3-3.7-8.3-8.3v0c0-4.6,3.7-8.3,8.3-8.3h0c4.6,0,8.3,3.7,8.3,8.3v0
	C61.8,193.4,58,197.1,53.5,197.1z"/>
<path class="st1" d="M76,174.6L76,174.6c-4.6,0-8.3-3.7-8.3-8.3v0c0-4.6,3.7-8.3,8.3-8.3h0c4.6,0,8.3,3.7,8.3,8.3v0
	C84.3,170.8,80.6,174.6,76,174.6z"/>
<path class="st1" d="M98.6,174.6L98.6,174.6c-4.6,0-8.3-3.7-8.3-8.3v0c0-4.6,3.7-8.3,8.3-8.3h0c4.6,0,8.3,3.7,8.3,8.3v0
	C106.9,170.8,103.2,174.6,98.6,174.6z"/>
<path class="st1" d="M121.2,174.6L121.2,174.6c-4.6,0-8.3-3.7-8.3-8.3v0c0-4.6,3.7-8.3,8.3-8.3h0c4.6,0,8.3,3.7,8.3,8.3v0
	C129.5,170.8,125.7,174.6,121.2,174.6z"/>
<path class="st1" d="M143.8,174.6L143.8,174.6c-4.6,0-8.3-3.7-8.3-8.3v0c0-4.6,3.7-8.3,8.3-8.3h0c4.6,0,8.3,3.7,8.3,8.3v0
	C152,170.8,148.3,174.6,143.8,174.6z"/>
<path class="st1" d="M166.3,174.6L166.3,174.6c-4.6,0-8.3-3.7-8.3-8.3v0c0-4.6,3.7-8.3,8.3-8.3h0c4.6,0,8.3,3.7,8.3,8.3v0
	C174.6,170.8,170.9,174.6,166.3,174.6z"/>
<path class="st1" d="M188.9,174.6L188.9,174.6c-4.6,0-8.3-3.7-8.3-8.3v0c0-4.6,3.7-8.3,8.3-8.3h0c4.6,0,8.3,3.7,8.3,8.3v0
	C197.2,170.8,193.4,174.6,188.9,174.6z"/>
<path class="st1" d="M211.5,174.6L211.5,174.6c-4.6,0-8.3-3.7-8.3-8.3v0c0-4.6,3.7-8.3,8.3-8.3h0c4.6,0,8.3,3.7,8.3,8.3v0
	C219.7,170.8,216,174.6,211.5,174.6z"/>
<path class="st1" d="M234,174.6L234,174.6c-4.6,0-8.3-3.7-8.3-8.3v0c0-4.6,3.7-8.3,8.3-8.3h0c4.6,0,8.3,3.7,8.3,8.3v0
	C242.3,170.8,238.6,174.6,234,174.6z"/>
<path class="st1" d="M76,219.7L76,219.7c-4.6,0-8.3-3.7-8.3-8.3v0c0-4.6,3.7-8.3,8.3-8.3h0c4.6,0,8.3,3.7,8.3,8.3v0
	C84.3,216,80.6,219.7,76,219.7z"/>
<path class="st1" d="M76,242.1L76,242.1c-4.6,0-8.3-3.7-8.3-8.3v0c0-4.6,3.7-8.3,8.3-8.3h0c4.6,0,8.3,3.7,8.3,8.3v0
	C84.3,238.4,80.6,242.1,76,242.1z"/>
<path class="st1" d="M98.6,219.7L98.6,219.7c-4.6,0-8.3-3.7-8.3-8.3v0c0-4.6,3.7-8.3,8.3-8.3h0c4.6,0,8.3,3.7,8.3,8.3v0
	C106.9,216,103.1,219.7,98.6,219.7z"/>
<path class="st1" d="M121.2,219.7L121.2,219.7c-4.6,0-8.3-3.7-8.3-8.3v0c0-4.6,3.7-8.3,8.3-8.3h0c4.6,0,8.3,3.7,8.3,8.3v0
	C129.4,216,125.7,219.7,121.2,219.7z"/>
<path class="st1" d="M143.7,219.7L143.7,219.7c-4.6,0-8.3-3.7-8.3-8.3v0c0-4.6,3.7-8.3,8.3-8.3h0c4.6,0,8.3,3.7,8.3,8.3v0
	C152,216,148.3,219.7,143.7,219.7z"/>
<path class="st1" d="M166.3,219.7L166.3,219.7c-4.6,0-8.3-3.7-8.3-8.3v0c0-4.6,3.7-8.3,8.3-8.3h0c4.6,0,8.3,3.7,8.3,8.3v0
	C174.6,216,170.9,219.7,166.3,219.7z"/>
<path class="st1" d="M188.9,219.7L188.9,219.7c-4.6,0-8.3-3.7-8.3-8.3v0c0-4.6,3.7-8.3,8.3-8.3h0c4.6,0,8.3,3.7,8.3,8.3v0
	C197.2,216,193.4,219.7,188.9,219.7z"/>
<path class="st1" d="M211.4,219.7L211.4,219.7c-4.6,0-8.3-3.7-8.3-8.3v0c0-4.6,3.7-8.3,8.3-8.3h0c4.6,0,8.3,3.7,8.3,8.3v0
	C219.7,216,216,219.7,211.4,219.7z"/>
<path class="st1" d="M234,219.7L234,219.7c-4.6,0-8.3-3.7-8.3-8.3v0c0-4.6,3.7-8.3,8.3-8.3h0c4.6,0,8.3,3.7,8.3,8.3v0
	C242.3,216,238.6,219.7,234,219.7z"/>
<path class="st1" d="M76,197.1L76,197.1c-4.6,0-8.3-3.7-8.3-8.3v0c0-4.6,3.7-8.3,8.3-8.3h0c4.6,0,8.3,3.7,8.3,8.3v0
	C84.3,193.4,80.6,197.1,76,197.1z"/>
<path class="st1" d="M98.6,197.1L98.6,197.1c-4.6,0-8.3-3.7-8.3-8.3v0c0-4.6,3.7-8.3,8.3-8.3h0c4.6,0,8.3,3.7,8.3,8.3v0
	C106.9,193.4,103.1,197.1,98.6,197.1z"/>
<path class="st1" d="M121.2,197.1L121.2,197.1c-4.6,0-8.3-3.7-8.3-8.3v0c0-4.6,3.7-8.3,8.3-8.3h0c4.6,0,8.3,3.7,8.3,8.3v0
	C129.4,193.4,125.7,197.1,121.2,197.1z"/>
<path class="st1" d="M143.7,197.1L143.7,197.1c-4.6,0-8.3-3.7-8.3-8.3v0c0-4.6,3.7-8.3,8.3-8.3h0c4.6,0,8.3,3.7,8.3,8.3v0
	C152,193.4,148.3,197.1,143.7,197.1z"/>
<path class="st1" d="M166.3,197.1L166.3,197.1c-4.6,0-8.3-3.7-8.3-8.3v0c0-4.6,3.7-8.3,8.3-8.3h0c4.6,0,8.3,3.7,8.3,8.3v0
	C174.6,193.4,170.9,197.1,166.3,197.1z"/>
<path class="st1" d="M188.9,197.1L188.9,197.1c-4.6,0-8.3-3.7-8.3-8.3v0c0-4.6,3.7-8.3,8.3-8.3h0c4.6,0,8.3,3.7,8.3,8.3v0
	C197.2,193.4,193.4,197.1,188.9,197.1z"/>
<path class="st1" d="M211.4,197.1L211.4,197.1c-4.6,0-8.3-3.7-8.3-8.3v0c0-4.6,3.7-8.3,8.3-8.3h0c4.6,0,8.3,3.7,8.3,8.3v0
	C219.7,193.4,216,197.1,211.4,197.1z"/>
<path class="st1" d="M234,197.1L234,197.1c-4.6,0-8.3-3.7-8.3-8.3v0c0-4.6,3.7-8.3,8.3-8.3h0c4.6,0,8.3,3.7,8.3,8.3v0
	C242.3,193.4,238.6,197.1,234,197.1z"/>
<path class="st1" d="M98.5,242.3L98.5,242.3c-4.6,0-8.3-3.7-8.3-8.3v0c0-4.6,3.7-8.3,8.3-8.3h0c4.6,0,8.3,3.7,8.3,8.3v0
	C106.8,238.5,103.1,242.3,98.5,242.3z"/>
<path class="st1" d="M121.1,242.3L121.1,242.3c-4.6,0-8.3-3.7-8.3-8.3v0c0-4.6,3.7-8.3,8.3-8.3h0c4.6,0,8.3,3.7,8.3,8.3v0
	C129.4,238.5,125.6,242.3,121.1,242.3z"/>
<path class="st1" d="M143.6,242.3L143.6,242.3c-4.6,0-8.3-3.7-8.3-8.3v0c0-4.6,3.7-8.3,8.3-8.3h0c4.6,0,8.3,3.7,8.3,8.3v0
	C151.9,238.5,148.2,242.3,143.6,242.3z"/>
<path class="st1" d="M166.2,242.3L166.2,242.3c-4.6,0-8.3-3.7-8.3-8.3v0c0-4.6,3.7-8.3,8.3-8.3h0c4.6,0,8.3,3.7,8.3,8.3v0
	C174.5,238.5,170.8,242.3,166.2,242.3z"/>
<path class="st1" d="M188.8,242.3L188.8,242.3c-4.6,0-8.3-3.7-8.3-8.3v0c0-4.6,3.7-8.3,8.3-8.3h0c4.6,0,8.3,3.7,8.3,8.3v0
	C197.1,238.5,193.3,242.3,188.8,242.3z"/>
<path class="st1" d="M211.4,242.3L211.4,242.3c-4.6,0-8.3-3.7-8.3-8.3v0c0-4.6,3.7-8.3,8.3-8.3h0c4.6,0,8.3,3.7,8.3,8.3v0
	C219.6,238.5,215.9,242.3,211.4,242.3z"/>
<path class="st1" d="M233.9,242.3L233.9,242.3c-4.6,0-8.3-3.7-8.3-8.3v0c0-4.6,3.7-8.3,8.3-8.3h0c4.6,0,8.3,3.7,8.3,8.3v0
	C242.2,238.5,238.5,242.3,233.9,242.3z"/>
<path class="st1" d="M256.5,242.3L256.5,242.3c-4.6,0-8.3-3.7-8.3-8.3v0c0-4.6,3.7-8.3,8.3-8.3l0,0c4.6,0,8.3,3.7,8.3,8.3v0
	C264.8,238.5,261.1,242.3,256.5,242.3z"/>
<path class="st1" d="M279.1,242.3L279.1,242.3c-4.6,0-8.3-3.7-8.3-8.3v0c0-4.6,3.7-8.3,8.3-8.3h0c4.6,0,8.3,3.7,8.3,8.3v0
	C287.4,238.5,283.6,242.3,279.1,242.3z"/>
<path class="st1" d="M121,287.4L121,287.4c-4.6,0-8.3-3.7-8.3-8.3l0,0c0-4.6,3.7-8.3,8.3-8.3h0c4.6,0,8.3,3.7,8.3,8.3l0,0
	C129.3,283.7,125.6,287.4,121,287.4z"/>
<path class="st1" d="M143.6,287.4L143.6,287.4c-4.6,0-8.3-3.7-8.3-8.3l0,0c0-4.6,3.7-8.3,8.3-8.3h0c4.6,0,8.3,3.7,8.3,8.3l0,0
	C151.9,283.7,148.2,287.4,143.6,287.4z"/>
<path class="st1" d="M166.2,287.4L166.2,287.4c-4.6,0-8.3-3.7-8.3-8.3l0,0c0-4.6,3.7-8.3,8.3-8.3h0c4.6,0,8.3,3.7,8.3,8.3l0,0
	C174.5,283.7,170.7,287.4,166.2,287.4z"/>
<path class="st1" d="M188.8,287.4L188.8,287.4c-4.6,0-8.3-3.7-8.3-8.3l0,0c0-4.6,3.7-8.3,8.3-8.3h0c4.6,0,8.3,3.7,8.3,8.3l0,0
	C197,283.7,193.3,287.4,188.8,287.4z"/>
<path class="st1" d="M211.3,287.4L211.3,287.4c-4.6,0-8.3-3.7-8.3-8.3l0,0c0-4.6,3.7-8.3,8.3-8.3h0c4.6,0,8.3,3.7,8.3,8.3l0,0
	C219.6,283.7,215.9,287.4,211.3,287.4z"/>
<path class="st1" d="M233.9,287.4L233.9,287.4c-4.6,0-8.3-3.7-8.3-8.3l0,0c0-4.6,3.7-8.3,8.3-8.3h0c4.6,0,8.3,3.7,8.3,8.3l0,0
	C242.2,283.7,238.5,287.4,233.9,287.4z"/>
<path class="st1" d="M256.5,287.4L256.5,287.4c-4.6,0-8.3-3.7-8.3-8.3l0,0c0-4.6,3.7-8.3,8.3-8.3h0c4.6,0,8.3,3.7,8.3,8.3l0,0
	C264.8,283.7,261,287.4,256.5,287.4z"/>
<path class="st1" d="M279,287.4L279,287.4c-4.6,0-8.3-3.7-8.3-8.3l0,0c0-4.6,3.7-8.3,8.3-8.3l0,0c4.6,0,8.3,3.7,8.3,8.3l0,0
	C287.3,283.7,283.6,287.4,279,287.4z"/>
<path class="st1" d="M98.5,264.8L98.5,264.8c-4.6,0-8.3-3.7-8.3-8.3l0,0c0-4.6,3.7-8.3,8.3-8.3h0c4.6,0,8.3,3.7,8.3,8.3l0,0
	C106.8,261.1,103,264.8,98.5,264.8z"/>
<path class="st1" d="M98.5,287.4L98.5,287.4c-4.6,0-8.3-3.7-8.3-8.3l0,0c0-4.6,3.7-8.3,8.3-8.3h0c4.6,0,8.3,3.7,8.3,8.3l0,0
	C106.8,283.7,103,287.4,98.5,287.4z"/>
<path class="st1" d="M121,264.8L121,264.8c-4.6,0-8.3-3.7-8.3-8.3l0,0c0-4.6,3.7-8.3,8.3-8.3h0c4.6,0,8.3,3.7,8.3,8.3l0,0
	C129.3,261.1,125.6,264.8,121,264.8z"/>
<path class="st1" d="M143.6,264.8L143.6,264.8c-4.6,0-8.3-3.7-8.3-8.3l0,0c0-4.6,3.7-8.3,8.3-8.3h0c4.6,0,8.3,3.7,8.3,8.3l0,0
	C151.9,261.1,148.2,264.8,143.6,264.8z"/>
<path class="st1" d="M166.2,264.8L166.2,264.8c-4.6,0-8.3-3.7-8.3-8.3l0,0c0-4.6,3.7-8.3,8.3-8.3h0c4.6,0,8.3,3.7,8.3,8.3l0,0
	C174.5,261.1,170.7,264.8,166.2,264.8z"/>
<path class="st1" d="M188.8,264.8L188.8,264.8c-4.6,0-8.3-3.7-8.3-8.3l0,0c0-4.6,3.7-8.3,8.3-8.3h0c4.6,0,8.3,3.7,8.3,8.3l0,0
	C197,261.1,193.3,264.8,188.8,264.8z"/>
<path class="st1" d="M211.3,264.8L211.3,264.8c-4.6,0-8.3-3.7-8.3-8.3l0,0c0-4.6,3.7-8.3,8.3-8.3h0c4.6,0,8.3,3.7,8.3,8.3l0,0
	C219.6,261.1,215.9,264.8,211.3,264.8z"/>
<path class="st1" d="M233.9,264.8L233.9,264.8c-4.6,0-8.3-3.7-8.3-8.3l0,0c0-4.6,3.7-8.3,8.3-8.3h0c4.6,0,8.3,3.7,8.3,8.3l0,0
	C242.2,261.1,238.5,264.8,233.9,264.8z"/>
<path class="st1" d="M256.5,264.8L256.5,264.8c-4.6,0-8.3-3.7-8.3-8.3l0,0c0-4.6,3.7-8.3,8.3-8.3h0c4.6,0,8.3,3.7,8.3,8.3l0,0
	C264.8,261.1,261,264.8,256.5,264.8z"/>
<path class="st1" d="M279,264.8L279,264.8c-4.6,0-8.3-3.7-8.3-8.3l0,0c0-4.6,3.7-8.3,8.3-8.3l0,0c4.6,0,8.3,3.7,8.3,8.3l0,0
	C287.3,261.1,283.6,264.8,279,264.8z"/>
<path class="st1" d="M121,310L121,310c-4.6,0-8.3-3.7-8.3-8.3v0c0-4.6,3.7-8.3,8.3-8.3h0c4.6,0,8.3,3.7,8.3,8.3v0
	C129.3,306.3,125.6,310,121,310z"/>
<path class="st1" d="M143.6,310L143.6,310c-4.6,0-8.3-3.7-8.3-8.3v0c0-4.6,3.7-8.3,8.3-8.3h0c4.6,0,8.3,3.7,8.3,8.3v0
	C151.9,306.3,148.2,310,143.6,310z"/>
<path class="st1" d="M166.2,310L166.2,310c-4.6,0-8.3-3.7-8.3-8.3v0c0-4.6,3.7-8.3,8.3-8.3h0c4.6,0,8.3,3.7,8.3,8.3v0
	C174.5,306.3,170.7,310,166.2,310z"/>
<path class="st1" d="M188.8,310L188.8,310c-4.6,0-8.3-3.7-8.3-8.3v0c0-4.6,3.7-8.3,8.3-8.3h0c4.6,0,8.3,3.7,8.3,8.3v0
	C197,306.3,193.3,310,188.8,310z"/>
<path class="st1" d="M211.3,310L211.3,310c-4.6,0-8.3-3.7-8.3-8.3v0c0-4.6,3.7-8.3,8.3-8.3h0c4.6,0,8.3,3.7,8.3,8.3v0
	C219.6,306.3,215.9,310,211.3,310z"/>
<path class="st1" d="M233.9,310L233.9,310c-4.6,0-8.3-3.7-8.3-8.3v0c0-4.6,3.7-8.3,8.3-8.3h0c4.6,0,8.3,3.7,8.3,8.3v0
	C242.2,306.3,238.5,310,233.9,310z"/>
<path class="st1" d="M256.5,310L256.5,310c-4.6,0-8.3-3.7-8.3-8.3v0c0-4.6,3.7-8.3,8.3-8.3h0c4.6,0,8.3,3.7,8.3,8.3v0
	C264.8,306.3,261,310,256.5,310z"/>
<path class="st1" d="M279,310L279,310c-4.6,0-8.3-3.7-8.3-8.3v0c0-4.6,3.7-8.3,8.3-8.3l0,0c4.6,0,8.3,3.7,8.3,8.3v0
	C287.3,306.3,283.6,310,279,310z"/>
<path class="st1" d="M256.6,174.6L256.6,174.6c-4.6,0-8.3-3.7-8.3-8.3v0c0-4.6,3.7-8.3,8.3-8.3h0c4.6,0,8.3,3.7,8.3,8.3v0
	C264.9,170.8,261.2,174.6,256.6,174.6z"/>
<path class="st1" d="M256.6,219.7L256.6,219.7c-4.6,0-8.3-3.7-8.3-8.3v0c0-4.6,3.7-8.3,8.3-8.3l0,0c4.6,0,8.3,3.7,8.3,8.3v0
	C264.9,216,261.2,219.7,256.6,219.7z"/>
<path class="st1" d="M256.6,197.1L256.6,197.1c-4.6,0-8.3-3.7-8.3-8.3v0c0-4.6,3.7-8.3,8.3-8.3l0,0c4.6,0,8.3,3.7,8.3,8.3v0
	C264.9,193.4,261.2,197.1,256.6,197.1z"/>
<path class="st1" d="M301.7,242.3L301.7,242.3c-4.6,0-8.3-3.7-8.3-8.3v0c0-4.6,3.7-8.3,8.3-8.3l0,0c4.6,0,8.3,3.7,8.3,8.3v0
	C309.9,238.5,306.2,242.3,301.7,242.3z"/>
<path class="st1" d="M301.6,287.4L301.6,287.4c-4.6,0-8.3-3.7-8.3-8.3l0,0c0-4.6,3.7-8.3,8.3-8.3h0c4.6,0,8.3,3.7,8.3,8.3l0,0
	C309.9,283.7,306.2,287.4,301.6,287.4z"/>
<path class="st1" d="M301.6,264.8L301.6,264.8c-4.6,0-8.3-3.7-8.3-8.3l0,0c0-4.6,3.7-8.3,8.3-8.3h0c4.6,0,8.3,3.7,8.3,8.3l0,0
	C309.9,261.1,306.2,264.8,301.6,264.8z"/>
<path class="st1" d="M301.6,310L301.6,310c-4.6,0-8.3-3.7-8.3-8.3v0c0-4.6,3.7-8.3,8.3-8.3h0c4.6,0,8.3,3.7,8.3,8.3v0
	C309.9,306.3,306.2,310,301.6,310z"/>
<path class="st1" d="M279.2,174.6L279.2,174.6c-4.6,0-8.3-3.7-8.3-8.3v0c0-4.6,3.7-8.3,8.3-8.3l0,0c4.6,0,8.3,3.7,8.3,8.3v0
	C287.4,170.8,283.7,174.6,279.2,174.6z"/>
<path class="st1" d="M279.1,219.7L279.1,219.7c-4.6,0-8.3-3.7-8.3-8.3v0c0-4.6,3.7-8.3,8.3-8.3h0c4.6,0,8.3,3.7,8.3,8.3v0
	C287.4,216,283.7,219.7,279.1,219.7z"/>
<path class="st1" d="M279.1,197.1L279.1,197.1c-4.6,0-8.3-3.7-8.3-8.3v0c0-4.6,3.7-8.3,8.3-8.3h0c4.6,0,8.3,3.7,8.3,8.3v0
	C287.4,193.4,283.7,197.1,279.1,197.1z"/>
<path class="st1" d="M324.2,242.3L324.2,242.3c-4.6,0-8.3-3.7-8.3-8.3v0c0-4.6,3.7-8.3,8.3-8.3h0c4.6,0,8.3,3.7,8.3,8.3v0
	C332.5,238.5,328.7,242.3,324.2,242.3z"/>
<path class="st1" d="M324.2,287.4L324.2,287.4c-4.6,0-8.3-3.7-8.3-8.3l0,0c0-4.6,3.7-8.3,8.3-8.3l0,0c4.6,0,8.3,3.7,8.3,8.3l0,0
	C332.5,283.7,328.7,287.4,324.2,287.4z"/>
<path class="st1" d="M324.2,264.8L324.2,264.8c-4.6,0-8.3-3.7-8.3-8.3l0,0c0-4.6,3.7-8.3,8.3-8.3l0,0c4.6,0,8.3,3.7,8.3,8.3l0,0
	C332.5,261.1,328.7,264.8,324.2,264.8z"/>
<path class="st1" d="M324.2,310L324.2,310c-4.6,0-8.3-3.7-8.3-8.3v0c0-4.6,3.7-8.3,8.3-8.3l0,0c4.6,0,8.3,3.7,8.3,8.3v0
	C332.5,306.3,328.7,310,324.2,310z"/>
<path class="st1" d="M301.7,174.6L301.7,174.6c-4.6,0-8.3-3.7-8.3-8.3v0c0-4.6,3.7-8.3,8.3-8.3l0,0c4.6,0,8.3,3.7,8.3,8.3v0
	C310,170.8,306.3,174.6,301.7,174.6z"/>
<path class="st1" d="M301.7,219.7L301.7,219.7c-4.6,0-8.3-3.7-8.3-8.3v0c0-4.6,3.7-8.3,8.3-8.3h0c4.6,0,8.3,3.7,8.3,8.3v0
	C310,216,306.3,219.7,301.7,219.7z"/>
<path class="st1" d="M301.7,197.1L301.7,197.1c-4.6,0-8.3-3.7-8.3-8.3v0c0-4.6,3.7-8.3,8.3-8.3h0c4.6,0,8.3,3.7,8.3,8.3v0
	C310,193.4,306.3,197.1,301.7,197.1z"/>
<path class="st1" d="M346.8,242.3L346.8,242.3c-4.6,0-8.3-3.7-8.3-8.3v0c0-4.6,3.7-8.3,8.3-8.3h0c4.6,0,8.3,3.7,8.3,8.3v0
	C355,238.5,351.3,242.3,346.8,242.3z"/>
<path class="st1" d="M324.4,174.6L324.4,174.6c-4.6,0-8.3-3.7-8.3-8.3v0c0-4.6,3.7-8.3,8.3-8.3h0c4.6,0,8.3,3.7,8.3,8.3v0
	C332.7,170.8,329,174.6,324.4,174.6z"/>
<path class="st1" d="M324.4,219.7L324.4,219.7c-4.6,0-8.3-3.7-8.3-8.3v0c0-4.6,3.7-8.3,8.3-8.3h0c4.6,0,8.3,3.7,8.3,8.3v0
	C332.7,216,328.9,219.7,324.4,219.7z"/>
<path class="st1" d="M324.4,197.1L324.4,197.1c-4.6,0-8.3-3.7-8.3-8.3v0c0-4.6,3.7-8.3,8.3-8.3h0c4.6,0,8.3,3.7,8.3,8.3v0
	C332.7,193.4,328.9,197.1,324.4,197.1z"/>
<path class="st1" d="M369.4,242.3L369.4,242.3c-4.6,0-8.3-3.7-8.3-8.3v0c0-4.6,3.7-8.3,8.3-8.3l0,0c4.6,0,8.3,3.7,8.3,8.3v0
	C377.7,238.5,374,242.3,369.4,242.3z"/>
<path class="st1" d="M346.9,106.9L346.9,106.9c-4.6,0-8.3-3.7-8.3-8.3v0c0-4.6,3.7-8.3,8.3-8.3l0,0c4.6,0,8.3,3.7,8.3,8.3v0
	C355.1,103.1,351.4,106.9,346.9,106.9z"/>
<path class="st1" d="M369.4,106.9L369.4,106.9c-4.6,0-8.3-3.7-8.3-8.3v0c0-4.6,3.7-8.3,8.3-8.3l0,0c4.6,0,8.3,3.7,8.3,8.3v0
	C377.7,103.1,374,106.9,369.4,106.9z"/>
<path class="st1" d="M346.9,84.3L346.9,84.3c-4.6,0-8.3-3.7-8.3-8.3v0c0-4.6,3.7-8.3,8.3-8.3l0,0c4.6,0,8.3,3.7,8.3,8.3v0
	C355.1,80.6,351.4,84.3,346.9,84.3z"/>
<path class="st1" d="M369.4,84.3L369.4,84.3c-4.6,0-8.3-3.7-8.3-8.3v0c0-4.6,3.7-8.3,8.3-8.3l0,0c4.6,0,8.3,3.7,8.3,8.3v0
	C377.7,80.6,374,84.3,369.4,84.3z"/>
<path class="st1" d="M8.3,61.7L8.3,61.7C3.7,61.7,0,58,0,53.4v0c0-4.6,3.7-8.3,8.3-8.3h0c4.6,0,8.3,3.7,8.3,8.3v0
	C16.6,58,12.8,61.7,8.3,61.7z"/>
<path class="st1" d="M30.9,61.7L30.9,61.7c-4.6,0-8.3-3.7-8.3-8.3v0c0-4.6,3.7-8.3,8.3-8.3h0c4.6,0,8.3,3.7,8.3,8.3v0
	C39.1,58,35.4,61.7,30.9,61.7z"/>
<path class="st1" d="M53.4,61.7L53.4,61.7c-4.6,0-8.3-3.7-8.3-8.3v0c0-4.6,3.7-8.3,8.3-8.3h0c4.6,0,8.3,3.7,8.3,8.3v0
	C61.7,58,58,61.7,53.4,61.7z"/>
<path class="st1" d="M76,61.7L76,61.7c-4.6,0-8.3-3.7-8.3-8.3v0c0-4.6,3.7-8.3,8.3-8.3h0c4.6,0,8.3,3.7,8.3,8.3v0
	C84.3,58,80.6,61.7,76,61.7z"/>
<path class="st1" d="M98.6,61.7L98.6,61.7c-4.6,0-8.3-3.7-8.3-8.3v0c0-4.6,3.7-8.3,8.3-8.3h0c4.6,0,8.3,3.7,8.3,8.3v0
	C106.9,58,103.1,61.7,98.6,61.7z"/>
<path class="st1" d="M121.1,61.7L121.1,61.7c-4.6,0-8.3-3.7-8.3-8.3v0c0-4.6,3.7-8.3,8.3-8.3h0c4.6,0,8.3,3.7,8.3,8.3v0
	C129.4,58,125.7,61.7,121.1,61.7z"/>
<path class="st1" d="M143.7,61.7L143.7,61.7c-4.6,0-8.3-3.7-8.3-8.3v0c0-4.6,3.7-8.3,8.3-8.3h0c4.6,0,8.3,3.7,8.3,8.3v0
	C152,58,148.3,61.7,143.7,61.7z"/>
<path class="st1" d="M166.3,61.7L166.3,61.7c-4.6,0-8.3-3.7-8.3-8.3v0c0-4.6,3.7-8.3,8.3-8.3h0c4.6,0,8.3,3.7,8.3,8.3v0
	C174.6,58,170.8,61.7,166.3,61.7z"/>
<path class="st1" d="M188.8,61.7L188.8,61.7c-4.6,0-8.3-3.7-8.3-8.3v0c0-4.6,3.7-8.3,8.3-8.3h0c4.6,0,8.3,3.7,8.3,8.3v0
	C197.1,58,193.4,61.7,188.8,61.7z"/>
<path class="st1" d="M211.4,61.7L211.4,61.7c-4.6,0-8.3-3.7-8.3-8.3v0c0-4.6,3.7-8.3,8.3-8.3h0c4.6,0,8.3,3.7,8.3,8.3v0
	C219.7,58,216,61.7,211.4,61.7z"/>
<path class="st1" d="M234,61.7L234,61.7c-4.6,0-8.3-3.7-8.3-8.3v0c0-4.6,3.7-8.3,8.3-8.3h0c4.6,0,8.3,3.7,8.3,8.3v0
	C242.3,58,238.5,61.7,234,61.7z"/>
<path class="st1" d="M256.6,61.7L256.6,61.7c-4.6,0-8.3-3.7-8.3-8.3v0c0-4.6,3.7-8.3,8.3-8.3h0c4.6,0,8.3,3.7,8.3,8.3v0
	C264.8,58,261.1,61.7,256.6,61.7z"/>
<path class="st1" d="M279.1,61.7L279.1,61.7c-4.6,0-8.3-3.7-8.3-8.3v0c0-4.6,3.7-8.3,8.3-8.3h0c4.6,0,8.3,3.7,8.3,8.3v0
	C287.4,58,283.7,61.7,279.1,61.7z"/>
<path class="st1" d="M301.7,61.7L301.7,61.7c-4.6,0-8.3-3.7-8.3-8.3v0c0-4.6,3.7-8.3,8.3-8.3l0,0c4.6,0,8.3,3.7,8.3,8.3v0
	C310,58,306.3,61.7,301.7,61.7z"/>
<path class="st1" d="M324.3,61.7L324.3,61.7c-4.6,0-8.3-3.7-8.3-8.3v0c0-4.6,3.7-8.3,8.3-8.3l0,0c4.6,0,8.3,3.7,8.3,8.3v0
	C332.6,58,328.8,61.7,324.3,61.7z"/>
<path class="st1" d="M346.9,61.7L346.9,61.7c-4.6,0-8.3-3.7-8.3-8.3v0c0-4.6,3.7-8.3,8.3-8.3l0,0c4.6,0,8.3,3.7,8.3,8.3v0
	C355.1,58,351.4,61.7,346.9,61.7z"/>
<path class="st1" d="M369.4,61.7L369.4,61.7c-4.6,0-8.3-3.7-8.3-8.3v0c0-4.6,3.7-8.3,8.3-8.3l0,0c4.6,0,8.3,3.7,8.3,8.3v0
	C377.7,58,374,61.7,369.4,61.7z"/>
<path class="st1" d="M346.9,152L346.9,152c-4.6,0-8.3-3.7-8.3-8.3v0c0-4.6,3.7-8.3,8.3-8.3h0c4.6,0,8.3,3.7,8.3,8.3v0
	C355.2,148.3,351.4,152,346.9,152z"/>
<path class="st1" d="M369.5,152L369.5,152c-4.6,0-8.3-3.7-8.3-8.3v0c0-4.6,3.7-8.3,8.3-8.3h0c4.6,0,8.3,3.7,8.3,8.3v0
	C377.7,148.3,374,152,369.5,152z"/>
<path class="st1" d="M346.8,332.6L346.8,332.6c-4.6,0-8.3-3.7-8.3-8.3l0,0c0-4.6,3.7-8.3,8.3-8.3h0c4.6,0,8.3,3.7,8.3,8.3l0,0
	C355.1,328.9,351.3,332.6,346.8,332.6z"/>
<path class="st1" d="M369.4,332.6L369.4,332.6c-4.6,0-8.3-3.7-8.3-8.3l0,0c0-4.6,3.7-8.3,8.3-8.3h0c4.6,0,8.3,3.7,8.3,8.3l0,0
	C377.6,328.9,373.9,332.6,369.4,332.6z"/>
<path class="st1" d="M346.8,355.2L346.8,355.2c-4.6,0-8.3-3.7-8.3-8.3v0c0-4.6,3.7-8.3,8.3-8.3h0c4.6,0,8.3,3.7,8.3,8.3v0
	C355.1,351.4,351.3,355.2,346.8,355.2z"/>
<path class="st1" d="M369.4,355.2L369.4,355.2c-4.6,0-8.3-3.7-8.3-8.3v0c0-4.6,3.7-8.3,8.3-8.3h0c4.6,0,8.3,3.7,8.3,8.3v0
	C377.6,351.4,373.9,355.2,369.4,355.2z"/>
<path class="st1" d="M346.8,377.8L346.8,377.8c-4.6,0-8.3-3.7-8.3-8.3l0,0c0-4.6,3.7-8.3,8.3-8.3h0c4.6,0,8.3,3.7,8.3,8.3l0,0
	C355.1,374.1,351.3,377.8,346.8,377.8z"/>
<path class="st1" d="M369.4,377.8L369.4,377.8c-4.6,0-8.3-3.7-8.3-8.3l0,0c0-4.6,3.7-8.3,8.3-8.3h0c4.6,0,8.3,3.7,8.3,8.3l0,0
	C377.6,374.1,373.9,377.8,369.4,377.8z"/>
<path class="st1" d="M346.8,400.3L346.8,400.3c-4.6,0-8.3-3.7-8.3-8.3v0c0-4.6,3.7-8.3,8.3-8.3h0c4.6,0,8.3,3.7,8.3,8.3v0
	C355.1,396.6,351.3,400.3,346.8,400.3z"/>
<path class="st1" d="M369.4,400.3L369.4,400.3c-4.6,0-8.3-3.7-8.3-8.3v0c0-4.6,3.7-8.3,8.3-8.3h0c4.6,0,8.3,3.7,8.3,8.3v0
	C377.6,396.6,373.9,400.3,369.4,400.3z"/>
<path class="st1" d="M346.8,423L346.8,423c-4.6,0-8.3-3.7-8.3-8.3l0,0c0-4.6,3.7-8.3,8.3-8.3h0c4.6,0,8.3,3.7,8.3,8.3l0,0
	C355.1,419.2,351.3,423,346.8,423z"/>
<path class="st1" d="M369.4,423L369.4,423c-4.6,0-8.3-3.7-8.3-8.3l0,0c0-4.6,3.7-8.3,8.3-8.3h0c4.6,0,8.3,3.7,8.3,8.3l0,0
	C377.6,419.2,373.9,423,369.4,423z"/>
<path class="st1" d="M346.9,445.5L346.9,445.5c-4.6,0-8.3-3.7-8.3-8.3v0c0-4.6,3.7-8.3,8.3-8.3h0c4.6,0,8.3,3.7,8.3,8.3v0
	C355.2,441.8,351.4,445.5,346.9,445.5z"/>
<path class="st1" d="M369.5,445.5L369.5,445.5c-4.6,0-8.3-3.7-8.3-8.3v0c0-4.6,3.7-8.3,8.3-8.3h0c4.6,0,8.3,3.7,8.3,8.3v0
	C377.7,441.8,374,445.5,369.5,445.5z"/>
<path class="st1" d="M346.9,129.4L346.9,129.4c-4.6,0-8.3-3.7-8.3-8.3v0c0-4.6,3.7-8.3,8.3-8.3h0c4.6,0,8.3,3.7,8.3,8.3v0
	C355.2,125.7,351.4,129.4,346.9,129.4z"/>
<path class="st1" d="M369.5,129.4L369.5,129.4c-4.6,0-8.3-3.7-8.3-8.3v0c0-4.6,3.7-8.3,8.3-8.3h0c4.6,0,8.3,3.7,8.3,8.3v0
	C377.7,125.7,374,129.4,369.5,129.4z"/>
<path class="st1" d="M346.8,287.4L346.8,287.4c-4.6,0-8.3-3.7-8.3-8.3l0,0c0-4.6,3.7-8.3,8.3-8.3h0c4.6,0,8.3,3.7,8.3,8.3l0,0
	C355.1,283.7,351.4,287.4,346.8,287.4z"/>
<path class="st1" d="M346.8,264.8L346.8,264.8c-4.6,0-8.3-3.7-8.3-8.3l0,0c0-4.6,3.7-8.3,8.3-8.3h0c4.6,0,8.3,3.7,8.3,8.3l0,0
	C355.1,261.1,351.4,264.8,346.8,264.8z"/>
<path class="st1" d="M346.8,310L346.8,310c-4.6,0-8.3-3.7-8.3-8.3v0c0-4.6,3.7-8.3,8.3-8.3h0c4.6,0,8.3,3.7,8.3,8.3v0
	C355.1,306.3,351.4,310,346.8,310z"/>
<path class="st1" d="M369.3,287.4L369.3,287.4c-4.6,0-8.3-3.7-8.3-8.3l0,0c0-4.6,3.7-8.3,8.3-8.3l0,0c4.6,0,8.3,3.7,8.3,8.3l0,0
	C377.6,283.7,373.9,287.4,369.3,287.4z"/>
<path class="st1" d="M369.3,264.8L369.3,264.8c-4.6,0-8.3-3.7-8.3-8.3l0,0c0-4.6,3.7-8.3,8.3-8.3l0,0c4.6,0,8.3,3.7,8.3,8.3l0,0
	C377.6,261.1,373.9,264.8,369.3,264.8z"/>
<path class="st1" d="M369.3,310L369.3,310c-4.6,0-8.3-3.7-8.3-8.3v0c0-4.6,3.7-8.3,8.3-8.3l0,0c4.6,0,8.3,3.7,8.3,8.3v0
	C377.6,306.3,373.9,310,369.3,310z"/>
<path class="st1" d="M346.9,174.6L346.9,174.6c-4.6,0-8.3-3.7-8.3-8.3v0c0-4.6,3.7-8.3,8.3-8.3l0,0c4.6,0,8.3,3.7,8.3,8.3v0
	C355.2,170.8,351.5,174.6,346.9,174.6z"/>
<path class="st1" d="M346.9,219.7L346.9,219.7c-4.6,0-8.3-3.7-8.3-8.3v0c0-4.6,3.7-8.3,8.3-8.3h0c4.6,0,8.3,3.7,8.3,8.3v0
	C355.2,216,351.4,219.7,346.9,219.7z"/>
<path class="st1" d="M346.9,197.1L346.9,197.1c-4.6,0-8.3-3.7-8.3-8.3v0c0-4.6,3.7-8.3,8.3-8.3h0c4.6,0,8.3,3.7,8.3,8.3v0
	C355.2,193.4,351.4,197.1,346.9,197.1z"/>
<path class="st1" d="M369.6,174.6L369.6,174.6c-4.6,0-8.3-3.7-8.3-8.3v0c0-4.6,3.7-8.3,8.3-8.3h0c4.6,0,8.3,3.7,8.3,8.3v0
	C377.9,170.8,374.1,174.6,369.6,174.6z"/>
<path class="st1" d="M369.5,219.7L369.5,219.7c-4.6,0-8.3-3.7-8.3-8.3v0c0-4.6,3.7-8.3,8.3-8.3h0c4.6,0,8.3,3.7,8.3,8.3v0
	C377.8,216,374.1,219.7,369.5,219.7z"/>
<path class="st1" d="M369.5,197.1L369.5,197.1c-4.6,0-8.3-3.7-8.3-8.3v0c0-4.6,3.7-8.3,8.3-8.3h0c4.6,0,8.3,3.7,8.3,8.3v0
	C377.8,193.4,374.1,197.1,369.5,197.1z"/>
<g>
	<text transform="matrix(1 0 0 1 120.1031 9.6988)" class="st2 st3 st4">1</text>
	<text transform="matrix(1 0 0 1 142.1656 9.6988)" class="st2 st3 st4">2</text>
	<text transform="matrix(1 0 0 1 164.7399 9.6988)" class="st2 st3 st4">3</text>
	<text transform="matrix(1 0 0 1 187.2545 9.6988)" class="st2 st3 st4">4</text>
	<text transform="matrix(1 0 0 1 209.9274 9.6988)" class="st2 st3 st4">5</text>
	<text transform="matrix(1 0 0 1 232.2496 9.6988)" class="st2 st3 st4">6</text>
	<text transform="matrix(1 0 0 1 255.1627 9.6988)" class="st2 st3 st4">7</text>
	<text transform="matrix(1 0 0 1 277.6198 9.6988)" class="st2 st3 st4">8</text>
	<text transform="matrix(1 0 0 1 299.8746 9.6988)" class="st2 st3 st4">9</text>
	<text transform="matrix(1 0 0 1 320.4977 9.6988)" class="st2 st3 st4">10</text>
	<text transform="matrix(1 0 0 1 343.9801 9.6988)" class="st2 st3 st4">11</text>
	<text transform="matrix(1 0 0 1 365.3473 9.6988)" class="st2 st3 st4">12</text>
	<text transform="matrix(1 0 0 1 28.6964 100.8306)" class="st2 st3 st4">1</text>
	<text transform="matrix(1 0 0 1 50.7579 100.8306)" class="st2 st3 st4">2</text>
	<text transform="matrix(1 0 0 1 73.3322 100.8306)" class="st2 st3 st4">3</text>
	<text transform="matrix(1 0 0 1 95.8468 100.8306)" class="st2 st3 st4">4</text>
	<text transform="matrix(1 0 0 1 118.5206 100.8306)" class="st2 st3 st4">5</text>
	<text transform="matrix(1 0 0 1 140.8429 100.8306)" class="st2 st3 st4">6</text>
	<text transform="matrix(1 0 0 1 163.8693 100.8306)" class="st2 st3 st4">7</text>
	<text transform="matrix(1 0 0 1 186.0597 100.8306)" class="st2 st3 st4">8</text>
	<text transform="matrix(1 0 0 1 208.5538 100.8306)" class="st2 st3 st4">9</text>
	<text transform="matrix(1 0 0 1 229.2032 100.8306)" class="st2 st3 st4">10</text>
	<text transform="matrix(1 0 0 1 252.6857 100.8306)" class="st2 st3 st4">11</text>
	<text transform="matrix(1 0 0 1 274.7482 100.8306)" class="st2 st3 st4">12</text>
	<text transform="matrix(1 0 0 1 297.3214 100.8306)" class="st2 st3 st4">13</text>
	<text transform="matrix(1 0 0 1 319.8351 100.8306)" class="st2 st3 st4">14</text>
	<text transform="matrix(1 0 0 1 342.5099 100.8306)" class="st2 st3 st4">15</text>
	<text transform="matrix(1 0 0 1 364.8322 100.8306)" class="st2 st3 st4">16</text>
	<text transform="matrix(1 0 0 1 28.6964 123.4029)" class="st2 st3 st4">1</text>
	<text transform="matrix(1 0 0 1 50.7579 123.4029)" class="st2 st3 st4">2</text>
	<text transform="matrix(1 0 0 1 73.3322 123.4029)" class="st2 st3 st4">3</text>
	<text transform="matrix(1 0 0 1 95.8468 123.4029)" class="st2 st3 st4">4</text>
	<text transform="matrix(1 0 0 1 118.5206 123.4029)" class="st2 st3 st4">5</text>
	<text transform="matrix(1 0 0 1 140.8429 123.4029)" class="st2 st3 st4">6</text>
	<text transform="matrix(1 0 0 1 163.8693 123.4029)" class="st2 st3 st4">7</text>
	<text transform="matrix(1 0 0 1 186.0597 123.4029)" class="st2 st3 st4">8</text>
	<text transform="matrix(1 0 0 1 208.5538 123.4029)" class="st2 st3 st4">9</text>
	<text transform="matrix(1 0 0 1 229.2032 123.4029)" class="st2 st3 st4">10</text>
	<text transform="matrix(1 0 0 1 252.6857 123.4029)" class="st2 st3 st4">11</text>
	<text transform="matrix(1 0 0 1 274.7482 123.4029)" class="st2 st3 st4">12</text>
	<text transform="matrix(1 0 0 1 297.3214 123.4029)" class="st2 st3 st4">13</text>
	<text transform="matrix(1 0 0 1 319.8351 123.4029)" class="st2 st3 st4">14</text>
	<text transform="matrix(1 0 0 1 342.5099 123.4029)" class="st2 st3 st4">15</text>
	<text transform="matrix(1 0 0 1 364.8322 123.4029)" class="st2 st3 st4">16</text>
	<text transform="matrix(1 0 0 1 6.6847 55.5103)" class="st2 st3 st4">1</text>
	<text transform="matrix(1 0 0 1 28.7462 55.5103)" class="st2 st3 st4">2</text>
	<text transform="matrix(1 0 0 1 51.3204 55.5103)" class="st2 st3 st4">3</text>
	<text transform="matrix(1 0 0 1 73.8351 55.5103)" class="st2 st3 st4">4</text>
	<text transform="matrix(1 0 0 1 96.5089 55.5103)" class="st2 st3 st4">5</text>
	<text transform="matrix(1 0 0 1 118.8312 55.5103)" class="st2 st3 st4">6</text>
	<text transform="matrix(1 0 0 1 141.8575 55.5103)" class="st2 st3 st4">7</text>
	<text transform="matrix(1 0 0 1 164.048 55.5103)" class="st2 st3 st4">8</text>
	<text transform="matrix(1 0 0 1 186.5421 55.5103)" class="st2 st3 st4">9</text>
	<text transform="matrix(1 0 0 1 207.1915 55.5103)" class="st2 st3 st4">10</text>
	<text transform="matrix(1 0 0 1 230.674 55.5103)" class="st2 st3 st4">11</text>
	<text transform="matrix(1 0 0 1 252.7365 55.5103)" class="st2 st3 st4">12</text>
	<text transform="matrix(1 0 0 1 275.3097 55.5103)" class="st2 st3 st4">13</text>
	<text transform="matrix(1 0 0 1 297.8234 55.5103)" class="st2 st3 st4">14</text>
	<text transform="matrix(1 0 0 1 320.4982 55.5103)" class="st2 st3 st4">15</text>
	<text transform="matrix(1 0 0 1 342.8204 55.5103)" class="st2 st3 st4">16</text>
	<text transform="matrix(1 0 0 1 365.7618 55.5103)" class="st2 st3 st4">17</text>
	<text transform="matrix(1 0 0 1 6.6847 78.0103)" class="st2 st3 st4">1</text>
	<text transform="matrix(1 0 0 1 28.7462 78.0103)" class="st2 st3 st4">2</text>
	<text transform="matrix(1 0 0 1 51.3204 78.0103)" class="st2 st3 st4">3</text>
	<text transform="matrix(1 0 0 1 73.8351 78.0103)" class="st2 st3 st4">4</text>
	<text transform="matrix(1 0 0 1 96.5089 78.0103)" class="st2 st3 st4">5</text>
	<text transform="matrix(1 0 0 1 118.8312 78.0103)" class="st2 st3 st4">6</text>
	<text transform="matrix(1 0 0 1 141.8575 78.0103)" class="st2 st3 st4">7</text>
	<text transform="matrix(1 0 0 1 164.048 78.0103)" class="st2 st3 st4">8</text>
	<text transform="matrix(1 0 0 1 186.5421 78.0103)" class="st2 st3 st4">9</text>
	<text transform="matrix(1 0 0 1 207.1915 78.0103)" class="st2 st3 st4">10</text>
	<text transform="matrix(1 0 0 1 230.674 78.0103)" class="st2 st3 st4">11</text>
	<text transform="matrix(1 0 0 1 252.7365 78.0103)" class="st2 st3 st4">12</text>
	<text transform="matrix(1 0 0 1 275.3097 78.0103)" class="st2 st3 st4">13</text>
	<text transform="matrix(1 0 0 1 297.8234 78.0103)" class="st2 st3 st4">14</text>
	<text transform="matrix(1 0 0 1 320.4982 78.0103)" class="st2 st3 st4">15</text>
	<text transform="matrix(1 0 0 1 342.8204 78.0103)" class="st2 st3 st4">16</text>
	<text transform="matrix(1 0 0 1 365.7618 78.0103)" class="st2 st3 st4">17</text>
	<text transform="matrix(1 0 0 1 51.2667 145.9732)" class="st2 st3 st4">1</text>
	<text transform="matrix(1 0 0 1 73.3292 145.9732)" class="st2 st3 st4">2</text>
	<text transform="matrix(1 0 0 1 95.9034 145.9732)" class="st2 st3 st4">3</text>
	<text transform="matrix(1 0 0 1 118.4181 145.9732)" class="st2 st3 st4">4</text>
	<text transform="matrix(1 0 0 1 141.0909 145.9732)" class="st2 st3 st4">5</text>
	<text transform="matrix(1 0 0 1 163.4132 145.9732)" class="st2 st3 st4">6</text>
	<text transform="matrix(1 0 0 1 186.4396 145.9732)" class="st2 st3 st4">7</text>
	<text transform="matrix(1 0 0 1 208.63 145.9732)" class="st2 st3 st4">8</text>
	<text transform="matrix(1 0 0 1 231.1232 145.9732)" class="st2 st3 st4">9</text>
	<text transform="matrix(1 0 0 1 251.7736 145.9732)" class="st2 st3 st4">10</text>
	<text transform="matrix(1 0 0 1 275.256 145.9732)" class="st2 st3 st4">11</text>
	<text transform="matrix(1 0 0 1 297.3185 145.9732)" class="st2 st3 st4">12</text>
	<text transform="matrix(1 0 0 1 319.8927 145.9732)" class="st2 st3 st4">13</text>
	<text transform="matrix(1 0 0 1 342.4064 145.9732)" class="st2 st3 st4">14</text>
	<text transform="matrix(1 0 0 1 365.0802 145.9732)" class="st2 st3 st4">15</text>
	<text transform="matrix(1 0 0 1 51.2667 168.5308)" class="st2 st3 st4">1</text>
	<text transform="matrix(1 0 0 1 73.3292 168.5308)" class="st2 st3 st4">2</text>
	<text transform="matrix(1 0 0 1 95.9034 168.5308)" class="st2 st3 st4">3</text>
	<text transform="matrix(1 0 0 1 118.4181 168.5308)" class="st2 st3 st4">4</text>
	<text transform="matrix(1 0 0 1 141.0909 168.5308)" class="st2 st3 st4">5</text>
	<text transform="matrix(1 0 0 1 163.4132 168.5308)" class="st2 st3 st4">6</text>
	<text transform="matrix(1 0 0 1 186.4396 168.5308)" class="st2 st3 st4">7</text>
	<text transform="matrix(1 0 0 1 208.63 168.5308)" class="st2 st3 st4">8</text>
	<text transform="matrix(1 0 0 1 231.1232 168.5308)" class="st2 st3 st4">9</text>
	<text transform="matrix(1 0 0 1 251.7736 168.5308)" class="st2 st3 st4">10</text>
	<text transform="matrix(1 0 0 1 275.256 168.5308)" class="st2 st3 st4">11</text>
	<text transform="matrix(1 0 0 1 297.3185 168.5308)" class="st2 st3 st4">12</text>
	<text transform="matrix(1 0 0 1 319.8927 168.5308)" class="st2 st3 st4">13</text>
	<text transform="matrix(1 0 0 1 342.4064 168.5308)" class="st2 st3 st4">14</text>
	<text transform="matrix(1 0 0 1 74.2242 213.6753)" class="st2 st3 st4">1</text>
	<text transform="matrix(1 0 0 1 96.2867 213.6753)" class="st2 st3 st4">2</text>
	<text transform="matrix(1 0 0 1 118.861 213.6753)" class="st2 st3 st4">3</text>
	<text transform="matrix(1 0 0 1 141.3756 213.6753)" class="st2 st3 st4">4</text>
	<text transform="matrix(1 0 0 1 164.0485 213.6753)" class="st2 st3 st4">5</text>
	<text transform="matrix(1 0 0 1 186.3707 213.6753)" class="st2 st3 st4">6</text>
	<text transform="matrix(1 0 0 1 209.3971 213.6753)" class="st2 st3 st4">7</text>
	<text transform="matrix(1 0 0 1 231.5875 213.6753)" class="st2 st3 st4">8</text>
	<text transform="matrix(1 0 0 1 254.0807 213.6753)" class="st2 st3 st4">9</text>
	<text transform="matrix(1 0 0 1 274.7311 213.6753)" class="st2 st3 st4">10</text>
	<text transform="matrix(1 0 0 1 298.2135 213.6753)" class="st2 st3 st4">11</text>
	<text transform="matrix(1 0 0 1 320.276 213.6753)" class="st2 st3 st4">12</text>
	<text transform="matrix(1 0 0 1 342.8502 213.6753)" class="st2 st3 st4">13</text>
	<text transform="matrix(1 0 0 1 365.3639 213.6753)" class="st2 st3 st4">14</text>
	<text transform="matrix(1 0 0 1 74.2242 236.2456)" class="st2 st3 st4">1</text>
	<text transform="matrix(1 0 0 1 96.2867 236.2456)" class="st2 st3 st4">2</text>
	<text transform="matrix(1 0 0 1 118.861 236.2456)" class="st2 st3 st4">3</text>
	<text transform="matrix(1 0 0 1 141.3756 236.2456)" class="st2 st3 st4">4</text>
	<text transform="matrix(1 0 0 1 164.0485 236.2456)" class="st2 st3 st4">5</text>
	<text transform="matrix(1 0 0 1 186.3707 236.2456)" class="st2 st3 st4">6</text>
	<text transform="matrix(1 0 0 1 209.3971 236.2456)" class="st2 st3 st4">7</text>
	<text transform="matrix(1 0 0 1 231.5875 236.2456)" class="st2 st3 st4">8</text>
	<text transform="matrix(1 0 0 1 254.0807 236.2456)" class="st2 st3 st4">9</text>
	<text transform="matrix(1 0 0 1 274.7311 236.2456)" class="st2 st3 st4">10</text>
	<text transform="matrix(1 0 0 1 298.2135 236.2456)" class="st2 st3 st4">11</text>
	<text transform="matrix(1 0 0 1 320.276 236.2456)" class="st2 st3 st4">12</text>
	<text transform="matrix(1 0 0 1 342.8502 236.2456)" class="st2 st3 st4">13</text>
	<text transform="matrix(1 0 0 1 365.3639 236.2456)" class="st2 st3 st4">14</text>
	<text transform="matrix(1 0 0 1 365.0802 168.5308)" class="st2 st3 st4">15</text>
	<text transform="matrix(1 0 0 1 51.2667 191.5571)" class="st2 st3 st4">1</text>
	<text transform="matrix(1 0 0 1 73.3292 191.5571)" class="st2 st3 st4">2</text>
	<text transform="matrix(1 0 0 1 95.9034 191.5571)" class="st2 st3 st4">3</text>
	<text transform="matrix(1 0 0 1 118.4181 191.5571)" class="st2 st3 st4">4</text>
	<text transform="matrix(1 0 0 1 141.0909 191.5571)" class="st2 st3 st4">5</text>
	<text transform="matrix(1 0 0 1 163.4132 191.5571)" class="st2 st3 st4">6</text>
	<text transform="matrix(1 0 0 1 186.4396 191.5571)" class="st2 st3 st4">7</text>
	<text transform="matrix(1 0 0 1 208.63 191.5571)" class="st2 st3 st4">8</text>
	<text transform="matrix(1 0 0 1 231.1232 191.5571)" class="st2 st3 st4">9</text>
	<text transform="matrix(1 0 0 1 251.7736 191.5571)" class="st2 st3 st4">10</text>
	<text transform="matrix(1 0 0 1 275.256 191.5571)" class="st2 st3 st4">11</text>
	<text transform="matrix(1 0 0 1 297.3185 191.5571)" class="st2 st3 st4">12</text>
	<text transform="matrix(1 0 0 1 319.8927 191.5571)" class="st2 st3 st4">13</text>
	<text transform="matrix(1 0 0 1 342.4064 191.5571)" class="st2 st3 st4">14</text>
	<text transform="matrix(1 0 0 1 365.0802 191.5571)" class="st2 st3 st4">15</text>
	<text transform="matrix(1 0 0 1 119.2223 326.5728)" class="st2 st3 st4">1</text>
	<text transform="matrix(1 0 0 1 141.2848 326.5728)" class="st2 st3 st4">2</text>
	<text transform="matrix(1 0 0 1 163.859 326.5728)" class="st2 st3 st4">3</text>
	<text transform="matrix(1 0 0 1 186.3737 326.5728)" class="st2 st3 st4">4</text>
	<text transform="matrix(1 0 0 1 209.0465 326.5728)" class="st2 st3 st4">5</text>
	<text transform="matrix(1 0 0 1 231.3688 326.5728)" class="st2 st3 st4">6</text>
	<text transform="matrix(1 0 0 1 254.3951 326.5728)" class="st2 st3 st4">7</text>
	<text transform="matrix(1 0 0 1 276.5856 326.5728)" class="st2 st3 st4">8</text>
	<text transform="matrix(1 0 0 1 299.0787 326.5728)" class="st2 st3 st4">9</text>
	<text transform="matrix(1 0 0 1 319.7291 326.5728)" class="st2 st3 st4">10</text>
	<text transform="matrix(1 0 0 1 343.2115 326.5728)" class="st2 st3 st4">11</text>
	<text transform="matrix(1 0 0 1 365.274 326.5728)" class="st2 st3 st4">12</text>
	<text transform="matrix(1 0 0 1 141.9352 349.1245)" class="st2 st3 st4">1</text>
	<text transform="matrix(1 0 0 1 163.9977 349.1245)" class="st2 st3 st4">2</text>
	<text transform="matrix(1 0 0 1 186.5719 349.1245)" class="st2 st3 st4">3</text>
	<text transform="matrix(1 0 0 1 209.0865 349.1245)" class="st2 st3 st4">4</text>
	<text transform="matrix(1 0 0 1 231.7594 349.1245)" class="st2 st3 st4">5</text>
	<text transform="matrix(1 0 0 1 254.0817 349.1245)" class="st2 st3 st4">6</text>
	<text transform="matrix(1 0 0 1 277.108 349.1245)" class="st2 st3 st4">7</text>
	<text transform="matrix(1 0 0 1 299.2985 349.1245)" class="st2 st3 st4">8</text>
	<text transform="matrix(1 0 0 1 321.7916 349.1245)" class="st2 st3 st4">9</text>
	<text transform="matrix(1 0 0 1 342.442 349.1245)" class="st2 st3 st4">10</text>
	<text transform="matrix(1 0 0 1 365.9244 349.1245)" class="st2 st3 st4">11</text>
	<text transform="matrix(1 0 0 1 164.1173 394.312)" class="st2 st3 st4">1</text>
	<text transform="matrix(1 0 0 1 186.1798 394.312)" class="st2 st3 st4">2</text>
	<text transform="matrix(1 0 0 1 208.754 394.312)" class="st2 st3 st4">3</text>
	<text transform="matrix(1 0 0 1 231.2687 394.312)" class="st2 st3 st4">4</text>
	<text transform="matrix(1 0 0 1 253.9415 394.312)" class="st2 st3 st4">5</text>
	<text transform="matrix(1 0 0 1 276.2638 394.312)" class="st2 st3 st4">6</text>
	<text transform="matrix(1 0 0 1 299.2902 394.312)" class="st2 st3 st4">7</text>
	<text transform="matrix(1 0 0 1 321.4806 394.312)" class="st2 st3 st4">8</text>
	<text transform="matrix(1 0 0 1 343.9738 394.312)" class="st2 st3 st4">9</text>
	<text transform="matrix(1 0 0 1 364.6241 394.312)" class="st2 st3 st4">10</text>
	<text transform="matrix(1 0 0 1 141.7926 372.2515)" class="st2 st3 st4">1</text>
	<text transform="matrix(1 0 0 1 163.8551 372.2515)" class="st2 st3 st4">2</text>
	<text transform="matrix(1 0 0 1 186.4293 372.2515)" class="st2 st3 st4">3</text>
	<text transform="matrix(1 0 0 1 208.944 372.2515)" class="st2 st3 st4">4</text>
	<text transform="matrix(1 0 0 1 231.6168 372.2515)" class="st2 st3 st4">5</text>
	<text transform="matrix(1 0 0 1 253.9391 372.2515)" class="st2 st3 st4">6</text>
	<text transform="matrix(1 0 0 1 276.9655 372.2515)" class="st2 st3 st4">7</text>
	<text transform="matrix(1 0 0 1 299.1559 372.2515)" class="st2 st3 st4">8</text>
	<text transform="matrix(1 0 0 1 321.649 372.2515)" class="st2 st3 st4">9</text>
	<text transform="matrix(1 0 0 1 342.2994 372.2515)" class="st2 st3 st4">10</text>
	<text transform="matrix(1 0 0 1 365.7819 372.2515)" class="st2 st3 st4">11</text>
	<text transform="matrix(1 0 0 1 165.1715 416.9449)" class="st2 st3 st4">1</text>
	<text transform="matrix(1 0 0 1 187.234 416.9449)" class="st2 st3 st4">2</text>
	<text transform="matrix(1 0 0 1 209.8082 416.9449)" class="st2 st3 st4">3</text>
	<text transform="matrix(1 0 0 1 232.3229 416.9449)" class="st2 st3 st4">4</text>
	<text transform="matrix(1 0 0 1 254.9957 416.9449)" class="st2 st3 st4">5</text>
	<text transform="matrix(1 0 0 1 277.318 416.9449)" class="st2 st3 st4">6</text>
	<text transform="matrix(1 0 0 1 300.3444 416.9449)" class="st2 st3 st4">7</text>
	<text transform="matrix(1 0 0 1 322.5348 416.9449)" class="st2 st3 st4">8</text>
	<text transform="matrix(1 0 0 1 345.028 416.9449)" class="st2 st3 st4">9</text>
	<text transform="matrix(1 0 0 1 365.6783 416.9449)" class="st2 st3 st4">10</text>
	<text transform="matrix(1 0 0 1 165.1715 439.2437)" class="st2 st3 st4">1</text>
	<text transform="matrix(1 0 0 1 187.234 439.2437)" class="st2 st3 st4">2</text>
	<text transform="matrix(1 0 0 1 209.8082 439.2437)" class="st2 st3 st4">3</text>
	<text transform="matrix(1 0 0 1 232.3229 439.2437)" class="st2 st3 st4">4</text>
	<text transform="matrix(1 0 0 1 254.9957 439.2437)" class="st2 st3 st4">5</text>
	<text transform="matrix(1 0 0 1 277.318 439.2437)" class="st2 st3 st4">6</text>
	<text transform="matrix(1 0 0 1 300.3444 439.2437)" class="st2 st3 st4">7</text>
	<text transform="matrix(1 0 0 1 322.5348 439.2437)" class="st2 st3 st4">8</text>
	<text transform="matrix(1 0 0 1 345.028 439.2437)" class="st2 st3 st4">9</text>
	<text transform="matrix(1 0 0 1 365.6783 439.2437)" class="st2 st3 st4">10</text>
	<text transform="matrix(1 0 0 1 96.7252 258.5962)" class="st2 st3 st4">1</text>
	<text transform="matrix(1 0 0 1 118.7877 258.5962)" class="st2 st3 st4">2</text>
	<text transform="matrix(1 0 0 1 141.3619 258.5962)" class="st2 st3 st4">3</text>
	<text transform="matrix(1 0 0 1 163.8766 258.5962)" class="st2 st3 st4">4</text>
	<text transform="matrix(1 0 0 1 186.5504 258.5962)" class="st2 st3 st4">5</text>
	<text transform="matrix(1 0 0 1 208.8727 258.5962)" class="st2 st3 st4">6</text>
	<text transform="matrix(1 0 0 1 231.899 258.5962)" class="st2 st3 st4">7</text>
	<text transform="matrix(1 0 0 1 254.0895 258.5962)" class="st2 st3 st4">8</text>
	<text transform="matrix(1 0 0 1 276.5836 258.5962)" class="st2 st3 st4">9</text>
	<text transform="matrix(1 0 0 1 297.234 258.5962)" class="st2 st3 st4">10</text>
	<text transform="matrix(1 0 0 1 320.7145 258.5962)" class="st2 st3 st4">11</text>
	<text transform="matrix(1 0 0 1 342.777 258.5962)" class="st2 st3 st4">12</text>
	<text transform="matrix(1 0 0 1 365.3512 258.5962)" class="st2 st3 st4">13</text>
	<text transform="matrix(1 0 0 1 96.7252 282.022)" class="st2 st3 st4">1</text>
	<text transform="matrix(1 0 0 1 118.7877 282.022)" class="st2 st3 st4">2</text>
	<text transform="matrix(1 0 0 1 141.3619 282.022)" class="st2 st3 st4">3</text>
	<text transform="matrix(1 0 0 1 163.8766 282.022)" class="st2 st3 st4">4</text>
	<text transform="matrix(1 0 0 1 186.5504 282.022)" class="st2 st3 st4">5</text>
	<text transform="matrix(1 0 0 1 208.8727 282.022)" class="st2 st3 st4">6</text>
	<text transform="matrix(1 0 0 1 231.899 282.022)" class="st2 st3 st4">7</text>
	<text transform="matrix(1 0 0 1 254.0895 282.022)" class="st2 st3 st4">8</text>
	<text transform="matrix(1 0 0 1 276.5836 282.022)" class="st2 st3 st4">9</text>
	<text transform="matrix(1 0 0 1 297.234 282.022)" class="st2 st3 st4">10</text>
	<text transform="matrix(1 0 0 1 320.7145 282.022)" class="st2 st3 st4">11</text>
	<text transform="matrix(1 0 0 1 342.777 282.022)" class="st2 st3 st4">12</text>
	<text transform="matrix(1 0 0 1 365.3512 282.022)" class="st2 st3 st4">13</text>
	<text transform="matrix(1 0 0 1 119.2428 304.0357)" class="st2 st3 st4">1</text>
	<text transform="matrix(1 0 0 1 141.3053 304.0357)" class="st2 st3 st4">2</text>
	<text transform="matrix(1 0 0 1 163.8785 304.0357)" class="st2 st3 st4">3</text>
	<text transform="matrix(1 0 0 1 186.3932 304.0357)" class="st2 st3 st4">4</text>
	<text transform="matrix(1 0 0 1 209.067 304.0357)" class="st2 st3 st4">5</text>
	<text transform="matrix(1 0 0 1 231.3893 304.0357)" class="st2 st3 st4">6</text>
	<text transform="matrix(1 0 0 1 254.4156 304.0357)" class="st2 st3 st4">7</text>
	<text transform="matrix(1 0 0 1 276.6061 304.0357)" class="st2 st3 st4">8</text>
	<text transform="matrix(1 0 0 1 299.1002 304.0357)" class="st2 st3 st4">9</text>
	<text transform="matrix(1 0 0 1 319.7506 304.0357)" class="st2 st3 st4">10</text>
	<text transform="matrix(1 0 0 1 343.2321 304.0357)" class="st2 st3 st4">11</text>
	<text transform="matrix(1 0 0 1 365.2946 304.0357)" class="st2 st3 st4">12</text>
</g>
<g>
	<text transform="matrix(1 0 0 1 438.3815 55.6675)" class="st5 st6 st7">29</text>
	<text transform="matrix(1 0 0 1 438.3815 11.2964)" class="st5 st6 st7">30</text>
	<text transform="matrix(1 0 0 1 438.3815 101.1636)" class="st5 st6 st7">27</text>
	<text transform="matrix(1 0 0 1 438.3815 78.5933)" class="st5 st6 st7">28</text>
	<text transform="matrix(1 0 0 1 438.3815 146.3062)" class="st5 st6 st7">25</text>
	<text transform="matrix(1 0 0 1 438.2213 326.9058)" class="st5 st6 st7">17</text>
	<text transform="matrix(1 0 0 1 438.2213 349.4576)" class="st5 st6 st7">16</text>
	<text transform="matrix(1 0 0 1 438.3815 372.0933)" class="st5 st6 st7">15</text>
	<text transform="matrix(1 0 0 1 438.3815 394.6451)" class="st5 st6 st7">14</text>
	<text transform="matrix(1 0 0 1 438.194 417.2779)" class="st5 st6 st7">13</text>
	<text transform="matrix(1 0 0 1 438.2213 439.8306)" class="st5 st6 st7">12</text>
	<text transform="matrix(1 0 0 1 438.3815 123.7359)" class="st5 st6 st7">26</text>
	<text transform="matrix(1 0 0 1 438.3815 168.7603)" class="st5 st6 st7">24</text>
	<text transform="matrix(1 0 0 1 438.3815 213.9478)" class="st5 st6 st7">22</text>
	<text transform="matrix(1 0 0 1 438.3815 191.3775)" class="st5 st6 st7">23</text>
	<text transform="matrix(1 0 0 1 438.3815 259.0923)" class="st5 st6 st7">20</text>
	<text transform="matrix(1 0 0 1 438.3815 236.522)" class="st5 st6 st7">21</text>
	<text transform="matrix(1 0 0 1 438.194 304.2349)" class="st5 st6 st7">18</text>
	<text transform="matrix(1 0 0 1 438.2213 281.6646)" class="st5 st6 st7">19</text>
</g>
</svg>
