<?xml version="1.0" encoding="utf-8"?>
<!-- Generator: Adobe Illustrator 20.1.0, SVG Export Plug-In . SVG Version: 6.00 Build 0)  -->
<svg version="1.1" id="Layer_1" xmlns="http://www.w3.org/2000/svg" xmlns:xlink="http://www.w3.org/1999/xlink" x="0px" y="0px"
	 viewBox="0 0 448.9 627.3" style="enable-background:new 0 0 448.9 627.3;" xml:space="preserve">
<style type="text/css">
	.st0{fill:#D9F6E1;}
	.st1{fill:#FFFFFF;}
	.st2{fill:#737373;}
	.st3{font-family:'OsnovaPro';}
	.st4{font-size:8px;}
	.st5{fill:#7B878F;}
	.st6{font-family:'OsnovaProLight';}
	.st7{font-size:9px;}
</style>
<path class="st0" d="M121.3,16.6L121.3,16.6c-4.6,0-8.3-3.7-8.3-8.3v0c0-4.6,3.7-8.3,8.3-8.3h0c4.6,0,8.3,3.7,8.3,8.3v0
	C129.6,12.8,125.8,16.6,121.3,16.6z"/>
<path class="st0" d="M143.9,16.6L143.9,16.6c-4.6,0-8.3-3.7-8.3-8.3v0c0-4.6,3.7-8.3,8.3-8.3h0c4.6,0,8.3,3.7,8.3,8.3v0
	C152.1,12.8,148.4,16.6,143.9,16.6z"/>
<path class="st0" d="M166.4,16.6L166.4,16.6c-4.6,0-8.3-3.7-8.3-8.3v0c0-4.6,3.7-8.3,8.3-8.3h0c4.6,0,8.3,3.7,8.3,8.3v0
	C174.7,12.8,171,16.6,166.4,16.6z"/>
<path class="st0" d="M189,16.6L189,16.6c-4.6,0-8.3-3.7-8.3-8.3v0c0-4.6,3.7-8.3,8.3-8.3h0c4.6,0,8.3,3.7,8.3,8.3v0
	C197.3,12.8,193.6,16.6,189,16.6z"/>
<path class="st0" d="M211.6,16.6L211.6,16.6c-4.6,0-8.3-3.7-8.3-8.3v0c0-4.6,3.7-8.3,8.3-8.3h0c4.6,0,8.3,3.7,8.3,8.3v0
	C219.9,12.8,216.1,16.6,211.6,16.6z"/>
<path class="st0" d="M234.1,16.6L234.1,16.6c-4.6,0-8.3-3.7-8.3-8.3v0c0-4.6,3.7-8.3,8.3-8.3h0c4.6,0,8.3,3.7,8.3,8.3v0
	C242.4,12.8,238.7,16.6,234.1,16.6z"/>
<path class="st0" d="M256.7,16.6L256.7,16.6c-4.6,0-8.3-3.7-8.3-8.3v0c0-4.6,3.7-8.3,8.3-8.3l0,0c4.6,0,8.3,3.7,8.3,8.3v0
	C265,12.8,261.3,16.6,256.7,16.6z"/>
<path class="st0" d="M279.3,16.6L279.3,16.6c-4.6,0-8.3-3.7-8.3-8.3v0c0-4.6,3.7-8.3,8.3-8.3l0,0c4.6,0,8.3,3.7,8.3,8.3v0
	C287.6,12.8,283.8,16.6,279.3,16.6z"/>
<path class="st0" d="M301.9,16.6L301.9,16.6c-4.6,0-8.3-3.7-8.3-8.3v0c0-4.6,3.7-8.3,8.3-8.3h0c4.6,0,8.3,3.7,8.3,8.3v0
	C310.1,12.8,306.4,16.6,301.9,16.6z"/>
<path class="st0" d="M324.4,16.6L324.4,16.6c-4.6,0-8.3-3.7-8.3-8.3v0c0-4.6,3.7-8.3,8.3-8.3h0c4.6,0,8.3,3.7,8.3,8.3v0
	C332.7,12.8,329,16.6,324.4,16.6z"/>
<path class="st0" d="M347,16.6L347,16.6c-4.6,0-8.3-3.7-8.3-8.3v0c0-4.6,3.7-8.3,8.3-8.3l0,0c4.6,0,8.3,3.7,8.3,8.3v0
	C355.3,12.8,351.5,16.6,347,16.6z"/>
<path class="st0" d="M369.6,16.6L369.6,16.6c-4.6,0-8.3-3.7-8.3-8.3v0c0-4.6,3.7-8.3,8.3-8.3l0,0c4.6,0,8.3,3.7,8.3,8.3v0
	C377.8,12.8,374.1,16.6,369.6,16.6z"/>
<path class="st1" d="M8.3,107.9L8.3,107.9c-4.6,0-8.3-3.7-8.3-8.3v0c0-4.6,3.7-8.3,8.3-8.3h0c4.6,0,8.3,3.7,8.3,8.3v0
	C16.6,104.2,12.8,107.9,8.3,107.9z"/>
<path class="st1" d="M30.9,107.9L30.9,107.9c-4.6,0-8.3-3.7-8.3-8.3v0c0-4.6,3.7-8.3,8.3-8.3h0c4.6,0,8.3,3.7,8.3,8.3v0
	C39.1,104.2,35.4,107.9,30.9,107.9z"/>
<path class="st1" d="M53.4,107.9L53.4,107.9c-4.6,0-8.3-3.7-8.3-8.3v0c0-4.6,3.7-8.3,8.3-8.3h0c4.6,0,8.3,3.7,8.3,8.3v0
	C61.7,104.2,58,107.9,53.4,107.9z"/>
<path class="st1" d="M76,107.9L76,107.9c-4.6,0-8.3-3.7-8.3-8.3v0c0-4.6,3.7-8.3,8.3-8.3h0c4.6,0,8.3,3.7,8.3,8.3v0
	C84.3,104.2,80.6,107.9,76,107.9z"/>
<path class="st1" d="M98.6,107.9L98.6,107.9c-4.6,0-8.3-3.7-8.3-8.3v0c0-4.6,3.7-8.3,8.3-8.3h0c4.6,0,8.3,3.7,8.3,8.3v0
	C106.9,104.2,103.1,107.9,98.6,107.9z"/>
<path class="st1" d="M121.1,107.9L121.1,107.9c-4.6,0-8.3-3.7-8.3-8.3v0c0-4.6,3.7-8.3,8.3-8.3h0c4.6,0,8.3,3.7,8.3,8.3v0
	C129.4,104.2,125.7,107.9,121.1,107.9z"/>
<path class="st1" d="M143.7,107.9L143.7,107.9c-4.6,0-8.3-3.7-8.3-8.3v0c0-4.6,3.7-8.3,8.3-8.3h0c4.6,0,8.3,3.7,8.3,8.3v0
	C152,104.2,148.3,107.9,143.7,107.9z"/>
<path class="st1" d="M166.3,107.9L166.3,107.9c-4.6,0-8.3-3.7-8.3-8.3v0c0-4.6,3.7-8.3,8.3-8.3h0c4.6,0,8.3,3.7,8.3,8.3v0
	C174.6,104.2,170.8,107.9,166.3,107.9z"/>
<path class="st1" d="M188.8,107.9L188.8,107.9c-4.6,0-8.3-3.7-8.3-8.3v0c0-4.6,3.7-8.3,8.3-8.3h0c4.6,0,8.3,3.7,8.3,8.3v0
	C197.1,104.2,193.4,107.9,188.8,107.9z"/>
<path class="st1" d="M211.4,107.9L211.4,107.9c-4.6,0-8.3-3.7-8.3-8.3v0c0-4.6,3.7-8.3,8.3-8.3h0c4.6,0,8.3,3.7,8.3,8.3v0
	C219.7,104.2,216,107.9,211.4,107.9z"/>
<path class="st1" d="M234,107.9L234,107.9c-4.6,0-8.3-3.7-8.3-8.3v0c0-4.6,3.7-8.3,8.3-8.3h0c4.6,0,8.3,3.7,8.3,8.3v0
	C242.3,104.2,238.5,107.9,234,107.9z"/>
<path class="st1" d="M256.6,107.9L256.6,107.9c-4.6,0-8.3-3.7-8.3-8.3v0c0-4.6,3.7-8.3,8.3-8.3h0c4.6,0,8.3,3.7,8.3,8.3v0
	C264.8,104.2,261.1,107.9,256.6,107.9z"/>
<path class="st1" d="M279.1,107.9L279.1,107.9c-4.6,0-8.3-3.7-8.3-8.3v0c0-4.6,3.7-8.3,8.3-8.3h0c4.6,0,8.3,3.7,8.3,8.3v0
	C287.4,104.2,283.7,107.9,279.1,107.9z"/>
<path class="st1" d="M301.7,107.9L301.7,107.9c-4.6,0-8.3-3.7-8.3-8.3v0c0-4.6,3.7-8.3,8.3-8.3l0,0c4.6,0,8.3,3.7,8.3,8.3v0
	C310,104.2,306.3,107.9,301.7,107.9z"/>
<path class="st1" d="M324.3,107.9L324.3,107.9c-4.6,0-8.3-3.7-8.3-8.3v0c0-4.6,3.7-8.3,8.3-8.3l0,0c4.6,0,8.3,3.7,8.3,8.3v0
	C332.6,104.2,328.8,107.9,324.3,107.9z"/>
<path class="st1" d="M8.3,85.3L8.3,85.3C3.7,85.3,0,81.6,0,77v0c0-4.6,3.7-8.3,8.3-8.3h0c4.6,0,8.3,3.7,8.3,8.3v0
	C16.6,81.6,12.8,85.3,8.3,85.3z"/>
<path class="st1" d="M30.9,85.3L30.9,85.3c-4.6,0-8.3-3.7-8.3-8.3v0c0-4.6,3.7-8.3,8.3-8.3h0c4.6,0,8.3,3.7,8.3,8.3v0
	C39.1,81.6,35.4,85.3,30.9,85.3z"/>
<path class="st1" d="M53.4,85.3L53.4,85.3c-4.6,0-8.3-3.7-8.3-8.3v0c0-4.6,3.7-8.3,8.3-8.3h0c4.6,0,8.3,3.7,8.3,8.3v0
	C61.7,81.6,58,85.3,53.4,85.3z"/>
<path class="st1" d="M76,85.3L76,85.3c-4.6,0-8.3-3.7-8.3-8.3v0c0-4.6,3.7-8.3,8.3-8.3h0c4.6,0,8.3,3.7,8.3,8.3v0
	C84.3,81.6,80.6,85.3,76,85.3z"/>
<path class="st1" d="M98.6,85.3L98.6,85.3c-4.6,0-8.3-3.7-8.3-8.3v0c0-4.6,3.7-8.3,8.3-8.3h0c4.6,0,8.3,3.7,8.3,8.3v0
	C106.9,81.6,103.1,85.3,98.6,85.3z"/>
<path class="st1" d="M121.1,85.3L121.1,85.3c-4.6,0-8.3-3.7-8.3-8.3v0c0-4.6,3.7-8.3,8.3-8.3h0c4.6,0,8.3,3.7,8.3,8.3v0
	C129.4,81.6,125.7,85.3,121.1,85.3z"/>
<path class="st1" d="M143.7,85.3L143.7,85.3c-4.6,0-8.3-3.7-8.3-8.3v0c0-4.6,3.7-8.3,8.3-8.3h0c4.6,0,8.3,3.7,8.3,8.3v0
	C152,81.6,148.3,85.3,143.7,85.3z"/>
<path class="st1" d="M166.3,85.3L166.3,85.3c-4.6,0-8.3-3.7-8.3-8.3v0c0-4.6,3.7-8.3,8.3-8.3h0c4.6,0,8.3,3.7,8.3,8.3v0
	C174.6,81.6,170.8,85.3,166.3,85.3z"/>
<path class="st1" d="M188.8,85.3L188.8,85.3c-4.6,0-8.3-3.7-8.3-8.3v0c0-4.6,3.7-8.3,8.3-8.3h0c4.6,0,8.3,3.7,8.3,8.3v0
	C197.1,81.6,193.4,85.3,188.8,85.3z"/>
<path class="st1" d="M211.4,85.3L211.4,85.3c-4.6,0-8.3-3.7-8.3-8.3v0c0-4.6,3.7-8.3,8.3-8.3h0c4.6,0,8.3,3.7,8.3,8.3v0
	C219.7,81.6,216,85.3,211.4,85.3z"/>
<path class="st1" d="M234,85.3L234,85.3c-4.6,0-8.3-3.7-8.3-8.3v0c0-4.6,3.7-8.3,8.3-8.3h0c4.6,0,8.3,3.7,8.3,8.3v0
	C242.3,81.6,238.5,85.3,234,85.3z"/>
<path class="st1" d="M256.6,85.3L256.6,85.3c-4.6,0-8.3-3.7-8.3-8.3v0c0-4.6,3.7-8.3,8.3-8.3h0c4.6,0,8.3,3.7,8.3,8.3v0
	C264.8,81.6,261.1,85.3,256.6,85.3z"/>
<path class="st1" d="M279.1,85.3L279.1,85.3c-4.6,0-8.3-3.7-8.3-8.3v0c0-4.6,3.7-8.3,8.3-8.3h0c4.6,0,8.3,3.7,8.3,8.3v0
	C287.4,81.6,283.7,85.3,279.1,85.3z"/>
<path class="st1" d="M301.7,85.3L301.7,85.3c-4.6,0-8.3-3.7-8.3-8.3v0c0-4.6,3.7-8.3,8.3-8.3l0,0c4.6,0,8.3,3.7,8.3,8.3v0
	C310,81.6,306.3,85.3,301.7,85.3z"/>
<path class="st1" d="M324.3,85.3L324.3,85.3c-4.6,0-8.3-3.7-8.3-8.3v0c0-4.6,3.7-8.3,8.3-8.3l0,0c4.6,0,8.3,3.7,8.3,8.3v0
	C332.6,81.6,328.8,85.3,324.3,85.3z"/>
<path class="st1" d="M346.8,85.3L346.8,85.3c-4.6,0-8.3-3.7-8.3-8.3v0c0-4.6,3.7-8.3,8.3-8.3h0c4.6,0,8.3,3.7,8.3,8.3v0
	C355.1,81.6,351.4,85.3,346.8,85.3z"/>
<path class="st1" d="M8.3,153L8.3,153c-4.6,0-8.3-3.7-8.3-8.3v0c0-4.6,3.7-8.3,8.3-8.3h0c4.6,0,8.3,3.7,8.3,8.3v0
	C16.6,149.3,12.9,153,8.3,153z"/>
<path class="st1" d="M30.9,153L30.9,153c-4.6,0-8.3-3.7-8.3-8.3v0c0-4.6,3.7-8.3,8.3-8.3h0c4.6,0,8.3,3.7,8.3,8.3v0
	C39.2,149.3,35.4,153,30.9,153z"/>
<path class="st1" d="M53.5,153L53.5,153c-4.6,0-8.3-3.7-8.3-8.3v0c0-4.6,3.7-8.3,8.3-8.3h0c4.6,0,8.3,3.7,8.3,8.3v0
	C61.7,149.3,58,153,53.5,153z"/>
<path class="st1" d="M76,153L76,153c-4.6,0-8.3-3.7-8.3-8.3v0c0-4.6,3.7-8.3,8.3-8.3h0c4.6,0,8.3,3.7,8.3,8.3v0
	C84.3,149.3,80.6,153,76,153z"/>
<path class="st1" d="M98.6,153L98.6,153c-4.6,0-8.3-3.7-8.3-8.3v0c0-4.6,3.7-8.3,8.3-8.3h0c4.6,0,8.3,3.7,8.3,8.3v0
	C106.9,149.3,103.1,153,98.6,153z"/>
<path class="st1" d="M121.2,153L121.2,153c-4.6,0-8.3-3.7-8.3-8.3v0c0-4.6,3.7-8.3,8.3-8.3h0c4.6,0,8.3,3.7,8.3,8.3v0
	C129.4,149.3,125.7,153,121.2,153z"/>
<path class="st1" d="M143.7,153L143.7,153c-4.6,0-8.3-3.7-8.3-8.3v0c0-4.6,3.7-8.3,8.3-8.3h0c4.6,0,8.3,3.7,8.3,8.3v0
	C152,149.3,148.3,153,143.7,153z"/>
<path class="st1" d="M166.3,153L166.3,153c-4.6,0-8.3-3.7-8.3-8.3v0c0-4.6,3.7-8.3,8.3-8.3h0c4.6,0,8.3,3.7,8.3,8.3v0
	C174.6,149.3,170.9,153,166.3,153z"/>
<path class="st1" d="M188.9,153L188.9,153c-4.6,0-8.3-3.7-8.3-8.3v0c0-4.6,3.7-8.3,8.3-8.3h0c4.6,0,8.3,3.7,8.3,8.3v0
	C197.2,149.3,193.4,153,188.9,153z"/>
<path class="st1" d="M211.4,153L211.4,153c-4.6,0-8.3-3.7-8.3-8.3v0c0-4.6,3.7-8.3,8.3-8.3h0c4.6,0,8.3,3.7,8.3,8.3v0
	C219.7,149.3,216,153,211.4,153z"/>
<path class="st1" d="M234,153L234,153c-4.6,0-8.3-3.7-8.3-8.3v0c0-4.6,3.7-8.3,8.3-8.3h0c4.6,0,8.3,3.7,8.3,8.3v0
	C242.3,149.3,238.6,153,234,153z"/>
<path class="st1" d="M256.6,153L256.6,153c-4.6,0-8.3-3.7-8.3-8.3v0c0-4.6,3.7-8.3,8.3-8.3l0,0c4.6,0,8.3,3.7,8.3,8.3v0
	C264.9,149.3,261.1,153,256.6,153z"/>
<path class="st1" d="M279.2,153L279.2,153c-4.6,0-8.3-3.7-8.3-8.3v0c0-4.6,3.7-8.3,8.3-8.3l0,0c4.6,0,8.3,3.7,8.3,8.3v0
	C287.4,149.3,283.7,153,279.2,153z"/>
<path class="st1" d="M301.7,153L301.7,153c-4.6,0-8.3-3.7-8.3-8.3v0c0-4.6,3.7-8.3,8.3-8.3h0c4.6,0,8.3,3.7,8.3,8.3v0
	C310,149.3,306.3,153,301.7,153z"/>
<path class="st1" d="M53.6,333.6L53.6,333.6c-4.6,0-8.3-3.7-8.3-8.3v0c0-4.6,3.7-8.3,8.3-8.3h0c4.6,0,8.3,3.7,8.3,8.3v0
	C61.8,329.9,58.1,333.6,53.6,333.6z"/>
<path class="st1" d="M76.1,333.6L76.1,333.6c-4.6,0-8.3-3.7-8.3-8.3v0c0-4.6,3.7-8.3,8.3-8.3h0c4.6,0,8.3,3.7,8.3,8.3v0
	C84.4,329.9,80.7,333.6,76.1,333.6z"/>
<path class="st1" d="M98.7,333.6L98.7,333.6c-4.6,0-8.3-3.7-8.3-8.3v0c0-4.6,3.7-8.3,8.3-8.3h0c4.6,0,8.3,3.7,8.3,8.3v0
	C107,329.9,103.3,333.6,98.7,333.6z"/>
<path class="st1" d="M121.3,333.6L121.3,333.6c-4.6,0-8.3-3.7-8.3-8.3v0c0-4.6,3.7-8.3,8.3-8.3h0c4.6,0,8.3,3.7,8.3,8.3v0
	C129.6,329.9,125.8,333.6,121.3,333.6z"/>
<path class="st1" d="M143.8,333.6L143.8,333.6c-4.6,0-8.3-3.7-8.3-8.3v0c0-4.6,3.7-8.3,8.3-8.3h0c4.6,0,8.3,3.7,8.3,8.3v0
	C152.1,329.9,148.4,333.6,143.8,333.6z"/>
<path class="st1" d="M166.4,333.6L166.4,333.6c-4.6,0-8.3-3.7-8.3-8.3v0c0-4.6,3.7-8.3,8.3-8.3h0c4.6,0,8.3,3.7,8.3,8.3v0
	C174.7,329.9,171,333.6,166.4,333.6z"/>
<path class="st1" d="M189,333.6L189,333.6c-4.6,0-8.3-3.7-8.3-8.3v0c0-4.6,3.7-8.3,8.3-8.3h0c4.6,0,8.3,3.7,8.3,8.3v0
	C197.3,329.9,193.5,333.6,189,333.6z"/>
<path class="st1" d="M211.6,333.6L211.6,333.6c-4.6,0-8.3-3.7-8.3-8.3v0c0-4.6,3.7-8.3,8.3-8.3h0c4.6,0,8.3,3.7,8.3,8.3v0
	C219.8,329.9,216.1,333.6,211.6,333.6z"/>
<path class="st1" d="M53.6,356.2L53.6,356.2c-4.6,0-8.3-3.7-8.3-8.3l0,0c0-4.6,3.7-8.3,8.3-8.3h0c4.6,0,8.3,3.7,8.3,8.3l0,0
	C61.8,352.4,58.1,356.2,53.6,356.2z"/>
<path class="st1" d="M76.1,356.2L76.1,356.2c-4.6,0-8.3-3.7-8.3-8.3l0,0c0-4.6,3.7-8.3,8.3-8.3h0c4.6,0,8.3,3.7,8.3,8.3l0,0
	C84.4,352.4,80.7,356.2,76.1,356.2z"/>
<path class="st1" d="M98.7,356.2L98.7,356.2c-4.6,0-8.3-3.7-8.3-8.3l0,0c0-4.6,3.7-8.3,8.3-8.3h0c4.6,0,8.3,3.7,8.3,8.3l0,0
	C107,352.4,103.3,356.2,98.7,356.2z"/>
<path class="st1" d="M121.3,356.2L121.3,356.2c-4.6,0-8.3-3.7-8.3-8.3l0,0c0-4.6,3.7-8.3,8.3-8.3h0c4.6,0,8.3,3.7,8.3,8.3l0,0
	C129.6,352.4,125.8,356.2,121.3,356.2z"/>
<path class="st1" d="M143.8,356.2L143.8,356.2c-4.6,0-8.3-3.7-8.3-8.3l0,0c0-4.6,3.7-8.3,8.3-8.3h0c4.6,0,8.3,3.7,8.3,8.3l0,0
	C152.1,352.4,148.4,356.2,143.8,356.2z"/>
<path class="st1" d="M166.4,356.2L166.4,356.2c-4.6,0-8.3-3.7-8.3-8.3l0,0c0-4.6,3.7-8.3,8.3-8.3h0c4.6,0,8.3,3.7,8.3,8.3l0,0
	C174.7,352.4,171,356.2,166.4,356.2z"/>
<path class="st1" d="M189,356.2L189,356.2c-4.6,0-8.3-3.7-8.3-8.3l0,0c0-4.6,3.7-8.3,8.3-8.3h0c4.6,0,8.3,3.7,8.3,8.3l0,0
	C197.3,352.4,193.5,356.2,189,356.2z"/>
<path class="st1" d="M211.6,356.2L211.6,356.2c-4.6,0-8.3-3.7-8.3-8.3l0,0c0-4.6,3.7-8.3,8.3-8.3h0c4.6,0,8.3,3.7,8.3,8.3l0,0
	C219.8,352.4,216.1,356.2,211.6,356.2z"/>
<path class="st1" d="M53.6,378.8L53.6,378.8c-4.6,0-8.3-3.7-8.3-8.3v0c0-4.6,3.7-8.3,8.3-8.3h0c4.6,0,8.3,3.7,8.3,8.3v0
	C61.8,375.1,58.1,378.8,53.6,378.8z"/>
<path class="st1" d="M76.1,378.8L76.1,378.8c-4.6,0-8.3-3.7-8.3-8.3v0c0-4.6,3.7-8.3,8.3-8.3h0c4.6,0,8.3,3.7,8.3,8.3v0
	C84.4,375.1,80.7,378.8,76.1,378.8z"/>
<path class="st1" d="M98.7,378.8L98.7,378.8c-4.6,0-8.3-3.7-8.3-8.3v0c0-4.6,3.7-8.3,8.3-8.3h0c4.6,0,8.3,3.7,8.3,8.3v0
	C107,375.1,103.3,378.8,98.7,378.8z"/>
<path class="st1" d="M121.3,378.8L121.3,378.8c-4.6,0-8.3-3.7-8.3-8.3v0c0-4.6,3.7-8.3,8.3-8.3h0c4.6,0,8.3,3.7,8.3,8.3v0
	C129.6,375.1,125.8,378.8,121.3,378.8z"/>
<path class="st1" d="M143.8,378.8L143.8,378.8c-4.6,0-8.3-3.7-8.3-8.3v0c0-4.6,3.7-8.3,8.3-8.3h0c4.6,0,8.3,3.7,8.3,8.3v0
	C152.1,375.1,148.4,378.8,143.8,378.8z"/>
<path class="st1" d="M166.4,378.8L166.4,378.8c-4.6,0-8.3-3.7-8.3-8.3v0c0-4.6,3.7-8.3,8.3-8.3h0c4.6,0,8.3,3.7,8.3,8.3v0
	C174.7,375.1,171,378.8,166.4,378.8z"/>
<path class="st1" d="M189,378.8L189,378.8c-4.6,0-8.3-3.7-8.3-8.3v0c0-4.6,3.7-8.3,8.3-8.3h0c4.6,0,8.3,3.7,8.3,8.3v0
	C197.3,375.1,193.5,378.8,189,378.8z"/>
<path class="st1" d="M211.6,378.8L211.6,378.8c-4.6,0-8.3-3.7-8.3-8.3v0c0-4.6,3.7-8.3,8.3-8.3h0c4.6,0,8.3,3.7,8.3,8.3v0
	C219.8,375.1,216.1,378.8,211.6,378.8z"/>
<path class="st1" d="M53.6,401.4L53.6,401.4c-4.6,0-8.3-3.7-8.3-8.3l0,0c0-4.6,3.7-8.3,8.3-8.3h0c4.6,0,8.3,3.7,8.3,8.3l0,0
	C61.8,397.6,58.1,401.4,53.6,401.4z"/>
<path class="st1" d="M76.1,401.4L76.1,401.4c-4.6,0-8.3-3.7-8.3-8.3l0,0c0-4.6,3.7-8.3,8.3-8.3h0c4.6,0,8.3,3.7,8.3,8.3l0,0
	C84.4,397.6,80.7,401.4,76.1,401.4z"/>
<path class="st1" d="M98.7,401.4L98.7,401.4c-4.6,0-8.3-3.7-8.3-8.3l0,0c0-4.6,3.7-8.3,8.3-8.3h0c4.6,0,8.3,3.7,8.3,8.3l0,0
	C107,397.6,103.3,401.4,98.7,401.4z"/>
<path class="st1" d="M121.3,401.4L121.3,401.4c-4.6,0-8.3-3.7-8.3-8.3l0,0c0-4.6,3.7-8.3,8.3-8.3h0c4.6,0,8.3,3.7,8.3,8.3l0,0
	C129.6,397.6,125.8,401.4,121.3,401.4z"/>
<path class="st1" d="M143.8,401.4L143.8,401.4c-4.6,0-8.3-3.7-8.3-8.3l0,0c0-4.6,3.7-8.3,8.3-8.3h0c4.6,0,8.3,3.7,8.3,8.3l0,0
	C152.1,397.6,148.4,401.4,143.8,401.4z"/>
<path class="st1" d="M166.4,401.4L166.4,401.4c-4.6,0-8.3-3.7-8.3-8.3l0,0c0-4.6,3.7-8.3,8.3-8.3h0c4.6,0,8.3,3.7,8.3,8.3l0,0
	C174.7,397.6,171,401.4,166.4,401.4z"/>
<path class="st1" d="M189,401.4L189,401.4c-4.6,0-8.3-3.7-8.3-8.3l0,0c0-4.6,3.7-8.3,8.3-8.3h0c4.6,0,8.3,3.7,8.3,8.3l0,0
	C197.3,397.6,193.5,401.4,189,401.4z"/>
<path class="st1" d="M53.6,424L53.6,424c-4.6,0-8.3-3.7-8.3-8.3v0c0-4.6,3.7-8.3,8.3-8.3h0c4.6,0,8.3,3.7,8.3,8.3v0
	C61.8,420.3,58.1,424,53.6,424z"/>
<path class="st1" d="M76.1,424L76.1,424c-4.6,0-8.3-3.7-8.3-8.3v0c0-4.6,3.7-8.3,8.3-8.3h0c4.6,0,8.3,3.7,8.3,8.3v0
	C84.4,420.3,80.7,424,76.1,424z"/>
<path class="st1" d="M98.7,424L98.7,424c-4.6,0-8.3-3.7-8.3-8.3v0c0-4.6,3.7-8.3,8.3-8.3h0c4.6,0,8.3,3.7,8.3,8.3v0
	C107,420.3,103.3,424,98.7,424z"/>
<path class="st1" d="M121.3,424L121.3,424c-4.6,0-8.3-3.7-8.3-8.3v0c0-4.6,3.7-8.3,8.3-8.3h0c4.6,0,8.3,3.7,8.3,8.3v0
	C129.6,420.3,125.8,424,121.3,424z"/>
<path class="st1" d="M143.8,424L143.8,424c-4.6,0-8.3-3.7-8.3-8.3v0c0-4.6,3.7-8.3,8.3-8.3h0c4.6,0,8.3,3.7,8.3,8.3v0
	C152.1,420.3,148.4,424,143.8,424z"/>
<path class="st1" d="M166.4,424L166.4,424c-4.6,0-8.3-3.7-8.3-8.3v0c0-4.6,3.7-8.3,8.3-8.3h0c4.6,0,8.3,3.7,8.3,8.3v0
	C174.7,420.3,171,424,166.4,424z"/>
<path class="st1" d="M189,424L189,424c-4.6,0-8.3-3.7-8.3-8.3v0c0-4.6,3.7-8.3,8.3-8.3h0c4.6,0,8.3,3.7,8.3,8.3v0
	C197.3,420.3,193.5,424,189,424z"/>
<path class="st1" d="M8.3,446.5L8.3,446.5c-4.6,0-8.3-3.7-8.3-8.3l0,0c0-4.6,3.7-8.3,8.3-8.3h0c4.6,0,8.3,3.7,8.3,8.3l0,0
	C16.6,442.8,12.9,446.5,8.3,446.5z"/>
<path class="st1" d="M30.9,446.5L30.9,446.5c-4.6,0-8.3-3.7-8.3-8.3l0,0c0-4.6,3.7-8.3,8.3-8.3h0c4.6,0,8.3,3.7,8.3,8.3l0,0
	C39.2,442.8,35.4,446.5,30.9,446.5z"/>
<path class="st1" d="M53.5,446.5L53.5,446.5c-4.6,0-8.3-3.7-8.3-8.3l0,0c0-4.6,3.7-8.3,8.3-8.3h0c4.6,0,8.3,3.7,8.3,8.3l0,0
	C61.7,442.8,58,446.5,53.5,446.5z"/>
<path class="st1" d="M76,446.5L76,446.5c-4.6,0-8.3-3.7-8.3-8.3l0,0c0-4.6,3.7-8.3,8.3-8.3h0c4.6,0,8.3,3.7,8.3,8.3l0,0
	C84.3,442.8,80.6,446.5,76,446.5z"/>
<path class="st1" d="M98.6,446.5L98.6,446.5c-4.6,0-8.3-3.7-8.3-8.3l0,0c0-4.6,3.7-8.3,8.3-8.3h0c4.6,0,8.3,3.7,8.3,8.3l0,0
	C106.9,442.8,103.1,446.5,98.6,446.5z"/>
<path class="st1" d="M121.2,446.5L121.2,446.5c-4.6,0-8.3-3.7-8.3-8.3l0,0c0-4.6,3.7-8.3,8.3-8.3h0c4.6,0,8.3,3.7,8.3,8.3l0,0
	C129.4,442.8,125.7,446.5,121.2,446.5z"/>
<path class="st1" d="M143.7,446.5L143.7,446.5c-4.6,0-8.3-3.7-8.3-8.3l0,0c0-4.6,3.7-8.3,8.3-8.3h0c4.6,0,8.3,3.7,8.3,8.3l0,0
	C152,442.8,148.3,446.5,143.7,446.5z"/>
<path class="st1" d="M166.3,446.5L166.3,446.5c-4.6,0-8.3-3.7-8.3-8.3l0,0c0-4.6,3.7-8.3,8.3-8.3h0c4.6,0,8.3,3.7,8.3,8.3l0,0
	C174.6,442.8,170.9,446.5,166.3,446.5z"/>
<path class="st1" d="M188.9,446.5L188.9,446.5c-4.6,0-8.3-3.7-8.3-8.3l0,0c0-4.6,3.7-8.3,8.3-8.3h0c4.6,0,8.3,3.7,8.3,8.3l0,0
	C197.2,442.8,193.4,446.5,188.9,446.5z"/>
<path class="st1" d="M8.3,130.5L8.3,130.5c-4.6,0-8.3-3.7-8.3-8.3v0c0-4.6,3.7-8.3,8.3-8.3h0c4.6,0,8.3,3.7,8.3,8.3v0
	C16.6,126.7,12.9,130.5,8.3,130.5z"/>
<path class="st1" d="M30.9,130.5L30.9,130.5c-4.6,0-8.3-3.7-8.3-8.3v0c0-4.6,3.7-8.3,8.3-8.3h0c4.6,0,8.3,3.7,8.3,8.3v0
	C39.2,126.7,35.4,130.5,30.9,130.5z"/>
<path class="st1" d="M53.5,130.5L53.5,130.5c-4.6,0-8.3-3.7-8.3-8.3v0c0-4.6,3.7-8.3,8.3-8.3h0c4.6,0,8.3,3.7,8.3,8.3v0
	C61.7,126.7,58,130.5,53.5,130.5z"/>
<path class="st1" d="M76,130.5L76,130.5c-4.6,0-8.3-3.7-8.3-8.3v0c0-4.6,3.7-8.3,8.3-8.3h0c4.6,0,8.3,3.7,8.3,8.3v0
	C84.3,126.7,80.6,130.5,76,130.5z"/>
<path class="st1" d="M98.6,130.5L98.6,130.5c-4.6,0-8.3-3.7-8.3-8.3v0c0-4.6,3.7-8.3,8.3-8.3h0c4.6,0,8.3,3.7,8.3,8.3v0
	C106.9,126.7,103.1,130.5,98.6,130.5z"/>
<path class="st1" d="M121.2,130.5L121.2,130.5c-4.6,0-8.3-3.7-8.3-8.3v0c0-4.6,3.7-8.3,8.3-8.3h0c4.6,0,8.3,3.7,8.3,8.3v0
	C129.4,126.7,125.7,130.5,121.2,130.5z"/>
<path class="st1" d="M143.7,130.5L143.7,130.5c-4.6,0-8.3-3.7-8.3-8.3v0c0-4.6,3.7-8.3,8.3-8.3h0c4.6,0,8.3,3.7,8.3,8.3v0
	C152,126.7,148.3,130.5,143.7,130.5z"/>
<path class="st1" d="M166.3,130.5L166.3,130.5c-4.6,0-8.3-3.7-8.3-8.3v0c0-4.6,3.7-8.3,8.3-8.3h0c4.6,0,8.3,3.7,8.3,8.3v0
	C174.6,126.7,170.9,130.5,166.3,130.5z"/>
<path class="st1" d="M188.9,130.5L188.9,130.5c-4.6,0-8.3-3.7-8.3-8.3v0c0-4.6,3.7-8.3,8.3-8.3h0c4.6,0,8.3,3.7,8.3,8.3v0
	C197.2,126.7,193.4,130.5,188.9,130.5z"/>
<path class="st1" d="M211.4,130.5L211.4,130.5c-4.6,0-8.3-3.7-8.3-8.3v0c0-4.6,3.7-8.3,8.3-8.3h0c4.6,0,8.3,3.7,8.3,8.3v0
	C219.7,126.7,216,130.5,211.4,130.5z"/>
<path class="st1" d="M234,130.5L234,130.5c-4.6,0-8.3-3.7-8.3-8.3v0c0-4.6,3.7-8.3,8.3-8.3h0c4.6,0,8.3,3.7,8.3,8.3v0
	C242.3,126.7,238.6,130.5,234,130.5z"/>
<path class="st1" d="M256.6,130.5L256.6,130.5c-4.6,0-8.3-3.7-8.3-8.3v0c0-4.6,3.7-8.3,8.3-8.3l0,0c4.6,0,8.3,3.7,8.3,8.3v0
	C264.9,126.7,261.1,130.5,256.6,130.5z"/>
<path class="st1" d="M279.2,130.5L279.2,130.5c-4.6,0-8.3-3.7-8.3-8.3v0c0-4.6,3.7-8.3,8.3-8.3l0,0c4.6,0,8.3,3.7,8.3,8.3v0
	C287.4,126.7,283.7,130.5,279.2,130.5z"/>
<path class="st1" d="M301.7,130.5L301.7,130.5c-4.6,0-8.3-3.7-8.3-8.3v0c0-4.6,3.7-8.3,8.3-8.3h0c4.6,0,8.3,3.7,8.3,8.3v0
	C310,126.7,306.3,130.5,301.7,130.5z"/>
<path class="st1" d="M324.3,130.5L324.3,130.5c-4.6,0-8.3-3.7-8.3-8.3v0c0-4.6,3.7-8.3,8.3-8.3h0c4.6,0,8.3,3.7,8.3,8.3v0
	C332.6,126.7,328.9,130.5,324.3,130.5z"/>
<path class="st1" d="M8.3,175.6L8.3,175.6c-4.6,0-8.3-3.7-8.3-8.3v0c0-4.6,3.7-8.3,8.3-8.3h0c4.6,0,8.3,3.7,8.3,8.3v0
	C16.6,171.9,12.9,175.6,8.3,175.6z"/>
<path class="st1" d="M30.9,175.6L30.9,175.6c-4.6,0-8.3-3.7-8.3-8.3v0c0-4.6,3.7-8.3,8.3-8.3h0c4.6,0,8.3,3.7,8.3,8.3v0
	C39.2,171.9,35.5,175.6,30.9,175.6z"/>
<path class="st1" d="M53.5,175.6L53.5,175.6c-4.6,0-8.3-3.7-8.3-8.3v0c0-4.6,3.7-8.3,8.3-8.3h0c4.6,0,8.3,3.7,8.3,8.3v0
	C61.8,171.9,58,175.6,53.5,175.6z"/>
<path class="st1" d="M76,175.6L76,175.6c-4.6,0-8.3-3.7-8.3-8.3v0c0-4.6,3.7-8.3,8.3-8.3h0c4.6,0,8.3,3.7,8.3,8.3v0
	C84.3,171.9,80.6,175.6,76,175.6z"/>
<path class="st1" d="M98.6,175.6L98.6,175.6c-4.6,0-8.3-3.7-8.3-8.3v0c0-4.6,3.7-8.3,8.3-8.3h0c4.6,0,8.3,3.7,8.3,8.3v0
	C106.9,171.9,103.2,175.6,98.6,175.6z"/>
<path class="st1" d="M121.2,175.6L121.2,175.6c-4.6,0-8.3-3.7-8.3-8.3v0c0-4.6,3.7-8.3,8.3-8.3h0c4.6,0,8.3,3.7,8.3,8.3v0
	C129.5,171.9,125.7,175.6,121.2,175.6z"/>
<path class="st1" d="M143.8,175.6L143.8,175.6c-4.6,0-8.3-3.7-8.3-8.3v0c0-4.6,3.7-8.3,8.3-8.3h0c4.6,0,8.3,3.7,8.3,8.3v0
	C152,171.9,148.3,175.6,143.8,175.6z"/>
<path class="st1" d="M166.3,175.6L166.3,175.6c-4.6,0-8.3-3.7-8.3-8.3v0c0-4.6,3.7-8.3,8.3-8.3h0c4.6,0,8.3,3.7,8.3,8.3v0
	C174.6,171.9,170.9,175.6,166.3,175.6z"/>
<path class="st1" d="M188.9,175.6L188.9,175.6c-4.6,0-8.3-3.7-8.3-8.3v0c0-4.6,3.7-8.3,8.3-8.3h0c4.6,0,8.3,3.7,8.3,8.3v0
	C197.2,171.9,193.4,175.6,188.9,175.6z"/>
<path class="st1" d="M211.5,175.6L211.5,175.6c-4.6,0-8.3-3.7-8.3-8.3v0c0-4.6,3.7-8.3,8.3-8.3h0c4.6,0,8.3,3.7,8.3,8.3v0
	C219.7,171.9,216,175.6,211.5,175.6z"/>
<path class="st1" d="M234,175.6L234,175.6c-4.6,0-8.3-3.7-8.3-8.3v0c0-4.6,3.7-8.3,8.3-8.3h0c4.6,0,8.3,3.7,8.3,8.3v0
	C242.3,171.9,238.6,175.6,234,175.6z"/>
<path class="st1" d="M256.6,175.6L256.6,175.6c-4.6,0-8.3-3.7-8.3-8.3v0c0-4.6,3.7-8.3,8.3-8.3l0,0c4.6,0,8.3,3.7,8.3,8.3v0
	C264.9,171.9,261.2,175.6,256.6,175.6z"/>
<path class="st1" d="M8.3,220.7L8.3,220.7c-4.6,0-8.3-3.7-8.3-8.3v0c0-4.6,3.7-8.3,8.3-8.3h0c4.6,0,8.3,3.7,8.3,8.3v0
	C16.6,217,12.9,220.7,8.3,220.7z"/>
<path class="st1" d="M30.9,220.7L30.9,220.7c-4.6,0-8.3-3.7-8.3-8.3v0c0-4.6,3.7-8.3,8.3-8.3h0c4.6,0,8.3,3.7,8.3,8.3v0
	C39.2,217,35.4,220.7,30.9,220.7z"/>
<path class="st1" d="M53.4,220.7L53.4,220.7c-4.6,0-8.3-3.7-8.3-8.3v0c0-4.6,3.7-8.3,8.3-8.3h0c4.6,0,8.3,3.7,8.3,8.3v0
	C61.7,217,58,220.7,53.4,220.7z"/>
<path class="st1" d="M76,220.7L76,220.7c-4.6,0-8.3-3.7-8.3-8.3v0c0-4.6,3.7-8.3,8.3-8.3h0c4.6,0,8.3,3.7,8.3,8.3v0
	C84.3,217,80.6,220.7,76,220.7z"/>
<path class="st1" d="M98.6,220.7L98.6,220.7c-4.6,0-8.3-3.7-8.3-8.3v0c0-4.6,3.7-8.3,8.3-8.3h0c4.6,0,8.3,3.7,8.3,8.3v0
	C106.9,217,103.1,220.7,98.6,220.7z"/>
<path class="st1" d="M121.2,220.7L121.2,220.7c-4.6,0-8.3-3.7-8.3-8.3v0c0-4.6,3.7-8.3,8.3-8.3h0c4.6,0,8.3,3.7,8.3,8.3v0
	C129.4,217,125.7,220.7,121.2,220.7z"/>
<path class="st1" d="M143.7,220.7L143.7,220.7c-4.6,0-8.3-3.7-8.3-8.3v0c0-4.6,3.7-8.3,8.3-8.3h0c4.6,0,8.3,3.7,8.3,8.3v0
	C152,217,148.3,220.7,143.7,220.7z"/>
<path class="st1" d="M166.3,220.7L166.3,220.7c-4.6,0-8.3-3.7-8.3-8.3v0c0-4.6,3.7-8.3,8.3-8.3h0c4.6,0,8.3,3.7,8.3,8.3v0
	C174.6,217,170.9,220.7,166.3,220.7z"/>
<path class="st1" d="M188.9,220.7L188.9,220.7c-4.6,0-8.3-3.7-8.3-8.3v0c0-4.6,3.7-8.3,8.3-8.3h0c4.6,0,8.3,3.7,8.3,8.3v0
	C197.2,217,193.4,220.7,188.9,220.7z"/>
<path class="st1" d="M211.4,220.7L211.4,220.7c-4.6,0-8.3-3.7-8.3-8.3v0c0-4.6,3.7-8.3,8.3-8.3h0c4.6,0,8.3,3.7,8.3,8.3v0
	C219.7,217,216,220.7,211.4,220.7z"/>
<path class="st1" d="M234,220.7L234,220.7c-4.6,0-8.3-3.7-8.3-8.3v0c0-4.6,3.7-8.3,8.3-8.3h0c4.6,0,8.3,3.7,8.3,8.3v0
	C242.3,217,238.6,220.7,234,220.7z"/>
<path class="st1" d="M256.6,220.7L256.6,220.7c-4.6,0-8.3-3.7-8.3-8.3v0c0-4.6,3.7-8.3,8.3-8.3h0c4.6,0,8.3,3.7,8.3,8.3v0
	C264.9,217,261.1,220.7,256.6,220.7z"/>
<path class="st1" d="M8.3,198.2L8.3,198.2c-4.6,0-8.3-3.7-8.3-8.3v0c0-4.6,3.7-8.3,8.3-8.3h0c4.6,0,8.3,3.7,8.3,8.3v0
	C16.6,194.4,12.9,198.2,8.3,198.2z"/>
<path class="st1" d="M30.9,198.2L30.9,198.2c-4.6,0-8.3-3.7-8.3-8.3v0c0-4.6,3.7-8.3,8.3-8.3h0c4.6,0,8.3,3.7,8.3,8.3v0
	C39.2,194.4,35.4,198.2,30.9,198.2z"/>
<path class="st1" d="M53.4,198.2L53.4,198.2c-4.6,0-8.3-3.7-8.3-8.3v0c0-4.6,3.7-8.3,8.3-8.3h0c4.6,0,8.3,3.7,8.3,8.3v0
	C61.7,194.4,58,198.2,53.4,198.2z"/>
<path class="st1" d="M76,198.2L76,198.2c-4.6,0-8.3-3.7-8.3-8.3v0c0-4.6,3.7-8.3,8.3-8.3h0c4.6,0,8.3,3.7,8.3,8.3v0
	C84.3,194.4,80.6,198.2,76,198.2z"/>
<path class="st1" d="M98.6,198.2L98.6,198.2c-4.6,0-8.3-3.7-8.3-8.3v0c0-4.6,3.7-8.3,8.3-8.3h0c4.6,0,8.3,3.7,8.3,8.3v0
	C106.9,194.4,103.1,198.2,98.6,198.2z"/>
<path class="st1" d="M121.2,198.2L121.2,198.2c-4.6,0-8.3-3.7-8.3-8.3v0c0-4.6,3.7-8.3,8.3-8.3h0c4.6,0,8.3,3.7,8.3,8.3v0
	C129.4,194.4,125.7,198.2,121.2,198.2z"/>
<path class="st1" d="M143.7,198.2L143.7,198.2c-4.6,0-8.3-3.7-8.3-8.3v0c0-4.6,3.7-8.3,8.3-8.3h0c4.6,0,8.3,3.7,8.3,8.3v0
	C152,194.4,148.3,198.2,143.7,198.2z"/>
<path class="st1" d="M166.3,198.2L166.3,198.2c-4.6,0-8.3-3.7-8.3-8.3v0c0-4.6,3.7-8.3,8.3-8.3h0c4.6,0,8.3,3.7,8.3,8.3v0
	C174.6,194.4,170.9,198.2,166.3,198.2z"/>
<path class="st1" d="M188.9,198.2L188.9,198.2c-4.6,0-8.3-3.7-8.3-8.3v0c0-4.6,3.7-8.3,8.3-8.3h0c4.6,0,8.3,3.7,8.3,8.3v0
	C197.2,194.4,193.4,198.2,188.9,198.2z"/>
<path class="st1" d="M211.4,198.2L211.4,198.2c-4.6,0-8.3-3.7-8.3-8.3v0c0-4.6,3.7-8.3,8.3-8.3h0c4.6,0,8.3,3.7,8.3,8.3v0
	C219.7,194.4,216,198.2,211.4,198.2z"/>
<path class="st1" d="M234,198.2L234,198.2c-4.6,0-8.3-3.7-8.3-8.3v0c0-4.6,3.7-8.3,8.3-8.3h0c4.6,0,8.3,3.7,8.3,8.3v0
	C242.3,194.4,238.6,198.2,234,198.2z"/>
<path class="st1" d="M256.6,198.2L256.6,198.2c-4.6,0-8.3-3.7-8.3-8.3v0c0-4.6,3.7-8.3,8.3-8.3h0c4.6,0,8.3,3.7,8.3,8.3v0
	C264.9,194.4,261.1,198.2,256.6,198.2z"/>
<path class="st1" d="M53.5,243.3L53.5,243.3c-4.6,0-8.3-3.7-8.3-8.3v0c0-4.6,3.7-8.3,8.3-8.3h0c4.6,0,8.3,3.7,8.3,8.3v0
	C61.8,239.6,58,243.3,53.5,243.3z"/>
<path class="st1" d="M76,243.3L76,243.3c-4.6,0-8.3-3.7-8.3-8.3v0c0-4.6,3.7-8.3,8.3-8.3h0c4.6,0,8.3,3.7,8.3,8.3v0
	C84.3,239.6,80.6,243.3,76,243.3z"/>
<path class="st1" d="M98.6,243.3L98.6,243.3c-4.6,0-8.3-3.7-8.3-8.3v0c0-4.6,3.7-8.3,8.3-8.3h0c4.6,0,8.3,3.7,8.3,8.3v0
	C106.9,239.6,103.2,243.3,98.6,243.3z"/>
<path class="st1" d="M121.2,243.3L121.2,243.3c-4.6,0-8.3-3.7-8.3-8.3v0c0-4.6,3.7-8.3,8.3-8.3h0c4.6,0,8.3,3.7,8.3,8.3v0
	C129.5,239.6,125.7,243.3,121.2,243.3z"/>
<path class="st1" d="M143.8,243.3L143.8,243.3c-4.6,0-8.3-3.7-8.3-8.3v0c0-4.6,3.7-8.3,8.3-8.3h0c4.6,0,8.3,3.7,8.3,8.3v0
	C152,239.6,148.3,243.3,143.8,243.3z"/>
<path class="st1" d="M166.3,243.3L166.3,243.3c-4.6,0-8.3-3.7-8.3-8.3v0c0-4.6,3.7-8.3,8.3-8.3h0c4.6,0,8.3,3.7,8.3,8.3v0
	C174.6,239.6,170.9,243.3,166.3,243.3z"/>
<path class="st1" d="M188.9,243.3L188.9,243.3c-4.6,0-8.3-3.7-8.3-8.3v0c0-4.6,3.7-8.3,8.3-8.3h0c4.6,0,8.3,3.7,8.3,8.3v0
	C197.2,239.6,193.4,243.3,188.9,243.3z"/>
<path class="st1" d="M211.5,243.3L211.5,243.3c-4.6,0-8.3-3.7-8.3-8.3v0c0-4.6,3.7-8.3,8.3-8.3h0c4.6,0,8.3,3.7,8.3,8.3v0
	C219.7,239.6,216,243.3,211.5,243.3z"/>
<path class="st1" d="M234,243.3L234,243.3c-4.6,0-8.3-3.7-8.3-8.3v0c0-4.6,3.7-8.3,8.3-8.3h0c4.6,0,8.3,3.7,8.3,8.3v0
	C242.3,239.6,238.6,243.3,234,243.3z"/>
<path class="st1" d="M256.6,243.3L256.6,243.3c-4.6,0-8.3-3.7-8.3-8.3v0c0-4.6,3.7-8.3,8.3-8.3l0,0c4.6,0,8.3,3.7,8.3,8.3v0
	C264.9,239.6,261.2,243.3,256.6,243.3z"/>
<path class="st1" d="M53.6,288.4L53.6,288.4c-4.6,0-8.3-3.7-8.3-8.3v0c0-4.6,3.7-8.3,8.3-8.3h0c4.6,0,8.3,3.7,8.3,8.3v0
	C61.8,284.7,58.1,288.4,53.6,288.4z"/>
<path class="st1" d="M76.1,288.4L76.1,288.4c-4.6,0-8.3-3.7-8.3-8.3v0c0-4.6,3.7-8.3,8.3-8.3h0c4.6,0,8.3,3.7,8.3,8.3v0
	C84.4,284.7,80.7,288.4,76.1,288.4z"/>
<path class="st1" d="M98.7,288.4L98.7,288.4c-4.6,0-8.3-3.7-8.3-8.3v0c0-4.6,3.7-8.3,8.3-8.3h0c4.6,0,8.3,3.7,8.3,8.3v0
	C107,284.7,103.3,288.4,98.7,288.4z"/>
<path class="st1" d="M121.3,288.4L121.3,288.4c-4.6,0-8.3-3.7-8.3-8.3v0c0-4.6,3.7-8.3,8.3-8.3h0c4.6,0,8.3,3.7,8.3,8.3v0
	C129.5,284.7,125.8,288.4,121.3,288.4z"/>
<path class="st1" d="M143.8,288.4L143.8,288.4c-4.6,0-8.3-3.7-8.3-8.3v0c0-4.6,3.7-8.3,8.3-8.3h0c4.6,0,8.3,3.7,8.3,8.3v0
	C152.1,284.7,148.4,288.4,143.8,288.4z"/>
<path class="st1" d="M166.4,288.4L166.4,288.4c-4.6,0-8.3-3.7-8.3-8.3v0c0-4.6,3.7-8.3,8.3-8.3h0c4.6,0,8.3,3.7,8.3,8.3v0
	C174.7,284.7,171,288.4,166.4,288.4z"/>
<path class="st1" d="M189,288.4L189,288.4c-4.6,0-8.3-3.7-8.3-8.3v0c0-4.6,3.7-8.3,8.3-8.3h0c4.6,0,8.3,3.7,8.3,8.3v0
	C197.3,284.7,193.5,288.4,189,288.4z"/>
<path class="st1" d="M211.5,288.4L211.5,288.4c-4.6,0-8.3-3.7-8.3-8.3v0c0-4.6,3.7-8.3,8.3-8.3h0c4.6,0,8.3,3.7,8.3,8.3v0
	C219.8,284.7,216.1,288.4,211.5,288.4z"/>
<path class="st1" d="M234.1,288.4L234.1,288.4c-4.6,0-8.3-3.7-8.3-8.3v0c0-4.6,3.7-8.3,8.3-8.3h0c4.6,0,8.3,3.7,8.3,8.3v0
	C242.4,284.7,238.7,288.4,234.1,288.4z"/>
<path class="st1" d="M53.6,265.9L53.6,265.9c-4.6,0-8.3-3.7-8.3-8.3v0c0-4.6,3.7-8.3,8.3-8.3h0c4.6,0,8.3,3.7,8.3,8.3v0
	C61.8,262.1,58.1,265.9,53.6,265.9z"/>
<path class="st1" d="M76.1,265.9L76.1,265.9c-4.6,0-8.3-3.7-8.3-8.3v0c0-4.6,3.7-8.3,8.3-8.3h0c4.6,0,8.3,3.7,8.3,8.3v0
	C84.4,262.1,80.7,265.9,76.1,265.9z"/>
<path class="st1" d="M98.7,265.9L98.7,265.9c-4.6,0-8.3-3.7-8.3-8.3v0c0-4.6,3.7-8.3,8.3-8.3h0c4.6,0,8.3,3.7,8.3,8.3v0
	C107,262.1,103.3,265.9,98.7,265.9z"/>
<path class="st1" d="M121.3,265.9L121.3,265.9c-4.6,0-8.3-3.7-8.3-8.3v0c0-4.6,3.7-8.3,8.3-8.3h0c4.6,0,8.3,3.7,8.3,8.3v0
	C129.5,262.1,125.8,265.9,121.3,265.9z"/>
<path class="st1" d="M143.8,265.9L143.8,265.9c-4.6,0-8.3-3.7-8.3-8.3v0c0-4.6,3.7-8.3,8.3-8.3h0c4.6,0,8.3,3.7,8.3,8.3v0
	C152.1,262.1,148.4,265.9,143.8,265.9z"/>
<path class="st1" d="M166.4,265.9L166.4,265.9c-4.6,0-8.3-3.7-8.3-8.3v0c0-4.6,3.7-8.3,8.3-8.3h0c4.6,0,8.3,3.7,8.3,8.3v0
	C174.7,262.1,171,265.9,166.4,265.9z"/>
<path class="st1" d="M189,265.9L189,265.9c-4.6,0-8.3-3.7-8.3-8.3v0c0-4.6,3.7-8.3,8.3-8.3h0c4.6,0,8.3,3.7,8.3,8.3v0
	C197.3,262.1,193.5,265.9,189,265.9z"/>
<path class="st1" d="M211.5,265.9L211.5,265.9c-4.6,0-8.3-3.7-8.3-8.3v0c0-4.6,3.7-8.3,8.3-8.3h0c4.6,0,8.3,3.7,8.3,8.3v0
	C219.8,262.1,216.1,265.9,211.5,265.9z"/>
<path class="st1" d="M234.1,265.9L234.1,265.9c-4.6,0-8.3-3.7-8.3-8.3v0c0-4.6,3.7-8.3,8.3-8.3h0c4.6,0,8.3,3.7,8.3,8.3v0
	C242.4,262.1,238.7,265.9,234.1,265.9z"/>
<path class="st1" d="M256.7,265.9L256.7,265.9c-4.6,0-8.3-3.7-8.3-8.3v0c0-4.6,3.7-8.3,8.3-8.3h0c4.6,0,8.3,3.7,8.3,8.3v0
	C265,262.1,261.2,265.9,256.7,265.9z"/>
<path class="st1" d="M8.4,469.2L8.4,469.2c-4.6,0-8.3-3.7-8.3-8.3l0,0c0-4.6,3.7-8.3,8.3-8.3h0c4.6,0,8.3,3.7,8.3,8.3l0,0
	C16.6,465.5,12.9,469.2,8.4,469.2z"/>
<path class="st1" d="M30.9,469.2L30.9,469.2c-4.6,0-8.3-3.7-8.3-8.3l0,0c0-4.6,3.7-8.3,8.3-8.3h0c4.6,0,8.3,3.7,8.3,8.3l0,0
	C39.2,465.5,35.5,469.2,30.9,469.2z"/>
<path class="st1" d="M53.5,469.2L53.5,469.2c-4.6,0-8.3-3.7-8.3-8.3l0,0c0-4.6,3.7-8.3,8.3-8.3h0c4.6,0,8.3,3.7,8.3,8.3l0,0
	C61.8,465.5,58,469.2,53.5,469.2z"/>
<path class="st1" d="M76.1,469.2L76.1,469.2c-4.6,0-8.3-3.7-8.3-8.3l0,0c0-4.6,3.7-8.3,8.3-8.3h0c4.6,0,8.3,3.7,8.3,8.3l0,0
	C84.3,465.5,80.6,469.2,76.1,469.2z"/>
<path class="st1" d="M98.6,469.2L98.6,469.2c-4.6,0-8.3-3.7-8.3-8.3l0,0c0-4.6,3.7-8.3,8.3-8.3h0c4.6,0,8.3,3.7,8.3,8.3l0,0
	C106.9,465.5,103.2,469.2,98.6,469.2z"/>
<path class="st1" d="M121.2,469.2L121.2,469.2c-4.6,0-8.3-3.7-8.3-8.3l0,0c0-4.6,3.7-8.3,8.3-8.3h0c4.6,0,8.3,3.7,8.3,8.3l0,0
	C129.5,465.5,125.8,469.2,121.2,469.2z"/>
<path class="st1" d="M143.8,469.2L143.8,469.2c-4.6,0-8.3-3.7-8.3-8.3l0,0c0-4.6,3.7-8.3,8.3-8.3h0c4.6,0,8.3,3.7,8.3,8.3l0,0
	C152.1,465.5,148.3,469.2,143.8,469.2z"/>
<path class="st1" d="M166.3,469.2L166.3,469.2c-4.6,0-8.3-3.7-8.3-8.3l0,0c0-4.6,3.7-8.3,8.3-8.3h0c4.6,0,8.3,3.7,8.3,8.3l0,0
	C174.6,465.5,170.9,469.2,166.3,469.2z"/>
<path class="st1" d="M188.9,469.2L188.9,469.2c-4.6,0-8.3-3.7-8.3-8.3l0,0c0-4.6,3.7-8.3,8.3-8.3h0c4.6,0,8.3,3.7,8.3,8.3l0,0
	C197.2,465.5,193.5,469.2,188.9,469.2z"/>
<path class="st1" d="M8.3,514.3L8.3,514.3c-4.6,0-8.3-3.7-8.3-8.3l0,0c0-4.6,3.7-8.3,8.3-8.3h0c4.6,0,8.3,3.7,8.3,8.3l0,0
	C16.6,510.6,12.9,514.3,8.3,514.3z"/>
<path class="st1" d="M30.9,514.3L30.9,514.3c-4.6,0-8.3-3.7-8.3-8.3l0,0c0-4.6,3.7-8.3,8.3-8.3h0c4.6,0,8.3,3.7,8.3,8.3l0,0
	C39.2,510.6,35.5,514.3,30.9,514.3z"/>
<path class="st1" d="M53.5,514.3L53.5,514.3c-4.6,0-8.3-3.7-8.3-8.3l0,0c0-4.6,3.7-8.3,8.3-8.3h0c4.6,0,8.3,3.7,8.3,8.3l0,0
	C61.7,510.6,58,514.3,53.5,514.3z"/>
<path class="st1" d="M76,514.3L76,514.3c-4.6,0-8.3-3.7-8.3-8.3l0,0c0-4.6,3.7-8.3,8.3-8.3h0c4.6,0,8.3,3.7,8.3,8.3l0,0
	C84.3,510.6,80.6,514.3,76,514.3z"/>
<path class="st1" d="M98.6,514.3L98.6,514.3c-4.6,0-8.3-3.7-8.3-8.3l0,0c0-4.6,3.7-8.3,8.3-8.3h0c4.6,0,8.3,3.7,8.3,8.3l0,0
	C106.9,510.6,103.2,514.3,98.6,514.3z"/>
<path class="st1" d="M121.2,514.3L121.2,514.3c-4.6,0-8.3-3.7-8.3-8.3l0,0c0-4.6,3.7-8.3,8.3-8.3h0c4.6,0,8.3,3.7,8.3,8.3l0,0
	C129.5,510.6,125.7,514.3,121.2,514.3z"/>
<path class="st1" d="M143.7,514.3L143.7,514.3c-4.6,0-8.3-3.7-8.3-8.3l0,0c0-4.6,3.7-8.3,8.3-8.3h0c4.6,0,8.3,3.7,8.3,8.3l0,0
	C152,510.6,148.3,514.3,143.7,514.3z"/>
<path class="st1" d="M166.3,514.3L166.3,514.3c-4.6,0-8.3-3.7-8.3-8.3l0,0c0-4.6,3.7-8.3,8.3-8.3h0c4.6,0,8.3,3.7,8.3,8.3l0,0
	C174.6,510.6,170.9,514.3,166.3,514.3z"/>
<path class="st1" d="M8.3,491.8L8.3,491.8c-4.6,0-8.3-3.7-8.3-8.3l0,0c0-4.6,3.7-8.3,8.3-8.3h0c4.6,0,8.3,3.7,8.3,8.3l0,0
	C16.6,488,12.9,491.8,8.3,491.8z"/>
<path class="st1" d="M30.9,491.8L30.9,491.8c-4.6,0-8.3-3.7-8.3-8.3l0,0c0-4.6,3.7-8.3,8.3-8.3h0c4.6,0,8.3,3.7,8.3,8.3l0,0
	C39.2,488,35.5,491.8,30.9,491.8z"/>
<path class="st1" d="M53.5,491.8L53.5,491.8c-4.6,0-8.3-3.7-8.3-8.3l0,0c0-4.6,3.7-8.3,8.3-8.3h0c4.6,0,8.3,3.7,8.3,8.3l0,0
	C61.7,488,58,491.8,53.5,491.8z"/>
<path class="st1" d="M76,491.8L76,491.8c-4.6,0-8.3-3.7-8.3-8.3l0,0c0-4.6,3.7-8.3,8.3-8.3h0c4.6,0,8.3,3.7,8.3,8.3l0,0
	C84.3,488,80.6,491.8,76,491.8z"/>
<path class="st1" d="M98.6,491.8L98.6,491.8c-4.6,0-8.3-3.7-8.3-8.3l0,0c0-4.6,3.7-8.3,8.3-8.3h0c4.6,0,8.3,3.7,8.3,8.3l0,0
	C106.9,488,103.2,491.8,98.6,491.8z"/>
<path class="st1" d="M121.2,491.8L121.2,491.8c-4.6,0-8.3-3.7-8.3-8.3l0,0c0-4.6,3.7-8.3,8.3-8.3h0c4.6,0,8.3,3.7,8.3,8.3l0,0
	C129.5,488,125.7,491.8,121.2,491.8z"/>
<path class="st1" d="M143.7,491.8L143.7,491.8c-4.6,0-8.3-3.7-8.3-8.3l0,0c0-4.6,3.7-8.3,8.3-8.3h0c4.6,0,8.3,3.7,8.3,8.3l0,0
	C152,488,148.3,491.8,143.7,491.8z"/>
<path class="st1" d="M166.3,491.8L166.3,491.8c-4.6,0-8.3-3.7-8.3-8.3l0,0c0-4.6,3.7-8.3,8.3-8.3h0c4.6,0,8.3,3.7,8.3,8.3l0,0
	C174.6,488,170.9,491.8,166.3,491.8z"/>
<path class="st1" d="M8.4,536.9L8.4,536.9c-4.6,0-8.3-3.7-8.3-8.3v0c0-4.6,3.7-8.3,8.3-8.3h0c4.6,0,8.3,3.7,8.3,8.3v0
	C16.6,533.2,12.9,536.9,8.4,536.9z"/>
<path class="st1" d="M30.9,536.9L30.9,536.9c-4.6,0-8.3-3.7-8.3-8.3v0c0-4.6,3.7-8.3,8.3-8.3h0c4.6,0,8.3,3.7,8.3,8.3v0
	C39.2,533.2,35.5,536.9,30.9,536.9z"/>
<path class="st1" d="M53.5,536.9L53.5,536.9c-4.6,0-8.3-3.7-8.3-8.3v0c0-4.6,3.7-8.3,8.3-8.3h0c4.6,0,8.3,3.7,8.3,8.3v0
	C61.8,533.2,58,536.9,53.5,536.9z"/>
<path class="st1" d="M76.1,536.9L76.1,536.9c-4.6,0-8.3-3.7-8.3-8.3v0c0-4.6,3.7-8.3,8.3-8.3h0c4.6,0,8.3,3.7,8.3,8.3v0
	C84.3,533.2,80.6,536.9,76.1,536.9z"/>
<path class="st1" d="M98.6,536.9L98.6,536.9c-4.6,0-8.3-3.7-8.3-8.3v0c0-4.6,3.7-8.3,8.3-8.3h0c4.6,0,8.3,3.7,8.3,8.3v0
	C106.9,533.2,103.2,536.9,98.6,536.9z"/>
<path class="st1" d="M121.2,536.9L121.2,536.9c-4.6,0-8.3-3.7-8.3-8.3v0c0-4.6,3.7-8.3,8.3-8.3h0c4.6,0,8.3,3.7,8.3,8.3v0
	C129.5,533.2,125.8,536.9,121.2,536.9z"/>
<path class="st1" d="M143.8,536.9L143.8,536.9c-4.6,0-8.3-3.7-8.3-8.3v0c0-4.6,3.7-8.3,8.3-8.3h0c4.6,0,8.3,3.7,8.3,8.3v0
	C152.1,533.2,148.3,536.9,143.8,536.9z"/>
<path class="st1" d="M8.3,582.1L8.3,582.1c-4.6,0-8.3-3.7-8.3-8.3l0,0c0-4.6,3.7-8.3,8.3-8.3h0c4.6,0,8.3,3.7,8.3,8.3l0,0
	C16.6,578.3,12.9,582.1,8.3,582.1z"/>
<path class="st1" d="M30.9,582.1L30.9,582.1c-4.6,0-8.3-3.7-8.3-8.3l0,0c0-4.6,3.7-8.3,8.3-8.3h0c4.6,0,8.3,3.7,8.3,8.3l0,0
	C39.2,578.3,35.5,582.1,30.9,582.1z"/>
<path class="st1" d="M53.5,582.1L53.5,582.1c-4.6,0-8.3-3.7-8.3-8.3l0,0c0-4.6,3.7-8.3,8.3-8.3h0c4.6,0,8.3,3.7,8.3,8.3l0,0
	C61.7,578.3,58,582.1,53.5,582.1z"/>
<path class="st1" d="M76,582.1L76,582.1c-4.6,0-8.3-3.7-8.3-8.3l0,0c0-4.6,3.7-8.3,8.3-8.3h0c4.6,0,8.3,3.7,8.3,8.3l0,0
	C84.3,578.3,80.6,582.1,76,582.1z"/>
<path class="st1" d="M98.6,582.1L98.6,582.1c-4.6,0-8.3-3.7-8.3-8.3l0,0c0-4.6,3.7-8.3,8.3-8.3h0c4.6,0,8.3,3.7,8.3,8.3l0,0
	C106.9,578.3,103.2,582.1,98.6,582.1z"/>
<path class="st1" d="M121.2,582.1L121.2,582.1c-4.6,0-8.3-3.7-8.3-8.3l0,0c0-4.6,3.7-8.3,8.3-8.3h0c4.6,0,8.3,3.7,8.3,8.3l0,0
	C129.5,578.3,125.7,582.1,121.2,582.1z"/>
<path class="st1" d="M8.3,559.5L8.3,559.5c-4.6,0-8.3-3.7-8.3-8.3l0,0c0-4.6,3.7-8.3,8.3-8.3h0c4.6,0,8.3,3.7,8.3,8.3l0,0
	C16.6,555.8,12.9,559.5,8.3,559.5z"/>
<path class="st1" d="M30.9,559.5L30.9,559.5c-4.6,0-8.3-3.7-8.3-8.3l0,0c0-4.6,3.7-8.3,8.3-8.3h0c4.6,0,8.3,3.7,8.3,8.3l0,0
	C39.2,555.8,35.5,559.5,30.9,559.5z"/>
<path class="st1" d="M53.5,559.5L53.5,559.5c-4.6,0-8.3-3.7-8.3-8.3l0,0c0-4.6,3.7-8.3,8.3-8.3h0c4.6,0,8.3,3.7,8.3,8.3l0,0
	C61.7,555.8,58,559.5,53.5,559.5z"/>
<path class="st1" d="M76,559.5L76,559.5c-4.6,0-8.3-3.7-8.3-8.3l0,0c0-4.6,3.7-8.3,8.3-8.3h0c4.6,0,8.3,3.7,8.3,8.3l0,0
	C84.3,555.8,80.6,559.5,76,559.5z"/>
<path class="st1" d="M98.6,559.5L98.6,559.5c-4.6,0-8.3-3.7-8.3-8.3l0,0c0-4.6,3.7-8.3,8.3-8.3h0c4.6,0,8.3,3.7,8.3,8.3l0,0
	C106.9,555.8,103.2,559.5,98.6,559.5z"/>
<path class="st1" d="M121.2,559.5L121.2,559.5c-4.6,0-8.3-3.7-8.3-8.3l0,0c0-4.6,3.7-8.3,8.3-8.3h0c4.6,0,8.3,3.7,8.3,8.3l0,0
	C129.5,555.8,125.7,559.5,121.2,559.5z"/>
<path class="st1" d="M143.7,559.5L143.7,559.5c-4.6,0-8.3-3.7-8.3-8.3l0,0c0-4.6,3.7-8.3,8.3-8.3h0c4.6,0,8.3,3.7,8.3,8.3l0,0
	C152,555.8,148.3,559.5,143.7,559.5z"/>
<path class="st1" d="M8.3,62L8.3,62C3.7,62,0,58.3,0,53.7v0c0-4.6,3.7-8.3,8.3-8.3h0c4.6,0,8.3,3.7,8.3,8.3v0
	C16.6,58.3,12.8,62,8.3,62z"/>
<path class="st1" d="M30.9,62L30.9,62c-4.6,0-8.3-3.7-8.3-8.3v0c0-4.6,3.7-8.3,8.3-8.3h0c4.6,0,8.3,3.7,8.3,8.3v0
	C39.1,58.3,35.4,62,30.9,62z"/>
<path class="st1" d="M53.4,62L53.4,62c-4.6,0-8.3-3.7-8.3-8.3v0c0-4.6,3.7-8.3,8.3-8.3h0c4.6,0,8.3,3.7,8.3,8.3v0
	C61.7,58.3,58,62,53.4,62z"/>
<path class="st1" d="M76,62L76,62c-4.6,0-8.3-3.7-8.3-8.3v0c0-4.6,3.7-8.3,8.3-8.3h0c4.6,0,8.3,3.7,8.3,8.3v0
	C84.3,58.3,80.6,62,76,62z"/>
<path class="st1" d="M98.6,62L98.6,62c-4.6,0-8.3-3.7-8.3-8.3v0c0-4.6,3.7-8.3,8.3-8.3h0c4.6,0,8.3,3.7,8.3,8.3v0
	C106.9,58.3,103.1,62,98.6,62z"/>
<path class="st1" d="M121.1,62L121.1,62c-4.6,0-8.3-3.7-8.3-8.3v0c0-4.6,3.7-8.3,8.3-8.3h0c4.6,0,8.3,3.7,8.3,8.3v0
	C129.4,58.3,125.7,62,121.1,62z"/>
<path class="st1" d="M143.7,62L143.7,62c-4.6,0-8.3-3.7-8.3-8.3v0c0-4.6,3.7-8.3,8.3-8.3h0c4.6,0,8.3,3.7,8.3,8.3v0
	C152,58.3,148.3,62,143.7,62z"/>
<path class="st1" d="M166.3,62L166.3,62c-4.6,0-8.3-3.7-8.3-8.3v0c0-4.6,3.7-8.3,8.3-8.3h0c4.6,0,8.3,3.7,8.3,8.3v0
	C174.6,58.3,170.8,62,166.3,62z"/>
<path class="st1" d="M188.8,62L188.8,62c-4.6,0-8.3-3.7-8.3-8.3v0c0-4.6,3.7-8.3,8.3-8.3h0c4.6,0,8.3,3.7,8.3,8.3v0
	C197.1,58.3,193.4,62,188.8,62z"/>
<path class="st1" d="M211.4,62L211.4,62c-4.6,0-8.3-3.7-8.3-8.3v0c0-4.6,3.7-8.3,8.3-8.3h0c4.6,0,8.3,3.7,8.3,8.3v0
	C219.7,58.3,216,62,211.4,62z"/>
<path class="st1" d="M234,62L234,62c-4.6,0-8.3-3.7-8.3-8.3v0c0-4.6,3.7-8.3,8.3-8.3h0c4.6,0,8.3,3.7,8.3,8.3v0
	C242.3,58.3,238.5,62,234,62z"/>
<path class="st1" d="M256.6,62L256.6,62c-4.6,0-8.3-3.7-8.3-8.3v0c0-4.6,3.7-8.3,8.3-8.3h0c4.6,0,8.3,3.7,8.3,8.3v0
	C264.8,58.3,261.1,62,256.6,62z"/>
<path class="st1" d="M279.1,62L279.1,62c-4.6,0-8.3-3.7-8.3-8.3v0c0-4.6,3.7-8.3,8.3-8.3h0c4.6,0,8.3,3.7,8.3,8.3v0
	C287.4,58.3,283.7,62,279.1,62z"/>
<path class="st1" d="M301.7,62L301.7,62c-4.6,0-8.3-3.7-8.3-8.3v0c0-4.6,3.7-8.3,8.3-8.3l0,0c4.6,0,8.3,3.7,8.3,8.3v0
	C310,58.3,306.3,62,301.7,62z"/>
<path class="st1" d="M324.3,62L324.3,62c-4.6,0-8.3-3.7-8.3-8.3v0c0-4.6,3.7-8.3,8.3-8.3l0,0c4.6,0,8.3,3.7,8.3,8.3v0
	C332.6,58.3,328.8,62,324.3,62z"/>
<path class="st1" d="M346.8,62L346.8,62c-4.6,0-8.3-3.7-8.3-8.3v0c0-4.6,3.7-8.3,8.3-8.3h0c4.6,0,8.3,3.7,8.3,8.3v0
	C355.1,58.3,351.4,62,346.8,62z"/>
<path class="st1" d="M8.3,604.6L8.3,604.6c-4.6,0-8.3-3.7-8.3-8.3v0c0-4.6,3.7-8.3,8.3-8.3h0c4.6,0,8.3,3.7,8.3,8.3v0
	C16.6,600.9,12.9,604.6,8.3,604.6z"/>
<path class="st1" d="M30.9,604.6L30.9,604.6c-4.6,0-8.3-3.7-8.3-8.3v0c0-4.6,3.7-8.3,8.3-8.3h0c4.6,0,8.3,3.7,8.3,8.3v0
	C39.2,600.9,35.5,604.6,30.9,604.6z"/>
<path class="st1" d="M53.5,604.6L53.5,604.6c-4.6,0-8.3-3.7-8.3-8.3v0c0-4.6,3.7-8.3,8.3-8.3h0c4.6,0,8.3,3.7,8.3,8.3v0
	C61.7,600.9,58,604.6,53.5,604.6z"/>
<path class="st1" d="M76,604.6L76,604.6c-4.6,0-8.3-3.7-8.3-8.3v0c0-4.6,3.7-8.3,8.3-8.3h0c4.6,0,8.3,3.7,8.3,8.3v0
	C84.3,600.9,80.6,604.6,76,604.6z"/>
<path class="st1" d="M98.6,604.6L98.6,604.6c-4.6,0-8.3-3.7-8.3-8.3v0c0-4.6,3.7-8.3,8.3-8.3h0c4.6,0,8.3,3.7,8.3,8.3v0
	C106.9,600.9,103.2,604.6,98.6,604.6z"/>
<path class="st1" d="M121.2,604.6L121.2,604.6c-4.6,0-8.3-3.7-8.3-8.3v0c0-4.6,3.7-8.3,8.3-8.3h0c4.6,0,8.3,3.7,8.3,8.3v0
	C129.5,600.9,125.7,604.6,121.2,604.6z"/>
<path class="st1" d="M53.6,311L53.6,311c-4.6,0-8.3-3.7-8.3-8.3l0,0c0-4.6,3.7-8.3,8.3-8.3h0c4.6,0,8.3,3.7,8.3,8.3l0,0
	C61.8,307.3,58.1,311,53.6,311z"/>
<path class="st1" d="M76.1,311L76.1,311c-4.6,0-8.3-3.7-8.3-8.3l0,0c0-4.6,3.7-8.3,8.3-8.3h0c4.6,0,8.3,3.7,8.3,8.3l0,0
	C84.4,307.3,80.7,311,76.1,311z"/>
<path class="st1" d="M98.7,311L98.7,311c-4.6,0-8.3-3.7-8.3-8.3l0,0c0-4.6,3.7-8.3,8.3-8.3h0c4.6,0,8.3,3.7,8.3,8.3l0,0
	C107,307.3,103.3,311,98.7,311z"/>
<path class="st1" d="M121.3,311L121.3,311c-4.6,0-8.3-3.7-8.3-8.3l0,0c0-4.6,3.7-8.3,8.3-8.3h0c4.6,0,8.3,3.7,8.3,8.3l0,0
	C129.5,307.3,125.8,311,121.3,311z"/>
<path class="st1" d="M143.8,311L143.8,311c-4.6,0-8.3-3.7-8.3-8.3l0,0c0-4.6,3.7-8.3,8.3-8.3h0c4.6,0,8.3,3.7,8.3,8.3l0,0
	C152.1,307.3,148.4,311,143.8,311z"/>
<path class="st1" d="M166.4,311L166.4,311c-4.6,0-8.3-3.7-8.3-8.3l0,0c0-4.6,3.7-8.3,8.3-8.3h0c4.6,0,8.3,3.7,8.3,8.3l0,0
	C174.7,307.3,171,311,166.4,311z"/>
<path class="st1" d="M189,311L189,311c-4.6,0-8.3-3.7-8.3-8.3l0,0c0-4.6,3.7-8.3,8.3-8.3h0c4.6,0,8.3,3.7,8.3,8.3l0,0
	C197.3,307.3,193.5,311,189,311z"/>
<path class="st1" d="M211.5,311L211.5,311c-4.6,0-8.3-3.7-8.3-8.3l0,0c0-4.6,3.7-8.3,8.3-8.3h0c4.6,0,8.3,3.7,8.3,8.3l0,0
	C219.8,307.3,216.1,311,211.5,311z"/>
<path class="st1" d="M234.1,311L234.1,311c-4.6,0-8.3-3.7-8.3-8.3l0,0c0-4.6,3.7-8.3,8.3-8.3h0c4.6,0,8.3,3.7,8.3,8.3l0,0
	C242.4,307.3,238.7,311,234.1,311z"/>
<path class="st1" d="M279.2,175.6L279.2,175.6c-4.6,0-8.3-3.7-8.3-8.3v0c0-4.6,3.7-8.3,8.3-8.3h0c4.6,0,8.3,3.7,8.3,8.3v0
	C287.5,171.9,283.8,175.6,279.2,175.6z"/>
<path class="st1" d="M279.2,220.7L279.2,220.7c-4.6,0-8.3-3.7-8.3-8.3v0c0-4.6,3.7-8.3,8.3-8.3l0,0c4.6,0,8.3,3.7,8.3,8.3v0
	C287.5,217,283.7,220.7,279.2,220.7z"/>
<path class="st1" d="M279.2,198.2L279.2,198.2c-4.6,0-8.3-3.7-8.3-8.3v0c0-4.6,3.7-8.3,8.3-8.3l0,0c4.6,0,8.3,3.7,8.3,8.3v0
	C287.5,194.4,283.7,198.2,279.2,198.2z"/>
<path class="st1" d="M301.7,175.6L301.7,175.6c-4.6,0-8.3-3.7-8.3-8.3v0c0-4.6,3.7-8.3,8.3-8.3l0,0c4.6,0,8.3,3.7,8.3,8.3v0
	C310,171.9,306.3,175.6,301.7,175.6z"/>
<path class="st1" d="M301.7,198.2L301.7,198.2c-4.6,0-8.3-3.7-8.3-8.3v0c0-4.6,3.7-8.3,8.3-8.3l0,0c4.6,0,8.3,3.7,8.3,8.3v0
	C310,194.4,306.3,198.2,301.7,198.2z"/>
<path class="st1" d="M121.2,627.3L121.2,627.3c-4.6,0-8.3-3.7-8.3-8.3l0,0c0-4.6,3.7-8.3,8.3-8.3h0c4.6,0,8.3,3.7,8.3,8.3l0,0
	C129.5,623.5,125.8,627.3,121.2,627.3z"/>
<g>
	<text transform="matrix(1 0 0 1 119.5767 10.375)" class="st2 st3 st4">1</text>
	<text transform="matrix(1 0 0 1 141.6392 10.375)" class="st2 st3 st4">2</text>
	<text transform="matrix(1 0 0 1 164.2134 10.375)" class="st2 st3 st4">3</text>
	<text transform="matrix(1 0 0 1 186.728 10.375)" class="st2 st3 st4">4</text>
	<text transform="matrix(1 0 0 1 209.4009 10.375)" class="st2 st3 st4">5</text>
	<text transform="matrix(1 0 0 1 231.7232 10.375)" class="st2 st3 st4">6</text>
	<text transform="matrix(1 0 0 1 254.7495 10.375)" class="st2 st3 st4">7</text>
	<text transform="matrix(1 0 0 1 276.9404 10.375)" class="st2 st3 st4">8</text>
	<text transform="matrix(1 0 0 1 299.4336 10.375)" class="st2 st3 st4">9</text>
	<text transform="matrix(1 0 0 1 320.084 10.375)" class="st2 st3 st4">10</text>
	<text transform="matrix(1 0 0 1 343.5664 10.375)" class="st2 st3 st4">11</text>
	<text transform="matrix(1 0 0 1 365.6289 10.375)" class="st2 st3 st4">12</text>
	<text transform="matrix(1 0 0 1 6.5737 101.8516)" class="st2 st3 st4">1</text>
	<text transform="matrix(1 0 0 1 28.6353 101.8516)" class="st2 st3 st4">2</text>
	<text transform="matrix(1 0 0 1 51.2095 101.8516)" class="st2 st3 st4">3</text>
	<text transform="matrix(1 0 0 1 73.7241 101.8516)" class="st2 st3 st4">4</text>
	<text transform="matrix(1 0 0 1 96.398 101.8516)" class="st2 st3 st4">5</text>
	<text transform="matrix(1 0 0 1 118.7202 101.8516)" class="st2 st3 st4">6</text>
	<text transform="matrix(1 0 0 1 141.7466 101.8516)" class="st2 st3 st4">7</text>
	<text transform="matrix(1 0 0 1 163.937 101.8516)" class="st2 st3 st4">8</text>
	<text transform="matrix(1 0 0 1 186.4312 101.8516)" class="st2 st3 st4">9</text>
	<text transform="matrix(1 0 0 1 207.0806 101.8516)" class="st2 st3 st4">10</text>
	<text transform="matrix(1 0 0 1 230.563 101.8516)" class="st2 st3 st4">11</text>
	<text transform="matrix(1 0 0 1 252.6255 101.8516)" class="st2 st3 st4">12</text>
	<text transform="matrix(1 0 0 1 275.1992 101.8516)" class="st2 st3 st4">13</text>
	<text transform="matrix(1 0 0 1 297.7129 101.8516)" class="st2 st3 st4">14</text>
	<text transform="matrix(1 0 0 1 320.3877 101.8516)" class="st2 st3 st4">15</text>
	<text transform="matrix(1 0 0 1 6.5737 79.2813)" class="st2 st3 st4">1</text>
	<text transform="matrix(1 0 0 1 28.6353 79.2813)" class="st2 st3 st4">2</text>
	<text transform="matrix(1 0 0 1 51.2095 79.2813)" class="st2 st3 st4">3</text>
	<text transform="matrix(1 0 0 1 73.7241 79.2813)" class="st2 st3 st4">4</text>
	<text transform="matrix(1 0 0 1 96.398 79.2813)" class="st2 st3 st4">5</text>
	<text transform="matrix(1 0 0 1 118.7202 79.2813)" class="st2 st3 st4">6</text>
	<text transform="matrix(1 0 0 1 141.7466 79.2813)" class="st2 st3 st4">7</text>
	<text transform="matrix(1 0 0 1 163.937 79.2813)" class="st2 st3 st4">8</text>
	<text transform="matrix(1 0 0 1 186.4312 79.2813)" class="st2 st3 st4">9</text>
	<text transform="matrix(1 0 0 1 207.0806 79.2813)" class="st2 st3 st4">10</text>
	<text transform="matrix(1 0 0 1 230.563 79.2813)" class="st2 st3 st4">11</text>
	<text transform="matrix(1 0 0 1 252.6255 79.2813)" class="st2 st3 st4">12</text>
	<text transform="matrix(1 0 0 1 275.1992 79.2813)" class="st2 st3 st4">13</text>
	<text transform="matrix(1 0 0 1 297.7129 79.2813)" class="st2 st3 st4">14</text>
	<text transform="matrix(1 0 0 1 320.3877 79.2813)" class="st2 st3 st4">15</text>
	<text transform="matrix(1 0 0 1 342.71 79.2813)" class="st2 st3 st4">16</text>
	<text transform="matrix(1 0 0 1 6.5737 55.9395)" class="st2 st3 st4">1</text>
	<text transform="matrix(1 0 0 1 28.6353 55.9395)" class="st2 st3 st4">2</text>
	<text transform="matrix(1 0 0 1 51.2095 55.9395)" class="st2 st3 st4">3</text>
	<text transform="matrix(1 0 0 1 73.7241 55.9395)" class="st2 st3 st4">4</text>
	<text transform="matrix(1 0 0 1 96.398 55.9395)" class="st2 st3 st4">5</text>
	<text transform="matrix(1 0 0 1 118.7202 55.9395)" class="st2 st3 st4">6</text>
	<text transform="matrix(1 0 0 1 141.7466 55.9395)" class="st2 st3 st4">7</text>
	<text transform="matrix(1 0 0 1 163.937 55.9395)" class="st2 st3 st4">8</text>
	<text transform="matrix(1 0 0 1 186.4312 55.9395)" class="st2 st3 st4">9</text>
	<text transform="matrix(1 0 0 1 207.0806 55.9395)" class="st2 st3 st4">10</text>
	<text transform="matrix(1 0 0 1 230.563 55.9395)" class="st2 st3 st4">11</text>
	<text transform="matrix(1 0 0 1 252.6255 55.9395)" class="st2 st3 st4">12</text>
	<text transform="matrix(1 0 0 1 275.1992 55.9395)" class="st2 st3 st4">13</text>
	<text transform="matrix(1 0 0 1 297.7129 55.9395)" class="st2 st3 st4">14</text>
	<text transform="matrix(1 0 0 1 320.3877 55.9395)" class="st2 st3 st4">15</text>
	<text transform="matrix(1 0 0 1 342.71 55.9395)" class="st2 st3 st4">16</text>
	<text transform="matrix(1 0 0 1 6.6001 146.9941)" class="st2 st3 st4">1</text>
	<text transform="matrix(1 0 0 1 28.6626 146.9941)" class="st2 st3 st4">2</text>
	<text transform="matrix(1 0 0 1 51.2368 146.9941)" class="st2 st3 st4">3</text>
	<text transform="matrix(1 0 0 1 73.7515 146.9941)" class="st2 st3 st4">4</text>
	<text transform="matrix(1 0 0 1 96.4243 146.9941)" class="st2 st3 st4">5</text>
	<text transform="matrix(1 0 0 1 118.7466 146.9941)" class="st2 st3 st4">6</text>
	<text transform="matrix(1 0 0 1 141.773 146.9941)" class="st2 st3 st4">7</text>
	<text transform="matrix(1 0 0 1 163.9634 146.9941)" class="st2 st3 st4">8</text>
	<text transform="matrix(1 0 0 1 186.4566 146.9941)" class="st2 st3 st4">9</text>
	<text transform="matrix(1 0 0 1 207.1069 146.9941)" class="st2 st3 st4">10</text>
	<text transform="matrix(1 0 0 1 230.5894 146.9941)" class="st2 st3 st4">11</text>
	<text transform="matrix(1 0 0 1 252.6519 146.9941)" class="st2 st3 st4">12</text>
	<text transform="matrix(1 0 0 1 275.2266 146.9941)" class="st2 st3 st4">13</text>
	<text transform="matrix(1 0 0 1 297.7402 146.9941)" class="st2 st3 st4">14</text>
	<text transform="matrix(1 0 0 1 51.8286 327.5938)" class="st2 st3 st4">1</text>
	<text transform="matrix(1 0 0 1 73.8911 327.5938)" class="st2 st3 st4">2</text>
	<text transform="matrix(1 0 0 1 96.4653 327.5938)" class="st2 st3 st4">3</text>
	<text transform="matrix(1 0 0 1 118.98 327.5938)" class="st2 st3 st4">4</text>
	<text transform="matrix(1 0 0 1 141.6528 327.5938)" class="st2 st3 st4">5</text>
	<text transform="matrix(1 0 0 1 163.9751 327.5938)" class="st2 st3 st4">6</text>
	<text transform="matrix(1 0 0 1 187.0015 327.5938)" class="st2 st3 st4">7</text>
	<text transform="matrix(1 0 0 1 209.1919 327.5938)" class="st2 st3 st4">8</text>
	<text transform="matrix(1 0 0 1 51.8286 350.1465)" class="st2 st3 st4">1</text>
	<text transform="matrix(1 0 0 1 73.8911 350.1465)" class="st2 st3 st4">2</text>
	<text transform="matrix(1 0 0 1 96.4653 350.1465)" class="st2 st3 st4">3</text>
	<text transform="matrix(1 0 0 1 118.98 350.1465)" class="st2 st3 st4">4</text>
	<text transform="matrix(1 0 0 1 141.6528 350.1465)" class="st2 st3 st4">5</text>
	<text transform="matrix(1 0 0 1 163.9751 350.1465)" class="st2 st3 st4">6</text>
	<text transform="matrix(1 0 0 1 187.0015 350.1465)" class="st2 st3 st4">7</text>
	<text transform="matrix(1 0 0 1 209.1919 350.1465)" class="st2 st3 st4">8</text>
	<text transform="matrix(1 0 0 1 51.8286 372.7813)" class="st2 st3 st4">1</text>
	<text transform="matrix(1 0 0 1 73.8911 372.7813)" class="st2 st3 st4">2</text>
	<text transform="matrix(1 0 0 1 96.4653 372.7813)" class="st2 st3 st4">3</text>
	<text transform="matrix(1 0 0 1 118.98 372.7813)" class="st2 st3 st4">4</text>
	<text transform="matrix(1 0 0 1 141.6528 372.7813)" class="st2 st3 st4">5</text>
	<text transform="matrix(1 0 0 1 163.9751 372.7813)" class="st2 st3 st4">6</text>
	<text transform="matrix(1 0 0 1 187.0015 372.7813)" class="st2 st3 st4">7</text>
	<text transform="matrix(1 0 0 1 209.1919 372.7813)" class="st2 st3 st4">8</text>
	<text transform="matrix(1 0 0 1 51.8286 395.334)" class="st2 st3 st4">1</text>
	<text transform="matrix(1 0 0 1 73.8911 395.334)" class="st2 st3 st4">2</text>
	<text transform="matrix(1 0 0 1 96.4653 395.334)" class="st2 st3 st4">3</text>
	<text transform="matrix(1 0 0 1 118.98 395.334)" class="st2 st3 st4">4</text>
	<text transform="matrix(1 0 0 1 141.6528 395.334)" class="st2 st3 st4">5</text>
	<text transform="matrix(1 0 0 1 163.9751 395.334)" class="st2 st3 st4">6</text>
	<text transform="matrix(1 0 0 1 187.0015 395.334)" class="st2 st3 st4">7</text>
	<text transform="matrix(1 0 0 1 51.8286 417.9668)" class="st2 st3 st4">1</text>
	<text transform="matrix(1 0 0 1 73.8911 417.9668)" class="st2 st3 st4">2</text>
	<text transform="matrix(1 0 0 1 96.4653 417.9668)" class="st2 st3 st4">3</text>
	<text transform="matrix(1 0 0 1 118.98 417.9668)" class="st2 st3 st4">4</text>
	<text transform="matrix(1 0 0 1 141.6528 417.9668)" class="st2 st3 st4">5</text>
	<text transform="matrix(1 0 0 1 163.9751 417.9668)" class="st2 st3 st4">6</text>
	<text transform="matrix(1 0 0 1 187.0015 417.9668)" class="st2 st3 st4">7</text>
	<text transform="matrix(1 0 0 1 6.6001 440.5195)" class="st2 st3 st4">1</text>
	<text transform="matrix(1 0 0 1 28.6626 440.5195)" class="st2 st3 st4">2</text>
	<text transform="matrix(1 0 0 1 51.2368 440.5195)" class="st2 st3 st4">3</text>
	<text transform="matrix(1 0 0 1 73.7515 440.5195)" class="st2 st3 st4">4</text>
	<text transform="matrix(1 0 0 1 96.4243 440.5195)" class="st2 st3 st4">5</text>
	<text transform="matrix(1 0 0 1 118.7466 440.5195)" class="st2 st3 st4">6</text>
	<text transform="matrix(1 0 0 1 141.773 440.5195)" class="st2 st3 st4">7</text>
	<text transform="matrix(1 0 0 1 163.9634 440.5195)" class="st2 st3 st4">8</text>
	<text transform="matrix(1 0 0 1 186.4566 440.5195)" class="st2 st3 st4">9</text>
	<text transform="matrix(1 0 0 1 6.6001 124.4238)" class="st2 st3 st4">1</text>
	<text transform="matrix(1 0 0 1 28.6626 124.4238)" class="st2 st3 st4">2</text>
	<text transform="matrix(1 0 0 1 51.2368 124.4238)" class="st2 st3 st4">3</text>
	<text transform="matrix(1 0 0 1 73.7515 124.4238)" class="st2 st3 st4">4</text>
	<text transform="matrix(1 0 0 1 96.4243 124.4238)" class="st2 st3 st4">5</text>
	<text transform="matrix(1 0 0 1 118.7466 124.4238)" class="st2 st3 st4">6</text>
	<text transform="matrix(1 0 0 1 141.773 124.4238)" class="st2 st3 st4">7</text>
	<text transform="matrix(1 0 0 1 163.9634 124.4238)" class="st2 st3 st4">8</text>
	<text transform="matrix(1 0 0 1 186.4566 124.4238)" class="st2 st3 st4">9</text>
	<text transform="matrix(1 0 0 1 207.1069 124.4238)" class="st2 st3 st4">10</text>
	<text transform="matrix(1 0 0 1 230.5894 124.4238)" class="st2 st3 st4">11</text>
	<text transform="matrix(1 0 0 1 252.6519 124.4238)" class="st2 st3 st4">12</text>
	<text transform="matrix(1 0 0 1 275.2266 124.4238)" class="st2 st3 st4">13</text>
	<text transform="matrix(1 0 0 1 297.7402 124.4238)" class="st2 st3 st4">14</text>
	<text transform="matrix(1 0 0 1 320.4141 124.4238)" class="st2 st3 st4">15</text>
	<text transform="matrix(1 0 0 1 6.5728 169.5527)" class="st2 st3 st4">1</text>
	<text transform="matrix(1 0 0 1 28.6353 169.5527)" class="st2 st3 st4">2</text>
	<text transform="matrix(1 0 0 1 51.2095 169.5527)" class="st2 st3 st4">3</text>
	<text transform="matrix(1 0 0 1 73.7241 169.5527)" class="st2 st3 st4">4</text>
	<text transform="matrix(1 0 0 1 96.398 169.5527)" class="st2 st3 st4">5</text>
	<text transform="matrix(1 0 0 1 118.7202 169.5527)" class="st2 st3 st4">6</text>
	<text transform="matrix(1 0 0 1 141.7466 169.5527)" class="st2 st3 st4">7</text>
	<text transform="matrix(1 0 0 1 163.937 169.5527)" class="st2 st3 st4">8</text>
	<text transform="matrix(1 0 0 1 186.4312 169.5527)" class="st2 st3 st4">9</text>
	<text transform="matrix(1 0 0 1 207.0816 169.5527)" class="st2 st3 st4">10</text>
	<text transform="matrix(1 0 0 1 230.562 169.5527)" class="st2 st3 st4">11</text>
	<text transform="matrix(1 0 0 1 252.6245 169.5527)" class="st2 st3 st4">12</text>
	<text transform="matrix(1 0 0 1 275.1992 169.5527)" class="st2 st3 st4">13</text>
	<text transform="matrix(1 0 0 1 297.7129 169.5527)" class="st2 st3 st4">14</text>
	<text transform="matrix(1 0 0 1 6.5728 191.9023)" class="st2 st3 st4">1</text>
	<text transform="matrix(1 0 0 1 28.6353 191.9023)" class="st2 st3 st4">2</text>
	<text transform="matrix(1 0 0 1 51.2095 191.9023)" class="st2 st3 st4">3</text>
	<text transform="matrix(1 0 0 1 73.7241 191.9023)" class="st2 st3 st4">4</text>
	<text transform="matrix(1 0 0 1 96.398 191.9023)" class="st2 st3 st4">5</text>
	<text transform="matrix(1 0 0 1 118.7202 191.9023)" class="st2 st3 st4">6</text>
	<text transform="matrix(1 0 0 1 141.7466 191.9023)" class="st2 st3 st4">7</text>
	<text transform="matrix(1 0 0 1 163.937 191.9023)" class="st2 st3 st4">8</text>
	<text transform="matrix(1 0 0 1 186.4312 191.9023)" class="st2 st3 st4">9</text>
	<text transform="matrix(1 0 0 1 207.0816 191.9023)" class="st2 st3 st4">10</text>
	<text transform="matrix(1 0 0 1 230.562 191.9023)" class="st2 st3 st4">11</text>
	<text transform="matrix(1 0 0 1 252.6245 191.9023)" class="st2 st3 st4">12</text>
	<text transform="matrix(1 0 0 1 275.1992 191.9023)" class="st2 st3 st4">13</text>
	<text transform="matrix(1 0 0 1 297.7129 191.9023)" class="st2 st3 st4">14</text>
	<text transform="matrix(1 0 0 1 6.5728 214.7363)" class="st2 st3 st4">1</text>
	<text transform="matrix(1 0 0 1 28.6353 214.7363)" class="st2 st3 st4">2</text>
	<text transform="matrix(1 0 0 1 51.2095 214.7363)" class="st2 st3 st4">3</text>
	<text transform="matrix(1 0 0 1 73.7241 214.7363)" class="st2 st3 st4">4</text>
	<text transform="matrix(1 0 0 1 96.398 214.7363)" class="st2 st3 st4">5</text>
	<text transform="matrix(1 0 0 1 118.7202 214.7363)" class="st2 st3 st4">6</text>
	<text transform="matrix(1 0 0 1 141.7466 214.7363)" class="st2 st3 st4">7</text>
	<text transform="matrix(1 0 0 1 163.937 214.7363)" class="st2 st3 st4">8</text>
	<text transform="matrix(1 0 0 1 186.4312 214.7363)" class="st2 st3 st4">9</text>
	<text transform="matrix(1 0 0 1 207.0816 214.7363)" class="st2 st3 st4">10</text>
	<text transform="matrix(1 0 0 1 230.562 214.7363)" class="st2 st3 st4">11</text>
	<text transform="matrix(1 0 0 1 252.6245 214.7363)" class="st2 st3 st4">12</text>
	<text transform="matrix(1 0 0 1 275.1992 214.7363)" class="st2 st3 st4">13</text>
	<text transform="matrix(1 0 0 1 51.9063 237.2676)" class="st2 st3 st4">1</text>
	<text transform="matrix(1 0 0 1 73.9688 237.2676)" class="st2 st3 st4">2</text>
	<text transform="matrix(1 0 0 1 96.543 237.2676)" class="st2 st3 st4">3</text>
	<text transform="matrix(1 0 0 1 119.0576 237.2676)" class="st2 st3 st4">4</text>
	<text transform="matrix(1 0 0 1 141.7315 237.2676)" class="st2 st3 st4">5</text>
	<text transform="matrix(1 0 0 1 164.0537 237.2676)" class="st2 st3 st4">6</text>
	<text transform="matrix(1 0 0 1 187.0801 237.2676)" class="st2 st3 st4">7</text>
	<text transform="matrix(1 0 0 1 209.2705 237.2676)" class="st2 st3 st4">8</text>
	<text transform="matrix(1 0 0 1 231.7647 237.2676)" class="st2 st3 st4">9</text>
	<text transform="matrix(1 0 0 1 252.4151 237.2676)" class="st2 st3 st4">10</text>
	<text transform="matrix(1 0 0 1 51.8013 259.6172)" class="st2 st3 st4">1</text>
	<text transform="matrix(1 0 0 1 73.8638 259.6172)" class="st2 st3 st4">2</text>
	<text transform="matrix(1 0 0 1 96.438 259.6172)" class="st2 st3 st4">3</text>
	<text transform="matrix(1 0 0 1 118.9527 259.6172)" class="st2 st3 st4">4</text>
	<text transform="matrix(1 0 0 1 141.6265 259.6172)" class="st2 st3 st4">5</text>
	<text transform="matrix(1 0 0 1 163.9487 259.6172)" class="st2 st3 st4">6</text>
	<text transform="matrix(1 0 0 1 186.9751 259.6172)" class="st2 st3 st4">7</text>
	<text transform="matrix(1 0 0 1 209.1655 259.6172)" class="st2 st3 st4">8</text>
	<text transform="matrix(1 0 0 1 231.6597 259.6172)" class="st2 st3 st4">9</text>
	<text transform="matrix(1 0 0 1 252.3101 259.6172)" class="st2 st3 st4">10</text>
	<text transform="matrix(1 0 0 1 51.8013 282.4512)" class="st2 st3 st4">1</text>
	<text transform="matrix(1 0 0 1 73.8638 282.4512)" class="st2 st3 st4">2</text>
	<text transform="matrix(1 0 0 1 96.438 282.4512)" class="st2 st3 st4">3</text>
	<text transform="matrix(1 0 0 1 118.9527 282.4512)" class="st2 st3 st4">4</text>
	<text transform="matrix(1 0 0 1 141.6265 282.4512)" class="st2 st3 st4">5</text>
	<text transform="matrix(1 0 0 1 163.9487 282.4512)" class="st2 st3 st4">6</text>
	<text transform="matrix(1 0 0 1 186.9751 282.4512)" class="st2 st3 st4">7</text>
	<text transform="matrix(1 0 0 1 209.1655 282.4512)" class="st2 st3 st4">8</text>
	<text transform="matrix(1 0 0 1 231.6597 282.4512)" class="st2 st3 st4">9</text>
	<text transform="matrix(1 0 0 1 6.5728 463.1758)" class="st2 st3 st4">1</text>
	<text transform="matrix(1 0 0 1 28.6353 463.1758)" class="st2 st3 st4">2</text>
	<text transform="matrix(1 0 0 1 51.2095 463.1758)" class="st2 st3 st4">3</text>
	<text transform="matrix(1 0 0 1 73.7241 463.1758)" class="st2 st3 st4">4</text>
	<text transform="matrix(1 0 0 1 96.398 463.1758)" class="st2 st3 st4">5</text>
	<text transform="matrix(1 0 0 1 118.7202 463.1758)" class="st2 st3 st4">6</text>
	<text transform="matrix(1 0 0 1 141.7466 463.1758)" class="st2 st3 st4">7</text>
	<text transform="matrix(1 0 0 1 163.937 463.1758)" class="st2 st3 st4">8</text>
	<text transform="matrix(1 0 0 1 186.4312 463.1758)" class="st2 st3 st4">9</text>
	<text transform="matrix(1 0 0 1 6.5728 485.5273)" class="st2 st3 st4">1</text>
	<text transform="matrix(1 0 0 1 28.6353 485.5273)" class="st2 st3 st4">2</text>
	<text transform="matrix(1 0 0 1 51.2095 485.5273)" class="st2 st3 st4">3</text>
	<text transform="matrix(1 0 0 1 73.7241 485.5273)" class="st2 st3 st4">4</text>
	<text transform="matrix(1 0 0 1 96.398 485.5273)" class="st2 st3 st4">5</text>
	<text transform="matrix(1 0 0 1 118.7202 485.5273)" class="st2 st3 st4">6</text>
	<text transform="matrix(1 0 0 1 141.7466 485.5273)" class="st2 st3 st4">7</text>
	<text transform="matrix(1 0 0 1 163.937 485.5273)" class="st2 st3 st4">8</text>
	<text transform="matrix(1 0 0 1 6.5728 508.3613)" class="st2 st3 st4">1</text>
	<text transform="matrix(1 0 0 1 28.6353 508.3613)" class="st2 st3 st4">2</text>
	<text transform="matrix(1 0 0 1 51.2095 508.3613)" class="st2 st3 st4">3</text>
	<text transform="matrix(1 0 0 1 73.7241 508.3613)" class="st2 st3 st4">4</text>
	<text transform="matrix(1 0 0 1 96.398 508.3613)" class="st2 st3 st4">5</text>
	<text transform="matrix(1 0 0 1 118.7202 508.3613)" class="st2 st3 st4">6</text>
	<text transform="matrix(1 0 0 1 141.7466 508.3613)" class="st2 st3 st4">7</text>
	<text transform="matrix(1 0 0 1 163.937 508.3613)" class="st2 st3 st4">8</text>
	<text transform="matrix(1 0 0 1 6.5728 530.8906)" class="st2 st3 st4">1</text>
	<text transform="matrix(1 0 0 1 28.6353 530.8906)" class="st2 st3 st4">2</text>
	<text transform="matrix(1 0 0 1 51.2095 530.8906)" class="st2 st3 st4">3</text>
	<text transform="matrix(1 0 0 1 73.7241 530.8906)" class="st2 st3 st4">4</text>
	<text transform="matrix(1 0 0 1 96.398 530.8906)" class="st2 st3 st4">5</text>
	<text transform="matrix(1 0 0 1 118.7202 530.8906)" class="st2 st3 st4">6</text>
	<text transform="matrix(1 0 0 1 141.7466 530.8906)" class="st2 st3 st4">7</text>
	<text transform="matrix(1 0 0 1 6.5728 553.2422)" class="st2 st3 st4">1</text>
	<text transform="matrix(1 0 0 1 28.6353 553.2422)" class="st2 st3 st4">2</text>
	<text transform="matrix(1 0 0 1 51.2095 553.2422)" class="st2 st3 st4">3</text>
	<text transform="matrix(1 0 0 1 73.7241 553.2422)" class="st2 st3 st4">4</text>
	<text transform="matrix(1 0 0 1 96.398 553.2422)" class="st2 st3 st4">5</text>
	<text transform="matrix(1 0 0 1 118.7202 553.2422)" class="st2 st3 st4">6</text>
	<text transform="matrix(1 0 0 1 141.7466 553.2422)" class="st2 st3 st4">7</text>
	<text transform="matrix(1 0 0 1 6.5728 576.0762)" class="st2 st3 st4">1</text>
	<text transform="matrix(1 0 0 1 28.6353 576.0762)" class="st2 st3 st4">2</text>
	<text transform="matrix(1 0 0 1 51.2095 576.0762)" class="st2 st3 st4">3</text>
	<text transform="matrix(1 0 0 1 73.7241 576.0762)" class="st2 st3 st4">4</text>
	<text transform="matrix(1 0 0 1 96.398 576.0762)" class="st2 st3 st4">5</text>
	<text transform="matrix(1 0 0 1 118.7202 576.0762)" class="st2 st3 st4">6</text>
	<text transform="matrix(1 0 0 1 6.5728 598.6582)" class="st2 st3 st4">1</text>
	<text transform="matrix(1 0 0 1 28.6353 598.6582)" class="st2 st3 st4">2</text>
	<text transform="matrix(1 0 0 1 51.2095 598.6582)" class="st2 st3 st4">3</text>
	<text transform="matrix(1 0 0 1 73.7241 598.6582)" class="st2 st3 st4">4</text>
	<text transform="matrix(1 0 0 1 96.398 598.6582)" class="st2 st3 st4">5</text>
	<text transform="matrix(1 0 0 1 118.7202 598.6582)" class="st2 st3 st4">6</text>
	<text transform="matrix(1 0 0 1 119.4243 621.0059)" class="st2 st3 st4">1</text>
	<text transform="matrix(1 0 0 1 51.8491 305.0566)" class="st2 st3 st4">1</text>
	<text transform="matrix(1 0 0 1 73.9116 305.0566)" class="st2 st3 st4">2</text>
	<text transform="matrix(1 0 0 1 96.4849 305.0566)" class="st2 st3 st4">3</text>
	<text transform="matrix(1 0 0 1 118.9995 305.0566)" class="st2 st3 st4">4</text>
	<text transform="matrix(1 0 0 1 141.6734 305.0566)" class="st2 st3 st4">5</text>
	<text transform="matrix(1 0 0 1 163.9956 305.0566)" class="st2 st3 st4">6</text>
	<text transform="matrix(1 0 0 1 187.022 305.0566)" class="st2 st3 st4">7</text>
	<text transform="matrix(1 0 0 1 209.2124 305.0566)" class="st2 st3 st4">8</text>
	<text transform="matrix(1 0 0 1 231.7066 305.0566)" class="st2 st3 st4">9</text>
</g>
<g>
	<text transform="matrix(1 0 0 1 438.0918 55.3086)" class="st5 st6 st7">29</text>
	<text transform="matrix(1 0 0 1 438.0918 10.9375)" class="st5 st6 st7">30</text>
	<text transform="matrix(1 0 0 1 438.0918 100.8047)" class="st5 st6 st7">27</text>
	<text transform="matrix(1 0 0 1 438.0918 78.2344)" class="st5 st6 st7">28</text>
	<text transform="matrix(1 0 0 1 438.0918 145.9473)" class="st5 st6 st7">25</text>
	<text transform="matrix(1 0 0 1 437.9316 326.5469)" class="st5 st6 st7">17</text>
	<text transform="matrix(1 0 0 1 437.9316 349.0986)" class="st5 st6 st7">16</text>
	<text transform="matrix(1 0 0 1 438.0918 371.7344)" class="st5 st6 st7">15</text>
	<text transform="matrix(1 0 0 1 438.0918 394.2861)" class="st5 st6 st7">14</text>
	<text transform="matrix(1 0 0 1 437.9043 416.9189)" class="st5 st6 st7">13</text>
	<text transform="matrix(1 0 0 1 437.9316 439.4717)" class="st5 st6 st7">12</text>
	<text transform="matrix(1 0 0 1 438.2676 620.1689)" class="st5 st6 st7">4</text>
	<text transform="matrix(1 0 0 1 438.0918 123.377)" class="st5 st6 st7">26</text>
	<text transform="matrix(1 0 0 1 438.0918 168.4014)" class="st5 st6 st7">24</text>
	<text transform="matrix(1 0 0 1 438.0918 213.5889)" class="st5 st6 st7">22</text>
	<text transform="matrix(1 0 0 1 438.0918 191.0186)" class="st5 st6 st7">23</text>
	<text transform="matrix(1 0 0 1 438.0918 258.7334)" class="st5 st6 st7">20</text>
	<text transform="matrix(1 0 0 1 438.0918 236.1631)" class="st5 st6 st7">21</text>
	<text transform="matrix(1 0 0 1 437.9043 303.876)" class="st5 st6 st7">18</text>
	<text transform="matrix(1 0 0 1 437.9316 281.3057)" class="st5 st6 st7">19</text>
	<text transform="matrix(1 0 0 1 437.9316 462.0254)" class="st5 st6 st7">11</text>
	<text transform="matrix(1 0 0 1 437.9316 507.2129)" class="st5 st6 st7">9</text>
	<text transform="matrix(1 0 0 1 437.9316 484.6426)" class="st5 st6 st7">10</text>
	<text transform="matrix(1 0 0 1 438.5391 552.3584)" class="st5 st6 st7">7</text>
	<text transform="matrix(1 0 0 1 437.9043 529.7881)" class="st5 st6 st7">8</text>
	<text transform="matrix(1 0 0 1 437.9316 574.9307)" class="st5 st6 st7">6</text>
	<text transform="matrix(1 0 0 1 438.5391 597.5137)" class="st5 st6 st7">5</text>
</g>
</svg>
