<?xml version="1.0" encoding="utf-8"?>
<!-- Generator: Adobe Illustrator 20.1.0, SVG Export Plug-In . SVG Version: 6.00 Build 0)  -->
<svg version="1.1" id="Layer_1" xmlns="http://www.w3.org/2000/svg" xmlns:xlink="http://www.w3.org/1999/xlink" x="0px" y="0px"
	 viewBox="0 0 426 626.1" style="enable-background:new 0 0 426 626.1;" xml:space="preserve">
<style type="text/css">
	.st0{fill:#D9F6E1;}
	.st1{fill:#FFFFFF;}
	.st2{fill:#737373;}
	.st3{font-family:'OsnovaPro';}
	.st4{font-size:8px;}
	.st5{fill:#7B878F;}
	.st6{font-family:'OsnovaProLight';}
	.st7{font-size:9px;}
</style>
<path class="st0" d="M8.7,16.6L8.7,16.6c-4.6,0-8.3-3.7-8.3-8.3v0C0.4,3.7,4.1,0,8.7,0h0C13.2,0,17,3.7,17,8.3v0
	C17,12.8,13.2,16.6,8.7,16.6z"/>
<path class="st0" d="M31.3,16.6L31.3,16.6c-4.6,0-8.3-3.7-8.3-8.3v0C23,3.7,26.7,0,31.3,0h0c4.6,0,8.3,3.7,8.3,8.3v0
	C39.5,12.8,35.8,16.6,31.3,16.6z"/>
<path class="st0" d="M53.8,16.6L53.8,16.6c-4.6,0-8.3-3.7-8.3-8.3v0c0-4.6,3.7-8.3,8.3-8.3h0c4.6,0,8.3,3.7,8.3,8.3v0
	C62.1,12.8,58.4,16.6,53.8,16.6z"/>
<path class="st0" d="M76.4,16.6L76.4,16.6c-4.6,0-8.3-3.7-8.3-8.3v0c0-4.6,3.7-8.3,8.3-8.3h0c4.6,0,8.3,3.7,8.3,8.3v0
	C84.7,12.8,81,16.6,76.4,16.6z"/>
<path class="st0" d="M99,16.6L99,16.6c-4.6,0-8.3-3.7-8.3-8.3v0C90.7,3.7,94.4,0,99,0h0c4.6,0,8.3,3.7,8.3,8.3v0
	C107.3,12.8,103.5,16.6,99,16.6z"/>
<path class="st0" d="M121.5,16.6L121.5,16.6c-4.6,0-8.3-3.7-8.3-8.3v0c0-4.6,3.7-8.3,8.3-8.3h0c4.6,0,8.3,3.7,8.3,8.3v0
	C129.8,12.8,126.1,16.6,121.5,16.6z"/>
<path class="st0" d="M144.1,16.6L144.1,16.6c-4.6,0-8.3-3.7-8.3-8.3v0c0-4.6,3.7-8.3,8.3-8.3h0c4.6,0,8.3,3.7,8.3,8.3v0
	C152.4,12.8,148.7,16.6,144.1,16.6z"/>
<path class="st0" d="M166.7,16.6L166.7,16.6c-4.6,0-8.3-3.7-8.3-8.3v0c0-4.6,3.7-8.3,8.3-8.3h0c4.6,0,8.3,3.7,8.3,8.3v0
	C175,12.8,171.2,16.6,166.7,16.6z"/>
<path class="st0" d="M189.2,16.6L189.2,16.6c-4.6,0-8.3-3.7-8.3-8.3v0c0-4.6,3.7-8.3,8.3-8.3h0c4.6,0,8.3,3.7,8.3,8.3v0
	C197.5,12.8,193.8,16.6,189.2,16.6z"/>
<path class="st0" d="M211.8,16.6L211.8,16.6c-4.6,0-8.3-3.7-8.3-8.3v0c0-4.6,3.7-8.3,8.3-8.3h0c4.6,0,8.3,3.7,8.3,8.3v0
	C220.1,12.8,216.4,16.6,211.8,16.6z"/>
<path class="st1" d="M8.3,106.7L8.3,106.7c-4.6,0-8.3-3.7-8.3-8.3v0c0-4.6,3.7-8.3,8.3-8.3h0c4.6,0,8.3,3.7,8.3,8.3v0
	C16.6,102.9,12.8,106.7,8.3,106.7z"/>
<path class="st1" d="M30.9,106.7L30.9,106.7c-4.6,0-8.3-3.7-8.3-8.3v0c0-4.6,3.7-8.3,8.3-8.3h0c4.6,0,8.3,3.7,8.3,8.3v0
	C39.1,102.9,35.4,106.7,30.9,106.7z"/>
<path class="st1" d="M53.4,106.7L53.4,106.7c-4.6,0-8.3-3.7-8.3-8.3v0c0-4.6,3.7-8.3,8.3-8.3h0c4.6,0,8.3,3.7,8.3,8.3v0
	C61.7,102.9,58,106.7,53.4,106.7z"/>
<path class="st1" d="M76,106.7L76,106.7c-4.6,0-8.3-3.7-8.3-8.3v0c0-4.6,3.7-8.3,8.3-8.3h0c4.6,0,8.3,3.7,8.3,8.3v0
	C84.3,102.9,80.6,106.7,76,106.7z"/>
<path class="st1" d="M98.6,106.7L98.6,106.7c-4.6,0-8.3-3.7-8.3-8.3v0c0-4.6,3.7-8.3,8.3-8.3h0c4.6,0,8.3,3.7,8.3,8.3v0
	C106.9,102.9,103.1,106.7,98.6,106.7z"/>
<path class="st1" d="M121.1,106.7L121.1,106.7c-4.6,0-8.3-3.7-8.3-8.3v0c0-4.6,3.7-8.3,8.3-8.3h0c4.6,0,8.3,3.7,8.3,8.3v0
	C129.4,102.9,125.7,106.7,121.1,106.7z"/>
<path class="st1" d="M143.7,106.7L143.7,106.7c-4.6,0-8.3-3.7-8.3-8.3v0c0-4.6,3.7-8.3,8.3-8.3h0c4.6,0,8.3,3.7,8.3,8.3v0
	C152,102.9,148.3,106.7,143.7,106.7z"/>
<path class="st1" d="M166.3,106.7L166.3,106.7c-4.6,0-8.3-3.7-8.3-8.3v0c0-4.6,3.7-8.3,8.3-8.3h0c4.6,0,8.3,3.7,8.3,8.3v0
	C174.6,102.9,170.8,106.7,166.3,106.7z"/>
<path class="st1" d="M188.8,106.7L188.8,106.7c-4.6,0-8.3-3.7-8.3-8.3v0c0-4.6,3.7-8.3,8.3-8.3h0c4.6,0,8.3,3.7,8.3,8.3v0
	C197.1,102.9,193.4,106.7,188.8,106.7z"/>
<path class="st1" d="M211.4,106.7L211.4,106.7c-4.6,0-8.3-3.7-8.3-8.3v0c0-4.6,3.7-8.3,8.3-8.3h0c4.6,0,8.3,3.7,8.3,8.3v0
	C219.7,102.9,216,106.7,211.4,106.7z"/>
<path class="st1" d="M234,106.7L234,106.7c-4.6,0-8.3-3.7-8.3-8.3v0c0-4.6,3.7-8.3,8.3-8.3h0c4.6,0,8.3,3.7,8.3,8.3v0
	C242.3,102.9,238.5,106.7,234,106.7z"/>
<path class="st1" d="M256.6,106.7L256.6,106.7c-4.6,0-8.3-3.7-8.3-8.3v0c0-4.6,3.7-8.3,8.3-8.3h0c4.6,0,8.3,3.7,8.3,8.3v0
	C264.8,102.9,261.1,106.7,256.6,106.7z"/>
<path class="st1" d="M279.1,106.7L279.1,106.7c-4.6,0-8.3-3.7-8.3-8.3v0c0-4.6,3.7-8.3,8.3-8.3h0c4.6,0,8.3,3.7,8.3,8.3v0
	C287.4,102.9,283.7,106.7,279.1,106.7z"/>
<path class="st1" d="M301.7,106.7L301.7,106.7c-4.6,0-8.3-3.7-8.3-8.3v0c0-4.6,3.7-8.3,8.3-8.3l0,0c4.6,0,8.3,3.7,8.3,8.3v0
	C310,102.9,306.3,106.7,301.7,106.7z"/>
<path class="st1" d="M324.3,106.7L324.3,106.7c-4.6,0-8.3-3.7-8.3-8.3v0c0-4.6,3.7-8.3,8.3-8.3l0,0c4.6,0,8.3,3.7,8.3,8.3v0
	C332.6,102.9,328.8,106.7,324.3,106.7z"/>
<path class="st1" d="M346.8,106.7L346.8,106.7c-4.6,0-8.3-3.7-8.3-8.3v0c0-4.6,3.7-8.3,8.3-8.3h0c4.6,0,8.3,3.7,8.3,8.3v0
	C355.1,102.9,351.4,106.7,346.8,106.7z"/>
<path class="st1" d="M8.3,84.1L8.3,84.1c-4.6,0-8.3-3.7-8.3-8.3v0c0-4.6,3.7-8.3,8.3-8.3h0c4.6,0,8.3,3.7,8.3,8.3v0
	C16.6,80.4,12.8,84.1,8.3,84.1z"/>
<path class="st1" d="M30.9,84.1L30.9,84.1c-4.6,0-8.3-3.7-8.3-8.3v0c0-4.6,3.7-8.3,8.3-8.3h0c4.6,0,8.3,3.7,8.3,8.3v0
	C39.1,80.4,35.4,84.1,30.9,84.1z"/>
<path class="st1" d="M53.4,84.1L53.4,84.1c-4.6,0-8.3-3.7-8.3-8.3v0c0-4.6,3.7-8.3,8.3-8.3h0c4.6,0,8.3,3.7,8.3,8.3v0
	C61.7,80.4,58,84.1,53.4,84.1z"/>
<path class="st1" d="M76,84.1L76,84.1c-4.6,0-8.3-3.7-8.3-8.3v0c0-4.6,3.7-8.3,8.3-8.3h0c4.6,0,8.3,3.7,8.3,8.3v0
	C84.3,80.4,80.6,84.1,76,84.1z"/>
<path class="st1" d="M98.6,84.1L98.6,84.1c-4.6,0-8.3-3.7-8.3-8.3v0c0-4.6,3.7-8.3,8.3-8.3h0c4.6,0,8.3,3.7,8.3,8.3v0
	C106.9,80.4,103.1,84.1,98.6,84.1z"/>
<path class="st1" d="M121.1,84.1L121.1,84.1c-4.6,0-8.3-3.7-8.3-8.3v0c0-4.6,3.7-8.3,8.3-8.3h0c4.6,0,8.3,3.7,8.3,8.3v0
	C129.4,80.4,125.7,84.1,121.1,84.1z"/>
<path class="st1" d="M143.7,84.1L143.7,84.1c-4.6,0-8.3-3.7-8.3-8.3v0c0-4.6,3.7-8.3,8.3-8.3h0c4.6,0,8.3,3.7,8.3,8.3v0
	C152,80.4,148.3,84.1,143.7,84.1z"/>
<path class="st1" d="M166.3,84.1L166.3,84.1c-4.6,0-8.3-3.7-8.3-8.3v0c0-4.6,3.7-8.3,8.3-8.3h0c4.6,0,8.3,3.7,8.3,8.3v0
	C174.6,80.4,170.8,84.1,166.3,84.1z"/>
<path class="st1" d="M188.8,84.1L188.8,84.1c-4.6,0-8.3-3.7-8.3-8.3v0c0-4.6,3.7-8.3,8.3-8.3h0c4.6,0,8.3,3.7,8.3,8.3v0
	C197.1,80.4,193.4,84.1,188.8,84.1z"/>
<path class="st1" d="M211.4,84.1L211.4,84.1c-4.6,0-8.3-3.7-8.3-8.3v0c0-4.6,3.7-8.3,8.3-8.3h0c4.6,0,8.3,3.7,8.3,8.3v0
	C219.7,80.4,216,84.1,211.4,84.1z"/>
<path class="st1" d="M234,84.1L234,84.1c-4.6,0-8.3-3.7-8.3-8.3v0c0-4.6,3.7-8.3,8.3-8.3h0c4.6,0,8.3,3.7,8.3,8.3v0
	C242.3,80.4,238.5,84.1,234,84.1z"/>
<path class="st1" d="M256.6,84.1L256.6,84.1c-4.6,0-8.3-3.7-8.3-8.3v0c0-4.6,3.7-8.3,8.3-8.3h0c4.6,0,8.3,3.7,8.3,8.3v0
	C264.8,80.4,261.1,84.1,256.6,84.1z"/>
<path class="st1" d="M279.1,84.1L279.1,84.1c-4.6,0-8.3-3.7-8.3-8.3v0c0-4.6,3.7-8.3,8.3-8.3h0c4.6,0,8.3,3.7,8.3,8.3v0
	C287.4,80.4,283.7,84.1,279.1,84.1z"/>
<path class="st1" d="M301.7,84.1L301.7,84.1c-4.6,0-8.3-3.7-8.3-8.3v0c0-4.6,3.7-8.3,8.3-8.3l0,0c4.6,0,8.3,3.7,8.3,8.3v0
	C310,80.4,306.3,84.1,301.7,84.1z"/>
<path class="st1" d="M324.3,84.1L324.3,84.1c-4.6,0-8.3-3.7-8.3-8.3v0c0-4.6,3.7-8.3,8.3-8.3l0,0c4.6,0,8.3,3.7,8.3,8.3v0
	C332.6,80.4,328.8,84.1,324.3,84.1z"/>
<path class="st1" d="M346.8,84.1L346.8,84.1c-4.6,0-8.3-3.7-8.3-8.3v0c0-4.6,3.7-8.3,8.3-8.3h0c4.6,0,8.3,3.7,8.3,8.3v0
	C355.1,80.4,351.4,84.1,346.8,84.1z"/>
<path class="st1" d="M30.9,151.8L30.9,151.8c-4.6,0-8.3-3.7-8.3-8.3v0c0-4.6,3.7-8.3,8.3-8.3h0c4.6,0,8.3,3.7,8.3,8.3v0
	C39.2,148.1,35.4,151.8,30.9,151.8z"/>
<path class="st1" d="M53.5,151.8L53.5,151.8c-4.6,0-8.3-3.7-8.3-8.3v0c0-4.6,3.7-8.3,8.3-8.3h0c4.6,0,8.3,3.7,8.3,8.3v0
	C61.7,148.1,58,151.8,53.5,151.8z"/>
<path class="st1" d="M76,151.8L76,151.8c-4.6,0-8.3-3.7-8.3-8.3v0c0-4.6,3.7-8.3,8.3-8.3h0c4.6,0,8.3,3.7,8.3,8.3v0
	C84.3,148.1,80.6,151.8,76,151.8z"/>
<path class="st1" d="M98.6,151.8L98.6,151.8c-4.6,0-8.3-3.7-8.3-8.3v0c0-4.6,3.7-8.3,8.3-8.3h0c4.6,0,8.3,3.7,8.3,8.3v0
	C106.9,148.1,103.1,151.8,98.6,151.8z"/>
<path class="st1" d="M121.2,151.8L121.2,151.8c-4.6,0-8.3-3.7-8.3-8.3v0c0-4.6,3.7-8.3,8.3-8.3h0c4.6,0,8.3,3.7,8.3,8.3v0
	C129.4,148.1,125.7,151.8,121.2,151.8z"/>
<path class="st1" d="M143.7,151.8L143.7,151.8c-4.6,0-8.3-3.7-8.3-8.3v0c0-4.6,3.7-8.3,8.3-8.3h0c4.6,0,8.3,3.7,8.3,8.3v0
	C152,148.1,148.3,151.8,143.7,151.8z"/>
<path class="st1" d="M166.3,151.8L166.3,151.8c-4.6,0-8.3-3.7-8.3-8.3v0c0-4.6,3.7-8.3,8.3-8.3h0c4.6,0,8.3,3.7,8.3,8.3v0
	C174.6,148.1,170.9,151.8,166.3,151.8z"/>
<path class="st1" d="M188.9,151.8L188.9,151.8c-4.6,0-8.3-3.7-8.3-8.3v0c0-4.6,3.7-8.3,8.3-8.3h0c4.6,0,8.3,3.7,8.3,8.3v0
	C197.2,148.1,193.4,151.8,188.9,151.8z"/>
<path class="st1" d="M211.4,151.8L211.4,151.8c-4.6,0-8.3-3.7-8.3-8.3v0c0-4.6,3.7-8.3,8.3-8.3h0c4.6,0,8.3,3.7,8.3,8.3v0
	C219.7,148.1,216,151.8,211.4,151.8z"/>
<path class="st1" d="M234,151.8L234,151.8c-4.6,0-8.3-3.7-8.3-8.3v0c0-4.6,3.7-8.3,8.3-8.3h0c4.6,0,8.3,3.7,8.3,8.3v0
	C242.3,148.1,238.6,151.8,234,151.8z"/>
<path class="st1" d="M256.6,151.8L256.6,151.8c-4.6,0-8.3-3.7-8.3-8.3v0c0-4.6,3.7-8.3,8.3-8.3l0,0c4.6,0,8.3,3.7,8.3,8.3v0
	C264.9,148.1,261.1,151.8,256.6,151.8z"/>
<path class="st1" d="M279.2,151.8L279.2,151.8c-4.6,0-8.3-3.7-8.3-8.3v0c0-4.6,3.7-8.3,8.3-8.3l0,0c4.6,0,8.3,3.7,8.3,8.3v0
	C287.4,148.1,283.7,151.8,279.2,151.8z"/>
<path class="st1" d="M301.7,151.8L301.7,151.8c-4.6,0-8.3-3.7-8.3-8.3v0c0-4.6,3.7-8.3,8.3-8.3h0c4.6,0,8.3,3.7,8.3,8.3v0
	C310,148.1,306.3,151.8,301.7,151.8z"/>
<path class="st1" d="M324.3,151.8L324.3,151.8c-4.6,0-8.3-3.7-8.3-8.3v0c0-4.6,3.7-8.3,8.3-8.3h0c4.6,0,8.3,3.7,8.3,8.3v0
	C332.6,148.1,328.9,151.8,324.3,151.8z"/>
<path class="st1" d="M346.9,151.8L346.9,151.8c-4.6,0-8.3-3.7-8.3-8.3v0c0-4.6,3.7-8.3,8.3-8.3h0c4.6,0,8.3,3.7,8.3,8.3v0
	C355.1,148.1,351.4,151.8,346.9,151.8z"/>
<path class="st1" d="M98.6,332.4L98.6,332.4c-4.6,0-8.3-3.7-8.3-8.3l0,0c0-4.6,3.7-8.3,8.3-8.3h0c4.6,0,8.3,3.7,8.3,8.3l0,0
	C106.9,328.7,103.1,332.4,98.6,332.4z"/>
<path class="st1" d="M121.2,332.4L121.2,332.4c-4.6,0-8.3-3.7-8.3-8.3l0,0c0-4.6,3.7-8.3,8.3-8.3h0c4.6,0,8.3,3.7,8.3,8.3l0,0
	C129.4,328.7,125.7,332.4,121.2,332.4z"/>
<path class="st1" d="M143.7,332.4L143.7,332.4c-4.6,0-8.3-3.7-8.3-8.3l0,0c0-4.6,3.7-8.3,8.3-8.3h0c4.6,0,8.3,3.7,8.3,8.3l0,0
	C152,328.7,148.3,332.4,143.7,332.4z"/>
<path class="st1" d="M166.3,332.4L166.3,332.4c-4.6,0-8.3-3.7-8.3-8.3l0,0c0-4.6,3.7-8.3,8.3-8.3h0c4.6,0,8.3,3.7,8.3,8.3l0,0
	C174.6,328.7,170.9,332.4,166.3,332.4z"/>
<path class="st1" d="M188.9,332.4L188.9,332.4c-4.6,0-8.3-3.7-8.3-8.3l0,0c0-4.6,3.7-8.3,8.3-8.3h0c4.6,0,8.3,3.7,8.3,8.3l0,0
	C197.2,328.7,193.4,332.4,188.9,332.4z"/>
<path class="st1" d="M211.4,332.4L211.4,332.4c-4.6,0-8.3-3.7-8.3-8.3l0,0c0-4.6,3.7-8.3,8.3-8.3h0c4.6,0,8.3,3.7,8.3,8.3l0,0
	C219.7,328.7,216,332.4,211.4,332.4z"/>
<path class="st1" d="M234,332.4L234,332.4c-4.6,0-8.3-3.7-8.3-8.3l0,0c0-4.6,3.7-8.3,8.3-8.3h0c4.6,0,8.3,3.7,8.3,8.3l0,0
	C242.3,328.7,238.6,332.4,234,332.4z"/>
<path class="st1" d="M256.6,332.4L256.6,332.4c-4.6,0-8.3-3.7-8.3-8.3l0,0c0-4.6,3.7-8.3,8.3-8.3l0,0c4.6,0,8.3,3.7,8.3,8.3l0,0
	C264.9,328.7,261.1,332.4,256.6,332.4z"/>
<path class="st1" d="M279.2,332.4L279.2,332.4c-4.6,0-8.3-3.7-8.3-8.3l0,0c0-4.6,3.7-8.3,8.3-8.3l0,0c4.6,0,8.3,3.7,8.3,8.3l0,0
	C287.4,328.7,283.7,332.4,279.2,332.4z"/>
<path class="st1" d="M98.6,355L98.6,355c-4.6,0-8.3-3.7-8.3-8.3l0,0c0-4.6,3.7-8.3,8.3-8.3h0c4.6,0,8.3,3.7,8.3,8.3l0,0
	C106.9,351.2,103.1,355,98.6,355z"/>
<path class="st1" d="M121.2,355L121.2,355c-4.6,0-8.3-3.7-8.3-8.3l0,0c0-4.6,3.7-8.3,8.3-8.3h0c4.6,0,8.3,3.7,8.3,8.3l0,0
	C129.4,351.2,125.7,355,121.2,355z"/>
<path class="st1" d="M143.7,355L143.7,355c-4.6,0-8.3-3.7-8.3-8.3l0,0c0-4.6,3.7-8.3,8.3-8.3h0c4.6,0,8.3,3.7,8.3,8.3l0,0
	C152,351.2,148.3,355,143.7,355z"/>
<path class="st1" d="M166.3,355L166.3,355c-4.6,0-8.3-3.7-8.3-8.3l0,0c0-4.6,3.7-8.3,8.3-8.3h0c4.6,0,8.3,3.7,8.3,8.3l0,0
	C174.6,351.2,170.9,355,166.3,355z"/>
<path class="st1" d="M188.9,355L188.9,355c-4.6,0-8.3-3.7-8.3-8.3l0,0c0-4.6,3.7-8.3,8.3-8.3h0c4.6,0,8.3,3.7,8.3,8.3l0,0
	C197.2,351.2,193.4,355,188.9,355z"/>
<path class="st1" d="M211.4,355L211.4,355c-4.6,0-8.3-3.7-8.3-8.3l0,0c0-4.6,3.7-8.3,8.3-8.3h0c4.6,0,8.3,3.7,8.3,8.3l0,0
	C219.7,351.2,216,355,211.4,355z"/>
<path class="st1" d="M234,355L234,355c-4.6,0-8.3-3.7-8.3-8.3l0,0c0-4.6,3.7-8.3,8.3-8.3h0c4.6,0,8.3,3.7,8.3,8.3l0,0
	C242.3,351.2,238.6,355,234,355z"/>
<path class="st1" d="M256.6,355L256.6,355c-4.6,0-8.3-3.7-8.3-8.3l0,0c0-4.6,3.7-8.3,8.3-8.3l0,0c4.6,0,8.3,3.7,8.3,8.3l0,0
	C264.9,351.2,261.1,355,256.6,355z"/>
<path class="st1" d="M279.2,355L279.2,355c-4.6,0-8.3-3.7-8.3-8.3l0,0c0-4.6,3.7-8.3,8.3-8.3l0,0c4.6,0,8.3,3.7,8.3,8.3l0,0
	C287.4,351.2,283.7,355,279.2,355z"/>
<path class="st1" d="M98.6,377.6L98.6,377.6c-4.6,0-8.3-3.7-8.3-8.3l0,0c0-4.6,3.7-8.3,8.3-8.3h0c4.6,0,8.3,3.7,8.3,8.3l0,0
	C106.9,373.9,103.1,377.6,98.6,377.6z"/>
<path class="st1" d="M121.2,377.6L121.2,377.6c-4.6,0-8.3-3.7-8.3-8.3l0,0c0-4.6,3.7-8.3,8.3-8.3h0c4.6,0,8.3,3.7,8.3,8.3l0,0
	C129.4,373.9,125.7,377.6,121.2,377.6z"/>
<path class="st1" d="M143.7,377.6L143.7,377.6c-4.6,0-8.3-3.7-8.3-8.3l0,0c0-4.6,3.7-8.3,8.3-8.3h0c4.6,0,8.3,3.7,8.3,8.3l0,0
	C152,373.9,148.3,377.6,143.7,377.6z"/>
<path class="st1" d="M166.3,377.6L166.3,377.6c-4.6,0-8.3-3.7-8.3-8.3l0,0c0-4.6,3.7-8.3,8.3-8.3h0c4.6,0,8.3,3.7,8.3,8.3l0,0
	C174.6,373.9,170.9,377.6,166.3,377.6z"/>
<path class="st1" d="M188.9,377.6L188.9,377.6c-4.6,0-8.3-3.7-8.3-8.3l0,0c0-4.6,3.7-8.3,8.3-8.3h0c4.6,0,8.3,3.7,8.3,8.3l0,0
	C197.2,373.9,193.4,377.6,188.9,377.6z"/>
<path class="st1" d="M211.4,377.6L211.4,377.6c-4.6,0-8.3-3.7-8.3-8.3l0,0c0-4.6,3.7-8.3,8.3-8.3h0c4.6,0,8.3,3.7,8.3,8.3l0,0
	C219.7,373.9,216,377.6,211.4,377.6z"/>
<path class="st1" d="M234,377.6L234,377.6c-4.6,0-8.3-3.7-8.3-8.3l0,0c0-4.6,3.7-8.3,8.3-8.3h0c4.6,0,8.3,3.7,8.3,8.3l0,0
	C242.3,373.9,238.6,377.6,234,377.6z"/>
<path class="st1" d="M256.6,377.6L256.6,377.6c-4.6,0-8.3-3.7-8.3-8.3l0,0c0-4.6,3.7-8.3,8.3-8.3l0,0c4.6,0,8.3,3.7,8.3,8.3l0,0
	C264.9,373.9,261.1,377.6,256.6,377.6z"/>
<path class="st1" d="M279.2,377.6L279.2,377.6c-4.6,0-8.3-3.7-8.3-8.3l0,0c0-4.6,3.7-8.3,8.3-8.3l0,0c4.6,0,8.3,3.7,8.3,8.3l0,0
	C287.4,373.9,283.7,377.6,279.2,377.6z"/>
<path class="st1" d="M121.2,400.2L121.2,400.2c-4.6,0-8.3-3.7-8.3-8.3l0,0c0-4.6,3.7-8.3,8.3-8.3h0c4.6,0,8.3,3.7,8.3,8.3l0,0
	C129.4,396.4,125.7,400.2,121.2,400.2z"/>
<path class="st1" d="M143.7,400.2L143.7,400.2c-4.6,0-8.3-3.7-8.3-8.3l0,0c0-4.6,3.7-8.3,8.3-8.3h0c4.6,0,8.3,3.7,8.3,8.3l0,0
	C152,396.4,148.3,400.2,143.7,400.2z"/>
<path class="st1" d="M166.3,400.2L166.3,400.2c-4.6,0-8.3-3.7-8.3-8.3l0,0c0-4.6,3.7-8.3,8.3-8.3h0c4.6,0,8.3,3.7,8.3,8.3l0,0
	C174.6,396.4,170.9,400.2,166.3,400.2z"/>
<path class="st1" d="M188.9,400.2L188.9,400.2c-4.6,0-8.3-3.7-8.3-8.3l0,0c0-4.6,3.7-8.3,8.3-8.3h0c4.6,0,8.3,3.7,8.3,8.3l0,0
	C197.2,396.4,193.4,400.2,188.9,400.2z"/>
<path class="st1" d="M211.4,400.2L211.4,400.2c-4.6,0-8.3-3.7-8.3-8.3l0,0c0-4.6,3.7-8.3,8.3-8.3h0c4.6,0,8.3,3.7,8.3,8.3l0,0
	C219.7,396.4,216,400.2,211.4,400.2z"/>
<path class="st1" d="M234,400.2L234,400.2c-4.6,0-8.3-3.7-8.3-8.3l0,0c0-4.6,3.7-8.3,8.3-8.3h0c4.6,0,8.3,3.7,8.3,8.3l0,0
	C242.3,396.4,238.6,400.2,234,400.2z"/>
<path class="st1" d="M256.6,400.2L256.6,400.2c-4.6,0-8.3-3.7-8.3-8.3l0,0c0-4.6,3.7-8.3,8.3-8.3l0,0c4.6,0,8.3,3.7,8.3,8.3l0,0
	C264.9,396.4,261.1,400.2,256.6,400.2z"/>
<path class="st1" d="M279.2,400.2L279.2,400.2c-4.6,0-8.3-3.7-8.3-8.3l0,0c0-4.6,3.7-8.3,8.3-8.3l0,0c4.6,0,8.3,3.7,8.3,8.3l0,0
	C287.4,396.4,283.7,400.2,279.2,400.2z"/>
<path class="st1" d="M121.2,422.8L121.2,422.8c-4.6,0-8.3-3.7-8.3-8.3v0c0-4.6,3.7-8.3,8.3-8.3h0c4.6,0,8.3,3.7,8.3,8.3v0
	C129.4,419.1,125.7,422.8,121.2,422.8z"/>
<path class="st1" d="M143.7,422.8L143.7,422.8c-4.6,0-8.3-3.7-8.3-8.3v0c0-4.6,3.7-8.3,8.3-8.3h0c4.6,0,8.3,3.7,8.3,8.3v0
	C152,419.1,148.3,422.8,143.7,422.8z"/>
<path class="st1" d="M166.3,422.8L166.3,422.8c-4.6,0-8.3-3.7-8.3-8.3v0c0-4.6,3.7-8.3,8.3-8.3h0c4.6,0,8.3,3.7,8.3,8.3v0
	C174.6,419.1,170.9,422.8,166.3,422.8z"/>
<path class="st1" d="M188.9,422.8L188.9,422.8c-4.6,0-8.3-3.7-8.3-8.3v0c0-4.6,3.7-8.3,8.3-8.3h0c4.6,0,8.3,3.7,8.3,8.3v0
	C197.2,419.1,193.4,422.8,188.9,422.8z"/>
<path class="st1" d="M211.4,422.8L211.4,422.8c-4.6,0-8.3-3.7-8.3-8.3v0c0-4.6,3.7-8.3,8.3-8.3h0c4.6,0,8.3,3.7,8.3,8.3v0
	C219.7,419.1,216,422.8,211.4,422.8z"/>
<path class="st1" d="M234,422.8L234,422.8c-4.6,0-8.3-3.7-8.3-8.3v0c0-4.6,3.7-8.3,8.3-8.3h0c4.6,0,8.3,3.7,8.3,8.3v0
	C242.3,419.1,238.6,422.8,234,422.8z"/>
<path class="st1" d="M256.6,422.8L256.6,422.8c-4.6,0-8.3-3.7-8.3-8.3v0c0-4.6,3.7-8.3,8.3-8.3l0,0c4.6,0,8.3,3.7,8.3,8.3v0
	C264.9,419.1,261.1,422.8,256.6,422.8z"/>
<path class="st1" d="M279.2,422.8L279.2,422.8c-4.6,0-8.3-3.7-8.3-8.3v0c0-4.6,3.7-8.3,8.3-8.3l0,0c4.6,0,8.3,3.7,8.3,8.3v0
	C287.4,419.1,283.7,422.8,279.2,422.8z"/>
<path class="st1" d="M143.7,445.3L143.7,445.3c-4.6,0-8.3-3.7-8.3-8.3l0,0c0-4.6,3.7-8.3,8.3-8.3h0c4.6,0,8.3,3.7,8.3,8.3l0,0
	C152,441.6,148.3,445.3,143.7,445.3z"/>
<path class="st1" d="M166.3,445.3L166.3,445.3c-4.6,0-8.3-3.7-8.3-8.3l0,0c0-4.6,3.7-8.3,8.3-8.3h0c4.6,0,8.3,3.7,8.3,8.3l0,0
	C174.6,441.6,170.9,445.3,166.3,445.3z"/>
<path class="st1" d="M188.9,445.3L188.9,445.3c-4.6,0-8.3-3.7-8.3-8.3l0,0c0-4.6,3.7-8.3,8.3-8.3h0c4.6,0,8.3,3.7,8.3,8.3l0,0
	C197.2,441.6,193.4,445.3,188.9,445.3z"/>
<path class="st1" d="M211.4,445.3L211.4,445.3c-4.6,0-8.3-3.7-8.3-8.3l0,0c0-4.6,3.7-8.3,8.3-8.3h0c4.6,0,8.3,3.7,8.3,8.3l0,0
	C219.7,441.6,216,445.3,211.4,445.3z"/>
<path class="st1" d="M234,445.3L234,445.3c-4.6,0-8.3-3.7-8.3-8.3l0,0c0-4.6,3.7-8.3,8.3-8.3h0c4.6,0,8.3,3.7,8.3,8.3l0,0
	C242.3,441.6,238.6,445.3,234,445.3z"/>
<path class="st1" d="M256.6,445.3L256.6,445.3c-4.6,0-8.3-3.7-8.3-8.3l0,0c0-4.6,3.7-8.3,8.3-8.3l0,0c4.6,0,8.3,3.7,8.3,8.3l0,0
	C264.9,441.6,261.1,445.3,256.6,445.3z"/>
<path class="st1" d="M279.2,445.3L279.2,445.3c-4.6,0-8.3-3.7-8.3-8.3l0,0c0-4.6,3.7-8.3,8.3-8.3l0,0c4.6,0,8.3,3.7,8.3,8.3l0,0
	C287.4,441.6,283.7,445.3,279.2,445.3z"/>
<path class="st1" d="M301.7,445.3L301.7,445.3c-4.6,0-8.3-3.7-8.3-8.3l0,0c0-4.6,3.7-8.3,8.3-8.3h0c4.6,0,8.3,3.7,8.3,8.3l0,0
	C310,441.6,306.3,445.3,301.7,445.3z"/>
<path class="st1" d="M324.3,445.3L324.3,445.3c-4.6,0-8.3-3.7-8.3-8.3l0,0c0-4.6,3.7-8.3,8.3-8.3h0c4.6,0,8.3,3.7,8.3,8.3l0,0
	C332.6,441.6,328.9,445.3,324.3,445.3z"/>
<path class="st1" d="M346.9,445.3L346.9,445.3c-4.6,0-8.3-3.7-8.3-8.3l0,0c0-4.6,3.7-8.3,8.3-8.3h0c4.6,0,8.3,3.7,8.3,8.3l0,0
	C355.1,441.6,351.4,445.3,346.9,445.3z"/>
<path class="st1" d="M279.2,468L279.2,468c-4.6,0-8.3-3.7-8.3-8.3v0c0-4.6,3.7-8.3,8.3-8.3h0c4.6,0,8.3,3.7,8.3,8.3v0
	C287.5,464.3,283.7,468,279.2,468z"/>
<path class="st1" d="M301.7,468L301.7,468c-4.6,0-8.3-3.7-8.3-8.3v0c0-4.6,3.7-8.3,8.3-8.3l0,0c4.6,0,8.3,3.7,8.3,8.3v0
	C310,464.3,306.3,468,301.7,468z"/>
<path class="st1" d="M324.3,468L324.3,468c-4.6,0-8.3-3.7-8.3-8.3v0c0-4.6,3.7-8.3,8.3-8.3l0,0c4.6,0,8.3,3.7,8.3,8.3v0
	C332.6,464.3,328.9,468,324.3,468z"/>
<path class="st1" d="M279.2,490.6L279.2,490.6c-4.6,0-8.3-3.7-8.3-8.3v0c0-4.6,3.7-8.3,8.3-8.3h0c4.6,0,8.3,3.7,8.3,8.3v0
	C287.5,486.8,283.7,490.6,279.2,490.6z"/>
<path class="st1" d="M301.7,490.6L301.7,490.6c-4.6,0-8.3-3.7-8.3-8.3v0c0-4.6,3.7-8.3,8.3-8.3l0,0c4.6,0,8.3,3.7,8.3,8.3v0
	C310,486.8,306.3,490.6,301.7,490.6z"/>
<path class="st1" d="M324.3,490.6L324.3,490.6c-4.6,0-8.3-3.7-8.3-8.3v0c0-4.6,3.7-8.3,8.3-8.3l0,0c4.6,0,8.3,3.7,8.3,8.3v0
	C332.6,486.8,328.9,490.6,324.3,490.6z"/>
<path class="st1" d="M279.2,513.2L279.2,513.2c-4.6,0-8.3-3.7-8.3-8.3v0c0-4.6,3.7-8.3,8.3-8.3h0c4.6,0,8.3,3.7,8.3,8.3v0
	C287.5,509.5,283.7,513.2,279.2,513.2z"/>
<path class="st1" d="M301.7,513.2L301.7,513.2c-4.6,0-8.3-3.7-8.3-8.3v0c0-4.6,3.7-8.3,8.3-8.3l0,0c4.6,0,8.3,3.7,8.3,8.3v0
	C310,509.5,306.3,513.2,301.7,513.2z"/>
<path class="st1" d="M324.3,513.2L324.3,513.2c-4.6,0-8.3-3.7-8.3-8.3v0c0-4.6,3.7-8.3,8.3-8.3l0,0c4.6,0,8.3,3.7,8.3,8.3v0
	C332.6,509.5,328.9,513.2,324.3,513.2z"/>
<path class="st1" d="M279.2,535.7L279.2,535.7c-4.6,0-8.3-3.7-8.3-8.3l0,0c0-4.6,3.7-8.3,8.3-8.3h0c4.6,0,8.3,3.7,8.3,8.3l0,0
	C287.5,532,283.7,535.7,279.2,535.7z"/>
<path class="st1" d="M301.7,535.7L301.7,535.7c-4.6,0-8.3-3.7-8.3-8.3l0,0c0-4.6,3.7-8.3,8.3-8.3l0,0c4.6,0,8.3,3.7,8.3,8.3l0,0
	C310,532,306.3,535.7,301.7,535.7z"/>
<path class="st1" d="M324.3,535.7L324.3,535.7c-4.6,0-8.3-3.7-8.3-8.3l0,0c0-4.6,3.7-8.3,8.3-8.3l0,0c4.6,0,8.3,3.7,8.3,8.3l0,0
	C332.6,532,328.9,535.7,324.3,535.7z"/>
<path class="st1" d="M279.2,558.4L279.2,558.4c-4.6,0-8.3-3.7-8.3-8.3l0,0c0-4.6,3.7-8.3,8.3-8.3h0c4.6,0,8.3,3.7,8.3,8.3l0,0
	C287.5,554.6,283.7,558.4,279.2,558.4z"/>
<path class="st1" d="M301.7,558.4L301.7,558.4c-4.6,0-8.3-3.7-8.3-8.3l0,0c0-4.6,3.7-8.3,8.3-8.3l0,0c4.6,0,8.3,3.7,8.3,8.3l0,0
	C310,554.6,306.3,558.4,301.7,558.4z"/>
<path class="st1" d="M324.3,558.4L324.3,558.4c-4.6,0-8.3-3.7-8.3-8.3l0,0c0-4.6,3.7-8.3,8.3-8.3l0,0c4.6,0,8.3,3.7,8.3,8.3l0,0
	C332.6,554.6,328.9,558.4,324.3,558.4z"/>
<path class="st1" d="M279.2,580.9L279.2,580.9c-4.6,0-8.3-3.7-8.3-8.3l0,0c0-4.6,3.7-8.3,8.3-8.3h0c4.6,0,8.3,3.7,8.3,8.3l0,0
	C287.5,577.2,283.7,580.9,279.2,580.9z"/>
<path class="st1" d="M301.7,580.9L301.7,580.9c-4.6,0-8.3-3.7-8.3-8.3l0,0c0-4.6,3.7-8.3,8.3-8.3l0,0c4.6,0,8.3,3.7,8.3,8.3l0,0
	C310,577.2,306.3,580.9,301.7,580.9z"/>
<path class="st1" d="M324.3,580.9L324.3,580.9c-4.6,0-8.3-3.7-8.3-8.3l0,0c0-4.6,3.7-8.3,8.3-8.3l0,0c4.6,0,8.3,3.7,8.3,8.3l0,0
	C332.6,577.2,328.9,580.9,324.3,580.9z"/>
<path class="st1" d="M279.2,603.6L279.2,603.6c-4.6,0-8.3-3.7-8.3-8.3v0c0-4.6,3.7-8.3,8.3-8.3h0c4.6,0,8.3,3.7,8.3,8.3v0
	C287.5,599.8,283.7,603.6,279.2,603.6z"/>
<path class="st1" d="M301.7,603.6L301.7,603.6c-4.6,0-8.3-3.7-8.3-8.3v0c0-4.6,3.7-8.3,8.3-8.3l0,0c4.6,0,8.3,3.7,8.3,8.3v0
	C310,599.8,306.3,603.6,301.7,603.6z"/>
<path class="st1" d="M324.3,603.6L324.3,603.6c-4.6,0-8.3-3.7-8.3-8.3v0c0-4.6,3.7-8.3,8.3-8.3l0,0c4.6,0,8.3,3.7,8.3,8.3v0
	C332.6,599.8,328.9,603.6,324.3,603.6z"/>
<path class="st1" d="M30.9,129.2L30.9,129.2c-4.6,0-8.3-3.7-8.3-8.3v0c0-4.6,3.7-8.3,8.3-8.3h0c4.6,0,8.3,3.7,8.3,8.3v0
	C39.2,125.5,35.4,129.2,30.9,129.2z"/>
<path class="st1" d="M53.5,129.2L53.5,129.2c-4.6,0-8.3-3.7-8.3-8.3v0c0-4.6,3.7-8.3,8.3-8.3h0c4.6,0,8.3,3.7,8.3,8.3v0
	C61.7,125.5,58,129.2,53.5,129.2z"/>
<path class="st1" d="M76,129.2L76,129.2c-4.6,0-8.3-3.7-8.3-8.3v0c0-4.6,3.7-8.3,8.3-8.3h0c4.6,0,8.3,3.7,8.3,8.3v0
	C84.3,125.5,80.6,129.2,76,129.2z"/>
<path class="st1" d="M98.6,129.2L98.6,129.2c-4.6,0-8.3-3.7-8.3-8.3v0c0-4.6,3.7-8.3,8.3-8.3h0c4.6,0,8.3,3.7,8.3,8.3v0
	C106.9,125.5,103.1,129.2,98.6,129.2z"/>
<path class="st1" d="M121.2,129.2L121.2,129.2c-4.6,0-8.3-3.7-8.3-8.3v0c0-4.6,3.7-8.3,8.3-8.3h0c4.6,0,8.3,3.7,8.3,8.3v0
	C129.4,125.5,125.7,129.2,121.2,129.2z"/>
<path class="st1" d="M143.7,129.2L143.7,129.2c-4.6,0-8.3-3.7-8.3-8.3v0c0-4.6,3.7-8.3,8.3-8.3h0c4.6,0,8.3,3.7,8.3,8.3v0
	C152,125.5,148.3,129.2,143.7,129.2z"/>
<path class="st1" d="M166.3,129.2L166.3,129.2c-4.6,0-8.3-3.7-8.3-8.3v0c0-4.6,3.7-8.3,8.3-8.3h0c4.6,0,8.3,3.7,8.3,8.3v0
	C174.6,125.5,170.9,129.2,166.3,129.2z"/>
<path class="st1" d="M188.9,129.2L188.9,129.2c-4.6,0-8.3-3.7-8.3-8.3v0c0-4.6,3.7-8.3,8.3-8.3h0c4.6,0,8.3,3.7,8.3,8.3v0
	C197.2,125.5,193.4,129.2,188.9,129.2z"/>
<path class="st1" d="M211.4,129.2L211.4,129.2c-4.6,0-8.3-3.7-8.3-8.3v0c0-4.6,3.7-8.3,8.3-8.3h0c4.6,0,8.3,3.7,8.3,8.3v0
	C219.7,125.5,216,129.2,211.4,129.2z"/>
<path class="st1" d="M234,129.2L234,129.2c-4.6,0-8.3-3.7-8.3-8.3v0c0-4.6,3.7-8.3,8.3-8.3h0c4.6,0,8.3,3.7,8.3,8.3v0
	C242.3,125.5,238.6,129.2,234,129.2z"/>
<path class="st1" d="M256.6,129.2L256.6,129.2c-4.6,0-8.3-3.7-8.3-8.3v0c0-4.6,3.7-8.3,8.3-8.3l0,0c4.6,0,8.3,3.7,8.3,8.3v0
	C264.9,125.5,261.1,129.2,256.6,129.2z"/>
<path class="st1" d="M279.2,129.2L279.2,129.2c-4.6,0-8.3-3.7-8.3-8.3v0c0-4.6,3.7-8.3,8.3-8.3l0,0c4.6,0,8.3,3.7,8.3,8.3v0
	C287.4,125.5,283.7,129.2,279.2,129.2z"/>
<path class="st1" d="M301.7,129.2L301.7,129.2c-4.6,0-8.3-3.7-8.3-8.3v0c0-4.6,3.7-8.3,8.3-8.3h0c4.6,0,8.3,3.7,8.3,8.3v0
	C310,125.5,306.3,129.2,301.7,129.2z"/>
<path class="st1" d="M324.3,129.2L324.3,129.2c-4.6,0-8.3-3.7-8.3-8.3v0c0-4.6,3.7-8.3,8.3-8.3h0c4.6,0,8.3,3.7,8.3,8.3v0
	C332.6,125.5,328.9,129.2,324.3,129.2z"/>
<path class="st1" d="M346.9,129.2L346.9,129.2c-4.6,0-8.3-3.7-8.3-8.3v0c0-4.6,3.7-8.3,8.3-8.3h0c4.6,0,8.3,3.7,8.3,8.3v0
	C355.1,125.5,351.4,129.2,346.9,129.2z"/>
<path class="st1" d="M53.5,174.4L53.5,174.4c-4.6,0-8.3-3.7-8.3-8.3v0c0-4.6,3.7-8.3,8.3-8.3h0c4.6,0,8.3,3.7,8.3,8.3v0
	C61.8,170.6,58,174.4,53.5,174.4z"/>
<path class="st1" d="M76,174.4L76,174.4c-4.6,0-8.3-3.7-8.3-8.3v0c0-4.6,3.7-8.3,8.3-8.3h0c4.6,0,8.3,3.7,8.3,8.3v0
	C84.3,170.6,80.6,174.4,76,174.4z"/>
<path class="st1" d="M98.6,174.4L98.6,174.4c-4.6,0-8.3-3.7-8.3-8.3v0c0-4.6,3.7-8.3,8.3-8.3h0c4.6,0,8.3,3.7,8.3,8.3v0
	C106.9,170.6,103.2,174.4,98.6,174.4z"/>
<path class="st1" d="M121.2,174.4L121.2,174.4c-4.6,0-8.3-3.7-8.3-8.3v0c0-4.6,3.7-8.3,8.3-8.3h0c4.6,0,8.3,3.7,8.3,8.3v0
	C129.5,170.6,125.7,174.4,121.2,174.4z"/>
<path class="st1" d="M143.8,174.4L143.8,174.4c-4.6,0-8.3-3.7-8.3-8.3v0c0-4.6,3.7-8.3,8.3-8.3h0c4.6,0,8.3,3.7,8.3,8.3v0
	C152,170.6,148.3,174.4,143.8,174.4z"/>
<path class="st1" d="M166.3,174.4L166.3,174.4c-4.6,0-8.3-3.7-8.3-8.3v0c0-4.6,3.7-8.3,8.3-8.3h0c4.6,0,8.3,3.7,8.3,8.3v0
	C174.6,170.6,170.9,174.4,166.3,174.4z"/>
<path class="st1" d="M188.9,174.4L188.9,174.4c-4.6,0-8.3-3.7-8.3-8.3v0c0-4.6,3.7-8.3,8.3-8.3h0c4.6,0,8.3,3.7,8.3,8.3v0
	C197.2,170.6,193.4,174.4,188.9,174.4z"/>
<path class="st1" d="M211.5,174.4L211.5,174.4c-4.6,0-8.3-3.7-8.3-8.3v0c0-4.6,3.7-8.3,8.3-8.3h0c4.6,0,8.3,3.7,8.3,8.3v0
	C219.7,170.6,216,174.4,211.5,174.4z"/>
<path class="st1" d="M234,174.4L234,174.4c-4.6,0-8.3-3.7-8.3-8.3v0c0-4.6,3.7-8.3,8.3-8.3h0c4.6,0,8.3,3.7,8.3,8.3v0
	C242.3,170.6,238.6,174.4,234,174.4z"/>
<path class="st1" d="M256.6,174.4L256.6,174.4c-4.6,0-8.3-3.7-8.3-8.3v0c0-4.6,3.7-8.3,8.3-8.3l0,0c4.6,0,8.3,3.7,8.3,8.3v0
	C264.9,170.6,261.2,174.4,256.6,174.4z"/>
<path class="st1" d="M53.4,219.5L53.4,219.5c-4.6,0-8.3-3.7-8.3-8.3v0c0-4.6,3.7-8.3,8.3-8.3h0c4.6,0,8.3,3.7,8.3,8.3v0
	C61.7,215.8,58,219.5,53.4,219.5z"/>
<path class="st1" d="M76,219.5L76,219.5c-4.6,0-8.3-3.7-8.3-8.3v0c0-4.6,3.7-8.3,8.3-8.3h0c4.6,0,8.3,3.7,8.3,8.3v0
	C84.3,215.8,80.6,219.5,76,219.5z"/>
<path class="st1" d="M98.6,219.5L98.6,219.5c-4.6,0-8.3-3.7-8.3-8.3v0c0-4.6,3.7-8.3,8.3-8.3h0c4.6,0,8.3,3.7,8.3,8.3v0
	C106.9,215.8,103.1,219.5,98.6,219.5z"/>
<path class="st1" d="M121.2,219.5L121.2,219.5c-4.6,0-8.3-3.7-8.3-8.3v0c0-4.6,3.7-8.3,8.3-8.3h0c4.6,0,8.3,3.7,8.3,8.3v0
	C129.4,215.8,125.7,219.5,121.2,219.5z"/>
<path class="st1" d="M143.7,219.5L143.7,219.5c-4.6,0-8.3-3.7-8.3-8.3v0c0-4.6,3.7-8.3,8.3-8.3h0c4.6,0,8.3,3.7,8.3,8.3v0
	C152,215.8,148.3,219.5,143.7,219.5z"/>
<path class="st1" d="M166.3,219.5L166.3,219.5c-4.6,0-8.3-3.7-8.3-8.3v0c0-4.6,3.7-8.3,8.3-8.3h0c4.6,0,8.3,3.7,8.3,8.3v0
	C174.6,215.8,170.9,219.5,166.3,219.5z"/>
<path class="st1" d="M188.9,219.5L188.9,219.5c-4.6,0-8.3-3.7-8.3-8.3v0c0-4.6,3.7-8.3,8.3-8.3h0c4.6,0,8.3,3.7,8.3,8.3v0
	C197.2,215.8,193.4,219.5,188.9,219.5z"/>
<path class="st1" d="M211.4,219.5L211.4,219.5c-4.6,0-8.3-3.7-8.3-8.3v0c0-4.6,3.7-8.3,8.3-8.3h0c4.6,0,8.3,3.7,8.3,8.3v0
	C219.7,215.8,216,219.5,211.4,219.5z"/>
<path class="st1" d="M234,219.5L234,219.5c-4.6,0-8.3-3.7-8.3-8.3v0c0-4.6,3.7-8.3,8.3-8.3h0c4.6,0,8.3,3.7,8.3,8.3v0
	C242.3,215.8,238.6,219.5,234,219.5z"/>
<path class="st1" d="M256.6,219.5L256.6,219.5c-4.6,0-8.3-3.7-8.3-8.3v0c0-4.6,3.7-8.3,8.3-8.3h0c4.6,0,8.3,3.7,8.3,8.3v0
	C264.9,215.8,261.1,219.5,256.6,219.5z"/>
<path class="st1" d="M53.4,196.9L53.4,196.9c-4.6,0-8.3-3.7-8.3-8.3v0c0-4.6,3.7-8.3,8.3-8.3h0c4.6,0,8.3,3.7,8.3,8.3v0
	C61.7,193.2,58,196.9,53.4,196.9z"/>
<path class="st1" d="M76,196.9L76,196.9c-4.6,0-8.3-3.7-8.3-8.3v0c0-4.6,3.7-8.3,8.3-8.3h0c4.6,0,8.3,3.7,8.3,8.3v0
	C84.3,193.2,80.6,196.9,76,196.9z"/>
<path class="st1" d="M98.6,196.9L98.6,196.9c-4.6,0-8.3-3.7-8.3-8.3v0c0-4.6,3.7-8.3,8.3-8.3h0c4.6,0,8.3,3.7,8.3,8.3v0
	C106.9,193.2,103.1,196.9,98.6,196.9z"/>
<path class="st1" d="M121.2,196.9L121.2,196.9c-4.6,0-8.3-3.7-8.3-8.3v0c0-4.6,3.7-8.3,8.3-8.3h0c4.6,0,8.3,3.7,8.3,8.3v0
	C129.4,193.2,125.7,196.9,121.2,196.9z"/>
<path class="st1" d="M143.7,196.9L143.7,196.9c-4.6,0-8.3-3.7-8.3-8.3v0c0-4.6,3.7-8.3,8.3-8.3h0c4.6,0,8.3,3.7,8.3,8.3v0
	C152,193.2,148.3,196.9,143.7,196.9z"/>
<path class="st1" d="M166.3,196.9L166.3,196.9c-4.6,0-8.3-3.7-8.3-8.3v0c0-4.6,3.7-8.3,8.3-8.3h0c4.6,0,8.3,3.7,8.3,8.3v0
	C174.6,193.2,170.9,196.9,166.3,196.9z"/>
<path class="st1" d="M188.9,196.9L188.9,196.9c-4.6,0-8.3-3.7-8.3-8.3v0c0-4.6,3.7-8.3,8.3-8.3h0c4.6,0,8.3,3.7,8.3,8.3v0
	C197.2,193.2,193.4,196.9,188.9,196.9z"/>
<path class="st1" d="M211.4,196.9L211.4,196.9c-4.6,0-8.3-3.7-8.3-8.3v0c0-4.6,3.7-8.3,8.3-8.3h0c4.6,0,8.3,3.7,8.3,8.3v0
	C219.7,193.2,216,196.9,211.4,196.9z"/>
<path class="st1" d="M234,196.9L234,196.9c-4.6,0-8.3-3.7-8.3-8.3v0c0-4.6,3.7-8.3,8.3-8.3h0c4.6,0,8.3,3.7,8.3,8.3v0
	C242.3,193.2,238.6,196.9,234,196.9z"/>
<path class="st1" d="M256.6,196.9L256.6,196.9c-4.6,0-8.3-3.7-8.3-8.3v0c0-4.6,3.7-8.3,8.3-8.3h0c4.6,0,8.3,3.7,8.3,8.3v0
	C264.9,193.2,261.1,196.9,256.6,196.9z"/>
<path class="st1" d="M53.5,242.1L53.5,242.1c-4.6,0-8.3-3.7-8.3-8.3v0c0-4.6,3.7-8.3,8.3-8.3h0c4.6,0,8.3,3.7,8.3,8.3v0
	C61.8,238.4,58,242.1,53.5,242.1z"/>
<path class="st1" d="M76,242.1L76,242.1c-4.6,0-8.3-3.7-8.3-8.3v0c0-4.6,3.7-8.3,8.3-8.3h0c4.6,0,8.3,3.7,8.3,8.3v0
	C84.3,238.4,80.6,242.1,76,242.1z"/>
<path class="st1" d="M98.6,242.1L98.6,242.1c-4.6,0-8.3-3.7-8.3-8.3v0c0-4.6,3.7-8.3,8.3-8.3h0c4.6,0,8.3,3.7,8.3,8.3v0
	C106.9,238.4,103.2,242.1,98.6,242.1z"/>
<path class="st1" d="M121.2,242.1L121.2,242.1c-4.6,0-8.3-3.7-8.3-8.3v0c0-4.6,3.7-8.3,8.3-8.3h0c4.6,0,8.3,3.7,8.3,8.3v0
	C129.5,238.4,125.7,242.1,121.2,242.1z"/>
<path class="st1" d="M143.8,242.1L143.8,242.1c-4.6,0-8.3-3.7-8.3-8.3v0c0-4.6,3.7-8.3,8.3-8.3h0c4.6,0,8.3,3.7,8.3,8.3v0
	C152,238.4,148.3,242.1,143.8,242.1z"/>
<path class="st1" d="M166.3,242.1L166.3,242.1c-4.6,0-8.3-3.7-8.3-8.3v0c0-4.6,3.7-8.3,8.3-8.3h0c4.6,0,8.3,3.7,8.3,8.3v0
	C174.6,238.4,170.9,242.1,166.3,242.1z"/>
<path class="st1" d="M188.9,242.1L188.9,242.1c-4.6,0-8.3-3.7-8.3-8.3v0c0-4.6,3.7-8.3,8.3-8.3h0c4.6,0,8.3,3.7,8.3,8.3v0
	C197.2,238.4,193.4,242.1,188.9,242.1z"/>
<path class="st1" d="M211.5,242.1L211.5,242.1c-4.6,0-8.3-3.7-8.3-8.3v0c0-4.6,3.7-8.3,8.3-8.3h0c4.6,0,8.3,3.7,8.3,8.3v0
	C219.7,238.4,216,242.1,211.5,242.1z"/>
<path class="st1" d="M234,242.1L234,242.1c-4.6,0-8.3-3.7-8.3-8.3v0c0-4.6,3.7-8.3,8.3-8.3h0c4.6,0,8.3,3.7,8.3,8.3v0
	C242.3,238.4,238.6,242.1,234,242.1z"/>
<path class="st1" d="M256.6,242.1L256.6,242.1c-4.6,0-8.3-3.7-8.3-8.3v0c0-4.6,3.7-8.3,8.3-8.3l0,0c4.6,0,8.3,3.7,8.3,8.3v0
	C264.9,238.4,261.2,242.1,256.6,242.1z"/>
<path class="st1" d="M76,287.2L76,287.2c-4.6,0-8.3-3.7-8.3-8.3v0c0-4.6,3.7-8.3,8.3-8.3h0c4.6,0,8.3,3.7,8.3,8.3v0
	C84.3,283.5,80.6,287.2,76,287.2z"/>
<path class="st1" d="M98.6,287.2L98.6,287.2c-4.6,0-8.3-3.7-8.3-8.3v0c0-4.6,3.7-8.3,8.3-8.3h0c4.6,0,8.3,3.7,8.3,8.3v0
	C106.9,283.5,103.1,287.2,98.6,287.2z"/>
<path class="st1" d="M121.2,287.2L121.2,287.2c-4.6,0-8.3-3.7-8.3-8.3v0c0-4.6,3.7-8.3,8.3-8.3h0c4.6,0,8.3,3.7,8.3,8.3v0
	C129.4,283.5,125.7,287.2,121.2,287.2z"/>
<path class="st1" d="M143.7,287.2L143.7,287.2c-4.6,0-8.3-3.7-8.3-8.3v0c0-4.6,3.7-8.3,8.3-8.3h0c4.6,0,8.3,3.7,8.3,8.3v0
	C152,283.5,148.3,287.2,143.7,287.2z"/>
<path class="st1" d="M166.3,287.2L166.3,287.2c-4.6,0-8.3-3.7-8.3-8.3v0c0-4.6,3.7-8.3,8.3-8.3h0c4.6,0,8.3,3.7,8.3,8.3v0
	C174.6,283.5,170.9,287.2,166.3,287.2z"/>
<path class="st1" d="M188.9,287.2L188.9,287.2c-4.6,0-8.3-3.7-8.3-8.3v0c0-4.6,3.7-8.3,8.3-8.3h0c4.6,0,8.3,3.7,8.3,8.3v0
	C197.2,283.5,193.4,287.2,188.9,287.2z"/>
<path class="st1" d="M211.4,287.2L211.4,287.2c-4.6,0-8.3-3.7-8.3-8.3v0c0-4.6,3.7-8.3,8.3-8.3h0c4.6,0,8.3,3.7,8.3,8.3v0
	C219.7,283.5,216,287.2,211.4,287.2z"/>
<path class="st1" d="M234,287.2L234,287.2c-4.6,0-8.3-3.7-8.3-8.3v0c0-4.6,3.7-8.3,8.3-8.3h0c4.6,0,8.3,3.7,8.3,8.3v0
	C242.3,283.5,238.6,287.2,234,287.2z"/>
<path class="st1" d="M256.6,287.2L256.6,287.2c-4.6,0-8.3-3.7-8.3-8.3v0c0-4.6,3.7-8.3,8.3-8.3h0c4.6,0,8.3,3.7,8.3,8.3v0
	C264.9,283.5,261.1,287.2,256.6,287.2z"/>
<path class="st1" d="M76,264.7L76,264.7c-4.6,0-8.3-3.7-8.3-8.3l0,0c0-4.6,3.7-8.3,8.3-8.3h0c4.6,0,8.3,3.7,8.3,8.3l0,0
	C84.3,260.9,80.6,264.7,76,264.7z"/>
<path class="st1" d="M98.6,264.7L98.6,264.7c-4.6,0-8.3-3.7-8.3-8.3l0,0c0-4.6,3.7-8.3,8.3-8.3h0c4.6,0,8.3,3.7,8.3,8.3l0,0
	C106.9,260.9,103.1,264.7,98.6,264.7z"/>
<path class="st1" d="M121.2,264.7L121.2,264.7c-4.6,0-8.3-3.7-8.3-8.3l0,0c0-4.6,3.7-8.3,8.3-8.3h0c4.6,0,8.3,3.7,8.3,8.3l0,0
	C129.4,260.9,125.7,264.7,121.2,264.7z"/>
<path class="st1" d="M143.7,264.7L143.7,264.7c-4.6,0-8.3-3.7-8.3-8.3l0,0c0-4.6,3.7-8.3,8.3-8.3h0c4.6,0,8.3,3.7,8.3,8.3l0,0
	C152,260.9,148.3,264.7,143.7,264.7z"/>
<path class="st1" d="M166.3,264.7L166.3,264.7c-4.6,0-8.3-3.7-8.3-8.3l0,0c0-4.6,3.7-8.3,8.3-8.3h0c4.6,0,8.3,3.7,8.3,8.3l0,0
	C174.6,260.9,170.9,264.7,166.3,264.7z"/>
<path class="st1" d="M188.9,264.7L188.9,264.7c-4.6,0-8.3-3.7-8.3-8.3l0,0c0-4.6,3.7-8.3,8.3-8.3h0c4.6,0,8.3,3.7,8.3,8.3l0,0
	C197.2,260.9,193.4,264.7,188.9,264.7z"/>
<path class="st1" d="M211.4,264.7L211.4,264.7c-4.6,0-8.3-3.7-8.3-8.3l0,0c0-4.6,3.7-8.3,8.3-8.3h0c4.6,0,8.3,3.7,8.3,8.3l0,0
	C219.7,260.9,216,264.7,211.4,264.7z"/>
<path class="st1" d="M234,264.7L234,264.7c-4.6,0-8.3-3.7-8.3-8.3l0,0c0-4.6,3.7-8.3,8.3-8.3h0c4.6,0,8.3,3.7,8.3,8.3l0,0
	C242.3,260.9,238.6,264.7,234,264.7z"/>
<path class="st1" d="M256.6,264.7L256.6,264.7c-4.6,0-8.3-3.7-8.3-8.3l0,0c0-4.6,3.7-8.3,8.3-8.3h0c4.6,0,8.3,3.7,8.3,8.3l0,0
	C264.9,260.9,261.1,264.7,256.6,264.7z"/>
<path class="st1" d="M143.8,468L143.8,468c-4.6,0-8.3-3.7-8.3-8.3v0c0-4.6,3.7-8.3,8.3-8.3h0c4.6,0,8.3,3.7,8.3,8.3v0
	C152.1,464.3,148.3,468,143.8,468z"/>
<path class="st1" d="M166.3,468L166.3,468c-4.6,0-8.3-3.7-8.3-8.3v0c0-4.6,3.7-8.3,8.3-8.3h0c4.6,0,8.3,3.7,8.3,8.3v0
	C174.6,464.3,170.9,468,166.3,468z"/>
<path class="st1" d="M188.9,468L188.9,468c-4.6,0-8.3-3.7-8.3-8.3v0c0-4.6,3.7-8.3,8.3-8.3h0c4.6,0,8.3,3.7,8.3,8.3v0
	C197.2,464.3,193.5,468,188.9,468z"/>
<path class="st1" d="M211.5,468L211.5,468c-4.6,0-8.3-3.7-8.3-8.3v0c0-4.6,3.7-8.3,8.3-8.3h0c4.6,0,8.3,3.7,8.3,8.3v0
	C219.8,464.3,216,468,211.5,468z"/>
<path class="st1" d="M234.1,468L234.1,468c-4.6,0-8.3-3.7-8.3-8.3v0c0-4.6,3.7-8.3,8.3-8.3h0c4.6,0,8.3,3.7,8.3,8.3v0
	C242.3,464.3,238.6,468,234.1,468z"/>
<path class="st1" d="M256.6,468L256.6,468c-4.6,0-8.3-3.7-8.3-8.3v0c0-4.6,3.7-8.3,8.3-8.3l0,0c4.6,0,8.3,3.7,8.3,8.3v0
	C264.9,464.3,261.2,468,256.6,468z"/>
<path class="st1" d="M166.3,513.1L166.3,513.1c-4.6,0-8.3-3.7-8.3-8.3l0,0c0-4.6,3.7-8.3,8.3-8.3h0c4.6,0,8.3,3.7,8.3,8.3l0,0
	C174.6,509.4,170.9,513.1,166.3,513.1z"/>
<path class="st1" d="M188.9,513.1L188.9,513.1c-4.6,0-8.3-3.7-8.3-8.3l0,0c0-4.6,3.7-8.3,8.3-8.3h0c4.6,0,8.3,3.7,8.3,8.3l0,0
	C197.2,509.4,193.4,513.1,188.9,513.1z"/>
<path class="st1" d="M211.5,513.1L211.5,513.1c-4.6,0-8.3-3.7-8.3-8.3l0,0c0-4.6,3.7-8.3,8.3-8.3h0c4.6,0,8.3,3.7,8.3,8.3l0,0
	C219.7,509.4,216,513.1,211.5,513.1z"/>
<path class="st1" d="M234,513.1L234,513.1c-4.6,0-8.3-3.7-8.3-8.3l0,0c0-4.6,3.7-8.3,8.3-8.3h0c4.6,0,8.3,3.7,8.3,8.3l0,0
	C242.3,509.4,238.6,513.1,234,513.1z"/>
<path class="st1" d="M256.6,513.1L256.6,513.1c-4.6,0-8.3-3.7-8.3-8.3l0,0c0-4.6,3.7-8.3,8.3-8.3h0c4.6,0,8.3,3.7,8.3,8.3l0,0
	C264.9,509.4,261.2,513.1,256.6,513.1z"/>
<path class="st1" d="M166.3,490.6L166.3,490.6c-4.6,0-8.3-3.7-8.3-8.3v0c0-4.6,3.7-8.3,8.3-8.3h0c4.6,0,8.3,3.7,8.3,8.3v0
	C174.6,486.8,170.9,490.6,166.3,490.6z"/>
<path class="st1" d="M188.9,490.6L188.9,490.6c-4.6,0-8.3-3.7-8.3-8.3v0c0-4.6,3.7-8.3,8.3-8.3h0c4.6,0,8.3,3.7,8.3,8.3v0
	C197.2,486.8,193.4,490.6,188.9,490.6z"/>
<path class="st1" d="M211.5,490.6L211.5,490.6c-4.6,0-8.3-3.7-8.3-8.3v0c0-4.6,3.7-8.3,8.3-8.3h0c4.6,0,8.3,3.7,8.3,8.3v0
	C219.7,486.8,216,490.6,211.5,490.6z"/>
<path class="st1" d="M234,490.6L234,490.6c-4.6,0-8.3-3.7-8.3-8.3v0c0-4.6,3.7-8.3,8.3-8.3h0c4.6,0,8.3,3.7,8.3,8.3v0
	C242.3,486.8,238.6,490.6,234,490.6z"/>
<path class="st1" d="M256.6,490.6L256.6,490.6c-4.6,0-8.3-3.7-8.3-8.3v0c0-4.6,3.7-8.3,8.3-8.3h0c4.6,0,8.3,3.7,8.3,8.3v0
	C264.9,486.8,261.2,490.6,256.6,490.6z"/>
<path class="st1" d="M166.3,535.7L166.3,535.7c-4.6,0-8.3-3.7-8.3-8.3l0,0c0-4.6,3.7-8.3,8.3-8.3h0c4.6,0,8.3,3.7,8.3,8.3l0,0
	C174.6,532,170.9,535.7,166.3,535.7z"/>
<path class="st1" d="M188.9,535.7L188.9,535.7c-4.6,0-8.3-3.7-8.3-8.3l0,0c0-4.6,3.7-8.3,8.3-8.3h0c4.6,0,8.3,3.7,8.3,8.3l0,0
	C197.2,532,193.5,535.7,188.9,535.7z"/>
<path class="st1" d="M211.5,535.7L211.5,535.7c-4.6,0-8.3-3.7-8.3-8.3l0,0c0-4.6,3.7-8.3,8.3-8.3h0c4.6,0,8.3,3.7,8.3,8.3l0,0
	C219.8,532,216,535.7,211.5,535.7z"/>
<path class="st1" d="M234.1,535.7L234.1,535.7c-4.6,0-8.3-3.7-8.3-8.3l0,0c0-4.6,3.7-8.3,8.3-8.3h0c4.6,0,8.3,3.7,8.3,8.3l0,0
	C242.3,532,238.6,535.7,234.1,535.7z"/>
<path class="st1" d="M256.6,535.7L256.6,535.7c-4.6,0-8.3-3.7-8.3-8.3l0,0c0-4.6,3.7-8.3,8.3-8.3l0,0c4.6,0,8.3,3.7,8.3,8.3l0,0
	C264.9,532,261.2,535.7,256.6,535.7z"/>
<path class="st1" d="M188.9,580.9L188.9,580.9c-4.6,0-8.3-3.7-8.3-8.3v0c0-4.6,3.7-8.3,8.3-8.3h0c4.6,0,8.3,3.7,8.3,8.3v0
	C197.2,577.1,193.4,580.9,188.9,580.9z"/>
<path class="st1" d="M211.5,580.9L211.5,580.9c-4.6,0-8.3-3.7-8.3-8.3v0c0-4.6,3.7-8.3,8.3-8.3h0c4.6,0,8.3,3.7,8.3,8.3v0
	C219.7,577.1,216,580.9,211.5,580.9z"/>
<path class="st1" d="M234,580.9L234,580.9c-4.6,0-8.3-3.7-8.3-8.3v0c0-4.6,3.7-8.3,8.3-8.3h0c4.6,0,8.3,3.7,8.3,8.3v0
	C242.3,577.1,238.6,580.9,234,580.9z"/>
<path class="st1" d="M256.6,580.9L256.6,580.9c-4.6,0-8.3-3.7-8.3-8.3v0c0-4.6,3.7-8.3,8.3-8.3h0c4.6,0,8.3,3.7,8.3,8.3v0
	C264.9,577.1,261.2,580.9,256.6,580.9z"/>
<path class="st1" d="M188.9,558.3L188.9,558.3c-4.6,0-8.3-3.7-8.3-8.3v0c0-4.6,3.7-8.3,8.3-8.3h0c4.6,0,8.3,3.7,8.3,8.3v0
	C197.2,554.6,193.4,558.3,188.9,558.3z"/>
<path class="st1" d="M211.5,558.3L211.5,558.3c-4.6,0-8.3-3.7-8.3-8.3v0c0-4.6,3.7-8.3,8.3-8.3h0c4.6,0,8.3,3.7,8.3,8.3v0
	C219.7,554.6,216,558.3,211.5,558.3z"/>
<path class="st1" d="M234,558.3L234,558.3c-4.6,0-8.3-3.7-8.3-8.3v0c0-4.6,3.7-8.3,8.3-8.3h0c4.6,0,8.3,3.7,8.3,8.3v0
	C242.3,554.6,238.6,558.3,234,558.3z"/>
<path class="st1" d="M256.6,558.3L256.6,558.3c-4.6,0-8.3-3.7-8.3-8.3v0c0-4.6,3.7-8.3,8.3-8.3h0c4.6,0,8.3,3.7,8.3,8.3v0
	C264.9,554.6,261.2,558.3,256.6,558.3z"/>
<path class="st1" d="M8.3,61.5L8.3,61.5c-4.6,0-8.3-3.7-8.3-8.3v0C0,48.7,3.7,45,8.3,45h0c4.6,0,8.3,3.7,8.3,8.3v0
	C16.6,57.8,12.8,61.5,8.3,61.5z"/>
<path class="st1" d="M30.9,61.5L30.9,61.5c-4.6,0-8.3-3.7-8.3-8.3v0c0-4.6,3.7-8.3,8.3-8.3h0c4.6,0,8.3,3.7,8.3,8.3v0
	C39.1,57.8,35.4,61.5,30.9,61.5z"/>
<path class="st1" d="M53.4,61.5L53.4,61.5c-4.6,0-8.3-3.7-8.3-8.3v0c0-4.6,3.7-8.3,8.3-8.3h0c4.6,0,8.3,3.7,8.3,8.3v0
	C61.7,57.8,58,61.5,53.4,61.5z"/>
<path class="st1" d="M76,61.5L76,61.5c-4.6,0-8.3-3.7-8.3-8.3v0c0-4.6,3.7-8.3,8.3-8.3h0c4.6,0,8.3,3.7,8.3,8.3v0
	C84.3,57.8,80.6,61.5,76,61.5z"/>
<path class="st1" d="M98.6,61.5L98.6,61.5c-4.6,0-8.3-3.7-8.3-8.3v0c0-4.6,3.7-8.3,8.3-8.3h0c4.6,0,8.3,3.7,8.3,8.3v0
	C106.9,57.8,103.1,61.5,98.6,61.5z"/>
<path class="st1" d="M121.1,61.5L121.1,61.5c-4.6,0-8.3-3.7-8.3-8.3v0c0-4.6,3.7-8.3,8.3-8.3h0c4.6,0,8.3,3.7,8.3,8.3v0
	C129.4,57.8,125.7,61.5,121.1,61.5z"/>
<path class="st1" d="M143.7,61.5L143.7,61.5c-4.6,0-8.3-3.7-8.3-8.3v0c0-4.6,3.7-8.3,8.3-8.3h0c4.6,0,8.3,3.7,8.3,8.3v0
	C152,57.8,148.3,61.5,143.7,61.5z"/>
<path class="st1" d="M166.3,61.5L166.3,61.5c-4.6,0-8.3-3.7-8.3-8.3v0c0-4.6,3.7-8.3,8.3-8.3h0c4.6,0,8.3,3.7,8.3,8.3v0
	C174.6,57.8,170.8,61.5,166.3,61.5z"/>
<path class="st1" d="M188.8,61.5L188.8,61.5c-4.6,0-8.3-3.7-8.3-8.3v0c0-4.6,3.7-8.3,8.3-8.3h0c4.6,0,8.3,3.7,8.3,8.3v0
	C197.1,57.8,193.4,61.5,188.8,61.5z"/>
<path class="st1" d="M211.4,61.5L211.4,61.5c-4.6,0-8.3-3.7-8.3-8.3v0c0-4.6,3.7-8.3,8.3-8.3h0c4.6,0,8.3,3.7,8.3,8.3v0
	C219.7,57.8,216,61.5,211.4,61.5z"/>
<path class="st1" d="M234,61.5L234,61.5c-4.6,0-8.3-3.7-8.3-8.3v0c0-4.6,3.7-8.3,8.3-8.3h0c4.6,0,8.3,3.7,8.3,8.3v0
	C242.3,57.8,238.5,61.5,234,61.5z"/>
<path class="st1" d="M256.6,61.5L256.6,61.5c-4.6,0-8.3-3.7-8.3-8.3v0c0-4.6,3.7-8.3,8.3-8.3h0c4.6,0,8.3,3.7,8.3,8.3v0
	C264.8,57.8,261.1,61.5,256.6,61.5z"/>
<path class="st1" d="M279.1,61.5L279.1,61.5c-4.6,0-8.3-3.7-8.3-8.3v0c0-4.6,3.7-8.3,8.3-8.3h0c4.6,0,8.3,3.7,8.3,8.3v0
	C287.4,57.8,283.7,61.5,279.1,61.5z"/>
<path class="st1" d="M301.7,61.5L301.7,61.5c-4.6,0-8.3-3.7-8.3-8.3v0c0-4.6,3.7-8.3,8.3-8.3l0,0c4.6,0,8.3,3.7,8.3,8.3v0
	C310,57.8,306.3,61.5,301.7,61.5z"/>
<path class="st1" d="M324.3,61.5L324.3,61.5c-4.6,0-8.3-3.7-8.3-8.3v0c0-4.6,3.7-8.3,8.3-8.3l0,0c4.6,0,8.3,3.7,8.3,8.3v0
	C332.6,57.8,328.8,61.5,324.3,61.5z"/>
<path class="st1" d="M346.8,61.5L346.8,61.5c-4.6,0-8.3-3.7-8.3-8.3v0c0-4.6,3.7-8.3,8.3-8.3h0c4.6,0,8.3,3.7,8.3,8.3v0
	C355.1,57.8,351.4,61.5,346.8,61.5z"/>
<path class="st1" d="M188.9,603.4L188.9,603.4c-4.6,0-8.3-3.7-8.3-8.3l0,0c0-4.6,3.7-8.3,8.3-8.3h0c4.6,0,8.3,3.7,8.3,8.3l0,0
	C197.2,599.7,193.4,603.4,188.9,603.4z"/>
<path class="st1" d="M211.5,603.4L211.5,603.4c-4.6,0-8.3-3.7-8.3-8.3l0,0c0-4.6,3.7-8.3,8.3-8.3h0c4.6,0,8.3,3.7,8.3,8.3l0,0
	C219.7,599.7,216,603.4,211.5,603.4z"/>
<path class="st1" d="M234,603.4L234,603.4c-4.6,0-8.3-3.7-8.3-8.3l0,0c0-4.6,3.7-8.3,8.3-8.3h0c4.6,0,8.3,3.7,8.3,8.3l0,0
	C242.3,599.7,238.6,603.4,234,603.4z"/>
<path class="st1" d="M256.6,603.4L256.6,603.4c-4.6,0-8.3-3.7-8.3-8.3l0,0c0-4.6,3.7-8.3,8.3-8.3h0c4.6,0,8.3,3.7,8.3,8.3l0,0
	C264.9,599.7,261.2,603.4,256.6,603.4z"/>
<path class="st1" d="M76,309.8L76,309.8c-4.6,0-8.3-3.7-8.3-8.3v0c0-4.6,3.7-8.3,8.3-8.3h0c4.6,0,8.3,3.7,8.3,8.3v0
	C84.3,306.1,80.6,309.8,76,309.8z"/>
<path class="st1" d="M98.6,309.8L98.6,309.8c-4.6,0-8.3-3.7-8.3-8.3v0c0-4.6,3.7-8.3,8.3-8.3h0c4.6,0,8.3,3.7,8.3,8.3v0
	C106.9,306.1,103.1,309.8,98.6,309.8z"/>
<path class="st1" d="M121.2,309.8L121.2,309.8c-4.6,0-8.3-3.7-8.3-8.3v0c0-4.6,3.7-8.3,8.3-8.3h0c4.6,0,8.3,3.7,8.3,8.3v0
	C129.4,306.1,125.7,309.8,121.2,309.8z"/>
<path class="st1" d="M143.7,309.8L143.7,309.8c-4.6,0-8.3-3.7-8.3-8.3v0c0-4.6,3.7-8.3,8.3-8.3h0c4.6,0,8.3,3.7,8.3,8.3v0
	C152,306.1,148.3,309.8,143.7,309.8z"/>
<path class="st1" d="M166.3,309.8L166.3,309.8c-4.6,0-8.3-3.7-8.3-8.3v0c0-4.6,3.7-8.3,8.3-8.3h0c4.6,0,8.3,3.7,8.3,8.3v0
	C174.6,306.1,170.9,309.8,166.3,309.8z"/>
<path class="st1" d="M188.9,309.8L188.9,309.8c-4.6,0-8.3-3.7-8.3-8.3v0c0-4.6,3.7-8.3,8.3-8.3h0c4.6,0,8.3,3.7,8.3,8.3v0
	C197.2,306.1,193.4,309.8,188.9,309.8z"/>
<path class="st1" d="M211.4,309.8L211.4,309.8c-4.6,0-8.3-3.7-8.3-8.3v0c0-4.6,3.7-8.3,8.3-8.3h0c4.6,0,8.3,3.7,8.3,8.3v0
	C219.7,306.1,216,309.8,211.4,309.8z"/>
<path class="st1" d="M234,309.8L234,309.8c-4.6,0-8.3-3.7-8.3-8.3v0c0-4.6,3.7-8.3,8.3-8.3h0c4.6,0,8.3,3.7,8.3,8.3v0
	C242.3,306.1,238.6,309.8,234,309.8z"/>
<path class="st1" d="M256.6,309.8L256.6,309.8c-4.6,0-8.3-3.7-8.3-8.3v0c0-4.6,3.7-8.3,8.3-8.3h0c4.6,0,8.3,3.7,8.3,8.3v0
	C264.9,306.1,261.1,309.8,256.6,309.8z"/>
<path class="st1" d="M279.2,174.4L279.2,174.4c-4.6,0-8.3-3.7-8.3-8.3v0c0-4.6,3.7-8.3,8.3-8.3h0c4.6,0,8.3,3.7,8.3,8.3v0
	C287.5,170.6,283.8,174.4,279.2,174.4z"/>
<path class="st1" d="M279.2,219.5L279.2,219.5c-4.6,0-8.3-3.7-8.3-8.3v0c0-4.6,3.7-8.3,8.3-8.3l0,0c4.6,0,8.3,3.7,8.3,8.3v0
	C287.5,215.8,283.7,219.5,279.2,219.5z"/>
<path class="st1" d="M279.2,196.9L279.2,196.9c-4.6,0-8.3-3.7-8.3-8.3v0c0-4.6,3.7-8.3,8.3-8.3l0,0c4.6,0,8.3,3.7,8.3,8.3v0
	C287.5,193.2,283.7,196.9,279.2,196.9z"/>
<path class="st1" d="M279.2,242.1L279.2,242.1c-4.6,0-8.3-3.7-8.3-8.3v0c0-4.6,3.7-8.3,8.3-8.3h0c4.6,0,8.3,3.7,8.3,8.3v0
	C287.5,238.4,283.8,242.1,279.2,242.1z"/>
<path class="st1" d="M279.2,287.2L279.2,287.2c-4.6,0-8.3-3.7-8.3-8.3v0c0-4.6,3.7-8.3,8.3-8.3l0,0c4.6,0,8.3,3.7,8.3,8.3v0
	C287.5,283.5,283.7,287.2,279.2,287.2z"/>
<path class="st1" d="M279.2,264.7L279.2,264.7c-4.6,0-8.3-3.7-8.3-8.3l0,0c0-4.6,3.7-8.3,8.3-8.3l0,0c4.6,0,8.3,3.7,8.3,8.3l0,0
	C287.5,260.9,283.7,264.7,279.2,264.7z"/>
<path class="st1" d="M279.2,309.8L279.2,309.8c-4.6,0-8.3-3.7-8.3-8.3v0c0-4.6,3.7-8.3,8.3-8.3l0,0c4.6,0,8.3,3.7,8.3,8.3v0
	C287.5,306.1,283.7,309.8,279.2,309.8z"/>
<path class="st1" d="M301.7,174.4L301.7,174.4c-4.6,0-8.3-3.7-8.3-8.3v0c0-4.6,3.7-8.3,8.3-8.3l0,0c4.6,0,8.3,3.7,8.3,8.3v0
	C310,170.6,306.3,174.4,301.7,174.4z"/>
<path class="st1" d="M301.7,219.5L301.7,219.5c-4.6,0-8.3-3.7-8.3-8.3v0c0-4.6,3.7-8.3,8.3-8.3l0,0c4.6,0,8.3,3.7,8.3,8.3v0
	C310,215.8,306.3,219.5,301.7,219.5z"/>
<path class="st1" d="M301.7,196.9L301.7,196.9c-4.6,0-8.3-3.7-8.3-8.3v0c0-4.6,3.7-8.3,8.3-8.3l0,0c4.6,0,8.3,3.7,8.3,8.3v0
	C310,193.2,306.3,196.9,301.7,196.9z"/>
<path class="st1" d="M324.3,174.4L324.3,174.4c-4.6,0-8.3-3.7-8.3-8.3v0c0-4.6,3.7-8.3,8.3-8.3l0,0c4.6,0,8.3,3.7,8.3,8.3v0
	C332.6,170.6,328.9,174.4,324.3,174.4z"/>
<path class="st1" d="M324.3,219.5L324.3,219.5c-4.6,0-8.3-3.7-8.3-8.3v0c0-4.6,3.7-8.3,8.3-8.3l0,0c4.6,0,8.3,3.7,8.3,8.3v0
	C332.6,215.8,328.8,219.5,324.3,219.5z"/>
<path class="st1" d="M324.3,196.9L324.3,196.9c-4.6,0-8.3-3.7-8.3-8.3v0c0-4.6,3.7-8.3,8.3-8.3l0,0c4.6,0,8.3,3.7,8.3,8.3v0
	C332.6,193.2,328.8,196.9,324.3,196.9z"/>
<path class="st1" d="M347,174.4L347,174.4c-4.6,0-8.3-3.7-8.3-8.3v0c0-4.6,3.7-8.3,8.3-8.3l0,0c4.6,0,8.3,3.7,8.3,8.3v0
	C355.3,170.6,351.5,174.4,347,174.4z"/>
<path class="st1" d="M346.9,219.5L346.9,219.5c-4.6,0-8.3-3.7-8.3-8.3v0c0-4.6,3.7-8.3,8.3-8.3h0c4.6,0,8.3,3.7,8.3,8.3v0
	C355.2,215.8,351.5,219.5,346.9,219.5z"/>
<path class="st1" d="M346.9,196.9L346.9,196.9c-4.6,0-8.3-3.7-8.3-8.3v0c0-4.6,3.7-8.3,8.3-8.3h0c4.6,0,8.3,3.7,8.3,8.3v0
	C355.2,193.2,351.5,196.9,346.9,196.9z"/>
<path class="st1" d="M347,490.4L347,490.4c-4.6,0-8.3-3.7-8.3-8.3v0c0-4.6,3.7-8.3,8.3-8.3h0c4.6,0,8.3,3.7,8.3,8.3v0
	C355.2,486.7,351.5,490.4,347,490.4z"/>
<path class="st1" d="M347,467.8L347,467.8c-4.6,0-8.3-3.7-8.3-8.3v0c0-4.6,3.7-8.3,8.3-8.3h0c4.6,0,8.3,3.7,8.3,8.3v0
	C355.2,464.1,351.5,467.8,347,467.8z"/>
<path class="st1" d="M347,513L347,513c-4.6,0-8.3-3.7-8.3-8.3l0,0c0-4.6,3.7-8.3,8.3-8.3h0c4.6,0,8.3,3.7,8.3,8.3l0,0
	C355.2,509.3,351.5,513,347,513z"/>
<path class="st1" d="M347,558.3L347,558.3c-4.6,0-8.3-3.7-8.3-8.3v0c0-4.6,3.7-8.3,8.3-8.3l0,0c4.6,0,8.3,3.7,8.3,8.3v0
	C355.3,554.6,351.5,558.3,347,558.3z"/>
<path class="st1" d="M347,535.7L347,535.7c-4.6,0-8.3-3.7-8.3-8.3v0c0-4.6,3.7-8.3,8.3-8.3l0,0c4.6,0,8.3,3.7,8.3,8.3v0
	C355.3,532,351.5,535.7,347,535.7z"/>
<path class="st1" d="M347,580.9L347,580.9c-4.6,0-8.3-3.7-8.3-8.3v0c0-4.6,3.7-8.3,8.3-8.3l0,0c4.6,0,8.3,3.7,8.3,8.3v0
	C355.3,577.1,351.5,580.9,347,580.9z"/>
<path class="st1" d="M347,603.4L347,603.4c-4.6,0-8.3-3.7-8.3-8.3l0,0c0-4.6,3.7-8.3,8.3-8.3h0c4.6,0,8.3,3.7,8.3,8.3l0,0
	C355.2,599.7,351.5,603.4,347,603.4z"/>
<path class="st1" d="M279.2,626.1L279.2,626.1c-4.6,0-8.3-3.7-8.3-8.3l0,0c0-4.6,3.7-8.3,8.3-8.3h0c4.6,0,8.3,3.7,8.3,8.3l0,0
	C287.5,622.4,283.7,626.1,279.2,626.1z"/>
<path class="st1" d="M301.7,626.1L301.7,626.1c-4.6,0-8.3-3.7-8.3-8.3l0,0c0-4.6,3.7-8.3,8.3-8.3l0,0c4.6,0,8.3,3.7,8.3,8.3l0,0
	C310,622.4,306.3,626.1,301.7,626.1z"/>
<path class="st1" d="M324.3,626.1L324.3,626.1c-4.6,0-8.3-3.7-8.3-8.3l0,0c0-4.6,3.7-8.3,8.3-8.3l0,0c4.6,0,8.3,3.7,8.3,8.3l0,0
	C332.6,622.4,328.9,626.1,324.3,626.1z"/>
<path class="st1" d="M211.5,626.1L211.5,626.1c-4.6,0-8.3-3.7-8.3-8.3v0c0-4.6,3.7-8.3,8.3-8.3h0c4.6,0,8.3,3.7,8.3,8.3v0
	C219.8,622.3,216,626.1,211.5,626.1z"/>
<path class="st1" d="M234.1,626.1L234.1,626.1c-4.6,0-8.3-3.7-8.3-8.3v0c0-4.6,3.7-8.3,8.3-8.3h0c4.6,0,8.3,3.7,8.3,8.3v0
	C242.3,622.3,238.6,626.1,234.1,626.1z"/>
<path class="st1" d="M256.6,626.1L256.6,626.1c-4.6,0-8.3-3.7-8.3-8.3v0c0-4.6,3.7-8.3,8.3-8.3l0,0c4.6,0,8.3,3.7,8.3,8.3v0
	C264.9,622.3,261.2,626.1,256.6,626.1z"/>
<path class="st1" d="M347,626.1L347,626.1c-4.6,0-8.3-3.7-8.3-8.3l0,0c0-4.6,3.7-8.3,8.3-8.3l0,0c4.6,0,8.3,3.7,8.3,8.3l0,0
	C355.3,622.3,351.5,626.1,347,626.1z"/>
<g>
	<text transform="matrix(1 0 0 1 6.5726 10.5426)" class="st2 st3 st4">1</text>
	<text transform="matrix(1 0 0 1 28.6351 10.5426)" class="st2 st3 st4">2</text>
	<text transform="matrix(1 0 0 1 51.2093 10.5426)" class="st2 st3 st4">3</text>
	<text transform="matrix(1 0 0 1 73.724 10.5426)" class="st2 st3 st4">4</text>
	<text transform="matrix(1 0 0 1 96.3968 10.5426)" class="st2 st3 st4">5</text>
	<text transform="matrix(1 0 0 1 118.7191 10.5426)" class="st2 st3 st4">6</text>
	<text transform="matrix(1 0 0 1 141.7455 10.5426)" class="st2 st3 st4">7</text>
	<text transform="matrix(1 0 0 1 163.9359 10.5426)" class="st2 st3 st4">8</text>
	<text transform="matrix(1 0 0 1 186.429 10.5426)" class="st2 st3 st4">9</text>
	<text transform="matrix(1 0 0 1 207.0794 10.5426)" class="st2 st3 st4">10</text>
	<text transform="matrix(1 0 0 1 6.5736 100.648)" class="st2 st3 st4">1</text>
	<text transform="matrix(1 0 0 1 28.6351 100.648)" class="st2 st3 st4">2</text>
	<text transform="matrix(1 0 0 1 51.2093 100.648)" class="st2 st3 st4">3</text>
	<text transform="matrix(1 0 0 1 73.724 100.648)" class="st2 st3 st4">4</text>
	<text transform="matrix(1 0 0 1 96.3978 100.648)" class="st2 st3 st4">5</text>
	<text transform="matrix(1 0 0 1 118.7201 100.648)" class="st2 st3 st4">6</text>
	<text transform="matrix(1 0 0 1 141.7464 100.648)" class="st2 st3 st4">7</text>
	<text transform="matrix(1 0 0 1 163.9369 100.648)" class="st2 st3 st4">8</text>
	<text transform="matrix(1 0 0 1 186.431 100.648)" class="st2 st3 st4">9</text>
	<text transform="matrix(1 0 0 1 207.0804 100.648)" class="st2 st3 st4">10</text>
	<text transform="matrix(1 0 0 1 230.5628 100.648)" class="st2 st3 st4">11</text>
	<text transform="matrix(1 0 0 1 252.6253 100.648)" class="st2 st3 st4">12</text>
	<text transform="matrix(1 0 0 1 275.1986 100.648)" class="st2 st3 st4">13</text>
	<text transform="matrix(1 0 0 1 297.7122 100.648)" class="st2 st3 st4">14</text>
	<text transform="matrix(1 0 0 1 320.3871 100.648)" class="st2 st3 st4">15</text>
	<text transform="matrix(1 0 0 1 342.7093 100.648)" class="st2 st3 st4">16</text>
	<text transform="matrix(1 0 0 1 6.5736 78.0777)" class="st2 st3 st4">1</text>
	<text transform="matrix(1 0 0 1 28.6351 78.0777)" class="st2 st3 st4">2</text>
	<text transform="matrix(1 0 0 1 51.2093 78.0777)" class="st2 st3 st4">3</text>
	<text transform="matrix(1 0 0 1 73.724 78.0777)" class="st2 st3 st4">4</text>
	<text transform="matrix(1 0 0 1 96.3978 78.0777)" class="st2 st3 st4">5</text>
	<text transform="matrix(1 0 0 1 118.7201 78.0777)" class="st2 st3 st4">6</text>
	<text transform="matrix(1 0 0 1 141.7464 78.0777)" class="st2 st3 st4">7</text>
	<text transform="matrix(1 0 0 1 163.9369 78.0777)" class="st2 st3 st4">8</text>
	<text transform="matrix(1 0 0 1 186.431 78.0777)" class="st2 st3 st4">9</text>
	<text transform="matrix(1 0 0 1 207.0804 78.0777)" class="st2 st3 st4">10</text>
	<text transform="matrix(1 0 0 1 230.5628 78.0777)" class="st2 st3 st4">11</text>
	<text transform="matrix(1 0 0 1 252.6253 78.0777)" class="st2 st3 st4">12</text>
	<text transform="matrix(1 0 0 1 275.1986 78.0777)" class="st2 st3 st4">13</text>
	<text transform="matrix(1 0 0 1 297.7122 78.0777)" class="st2 st3 st4">14</text>
	<text transform="matrix(1 0 0 1 320.3871 78.0777)" class="st2 st3 st4">15</text>
	<text transform="matrix(1 0 0 1 342.7093 78.0777)" class="st2 st3 st4">16</text>
	<text transform="matrix(1 0 0 1 6.5736 54.8834)" class="st2 st3 st4">1</text>
	<text transform="matrix(1 0 0 1 28.6351 54.8834)" class="st2 st3 st4">2</text>
	<text transform="matrix(1 0 0 1 51.2093 54.8834)" class="st2 st3 st4">3</text>
	<text transform="matrix(1 0 0 1 73.724 54.8834)" class="st2 st3 st4">4</text>
	<text transform="matrix(1 0 0 1 96.3978 54.8834)" class="st2 st3 st4">5</text>
	<text transform="matrix(1 0 0 1 118.7201 54.8834)" class="st2 st3 st4">6</text>
	<text transform="matrix(1 0 0 1 141.7464 54.8834)" class="st2 st3 st4">7</text>
	<text transform="matrix(1 0 0 1 163.9369 54.8834)" class="st2 st3 st4">8</text>
	<text transform="matrix(1 0 0 1 186.431 54.8834)" class="st2 st3 st4">9</text>
	<text transform="matrix(1 0 0 1 207.0804 54.8834)" class="st2 st3 st4">10</text>
	<text transform="matrix(1 0 0 1 230.5628 54.8834)" class="st2 st3 st4">11</text>
	<text transform="matrix(1 0 0 1 252.6253 54.8834)" class="st2 st3 st4">12</text>
	<text transform="matrix(1 0 0 1 275.1986 54.8834)" class="st2 st3 st4">13</text>
	<text transform="matrix(1 0 0 1 297.7122 54.8834)" class="st2 st3 st4">14</text>
	<text transform="matrix(1 0 0 1 320.3871 54.8834)" class="st2 st3 st4">15</text>
	<text transform="matrix(1 0 0 1 342.7093 54.8834)" class="st2 st3 st4">16</text>
	<text transform="matrix(1 0 0 1 28.6014 145.7906)" class="st2 st3 st4">1</text>
	<text transform="matrix(1 0 0 1 50.6639 145.7906)" class="st2 st3 st4">2</text>
	<text transform="matrix(1 0 0 1 73.2381 145.7906)" class="st2 st3 st4">3</text>
	<text transform="matrix(1 0 0 1 95.7528 145.7906)" class="st2 st3 st4">4</text>
	<text transform="matrix(1 0 0 1 118.4256 145.7906)" class="st2 st3 st4">5</text>
	<text transform="matrix(1 0 0 1 140.7479 145.7906)" class="st2 st3 st4">6</text>
	<text transform="matrix(1 0 0 1 163.7743 145.7906)" class="st2 st3 st4">7</text>
	<text transform="matrix(1 0 0 1 185.9647 145.7906)" class="st2 st3 st4">8</text>
	<text transform="matrix(1 0 0 1 208.4579 145.7906)" class="st2 st3 st4">9</text>
	<text transform="matrix(1 0 0 1 229.1082 145.7906)" class="st2 st3 st4">10</text>
	<text transform="matrix(1 0 0 1 252.5907 145.7906)" class="st2 st3 st4">11</text>
	<text transform="matrix(1 0 0 1 274.6532 145.7906)" class="st2 st3 st4">12</text>
	<text transform="matrix(1 0 0 1 297.2274 145.7906)" class="st2 st3 st4">13</text>
	<text transform="matrix(1 0 0 1 319.7411 145.7906)" class="st2 st3 st4">14</text>
	<text transform="matrix(1 0 0 1 342.4149 145.7906)" class="st2 st3 st4">15</text>
	<text transform="matrix(1 0 0 1 96.9193 326.3902)" class="st2 st3 st4">1</text>
	<text transform="matrix(1 0 0 1 118.9818 326.3902)" class="st2 st3 st4">2</text>
	<text transform="matrix(1 0 0 1 141.556 326.3902)" class="st2 st3 st4">3</text>
	<text transform="matrix(1 0 0 1 164.0706 326.3902)" class="st2 st3 st4">4</text>
	<text transform="matrix(1 0 0 1 186.7435 326.3902)" class="st2 st3 st4">5</text>
	<text transform="matrix(1 0 0 1 209.0658 326.3902)" class="st2 st3 st4">6</text>
	<text transform="matrix(1 0 0 1 232.0921 326.3902)" class="st2 st3 st4">7</text>
	<text transform="matrix(1 0 0 1 254.2826 326.3902)" class="st2 st3 st4">8</text>
	<text transform="matrix(1 0 0 1 276.7757 326.3902)" class="st2 st3 st4">9</text>
	<text transform="matrix(1 0 0 1 96.9193 348.942)" class="st2 st3 st4">1</text>
	<text transform="matrix(1 0 0 1 118.9818 348.942)" class="st2 st3 st4">2</text>
	<text transform="matrix(1 0 0 1 141.556 348.942)" class="st2 st3 st4">3</text>
	<text transform="matrix(1 0 0 1 164.0706 348.942)" class="st2 st3 st4">4</text>
	<text transform="matrix(1 0 0 1 186.7435 348.942)" class="st2 st3 st4">5</text>
	<text transform="matrix(1 0 0 1 209.0658 348.942)" class="st2 st3 st4">6</text>
	<text transform="matrix(1 0 0 1 232.0921 348.942)" class="st2 st3 st4">7</text>
	<text transform="matrix(1 0 0 1 254.2826 348.942)" class="st2 st3 st4">8</text>
	<text transform="matrix(1 0 0 1 276.7757 348.942)" class="st2 st3 st4">9</text>
	<text transform="matrix(1 0 0 1 96.9193 371.5777)" class="st2 st3 st4">1</text>
	<text transform="matrix(1 0 0 1 118.9818 371.5777)" class="st2 st3 st4">2</text>
	<text transform="matrix(1 0 0 1 141.556 371.5777)" class="st2 st3 st4">3</text>
	<text transform="matrix(1 0 0 1 164.0706 371.5777)" class="st2 st3 st4">4</text>
	<text transform="matrix(1 0 0 1 186.7435 371.5777)" class="st2 st3 st4">5</text>
	<text transform="matrix(1 0 0 1 209.0658 371.5777)" class="st2 st3 st4">6</text>
	<text transform="matrix(1 0 0 1 232.0921 371.5777)" class="st2 st3 st4">7</text>
	<text transform="matrix(1 0 0 1 254.2826 371.5777)" class="st2 st3 st4">8</text>
	<text transform="matrix(1 0 0 1 276.7757 371.5777)" class="st2 st3 st4">9</text>
	<text transform="matrix(1 0 0 1 119.4896 394.1295)" class="st2 st3 st4">1</text>
	<text transform="matrix(1 0 0 1 141.5521 394.1295)" class="st2 st3 st4">2</text>
	<text transform="matrix(1 0 0 1 164.1263 394.1295)" class="st2 st3 st4">3</text>
	<text transform="matrix(1 0 0 1 186.641 394.1295)" class="st2 st3 st4">4</text>
	<text transform="matrix(1 0 0 1 209.3138 394.1295)" class="st2 st3 st4">5</text>
	<text transform="matrix(1 0 0 1 231.6361 394.1295)" class="st2 st3 st4">6</text>
	<text transform="matrix(1 0 0 1 254.6624 394.1295)" class="st2 st3 st4">7</text>
	<text transform="matrix(1 0 0 1 276.8529 394.1295)" class="st2 st3 st4">8</text>
	<text transform="matrix(1 0 0 1 119.4896 416.7623)" class="st2 st3 st4">1</text>
	<text transform="matrix(1 0 0 1 141.5521 416.7623)" class="st2 st3 st4">2</text>
	<text transform="matrix(1 0 0 1 164.1263 416.7623)" class="st2 st3 st4">3</text>
	<text transform="matrix(1 0 0 1 186.641 416.7623)" class="st2 st3 st4">4</text>
	<text transform="matrix(1 0 0 1 209.3138 416.7623)" class="st2 st3 st4">5</text>
	<text transform="matrix(1 0 0 1 231.6361 416.7623)" class="st2 st3 st4">6</text>
	<text transform="matrix(1 0 0 1 254.6624 416.7623)" class="st2 st3 st4">7</text>
	<text transform="matrix(1 0 0 1 276.8529 416.7623)" class="st2 st3 st4">8</text>
	<text transform="matrix(1 0 0 1 142.0204 439.315)" class="st2 st3 st4">1</text>
	<text transform="matrix(1 0 0 1 164.0829 439.315)" class="st2 st3 st4">2</text>
	<text transform="matrix(1 0 0 1 186.6571 439.315)" class="st2 st3 st4">3</text>
	<text transform="matrix(1 0 0 1 209.1717 439.315)" class="st2 st3 st4">4</text>
	<text transform="matrix(1 0 0 1 231.8446 439.315)" class="st2 st3 st4">5</text>
	<text transform="matrix(1 0 0 1 254.1668 439.315)" class="st2 st3 st4">6</text>
	<text transform="matrix(1 0 0 1 277.1932 439.315)" class="st2 st3 st4">7</text>
	<text transform="matrix(1 0 0 1 299.3836 439.315)" class="st2 st3 st4">8</text>
	<text transform="matrix(1 0 0 1 321.8768 439.315)" class="st2 st3 st4">9</text>
	<text transform="matrix(1 0 0 1 342.5272 439.315)" class="st2 st3 st4">10</text>
	<text transform="matrix(1 0 0 1 28.6014 123.2203)" class="st2 st3 st4">1</text>
	<text transform="matrix(1 0 0 1 50.6639 123.2203)" class="st2 st3 st4">2</text>
	<text transform="matrix(1 0 0 1 73.2381 123.2203)" class="st2 st3 st4">3</text>
	<text transform="matrix(1 0 0 1 95.7528 123.2203)" class="st2 st3 st4">4</text>
	<text transform="matrix(1 0 0 1 118.4256 123.2203)" class="st2 st3 st4">5</text>
	<text transform="matrix(1 0 0 1 140.7479 123.2203)" class="st2 st3 st4">6</text>
	<text transform="matrix(1 0 0 1 163.7743 123.2203)" class="st2 st3 st4">7</text>
	<text transform="matrix(1 0 0 1 185.9647 123.2203)" class="st2 st3 st4">8</text>
	<text transform="matrix(1 0 0 1 208.4579 123.2203)" class="st2 st3 st4">9</text>
	<text transform="matrix(1 0 0 1 229.1082 123.2203)" class="st2 st3 st4">10</text>
	<text transform="matrix(1 0 0 1 252.5907 123.2203)" class="st2 st3 st4">11</text>
	<text transform="matrix(1 0 0 1 274.6532 123.2203)" class="st2 st3 st4">12</text>
	<text transform="matrix(1 0 0 1 297.2274 123.2203)" class="st2 st3 st4">13</text>
	<text transform="matrix(1 0 0 1 319.7411 123.2203)" class="st2 st3 st4">14</text>
	<text transform="matrix(1 0 0 1 342.4149 123.2203)" class="st2 st3 st4">15</text>
	<text transform="matrix(1 0 0 1 51.3016 168.3482)" class="st2 st3 st4">1</text>
	<text transform="matrix(1 0 0 1 73.3641 168.3482)" class="st2 st3 st4">2</text>
	<text transform="matrix(1 0 0 1 95.9383 168.3482)" class="st2 st3 st4">3</text>
	<text transform="matrix(1 0 0 1 118.453 168.3482)" class="st2 st3 st4">4</text>
	<text transform="matrix(1 0 0 1 141.1268 168.3482)" class="st2 st3 st4">5</text>
	<text transform="matrix(1 0 0 1 163.4491 168.3482)" class="st2 st3 st4">6</text>
	<text transform="matrix(1 0 0 1 186.4754 168.3482)" class="st2 st3 st4">7</text>
	<text transform="matrix(1 0 0 1 208.6659 168.3482)" class="st2 st3 st4">8</text>
	<text transform="matrix(1 0 0 1 231.16 168.3482)" class="st2 st3 st4">9</text>
	<text transform="matrix(1 0 0 1 251.8104 168.3482)" class="st2 st3 st4">10</text>
	<text transform="matrix(1 0 0 1 275.2909 168.3482)" class="st2 st3 st4">11</text>
	<text transform="matrix(1 0 0 1 297.3534 168.3482)" class="st2 st3 st4">12</text>
	<text transform="matrix(1 0 0 1 319.9276 168.3482)" class="st2 st3 st4">13</text>
	<text transform="matrix(1 0 0 1 342.4413 168.3482)" class="st2 st3 st4">14</text>
	<text transform="matrix(1 0 0 1 51.3016 190.6988)" class="st2 st3 st4">1</text>
	<text transform="matrix(1 0 0 1 73.3641 190.6988)" class="st2 st3 st4">2</text>
	<text transform="matrix(1 0 0 1 95.9383 190.6988)" class="st2 st3 st4">3</text>
	<text transform="matrix(1 0 0 1 118.453 190.6988)" class="st2 st3 st4">4</text>
	<text transform="matrix(1 0 0 1 141.1268 190.6988)" class="st2 st3 st4">5</text>
	<text transform="matrix(1 0 0 1 163.4491 190.6988)" class="st2 st3 st4">6</text>
	<text transform="matrix(1 0 0 1 186.4754 190.6988)" class="st2 st3 st4">7</text>
	<text transform="matrix(1 0 0 1 208.6659 190.6988)" class="st2 st3 st4">8</text>
	<text transform="matrix(1 0 0 1 231.16 190.6988)" class="st2 st3 st4">9</text>
	<text transform="matrix(1 0 0 1 251.8104 190.6988)" class="st2 st3 st4">10</text>
	<text transform="matrix(1 0 0 1 275.2909 190.6988)" class="st2 st3 st4">11</text>
	<text transform="matrix(1 0 0 1 297.3534 190.6988)" class="st2 st3 st4">12</text>
	<text transform="matrix(1 0 0 1 319.9276 190.6988)" class="st2 st3 st4">13</text>
	<text transform="matrix(1 0 0 1 342.4413 190.6988)" class="st2 st3 st4">14</text>
	<text transform="matrix(1 0 0 1 51.3016 213.5328)" class="st2 st3 st4">1</text>
	<text transform="matrix(1 0 0 1 73.3641 213.5328)" class="st2 st3 st4">2</text>
	<text transform="matrix(1 0 0 1 95.9383 213.5328)" class="st2 st3 st4">3</text>
	<text transform="matrix(1 0 0 1 118.453 213.5328)" class="st2 st3 st4">4</text>
	<text transform="matrix(1 0 0 1 141.1268 213.5328)" class="st2 st3 st4">5</text>
	<text transform="matrix(1 0 0 1 163.4491 213.5328)" class="st2 st3 st4">6</text>
	<text transform="matrix(1 0 0 1 186.4754 213.5328)" class="st2 st3 st4">7</text>
	<text transform="matrix(1 0 0 1 208.6659 213.5328)" class="st2 st3 st4">8</text>
	<text transform="matrix(1 0 0 1 231.16 213.5328)" class="st2 st3 st4">9</text>
	<text transform="matrix(1 0 0 1 251.8104 213.5328)" class="st2 st3 st4">10</text>
	<text transform="matrix(1 0 0 1 275.2909 213.5328)" class="st2 st3 st4">11</text>
	<text transform="matrix(1 0 0 1 297.3534 213.5328)" class="st2 st3 st4">12</text>
	<text transform="matrix(1 0 0 1 319.9276 213.5328)" class="st2 st3 st4">13</text>
	<text transform="matrix(1 0 0 1 342.4413 213.5328)" class="st2 st3 st4">14</text>
	<text transform="matrix(1 0 0 1 51.2738 236.0631)" class="st2 st3 st4">1</text>
	<text transform="matrix(1 0 0 1 73.3363 236.0631)" class="st2 st3 st4">2</text>
	<text transform="matrix(1 0 0 1 95.9105 236.0631)" class="st2 st3 st4">3</text>
	<text transform="matrix(1 0 0 1 118.4251 236.0631)" class="st2 st3 st4">4</text>
	<text transform="matrix(1 0 0 1 141.099 236.0631)" class="st2 st3 st4">5</text>
	<text transform="matrix(1 0 0 1 163.4212 236.0631)" class="st2 st3 st4">6</text>
	<text transform="matrix(1 0 0 1 186.4476 236.0631)" class="st2 st3 st4">7</text>
	<text transform="matrix(1 0 0 1 208.638 236.0631)" class="st2 st3 st4">8</text>
	<text transform="matrix(1 0 0 1 231.1322 236.0631)" class="st2 st3 st4">9</text>
	<text transform="matrix(1 0 0 1 251.7826 236.0631)" class="st2 st3 st4">10</text>
	<text transform="matrix(1 0 0 1 275.263 236.0631)" class="st2 st3 st4">11</text>
	<text transform="matrix(1 0 0 1 73.9779 258.4136)" class="st2 st3 st4">1</text>
	<text transform="matrix(1 0 0 1 96.0404 258.4136)" class="st2 st3 st4">2</text>
	<text transform="matrix(1 0 0 1 118.6146 258.4136)" class="st2 st3 st4">3</text>
	<text transform="matrix(1 0 0 1 141.1292 258.4136)" class="st2 st3 st4">4</text>
	<text transform="matrix(1 0 0 1 163.8031 258.4136)" class="st2 st3 st4">5</text>
	<text transform="matrix(1 0 0 1 186.1253 258.4136)" class="st2 st3 st4">6</text>
	<text transform="matrix(1 0 0 1 209.1517 258.4136)" class="st2 st3 st4">7</text>
	<text transform="matrix(1 0 0 1 231.3421 258.4136)" class="st2 st3 st4">8</text>
	<text transform="matrix(1 0 0 1 253.8363 258.4136)" class="st2 st3 st4">9</text>
	<text transform="matrix(1 0 0 1 274.4867 258.4136)" class="st2 st3 st4">10</text>
	<text transform="matrix(1 0 0 1 73.9779 281.2476)" class="st2 st3 st4">1</text>
	<text transform="matrix(1 0 0 1 96.0404 281.2476)" class="st2 st3 st4">2</text>
	<text transform="matrix(1 0 0 1 118.6146 281.2476)" class="st2 st3 st4">3</text>
	<text transform="matrix(1 0 0 1 141.1292 281.2476)" class="st2 st3 st4">4</text>
	<text transform="matrix(1 0 0 1 163.8031 281.2476)" class="st2 st3 st4">5</text>
	<text transform="matrix(1 0 0 1 186.1253 281.2476)" class="st2 st3 st4">6</text>
	<text transform="matrix(1 0 0 1 209.1517 281.2476)" class="st2 st3 st4">7</text>
	<text transform="matrix(1 0 0 1 231.3421 281.2476)" class="st2 st3 st4">8</text>
	<text transform="matrix(1 0 0 1 253.8363 281.2476)" class="st2 st3 st4">9</text>
	<text transform="matrix(1 0 0 1 274.4867 281.2476)" class="st2 st3 st4">10</text>
	<text transform="matrix(1 0 0 1 141.993 461.9722)" class="st2 st3 st4">1</text>
	<text transform="matrix(1 0 0 1 164.0555 461.9722)" class="st2 st3 st4">2</text>
	<text transform="matrix(1 0 0 1 186.6297 461.9722)" class="st2 st3 st4">3</text>
	<text transform="matrix(1 0 0 1 209.1444 461.9722)" class="st2 st3 st4">4</text>
	<text transform="matrix(1 0 0 1 231.8182 461.9722)" class="st2 st3 st4">5</text>
	<text transform="matrix(1 0 0 1 254.1405 461.9722)" class="st2 st3 st4">6</text>
	<text transform="matrix(1 0 0 1 277.1668 461.9722)" class="st2 st3 st4">7</text>
	<text transform="matrix(1 0 0 1 299.3573 461.9722)" class="st2 st3 st4">8</text>
	<text transform="matrix(1 0 0 1 321.8514 461.9722)" class="st2 st3 st4">9</text>
	<text transform="matrix(1 0 0 1 342.5018 461.9722)" class="st2 st3 st4">10</text>
	<text transform="matrix(1 0 0 1 165.1244 484.3238)" class="st2 st3 st4">1</text>
	<text transform="matrix(1 0 0 1 187.1869 484.3238)" class="st2 st3 st4">2</text>
	<text transform="matrix(1 0 0 1 209.7611 484.3238)" class="st2 st3 st4">3</text>
	<text transform="matrix(1 0 0 1 232.2757 484.3238)" class="st2 st3 st4">4</text>
	<text transform="matrix(1 0 0 1 254.9496 484.3238)" class="st2 st3 st4">5</text>
	<text transform="matrix(1 0 0 1 277.2718 484.3238)" class="st2 st3 st4">6</text>
	<text transform="matrix(1 0 0 1 300.2982 484.3238)" class="st2 st3 st4">7</text>
	<text transform="matrix(1 0 0 1 322.4886 484.3238)" class="st2 st3 st4">8</text>
	<text transform="matrix(1 0 0 1 344.9828 484.3238)" class="st2 st3 st4">9</text>
	<text transform="matrix(1 0 0 1 165.1244 507.1568)" class="st2 st3 st4">1</text>
	<text transform="matrix(1 0 0 1 187.1869 507.1568)" class="st2 st3 st4">2</text>
	<text transform="matrix(1 0 0 1 209.7611 507.1568)" class="st2 st3 st4">3</text>
	<text transform="matrix(1 0 0 1 232.2757 507.1568)" class="st2 st3 st4">4</text>
	<text transform="matrix(1 0 0 1 254.9496 507.1568)" class="st2 st3 st4">5</text>
	<text transform="matrix(1 0 0 1 277.2718 507.1568)" class="st2 st3 st4">6</text>
	<text transform="matrix(1 0 0 1 300.2982 507.1568)" class="st2 st3 st4">7</text>
	<text transform="matrix(1 0 0 1 322.4886 507.1568)" class="st2 st3 st4">8</text>
	<text transform="matrix(1 0 0 1 344.9828 507.1568)" class="st2 st3 st4">9</text>
	<text transform="matrix(1 0 0 1 165.1244 529.6871)" class="st2 st3 st4">1</text>
	<text transform="matrix(1 0 0 1 187.1869 529.6871)" class="st2 st3 st4">2</text>
	<text transform="matrix(1 0 0 1 209.7611 529.6871)" class="st2 st3 st4">3</text>
	<text transform="matrix(1 0 0 1 232.2757 529.6871)" class="st2 st3 st4">4</text>
	<text transform="matrix(1 0 0 1 254.9496 529.6871)" class="st2 st3 st4">5</text>
	<text transform="matrix(1 0 0 1 277.2718 529.6871)" class="st2 st3 st4">6</text>
	<text transform="matrix(1 0 0 1 300.2982 529.6871)" class="st2 st3 st4">7</text>
	<text transform="matrix(1 0 0 1 322.4886 529.6871)" class="st2 st3 st4">8</text>
	<text transform="matrix(1 0 0 1 344.9828 529.6871)" class="st2 st3 st4">9</text>
	<text transform="matrix(1 0 0 1 187.6947 552.0386)" class="st2 st3 st4">1</text>
	<text transform="matrix(1 0 0 1 209.7572 552.0386)" class="st2 st3 st4">2</text>
	<text transform="matrix(1 0 0 1 232.3314 552.0386)" class="st2 st3 st4">3</text>
	<text transform="matrix(1 0 0 1 254.846 552.0386)" class="st2 st3 st4">4</text>
	<text transform="matrix(1 0 0 1 277.5199 552.0386)" class="st2 st3 st4">5</text>
	<text transform="matrix(1 0 0 1 299.8421 552.0386)" class="st2 st3 st4">6</text>
	<text transform="matrix(1 0 0 1 322.8685 552.0386)" class="st2 st3 st4">7</text>
	<text transform="matrix(1 0 0 1 345.0589 552.0386)" class="st2 st3 st4">8</text>
	<text transform="matrix(1 0 0 1 187.6947 574.8716)" class="st2 st3 st4">1</text>
	<text transform="matrix(1 0 0 1 209.7572 574.8716)" class="st2 st3 st4">2</text>
	<text transform="matrix(1 0 0 1 232.3314 574.8716)" class="st2 st3 st4">3</text>
	<text transform="matrix(1 0 0 1 254.846 574.8716)" class="st2 st3 st4">4</text>
	<text transform="matrix(1 0 0 1 277.5199 574.8716)" class="st2 st3 st4">5</text>
	<text transform="matrix(1 0 0 1 299.8421 574.8716)" class="st2 st3 st4">6</text>
	<text transform="matrix(1 0 0 1 322.8685 574.8716)" class="st2 st3 st4">7</text>
	<text transform="matrix(1 0 0 1 345.0589 574.8716)" class="st2 st3 st4">8</text>
	<text transform="matrix(1 0 0 1 187.6947 597.4547)" class="st2 st3 st4">1</text>
	<text transform="matrix(1 0 0 1 209.7572 597.4547)" class="st2 st3 st4">2</text>
	<text transform="matrix(1 0 0 1 232.3314 597.4547)" class="st2 st3 st4">3</text>
	<text transform="matrix(1 0 0 1 254.846 597.4547)" class="st2 st3 st4">4</text>
	<text transform="matrix(1 0 0 1 277.5199 597.4547)" class="st2 st3 st4">5</text>
	<text transform="matrix(1 0 0 1 299.8421 597.4547)" class="st2 st3 st4">6</text>
	<text transform="matrix(1 0 0 1 322.8685 597.4547)" class="st2 st3 st4">7</text>
	<text transform="matrix(1 0 0 1 345.0589 597.4547)" class="st2 st3 st4">8</text>
	<text transform="matrix(1 0 0 1 210.265 619.8013)" class="st2 st3 st4">1</text>
	<text transform="matrix(1 0 0 1 232.3275 619.8013)" class="st2 st3 st4">2</text>
	<text transform="matrix(1 0 0 1 254.9017 619.8013)" class="st2 st3 st4">3</text>
	<text transform="matrix(1 0 0 1 277.4164 619.8013)" class="st2 st3 st4">4</text>
	<text transform="matrix(1 0 0 1 300.0902 619.8013)" class="st2 st3 st4">5</text>
	<text transform="matrix(1 0 0 1 322.4124 619.8013)" class="st2 st3 st4">6</text>
	<text transform="matrix(1 0 0 1 345.4388 619.8013)" class="st2 st3 st4">7</text>
	<text transform="matrix(1 0 0 1 74.0257 303.8531)" class="st2 st3 st4">1</text>
	<text transform="matrix(1 0 0 1 96.0882 303.8531)" class="st2 st3 st4">2</text>
	<text transform="matrix(1 0 0 1 118.6615 303.8531)" class="st2 st3 st4">3</text>
	<text transform="matrix(1 0 0 1 141.1761 303.8531)" class="st2 st3 st4">4</text>
	<text transform="matrix(1 0 0 1 163.8499 303.8531)" class="st2 st3 st4">5</text>
	<text transform="matrix(1 0 0 1 186.1722 303.8531)" class="st2 st3 st4">6</text>
	<text transform="matrix(1 0 0 1 209.1986 303.8531)" class="st2 st3 st4">7</text>
	<text transform="matrix(1 0 0 1 231.389 303.8531)" class="st2 st3 st4">8</text>
	<text transform="matrix(1 0 0 1 253.8831 303.8531)" class="st2 st3 st4">9</text>
	<text transform="matrix(1 0 0 1 274.5335 303.8531)" class="st2 st3 st4">10</text>
</g>
<g>
	<text transform="matrix(1 0 0 1 415.2186 55.1832)" class="st5 st6 st7">29</text>
	<text transform="matrix(1 0 0 1 415.2186 10.8121)" class="st5 st6 st7">30</text>
	<text transform="matrix(1 0 0 1 415.2186 100.6793)" class="st5 st6 st7">27</text>
	<text transform="matrix(1 0 0 1 415.2186 78.109)" class="st5 st6 st7">28</text>
	<text transform="matrix(1 0 0 1 415.2186 145.8219)" class="st5 st6 st7">25</text>
	<text transform="matrix(1 0 0 1 415.0584 326.4214)" class="st5 st6 st7">17</text>
	<text transform="matrix(1 0 0 1 415.0584 348.9732)" class="st5 st6 st7">16</text>
	<text transform="matrix(1 0 0 1 415.2186 371.6089)" class="st5 st6 st7">15</text>
	<text transform="matrix(1 0 0 1 415.2186 394.1607)" class="st5 st6 st7">14</text>
	<text transform="matrix(1 0 0 1 415.0311 416.7935)" class="st5 st6 st7">13</text>
	<text transform="matrix(1 0 0 1 415.0584 439.3463)" class="st5 st6 st7">12</text>
	<text transform="matrix(1 0 0 1 415.3944 620.0435)" class="st5 st6 st7">4</text>
	<text transform="matrix(1 0 0 1 415.2186 123.2515)" class="st5 st6 st7">26</text>
	<text transform="matrix(1 0 0 1 415.2186 168.276)" class="st5 st6 st7">24</text>
	<text transform="matrix(1 0 0 1 415.2186 213.4635)" class="st5 st6 st7">22</text>
	<text transform="matrix(1 0 0 1 415.2186 190.8931)" class="st5 st6 st7">23</text>
	<text transform="matrix(1 0 0 1 415.2186 258.608)" class="st5 st6 st7">20</text>
	<text transform="matrix(1 0 0 1 415.2186 236.0377)" class="st5 st6 st7">21</text>
	<text transform="matrix(1 0 0 1 415.0311 303.7505)" class="st5 st6 st7">18</text>
	<text transform="matrix(1 0 0 1 415.0584 281.1802)" class="st5 st6 st7">19</text>
	<text transform="matrix(1 0 0 1 415.0584 461.9)" class="st5 st6 st7">11</text>
	<text transform="matrix(1 0 0 1 415.0584 507.0875)" class="st5 st6 st7">9</text>
	<text transform="matrix(1 0 0 1 415.0584 484.5172)" class="st5 st6 st7">10</text>
	<text transform="matrix(1 0 0 1 415.6659 552.233)" class="st5 st6 st7">7</text>
	<text transform="matrix(1 0 0 1 415.0311 529.6627)" class="st5 st6 st7">8</text>
	<text transform="matrix(1 0 0 1 415.0584 574.8052)" class="st5 st6 st7">6</text>
	<text transform="matrix(1 0 0 1 415.6659 597.3882)" class="st5 st6 st7">5</text>
</g>
</svg>
