<?xml version="1.0" encoding="utf-8"?>
<!-- Generator: Adobe Illustrator 20.1.0, SVG Export Plug-In . SVG Version: 6.00 Build 0)  -->
<svg version="1.1" id="Layer_1" xmlns="http://www.w3.org/2000/svg" xmlns:xlink="http://www.w3.org/1999/xlink" x="0px" y="0px"
	 viewBox="0 0 515.2 537.3" style="enable-background:new 0 0 515.2 537.3;" xml:space="preserve">
<style type="text/css">
	.st0{fill:#D9F6E1;}
	.st1{fill:#FFFFFF;}
	.st2{fill:#737373;}
	.st3{font-family:'OsnovaPro';}
	.st4{font-size:8px;}
	.st5{fill:#7B878F;}
	.st6{font-family:'OsnovaProLight';}
	.st7{font-size:9px;}
</style>
<path class="st0" d="M301.7,16.6L301.7,16.6c4.6,0,8.3-3.7,8.3-8.3v0c0-4.6-3.7-8.3-8.3-8.3h0c-4.6,0-8.3,3.7-8.3,8.3v0
	C293.4,12.8,297.2,16.6,301.7,16.6z"/>
<path class="st0" d="M279.1,16.6L279.1,16.6c4.6,0,8.3-3.7,8.3-8.3v0c0-4.6-3.7-8.3-8.3-8.3h0c-4.6,0-8.3,3.7-8.3,8.3v0
	C270.9,12.8,274.6,16.6,279.1,16.6z"/>
<path class="st0" d="M256.6,16.6L256.6,16.6c4.6,0,8.3-3.7,8.3-8.3v0c0-4.6-3.7-8.3-8.3-8.3h0c-4.6,0-8.3,3.7-8.3,8.3v0
	C248.3,12.8,252,16.6,256.6,16.6z"/>
<path class="st0" d="M234,16.6L234,16.6c4.6,0,8.3-3.7,8.3-8.3v0c0-4.6-3.7-8.3-8.3-8.3h0c-4.6,0-8.3,3.7-8.3,8.3v0
	C225.7,12.8,229.4,16.6,234,16.6z"/>
<path class="st0" d="M211.5,16.6L211.5,16.6c4.6,0,8.3-3.7,8.3-8.3v0c0-4.6-3.7-8.3-8.3-8.3h0c-4.6,0-8.3,3.7-8.3,8.3v0
	C203.2,12.8,207,16.6,211.5,16.6z"/>
<path class="st0" d="M188.9,16.6L188.9,16.6c4.6,0,8.3-3.7,8.3-8.3v0c0-4.6-3.7-8.3-8.3-8.3h0c-4.6,0-8.3,3.7-8.3,8.3v0
	C180.7,12.8,184.4,16.6,188.9,16.6z"/>
<path class="st0" d="M166.4,16.6L166.4,16.6c4.6,0,8.3-3.7,8.3-8.3v0c0-4.6-3.7-8.3-8.3-8.3h0c-4.6,0-8.3,3.7-8.3,8.3v0
	C158.1,12.8,161.8,16.6,166.4,16.6z"/>
<path class="st0" d="M143.8,16.6L143.8,16.6c4.6,0,8.3-3.7,8.3-8.3v0c0-4.6-3.7-8.3-8.3-8.3h0c-4.6,0-8.3,3.7-8.3,8.3v0
	C135.5,12.8,139.2,16.6,143.8,16.6z"/>
<path class="st0" d="M121.2,16.6L121.2,16.6c4.6,0,8.3-3.7,8.3-8.3v0c0-4.6-3.7-8.3-8.3-8.3h0c-4.6,0-8.3,3.7-8.3,8.3v0
	C112.9,12.8,116.7,16.6,121.2,16.6z"/>
<path class="st0" d="M98.7,16.6L98.7,16.6c4.6,0,8.3-3.7,8.3-8.3v0c0-4.6-3.7-8.3-8.3-8.3h0c-4.6,0-8.3,3.7-8.3,8.3v0
	C90.4,12.8,94.1,16.6,98.7,16.6z"/>
<path class="st0" d="M76.1,16.6L76.1,16.6c4.6,0,8.3-3.7,8.3-8.3v0c0-4.6-3.7-8.3-8.3-8.3h0c-4.6,0-8.3,3.7-8.3,8.3v0
	C67.8,12.8,71.6,16.6,76.1,16.6z"/>
<path class="st0" d="M53.6,16.6L53.6,16.6c4.6,0,8.3-3.7,8.3-8.3v0c0-4.6-3.7-8.3-8.3-8.3h0c-4.6,0-8.3,3.7-8.3,8.3v0
	C45.3,12.8,49,16.6,53.6,16.6z"/>
<path class="st0" d="M31,16.6L31,16.6c4.6,0,8.3-3.7,8.3-8.3v0C39.3,3.7,35.5,0,31,0h0c-4.6,0-8.3,3.7-8.3,8.3v0
	C22.7,12.8,26.4,16.6,31,16.6z"/>
<path class="st0" d="M8.4,16.6L8.4,16.6c4.6,0,8.3-3.7,8.3-8.3v0C16.7,3.7,13,0,8.4,0h0C3.9,0,0.1,3.7,0.1,8.3v0
	C0.1,12.8,3.9,16.6,8.4,16.6z"/>
<path class="st1" d="M392.2,108.3L392.2,108.3c4.6,0,8.3-3.7,8.3-8.3v0c0-4.6-3.7-8.3-8.3-8.3l0,0c-4.6,0-8.3,3.7-8.3,8.3v0
	C383.9,104.6,387.6,108.3,392.2,108.3z"/>
<path class="st1" d="M369.6,108.3L369.6,108.3c4.6,0,8.3-3.7,8.3-8.3v0c0-4.6-3.7-8.3-8.3-8.3h0c-4.6,0-8.3,3.7-8.3,8.3v0
	C361.3,104.6,365,108.3,369.6,108.3z"/>
<path class="st1" d="M347,108.3L347,108.3c4.6,0,8.3-3.7,8.3-8.3v0c0-4.6-3.7-8.3-8.3-8.3h0c-4.6,0-8.3,3.7-8.3,8.3v0
	C338.7,104.6,342.5,108.3,347,108.3z"/>
<path class="st1" d="M324.4,108.3L324.4,108.3c4.6,0,8.3-3.7,8.3-8.3v0c0-4.6-3.7-8.3-8.3-8.3h0c-4.6,0-8.3,3.7-8.3,8.3v0
	C316.2,104.6,319.9,108.3,324.4,108.3z"/>
<path class="st1" d="M301.9,108.3L301.9,108.3c4.6,0,8.3-3.7,8.3-8.3v0c0-4.6-3.7-8.3-8.3-8.3l0,0c-4.6,0-8.3,3.7-8.3,8.3v0
	C293.6,104.6,297.3,108.3,301.9,108.3z"/>
<path class="st1" d="M279.3,108.3L279.3,108.3c4.6,0,8.3-3.7,8.3-8.3v0c0-4.6-3.7-8.3-8.3-8.3l0,0c-4.6,0-8.3,3.7-8.3,8.3v0
	C271,104.6,274.7,108.3,279.3,108.3z"/>
<path class="st1" d="M256.7,108.3L256.7,108.3c4.6,0,8.3-3.7,8.3-8.3v0c0-4.6-3.7-8.3-8.3-8.3h0c-4.6,0-8.3,3.7-8.3,8.3v0
	C248.5,104.6,252.2,108.3,256.7,108.3z"/>
<path class="st1" d="M234.2,108.3L234.2,108.3c4.6,0,8.3-3.7,8.3-8.3v0c0-4.6-3.7-8.3-8.3-8.3h0c-4.6,0-8.3,3.7-8.3,8.3v0
	C225.9,104.6,229.6,108.3,234.2,108.3z"/>
<path class="st1" d="M211.6,108.3L211.6,108.3c4.6,0,8.3-3.7,8.3-8.3v0c0-4.6-3.7-8.3-8.3-8.3h0c-4.6,0-8.3,3.7-8.3,8.3v0
	C203.3,104.6,207,108.3,211.6,108.3z"/>
<path class="st1" d="M189,108.3L189,108.3c4.6,0,8.3-3.7,8.3-8.3v0c0-4.6-3.7-8.3-8.3-8.3h0c-4.6,0-8.3,3.7-8.3,8.3v0
	C180.7,104.6,184.5,108.3,189,108.3z"/>
<path class="st1" d="M166.5,108.3L166.5,108.3c4.6,0,8.3-3.7,8.3-8.3v0c0-4.6-3.7-8.3-8.3-8.3h0c-4.6,0-8.3,3.7-8.3,8.3v0
	C158.2,104.6,161.9,108.3,166.5,108.3z"/>
<path class="st1" d="M143.9,108.3L143.9,108.3c4.6,0,8.3-3.7,8.3-8.3v0c0-4.6-3.7-8.3-8.3-8.3h0c-4.6,0-8.3,3.7-8.3,8.3v0
	C135.6,104.6,139.3,108.3,143.9,108.3z"/>
<path class="st1" d="M121.3,108.3L121.3,108.3c4.6,0,8.3-3.7,8.3-8.3v0c0-4.6-3.7-8.3-8.3-8.3h0c-4.6,0-8.3,3.7-8.3,8.3v0
	C113,104.6,116.8,108.3,121.3,108.3z"/>
<path class="st1" d="M98.7,108.3L98.7,108.3c4.6,0,8.3-3.7,8.3-8.3v0c0-4.6-3.7-8.3-8.3-8.3h0c-4.6,0-8.3,3.7-8.3,8.3v0
	C90.5,104.6,94.2,108.3,98.7,108.3z"/>
<path class="st1" d="M76.2,108.3L76.2,108.3c4.6,0,8.3-3.7,8.3-8.3v0c0-4.6-3.7-8.3-8.3-8.3h0c-4.6,0-8.3,3.7-8.3,8.3v0
	C67.9,104.6,71.6,108.3,76.2,108.3z"/>
<path class="st1" d="M53.6,108.3L53.6,108.3c4.6,0,8.3-3.7,8.3-8.3v0c0-4.6-3.7-8.3-8.3-8.3h0c-4.6,0-8.3,3.7-8.3,8.3v0
	C45.3,104.6,49,108.3,53.6,108.3z"/>
<path class="st1" d="M392.2,85.7L392.2,85.7c4.6,0,8.3-3.7,8.3-8.3v0c0-4.6-3.7-8.3-8.3-8.3l0,0c-4.6,0-8.3,3.7-8.3,8.3v0
	C383.9,82,387.6,85.7,392.2,85.7z"/>
<path class="st1" d="M369.6,85.7L369.6,85.7c4.6,0,8.3-3.7,8.3-8.3v0c0-4.6-3.7-8.3-8.3-8.3h0c-4.6,0-8.3,3.7-8.3,8.3v0
	C361.3,82,365,85.7,369.6,85.7z"/>
<path class="st1" d="M347,85.7L347,85.7c4.6,0,8.3-3.7,8.3-8.3v0c0-4.6-3.7-8.3-8.3-8.3h0c-4.6,0-8.3,3.7-8.3,8.3v0
	C338.7,82,342.5,85.7,347,85.7z"/>
<path class="st1" d="M324.4,85.7L324.4,85.7c4.6,0,8.3-3.7,8.3-8.3v0c0-4.6-3.7-8.3-8.3-8.3h0c-4.6,0-8.3,3.7-8.3,8.3v0
	C316.2,82,319.9,85.7,324.4,85.7z"/>
<path class="st1" d="M301.9,85.7L301.9,85.7c4.6,0,8.3-3.7,8.3-8.3v0c0-4.6-3.7-8.3-8.3-8.3l0,0c-4.6,0-8.3,3.7-8.3,8.3v0
	C293.6,82,297.3,85.7,301.9,85.7z"/>
<path class="st1" d="M279.3,85.7L279.3,85.7c4.6,0,8.3-3.7,8.3-8.3v0c0-4.6-3.7-8.3-8.3-8.3l0,0c-4.6,0-8.3,3.7-8.3,8.3v0
	C271,82,274.7,85.7,279.3,85.7z"/>
<path class="st1" d="M256.7,85.7L256.7,85.7c4.6,0,8.3-3.7,8.3-8.3v0c0-4.6-3.7-8.3-8.3-8.3h0c-4.6,0-8.3,3.7-8.3,8.3v0
	C248.5,82,252.2,85.7,256.7,85.7z"/>
<path class="st1" d="M234.2,85.7L234.2,85.7c4.6,0,8.3-3.7,8.3-8.3v0c0-4.6-3.7-8.3-8.3-8.3h0c-4.6,0-8.3,3.7-8.3,8.3v0
	C225.9,82,229.6,85.7,234.2,85.7z"/>
<path class="st1" d="M211.6,85.7L211.6,85.7c4.6,0,8.3-3.7,8.3-8.3v0c0-4.6-3.7-8.3-8.3-8.3h0c-4.6,0-8.3,3.7-8.3,8.3v0
	C203.3,82,207,85.7,211.6,85.7z"/>
<path class="st1" d="M189,85.7L189,85.7c4.6,0,8.3-3.7,8.3-8.3v0c0-4.6-3.7-8.3-8.3-8.3h0c-4.6,0-8.3,3.7-8.3,8.3v0
	C180.7,82,184.5,85.7,189,85.7z"/>
<path class="st1" d="M166.5,85.7L166.5,85.7c4.6,0,8.3-3.7,8.3-8.3v0c0-4.6-3.7-8.3-8.3-8.3h0c-4.6,0-8.3,3.7-8.3,8.3v0
	C158.2,82,161.9,85.7,166.5,85.7z"/>
<path class="st1" d="M143.9,85.7L143.9,85.7c4.6,0,8.3-3.7,8.3-8.3v0c0-4.6-3.7-8.3-8.3-8.3h0c-4.6,0-8.3,3.7-8.3,8.3v0
	C135.6,82,139.3,85.7,143.9,85.7z"/>
<path class="st1" d="M121.3,85.7L121.3,85.7c4.6,0,8.3-3.7,8.3-8.3v0c0-4.6-3.7-8.3-8.3-8.3h0c-4.6,0-8.3,3.7-8.3,8.3v0
	C113,82,116.8,85.7,121.3,85.7z"/>
<path class="st1" d="M98.7,85.7L98.7,85.7c4.6,0,8.3-3.7,8.3-8.3v0c0-4.6-3.7-8.3-8.3-8.3h0c-4.6,0-8.3,3.7-8.3,8.3v0
	C90.5,82,94.2,85.7,98.7,85.7z"/>
<path class="st1" d="M76.2,85.7L76.2,85.7c4.6,0,8.3-3.7,8.3-8.3v0c0-4.6-3.7-8.3-8.3-8.3h0c-4.6,0-8.3,3.7-8.3,8.3v0
	C67.9,82,71.6,85.7,76.2,85.7z"/>
<path class="st1" d="M53.6,85.7L53.6,85.7c4.6,0,8.3-3.7,8.3-8.3v0c0-4.6-3.7-8.3-8.3-8.3h0c-4.6,0-8.3,3.7-8.3,8.3v0
	C45.3,82,49,85.7,53.6,85.7z"/>
<path class="st1" d="M392.1,153.4L392.1,153.4c4.6,0,8.3-3.7,8.3-8.3v0c0-4.6-3.7-8.3-8.3-8.3h0c-4.6,0-8.3,3.7-8.3,8.3v0
	C383.8,149.7,387.6,153.4,392.1,153.4z"/>
<path class="st1" d="M369.6,153.4L369.6,153.4c4.6,0,8.3-3.7,8.3-8.3v0c0-4.6-3.7-8.3-8.3-8.3h0c-4.6,0-8.3,3.7-8.3,8.3v0
	C361.3,149.7,365,153.4,369.6,153.4z"/>
<path class="st1" d="M347,153.4L347,153.4c4.6,0,8.3-3.7,8.3-8.3v0c0-4.6-3.7-8.3-8.3-8.3l0,0c-4.6,0-8.3,3.7-8.3,8.3v0
	C338.7,149.7,342.4,153.4,347,153.4z"/>
<path class="st1" d="M324.4,153.4L324.4,153.4c4.6,0,8.3-3.7,8.3-8.3v0c0-4.6-3.7-8.3-8.3-8.3l0,0c-4.6,0-8.3,3.7-8.3,8.3v0
	C316.1,149.7,319.9,153.4,324.4,153.4z"/>
<path class="st1" d="M301.9,153.4L301.9,153.4c4.6,0,8.3-3.7,8.3-8.3v0c0-4.6-3.7-8.3-8.3-8.3h0c-4.6,0-8.3,3.7-8.3,8.3v0
	C293.6,149.7,297.3,153.4,301.9,153.4z"/>
<path class="st1" d="M279.3,153.4L279.3,153.4c4.6,0,8.3-3.7,8.3-8.3v0c0-4.6-3.7-8.3-8.3-8.3h0c-4.6,0-8.3,3.7-8.3,8.3v0
	C271,149.7,274.7,153.4,279.3,153.4z"/>
<path class="st1" d="M256.7,153.4L256.7,153.4c4.6,0,8.3-3.7,8.3-8.3v0c0-4.6-3.7-8.3-8.3-8.3l0,0c-4.6,0-8.3,3.7-8.3,8.3v0
	C248.4,149.7,252.2,153.4,256.7,153.4z"/>
<path class="st1" d="M234.1,153.4L234.1,153.4c4.6,0,8.3-3.7,8.3-8.3v0c0-4.6-3.7-8.3-8.3-8.3h0c-4.6,0-8.3,3.7-8.3,8.3v0
	C225.9,149.7,229.6,153.4,234.1,153.4z"/>
<path class="st1" d="M211.6,153.4L211.6,153.4c4.6,0,8.3-3.7,8.3-8.3v0c0-4.6-3.7-8.3-8.3-8.3h0c-4.6,0-8.3,3.7-8.3,8.3v0
	C203.3,149.7,207,153.4,211.6,153.4z"/>
<path class="st1" d="M189,153.4L189,153.4c4.6,0,8.3-3.7,8.3-8.3v0c0-4.6-3.7-8.3-8.3-8.3h0c-4.6,0-8.3,3.7-8.3,8.3v0
	C180.7,149.7,184.4,153.4,189,153.4z"/>
<path class="st1" d="M166.4,153.4L166.4,153.4c4.6,0,8.3-3.7,8.3-8.3v0c0-4.6-3.7-8.3-8.3-8.3h0c-4.6,0-8.3,3.7-8.3,8.3v0
	C158.1,149.7,161.9,153.4,166.4,153.4z"/>
<path class="st1" d="M143.9,153.4L143.9,153.4c4.6,0,8.3-3.7,8.3-8.3v0c0-4.6-3.7-8.3-8.3-8.3h0c-4.6,0-8.3,3.7-8.3,8.3v0
	C135.6,149.7,139.3,153.4,143.9,153.4z"/>
<path class="st1" d="M121.3,153.4L121.3,153.4c4.6,0,8.3-3.7,8.3-8.3v0c0-4.6-3.7-8.3-8.3-8.3h0c-4.6,0-8.3,3.7-8.3,8.3v0
	C113,149.7,116.7,153.4,121.3,153.4z"/>
<path class="st1" d="M98.7,153.4L98.7,153.4c4.6,0,8.3-3.7,8.3-8.3v0c0-4.6-3.7-8.3-8.3-8.3h0c-4.6,0-8.3,3.7-8.3,8.3v0
	C90.4,149.7,94.2,153.4,98.7,153.4z"/>
<path class="st1" d="M76.1,153.4L76.1,153.4c4.6,0,8.3-3.7,8.3-8.3v0c0-4.6-3.7-8.3-8.3-8.3h0c-4.6,0-8.3,3.7-8.3,8.3v0
	C67.9,149.7,71.6,153.4,76.1,153.4z"/>
<path class="st1" d="M53.6,153.4L53.6,153.4c4.6,0,8.3-3.7,8.3-8.3v0c0-4.6-3.7-8.3-8.3-8.3h0c-4.6,0-8.3,3.7-8.3,8.3v0
	C45.3,149.7,49,153.4,53.6,153.4z"/>
<path class="st1" d="M279.3,334L279.3,334c4.6,0,8.3-3.7,8.3-8.3l0,0c0-4.6-3.7-8.3-8.3-8.3h0c-4.6,0-8.3,3.7-8.3,8.3l0,0
	C271,330.3,274.7,334,279.3,334z"/>
<path class="st1" d="M256.7,334L256.7,334c4.6,0,8.3-3.7,8.3-8.3l0,0c0-4.6-3.7-8.3-8.3-8.3l0,0c-4.6,0-8.3,3.7-8.3,8.3l0,0
	C248.4,330.3,252.2,334,256.7,334z"/>
<path class="st1" d="M234.1,334L234.1,334c4.6,0,8.3-3.7,8.3-8.3l0,0c0-4.6-3.7-8.3-8.3-8.3h0c-4.6,0-8.3,3.7-8.3,8.3l0,0
	C225.9,330.3,229.6,334,234.1,334z"/>
<path class="st1" d="M211.6,334L211.6,334c4.6,0,8.3-3.7,8.3-8.3l0,0c0-4.6-3.7-8.3-8.3-8.3h0c-4.6,0-8.3,3.7-8.3,8.3l0,0
	C203.3,330.3,207,334,211.6,334z"/>
<path class="st1" d="M189,334L189,334c4.6,0,8.3-3.7,8.3-8.3l0,0c0-4.6-3.7-8.3-8.3-8.3h0c-4.6,0-8.3,3.7-8.3,8.3l0,0
	C180.7,330.3,184.4,334,189,334z"/>
<path class="st1" d="M166.4,334L166.4,334c4.6,0,8.3-3.7,8.3-8.3l0,0c0-4.6-3.7-8.3-8.3-8.3h0c-4.6,0-8.3,3.7-8.3,8.3l0,0
	C158.1,330.3,161.9,334,166.4,334z"/>
<path class="st1" d="M143.9,334L143.9,334c4.6,0,8.3-3.7,8.3-8.3l0,0c0-4.6-3.7-8.3-8.3-8.3h0c-4.6,0-8.3,3.7-8.3,8.3l0,0
	C135.6,330.3,139.3,334,143.9,334z"/>
<path class="st1" d="M121.3,334L121.3,334c4.6,0,8.3-3.7,8.3-8.3l0,0c0-4.6-3.7-8.3-8.3-8.3h0c-4.6,0-8.3,3.7-8.3,8.3l0,0
	C113,330.3,116.7,334,121.3,334z"/>
<path class="st1" d="M98.7,334L98.7,334c4.6,0,8.3-3.7,8.3-8.3l0,0c0-4.6-3.7-8.3-8.3-8.3h0c-4.6,0-8.3,3.7-8.3,8.3l0,0
	C90.4,330.3,94.2,334,98.7,334z"/>
<path class="st1" d="M279.3,356.6L279.3,356.6c4.6,0,8.3-3.7,8.3-8.3v0c0-4.6-3.7-8.3-8.3-8.3h0c-4.6,0-8.3,3.7-8.3,8.3v0
	C271,352.9,274.7,356.6,279.3,356.6z"/>
<path class="st1" d="M256.7,356.6L256.7,356.6c4.6,0,8.3-3.7,8.3-8.3v0c0-4.6-3.7-8.3-8.3-8.3l0,0c-4.6,0-8.3,3.7-8.3,8.3v0
	C248.4,352.9,252.2,356.6,256.7,356.6z"/>
<path class="st1" d="M234.1,356.6L234.1,356.6c4.6,0,8.3-3.7,8.3-8.3v0c0-4.6-3.7-8.3-8.3-8.3h0c-4.6,0-8.3,3.7-8.3,8.3v0
	C225.9,352.9,229.6,356.6,234.1,356.6z"/>
<path class="st1" d="M211.6,356.6L211.6,356.6c4.6,0,8.3-3.7,8.3-8.3v0c0-4.6-3.7-8.3-8.3-8.3h0c-4.6,0-8.3,3.7-8.3,8.3v0
	C203.3,352.9,207,356.6,211.6,356.6z"/>
<path class="st1" d="M189,356.6L189,356.6c4.6,0,8.3-3.7,8.3-8.3v0c0-4.6-3.7-8.3-8.3-8.3h0c-4.6,0-8.3,3.7-8.3,8.3v0
	C180.7,352.9,184.4,356.6,189,356.6z"/>
<path class="st1" d="M166.4,356.6L166.4,356.6c4.6,0,8.3-3.7,8.3-8.3v0c0-4.6-3.7-8.3-8.3-8.3h0c-4.6,0-8.3,3.7-8.3,8.3v0
	C158.1,352.9,161.9,356.6,166.4,356.6z"/>
<path class="st1" d="M143.9,356.6L143.9,356.6c4.6,0,8.3-3.7,8.3-8.3v0c0-4.6-3.7-8.3-8.3-8.3h0c-4.6,0-8.3,3.7-8.3,8.3v0
	C135.6,352.9,139.3,356.6,143.9,356.6z"/>
<path class="st1" d="M121.3,356.6L121.3,356.6c4.6,0,8.3-3.7,8.3-8.3v0c0-4.6-3.7-8.3-8.3-8.3h0c-4.6,0-8.3,3.7-8.3,8.3v0
	C113,352.9,116.7,356.6,121.3,356.6z"/>
<path class="st1" d="M98.7,356.6L98.7,356.6c4.6,0,8.3-3.7,8.3-8.3v0c0-4.6-3.7-8.3-8.3-8.3h0c-4.6,0-8.3,3.7-8.3,8.3v0
	C90.4,352.9,94.2,356.6,98.7,356.6z"/>
<path class="st1" d="M256.7,379.2L256.7,379.2c4.6,0,8.3-3.7,8.3-8.3l0,0c0-4.6-3.7-8.3-8.3-8.3l0,0c-4.6,0-8.3,3.7-8.3,8.3l0,0
	C248.4,375.5,252.2,379.2,256.7,379.2z"/>
<path class="st1" d="M234.1,379.2L234.1,379.2c4.6,0,8.3-3.7,8.3-8.3l0,0c0-4.6-3.7-8.3-8.3-8.3h0c-4.6,0-8.3,3.7-8.3,8.3l0,0
	C225.9,375.5,229.6,379.2,234.1,379.2z"/>
<path class="st1" d="M211.6,379.2L211.6,379.2c4.6,0,8.3-3.7,8.3-8.3l0,0c0-4.6-3.7-8.3-8.3-8.3h0c-4.6,0-8.3,3.7-8.3,8.3l0,0
	C203.3,375.5,207,379.2,211.6,379.2z"/>
<path class="st1" d="M189,379.2L189,379.2c4.6,0,8.3-3.7,8.3-8.3l0,0c0-4.6-3.7-8.3-8.3-8.3h0c-4.6,0-8.3,3.7-8.3,8.3l0,0
	C180.7,375.5,184.4,379.2,189,379.2z"/>
<path class="st1" d="M166.4,379.2L166.4,379.2c4.6,0,8.3-3.7,8.3-8.3l0,0c0-4.6-3.7-8.3-8.3-8.3h0c-4.6,0-8.3,3.7-8.3,8.3l0,0
	C158.1,375.5,161.9,379.2,166.4,379.2z"/>
<path class="st1" d="M143.9,379.2L143.9,379.2c4.6,0,8.3-3.7,8.3-8.3l0,0c0-4.6-3.7-8.3-8.3-8.3h0c-4.6,0-8.3,3.7-8.3,8.3l0,0
	C135.6,375.5,139.3,379.2,143.9,379.2z"/>
<path class="st1" d="M121.3,379.2L121.3,379.2c4.6,0,8.3-3.7,8.3-8.3l0,0c0-4.6-3.7-8.3-8.3-8.3h0c-4.6,0-8.3,3.7-8.3,8.3l0,0
	C113,375.5,116.7,379.2,121.3,379.2z"/>
<path class="st1" d="M98.7,379.2L98.7,379.2c4.6,0,8.3-3.7,8.3-8.3l0,0c0-4.6-3.7-8.3-8.3-8.3h0c-4.6,0-8.3,3.7-8.3,8.3l0,0
	C90.4,375.5,94.2,379.2,98.7,379.2z"/>
<path class="st1" d="M256.7,401.8L256.7,401.8c4.6,0,8.3-3.7,8.3-8.3v0c0-4.6-3.7-8.3-8.3-8.3l0,0c-4.6,0-8.3,3.7-8.3,8.3v0
	C248.4,398,252.2,401.8,256.7,401.8z"/>
<path class="st1" d="M234.1,401.8L234.1,401.8c4.6,0,8.3-3.7,8.3-8.3v0c0-4.6-3.7-8.3-8.3-8.3h0c-4.6,0-8.3,3.7-8.3,8.3v0
	C225.9,398,229.6,401.8,234.1,401.8z"/>
<path class="st1" d="M211.6,401.8L211.6,401.8c4.6,0,8.3-3.7,8.3-8.3v0c0-4.6-3.7-8.3-8.3-8.3h0c-4.6,0-8.3,3.7-8.3,8.3v0
	C203.3,398,207,401.8,211.6,401.8z"/>
<path class="st1" d="M189,401.8L189,401.8c4.6,0,8.3-3.7,8.3-8.3v0c0-4.6-3.7-8.3-8.3-8.3h0c-4.6,0-8.3,3.7-8.3,8.3v0
	C180.7,398,184.4,401.8,189,401.8z"/>
<path class="st1" d="M166.4,401.8L166.4,401.8c4.6,0,8.3-3.7,8.3-8.3v0c0-4.6-3.7-8.3-8.3-8.3h0c-4.6,0-8.3,3.7-8.3,8.3v0
	C158.1,398,161.9,401.8,166.4,401.8z"/>
<path class="st1" d="M143.9,401.8L143.9,401.8c4.6,0,8.3-3.7,8.3-8.3v0c0-4.6-3.7-8.3-8.3-8.3h0c-4.6,0-8.3,3.7-8.3,8.3v0
	C135.6,398,139.3,401.8,143.9,401.8z"/>
<path class="st1" d="M121.3,401.8L121.3,401.8c4.6,0,8.3-3.7,8.3-8.3v0c0-4.6-3.7-8.3-8.3-8.3h0c-4.6,0-8.3,3.7-8.3,8.3v0
	C113,398,116.7,401.8,121.3,401.8z"/>
<path class="st1" d="M98.7,401.8L98.7,401.8c4.6,0,8.3-3.7,8.3-8.3v0c0-4.6-3.7-8.3-8.3-8.3h0c-4.6,0-8.3,3.7-8.3,8.3v0
	C90.4,398,94.2,401.8,98.7,401.8z"/>
<path class="st1" d="M234.1,424.4L234.1,424.4c4.6,0,8.3-3.7,8.3-8.3v0c0-4.6-3.7-8.3-8.3-8.3h0c-4.6,0-8.3,3.7-8.3,8.3l0,0
	C225.9,420.7,229.6,424.4,234.1,424.4z"/>
<path class="st1" d="M211.6,424.4L211.6,424.4c4.6,0,8.3-3.7,8.3-8.3l0,0c0-4.6-3.7-8.3-8.3-8.3h0c-4.6,0-8.3,3.7-8.3,8.3l0,0
	C203.3,420.7,207,424.4,211.6,424.4z"/>
<path class="st1" d="M189,424.4L189,424.4c4.6,0,8.3-3.7,8.3-8.3l0,0c0-4.6-3.7-8.3-8.3-8.3h0c-4.6,0-8.3,3.7-8.3,8.3v0
	C180.7,420.7,184.4,424.4,189,424.4z"/>
<path class="st1" d="M166.4,424.4L166.4,424.4c4.6,0,8.3-3.7,8.3-8.3l0,0c0-4.6-3.7-8.3-8.3-8.3h0c-4.6,0-8.3,3.7-8.3,8.3v0
	C158.1,420.7,161.9,424.4,166.4,424.4z"/>
<path class="st1" d="M143.9,424.4L143.9,424.4c4.6,0,8.3-3.7,8.3-8.3v0c0-4.6-3.7-8.3-8.3-8.3h0c-4.6,0-8.3,3.7-8.3,8.3l0,0
	C135.6,420.7,139.3,424.4,143.9,424.4z"/>
<path class="st1" d="M121.3,424.4L121.3,424.4c4.6,0,8.3-3.7,8.3-8.3l0,0c0-4.6-3.7-8.3-8.3-8.3h0c-4.6,0-8.3,3.7-8.3,8.3l0,0
	C113,420.7,116.7,424.4,121.3,424.4z"/>
<path class="st1" d="M98.7,424.4L98.7,424.4c4.6,0,8.3-3.7,8.3-8.3l0,0c0-4.6-3.7-8.3-8.3-8.3h0c-4.6,0-8.3,3.7-8.3,8.3v0
	C90.4,420.7,94.2,424.4,98.7,424.4z"/>
<path class="st1" d="M234.1,447L234.1,447c4.6,0,8.3-3.7,8.3-8.3l0,0c0-4.6-3.7-8.3-8.3-8.3h0c-4.6,0-8.3,3.7-8.3,8.3l0,0
	C225.9,443.2,229.6,447,234.1,447z"/>
<path class="st1" d="M211.6,447L211.6,447c4.6,0,8.3-3.7,8.3-8.3l0,0c0-4.6-3.7-8.3-8.3-8.3h0c-4.6,0-8.3,3.7-8.3,8.3l0,0
	C203.3,443.2,207,447,211.6,447z"/>
<path class="st1" d="M189,447L189,447c4.6,0,8.3-3.7,8.3-8.3l0,0c0-4.6-3.7-8.3-8.3-8.3h0c-4.6,0-8.3,3.7-8.3,8.3l0,0
	C180.7,443.2,184.4,447,189,447z"/>
<path class="st1" d="M166.4,447L166.4,447c4.6,0,8.3-3.7,8.3-8.3l0,0c0-4.6-3.7-8.3-8.3-8.3h0c-4.6,0-8.3,3.7-8.3,8.3l0,0
	C158.1,443.2,161.9,447,166.4,447z"/>
<path class="st1" d="M143.9,447L143.9,447c4.6,0,8.3-3.7,8.3-8.3l0,0c0-4.6-3.7-8.3-8.3-8.3h0c-4.6,0-8.3,3.7-8.3,8.3l0,0
	C135.6,443.2,139.3,447,143.9,447z"/>
<path class="st1" d="M121.3,447L121.3,447c4.6,0,8.3-3.7,8.3-8.3l0,0c0-4.6-3.7-8.3-8.3-8.3h0c-4.6,0-8.3,3.7-8.3,8.3l0,0
	C113,443.2,116.7,447,121.3,447z"/>
<path class="st1" d="M98.7,447L98.7,447c4.6,0,8.3-3.7,8.3-8.3l0,0c0-4.6-3.7-8.3-8.3-8.3h0c-4.6,0-8.3,3.7-8.3,8.3l0,0
	C90.4,443.2,94.2,447,98.7,447z"/>
<path class="st1" d="M76.1,447L76.1,447c4.6,0,8.3-3.7,8.3-8.3l0,0c0-4.6-3.7-8.3-8.3-8.3h0c-4.6,0-8.3,3.7-8.3,8.3l0,0
	C67.9,443.2,71.6,447,76.1,447z"/>
<path class="st1" d="M53.6,447L53.6,447c4.6,0,8.3-3.7,8.3-8.3l0,0c0-4.6-3.7-8.3-8.3-8.3h0c-4.6,0-8.3,3.7-8.3,8.3l0,0
	C45.3,443.2,49,447,53.6,447z"/>
<path class="st1" d="M121.3,469.6L121.3,469.6c4.6,0,8.3-3.7,8.3-8.3v0c0-4.6-3.7-8.3-8.3-8.3h0c-4.6,0-8.3,3.7-8.3,8.3v0
	C113,465.9,116.7,469.6,121.3,469.6z"/>
<path class="st1" d="M98.7,469.6L98.7,469.6c4.6,0,8.3-3.7,8.3-8.3v0c0-4.6-3.7-8.3-8.3-8.3h0c-4.6,0-8.3,3.7-8.3,8.3v0
	C90.4,465.9,94.1,469.6,98.7,469.6z"/>
<path class="st1" d="M76.1,469.6L76.1,469.6c4.6,0,8.3-3.7,8.3-8.3v0c0-4.6-3.7-8.3-8.3-8.3h0c-4.6,0-8.3,3.7-8.3,8.3v0
	C67.9,465.9,71.6,469.6,76.1,469.6z"/>
<path class="st1" d="M121.3,492.2L121.3,492.2c4.6,0,8.3-3.7,8.3-8.3v0c0-4.6-3.7-8.3-8.3-8.3h0c-4.6,0-8.3,3.7-8.3,8.3v0
	C113,488.4,116.7,492.2,121.3,492.2z"/>
<path class="st1" d="M98.7,492.2L98.7,492.2c4.6,0,8.3-3.7,8.3-8.3v0c0-4.6-3.7-8.3-8.3-8.3h0c-4.6,0-8.3,3.7-8.3,8.3v0
	C90.4,488.4,94.1,492.2,98.7,492.2z"/>
<path class="st1" d="M76.1,492.2L76.1,492.2c4.6,0,8.3-3.7,8.3-8.3v0c0-4.6-3.7-8.3-8.3-8.3h0c-4.6,0-8.3,3.7-8.3,8.3v0
	C67.9,488.4,71.6,492.2,76.1,492.2z"/>
<path class="st1" d="M121.3,514.8L121.3,514.8c4.6,0,8.3-3.7,8.3-8.3v0c0-4.6-3.7-8.3-8.3-8.3h0c-4.6,0-8.3,3.7-8.3,8.3v0
	C113,511.1,116.7,514.8,121.3,514.8z"/>
<path class="st1" d="M98.7,514.8L98.7,514.8c4.6,0,8.3-3.7,8.3-8.3v0c0-4.6-3.7-8.3-8.3-8.3h0c-4.6,0-8.3,3.7-8.3,8.3v0
	C90.4,511.1,94.1,514.8,98.7,514.8z"/>
<path class="st1" d="M76.1,514.8L76.1,514.8c4.6,0,8.3-3.7,8.3-8.3v0c0-4.6-3.7-8.3-8.3-8.3h0c-4.6,0-8.3,3.7-8.3,8.3v0
	C67.9,511.1,71.6,514.8,76.1,514.8z"/>
<path class="st1" d="M121.3,537.3L121.3,537.3c4.6,0,8.3-3.7,8.3-8.3l0,0c0-4.6-3.7-8.3-8.3-8.3h0c-4.6,0-8.3,3.7-8.3,8.3l0,0
	C113,533.6,116.7,537.3,121.3,537.3z"/>
<path class="st1" d="M98.7,537.3L98.7,537.3c4.6,0,8.3-3.7,8.3-8.3l0,0c0-4.6-3.7-8.3-8.3-8.3h0c-4.6,0-8.3,3.7-8.3,8.3l0,0
	C90.4,533.6,94.1,537.3,98.7,537.3z"/>
<path class="st1" d="M76.1,537.3L76.1,537.3c4.6,0,8.3-3.7,8.3-8.3l0,0c0-4.6-3.7-8.3-8.3-8.3h0c-4.6,0-8.3,3.7-8.3,8.3l0,0
	C67.9,533.6,71.6,537.3,76.1,537.3z"/>
<path class="st1" d="M392.1,130.9L392.1,130.9c4.6,0,8.3-3.7,8.3-8.3v0c0-4.6-3.7-8.3-8.3-8.3h0c-4.6,0-8.3,3.7-8.3,8.3v0
	C383.8,127.1,387.6,130.9,392.1,130.9z"/>
<path class="st1" d="M369.6,130.9L369.6,130.9c4.6,0,8.3-3.7,8.3-8.3v0c0-4.6-3.7-8.3-8.3-8.3h0c-4.6,0-8.3,3.7-8.3,8.3v0
	C361.3,127.1,365,130.9,369.6,130.9z"/>
<path class="st1" d="M347,130.9L347,130.9c4.6,0,8.3-3.7,8.3-8.3v0c0-4.6-3.7-8.3-8.3-8.3l0,0c-4.6,0-8.3,3.7-8.3,8.3v0
	C338.7,127.1,342.4,130.9,347,130.9z"/>
<path class="st1" d="M324.4,130.9L324.4,130.9c4.6,0,8.3-3.7,8.3-8.3v0c0-4.6-3.7-8.3-8.3-8.3l0,0c-4.6,0-8.3,3.7-8.3,8.3v0
	C316.1,127.1,319.9,130.9,324.4,130.9z"/>
<path class="st1" d="M301.9,130.9L301.9,130.9c4.6,0,8.3-3.7,8.3-8.3v0c0-4.6-3.7-8.3-8.3-8.3h0c-4.6,0-8.3,3.7-8.3,8.3v0
	C293.6,127.1,297.3,130.9,301.9,130.9z"/>
<path class="st1" d="M279.3,130.9L279.3,130.9c4.6,0,8.3-3.7,8.3-8.3v0c0-4.6-3.7-8.3-8.3-8.3h0c-4.6,0-8.3,3.7-8.3,8.3v0
	C271,127.1,274.7,130.9,279.3,130.9z"/>
<path class="st1" d="M256.7,130.9L256.7,130.9c4.6,0,8.3-3.7,8.3-8.3v0c0-4.6-3.7-8.3-8.3-8.3l0,0c-4.6,0-8.3,3.7-8.3,8.3v0
	C248.4,127.1,252.2,130.9,256.7,130.9z"/>
<path class="st1" d="M234.1,130.9L234.1,130.9c4.6,0,8.3-3.7,8.3-8.3v0c0-4.6-3.7-8.3-8.3-8.3h0c-4.6,0-8.3,3.7-8.3,8.3v0
	C225.9,127.1,229.6,130.9,234.1,130.9z"/>
<path class="st1" d="M211.6,130.9L211.6,130.9c4.6,0,8.3-3.7,8.3-8.3v0c0-4.6-3.7-8.3-8.3-8.3h0c-4.6,0-8.3,3.7-8.3,8.3v0
	C203.3,127.1,207,130.9,211.6,130.9z"/>
<path class="st1" d="M189,130.9L189,130.9c4.6,0,8.3-3.7,8.3-8.3v0c0-4.6-3.7-8.3-8.3-8.3h0c-4.6,0-8.3,3.7-8.3,8.3v0
	C180.7,127.1,184.4,130.9,189,130.9z"/>
<path class="st1" d="M166.4,130.9L166.4,130.9c4.6,0,8.3-3.7,8.3-8.3v0c0-4.6-3.7-8.3-8.3-8.3h0c-4.6,0-8.3,3.7-8.3,8.3v0
	C158.1,127.1,161.9,130.9,166.4,130.9z"/>
<path class="st1" d="M143.9,130.9L143.9,130.9c4.6,0,8.3-3.7,8.3-8.3v0c0-4.6-3.7-8.3-8.3-8.3h0c-4.6,0-8.3,3.7-8.3,8.3v0
	C135.6,127.1,139.3,130.9,143.9,130.9z"/>
<path class="st1" d="M121.3,130.9L121.3,130.9c4.6,0,8.3-3.7,8.3-8.3v0c0-4.6-3.7-8.3-8.3-8.3h0c-4.6,0-8.3,3.7-8.3,8.3v0
	C113,127.1,116.7,130.9,121.3,130.9z"/>
<path class="st1" d="M98.7,130.9L98.7,130.9c4.6,0,8.3-3.7,8.3-8.3v0c0-4.6-3.7-8.3-8.3-8.3h0c-4.6,0-8.3,3.7-8.3,8.3v0
	C90.4,127.1,94.2,130.9,98.7,130.9z"/>
<path class="st1" d="M76.1,130.9L76.1,130.9c4.6,0,8.3-3.7,8.3-8.3v0c0-4.6-3.7-8.3-8.3-8.3h0c-4.6,0-8.3,3.7-8.3,8.3v0
	C67.9,127.1,71.6,130.9,76.1,130.9z"/>
<path class="st1" d="M53.6,130.9L53.6,130.9c4.6,0,8.3-3.7,8.3-8.3v0c0-4.6-3.7-8.3-8.3-8.3h0c-4.6,0-8.3,3.7-8.3,8.3v0
	C45.3,127.1,49,130.9,53.6,130.9z"/>
<path class="st1" d="M392.1,176L392.1,176c4.6,0,8.3-3.7,8.3-8.3v0c0-4.6-3.7-8.3-8.3-8.3h0c-4.6,0-8.3,3.7-8.3,8.3v0
	C383.8,172.3,387.6,176,392.1,176z"/>
<path class="st1" d="M369.5,176L369.5,176c4.6,0,8.3-3.7,8.3-8.3v0c0-4.6-3.7-8.3-8.3-8.3h0c-4.6,0-8.3,3.7-8.3,8.3v0
	C361.3,172.3,365,176,369.5,176z"/>
<path class="st1" d="M347,176L347,176c4.6,0,8.3-3.7,8.3-8.3v0c0-4.6-3.7-8.3-8.3-8.3l0,0c-4.6,0-8.3,3.7-8.3,8.3v0
	C338.7,172.3,342.4,176,347,176z"/>
<path class="st1" d="M324.4,176L324.4,176c4.6,0,8.3-3.7,8.3-8.3v0c0-4.6-3.7-8.3-8.3-8.3l0,0c-4.6,0-8.3,3.7-8.3,8.3v0
	C316.1,172.3,319.8,176,324.4,176z"/>
<path class="st1" d="M301.8,176L301.8,176c4.6,0,8.3-3.7,8.3-8.3v0c0-4.6-3.7-8.3-8.3-8.3h0c-4.6,0-8.3,3.7-8.3,8.3v0
	C293.5,172.3,297.3,176,301.8,176z"/>
<path class="st1" d="M279.3,176L279.3,176c4.6,0,8.3-3.7,8.3-8.3v0c0-4.6-3.7-8.3-8.3-8.3h0c-4.6,0-8.3,3.7-8.3,8.3v0
	C271,172.3,274.7,176,279.3,176z"/>
<path class="st1" d="M256.7,176L256.7,176c4.6,0,8.3-3.7,8.3-8.3v0c0-4.6-3.7-8.3-8.3-8.3l0,0c-4.6,0-8.3,3.7-8.3,8.3v0
	C248.4,172.3,252.1,176,256.7,176z"/>
<path class="st1" d="M234.1,176L234.1,176c4.6,0,8.3-3.7,8.3-8.3v0c0-4.6-3.7-8.3-8.3-8.3h0c-4.6,0-8.3,3.7-8.3,8.3v0
	C225.8,172.3,229.6,176,234.1,176z"/>
<path class="st1" d="M211.5,176L211.5,176c4.6,0,8.3-3.7,8.3-8.3v0c0-4.6-3.7-8.3-8.3-8.3h0c-4.6,0-8.3,3.7-8.3,8.3v0
	C203.3,172.3,207,176,211.5,176z"/>
<path class="st1" d="M189,176L189,176c4.6,0,8.3-3.7,8.3-8.3v0c0-4.6-3.7-8.3-8.3-8.3h0c-4.6,0-8.3,3.7-8.3,8.3v0
	C180.7,172.3,184.4,176,189,176z"/>
<path class="st1" d="M166.4,176L166.4,176c4.6,0,8.3-3.7,8.3-8.3v0c0-4.6-3.7-8.3-8.3-8.3h0c-4.6,0-8.3,3.7-8.3,8.3v0
	C158.1,172.3,161.9,176,166.4,176z"/>
<path class="st1" d="M143.8,176L143.8,176c4.6,0,8.3-3.7,8.3-8.3v0c0-4.6-3.7-8.3-8.3-8.3h0c-4.6,0-8.3,3.7-8.3,8.3v0
	C135.6,172.3,139.3,176,143.8,176z"/>
<path class="st1" d="M369.6,221.1L369.6,221.1c4.6,0,8.3-3.7,8.3-8.3v0c0-4.6-3.7-8.3-8.3-8.3h0c-4.6,0-8.3,3.7-8.3,8.3v0
	C361.3,217.4,365,221.1,369.6,221.1z"/>
<path class="st1" d="M347,221.1L347,221.1c4.6,0,8.3-3.7,8.3-8.3v0c0-4.6-3.7-8.3-8.3-8.3h0c-4.6,0-8.3,3.7-8.3,8.3v0
	C338.7,217.4,342.4,221.1,347,221.1z"/>
<path class="st1" d="M324.4,221.1L324.4,221.1c4.6,0,8.3-3.7,8.3-8.3v0c0-4.6-3.7-8.3-8.3-8.3l0,0c-4.6,0-8.3,3.7-8.3,8.3v0
	C316.1,217.4,319.9,221.1,324.4,221.1z"/>
<path class="st1" d="M301.9,221.1L301.9,221.1c4.6,0,8.3-3.7,8.3-8.3v0c0-4.6-3.7-8.3-8.3-8.3l0,0c-4.6,0-8.3,3.7-8.3,8.3v0
	C293.6,217.4,297.3,221.1,301.9,221.1z"/>
<path class="st1" d="M279.3,221.1L279.3,221.1c4.6,0,8.3-3.7,8.3-8.3v0c0-4.6-3.7-8.3-8.3-8.3l0,0c-4.6,0-8.3,3.7-8.3,8.3v0
	C271,217.4,274.7,221.1,279.3,221.1z"/>
<path class="st1" d="M256.7,221.1L256.7,221.1c4.6,0,8.3-3.7,8.3-8.3v0c0-4.6-3.7-8.3-8.3-8.3h0c-4.6,0-8.3,3.7-8.3,8.3v0
	C248.4,217.4,252.2,221.1,256.7,221.1z"/>
<path class="st1" d="M234.1,221.1L234.1,221.1c4.6,0,8.3-3.7,8.3-8.3v0c0-4.6-3.7-8.3-8.3-8.3h0c-4.6,0-8.3,3.7-8.3,8.3v0
	C225.9,217.4,229.6,221.1,234.1,221.1z"/>
<path class="st1" d="M211.6,221.1L211.6,221.1c4.6,0,8.3-3.7,8.3-8.3v0c0-4.6-3.7-8.3-8.3-8.3h0c-4.6,0-8.3,3.7-8.3,8.3v0
	C203.3,217.4,207,221.1,211.6,221.1z"/>
<path class="st1" d="M189,221.1L189,221.1c4.6,0,8.3-3.7,8.3-8.3v0c0-4.6-3.7-8.3-8.3-8.3h0c-4.6,0-8.3,3.7-8.3,8.3v0
	C180.7,217.4,184.4,221.1,189,221.1z"/>
<path class="st1" d="M166.4,221.1L166.4,221.1c4.6,0,8.3-3.7,8.3-8.3v0c0-4.6-3.7-8.3-8.3-8.3h0c-4.6,0-8.3,3.7-8.3,8.3v0
	C158.2,217.4,161.9,221.1,166.4,221.1z"/>
<path class="st1" d="M143.9,221.1L143.9,221.1c4.6,0,8.3-3.7,8.3-8.3v0c0-4.6-3.7-8.3-8.3-8.3h0c-4.6,0-8.3,3.7-8.3,8.3v0
	C135.6,217.4,139.3,221.1,143.9,221.1z"/>
<path class="st1" d="M369.6,198.6L369.6,198.6c4.6,0,8.3-3.7,8.3-8.3v0c0-4.6-3.7-8.3-8.3-8.3h0c-4.6,0-8.3,3.7-8.3,8.3v0
	C361.3,194.8,365,198.6,369.6,198.6z"/>
<path class="st1" d="M347,198.6L347,198.6c4.6,0,8.3-3.7,8.3-8.3v0c0-4.6-3.7-8.3-8.3-8.3h0c-4.6,0-8.3,3.7-8.3,8.3v0
	C338.7,194.8,342.4,198.6,347,198.6z"/>
<path class="st1" d="M324.4,198.6L324.4,198.6c4.6,0,8.3-3.7,8.3-8.3v0c0-4.6-3.7-8.3-8.3-8.3l0,0c-4.6,0-8.3,3.7-8.3,8.3v0
	C316.1,194.8,319.9,198.6,324.4,198.6z"/>
<path class="st1" d="M301.9,198.6L301.9,198.6c4.6,0,8.3-3.7,8.3-8.3v0c0-4.6-3.7-8.3-8.3-8.3l0,0c-4.6,0-8.3,3.7-8.3,8.3v0
	C293.6,194.8,297.3,198.6,301.9,198.6z"/>
<path class="st1" d="M279.3,198.6L279.3,198.6c4.6,0,8.3-3.7,8.3-8.3v0c0-4.6-3.7-8.3-8.3-8.3l0,0c-4.6,0-8.3,3.7-8.3,8.3v0
	C271,194.8,274.7,198.6,279.3,198.6z"/>
<path class="st1" d="M256.7,198.6L256.7,198.6c4.6,0,8.3-3.7,8.3-8.3v0c0-4.6-3.7-8.3-8.3-8.3h0c-4.6,0-8.3,3.7-8.3,8.3v0
	C248.4,194.8,252.2,198.6,256.7,198.6z"/>
<path class="st1" d="M234.1,198.6L234.1,198.6c4.6,0,8.3-3.7,8.3-8.3v0c0-4.6-3.7-8.3-8.3-8.3h0c-4.6,0-8.3,3.7-8.3,8.3v0
	C225.9,194.8,229.6,198.6,234.1,198.6z"/>
<path class="st1" d="M211.6,198.6L211.6,198.6c4.6,0,8.3-3.7,8.3-8.3v0c0-4.6-3.7-8.3-8.3-8.3h0c-4.6,0-8.3,3.7-8.3,8.3v0
	C203.3,194.8,207,198.6,211.6,198.6z"/>
<path class="st1" d="M189,198.6L189,198.6c4.6,0,8.3-3.7,8.3-8.3v0c0-4.6-3.7-8.3-8.3-8.3h0c-4.6,0-8.3,3.7-8.3,8.3v0
	C180.7,194.8,184.4,198.6,189,198.6z"/>
<path class="st1" d="M166.4,198.6L166.4,198.6c4.6,0,8.3-3.7,8.3-8.3v0c0-4.6-3.7-8.3-8.3-8.3h0c-4.6,0-8.3,3.7-8.3,8.3v0
	C158.2,194.8,161.9,198.6,166.4,198.6z"/>
<path class="st1" d="M143.9,198.6L143.9,198.6c4.6,0,8.3-3.7,8.3-8.3v0c0-4.6-3.7-8.3-8.3-8.3h0c-4.6,0-8.3,3.7-8.3,8.3v0
	C135.6,194.8,139.3,198.6,143.9,198.6z"/>
<path class="st1" d="M324.4,243.7L324.4,243.7c4.6,0,8.3-3.7,8.3-8.3v0c0-4.6-3.7-8.3-8.3-8.3l0,0c-4.6,0-8.3,3.7-8.3,8.3v0
	C316.1,240,319.8,243.7,324.4,243.7z"/>
<path class="st1" d="M301.8,243.7L301.8,243.7c4.6,0,8.3-3.7,8.3-8.3v0c0-4.6-3.7-8.3-8.3-8.3h0c-4.6,0-8.3,3.7-8.3,8.3v0
	C293.5,240,297.3,243.7,301.8,243.7z"/>
<path class="st1" d="M279.3,243.7L279.3,243.7c4.6,0,8.3-3.7,8.3-8.3v0c0-4.6-3.7-8.3-8.3-8.3h0c-4.6,0-8.3,3.7-8.3,8.3v0
	C271,240,274.7,243.7,279.3,243.7z"/>
<path class="st1" d="M256.7,243.7L256.7,243.7c4.6,0,8.3-3.7,8.3-8.3v0c0-4.6-3.7-8.3-8.3-8.3l0,0c-4.6,0-8.3,3.7-8.3,8.3v0
	C248.4,240,252.1,243.7,256.7,243.7z"/>
<path class="st1" d="M234.1,243.7L234.1,243.7c4.6,0,8.3-3.7,8.3-8.3v0c0-4.6-3.7-8.3-8.3-8.3h0c-4.6,0-8.3,3.7-8.3,8.3v0
	C225.8,240,229.6,243.7,234.1,243.7z"/>
<path class="st1" d="M211.5,243.7L211.5,243.7c4.6,0,8.3-3.7,8.3-8.3v0c0-4.6-3.7-8.3-8.3-8.3h0c-4.6,0-8.3,3.7-8.3,8.3v0
	C203.3,240,207,243.7,211.5,243.7z"/>
<path class="st1" d="M189,243.7L189,243.7c4.6,0,8.3-3.7,8.3-8.3v0c0-4.6-3.7-8.3-8.3-8.3h0c-4.6,0-8.3,3.7-8.3,8.3v0
	C180.7,240,184.4,243.7,189,243.7z"/>
<path class="st1" d="M166.4,243.7L166.4,243.7c4.6,0,8.3-3.7,8.3-8.3v0c0-4.6-3.7-8.3-8.3-8.3h0c-4.6,0-8.3,3.7-8.3,8.3v0
	C158.1,240,161.9,243.7,166.4,243.7z"/>
<path class="st1" d="M143.8,243.7L143.8,243.7c4.6,0,8.3-3.7,8.3-8.3v0c0-4.6-3.7-8.3-8.3-8.3h0c-4.6,0-8.3,3.7-8.3,8.3v0
	C135.6,240,139.3,243.7,143.8,243.7z"/>
<path class="st1" d="M301.9,288.8L301.9,288.8c4.6,0,8.3-3.7,8.3-8.3v0c0-4.6-3.7-8.3-8.3-8.3l0,0c-4.6,0-8.3,3.7-8.3,8.3v0
	C293.6,285.1,297.3,288.8,301.9,288.8z"/>
<path class="st1" d="M279.3,288.8L279.3,288.8c4.6,0,8.3-3.7,8.3-8.3v0c0-4.6-3.7-8.3-8.3-8.3l0,0c-4.6,0-8.3,3.7-8.3,8.3v0
	C271,285.1,274.7,288.8,279.3,288.8z"/>
<path class="st1" d="M256.7,288.8L256.7,288.8c4.6,0,8.3-3.7,8.3-8.3v0c0-4.6-3.7-8.3-8.3-8.3h0c-4.6,0-8.3,3.7-8.3,8.3v0
	C248.4,285.1,252.2,288.8,256.7,288.8z"/>
<path class="st1" d="M234.1,288.8L234.1,288.8c4.6,0,8.3-3.7,8.3-8.3v0c0-4.6-3.7-8.3-8.3-8.3h0c-4.6,0-8.3,3.7-8.3,8.3v0
	C225.9,285.1,229.6,288.8,234.1,288.8z"/>
<path class="st1" d="M211.6,288.8L211.6,288.8c4.6,0,8.3-3.7,8.3-8.3v0c0-4.6-3.7-8.3-8.3-8.3h0c-4.6,0-8.3,3.7-8.3,8.3v0
	C203.3,285.1,207,288.8,211.6,288.8z"/>
<path class="st1" d="M189,288.8L189,288.8c4.6,0,8.3-3.7,8.3-8.3v0c0-4.6-3.7-8.3-8.3-8.3h0c-4.6,0-8.3,3.7-8.3,8.3v0
	C180.7,285.1,184.4,288.8,189,288.8z"/>
<path class="st1" d="M166.4,288.8L166.4,288.8c4.6,0,8.3-3.7,8.3-8.3v0c0-4.6-3.7-8.3-8.3-8.3h0c-4.6,0-8.3,3.7-8.3,8.3v0
	C158.2,285.1,161.9,288.8,166.4,288.8z"/>
<path class="st1" d="M143.9,288.8L143.9,288.8c4.6,0,8.3-3.7,8.3-8.3v0c0-4.6-3.7-8.3-8.3-8.3h0c-4.6,0-8.3,3.7-8.3,8.3v0
	C135.6,285.1,139.3,288.8,143.9,288.8z"/>
<path class="st1" d="M324.4,266.3L324.4,266.3c4.6,0,8.3-3.7,8.3-8.3l0,0c0-4.6-3.7-8.3-8.3-8.3l0,0c-4.6,0-8.3,3.7-8.3,8.3l0,0
	C316.1,262.5,319.9,266.3,324.4,266.3z"/>
<path class="st1" d="M301.9,266.3L301.9,266.3c4.6,0,8.3-3.7,8.3-8.3l0,0c0-4.6-3.7-8.3-8.3-8.3l0,0c-4.6,0-8.3,3.7-8.3,8.3l0,0
	C293.6,262.5,297.3,266.3,301.9,266.3z"/>
<path class="st1" d="M279.3,266.3L279.3,266.3c4.6,0,8.3-3.7,8.3-8.3l0,0c0-4.6-3.7-8.3-8.3-8.3l0,0c-4.6,0-8.3,3.7-8.3,8.3l0,0
	C271,262.5,274.7,266.3,279.3,266.3z"/>
<path class="st1" d="M256.7,266.3L256.7,266.3c4.6,0,8.3-3.7,8.3-8.3l0,0c0-4.6-3.7-8.3-8.3-8.3h0c-4.6,0-8.3,3.7-8.3,8.3l0,0
	C248.4,262.5,252.2,266.3,256.7,266.3z"/>
<path class="st1" d="M234.1,266.3L234.1,266.3c4.6,0,8.3-3.7,8.3-8.3l0,0c0-4.6-3.7-8.3-8.3-8.3h0c-4.6,0-8.3,3.7-8.3,8.3l0,0
	C225.9,262.5,229.6,266.3,234.1,266.3z"/>
<path class="st1" d="M211.6,266.3L211.6,266.3c4.6,0,8.3-3.7,8.3-8.3l0,0c0-4.6-3.7-8.3-8.3-8.3h0c-4.6,0-8.3,3.7-8.3,8.3l0,0
	C203.3,262.5,207,266.3,211.6,266.3z"/>
<path class="st1" d="M189,266.3L189,266.3c4.6,0,8.3-3.7,8.3-8.3l0,0c0-4.6-3.7-8.3-8.3-8.3h0c-4.6,0-8.3,3.7-8.3,8.3l0,0
	C180.7,262.5,184.4,266.3,189,266.3z"/>
<path class="st1" d="M166.4,266.3L166.4,266.3c4.6,0,8.3-3.7,8.3-8.3l0,0c0-4.6-3.7-8.3-8.3-8.3h0c-4.6,0-8.3,3.7-8.3,8.3l0,0
	C158.2,262.5,161.9,266.3,166.4,266.3z"/>
<path class="st1" d="M143.9,266.3L143.9,266.3c4.6,0,8.3-3.7,8.3-8.3l0,0c0-4.6-3.7-8.3-8.3-8.3h0c-4.6,0-8.3,3.7-8.3,8.3l0,0
	C135.6,262.5,139.3,266.3,143.9,266.3z"/>
<path class="st1" d="M279.2,469.6L279.2,469.6c4.6,0,8.3-3.7,8.3-8.3v0c0-4.6-3.7-8.3-8.3-8.3h0c-4.6,0-8.3,3.7-8.3,8.3v0
	C271,465.9,274.7,469.6,279.2,469.6z"/>
<path class="st1" d="M256.7,469.6L256.7,469.6c4.6,0,8.3-3.7,8.3-8.3v0c0-4.6-3.7-8.3-8.3-8.3l0,0c-4.6,0-8.3,3.7-8.3,8.3v0
	C248.4,465.9,252.1,469.6,256.7,469.6z"/>
<path class="st1" d="M234.1,469.6L234.1,469.6c4.6,0,8.3-3.7,8.3-8.3v0c0-4.6-3.7-8.3-8.3-8.3h0c-4.6,0-8.3,3.7-8.3,8.3v0
	C225.8,465.9,229.5,469.6,234.1,469.6z"/>
<path class="st1" d="M211.5,469.6L211.5,469.6c4.6,0,8.3-3.7,8.3-8.3v0c0-4.6-3.7-8.3-8.3-8.3h0c-4.6,0-8.3,3.7-8.3,8.3v0
	C203.2,465.9,207,469.6,211.5,469.6z"/>
<path class="st1" d="M189,469.6L189,469.6c4.6,0,8.3-3.7,8.3-8.3v0c0-4.6-3.7-8.3-8.3-8.3h0c-4.6,0-8.3,3.7-8.3,8.3v0
	C180.7,465.9,184.4,469.6,189,469.6z"/>
<path class="st1" d="M166.4,469.6L166.4,469.6c4.6,0,8.3-3.7,8.3-8.3v0c0-4.6-3.7-8.3-8.3-8.3h0c-4.6,0-8.3,3.7-8.3,8.3v0
	C158.1,465.9,161.8,469.6,166.4,469.6z"/>
<path class="st1" d="M143.8,469.6L143.8,469.6c4.6,0,8.3-3.7,8.3-8.3v0c0-4.6-3.7-8.3-8.3-8.3h0c-4.6,0-8.3,3.7-8.3,8.3v0
	C135.5,465.9,139.3,469.6,143.8,469.6z"/>
<path class="st1" d="M189,514.8L189,514.8c4.6,0,8.3-3.7,8.3-8.3v0c0-4.6-3.7-8.3-8.3-8.3h0c-4.6,0-8.3,3.7-8.3,8.3v0
	C180.7,511,184.4,514.8,189,514.8z"/>
<path class="st1" d="M166.4,514.8L166.4,514.8c4.6,0,8.3-3.7,8.3-8.3v0c0-4.6-3.7-8.3-8.3-8.3h0c-4.6,0-8.3,3.7-8.3,8.3v0
	C158.1,511,161.9,514.8,166.4,514.8z"/>
<path class="st1" d="M143.8,514.8L143.8,514.8c4.6,0,8.3-3.7,8.3-8.3v0c0-4.6-3.7-8.3-8.3-8.3h0c-4.6,0-8.3,3.7-8.3,8.3v0
	C135.6,511,139.3,514.8,143.8,514.8z"/>
<path class="st1" d="M234.1,492.2L234.1,492.2c4.6,0,8.3-3.7,8.3-8.3v0c0-4.6-3.7-8.3-8.3-8.3h0c-4.6,0-8.3,3.7-8.3,8.3v0
	C225.8,488.5,229.6,492.2,234.1,492.2z"/>
<path class="st1" d="M211.6,492.2L211.6,492.2c4.6,0,8.3-3.7,8.3-8.3v0c0-4.6-3.7-8.3-8.3-8.3h0c-4.6,0-8.3,3.7-8.3,8.3v0
	C203.3,488.5,207,492.2,211.6,492.2z"/>
<path class="st1" d="M189,492.2L189,492.2c4.6,0,8.3-3.7,8.3-8.3v0c0-4.6-3.7-8.3-8.3-8.3h0c-4.6,0-8.3,3.7-8.3,8.3v0
	C180.7,488.5,184.4,492.2,189,492.2z"/>
<path class="st1" d="M166.4,492.2L166.4,492.2c4.6,0,8.3-3.7,8.3-8.3v0c0-4.6-3.7-8.3-8.3-8.3h0c-4.6,0-8.3,3.7-8.3,8.3v0
	C158.1,488.5,161.9,492.2,166.4,492.2z"/>
<path class="st1" d="M143.8,492.2L143.8,492.2c4.6,0,8.3-3.7,8.3-8.3v0c0-4.6-3.7-8.3-8.3-8.3h0c-4.6,0-8.3,3.7-8.3,8.3v0
	C135.6,488.5,139.3,492.2,143.8,492.2z"/>
<path class="st1" d="M301.9,311.5L301.9,311.5c4.6,0,8.3-3.7,8.3-8.3v0c0-4.6-3.7-8.3-8.3-8.3l0,0c-4.6,0-8.3,3.7-8.3,8.3v0
	C293.6,307.7,297.3,311.5,301.9,311.5z"/>
<path class="st1" d="M279.3,311.5L279.3,311.5c4.6,0,8.3-3.7,8.3-8.3v0c0-4.6-3.7-8.3-8.3-8.3l0,0c-4.6,0-8.3,3.7-8.3,8.3v0
	C271,307.7,274.7,311.5,279.3,311.5z"/>
<path class="st1" d="M256.7,311.5L256.7,311.5c4.6,0,8.3-3.7,8.3-8.3v0c0-4.6-3.7-8.3-8.3-8.3h0c-4.6,0-8.3,3.7-8.3,8.3v0
	C248.4,307.7,252.2,311.5,256.7,311.5z"/>
<path class="st1" d="M234.1,311.5L234.1,311.5c4.6,0,8.3-3.7,8.3-8.3v0c0-4.6-3.7-8.3-8.3-8.3h0c-4.6,0-8.3,3.7-8.3,8.3v0
	C225.9,307.7,229.6,311.5,234.1,311.5z"/>
<path class="st1" d="M211.6,311.5L211.6,311.5c4.6,0,8.3-3.7,8.3-8.3v0c0-4.6-3.7-8.3-8.3-8.3h0c-4.6,0-8.3,3.7-8.3,8.3v0
	C203.3,307.7,207,311.5,211.6,311.5z"/>
<path class="st1" d="M189,311.5L189,311.5c4.6,0,8.3-3.7,8.3-8.3v0c0-4.6-3.7-8.3-8.3-8.3h0c-4.6,0-8.3,3.7-8.3,8.3v0
	C180.7,307.7,184.4,311.5,189,311.5z"/>
<path class="st1" d="M166.4,311.5L166.4,311.5c4.6,0,8.3-3.7,8.3-8.3v0c0-4.6-3.7-8.3-8.3-8.3h0c-4.6,0-8.3,3.7-8.3,8.3v0
	C158.2,307.7,161.9,311.5,166.4,311.5z"/>
<path class="st1" d="M143.9,311.5L143.9,311.5c4.6,0,8.3-3.7,8.3-8.3v0c0-4.6-3.7-8.3-8.3-8.3h0c-4.6,0-8.3,3.7-8.3,8.3v0
	C135.6,307.7,139.3,311.5,143.9,311.5z"/>
<path class="st1" d="M121.2,176L121.2,176c4.6,0,8.3-3.7,8.3-8.3v0c0-4.6-3.7-8.3-8.3-8.3h0c-4.6,0-8.3,3.7-8.3,8.3v0
	C113,172.3,116.7,176,121.2,176z"/>
<path class="st1" d="M121.3,221.1L121.3,221.1c4.6,0,8.3-3.7,8.3-8.3v0c0-4.6-3.7-8.3-8.3-8.3h0c-4.6,0-8.3,3.7-8.3,8.3v0
	C113,217.4,116.7,221.1,121.3,221.1z"/>
<path class="st1" d="M121.3,198.6L121.3,198.6c4.6,0,8.3-3.7,8.3-8.3v0c0-4.6-3.7-8.3-8.3-8.3h0c-4.6,0-8.3,3.7-8.3,8.3v0
	C113,194.8,116.7,198.6,121.3,198.6z"/>
<path class="st1" d="M121.2,243.7L121.2,243.7c4.6,0,8.3-3.7,8.3-8.3v0c0-4.6-3.7-8.3-8.3-8.3h0c-4.6,0-8.3,3.7-8.3,8.3v0
	C113,240,116.7,243.7,121.2,243.7z"/>
<path class="st1" d="M121.3,288.8L121.3,288.8c4.6,0,8.3-3.7,8.3-8.3v0c0-4.6-3.7-8.3-8.3-8.3h0c-4.6,0-8.3,3.7-8.3,8.3v0
	C113,285.1,116.7,288.8,121.3,288.8z"/>
<path class="st1" d="M121.3,266.3L121.3,266.3c4.6,0,8.3-3.7,8.3-8.3l0,0c0-4.6-3.7-8.3-8.3-8.3h0c-4.6,0-8.3,3.7-8.3,8.3l0,0
	C113,262.5,116.7,266.3,121.3,266.3z"/>
<path class="st1" d="M121.3,311.5L121.3,311.5c4.6,0,8.3-3.7,8.3-8.3v0c0-4.6-3.7-8.3-8.3-8.3h0c-4.6,0-8.3,3.7-8.3,8.3v0
	C113,307.7,116.7,311.5,121.3,311.5z"/>
<path class="st1" d="M98.7,176L98.7,176c4.6,0,8.3-3.7,8.3-8.3v0c0-4.6-3.7-8.3-8.3-8.3h0c-4.6,0-8.3,3.7-8.3,8.3v0
	C90.4,172.3,94.2,176,98.7,176z"/>
<path class="st1" d="M98.7,221.1L98.7,221.1c4.6,0,8.3-3.7,8.3-8.3v0c0-4.6-3.7-8.3-8.3-8.3h0c-4.6,0-8.3,3.7-8.3,8.3v0
	C90.5,217.4,94.2,221.1,98.7,221.1z"/>
<path class="st1" d="M98.7,198.6L98.7,198.6c4.6,0,8.3-3.7,8.3-8.3v0c0-4.6-3.7-8.3-8.3-8.3h0c-4.6,0-8.3,3.7-8.3,8.3v0
	C90.5,194.8,94.2,198.6,98.7,198.6z"/>
<path class="st1" d="M98.7,243.7L98.7,243.7c4.6,0,8.3-3.7,8.3-8.3v0c0-4.6-3.7-8.3-8.3-8.3h0c-4.6,0-8.3,3.7-8.3,8.3v0
	C90.4,240,94.2,243.7,98.7,243.7z"/>
<path class="st1" d="M98.7,288.8L98.7,288.8c4.6,0,8.3-3.7,8.3-8.3v0c0-4.6-3.7-8.3-8.3-8.3h0c-4.6,0-8.3,3.7-8.3,8.3v0
	C90.5,285.1,94.2,288.8,98.7,288.8z"/>
<path class="st1" d="M98.7,266.3L98.7,266.3c4.6,0,8.3-3.7,8.3-8.3l0,0c0-4.6-3.7-8.3-8.3-8.3h0c-4.6,0-8.3,3.7-8.3,8.3l0,0
	C90.5,262.5,94.2,266.3,98.7,266.3z"/>
<path class="st1" d="M98.7,311.5L98.7,311.5c4.6,0,8.3-3.7,8.3-8.3v0c0-4.6-3.7-8.3-8.3-8.3h0c-4.6,0-8.3,3.7-8.3,8.3v0
	C90.5,307.7,94.2,311.5,98.7,311.5z"/>
<path class="st1" d="M76.1,176L76.1,176c4.6,0,8.3-3.7,8.3-8.3v0c0-4.6-3.7-8.3-8.3-8.3h0c-4.6,0-8.3,3.7-8.3,8.3v0
	C67.9,172.3,71.6,176,76.1,176z"/>
<path class="st1" d="M76.2,221.1L76.2,221.1c4.6,0,8.3-3.7,8.3-8.3v0c0-4.6-3.7-8.3-8.3-8.3h0c-4.6,0-8.3,3.7-8.3,8.3v0
	C67.9,217.4,71.6,221.1,76.2,221.1z"/>
<path class="st1" d="M76.2,198.6L76.2,198.6c4.6,0,8.3-3.7,8.3-8.3v0c0-4.6-3.7-8.3-8.3-8.3h0c-4.6,0-8.3,3.7-8.3,8.3v0
	C67.9,194.8,71.6,198.6,76.2,198.6z"/>
<path class="st1" d="M76.1,243.7L76.1,243.7c4.6,0,8.3-3.7,8.3-8.3v0c0-4.6-3.7-8.3-8.3-8.3h0c-4.6,0-8.3,3.7-8.3,8.3v0
	C67.9,240,71.6,243.7,76.1,243.7z"/>
<path class="st1" d="M53.5,176L53.5,176c4.6,0,8.3-3.7,8.3-8.3v0c0-4.6-3.7-8.3-8.3-8.3h0c-4.6,0-8.3,3.7-8.3,8.3v0
	C45.2,172.3,48.9,176,53.5,176z"/>
<path class="st1" d="M53.5,221.1L53.5,221.1c4.6,0,8.3-3.7,8.3-8.3v0c0-4.6-3.7-8.3-8.3-8.3h0c-4.6,0-8.3,3.7-8.3,8.3v0
	C45.2,217.4,48.9,221.1,53.5,221.1z"/>
<path class="st1" d="M53.5,198.6L53.5,198.6c4.6,0,8.3-3.7,8.3-8.3v0c0-4.6-3.7-8.3-8.3-8.3h0c-4.6,0-8.3,3.7-8.3,8.3v0
	C45.2,194.8,48.9,198.6,53.5,198.6z"/>
<path class="st1" d="M53.5,243.7L53.5,243.7c4.6,0,8.3-3.7,8.3-8.3v0c0-4.6-3.7-8.3-8.3-8.3h0c-4.6,0-8.3,3.7-8.3,8.3v0
	C45.2,240,48.9,243.7,53.5,243.7z"/>
<path class="st1" d="M53.5,492L53.5,492c4.6,0,8.3-3.7,8.3-8.3v0c0-4.6-3.7-8.3-8.3-8.3h0c-4.6,0-8.3,3.7-8.3,8.3v0
	C45.2,488.3,48.9,492,53.5,492z"/>
<path class="st1" d="M53.5,469.4L53.5,469.4c4.6,0,8.3-3.7,8.3-8.3v0c0-4.6-3.7-8.3-8.3-8.3h0c-4.6,0-8.3,3.7-8.3,8.3v0
	C45.2,465.7,48.9,469.4,53.5,469.4z"/>
<path class="st1" d="M53.5,514.6L53.5,514.6c4.6,0,8.3-3.7,8.3-8.3l0,0c0-4.6-3.7-8.3-8.3-8.3h0c-4.6,0-8.3,3.7-8.3,8.3l0,0
	C45.2,510.9,48.9,514.6,53.5,514.6z"/>
<path class="st1" d="M53.5,537.3L53.5,537.3c4.6,0,8.3-3.7,8.3-8.3l0,0c0-4.6-3.7-8.3-8.3-8.3h0c-4.6,0-8.3,3.7-8.3,8.3l0,0
	C45.2,533.6,48.9,537.3,53.5,537.3z"/>
<path class="st1" d="M31,108.3L31,108.3c4.6,0,8.3-3.7,8.3-8.3v0c0-4.6-3.7-8.3-8.3-8.3h0c-4.6,0-8.3,3.7-8.3,8.3v0
	C22.7,104.6,26.5,108.3,31,108.3z"/>
<path class="st1" d="M8.4,108.3L8.4,108.3c4.6,0,8.3-3.7,8.3-8.3v0c0-4.6-3.7-8.3-8.3-8.3h0c-4.6,0-8.3,3.7-8.3,8.3v0
	C0.2,104.6,3.9,108.3,8.4,108.3z"/>
<path class="st1" d="M31,85.7L31,85.7c4.6,0,8.3-3.7,8.3-8.3v0c0-4.6-3.7-8.3-8.3-8.3h0c-4.6,0-8.3,3.7-8.3,8.3v0
	C22.7,82,26.5,85.7,31,85.7z"/>
<path class="st1" d="M8.4,85.7L8.4,85.7c4.6,0,8.3-3.7,8.3-8.3v0c0-4.6-3.7-8.3-8.3-8.3h0c-4.6,0-8.3,3.7-8.3,8.3v0
	C0.2,82,3.9,85.7,8.4,85.7z"/>
<path class="st1" d="M392.2,63.1L392.2,63.1c4.6,0,8.3-3.7,8.3-8.3v0c0-4.6-3.7-8.3-8.3-8.3l0,0c-4.6,0-8.3,3.7-8.3,8.3v0
	C383.9,59.4,387.6,63.1,392.2,63.1z"/>
<path class="st1" d="M369.6,63.1L369.6,63.1c4.6,0,8.3-3.7,8.3-8.3v0c0-4.6-3.7-8.3-8.3-8.3h0c-4.6,0-8.3,3.7-8.3,8.3v0
	C361.3,59.4,365,63.1,369.6,63.1z"/>
<path class="st1" d="M347,63.1L347,63.1c4.6,0,8.3-3.7,8.3-8.3v0c0-4.6-3.7-8.3-8.3-8.3h0c-4.6,0-8.3,3.7-8.3,8.3v0
	C338.7,59.4,342.5,63.1,347,63.1z"/>
<path class="st1" d="M324.4,63.1L324.4,63.1c4.6,0,8.3-3.7,8.3-8.3v0c0-4.6-3.7-8.3-8.3-8.3h0c-4.6,0-8.3,3.7-8.3,8.3v0
	C316.2,59.4,319.9,63.1,324.4,63.1z"/>
<path class="st1" d="M414.5,108.3L414.5,108.3c4.6,0,8.3-3.7,8.3-8.3v0c0-4.6-3.7-8.3-8.3-8.3h0c-4.6,0-8.3,3.7-8.3,8.3v0
	C406.3,104.6,410,108.3,414.5,108.3z"/>
<path class="st1" d="M437.1,85.7L437.1,85.7c4.6,0,8.3-3.7,8.3-8.3v0c0-4.6-3.7-8.3-8.3-8.3h0c-4.6,0-8.3,3.7-8.3,8.3v0
	C428.8,82,432.6,85.7,437.1,85.7z"/>
<path class="st1" d="M414.5,85.7L414.5,85.7c4.6,0,8.3-3.7,8.3-8.3v0c0-4.6-3.7-8.3-8.3-8.3h0c-4.6,0-8.3,3.7-8.3,8.3v0
	C406.3,82,410,85.7,414.5,85.7z"/>
<path class="st1" d="M414.5,130.9L414.5,130.9c4.6,0,8.3-3.7,8.3-8.3v0c0-4.6-3.7-8.3-8.3-8.3l0,0c-4.6,0-8.3,3.7-8.3,8.3v0
	C406.2,127.1,410,130.9,414.5,130.9z"/>
<path class="st1" d="M437.1,63.1L437.1,63.1c4.6,0,8.3-3.7,8.3-8.3v0c0-4.6-3.7-8.3-8.3-8.3h0c-4.6,0-8.3,3.7-8.3,8.3v0
	C428.8,59.4,432.6,63.1,437.1,63.1z"/>
<path class="st1" d="M414.5,63.1L414.5,63.1c4.6,0,8.3-3.7,8.3-8.3v0c0-4.6-3.7-8.3-8.3-8.3h0c-4.6,0-8.3,3.7-8.3,8.3v0
	C406.3,59.4,410,63.1,414.5,63.1z"/>
<path class="st1" d="M301.9,63.1L301.9,63.1c4.6,0,8.3-3.7,8.3-8.3v0c0-4.6-3.7-8.3-8.3-8.3l0,0c-4.6,0-8.3,3.7-8.3,8.3v0
	C293.6,59.4,297.3,63.1,301.9,63.1z"/>
<path class="st1" d="M279.3,63.1L279.3,63.1c4.6,0,8.3-3.7,8.3-8.3v0c0-4.6-3.7-8.3-8.3-8.3l0,0c-4.6,0-8.3,3.7-8.3,8.3v0
	C271,59.4,274.7,63.1,279.3,63.1z"/>
<path class="st1" d="M256.7,63.1L256.7,63.1c4.6,0,8.3-3.7,8.3-8.3v0c0-4.6-3.7-8.3-8.3-8.3h0c-4.6,0-8.3,3.7-8.3,8.3v0
	C248.5,59.4,252.2,63.1,256.7,63.1z"/>
<path class="st1" d="M234.2,63.1L234.2,63.1c4.6,0,8.3-3.7,8.3-8.3v0c0-4.6-3.7-8.3-8.3-8.3h0c-4.6,0-8.3,3.7-8.3,8.3v0
	C225.9,59.4,229.6,63.1,234.2,63.1z"/>
<path class="st1" d="M211.6,63.1L211.6,63.1c4.6,0,8.3-3.7,8.3-8.3v0c0-4.6-3.7-8.3-8.3-8.3h0c-4.6,0-8.3,3.7-8.3,8.3v0
	C203.3,59.4,207,63.1,211.6,63.1z"/>
<path class="st1" d="M189,63.1L189,63.1c4.6,0,8.3-3.7,8.3-8.3v0c0-4.6-3.7-8.3-8.3-8.3h0c-4.6,0-8.3,3.7-8.3,8.3v0
	C180.7,59.4,184.5,63.1,189,63.1z"/>
<path class="st1" d="M166.5,63.1L166.5,63.1c4.6,0,8.3-3.7,8.3-8.3v0c0-4.6-3.7-8.3-8.3-8.3h0c-4.6,0-8.3,3.7-8.3,8.3v0
	C158.2,59.4,161.9,63.1,166.5,63.1z"/>
<path class="st1" d="M143.9,63.1L143.9,63.1c4.6,0,8.3-3.7,8.3-8.3v0c0-4.6-3.7-8.3-8.3-8.3h0c-4.6,0-8.3,3.7-8.3,8.3v0
	C135.6,59.4,139.3,63.1,143.9,63.1z"/>
<path class="st1" d="M121.3,63.1L121.3,63.1c4.6,0,8.3-3.7,8.3-8.3v0c0-4.6-3.7-8.3-8.3-8.3h0c-4.6,0-8.3,3.7-8.3,8.3v0
	C113,59.4,116.8,63.1,121.3,63.1z"/>
<path class="st1" d="M98.7,63.1L98.7,63.1c4.6,0,8.3-3.7,8.3-8.3v0c0-4.6-3.7-8.3-8.3-8.3h0c-4.6,0-8.3,3.7-8.3,8.3v0
	C90.5,59.4,94.2,63.1,98.7,63.1z"/>
<path class="st1" d="M76.2,63.1L76.2,63.1c4.6,0,8.3-3.7,8.3-8.3v0c0-4.6-3.7-8.3-8.3-8.3h0c-4.6,0-8.3,3.7-8.3,8.3v0
	C67.9,59.4,71.6,63.1,76.2,63.1z"/>
<path class="st1" d="M53.6,63.1L53.6,63.1c4.6,0,8.3-3.7,8.3-8.3v0c0-4.6-3.7-8.3-8.3-8.3h0c-4.6,0-8.3,3.7-8.3,8.3v0
	C45.3,59.4,49,63.1,53.6,63.1z"/>
<path class="st1" d="M31,63.1L31,63.1c4.6,0,8.3-3.7,8.3-8.3v0c0-4.6-3.7-8.3-8.3-8.3h0c-4.6,0-8.3,3.7-8.3,8.3v0
	C22.7,59.4,26.5,63.1,31,63.1z"/>
<path class="st1" d="M8.4,63.1L8.4,63.1c4.6,0,8.3-3.7,8.3-8.3v0c0-4.6-3.7-8.3-8.3-8.3h0c-4.6,0-8.3,3.7-8.3,8.3v0
	C0.2,59.4,3.9,63.1,8.4,63.1z"/>
<path class="st1" d="M31,153.4L31,153.4c4.6,0,8.3-3.7,8.3-8.3v0c0-4.6-3.7-8.3-8.3-8.3h0c-4.6,0-8.3,3.7-8.3,8.3v0
	C22.7,149.7,26.4,153.4,31,153.4z"/>
<path class="st1" d="M8.4,153.4L8.4,153.4c4.6,0,8.3-3.7,8.3-8.3v0c0-4.6-3.7-8.3-8.3-8.3h0c-4.6,0-8.3,3.7-8.3,8.3v0
	C0.1,149.7,3.9,153.4,8.4,153.4z"/>
<path class="st1" d="M76.1,334L76.1,334c4.6,0,8.3-3.7,8.3-8.3l0,0c0-4.6-3.7-8.3-8.3-8.3h0c-4.6,0-8.3,3.7-8.3,8.3l0,0
	C67.8,330.3,71.6,334,76.1,334z"/>
<path class="st1" d="M53.6,334L53.6,334c4.6,0,8.3-3.7,8.3-8.3l0,0c0-4.6-3.7-8.3-8.3-8.3h0c-4.6,0-8.3,3.7-8.3,8.3l0,0
	C45.3,330.3,49,334,53.6,334z"/>
<path class="st1" d="M76.1,356.6L76.1,356.6c4.6,0,8.3-3.7,8.3-8.3v0c0-4.6-3.7-8.3-8.3-8.3h0c-4.6,0-8.3,3.7-8.3,8.3v0
	C67.8,352.9,71.6,356.6,76.1,356.6z"/>
<path class="st1" d="M53.6,356.6L53.6,356.6c4.6,0,8.3-3.7,8.3-8.3v0c0-4.6-3.7-8.3-8.3-8.3h0c-4.6,0-8.3,3.7-8.3,8.3v0
	C45.3,352.9,49,356.6,53.6,356.6z"/>
<path class="st1" d="M76.1,379.2L76.1,379.2c4.6,0,8.3-3.7,8.3-8.3l0,0c0-4.6-3.7-8.3-8.3-8.3h0c-4.6,0-8.3,3.7-8.3,8.3l0,0
	C67.8,375.5,71.6,379.2,76.1,379.2z"/>
<path class="st1" d="M53.6,379.2L53.6,379.2c4.6,0,8.3-3.7,8.3-8.3l0,0c0-4.6-3.7-8.3-8.3-8.3h0c-4.6,0-8.3,3.7-8.3,8.3l0,0
	C45.3,375.5,49,379.2,53.6,379.2z"/>
<path class="st1" d="M76.1,401.8L76.1,401.8c4.6,0,8.3-3.7,8.3-8.3v0c0-4.6-3.7-8.3-8.3-8.3h0c-4.6,0-8.3,3.7-8.3,8.3v0
	C67.8,398,71.6,401.8,76.1,401.8z"/>
<path class="st1" d="M53.6,401.8L53.6,401.8c4.6,0,8.3-3.7,8.3-8.3v0c0-4.6-3.7-8.3-8.3-8.3h0c-4.6,0-8.3,3.7-8.3,8.3v0
	C45.3,398,49,401.8,53.6,401.8z"/>
<path class="st1" d="M76.1,424.4L76.1,424.4c4.6,0,8.3-3.7,8.3-8.3v0c0-4.6-3.7-8.3-8.3-8.3h0c-4.6,0-8.3,3.7-8.3,8.3l0,0
	C67.8,420.7,71.6,424.4,76.1,424.4z"/>
<path class="st1" d="M53.6,424.4L53.6,424.4c4.6,0,8.3-3.7,8.3-8.3l0,0c0-4.6-3.7-8.3-8.3-8.3h0c-4.6,0-8.3,3.7-8.3,8.3l0,0
	C45.3,420.7,49,424.4,53.6,424.4z"/>
<path class="st1" d="M31,447L31,447c4.6,0,8.3-3.7,8.3-8.3l0,0c0-4.6-3.7-8.3-8.3-8.3h0c-4.6,0-8.3,3.7-8.3,8.3l0,0
	C22.7,443.2,26.4,447,31,447z"/>
<path class="st1" d="M8.4,447L8.4,447c4.6,0,8.3-3.7,8.3-8.3l0,0c0-4.6-3.7-8.3-8.3-8.3h0c-4.6,0-8.3,3.7-8.3,8.3l0,0
	C0.1,443.2,3.9,447,8.4,447z"/>
<path class="st1" d="M31,469.6L31,469.6c4.6,0,8.3-3.7,8.3-8.3v0c0-4.6-3.7-8.3-8.3-8.3h0c-4.6,0-8.3,3.7-8.3,8.3v0
	C22.7,465.9,26.4,469.6,31,469.6z"/>
<path class="st1" d="M31,492.2L31,492.2c4.6,0,8.3-3.7,8.3-8.3v0c0-4.6-3.7-8.3-8.3-8.3h0c-4.6,0-8.3,3.7-8.3,8.3v0
	C22.7,488.4,26.4,492.2,31,492.2z"/>
<path class="st1" d="M31,514.8L31,514.8c4.6,0,8.3-3.7,8.3-8.3v0c0-4.6-3.7-8.3-8.3-8.3h0c-4.6,0-8.3,3.7-8.3,8.3v0
	C22.7,511.1,26.4,514.8,31,514.8z"/>
<path class="st1" d="M31,537.3L31,537.3c4.6,0,8.3-3.7,8.3-8.3l0,0c0-4.6-3.7-8.3-8.3-8.3h0c-4.6,0-8.3,3.7-8.3,8.3l0,0
	C22.7,533.6,26.4,537.3,31,537.3z"/>
<path class="st1" d="M31,130.9L31,130.9c4.6,0,8.3-3.7,8.3-8.3v0c0-4.6-3.7-8.3-8.3-8.3h0c-4.6,0-8.3,3.7-8.3,8.3v0
	C22.7,127.1,26.4,130.9,31,130.9z"/>
<path class="st1" d="M8.4,130.9L8.4,130.9c4.6,0,8.3-3.7,8.3-8.3v0c0-4.6-3.7-8.3-8.3-8.3h0c-4.6,0-8.3,3.7-8.3,8.3v0
	C0.1,127.1,3.9,130.9,8.4,130.9z"/>
<path class="st1" d="M76.1,288.8L76.1,288.8c4.6,0,8.3-3.7,8.3-8.3v0c0-4.6-3.7-8.3-8.3-8.3h0c-4.6,0-8.3,3.7-8.3,8.3v0
	C67.8,285.1,71.5,288.8,76.1,288.8z"/>
<path class="st1" d="M76.1,266.3L76.1,266.3c4.6,0,8.3-3.7,8.3-8.3l0,0c0-4.6-3.7-8.3-8.3-8.3h0c-4.6,0-8.3,3.7-8.3,8.3l0,0
	C67.8,262.5,71.5,266.3,76.1,266.3z"/>
<path class="st1" d="M76.1,311.5L76.1,311.5c4.6,0,8.3-3.7,8.3-8.3v0c0-4.6-3.7-8.3-8.3-8.3h0c-4.6,0-8.3,3.7-8.3,8.3v0
	C67.8,307.7,71.5,311.5,76.1,311.5z"/>
<path class="st1" d="M53.6,288.8L53.6,288.8c4.6,0,8.3-3.7,8.3-8.3v0c0-4.6-3.7-8.3-8.3-8.3h0c-4.6,0-8.3,3.7-8.3,8.3v0
	C45.3,285.1,49,288.8,53.6,288.8z"/>
<path class="st1" d="M53.6,266.3L53.6,266.3c4.6,0,8.3-3.7,8.3-8.3l0,0c0-4.6-3.7-8.3-8.3-8.3h0c-4.6,0-8.3,3.7-8.3,8.3l0,0
	C45.3,262.5,49,266.3,53.6,266.3z"/>
<path class="st1" d="M53.6,311.5L53.6,311.5c4.6,0,8.3-3.7,8.3-8.3v0c0-4.6-3.7-8.3-8.3-8.3h0c-4.6,0-8.3,3.7-8.3,8.3v0
	C45.3,307.7,49,311.5,53.6,311.5z"/>
<path class="st1" d="M31,176L31,176c4.6,0,8.3-3.7,8.3-8.3v0c0-4.6-3.7-8.3-8.3-8.3h0c-4.6,0-8.3,3.7-8.3,8.3v0
	C22.7,172.3,26.4,176,31,176z"/>
<path class="st1" d="M31,221.1L31,221.1c4.6,0,8.3-3.7,8.3-8.3v0c0-4.6-3.7-8.3-8.3-8.3h0c-4.6,0-8.3,3.7-8.3,8.3v0
	C22.7,217.4,26.4,221.1,31,221.1z"/>
<path class="st1" d="M31,198.6L31,198.6c4.6,0,8.3-3.7,8.3-8.3v0c0-4.6-3.7-8.3-8.3-8.3h0c-4.6,0-8.3,3.7-8.3,8.3v0
	C22.7,194.8,26.4,198.6,31,198.6z"/>
<path class="st1" d="M8.3,176L8.3,176c4.6,0,8.3-3.7,8.3-8.3v0c0-4.6-3.7-8.3-8.3-8.3h0c-4.6,0-8.3,3.7-8.3,8.3v0
	C0,172.3,3.7,176,8.3,176z"/>
<path class="st1" d="M8.3,221.1L8.3,221.1c4.6,0,8.3-3.7,8.3-8.3v0c0-4.6-3.7-8.3-8.3-8.3h0c-4.6,0-8.3,3.7-8.3,8.3v0
	C0,217.4,3.8,221.1,8.3,221.1z"/>
<path class="st1" d="M8.3,198.6L8.3,198.6c4.6,0,8.3-3.7,8.3-8.3v0c0-4.6-3.7-8.3-8.3-8.3h0c-4.6,0-8.3,3.7-8.3,8.3v0
	C0,194.8,3.8,198.6,8.3,198.6z"/>
<path class="st1" d="M8.3,492L8.3,492c4.6,0,8.3-3.7,8.3-8.3v0c0-4.6-3.7-8.3-8.3-8.3h0c-4.6,0-8.3,3.7-8.3,8.3v0
	C0,488.3,3.8,492,8.3,492z"/>
<path class="st1" d="M8.3,469.4L8.3,469.4c4.6,0,8.3-3.7,8.3-8.3v0c0-4.6-3.7-8.3-8.3-8.3h0c-4.6,0-8.3,3.7-8.3,8.3v0
	C0,465.7,3.8,469.4,8.3,469.4z"/>
<path class="st1" d="M8.3,514.6L8.3,514.6c4.6,0,8.3-3.7,8.3-8.3l0,0c0-4.6-3.7-8.3-8.3-8.3h0c-4.6,0-8.3,3.7-8.3,8.3l0,0
	C0,510.9,3.8,514.6,8.3,514.6z"/>
<path class="st1" d="M8.3,537.3L8.3,537.3c4.6,0,8.3-3.7,8.3-8.3l0,0c0-4.6-3.7-8.3-8.3-8.3h0c-4.6,0-8.3,3.7-8.3,8.3l0,0
	C0,533.6,3.7,537.3,8.3,537.3z"/>
<g>
	<text transform="matrix(1 0 0 1 6.725 102.2584)" class="st2 st3 st4">1</text>
	<text transform="matrix(1 0 0 1 28.7865 102.2584)" class="st2 st3 st4">2</text>
	<text transform="matrix(1 0 0 1 51.3617 102.2584)" class="st2 st3 st4">3</text>
	<text transform="matrix(1 0 0 1 73.8763 102.2584)" class="st2 st3 st4">4</text>
	<text transform="matrix(1 0 0 1 96.5502 102.2584)" class="st2 st3 st4">5</text>
	<text transform="matrix(1 0 0 1 118.8724 102.2584)" class="st2 st3 st4">6</text>
	<text transform="matrix(1 0 0 1 141.8988 102.2584)" class="st2 st3 st4">7</text>
	<text transform="matrix(1 0 0 1 164.0892 102.2584)" class="st2 st3 st4">8</text>
	<text transform="matrix(1 0 0 1 186.5834 102.2584)" class="st2 st3 st4">9</text>
	<text transform="matrix(1 0 0 1 207.2328 102.2584)" class="st2 st3 st4">10</text>
	<text transform="matrix(1 0 0 1 230.7152 102.2584)" class="st2 st3 st4">11</text>
	<text transform="matrix(1 0 0 1 252.7777 102.2584)" class="st2 st3 st4">12</text>
	<text transform="matrix(1 0 0 1 275.351 102.2584)" class="st2 st3 st4">13</text>
	<text transform="matrix(1 0 0 1 297.8651 102.2584)" class="st2 st3 st4">14</text>
	<text transform="matrix(1 0 0 1 320.5399 102.2584)" class="st2 st3 st4">15</text>
	<text transform="matrix(1 0 0 1 342.8622 102.2584)" class="st2 st3 st4">16</text>
	<text transform="matrix(1 0 0 1 6.725 79.6881)" class="st2 st3 st4">1</text>
	<text transform="matrix(1 0 0 1 28.7865 79.6881)" class="st2 st3 st4">2</text>
	<text transform="matrix(1 0 0 1 51.3617 79.6881)" class="st2 st3 st4">3</text>
	<text transform="matrix(1 0 0 1 73.8763 79.6881)" class="st2 st3 st4">4</text>
	<text transform="matrix(1 0 0 1 96.5502 79.6881)" class="st2 st3 st4">5</text>
	<text transform="matrix(1 0 0 1 118.8724 79.6881)" class="st2 st3 st4">6</text>
	<text transform="matrix(1 0 0 1 141.8988 79.6881)" class="st2 st3 st4">7</text>
	<text transform="matrix(1 0 0 1 164.0892 79.6881)" class="st2 st3 st4">8</text>
	<text transform="matrix(1 0 0 1 186.5834 79.6881)" class="st2 st3 st4">9</text>
	<text transform="matrix(1 0 0 1 207.2328 79.6881)" class="st2 st3 st4">10</text>
	<text transform="matrix(1 0 0 1 230.7152 79.6881)" class="st2 st3 st4">11</text>
	<text transform="matrix(1 0 0 1 252.7777 79.6881)" class="st2 st3 st4">12</text>
	<text transform="matrix(1 0 0 1 275.351 79.6881)" class="st2 st3 st4">13</text>
	<text transform="matrix(1 0 0 1 297.8651 79.6881)" class="st2 st3 st4">14</text>
	<text transform="matrix(1 0 0 1 320.5399 79.6881)" class="st2 st3 st4">15</text>
	<text transform="matrix(1 0 0 1 342.8622 79.6881)" class="st2 st3 st4">16</text>
	<text transform="matrix(1 0 0 1 365.8036 79.6881)" class="st2 st3 st4">17</text>
	<text transform="matrix(1 0 0 1 388.1053 79.6881)" class="st2 st3 st4">18</text>
	<text transform="matrix(1 0 0 1 5.5433 57.5319)" class="st2 st3 st4">1</text>
	<text transform="matrix(1 0 0 1 27.6048 57.5319)" class="st2 st3 st4">2</text>
	<text transform="matrix(1 0 0 1 50.18 57.5319)" class="st2 st3 st4">3</text>
	<text transform="matrix(1 0 0 1 72.6947 57.5319)" class="st2 st3 st4">4</text>
	<text transform="matrix(1 0 0 1 95.3685 57.5319)" class="st2 st3 st4">5</text>
	<text transform="matrix(1 0 0 1 117.6908 57.5319)" class="st2 st3 st4">6</text>
	<text transform="matrix(1 0 0 1 140.7171 57.5319)" class="st2 st3 st4">7</text>
	<text transform="matrix(1 0 0 1 162.9076 57.5319)" class="st2 st3 st4">8</text>
	<text transform="matrix(1 0 0 1 185.4017 57.5319)" class="st2 st3 st4">9</text>
	<text transform="matrix(1 0 0 1 206.0511 57.5319)" class="st2 st3 st4">10</text>
	<text transform="matrix(1 0 0 1 229.5336 57.5319)" class="st2 st3 st4">11</text>
	<text transform="matrix(1 0 0 1 251.5961 57.5319)" class="st2 st3 st4">12</text>
	<text transform="matrix(1 0 0 1 274.1693 57.5319)" class="st2 st3 st4">13</text>
	<text transform="matrix(1 0 0 1 296.683 57.5319)" class="st2 st3 st4">14</text>
	<text transform="matrix(1 0 0 1 319.3578 57.5319)" class="st2 st3 st4">15</text>
	<text transform="matrix(1 0 0 1 341.6801 57.5319)" class="st2 st3 st4">16</text>
	<text transform="matrix(1 0 0 1 5.5433 10.2194)" class="st2 st3 st4">1</text>
	<text transform="matrix(1 0 0 1 27.6048 10.2194)" class="st2 st3 st4">2</text>
	<text transform="matrix(1 0 0 1 50.18 10.2194)" class="st2 st3 st4">3</text>
	<text transform="matrix(1 0 0 1 72.6947 10.2194)" class="st2 st3 st4">4</text>
	<text transform="matrix(1 0 0 1 95.3685 10.2194)" class="st2 st3 st4">5</text>
	<text transform="matrix(1 0 0 1 117.6908 10.2194)" class="st2 st3 st4">6</text>
	<text transform="matrix(1 0 0 1 140.7171 10.2194)" class="st2 st3 st4">7</text>
	<text transform="matrix(1 0 0 1 162.9076 10.2194)" class="st2 st3 st4">8</text>
	<text transform="matrix(1 0 0 1 185.4017 10.2194)" class="st2 st3 st4">9</text>
	<text transform="matrix(1 0 0 1 206.0511 10.2194)" class="st2 st3 st4">10</text>
	<text transform="matrix(1 0 0 1 229.5336 10.2194)" class="st2 st3 st4">11</text>
	<text transform="matrix(1 0 0 1 251.5961 10.2194)" class="st2 st3 st4">12</text>
	<text transform="matrix(1 0 0 1 274.1693 10.2194)" class="st2 st3 st4">13</text>
	<text transform="matrix(1 0 0 1 296.683 10.2194)" class="st2 st3 st4">14</text>
	<text transform="matrix(1 0 0 1 364.6215 57.5319)" class="st2 st3 st4">17</text>
	<text transform="matrix(1 0 0 1 386.9232 57.5319)" class="st2 st3 st4">18</text>
	<text transform="matrix(1 0 0 1 409.4467 57.5319)" class="st2 st3 st4">19</text>
	<text transform="matrix(1 0 0 1 431.4359 57.5319)" class="st2 st3 st4">20</text>
	<text transform="matrix(1 0 0 1 410.6273 80.1783)" class="st2 st3 st4">19</text>
	<text transform="matrix(1 0 0 1 432.6166 80.1783)" class="st2 st3 st4">20</text>
	<text transform="matrix(1 0 0 1 410.6273 102.2584)" class="st2 st3 st4">19</text>
	<text transform="matrix(1 0 0 1 410.601 124.5162)" class="st2 st3 st4">19</text>
	<text transform="matrix(1 0 0 1 365.8036 102.2584)" class="st2 st3 st4">17</text>
	<text transform="matrix(1 0 0 1 388.1053 102.2584)" class="st2 st3 st4">18</text>
	<text transform="matrix(1 0 0 1 365.7772 124.8307)" class="st2 st3 st4">17</text>
	<text transform="matrix(1 0 0 1 388.079 124.8307)" class="st2 st3 st4">18</text>
	<text transform="matrix(1 0 0 1 365.7772 147.774)" class="st2 st3 st4">17</text>
	<text transform="matrix(1 0 0 1 388.079 147.774)" class="st2 st3 st4">18</text>
	<text transform="matrix(1 0 0 1 365.6703 170.3444)" class="st2 st3 st4">17</text>
	<text transform="matrix(1 0 0 1 387.972 170.3444)" class="st2 st3 st4">18</text>
	<text transform="matrix(1 0 0 1 365.8051 192.9166)" class="st2 st3 st4">17</text>
	<text transform="matrix(1 0 0 1 364.6224 215.1022)" class="st2 st3 st4">17</text>
	<text transform="matrix(1 0 0 1 6.725 147.401)" class="st2 st3 st4">1</text>
	<text transform="matrix(1 0 0 1 28.7884 147.401)" class="st2 st3 st4">2</text>
	<text transform="matrix(1 0 0 1 51.3636 147.401)" class="st2 st3 st4">3</text>
	<text transform="matrix(1 0 0 1 73.8783 147.401)" class="st2 st3 st4">4</text>
	<text transform="matrix(1 0 0 1 96.5502 147.401)" class="st2 st3 st4">5</text>
	<text transform="matrix(1 0 0 1 118.8724 147.401)" class="st2 st3 st4">6</text>
	<text transform="matrix(1 0 0 1 141.8988 147.401)" class="st2 st3 st4">7</text>
	<text transform="matrix(1 0 0 1 164.0892 147.401)" class="st2 st3 st4">8</text>
	<text transform="matrix(1 0 0 1 186.5834 147.401)" class="st2 st3 st4">9</text>
	<text transform="matrix(1 0 0 1 207.2337 147.401)" class="st2 st3 st4">10</text>
	<text transform="matrix(1 0 0 1 230.7162 147.401)" class="st2 st3 st4">11</text>
	<text transform="matrix(1 0 0 1 252.7787 147.401)" class="st2 st3 st4">12</text>
	<text transform="matrix(1 0 0 1 275.3529 147.401)" class="st2 st3 st4">13</text>
	<text transform="matrix(1 0 0 1 297.8661 147.401)" class="st2 st3 st4">14</text>
	<text transform="matrix(1 0 0 1 320.5399 147.401)" class="st2 st3 st4">15</text>
	<text transform="matrix(1 0 0 1 342.8622 147.401)" class="st2 st3 st4">16</text>
	<text transform="matrix(1 0 0 1 51.7591 328.0006)" class="st2 st3 st4">1</text>
	<text transform="matrix(1 0 0 1 73.8216 328.0006)" class="st2 st3 st4">2</text>
	<text transform="matrix(1 0 0 1 96.3959 328.0006)" class="st2 st3 st4">3</text>
	<text transform="matrix(1 0 0 1 118.9105 328.0006)" class="st2 st3 st4">4</text>
	<text transform="matrix(1 0 0 1 141.5834 328.0006)" class="st2 st3 st4">5</text>
	<text transform="matrix(1 0 0 1 163.9056 328.0006)" class="st2 st3 st4">6</text>
	<text transform="matrix(1 0 0 1 186.932 328.0006)" class="st2 st3 st4">7</text>
	<text transform="matrix(1 0 0 1 209.1224 328.0006)" class="st2 st3 st4">8</text>
	<text transform="matrix(1 0 0 1 231.6156 328.0006)" class="st2 st3 st4">9</text>
	<text transform="matrix(1 0 0 1 252.266 328.0006)" class="st2 st3 st4">10</text>
	<text transform="matrix(1 0 0 1 275.7484 328.0006)" class="st2 st3 st4">11</text>
	<text transform="matrix(1 0 0 1 51.4203 350.5514)" class="st2 st3 st4">1</text>
	<text transform="matrix(1 0 0 1 73.4828 350.5514)" class="st2 st3 st4">2</text>
	<text transform="matrix(1 0 0 1 96.057 350.5514)" class="st2 st3 st4">3</text>
	<text transform="matrix(1 0 0 1 118.5716 350.5514)" class="st2 st3 st4">4</text>
	<text transform="matrix(1 0 0 1 141.2445 350.5514)" class="st2 st3 st4">5</text>
	<text transform="matrix(1 0 0 1 163.5668 350.5514)" class="st2 st3 st4">6</text>
	<text transform="matrix(1 0 0 1 186.5931 350.5514)" class="st2 st3 st4">7</text>
	<text transform="matrix(1 0 0 1 208.7836 350.5514)" class="st2 st3 st4">8</text>
	<text transform="matrix(1 0 0 1 231.2767 350.5514)" class="st2 st3 st4">9</text>
	<text transform="matrix(1 0 0 1 251.9271 350.5514)" class="st2 st3 st4">10</text>
	<text transform="matrix(1 0 0 1 275.4095 350.5514)" class="st2 st3 st4">11</text>
	<text transform="matrix(1 0 0 1 51.4203 373.1881)" class="st2 st3 st4">1</text>
	<text transform="matrix(1 0 0 1 73.4828 373.1881)" class="st2 st3 st4">2</text>
	<text transform="matrix(1 0 0 1 96.057 373.1881)" class="st2 st3 st4">3</text>
	<text transform="matrix(1 0 0 1 118.5716 373.1881)" class="st2 st3 st4">4</text>
	<text transform="matrix(1 0 0 1 141.2445 373.1881)" class="st2 st3 st4">5</text>
	<text transform="matrix(1 0 0 1 163.5668 373.1881)" class="st2 st3 st4">6</text>
	<text transform="matrix(1 0 0 1 186.5931 373.1881)" class="st2 st3 st4">7</text>
	<text transform="matrix(1 0 0 1 208.7836 373.1881)" class="st2 st3 st4">8</text>
	<text transform="matrix(1 0 0 1 231.2767 373.1881)" class="st2 st3 st4">9</text>
	<text transform="matrix(1 0 0 1 251.9271 373.1881)" class="st2 st3 st4">10</text>
	<text transform="matrix(1 0 0 1 50.7875 395.7389)" class="st2 st3 st4">1</text>
	<text transform="matrix(1 0 0 1 72.85 395.7389)" class="st2 st3 st4">2</text>
	<text transform="matrix(1 0 0 1 95.4242 395.7389)" class="st2 st3 st4">3</text>
	<text transform="matrix(1 0 0 1 117.9388 395.7389)" class="st2 st3 st4">4</text>
	<text transform="matrix(1 0 0 1 140.6127 395.7389)" class="st2 st3 st4">5</text>
	<text transform="matrix(1 0 0 1 162.9349 395.7389)" class="st2 st3 st4">6</text>
	<text transform="matrix(1 0 0 1 185.9613 395.7389)" class="st2 st3 st4">7</text>
	<text transform="matrix(1 0 0 1 208.1517 395.7389)" class="st2 st3 st4">8</text>
	<text transform="matrix(1 0 0 1 230.6439 395.7389)" class="st2 st3 st4">9</text>
	<text transform="matrix(1 0 0 1 251.2943 395.7389)" class="st2 st3 st4">10</text>
	<text transform="matrix(1 0 0 1 50.7875 418.3717)" class="st2 st3 st4">1</text>
	<text transform="matrix(1 0 0 1 72.85 418.3717)" class="st2 st3 st4">2</text>
	<text transform="matrix(1 0 0 1 95.4242 418.3717)" class="st2 st3 st4">3</text>
	<text transform="matrix(1 0 0 1 117.9388 418.3717)" class="st2 st3 st4">4</text>
	<text transform="matrix(1 0 0 1 140.6127 418.3717)" class="st2 st3 st4">5</text>
	<text transform="matrix(1 0 0 1 162.9349 418.3717)" class="st2 st3 st4">6</text>
	<text transform="matrix(1 0 0 1 185.9613 418.3717)" class="st2 st3 st4">7</text>
	<text transform="matrix(1 0 0 1 208.1517 418.3717)" class="st2 st3 st4">8</text>
	<text transform="matrix(1 0 0 1 230.6439 418.3717)" class="st2 st3 st4">9</text>
	<text transform="matrix(1 0 0 1 5.5433 440.9244)" class="st2 st3 st4">1</text>
	<text transform="matrix(1 0 0 1 27.6058 440.9244)" class="st2 st3 st4">2</text>
	<text transform="matrix(1 0 0 1 50.181 440.9244)" class="st2 st3 st4">3</text>
	<text transform="matrix(1 0 0 1 72.6957 440.9244)" class="st2 st3 st4">4</text>
	<text transform="matrix(1 0 0 1 95.3685 440.9244)" class="st2 st3 st4">5</text>
	<text transform="matrix(1 0 0 1 117.6908 440.9244)" class="st2 st3 st4">6</text>
	<text transform="matrix(1 0 0 1 140.7171 440.9244)" class="st2 st3 st4">7</text>
	<text transform="matrix(1 0 0 1 162.9076 440.9244)" class="st2 st3 st4">8</text>
	<text transform="matrix(1 0 0 1 185.4007 440.9244)" class="st2 st3 st4">9</text>
	<text transform="matrix(1 0 0 1 206.0511 440.9244)" class="st2 st3 st4">10</text>
	<text transform="matrix(1 0 0 1 229.5336 440.9244)" class="st2 st3 st4">11</text>
	<text transform="matrix(1 0 0 1 6.725 124.8307)" class="st2 st3 st4">1</text>
	<text transform="matrix(1 0 0 1 28.7884 124.8307)" class="st2 st3 st4">2</text>
	<text transform="matrix(1 0 0 1 51.3636 124.8307)" class="st2 st3 st4">3</text>
	<text transform="matrix(1 0 0 1 73.8783 124.8307)" class="st2 st3 st4">4</text>
	<text transform="matrix(1 0 0 1 96.5502 124.8307)" class="st2 st3 st4">5</text>
	<text transform="matrix(1 0 0 1 118.8724 124.8307)" class="st2 st3 st4">6</text>
	<text transform="matrix(1 0 0 1 141.8988 124.8307)" class="st2 st3 st4">7</text>
	<text transform="matrix(1 0 0 1 164.0892 124.8307)" class="st2 st3 st4">8</text>
	<text transform="matrix(1 0 0 1 186.5834 124.8307)" class="st2 st3 st4">9</text>
	<text transform="matrix(1 0 0 1 207.2337 124.8307)" class="st2 st3 st4">10</text>
	<text transform="matrix(1 0 0 1 230.7162 124.8307)" class="st2 st3 st4">11</text>
	<text transform="matrix(1 0 0 1 252.7787 124.8307)" class="st2 st3 st4">12</text>
	<text transform="matrix(1 0 0 1 275.3529 124.8307)" class="st2 st3 st4">13</text>
	<text transform="matrix(1 0 0 1 297.8661 124.8307)" class="st2 st3 st4">14</text>
	<text transform="matrix(1 0 0 1 320.5399 124.8307)" class="st2 st3 st4">15</text>
	<text transform="matrix(1 0 0 1 342.8622 124.8307)" class="st2 st3 st4">16</text>
	<text transform="matrix(1 0 0 1 342.8363 192.528)" class="st2 st3 st4">16</text>
	<text transform="matrix(1 0 0 1 342.7015 169.9576)" class="st2 st3 st4">16</text>
	<text transform="matrix(1 0 0 1 341.6283 215.1022)" class="st2 st3 st4">16</text>
	<text transform="matrix(1 0 0 1 6.5912 169.9576)" class="st2 st3 st4">1</text>
	<text transform="matrix(1 0 0 1 28.6537 169.9576)" class="st2 st3 st4">2</text>
	<text transform="matrix(1 0 0 1 51.2289 169.9576)" class="st2 st3 st4">3</text>
	<text transform="matrix(1 0 0 1 73.7435 169.9576)" class="st2 st3 st4">4</text>
	<text transform="matrix(1 0 0 1 96.4174 169.9576)" class="st2 st3 st4">5</text>
	<text transform="matrix(1 0 0 1 118.7396 169.9576)" class="st2 st3 st4">6</text>
	<text transform="matrix(1 0 0 1 141.766 169.9576)" class="st2 st3 st4">7</text>
	<text transform="matrix(1 0 0 1 163.9564 169.9576)" class="st2 st3 st4">8</text>
	<text transform="matrix(1 0 0 1 186.4505 169.9576)" class="st2 st3 st4">9</text>
	<text transform="matrix(1 0 0 1 207.1009 169.9576)" class="st2 st3 st4">10</text>
	<text transform="matrix(1 0 0 1 230.5814 169.9576)" class="st2 st3 st4">11</text>
	<text transform="matrix(1 0 0 1 252.6439 169.9576)" class="st2 st3 st4">12</text>
	<text transform="matrix(1 0 0 1 275.2181 169.9576)" class="st2 st3 st4">13</text>
	<text transform="matrix(1 0 0 1 297.7318 169.9576)" class="st2 st3 st4">14</text>
	<text transform="matrix(1 0 0 1 320.4066 169.9576)" class="st2 st3 st4">15</text>
	<text transform="matrix(1 0 0 1 6.7259 192.3092)" class="st2 st3 st4">1</text>
	<text transform="matrix(1 0 0 1 28.7884 192.3092)" class="st2 st3 st4">2</text>
	<text transform="matrix(1 0 0 1 51.3636 192.3092)" class="st2 st3 st4">3</text>
	<text transform="matrix(1 0 0 1 73.8783 192.3092)" class="st2 st3 st4">4</text>
	<text transform="matrix(1 0 0 1 96.5521 192.3092)" class="st2 st3 st4">5</text>
	<text transform="matrix(1 0 0 1 118.8744 192.3092)" class="st2 st3 st4">6</text>
	<text transform="matrix(1 0 0 1 141.9007 192.3092)" class="st2 st3 st4">7</text>
	<text transform="matrix(1 0 0 1 164.0912 192.3092)" class="st2 st3 st4">8</text>
	<text transform="matrix(1 0 0 1 186.5853 192.3092)" class="st2 st3 st4">9</text>
	<text transform="matrix(1 0 0 1 207.2357 192.3092)" class="st2 st3 st4">10</text>
	<text transform="matrix(1 0 0 1 230.7162 192.3092)" class="st2 st3 st4">11</text>
	<text transform="matrix(1 0 0 1 252.7787 192.3092)" class="st2 st3 st4">12</text>
	<text transform="matrix(1 0 0 1 275.3529 192.3092)" class="st2 st3 st4">13</text>
	<text transform="matrix(1 0 0 1 297.8666 192.3092)" class="st2 st3 st4">14</text>
	<text transform="matrix(1 0 0 1 320.5414 192.3092)" class="st2 st3 st4">15</text>
	<text transform="matrix(1 0 0 1 5.5433 215.1432)" class="st2 st3 st4">1</text>
	<text transform="matrix(1 0 0 1 27.6058 215.1432)" class="st2 st3 st4">2</text>
	<text transform="matrix(1 0 0 1 50.181 215.1432)" class="st2 st3 st4">3</text>
	<text transform="matrix(1 0 0 1 72.6957 215.1432)" class="st2 st3 st4">4</text>
	<text transform="matrix(1 0 0 1 95.3695 215.1432)" class="st2 st3 st4">5</text>
	<text transform="matrix(1 0 0 1 117.6918 215.1432)" class="st2 st3 st4">6</text>
	<text transform="matrix(1 0 0 1 140.7181 215.1432)" class="st2 st3 st4">7</text>
	<text transform="matrix(1 0 0 1 162.9086 215.1432)" class="st2 st3 st4">8</text>
	<text transform="matrix(1 0 0 1 185.4027 215.1432)" class="st2 st3 st4">9</text>
	<text transform="matrix(1 0 0 1 206.0531 215.1432)" class="st2 st3 st4">10</text>
	<text transform="matrix(1 0 0 1 229.5336 215.1432)" class="st2 st3 st4">11</text>
	<text transform="matrix(1 0 0 1 251.5961 215.1432)" class="st2 st3 st4">12</text>
	<text transform="matrix(1 0 0 1 274.1703 215.1432)" class="st2 st3 st4">13</text>
	<text transform="matrix(1 0 0 1 296.684 215.1432)" class="st2 st3 st4">14</text>
	<text transform="matrix(1 0 0 1 319.3588 215.1432)" class="st2 st3 st4">15</text>
	<text transform="matrix(1 0 0 1 51.7328 237.6725)" class="st2 st3 st4">1</text>
	<text transform="matrix(1 0 0 1 73.7953 237.6725)" class="st2 st3 st4">2</text>
	<text transform="matrix(1 0 0 1 96.3695 237.6725)" class="st2 st3 st4">3</text>
	<text transform="matrix(1 0 0 1 118.8841 237.6725)" class="st2 st3 st4">4</text>
	<text transform="matrix(1 0 0 1 141.558 237.6725)" class="st2 st3 st4">5</text>
	<text transform="matrix(1 0 0 1 163.8802 237.6725)" class="st2 st3 st4">6</text>
	<text transform="matrix(1 0 0 1 186.9066 237.6725)" class="st2 st3 st4">7</text>
	<text transform="matrix(1 0 0 1 209.097 237.6725)" class="st2 st3 st4">8</text>
	<text transform="matrix(1 0 0 1 231.5912 237.6725)" class="st2 st3 st4">9</text>
	<text transform="matrix(1 0 0 1 252.2416 237.6725)" class="st2 st3 st4">10</text>
	<text transform="matrix(1 0 0 1 275.722 237.6725)" class="st2 st3 st4">11</text>
	<text transform="matrix(1 0 0 1 297.7845 237.6725)" class="st2 st3 st4">12</text>
	<text transform="matrix(1 0 0 1 320.3588 237.6725)" class="st2 st3 st4">13</text>
	<text transform="matrix(1 0 0 1 51.7328 260.024)" class="st2 st3 st4">1</text>
	<text transform="matrix(1 0 0 1 73.7953 260.024)" class="st2 st3 st4">2</text>
	<text transform="matrix(1 0 0 1 96.3695 260.024)" class="st2 st3 st4">3</text>
	<text transform="matrix(1 0 0 1 118.8841 260.024)" class="st2 st3 st4">4</text>
	<text transform="matrix(1 0 0 1 141.558 260.024)" class="st2 st3 st4">5</text>
	<text transform="matrix(1 0 0 1 163.8802 260.024)" class="st2 st3 st4">6</text>
	<text transform="matrix(1 0 0 1 186.9066 260.024)" class="st2 st3 st4">7</text>
	<text transform="matrix(1 0 0 1 209.097 260.024)" class="st2 st3 st4">8</text>
	<text transform="matrix(1 0 0 1 231.5912 260.024)" class="st2 st3 st4">9</text>
	<text transform="matrix(1 0 0 1 252.2416 260.024)" class="st2 st3 st4">10</text>
	<text transform="matrix(1 0 0 1 275.722 260.024)" class="st2 st3 st4">11</text>
	<text transform="matrix(1 0 0 1 297.7845 260.024)" class="st2 st3 st4">12</text>
	<text transform="matrix(1 0 0 1 320.3588 260.024)" class="st2 st3 st4">13</text>
	<text transform="matrix(1 0 0 1 51.3724 282.858)" class="st2 st3 st4">1</text>
	<text transform="matrix(1 0 0 1 73.4349 282.858)" class="st2 st3 st4">2</text>
	<text transform="matrix(1 0 0 1 96.0091 282.858)" class="st2 st3 st4">3</text>
	<text transform="matrix(1 0 0 1 118.5238 282.858)" class="st2 st3 st4">4</text>
	<text transform="matrix(1 0 0 1 141.1976 282.858)" class="st2 st3 st4">5</text>
	<text transform="matrix(1 0 0 1 163.5199 282.858)" class="st2 st3 st4">6</text>
	<text transform="matrix(1 0 0 1 186.5462 282.858)" class="st2 st3 st4">7</text>
	<text transform="matrix(1 0 0 1 208.7367 282.858)" class="st2 st3 st4">8</text>
	<text transform="matrix(1 0 0 1 231.2308 282.858)" class="st2 st3 st4">9</text>
	<text transform="matrix(1 0 0 1 251.8812 282.858)" class="st2 st3 st4">10</text>
	<text transform="matrix(1 0 0 1 275.3617 282.858)" class="st2 st3 st4">11</text>
	<text transform="matrix(1 0 0 1 297.4242 282.858)" class="st2 st3 st4">12</text>
	<text transform="matrix(1 0 0 1 6.5716 463.5826)" class="st2 st3 st4">1</text>
	<text transform="matrix(1 0 0 1 28.6341 463.5826)" class="st2 st3 st4">2</text>
	<text transform="matrix(1 0 0 1 51.2093 463.5826)" class="st2 st3 st4">3</text>
	<text transform="matrix(1 0 0 1 73.724 463.5826)" class="st2 st3 st4">4</text>
	<text transform="matrix(1 0 0 1 96.3978 463.5826)" class="st2 st3 st4">5</text>
	<text transform="matrix(1 0 0 1 118.7201 463.5826)" class="st2 st3 st4">6</text>
	<text transform="matrix(1 0 0 1 141.7464 463.5826)" class="st2 st3 st4">7</text>
	<text transform="matrix(1 0 0 1 163.9369 463.5826)" class="st2 st3 st4">8</text>
	<text transform="matrix(1 0 0 1 186.431 463.5826)" class="st2 st3 st4">9</text>
	<text transform="matrix(1 0 0 1 207.0814 463.5826)" class="st2 st3 st4">10</text>
	<text transform="matrix(1 0 0 1 230.5619 463.5826)" class="st2 st3 st4">11</text>
	<text transform="matrix(1 0 0 1 252.6244 463.5826)" class="st2 st3 st4">12</text>
	<text transform="matrix(1 0 0 1 275.1986 463.5826)" class="st2 st3 st4">13</text>
	<text transform="matrix(1 0 0 1 6.7259 485.9342)" class="st2 st3 st4">1</text>
	<text transform="matrix(1 0 0 1 28.7884 485.9342)" class="st2 st3 st4">2</text>
	<text transform="matrix(1 0 0 1 51.3636 485.9342)" class="st2 st3 st4">3</text>
	<text transform="matrix(1 0 0 1 73.8783 485.9342)" class="st2 st3 st4">4</text>
	<text transform="matrix(1 0 0 1 96.5521 485.9342)" class="st2 st3 st4">5</text>
	<text transform="matrix(1 0 0 1 118.8744 485.9342)" class="st2 st3 st4">6</text>
	<text transform="matrix(1 0 0 1 141.9007 485.9342)" class="st2 st3 st4">7</text>
	<text transform="matrix(1 0 0 1 164.0912 485.9342)" class="st2 st3 st4">8</text>
	<text transform="matrix(1 0 0 1 186.5853 485.9342)" class="st2 st3 st4">9</text>
	<text transform="matrix(1 0 0 1 207.2357 485.9342)" class="st2 st3 st4">10</text>
	<text transform="matrix(1 0 0 1 230.7162 485.9342)" class="st2 st3 st4">11</text>
	<text transform="matrix(1 0 0 1 5.5853 508.7662)" class="st2 st3 st4">1</text>
	<text transform="matrix(1 0 0 1 27.6478 508.7662)" class="st2 st3 st4">2</text>
	<text transform="matrix(1 0 0 1 50.223 508.7662)" class="st2 st3 st4">3</text>
	<text transform="matrix(1 0 0 1 72.7377 508.7662)" class="st2 st3 st4">4</text>
	<text transform="matrix(1 0 0 1 95.4115 508.7662)" class="st2 st3 st4">5</text>
	<text transform="matrix(1 0 0 1 117.7338 508.7662)" class="st2 st3 st4">6</text>
	<text transform="matrix(1 0 0 1 140.7601 508.7662)" class="st2 st3 st4">7</text>
	<text transform="matrix(1 0 0 1 162.9505 508.7662)" class="st2 st3 st4">8</text>
	<text transform="matrix(1 0 0 1 186.0892 508.7662)" class="st2 st3 st4">9</text>
	<text transform="matrix(1 0 0 1 6.7259 531.2975)" class="st2 st3 st4">1</text>
	<text transform="matrix(1 0 0 1 28.7884 531.2975)" class="st2 st3 st4">2</text>
	<text transform="matrix(1 0 0 1 51.3636 531.2975)" class="st2 st3 st4">3</text>
	<text transform="matrix(1 0 0 1 73.8783 531.2975)" class="st2 st3 st4">4</text>
	<text transform="matrix(1 0 0 1 96.5521 531.2975)" class="st2 st3 st4">5</text>
	<text transform="matrix(1 0 0 1 118.8744 531.2975)" class="st2 st3 st4">6</text>
	<text transform="matrix(1 0 0 1 51.4203 305.4635)" class="st2 st3 st4">1</text>
	<text transform="matrix(1 0 0 1 73.4828 305.4635)" class="st2 st3 st4">2</text>
	<text transform="matrix(1 0 0 1 96.056 305.4635)" class="st2 st3 st4">3</text>
	<text transform="matrix(1 0 0 1 118.5707 305.4635)" class="st2 st3 st4">4</text>
	<text transform="matrix(1 0 0 1 141.2445 305.4635)" class="st2 st3 st4">5</text>
	<text transform="matrix(1 0 0 1 163.5668 305.4635)" class="st2 st3 st4">6</text>
	<text transform="matrix(1 0 0 1 186.5931 305.4635)" class="st2 st3 st4">7</text>
	<text transform="matrix(1 0 0 1 208.7836 305.4635)" class="st2 st3 st4">8</text>
	<text transform="matrix(1 0 0 1 231.2777 305.4635)" class="st2 st3 st4">9</text>
	<text transform="matrix(1 0 0 1 251.9281 305.4635)" class="st2 st3 st4">10</text>
	<text transform="matrix(1 0 0 1 275.4095 305.4635)" class="st2 st3 st4">11</text>
	<text transform="matrix(1 0 0 1 297.472 305.4635)" class="st2 st3 st4">12</text>
</g>
<g>
	<text transform="matrix(1 0 0 1 504.4403 55.3287)" class="st5 st6 st7">29</text>
	<text transform="matrix(1 0 0 1 504.4403 10.9576)" class="st5 st6 st7">30</text>
	<text transform="matrix(1 0 0 1 504.4403 100.8248)" class="st5 st6 st7">27</text>
	<text transform="matrix(1 0 0 1 504.4403 78.2545)" class="st5 st6 st7">28</text>
	<text transform="matrix(1 0 0 1 504.4403 145.9674)" class="st5 st6 st7">25</text>
	<text transform="matrix(1 0 0 1 504.2802 326.567)" class="st5 st6 st7">17</text>
	<text transform="matrix(1 0 0 1 504.2802 349.1188)" class="st5 st6 st7">16</text>
	<text transform="matrix(1 0 0 1 504.4403 371.7545)" class="st5 st6 st7">15</text>
	<text transform="matrix(1 0 0 1 504.4403 394.3063)" class="st5 st6 st7">14</text>
	<text transform="matrix(1 0 0 1 504.2528 416.9391)" class="st5 st6 st7">13</text>
	<text transform="matrix(1 0 0 1 504.2802 439.4918)" class="st5 st6 st7">12</text>
	<text transform="matrix(1 0 0 1 504.4403 123.3971)" class="st5 st6 st7">26</text>
	<text transform="matrix(1 0 0 1 504.4403 168.4215)" class="st5 st6 st7">24</text>
	<text transform="matrix(1 0 0 1 504.4403 213.609)" class="st5 st6 st7">22</text>
	<text transform="matrix(1 0 0 1 504.4403 191.0387)" class="st5 st6 st7">23</text>
	<text transform="matrix(1 0 0 1 504.4403 258.7535)" class="st5 st6 st7">20</text>
	<text transform="matrix(1 0 0 1 504.4403 236.1832)" class="st5 st6 st7">21</text>
	<text transform="matrix(1 0 0 1 504.2528 303.8961)" class="st5 st6 st7">18</text>
	<text transform="matrix(1 0 0 1 504.2802 281.3258)" class="st5 st6 st7">19</text>
	<text transform="matrix(1 0 0 1 504.2802 462.0455)" class="st5 st6 st7">11</text>
	<text transform="matrix(1 0 0 1 504.2802 507.233)" class="st5 st6 st7">9</text>
	<text transform="matrix(1 0 0 1 504.2802 484.6627)" class="st5 st6 st7">10</text>
	<text transform="matrix(1 0 0 1 504.2528 529.8082)" class="st5 st6 st7">8</text>
</g>
</svg>
