<?xml version="1.0" encoding="utf-8"?>
<!-- Generator: Adobe Illustrator 20.1.0, SVG Export Plug-In . SVG Version: 6.00 Build 0)  -->
<svg version="1.1" id="Layer_1" xmlns="http://www.w3.org/2000/svg" xmlns:xlink="http://www.w3.org/1999/xlink" x="0px" y="0px"
	 viewBox="0 0 448 446.5" style="enable-background:new 0 0 448 446.5;" xml:space="preserve">
<style type="text/css">
	.st0{fill:#D9F6E1;}
	.st1{fill:#FFFFFF;}
	.st2{fill:#737373;}
	.st3{font-family:'OsnovaPro';}
	.st4{font-size:8px;}
	.st5{fill:#7B878F;}
	.st6{font-family:'OsnovaProLight';}
	.st7{font-size:9px;}
</style>
<path class="st0" d="M8.3,16.6L8.3,16.6C3.8,16.6,0,12.8,0,8.3v0C0,3.7,3.8,0,8.3,0h0c4.6,0,8.3,3.7,8.3,8.3v0
	C16.6,12.8,12.9,16.6,8.3,16.6z"/>
<path class="st0" d="M30.9,16.6L30.9,16.6c-4.6,0-8.3-3.7-8.3-8.3v0c0-4.6,3.7-8.3,8.3-8.3h0c4.6,0,8.3,3.7,8.3,8.3v0
	C39.2,12.8,35.4,16.6,30.9,16.6z"/>
<path class="st0" d="M53.5,16.6L53.5,16.6c-4.6,0-8.3-3.7-8.3-8.3v0c0-4.6,3.7-8.3,8.3-8.3h0c4.6,0,8.3,3.7,8.3,8.3v0
	C61.7,12.8,58,16.6,53.5,16.6z"/>
<path class="st0" d="M76,16.6L76,16.6c-4.6,0-8.3-3.7-8.3-8.3v0C67.7,3.7,71.5,0,76,0h0c4.6,0,8.3,3.7,8.3,8.3v0
	C84.3,12.8,80.6,16.6,76,16.6z"/>
<path class="st0" d="M98.6,16.6L98.6,16.6c-4.6,0-8.3-3.7-8.3-8.3v0C90.3,3.7,94,0,98.6,0h0c4.6,0,8.3,3.7,8.3,8.3v0
	C106.9,12.8,103.1,16.6,98.6,16.6z"/>
<path class="st0" d="M121.2,16.6L121.2,16.6c-4.6,0-8.3-3.7-8.3-8.3v0c0-4.6,3.7-8.3,8.3-8.3h0c4.6,0,8.3,3.7,8.3,8.3v0
	C129.4,12.8,125.7,16.6,121.2,16.6z"/>
<path class="st0" d="M143.8,16.6L143.8,16.6c-4.6,0-8.3-3.7-8.3-8.3v0c0-4.6,3.7-8.3,8.3-8.3h0c4.6,0,8.3,3.7,8.3,8.3v0
	C152.1,12.8,148.3,16.6,143.8,16.6z"/>
<path class="st0" d="M166.3,16.6L166.3,16.6c-4.6,0-8.3-3.7-8.3-8.3v0c0-4.6,3.7-8.3,8.3-8.3h0c4.6,0,8.3,3.7,8.3,8.3v0
	C174.6,12.8,170.9,16.6,166.3,16.6z"/>
<path class="st0" d="M188.9,16.6L188.9,16.6c-4.6,0-8.3-3.7-8.3-8.3v0c0-4.6,3.7-8.3,8.3-8.3h0c4.6,0,8.3,3.7,8.3,8.3v0
	C197.2,12.8,193.5,16.6,188.9,16.6z"/>
<path class="st0" d="M211.5,16.6L211.5,16.6c-4.6,0-8.3-3.7-8.3-8.3v0c0-4.6,3.7-8.3,8.3-8.3h0c4.6,0,8.3,3.7,8.3,8.3v0
	C219.8,12.8,216,16.6,211.5,16.6z"/>
<path class="st0" d="M234.1,16.6L234.1,16.6c-4.6,0-8.3-3.7-8.3-8.3v0c0-4.6,3.7-8.3,8.3-8.3h0c4.6,0,8.3,3.7,8.3,8.3v0
	C242.3,12.8,238.6,16.6,234.1,16.6z"/>
<path class="st0" d="M256.6,16.6L256.6,16.6c-4.6,0-8.3-3.7-8.3-8.3v0c0-4.6,3.7-8.3,8.3-8.3h0c4.6,0,8.3,3.7,8.3,8.3v0
	C264.9,12.8,261.2,16.6,256.6,16.6z"/>
<path class="st1" d="M8.3,107.9L8.3,107.9c-4.6,0-8.3-3.7-8.3-8.3v0c0-4.6,3.7-8.3,8.3-8.3h0c4.6,0,8.3,3.7,8.3,8.3v0
	C16.6,104.2,12.8,107.9,8.3,107.9z"/>
<path class="st1" d="M30.9,107.9L30.9,107.9c-4.6,0-8.3-3.7-8.3-8.3v0c0-4.6,3.7-8.3,8.3-8.3h0c4.6,0,8.3,3.7,8.3,8.3v0
	C39.1,104.2,35.4,107.9,30.9,107.9z"/>
<path class="st1" d="M53.4,107.9L53.4,107.9c-4.6,0-8.3-3.7-8.3-8.3v0c0-4.6,3.7-8.3,8.3-8.3h0c4.6,0,8.3,3.7,8.3,8.3v0
	C61.7,104.2,58,107.9,53.4,107.9z"/>
<path class="st1" d="M76,107.9L76,107.9c-4.6,0-8.3-3.7-8.3-8.3v0c0-4.6,3.7-8.3,8.3-8.3h0c4.6,0,8.3,3.7,8.3,8.3v0
	C84.3,104.2,80.6,107.9,76,107.9z"/>
<path class="st1" d="M98.6,107.9L98.6,107.9c-4.6,0-8.3-3.7-8.3-8.3v0c0-4.6,3.7-8.3,8.3-8.3h0c4.6,0,8.3,3.7,8.3,8.3v0
	C106.9,104.2,103.1,107.9,98.6,107.9z"/>
<path class="st1" d="M121.1,107.9L121.1,107.9c-4.6,0-8.3-3.7-8.3-8.3v0c0-4.6,3.7-8.3,8.3-8.3h0c4.6,0,8.3,3.7,8.3,8.3v0
	C129.4,104.2,125.7,107.9,121.1,107.9z"/>
<path class="st1" d="M143.7,107.9L143.7,107.9c-4.6,0-8.3-3.7-8.3-8.3v0c0-4.6,3.7-8.3,8.3-8.3h0c4.6,0,8.3,3.7,8.3,8.3v0
	C152,104.2,148.3,107.9,143.7,107.9z"/>
<path class="st1" d="M166.3,107.9L166.3,107.9c-4.6,0-8.3-3.7-8.3-8.3v0c0-4.6,3.7-8.3,8.3-8.3h0c4.6,0,8.3,3.7,8.3,8.3v0
	C174.6,104.2,170.8,107.9,166.3,107.9z"/>
<path class="st1" d="M188.8,107.9L188.8,107.9c-4.6,0-8.3-3.7-8.3-8.3v0c0-4.6,3.7-8.3,8.3-8.3h0c4.6,0,8.3,3.7,8.3,8.3v0
	C197.1,104.2,193.4,107.9,188.8,107.9z"/>
<path class="st1" d="M211.4,107.9L211.4,107.9c-4.6,0-8.3-3.7-8.3-8.3v0c0-4.6,3.7-8.3,8.3-8.3h0c4.6,0,8.3,3.7,8.3,8.3v0
	C219.7,104.2,216,107.9,211.4,107.9z"/>
<path class="st1" d="M234,107.9L234,107.9c-4.6,0-8.3-3.7-8.3-8.3v0c0-4.6,3.7-8.3,8.3-8.3h0c4.6,0,8.3,3.7,8.3,8.3v0
	C242.3,104.2,238.5,107.9,234,107.9z"/>
<path class="st1" d="M256.6,107.9L256.6,107.9c-4.6,0-8.3-3.7-8.3-8.3v0c0-4.6,3.7-8.3,8.3-8.3h0c4.6,0,8.3,3.7,8.3,8.3v0
	C264.8,104.2,261.1,107.9,256.6,107.9z"/>
<path class="st1" d="M279.1,107.9L279.1,107.9c-4.6,0-8.3-3.7-8.3-8.3v0c0-4.6,3.7-8.3,8.3-8.3h0c4.6,0,8.3,3.7,8.3,8.3v0
	C287.4,104.2,283.7,107.9,279.1,107.9z"/>
<path class="st1" d="M301.7,107.9L301.7,107.9c-4.6,0-8.3-3.7-8.3-8.3v0c0-4.6,3.7-8.3,8.3-8.3l0,0c4.6,0,8.3,3.7,8.3,8.3v0
	C310,104.2,306.3,107.9,301.7,107.9z"/>
<path class="st1" d="M324.3,107.9L324.3,107.9c-4.6,0-8.3-3.7-8.3-8.3v0c0-4.6,3.7-8.3,8.3-8.3l0,0c4.6,0,8.3,3.7,8.3,8.3v0
	C332.6,104.2,328.8,107.9,324.3,107.9z"/>
<path class="st1" d="M8.3,85.3L8.3,85.3C3.7,85.3,0,81.6,0,77v0c0-4.6,3.7-8.3,8.3-8.3h0c4.6,0,8.3,3.7,8.3,8.3v0
	C16.6,81.6,12.8,85.3,8.3,85.3z"/>
<path class="st1" d="M30.9,85.3L30.9,85.3c-4.6,0-8.3-3.7-8.3-8.3v0c0-4.6,3.7-8.3,8.3-8.3h0c4.6,0,8.3,3.7,8.3,8.3v0
	C39.1,81.6,35.4,85.3,30.9,85.3z"/>
<path class="st1" d="M53.4,85.3L53.4,85.3c-4.6,0-8.3-3.7-8.3-8.3v0c0-4.6,3.7-8.3,8.3-8.3h0c4.6,0,8.3,3.7,8.3,8.3v0
	C61.7,81.6,58,85.3,53.4,85.3z"/>
<path class="st1" d="M76,85.3L76,85.3c-4.6,0-8.3-3.7-8.3-8.3v0c0-4.6,3.7-8.3,8.3-8.3h0c4.6,0,8.3,3.7,8.3,8.3v0
	C84.3,81.6,80.6,85.3,76,85.3z"/>
<path class="st1" d="M98.6,85.3L98.6,85.3c-4.6,0-8.3-3.7-8.3-8.3v0c0-4.6,3.7-8.3,8.3-8.3h0c4.6,0,8.3,3.7,8.3,8.3v0
	C106.9,81.6,103.1,85.3,98.6,85.3z"/>
<path class="st1" d="M121.1,85.3L121.1,85.3c-4.6,0-8.3-3.7-8.3-8.3v0c0-4.6,3.7-8.3,8.3-8.3h0c4.6,0,8.3,3.7,8.3,8.3v0
	C129.4,81.6,125.7,85.3,121.1,85.3z"/>
<path class="st1" d="M143.7,85.3L143.7,85.3c-4.6,0-8.3-3.7-8.3-8.3v0c0-4.6,3.7-8.3,8.3-8.3h0c4.6,0,8.3,3.7,8.3,8.3v0
	C152,81.6,148.3,85.3,143.7,85.3z"/>
<path class="st1" d="M166.3,85.3L166.3,85.3c-4.6,0-8.3-3.7-8.3-8.3v0c0-4.6,3.7-8.3,8.3-8.3h0c4.6,0,8.3,3.7,8.3,8.3v0
	C174.6,81.6,170.8,85.3,166.3,85.3z"/>
<path class="st1" d="M188.8,85.3L188.8,85.3c-4.6,0-8.3-3.7-8.3-8.3v0c0-4.6,3.7-8.3,8.3-8.3h0c4.6,0,8.3,3.7,8.3,8.3v0
	C197.1,81.6,193.4,85.3,188.8,85.3z"/>
<path class="st1" d="M211.4,85.3L211.4,85.3c-4.6,0-8.3-3.7-8.3-8.3v0c0-4.6,3.7-8.3,8.3-8.3h0c4.6,0,8.3,3.7,8.3,8.3v0
	C219.7,81.6,216,85.3,211.4,85.3z"/>
<path class="st1" d="M234,85.3L234,85.3c-4.6,0-8.3-3.7-8.3-8.3v0c0-4.6,3.7-8.3,8.3-8.3h0c4.6,0,8.3,3.7,8.3,8.3v0
	C242.3,81.6,238.5,85.3,234,85.3z"/>
<path class="st1" d="M256.6,85.3L256.6,85.3c-4.6,0-8.3-3.7-8.3-8.3v0c0-4.6,3.7-8.3,8.3-8.3h0c4.6,0,8.3,3.7,8.3,8.3v0
	C264.8,81.6,261.1,85.3,256.6,85.3z"/>
<path class="st1" d="M279.1,85.3L279.1,85.3c-4.6,0-8.3-3.7-8.3-8.3v0c0-4.6,3.7-8.3,8.3-8.3h0c4.6,0,8.3,3.7,8.3,8.3v0
	C287.4,81.6,283.7,85.3,279.1,85.3z"/>
<path class="st1" d="M301.7,85.3L301.7,85.3c-4.6,0-8.3-3.7-8.3-8.3v0c0-4.6,3.7-8.3,8.3-8.3l0,0c4.6,0,8.3,3.7,8.3,8.3v0
	C310,81.6,306.3,85.3,301.7,85.3z"/>
<path class="st1" d="M324.3,85.3L324.3,85.3c-4.6,0-8.3-3.7-8.3-8.3v0c0-4.6,3.7-8.3,8.3-8.3l0,0c4.6,0,8.3,3.7,8.3,8.3v0
	C332.6,81.6,328.8,85.3,324.3,85.3z"/>
<path class="st1" d="M346.8,85.3L346.8,85.3c-4.6,0-8.3-3.7-8.3-8.3v0c0-4.6,3.7-8.3,8.3-8.3h0c4.6,0,8.3,3.7,8.3,8.3v0
	C355.1,81.6,351.4,85.3,346.8,85.3z"/>
<path class="st1" d="M8.3,153L8.3,153c-4.6,0-8.3-3.7-8.3-8.3v0c0-4.6,3.7-8.3,8.3-8.3h0c4.6,0,8.3,3.7,8.3,8.3v0
	C16.6,149.3,12.9,153,8.3,153z"/>
<path class="st1" d="M30.9,153L30.9,153c-4.6,0-8.3-3.7-8.3-8.3v0c0-4.6,3.7-8.3,8.3-8.3h0c4.6,0,8.3,3.7,8.3,8.3v0
	C39.2,149.3,35.4,153,30.9,153z"/>
<path class="st1" d="M53.5,153L53.5,153c-4.6,0-8.3-3.7-8.3-8.3v0c0-4.6,3.7-8.3,8.3-8.3h0c4.6,0,8.3,3.7,8.3,8.3v0
	C61.7,149.3,58,153,53.5,153z"/>
<path class="st1" d="M76,153L76,153c-4.6,0-8.3-3.7-8.3-8.3v0c0-4.6,3.7-8.3,8.3-8.3h0c4.6,0,8.3,3.7,8.3,8.3v0
	C84.3,149.3,80.6,153,76,153z"/>
<path class="st1" d="M98.6,153L98.6,153c-4.6,0-8.3-3.7-8.3-8.3v0c0-4.6,3.7-8.3,8.3-8.3h0c4.6,0,8.3,3.7,8.3,8.3v0
	C106.9,149.3,103.1,153,98.6,153z"/>
<path class="st1" d="M121.2,153L121.2,153c-4.6,0-8.3-3.7-8.3-8.3v0c0-4.6,3.7-8.3,8.3-8.3h0c4.6,0,8.3,3.7,8.3,8.3v0
	C129.4,149.3,125.7,153,121.2,153z"/>
<path class="st1" d="M143.7,153L143.7,153c-4.6,0-8.3-3.7-8.3-8.3v0c0-4.6,3.7-8.3,8.3-8.3h0c4.6,0,8.3,3.7,8.3,8.3v0
	C152,149.3,148.3,153,143.7,153z"/>
<path class="st1" d="M166.3,153L166.3,153c-4.6,0-8.3-3.7-8.3-8.3v0c0-4.6,3.7-8.3,8.3-8.3h0c4.6,0,8.3,3.7,8.3,8.3v0
	C174.6,149.3,170.9,153,166.3,153z"/>
<path class="st1" d="M188.9,153L188.9,153c-4.6,0-8.3-3.7-8.3-8.3v0c0-4.6,3.7-8.3,8.3-8.3h0c4.6,0,8.3,3.7,8.3,8.3v0
	C197.2,149.3,193.4,153,188.9,153z"/>
<path class="st1" d="M211.4,153L211.4,153c-4.6,0-8.3-3.7-8.3-8.3v0c0-4.6,3.7-8.3,8.3-8.3h0c4.6,0,8.3,3.7,8.3,8.3v0
	C219.7,149.3,216,153,211.4,153z"/>
<path class="st1" d="M234,153L234,153c-4.6,0-8.3-3.7-8.3-8.3v0c0-4.6,3.7-8.3,8.3-8.3h0c4.6,0,8.3,3.7,8.3,8.3v0
	C242.3,149.3,238.6,153,234,153z"/>
<path class="st1" d="M256.6,153L256.6,153c-4.6,0-8.3-3.7-8.3-8.3v0c0-4.6,3.7-8.3,8.3-8.3l0,0c4.6,0,8.3,3.7,8.3,8.3v0
	C264.9,149.3,261.1,153,256.6,153z"/>
<path class="st1" d="M279.2,153L279.2,153c-4.6,0-8.3-3.7-8.3-8.3v0c0-4.6,3.7-8.3,8.3-8.3l0,0c4.6,0,8.3,3.7,8.3,8.3v0
	C287.4,149.3,283.7,153,279.2,153z"/>
<path class="st1" d="M301.7,153L301.7,153c-4.6,0-8.3-3.7-8.3-8.3v0c0-4.6,3.7-8.3,8.3-8.3h0c4.6,0,8.3,3.7,8.3,8.3v0
	C310,149.3,306.3,153,301.7,153z"/>
<path class="st1" d="M53.5,333.6L53.5,333.6c-4.6,0-8.3-3.7-8.3-8.3v0c0-4.6,3.7-8.3,8.3-8.3h0c4.6,0,8.3,3.7,8.3,8.3v0
	C61.8,329.9,58.1,333.6,53.5,333.6z"/>
<path class="st1" d="M76.1,333.6L76.1,333.6c-4.6,0-8.3-3.7-8.3-8.3v0c0-4.6,3.7-8.3,8.3-8.3h0c4.6,0,8.3,3.7,8.3,8.3v0
	C84.4,329.9,80.6,333.6,76.1,333.6z"/>
<path class="st1" d="M98.6,333.6L98.6,333.6c-4.6,0-8.3-3.7-8.3-8.3v0c0-4.6,3.7-8.3,8.3-8.3h0c4.6,0,8.3,3.7,8.3,8.3v0
	C106.9,329.9,103.2,333.6,98.6,333.6z"/>
<path class="st1" d="M121.2,333.6L121.2,333.6c-4.6,0-8.3-3.7-8.3-8.3v0c0-4.6,3.7-8.3,8.3-8.3h0c4.6,0,8.3,3.7,8.3,8.3v0
	C129.5,329.9,125.8,333.6,121.2,333.6z"/>
<path class="st1" d="M143.8,333.6L143.8,333.6c-4.6,0-8.3-3.7-8.3-8.3v0c0-4.6,3.7-8.3,8.3-8.3h0c4.6,0,8.3,3.7,8.3,8.3v0
	C152.1,329.9,148.3,333.6,143.8,333.6z"/>
<path class="st1" d="M166.3,333.6L166.3,333.6c-4.6,0-8.3-3.7-8.3-8.3v0c0-4.6,3.7-8.3,8.3-8.3h0c4.6,0,8.3,3.7,8.3,8.3v0
	C174.6,329.9,170.9,333.6,166.3,333.6z"/>
<path class="st1" d="M188.9,333.6L188.9,333.6c-4.6,0-8.3-3.7-8.3-8.3v0c0-4.6,3.7-8.3,8.3-8.3h0c4.6,0,8.3,3.7,8.3,8.3v0
	C197.2,329.9,193.5,333.6,188.9,333.6z"/>
<path class="st1" d="M211.5,333.6L211.5,333.6c-4.6,0-8.3-3.7-8.3-8.3v0c0-4.6,3.7-8.3,8.3-8.3h0c4.6,0,8.3,3.7,8.3,8.3v0
	C219.8,329.9,216,333.6,211.5,333.6z"/>
<path class="st1" d="M53.5,356.2L53.5,356.2c-4.6,0-8.3-3.7-8.3-8.3l0,0c0-4.6,3.7-8.3,8.3-8.3h0c4.6,0,8.3,3.7,8.3,8.3l0,0
	C61.8,352.4,58.1,356.2,53.5,356.2z"/>
<path class="st1" d="M76.1,356.2L76.1,356.2c-4.6,0-8.3-3.7-8.3-8.3l0,0c0-4.6,3.7-8.3,8.3-8.3h0c4.6,0,8.3,3.7,8.3,8.3l0,0
	C84.4,352.4,80.6,356.2,76.1,356.2z"/>
<path class="st1" d="M98.6,356.2L98.6,356.2c-4.6,0-8.3-3.7-8.3-8.3l0,0c0-4.6,3.7-8.3,8.3-8.3h0c4.6,0,8.3,3.7,8.3,8.3l0,0
	C106.9,352.4,103.2,356.2,98.6,356.2z"/>
<path class="st1" d="M121.2,356.2L121.2,356.2c-4.6,0-8.3-3.7-8.3-8.3l0,0c0-4.6,3.7-8.3,8.3-8.3h0c4.6,0,8.3,3.7,8.3,8.3l0,0
	C129.5,352.4,125.8,356.2,121.2,356.2z"/>
<path class="st1" d="M143.8,356.2L143.8,356.2c-4.6,0-8.3-3.7-8.3-8.3l0,0c0-4.6,3.7-8.3,8.3-8.3h0c4.6,0,8.3,3.7,8.3,8.3l0,0
	C152.1,352.4,148.3,356.2,143.8,356.2z"/>
<path class="st1" d="M166.3,356.2L166.3,356.2c-4.6,0-8.3-3.7-8.3-8.3l0,0c0-4.6,3.7-8.3,8.3-8.3h0c4.6,0,8.3,3.7,8.3,8.3l0,0
	C174.6,352.4,170.9,356.2,166.3,356.2z"/>
<path class="st1" d="M188.9,356.2L188.9,356.2c-4.6,0-8.3-3.7-8.3-8.3l0,0c0-4.6,3.7-8.3,8.3-8.3h0c4.6,0,8.3,3.7,8.3,8.3l0,0
	C197.2,352.4,193.5,356.2,188.9,356.2z"/>
<path class="st1" d="M211.5,356.2L211.5,356.2c-4.6,0-8.3-3.7-8.3-8.3l0,0c0-4.6,3.7-8.3,8.3-8.3h0c4.6,0,8.3,3.7,8.3,8.3l0,0
	C219.8,352.4,216,356.2,211.5,356.2z"/>
<path class="st1" d="M53.5,378.8L53.5,378.8c-4.6,0-8.3-3.7-8.3-8.3v0c0-4.6,3.7-8.3,8.3-8.3h0c4.6,0,8.3,3.7,8.3,8.3v0
	C61.8,375.1,58.1,378.8,53.5,378.8z"/>
<path class="st1" d="M76.1,378.8L76.1,378.8c-4.6,0-8.3-3.7-8.3-8.3v0c0-4.6,3.7-8.3,8.3-8.3h0c4.6,0,8.3,3.7,8.3,8.3v0
	C84.4,375.1,80.6,378.8,76.1,378.8z"/>
<path class="st1" d="M98.6,378.8L98.6,378.8c-4.6,0-8.3-3.7-8.3-8.3v0c0-4.6,3.7-8.3,8.3-8.3h0c4.6,0,8.3,3.7,8.3,8.3v0
	C106.9,375.1,103.2,378.8,98.6,378.8z"/>
<path class="st1" d="M121.2,378.8L121.2,378.8c-4.6,0-8.3-3.7-8.3-8.3v0c0-4.6,3.7-8.3,8.3-8.3h0c4.6,0,8.3,3.7,8.3,8.3v0
	C129.5,375.1,125.8,378.8,121.2,378.8z"/>
<path class="st1" d="M143.8,378.8L143.8,378.8c-4.6,0-8.3-3.7-8.3-8.3v0c0-4.6,3.7-8.3,8.3-8.3h0c4.6,0,8.3,3.7,8.3,8.3v0
	C152.1,375.1,148.3,378.8,143.8,378.8z"/>
<path class="st1" d="M166.3,378.8L166.3,378.8c-4.6,0-8.3-3.7-8.3-8.3v0c0-4.6,3.7-8.3,8.3-8.3h0c4.6,0,8.3,3.7,8.3,8.3v0
	C174.6,375.1,170.9,378.8,166.3,378.8z"/>
<path class="st1" d="M188.9,378.8L188.9,378.8c-4.6,0-8.3-3.7-8.3-8.3v0c0-4.6,3.7-8.3,8.3-8.3h0c4.6,0,8.3,3.7,8.3,8.3v0
	C197.2,375.1,193.5,378.8,188.9,378.8z"/>
<path class="st1" d="M211.5,378.8L211.5,378.8c-4.6,0-8.3-3.7-8.3-8.3v0c0-4.6,3.7-8.3,8.3-8.3h0c4.6,0,8.3,3.7,8.3,8.3v0
	C219.8,375.1,216,378.8,211.5,378.8z"/>
<path class="st1" d="M211.5,401.4L211.5,401.4c-4.6,0-8.3-3.7-8.3-8.3l0,0c0-4.6,3.7-8.3,8.3-8.3h0c4.6,0,8.3,3.7,8.3,8.3l0,0
	C219.8,397.6,216,401.4,211.5,401.4z"/>
<path class="st1" d="M211.5,423.9L211.5,423.9c-4.6,0-8.3-3.7-8.3-8.3v0c0-4.6,3.7-8.3,8.3-8.3h0c4.6,0,8.3,3.7,8.3,8.3v0
	C219.8,420.2,216,423.9,211.5,423.9z"/>
<path class="st1" d="M53.5,401.4L53.5,401.4c-4.6,0-8.3-3.7-8.3-8.3l0,0c0-4.6,3.7-8.3,8.3-8.3h0c4.6,0,8.3,3.7,8.3,8.3l0,0
	C61.8,397.6,58.1,401.4,53.5,401.4z"/>
<path class="st1" d="M76.1,401.4L76.1,401.4c-4.6,0-8.3-3.7-8.3-8.3l0,0c0-4.6,3.7-8.3,8.3-8.3h0c4.6,0,8.3,3.7,8.3,8.3l0,0
	C84.4,397.6,80.6,401.4,76.1,401.4z"/>
<path class="st1" d="M98.6,401.4L98.6,401.4c-4.6,0-8.3-3.7-8.3-8.3l0,0c0-4.6,3.7-8.3,8.3-8.3h0c4.6,0,8.3,3.7,8.3,8.3l0,0
	C106.9,397.6,103.2,401.4,98.6,401.4z"/>
<path class="st1" d="M121.2,401.4L121.2,401.4c-4.6,0-8.3-3.7-8.3-8.3l0,0c0-4.6,3.7-8.3,8.3-8.3h0c4.6,0,8.3,3.7,8.3,8.3l0,0
	C129.5,397.6,125.8,401.4,121.2,401.4z"/>
<path class="st1" d="M143.8,401.4L143.8,401.4c-4.6,0-8.3-3.7-8.3-8.3l0,0c0-4.6,3.7-8.3,8.3-8.3h0c4.6,0,8.3,3.7,8.3,8.3l0,0
	C152.1,397.6,148.3,401.4,143.8,401.4z"/>
<path class="st1" d="M166.3,401.4L166.3,401.4c-4.6,0-8.3-3.7-8.3-8.3l0,0c0-4.6,3.7-8.3,8.3-8.3h0c4.6,0,8.3,3.7,8.3,8.3l0,0
	C174.6,397.6,170.9,401.4,166.3,401.4z"/>
<path class="st1" d="M188.9,401.4L188.9,401.4c-4.6,0-8.3-3.7-8.3-8.3l0,0c0-4.6,3.7-8.3,8.3-8.3h0c4.6,0,8.3,3.7,8.3,8.3l0,0
	C197.2,397.6,193.5,401.4,188.9,401.4z"/>
<path class="st1" d="M53.5,424L53.5,424c-4.6,0-8.3-3.7-8.3-8.3v0c0-4.6,3.7-8.3,8.3-8.3h0c4.6,0,8.3,3.7,8.3,8.3v0
	C61.8,420.3,58.1,424,53.5,424z"/>
<path class="st1" d="M76.1,424L76.1,424c-4.6,0-8.3-3.7-8.3-8.3v0c0-4.6,3.7-8.3,8.3-8.3h0c4.6,0,8.3,3.7,8.3,8.3v0
	C84.4,420.3,80.6,424,76.1,424z"/>
<path class="st1" d="M98.6,424L98.6,424c-4.6,0-8.3-3.7-8.3-8.3v0c0-4.6,3.7-8.3,8.3-8.3h0c4.6,0,8.3,3.7,8.3,8.3v0
	C106.9,420.3,103.2,424,98.6,424z"/>
<path class="st1" d="M121.2,424L121.2,424c-4.6,0-8.3-3.7-8.3-8.3v0c0-4.6,3.7-8.3,8.3-8.3h0c4.6,0,8.3,3.7,8.3,8.3v0
	C129.5,420.3,125.8,424,121.2,424z"/>
<path class="st1" d="M143.8,424L143.8,424c-4.6,0-8.3-3.7-8.3-8.3v0c0-4.6,3.7-8.3,8.3-8.3h0c4.6,0,8.3,3.7,8.3,8.3v0
	C152.1,420.3,148.3,424,143.8,424z"/>
<path class="st1" d="M166.3,424L166.3,424c-4.6,0-8.3-3.7-8.3-8.3v0c0-4.6,3.7-8.3,8.3-8.3h0c4.6,0,8.3,3.7,8.3,8.3v0
	C174.6,420.3,170.9,424,166.3,424z"/>
<path class="st1" d="M188.9,424L188.9,424c-4.6,0-8.3-3.7-8.3-8.3v0c0-4.6,3.7-8.3,8.3-8.3h0c4.6,0,8.3,3.7,8.3,8.3v0
	C197.2,420.3,193.5,424,188.9,424z"/>
<path class="st1" d="M8.3,446.5L8.3,446.5c-4.6,0-8.3-3.7-8.3-8.3l0,0c0-4.6,3.7-8.3,8.3-8.3h0c4.6,0,8.3,3.7,8.3,8.3l0,0
	C16.6,442.8,12.9,446.5,8.3,446.5z"/>
<path class="st1" d="M30.9,446.5L30.9,446.5c-4.6,0-8.3-3.7-8.3-8.3l0,0c0-4.6,3.7-8.3,8.3-8.3h0c4.6,0,8.3,3.7,8.3,8.3l0,0
	C39.2,442.8,35.4,446.5,30.9,446.5z"/>
<path class="st1" d="M53.5,446.5L53.5,446.5c-4.6,0-8.3-3.7-8.3-8.3l0,0c0-4.6,3.7-8.3,8.3-8.3h0c4.6,0,8.3,3.7,8.3,8.3l0,0
	C61.7,442.8,58,446.5,53.5,446.5z"/>
<path class="st1" d="M76,446.5L76,446.5c-4.6,0-8.3-3.7-8.3-8.3l0,0c0-4.6,3.7-8.3,8.3-8.3h0c4.6,0,8.3,3.7,8.3,8.3l0,0
	C84.3,442.8,80.6,446.5,76,446.5z"/>
<path class="st1" d="M98.6,446.5L98.6,446.5c-4.6,0-8.3-3.7-8.3-8.3l0,0c0-4.6,3.7-8.3,8.3-8.3h0c4.6,0,8.3,3.7,8.3,8.3l0,0
	C106.9,442.8,103.1,446.5,98.6,446.5z"/>
<path class="st1" d="M121.2,446.5L121.2,446.5c-4.6,0-8.3-3.7-8.3-8.3l0,0c0-4.6,3.7-8.3,8.3-8.3h0c4.6,0,8.3,3.7,8.3,8.3l0,0
	C129.4,442.8,125.7,446.5,121.2,446.5z"/>
<path class="st1" d="M143.7,446.5L143.7,446.5c-4.6,0-8.3-3.7-8.3-8.3l0,0c0-4.6,3.7-8.3,8.3-8.3h0c4.6,0,8.3,3.7,8.3,8.3l0,0
	C152,442.8,148.3,446.5,143.7,446.5z"/>
<path class="st1" d="M166.3,446.5L166.3,446.5c-4.6,0-8.3-3.7-8.3-8.3l0,0c0-4.6,3.7-8.3,8.3-8.3h0c4.6,0,8.3,3.7,8.3,8.3l0,0
	C174.6,442.8,170.9,446.5,166.3,446.5z"/>
<path class="st1" d="M188.9,446.5L188.9,446.5c-4.6,0-8.3-3.7-8.3-8.3l0,0c0-4.6,3.7-8.3,8.3-8.3h0c4.6,0,8.3,3.7,8.3,8.3l0,0
	C197.2,442.8,193.4,446.5,188.9,446.5z"/>
<path class="st1" d="M8.3,130.5L8.3,130.5c-4.6,0-8.3-3.7-8.3-8.3v0c0-4.6,3.7-8.3,8.3-8.3h0c4.6,0,8.3,3.7,8.3,8.3v0
	C16.6,126.7,12.9,130.5,8.3,130.5z"/>
<path class="st1" d="M30.9,130.5L30.9,130.5c-4.6,0-8.3-3.7-8.3-8.3v0c0-4.6,3.7-8.3,8.3-8.3h0c4.6,0,8.3,3.7,8.3,8.3v0
	C39.2,126.7,35.4,130.5,30.9,130.5z"/>
<path class="st1" d="M53.5,130.5L53.5,130.5c-4.6,0-8.3-3.7-8.3-8.3v0c0-4.6,3.7-8.3,8.3-8.3h0c4.6,0,8.3,3.7,8.3,8.3v0
	C61.7,126.7,58,130.5,53.5,130.5z"/>
<path class="st1" d="M76,130.5L76,130.5c-4.6,0-8.3-3.7-8.3-8.3v0c0-4.6,3.7-8.3,8.3-8.3h0c4.6,0,8.3,3.7,8.3,8.3v0
	C84.3,126.7,80.6,130.5,76,130.5z"/>
<path class="st1" d="M98.6,130.5L98.6,130.5c-4.6,0-8.3-3.7-8.3-8.3v0c0-4.6,3.7-8.3,8.3-8.3h0c4.6,0,8.3,3.7,8.3,8.3v0
	C106.9,126.7,103.1,130.5,98.6,130.5z"/>
<path class="st1" d="M121.2,130.5L121.2,130.5c-4.6,0-8.3-3.7-8.3-8.3v0c0-4.6,3.7-8.3,8.3-8.3h0c4.6,0,8.3,3.7,8.3,8.3v0
	C129.4,126.7,125.7,130.5,121.2,130.5z"/>
<path class="st1" d="M143.7,130.5L143.7,130.5c-4.6,0-8.3-3.7-8.3-8.3v0c0-4.6,3.7-8.3,8.3-8.3h0c4.6,0,8.3,3.7,8.3,8.3v0
	C152,126.7,148.3,130.5,143.7,130.5z"/>
<path class="st1" d="M166.3,130.5L166.3,130.5c-4.6,0-8.3-3.7-8.3-8.3v0c0-4.6,3.7-8.3,8.3-8.3h0c4.6,0,8.3,3.7,8.3,8.3v0
	C174.6,126.7,170.9,130.5,166.3,130.5z"/>
<path class="st1" d="M188.9,130.5L188.9,130.5c-4.6,0-8.3-3.7-8.3-8.3v0c0-4.6,3.7-8.3,8.3-8.3h0c4.6,0,8.3,3.7,8.3,8.3v0
	C197.2,126.7,193.4,130.5,188.9,130.5z"/>
<path class="st1" d="M211.4,130.5L211.4,130.5c-4.6,0-8.3-3.7-8.3-8.3v0c0-4.6,3.7-8.3,8.3-8.3h0c4.6,0,8.3,3.7,8.3,8.3v0
	C219.7,126.7,216,130.5,211.4,130.5z"/>
<path class="st1" d="M234,130.5L234,130.5c-4.6,0-8.3-3.7-8.3-8.3v0c0-4.6,3.7-8.3,8.3-8.3h0c4.6,0,8.3,3.7,8.3,8.3v0
	C242.3,126.7,238.6,130.5,234,130.5z"/>
<path class="st1" d="M256.6,130.5L256.6,130.5c-4.6,0-8.3-3.7-8.3-8.3v0c0-4.6,3.7-8.3,8.3-8.3l0,0c4.6,0,8.3,3.7,8.3,8.3v0
	C264.9,126.7,261.1,130.5,256.6,130.5z"/>
<path class="st1" d="M279.2,130.5L279.2,130.5c-4.6,0-8.3-3.7-8.3-8.3v0c0-4.6,3.7-8.3,8.3-8.3l0,0c4.6,0,8.3,3.7,8.3,8.3v0
	C287.4,126.7,283.7,130.5,279.2,130.5z"/>
<path class="st1" d="M301.7,130.5L301.7,130.5c-4.6,0-8.3-3.7-8.3-8.3v0c0-4.6,3.7-8.3,8.3-8.3h0c4.6,0,8.3,3.7,8.3,8.3v0
	C310,126.7,306.3,130.5,301.7,130.5z"/>
<path class="st1" d="M324.3,130.5L324.3,130.5c-4.6,0-8.3-3.7-8.3-8.3v0c0-4.6,3.7-8.3,8.3-8.3h0c4.6,0,8.3,3.7,8.3,8.3v0
	C332.6,126.7,328.9,130.5,324.3,130.5z"/>
<path class="st1" d="M8.3,175.6L8.3,175.6c-4.6,0-8.3-3.7-8.3-8.3v0c0-4.6,3.7-8.3,8.3-8.3h0c4.6,0,8.3,3.7,8.3,8.3v0
	C16.6,171.9,12.9,175.6,8.3,175.6z"/>
<path class="st1" d="M30.9,175.6L30.9,175.6c-4.6,0-8.3-3.7-8.3-8.3v0c0-4.6,3.7-8.3,8.3-8.3h0c4.6,0,8.3,3.7,8.3,8.3v0
	C39.2,171.9,35.5,175.6,30.9,175.6z"/>
<path class="st1" d="M53.5,175.6L53.5,175.6c-4.6,0-8.3-3.7-8.3-8.3v0c0-4.6,3.7-8.3,8.3-8.3h0c4.6,0,8.3,3.7,8.3,8.3v0
	C61.8,171.9,58,175.6,53.5,175.6z"/>
<path class="st1" d="M76,175.6L76,175.6c-4.6,0-8.3-3.7-8.3-8.3v0c0-4.6,3.7-8.3,8.3-8.3h0c4.6,0,8.3,3.7,8.3,8.3v0
	C84.3,171.9,80.6,175.6,76,175.6z"/>
<path class="st1" d="M98.6,175.6L98.6,175.6c-4.6,0-8.3-3.7-8.3-8.3v0c0-4.6,3.7-8.3,8.3-8.3h0c4.6,0,8.3,3.7,8.3,8.3v0
	C106.9,171.9,103.2,175.6,98.6,175.6z"/>
<path class="st1" d="M121.2,175.6L121.2,175.6c-4.6,0-8.3-3.7-8.3-8.3v0c0-4.6,3.7-8.3,8.3-8.3h0c4.6,0,8.3,3.7,8.3,8.3v0
	C129.5,171.9,125.7,175.6,121.2,175.6z"/>
<path class="st1" d="M143.8,175.6L143.8,175.6c-4.6,0-8.3-3.7-8.3-8.3v0c0-4.6,3.7-8.3,8.3-8.3h0c4.6,0,8.3,3.7,8.3,8.3v0
	C152,171.9,148.3,175.6,143.8,175.6z"/>
<path class="st1" d="M166.3,175.6L166.3,175.6c-4.6,0-8.3-3.7-8.3-8.3v0c0-4.6,3.7-8.3,8.3-8.3h0c4.6,0,8.3,3.7,8.3,8.3v0
	C174.6,171.9,170.9,175.6,166.3,175.6z"/>
<path class="st1" d="M188.9,175.6L188.9,175.6c-4.6,0-8.3-3.7-8.3-8.3v0c0-4.6,3.7-8.3,8.3-8.3h0c4.6,0,8.3,3.7,8.3,8.3v0
	C197.2,171.9,193.4,175.6,188.9,175.6z"/>
<path class="st1" d="M211.5,175.6L211.5,175.6c-4.6,0-8.3-3.7-8.3-8.3v0c0-4.6,3.7-8.3,8.3-8.3h0c4.6,0,8.3,3.7,8.3,8.3v0
	C219.7,171.9,216,175.6,211.5,175.6z"/>
<path class="st1" d="M234,175.6L234,175.6c-4.6,0-8.3-3.7-8.3-8.3v0c0-4.6,3.7-8.3,8.3-8.3h0c4.6,0,8.3,3.7,8.3,8.3v0
	C242.3,171.9,238.6,175.6,234,175.6z"/>
<path class="st1" d="M256.6,175.6L256.6,175.6c-4.6,0-8.3-3.7-8.3-8.3v0c0-4.6,3.7-8.3,8.3-8.3l0,0c4.6,0,8.3,3.7,8.3,8.3v0
	C264.9,171.9,261.2,175.6,256.6,175.6z"/>
<path class="st1" d="M8.3,220.7L8.3,220.7c-4.6,0-8.3-3.7-8.3-8.3v0c0-4.6,3.7-8.3,8.3-8.3h0c4.6,0,8.3,3.7,8.3,8.3v0
	C16.6,217,12.9,220.7,8.3,220.7z"/>
<path class="st1" d="M30.9,220.7L30.9,220.7c-4.6,0-8.3-3.7-8.3-8.3v0c0-4.6,3.7-8.3,8.3-8.3h0c4.6,0,8.3,3.7,8.3,8.3v0
	C39.2,217,35.4,220.7,30.9,220.7z"/>
<path class="st1" d="M53.4,220.7L53.4,220.7c-4.6,0-8.3-3.7-8.3-8.3v0c0-4.6,3.7-8.3,8.3-8.3h0c4.6,0,8.3,3.7,8.3,8.3v0
	C61.7,217,58,220.7,53.4,220.7z"/>
<path class="st1" d="M76,220.7L76,220.7c-4.6,0-8.3-3.7-8.3-8.3v0c0-4.6,3.7-8.3,8.3-8.3h0c4.6,0,8.3,3.7,8.3,8.3v0
	C84.3,217,80.6,220.7,76,220.7z"/>
<path class="st1" d="M98.6,220.7L98.6,220.7c-4.6,0-8.3-3.7-8.3-8.3v0c0-4.6,3.7-8.3,8.3-8.3h0c4.6,0,8.3,3.7,8.3,8.3v0
	C106.9,217,103.1,220.7,98.6,220.7z"/>
<path class="st1" d="M121.2,220.7L121.2,220.7c-4.6,0-8.3-3.7-8.3-8.3v0c0-4.6,3.7-8.3,8.3-8.3h0c4.6,0,8.3,3.7,8.3,8.3v0
	C129.4,217,125.7,220.7,121.2,220.7z"/>
<path class="st1" d="M143.7,220.7L143.7,220.7c-4.6,0-8.3-3.7-8.3-8.3v0c0-4.6,3.7-8.3,8.3-8.3h0c4.6,0,8.3,3.7,8.3,8.3v0
	C152,217,148.3,220.7,143.7,220.7z"/>
<path class="st1" d="M166.3,220.7L166.3,220.7c-4.6,0-8.3-3.7-8.3-8.3v0c0-4.6,3.7-8.3,8.3-8.3h0c4.6,0,8.3,3.7,8.3,8.3v0
	C174.6,217,170.9,220.7,166.3,220.7z"/>
<path class="st1" d="M188.9,220.7L188.9,220.7c-4.6,0-8.3-3.7-8.3-8.3v0c0-4.6,3.7-8.3,8.3-8.3h0c4.6,0,8.3,3.7,8.3,8.3v0
	C197.2,217,193.4,220.7,188.9,220.7z"/>
<path class="st1" d="M211.4,220.7L211.4,220.7c-4.6,0-8.3-3.7-8.3-8.3v0c0-4.6,3.7-8.3,8.3-8.3h0c4.6,0,8.3,3.7,8.3,8.3v0
	C219.7,217,216,220.7,211.4,220.7z"/>
<path class="st1" d="M234,220.7L234,220.7c-4.6,0-8.3-3.7-8.3-8.3v0c0-4.6,3.7-8.3,8.3-8.3h0c4.6,0,8.3,3.7,8.3,8.3v0
	C242.3,217,238.6,220.7,234,220.7z"/>
<path class="st1" d="M256.6,220.7L256.6,220.7c-4.6,0-8.3-3.7-8.3-8.3v0c0-4.6,3.7-8.3,8.3-8.3h0c4.6,0,8.3,3.7,8.3,8.3v0
	C264.9,217,261.1,220.7,256.6,220.7z"/>
<path class="st1" d="M8.3,198.2L8.3,198.2c-4.6,0-8.3-3.7-8.3-8.3v0c0-4.6,3.7-8.3,8.3-8.3h0c4.6,0,8.3,3.7,8.3,8.3v0
	C16.6,194.4,12.9,198.2,8.3,198.2z"/>
<path class="st1" d="M30.9,198.2L30.9,198.2c-4.6,0-8.3-3.7-8.3-8.3v0c0-4.6,3.7-8.3,8.3-8.3h0c4.6,0,8.3,3.7,8.3,8.3v0
	C39.2,194.4,35.4,198.2,30.9,198.2z"/>
<path class="st1" d="M53.4,198.2L53.4,198.2c-4.6,0-8.3-3.7-8.3-8.3v0c0-4.6,3.7-8.3,8.3-8.3h0c4.6,0,8.3,3.7,8.3,8.3v0
	C61.7,194.4,58,198.2,53.4,198.2z"/>
<path class="st1" d="M76,198.2L76,198.2c-4.6,0-8.3-3.7-8.3-8.3v0c0-4.6,3.7-8.3,8.3-8.3h0c4.6,0,8.3,3.7,8.3,8.3v0
	C84.3,194.4,80.6,198.2,76,198.2z"/>
<path class="st1" d="M98.6,198.2L98.6,198.2c-4.6,0-8.3-3.7-8.3-8.3v0c0-4.6,3.7-8.3,8.3-8.3h0c4.6,0,8.3,3.7,8.3,8.3v0
	C106.9,194.4,103.1,198.2,98.6,198.2z"/>
<path class="st1" d="M121.2,198.2L121.2,198.2c-4.6,0-8.3-3.7-8.3-8.3v0c0-4.6,3.7-8.3,8.3-8.3h0c4.6,0,8.3,3.7,8.3,8.3v0
	C129.4,194.4,125.7,198.2,121.2,198.2z"/>
<path class="st1" d="M143.7,198.2L143.7,198.2c-4.6,0-8.3-3.7-8.3-8.3v0c0-4.6,3.7-8.3,8.3-8.3h0c4.6,0,8.3,3.7,8.3,8.3v0
	C152,194.4,148.3,198.2,143.7,198.2z"/>
<path class="st1" d="M166.3,198.2L166.3,198.2c-4.6,0-8.3-3.7-8.3-8.3v0c0-4.6,3.7-8.3,8.3-8.3h0c4.6,0,8.3,3.7,8.3,8.3v0
	C174.6,194.4,170.9,198.2,166.3,198.2z"/>
<path class="st1" d="M188.9,198.2L188.9,198.2c-4.6,0-8.3-3.7-8.3-8.3v0c0-4.6,3.7-8.3,8.3-8.3h0c4.6,0,8.3,3.7,8.3,8.3v0
	C197.2,194.4,193.4,198.2,188.9,198.2z"/>
<path class="st1" d="M211.4,198.2L211.4,198.2c-4.6,0-8.3-3.7-8.3-8.3v0c0-4.6,3.7-8.3,8.3-8.3h0c4.6,0,8.3,3.7,8.3,8.3v0
	C219.7,194.4,216,198.2,211.4,198.2z"/>
<path class="st1" d="M234,198.2L234,198.2c-4.6,0-8.3-3.7-8.3-8.3v0c0-4.6,3.7-8.3,8.3-8.3h0c4.6,0,8.3,3.7,8.3,8.3v0
	C242.3,194.4,238.6,198.2,234,198.2z"/>
<path class="st1" d="M256.6,198.2L256.6,198.2c-4.6,0-8.3-3.7-8.3-8.3v0c0-4.6,3.7-8.3,8.3-8.3h0c4.6,0,8.3,3.7,8.3,8.3v0
	C264.9,194.4,261.1,198.2,256.6,198.2z"/>
<path class="st1" d="M53.5,243.3L53.5,243.3c-4.6,0-8.3-3.7-8.3-8.3v0c0-4.6,3.7-8.3,8.3-8.3h0c4.6,0,8.3,3.7,8.3,8.3v0
	C61.8,239.6,58,243.3,53.5,243.3z"/>
<path class="st1" d="M76,243.3L76,243.3c-4.6,0-8.3-3.7-8.3-8.3v0c0-4.6,3.7-8.3,8.3-8.3h0c4.6,0,8.3,3.7,8.3,8.3v0
	C84.3,239.6,80.6,243.3,76,243.3z"/>
<path class="st1" d="M98.6,243.3L98.6,243.3c-4.6,0-8.3-3.7-8.3-8.3v0c0-4.6,3.7-8.3,8.3-8.3h0c4.6,0,8.3,3.7,8.3,8.3v0
	C106.9,239.6,103.2,243.3,98.6,243.3z"/>
<path class="st1" d="M121.2,243.3L121.2,243.3c-4.6,0-8.3-3.7-8.3-8.3v0c0-4.6,3.7-8.3,8.3-8.3h0c4.6,0,8.3,3.7,8.3,8.3v0
	C129.5,239.6,125.7,243.3,121.2,243.3z"/>
<path class="st1" d="M143.8,243.3L143.8,243.3c-4.6,0-8.3-3.7-8.3-8.3v0c0-4.6,3.7-8.3,8.3-8.3h0c4.6,0,8.3,3.7,8.3,8.3v0
	C152,239.6,148.3,243.3,143.8,243.3z"/>
<path class="st1" d="M166.3,243.3L166.3,243.3c-4.6,0-8.3-3.7-8.3-8.3v0c0-4.6,3.7-8.3,8.3-8.3h0c4.6,0,8.3,3.7,8.3,8.3v0
	C174.6,239.6,170.9,243.3,166.3,243.3z"/>
<path class="st1" d="M188.9,243.3L188.9,243.3c-4.6,0-8.3-3.7-8.3-8.3v0c0-4.6,3.7-8.3,8.3-8.3h0c4.6,0,8.3,3.7,8.3,8.3v0
	C197.2,239.6,193.4,243.3,188.9,243.3z"/>
<path class="st1" d="M211.5,243.3L211.5,243.3c-4.6,0-8.3-3.7-8.3-8.3v0c0-4.6,3.7-8.3,8.3-8.3h0c4.6,0,8.3,3.7,8.3,8.3v0
	C219.7,239.6,216,243.3,211.5,243.3z"/>
<path class="st1" d="M234,243.3L234,243.3c-4.6,0-8.3-3.7-8.3-8.3v0c0-4.6,3.7-8.3,8.3-8.3h0c4.6,0,8.3,3.7,8.3,8.3v0
	C242.3,239.6,238.6,243.3,234,243.3z"/>
<path class="st1" d="M256.6,243.3L256.6,243.3c-4.6,0-8.3-3.7-8.3-8.3v0c0-4.6,3.7-8.3,8.3-8.3l0,0c4.6,0,8.3,3.7,8.3,8.3v0
	C264.9,239.6,261.2,243.3,256.6,243.3z"/>
<path class="st1" d="M53.5,288.4L53.5,288.4c-4.6,0-8.3-3.7-8.3-8.3v0c0-4.6,3.7-8.3,8.3-8.3h0c4.6,0,8.3,3.7,8.3,8.3v0
	C61.8,284.7,58,288.4,53.5,288.4z"/>
<path class="st1" d="M76.1,288.4L76.1,288.4c-4.6,0-8.3-3.7-8.3-8.3v0c0-4.6,3.7-8.3,8.3-8.3h0c4.6,0,8.3,3.7,8.3,8.3v0
	C84.3,284.7,80.6,288.4,76.1,288.4z"/>
<path class="st1" d="M98.6,288.4L98.6,288.4c-4.6,0-8.3-3.7-8.3-8.3v0c0-4.6,3.7-8.3,8.3-8.3h0c4.6,0,8.3,3.7,8.3,8.3v0
	C106.9,284.7,103.2,288.4,98.6,288.4z"/>
<path class="st1" d="M121.2,288.4L121.2,288.4c-4.6,0-8.3-3.7-8.3-8.3v0c0-4.6,3.7-8.3,8.3-8.3h0c4.6,0,8.3,3.7,8.3,8.3v0
	C129.5,284.7,125.8,288.4,121.2,288.4z"/>
<path class="st1" d="M143.8,288.4L143.8,288.4c-4.6,0-8.3-3.7-8.3-8.3v0c0-4.6,3.7-8.3,8.3-8.3h0c4.6,0,8.3,3.7,8.3,8.3v0
	C152.1,284.7,148.3,288.4,143.8,288.4z"/>
<path class="st1" d="M166.3,288.4L166.3,288.4c-4.6,0-8.3-3.7-8.3-8.3v0c0-4.6,3.7-8.3,8.3-8.3h0c4.6,0,8.3,3.7,8.3,8.3v0
	C174.6,284.7,170.9,288.4,166.3,288.4z"/>
<path class="st1" d="M188.9,288.4L188.9,288.4c-4.6,0-8.3-3.7-8.3-8.3v0c0-4.6,3.7-8.3,8.3-8.3h0c4.6,0,8.3,3.7,8.3,8.3v0
	C197.2,284.7,193.5,288.4,188.9,288.4z"/>
<path class="st1" d="M211.5,288.4L211.5,288.4c-4.6,0-8.3-3.7-8.3-8.3v0c0-4.6,3.7-8.3,8.3-8.3h0c4.6,0,8.3,3.7,8.3,8.3v0
	C219.8,284.7,216,288.4,211.5,288.4z"/>
<path class="st1" d="M234.1,288.4L234.1,288.4c-4.6,0-8.3-3.7-8.3-8.3v0c0-4.6,3.7-8.3,8.3-8.3h0c4.6,0,8.3,3.7,8.3,8.3v0
	C242.3,284.7,238.6,288.4,234.1,288.4z"/>
<path class="st1" d="M53.5,265.9L53.5,265.9c-4.6,0-8.3-3.7-8.3-8.3v0c0-4.6,3.7-8.3,8.3-8.3h0c4.6,0,8.3,3.7,8.3,8.3v0
	C61.8,262.1,58,265.9,53.5,265.9z"/>
<path class="st1" d="M76.1,265.9L76.1,265.9c-4.6,0-8.3-3.7-8.3-8.3v0c0-4.6,3.7-8.3,8.3-8.3h0c4.6,0,8.3,3.7,8.3,8.3v0
	C84.3,262.1,80.6,265.9,76.1,265.9z"/>
<path class="st1" d="M98.6,265.9L98.6,265.9c-4.6,0-8.3-3.7-8.3-8.3v0c0-4.6,3.7-8.3,8.3-8.3h0c4.6,0,8.3,3.7,8.3,8.3v0
	C106.9,262.1,103.2,265.9,98.6,265.9z"/>
<path class="st1" d="M121.2,265.9L121.2,265.9c-4.6,0-8.3-3.7-8.3-8.3v0c0-4.6,3.7-8.3,8.3-8.3h0c4.6,0,8.3,3.7,8.3,8.3v0
	C129.5,262.1,125.8,265.9,121.2,265.9z"/>
<path class="st1" d="M143.8,265.9L143.8,265.9c-4.6,0-8.3-3.7-8.3-8.3v0c0-4.6,3.7-8.3,8.3-8.3h0c4.6,0,8.3,3.7,8.3,8.3v0
	C152.1,262.1,148.3,265.9,143.8,265.9z"/>
<path class="st1" d="M166.3,265.9L166.3,265.9c-4.6,0-8.3-3.7-8.3-8.3v0c0-4.6,3.7-8.3,8.3-8.3h0c4.6,0,8.3,3.7,8.3,8.3v0
	C174.6,262.1,170.9,265.9,166.3,265.9z"/>
<path class="st1" d="M188.9,265.9L188.9,265.9c-4.6,0-8.3-3.7-8.3-8.3v0c0-4.6,3.7-8.3,8.3-8.3h0c4.6,0,8.3,3.7,8.3,8.3v0
	C197.2,262.1,193.5,265.9,188.9,265.9z"/>
<path class="st1" d="M211.5,265.9L211.5,265.9c-4.6,0-8.3-3.7-8.3-8.3v0c0-4.6,3.7-8.3,8.3-8.3h0c4.6,0,8.3,3.7,8.3,8.3v0
	C219.8,262.1,216,265.9,211.5,265.9z"/>
<path class="st1" d="M234.1,265.9L234.1,265.9c-4.6,0-8.3-3.7-8.3-8.3v0c0-4.6,3.7-8.3,8.3-8.3h0c4.6,0,8.3,3.7,8.3,8.3v0
	C242.3,262.1,238.6,265.9,234.1,265.9z"/>
<path class="st1" d="M256.6,265.9L256.6,265.9c-4.6,0-8.3-3.7-8.3-8.3v0c0-4.6,3.7-8.3,8.3-8.3l0,0c4.6,0,8.3,3.7,8.3,8.3v0
	C264.9,262.1,261.2,265.9,256.6,265.9z"/>
<path class="st1" d="M53.5,311L53.5,311c-4.6,0-8.3-3.7-8.3-8.3l0,0c0-4.6,3.7-8.3,8.3-8.3h0c4.6,0,8.3,3.7,8.3,8.3l0,0
	C61.8,307.3,58,311,53.5,311z"/>
<path class="st1" d="M76.1,311L76.1,311c-4.6,0-8.3-3.7-8.3-8.3l0,0c0-4.6,3.7-8.3,8.3-8.3h0c4.6,0,8.3,3.7,8.3,8.3l0,0
	C84.3,307.3,80.6,311,76.1,311z"/>
<path class="st1" d="M98.6,311L98.6,311c-4.6,0-8.3-3.7-8.3-8.3l0,0c0-4.6,3.7-8.3,8.3-8.3h0c4.6,0,8.3,3.7,8.3,8.3l0,0
	C106.9,307.3,103.2,311,98.6,311z"/>
<path class="st1" d="M121.2,311L121.2,311c-4.6,0-8.3-3.7-8.3-8.3l0,0c0-4.6,3.7-8.3,8.3-8.3h0c4.6,0,8.3,3.7,8.3,8.3l0,0
	C129.5,307.3,125.8,311,121.2,311z"/>
<path class="st1" d="M143.8,311L143.8,311c-4.6,0-8.3-3.7-8.3-8.3l0,0c0-4.6,3.7-8.3,8.3-8.3h0c4.6,0,8.3,3.7,8.3,8.3l0,0
	C152.1,307.3,148.3,311,143.8,311z"/>
<path class="st1" d="M166.3,311L166.3,311c-4.6,0-8.3-3.7-8.3-8.3l0,0c0-4.6,3.7-8.3,8.3-8.3h0c4.6,0,8.3,3.7,8.3,8.3l0,0
	C174.6,307.3,170.9,311,166.3,311z"/>
<path class="st1" d="M188.9,311L188.9,311c-4.6,0-8.3-3.7-8.3-8.3l0,0c0-4.6,3.7-8.3,8.3-8.3h0c4.6,0,8.3,3.7,8.3,8.3l0,0
	C197.2,307.3,193.5,311,188.9,311z"/>
<path class="st1" d="M211.5,311L211.5,311c-4.6,0-8.3-3.7-8.3-8.3l0,0c0-4.6,3.7-8.3,8.3-8.3h0c4.6,0,8.3,3.7,8.3,8.3l0,0
	C219.8,307.3,216,311,211.5,311z"/>
<path class="st1" d="M234.1,311L234.1,311c-4.6,0-8.3-3.7-8.3-8.3l0,0c0-4.6,3.7-8.3,8.3-8.3h0c4.6,0,8.3,3.7,8.3,8.3l0,0
	C242.3,307.3,238.6,311,234.1,311z"/>
<path class="st1" d="M279.2,175.6L279.2,175.6c-4.6,0-8.3-3.7-8.3-8.3v0c0-4.6,3.7-8.3,8.3-8.3h0c4.6,0,8.3,3.7,8.3,8.3v0
	C287.5,171.9,283.8,175.6,279.2,175.6z"/>
<path class="st1" d="M279.2,220.7L279.2,220.7c-4.6,0-8.3-3.7-8.3-8.3v0c0-4.6,3.7-8.3,8.3-8.3l0,0c4.6,0,8.3,3.7,8.3,8.3v0
	C287.5,217,283.7,220.7,279.2,220.7z"/>
<path class="st1" d="M279.2,198.2L279.2,198.2c-4.6,0-8.3-3.7-8.3-8.3v0c0-4.6,3.7-8.3,8.3-8.3l0,0c4.6,0,8.3,3.7,8.3,8.3v0
	C287.5,194.4,283.7,198.2,279.2,198.2z"/>
<path class="st1" d="M301.7,175.6L301.7,175.6c-4.6,0-8.3-3.7-8.3-8.3v0c0-4.6,3.7-8.3,8.3-8.3l0,0c4.6,0,8.3,3.7,8.3,8.3v0
	C310,171.9,306.3,175.6,301.7,175.6z"/>
<path class="st1" d="M301.7,198.2L301.7,198.2c-4.6,0-8.3-3.7-8.3-8.3v0c0-4.6,3.7-8.3,8.3-8.3l0,0c4.6,0,8.3,3.7,8.3,8.3v0
	C310,194.4,306.3,198.2,301.7,198.2z"/>
<path class="st1" d="M301.7,220.7L301.7,220.7c-4.6,0-8.3-3.7-8.3-8.3v0c0-4.6,3.7-8.3,8.3-8.3l0,0c4.6,0,8.3,3.7,8.3,8.3v0
	C310,217,306.3,220.7,301.7,220.7z"/>
<path class="st1" d="M8.3,62.7L8.3,62.7C3.7,62.7,0,59,0,54.5v0c0-4.6,3.7-8.3,8.3-8.3h0c4.6,0,8.3,3.7,8.3,8.3v0
	C16.6,59,12.8,62.7,8.3,62.7z"/>
<path class="st1" d="M30.9,62.7L30.9,62.7c-4.6,0-8.3-3.7-8.3-8.3v0c0-4.6,3.7-8.3,8.3-8.3h0c4.6,0,8.3,3.7,8.3,8.3v0
	C39.1,59,35.4,62.7,30.9,62.7z"/>
<path class="st1" d="M8.3,288.4L8.3,288.4c-4.6,0-8.3-3.7-8.3-8.3l0,0c0-4.6,3.7-8.3,8.3-8.3h0c4.6,0,8.3,3.7,8.3,8.3l0,0
	C16.6,284.7,12.8,288.4,8.3,288.4z"/>
<path class="st1" d="M30.9,288.4L30.9,288.4c-4.6,0-8.3-3.7-8.3-8.3l0,0c0-4.6,3.7-8.3,8.3-8.3h0c4.6,0,8.3,3.7,8.3,8.3l0,0
	C39.1,284.7,35.4,288.4,30.9,288.4z"/>
<path class="st1" d="M8.3,265.9L8.3,265.9c-4.6,0-8.3-3.7-8.3-8.3v0c0-4.6,3.7-8.3,8.3-8.3h0c4.6,0,8.3,3.7,8.3,8.3v0
	C16.6,262.1,12.8,265.9,8.3,265.9z"/>
<path class="st1" d="M30.9,265.9L30.9,265.9c-4.6,0-8.3-3.7-8.3-8.3v0c0-4.6,3.7-8.3,8.3-8.3h0c4.6,0,8.3,3.7,8.3,8.3v0
	C39.1,262.1,35.4,265.9,30.9,265.9z"/>
<path class="st1" d="M8.3,333.6L8.3,333.6c-4.6,0-8.3-3.7-8.3-8.3v0c0-4.6,3.7-8.3,8.3-8.3h0c4.6,0,8.3,3.7,8.3,8.3v0
	C16.6,329.8,12.9,333.6,8.3,333.6z"/>
<path class="st1" d="M30.9,333.6L30.9,333.6c-4.6,0-8.3-3.7-8.3-8.3v0c0-4.6,3.7-8.3,8.3-8.3h0c4.6,0,8.3,3.7,8.3,8.3v0
	C39.2,329.8,35.4,333.6,30.9,333.6z"/>
<path class="st1" d="M8.3,311L8.3,311c-4.6,0-8.3-3.7-8.3-8.3v0c0-4.6,3.7-8.3,8.3-8.3h0c4.6,0,8.3,3.7,8.3,8.3v0
	C16.6,307.3,12.9,311,8.3,311z"/>
<path class="st1" d="M30.9,311L30.9,311c-4.6,0-8.3-3.7-8.3-8.3v0c0-4.6,3.7-8.3,8.3-8.3h0c4.6,0,8.3,3.7,8.3,8.3v0
	C39.2,307.3,35.4,311,30.9,311z"/>
<path class="st1" d="M8.3,356.1L8.3,356.1c-4.6,0-8.3-3.7-8.3-8.3v0c0-4.6,3.7-8.3,8.3-8.3h0c4.6,0,8.3,3.7,8.3,8.3v0
	C16.6,352.4,12.9,356.1,8.3,356.1z"/>
<path class="st1" d="M30.9,356.1L30.9,356.1c-4.6,0-8.3-3.7-8.3-8.3v0c0-4.6,3.7-8.3,8.3-8.3h0c4.6,0,8.3,3.7,8.3,8.3v0
	C39.2,352.4,35.5,356.1,30.9,356.1z"/>
<path class="st1" d="M8.3,401.3L8.3,401.3c-4.6,0-8.3-3.7-8.3-8.3v0c0-4.6,3.7-8.3,8.3-8.3h0c4.6,0,8.3,3.7,8.3,8.3v0
	C16.6,397.6,12.9,401.3,8.3,401.3z"/>
<path class="st1" d="M30.9,401.3L30.9,401.3c-4.6,0-8.3-3.7-8.3-8.3v0c0-4.6,3.7-8.3,8.3-8.3h0c4.6,0,8.3,3.7,8.3,8.3v0
	C39.2,397.6,35.4,401.3,30.9,401.3z"/>
<path class="st1" d="M8.3,424L8.3,424c-4.6,0-8.3-3.7-8.3-8.3v0c0-4.6,3.7-8.3,8.3-8.3h0c4.6,0,8.3,3.7,8.3,8.3v0
	C16.6,420.3,12.9,424,8.3,424z"/>
<path class="st1" d="M30.9,424L30.9,424c-4.6,0-8.3-3.7-8.3-8.3v0c0-4.6,3.7-8.3,8.3-8.3h0c4.6,0,8.3,3.7,8.3,8.3v0
	C39.2,420.3,35.4,424,30.9,424z"/>
<path class="st1" d="M8.3,378.7L8.3,378.7c-4.6,0-8.3-3.7-8.3-8.3v0c0-4.6,3.7-8.3,8.3-8.3h0c4.6,0,8.3,3.7,8.3,8.3v0
	C16.6,375,12.9,378.7,8.3,378.7z"/>
<path class="st1" d="M30.9,378.7L30.9,378.7c-4.6,0-8.3-3.7-8.3-8.3v0c0-4.6,3.7-8.3,8.3-8.3h0c4.6,0,8.3,3.7,8.3,8.3v0
	C39.2,375,35.4,378.7,30.9,378.7z"/>
<path class="st1" d="M8.3,243.3L8.3,243.3c-4.6,0-8.3-3.7-8.3-8.3v0c0-4.6,3.7-8.3,8.3-8.3h0c4.6,0,8.3,3.7,8.3,8.3v0
	C16.6,239.6,12.8,243.3,8.3,243.3z"/>
<path class="st1" d="M30.9,243.3L30.9,243.3c-4.6,0-8.3-3.7-8.3-8.3v0c0-4.6,3.7-8.3,8.3-8.3h0c4.6,0,8.3,3.7,8.3,8.3v0
	C39.1,239.6,35.4,243.3,30.9,243.3z"/>
<path class="st1" d="M53.4,62.7L53.4,62.7c-4.6,0-8.3-3.7-8.3-8.3v0c0-4.6,3.7-8.3,8.3-8.3h0c4.6,0,8.3,3.7,8.3,8.3v0
	C61.7,59,58,62.7,53.4,62.7z"/>
<path class="st1" d="M76,62.7L76,62.7c-4.6,0-8.3-3.7-8.3-8.3v0c0-4.6,3.7-8.3,8.3-8.3h0c4.6,0,8.3,3.7,8.3,8.3v0
	C84.3,59,80.6,62.7,76,62.7z"/>
<path class="st1" d="M98.6,62.7L98.6,62.7c-4.6,0-8.3-3.7-8.3-8.3v0c0-4.6,3.7-8.3,8.3-8.3h0c4.6,0,8.3,3.7,8.3,8.3v0
	C106.9,59,103.1,62.7,98.6,62.7z"/>
<path class="st1" d="M121.1,62.7L121.1,62.7c-4.6,0-8.3-3.7-8.3-8.3v0c0-4.6,3.7-8.3,8.3-8.3h0c4.6,0,8.3,3.7,8.3,8.3v0
	C129.4,59,125.7,62.7,121.1,62.7z"/>
<path class="st1" d="M143.7,62.7L143.7,62.7c-4.6,0-8.3-3.7-8.3-8.3v0c0-4.6,3.7-8.3,8.3-8.3h0c4.6,0,8.3,3.7,8.3,8.3v0
	C152,59,148.3,62.7,143.7,62.7z"/>
<path class="st1" d="M166.3,62.7L166.3,62.7c-4.6,0-8.3-3.7-8.3-8.3v0c0-4.6,3.7-8.3,8.3-8.3h0c4.6,0,8.3,3.7,8.3,8.3v0
	C174.6,59,170.8,62.7,166.3,62.7z"/>
<path class="st1" d="M188.8,62.7L188.8,62.7c-4.6,0-8.3-3.7-8.3-8.3v0c0-4.6,3.7-8.3,8.3-8.3h0c4.6,0,8.3,3.7,8.3,8.3v0
	C197.1,59,193.4,62.7,188.8,62.7z"/>
<path class="st1" d="M211.4,62.7L211.4,62.7c-4.6,0-8.3-3.7-8.3-8.3v0c0-4.6,3.7-8.3,8.3-8.3h0c4.6,0,8.3,3.7,8.3,8.3v0
	C219.7,59,216,62.7,211.4,62.7z"/>
<path class="st1" d="M234,62.7L234,62.7c-4.6,0-8.3-3.7-8.3-8.3v0c0-4.6,3.7-8.3,8.3-8.3h0c4.6,0,8.3,3.7,8.3,8.3v0
	C242.3,59,238.5,62.7,234,62.7z"/>
<path class="st1" d="M256.6,62.7L256.6,62.7c-4.6,0-8.3-3.7-8.3-8.3v0c0-4.6,3.7-8.3,8.3-8.3h0c4.6,0,8.3,3.7,8.3,8.3v0
	C264.8,59,261.1,62.7,256.6,62.7z"/>
<path class="st1" d="M279.1,62.7L279.1,62.7c-4.6,0-8.3-3.7-8.3-8.3v0c0-4.6,3.7-8.3,8.3-8.3h0c4.6,0,8.3,3.7,8.3,8.3v0
	C287.4,59,283.7,62.7,279.1,62.7z"/>
<path class="st1" d="M301.7,62.7L301.7,62.7c-4.6,0-8.3-3.7-8.3-8.3v0c0-4.6,3.7-8.3,8.3-8.3l0,0c4.6,0,8.3,3.7,8.3,8.3v0
	C310,59,306.3,62.7,301.7,62.7z"/>
<path class="st1" d="M324.3,62.7L324.3,62.7c-4.6,0-8.3-3.7-8.3-8.3v0c0-4.6,3.7-8.3,8.3-8.3l0,0c4.6,0,8.3,3.7,8.3,8.3v0
	C332.6,59,328.8,62.7,324.3,62.7z"/>
<path class="st1" d="M346.8,62.7L346.8,62.7c-4.6,0-8.3-3.7-8.3-8.3v0c0-4.6,3.7-8.3,8.3-8.3h0c4.6,0,8.3,3.7,8.3,8.3v0
	C355.1,59,351.4,62.7,346.8,62.7z"/>
<path class="st1" d="M369.4,85.3L369.4,85.3c-4.6,0-8.3-3.7-8.3-8.3v0c0-4.6,3.7-8.3,8.3-8.3h0c4.6,0,8.3,3.7,8.3,8.3v0
	C377.7,81.6,374,85.3,369.4,85.3z"/>
<path class="st1" d="M369.4,62.7L369.4,62.7c-4.6,0-8.3-3.7-8.3-8.3v0c0-4.6,3.7-8.3,8.3-8.3h0c4.6,0,8.3,3.7,8.3,8.3v0
	C377.7,59,374,62.7,369.4,62.7z"/>
<path class="st1" d="M346.8,130.4L346.8,130.4c-4.6,0-8.3-3.7-8.3-8.3v0c0-4.6,3.7-8.3,8.3-8.3h0c4.6,0,8.3,3.7,8.3,8.3v0
	C355.1,126.7,351.4,130.4,346.8,130.4z"/>
<path class="st1" d="M346.8,107.9L346.8,107.9c-4.6,0-8.3-3.7-8.3-8.3v0c0-4.6,3.7-8.3,8.3-8.3h0c4.6,0,8.3,3.7,8.3,8.3v0
	C355.1,104.2,351.4,107.9,346.8,107.9z"/>
<path class="st1" d="M324.3,175.6L324.3,175.6c-4.6,0-8.3-3.7-8.3-8.3v0c0-4.6,3.7-8.3,8.3-8.3l0,0c4.6,0,8.3,3.7,8.3,8.3v0
	C332.6,171.9,328.8,175.6,324.3,175.6z"/>
<path class="st1" d="M324.3,153L324.3,153c-4.6,0-8.3-3.7-8.3-8.3v0c0-4.6,3.7-8.3,8.3-8.3l0,0c4.6,0,8.3,3.7,8.3,8.3v0
	C332.6,149.3,328.8,153,324.3,153z"/>
<path class="st1" d="M279.2,265.9L279.2,265.9c-4.6,0-8.3-3.7-8.3-8.3l0,0c0-4.6,3.7-8.3,8.3-8.3l0,0c4.6,0,8.3,3.7,8.3,8.3l0,0
	C287.5,262.2,283.7,265.9,279.2,265.9z"/>
<path class="st1" d="M279.2,243.3L279.2,243.3c-4.6,0-8.3-3.7-8.3-8.3v0c0-4.6,3.7-8.3,8.3-8.3l0,0c4.6,0,8.3,3.7,8.3,8.3v0
	C287.5,239.6,283.7,243.3,279.2,243.3z"/>
<path class="st1" d="M301.7,243.3L301.7,243.3c-4.6,0-8.3-3.7-8.3-8.3v0c0-4.6,3.7-8.3,8.3-8.3l0,0c4.6,0,8.3,3.7,8.3,8.3v0
	C310,239.6,306.3,243.3,301.7,243.3z"/>
<path class="st1" d="M256.6,311L256.6,311c-4.6,0-8.3-3.7-8.3-8.3v0c0-4.6,3.7-8.3,8.3-8.3h0c4.6,0,8.3,3.7,8.3,8.3v0
	C264.8,307.3,261.1,311,256.6,311z"/>
<path class="st1" d="M256.6,288.5L256.6,288.5c-4.6,0-8.3-3.7-8.3-8.3v0c0-4.6,3.7-8.3,8.3-8.3h0c4.6,0,8.3,3.7,8.3,8.3v0
	C264.8,284.7,261.1,288.5,256.6,288.5z"/>
<path class="st1" d="M279.1,288.5L279.1,288.5c-4.6,0-8.3-3.7-8.3-8.3v0c0-4.6,3.7-8.3,8.3-8.3h0c4.6,0,8.3,3.7,8.3,8.3v0
	C287.4,284.7,283.7,288.5,279.1,288.5z"/>
<path class="st1" d="M256.6,333.6L256.6,333.6c-4.6,0-8.3-3.7-8.3-8.3l0,0c0-4.6,3.7-8.3,8.3-8.3l0,0c4.6,0,8.3,3.7,8.3,8.3l0,0
	C264.9,329.9,261.1,333.6,256.6,333.6z"/>
<path class="st1" d="M234,356.2L234,356.2c-4.6,0-8.3-3.7-8.3-8.3l0,0c0-4.6,3.7-8.3,8.3-8.3h0c4.6,0,8.3,3.7,8.3,8.3l0,0
	C242.3,352.4,238.5,356.2,234,356.2z"/>
<path class="st1" d="M234,333.6L234,333.6c-4.6,0-8.3-3.7-8.3-8.3l0,0c0-4.6,3.7-8.3,8.3-8.3h0c4.6,0,8.3,3.7,8.3,8.3l0,0
	C242.3,329.9,238.5,333.6,234,333.6z"/>
<path class="st1" d="M234,378.7L234,378.7c-4.6,0-8.3-3.7-8.3-8.3l0,0c0-4.6,3.7-8.3,8.3-8.3h0c4.6,0,8.3,3.7,8.3,8.3l0,0
	C242.3,375,238.6,378.7,234,378.7z"/>
<g>
	<text transform="matrix(1 0 0 1 6.6388 10.1294)" class="st2 st3 st4">1</text>
	<text transform="matrix(1 0 0 1 28.7013 10.1294)" class="st2 st3 st4">2</text>
	<text transform="matrix(1 0 0 1 51.2755 10.1294)" class="st2 st3 st4">3</text>
	<text transform="matrix(1 0 0 1 73.7902 10.1294)" class="st2 st3 st4">4</text>
	<text transform="matrix(1 0 0 1 96.463 10.1294)" class="st2 st3 st4">5</text>
	<text transform="matrix(1 0 0 1 118.7853 10.1294)" class="st2 st3 st4">6</text>
	<text transform="matrix(1 0 0 1 141.7462 10.1294)" class="st2 st3 st4">7</text>
	<text transform="matrix(1 0 0 1 164.0079 10.1294)" class="st2 st3 st4">8</text>
	<text transform="matrix(1 0 0 1 186.6241 10.1294)" class="st2 st3 st4">9</text>
	<text transform="matrix(1 0 0 1 207.0803 10.1294)" class="st2 st3 st4">10</text>
	<text transform="matrix(1 0 0 1 230.634 10.1294)" class="st2 st3 st4">11</text>
	<text transform="matrix(1 0 0 1 252.6243 10.1294)" class="st2 st3 st4">12</text>
	<text transform="matrix(1 0 0 1 6.5734 57.4399)" class="st2 st3 st4">1</text>
	<text transform="matrix(1 0 0 1 28.6349 57.4399)" class="st2 st3 st4">2</text>
	<text transform="matrix(1 0 0 1 51.2091 57.4399)" class="st2 st3 st4">3</text>
	<text transform="matrix(1 0 0 1 73.7238 57.4399)" class="st2 st3 st4">4</text>
	<text transform="matrix(1 0 0 1 96.3976 57.4399)" class="st2 st3 st4">5</text>
	<text transform="matrix(1 0 0 1 118.7198 57.4399)" class="st2 st3 st4">6</text>
	<text transform="matrix(1 0 0 1 141.7462 57.4399)" class="st2 st3 st4">7</text>
	<text transform="matrix(1 0 0 1 163.9366 57.4399)" class="st2 st3 st4">8</text>
	<text transform="matrix(1 0 0 1 186.4308 57.4399)" class="st2 st3 st4">9</text>
	<text transform="matrix(1 0 0 1 207.0803 57.4399)" class="st2 st3 st4">10</text>
	<text transform="matrix(1 0 0 1 230.5627 57.4399)" class="st2 st3 st4">11</text>
	<text transform="matrix(1 0 0 1 252.6252 57.4399)" class="st2 st3 st4">12</text>
	<text transform="matrix(1 0 0 1 275.1985 57.4399)" class="st2 st3 st4">13</text>
	<text transform="matrix(1 0 0 1 297.7122 57.4399)" class="st2 st3 st4">14</text>
	<text transform="matrix(1 0 0 1 320.387 57.4399)" class="st2 st3 st4">15</text>
	<text transform="matrix(1 0 0 1 342.7092 57.4399)" class="st2 st3 st4">16</text>
	<text transform="matrix(1 0 0 1 365.385 57.4399)" class="st2 st3 st4">17</text>
	<text transform="matrix(1 0 0 1 6.5734 79.7739)" class="st2 st3 st4">1</text>
	<text transform="matrix(1 0 0 1 28.6349 79.7739)" class="st2 st3 st4">2</text>
	<text transform="matrix(1 0 0 1 51.2091 79.7739)" class="st2 st3 st4">3</text>
	<text transform="matrix(1 0 0 1 73.7238 79.7739)" class="st2 st3 st4">4</text>
	<text transform="matrix(1 0 0 1 96.3976 79.7739)" class="st2 st3 st4">5</text>
	<text transform="matrix(1 0 0 1 118.7198 79.7739)" class="st2 st3 st4">6</text>
	<text transform="matrix(1 0 0 1 141.7462 79.7739)" class="st2 st3 st4">7</text>
	<text transform="matrix(1 0 0 1 163.9366 79.7739)" class="st2 st3 st4">8</text>
	<text transform="matrix(1 0 0 1 186.4308 79.7739)" class="st2 st3 st4">9</text>
	<text transform="matrix(1 0 0 1 207.0803 79.7739)" class="st2 st3 st4">10</text>
	<text transform="matrix(1 0 0 1 230.5627 79.7739)" class="st2 st3 st4">11</text>
	<text transform="matrix(1 0 0 1 252.6252 79.7739)" class="st2 st3 st4">12</text>
	<text transform="matrix(1 0 0 1 275.1985 79.7739)" class="st2 st3 st4">13</text>
	<text transform="matrix(1 0 0 1 297.7122 79.7739)" class="st2 st3 st4">14</text>
	<text transform="matrix(1 0 0 1 320.387 79.7739)" class="st2 st3 st4">15</text>
	<text transform="matrix(1 0 0 1 342.7092 79.7739)" class="st2 st3 st4">16</text>
	<text transform="matrix(1 0 0 1 365.385 79.7739)" class="st2 st3 st4">17</text>
	<text transform="matrix(1 0 0 1 6.5734 101.8521)" class="st2 st3 st4">1</text>
	<text transform="matrix(1 0 0 1 28.6349 101.8521)" class="st2 st3 st4">2</text>
	<text transform="matrix(1 0 0 1 51.2091 101.8521)" class="st2 st3 st4">3</text>
	<text transform="matrix(1 0 0 1 73.7238 101.8521)" class="st2 st3 st4">4</text>
	<text transform="matrix(1 0 0 1 96.3976 101.8521)" class="st2 st3 st4">5</text>
	<text transform="matrix(1 0 0 1 118.7198 101.8521)" class="st2 st3 st4">6</text>
	<text transform="matrix(1 0 0 1 141.7462 101.8521)" class="st2 st3 st4">7</text>
	<text transform="matrix(1 0 0 1 163.9366 101.8521)" class="st2 st3 st4">8</text>
	<text transform="matrix(1 0 0 1 186.4308 101.8521)" class="st2 st3 st4">9</text>
	<text transform="matrix(1 0 0 1 207.0803 101.8521)" class="st2 st3 st4">10</text>
	<text transform="matrix(1 0 0 1 230.5627 101.8521)" class="st2 st3 st4">11</text>
	<text transform="matrix(1 0 0 1 252.6252 101.8521)" class="st2 st3 st4">12</text>
	<text transform="matrix(1 0 0 1 275.1985 101.8521)" class="st2 st3 st4">13</text>
	<text transform="matrix(1 0 0 1 297.7122 101.8521)" class="st2 st3 st4">14</text>
	<text transform="matrix(1 0 0 1 320.387 101.8521)" class="st2 st3 st4">15</text>
	<text transform="matrix(1 0 0 1 342.7092 101.8521)" class="st2 st3 st4">16</text>
	<text transform="matrix(1 0 0 1 6.5734 124.9165)" class="st2 st3 st4">1</text>
	<text transform="matrix(1 0 0 1 28.6349 124.9165)" class="st2 st3 st4">2</text>
	<text transform="matrix(1 0 0 1 51.2091 124.9165)" class="st2 st3 st4">3</text>
	<text transform="matrix(1 0 0 1 73.7238 124.9165)" class="st2 st3 st4">4</text>
	<text transform="matrix(1 0 0 1 96.3976 124.9165)" class="st2 st3 st4">5</text>
	<text transform="matrix(1 0 0 1 118.7198 124.9165)" class="st2 st3 st4">6</text>
	<text transform="matrix(1 0 0 1 141.7462 124.9165)" class="st2 st3 st4">7</text>
	<text transform="matrix(1 0 0 1 163.9366 124.9165)" class="st2 st3 st4">8</text>
	<text transform="matrix(1 0 0 1 186.4308 124.9165)" class="st2 st3 st4">9</text>
	<text transform="matrix(1 0 0 1 207.0803 124.9165)" class="st2 st3 st4">10</text>
	<text transform="matrix(1 0 0 1 230.5627 124.9165)" class="st2 st3 st4">11</text>
	<text transform="matrix(1 0 0 1 252.6252 124.9165)" class="st2 st3 st4">12</text>
	<text transform="matrix(1 0 0 1 275.1985 124.9165)" class="st2 st3 st4">13</text>
	<text transform="matrix(1 0 0 1 297.7122 124.9165)" class="st2 st3 st4">14</text>
	<text transform="matrix(1 0 0 1 320.387 124.9165)" class="st2 st3 st4">15</text>
	<text transform="matrix(1 0 0 1 342.7092 124.9165)" class="st2 st3 st4">16</text>
	<text transform="matrix(1 0 0 1 6.5734 146.7778)" class="st2 st3 st4">1</text>
	<text transform="matrix(1 0 0 1 28.6349 146.7778)" class="st2 st3 st4">2</text>
	<text transform="matrix(1 0 0 1 51.2091 146.7778)" class="st2 st3 st4">3</text>
	<text transform="matrix(1 0 0 1 73.7238 146.7778)" class="st2 st3 st4">4</text>
	<text transform="matrix(1 0 0 1 96.3976 146.7778)" class="st2 st3 st4">5</text>
	<text transform="matrix(1 0 0 1 118.7198 146.7778)" class="st2 st3 st4">6</text>
	<text transform="matrix(1 0 0 1 141.7462 146.7778)" class="st2 st3 st4">7</text>
	<text transform="matrix(1 0 0 1 163.9366 146.7778)" class="st2 st3 st4">8</text>
	<text transform="matrix(1 0 0 1 186.4308 146.7778)" class="st2 st3 st4">9</text>
	<text transform="matrix(1 0 0 1 207.0803 146.7778)" class="st2 st3 st4">10</text>
	<text transform="matrix(1 0 0 1 230.5627 146.7778)" class="st2 st3 st4">11</text>
	<text transform="matrix(1 0 0 1 252.6252 146.7778)" class="st2 st3 st4">12</text>
	<text transform="matrix(1 0 0 1 275.1985 146.7778)" class="st2 st3 st4">13</text>
	<text transform="matrix(1 0 0 1 297.7122 146.7778)" class="st2 st3 st4">14</text>
	<text transform="matrix(1 0 0 1 320.387 146.7778)" class="st2 st3 st4">15</text>
	<text transform="matrix(1 0 0 1 6.5734 169.94)" class="st2 st3 st4">1</text>
	<text transform="matrix(1 0 0 1 28.6349 169.94)" class="st2 st3 st4">2</text>
	<text transform="matrix(1 0 0 1 51.2091 169.94)" class="st2 st3 st4">3</text>
	<text transform="matrix(1 0 0 1 73.7238 169.94)" class="st2 st3 st4">4</text>
	<text transform="matrix(1 0 0 1 96.3976 169.94)" class="st2 st3 st4">5</text>
	<text transform="matrix(1 0 0 1 118.7198 169.94)" class="st2 st3 st4">6</text>
	<text transform="matrix(1 0 0 1 141.7462 169.94)" class="st2 st3 st4">7</text>
	<text transform="matrix(1 0 0 1 163.9366 169.94)" class="st2 st3 st4">8</text>
	<text transform="matrix(1 0 0 1 186.4308 169.94)" class="st2 st3 st4">9</text>
	<text transform="matrix(1 0 0 1 207.0803 169.94)" class="st2 st3 st4">10</text>
	<text transform="matrix(1 0 0 1 230.5627 169.94)" class="st2 st3 st4">11</text>
	<text transform="matrix(1 0 0 1 252.6252 169.94)" class="st2 st3 st4">12</text>
	<text transform="matrix(1 0 0 1 275.1985 169.94)" class="st2 st3 st4">13</text>
	<text transform="matrix(1 0 0 1 297.7122 169.94)" class="st2 st3 st4">14</text>
	<text transform="matrix(1 0 0 1 320.387 169.94)" class="st2 st3 st4">15</text>
	<text transform="matrix(1 0 0 1 6.5734 192.44)" class="st2 st3 st4">1</text>
	<text transform="matrix(1 0 0 1 28.6349 192.44)" class="st2 st3 st4">2</text>
	<text transform="matrix(1 0 0 1 51.2091 192.44)" class="st2 st3 st4">3</text>
	<text transform="matrix(1 0 0 1 73.7238 192.44)" class="st2 st3 st4">4</text>
	<text transform="matrix(1 0 0 1 96.3976 192.44)" class="st2 st3 st4">5</text>
	<text transform="matrix(1 0 0 1 118.7198 192.44)" class="st2 st3 st4">6</text>
	<text transform="matrix(1 0 0 1 141.7462 192.44)" class="st2 st3 st4">7</text>
	<text transform="matrix(1 0 0 1 163.9366 192.44)" class="st2 st3 st4">8</text>
	<text transform="matrix(1 0 0 1 186.4308 192.44)" class="st2 st3 st4">9</text>
	<text transform="matrix(1 0 0 1 207.0803 192.44)" class="st2 st3 st4">10</text>
	<text transform="matrix(1 0 0 1 230.5627 192.44)" class="st2 st3 st4">11</text>
	<text transform="matrix(1 0 0 1 252.6252 192.44)" class="st2 st3 st4">12</text>
	<text transform="matrix(1 0 0 1 275.1985 192.44)" class="st2 st3 st4">13</text>
	<text transform="matrix(1 0 0 1 297.7122 192.44)" class="st2 st3 st4">14</text>
	<text transform="matrix(1 0 0 1 6.5734 215.1372)" class="st2 st3 st4">1</text>
	<text transform="matrix(1 0 0 1 28.6349 215.1372)" class="st2 st3 st4">2</text>
	<text transform="matrix(1 0 0 1 51.2091 215.1372)" class="st2 st3 st4">3</text>
	<text transform="matrix(1 0 0 1 73.7238 215.1372)" class="st2 st3 st4">4</text>
	<text transform="matrix(1 0 0 1 96.3976 215.1372)" class="st2 st3 st4">5</text>
	<text transform="matrix(1 0 0 1 118.7198 215.1372)" class="st2 st3 st4">6</text>
	<text transform="matrix(1 0 0 1 141.7462 215.1372)" class="st2 st3 st4">7</text>
	<text transform="matrix(1 0 0 1 163.9366 215.1372)" class="st2 st3 st4">8</text>
	<text transform="matrix(1 0 0 1 186.4308 215.1372)" class="st2 st3 st4">9</text>
	<text transform="matrix(1 0 0 1 207.0803 215.1372)" class="st2 st3 st4">10</text>
	<text transform="matrix(1 0 0 1 230.5627 215.1372)" class="st2 st3 st4">11</text>
	<text transform="matrix(1 0 0 1 252.6252 215.1372)" class="st2 st3 st4">12</text>
	<text transform="matrix(1 0 0 1 275.1985 215.1372)" class="st2 st3 st4">13</text>
	<text transform="matrix(1 0 0 1 297.7122 215.1372)" class="st2 st3 st4">14</text>
	<text transform="matrix(1 0 0 1 6.5734 237.2681)" class="st2 st3 st4">1</text>
	<text transform="matrix(1 0 0 1 28.6349 237.2681)" class="st2 st3 st4">2</text>
	<text transform="matrix(1 0 0 1 51.2091 237.2681)" class="st2 st3 st4">3</text>
	<text transform="matrix(1 0 0 1 73.7238 237.2681)" class="st2 st3 st4">4</text>
	<text transform="matrix(1 0 0 1 96.3976 237.2681)" class="st2 st3 st4">5</text>
	<text transform="matrix(1 0 0 1 118.7198 237.2681)" class="st2 st3 st4">6</text>
	<text transform="matrix(1 0 0 1 141.7462 237.2681)" class="st2 st3 st4">7</text>
	<text transform="matrix(1 0 0 1 163.9366 237.2681)" class="st2 st3 st4">8</text>
	<text transform="matrix(1 0 0 1 186.4308 237.2681)" class="st2 st3 st4">9</text>
	<text transform="matrix(1 0 0 1 207.0803 237.2681)" class="st2 st3 st4">10</text>
	<text transform="matrix(1 0 0 1 230.5627 237.2681)" class="st2 st3 st4">11</text>
	<text transform="matrix(1 0 0 1 252.6252 237.2681)" class="st2 st3 st4">12</text>
	<text transform="matrix(1 0 0 1 275.1985 237.2681)" class="st2 st3 st4">13</text>
	<text transform="matrix(1 0 0 1 297.7122 237.2681)" class="st2 st3 st4">14</text>
	<text transform="matrix(1 0 0 1 6.5734 259.6802)" class="st2 st3 st4">1</text>
	<text transform="matrix(1 0 0 1 28.6349 259.6802)" class="st2 st3 st4">2</text>
	<text transform="matrix(1 0 0 1 51.2091 259.6802)" class="st2 st3 st4">3</text>
	<text transform="matrix(1 0 0 1 73.7238 259.6802)" class="st2 st3 st4">4</text>
	<text transform="matrix(1 0 0 1 96.3976 259.6802)" class="st2 st3 st4">5</text>
	<text transform="matrix(1 0 0 1 118.7198 259.6802)" class="st2 st3 st4">6</text>
	<text transform="matrix(1 0 0 1 141.7462 259.6802)" class="st2 st3 st4">7</text>
	<text transform="matrix(1 0 0 1 163.9366 259.6802)" class="st2 st3 st4">8</text>
	<text transform="matrix(1 0 0 1 186.4308 259.6802)" class="st2 st3 st4">9</text>
	<text transform="matrix(1 0 0 1 207.0803 259.6802)" class="st2 st3 st4">10</text>
	<text transform="matrix(1 0 0 1 230.5627 259.6802)" class="st2 st3 st4">11</text>
	<text transform="matrix(1 0 0 1 252.6252 259.6802)" class="st2 st3 st4">12</text>
	<text transform="matrix(1 0 0 1 275.1985 259.6802)" class="st2 st3 st4">13</text>
	<text transform="matrix(1 0 0 1 6.5734 283.1802)" class="st2 st3 st4">1</text>
	<text transform="matrix(1 0 0 1 28.6349 283.1802)" class="st2 st3 st4">2</text>
	<text transform="matrix(1 0 0 1 51.2091 283.1802)" class="st2 st3 st4">3</text>
	<text transform="matrix(1 0 0 1 73.7238 283.1802)" class="st2 st3 st4">4</text>
	<text transform="matrix(1 0 0 1 96.3976 283.1802)" class="st2 st3 st4">5</text>
	<text transform="matrix(1 0 0 1 118.7198 283.1802)" class="st2 st3 st4">6</text>
	<text transform="matrix(1 0 0 1 141.7462 283.1802)" class="st2 st3 st4">7</text>
	<text transform="matrix(1 0 0 1 163.9366 283.1802)" class="st2 st3 st4">8</text>
	<text transform="matrix(1 0 0 1 186.4308 283.1802)" class="st2 st3 st4">9</text>
	<text transform="matrix(1 0 0 1 207.0803 283.1802)" class="st2 st3 st4">10</text>
	<text transform="matrix(1 0 0 1 230.5627 283.1802)" class="st2 st3 st4">11</text>
	<text transform="matrix(1 0 0 1 252.6252 283.1802)" class="st2 st3 st4">12</text>
	<text transform="matrix(1 0 0 1 275.1985 283.1802)" class="st2 st3 st4">13</text>
	<text transform="matrix(1 0 0 1 6.5734 305.0571)" class="st2 st3 st4">1</text>
	<text transform="matrix(1 0 0 1 28.6349 305.0571)" class="st2 st3 st4">2</text>
	<text transform="matrix(1 0 0 1 51.2091 305.0571)" class="st2 st3 st4">3</text>
	<text transform="matrix(1 0 0 1 73.7238 305.0571)" class="st2 st3 st4">4</text>
	<text transform="matrix(1 0 0 1 96.3976 305.0571)" class="st2 st3 st4">5</text>
	<text transform="matrix(1 0 0 1 118.7198 305.0571)" class="st2 st3 st4">6</text>
	<text transform="matrix(1 0 0 1 141.7462 305.0571)" class="st2 st3 st4">7</text>
	<text transform="matrix(1 0 0 1 163.9366 305.0571)" class="st2 st3 st4">8</text>
	<text transform="matrix(1 0 0 1 186.4308 305.0571)" class="st2 st3 st4">9</text>
	<text transform="matrix(1 0 0 1 207.0803 305.0571)" class="st2 st3 st4">10</text>
	<text transform="matrix(1 0 0 1 230.5627 305.0571)" class="st2 st3 st4">11</text>
	<text transform="matrix(1 0 0 1 252.6252 305.0571)" class="st2 st3 st4">12</text>
	<text transform="matrix(1 0 0 1 6.5734 327.4946)" class="st2 st3 st4">1</text>
	<text transform="matrix(1 0 0 1 28.6349 327.4946)" class="st2 st3 st4">2</text>
	<text transform="matrix(1 0 0 1 51.2091 327.4946)" class="st2 st3 st4">3</text>
	<text transform="matrix(1 0 0 1 73.7238 327.4946)" class="st2 st3 st4">4</text>
	<text transform="matrix(1 0 0 1 96.3976 327.4946)" class="st2 st3 st4">5</text>
	<text transform="matrix(1 0 0 1 118.7198 327.4946)" class="st2 st3 st4">6</text>
	<text transform="matrix(1 0 0 1 141.7462 327.4946)" class="st2 st3 st4">7</text>
	<text transform="matrix(1 0 0 1 163.9366 327.4946)" class="st2 st3 st4">8</text>
	<text transform="matrix(1 0 0 1 186.4308 327.4946)" class="st2 st3 st4">9</text>
	<text transform="matrix(1 0 0 1 207.0803 327.4946)" class="st2 st3 st4">10</text>
	<text transform="matrix(1 0 0 1 230.5627 327.4946)" class="st2 st3 st4">11</text>
	<text transform="matrix(1 0 0 1 252.6252 327.4946)" class="st2 st3 st4">12</text>
	<text transform="matrix(1 0 0 1 6.5734 350.0454)" class="st2 st3 st4">1</text>
	<text transform="matrix(1 0 0 1 28.6349 350.0454)" class="st2 st3 st4">2</text>
	<text transform="matrix(1 0 0 1 51.2091 350.0454)" class="st2 st3 st4">3</text>
	<text transform="matrix(1 0 0 1 73.7238 350.0454)" class="st2 st3 st4">4</text>
	<text transform="matrix(1 0 0 1 96.3976 350.0454)" class="st2 st3 st4">5</text>
	<text transform="matrix(1 0 0 1 118.7198 350.0454)" class="st2 st3 st4">6</text>
	<text transform="matrix(1 0 0 1 141.7462 350.0454)" class="st2 st3 st4">7</text>
	<text transform="matrix(1 0 0 1 163.9366 350.0454)" class="st2 st3 st4">8</text>
	<text transform="matrix(1 0 0 1 186.4308 350.0454)" class="st2 st3 st4">9</text>
	<text transform="matrix(1 0 0 1 207.0803 350.0454)" class="st2 st3 st4">10</text>
	<text transform="matrix(1 0 0 1 230.5627 350.0454)" class="st2 st3 st4">11</text>
	<text transform="matrix(1 0 0 1 6.5734 372.6821)" class="st2 st3 st4">1</text>
	<text transform="matrix(1 0 0 1 28.6349 372.6821)" class="st2 st3 st4">2</text>
	<text transform="matrix(1 0 0 1 51.2091 372.6821)" class="st2 st3 st4">3</text>
	<text transform="matrix(1 0 0 1 73.7238 372.6821)" class="st2 st3 st4">4</text>
	<text transform="matrix(1 0 0 1 96.3976 372.6821)" class="st2 st3 st4">5</text>
	<text transform="matrix(1 0 0 1 118.7198 372.6821)" class="st2 st3 st4">6</text>
	<text transform="matrix(1 0 0 1 141.7462 372.6821)" class="st2 st3 st4">7</text>
	<text transform="matrix(1 0 0 1 163.9366 372.6821)" class="st2 st3 st4">8</text>
	<text transform="matrix(1 0 0 1 186.4308 372.6821)" class="st2 st3 st4">9</text>
	<text transform="matrix(1 0 0 1 207.0803 372.6821)" class="st2 st3 st4">10</text>
	<text transform="matrix(1 0 0 1 230.5627 372.6821)" class="st2 st3 st4">11</text>
	<text transform="matrix(1 0 0 1 6.5734 394.7427)" class="st2 st3 st4">1</text>
	<text transform="matrix(1 0 0 1 28.6349 394.7427)" class="st2 st3 st4">2</text>
	<text transform="matrix(1 0 0 1 51.2091 394.7427)" class="st2 st3 st4">3</text>
	<text transform="matrix(1 0 0 1 73.7238 394.7427)" class="st2 st3 st4">4</text>
	<text transform="matrix(1 0 0 1 96.3976 394.7427)" class="st2 st3 st4">5</text>
	<text transform="matrix(1 0 0 1 118.7198 394.7427)" class="st2 st3 st4">6</text>
	<text transform="matrix(1 0 0 1 141.7462 394.7427)" class="st2 st3 st4">7</text>
	<text transform="matrix(1 0 0 1 163.9366 394.7427)" class="st2 st3 st4">8</text>
	<text transform="matrix(1 0 0 1 186.4308 394.7427)" class="st2 st3 st4">9</text>
	<text transform="matrix(1 0 0 1 207.0803 394.7427)" class="st2 st3 st4">10</text>
	<text transform="matrix(1 0 0 1 6.5734 418.4575)" class="st2 st3 st4">1</text>
	<text transform="matrix(1 0 0 1 28.6349 418.4575)" class="st2 st3 st4">2</text>
	<text transform="matrix(1 0 0 1 51.2091 418.4575)" class="st2 st3 st4">3</text>
	<text transform="matrix(1 0 0 1 73.7238 418.4575)" class="st2 st3 st4">4</text>
	<text transform="matrix(1 0 0 1 96.3976 418.4575)" class="st2 st3 st4">5</text>
	<text transform="matrix(1 0 0 1 118.7198 418.4575)" class="st2 st3 st4">6</text>
	<text transform="matrix(1 0 0 1 141.7462 418.4575)" class="st2 st3 st4">7</text>
	<text transform="matrix(1 0 0 1 163.9366 418.4575)" class="st2 st3 st4">8</text>
	<text transform="matrix(1 0 0 1 186.4308 418.4575)" class="st2 st3 st4">9</text>
	<text transform="matrix(1 0 0 1 207.0803 418.4575)" class="st2 st3 st4">10</text>
	<text transform="matrix(1 0 0 1 6.5734 439.9282)" class="st2 st3 st4">1</text>
	<text transform="matrix(1 0 0 1 28.6349 439.9282)" class="st2 st3 st4">2</text>
	<text transform="matrix(1 0 0 1 51.2091 439.9282)" class="st2 st3 st4">3</text>
	<text transform="matrix(1 0 0 1 73.7238 439.9282)" class="st2 st3 st4">4</text>
	<text transform="matrix(1 0 0 1 96.3976 439.9282)" class="st2 st3 st4">5</text>
	<text transform="matrix(1 0 0 1 118.7198 439.9282)" class="st2 st3 st4">6</text>
	<text transform="matrix(1 0 0 1 141.7462 439.9282)" class="st2 st3 st4">7</text>
	<text transform="matrix(1 0 0 1 163.9366 439.9282)" class="st2 st3 st4">8</text>
	<text transform="matrix(1 0 0 1 186.4308 439.9282)" class="st2 st3 st4">9</text>
</g>
<g>
	<text transform="matrix(1 0 0 1 437.2107 55.6167)" class="st5 st6 st7">29</text>
	<text transform="matrix(1 0 0 1 437.2107 11.2456)" class="st5 st6 st7">30</text>
	<text transform="matrix(1 0 0 1 437.2107 101.1128)" class="st5 st6 st7">27</text>
	<text transform="matrix(1 0 0 1 437.2107 78.5425)" class="st5 st6 st7">28</text>
	<text transform="matrix(1 0 0 1 437.2107 146.2554)" class="st5 st6 st7">25</text>
	<text transform="matrix(1 0 0 1 437.0505 326.855)" class="st5 st6 st7">17</text>
	<text transform="matrix(1 0 0 1 437.0505 349.4067)" class="st5 st6 st7">16</text>
	<text transform="matrix(1 0 0 1 437.2107 372.0425)" class="st5 st6 st7">15</text>
	<text transform="matrix(1 0 0 1 437.2107 394.5942)" class="st5 st6 st7">14</text>
	<text transform="matrix(1 0 0 1 437.0232 417.2271)" class="st5 st6 st7">13</text>
	<text transform="matrix(1 0 0 1 437.0505 439.7798)" class="st5 st6 st7">12</text>
	<text transform="matrix(1 0 0 1 437.2107 123.6851)" class="st5 st6 st7">26</text>
	<text transform="matrix(1 0 0 1 437.2107 168.7095)" class="st5 st6 st7">24</text>
	<text transform="matrix(1 0 0 1 437.2107 213.897)" class="st5 st6 st7">22</text>
	<text transform="matrix(1 0 0 1 437.2107 191.3267)" class="st5 st6 st7">23</text>
	<text transform="matrix(1 0 0 1 437.2107 259.0415)" class="st5 st6 st7">20</text>
	<text transform="matrix(1 0 0 1 437.2107 236.4712)" class="st5 st6 st7">21</text>
	<text transform="matrix(1 0 0 1 437.0232 304.1841)" class="st5 st6 st7">18</text>
	<text transform="matrix(1 0 0 1 437.0505 281.6138)" class="st5 st6 st7">19</text>
</g>
</svg>
