<?xml version="1.0" encoding="utf-8"?>
<!-- Generator: Adobe Illustrator 20.1.0, SVG Export Plug-In . SVG Version: 6.00 Build 0)  -->
<svg version="1.1" id="Layer_1" xmlns="http://www.w3.org/2000/svg" xmlns:xlink="http://www.w3.org/1999/xlink" x="0px" y="0px"
	 viewBox="0 0 425.8 559.5" style="enable-background:new 0 0 425.8 559.5;" xml:space="preserve">
<style type="text/css">
	.st0{fill:#D9F6E1;}
	.st1{fill:#FFFFFF;}
	.st2{fill:#737373;}
	.st3{font-family:'OsnovaPro';}
	.st4{font-size:8px;}
	.st5{fill:#7B878F;}
	.st6{font-family:'OsnovaProLight';}
	.st7{font-size:9px;}
</style>
<path class="st0" d="M346.8,16.6L346.8,16.6c4.6,0,8.3-3.7,8.3-8.3v0c0-4.6-3.7-8.3-8.3-8.3l0,0c-4.6,0-8.3,3.7-8.3,8.3v0
	C338.5,12.8,342.3,16.6,346.8,16.6z"/>
<path class="st0" d="M324.2,16.6L324.2,16.6c4.6,0,8.3-3.7,8.3-8.3v0c0-4.6-3.7-8.3-8.3-8.3h0c-4.6,0-8.3,3.7-8.3,8.3v0
	C316,12.8,319.7,16.6,324.2,16.6z"/>
<path class="st0" d="M301.7,16.6L301.7,16.6c4.6,0,8.3-3.7,8.3-8.3v0c0-4.6-3.7-8.3-8.3-8.3h0c-4.6,0-8.3,3.7-8.3,8.3v0
	C293.4,12.8,297.1,16.6,301.7,16.6z"/>
<path class="st0" d="M279.1,16.6L279.1,16.6c4.6,0,8.3-3.7,8.3-8.3v0c0-4.6-3.7-8.3-8.3-8.3h0c-4.6,0-8.3,3.7-8.3,8.3v0
	C270.8,12.8,274.5,16.6,279.1,16.6z"/>
<path class="st0" d="M256.5,16.6L256.5,16.6c4.6,0,8.3-3.7,8.3-8.3v0c0-4.6-3.7-8.3-8.3-8.3l0,0c-4.6,0-8.3,3.7-8.3,8.3v0
	C248.2,12.8,252,16.6,256.5,16.6z"/>
<path class="st0" d="M234,16.6L234,16.6c4.6,0,8.3-3.7,8.3-8.3v0c0-4.6-3.7-8.3-8.3-8.3h0c-4.6,0-8.3,3.7-8.3,8.3v0
	C225.7,12.8,229.4,16.6,234,16.6z"/>
<path class="st0" d="M211.3,16.6L211.3,16.6c4.6,0,8.3-3.7,8.3-8.3v0c0-4.6-3.7-8.3-8.3-8.3h0c-4.6,0-8.3,3.7-8.3,8.3v0
	C203.1,12.8,206.8,16.6,211.3,16.6z"/>
<path class="st0" d="M188.8,16.6L188.8,16.6c4.6,0,8.3-3.7,8.3-8.3v0c0-4.6-3.7-8.3-8.3-8.3h0c-4.6,0-8.3,3.7-8.3,8.3v0
	C180.5,12.8,184.2,16.6,188.8,16.6z"/>
<path class="st0" d="M166.2,16.6L166.2,16.6c4.6,0,8.3-3.7,8.3-8.3v0c0-4.6-3.7-8.3-8.3-8.3h0c-4.6,0-8.3,3.7-8.3,8.3v0
	C157.9,12.8,161.6,16.6,166.2,16.6z"/>
<path class="st0" d="M143.6,16.6L143.6,16.6c4.6,0,8.3-3.7,8.3-8.3v0c0-4.6-3.7-8.3-8.3-8.3h0c-4.6,0-8.3,3.7-8.3,8.3v0
	C135.3,12.8,139.1,16.6,143.6,16.6z"/>
<path class="st0" d="M121.1,16.6L121.1,16.6c4.6,0,8.3-3.7,8.3-8.3v0c0-4.6-3.7-8.3-8.3-8.3l0,0c-4.6,0-8.3,3.7-8.3,8.3v0
	C112.8,12.8,116.5,16.6,121.1,16.6z"/>
<path class="st0" d="M98.5,16.6L98.5,16.6c4.6,0,8.3-3.7,8.3-8.3v0c0-4.6-3.7-8.3-8.3-8.3h0c-4.6,0-8.3,3.7-8.3,8.3v0
	C90.2,12.8,93.9,16.6,98.5,16.6z"/>
<path class="st1" d="M346.8,107.9L346.8,107.9c4.6,0,8.3-3.7,8.3-8.3v0c0-4.6-3.7-8.3-8.3-8.3h0c-4.6,0-8.3,3.7-8.3,8.3v0
	C338.6,104.2,342.3,107.9,346.8,107.9z"/>
<path class="st1" d="M324.3,107.9L324.3,107.9c4.6,0,8.3-3.7,8.3-8.3v0c0-4.6-3.7-8.3-8.3-8.3l0,0c-4.6,0-8.3,3.7-8.3,8.3v0
	C316,104.2,319.7,107.9,324.3,107.9z"/>
<path class="st1" d="M301.7,107.9L301.7,107.9c4.6,0,8.3-3.7,8.3-8.3v0c0-4.6-3.7-8.3-8.3-8.3l0,0c-4.6,0-8.3,3.7-8.3,8.3v0
	C293.4,104.2,297.1,107.9,301.7,107.9z"/>
<path class="st1" d="M279.1,107.9L279.1,107.9c4.6,0,8.3-3.7,8.3-8.3v0c0-4.6-3.7-8.3-8.3-8.3h0c-4.6,0-8.3,3.7-8.3,8.3v0
	C270.8,104.2,274.6,107.9,279.1,107.9z"/>
<path class="st1" d="M256.6,107.9L256.6,107.9c4.6,0,8.3-3.7,8.3-8.3v0c0-4.6-3.7-8.3-8.3-8.3h0c-4.6,0-8.3,3.7-8.3,8.3v0
	C248.3,104.2,252,107.9,256.6,107.9z"/>
<path class="st1" d="M234,107.9L234,107.9c4.6,0,8.3-3.7,8.3-8.3v0c0-4.6-3.7-8.3-8.3-8.3h0c-4.6,0-8.3,3.7-8.3,8.3v0
	C225.7,104.2,229.4,107.9,234,107.9z"/>
<path class="st1" d="M211.4,107.9L211.4,107.9c4.6,0,8.3-3.7,8.3-8.3v0c0-4.6-3.7-8.3-8.3-8.3h0c-4.6,0-8.3,3.7-8.3,8.3v0
	C203.1,104.2,206.9,107.9,211.4,107.9z"/>
<path class="st1" d="M188.8,107.9L188.8,107.9c4.6,0,8.3-3.7,8.3-8.3v0c0-4.6-3.7-8.3-8.3-8.3h0c-4.6,0-8.3,3.7-8.3,8.3v0
	C180.6,104.2,184.3,107.9,188.8,107.9z"/>
<path class="st1" d="M166.3,107.9L166.3,107.9c4.6,0,8.3-3.7,8.3-8.3v0c0-4.6-3.7-8.3-8.3-8.3h0c-4.6,0-8.3,3.7-8.3,8.3v0
	C158,104.2,161.7,107.9,166.3,107.9z"/>
<path class="st1" d="M143.7,107.9L143.7,107.9c4.6,0,8.3-3.7,8.3-8.3v0c0-4.6-3.7-8.3-8.3-8.3h0c-4.6,0-8.3,3.7-8.3,8.3v0
	C135.4,104.2,139.1,107.9,143.7,107.9z"/>
<path class="st1" d="M121.1,107.9L121.1,107.9c4.6,0,8.3-3.7,8.3-8.3v0c0-4.6-3.7-8.3-8.3-8.3h0c-4.6,0-8.3,3.7-8.3,8.3v0
	C112.9,104.2,116.6,107.9,121.1,107.9z"/>
<path class="st1" d="M98.6,107.9L98.6,107.9c4.6,0,8.3-3.7,8.3-8.3v0c0-4.6-3.7-8.3-8.3-8.3h0c-4.6,0-8.3,3.7-8.3,8.3v0
	C90.3,104.2,94,107.9,98.6,107.9z"/>
<path class="st1" d="M76,107.9L76,107.9c4.6,0,8.3-3.7,8.3-8.3v0c0-4.6-3.7-8.3-8.3-8.3h0c-4.6,0-8.3,3.7-8.3,8.3v0
	C67.7,104.2,71.4,107.9,76,107.9z"/>
<path class="st1" d="M53.4,107.9L53.4,107.9c4.6,0,8.3-3.7,8.3-8.3v0c0-4.6-3.7-8.3-8.3-8.3h0c-4.6,0-8.3,3.7-8.3,8.3v0
	C45.1,104.2,48.9,107.9,53.4,107.9z"/>
<path class="st1" d="M30.9,107.9L30.9,107.9c4.6,0,8.3-3.7,8.3-8.3v0c0-4.6-3.7-8.3-8.3-8.3h0c-4.6,0-8.3,3.7-8.3,8.3v0
	C22.6,104.2,26.3,107.9,30.9,107.9z"/>
<path class="st1" d="M346.8,85.3L346.8,85.3c4.6,0,8.3-3.7,8.3-8.3v0c0-4.6-3.7-8.3-8.3-8.3h0c-4.6,0-8.3,3.7-8.3,8.3v0
	C338.6,81.6,342.3,85.3,346.8,85.3z"/>
<path class="st1" d="M324.3,85.3L324.3,85.3c4.6,0,8.3-3.7,8.3-8.3v0c0-4.6-3.7-8.3-8.3-8.3l0,0c-4.6,0-8.3,3.7-8.3,8.3v0
	C316,81.6,319.7,85.3,324.3,85.3z"/>
<path class="st1" d="M301.7,85.3L301.7,85.3c4.6,0,8.3-3.7,8.3-8.3v0c0-4.6-3.7-8.3-8.3-8.3l0,0c-4.6,0-8.3,3.7-8.3,8.3v0
	C293.4,81.6,297.1,85.3,301.7,85.3z"/>
<path class="st1" d="M279.1,85.3L279.1,85.3c4.6,0,8.3-3.7,8.3-8.3v0c0-4.6-3.7-8.3-8.3-8.3h0c-4.6,0-8.3,3.7-8.3,8.3v0
	C270.8,81.6,274.6,85.3,279.1,85.3z"/>
<path class="st1" d="M256.6,85.3L256.6,85.3c4.6,0,8.3-3.7,8.3-8.3v0c0-4.6-3.7-8.3-8.3-8.3h0c-4.6,0-8.3,3.7-8.3,8.3v0
	C248.3,81.6,252,85.3,256.6,85.3z"/>
<path class="st1" d="M234,85.3L234,85.3c4.6,0,8.3-3.7,8.3-8.3v0c0-4.6-3.7-8.3-8.3-8.3h0c-4.6,0-8.3,3.7-8.3,8.3v0
	C225.7,81.6,229.4,85.3,234,85.3z"/>
<path class="st1" d="M211.4,85.3L211.4,85.3c4.6,0,8.3-3.7,8.3-8.3v0c0-4.6-3.7-8.3-8.3-8.3h0c-4.6,0-8.3,3.7-8.3,8.3v0
	C203.1,81.6,206.9,85.3,211.4,85.3z"/>
<path class="st1" d="M188.8,85.3L188.8,85.3c4.6,0,8.3-3.7,8.3-8.3v0c0-4.6-3.7-8.3-8.3-8.3h0c-4.6,0-8.3,3.7-8.3,8.3v0
	C180.6,81.6,184.3,85.3,188.8,85.3z"/>
<path class="st1" d="M166.3,85.3L166.3,85.3c4.6,0,8.3-3.7,8.3-8.3v0c0-4.6-3.7-8.3-8.3-8.3h0c-4.6,0-8.3,3.7-8.3,8.3v0
	C158,81.6,161.7,85.3,166.3,85.3z"/>
<path class="st1" d="M143.7,85.3L143.7,85.3c4.6,0,8.3-3.7,8.3-8.3v0c0-4.6-3.7-8.3-8.3-8.3h0c-4.6,0-8.3,3.7-8.3,8.3v0
	C135.4,81.6,139.1,85.3,143.7,85.3z"/>
<path class="st1" d="M121.1,85.3L121.1,85.3c4.6,0,8.3-3.7,8.3-8.3v0c0-4.6-3.7-8.3-8.3-8.3h0c-4.6,0-8.3,3.7-8.3,8.3v0
	C112.9,81.6,116.6,85.3,121.1,85.3z"/>
<path class="st1" d="M98.6,85.3L98.6,85.3c4.6,0,8.3-3.7,8.3-8.3v0c0-4.6-3.7-8.3-8.3-8.3h0c-4.6,0-8.3,3.7-8.3,8.3v0
	C90.3,81.6,94,85.3,98.6,85.3z"/>
<path class="st1" d="M76,85.3L76,85.3c4.6,0,8.3-3.7,8.3-8.3v0c0-4.6-3.7-8.3-8.3-8.3h0c-4.6,0-8.3,3.7-8.3,8.3v0
	C67.7,81.6,71.4,85.3,76,85.3z"/>
<path class="st1" d="M53.4,85.3L53.4,85.3c4.6,0,8.3-3.7,8.3-8.3v0c0-4.6-3.7-8.3-8.3-8.3h0c-4.6,0-8.3,3.7-8.3,8.3v0
	C45.1,81.6,48.9,85.3,53.4,85.3z"/>
<path class="st1" d="M30.9,85.3L30.9,85.3c4.6,0,8.3-3.7,8.3-8.3v0c0-4.6-3.7-8.3-8.3-8.3h0c-4.6,0-8.3,3.7-8.3,8.3v0
	C22.6,81.6,26.3,85.3,30.9,85.3z"/>
<path class="st1" d="M8.3,85.3L8.3,85.3c4.6,0,8.3-3.7,8.3-8.3v0c0-4.6-3.7-8.3-8.3-8.3h0C3.7,68.7,0,72.5,0,77v0
	C0,81.6,3.7,85.3,8.3,85.3z"/>
<path class="st1" d="M346.8,153L346.8,153c4.6,0,8.3-3.7,8.3-8.3v0c0-4.6-3.7-8.3-8.3-8.3l0,0c-4.6,0-8.3,3.7-8.3,8.3v0
	C338.5,149.3,342.3,153,346.8,153z"/>
<path class="st1" d="M324.2,153L324.2,153c4.6,0,8.3-3.7,8.3-8.3v0c0-4.6-3.7-8.3-8.3-8.3h0c-4.6,0-8.3,3.7-8.3,8.3v0
	C316,149.3,319.7,153,324.2,153z"/>
<path class="st1" d="M301.7,153L301.7,153c4.6,0,8.3-3.7,8.3-8.3v0c0-4.6-3.7-8.3-8.3-8.3h0c-4.6,0-8.3,3.7-8.3,8.3v0
	C293.4,149.3,297.1,153,301.7,153z"/>
<path class="st1" d="M279.1,153L279.1,153c4.6,0,8.3-3.7,8.3-8.3v0c0-4.6-3.7-8.3-8.3-8.3h0c-4.6,0-8.3,3.7-8.3,8.3v0
	C270.8,149.3,274.5,153,279.1,153z"/>
<path class="st1" d="M256.5,153L256.5,153c4.6,0,8.3-3.7,8.3-8.3v0c0-4.6-3.7-8.3-8.3-8.3l0,0c-4.6,0-8.3,3.7-8.3,8.3v0
	C248.2,149.3,252,153,256.5,153z"/>
<path class="st1" d="M234,153L234,153c4.6,0,8.3-3.7,8.3-8.3v0c0-4.6-3.7-8.3-8.3-8.3h0c-4.6,0-8.3,3.7-8.3,8.3v0
	C225.7,149.3,229.4,153,234,153z"/>
<path class="st1" d="M211.4,153L211.4,153c4.6,0,8.3-3.7,8.3-8.3v0c0-4.6-3.7-8.3-8.3-8.3h0c-4.6,0-8.3,3.7-8.3,8.3v0
	C203.1,149.3,206.8,153,211.4,153z"/>
<path class="st1" d="M188.8,153L188.8,153c4.6,0,8.3-3.7,8.3-8.3v0c0-4.6-3.7-8.3-8.3-8.3h0c-4.6,0-8.3,3.7-8.3,8.3v0
	C180.5,149.3,184.3,153,188.8,153z"/>
<path class="st1" d="M166.2,153L166.2,153c4.6,0,8.3-3.7,8.3-8.3v0c0-4.6-3.7-8.3-8.3-8.3h0c-4.6,0-8.3,3.7-8.3,8.3v0
	C158,149.3,161.7,153,166.2,153z"/>
<path class="st1" d="M143.7,153L143.7,153c4.6,0,8.3-3.7,8.3-8.3v0c0-4.6-3.7-8.3-8.3-8.3h0c-4.6,0-8.3,3.7-8.3,8.3v0
	C135.4,149.3,139.1,153,143.7,153z"/>
<path class="st1" d="M121.1,153L121.1,153c4.6,0,8.3-3.7,8.3-8.3v0c0-4.6-3.7-8.3-8.3-8.3h0c-4.6,0-8.3,3.7-8.3,8.3v0
	C112.8,149.3,116.6,153,121.1,153z"/>
<path class="st1" d="M98.5,153L98.5,153c4.6,0,8.3-3.7,8.3-8.3v0c0-4.6-3.7-8.3-8.3-8.3h0c-4.6,0-8.3,3.7-8.3,8.3v0
	C90.3,149.3,94,153,98.5,153z"/>
<path class="st1" d="M76,153L76,153c4.6,0,8.3-3.7,8.3-8.3v0c0-4.6-3.7-8.3-8.3-8.3h0c-4.6,0-8.3,3.7-8.3,8.3v0
	C67.7,149.3,71.4,153,76,153z"/>
<path class="st1" d="M53.4,153L53.4,153c4.6,0,8.3-3.7,8.3-8.3v0c0-4.6-3.7-8.3-8.3-8.3h0c-4.6,0-8.3,3.7-8.3,8.3v0
	C45.1,149.3,48.8,153,53.4,153z"/>
<path class="st1" d="M301.6,333.6L301.6,333.6c4.6,0,8.3-3.7,8.3-8.3v0c0-4.6-3.7-8.3-8.3-8.3l0,0c-4.6,0-8.3,3.7-8.3,8.3v0
	C293.3,329.9,297.1,333.6,301.6,333.6z"/>
<path class="st1" d="M279.1,333.6L279.1,333.6c4.6,0,8.3-3.7,8.3-8.3v0c0-4.6-3.7-8.3-8.3-8.3l0,0c-4.6,0-8.3,3.7-8.3,8.3v0
	C270.8,329.9,274.5,333.6,279.1,333.6z"/>
<path class="st1" d="M256.5,333.6L256.5,333.6c4.6,0,8.3-3.7,8.3-8.3v0c0-4.6-3.7-8.3-8.3-8.3h0c-4.6,0-8.3,3.7-8.3,8.3v0
	C248.2,329.9,251.9,333.6,256.5,333.6z"/>
<path class="st1" d="M233.9,333.6L233.9,333.6c4.6,0,8.3-3.7,8.3-8.3v0c0-4.6-3.7-8.3-8.3-8.3h0c-4.6,0-8.3,3.7-8.3,8.3v0
	C225.6,329.9,229.4,333.6,233.9,333.6z"/>
<path class="st1" d="M211.3,333.6L211.3,333.6c4.6,0,8.3-3.7,8.3-8.3v0c0-4.6-3.7-8.3-8.3-8.3h0c-4.6,0-8.3,3.7-8.3,8.3v0
	C203.1,329.9,206.8,333.6,211.3,333.6z"/>
<path class="st1" d="M188.8,333.6L188.8,333.6c4.6,0,8.3-3.7,8.3-8.3v0c0-4.6-3.7-8.3-8.3-8.3h0c-4.6,0-8.3,3.7-8.3,8.3v0
	C180.5,329.9,184.2,333.6,188.8,333.6z"/>
<path class="st1" d="M166.2,333.6L166.2,333.6c4.6,0,8.3-3.7,8.3-8.3v0c0-4.6-3.7-8.3-8.3-8.3h0c-4.6,0-8.3,3.7-8.3,8.3v0
	C157.9,329.9,161.6,333.6,166.2,333.6z"/>
<path class="st1" d="M143.6,333.6L143.6,333.6c4.6,0,8.3-3.7,8.3-8.3v0c0-4.6-3.7-8.3-8.3-8.3h0c-4.6,0-8.3,3.7-8.3,8.3v0
	C135.3,329.9,139.1,333.6,143.6,333.6z"/>
<path class="st1" d="M301.6,356.2L301.6,356.2c4.6,0,8.3-3.7,8.3-8.3l0,0c0-4.6-3.7-8.3-8.3-8.3l0,0c-4.6,0-8.3,3.7-8.3,8.3l0,0
	C293.3,352.4,297.1,356.2,301.6,356.2z"/>
<path class="st1" d="M279.1,356.2L279.1,356.2c4.6,0,8.3-3.7,8.3-8.3l0,0c0-4.6-3.7-8.3-8.3-8.3l0,0c-4.6,0-8.3,3.7-8.3,8.3l0,0
	C270.8,352.4,274.5,356.2,279.1,356.2z"/>
<path class="st1" d="M256.5,356.2L256.5,356.2c4.6,0,8.3-3.7,8.3-8.3l0,0c0-4.6-3.7-8.3-8.3-8.3h0c-4.6,0-8.3,3.7-8.3,8.3l0,0
	C248.2,352.4,251.9,356.2,256.5,356.2z"/>
<path class="st1" d="M233.9,356.2L233.9,356.2c4.6,0,8.3-3.7,8.3-8.3l0,0c0-4.6-3.7-8.3-8.3-8.3h0c-4.6,0-8.3,3.7-8.3,8.3l0,0
	C225.6,352.4,229.4,356.2,233.9,356.2z"/>
<path class="st1" d="M211.3,356.2L211.3,356.2c4.6,0,8.3-3.7,8.3-8.3l0,0c0-4.6-3.7-8.3-8.3-8.3h0c-4.6,0-8.3,3.7-8.3,8.3l0,0
	C203.1,352.4,206.8,356.2,211.3,356.2z"/>
<path class="st1" d="M188.8,356.2L188.8,356.2c4.6,0,8.3-3.7,8.3-8.3l0,0c0-4.6-3.7-8.3-8.3-8.3h0c-4.6,0-8.3,3.7-8.3,8.3l0,0
	C180.5,352.4,184.2,356.2,188.8,356.2z"/>
<path class="st1" d="M166.2,356.2L166.2,356.2c4.6,0,8.3-3.7,8.3-8.3l0,0c0-4.6-3.7-8.3-8.3-8.3h0c-4.6,0-8.3,3.7-8.3,8.3l0,0
	C157.9,352.4,161.6,356.2,166.2,356.2z"/>
<path class="st1" d="M143.6,356.2L143.6,356.2c4.6,0,8.3-3.7,8.3-8.3l0,0c0-4.6-3.7-8.3-8.3-8.3h0c-4.6,0-8.3,3.7-8.3,8.3l0,0
	C135.3,352.4,139.1,356.2,143.6,356.2z"/>
<path class="st1" d="M301.6,378.8L301.6,378.8c4.6,0,8.3-3.7,8.3-8.3v0c0-4.6-3.7-8.3-8.3-8.3l0,0c-4.6,0-8.3,3.7-8.3,8.3v0
	C293.3,375.1,297.1,378.8,301.6,378.8z"/>
<path class="st1" d="M279.1,378.8L279.1,378.8c4.6,0,8.3-3.7,8.3-8.3v0c0-4.6-3.7-8.3-8.3-8.3l0,0c-4.6,0-8.3,3.7-8.3,8.3v0
	C270.8,375.1,274.5,378.8,279.1,378.8z"/>
<path class="st1" d="M256.5,378.8L256.5,378.8c4.6,0,8.3-3.7,8.3-8.3v0c0-4.6-3.7-8.3-8.3-8.3h0c-4.6,0-8.3,3.7-8.3,8.3v0
	C248.2,375.1,251.9,378.8,256.5,378.8z"/>
<path class="st1" d="M233.9,378.8L233.9,378.8c4.6,0,8.3-3.7,8.3-8.3v0c0-4.6-3.7-8.3-8.3-8.3h0c-4.6,0-8.3,3.7-8.3,8.3v0
	C225.6,375.1,229.4,378.8,233.9,378.8z"/>
<path class="st1" d="M211.3,378.8L211.3,378.8c4.6,0,8.3-3.7,8.3-8.3v0c0-4.6-3.7-8.3-8.3-8.3h0c-4.6,0-8.3,3.7-8.3,8.3v0
	C203.1,375.1,206.8,378.8,211.3,378.8z"/>
<path class="st1" d="M188.8,378.8L188.8,378.8c4.6,0,8.3-3.7,8.3-8.3v0c0-4.6-3.7-8.3-8.3-8.3h0c-4.6,0-8.3,3.7-8.3,8.3v0
	C180.5,375.1,184.2,378.8,188.8,378.8z"/>
<path class="st1" d="M166.2,378.8L166.2,378.8c4.6,0,8.3-3.7,8.3-8.3v0c0-4.6-3.7-8.3-8.3-8.3h0c-4.6,0-8.3,3.7-8.3,8.3v0
	C157.9,375.1,161.6,378.8,166.2,378.8z"/>
<path class="st1" d="M143.6,378.8L143.6,378.8c4.6,0,8.3-3.7,8.3-8.3v0c0-4.6-3.7-8.3-8.3-8.3h0c-4.6,0-8.3,3.7-8.3,8.3v0
	C135.3,375.1,139.1,378.8,143.6,378.8z"/>
<path class="st1" d="M301.6,401.4L301.6,401.4c4.6,0,8.3-3.7,8.3-8.3l0,0c0-4.6-3.7-8.3-8.3-8.3l0,0c-4.6,0-8.3,3.7-8.3,8.3l0,0
	C293.3,397.6,297.1,401.4,301.6,401.4z"/>
<path class="st1" d="M279.1,401.4L279.1,401.4c4.6,0,8.3-3.7,8.3-8.3l0,0c0-4.6-3.7-8.3-8.3-8.3l0,0c-4.6,0-8.3,3.7-8.3,8.3l0,0
	C270.8,397.6,274.5,401.4,279.1,401.4z"/>
<path class="st1" d="M256.5,401.4L256.5,401.4c4.6,0,8.3-3.7,8.3-8.3l0,0c0-4.6-3.7-8.3-8.3-8.3h0c-4.6,0-8.3,3.7-8.3,8.3l0,0
	C248.2,397.6,251.9,401.4,256.5,401.4z"/>
<path class="st1" d="M233.9,401.4L233.9,401.4c4.6,0,8.3-3.7,8.3-8.3l0,0c0-4.6-3.7-8.3-8.3-8.3h0c-4.6,0-8.3,3.7-8.3,8.3l0,0
	C225.6,397.6,229.4,401.4,233.9,401.4z"/>
<path class="st1" d="M211.3,401.4L211.3,401.4c4.6,0,8.3-3.7,8.3-8.3l0,0c0-4.6-3.7-8.3-8.3-8.3h0c-4.6,0-8.3,3.7-8.3,8.3l0,0
	C203.1,397.6,206.8,401.4,211.3,401.4z"/>
<path class="st1" d="M188.8,401.4L188.8,401.4c4.6,0,8.3-3.7,8.3-8.3l0,0c0-4.6-3.7-8.3-8.3-8.3h0c-4.6,0-8.3,3.7-8.3,8.3l0,0
	C180.5,397.6,184.2,401.4,188.8,401.4z"/>
<path class="st1" d="M166.2,401.4L166.2,401.4c4.6,0,8.3-3.7,8.3-8.3l0,0c0-4.6-3.7-8.3-8.3-8.3h0c-4.6,0-8.3,3.7-8.3,8.3l0,0
	C157.9,397.6,161.6,401.4,166.2,401.4z"/>
<path class="st1" d="M301.6,424L301.6,424c4.6,0,8.3-3.7,8.3-8.3v0c0-4.6-3.7-8.3-8.3-8.3l0,0c-4.6,0-8.3,3.7-8.3,8.3v0
	C293.3,420.3,297.1,424,301.6,424z"/>
<path class="st1" d="M279.1,424L279.1,424c4.6,0,8.3-3.7,8.3-8.3v0c0-4.6-3.7-8.3-8.3-8.3l0,0c-4.6,0-8.3,3.7-8.3,8.3v0
	C270.8,420.3,274.5,424,279.1,424z"/>
<path class="st1" d="M256.5,424L256.5,424c4.6,0,8.3-3.7,8.3-8.3v0c0-4.6-3.7-8.3-8.3-8.3h0c-4.6,0-8.3,3.7-8.3,8.3v0
	C248.2,420.3,251.9,424,256.5,424z"/>
<path class="st1" d="M233.9,424L233.9,424c4.6,0,8.3-3.7,8.3-8.3v0c0-4.6-3.7-8.3-8.3-8.3h0c-4.6,0-8.3,3.7-8.3,8.3v0
	C225.6,420.3,229.4,424,233.9,424z"/>
<path class="st1" d="M211.3,424L211.3,424c4.6,0,8.3-3.7,8.3-8.3v0c0-4.6-3.7-8.3-8.3-8.3h0c-4.6,0-8.3,3.7-8.3,8.3v0
	C203.1,420.3,206.8,424,211.3,424z"/>
<path class="st1" d="M188.8,424L188.8,424c4.6,0,8.3-3.7,8.3-8.3v0c0-4.6-3.7-8.3-8.3-8.3h0c-4.6,0-8.3,3.7-8.3,8.3v0
	C180.5,420.3,184.2,424,188.8,424z"/>
<path class="st1" d="M166.2,424L166.2,424c4.6,0,8.3-3.7,8.3-8.3v0c0-4.6-3.7-8.3-8.3-8.3h0c-4.6,0-8.3,3.7-8.3,8.3v0
	C157.9,420.3,161.6,424,166.2,424z"/>
<path class="st1" d="M346.8,446.5L346.8,446.5c4.6,0,8.3-3.7,8.3-8.3l0,0c0-4.6-3.7-8.3-8.3-8.3l0,0c-4.6,0-8.3,3.7-8.3,8.3l0,0
	C338.5,442.8,342.3,446.5,346.8,446.5z"/>
<path class="st1" d="M324.2,446.5L324.2,446.5c4.6,0,8.3-3.7,8.3-8.3l0,0c0-4.6-3.7-8.3-8.3-8.3h0c-4.6,0-8.3,3.7-8.3,8.3l0,0
	C316,442.8,319.7,446.5,324.2,446.5z"/>
<path class="st1" d="M301.7,446.5L301.7,446.5c4.6,0,8.3-3.7,8.3-8.3l0,0c0-4.6-3.7-8.3-8.3-8.3h0c-4.6,0-8.3,3.7-8.3,8.3l0,0
	C293.4,442.8,297.1,446.5,301.7,446.5z"/>
<path class="st1" d="M279.1,446.5L279.1,446.5c4.6,0,8.3-3.7,8.3-8.3l0,0c0-4.6-3.7-8.3-8.3-8.3h0c-4.6,0-8.3,3.7-8.3,8.3l0,0
	C270.8,442.8,274.5,446.5,279.1,446.5z"/>
<path class="st1" d="M256.5,446.5L256.5,446.5c4.6,0,8.3-3.7,8.3-8.3l0,0c0-4.6-3.7-8.3-8.3-8.3l0,0c-4.6,0-8.3,3.7-8.3,8.3l0,0
	C248.2,442.8,252,446.5,256.5,446.5z"/>
<path class="st1" d="M234,446.5L234,446.5c4.6,0,8.3-3.7,8.3-8.3l0,0c0-4.6-3.7-8.3-8.3-8.3h0c-4.6,0-8.3,3.7-8.3,8.3l0,0
	C225.7,442.8,229.4,446.5,234,446.5z"/>
<path class="st1" d="M211.4,446.5L211.4,446.5c4.6,0,8.3-3.7,8.3-8.3l0,0c0-4.6-3.7-8.3-8.3-8.3h0c-4.6,0-8.3,3.7-8.3,8.3l0,0
	C203.1,442.8,206.8,446.5,211.4,446.5z"/>
<path class="st1" d="M188.8,446.5L188.8,446.5c4.6,0,8.3-3.7,8.3-8.3l0,0c0-4.6-3.7-8.3-8.3-8.3h0c-4.6,0-8.3,3.7-8.3,8.3l0,0
	C180.5,442.8,184.3,446.5,188.8,446.5z"/>
<path class="st1" d="M166.2,446.5L166.2,446.5c4.6,0,8.3-3.7,8.3-8.3l0,0c0-4.6-3.7-8.3-8.3-8.3h0c-4.6,0-8.3,3.7-8.3,8.3l0,0
	C158,442.8,161.7,446.5,166.2,446.5z"/>
<path class="st1" d="M76,469.2L76,469.2c4.6,0,8.3-3.7,8.3-8.3l0,0c0-4.6-3.7-8.3-8.3-8.3h0c-4.6,0-8.3,3.7-8.3,8.3l0,0
	C67.7,465.5,71.4,469.2,76,469.2z"/>
<path class="st1" d="M53.4,469.2L53.4,469.2c4.6,0,8.3-3.7,8.3-8.3l0,0c0-4.6-3.7-8.3-8.3-8.3h0c-4.6,0-8.3,3.7-8.3,8.3l0,0
	C45.1,465.5,48.8,469.2,53.4,469.2z"/>
<path class="st1" d="M76,491.8L76,491.8c4.6,0,8.3-3.7,8.3-8.3v0c0-4.6-3.7-8.3-8.3-8.3h0c-4.6,0-8.3,3.7-8.3,8.3v0
	C67.7,488,71.4,491.8,76,491.8z"/>
<path class="st1" d="M346.8,130.5L346.8,130.5c4.6,0,8.3-3.7,8.3-8.3v0c0-4.6-3.7-8.3-8.3-8.3l0,0c-4.6,0-8.3,3.7-8.3,8.3v0
	C338.5,126.7,342.3,130.5,346.8,130.5z"/>
<path class="st1" d="M324.2,130.5L324.2,130.5c4.6,0,8.3-3.7,8.3-8.3v0c0-4.6-3.7-8.3-8.3-8.3h0c-4.6,0-8.3,3.7-8.3,8.3v0
	C316,126.7,319.7,130.5,324.2,130.5z"/>
<path class="st1" d="M301.7,130.5L301.7,130.5c4.6,0,8.3-3.7,8.3-8.3v0c0-4.6-3.7-8.3-8.3-8.3h0c-4.6,0-8.3,3.7-8.3,8.3v0
	C293.4,126.7,297.1,130.5,301.7,130.5z"/>
<path class="st1" d="M279.1,130.5L279.1,130.5c4.6,0,8.3-3.7,8.3-8.3v0c0-4.6-3.7-8.3-8.3-8.3h0c-4.6,0-8.3,3.7-8.3,8.3v0
	C270.8,126.7,274.5,130.5,279.1,130.5z"/>
<path class="st1" d="M256.5,130.5L256.5,130.5c4.6,0,8.3-3.7,8.3-8.3v0c0-4.6-3.7-8.3-8.3-8.3l0,0c-4.6,0-8.3,3.7-8.3,8.3v0
	C248.2,126.7,252,130.5,256.5,130.5z"/>
<path class="st1" d="M234,130.5L234,130.5c4.6,0,8.3-3.7,8.3-8.3v0c0-4.6-3.7-8.3-8.3-8.3h0c-4.6,0-8.3,3.7-8.3,8.3v0
	C225.7,126.7,229.4,130.5,234,130.5z"/>
<path class="st1" d="M211.4,130.5L211.4,130.5c4.6,0,8.3-3.7,8.3-8.3v0c0-4.6-3.7-8.3-8.3-8.3h0c-4.6,0-8.3,3.7-8.3,8.3v0
	C203.1,126.7,206.8,130.5,211.4,130.5z"/>
<path class="st1" d="M188.8,130.5L188.8,130.5c4.6,0,8.3-3.7,8.3-8.3v0c0-4.6-3.7-8.3-8.3-8.3h0c-4.6,0-8.3,3.7-8.3,8.3v0
	C180.5,126.7,184.3,130.5,188.8,130.5z"/>
<path class="st1" d="M166.2,130.5L166.2,130.5c4.6,0,8.3-3.7,8.3-8.3v0c0-4.6-3.7-8.3-8.3-8.3h0c-4.6,0-8.3,3.7-8.3,8.3v0
	C158,126.7,161.7,130.5,166.2,130.5z"/>
<path class="st1" d="M143.7,130.5L143.7,130.5c4.6,0,8.3-3.7,8.3-8.3v0c0-4.6-3.7-8.3-8.3-8.3h0c-4.6,0-8.3,3.7-8.3,8.3v0
	C135.4,126.7,139.1,130.5,143.7,130.5z"/>
<path class="st1" d="M121.1,130.5L121.1,130.5c4.6,0,8.3-3.7,8.3-8.3v0c0-4.6-3.7-8.3-8.3-8.3h0c-4.6,0-8.3,3.7-8.3,8.3v0
	C112.8,126.7,116.6,130.5,121.1,130.5z"/>
<path class="st1" d="M98.5,130.5L98.5,130.5c4.6,0,8.3-3.7,8.3-8.3v0c0-4.6-3.7-8.3-8.3-8.3h0c-4.6,0-8.3,3.7-8.3,8.3v0
	C90.3,126.7,94,130.5,98.5,130.5z"/>
<path class="st1" d="M76,130.5L76,130.5c4.6,0,8.3-3.7,8.3-8.3v0c0-4.6-3.7-8.3-8.3-8.3h0c-4.6,0-8.3,3.7-8.3,8.3v0
	C67.7,126.7,71.4,130.5,76,130.5z"/>
<path class="st1" d="M53.4,130.5L53.4,130.5c4.6,0,8.3-3.7,8.3-8.3v0c0-4.6-3.7-8.3-8.3-8.3h0c-4.6,0-8.3,3.7-8.3,8.3v0
	C45.1,126.7,48.8,130.5,53.4,130.5z"/>
<path class="st1" d="M30.8,130.5L30.8,130.5c4.6,0,8.3-3.7,8.3-8.3v0c0-4.6-3.7-8.3-8.3-8.3h0c-4.6,0-8.3,3.7-8.3,8.3v0
	C22.5,126.7,26.3,130.5,30.8,130.5z"/>
<path class="st1" d="M346.8,175.6L346.8,175.6c4.6,0,8.3-3.7,8.3-8.3v0c0-4.6-3.7-8.3-8.3-8.3l0,0c-4.6,0-8.3,3.7-8.3,8.3v0
	C338.5,171.9,342.2,175.6,346.8,175.6z"/>
<path class="st1" d="M324.2,175.6L324.2,175.6c4.6,0,8.3-3.7,8.3-8.3v0c0-4.6-3.7-8.3-8.3-8.3h0c-4.6,0-8.3,3.7-8.3,8.3v0
	C315.9,171.9,319.7,175.6,324.2,175.6z"/>
<path class="st1" d="M301.7,175.6L301.7,175.6c4.6,0,8.3-3.7,8.3-8.3v0c0-4.6-3.7-8.3-8.3-8.3h0c-4.6,0-8.3,3.7-8.3,8.3v0
	C293.4,171.9,297.1,175.6,301.7,175.6z"/>
<path class="st1" d="M279.1,175.6L279.1,175.6c4.6,0,8.3-3.7,8.3-8.3v0c0-4.6-3.7-8.3-8.3-8.3h0c-4.6,0-8.3,3.7-8.3,8.3v0
	C270.8,171.9,274.5,175.6,279.1,175.6z"/>
<path class="st1" d="M256.5,175.6L256.5,175.6c4.6,0,8.3-3.7,8.3-8.3v0c0-4.6-3.7-8.3-8.3-8.3l0,0c-4.6,0-8.3,3.7-8.3,8.3v0
	C248.2,171.9,252,175.6,256.5,175.6z"/>
<path class="st1" d="M233.9,175.6L233.9,175.6c4.6,0,8.3-3.7,8.3-8.3v0c0-4.6-3.7-8.3-8.3-8.3h0c-4.6,0-8.3,3.7-8.3,8.3v0
	C225.7,171.9,229.4,175.6,233.9,175.6z"/>
<path class="st1" d="M211.4,175.6L211.4,175.6c4.6,0,8.3-3.7,8.3-8.3v0c0-4.6-3.7-8.3-8.3-8.3h0c-4.6,0-8.3,3.7-8.3,8.3v0
	C203.1,171.9,206.8,175.6,211.4,175.6z"/>
<path class="st1" d="M188.8,175.6L188.8,175.6c4.6,0,8.3-3.7,8.3-8.3v0c0-4.6-3.7-8.3-8.3-8.3h0c-4.6,0-8.3,3.7-8.3,8.3v0
	C180.5,171.9,184.2,175.6,188.8,175.6z"/>
<path class="st1" d="M166.2,175.6L166.2,175.6c4.6,0,8.3-3.7,8.3-8.3v0c0-4.6-3.7-8.3-8.3-8.3h0c-4.6,0-8.3,3.7-8.3,8.3v0
	C157.9,171.9,161.7,175.6,166.2,175.6z"/>
<path class="st1" d="M143.7,175.6L143.7,175.6c4.6,0,8.3-3.7,8.3-8.3v0c0-4.6-3.7-8.3-8.3-8.3h0c-4.6,0-8.3,3.7-8.3,8.3v0
	C135.4,171.9,139.1,175.6,143.7,175.6z"/>
<path class="st1" d="M121.1,175.6L121.1,175.6c4.6,0,8.3-3.7,8.3-8.3v0c0-4.6-3.7-8.3-8.3-8.3h0c-4.6,0-8.3,3.7-8.3,8.3v0
	C112.8,171.9,116.5,175.6,121.1,175.6z"/>
<path class="st1" d="M98.5,175.6L98.5,175.6c4.6,0,8.3-3.7,8.3-8.3v0c0-4.6-3.7-8.3-8.3-8.3h0c-4.6,0-8.3,3.7-8.3,8.3v0
	C90.2,171.9,94,175.6,98.5,175.6z"/>
<path class="st1" d="M346.8,220.7L346.8,220.7c4.6,0,8.3-3.7,8.3-8.3v0c0-4.6-3.7-8.3-8.3-8.3h0c-4.6,0-8.3,3.7-8.3,8.3v0
	C338.5,217,342.3,220.7,346.8,220.7z"/>
<path class="st1" d="M324.2,220.7L324.2,220.7c4.6,0,8.3-3.7,8.3-8.3v0c0-4.6-3.7-8.3-8.3-8.3l0,0c-4.6,0-8.3,3.7-8.3,8.3v0
	C316,217,319.7,220.7,324.2,220.7z"/>
<path class="st1" d="M301.7,220.7L301.7,220.7c4.6,0,8.3-3.7,8.3-8.3v0c0-4.6-3.7-8.3-8.3-8.3l0,0c-4.6,0-8.3,3.7-8.3,8.3v0
	C293.4,217,297.1,220.7,301.7,220.7z"/>
<path class="st1" d="M279.1,220.7L279.1,220.7c4.6,0,8.3-3.7,8.3-8.3v0c0-4.6-3.7-8.3-8.3-8.3h0c-4.6,0-8.3,3.7-8.3,8.3v0
	C270.8,217,274.5,220.7,279.1,220.7z"/>
<path class="st1" d="M256.5,220.7L256.5,220.7c4.6,0,8.3-3.7,8.3-8.3v0c0-4.6-3.7-8.3-8.3-8.3h0c-4.6,0-8.3,3.7-8.3,8.3v0
	C248.3,217,252,220.7,256.5,220.7z"/>
<path class="st1" d="M234,220.7L234,220.7c4.6,0,8.3-3.7,8.3-8.3v0c0-4.6-3.7-8.3-8.3-8.3h0c-4.6,0-8.3,3.7-8.3,8.3v0
	C225.7,217,229.4,220.7,234,220.7z"/>
<path class="st1" d="M211.4,220.7L211.4,220.7c4.6,0,8.3-3.7,8.3-8.3v0c0-4.6-3.7-8.3-8.3-8.3h0c-4.6,0-8.3,3.7-8.3,8.3v0
	C203.1,217,206.8,220.7,211.4,220.7z"/>
<path class="st1" d="M188.8,220.7L188.8,220.7c4.6,0,8.3-3.7,8.3-8.3v0c0-4.6-3.7-8.3-8.3-8.3h0c-4.6,0-8.3,3.7-8.3,8.3v0
	C180.5,217,184.3,220.7,188.8,220.7z"/>
<path class="st1" d="M166.3,220.7L166.3,220.7c4.6,0,8.3-3.7,8.3-8.3v0c0-4.6-3.7-8.3-8.3-8.3h0c-4.6,0-8.3,3.7-8.3,8.3v0
	C158,217,161.7,220.7,166.3,220.7z"/>
<path class="st1" d="M143.7,220.7L143.7,220.7c4.6,0,8.3-3.7,8.3-8.3v0c0-4.6-3.7-8.3-8.3-8.3h0c-4.6,0-8.3,3.7-8.3,8.3v0
	C135.4,217,139.1,220.7,143.7,220.7z"/>
<path class="st1" d="M121.1,220.7L121.1,220.7c4.6,0,8.3-3.7,8.3-8.3v0c0-4.6-3.7-8.3-8.3-8.3h0c-4.6,0-8.3,3.7-8.3,8.3v0
	C112.8,217,116.6,220.7,121.1,220.7z"/>
<path class="st1" d="M98.5,220.7L98.5,220.7c4.6,0,8.3-3.7,8.3-8.3v0c0-4.6-3.7-8.3-8.3-8.3h0c-4.6,0-8.3,3.7-8.3,8.3v0
	C90.3,217,94,220.7,98.5,220.7z"/>
<path class="st1" d="M346.8,198.2L346.8,198.2c4.6,0,8.3-3.7,8.3-8.3v0c0-4.6-3.7-8.3-8.3-8.3h0c-4.6,0-8.3,3.7-8.3,8.3v0
	C338.5,194.4,342.3,198.2,346.8,198.2z"/>
<path class="st1" d="M324.2,198.2L324.2,198.2c4.6,0,8.3-3.7,8.3-8.3v0c0-4.6-3.7-8.3-8.3-8.3l0,0c-4.6,0-8.3,3.7-8.3,8.3v0
	C316,194.4,319.7,198.2,324.2,198.2z"/>
<path class="st1" d="M301.7,198.2L301.7,198.2c4.6,0,8.3-3.7,8.3-8.3v0c0-4.6-3.7-8.3-8.3-8.3l0,0c-4.6,0-8.3,3.7-8.3,8.3v0
	C293.4,194.4,297.1,198.2,301.7,198.2z"/>
<path class="st1" d="M279.1,198.2L279.1,198.2c4.6,0,8.3-3.7,8.3-8.3v0c0-4.6-3.7-8.3-8.3-8.3h0c-4.6,0-8.3,3.7-8.3,8.3v0
	C270.8,194.4,274.5,198.2,279.1,198.2z"/>
<path class="st1" d="M256.5,198.2L256.5,198.2c4.6,0,8.3-3.7,8.3-8.3v0c0-4.6-3.7-8.3-8.3-8.3h0c-4.6,0-8.3,3.7-8.3,8.3v0
	C248.3,194.4,252,198.2,256.5,198.2z"/>
<path class="st1" d="M234,198.2L234,198.2c4.6,0,8.3-3.7,8.3-8.3v0c0-4.6-3.7-8.3-8.3-8.3h0c-4.6,0-8.3,3.7-8.3,8.3v0
	C225.7,194.4,229.4,198.2,234,198.2z"/>
<path class="st1" d="M211.4,198.2L211.4,198.2c4.6,0,8.3-3.7,8.3-8.3v0c0-4.6-3.7-8.3-8.3-8.3h0c-4.6,0-8.3,3.7-8.3,8.3v0
	C203.1,194.4,206.8,198.2,211.4,198.2z"/>
<path class="st1" d="M188.8,198.2L188.8,198.2c4.6,0,8.3-3.7,8.3-8.3v0c0-4.6-3.7-8.3-8.3-8.3h0c-4.6,0-8.3,3.7-8.3,8.3v0
	C180.5,194.4,184.3,198.2,188.8,198.2z"/>
<path class="st1" d="M166.3,198.2L166.3,198.2c4.6,0,8.3-3.7,8.3-8.3v0c0-4.6-3.7-8.3-8.3-8.3h0c-4.6,0-8.3,3.7-8.3,8.3v0
	C158,194.4,161.7,198.2,166.3,198.2z"/>
<path class="st1" d="M143.7,198.2L143.7,198.2c4.6,0,8.3-3.7,8.3-8.3v0c0-4.6-3.7-8.3-8.3-8.3h0c-4.6,0-8.3,3.7-8.3,8.3v0
	C135.4,194.4,139.1,198.2,143.7,198.2z"/>
<path class="st1" d="M121.1,198.2L121.1,198.2c4.6,0,8.3-3.7,8.3-8.3v0c0-4.6-3.7-8.3-8.3-8.3h0c-4.6,0-8.3,3.7-8.3,8.3v0
	C112.8,194.4,116.6,198.2,121.1,198.2z"/>
<path class="st1" d="M98.5,198.2L98.5,198.2c4.6,0,8.3-3.7,8.3-8.3v0c0-4.6-3.7-8.3-8.3-8.3h0c-4.6,0-8.3,3.7-8.3,8.3v0
	C90.3,194.4,94,198.2,98.5,198.2z"/>
<path class="st1" d="M301.7,243.3L301.7,243.3c4.6,0,8.3-3.7,8.3-8.3v0c0-4.6-3.7-8.3-8.3-8.3h0c-4.6,0-8.3,3.7-8.3,8.3v0
	C293.4,239.6,297.1,243.3,301.7,243.3z"/>
<path class="st1" d="M279.1,243.3L279.1,243.3c4.6,0,8.3-3.7,8.3-8.3v0c0-4.6-3.7-8.3-8.3-8.3h0c-4.6,0-8.3,3.7-8.3,8.3v0
	C270.8,239.6,274.5,243.3,279.1,243.3z"/>
<path class="st1" d="M256.5,243.3L256.5,243.3c4.6,0,8.3-3.7,8.3-8.3v0c0-4.6-3.7-8.3-8.3-8.3l0,0c-4.6,0-8.3,3.7-8.3,8.3v0
	C248.2,239.6,252,243.3,256.5,243.3z"/>
<path class="st1" d="M233.9,243.3L233.9,243.3c4.6,0,8.3-3.7,8.3-8.3v0c0-4.6-3.7-8.3-8.3-8.3h0c-4.6,0-8.3,3.7-8.3,8.3v0
	C225.7,239.6,229.4,243.3,233.9,243.3z"/>
<path class="st1" d="M211.4,243.3L211.4,243.3c4.6,0,8.3-3.7,8.3-8.3v0c0-4.6-3.7-8.3-8.3-8.3h0c-4.6,0-8.3,3.7-8.3,8.3v0
	C203.1,239.6,206.8,243.3,211.4,243.3z"/>
<path class="st1" d="M188.8,243.3L188.8,243.3c4.6,0,8.3-3.7,8.3-8.3v0c0-4.6-3.7-8.3-8.3-8.3h0c-4.6,0-8.3,3.7-8.3,8.3v0
	C180.5,239.6,184.2,243.3,188.8,243.3z"/>
<path class="st1" d="M166.2,243.3L166.2,243.3c4.6,0,8.3-3.7,8.3-8.3v0c0-4.6-3.7-8.3-8.3-8.3h0c-4.6,0-8.3,3.7-8.3,8.3v0
	C157.9,239.6,161.7,243.3,166.2,243.3z"/>
<path class="st1" d="M143.7,243.3L143.7,243.3c4.6,0,8.3-3.7,8.3-8.3v0c0-4.6-3.7-8.3-8.3-8.3h0c-4.6,0-8.3,3.7-8.3,8.3v0
	C135.4,239.6,139.1,243.3,143.7,243.3z"/>
<path class="st1" d="M121.1,243.3L121.1,243.3c4.6,0,8.3-3.7,8.3-8.3v0c0-4.6-3.7-8.3-8.3-8.3h0c-4.6,0-8.3,3.7-8.3,8.3v0
	C112.8,239.6,116.5,243.3,121.1,243.3z"/>
<path class="st1" d="M98.5,243.3L98.5,243.3c4.6,0,8.3-3.7,8.3-8.3v0c0-4.6-3.7-8.3-8.3-8.3h0c-4.6,0-8.3,3.7-8.3,8.3v0
	C90.2,239.6,94,243.3,98.5,243.3z"/>
<path class="st1" d="M301.6,288.4L301.6,288.4c4.6,0,8.3-3.7,8.3-8.3v0c0-4.6-3.7-8.3-8.3-8.3h0c-4.6,0-8.3,3.7-8.3,8.3v0
	C293.3,284.7,297.1,288.4,301.6,288.4z"/>
<path class="st1" d="M279.1,288.4L279.1,288.4c4.6,0,8.3-3.7,8.3-8.3v0c0-4.6-3.7-8.3-8.3-8.3h0c-4.6,0-8.3,3.7-8.3,8.3v0
	C270.8,284.7,274.5,288.4,279.1,288.4z"/>
<path class="st1" d="M256.5,288.4L256.5,288.4c4.6,0,8.3-3.7,8.3-8.3v0c0-4.6-3.7-8.3-8.3-8.3l0,0c-4.6,0-8.3,3.7-8.3,8.3v0
	C248.2,284.7,251.9,288.4,256.5,288.4z"/>
<path class="st1" d="M233.9,288.4L233.9,288.4c4.6,0,8.3-3.7,8.3-8.3v0c0-4.6-3.7-8.3-8.3-8.3h0c-4.6,0-8.3,3.7-8.3,8.3v0
	C225.6,284.7,229.4,288.4,233.9,288.4z"/>
<path class="st1" d="M211.4,288.4L211.4,288.4c4.6,0,8.3-3.7,8.3-8.3v0c0-4.6-3.7-8.3-8.3-8.3h0c-4.6,0-8.3,3.7-8.3,8.3v0
	C203.1,284.7,206.8,288.4,211.4,288.4z"/>
<path class="st1" d="M188.8,288.4L188.8,288.4c4.6,0,8.3-3.7,8.3-8.3v0c0-4.6-3.7-8.3-8.3-8.3h0c-4.6,0-8.3,3.7-8.3,8.3v0
	C180.5,284.7,184.2,288.4,188.8,288.4z"/>
<path class="st1" d="M166.2,288.4L166.2,288.4c4.6,0,8.3-3.7,8.3-8.3v0c0-4.6-3.7-8.3-8.3-8.3h0c-4.6,0-8.3,3.7-8.3,8.3v0
	C157.9,284.7,161.7,288.4,166.2,288.4z"/>
<path class="st1" d="M143.6,288.4L143.6,288.4c4.6,0,8.3-3.7,8.3-8.3v0c0-4.6-3.7-8.3-8.3-8.3h0c-4.6,0-8.3,3.7-8.3,8.3v0
	C135.4,284.7,139.1,288.4,143.6,288.4z"/>
<path class="st1" d="M121.1,288.4L121.1,288.4c4.6,0,8.3-3.7,8.3-8.3v0c0-4.6-3.7-8.3-8.3-8.3h0c-4.6,0-8.3,3.7-8.3,8.3v0
	C112.8,284.7,116.5,288.4,121.1,288.4z"/>
<path class="st1" d="M301.6,265.9L301.6,265.9c4.6,0,8.3-3.7,8.3-8.3v0c0-4.6-3.7-8.3-8.3-8.3h0c-4.6,0-8.3,3.7-8.3,8.3v0
	C293.3,262.1,297.1,265.9,301.6,265.9z"/>
<path class="st1" d="M279.1,265.9L279.1,265.9c4.6,0,8.3-3.7,8.3-8.3v0c0-4.6-3.7-8.3-8.3-8.3h0c-4.6,0-8.3,3.7-8.3,8.3v0
	C270.8,262.1,274.5,265.9,279.1,265.9z"/>
<path class="st1" d="M256.5,265.9L256.5,265.9c4.6,0,8.3-3.7,8.3-8.3v0c0-4.6-3.7-8.3-8.3-8.3l0,0c-4.6,0-8.3,3.7-8.3,8.3v0
	C248.2,262.1,251.9,265.9,256.5,265.9z"/>
<path class="st1" d="M233.9,265.9L233.9,265.9c4.6,0,8.3-3.7,8.3-8.3v0c0-4.6-3.7-8.3-8.3-8.3h0c-4.6,0-8.3,3.7-8.3,8.3v0
	C225.6,262.1,229.4,265.9,233.9,265.9z"/>
<path class="st1" d="M211.4,265.9L211.4,265.9c4.6,0,8.3-3.7,8.3-8.3v0c0-4.6-3.7-8.3-8.3-8.3h0c-4.6,0-8.3,3.7-8.3,8.3v0
	C203.1,262.1,206.8,265.9,211.4,265.9z"/>
<path class="st1" d="M188.8,265.9L188.8,265.9c4.6,0,8.3-3.7,8.3-8.3v0c0-4.6-3.7-8.3-8.3-8.3h0c-4.6,0-8.3,3.7-8.3,8.3v0
	C180.5,262.1,184.2,265.9,188.8,265.9z"/>
<path class="st1" d="M166.2,265.9L166.2,265.9c4.6,0,8.3-3.7,8.3-8.3v0c0-4.6-3.7-8.3-8.3-8.3h0c-4.6,0-8.3,3.7-8.3,8.3v0
	C157.9,262.1,161.7,265.9,166.2,265.9z"/>
<path class="st1" d="M143.6,265.9L143.6,265.9c4.6,0,8.3-3.7,8.3-8.3v0c0-4.6-3.7-8.3-8.3-8.3h0c-4.6,0-8.3,3.7-8.3,8.3v0
	C135.4,262.1,139.1,265.9,143.6,265.9z"/>
<path class="st1" d="M121.1,265.9L121.1,265.9c4.6,0,8.3-3.7,8.3-8.3v0c0-4.6-3.7-8.3-8.3-8.3h0c-4.6,0-8.3,3.7-8.3,8.3v0
	C112.8,262.1,116.5,265.9,121.1,265.9z"/>
<path class="st1" d="M98.5,265.9L98.5,265.9c4.6,0,8.3-3.7,8.3-8.3v0c0-4.6-3.7-8.3-8.3-8.3h0c-4.6,0-8.3,3.7-8.3,8.3v0
	C90.2,262.1,93.9,265.9,98.5,265.9z"/>
<path class="st1" d="M346.8,469.2L346.8,469.2c4.6,0,8.3-3.7,8.3-8.3l0,0c0-4.6-3.7-8.3-8.3-8.3l0,0c-4.6,0-8.3,3.7-8.3,8.3l0,0
	C338.5,465.5,342.2,469.2,346.8,469.2z"/>
<path class="st1" d="M324.2,469.2L324.2,469.2c4.6,0,8.3-3.7,8.3-8.3l0,0c0-4.6-3.7-8.3-8.3-8.3h0c-4.6,0-8.3,3.7-8.3,8.3l0,0
	C315.9,465.5,319.6,469.2,324.2,469.2z"/>
<path class="st1" d="M301.6,469.2L301.6,469.2c4.6,0,8.3-3.7,8.3-8.3l0,0c0-4.6-3.7-8.3-8.3-8.3h0c-4.6,0-8.3,3.7-8.3,8.3l0,0
	C293.3,465.5,297.1,469.2,301.6,469.2z"/>
<path class="st1" d="M279.1,469.2L279.1,469.2c4.6,0,8.3-3.7,8.3-8.3l0,0c0-4.6-3.7-8.3-8.3-8.3h0c-4.6,0-8.3,3.7-8.3,8.3l0,0
	C270.8,465.5,274.5,469.2,279.1,469.2z"/>
<path class="st1" d="M256.5,469.2L256.5,469.2c4.6,0,8.3-3.7,8.3-8.3l0,0c0-4.6-3.7-8.3-8.3-8.3l0,0c-4.6,0-8.3,3.7-8.3,8.3l0,0
	C248.2,465.5,251.9,469.2,256.5,469.2z"/>
<path class="st1" d="M233.9,469.2L233.9,469.2c4.6,0,8.3-3.7,8.3-8.3l0,0c0-4.6-3.7-8.3-8.3-8.3h0c-4.6,0-8.3,3.7-8.3,8.3l0,0
	C225.6,465.5,229.4,469.2,233.9,469.2z"/>
<path class="st1" d="M211.4,469.2L211.4,469.2c4.6,0,8.3-3.7,8.3-8.3l0,0c0-4.6-3.7-8.3-8.3-8.3h0c-4.6,0-8.3,3.7-8.3,8.3l0,0
	C203.1,465.5,206.8,469.2,211.4,469.2z"/>
<path class="st1" d="M188.8,469.2L188.8,469.2c4.6,0,8.3-3.7,8.3-8.3l0,0c0-4.6-3.7-8.3-8.3-8.3h0c-4.6,0-8.3,3.7-8.3,8.3l0,0
	C180.5,465.5,184.2,469.2,188.8,469.2z"/>
<path class="st1" d="M166.2,469.2L166.2,469.2c4.6,0,8.3-3.7,8.3-8.3l0,0c0-4.6-3.7-8.3-8.3-8.3h0c-4.6,0-8.3,3.7-8.3,8.3l0,0
	C157.9,465.5,161.7,469.2,166.2,469.2z"/>
<path class="st1" d="M143.6,469.2L143.6,469.2c4.6,0,8.3-3.7,8.3-8.3l0,0c0-4.6-3.7-8.3-8.3-8.3h0c-4.6,0-8.3,3.7-8.3,8.3l0,0
	C135.4,465.5,139.1,469.2,143.6,469.2z"/>
<path class="st1" d="M121.1,469.2L121.1,469.2c4.6,0,8.3-3.7,8.3-8.3l0,0c0-4.6-3.7-8.3-8.3-8.3h0c-4.6,0-8.3,3.7-8.3,8.3l0,0
	C112.8,465.5,116.5,469.2,121.1,469.2z"/>
<path class="st1" d="M98.5,469.2L98.5,469.2c4.6,0,8.3-3.7,8.3-8.3l0,0c0-4.6-3.7-8.3-8.3-8.3h0c-4.6,0-8.3,3.7-8.3,8.3l0,0
	C90.2,465.5,93.9,469.2,98.5,469.2z"/>
<path class="st1" d="M346.8,514.3L346.8,514.3c4.6,0,8.3-3.7,8.3-8.3l0,0c0-4.6-3.7-8.3-8.3-8.3h0c-4.6,0-8.3,3.7-8.3,8.3l0,0
	C338.5,510.6,342.2,514.3,346.8,514.3z"/>
<path class="st1" d="M324.2,514.3L324.2,514.3c4.6,0,8.3-3.7,8.3-8.3l0,0c0-4.6-3.7-8.3-8.3-8.3l0,0c-4.6,0-8.3,3.7-8.3,8.3l0,0
	C315.9,510.6,319.7,514.3,324.2,514.3z"/>
<path class="st1" d="M301.7,514.3L301.7,514.3c4.6,0,8.3-3.7,8.3-8.3l0,0c0-4.6-3.7-8.3-8.3-8.3l0,0c-4.6,0-8.3,3.7-8.3,8.3l0,0
	C293.4,510.6,297.1,514.3,301.7,514.3z"/>
<path class="st1" d="M279.1,514.3L279.1,514.3c4.6,0,8.3-3.7,8.3-8.3l0,0c0-4.6-3.7-8.3-8.3-8.3h0c-4.6,0-8.3,3.7-8.3,8.3l0,0
	C270.8,510.6,274.5,514.3,279.1,514.3z"/>
<path class="st1" d="M256.5,514.3L256.5,514.3c4.6,0,8.3-3.7,8.3-8.3l0,0c0-4.6-3.7-8.3-8.3-8.3h0c-4.6,0-8.3,3.7-8.3,8.3l0,0
	C248.2,510.6,252,514.3,256.5,514.3z"/>
<path class="st1" d="M233.9,514.3L233.9,514.3c4.6,0,8.3-3.7,8.3-8.3l0,0c0-4.6-3.7-8.3-8.3-8.3h0c-4.6,0-8.3,3.7-8.3,8.3l0,0
	C225.7,510.6,229.4,514.3,233.9,514.3z"/>
<path class="st1" d="M211.4,514.3L211.4,514.3c4.6,0,8.3-3.7,8.3-8.3l0,0c0-4.6-3.7-8.3-8.3-8.3h0c-4.6,0-8.3,3.7-8.3,8.3l0,0
	C203.1,510.6,206.8,514.3,211.4,514.3z"/>
<path class="st1" d="M188.8,514.3L188.8,514.3c4.6,0,8.3-3.7,8.3-8.3l0,0c0-4.6-3.7-8.3-8.3-8.3h0c-4.6,0-8.3,3.7-8.3,8.3l0,0
	C180.5,510.6,184.3,514.3,188.8,514.3z"/>
<path class="st1" d="M166.2,514.3L166.2,514.3c4.6,0,8.3-3.7,8.3-8.3l0,0c0-4.6-3.7-8.3-8.3-8.3h0c-4.6,0-8.3,3.7-8.3,8.3l0,0
	C158,510.6,161.7,514.3,166.2,514.3z"/>
<path class="st1" d="M143.7,514.3L143.7,514.3c4.6,0,8.3-3.7,8.3-8.3l0,0c0-4.6-3.7-8.3-8.3-8.3h0c-4.6,0-8.3,3.7-8.3,8.3l0,0
	C135.4,510.6,139.1,514.3,143.7,514.3z"/>
<path class="st1" d="M121.1,514.3L121.1,514.3c4.6,0,8.3-3.7,8.3-8.3l0,0c0-4.6-3.7-8.3-8.3-8.3h0c-4.6,0-8.3,3.7-8.3,8.3l0,0
	C112.8,510.6,116.5,514.3,121.1,514.3z"/>
<path class="st1" d="M98.5,514.3L98.5,514.3c4.6,0,8.3-3.7,8.3-8.3l0,0c0-4.6-3.7-8.3-8.3-8.3h0c-4.6,0-8.3,3.7-8.3,8.3l0,0
	C90.2,510.6,94,514.3,98.5,514.3z"/>
<path class="st1" d="M346.8,491.8L346.8,491.8c4.6,0,8.3-3.7,8.3-8.3l0,0c0-4.6-3.7-8.3-8.3-8.3h0c-4.6,0-8.3,3.7-8.3,8.3l0,0
	C338.5,488.1,342.2,491.8,346.8,491.8z"/>
<path class="st1" d="M324.2,491.8L324.2,491.8c4.6,0,8.3-3.7,8.3-8.3l0,0c0-4.6-3.7-8.3-8.3-8.3l0,0c-4.6,0-8.3,3.7-8.3,8.3l0,0
	C315.9,488.1,319.7,491.8,324.2,491.8z"/>
<path class="st1" d="M301.7,491.8L301.7,491.8c4.6,0,8.3-3.7,8.3-8.3l0,0c0-4.6-3.7-8.3-8.3-8.3l0,0c-4.6,0-8.3,3.7-8.3,8.3l0,0
	C293.4,488.1,297.1,491.8,301.7,491.8z"/>
<path class="st1" d="M279.1,491.8L279.1,491.8c4.6,0,8.3-3.7,8.3-8.3l0,0c0-4.6-3.7-8.3-8.3-8.3h0c-4.6,0-8.3,3.7-8.3,8.3l0,0
	C270.8,488.1,274.5,491.8,279.1,491.8z"/>
<path class="st1" d="M256.5,491.8L256.5,491.8c4.6,0,8.3-3.7,8.3-8.3l0,0c0-4.6-3.7-8.3-8.3-8.3h0c-4.6,0-8.3,3.7-8.3,8.3l0,0
	C248.2,488.1,252,491.8,256.5,491.8z"/>
<path class="st1" d="M233.9,491.8L233.9,491.8c4.6,0,8.3-3.7,8.3-8.3l0,0c0-4.6-3.7-8.3-8.3-8.3h0c-4.6,0-8.3,3.7-8.3,8.3l0,0
	C225.7,488.1,229.4,491.8,233.9,491.8z"/>
<path class="st1" d="M211.4,491.8L211.4,491.8c4.6,0,8.3-3.7,8.3-8.3l0,0c0-4.6-3.7-8.3-8.3-8.3h0c-4.6,0-8.3,3.7-8.3,8.3l0,0
	C203.1,488.1,206.8,491.8,211.4,491.8z"/>
<path class="st1" d="M188.8,491.8L188.8,491.8c4.6,0,8.3-3.7,8.3-8.3l0,0c0-4.6-3.7-8.3-8.3-8.3h0c-4.6,0-8.3,3.7-8.3,8.3l0,0
	C180.5,488.1,184.3,491.8,188.8,491.8z"/>
<path class="st1" d="M166.2,491.8L166.2,491.8c4.6,0,8.3-3.7,8.3-8.3l0,0c0-4.6-3.7-8.3-8.3-8.3h0c-4.6,0-8.3,3.7-8.3,8.3l0,0
	C158,488.1,161.7,491.8,166.2,491.8z"/>
<path class="st1" d="M143.7,491.8L143.7,491.8c4.6,0,8.3-3.7,8.3-8.3l0,0c0-4.6-3.7-8.3-8.3-8.3h0c-4.6,0-8.3,3.7-8.3,8.3l0,0
	C135.4,488.1,139.1,491.8,143.7,491.8z"/>
<path class="st1" d="M121.1,491.8L121.1,491.8c4.6,0,8.3-3.7,8.3-8.3l0,0c0-4.6-3.7-8.3-8.3-8.3h0c-4.6,0-8.3,3.7-8.3,8.3l0,0
	C112.8,488.1,116.5,491.8,121.1,491.8z"/>
<path class="st1" d="M98.5,491.8L98.5,491.8c4.6,0,8.3-3.7,8.3-8.3l0,0c0-4.6-3.7-8.3-8.3-8.3h0c-4.6,0-8.3,3.7-8.3,8.3l0,0
	C90.2,488.1,94,491.8,98.5,491.8z"/>
<path class="st1" d="M346.8,536.9L346.8,536.9c4.6,0,8.3-3.7,8.3-8.3v0c0-4.6-3.7-8.3-8.3-8.3l0,0c-4.6,0-8.3,3.7-8.3,8.3v0
	C338.5,533.2,342.2,536.9,346.8,536.9z"/>
<path class="st1" d="M324.2,536.9L324.2,536.9c4.6,0,8.3-3.7,8.3-8.3v0c0-4.6-3.7-8.3-8.3-8.3h0c-4.6,0-8.3,3.7-8.3,8.3v0
	C315.9,533.2,319.6,536.9,324.2,536.9z"/>
<path class="st1" d="M301.6,536.9L301.6,536.9c4.6,0,8.3-3.7,8.3-8.3v0c0-4.6-3.7-8.3-8.3-8.3h0c-4.6,0-8.3,3.7-8.3,8.3v0
	C293.3,533.2,297.1,536.9,301.6,536.9z"/>
<path class="st1" d="M279.1,536.9L279.1,536.9c4.6,0,8.3-3.7,8.3-8.3v0c0-4.6-3.7-8.3-8.3-8.3h0c-4.6,0-8.3,3.7-8.3,8.3v0
	C270.8,533.2,274.5,536.9,279.1,536.9z"/>
<path class="st1" d="M256.5,536.9L256.5,536.9c4.6,0,8.3-3.7,8.3-8.3v0c0-4.6-3.7-8.3-8.3-8.3l0,0c-4.6,0-8.3,3.7-8.3,8.3v0
	C248.2,533.2,251.9,536.9,256.5,536.9z"/>
<path class="st1" d="M233.9,536.9L233.9,536.9c4.6,0,8.3-3.7,8.3-8.3v0c0-4.6-3.7-8.3-8.3-8.3h0c-4.6,0-8.3,3.7-8.3,8.3v0
	C225.6,533.2,229.4,536.9,233.9,536.9z"/>
<path class="st1" d="M211.4,536.9L211.4,536.9c4.6,0,8.3-3.7,8.3-8.3v0c0-4.6-3.7-8.3-8.3-8.3h0c-4.6,0-8.3,3.7-8.3,8.3v0
	C203.1,533.2,206.8,536.9,211.4,536.9z"/>
<path class="st1" d="M188.8,536.9L188.8,536.9c4.6,0,8.3-3.7,8.3-8.3v0c0-4.6-3.7-8.3-8.3-8.3h0c-4.6,0-8.3,3.7-8.3,8.3v0
	C180.5,533.2,184.2,536.9,188.8,536.9z"/>
<path class="st1" d="M166.2,536.9L166.2,536.9c4.6,0,8.3-3.7,8.3-8.3v0c0-4.6-3.7-8.3-8.3-8.3h0c-4.6,0-8.3,3.7-8.3,8.3v0
	C157.9,533.2,161.7,536.9,166.2,536.9z"/>
<path class="st1" d="M143.6,536.9L143.6,536.9c4.6,0,8.3-3.7,8.3-8.3v0c0-4.6-3.7-8.3-8.3-8.3h0c-4.6,0-8.3,3.7-8.3,8.3v0
	C135.4,533.2,139.1,536.9,143.6,536.9z"/>
<path class="st1" d="M121.1,536.9L121.1,536.9c4.6,0,8.3-3.7,8.3-8.3v0c0-4.6-3.7-8.3-8.3-8.3h0c-4.6,0-8.3,3.7-8.3,8.3v0
	C112.8,533.2,116.5,536.9,121.1,536.9z"/>
<path class="st1" d="M98.5,536.9L98.5,536.9c4.6,0,8.3-3.7,8.3-8.3v0c0-4.6-3.7-8.3-8.3-8.3h0c-4.6,0-8.3,3.7-8.3,8.3v0
	C90.2,533.2,93.9,536.9,98.5,536.9z"/>
<path class="st1" d="M346.8,559.5L346.8,559.5c4.6,0,8.3-3.7,8.3-8.3l0,0c0-4.6-3.7-8.3-8.3-8.3h0c-4.6,0-8.3,3.7-8.3,8.3l0,0
	C338.5,555.8,342.2,559.5,346.8,559.5z"/>
<path class="st1" d="M324.2,559.5L324.2,559.5c4.6,0,8.3-3.7,8.3-8.3l0,0c0-4.6-3.7-8.3-8.3-8.3l0,0c-4.6,0-8.3,3.7-8.3,8.3l0,0
	C315.9,555.8,319.7,559.5,324.2,559.5z"/>
<path class="st1" d="M301.7,559.5L301.7,559.5c4.6,0,8.3-3.7,8.3-8.3l0,0c0-4.6-3.7-8.3-8.3-8.3l0,0c-4.6,0-8.3,3.7-8.3,8.3l0,0
	C293.4,555.8,297.1,559.5,301.7,559.5z"/>
<path class="st1" d="M279.1,559.5L279.1,559.5c4.6,0,8.3-3.7,8.3-8.3l0,0c0-4.6-3.7-8.3-8.3-8.3h0c-4.6,0-8.3,3.7-8.3,8.3l0,0
	C270.8,555.8,274.5,559.5,279.1,559.5z"/>
<path class="st1" d="M256.5,559.5L256.5,559.5c4.6,0,8.3-3.7,8.3-8.3l0,0c0-4.6-3.7-8.3-8.3-8.3h0c-4.6,0-8.3,3.7-8.3,8.3l0,0
	C248.2,555.8,252,559.5,256.5,559.5z"/>
<path class="st1" d="M233.9,559.5L233.9,559.5c4.6,0,8.3-3.7,8.3-8.3l0,0c0-4.6-3.7-8.3-8.3-8.3h0c-4.6,0-8.3,3.7-8.3,8.3l0,0
	C225.7,555.8,229.4,559.5,233.9,559.5z"/>
<path class="st1" d="M211.4,559.5L211.4,559.5c4.6,0,8.3-3.7,8.3-8.3l0,0c0-4.6-3.7-8.3-8.3-8.3h0c-4.6,0-8.3,3.7-8.3,8.3l0,0
	C203.1,555.8,206.8,559.5,211.4,559.5z"/>
<path class="st1" d="M188.8,559.5L188.8,559.5c4.6,0,8.3-3.7,8.3-8.3l0,0c0-4.6-3.7-8.3-8.3-8.3h0c-4.6,0-8.3,3.7-8.3,8.3l0,0
	C180.5,555.8,184.3,559.5,188.8,559.5z"/>
<path class="st1" d="M166.2,559.5L166.2,559.5c4.6,0,8.3-3.7,8.3-8.3l0,0c0-4.6-3.7-8.3-8.3-8.3h0c-4.6,0-8.3,3.7-8.3,8.3l0,0
	C158,555.8,161.7,559.5,166.2,559.5z"/>
<path class="st1" d="M143.7,559.5L143.7,559.5c4.6,0,8.3-3.7,8.3-8.3l0,0c0-4.6-3.7-8.3-8.3-8.3h0c-4.6,0-8.3,3.7-8.3,8.3l0,0
	C135.4,555.8,139.1,559.5,143.7,559.5z"/>
<path class="st1" d="M121.1,559.5L121.1,559.5c4.6,0,8.3-3.7,8.3-8.3l0,0c0-4.6-3.7-8.3-8.3-8.3h0c-4.6,0-8.3,3.7-8.3,8.3l0,0
	C112.8,555.8,116.5,559.5,121.1,559.5z"/>
<path class="st1" d="M301.6,311L301.6,311c4.6,0,8.3-3.7,8.3-8.3l0,0c0-4.6-3.7-8.3-8.3-8.3h0c-4.6,0-8.3,3.7-8.3,8.3l0,0
	C293.3,307.3,297.1,311,301.6,311z"/>
<path class="st1" d="M279.1,311L279.1,311c4.6,0,8.3-3.7,8.3-8.3l0,0c0-4.6-3.7-8.3-8.3-8.3h0c-4.6,0-8.3,3.7-8.3,8.3l0,0
	C270.8,307.3,274.5,311,279.1,311z"/>
<path class="st1" d="M256.5,311L256.5,311c4.6,0,8.3-3.7,8.3-8.3l0,0c0-4.6-3.7-8.3-8.3-8.3l0,0c-4.6,0-8.3,3.7-8.3,8.3l0,0
	C248.2,307.3,251.9,311,256.5,311z"/>
<path class="st1" d="M233.9,311L233.9,311c4.6,0,8.3-3.7,8.3-8.3l0,0c0-4.6-3.7-8.3-8.3-8.3h0c-4.6,0-8.3,3.7-8.3,8.3l0,0
	C225.6,307.3,229.4,311,233.9,311z"/>
<path class="st1" d="M211.4,311L211.4,311c4.6,0,8.3-3.7,8.3-8.3l0,0c0-4.6-3.7-8.3-8.3-8.3h0c-4.6,0-8.3,3.7-8.3,8.3l0,0
	C203.1,307.3,206.8,311,211.4,311z"/>
<path class="st1" d="M188.8,311L188.8,311c4.6,0,8.3-3.7,8.3-8.3l0,0c0-4.6-3.7-8.3-8.3-8.3h0c-4.6,0-8.3,3.7-8.3,8.3l0,0
	C180.5,307.3,184.2,311,188.8,311z"/>
<path class="st1" d="M166.2,311L166.2,311c4.6,0,8.3-3.7,8.3-8.3l0,0c0-4.6-3.7-8.3-8.3-8.3h0c-4.6,0-8.3,3.7-8.3,8.3l0,0
	C157.9,307.3,161.7,311,166.2,311z"/>
<path class="st1" d="M143.6,311L143.6,311c4.6,0,8.3-3.7,8.3-8.3l0,0c0-4.6-3.7-8.3-8.3-8.3h0c-4.6,0-8.3,3.7-8.3,8.3l0,0
	C135.4,307.3,139.1,311,143.6,311z"/>
<path class="st1" d="M121.1,311L121.1,311c4.6,0,8.3-3.7,8.3-8.3l0,0c0-4.6-3.7-8.3-8.3-8.3h0c-4.6,0-8.3,3.7-8.3,8.3l0,0
	C112.8,307.3,116.5,311,121.1,311z"/>
<path class="st1" d="M75.9,175.6L75.9,175.6c4.6,0,8.3-3.7,8.3-8.3v0c0-4.6-3.7-8.3-8.3-8.3h0c-4.6,0-8.3,3.7-8.3,8.3v0
	C67.6,171.9,71.4,175.6,75.9,175.6z"/>
<path class="st1" d="M75.9,220.7L75.9,220.7c4.6,0,8.3-3.7,8.3-8.3v0c0-4.6-3.7-8.3-8.3-8.3h0c-4.6,0-8.3,3.7-8.3,8.3v0
	C67.7,217,71.4,220.7,75.9,220.7z"/>
<path class="st1" d="M75.9,198.2L75.9,198.2c4.6,0,8.3-3.7,8.3-8.3v0c0-4.6-3.7-8.3-8.3-8.3h0c-4.6,0-8.3,3.7-8.3,8.3v0
	C67.7,194.4,71.4,198.2,75.9,198.2z"/>
<path class="st1" d="M53.4,175.6L53.4,175.6c4.6,0,8.3-3.7,8.3-8.3v0c0-4.6-3.7-8.3-8.3-8.3h0c-4.6,0-8.3,3.7-8.3,8.3v0
	C45.1,171.9,48.8,175.6,53.4,175.6z"/>
<path class="st1" d="M53.4,198.2L53.4,198.2c4.6,0,8.3-3.7,8.3-8.3v0c0-4.6-3.7-8.3-8.3-8.3h0c-4.6,0-8.3,3.7-8.3,8.3v0
	C45.1,194.4,48.9,198.2,53.4,198.2z"/>
<path class="st1" d="M346.8,62.7L346.8,62.7c4.6,0,8.3-3.7,8.3-8.3v0c0-4.6-3.7-8.3-8.3-8.3h0c-4.6,0-8.3,3.7-8.3,8.3v0
	C338.6,59,342.3,62.7,346.8,62.7z"/>
<path class="st1" d="M324.3,62.7L324.3,62.7c4.6,0,8.3-3.7,8.3-8.3v0c0-4.6-3.7-8.3-8.3-8.3l0,0c-4.6,0-8.3,3.7-8.3,8.3v0
	C316,59,319.7,62.7,324.3,62.7z"/>
<path class="st1" d="M301.7,62.7L301.7,62.7c4.6,0,8.3-3.7,8.3-8.3v0c0-4.6-3.7-8.3-8.3-8.3l0,0c-4.6,0-8.3,3.7-8.3,8.3v0
	C293.4,59,297.1,62.7,301.7,62.7z"/>
<path class="st1" d="M279.1,62.7L279.1,62.7c4.6,0,8.3-3.7,8.3-8.3v0c0-4.6-3.7-8.3-8.3-8.3h0c-4.6,0-8.3,3.7-8.3,8.3v0
	C270.8,59,274.6,62.7,279.1,62.7z"/>
<path class="st1" d="M256.6,62.7L256.6,62.7c4.6,0,8.3-3.7,8.3-8.3v0c0-4.6-3.7-8.3-8.3-8.3h0c-4.6,0-8.3,3.7-8.3,8.3v0
	C248.3,59,252,62.7,256.6,62.7z"/>
<path class="st1" d="M234,62.7L234,62.7c4.6,0,8.3-3.7,8.3-8.3v0c0-4.6-3.7-8.3-8.3-8.3h0c-4.6,0-8.3,3.7-8.3,8.3v0
	C225.7,59,229.4,62.7,234,62.7z"/>
<path class="st1" d="M211.4,62.7L211.4,62.7c4.6,0,8.3-3.7,8.3-8.3v0c0-4.6-3.7-8.3-8.3-8.3h0c-4.6,0-8.3,3.7-8.3,8.3v0
	C203.1,59,206.9,62.7,211.4,62.7z"/>
<path class="st1" d="M188.8,62.7L188.8,62.7c4.6,0,8.3-3.7,8.3-8.3v0c0-4.6-3.7-8.3-8.3-8.3h0c-4.6,0-8.3,3.7-8.3,8.3v0
	C180.6,59,184.3,62.7,188.8,62.7z"/>
<path class="st1" d="M166.3,62.7L166.3,62.7c4.6,0,8.3-3.7,8.3-8.3v0c0-4.6-3.7-8.3-8.3-8.3h0c-4.6,0-8.3,3.7-8.3,8.3v0
	C158,59,161.7,62.7,166.3,62.7z"/>
<path class="st1" d="M143.7,62.7L143.7,62.7c4.6,0,8.3-3.7,8.3-8.3v0c0-4.6-3.7-8.3-8.3-8.3h0c-4.6,0-8.3,3.7-8.3,8.3v0
	C135.4,59,139.1,62.7,143.7,62.7z"/>
<path class="st1" d="M121.1,62.7L121.1,62.7c4.6,0,8.3-3.7,8.3-8.3v0c0-4.6-3.7-8.3-8.3-8.3h0c-4.6,0-8.3,3.7-8.3,8.3v0
	C112.9,59,116.6,62.7,121.1,62.7z"/>
<path class="st1" d="M98.6,62.7L98.6,62.7c4.6,0,8.3-3.7,8.3-8.3v0c0-4.6-3.7-8.3-8.3-8.3h0c-4.6,0-8.3,3.7-8.3,8.3v0
	C90.3,59,94,62.7,98.6,62.7z"/>
<path class="st1" d="M76,62.7L76,62.7c4.6,0,8.3-3.7,8.3-8.3v0c0-4.6-3.7-8.3-8.3-8.3h0c-4.6,0-8.3,3.7-8.3,8.3v0
	C67.7,59,71.4,62.7,76,62.7z"/>
<path class="st1" d="M53.4,62.7L53.4,62.7c4.6,0,8.3-3.7,8.3-8.3v0c0-4.6-3.7-8.3-8.3-8.3h0c-4.6,0-8.3,3.7-8.3,8.3v0
	C45.1,59,48.9,62.7,53.4,62.7z"/>
<path class="st1" d="M30.9,62.7L30.9,62.7c4.6,0,8.3-3.7,8.3-8.3v0c0-4.6-3.7-8.3-8.3-8.3h0c-4.6,0-8.3,3.7-8.3,8.3v0
	C22.6,59,26.3,62.7,30.9,62.7z"/>
<path class="st1" d="M8.3,62.7L8.3,62.7c4.6,0,8.3-3.7,8.3-8.3v0c0-4.6-3.7-8.3-8.3-8.3h0c-4.6,0-8.3,3.7-8.3,8.3v0
	C0,59,3.7,62.7,8.3,62.7z"/>
<g>
	<text transform="matrix(1 0 0 1 96.1393 10.1291)" class="st2 st3 st4">1</text>
	<text transform="matrix(1 0 0 1 118.2018 10.1291)" class="st2 st3 st4">2</text>
	<text transform="matrix(1 0 0 1 140.776 10.1291)" class="st2 st3 st4">3</text>
	<text transform="matrix(1 0 0 1 163.2907 10.1291)" class="st2 st3 st4">4</text>
	<text transform="matrix(1 0 0 1 185.9635 10.1291)" class="st2 st3 st4">5</text>
	<text transform="matrix(1 0 0 1 208.2858 10.1291)" class="st2 st3 st4">6</text>
	<text transform="matrix(1 0 0 1 231.2467 10.1291)" class="st2 st3 st4">7</text>
	<text transform="matrix(1 0 0 1 253.5085 10.1291)" class="st2 st3 st4">8</text>
	<text transform="matrix(1 0 0 1 276.1252 10.1291)" class="st2 st3 st4">9</text>
	<text transform="matrix(1 0 0 1 296.5812 10.1291)" class="st2 st3 st4">10</text>
	<text transform="matrix(1 0 0 1 320.1349 10.1291)" class="st2 st3 st4">11</text>
	<text transform="matrix(1 0 0 1 342.1252 10.1291)" class="st2 st3 st4">12</text>
	<text transform="matrix(1 0 0 1 29.071 101.8527)" class="st2 st3 st4">1</text>
	<text transform="matrix(1 0 0 1 51.1325 101.8527)" class="st2 st3 st4">2</text>
	<text transform="matrix(1 0 0 1 73.7067 101.8527)" class="st2 st3 st4">3</text>
	<text transform="matrix(1 0 0 1 96.2214 101.8527)" class="st2 st3 st4">4</text>
	<text transform="matrix(1 0 0 1 118.8952 101.8527)" class="st2 st3 st4">5</text>
	<text transform="matrix(1 0 0 1 141.2175 101.8527)" class="st2 st3 st4">6</text>
	<text transform="matrix(1 0 0 1 164.2438 101.8527)" class="st2 st3 st4">7</text>
	<text transform="matrix(1 0 0 1 186.4342 101.8527)" class="st2 st3 st4">8</text>
	<text transform="matrix(1 0 0 1 208.9284 101.8527)" class="st2 st3 st4">9</text>
	<text transform="matrix(1 0 0 1 229.5778 101.8527)" class="st2 st3 st4">10</text>
	<text transform="matrix(1 0 0 1 253.0602 101.8527)" class="st2 st3 st4">11</text>
	<text transform="matrix(1 0 0 1 275.1227 101.8527)" class="st2 st3 st4">12</text>
	<text transform="matrix(1 0 0 1 297.696 101.8527)" class="st2 st3 st4">13</text>
	<text transform="matrix(1 0 0 1 320.2096 101.8527)" class="st2 st3 st4">14</text>
	<text transform="matrix(1 0 0 1 342.8844 101.8527)" class="st2 st3 st4">15</text>
	<text transform="matrix(1 0 0 1 6.5744 79.2824)" class="st2 st3 st4">1</text>
	<text transform="matrix(1 0 0 1 28.6359 79.2824)" class="st2 st3 st4">2</text>
	<text transform="matrix(1 0 0 1 51.2101 79.2824)" class="st2 st3 st4">3</text>
	<text transform="matrix(1 0 0 1 73.7248 79.2824)" class="st2 st3 st4">4</text>
	<text transform="matrix(1 0 0 1 96.3986 79.2824)" class="st2 st3 st4">5</text>
	<text transform="matrix(1 0 0 1 118.7209 79.2824)" class="st2 st3 st4">6</text>
	<text transform="matrix(1 0 0 1 141.7472 79.2824)" class="st2 st3 st4">7</text>
	<text transform="matrix(1 0 0 1 163.9377 79.2824)" class="st2 st3 st4">8</text>
	<text transform="matrix(1 0 0 1 186.4318 79.2824)" class="st2 st3 st4">9</text>
	<text transform="matrix(1 0 0 1 207.0812 79.2824)" class="st2 st3 st4">10</text>
	<text transform="matrix(1 0 0 1 230.5636 79.2824)" class="st2 st3 st4">11</text>
	<text transform="matrix(1 0 0 1 252.6261 79.2824)" class="st2 st3 st4">12</text>
	<text transform="matrix(1 0 0 1 275.1994 79.2824)" class="st2 st3 st4">13</text>
	<text transform="matrix(1 0 0 1 297.713 79.2824)" class="st2 st3 st4">14</text>
	<text transform="matrix(1 0 0 1 320.3878 79.2824)" class="st2 st3 st4">15</text>
	<text transform="matrix(1 0 0 1 342.7101 79.2824)" class="st2 st3 st4">16</text>
	<text transform="matrix(1 0 0 1 6.5744 57.4406)" class="st2 st3 st4">1</text>
	<text transform="matrix(1 0 0 1 28.6359 57.4406)" class="st2 st3 st4">2</text>
	<text transform="matrix(1 0 0 1 51.2101 57.4406)" class="st2 st3 st4">3</text>
	<text transform="matrix(1 0 0 1 73.7248 57.4406)" class="st2 st3 st4">4</text>
	<text transform="matrix(1 0 0 1 96.3986 57.4406)" class="st2 st3 st4">5</text>
	<text transform="matrix(1 0 0 1 118.7209 57.4406)" class="st2 st3 st4">6</text>
	<text transform="matrix(1 0 0 1 141.7472 57.4406)" class="st2 st3 st4">7</text>
	<text transform="matrix(1 0 0 1 163.9377 57.4406)" class="st2 st3 st4">8</text>
	<text transform="matrix(1 0 0 1 186.4318 57.4406)" class="st2 st3 st4">9</text>
	<text transform="matrix(1 0 0 1 207.0812 57.4406)" class="st2 st3 st4">10</text>
	<text transform="matrix(1 0 0 1 230.5636 57.4406)" class="st2 st3 st4">11</text>
	<text transform="matrix(1 0 0 1 252.6261 57.4406)" class="st2 st3 st4">12</text>
	<text transform="matrix(1 0 0 1 275.1994 57.4406)" class="st2 st3 st4">13</text>
	<text transform="matrix(1 0 0 1 297.713 57.4406)" class="st2 st3 st4">14</text>
	<text transform="matrix(1 0 0 1 320.3878 57.4406)" class="st2 st3 st4">15</text>
	<text transform="matrix(1 0 0 1 342.7101 57.4406)" class="st2 st3 st4">16</text>
	<text transform="matrix(1 0 0 1 142.1564 327.5949)" class="st2 st3 st4">1</text>
	<text transform="matrix(1 0 0 1 164.2189 327.5949)" class="st2 st3 st4">2</text>
	<text transform="matrix(1 0 0 1 186.7931 327.5949)" class="st2 st3 st4">3</text>
	<text transform="matrix(1 0 0 1 209.3078 327.5949)" class="st2 st3 st4">4</text>
	<text transform="matrix(1 0 0 1 231.9806 327.5949)" class="st2 st3 st4">5</text>
	<text transform="matrix(1 0 0 1 254.3029 327.5949)" class="st2 st3 st4">6</text>
	<text transform="matrix(1 0 0 1 277.3293 327.5949)" class="st2 st3 st4">7</text>
	<text transform="matrix(1 0 0 1 299.5197 327.5949)" class="st2 st3 st4">8</text>
	<text transform="matrix(1 0 0 1 142.1564 350.1467)" class="st2 st3 st4">1</text>
	<text transform="matrix(1 0 0 1 164.2189 350.1467)" class="st2 st3 st4">2</text>
	<text transform="matrix(1 0 0 1 186.7931 350.1467)" class="st2 st3 st4">3</text>
	<text transform="matrix(1 0 0 1 209.3078 350.1467)" class="st2 st3 st4">4</text>
	<text transform="matrix(1 0 0 1 231.9806 350.1467)" class="st2 st3 st4">5</text>
	<text transform="matrix(1 0 0 1 254.3029 350.1467)" class="st2 st3 st4">6</text>
	<text transform="matrix(1 0 0 1 277.3293 350.1467)" class="st2 st3 st4">7</text>
	<text transform="matrix(1 0 0 1 299.5197 350.1467)" class="st2 st3 st4">8</text>
	<text transform="matrix(1 0 0 1 142.1564 372.7824)" class="st2 st3 st4">1</text>
	<text transform="matrix(1 0 0 1 164.2189 372.7824)" class="st2 st3 st4">2</text>
	<text transform="matrix(1 0 0 1 186.7931 372.7824)" class="st2 st3 st4">3</text>
	<text transform="matrix(1 0 0 1 209.3078 372.7824)" class="st2 st3 st4">4</text>
	<text transform="matrix(1 0 0 1 231.9806 372.7824)" class="st2 st3 st4">5</text>
	<text transform="matrix(1 0 0 1 254.3029 372.7824)" class="st2 st3 st4">6</text>
	<text transform="matrix(1 0 0 1 277.3293 372.7824)" class="st2 st3 st4">7</text>
	<text transform="matrix(1 0 0 1 299.5197 372.7824)" class="st2 st3 st4">8</text>
	<text transform="matrix(1 0 0 1 164.7258 395.3342)" class="st2 st3 st4">1</text>
	<text transform="matrix(1 0 0 1 186.7883 395.3342)" class="st2 st3 st4">2</text>
	<text transform="matrix(1 0 0 1 209.3625 395.3342)" class="st2 st3 st4">3</text>
	<text transform="matrix(1 0 0 1 231.8771 395.3342)" class="st2 st3 st4">4</text>
	<text transform="matrix(1 0 0 1 254.55 395.3342)" class="st2 st3 st4">5</text>
	<text transform="matrix(1 0 0 1 276.8722 395.3342)" class="st2 st3 st4">6</text>
	<text transform="matrix(1 0 0 1 299.8986 395.3342)" class="st2 st3 st4">7</text>
	<text transform="matrix(1 0 0 1 164.7258 417.967)" class="st2 st3 st4">1</text>
	<text transform="matrix(1 0 0 1 186.7883 417.967)" class="st2 st3 st4">2</text>
	<text transform="matrix(1 0 0 1 209.3625 417.967)" class="st2 st3 st4">3</text>
	<text transform="matrix(1 0 0 1 231.8771 417.967)" class="st2 st3 st4">4</text>
	<text transform="matrix(1 0 0 1 254.55 417.967)" class="st2 st3 st4">5</text>
	<text transform="matrix(1 0 0 1 276.8722 417.967)" class="st2 st3 st4">6</text>
	<text transform="matrix(1 0 0 1 299.8986 417.967)" class="st2 st3 st4">7</text>
	<text transform="matrix(1 0 0 1 164.7262 440.5197)" class="st2 st3 st4">1</text>
	<text transform="matrix(1 0 0 1 186.7887 440.5197)" class="st2 st3 st4">2</text>
	<text transform="matrix(1 0 0 1 209.363 440.5197)" class="st2 st3 st4">3</text>
	<text transform="matrix(1 0 0 1 231.8776 440.5197)" class="st2 st3 st4">4</text>
	<text transform="matrix(1 0 0 1 254.5505 440.5197)" class="st2 st3 st4">5</text>
	<text transform="matrix(1 0 0 1 276.8727 440.5197)" class="st2 st3 st4">6</text>
	<text transform="matrix(1 0 0 1 299.8991 440.5197)" class="st2 st3 st4">7</text>
	<text transform="matrix(1 0 0 1 322.0895 440.5197)" class="st2 st3 st4">8</text>
	<text transform="matrix(1 0 0 1 344.5827 440.5197)" class="st2 st3 st4">9</text>
	<text transform="matrix(1 0 0 1 29.0973 124.425)" class="st2 st3 st4">1</text>
	<text transform="matrix(1 0 0 1 51.1598 124.425)" class="st2 st3 st4">2</text>
	<text transform="matrix(1 0 0 1 73.7341 124.425)" class="st2 st3 st4">3</text>
	<text transform="matrix(1 0 0 1 96.2487 124.425)" class="st2 st3 st4">4</text>
	<text transform="matrix(1 0 0 1 118.9216 124.425)" class="st2 st3 st4">5</text>
	<text transform="matrix(1 0 0 1 141.2438 124.425)" class="st2 st3 st4">6</text>
	<text transform="matrix(1 0 0 1 164.2702 124.425)" class="st2 st3 st4">7</text>
	<text transform="matrix(1 0 0 1 186.4606 124.425)" class="st2 st3 st4">8</text>
	<text transform="matrix(1 0 0 1 208.9538 124.425)" class="st2 st3 st4">9</text>
	<text transform="matrix(1 0 0 1 229.6042 124.425)" class="st2 st3 st4">10</text>
	<text transform="matrix(1 0 0 1 253.0866 124.425)" class="st2 st3 st4">11</text>
	<text transform="matrix(1 0 0 1 275.1491 124.425)" class="st2 st3 st4">12</text>
	<text transform="matrix(1 0 0 1 297.7233 124.425)" class="st2 st3 st4">13</text>
	<text transform="matrix(1 0 0 1 320.237 124.425)" class="st2 st3 st4">14</text>
	<text transform="matrix(1 0 0 1 342.9108 124.425)" class="st2 st3 st4">15</text>
	<text transform="matrix(1 0 0 1 50.9323 146.7473)" class="st2 st3 st4">1</text>
	<text transform="matrix(1 0 0 1 72.9948 146.7473)" class="st2 st3 st4">2</text>
	<text transform="matrix(1 0 0 1 95.569 146.7473)" class="st2 st3 st4">3</text>
	<text transform="matrix(1 0 0 1 118.0837 146.7473)" class="st2 st3 st4">4</text>
	<text transform="matrix(1 0 0 1 140.7565 146.7473)" class="st2 st3 st4">5</text>
	<text transform="matrix(1 0 0 1 163.0788 146.7473)" class="st2 st3 st4">6</text>
	<text transform="matrix(1 0 0 1 186.1051 146.7473)" class="st2 st3 st4">7</text>
	<text transform="matrix(1 0 0 1 208.2956 146.7473)" class="st2 st3 st4">8</text>
	<text transform="matrix(1 0 0 1 230.7887 146.7473)" class="st2 st3 st4">9</text>
	<text transform="matrix(1 0 0 1 251.4391 146.7473)" class="st2 st3 st4">10</text>
	<text transform="matrix(1 0 0 1 274.9215 146.7473)" class="st2 st3 st4">11</text>
	<text transform="matrix(1 0 0 1 296.984 146.7473)" class="st2 st3 st4">12</text>
	<text transform="matrix(1 0 0 1 319.5583 146.7473)" class="st2 st3 st4">13</text>
	<text transform="matrix(1 0 0 1 342.0719 146.7473)" class="st2 st3 st4">14</text>
	<text transform="matrix(1 0 0 1 51.6398 169.5529)" class="st2 st3 st4">1</text>
	<text transform="matrix(1 0 0 1 73.7023 169.5529)" class="st2 st3 st4">2</text>
	<text transform="matrix(1 0 0 1 96.2765 169.5529)" class="st2 st3 st4">3</text>
	<text transform="matrix(1 0 0 1 118.7912 169.5529)" class="st2 st3 st4">4</text>
	<text transform="matrix(1 0 0 1 141.465 169.5529)" class="st2 st3 st4">5</text>
	<text transform="matrix(1 0 0 1 163.7873 169.5529)" class="st2 st3 st4">6</text>
	<text transform="matrix(1 0 0 1 186.8136 169.5529)" class="st2 st3 st4">7</text>
	<text transform="matrix(1 0 0 1 209.0041 169.5529)" class="st2 st3 st4">8</text>
	<text transform="matrix(1 0 0 1 231.4982 169.5529)" class="st2 st3 st4">9</text>
	<text transform="matrix(1 0 0 1 252.1486 169.5529)" class="st2 st3 st4">10</text>
	<text transform="matrix(1 0 0 1 275.6291 169.5529)" class="st2 st3 st4">11</text>
	<text transform="matrix(1 0 0 1 297.6916 169.5529)" class="st2 st3 st4">12</text>
	<text transform="matrix(1 0 0 1 320.2658 169.5529)" class="st2 st3 st4">13</text>
	<text transform="matrix(1 0 0 1 342.7794 169.5529)" class="st2 st3 st4">14</text>
	<text transform="matrix(1 0 0 1 51.6398 191.9035)" class="st2 st3 st4">1</text>
	<text transform="matrix(1 0 0 1 73.7023 191.9035)" class="st2 st3 st4">2</text>
	<text transform="matrix(1 0 0 1 96.2765 191.9035)" class="st2 st3 st4">3</text>
	<text transform="matrix(1 0 0 1 118.7912 191.9035)" class="st2 st3 st4">4</text>
	<text transform="matrix(1 0 0 1 141.465 191.9035)" class="st2 st3 st4">5</text>
	<text transform="matrix(1 0 0 1 163.7873 191.9035)" class="st2 st3 st4">6</text>
	<text transform="matrix(1 0 0 1 186.8136 191.9035)" class="st2 st3 st4">7</text>
	<text transform="matrix(1 0 0 1 209.0041 191.9035)" class="st2 st3 st4">8</text>
	<text transform="matrix(1 0 0 1 231.4982 191.9035)" class="st2 st3 st4">9</text>
	<text transform="matrix(1 0 0 1 252.1486 191.9035)" class="st2 st3 st4">10</text>
	<text transform="matrix(1 0 0 1 275.6291 191.9035)" class="st2 st3 st4">11</text>
	<text transform="matrix(1 0 0 1 297.6916 191.9035)" class="st2 st3 st4">12</text>
	<text transform="matrix(1 0 0 1 320.2658 191.9035)" class="st2 st3 st4">13</text>
	<text transform="matrix(1 0 0 1 342.7794 191.9035)" class="st2 st3 st4">14</text>
	<text transform="matrix(1 0 0 1 74.2101 214.7375)" class="st2 st3 st4">1</text>
	<text transform="matrix(1 0 0 1 96.2726 214.7375)" class="st2 st3 st4">2</text>
	<text transform="matrix(1 0 0 1 118.8468 214.7375)" class="st2 st3 st4">3</text>
	<text transform="matrix(1 0 0 1 141.3615 214.7375)" class="st2 st3 st4">4</text>
	<text transform="matrix(1 0 0 1 164.0353 214.7375)" class="st2 st3 st4">5</text>
	<text transform="matrix(1 0 0 1 186.3576 214.7375)" class="st2 st3 st4">6</text>
	<text transform="matrix(1 0 0 1 209.384 214.7375)" class="st2 st3 st4">7</text>
	<text transform="matrix(1 0 0 1 231.5744 214.7375)" class="st2 st3 st4">8</text>
	<text transform="matrix(1 0 0 1 254.0685 214.7375)" class="st2 st3 st4">9</text>
	<text transform="matrix(1 0 0 1 274.7189 214.7375)" class="st2 st3 st4">10</text>
	<text transform="matrix(1 0 0 1 298.1994 214.7375)" class="st2 st3 st4">11</text>
	<text transform="matrix(1 0 0 1 320.2619 214.7375)" class="st2 st3 st4">12</text>
	<text transform="matrix(1 0 0 1 342.8361 214.7375)" class="st2 st3 st4">13</text>
	<text transform="matrix(1 0 0 1 96.6437 237.2678)" class="st2 st3 st4">1</text>
	<text transform="matrix(1 0 0 1 118.7062 237.2678)" class="st2 st3 st4">2</text>
	<text transform="matrix(1 0 0 1 141.2804 237.2678)" class="st2 st3 st4">3</text>
	<text transform="matrix(1 0 0 1 163.7951 237.2678)" class="st2 st3 st4">4</text>
	<text transform="matrix(1 0 0 1 186.4689 237.2678)" class="st2 st3 st4">5</text>
	<text transform="matrix(1 0 0 1 208.7912 237.2678)" class="st2 st3 st4">6</text>
	<text transform="matrix(1 0 0 1 231.8176 237.2678)" class="st2 st3 st4">7</text>
	<text transform="matrix(1 0 0 1 254.008 237.2678)" class="st2 st3 st4">8</text>
	<text transform="matrix(1 0 0 1 276.5021 237.2678)" class="st2 st3 st4">9</text>
	<text transform="matrix(1 0 0 1 297.1525 237.2678)" class="st2 st3 st4">10</text>
	<text transform="matrix(1 0 0 1 96.7785 259.6184)" class="st2 st3 st4">1</text>
	<text transform="matrix(1 0 0 1 118.841 259.6184)" class="st2 st3 st4">2</text>
	<text transform="matrix(1 0 0 1 141.4152 259.6184)" class="st2 st3 st4">3</text>
	<text transform="matrix(1 0 0 1 163.9299 259.6184)" class="st2 st3 st4">4</text>
	<text transform="matrix(1 0 0 1 186.6037 259.6184)" class="st2 st3 st4">5</text>
	<text transform="matrix(1 0 0 1 208.9259 259.6184)" class="st2 st3 st4">6</text>
	<text transform="matrix(1 0 0 1 231.9523 259.6184)" class="st2 st3 st4">7</text>
	<text transform="matrix(1 0 0 1 254.1427 259.6184)" class="st2 st3 st4">8</text>
	<text transform="matrix(1 0 0 1 276.6369 259.6184)" class="st2 st3 st4">9</text>
	<text transform="matrix(1 0 0 1 297.2873 259.6184)" class="st2 st3 st4">10</text>
	<text transform="matrix(1 0 0 1 121.0158 282.4524)" class="st2 st3 st4">1</text>
	<text transform="matrix(1 0 0 1 143.0783 282.4524)" class="st2 st3 st4">2</text>
	<text transform="matrix(1 0 0 1 165.6525 282.4524)" class="st2 st3 st4">3</text>
	<text transform="matrix(1 0 0 1 188.1672 282.4524)" class="st2 st3 st4">4</text>
	<text transform="matrix(1 0 0 1 210.841 282.4524)" class="st2 st3 st4">5</text>
	<text transform="matrix(1 0 0 1 233.1633 282.4524)" class="st2 st3 st4">6</text>
	<text transform="matrix(1 0 0 1 256.1896 282.4524)" class="st2 st3 st4">7</text>
	<text transform="matrix(1 0 0 1 278.38 282.4524)" class="st2 st3 st4">8</text>
	<text transform="matrix(1 0 0 1 300.8742 282.4524)" class="st2 st3 st4">9</text>
	<text transform="matrix(1 0 0 1 51.6398 463.177)" class="st2 st3 st4">1</text>
	<text transform="matrix(1 0 0 1 73.7023 463.177)" class="st2 st3 st4">2</text>
	<text transform="matrix(1 0 0 1 96.2765 463.177)" class="st2 st3 st4">3</text>
	<text transform="matrix(1 0 0 1 118.7912 463.177)" class="st2 st3 st4">4</text>
	<text transform="matrix(1 0 0 1 141.465 463.177)" class="st2 st3 st4">5</text>
	<text transform="matrix(1 0 0 1 163.7873 463.177)" class="st2 st3 st4">6</text>
	<text transform="matrix(1 0 0 1 186.8136 463.177)" class="st2 st3 st4">7</text>
	<text transform="matrix(1 0 0 1 209.0041 463.177)" class="st2 st3 st4">8</text>
	<text transform="matrix(1 0 0 1 231.4982 463.177)" class="st2 st3 st4">9</text>
	<text transform="matrix(1 0 0 1 252.1486 463.177)" class="st2 st3 st4">10</text>
	<text transform="matrix(1 0 0 1 275.6291 463.177)" class="st2 st3 st4">11</text>
	<text transform="matrix(1 0 0 1 297.6916 463.177)" class="st2 st3 st4">12</text>
	<text transform="matrix(1 0 0 1 320.2658 463.177)" class="st2 st3 st4">13</text>
	<text transform="matrix(1 0 0 1 342.7794 463.177)" class="st2 st3 st4">14</text>
	<text transform="matrix(1 0 0 1 74.446 485.5285)" class="st2 st3 st4">1</text>
	<text transform="matrix(1 0 0 1 96.5085 485.5285)" class="st2 st3 st4">2</text>
	<text transform="matrix(1 0 0 1 119.0827 485.5285)" class="st2 st3 st4">3</text>
	<text transform="matrix(1 0 0 1 141.5973 485.5285)" class="st2 st3 st4">4</text>
	<text transform="matrix(1 0 0 1 164.2712 485.5285)" class="st2 st3 st4">5</text>
	<text transform="matrix(1 0 0 1 186.5934 485.5285)" class="st2 st3 st4">6</text>
	<text transform="matrix(1 0 0 1 209.6198 485.5285)" class="st2 st3 st4">7</text>
	<text transform="matrix(1 0 0 1 231.8102 485.5285)" class="st2 st3 st4">8</text>
	<text transform="matrix(1 0 0 1 254.3044 485.5285)" class="st2 st3 st4">9</text>
	<text transform="matrix(1 0 0 1 274.9547 485.5285)" class="st2 st3 st4">10</text>
	<text transform="matrix(1 0 0 1 298.4352 485.5285)" class="st2 st3 st4">11</text>
	<text transform="matrix(1 0 0 1 320.4977 485.5285)" class="st2 st3 st4">12</text>
	<text transform="matrix(1 0 0 1 343.0719 485.5285)" class="st2 st3 st4">13</text>
	<text transform="matrix(1 0 0 1 96.0734 508.3615)" class="st2 st3 st4">1</text>
	<text transform="matrix(1 0 0 1 118.1359 508.3615)" class="st2 st3 st4">2</text>
	<text transform="matrix(1 0 0 1 140.7101 508.3615)" class="st2 st3 st4">3</text>
	<text transform="matrix(1 0 0 1 163.2248 508.3615)" class="st2 st3 st4">4</text>
	<text transform="matrix(1 0 0 1 185.8986 508.3615)" class="st2 st3 st4">5</text>
	<text transform="matrix(1 0 0 1 208.2209 508.3615)" class="st2 st3 st4">6</text>
	<text transform="matrix(1 0 0 1 231.2472 508.3615)" class="st2 st3 st4">7</text>
	<text transform="matrix(1 0 0 1 253.4377 508.3615)" class="st2 st3 st4">8</text>
	<text transform="matrix(1 0 0 1 275.9318 508.3615)" class="st2 st3 st4">9</text>
	<text transform="matrix(1 0 0 1 296.5822 508.3615)" class="st2 st3 st4">10</text>
	<text transform="matrix(1 0 0 1 320.0627 508.3615)" class="st2 st3 st4">11</text>
	<text transform="matrix(1 0 0 1 342.1252 508.3615)" class="st2 st3 st4">12</text>
	<text transform="matrix(1 0 0 1 96.0734 530.8918)" class="st2 st3 st4">1</text>
	<text transform="matrix(1 0 0 1 118.1359 530.8918)" class="st2 st3 st4">2</text>
	<text transform="matrix(1 0 0 1 140.7101 530.8918)" class="st2 st3 st4">3</text>
	<text transform="matrix(1 0 0 1 163.2248 530.8918)" class="st2 st3 st4">4</text>
	<text transform="matrix(1 0 0 1 185.8986 530.8918)" class="st2 st3 st4">5</text>
	<text transform="matrix(1 0 0 1 208.2209 530.8918)" class="st2 st3 st4">6</text>
	<text transform="matrix(1 0 0 1 231.2472 530.8918)" class="st2 st3 st4">7</text>
	<text transform="matrix(1 0 0 1 253.4377 530.8918)" class="st2 st3 st4">8</text>
	<text transform="matrix(1 0 0 1 275.9318 530.8918)" class="st2 st3 st4">9</text>
	<text transform="matrix(1 0 0 1 296.5822 530.8918)" class="st2 st3 st4">10</text>
	<text transform="matrix(1 0 0 1 320.0627 530.8918)" class="st2 st3 st4">11</text>
	<text transform="matrix(1 0 0 1 342.1252 530.8918)" class="st2 st3 st4">12</text>
	<text transform="matrix(1 0 0 1 119.2145 553.2433)" class="st2 st3 st4">1</text>
	<text transform="matrix(1 0 0 1 141.277 553.2433)" class="st2 st3 st4">2</text>
	<text transform="matrix(1 0 0 1 163.8512 553.2433)" class="st2 st3 st4">3</text>
	<text transform="matrix(1 0 0 1 186.3659 553.2433)" class="st2 st3 st4">4</text>
	<text transform="matrix(1 0 0 1 209.0397 553.2433)" class="st2 st3 st4">5</text>
	<text transform="matrix(1 0 0 1 231.362 553.2433)" class="st2 st3 st4">6</text>
	<text transform="matrix(1 0 0 1 254.3884 553.2433)" class="st2 st3 st4">7</text>
	<text transform="matrix(1 0 0 1 276.5788 553.2433)" class="st2 st3 st4">8</text>
	<text transform="matrix(1 0 0 1 299.0729 553.2433)" class="st2 st3 st4">9</text>
	<text transform="matrix(1 0 0 1 319.7233 553.2433)" class="st2 st3 st4">10</text>
	<text transform="matrix(1 0 0 1 343.2038 553.2433)" class="st2 st3 st4">11</text>
	<text transform="matrix(1 0 0 1 121.0636 305.0578)" class="st2 st3 st4">1</text>
	<text transform="matrix(1 0 0 1 143.1261 305.0578)" class="st2 st3 st4">2</text>
	<text transform="matrix(1 0 0 1 165.6994 305.0578)" class="st2 st3 st4">3</text>
	<text transform="matrix(1 0 0 1 188.214 305.0578)" class="st2 st3 st4">4</text>
	<text transform="matrix(1 0 0 1 210.8879 305.0578)" class="st2 st3 st4">5</text>
	<text transform="matrix(1 0 0 1 233.2101 305.0578)" class="st2 st3 st4">6</text>
	<text transform="matrix(1 0 0 1 256.2365 305.0578)" class="st2 st3 st4">7</text>
	<text transform="matrix(1 0 0 1 278.4269 305.0578)" class="st2 st3 st4">8</text>
	<text transform="matrix(1 0 0 1 300.9211 305.0578)" class="st2 st3 st4">9</text>
</g>
<g>
	<text transform="matrix(1 0 0 1 414.9923 55.1984)" class="st5 st6 st7">29</text>
	<text transform="matrix(1 0 0 1 414.9923 10.8274)" class="st5 st6 st7">30</text>
	<text transform="matrix(1 0 0 1 414.9923 100.6945)" class="st5 st6 st7">27</text>
	<text transform="matrix(1 0 0 1 414.9923 78.1242)" class="st5 st6 st7">28</text>
	<text transform="matrix(1 0 0 1 414.9923 145.8371)" class="st5 st6 st7">25</text>
	<text transform="matrix(1 0 0 1 414.8322 326.4367)" class="st5 st6 st7">17</text>
	<text transform="matrix(1 0 0 1 414.8322 348.9885)" class="st5 st6 st7">16</text>
	<text transform="matrix(1 0 0 1 414.9923 371.6242)" class="st5 st6 st7">15</text>
	<text transform="matrix(1 0 0 1 414.9923 394.176)" class="st5 st6 st7">14</text>
	<text transform="matrix(1 0 0 1 414.8048 416.8088)" class="st5 st6 st7">13</text>
	<text transform="matrix(1 0 0 1 414.8322 439.3615)" class="st5 st6 st7">12</text>
	<text transform="matrix(1 0 0 1 414.9923 123.2668)" class="st5 st6 st7">26</text>
	<text transform="matrix(1 0 0 1 414.9923 168.2912)" class="st5 st6 st7">24</text>
	<text transform="matrix(1 0 0 1 414.9923 213.4787)" class="st5 st6 st7">22</text>
	<text transform="matrix(1 0 0 1 414.9923 190.9084)" class="st5 st6 st7">23</text>
	<text transform="matrix(1 0 0 1 414.9923 258.6233)" class="st5 st6 st7">20</text>
	<text transform="matrix(1 0 0 1 414.9923 236.0529)" class="st5 st6 st7">21</text>
	<text transform="matrix(1 0 0 1 414.8048 303.7658)" class="st5 st6 st7">18</text>
	<text transform="matrix(1 0 0 1 414.8322 281.1955)" class="st5 st6 st7">19</text>
	<text transform="matrix(1 0 0 1 414.8322 461.9153)" class="st5 st6 st7">11</text>
	<text transform="matrix(1 0 0 1 414.8322 507.1028)" class="st5 st6 st7">9</text>
	<text transform="matrix(1 0 0 1 414.8322 484.5324)" class="st5 st6 st7">10</text>
	<text transform="matrix(1 0 0 1 415.4396 552.2482)" class="st5 st6 st7">7</text>
	<text transform="matrix(1 0 0 1 414.8048 529.6779)" class="st5 st6 st7">8</text>
</g>
</svg>
