<?xml version="1.0" encoding="utf-8"?>
<!-- Generator: Adobe Illustrator 20.1.0, SVG Export Plug-In . SVG Version: 6.00 Build 0)  -->
<svg version="1.1" id="Layer_1" xmlns="http://www.w3.org/2000/svg" xmlns:xlink="http://www.w3.org/1999/xlink" x="0px" y="0px"
	 viewBox="0 0 471.3 695.2" style="enable-background:new 0 0 471.3 695.2;" xml:space="preserve">
<style type="text/css">
	.st0{fill:#D9F6E1;}
	.st1{fill:#FFFFFF;}
	.st2{fill:#737373;}
	.st3{font-family:'OsnovaPro';}
	.st4{font-size:8px;}
	.st5{fill:#7B878F;}
	.st6{font-family:'OsnovaProLight';}
	.st7{font-size:9px;}
</style>
<path class="st0" d="M8.5,16.6L8.5,16.6c-4.6,0-8.3-3.7-8.3-8.3v0C0.2,3.7,4,0,8.5,0h0c4.6,0,8.3,3.7,8.3,8.3v0
	C16.8,12.8,13.1,16.6,8.5,16.6z"/>
<path class="st0" d="M31.1,16.6L31.1,16.6c-4.6,0-8.3-3.7-8.3-8.3v0c0-4.6,3.7-8.3,8.3-8.3h0c4.6,0,8.3,3.7,8.3,8.3v0
	C39.4,12.8,35.7,16.6,31.1,16.6z"/>
<path class="st0" d="M53.7,16.6L53.7,16.6c-4.6,0-8.3-3.7-8.3-8.3v0c0-4.6,3.7-8.3,8.3-8.3h0C58.2,0,62,3.7,62,8.3v0
	C62,12.8,58.2,16.6,53.7,16.6z"/>
<path class="st0" d="M76.2,16.6L76.2,16.6c-4.6,0-8.3-3.7-8.3-8.3v0C68,3.7,71.7,0,76.2,0h0c4.6,0,8.3,3.7,8.3,8.3v0
	C84.5,12.8,80.8,16.6,76.2,16.6z"/>
<path class="st0" d="M98.8,16.6L98.8,16.6c-4.6,0-8.3-3.7-8.3-8.3v0c0-4.6,3.7-8.3,8.3-8.3h0c4.6,0,8.3,3.7,8.3,8.3v0
	C107.1,12.8,103.4,16.6,98.8,16.6z"/>
<path class="st0" d="M121.4,16.6L121.4,16.6c-4.6,0-8.3-3.7-8.3-8.3v0c0-4.6,3.7-8.3,8.3-8.3h0c4.6,0,8.3,3.7,8.3,8.3v0
	C129.7,12.8,125.9,16.6,121.4,16.6z"/>
<path class="st0" d="M143.9,16.6L143.9,16.6c-4.6,0-8.3-3.7-8.3-8.3v0c0-4.6,3.7-8.3,8.3-8.3h0c4.6,0,8.3,3.7,8.3,8.3v0
	C152.2,12.8,148.4,16.6,143.9,16.6z"/>
<path class="st0" d="M166.4,16.6L166.4,16.6c-4.6,0-8.3-3.7-8.3-8.3v0c0-4.6,3.7-8.3,8.3-8.3h0c4.6,0,8.3,3.7,8.3,8.3v0
	C174.7,12.8,171,16.6,166.4,16.6z"/>
<path class="st0" d="M189,16.6L189,16.6c-4.6,0-8.3-3.7-8.3-8.3v0c0-4.6,3.7-8.3,8.3-8.3h0c4.6,0,8.3,3.7,8.3,8.3v0
	C197.3,12.8,193.6,16.6,189,16.6z"/>
<path class="st0" d="M211.6,16.6L211.6,16.6c-4.6,0-8.3-3.7-8.3-8.3v0c0-4.6,3.7-8.3,8.3-8.3h0c4.6,0,8.3,3.7,8.3,8.3v0
	C219.9,12.8,216.1,16.6,211.6,16.6z"/>
<path class="st0" d="M234.1,16.6L234.1,16.6c-4.6,0-8.3-3.7-8.3-8.3v0c0-4.6,3.7-8.3,8.3-8.3h0c4.6,0,8.3,3.7,8.3,8.3v0
	C242.4,12.8,238.7,16.6,234.1,16.6z"/>
<path class="st0" d="M256.7,16.6L256.7,16.6c-4.6,0-8.3-3.7-8.3-8.3v0c0-4.6,3.7-8.3,8.3-8.3h0c4.6,0,8.3,3.7,8.3,8.3v0
	C265,12.8,261.3,16.6,256.7,16.6z"/>
<path class="st1" d="M166.4,107.8L166.4,107.8c-4.6,0-8.3-3.7-8.3-8.3v0c0-4.6,3.7-8.3,8.3-8.3h0c4.6,0,8.3,3.7,8.3,8.3v0
	C174.6,104.1,170.9,107.8,166.4,107.8z"/>
<path class="st1" d="M188.9,107.8L188.9,107.8c-4.6,0-8.3-3.7-8.3-8.3v0c0-4.6,3.7-8.3,8.3-8.3h0c4.6,0,8.3,3.7,8.3,8.3v0
	C197.2,104.1,193.5,107.8,188.9,107.8z"/>
<path class="st1" d="M211.5,107.8L211.5,107.8c-4.6,0-8.3-3.7-8.3-8.3v0c0-4.6,3.7-8.3,8.3-8.3h0c4.6,0,8.3,3.7,8.3,8.3v0
	C219.8,104.1,216.1,107.8,211.5,107.8z"/>
<path class="st1" d="M234.1,107.8L234.1,107.8c-4.6,0-8.3-3.7-8.3-8.3v0c0-4.6,3.7-8.3,8.3-8.3h0c4.6,0,8.3,3.7,8.3,8.3v0
	C242.4,104.1,238.6,107.8,234.1,107.8z"/>
<path class="st1" d="M256.6,107.8L256.6,107.8c-4.6,0-8.3-3.7-8.3-8.3v0c0-4.6,3.7-8.3,8.3-8.3h0c4.6,0,8.3,3.7,8.3,8.3v0
	C264.9,104.1,261.2,107.8,256.6,107.8z"/>
<path class="st1" d="M279.2,107.8L279.2,107.8c-4.6,0-8.3-3.7-8.3-8.3v0c0-4.6,3.7-8.3,8.3-8.3l0,0c4.6,0,8.3,3.7,8.3,8.3v0
	C287.5,104.1,283.8,107.8,279.2,107.8z"/>
<path class="st1" d="M301.8,107.8L301.8,107.8c-4.6,0-8.3-3.7-8.3-8.3v0c0-4.6,3.7-8.3,8.3-8.3l0,0c4.6,0,8.3,3.7,8.3,8.3v0
	C310.1,104.1,306.3,107.8,301.8,107.8z"/>
<path class="st1" d="M324.3,107.8L324.3,107.8c-4.6,0-8.3-3.7-8.3-8.3v0c0-4.6,3.7-8.3,8.3-8.3l0,0c4.6,0,8.3,3.7,8.3,8.3v0
	C332.6,104.1,328.9,107.8,324.3,107.8z"/>
<path class="st1" d="M346.9,107.8L346.9,107.8c-4.6,0-8.3-3.7-8.3-8.3v0c0-4.6,3.7-8.3,8.3-8.3h0c4.6,0,8.3,3.7,8.3,8.3v0
	C355.2,104.1,351.5,107.8,346.9,107.8z"/>
<path class="st1" d="M369.5,107.8L369.5,107.8c-4.6,0-8.3-3.7-8.3-8.3v0c0-4.6,3.7-8.3,8.3-8.3h0c4.6,0,8.3,3.7,8.3,8.3v0
	C377.8,104.1,374,107.8,369.5,107.8z"/>
<path class="st1" d="M166.4,85.2L166.4,85.2c-4.6,0-8.3-3.7-8.3-8.3v0c0-4.6,3.7-8.3,8.3-8.3h0c4.6,0,8.3,3.7,8.3,8.3v0
	C174.6,81.5,170.9,85.2,166.4,85.2z"/>
<path class="st1" d="M188.9,85.2L188.9,85.2c-4.6,0-8.3-3.7-8.3-8.3v0c0-4.6,3.7-8.3,8.3-8.3h0c4.6,0,8.3,3.7,8.3,8.3v0
	C197.2,81.5,193.5,85.2,188.9,85.2z"/>
<path class="st1" d="M211.5,85.2L211.5,85.2c-4.6,0-8.3-3.7-8.3-8.3v0c0-4.6,3.7-8.3,8.3-8.3h0c4.6,0,8.3,3.7,8.3,8.3v0
	C219.8,81.5,216.1,85.2,211.5,85.2z"/>
<path class="st1" d="M234.1,85.2L234.1,85.2c-4.6,0-8.3-3.7-8.3-8.3v0c0-4.6,3.7-8.3,8.3-8.3h0c4.6,0,8.3,3.7,8.3,8.3v0
	C242.4,81.5,238.6,85.2,234.1,85.2z"/>
<path class="st1" d="M256.6,85.2L256.6,85.2c-4.6,0-8.3-3.7-8.3-8.3v0c0-4.6,3.7-8.3,8.3-8.3h0c4.6,0,8.3,3.7,8.3,8.3v0
	C264.9,81.5,261.2,85.2,256.6,85.2z"/>
<path class="st1" d="M279.2,85.2L279.2,85.2c-4.6,0-8.3-3.7-8.3-8.3v0c0-4.6,3.7-8.3,8.3-8.3l0,0c4.6,0,8.3,3.7,8.3,8.3v0
	C287.5,81.5,283.8,85.2,279.2,85.2z"/>
<path class="st1" d="M301.8,85.2L301.8,85.2c-4.6,0-8.3-3.7-8.3-8.3v0c0-4.6,3.7-8.3,8.3-8.3l0,0c4.6,0,8.3,3.7,8.3,8.3v0
	C310.1,81.5,306.3,85.2,301.8,85.2z"/>
<path class="st1" d="M324.3,85.2L324.3,85.2c-4.6,0-8.3-3.7-8.3-8.3v0c0-4.6,3.7-8.3,8.3-8.3l0,0c4.6,0,8.3,3.7,8.3,8.3v0
	C332.6,81.5,328.9,85.2,324.3,85.2z"/>
<path class="st1" d="M346.9,85.2L346.9,85.2c-4.6,0-8.3-3.7-8.3-8.3v0c0-4.6,3.7-8.3,8.3-8.3h0c4.6,0,8.3,3.7,8.3,8.3v0
	C355.2,81.5,351.5,85.2,346.9,85.2z"/>
<path class="st1" d="M369.5,85.2L369.5,85.2c-4.6,0-8.3-3.7-8.3-8.3v0c0-4.6,3.7-8.3,8.3-8.3h0c4.6,0,8.3,3.7,8.3,8.3v0
	C377.8,81.5,374,85.2,369.5,85.2z"/>
<path class="st1" d="M392.1,85.2L392.1,85.2c-4.6,0-8.3-3.7-8.3-8.3v0c0-4.6,3.7-8.3,8.3-8.3l0,0c4.6,0,8.3,3.7,8.3,8.3v0
	C400.3,81.5,396.6,85.2,392.1,85.2z"/>
<path class="st1" d="M166.4,153L166.4,153c-4.6,0-8.3-3.7-8.3-8.3v0c0-4.6,3.7-8.3,8.3-8.3h0c4.6,0,8.3,3.7,8.3,8.3v0
	C174.7,149.2,170.9,153,166.4,153z"/>
<path class="st1" d="M189,153L189,153c-4.6,0-8.3-3.7-8.3-8.3v0c0-4.6,3.7-8.3,8.3-8.3h0c4.6,0,8.3,3.7,8.3,8.3v0
	C197.2,149.2,193.5,153,189,153z"/>
<path class="st1" d="M211.5,153L211.5,153c-4.6,0-8.3-3.7-8.3-8.3v0c0-4.6,3.7-8.3,8.3-8.3h0c4.6,0,8.3,3.7,8.3,8.3v0
	C219.8,149.2,216.1,153,211.5,153z"/>
<path class="st1" d="M234.1,153L234.1,153c-4.6,0-8.3-3.7-8.3-8.3v0c0-4.6,3.7-8.3,8.3-8.3h0c4.6,0,8.3,3.7,8.3,8.3v0
	C242.4,149.2,238.6,153,234.1,153z"/>
<path class="st1" d="M256.7,153L256.7,153c-4.6,0-8.3-3.7-8.3-8.3v0c0-4.6,3.7-8.3,8.3-8.3l0,0c4.6,0,8.3,3.7,8.3,8.3v0
	C264.9,149.2,261.2,153,256.7,153z"/>
<path class="st1" d="M279.2,153L279.2,153c-4.6,0-8.3-3.7-8.3-8.3v0c0-4.6,3.7-8.3,8.3-8.3l0,0c4.6,0,8.3,3.7,8.3,8.3v0
	C287.5,149.2,283.8,153,279.2,153z"/>
<path class="st1" d="M301.8,153L301.8,153c-4.6,0-8.3-3.7-8.3-8.3v0c0-4.6,3.7-8.3,8.3-8.3h0c4.6,0,8.3,3.7,8.3,8.3v0
	C310.1,149.2,306.4,153,301.8,153z"/>
<path class="st1" d="M324.4,153L324.4,153c-4.6,0-8.3-3.7-8.3-8.3v0c0-4.6,3.7-8.3,8.3-8.3h0c4.6,0,8.3,3.7,8.3,8.3v0
	C332.7,149.2,328.9,153,324.4,153z"/>
<path class="st1" d="M346.9,153L346.9,153c-4.6,0-8.3-3.7-8.3-8.3v0c0-4.6,3.7-8.3,8.3-8.3l0,0c4.6,0,8.3,3.7,8.3,8.3v0
	C355.2,149.2,351.5,153,346.9,153z"/>
<path class="st1" d="M369.5,153L369.5,153c-4.6,0-8.3-3.7-8.3-8.3v0c0-4.6,3.7-8.3,8.3-8.3l0,0c4.6,0,8.3,3.7,8.3,8.3v0
	C377.8,149.2,374.1,153,369.5,153z"/>
<path class="st1" d="M256.6,333.6L256.6,333.6c-4.6,0-8.3-3.7-8.3-8.3v0c0-4.6,3.7-8.3,8.3-8.3l0,0c4.6,0,8.3,3.7,8.3,8.3v0
	C264.8,329.8,261.1,333.6,256.6,333.6z"/>
<path class="st1" d="M279.1,333.6L279.1,333.6c-4.6,0-8.3-3.7-8.3-8.3v0c0-4.6,3.7-8.3,8.3-8.3h0c4.6,0,8.3,3.7,8.3,8.3v0
	C287.4,329.8,283.7,333.6,279.1,333.6z"/>
<path class="st1" d="M301.7,333.6L301.7,333.6c-4.6,0-8.3-3.7-8.3-8.3v0c0-4.6,3.7-8.3,8.3-8.3h0c4.6,0,8.3,3.7,8.3,8.3v0
	C310,329.8,306.3,333.6,301.7,333.6z"/>
<path class="st1" d="M279.1,356.1L279.1,356.1c-4.6,0-8.3-3.7-8.3-8.3l0,0c0-4.6,3.7-8.3,8.3-8.3h0c4.6,0,8.3,3.7,8.3,8.3l0,0
	C287.4,352.4,283.7,356.1,279.1,356.1z"/>
<path class="st1" d="M301.7,356.1L301.7,356.1c-4.6,0-8.3-3.7-8.3-8.3l0,0c0-4.6,3.7-8.3,8.3-8.3h0c4.6,0,8.3,3.7,8.3,8.3l0,0
	C310,352.4,306.3,356.1,301.7,356.1z"/>
<path class="st1" d="M279.1,378.7L279.1,378.7c-4.6,0-8.3-3.7-8.3-8.3v0c0-4.6,3.7-8.3,8.3-8.3h0c4.6,0,8.3,3.7,8.3,8.3v0
	C287.4,375,283.7,378.7,279.1,378.7z"/>
<path class="st1" d="M279.5,401.3L279.5,401.3c-4.6,0-8.3-3.7-8.3-8.3l0,0c0-4.6,3.7-8.3,8.3-8.3h0c4.6,0,8.3,3.7,8.3,8.3l0,0
	C287.7,397.6,284,401.3,279.5,401.3z"/>
<path class="st1" d="M256.7,446.5L256.7,446.5c-4.6,0-8.3-3.7-8.3-8.3v0c0-4.6,3.7-8.3,8.3-8.3l0,0c4.6,0,8.3,3.7,8.3,8.3v0
	C264.9,442.8,261.2,446.5,256.7,446.5z"/>
<path class="st1" d="M279.2,446.5L279.2,446.5c-4.6,0-8.3-3.7-8.3-8.3v0c0-4.6,3.7-8.3,8.3-8.3l0,0c4.6,0,8.3,3.7,8.3,8.3v0
	C287.5,442.8,283.8,446.5,279.2,446.5z"/>
<path class="st1" d="M166.4,130.4L166.4,130.4c-4.6,0-8.3-3.7-8.3-8.3v0c0-4.6,3.7-8.3,8.3-8.3h0c4.6,0,8.3,3.7,8.3,8.3v0
	C174.7,126.7,170.9,130.4,166.4,130.4z"/>
<path class="st1" d="M189,130.4L189,130.4c-4.6,0-8.3-3.7-8.3-8.3v0c0-4.6,3.7-8.3,8.3-8.3h0c4.6,0,8.3,3.7,8.3,8.3v0
	C197.2,126.7,193.5,130.4,189,130.4z"/>
<path class="st1" d="M211.5,130.4L211.5,130.4c-4.6,0-8.3-3.7-8.3-8.3v0c0-4.6,3.7-8.3,8.3-8.3h0c4.6,0,8.3,3.7,8.3,8.3v0
	C219.8,126.7,216.1,130.4,211.5,130.4z"/>
<path class="st1" d="M234.1,130.4L234.1,130.4c-4.6,0-8.3-3.7-8.3-8.3v0c0-4.6,3.7-8.3,8.3-8.3h0c4.6,0,8.3,3.7,8.3,8.3v0
	C242.4,126.7,238.6,130.4,234.1,130.4z"/>
<path class="st1" d="M256.7,130.4L256.7,130.4c-4.6,0-8.3-3.7-8.3-8.3v0c0-4.6,3.7-8.3,8.3-8.3l0,0c4.6,0,8.3,3.7,8.3,8.3v0
	C264.9,126.7,261.2,130.4,256.7,130.4z"/>
<path class="st1" d="M279.2,130.4L279.2,130.4c-4.6,0-8.3-3.7-8.3-8.3v0c0-4.6,3.7-8.3,8.3-8.3l0,0c4.6,0,8.3,3.7,8.3,8.3v0
	C287.5,126.7,283.8,130.4,279.2,130.4z"/>
<path class="st1" d="M301.8,130.4L301.8,130.4c-4.6,0-8.3-3.7-8.3-8.3v0c0-4.6,3.7-8.3,8.3-8.3h0c4.6,0,8.3,3.7,8.3,8.3v0
	C310.1,126.7,306.4,130.4,301.8,130.4z"/>
<path class="st1" d="M324.4,130.4L324.4,130.4c-4.6,0-8.3-3.7-8.3-8.3v0c0-4.6,3.7-8.3,8.3-8.3h0c4.6,0,8.3,3.7,8.3,8.3v0
	C332.7,126.7,328.9,130.4,324.4,130.4z"/>
<path class="st1" d="M346.9,130.4L346.9,130.4c-4.6,0-8.3-3.7-8.3-8.3v0c0-4.6,3.7-8.3,8.3-8.3l0,0c4.6,0,8.3,3.7,8.3,8.3v0
	C355.2,126.7,351.5,130.4,346.9,130.4z"/>
<path class="st1" d="M369.5,130.4L369.5,130.4c-4.6,0-8.3-3.7-8.3-8.3v0c0-4.6,3.7-8.3,8.3-8.3l0,0c4.6,0,8.3,3.7,8.3,8.3v0
	C377.8,126.7,374.1,130.4,369.5,130.4z"/>
<path class="st1" d="M166.4,175.5L166.4,175.5c-4.6,0-8.3-3.7-8.3-8.3v0c0-4.6,3.7-8.3,8.3-8.3h0c4.6,0,8.3,3.7,8.3,8.3v0
	C174.7,171.8,171,175.5,166.4,175.5z"/>
<path class="st1" d="M189,175.5L189,175.5c-4.6,0-8.3-3.7-8.3-8.3v0c0-4.6,3.7-8.3,8.3-8.3h0c4.6,0,8.3,3.7,8.3,8.3v0
	C197.3,171.8,193.5,175.5,189,175.5z"/>
<path class="st1" d="M211.5,175.5L211.5,175.5c-4.6,0-8.3-3.7-8.3-8.3v0c0-4.6,3.7-8.3,8.3-8.3h0c4.6,0,8.3,3.7,8.3,8.3v0
	C219.8,171.8,216.1,175.5,211.5,175.5z"/>
<path class="st1" d="M234.1,175.5L234.1,175.5c-4.6,0-8.3-3.7-8.3-8.3v0c0-4.6,3.7-8.3,8.3-8.3h0c4.6,0,8.3,3.7,8.3,8.3v0
	C242.4,171.8,238.7,175.5,234.1,175.5z"/>
<path class="st1" d="M256.7,175.5L256.7,175.5c-4.6,0-8.3-3.7-8.3-8.3v0c0-4.6,3.7-8.3,8.3-8.3l0,0c4.6,0,8.3,3.7,8.3,8.3v0
	C265,171.8,261.2,175.5,256.7,175.5z"/>
<path class="st1" d="M279.3,175.5L279.3,175.5c-4.6,0-8.3-3.7-8.3-8.3v0c0-4.6,3.7-8.3,8.3-8.3l0,0c4.6,0,8.3,3.7,8.3,8.3v0
	C287.5,171.8,283.8,175.5,279.3,175.5z"/>
<path class="st1" d="M301.8,175.5L301.8,175.5c-4.6,0-8.3-3.7-8.3-8.3v0c0-4.6,3.7-8.3,8.3-8.3h0c4.6,0,8.3,3.7,8.3,8.3v0
	C310.1,171.8,306.4,175.5,301.8,175.5z"/>
<path class="st1" d="M324.4,175.5L324.4,175.5c-4.6,0-8.3-3.7-8.3-8.3v0c0-4.6,3.7-8.3,8.3-8.3h0c4.6,0,8.3,3.7,8.3,8.3v0
	C332.7,171.8,328.9,175.5,324.4,175.5z"/>
<path class="st1" d="M347,175.5L347,175.5c-4.6,0-8.3-3.7-8.3-8.3v0c0-4.6,3.7-8.3,8.3-8.3l0,0c4.6,0,8.3,3.7,8.3,8.3v0
	C355.2,171.8,351.5,175.5,347,175.5z"/>
<path class="st1" d="M166.4,220.7L166.4,220.7c-4.6,0-8.3-3.7-8.3-8.3v0c0-4.6,3.7-8.3,8.3-8.3h0c4.6,0,8.3,3.7,8.3,8.3v0
	C174.7,216.9,170.9,220.7,166.4,220.7z"/>
<path class="st1" d="M188.9,220.7L188.9,220.7c-4.6,0-8.3-3.7-8.3-8.3v0c0-4.6,3.7-8.3,8.3-8.3h0c4.6,0,8.3,3.7,8.3,8.3v0
	C197.2,216.9,193.5,220.7,188.9,220.7z"/>
<path class="st1" d="M211.5,220.7L211.5,220.7c-4.6,0-8.3-3.7-8.3-8.3v0c0-4.6,3.7-8.3,8.3-8.3h0c4.6,0,8.3,3.7,8.3,8.3v0
	C219.8,216.9,216.1,220.7,211.5,220.7z"/>
<path class="st1" d="M234.1,220.7L234.1,220.7c-4.6,0-8.3-3.7-8.3-8.3v0c0-4.6,3.7-8.3,8.3-8.3h0c4.6,0,8.3,3.7,8.3,8.3v0
	C242.4,216.9,238.6,220.7,234.1,220.7z"/>
<path class="st1" d="M256.7,220.7L256.7,220.7c-4.6,0-8.3-3.7-8.3-8.3v0c0-4.6,3.7-8.3,8.3-8.3h0c4.6,0,8.3,3.7,8.3,8.3v0
	C264.9,216.9,261.2,220.7,256.7,220.7z"/>
<path class="st1" d="M279.2,220.7L279.2,220.7c-4.6,0-8.3-3.7-8.3-8.3v0c0-4.6,3.7-8.3,8.3-8.3l0,0c4.6,0,8.3,3.7,8.3,8.3v0
	C287.5,216.9,283.8,220.7,279.2,220.7z"/>
<path class="st1" d="M301.8,220.7L301.8,220.7c-4.6,0-8.3-3.7-8.3-8.3v0c0-4.6,3.7-8.3,8.3-8.3l0,0c4.6,0,8.3,3.7,8.3,8.3v0
	C310.1,216.9,306.4,220.7,301.8,220.7z"/>
<path class="st1" d="M324.4,220.7L324.4,220.7c-4.6,0-8.3-3.7-8.3-8.3v0c0-4.6,3.7-8.3,8.3-8.3h0c4.6,0,8.3,3.7,8.3,8.3v0
	C332.7,216.9,328.9,220.7,324.4,220.7z"/>
<path class="st1" d="M346.9,220.7L346.9,220.7c-4.6,0-8.3-3.7-8.3-8.3v0c0-4.6,3.7-8.3,8.3-8.3h0c4.6,0,8.3,3.7,8.3,8.3v0
	C355.2,216.9,351.5,220.7,346.9,220.7z"/>
<path class="st1" d="M166.4,198.1L166.4,198.1c-4.6,0-8.3-3.7-8.3-8.3v0c0-4.6,3.7-8.3,8.3-8.3h0c4.6,0,8.3,3.7,8.3,8.3v0
	C174.7,194.4,170.9,198.1,166.4,198.1z"/>
<path class="st1" d="M188.9,198.1L188.9,198.1c-4.6,0-8.3-3.7-8.3-8.3v0c0-4.6,3.7-8.3,8.3-8.3h0c4.6,0,8.3,3.7,8.3,8.3v0
	C197.2,194.4,193.5,198.1,188.9,198.1z"/>
<path class="st1" d="M211.5,198.1L211.5,198.1c-4.6,0-8.3-3.7-8.3-8.3v0c0-4.6,3.7-8.3,8.3-8.3h0c4.6,0,8.3,3.7,8.3,8.3v0
	C219.8,194.4,216.1,198.1,211.5,198.1z"/>
<path class="st1" d="M234.1,198.1L234.1,198.1c-4.6,0-8.3-3.7-8.3-8.3v0c0-4.6,3.7-8.3,8.3-8.3h0c4.6,0,8.3,3.7,8.3,8.3v0
	C242.4,194.4,238.6,198.1,234.1,198.1z"/>
<path class="st1" d="M256.7,198.1L256.7,198.1c-4.6,0-8.3-3.7-8.3-8.3v0c0-4.6,3.7-8.3,8.3-8.3h0c4.6,0,8.3,3.7,8.3,8.3v0
	C264.9,194.4,261.2,198.1,256.7,198.1z"/>
<path class="st1" d="M279.2,198.1L279.2,198.1c-4.6,0-8.3-3.7-8.3-8.3v0c0-4.6,3.7-8.3,8.3-8.3l0,0c4.6,0,8.3,3.7,8.3,8.3v0
	C287.5,194.4,283.8,198.1,279.2,198.1z"/>
<path class="st1" d="M301.8,198.1L301.8,198.1c-4.6,0-8.3-3.7-8.3-8.3v0c0-4.6,3.7-8.3,8.3-8.3l0,0c4.6,0,8.3,3.7,8.3,8.3v0
	C310.1,194.4,306.4,198.1,301.8,198.1z"/>
<path class="st1" d="M324.4,198.1L324.4,198.1c-4.6,0-8.3-3.7-8.3-8.3v0c0-4.6,3.7-8.3,8.3-8.3h0c4.6,0,8.3,3.7,8.3,8.3v0
	C332.7,194.4,328.9,198.1,324.4,198.1z"/>
<path class="st1" d="M346.9,198.1L346.9,198.1c-4.6,0-8.3-3.7-8.3-8.3v0c0-4.6,3.7-8.3,8.3-8.3h0c4.6,0,8.3,3.7,8.3,8.3v0
	C355.2,194.4,351.5,198.1,346.9,198.1z"/>
<path class="st1" d="M211.4,243.2L211.4,243.2c-4.6,0-8.3-3.7-8.3-8.3v0c0-4.6,3.7-8.3,8.3-8.3h0c4.6,0,8.3,3.7,8.3,8.3v0
	C219.7,239.5,216,243.2,211.4,243.2z"/>
<path class="st1" d="M234,243.2L234,243.2c-4.6,0-8.3-3.7-8.3-8.3v0c0-4.6,3.7-8.3,8.3-8.3h0c4.6,0,8.3,3.7,8.3,8.3v0
	C242.3,239.5,238.6,243.2,234,243.2z"/>
<path class="st1" d="M256.6,243.2L256.6,243.2c-4.6,0-8.3-3.7-8.3-8.3v0c0-4.6,3.7-8.3,8.3-8.3l0,0c4.6,0,8.3,3.7,8.3,8.3v0
	C264.9,239.5,261.1,243.2,256.6,243.2z"/>
<path class="st1" d="M279.1,243.2L279.1,243.2c-4.6,0-8.3-3.7-8.3-8.3v0c0-4.6,3.7-8.3,8.3-8.3h0c4.6,0,8.3,3.7,8.3,8.3v0
	C287.4,239.5,283.7,243.2,279.1,243.2z"/>
<path class="st1" d="M301.7,243.2L301.7,243.2c-4.6,0-8.3-3.7-8.3-8.3v0c0-4.6,3.7-8.3,8.3-8.3h0c4.6,0,8.3,3.7,8.3,8.3v0
	C310,239.5,306.3,243.2,301.7,243.2z"/>
<path class="st1" d="M324.3,243.2L324.3,243.2c-4.6,0-8.3-3.7-8.3-8.3v0c0-4.6,3.7-8.3,8.3-8.3l0,0c4.6,0,8.3,3.7,8.3,8.3v0
	C332.6,239.5,328.8,243.2,324.3,243.2z"/>
<path class="st1" d="M234,288.4L234,288.4c-4.6,0-8.3-3.7-8.3-8.3v0c0-4.6,3.7-8.3,8.3-8.3h0c4.6,0,8.3,3.7,8.3,8.3v0
	C242.3,284.6,238.5,288.4,234,288.4z"/>
<path class="st1" d="M256.5,288.4L256.5,288.4c-4.6,0-8.3-3.7-8.3-8.3v0c0-4.6,3.7-8.3,8.3-8.3h0c4.6,0,8.3,3.7,8.3,8.3v0
	C264.8,284.6,261.1,288.4,256.5,288.4z"/>
<path class="st1" d="M279.1,288.4L279.1,288.4c-4.6,0-8.3-3.7-8.3-8.3v0c0-4.6,3.7-8.3,8.3-8.3l0,0c4.6,0,8.3,3.7,8.3,8.3v0
	C287.4,284.6,283.7,288.4,279.1,288.4z"/>
<path class="st1" d="M301.7,288.4L301.7,288.4c-4.6,0-8.3-3.7-8.3-8.3v0c0-4.6,3.7-8.3,8.3-8.3l0,0c4.6,0,8.3,3.7,8.3,8.3v0
	C310,284.6,306.2,288.4,301.7,288.4z"/>
<path class="st1" d="M211.4,265.8L211.4,265.8c-4.6,0-8.3-3.7-8.3-8.3v0c0-4.6,3.7-8.3,8.3-8.3h0c4.6,0,8.3,3.7,8.3,8.3v0
	C219.7,262.1,216,265.8,211.4,265.8z"/>
<path class="st1" d="M234,265.8L234,265.8c-4.6,0-8.3-3.7-8.3-8.3v0c0-4.6,3.7-8.3,8.3-8.3h0c4.6,0,8.3,3.7,8.3,8.3v0
	C242.3,262.1,238.5,265.8,234,265.8z"/>
<path class="st1" d="M256.5,265.8L256.5,265.8c-4.6,0-8.3-3.7-8.3-8.3v0c0-4.6,3.7-8.3,8.3-8.3h0c4.6,0,8.3,3.7,8.3,8.3v0
	C264.8,262.1,261.1,265.8,256.5,265.8z"/>
<path class="st1" d="M279.1,265.8L279.1,265.8c-4.6,0-8.3-3.7-8.3-8.3v0c0-4.6,3.7-8.3,8.3-8.3l0,0c4.6,0,8.3,3.7,8.3,8.3v0
	C287.4,262.1,283.7,265.8,279.1,265.8z"/>
<path class="st1" d="M301.7,265.8L301.7,265.8c-4.6,0-8.3-3.7-8.3-8.3v0c0-4.6,3.7-8.3,8.3-8.3l0,0c4.6,0,8.3,3.7,8.3,8.3v0
	C310,262.1,306.2,265.8,301.7,265.8z"/>
<path class="st1" d="M324.3,265.8L324.3,265.8c-4.6,0-8.3-3.7-8.3-8.3v0c0-4.6,3.7-8.3,8.3-8.3h0c4.6,0,8.3,3.7,8.3,8.3v0
	C332.5,262.1,328.8,265.8,324.3,265.8z"/>
<path class="st1" d="M166.4,469.1L166.4,469.1c-4.6,0-8.3-3.7-8.3-8.3l0,0c0-4.6,3.7-8.3,8.3-8.3h0c4.6,0,8.3,3.7,8.3,8.3l0,0
	C174.7,465.4,171,469.1,166.4,469.1z"/>
<path class="st1" d="M189,469.1L189,469.1c-4.6,0-8.3-3.7-8.3-8.3l0,0c0-4.6,3.7-8.3,8.3-8.3h0c4.6,0,8.3,3.7,8.3,8.3l0,0
	C197.3,465.4,193.5,469.1,189,469.1z"/>
<path class="st1" d="M211.6,469.1L211.6,469.1c-4.6,0-8.3-3.7-8.3-8.3l0,0c0-4.6,3.7-8.3,8.3-8.3h0c4.6,0,8.3,3.7,8.3,8.3l0,0
	C219.8,465.4,216.1,469.1,211.6,469.1z"/>
<path class="st1" d="M234.1,469.1L234.1,469.1c-4.6,0-8.3-3.7-8.3-8.3l0,0c0-4.6,3.7-8.3,8.3-8.3h0c4.6,0,8.3,3.7,8.3,8.3l0,0
	C242.4,465.4,238.7,469.1,234.1,469.1z"/>
<path class="st1" d="M256.7,469.1L256.7,469.1c-4.6,0-8.3-3.7-8.3-8.3l0,0c0-4.6,3.7-8.3,8.3-8.3l0,0c4.6,0,8.3,3.7,8.3,8.3l0,0
	C265,465.4,261.3,469.1,256.7,469.1z"/>
<path class="st1" d="M279.3,469.1L279.3,469.1c-4.6,0-8.3-3.7-8.3-8.3l0,0c0-4.6,3.7-8.3,8.3-8.3l0,0c4.6,0,8.3,3.7,8.3,8.3l0,0
	C287.6,465.4,283.8,469.1,279.3,469.1z"/>
<path class="st1" d="M189,514.3L189,514.3c-4.6,0-8.3-3.7-8.3-8.3l0,0c0-4.6,3.7-8.3,8.3-8.3h0c4.6,0,8.3,3.7,8.3,8.3l0,0
	C197.2,510.6,193.5,514.3,189,514.3z"/>
<path class="st1" d="M211.5,514.3L211.5,514.3c-4.6,0-8.3-3.7-8.3-8.3l0,0c0-4.6,3.7-8.3,8.3-8.3h0c4.6,0,8.3,3.7,8.3,8.3l0,0
	C219.8,510.6,216.1,514.3,211.5,514.3z"/>
<path class="st1" d="M234.1,514.3L234.1,514.3c-4.6,0-8.3-3.7-8.3-8.3l0,0c0-4.6,3.7-8.3,8.3-8.3h0c4.6,0,8.3,3.7,8.3,8.3l0,0
	C242.4,510.6,238.7,514.3,234.1,514.3z"/>
<path class="st1" d="M256.7,514.3L256.7,514.3c-4.6,0-8.3-3.7-8.3-8.3l0,0c0-4.6,3.7-8.3,8.3-8.3h0c4.6,0,8.3,3.7,8.3,8.3l0,0
	C265,510.6,261.2,514.3,256.7,514.3z"/>
<path class="st1" d="M166.4,491.7L166.4,491.7c-4.6,0-8.3-3.7-8.3-8.3l0,0c0-4.6,3.7-8.3,8.3-8.3h0c4.6,0,8.3,3.7,8.3,8.3l0,0
	C174.7,488,171,491.7,166.4,491.7z"/>
<path class="st1" d="M189,491.7L189,491.7c-4.6,0-8.3-3.7-8.3-8.3l0,0c0-4.6,3.7-8.3,8.3-8.3h0c4.6,0,8.3,3.7,8.3,8.3l0,0
	C197.2,488,193.5,491.7,189,491.7z"/>
<path class="st1" d="M211.5,491.7L211.5,491.7c-4.6,0-8.3-3.7-8.3-8.3l0,0c0-4.6,3.7-8.3,8.3-8.3h0c4.6,0,8.3,3.7,8.3,8.3l0,0
	C219.8,488,216.1,491.7,211.5,491.7z"/>
<path class="st1" d="M234.1,491.7L234.1,491.7c-4.6,0-8.3-3.7-8.3-8.3l0,0c0-4.6,3.7-8.3,8.3-8.3h0c4.6,0,8.3,3.7,8.3,8.3l0,0
	C242.4,488,238.7,491.7,234.1,491.7z"/>
<path class="st1" d="M256.7,491.7L256.7,491.7c-4.6,0-8.3-3.7-8.3-8.3l0,0c0-4.6,3.7-8.3,8.3-8.3h0c4.6,0,8.3,3.7,8.3,8.3l0,0
	C265,488,261.2,491.7,256.7,491.7z"/>
<path class="st1" d="M256.7,536.9L256.7,536.9c-4.6,0-8.3-3.7-8.3-8.3l0,0c0-4.6,3.7-8.3,8.3-8.3l0,0c4.6,0,8.3,3.7,8.3,8.3l0,0
	C265,533.1,261.3,536.9,256.7,536.9z"/>
<path class="st1" d="M234,311L234,311c-4.6,0-8.3-3.7-8.3-8.3l0,0c0-4.6,3.7-8.3,8.3-8.3h0c4.6,0,8.3,3.7,8.3,8.3l0,0
	C242.3,307.3,238.5,311,234,311z"/>
<path class="st1" d="M256.5,311L256.5,311c-4.6,0-8.3-3.7-8.3-8.3l0,0c0-4.6,3.7-8.3,8.3-8.3h0c4.6,0,8.3,3.7,8.3,8.3l0,0
	C264.8,307.3,261.1,311,256.5,311z"/>
<path class="st1" d="M279.1,311L279.1,311c-4.6,0-8.3-3.7-8.3-8.3l0,0c0-4.6,3.7-8.3,8.3-8.3l0,0c4.6,0,8.3,3.7,8.3,8.3l0,0
	C287.4,307.3,283.7,311,279.1,311z"/>
<path class="st1" d="M301.7,311L301.7,311c-4.6,0-8.3-3.7-8.3-8.3l0,0c0-4.6,3.7-8.3,8.3-8.3l0,0c4.6,0,8.3,3.7,8.3,8.3l0,0
	C310,307.3,306.2,311,301.7,311z"/>
<path class="st1" d="M166.4,62.6L166.4,62.6c-4.6,0-8.3-3.7-8.3-8.3v0c0-4.6,3.7-8.3,8.3-8.3h0c4.6,0,8.3,3.7,8.3,8.3v0
	C174.6,58.9,170.9,62.6,166.4,62.6z"/>
<path class="st1" d="M188.9,62.6L188.9,62.6c-4.6,0-8.3-3.7-8.3-8.3v0c0-4.6,3.7-8.3,8.3-8.3h0c4.6,0,8.3,3.7,8.3,8.3v0
	C197.2,58.9,193.5,62.6,188.9,62.6z"/>
<path class="st1" d="M211.5,62.6L211.5,62.6c-4.6,0-8.3-3.7-8.3-8.3v0c0-4.6,3.7-8.3,8.3-8.3h0c4.6,0,8.3,3.7,8.3,8.3v0
	C219.8,58.9,216.1,62.6,211.5,62.6z"/>
<path class="st1" d="M234.1,62.6L234.1,62.6c-4.6,0-8.3-3.7-8.3-8.3v0c0-4.6,3.7-8.3,8.3-8.3h0c4.6,0,8.3,3.7,8.3,8.3v0
	C242.4,58.9,238.6,62.6,234.1,62.6z"/>
<path class="st1" d="M76.3,107.8L76.3,107.8c-4.6,0-8.3-3.7-8.3-8.3v0c0-4.6,3.7-8.3,8.3-8.3h0c4.6,0,8.3,3.7,8.3,8.3v0
	C84.5,104.1,80.8,107.8,76.3,107.8z"/>
<path class="st1" d="M98.8,107.8L98.8,107.8c-4.6,0-8.3-3.7-8.3-8.3v0c0-4.6,3.7-8.3,8.3-8.3h0c4.6,0,8.3,3.7,8.3,8.3v0
	C107.1,104.1,103.4,107.8,98.8,107.8z"/>
<path class="st1" d="M121.4,107.8L121.4,107.8c-4.6,0-8.3-3.7-8.3-8.3v0c0-4.6,3.7-8.3,8.3-8.3h0c4.6,0,8.3,3.7,8.3,8.3v0
	C129.7,104.1,126,107.8,121.4,107.8z"/>
<path class="st1" d="M144,107.8L144,107.8c-4.6,0-8.3-3.7-8.3-8.3v0c0-4.6,3.7-8.3,8.3-8.3h0c4.6,0,8.3,3.7,8.3,8.3v0
	C152.3,104.1,148.5,107.8,144,107.8z"/>
<path class="st1" d="M76.3,85.2L76.3,85.2c-4.6,0-8.3-3.7-8.3-8.3v0c0-4.6,3.7-8.3,8.3-8.3h0c4.6,0,8.3,3.7,8.3,8.3v0
	C84.5,81.5,80.8,85.2,76.3,85.2z"/>
<path class="st1" d="M98.8,85.2L98.8,85.2c-4.6,0-8.3-3.7-8.3-8.3v0c0-4.6,3.7-8.3,8.3-8.3h0c4.6,0,8.3,3.7,8.3,8.3v0
	C107.1,81.5,103.4,85.2,98.8,85.2z"/>
<path class="st1" d="M121.4,85.2L121.4,85.2c-4.6,0-8.3-3.7-8.3-8.3v0c0-4.6,3.7-8.3,8.3-8.3h0c4.6,0,8.3,3.7,8.3,8.3v0
	C129.7,81.5,126,85.2,121.4,85.2z"/>
<path class="st1" d="M144,85.2L144,85.2c-4.6,0-8.3-3.7-8.3-8.3v0c0-4.6,3.7-8.3,8.3-8.3h0c4.6,0,8.3,3.7,8.3,8.3v0
	C152.3,81.5,148.5,85.2,144,85.2z"/>
<path class="st1" d="M76.3,153L76.3,153c-4.6,0-8.3-3.7-8.3-8.3v0c0-4.6,3.7-8.3,8.3-8.3h0c4.6,0,8.3,3.7,8.3,8.3v0
	C84.6,149.2,80.8,153,76.3,153z"/>
<path class="st1" d="M98.9,153L98.9,153c-4.6,0-8.3-3.7-8.3-8.3v0c0-4.6,3.7-8.3,8.3-8.3h0c4.6,0,8.3,3.7,8.3,8.3v0
	C107.1,149.2,103.4,153,98.9,153z"/>
<path class="st1" d="M121.4,153L121.4,153c-4.6,0-8.3-3.7-8.3-8.3v0c0-4.6,3.7-8.3,8.3-8.3h0c4.6,0,8.3,3.7,8.3,8.3v0
	C129.7,149.2,126,153,121.4,153z"/>
<path class="st1" d="M144,153L144,153c-4.6,0-8.3-3.7-8.3-8.3v0c0-4.6,3.7-8.3,8.3-8.3h0c4.6,0,8.3,3.7,8.3,8.3v0
	C152.3,149.2,148.5,153,144,153z"/>
<path class="st1" d="M76.3,130.4L76.3,130.4c-4.6,0-8.3-3.7-8.3-8.3v0c0-4.6,3.7-8.3,8.3-8.3h0c4.6,0,8.3,3.7,8.3,8.3v0
	C84.6,126.7,80.8,130.4,76.3,130.4z"/>
<path class="st1" d="M98.9,130.4L98.9,130.4c-4.6,0-8.3-3.7-8.3-8.3v0c0-4.6,3.7-8.3,8.3-8.3h0c4.6,0,8.3,3.7,8.3,8.3v0
	C107.1,126.7,103.4,130.4,98.9,130.4z"/>
<path class="st1" d="M121.4,130.4L121.4,130.4c-4.6,0-8.3-3.7-8.3-8.3v0c0-4.6,3.7-8.3,8.3-8.3h0c4.6,0,8.3,3.7,8.3,8.3v0
	C129.7,126.7,126,130.4,121.4,130.4z"/>
<path class="st1" d="M144,130.4L144,130.4c-4.6,0-8.3-3.7-8.3-8.3v0c0-4.6,3.7-8.3,8.3-8.3h0c4.6,0,8.3,3.7,8.3,8.3v0
	C152.3,126.7,148.5,130.4,144,130.4z"/>
<path class="st1" d="M98.9,175.5L98.9,175.5c-4.6,0-8.3-3.7-8.3-8.3v0c0-4.6,3.7-8.3,8.3-8.3h0c4.6,0,8.3,3.7,8.3,8.3v0
	C107.2,171.8,103.4,175.5,98.9,175.5z"/>
<path class="st1" d="M121.4,175.5L121.4,175.5c-4.6,0-8.3-3.7-8.3-8.3v0c0-4.6,3.7-8.3,8.3-8.3h0c4.6,0,8.3,3.7,8.3,8.3v0
	C129.7,171.8,126,175.5,121.4,175.5z"/>
<path class="st1" d="M144,175.5L144,175.5c-4.6,0-8.3-3.7-8.3-8.3v0c0-4.6,3.7-8.3,8.3-8.3h0c4.6,0,8.3,3.7,8.3,8.3v0
	C152.3,171.8,148.6,175.5,144,175.5z"/>
<path class="st1" d="M121.4,220.7L121.4,220.7c-4.6,0-8.3-3.7-8.3-8.3v0c0-4.6,3.7-8.3,8.3-8.3h0c4.6,0,8.3,3.7,8.3,8.3v0
	C129.7,216.9,126,220.7,121.4,220.7z"/>
<path class="st1" d="M144,220.7L144,220.7c-4.6,0-8.3-3.7-8.3-8.3v0c0-4.6,3.7-8.3,8.3-8.3h0c4.6,0,8.3,3.7,8.3,8.3v0
	C152.3,216.9,148.5,220.7,144,220.7z"/>
<path class="st1" d="M121.4,198.1L121.4,198.1c-4.6,0-8.3-3.7-8.3-8.3v0c0-4.6,3.7-8.3,8.3-8.3h0c4.6,0,8.3,3.7,8.3,8.3v0
	C129.7,194.4,126,198.1,121.4,198.1z"/>
<path class="st1" d="M144,198.1L144,198.1c-4.6,0-8.3-3.7-8.3-8.3v0c0-4.6,3.7-8.3,8.3-8.3h0c4.6,0,8.3,3.7,8.3,8.3v0
	C152.3,194.4,148.5,198.1,144,198.1z"/>
<path class="st1" d="M76.3,469.1L76.3,469.1c-4.6,0-8.3-3.7-8.3-8.3l0,0c0-4.6,3.7-8.3,8.3-8.3h0c4.6,0,8.3,3.7,8.3,8.3l0,0
	C84.6,465.4,80.9,469.1,76.3,469.1z"/>
<path class="st1" d="M98.9,469.1L98.9,469.1c-4.6,0-8.3-3.7-8.3-8.3l0,0c0-4.6,3.7-8.3,8.3-8.3h0c4.6,0,8.3,3.7,8.3,8.3l0,0
	C107.2,465.4,103.4,469.1,98.9,469.1z"/>
<path class="st1" d="M121.5,469.1L121.5,469.1c-4.6,0-8.3-3.7-8.3-8.3l0,0c0-4.6,3.7-8.3,8.3-8.3h0c4.6,0,8.3,3.7,8.3,8.3l0,0
	C129.7,465.4,126,469.1,121.5,469.1z"/>
<path class="st1" d="M8.3,469.1L8.3,469.1c-4.6,0-8.3-3.7-8.3-8.3l0,0c0-4.6,3.7-8.3,8.3-8.3h0c4.6,0,8.3,3.7,8.3,8.3l0,0
	C16.6,465.4,12.8,469.1,8.3,469.1z"/>
<path class="st1" d="M30.9,469.1L30.9,469.1c-4.6,0-8.3-3.7-8.3-8.3l0,0c0-4.6,3.7-8.3,8.3-8.3h0c4.6,0,8.3,3.7,8.3,8.3l0,0
	C39.1,465.4,35.4,469.1,30.9,469.1z"/>
<path class="st1" d="M53.4,469.1L53.4,469.1c-4.6,0-8.3-3.7-8.3-8.3l0,0c0-4.6,3.7-8.3,8.3-8.3h0c4.6,0,8.3,3.7,8.3,8.3l0,0
	C61.7,465.4,58,469.1,53.4,469.1z"/>
<path class="st1" d="M76.3,491.8L76.3,491.8c-4.6,0-8.3-3.7-8.3-8.3v0c0-4.6,3.7-8.3,8.3-8.3h0c4.6,0,8.3,3.7,8.3,8.3v0
	C84.6,488,80.9,491.8,76.3,491.8z"/>
<path class="st1" d="M98.9,491.8L98.9,491.8c-4.6,0-8.3-3.7-8.3-8.3v0c0-4.6,3.7-8.3,8.3-8.3h0c4.6,0,8.3,3.7,8.3,8.3v0
	C107.2,488,103.4,491.8,98.9,491.8z"/>
<path class="st1" d="M8.3,491.8L8.3,491.8c-4.6,0-8.3-3.7-8.3-8.3v0c0-4.6,3.7-8.3,8.3-8.3h0c4.6,0,8.3,3.7,8.3,8.3v0
	C16.6,488,12.8,491.8,8.3,491.8z"/>
<path class="st1" d="M30.9,491.8L30.9,491.8c-4.6,0-8.3-3.7-8.3-8.3v0c0-4.6,3.7-8.3,8.3-8.3h0c4.6,0,8.3,3.7,8.3,8.3v0
	C39.1,488,35.4,491.8,30.9,491.8z"/>
<path class="st1" d="M53.4,491.8L53.4,491.8c-4.6,0-8.3-3.7-8.3-8.3v0c0-4.6,3.7-8.3,8.3-8.3h0c4.6,0,8.3,3.7,8.3,8.3v0
	C61.7,488,58,491.8,53.4,491.8z"/>
<path class="st1" d="M76.3,514.3L76.3,514.3c-4.6,0-8.3-3.7-8.3-8.3l0,0c0-4.6,3.7-8.3,8.3-8.3h0c4.6,0,8.3,3.7,8.3,8.3l0,0
	C84.6,510.6,80.9,514.3,76.3,514.3z"/>
<path class="st1" d="M98.9,514.3L98.9,514.3c-4.6,0-8.3-3.7-8.3-8.3l0,0c0-4.6,3.7-8.3,8.3-8.3h0c4.6,0,8.3,3.7,8.3,8.3l0,0
	C107.2,510.6,103.4,514.3,98.9,514.3z"/>
<path class="st1" d="M8.3,514.3L8.3,514.3c-4.6,0-8.3-3.7-8.3-8.3l0,0c0-4.6,3.7-8.3,8.3-8.3h0c4.6,0,8.3,3.7,8.3,8.3l0,0
	C16.6,510.6,12.8,514.3,8.3,514.3z"/>
<path class="st1" d="M30.9,514.3L30.9,514.3c-4.6,0-8.3-3.7-8.3-8.3l0,0c0-4.6,3.7-8.3,8.3-8.3h0c4.6,0,8.3,3.7,8.3,8.3l0,0
	C39.1,510.6,35.4,514.3,30.9,514.3z"/>
<path class="st1" d="M53.4,514.3L53.4,514.3c-4.6,0-8.3-3.7-8.3-8.3l0,0c0-4.6,3.7-8.3,8.3-8.3h0c4.6,0,8.3,3.7,8.3,8.3l0,0
	C61.7,510.6,58,514.3,53.4,514.3z"/>
<path class="st1" d="M145.1,514.3L145.1,514.3c-4.6,0-8.3-3.7-8.3-8.3l0,0c0-4.6,3.7-8.3,8.3-8.3h0c4.6,0,8.3,3.7,8.3,8.3l0,0
	C153.4,510.6,149.6,514.3,145.1,514.3z"/>
<path class="st1" d="M167.6,514.3L167.6,514.3c-4.6,0-8.3-3.7-8.3-8.3l0,0c0-4.6,3.7-8.3,8.3-8.3h0c4.6,0,8.3,3.7,8.3,8.3l0,0
	C175.9,510.6,172.2,514.3,167.6,514.3z"/>
<path class="st1" d="M121.4,514.3L121.4,514.3c-4.6,0-8.3-3.7-8.3-8.3l0,0c0-4.6,3.7-8.3,8.3-8.3h0c4.6,0,8.3,3.7,8.3,8.3l0,0
	C129.7,510.6,126,514.3,121.4,514.3z"/>
<path class="st1" d="M76.3,536.9L76.3,536.9c-4.6,0-8.3-3.7-8.3-8.3v0c0-4.6,3.7-8.3,8.3-8.3h0c4.6,0,8.3,3.7,8.3,8.3v0
	C84.6,533.2,80.9,536.9,76.3,536.9z"/>
<path class="st1" d="M98.9,536.9L98.9,536.9c-4.6,0-8.3-3.7-8.3-8.3v0c0-4.6,3.7-8.3,8.3-8.3h0c4.6,0,8.3,3.7,8.3,8.3v0
	C107.2,533.2,103.4,536.9,98.9,536.9z"/>
<path class="st1" d="M8.3,536.9L8.3,536.9c-4.6,0-8.3-3.7-8.3-8.3v0c0-4.6,3.7-8.3,8.3-8.3h0c4.6,0,8.3,3.7,8.3,8.3v0
	C16.6,533.2,12.8,536.9,8.3,536.9z"/>
<path class="st1" d="M30.9,536.9L30.9,536.9c-4.6,0-8.3-3.7-8.3-8.3v0c0-4.6,3.7-8.3,8.3-8.3h0c4.6,0,8.3,3.7,8.3,8.3v0
	C39.1,533.2,35.4,536.9,30.9,536.9z"/>
<path class="st1" d="M53.4,536.9L53.4,536.9c-4.6,0-8.3-3.7-8.3-8.3v0c0-4.6,3.7-8.3,8.3-8.3h0c4.6,0,8.3,3.7,8.3,8.3v0
	C61.7,533.2,58,536.9,53.4,536.9z"/>
<path class="st1" d="M145.1,536.9L145.1,536.9c-4.6,0-8.3-3.7-8.3-8.3v0c0-4.6,3.7-8.3,8.3-8.3h0c4.6,0,8.3,3.7,8.3,8.3v0
	C153.4,533.2,149.6,536.9,145.1,536.9z"/>
<path class="st1" d="M167.6,536.9L167.6,536.9c-4.6,0-8.3-3.7-8.3-8.3v0c0-4.6,3.7-8.3,8.3-8.3h0c4.6,0,8.3,3.7,8.3,8.3v0
	C175.9,533.2,172.2,536.9,167.6,536.9z"/>
<path class="st1" d="M121.4,536.9L121.4,536.9c-4.6,0-8.3-3.7-8.3-8.3v0c0-4.6,3.7-8.3,8.3-8.3h0c4.6,0,8.3,3.7,8.3,8.3v0
	C129.7,533.2,126,536.9,121.4,536.9z"/>
<path class="st1" d="M76.3,559.5L76.3,559.5c-4.6,0-8.3-3.7-8.3-8.3v0c0-4.6,3.7-8.3,8.3-8.3h0c4.6,0,8.3,3.7,8.3,8.3v0
	C84.6,555.8,80.9,559.5,76.3,559.5z"/>
<path class="st1" d="M98.9,559.5L98.9,559.5c-4.6,0-8.3-3.7-8.3-8.3v0c0-4.6,3.7-8.3,8.3-8.3h0c4.6,0,8.3,3.7,8.3,8.3v0
	C107.2,555.8,103.4,559.5,98.9,559.5z"/>
<path class="st1" d="M8.3,559.5L8.3,559.5c-4.6,0-8.3-3.7-8.3-8.3l0,0c0-4.6,3.7-8.3,8.3-8.3h0c4.6,0,8.3,3.7,8.3,8.3l0,0
	C16.6,555.8,12.8,559.5,8.3,559.5z"/>
<path class="st1" d="M30.9,559.5L30.9,559.5c-4.6,0-8.3-3.7-8.3-8.3v0c0-4.6,3.7-8.3,8.3-8.3h0c4.6,0,8.3,3.7,8.3,8.3v0
	C39.1,555.8,35.4,559.5,30.9,559.5z"/>
<path class="st1" d="M53.4,559.5L53.4,559.5c-4.6,0-8.3-3.7-8.3-8.3v0c0-4.6,3.7-8.3,8.3-8.3h0c4.6,0,8.3,3.7,8.3,8.3v0
	C61.7,555.8,58,559.5,53.4,559.5z"/>
<path class="st1" d="M145.1,559.5L145.1,559.5c-4.6,0-8.3-3.7-8.3-8.3v0c0-4.6,3.7-8.3,8.3-8.3h0c4.6,0,8.3,3.7,8.3,8.3v0
	C153.4,555.8,149.6,559.5,145.1,559.5z"/>
<path class="st1" d="M167.6,559.5L167.6,559.5c-4.6,0-8.3-3.7-8.3-8.3v0c0-4.6,3.7-8.3,8.3-8.3h0c4.6,0,8.3,3.7,8.3,8.3v0
	C175.9,555.8,172.2,559.5,167.6,559.5z"/>
<path class="st1" d="M121.4,559.5L121.4,559.5c-4.6,0-8.3-3.7-8.3-8.3v0c0-4.6,3.7-8.3,8.3-8.3h0c4.6,0,8.3,3.7,8.3,8.3v0
	C129.7,555.8,126,559.5,121.4,559.5z"/>
<path class="st1" d="M211.6,536.9L211.6,536.9c-4.6,0-8.3-3.7-8.3-8.3v0c0-4.6,3.7-8.3,8.3-8.3h0c4.6,0,8.3,3.7,8.3,8.3v0
	C219.9,533.2,216.2,536.9,211.6,536.9z"/>
<path class="st1" d="M234.2,536.9L234.2,536.9c-4.6,0-8.3-3.7-8.3-8.3v0c0-4.6,3.7-8.3,8.3-8.3h0c4.6,0,8.3,3.7,8.3,8.3v0
	C242.5,533.2,238.8,536.9,234.2,536.9z"/>
<path class="st1" d="M189,536.9L189,536.9c-4.6,0-8.3-3.7-8.3-8.3v0c0-4.6,3.7-8.3,8.3-8.3h0c4.6,0,8.3,3.7,8.3,8.3v0
	C197.3,533.2,193.6,536.9,189,536.9z"/>
<path class="st1" d="M256.7,558.5L256.7,558.5c-4.6,0-8.3-3.7-8.3-8.3l0,0c0-4.6,3.7-8.3,8.3-8.3l0,0c4.6,0,8.3,3.7,8.3,8.3l0,0
	C265,554.7,261.3,558.5,256.7,558.5z"/>
<path class="st1" d="M211.6,558.5L211.6,558.5c-4.6,0-8.3-3.7-8.3-8.3l0,0c0-4.6,3.7-8.3,8.3-8.3h0c4.6,0,8.3,3.7,8.3,8.3l0,0
	C219.9,554.8,216.2,558.5,211.6,558.5z"/>
<path class="st1" d="M234.2,558.5L234.2,558.5c-4.6,0-8.3-3.7-8.3-8.3l0,0c0-4.6,3.7-8.3,8.3-8.3h0c4.6,0,8.3,3.7,8.3,8.3l0,0
	C242.5,554.8,238.8,558.5,234.2,558.5z"/>
<path class="st1" d="M189,558.5L189,558.5c-4.6,0-8.3-3.7-8.3-8.3l0,0c0-4.6,3.7-8.3,8.3-8.3h0c4.6,0,8.3,3.7,8.3,8.3l0,0
	C197.3,554.8,193.6,558.5,189,558.5z"/>
<path class="st1" d="M98.8,582.2L98.8,582.2c-4.6,0-8.3-3.7-8.3-8.3v0c0-4.6,3.7-8.3,8.3-8.3h0c4.6,0,8.3,3.7,8.3,8.3v0
	C107.1,578.5,103.3,582.2,98.8,582.2z"/>
<path class="st1" d="M121.4,582.2L121.4,582.2c-4.6,0-8.3-3.7-8.3-8.3v0c0-4.6,3.7-8.3,8.3-8.3h0c4.6,0,8.3,3.7,8.3,8.3v0
	C129.6,578.5,125.9,582.2,121.4,582.2z"/>
<path class="st1" d="M30.8,582.2L30.8,582.2c-4.6,0-8.3-3.7-8.3-8.3v0c0-4.6,3.7-8.3,8.3-8.3h0c4.6,0,8.3,3.7,8.3,8.3v0
	C39,578.5,35.3,582.2,30.8,582.2z"/>
<path class="st1" d="M53.3,582.2L53.3,582.2c-4.6,0-8.3-3.7-8.3-8.3v0c0-4.6,3.7-8.3,8.3-8.3h0c4.6,0,8.3,3.7,8.3,8.3v0
	C61.6,578.5,57.9,582.2,53.3,582.2z"/>
<path class="st1" d="M75.1,582.2L75.1,582.2c-4.6,0-8.3-3.7-8.3-8.3v0c0-4.6,3.7-8.3,8.3-8.3h0c4.6,0,8.3,3.7,8.3,8.3v0
	C83.4,578.5,79.7,582.2,75.1,582.2z"/>
<path class="st1" d="M167.5,582.2L167.5,582.2c-4.6,0-8.3-3.7-8.3-8.3v0c0-4.6,3.7-8.3,8.3-8.3h0c4.6,0,8.3,3.7,8.3,8.3v0
	C175.8,578.5,172.1,582.2,167.5,582.2z"/>
<path class="st1" d="M190.1,582.2L190.1,582.2c-4.6,0-8.3-3.7-8.3-8.3v0c0-4.6,3.7-8.3,8.3-8.3h0c4.6,0,8.3,3.7,8.3,8.3v0
	C198.4,578.5,194.7,582.2,190.1,582.2z"/>
<path class="st1" d="M143.9,582.2L143.9,582.2c-4.6,0-8.3-3.7-8.3-8.3v0c0-4.6,3.7-8.3,8.3-8.3h0c4.6,0,8.3,3.7,8.3,8.3v0
	C152.2,578.5,148.4,582.2,143.9,582.2z"/>
<path class="st1" d="M98.8,605.9L98.8,605.9c-4.6,0-8.3-3.7-8.3-8.3v0c0-4.6,3.7-8.3,8.3-8.3h0c4.6,0,8.3,3.7,8.3,8.3v0
	C107.1,602.1,103.3,605.9,98.8,605.9z"/>
<path class="st1" d="M121.4,605.9L121.4,605.9c-4.6,0-8.3-3.7-8.3-8.3v0c0-4.6,3.7-8.3,8.3-8.3h0c4.6,0,8.3,3.7,8.3,8.3v0
	C129.6,602.1,125.9,605.9,121.4,605.9z"/>
<path class="st1" d="M30.8,605.9L30.8,605.9c-4.6,0-8.3-3.7-8.3-8.3v0c0-4.6,3.7-8.3,8.3-8.3h0c4.6,0,8.3,3.7,8.3,8.3v0
	C39,602.1,35.3,605.9,30.8,605.9z"/>
<path class="st1" d="M53.3,605.9L53.3,605.9c-4.6,0-8.3-3.7-8.3-8.3v0c0-4.6,3.7-8.3,8.3-8.3h0c4.6,0,8.3,3.7,8.3,8.3v0
	C61.6,602.1,57.9,605.9,53.3,605.9z"/>
<path class="st1" d="M30.9,628.4L30.9,628.4c-4.6,0-8.3-3.7-8.3-8.3v0c0-4.6,3.7-8.3,8.3-8.3h0c4.6,0,8.3,3.7,8.3,8.3v0
	C39.1,624.7,35.4,628.4,30.9,628.4z"/>
<path class="st1" d="M30.9,651L30.9,651c-4.6,0-8.3-3.7-8.3-8.3v0c0-4.6,3.7-8.3,8.3-8.3h0c4.6,0,8.3,3.7,8.3,8.3v0
	C39.1,647.3,35.4,651,30.9,651z"/>
<path class="st1" d="M30.8,672.6L30.8,672.6c-4.6,0-8.3-3.7-8.3-8.3l0,0c0-4.6,3.7-8.3,8.3-8.3h0c4.6,0,8.3,3.7,8.3,8.3l0,0
	C39,668.9,35.3,672.6,30.8,672.6z"/>
<path class="st1" d="M30.8,695.2L30.8,695.2c-4.6,0-8.3-3.7-8.3-8.3l0,0c0-4.6,3.7-8.3,8.3-8.3h0c4.6,0,8.3,3.7,8.3,8.3l0,0
	C39,691.5,35.3,695.2,30.8,695.2z"/>
<path class="st1" d="M75.1,605.9L75.1,605.9c-4.6,0-8.3-3.7-8.3-8.3v0c0-4.6,3.7-8.3,8.3-8.3h0c4.6,0,8.3,3.7,8.3,8.3v0
	C83.4,602.1,79.7,605.9,75.1,605.9z"/>
<path class="st1" d="M167.5,605.9L167.5,605.9c-4.6,0-8.3-3.7-8.3-8.3v0c0-4.6,3.7-8.3,8.3-8.3h0c4.6,0,8.3,3.7,8.3,8.3v0
	C175.8,602.1,172.1,605.9,167.5,605.9z"/>
<path class="st1" d="M190.1,605.9L190.1,605.9c-4.6,0-8.3-3.7-8.3-8.3v0c0-4.6,3.7-8.3,8.3-8.3h0c4.6,0,8.3,3.7,8.3,8.3v0
	C198.4,602.1,194.7,605.9,190.1,605.9z"/>
<path class="st1" d="M143.9,605.9L143.9,605.9c-4.6,0-8.3-3.7-8.3-8.3v0c0-4.6,3.7-8.3,8.3-8.3h0c4.6,0,8.3,3.7,8.3,8.3v0
	C152.2,602.1,148.4,605.9,143.9,605.9z"/>
<path class="st1" d="M234.1,582.2L234.1,582.2c-4.6,0-8.3-3.7-8.3-8.3v0c0-4.6,3.7-8.3,8.3-8.3h0c4.6,0,8.3,3.7,8.3,8.3v0
	C242.4,578.5,238.7,582.2,234.1,582.2z"/>
<path class="st1" d="M211.5,582.2L211.5,582.2c-4.6,0-8.3-3.7-8.3-8.3v0c0-4.6,3.7-8.3,8.3-8.3h0c4.6,0,8.3,3.7,8.3,8.3v0
	C219.8,578.5,216,582.2,211.5,582.2z"/>
<path class="st1" d="M234.1,604.9L234.1,604.9c-4.6,0-8.3-3.7-8.3-8.3l0,0c0-4.6,3.7-8.3,8.3-8.3h0c4.6,0,8.3,3.7,8.3,8.3l0,0
	C242.4,601.1,238.7,604.9,234.1,604.9z"/>
<path class="st1" d="M211.5,604.9L211.5,604.9c-4.6,0-8.3-3.7-8.3-8.3l0,0c0-4.6,3.7-8.3,8.3-8.3h0c4.6,0,8.3,3.7,8.3,8.3l0,0
	C219.8,601.1,216,604.9,211.5,604.9z"/>
<path class="st1" d="M144,469.1L144,469.1c-4.6,0-8.3-3.7-8.3-8.3l0,0c0-4.6,3.7-8.3,8.3-8.3h0c4.6,0,8.3,3.7,8.3,8.3l0,0
	C152.3,465.4,148.6,469.1,144,469.1z"/>
<path class="st1" d="M121.4,491.7L121.4,491.7c-4.6,0-8.3-3.7-8.3-8.3l0,0c0-4.6,3.7-8.3,8.3-8.3h0c4.6,0,8.3,3.7,8.3,8.3l0,0
	C129.7,488,126,491.7,121.4,491.7z"/>
<path class="st1" d="M144,491.7L144,491.7c-4.6,0-8.3-3.7-8.3-8.3l0,0c0-4.6,3.7-8.3,8.3-8.3h0c4.6,0,8.3,3.7,8.3,8.3l0,0
	C152.3,488,148.6,491.7,144,491.7z"/>
<path class="st1" d="M76.3,62.6L76.3,62.6c-4.6,0-8.3-3.7-8.3-8.3v0c0-4.6,3.7-8.3,8.3-8.3h0c4.6,0,8.3,3.7,8.3,8.3v0
	C84.5,58.9,80.8,62.6,76.3,62.6z"/>
<path class="st1" d="M98.8,62.6L98.8,62.6c-4.6,0-8.3-3.7-8.3-8.3v0c0-4.6,3.7-8.3,8.3-8.3h0c4.6,0,8.3,3.7,8.3,8.3v0
	C107.1,58.9,103.4,62.6,98.8,62.6z"/>
<path class="st1" d="M53.7,107.8L53.7,107.8c-4.6,0-8.3-3.7-8.3-8.3v0c0-4.6,3.7-8.3,8.3-8.3h0c4.6,0,8.3,3.7,8.3,8.3v0
	C62,104.1,58.2,107.8,53.7,107.8z"/>
<path class="st1" d="M53.7,85.2L53.7,85.2c-4.6,0-8.3-3.7-8.3-8.3v0c0-4.6,3.7-8.3,8.3-8.3h0c4.6,0,8.3,3.7,8.3,8.3v0
	C62,81.5,58.2,85.2,53.7,85.2z"/>
<path class="st1" d="M31.1,62.6L31.1,62.6c-4.6,0-8.3-3.7-8.3-8.3v0c0-4.6,3.7-8.3,8.3-8.3h0c4.6,0,8.3,3.7,8.3,8.3v0
	C39.4,58.9,35.7,62.6,31.1,62.6z"/>
<path class="st1" d="M8.5,62.6L8.5,62.6c-4.6,0-8.3-3.7-8.3-8.3v0c0-4.6,3.7-8.3,8.3-8.3h0c4.6,0,8.3,3.7,8.3,8.3v0
	C16.8,58.9,13.1,62.6,8.5,62.6z"/>
<path class="st1" d="M31.1,85.2L31.1,85.2c-4.6,0-8.3-3.7-8.3-8.3v0c0-4.6,3.7-8.3,8.3-8.3h0c4.6,0,8.3,3.7,8.3,8.3v0
	C39.4,81.5,35.7,85.2,31.1,85.2z"/>
<path class="st1" d="M8.5,85.2L8.5,85.2c-4.6,0-8.3-3.7-8.3-8.3v0c0-4.6,3.7-8.3,8.3-8.3h0c4.6,0,8.3,3.7,8.3,8.3v0
	C16.8,81.5,13.1,85.2,8.5,85.2z"/>
<path class="st1" d="M31.1,107.8L31.1,107.8c-4.6,0-8.3-3.7-8.3-8.3v0c0-4.6,3.7-8.3,8.3-8.3h0c4.6,0,8.3,3.7,8.3,8.3v0
	C39.4,104.1,35.7,107.8,31.1,107.8z"/>
<path class="st1" d="M8.5,107.8L8.5,107.8c-4.6,0-8.3-3.7-8.3-8.3v0c0-4.6,3.7-8.3,8.3-8.3h0c4.6,0,8.3,3.7,8.3,8.3v0
	C16.8,104.1,13.1,107.8,8.5,107.8z"/>
<path class="st1" d="M31.1,130.4L31.1,130.4c-4.6,0-8.3-3.7-8.3-8.3v0c0-4.6,3.7-8.3,8.3-8.3h0c4.6,0,8.3,3.7,8.3,8.3v0
	C39.4,126.7,35.7,130.4,31.1,130.4z"/>
<path class="st1" d="M53.7,130.4L53.7,130.4c-4.6,0-8.3-3.7-8.3-8.3v0c0-4.6,3.7-8.3,8.3-8.3h0c4.6,0,8.3,3.7,8.3,8.3v0
	C62,126.7,58.2,130.4,53.7,130.4z"/>
<path class="st1" d="M8.5,130.4L8.5,130.4c-4.6,0-8.3-3.7-8.3-8.3v0c0-4.6,3.7-8.3,8.3-8.3h0c4.6,0,8.3,3.7,8.3,8.3v0
	C16.8,126.7,13.1,130.4,8.5,130.4z"/>
<path class="st1" d="M31.1,153L31.1,153c-4.6,0-8.3-3.7-8.3-8.3v0c0-4.6,3.7-8.3,8.3-8.3h0c4.6,0,8.3,3.7,8.3,8.3v0
	C39.4,149.2,35.7,153,31.1,153z"/>
<path class="st1" d="M8.5,153L8.5,153c-4.6,0-8.3-3.7-8.3-8.3v0c0-4.6,3.7-8.3,8.3-8.3h0c4.6,0,8.3,3.7,8.3,8.3v0
	C16.8,149.2,13.1,153,8.5,153z"/>
<path class="st1" d="M31.1,175.5L31.1,175.5c-4.6,0-8.3-3.7-8.3-8.3v0c0-4.6,3.7-8.3,8.3-8.3h0c4.6,0,8.3,3.7,8.3,8.3v0
	C39.4,171.8,35.7,175.5,31.1,175.5z"/>
<path class="st1" d="M53.7,153L53.7,153c-4.6,0-8.3-3.7-8.3-8.3v0c0-4.6,3.7-8.3,8.3-8.3h0c4.6,0,8.3,3.7,8.3,8.3v0
	C62,149.2,58.2,153,53.7,153z"/>
<path class="st1" d="M53.7,175.5L53.7,175.5c-4.6,0-8.3-3.7-8.3-8.3v0c0-4.6,3.7-8.3,8.3-8.3h0c4.6,0,8.3,3.7,8.3,8.3v0
	C62,171.8,58.2,175.5,53.7,175.5z"/>
<path class="st1" d="M8.5,175.5L8.5,175.5c-4.6,0-8.3-3.7-8.3-8.3v0c0-4.6,3.7-8.3,8.3-8.3h0c4.6,0,8.3,3.7,8.3,8.3v0
	C16.8,171.8,13.1,175.5,8.5,175.5z"/>
<path class="st1" d="M31.1,198.2L31.1,198.2c-4.6,0-8.3-3.7-8.3-8.3v0c0-4.6,3.7-8.3,8.3-8.3h0c4.6,0,8.3,3.7,8.3,8.3v0
	C39.4,194.4,35.7,198.2,31.1,198.2z"/>
<path class="st1" d="M53.7,198.2L53.7,198.2c-4.6,0-8.3-3.7-8.3-8.3v0c0-4.6,3.7-8.3,8.3-8.3h0c4.6,0,8.3,3.7,8.3,8.3v0
	C62,194.4,58.2,198.2,53.7,198.2z"/>
<path class="st1" d="M76.2,175.5L76.2,175.5c-4.6,0-8.3-3.7-8.3-8.3v0c0-4.6,3.7-8.3,8.3-8.3h0c4.6,0,8.3,3.7,8.3,8.3v0
	C84.5,171.8,80.8,175.5,76.2,175.5z"/>
<path class="st1" d="M76.2,198.2L76.2,198.2c-4.6,0-8.3-3.7-8.3-8.3v0c0-4.6,3.7-8.3,8.3-8.3h0c4.6,0,8.3,3.7,8.3,8.3v0
	C84.5,194.4,80.8,198.2,76.2,198.2z"/>
<path class="st1" d="M98.8,198.2L98.8,198.2c-4.6,0-8.3-3.7-8.3-8.3v0c0-4.6,3.7-8.3,8.3-8.3h0c4.6,0,8.3,3.7,8.3,8.3v0
	C107.1,194.4,103.4,198.2,98.8,198.2z"/>
<path class="st1" d="M8.5,198.2L8.5,198.2c-4.6,0-8.3-3.7-8.3-8.3v0c0-4.6,3.7-8.3,8.3-8.3h0c4.6,0,8.3,3.7,8.3,8.3v0
	C16.8,194.4,13.1,198.2,8.5,198.2z"/>
<path class="st1" d="M31.1,220.7L31.1,220.7c-4.6,0-8.3-3.7-8.3-8.3v0c0-4.6,3.7-8.3,8.3-8.3h0c4.6,0,8.3,3.7,8.3,8.3v0
	C39.4,216.9,35.7,220.7,31.1,220.7z"/>
<path class="st1" d="M53.7,220.7L53.7,220.7c-4.6,0-8.3-3.7-8.3-8.3v0c0-4.6,3.7-8.3,8.3-8.3h0c4.6,0,8.3,3.7,8.3,8.3v0
	C62,216.9,58.2,220.7,53.7,220.7z"/>
<path class="st1" d="M76.2,220.7L76.2,220.7c-4.6,0-8.3-3.7-8.3-8.3v0c0-4.6,3.7-8.3,8.3-8.3h0c4.6,0,8.3,3.7,8.3,8.3v0
	C84.5,216.9,80.8,220.7,76.2,220.7z"/>
<path class="st1" d="M98.8,220.7L98.8,220.7c-4.6,0-8.3-3.7-8.3-8.3v0c0-4.6,3.7-8.3,8.3-8.3h0c4.6,0,8.3,3.7,8.3,8.3v0
	C107.1,216.9,103.4,220.7,98.8,220.7z"/>
<path class="st1" d="M8.5,220.7L8.5,220.7c-4.6,0-8.3-3.7-8.3-8.3v0c0-4.6,3.7-8.3,8.3-8.3h0c4.6,0,8.3,3.7,8.3,8.3v0
	C16.8,216.9,13.1,220.7,8.5,220.7z"/>
<path class="st1" d="M143.9,243.2L143.9,243.2c-4.6,0-8.3-3.7-8.3-8.3v0c0-4.6,3.7-8.3,8.3-8.3h0c4.6,0,8.3,3.7,8.3,8.3v0
	C152.2,239.5,148.5,243.2,143.9,243.2z"/>
<path class="st1" d="M76.1,243.2L76.1,243.2c-4.6,0-8.3-3.7-8.3-8.3v0c0-4.6,3.7-8.3,8.3-8.3h0c4.6,0,8.3,3.7,8.3,8.3v0
	C84.4,239.5,80.7,243.2,76.1,243.2z"/>
<path class="st1" d="M98.7,243.2L98.7,243.2c-4.6,0-8.3-3.7-8.3-8.3v0c0-4.6,3.7-8.3,8.3-8.3h0c4.6,0,8.3,3.7,8.3,8.3v0
	C107,239.5,103.3,243.2,98.7,243.2z"/>
<path class="st1" d="M53.6,243.2L53.6,243.2c-4.6,0-8.3-3.7-8.3-8.3v0c0-4.6,3.7-8.3,8.3-8.3h0c4.6,0,8.3,3.7,8.3,8.3v0
	C61.8,239.5,58.1,243.2,53.6,243.2z"/>
<path class="st1" d="M76.1,265.9L76.1,265.9c-4.6,0-8.3-3.7-8.3-8.3v0c0-4.6,3.7-8.3,8.3-8.3h0c4.6,0,8.3,3.7,8.3,8.3v0
	C84.4,262.1,80.7,265.9,76.1,265.9z"/>
<path class="st1" d="M98.7,265.9L98.7,265.9c-4.6,0-8.3-3.7-8.3-8.3v0c0-4.6,3.7-8.3,8.3-8.3h0c4.6,0,8.3,3.7,8.3,8.3v0
	C107,262.1,103.3,265.9,98.7,265.9z"/>
<path class="st1" d="M121.3,243.2L121.3,243.2c-4.6,0-8.3-3.7-8.3-8.3v0c0-4.6,3.7-8.3,8.3-8.3h0c4.6,0,8.3,3.7,8.3,8.3v0
	C129.6,239.5,125.8,243.2,121.3,243.2z"/>
<path class="st1" d="M121.3,265.9L121.3,265.9c-4.6,0-8.3-3.7-8.3-8.3v0c0-4.6,3.7-8.3,8.3-8.3h0c4.6,0,8.3,3.7,8.3,8.3v0
	C129.6,262.1,125.8,265.9,121.3,265.9z"/>
<path class="st1" d="M143.9,265.9L143.9,265.9c-4.6,0-8.3-3.7-8.3-8.3v0c0-4.6,3.7-8.3,8.3-8.3h0c4.6,0,8.3,3.7,8.3,8.3v0
	C152.2,262.1,148.4,265.9,143.9,265.9z"/>
<path class="st1" d="M53.6,265.9L53.6,265.9c-4.6,0-8.3-3.7-8.3-8.3v0c0-4.6,3.7-8.3,8.3-8.3h0c4.6,0,8.3,3.7,8.3,8.3v0
	C61.8,262.1,58.1,265.9,53.6,265.9z"/>
<path class="st1" d="M76.1,288.4L76.1,288.4c-4.6,0-8.3-3.7-8.3-8.3v0c0-4.6,3.7-8.3,8.3-8.3h0c4.6,0,8.3,3.7,8.3,8.3v0
	C84.4,284.6,80.7,288.4,76.1,288.4z"/>
<path class="st1" d="M98.7,288.4L98.7,288.4c-4.6,0-8.3-3.7-8.3-8.3v0c0-4.6,3.7-8.3,8.3-8.3h0c4.6,0,8.3,3.7,8.3,8.3v0
	C107,284.6,103.3,288.4,98.7,288.4z"/>
<path class="st1" d="M121.3,288.4L121.3,288.4c-4.6,0-8.3-3.7-8.3-8.3v0c0-4.6,3.7-8.3,8.3-8.3h0c4.6,0,8.3,3.7,8.3,8.3v0
	C129.6,284.6,125.8,288.4,121.3,288.4z"/>
<path class="st1" d="M143.9,288.4L143.9,288.4c-4.6,0-8.3-3.7-8.3-8.3v0c0-4.6,3.7-8.3,8.3-8.3h0c4.6,0,8.3,3.7,8.3,8.3v0
	C152.2,284.6,148.4,288.4,143.9,288.4z"/>
<path class="st1" d="M53.6,288.4L53.6,288.4c-4.6,0-8.3-3.7-8.3-8.3v0c0-4.6,3.7-8.3,8.3-8.3h0c4.6,0,8.3,3.7,8.3,8.3v0
	C61.8,284.6,58.1,288.4,53.6,288.4z"/>
<path class="st1" d="M76.1,310.9L76.1,310.9c-4.6,0-8.3-3.7-8.3-8.3l0,0c0-4.6,3.7-8.3,8.3-8.3h0c4.6,0,8.3,3.7,8.3,8.3l0,0
	C84.4,307.2,80.7,310.9,76.1,310.9z"/>
<path class="st1" d="M98.7,310.9L98.7,310.9c-4.6,0-8.3-3.7-8.3-8.3l0,0c0-4.6,3.7-8.3,8.3-8.3h0c4.6,0,8.3,3.7,8.3,8.3l0,0
	C107,307.2,103.3,310.9,98.7,310.9z"/>
<path class="st1" d="M121.3,310.9L121.3,310.9c-4.6,0-8.3-3.7-8.3-8.3l0,0c0-4.6,3.7-8.3,8.3-8.3h0c4.6,0,8.3,3.7,8.3,8.3l0,0
	C129.6,307.2,125.8,310.9,121.3,310.9z"/>
<path class="st1" d="M143.9,310.9L143.9,310.9c-4.6,0-8.3-3.7-8.3-8.3l0,0c0-4.6,3.7-8.3,8.3-8.3h0c4.6,0,8.3,3.7,8.3,8.3l0,0
	C152.2,307.2,148.4,310.9,143.9,310.9z"/>
<path class="st1" d="M53.6,310.9L53.6,310.9c-4.6,0-8.3-3.7-8.3-8.3l0,0c0-4.6,3.7-8.3,8.3-8.3h0c4.6,0,8.3,3.7,8.3,8.3l0,0
	C61.8,307.2,58.1,310.9,53.6,310.9z"/>
<path class="st1" d="M76.1,333.4L76.1,333.4c-4.6,0-8.3-3.7-8.3-8.3l0,0c0-4.6,3.7-8.3,8.3-8.3h0c4.6,0,8.3,3.7,8.3,8.3l0,0
	C84.4,329.7,80.7,333.4,76.1,333.4z"/>
<path class="st1" d="M98.7,333.4L98.7,333.4c-4.6,0-8.3-3.7-8.3-8.3l0,0c0-4.6,3.7-8.3,8.3-8.3h0c4.6,0,8.3,3.7,8.3,8.3l0,0
	C107,329.7,103.3,333.4,98.7,333.4z"/>
<path class="st1" d="M121.3,333.4L121.3,333.4c-4.6,0-8.3-3.7-8.3-8.3l0,0c0-4.6,3.7-8.3,8.3-8.3h0c4.6,0,8.3,3.7,8.3,8.3l0,0
	C129.6,329.7,125.8,333.4,121.3,333.4z"/>
<path class="st1" d="M143.9,333.4L143.9,333.4c-4.6,0-8.3-3.7-8.3-8.3l0,0c0-4.6,3.7-8.3,8.3-8.3h0c4.6,0,8.3,3.7,8.3,8.3l0,0
	C152.2,329.7,148.4,333.4,143.9,333.4z"/>
<path class="st1" d="M53.6,333.4L53.6,333.4c-4.6,0-8.3-3.7-8.3-8.3l0,0c0-4.6,3.7-8.3,8.3-8.3h0c4.6,0,8.3,3.7,8.3,8.3l0,0
	C61.8,329.7,58.1,333.4,53.6,333.4z"/>
<path class="st1" d="M143.9,356L143.9,356c-4.6,0-8.3-3.7-8.3-8.3l0,0c0-4.6,3.7-8.3,8.3-8.3h0c4.6,0,8.3,3.7,8.3,8.3l0,0
	C152.2,352.3,148.5,356,143.9,356z"/>
<path class="st1" d="M76.1,356L76.1,356c-4.6,0-8.3-3.7-8.3-8.3v0c0-4.6,3.7-8.3,8.3-8.3h0c4.6,0,8.3,3.7,8.3,8.3v0
	C84.4,352.3,80.7,356,76.1,356z"/>
<path class="st1" d="M98.7,356L98.7,356c-4.6,0-8.3-3.7-8.3-8.3v0c0-4.6,3.7-8.3,8.3-8.3h0c4.6,0,8.3,3.7,8.3,8.3v0
	C107,352.3,103.3,356,98.7,356z"/>
<path class="st1" d="M53.6,356L53.6,356c-4.6,0-8.3-3.7-8.3-8.3v0c0-4.6,3.7-8.3,8.3-8.3h0c4.6,0,8.3,3.7,8.3,8.3v0
	C61.8,352.3,58.1,356,53.6,356z"/>
<path class="st1" d="M76.1,378.7L76.1,378.7c-4.6,0-8.3-3.7-8.3-8.3v0c0-4.6,3.7-8.3,8.3-8.3h0c4.6,0,8.3,3.7,8.3,8.3v0
	C84.4,374.9,80.7,378.7,76.1,378.7z"/>
<path class="st1" d="M98.7,378.7L98.7,378.7c-4.6,0-8.3-3.7-8.3-8.3v0c0-4.6,3.7-8.3,8.3-8.3h0c4.6,0,8.3,3.7,8.3,8.3v0
	C107,374.9,103.3,378.7,98.7,378.7z"/>
<path class="st1" d="M121.3,356L121.3,356c-4.6,0-8.3-3.7-8.3-8.3v0c0-4.6,3.7-8.3,8.3-8.3h0c4.6,0,8.3,3.7,8.3,8.3v0
	C129.6,352.3,125.8,356,121.3,356z"/>
<path class="st1" d="M121.3,378.7L121.3,378.7c-4.6,0-8.3-3.7-8.3-8.3v0c0-4.6,3.7-8.3,8.3-8.3h0c4.6,0,8.3,3.7,8.3,8.3v0
	C129.6,374.9,125.8,378.7,121.3,378.7z"/>
<path class="st1" d="M143.9,378.7L143.9,378.7c-4.6,0-8.3-3.7-8.3-8.3v0c0-4.6,3.7-8.3,8.3-8.3h0c4.6,0,8.3,3.7,8.3,8.3v0
	C152.2,374.9,148.4,378.7,143.9,378.7z"/>
<path class="st1" d="M53.6,378.7L53.6,378.7c-4.6,0-8.3-3.7-8.3-8.3v0c0-4.6,3.7-8.3,8.3-8.3h0c4.6,0,8.3,3.7,8.3,8.3v0
	C61.8,374.9,58.1,378.7,53.6,378.7z"/>
<path class="st1" d="M76.1,401.2L76.1,401.2c-4.6,0-8.3-3.7-8.3-8.3v0c0-4.6,3.7-8.3,8.3-8.3h0c4.6,0,8.3,3.7,8.3,8.3v0
	C84.4,397.4,80.7,401.2,76.1,401.2z"/>
<path class="st1" d="M98.7,401.2L98.7,401.2c-4.6,0-8.3-3.7-8.3-8.3v0c0-4.6,3.7-8.3,8.3-8.3h0c4.6,0,8.3,3.7,8.3,8.3v0
	C107,397.4,103.3,401.2,98.7,401.2z"/>
<path class="st1" d="M121.3,401.2L121.3,401.2c-4.6,0-8.3-3.7-8.3-8.3v0c0-4.6,3.7-8.3,8.3-8.3h0c4.6,0,8.3,3.7,8.3,8.3v0
	C129.6,397.4,125.8,401.2,121.3,401.2z"/>
<path class="st1" d="M143.9,401.2L143.9,401.2c-4.6,0-8.3-3.7-8.3-8.3v0c0-4.6,3.7-8.3,8.3-8.3h0c4.6,0,8.3,3.7,8.3,8.3v0
	C152.2,397.4,148.4,401.2,143.9,401.2z"/>
<path class="st1" d="M189.1,243.2L189.1,243.2c-4.6,0-8.3-3.7-8.3-8.3v0c0-4.6,3.7-8.3,8.3-8.3h0c4.6,0,8.3,3.7,8.3,8.3v0
	C197.4,239.5,193.7,243.2,189.1,243.2z"/>
<path class="st1" d="M166.5,243.2L166.5,243.2c-4.6,0-8.3-3.7-8.3-8.3v0c0-4.6,3.7-8.3,8.3-8.3h0c4.6,0,8.3,3.7,8.3,8.3v0
	C174.8,239.5,171.1,243.2,166.5,243.2z"/>
<path class="st1" d="M166.5,265.9L166.5,265.9c-4.6,0-8.3-3.7-8.3-8.3v0c0-4.6,3.7-8.3,8.3-8.3h0c4.6,0,8.3,3.7,8.3,8.3v0
	C174.8,262.1,171.1,265.9,166.5,265.9z"/>
<path class="st1" d="M189.1,265.9L189.1,265.9c-4.6,0-8.3-3.7-8.3-8.3v0c0-4.6,3.7-8.3,8.3-8.3h0c4.6,0,8.3,3.7,8.3,8.3v0
	C197.4,262.1,193.7,265.9,189.1,265.9z"/>
<path class="st1" d="M166.5,288.4L166.5,288.4c-4.6,0-8.3-3.7-8.3-8.3v0c0-4.6,3.7-8.3,8.3-8.3h0c4.6,0,8.3,3.7,8.3,8.3v0
	C174.8,284.6,171.1,288.4,166.5,288.4z"/>
<path class="st1" d="M189.1,288.4L189.1,288.4c-4.6,0-8.3-3.7-8.3-8.3v0c0-4.6,3.7-8.3,8.3-8.3h0c4.6,0,8.3,3.7,8.3,8.3v0
	C197.4,284.6,193.7,288.4,189.1,288.4z"/>
<path class="st1" d="M166.5,310.9L166.5,310.9c-4.6,0-8.3-3.7-8.3-8.3l0,0c0-4.6,3.7-8.3,8.3-8.3h0c4.6,0,8.3,3.7,8.3,8.3l0,0
	C174.8,307.2,171.1,310.9,166.5,310.9z"/>
<path class="st1" d="M189.1,310.9L189.1,310.9c-4.6,0-8.3-3.7-8.3-8.3l0,0c0-4.6,3.7-8.3,8.3-8.3h0c4.6,0,8.3,3.7,8.3,8.3l0,0
	C197.4,307.2,193.7,310.9,189.1,310.9z"/>
<path class="st1" d="M166.5,333.4L166.5,333.4c-4.6,0-8.3-3.7-8.3-8.3l0,0c0-4.6,3.7-8.3,8.3-8.3h0c4.6,0,8.3,3.7,8.3,8.3l0,0
	C174.8,329.7,171.1,333.4,166.5,333.4z"/>
<path class="st1" d="M189.1,333.4L189.1,333.4c-4.6,0-8.3-3.7-8.3-8.3l0,0c0-4.6,3.7-8.3,8.3-8.3h0c4.6,0,8.3,3.7,8.3,8.3l0,0
	C197.4,329.7,193.7,333.4,189.1,333.4z"/>
<path class="st1" d="M189.1,356L189.1,356c-4.6,0-8.3-3.7-8.3-8.3l0,0c0-4.6,3.7-8.3,8.3-8.3h0c4.6,0,8.3,3.7,8.3,8.3l0,0
	C197.4,352.3,193.7,356,189.1,356z"/>
<path class="st1" d="M166.5,356L166.5,356c-4.6,0-8.3-3.7-8.3-8.3v0c0-4.6,3.7-8.3,8.3-8.3h0c4.6,0,8.3,3.7,8.3,8.3v0
	C174.8,352.3,171.1,356,166.5,356z"/>
<path class="st1" d="M166.5,378.7L166.5,378.7c-4.6,0-8.3-3.7-8.3-8.3v0c0-4.6,3.7-8.3,8.3-8.3h0c4.6,0,8.3,3.7,8.3,8.3v0
	C174.8,374.9,171.1,378.7,166.5,378.7z"/>
<path class="st1" d="M189.1,378.7L189.1,378.7c-4.6,0-8.3-3.7-8.3-8.3v0c0-4.6,3.7-8.3,8.3-8.3h0c4.6,0,8.3,3.7,8.3,8.3v0
	C197.4,374.9,193.7,378.7,189.1,378.7z"/>
<path class="st1" d="M166.5,401.2L166.5,401.2c-4.6,0-8.3-3.7-8.3-8.3v0c0-4.6,3.7-8.3,8.3-8.3h0c4.6,0,8.3,3.7,8.3,8.3v0
	C174.8,397.4,171.1,401.2,166.5,401.2z"/>
<path class="st1" d="M189.1,401.2L189.1,401.2c-4.6,0-8.3-3.7-8.3-8.3v0c0-4.6,3.7-8.3,8.3-8.3h0c4.6,0,8.3,3.7,8.3,8.3v0
	C197.4,397.4,193.7,401.2,189.1,401.2z"/>
<path class="st1" d="M211.7,288.4L211.7,288.4c-4.6,0-8.3-3.7-8.3-8.3v0c0-4.6,3.7-8.3,8.3-8.3h0c4.6,0,8.3,3.7,8.3,8.3v0
	C220,284.6,216.3,288.4,211.7,288.4z"/>
<path class="st1" d="M211.7,310.9L211.7,310.9c-4.6,0-8.3-3.7-8.3-8.3l0,0c0-4.6,3.7-8.3,8.3-8.3h0c4.6,0,8.3,3.7,8.3,8.3l0,0
	C220,307.2,216.3,310.9,211.7,310.9z"/>
<path class="st1" d="M211.7,333.4L211.7,333.4c-4.6,0-8.3-3.7-8.3-8.3l0,0c0-4.6,3.7-8.3,8.3-8.3h0c4.6,0,8.3,3.7,8.3,8.3l0,0
	C220,329.7,216.3,333.4,211.7,333.4z"/>
<path class="st1" d="M211.7,356L211.7,356c-4.6,0-8.3-3.7-8.3-8.3l0,0c0-4.6,3.7-8.3,8.3-8.3h0c4.6,0,8.3,3.7,8.3,8.3l0,0
	C220,352.3,216.3,356,211.7,356z"/>
<path class="st1" d="M211.7,378.7L211.7,378.7c-4.6,0-8.3-3.7-8.3-8.3v0c0-4.6,3.7-8.3,8.3-8.3h0c4.6,0,8.3,3.7,8.3,8.3v0
	C220,374.9,216.3,378.7,211.7,378.7z"/>
<path class="st1" d="M211.7,401.2L211.7,401.2c-4.6,0-8.3-3.7-8.3-8.3v0c0-4.6,3.7-8.3,8.3-8.3h0c4.6,0,8.3,3.7,8.3,8.3v0
	C220,397.4,216.3,401.2,211.7,401.2z"/>
<path class="st1" d="M234.3,333.4L234.3,333.4c-4.6,0-8.3-3.7-8.3-8.3l0,0c0-4.6,3.7-8.3,8.3-8.3h0c4.6,0,8.3,3.7,8.3,8.3l0,0
	C242.6,329.7,238.9,333.4,234.3,333.4z"/>
<path class="st1" d="M234.3,356L234.3,356c-4.6,0-8.3-3.7-8.3-8.3l0,0c0-4.6,3.7-8.3,8.3-8.3h0c4.6,0,8.3,3.7,8.3,8.3l0,0
	C242.6,352.3,238.9,356,234.3,356z"/>
<path class="st1" d="M234.3,378.7L234.3,378.7c-4.6,0-8.3-3.7-8.3-8.3v0c0-4.6,3.7-8.3,8.3-8.3h0c4.6,0,8.3,3.7,8.3,8.3v0
	C242.6,374.9,238.9,378.7,234.3,378.7z"/>
<path class="st1" d="M234.3,401.2L234.3,401.2c-4.6,0-8.3-3.7-8.3-8.3v0c0-4.6,3.7-8.3,8.3-8.3h0c4.6,0,8.3,3.7,8.3,8.3v0
	C242.6,397.4,238.9,401.2,234.3,401.2z"/>
<path class="st1" d="M256.9,356L256.9,356c-4.6,0-8.3-3.7-8.3-8.3l0,0c0-4.6,3.7-8.3,8.3-8.3h0c4.6,0,8.3,3.7,8.3,8.3l0,0
	C265.2,352.3,261.5,356,256.9,356z"/>
<path class="st1" d="M256.9,378.7L256.9,378.7c-4.6,0-8.3-3.7-8.3-8.3v0c0-4.6,3.7-8.3,8.3-8.3l0,0c4.6,0,8.3,3.7,8.3,8.3v0
	C265.2,374.9,261.4,378.7,256.9,378.7z"/>
<path class="st1" d="M256.9,401.2L256.9,401.2c-4.6,0-8.3-3.7-8.3-8.3v0c0-4.6,3.7-8.3,8.3-8.3l0,0c4.6,0,8.3,3.7,8.3,8.3v0
	C265.2,397.4,261.4,401.2,256.9,401.2z"/>
<path class="st1" d="M53.6,401.2L53.6,401.2c-4.6,0-8.3-3.7-8.3-8.3v0c0-4.6,3.7-8.3,8.3-8.3h0c4.6,0,8.3,3.7,8.3,8.3v0
	C61.8,397.4,58.1,401.2,53.6,401.2z"/>
<path class="st1" d="M279.1,423.9L279.1,423.9c-4.6,0-8.3-3.7-8.3-8.3v0c0-4.6,3.7-8.3,8.3-8.3h0c4.6,0,8.3,3.7,8.3,8.3v0
	C287.4,420.1,283.7,423.9,279.1,423.9z"/>
<path class="st1" d="M234.4,446.4L234.4,446.4c-4.6,0-8.3-3.7-8.3-8.3v0c0-4.6,3.7-8.3,8.3-8.3h0c4.6,0,8.3,3.7,8.3,8.3v0
	C242.7,442.7,239,446.4,234.4,446.4z"/>
<path class="st1" d="M76.1,423.8L76.1,423.8c-4.6,0-8.3-3.7-8.3-8.3v0c0-4.6,3.7-8.3,8.3-8.3h0c4.6,0,8.3,3.7,8.3,8.3v0
	C84.4,420,80.7,423.8,76.1,423.8z"/>
<path class="st1" d="M98.7,423.8L98.7,423.8c-4.6,0-8.3-3.7-8.3-8.3v0c0-4.6,3.7-8.3,8.3-8.3h0c4.6,0,8.3,3.7,8.3,8.3v0
	C107,420,103.3,423.8,98.7,423.8z"/>
<path class="st1" d="M121.3,423.8L121.3,423.8c-4.6,0-8.3-3.7-8.3-8.3v0c0-4.6,3.7-8.3,8.3-8.3h0c4.6,0,8.3,3.7,8.3,8.3v0
	C129.6,420,125.8,423.8,121.3,423.8z"/>
<path class="st1" d="M143.9,423.8L143.9,423.8c-4.6,0-8.3-3.7-8.3-8.3v0c0-4.6,3.7-8.3,8.3-8.3h0c4.6,0,8.3,3.7,8.3,8.3v0
	C152.2,420,148.4,423.8,143.9,423.8z"/>
<path class="st1" d="M53.6,423.8L53.6,423.8c-4.6,0-8.3-3.7-8.3-8.3v0c0-4.6,3.7-8.3,8.3-8.3h0c4.6,0,8.3,3.7,8.3,8.3v0
	C61.8,420,58.1,423.8,53.6,423.8z"/>
<path class="st1" d="M31,446.3L31,446.3c-4.6,0-8.3-3.7-8.3-8.3v0c0-4.6,3.7-8.3,8.3-8.3h0c4.6,0,8.3,3.7,8.3,8.3v0
	C39.3,442.5,35.5,446.3,31,446.3z"/>
<path class="st1" d="M53.6,446.3L53.6,446.3c-4.6,0-8.3-3.7-8.3-8.3v0c0-4.6,3.7-8.3,8.3-8.3h0c4.6,0,8.3,3.7,8.3,8.3v0
	C61.8,442.5,58.1,446.3,53.6,446.3z"/>
<path class="st1" d="M76.2,446.3L76.2,446.3c-4.6,0-8.3-3.7-8.3-8.3v0c0-4.6,3.7-8.3,8.3-8.3h0c4.6,0,8.3,3.7,8.3,8.3v0
	C84.5,442.5,80.8,446.3,76.2,446.3z"/>
<path class="st1" d="M98.8,446.3L98.8,446.3c-4.6,0-8.3-3.7-8.3-8.3v0c0-4.6,3.7-8.3,8.3-8.3h0c4.6,0,8.3,3.7,8.3,8.3v0
	C107.1,442.5,103.4,446.3,98.8,446.3z"/>
<path class="st1" d="M166.5,423.8L166.5,423.8c-4.6,0-8.3-3.7-8.3-8.3v0c0-4.6,3.7-8.3,8.3-8.3h0c4.6,0,8.3,3.7,8.3,8.3v0
	C174.8,420,171.1,423.8,166.5,423.8z"/>
<path class="st1" d="M189.1,423.8L189.1,423.8c-4.6,0-8.3-3.7-8.3-8.3v0c0-4.6,3.7-8.3,8.3-8.3h0c4.6,0,8.3,3.7,8.3,8.3v0
	C197.4,420,193.7,423.8,189.1,423.8z"/>
<path class="st1" d="M121.5,446.3L121.5,446.3c-4.6,0-8.3-3.7-8.3-8.3v0c0-4.6,3.7-8.3,8.3-8.3h0c4.6,0,8.3,3.7,8.3,8.3v0
	C129.7,442.5,126,446.3,121.5,446.3z"/>
<path class="st1" d="M144.1,446.3L144.1,446.3c-4.6,0-8.3-3.7-8.3-8.3v0c0-4.6,3.7-8.3,8.3-8.3h0c4.6,0,8.3,3.7,8.3,8.3v0
	C152.4,442.5,148.6,446.3,144.1,446.3z"/>
<path class="st1" d="M211.7,423.8L211.7,423.8c-4.6,0-8.3-3.7-8.3-8.3v0c0-4.6,3.7-8.3,8.3-8.3h0c4.6,0,8.3,3.7,8.3,8.3v0
	C220,420,216.3,423.8,211.7,423.8z"/>
<path class="st1" d="M166.7,446.3L166.7,446.3c-4.6,0-8.3-3.7-8.3-8.3v0c0-4.6,3.7-8.3,8.3-8.3h0c4.6,0,8.3,3.7,8.3,8.3v0
	C175,442.5,171.2,446.3,166.7,446.3z"/>
<path class="st1" d="M234.3,423.8L234.3,423.8c-4.6,0-8.3-3.7-8.3-8.3v0c0-4.6,3.7-8.3,8.3-8.3h0c4.6,0,8.3,3.7,8.3,8.3v0
	C242.6,420,238.9,423.8,234.3,423.8z"/>
<path class="st1" d="M189.3,446.3L189.3,446.3c-4.6,0-8.3-3.7-8.3-8.3v0c0-4.6,3.7-8.3,8.3-8.3h0c4.6,0,8.3,3.7,8.3,8.3v0
	C197.5,442.5,193.8,446.3,189.3,446.3z"/>
<path class="st1" d="M256.9,423.8L256.9,423.8c-4.6,0-8.3-3.7-8.3-8.3v0c0-4.6,3.7-8.3,8.3-8.3l0,0c4.6,0,8.3,3.7,8.3,8.3v0
	C265.2,420,261.4,423.8,256.9,423.8z"/>
<path class="st1" d="M211.9,446.3L211.9,446.3c-4.6,0-8.3-3.7-8.3-8.3v0c0-4.6,3.7-8.3,8.3-8.3h0c4.6,0,8.3,3.7,8.3,8.3v0
	C220.1,442.5,216.4,446.3,211.9,446.3z"/>
<path class="st1" d="M8.4,446.3L8.4,446.3c-4.6,0-8.3-3.7-8.3-8.3v0c0-4.6,3.7-8.3,8.3-8.3h0c4.6,0,8.3,3.7,8.3,8.3v0
	C16.7,442.5,13,446.3,8.4,446.3z"/>
<path class="st1" d="M8.3,605.1L8.3,605.1c-4.6,0-8.3-3.7-8.3-8.3l0,0c0-4.6,3.7-8.3,8.3-8.3h0c4.6,0,8.3,3.7,8.3,8.3l0,0
	C16.6,601.4,12.8,605.1,8.3,605.1z"/>
<path class="st1" d="M8.3,627.7L8.3,627.7c-4.6,0-8.3-3.7-8.3-8.3l0,0c0-4.6,3.7-8.3,8.3-8.3h0c4.6,0,8.3,3.7,8.3,8.3l0,0
	C16.6,624,12.8,627.7,8.3,627.7z"/>
<path class="st1" d="M8.3,650.3L8.3,650.3c-4.6,0-8.3-3.7-8.3-8.3l0,0c0-4.6,3.7-8.3,8.3-8.3h0c4.6,0,8.3,3.7,8.3,8.3l0,0
	C16.6,646.6,12.8,650.3,8.3,650.3z"/>
<path class="st1" d="M8.3,672.9L8.3,672.9c-4.6,0-8.3-3.7-8.3-8.3l0,0c0-4.6,3.7-8.3,8.3-8.3h0c4.6,0,8.3,3.7,8.3,8.3l0,0
	C16.6,669.2,12.8,672.9,8.3,672.9z"/>
<path class="st1" d="M8.3,694.5L8.3,694.5c-4.6,0-8.3-3.7-8.3-8.3l0,0c0-4.6,3.7-8.3,8.3-8.3h0c4.6,0,8.3,3.7,8.3,8.3l0,0
	C16.6,690.8,12.8,694.5,8.3,694.5z"/>
<path class="st1" d="M8.4,582.2L8.4,582.2c-4.6,0-8.3-3.7-8.3-8.3v0c0-4.6,3.7-8.3,8.3-8.3h0c4.6,0,8.3,3.7,8.3,8.3v0
	C16.7,578.5,13,582.2,8.4,582.2z"/>
<path class="st1" d="M53.7,62.6L53.7,62.6c-4.6,0-8.3-3.7-8.3-8.3v0c0-4.6,3.7-8.3,8.3-8.3h0c4.6,0,8.3,3.7,8.3,8.3v0
	C62,58.9,58.2,62.6,53.7,62.6z"/>
<path class="st1" d="M121.4,62.6L121.4,62.6c-4.6,0-8.3-3.7-8.3-8.3v0c0-4.6,3.7-8.3,8.3-8.3h0c4.6,0,8.3,3.7,8.3,8.3v0
	C129.7,58.9,126,62.6,121.4,62.6z"/>
<path class="st1" d="M144,62.6L144,62.6c-4.6,0-8.3-3.7-8.3-8.3v0c0-4.6,3.7-8.3,8.3-8.3h0c4.6,0,8.3,3.7,8.3,8.3v0
	C152.3,58.9,148.5,62.6,144,62.6z"/>
<path class="st1" d="M256.6,62.6L256.6,62.6c-4.6,0-8.3-3.7-8.3-8.3v0c0-4.6,3.7-8.3,8.3-8.3h0c4.6,0,8.3,3.7,8.3,8.3v0
	C264.9,58.9,261.2,62.6,256.6,62.6z"/>
<path class="st1" d="M279.2,62.6L279.2,62.6c-4.6,0-8.3-3.7-8.3-8.3v0c0-4.6,3.7-8.3,8.3-8.3l0,0c4.6,0,8.3,3.7,8.3,8.3v0
	C287.5,58.9,283.8,62.6,279.2,62.6z"/>
<path class="st1" d="M301.8,62.6L301.8,62.6c-4.6,0-8.3-3.7-8.3-8.3v0c0-4.6,3.7-8.3,8.3-8.3l0,0c4.6,0,8.3,3.7,8.3,8.3v0
	C310.1,58.9,306.3,62.6,301.8,62.6z"/>
<path class="st1" d="M324.3,62.6L324.3,62.6c-4.6,0-8.3-3.7-8.3-8.3v0c0-4.6,3.7-8.3,8.3-8.3l0,0c4.6,0,8.3,3.7,8.3,8.3v0
	C332.6,58.9,328.9,62.6,324.3,62.6z"/>
<path class="st1" d="M346.9,62.6L346.9,62.6c-4.6,0-8.3-3.7-8.3-8.3v0c0-4.6,3.7-8.3,8.3-8.3h0c4.6,0,8.3,3.7,8.3,8.3v0
	C355.2,58.9,351.5,62.6,346.9,62.6z"/>
<path class="st1" d="M369.5,62.6L369.5,62.6c-4.6,0-8.3-3.7-8.3-8.3v0c0-4.6,3.7-8.3,8.3-8.3h0c4.6,0,8.3,3.7,8.3,8.3v0
	C377.8,58.9,374,62.6,369.5,62.6z"/>
<path class="st1" d="M392.1,62.6L392.1,62.6c-4.6,0-8.3-3.7-8.3-8.3v0c0-4.6,3.7-8.3,8.3-8.3l0,0c4.6,0,8.3,3.7,8.3,8.3v0
	C400.3,58.9,396.6,62.6,392.1,62.6z"/>
<g>
	<text transform="matrix(1 0 0 1 6.5556 57.0607)" class="st2 st3 st4">1</text>
	<text transform="matrix(1 0 0 1 28.6171 57.0607)" class="st2 st3 st4">2</text>
	<text transform="matrix(1 0 0 1 51.1913 57.0607)" class="st2 st3 st4">3</text>
	<text transform="matrix(1 0 0 1 73.7059 57.0607)" class="st2 st3 st4">4</text>
	<text transform="matrix(1 0 0 1 96.3798 57.0607)" class="st2 st3 st4">5</text>
	<text transform="matrix(1 0 0 1 118.702 57.0607)" class="st2 st3 st4">6</text>
	<text transform="matrix(1 0 0 1 141.7284 57.0607)" class="st2 st3 st4">7</text>
	<text transform="matrix(1 0 0 1 163.9188 57.0607)" class="st2 st3 st4">8</text>
	<text transform="matrix(1 0 0 1 186.413 57.0607)" class="st2 st3 st4">9</text>
	<text transform="matrix(1 0 0 1 207.0624 57.0607)" class="st2 st3 st4">10</text>
	<text transform="matrix(1 0 0 1 230.5447 57.0607)" class="st2 st3 st4">11</text>
	<text transform="matrix(1 0 0 1 252.6072 57.0607)" class="st2 st3 st4">12</text>
	<text transform="matrix(1 0 0 1 275.1805 57.0607)" class="st2 st3 st4">13</text>
	<text transform="matrix(1 0 0 1 297.6941 57.0607)" class="st2 st3 st4">14</text>
	<text transform="matrix(1 0 0 1 320.3689 57.0607)" class="st2 st3 st4">15</text>
	<text transform="matrix(1 0 0 1 342.6912 57.0607)" class="st2 st3 st4">16</text>
	<text transform="matrix(1 0 0 1 6.5556 10.2014)" class="st2 st3 st4">1</text>
	<text transform="matrix(1 0 0 1 28.6171 10.2014)" class="st2 st3 st4">2</text>
	<text transform="matrix(1 0 0 1 51.1913 10.2014)" class="st2 st3 st4">3</text>
	<text transform="matrix(1 0 0 1 73.7059 10.2014)" class="st2 st3 st4">4</text>
	<text transform="matrix(1 0 0 1 96.3798 10.2014)" class="st2 st3 st4">5</text>
	<text transform="matrix(1 0 0 1 118.702 10.2014)" class="st2 st3 st4">6</text>
	<text transform="matrix(1 0 0 1 141.7284 10.2014)" class="st2 st3 st4">7</text>
	<text transform="matrix(1 0 0 1 163.9188 10.2014)" class="st2 st3 st4">8</text>
	<text transform="matrix(1 0 0 1 186.413 10.2014)" class="st2 st3 st4">9</text>
	<text transform="matrix(1 0 0 1 207.0624 10.2014)" class="st2 st3 st4">10</text>
	<text transform="matrix(1 0 0 1 230.5447 10.2014)" class="st2 st3 st4">11</text>
	<text transform="matrix(1 0 0 1 252.6072 10.2014)" class="st2 st3 st4">12</text>
	<text transform="matrix(1 0 0 1 365.6326 57.0607)" class="st2 st3 st4">17</text>
	<text transform="matrix(1 0 0 1 387.9344 57.0607)" class="st2 st3 st4">18</text>
	<text transform="matrix(1 0 0 1 6.5556 79.7082)" class="st2 st3 st4">1</text>
	<text transform="matrix(1 0 0 1 28.6171 79.7082)" class="st2 st3 st4">2</text>
	<text transform="matrix(1 0 0 1 51.1913 79.7082)" class="st2 st3 st4">3</text>
	<text transform="matrix(1 0 0 1 73.7059 79.7082)" class="st2 st3 st4">4</text>
	<text transform="matrix(1 0 0 1 96.3798 79.7082)" class="st2 st3 st4">5</text>
	<text transform="matrix(1 0 0 1 118.702 79.7082)" class="st2 st3 st4">6</text>
	<text transform="matrix(1 0 0 1 141.7284 79.7082)" class="st2 st3 st4">7</text>
	<text transform="matrix(1 0 0 1 163.9188 79.7082)" class="st2 st3 st4">8</text>
	<text transform="matrix(1 0 0 1 186.413 79.7082)" class="st2 st3 st4">9</text>
	<text transform="matrix(1 0 0 1 207.0624 79.7082)" class="st2 st3 st4">10</text>
	<text transform="matrix(1 0 0 1 230.5447 79.7082)" class="st2 st3 st4">11</text>
	<text transform="matrix(1 0 0 1 252.6072 79.7082)" class="st2 st3 st4">12</text>
	<text transform="matrix(1 0 0 1 275.1805 79.7082)" class="st2 st3 st4">13</text>
	<text transform="matrix(1 0 0 1 297.6941 79.7082)" class="st2 st3 st4">14</text>
	<text transform="matrix(1 0 0 1 320.3689 79.7082)" class="st2 st3 st4">15</text>
	<text transform="matrix(1 0 0 1 342.6912 79.7082)" class="st2 st3 st4">16</text>
	<text transform="matrix(1 0 0 1 365.6326 79.7082)" class="st2 st3 st4">17</text>
	<text transform="matrix(1 0 0 1 387.9344 79.7082)" class="st2 st3 st4">18</text>
	<text transform="matrix(1 0 0 1 6.5556 101.9641)" class="st2 st3 st4">1</text>
	<text transform="matrix(1 0 0 1 28.6171 101.9641)" class="st2 st3 st4">2</text>
	<text transform="matrix(1 0 0 1 51.1913 101.9641)" class="st2 st3 st4">3</text>
	<text transform="matrix(1 0 0 1 73.7059 101.9641)" class="st2 st3 st4">4</text>
	<text transform="matrix(1 0 0 1 96.3798 101.9641)" class="st2 st3 st4">5</text>
	<text transform="matrix(1 0 0 1 118.702 101.9641)" class="st2 st3 st4">6</text>
	<text transform="matrix(1 0 0 1 141.7284 101.9641)" class="st2 st3 st4">7</text>
	<text transform="matrix(1 0 0 1 163.9188 101.9641)" class="st2 st3 st4">8</text>
	<text transform="matrix(1 0 0 1 186.413 101.9641)" class="st2 st3 st4">9</text>
	<text transform="matrix(1 0 0 1 207.0624 101.9641)" class="st2 st3 st4">10</text>
	<text transform="matrix(1 0 0 1 230.5447 101.9641)" class="st2 st3 st4">11</text>
	<text transform="matrix(1 0 0 1 252.6072 101.9641)" class="st2 st3 st4">12</text>
	<text transform="matrix(1 0 0 1 275.1805 101.9641)" class="st2 st3 st4">13</text>
	<text transform="matrix(1 0 0 1 297.6941 101.9641)" class="st2 st3 st4">14</text>
	<text transform="matrix(1 0 0 1 320.3689 101.9641)" class="st2 st3 st4">15</text>
	<text transform="matrix(1 0 0 1 342.6912 101.9641)" class="st2 st3 st4">16</text>
	<text transform="matrix(1 0 0 1 365.6326 101.9641)" class="st2 st3 st4">17</text>
	<text transform="matrix(1 0 0 1 6.5556 124.8508)" class="st2 st3 st4">1</text>
	<text transform="matrix(1 0 0 1 28.6171 124.8508)" class="st2 st3 st4">2</text>
	<text transform="matrix(1 0 0 1 51.1913 124.8508)" class="st2 st3 st4">3</text>
	<text transform="matrix(1 0 0 1 73.7059 124.8508)" class="st2 st3 st4">4</text>
	<text transform="matrix(1 0 0 1 96.3798 124.8508)" class="st2 st3 st4">5</text>
	<text transform="matrix(1 0 0 1 118.702 124.8508)" class="st2 st3 st4">6</text>
	<text transform="matrix(1 0 0 1 141.7284 124.8508)" class="st2 st3 st4">7</text>
	<text transform="matrix(1 0 0 1 163.9188 124.8508)" class="st2 st3 st4">8</text>
	<text transform="matrix(1 0 0 1 186.413 124.8508)" class="st2 st3 st4">9</text>
	<text transform="matrix(1 0 0 1 207.0624 124.8508)" class="st2 st3 st4">10</text>
	<text transform="matrix(1 0 0 1 230.5447 124.8508)" class="st2 st3 st4">11</text>
	<text transform="matrix(1 0 0 1 252.6072 124.8508)" class="st2 st3 st4">12</text>
	<text transform="matrix(1 0 0 1 275.1805 124.8508)" class="st2 st3 st4">13</text>
	<text transform="matrix(1 0 0 1 297.6941 124.8508)" class="st2 st3 st4">14</text>
	<text transform="matrix(1 0 0 1 320.3689 124.8508)" class="st2 st3 st4">15</text>
	<text transform="matrix(1 0 0 1 342.6912 124.8508)" class="st2 st3 st4">16</text>
	<text transform="matrix(1 0 0 1 365.6326 124.8508)" class="st2 st3 st4">17</text>
	<text transform="matrix(1 0 0 1 6.5556 146.6154)" class="st2 st3 st4">1</text>
	<text transform="matrix(1 0 0 1 28.6171 146.6154)" class="st2 st3 st4">2</text>
	<text transform="matrix(1 0 0 1 51.1913 146.6154)" class="st2 st3 st4">3</text>
	<text transform="matrix(1 0 0 1 73.7059 146.6154)" class="st2 st3 st4">4</text>
	<text transform="matrix(1 0 0 1 96.3798 146.6154)" class="st2 st3 st4">5</text>
	<text transform="matrix(1 0 0 1 118.702 146.6154)" class="st2 st3 st4">6</text>
	<text transform="matrix(1 0 0 1 141.7284 146.6154)" class="st2 st3 st4">7</text>
	<text transform="matrix(1 0 0 1 163.9188 146.6154)" class="st2 st3 st4">8</text>
	<text transform="matrix(1 0 0 1 186.413 146.6154)" class="st2 st3 st4">9</text>
	<text transform="matrix(1 0 0 1 207.0624 146.6154)" class="st2 st3 st4">10</text>
	<text transform="matrix(1 0 0 1 230.5447 146.6154)" class="st2 st3 st4">11</text>
	<text transform="matrix(1 0 0 1 252.6072 146.6154)" class="st2 st3 st4">12</text>
	<text transform="matrix(1 0 0 1 275.1805 146.6154)" class="st2 st3 st4">13</text>
	<text transform="matrix(1 0 0 1 297.6941 146.6154)" class="st2 st3 st4">14</text>
	<text transform="matrix(1 0 0 1 320.3689 146.6154)" class="st2 st3 st4">15</text>
	<text transform="matrix(1 0 0 1 342.6912 146.6154)" class="st2 st3 st4">16</text>
	<text transform="matrix(1 0 0 1 365.6326 146.6154)" class="st2 st3 st4">17</text>
	<text transform="matrix(1 0 0 1 6.5556 168.9689)" class="st2 st3 st4">1</text>
	<text transform="matrix(1 0 0 1 28.6171 168.9689)" class="st2 st3 st4">2</text>
	<text transform="matrix(1 0 0 1 51.1913 168.9689)" class="st2 st3 st4">3</text>
	<text transform="matrix(1 0 0 1 73.7059 168.9689)" class="st2 st3 st4">4</text>
	<text transform="matrix(1 0 0 1 96.3798 168.9689)" class="st2 st3 st4">5</text>
	<text transform="matrix(1 0 0 1 118.702 168.9689)" class="st2 st3 st4">6</text>
	<text transform="matrix(1 0 0 1 141.7284 168.9689)" class="st2 st3 st4">7</text>
	<text transform="matrix(1 0 0 1 163.9188 168.9689)" class="st2 st3 st4">8</text>
	<text transform="matrix(1 0 0 1 186.413 168.9689)" class="st2 st3 st4">9</text>
	<text transform="matrix(1 0 0 1 207.0624 168.9689)" class="st2 st3 st4">10</text>
	<text transform="matrix(1 0 0 1 230.5447 168.9689)" class="st2 st3 st4">11</text>
	<text transform="matrix(1 0 0 1 252.6072 168.9689)" class="st2 st3 st4">12</text>
	<text transform="matrix(1 0 0 1 275.1805 168.9689)" class="st2 st3 st4">13</text>
	<text transform="matrix(1 0 0 1 297.6941 168.9689)" class="st2 st3 st4">14</text>
	<text transform="matrix(1 0 0 1 320.3689 168.9689)" class="st2 st3 st4">15</text>
	<text transform="matrix(1 0 0 1 342.6912 168.9689)" class="st2 st3 st4">16</text>
	<text transform="matrix(1 0 0 1 6.5556 191.5998)" class="st2 st3 st4">1</text>
	<text transform="matrix(1 0 0 1 28.6171 191.5998)" class="st2 st3 st4">2</text>
	<text transform="matrix(1 0 0 1 51.1913 191.5998)" class="st2 st3 st4">3</text>
	<text transform="matrix(1 0 0 1 73.7059 191.5998)" class="st2 st3 st4">4</text>
	<text transform="matrix(1 0 0 1 96.3798 191.5998)" class="st2 st3 st4">5</text>
	<text transform="matrix(1 0 0 1 118.702 191.5998)" class="st2 st3 st4">6</text>
	<text transform="matrix(1 0 0 1 141.7284 191.5998)" class="st2 st3 st4">7</text>
	<text transform="matrix(1 0 0 1 163.9188 191.5998)" class="st2 st3 st4">8</text>
	<text transform="matrix(1 0 0 1 186.413 191.5998)" class="st2 st3 st4">9</text>
	<text transform="matrix(1 0 0 1 207.0624 191.5998)" class="st2 st3 st4">10</text>
	<text transform="matrix(1 0 0 1 230.5447 191.5998)" class="st2 st3 st4">11</text>
	<text transform="matrix(1 0 0 1 252.6072 191.5998)" class="st2 st3 st4">12</text>
	<text transform="matrix(1 0 0 1 275.1805 191.5998)" class="st2 st3 st4">13</text>
	<text transform="matrix(1 0 0 1 297.6941 191.5998)" class="st2 st3 st4">14</text>
	<text transform="matrix(1 0 0 1 320.3689 191.5998)" class="st2 st3 st4">15</text>
	<text transform="matrix(1 0 0 1 342.6912 191.5998)" class="st2 st3 st4">16</text>
	<text transform="matrix(1 0 0 1 6.5556 214.758)" class="st2 st3 st4">1</text>
	<text transform="matrix(1 0 0 1 28.6171 214.758)" class="st2 st3 st4">2</text>
	<text transform="matrix(1 0 0 1 51.1913 214.758)" class="st2 st3 st4">3</text>
	<text transform="matrix(1 0 0 1 73.7059 214.758)" class="st2 st3 st4">4</text>
	<text transform="matrix(1 0 0 1 96.3798 214.758)" class="st2 st3 st4">5</text>
	<text transform="matrix(1 0 0 1 118.702 214.758)" class="st2 st3 st4">6</text>
	<text transform="matrix(1 0 0 1 141.7284 214.758)" class="st2 st3 st4">7</text>
	<text transform="matrix(1 0 0 1 163.9188 214.758)" class="st2 st3 st4">8</text>
	<text transform="matrix(1 0 0 1 186.413 214.758)" class="st2 st3 st4">9</text>
	<text transform="matrix(1 0 0 1 207.0624 214.758)" class="st2 st3 st4">10</text>
	<text transform="matrix(1 0 0 1 230.5447 214.758)" class="st2 st3 st4">11</text>
	<text transform="matrix(1 0 0 1 252.6072 214.758)" class="st2 st3 st4">12</text>
	<text transform="matrix(1 0 0 1 275.1805 214.758)" class="st2 st3 st4">13</text>
	<text transform="matrix(1 0 0 1 297.6941 214.758)" class="st2 st3 st4">14</text>
	<text transform="matrix(1 0 0 1 320.3689 214.758)" class="st2 st3 st4">15</text>
	<text transform="matrix(1 0 0 1 342.6912 214.758)" class="st2 st3 st4">16</text>
	<text transform="matrix(1 0 0 1 51.6239 238.1369)" class="st2 st3 st4">1</text>
	<text transform="matrix(1 0 0 1 73.6854 238.1369)" class="st2 st3 st4">2</text>
	<text transform="matrix(1 0 0 1 96.2597 238.1369)" class="st2 st3 st4">3</text>
	<text transform="matrix(1 0 0 1 118.7743 238.1369)" class="st2 st3 st4">4</text>
	<text transform="matrix(1 0 0 1 141.4481 238.1369)" class="st2 st3 st4">5</text>
	<text transform="matrix(1 0 0 1 163.7704 238.1369)" class="st2 st3 st4">6</text>
	<text transform="matrix(1 0 0 1 186.7968 238.1369)" class="st2 st3 st4">7</text>
	<text transform="matrix(1 0 0 1 208.9872 238.1369)" class="st2 st3 st4">8</text>
	<text transform="matrix(1 0 0 1 231.4812 238.1369)" class="st2 st3 st4">9</text>
	<text transform="matrix(1 0 0 1 252.1306 238.1369)" class="st2 st3 st4">10</text>
	<text transform="matrix(1 0 0 1 275.6131 238.1369)" class="st2 st3 st4">11</text>
	<text transform="matrix(1 0 0 1 297.6756 238.1369)" class="st2 st3 st4">12</text>
	<text transform="matrix(1 0 0 1 320.2488 238.1369)" class="st2 st3 st4">13</text>
	<text transform="matrix(1 0 0 1 51.6239 260.7844)" class="st2 st3 st4">1</text>
	<text transform="matrix(1 0 0 1 73.6854 260.7844)" class="st2 st3 st4">2</text>
	<text transform="matrix(1 0 0 1 96.2597 260.7844)" class="st2 st3 st4">3</text>
	<text transform="matrix(1 0 0 1 118.7743 260.7844)" class="st2 st3 st4">4</text>
	<text transform="matrix(1 0 0 1 141.4481 260.7844)" class="st2 st3 st4">5</text>
	<text transform="matrix(1 0 0 1 163.7704 260.7844)" class="st2 st3 st4">6</text>
	<text transform="matrix(1 0 0 1 186.7968 260.7844)" class="st2 st3 st4">7</text>
	<text transform="matrix(1 0 0 1 208.9872 260.7844)" class="st2 st3 st4">8</text>
	<text transform="matrix(1 0 0 1 231.4812 260.7844)" class="st2 st3 st4">9</text>
	<text transform="matrix(1 0 0 1 252.1306 260.7844)" class="st2 st3 st4">10</text>
	<text transform="matrix(1 0 0 1 275.6131 260.7844)" class="st2 st3 st4">11</text>
	<text transform="matrix(1 0 0 1 297.6756 260.7844)" class="st2 st3 st4">12</text>
	<text transform="matrix(1 0 0 1 320.2488 260.7844)" class="st2 st3 st4">13</text>
	<text transform="matrix(1 0 0 1 51.6239 283.0403)" class="st2 st3 st4">1</text>
	<text transform="matrix(1 0 0 1 73.6854 283.0403)" class="st2 st3 st4">2</text>
	<text transform="matrix(1 0 0 1 96.2597 283.0403)" class="st2 st3 st4">3</text>
	<text transform="matrix(1 0 0 1 118.7743 283.0403)" class="st2 st3 st4">4</text>
	<text transform="matrix(1 0 0 1 141.4481 283.0403)" class="st2 st3 st4">5</text>
	<text transform="matrix(1 0 0 1 163.7704 283.0403)" class="st2 st3 st4">6</text>
	<text transform="matrix(1 0 0 1 186.7968 283.0403)" class="st2 st3 st4">7</text>
	<text transform="matrix(1 0 0 1 208.9872 283.0403)" class="st2 st3 st4">8</text>
	<text transform="matrix(1 0 0 1 231.4812 283.0403)" class="st2 st3 st4">9</text>
	<text transform="matrix(1 0 0 1 252.1306 283.0403)" class="st2 st3 st4">10</text>
	<text transform="matrix(1 0 0 1 275.6131 283.0403)" class="st2 st3 st4">11</text>
	<text transform="matrix(1 0 0 1 297.6756 283.0403)" class="st2 st3 st4">12</text>
	<text transform="matrix(1 0 0 1 51.6239 305.927)" class="st2 st3 st4">1</text>
	<text transform="matrix(1 0 0 1 73.6854 305.927)" class="st2 st3 st4">2</text>
	<text transform="matrix(1 0 0 1 96.2597 305.927)" class="st2 st3 st4">3</text>
	<text transform="matrix(1 0 0 1 118.7743 305.927)" class="st2 st3 st4">4</text>
	<text transform="matrix(1 0 0 1 141.4481 305.927)" class="st2 st3 st4">5</text>
	<text transform="matrix(1 0 0 1 163.7704 305.927)" class="st2 st3 st4">6</text>
	<text transform="matrix(1 0 0 1 186.7968 305.927)" class="st2 st3 st4">7</text>
	<text transform="matrix(1 0 0 1 208.9872 305.927)" class="st2 st3 st4">8</text>
	<text transform="matrix(1 0 0 1 231.4812 305.927)" class="st2 st3 st4">9</text>
	<text transform="matrix(1 0 0 1 252.1306 305.927)" class="st2 st3 st4">10</text>
	<text transform="matrix(1 0 0 1 275.6131 305.927)" class="st2 st3 st4">11</text>
	<text transform="matrix(1 0 0 1 297.6756 305.927)" class="st2 st3 st4">12</text>
	<text transform="matrix(1 0 0 1 51.6239 327.6916)" class="st2 st3 st4">1</text>
	<text transform="matrix(1 0 0 1 73.6854 327.6916)" class="st2 st3 st4">2</text>
	<text transform="matrix(1 0 0 1 96.2597 327.6916)" class="st2 st3 st4">3</text>
	<text transform="matrix(1 0 0 1 118.7743 327.6916)" class="st2 st3 st4">4</text>
	<text transform="matrix(1 0 0 1 141.4481 327.6916)" class="st2 st3 st4">5</text>
	<text transform="matrix(1 0 0 1 163.7704 327.6916)" class="st2 st3 st4">6</text>
	<text transform="matrix(1 0 0 1 186.7968 327.6916)" class="st2 st3 st4">7</text>
	<text transform="matrix(1 0 0 1 208.9872 327.6916)" class="st2 st3 st4">8</text>
	<text transform="matrix(1 0 0 1 231.4812 327.6916)" class="st2 st3 st4">9</text>
	<text transform="matrix(1 0 0 1 252.1306 327.6916)" class="st2 st3 st4">10</text>
	<text transform="matrix(1 0 0 1 275.6131 327.6916)" class="st2 st3 st4">11</text>
	<text transform="matrix(1 0 0 1 297.6756 327.6916)" class="st2 st3 st4">12</text>
	<text transform="matrix(1 0 0 1 51.6239 350.0451)" class="st2 st3 st4">1</text>
	<text transform="matrix(1 0 0 1 73.6854 350.0451)" class="st2 st3 st4">2</text>
	<text transform="matrix(1 0 0 1 96.2597 350.0451)" class="st2 st3 st4">3</text>
	<text transform="matrix(1 0 0 1 118.7743 350.0451)" class="st2 st3 st4">4</text>
	<text transform="matrix(1 0 0 1 141.4481 350.0451)" class="st2 st3 st4">5</text>
	<text transform="matrix(1 0 0 1 163.7704 350.0451)" class="st2 st3 st4">6</text>
	<text transform="matrix(1 0 0 1 186.7968 350.0451)" class="st2 st3 st4">7</text>
	<text transform="matrix(1 0 0 1 208.9872 350.0451)" class="st2 st3 st4">8</text>
	<text transform="matrix(1 0 0 1 231.4812 350.0451)" class="st2 st3 st4">9</text>
	<text transform="matrix(1 0 0 1 252.1306 350.0451)" class="st2 st3 st4">10</text>
	<text transform="matrix(1 0 0 1 275.6131 350.0451)" class="st2 st3 st4">11</text>
	<text transform="matrix(1 0 0 1 297.6756 350.0451)" class="st2 st3 st4">12</text>
	<text transform="matrix(1 0 0 1 51.6239 372.676)" class="st2 st3 st4">1</text>
	<text transform="matrix(1 0 0 1 73.6854 372.676)" class="st2 st3 st4">2</text>
	<text transform="matrix(1 0 0 1 96.2597 372.676)" class="st2 st3 st4">3</text>
	<text transform="matrix(1 0 0 1 118.7743 372.676)" class="st2 st3 st4">4</text>
	<text transform="matrix(1 0 0 1 141.4481 372.676)" class="st2 st3 st4">5</text>
	<text transform="matrix(1 0 0 1 163.7704 372.676)" class="st2 st3 st4">6</text>
	<text transform="matrix(1 0 0 1 186.7968 372.676)" class="st2 st3 st4">7</text>
	<text transform="matrix(1 0 0 1 208.9872 372.676)" class="st2 st3 st4">8</text>
	<text transform="matrix(1 0 0 1 231.4812 372.676)" class="st2 st3 st4">9</text>
	<text transform="matrix(1 0 0 1 252.1306 372.676)" class="st2 st3 st4">10</text>
	<text transform="matrix(1 0 0 1 275.6131 372.676)" class="st2 st3 st4">11</text>
	<text transform="matrix(1 0 0 1 51.6239 395.8342)" class="st2 st3 st4">1</text>
	<text transform="matrix(1 0 0 1 73.6854 395.8342)" class="st2 st3 st4">2</text>
	<text transform="matrix(1 0 0 1 96.2597 395.8342)" class="st2 st3 st4">3</text>
	<text transform="matrix(1 0 0 1 118.7743 395.8342)" class="st2 st3 st4">4</text>
	<text transform="matrix(1 0 0 1 141.4481 395.8342)" class="st2 st3 st4">5</text>
	<text transform="matrix(1 0 0 1 163.7704 395.8342)" class="st2 st3 st4">6</text>
	<text transform="matrix(1 0 0 1 186.7968 395.8342)" class="st2 st3 st4">7</text>
	<text transform="matrix(1 0 0 1 208.9872 395.8342)" class="st2 st3 st4">8</text>
	<text transform="matrix(1 0 0 1 231.4812 395.8342)" class="st2 st3 st4">9</text>
	<text transform="matrix(1 0 0 1 252.1306 395.8342)" class="st2 st3 st4">10</text>
	<text transform="matrix(1 0 0 1 275.6131 395.8342)" class="st2 st3 st4">11</text>
	<text transform="matrix(1 0 0 1 51.6239 417.9016)" class="st2 st3 st4">1</text>
	<text transform="matrix(1 0 0 1 73.6854 417.9016)" class="st2 st3 st4">2</text>
	<text transform="matrix(1 0 0 1 96.2597 417.9016)" class="st2 st3 st4">3</text>
	<text transform="matrix(1 0 0 1 118.7743 417.9016)" class="st2 st3 st4">4</text>
	<text transform="matrix(1 0 0 1 141.4481 417.9016)" class="st2 st3 st4">5</text>
	<text transform="matrix(1 0 0 1 163.7704 417.9016)" class="st2 st3 st4">6</text>
	<text transform="matrix(1 0 0 1 186.7968 417.9016)" class="st2 st3 st4">7</text>
	<text transform="matrix(1 0 0 1 208.9872 417.9016)" class="st2 st3 st4">8</text>
	<text transform="matrix(1 0 0 1 231.4812 417.9016)" class="st2 st3 st4">9</text>
	<text transform="matrix(1 0 0 1 252.1306 417.9016)" class="st2 st3 st4">10</text>
	<text transform="matrix(1 0 0 1 275.6131 417.9016)" class="st2 st3 st4">11</text>
	<text transform="matrix(1 0 0 1 6.5556 441.3557)" class="st2 st3 st4">1</text>
	<text transform="matrix(1 0 0 1 28.6171 441.3557)" class="st2 st3 st4">2</text>
	<text transform="matrix(1 0 0 1 51.1913 441.3557)" class="st2 st3 st4">3</text>
	<text transform="matrix(1 0 0 1 73.7059 441.3557)" class="st2 st3 st4">4</text>
	<text transform="matrix(1 0 0 1 96.3798 441.3557)" class="st2 st3 st4">5</text>
	<text transform="matrix(1 0 0 1 118.702 441.3557)" class="st2 st3 st4">6</text>
	<text transform="matrix(1 0 0 1 141.7284 441.3557)" class="st2 st3 st4">7</text>
	<text transform="matrix(1 0 0 1 163.9188 441.3557)" class="st2 st3 st4">8</text>
	<text transform="matrix(1 0 0 1 186.413 441.3557)" class="st2 st3 st4">9</text>
	<text transform="matrix(1 0 0 1 207.0624 441.3557)" class="st2 st3 st4">10</text>
	<text transform="matrix(1 0 0 1 230.5447 441.3557)" class="st2 st3 st4">11</text>
	<text transform="matrix(1 0 0 1 252.6072 441.3557)" class="st2 st3 st4">12</text>
	<text transform="matrix(1 0 0 1 275.1805 441.3557)" class="st2 st3 st4">13</text>
	<text transform="matrix(1 0 0 1 6.5556 464.0031)" class="st2 st3 st4">1</text>
	<text transform="matrix(1 0 0 1 28.6171 464.0031)" class="st2 st3 st4">2</text>
	<text transform="matrix(1 0 0 1 51.1913 464.0031)" class="st2 st3 st4">3</text>
	<text transform="matrix(1 0 0 1 73.7059 464.0031)" class="st2 st3 st4">4</text>
	<text transform="matrix(1 0 0 1 96.3798 464.0031)" class="st2 st3 st4">5</text>
	<text transform="matrix(1 0 0 1 118.702 464.0031)" class="st2 st3 st4">6</text>
	<text transform="matrix(1 0 0 1 141.7284 464.0031)" class="st2 st3 st4">7</text>
	<text transform="matrix(1 0 0 1 163.9188 464.0031)" class="st2 st3 st4">8</text>
	<text transform="matrix(1 0 0 1 186.413 464.0031)" class="st2 st3 st4">9</text>
	<text transform="matrix(1 0 0 1 207.0624 464.0031)" class="st2 st3 st4">10</text>
	<text transform="matrix(1 0 0 1 230.5447 464.0031)" class="st2 st3 st4">11</text>
	<text transform="matrix(1 0 0 1 252.6072 464.0031)" class="st2 st3 st4">12</text>
	<text transform="matrix(1 0 0 1 275.1805 464.0031)" class="st2 st3 st4">13</text>
	<text transform="matrix(1 0 0 1 6.5556 486.259)" class="st2 st3 st4">1</text>
	<text transform="matrix(1 0 0 1 28.6171 486.259)" class="st2 st3 st4">2</text>
	<text transform="matrix(1 0 0 1 51.1913 486.259)" class="st2 st3 st4">3</text>
	<text transform="matrix(1 0 0 1 73.7059 486.259)" class="st2 st3 st4">4</text>
	<text transform="matrix(1 0 0 1 96.3798 486.259)" class="st2 st3 st4">5</text>
	<text transform="matrix(1 0 0 1 118.702 486.259)" class="st2 st3 st4">6</text>
	<text transform="matrix(1 0 0 1 141.7284 486.259)" class="st2 st3 st4">7</text>
	<text transform="matrix(1 0 0 1 163.9188 486.259)" class="st2 st3 st4">8</text>
	<text transform="matrix(1 0 0 1 186.413 486.259)" class="st2 st3 st4">9</text>
	<text transform="matrix(1 0 0 1 207.0624 486.259)" class="st2 st3 st4">10</text>
	<text transform="matrix(1 0 0 1 230.5447 486.259)" class="st2 st3 st4">11</text>
	<text transform="matrix(1 0 0 1 252.6072 486.259)" class="st2 st3 st4">12</text>
	<text transform="matrix(1 0 0 1 6.5556 509.1457)" class="st2 st3 st4">1</text>
	<text transform="matrix(1 0 0 1 28.6171 509.1457)" class="st2 st3 st4">2</text>
	<text transform="matrix(1 0 0 1 51.1913 509.1457)" class="st2 st3 st4">3</text>
	<text transform="matrix(1 0 0 1 73.7059 509.1457)" class="st2 st3 st4">4</text>
	<text transform="matrix(1 0 0 1 96.3798 509.1457)" class="st2 st3 st4">5</text>
	<text transform="matrix(1 0 0 1 118.702 509.1457)" class="st2 st3 st4">6</text>
	<text transform="matrix(1 0 0 1 141.7284 509.1457)" class="st2 st3 st4">7</text>
	<text transform="matrix(1 0 0 1 163.9188 509.1457)" class="st2 st3 st4">8</text>
	<text transform="matrix(1 0 0 1 186.413 509.1457)" class="st2 st3 st4">9</text>
	<text transform="matrix(1 0 0 1 207.0624 509.1457)" class="st2 st3 st4">10</text>
	<text transform="matrix(1 0 0 1 230.5447 509.1457)" class="st2 st3 st4">11</text>
	<text transform="matrix(1 0 0 1 252.6072 509.1457)" class="st2 st3 st4">12</text>
	<text transform="matrix(1 0 0 1 6.0141 530.9103)" class="st2 st3 st4">1</text>
	<text transform="matrix(1 0 0 1 28.6171 530.9103)" class="st2 st3 st4">2</text>
	<text transform="matrix(1 0 0 1 51.1913 530.9103)" class="st2 st3 st4">3</text>
	<text transform="matrix(1 0 0 1 73.7059 530.9103)" class="st2 st3 st4">4</text>
	<text transform="matrix(1 0 0 1 96.3798 530.9103)" class="st2 st3 st4">5</text>
	<text transform="matrix(1 0 0 1 118.702 530.9103)" class="st2 st3 st4">6</text>
	<text transform="matrix(1 0 0 1 141.7284 530.9103)" class="st2 st3 st4">7</text>
	<text transform="matrix(1 0 0 1 163.9188 530.9103)" class="st2 st3 st4">8</text>
	<text transform="matrix(1 0 0 1 186.413 530.9103)" class="st2 st3 st4">9</text>
	<text transform="matrix(1 0 0 1 207.0624 530.9103)" class="st2 st3 st4">10</text>
	<text transform="matrix(1 0 0 1 230.5447 530.9103)" class="st2 st3 st4">11</text>
	<text transform="matrix(1 0 0 1 252.6072 530.9103)" class="st2 st3 st4">12</text>
	<text transform="matrix(1 0 0 1 6.0141 553.8322)" class="st2 st3 st4">1</text>
	<text transform="matrix(1 0 0 1 28.6171 553.8322)" class="st2 st3 st4">2</text>
	<text transform="matrix(1 0 0 1 51.1913 553.8322)" class="st2 st3 st4">3</text>
	<text transform="matrix(1 0 0 1 73.7059 553.8322)" class="st2 st3 st4">4</text>
	<text transform="matrix(1 0 0 1 96.3798 553.8322)" class="st2 st3 st4">5</text>
	<text transform="matrix(1 0 0 1 118.702 553.8322)" class="st2 st3 st4">6</text>
	<text transform="matrix(1 0 0 1 141.7284 553.8322)" class="st2 st3 st4">7</text>
	<text transform="matrix(1 0 0 1 163.9188 553.8322)" class="st2 st3 st4">8</text>
	<text transform="matrix(1 0 0 1 186.413 553.8322)" class="st2 st3 st4">9</text>
	<text transform="matrix(1 0 0 1 207.0624 553.8322)" class="st2 st3 st4">10</text>
	<text transform="matrix(1 0 0 1 230.5447 553.8322)" class="st2 st3 st4">11</text>
	<text transform="matrix(1 0 0 1 6.5556 576.0461)" class="st2 st3 st4">1</text>
	<text transform="matrix(1 0 0 1 28.6171 576.0461)" class="st2 st3 st4">2</text>
	<text transform="matrix(1 0 0 1 51.1913 576.0461)" class="st2 st3 st4">3</text>
	<text transform="matrix(1 0 0 1 73.7059 576.0461)" class="st2 st3 st4">4</text>
	<text transform="matrix(1 0 0 1 96.3798 576.0461)" class="st2 st3 st4">5</text>
	<text transform="matrix(1 0 0 1 118.702 576.0461)" class="st2 st3 st4">6</text>
	<text transform="matrix(1 0 0 1 141.7284 576.0461)" class="st2 st3 st4">7</text>
	<text transform="matrix(1 0 0 1 163.9188 576.0461)" class="st2 st3 st4">8</text>
	<text transform="matrix(1 0 0 1 186.413 576.0461)" class="st2 st3 st4">9</text>
	<text transform="matrix(1 0 0 1 207.0624 576.0461)" class="st2 st3 st4">10</text>
	<text transform="matrix(1 0 0 1 230.5447 576.0461)" class="st2 st3 st4">11</text>
	<text transform="matrix(1 0 0 1 6.5556 598.968)" class="st2 st3 st4">1</text>
	<text transform="matrix(1 0 0 1 28.6171 598.968)" class="st2 st3 st4">2</text>
	<text transform="matrix(1 0 0 1 6.5556 621.8771)" class="st2 st3 st4">1</text>
	<text transform="matrix(1 0 0 1 28.6171 621.8771)" class="st2 st3 st4">2</text>
	<text transform="matrix(1 0 0 1 6.5556 644.799)" class="st2 st3 st4">1</text>
	<text transform="matrix(1 0 0 1 28.6171 644.799)" class="st2 st3 st4">2</text>
	<text transform="matrix(1 0 0 1 6.5556 666.09)" class="st2 st3 st4">1</text>
	<text transform="matrix(1 0 0 1 28.6171 666.09)" class="st2 st3 st4">2</text>
	<text transform="matrix(1 0 0 1 6.5556 689.0119)" class="st2 st3 st4">1</text>
	<text transform="matrix(1 0 0 1 28.6171 689.0119)" class="st2 st3 st4">2</text>
	<text transform="matrix(1 0 0 1 51.1913 598.968)" class="st2 st3 st4">3</text>
	<text transform="matrix(1 0 0 1 73.7059 598.968)" class="st2 st3 st4">4</text>
	<text transform="matrix(1 0 0 1 96.3798 598.968)" class="st2 st3 st4">5</text>
	<text transform="matrix(1 0 0 1 118.702 598.968)" class="st2 st3 st4">6</text>
	<text transform="matrix(1 0 0 1 141.7284 598.968)" class="st2 st3 st4">7</text>
	<text transform="matrix(1 0 0 1 163.9188 598.968)" class="st2 st3 st4">8</text>
	<text transform="matrix(1 0 0 1 186.413 598.968)" class="st2 st3 st4">9</text>
	<text transform="matrix(1 0 0 1 207.0624 598.968)" class="st2 st3 st4">10</text>
	<text transform="matrix(1 0 0 1 230.5447 598.968)" class="st2 st3 st4">11</text>
	<text transform="matrix(1 0 0 1 252.6072 553.8322)" class="st2 st3 st4">12</text>
</g>
<g>
	<text transform="matrix(1 0 0 1 460.5286 54.802)" class="st5 st6 st7">29</text>
	<text transform="matrix(1 0 0 1 460.5286 10.4309)" class="st5 st6 st7">30</text>
	<text transform="matrix(1 0 0 1 460.5286 100.298)" class="st5 st6 st7">27</text>
	<text transform="matrix(1 0 0 1 460.5286 77.7277)" class="st5 st6 st7">28</text>
	<text transform="matrix(1 0 0 1 460.5286 145.4406)" class="st5 st6 st7">25</text>
	<text transform="matrix(1 0 0 1 460.3684 326.0403)" class="st5 st6 st7">17</text>
	<text transform="matrix(1 0 0 1 460.3684 348.592)" class="st5 st6 st7">16</text>
	<text transform="matrix(1 0 0 1 460.5286 371.2278)" class="st5 st6 st7">15</text>
	<text transform="matrix(1 0 0 1 460.5286 393.7795)" class="st5 st6 st7">14</text>
	<text transform="matrix(1 0 0 1 460.3411 416.4123)" class="st5 st6 st7">13</text>
	<text transform="matrix(1 0 0 1 460.3684 438.9651)" class="st5 st6 st7">12</text>
	<text transform="matrix(1 0 0 1 460.7044 619.6623)" class="st5 st6 st7">4</text>
	<text transform="matrix(1 0 0 1 460.7044 642.2951)" class="st5 st6 st7">3</text>
	<text transform="matrix(1 0 0 1 460.3411 664.8478)" class="st5 st6 st7">2</text>
	<text transform="matrix(1 0 0 1 460.3411 688.8488)" class="st5 st6 st7">1</text>
	<text transform="matrix(1 0 0 1 460.5286 122.8703)" class="st5 st6 st7">26</text>
	<text transform="matrix(1 0 0 1 460.5286 167.8947)" class="st5 st6 st7">24</text>
	<text transform="matrix(1 0 0 1 460.5286 213.0822)" class="st5 st6 st7">22</text>
	<text transform="matrix(1 0 0 1 460.5286 190.5119)" class="st5 st6 st7">23</text>
	<text transform="matrix(1 0 0 1 460.5286 258.2268)" class="st5 st6 st7">20</text>
	<text transform="matrix(1 0 0 1 460.5286 235.6564)" class="st5 st6 st7">21</text>
	<text transform="matrix(1 0 0 1 460.3411 303.3694)" class="st5 st6 st7">18</text>
	<text transform="matrix(1 0 0 1 460.3684 280.799)" class="st5 st6 st7">19</text>
	<text transform="matrix(1 0 0 1 460.3684 461.5188)" class="st5 st6 st7">11</text>
	<text transform="matrix(1 0 0 1 460.3684 506.7063)" class="st5 st6 st7">9</text>
	<text transform="matrix(1 0 0 1 460.3684 484.136)" class="st5 st6 st7">10</text>
	<text transform="matrix(1 0 0 1 460.9759 551.8517)" class="st5 st6 st7">7</text>
	<text transform="matrix(1 0 0 1 460.3411 529.2814)" class="st5 st6 st7">8</text>
	<text transform="matrix(1 0 0 1 460.3684 574.424)" class="st5 st6 st7">6</text>
	<text transform="matrix(1 0 0 1 460.9759 597.007)" class="st5 st6 st7">5</text>
</g>
</svg>
