<?xml version="1.0" encoding="utf-8"?>
<!-- Generator: Adobe Illustrator 20.1.0, SVG Export Plug-In . SVG Version: 6.00 Build 0)  -->
<svg version="1.1" id="Layer_1" xmlns="http://www.w3.org/2000/svg" xmlns:xlink="http://www.w3.org/1999/xlink" x="0px" y="0px"
	 viewBox="0 0 471.1 694.1" style="enable-background:new 0 0 471.1 694.1;" xml:space="preserve">
<style type="text/css">
	.st0{fill:#D9F6E1;}
	.st1{fill:#FFFFFF;}
	.st2{fill:#737373;}
	.st3{font-family:'OsnovaPro';}
	.st4{font-size:8px;}
	.st5{fill:#748992;}
	.st6{font-family:'OsnovaProLight';}
	.st7{font-size:9px;}
	.st8{fill:#7B878F;}
</style>
<path class="st0" d="M143.7,16.6L143.7,16.6c-4.6,0-8.3-3.7-8.3-8.3v0c0-4.6,3.7-8.3,8.3-8.3h0c4.6,0,8.3,3.7,8.3,8.3v0
	C152,12.8,148.3,16.6,143.7,16.6z"/>
<path class="st0" d="M166.3,16.6L166.3,16.6c-4.6,0-8.3-3.7-8.3-8.3v0c0-4.6,3.7-8.3,8.3-8.3h0c4.6,0,8.3,3.7,8.3,8.3v0
	C174.6,12.8,170.9,16.6,166.3,16.6z"/>
<path class="st0" d="M188.9,16.6L188.9,16.6c-4.6,0-8.3-3.7-8.3-8.3v0c0-4.6,3.7-8.3,8.3-8.3h0c4.6,0,8.3,3.7,8.3,8.3v0
	C197.2,12.8,193.4,16.6,188.9,16.6z"/>
<path class="st0" d="M211.4,16.6L211.4,16.6c-4.6,0-8.3-3.7-8.3-8.3v0c0-4.6,3.7-8.3,8.3-8.3h0c4.6,0,8.3,3.7,8.3,8.3v0
	C219.7,12.8,216,16.6,211.4,16.6z"/>
<path class="st0" d="M234,16.6L234,16.6c-4.6,0-8.3-3.7-8.3-8.3v0c0-4.6,3.7-8.3,8.3-8.3h0c4.6,0,8.3,3.7,8.3,8.3v0
	C242.3,12.8,238.6,16.6,234,16.6z"/>
<path class="st0" d="M256.6,16.6L256.6,16.6c-4.6,0-8.3-3.7-8.3-8.3v0c0-4.6,3.7-8.3,8.3-8.3l0,0c4.6,0,8.3,3.7,8.3,8.3v0
	C264.9,12.8,261.1,16.6,256.6,16.6z"/>
<path class="st0" d="M279.2,16.6L279.2,16.6c-4.6,0-8.3-3.7-8.3-8.3v0c0-4.6,3.7-8.3,8.3-8.3h0c4.6,0,8.3,3.7,8.3,8.3v0
	C287.4,12.8,283.7,16.6,279.2,16.6z"/>
<path class="st0" d="M301.7,16.6L301.7,16.6c-4.6,0-8.3-3.7-8.3-8.3v0c0-4.6,3.7-8.3,8.3-8.3h0c4.6,0,8.3,3.7,8.3,8.3v0
	C310,12.8,306.3,16.6,301.7,16.6z"/>
<path class="st0" d="M324.3,16.6L324.3,16.6c-4.6,0-8.3-3.7-8.3-8.3v0c0-4.6,3.7-8.3,8.3-8.3l0,0c4.6,0,8.3,3.7,8.3,8.3v0
	C332.6,12.8,328.9,16.6,324.3,16.6z"/>
<path class="st0" d="M346.9,16.6L346.9,16.6c-4.6,0-8.3-3.7-8.3-8.3v0c0-4.6,3.7-8.3,8.3-8.3l0,0c4.6,0,8.3,3.7,8.3,8.3v0
	C355.1,12.8,351.4,16.6,346.9,16.6z"/>
<path class="st0" d="M369.4,16.6L369.4,16.6c-4.6,0-8.3-3.7-8.3-8.3v0c0-4.6,3.7-8.3,8.3-8.3l0,0c4.6,0,8.3,3.7,8.3,8.3v0
	C377.7,12.8,374,16.6,369.4,16.6z"/>
<path class="st0" d="M392,16.6L392,16.6c-4.6,0-8.3-3.7-8.3-8.3v0c0-4.6,3.7-8.3,8.3-8.3h0c4.6,0,8.3,3.7,8.3,8.3v0
	C400.3,12.8,396.6,16.6,392,16.6z"/>
<path class="st1" d="M30.9,106.9L30.9,106.9c-4.6,0-8.3-3.7-8.3-8.3v0c0-4.6,3.7-8.3,8.3-8.3h0c4.6,0,8.3,3.7,8.3,8.3v0
	C39.1,103.1,35.4,106.9,30.9,106.9z"/>
<path class="st1" d="M53.4,106.9L53.4,106.9c-4.6,0-8.3-3.7-8.3-8.3v0c0-4.6,3.7-8.3,8.3-8.3h0c4.6,0,8.3,3.7,8.3,8.3v0
	C61.7,103.1,58,106.9,53.4,106.9z"/>
<path class="st1" d="M76,106.9L76,106.9c-4.6,0-8.3-3.7-8.3-8.3v0c0-4.6,3.7-8.3,8.3-8.3h0c4.6,0,8.3,3.7,8.3,8.3v0
	C84.3,103.1,80.6,106.9,76,106.9z"/>
<path class="st1" d="M98.6,106.9L98.6,106.9c-4.6,0-8.3-3.7-8.3-8.3v0c0-4.6,3.7-8.3,8.3-8.3h0c4.6,0,8.3,3.7,8.3,8.3v0
	C106.9,103.1,103.1,106.9,98.6,106.9z"/>
<path class="st1" d="M121.1,106.9L121.1,106.9c-4.6,0-8.3-3.7-8.3-8.3v0c0-4.6,3.7-8.3,8.3-8.3h0c4.6,0,8.3,3.7,8.3,8.3v0
	C129.4,103.1,125.7,106.9,121.1,106.9z"/>
<path class="st1" d="M143.7,106.9L143.7,106.9c-4.6,0-8.3-3.7-8.3-8.3v0c0-4.6,3.7-8.3,8.3-8.3h0c4.6,0,8.3,3.7,8.3,8.3v0
	C152,103.1,148.3,106.9,143.7,106.9z"/>
<path class="st1" d="M166.3,106.9L166.3,106.9c-4.6,0-8.3-3.7-8.3-8.3v0c0-4.6,3.7-8.3,8.3-8.3h0c4.6,0,8.3,3.7,8.3,8.3v0
	C174.6,103.1,170.8,106.9,166.3,106.9z"/>
<path class="st1" d="M188.8,106.9L188.8,106.9c-4.6,0-8.3-3.7-8.3-8.3v0c0-4.6,3.7-8.3,8.3-8.3h0c4.6,0,8.3,3.7,8.3,8.3v0
	C197.1,103.1,193.4,106.9,188.8,106.9z"/>
<path class="st1" d="M211.4,106.9L211.4,106.9c-4.6,0-8.3-3.7-8.3-8.3v0c0-4.6,3.7-8.3,8.3-8.3h0c4.6,0,8.3,3.7,8.3,8.3v0
	C219.7,103.1,216,106.9,211.4,106.9z"/>
<path class="st1" d="M234,106.9L234,106.9c-4.6,0-8.3-3.7-8.3-8.3v0c0-4.6,3.7-8.3,8.3-8.3h0c4.6,0,8.3,3.7,8.3,8.3v0
	C242.3,103.1,238.5,106.9,234,106.9z"/>
<path class="st1" d="M256.6,106.9L256.6,106.9c-4.6,0-8.3-3.7-8.3-8.3v0c0-4.6,3.7-8.3,8.3-8.3h0c4.6,0,8.3,3.7,8.3,8.3v0
	C264.8,103.1,261.1,106.9,256.6,106.9z"/>
<path class="st1" d="M279.1,106.9L279.1,106.9c-4.6,0-8.3-3.7-8.3-8.3v0c0-4.6,3.7-8.3,8.3-8.3h0c4.6,0,8.3,3.7,8.3,8.3v0
	C287.4,103.1,283.7,106.9,279.1,106.9z"/>
<path class="st1" d="M301.7,106.9L301.7,106.9c-4.6,0-8.3-3.7-8.3-8.3v0c0-4.6,3.7-8.3,8.3-8.3l0,0c4.6,0,8.3,3.7,8.3,8.3v0
	C310,103.1,306.3,106.9,301.7,106.9z"/>
<path class="st1" d="M324.3,106.9L324.3,106.9c-4.6,0-8.3-3.7-8.3-8.3v0c0-4.6,3.7-8.3,8.3-8.3l0,0c4.6,0,8.3,3.7,8.3,8.3v0
	C332.6,103.1,328.8,106.9,324.3,106.9z"/>
<path class="st1" d="M346.8,106.9L346.8,106.9c-4.6,0-8.3-3.7-8.3-8.3v0c0-4.6,3.7-8.3,8.3-8.3h0c4.6,0,8.3,3.7,8.3,8.3v0
	C355.1,103.1,351.4,106.9,346.8,106.9z"/>
<path class="st1" d="M8.3,84.3L8.3,84.3C3.7,84.3,0,80.6,0,76v0c0-4.6,3.7-8.3,8.3-8.3h0c4.6,0,8.3,3.7,8.3,8.3v0
	C16.6,80.6,12.8,84.3,8.3,84.3z"/>
<path class="st1" d="M8.3,61.7L8.3,61.7C3.7,61.7,0,58,0,53.4v0c0-4.6,3.7-8.3,8.3-8.3h0c4.6,0,8.3,3.7,8.3,8.3v0
	C16.6,58,12.8,61.7,8.3,61.7z"/>
<path class="st1" d="M30.9,84.3L30.9,84.3c-4.6,0-8.3-3.7-8.3-8.3v0c0-4.6,3.7-8.3,8.3-8.3h0c4.6,0,8.3,3.7,8.3,8.3v0
	C39.1,80.6,35.4,84.3,30.9,84.3z"/>
<path class="st1" d="M53.4,84.3L53.4,84.3c-4.6,0-8.3-3.7-8.3-8.3v0c0-4.6,3.7-8.3,8.3-8.3h0c4.6,0,8.3,3.7,8.3,8.3v0
	C61.7,80.6,58,84.3,53.4,84.3z"/>
<path class="st1" d="M76,84.3L76,84.3c-4.6,0-8.3-3.7-8.3-8.3v0c0-4.6,3.7-8.3,8.3-8.3h0c4.6,0,8.3,3.7,8.3,8.3v0
	C84.3,80.6,80.6,84.3,76,84.3z"/>
<path class="st1" d="M98.6,84.3L98.6,84.3c-4.6,0-8.3-3.7-8.3-8.3v0c0-4.6,3.7-8.3,8.3-8.3h0c4.6,0,8.3,3.7,8.3,8.3v0
	C106.9,80.6,103.1,84.3,98.6,84.3z"/>
<path class="st1" d="M121.1,84.3L121.1,84.3c-4.6,0-8.3-3.7-8.3-8.3v0c0-4.6,3.7-8.3,8.3-8.3h0c4.6,0,8.3,3.7,8.3,8.3v0
	C129.4,80.6,125.7,84.3,121.1,84.3z"/>
<path class="st1" d="M143.7,84.3L143.7,84.3c-4.6,0-8.3-3.7-8.3-8.3v0c0-4.6,3.7-8.3,8.3-8.3h0c4.6,0,8.3,3.7,8.3,8.3v0
	C152,80.6,148.3,84.3,143.7,84.3z"/>
<path class="st1" d="M166.3,84.3L166.3,84.3c-4.6,0-8.3-3.7-8.3-8.3v0c0-4.6,3.7-8.3,8.3-8.3h0c4.6,0,8.3,3.7,8.3,8.3v0
	C174.6,80.6,170.8,84.3,166.3,84.3z"/>
<path class="st1" d="M188.8,84.3L188.8,84.3c-4.6,0-8.3-3.7-8.3-8.3v0c0-4.6,3.7-8.3,8.3-8.3h0c4.6,0,8.3,3.7,8.3,8.3v0
	C197.1,80.6,193.4,84.3,188.8,84.3z"/>
<path class="st1" d="M211.4,84.3L211.4,84.3c-4.6,0-8.3-3.7-8.3-8.3v0c0-4.6,3.7-8.3,8.3-8.3h0c4.6,0,8.3,3.7,8.3,8.3v0
	C219.7,80.6,216,84.3,211.4,84.3z"/>
<path class="st1" d="M234,84.3L234,84.3c-4.6,0-8.3-3.7-8.3-8.3v0c0-4.6,3.7-8.3,8.3-8.3h0c4.6,0,8.3,3.7,8.3,8.3v0
	C242.3,80.6,238.5,84.3,234,84.3z"/>
<path class="st1" d="M256.6,84.3L256.6,84.3c-4.6,0-8.3-3.7-8.3-8.3v0c0-4.6,3.7-8.3,8.3-8.3h0c4.6,0,8.3,3.7,8.3,8.3v0
	C264.8,80.6,261.1,84.3,256.6,84.3z"/>
<path class="st1" d="M279.1,84.3L279.1,84.3c-4.6,0-8.3-3.7-8.3-8.3v0c0-4.6,3.7-8.3,8.3-8.3h0c4.6,0,8.3,3.7,8.3,8.3v0
	C287.4,80.6,283.7,84.3,279.1,84.3z"/>
<path class="st1" d="M301.7,84.3L301.7,84.3c-4.6,0-8.3-3.7-8.3-8.3v0c0-4.6,3.7-8.3,8.3-8.3l0,0c4.6,0,8.3,3.7,8.3,8.3v0
	C310,80.6,306.3,84.3,301.7,84.3z"/>
<path class="st1" d="M324.3,84.3L324.3,84.3c-4.6,0-8.3-3.7-8.3-8.3v0c0-4.6,3.7-8.3,8.3-8.3l0,0c4.6,0,8.3,3.7,8.3,8.3v0
	C332.6,80.6,328.8,84.3,324.3,84.3z"/>
<path class="st1" d="M346.8,84.3L346.8,84.3c-4.6,0-8.3-3.7-8.3-8.3v0c0-4.6,3.7-8.3,8.3-8.3h0c4.6,0,8.3,3.7,8.3,8.3v0
	C355.1,80.6,351.4,84.3,346.8,84.3z"/>
<path class="st1" d="M30.9,152L30.9,152c-4.6,0-8.3-3.7-8.3-8.3v0c0-4.6,3.7-8.3,8.3-8.3h0c4.6,0,8.3,3.7,8.3,8.3v0
	C39.2,148.3,35.4,152,30.9,152z"/>
<path class="st1" d="M53.5,152L53.5,152c-4.6,0-8.3-3.7-8.3-8.3v0c0-4.6,3.7-8.3,8.3-8.3h0c4.6,0,8.3,3.7,8.3,8.3v0
	C61.7,148.3,58,152,53.5,152z"/>
<path class="st1" d="M76,152L76,152c-4.6,0-8.3-3.7-8.3-8.3v0c0-4.6,3.7-8.3,8.3-8.3h0c4.6,0,8.3,3.7,8.3,8.3v0
	C84.3,148.3,80.6,152,76,152z"/>
<path class="st1" d="M98.6,152L98.6,152c-4.6,0-8.3-3.7-8.3-8.3v0c0-4.6,3.7-8.3,8.3-8.3h0c4.6,0,8.3,3.7,8.3,8.3v0
	C106.9,148.3,103.1,152,98.6,152z"/>
<path class="st1" d="M121.2,152L121.2,152c-4.6,0-8.3-3.7-8.3-8.3v0c0-4.6,3.7-8.3,8.3-8.3h0c4.6,0,8.3,3.7,8.3,8.3v0
	C129.4,148.3,125.7,152,121.2,152z"/>
<path class="st1" d="M143.7,152L143.7,152c-4.6,0-8.3-3.7-8.3-8.3v0c0-4.6,3.7-8.3,8.3-8.3h0c4.6,0,8.3,3.7,8.3,8.3v0
	C152,148.3,148.3,152,143.7,152z"/>
<path class="st1" d="M166.3,152L166.3,152c-4.6,0-8.3-3.7-8.3-8.3v0c0-4.6,3.7-8.3,8.3-8.3h0c4.6,0,8.3,3.7,8.3,8.3v0
	C174.6,148.3,170.9,152,166.3,152z"/>
<path class="st1" d="M188.9,152L188.9,152c-4.6,0-8.3-3.7-8.3-8.3v0c0-4.6,3.7-8.3,8.3-8.3h0c4.6,0,8.3,3.7,8.3,8.3v0
	C197.2,148.3,193.4,152,188.9,152z"/>
<path class="st1" d="M211.4,152L211.4,152c-4.6,0-8.3-3.7-8.3-8.3v0c0-4.6,3.7-8.3,8.3-8.3h0c4.6,0,8.3,3.7,8.3,8.3v0
	C219.7,148.3,216,152,211.4,152z"/>
<path class="st1" d="M234,152L234,152c-4.6,0-8.3-3.7-8.3-8.3v0c0-4.6,3.7-8.3,8.3-8.3h0c4.6,0,8.3,3.7,8.3,8.3v0
	C242.3,148.3,238.6,152,234,152z"/>
<path class="st1" d="M256.6,152L256.6,152c-4.6,0-8.3-3.7-8.3-8.3v0c0-4.6,3.7-8.3,8.3-8.3l0,0c4.6,0,8.3,3.7,8.3,8.3v0
	C264.9,148.3,261.1,152,256.6,152z"/>
<path class="st1" d="M279.2,152L279.2,152c-4.6,0-8.3-3.7-8.3-8.3v0c0-4.6,3.7-8.3,8.3-8.3l0,0c4.6,0,8.3,3.7,8.3,8.3v0
	C287.4,148.3,283.7,152,279.2,152z"/>
<path class="st1" d="M301.7,152L301.7,152c-4.6,0-8.3-3.7-8.3-8.3v0c0-4.6,3.7-8.3,8.3-8.3h0c4.6,0,8.3,3.7,8.3,8.3v0
	C310,148.3,306.3,152,301.7,152z"/>
<path class="st1" d="M324.3,152L324.3,152c-4.6,0-8.3-3.7-8.3-8.3v0c0-4.6,3.7-8.3,8.3-8.3h0c4.6,0,8.3,3.7,8.3,8.3v0
	C332.6,148.3,328.9,152,324.3,152z"/>
<path class="st1" d="M346.9,152L346.9,152c-4.6,0-8.3-3.7-8.3-8.3v0c0-4.6,3.7-8.3,8.3-8.3h0c4.6,0,8.3,3.7,8.3,8.3v0
	C355.1,148.3,351.4,152,346.9,152z"/>
<path class="st1" d="M98.6,332.6L98.6,332.6c-4.6,0-8.3-3.7-8.3-8.3l0,0c0-4.6,3.7-8.3,8.3-8.3h0c4.6,0,8.3,3.7,8.3,8.3l0,0
	C106.9,328.9,103.1,332.6,98.6,332.6z"/>
<path class="st1" d="M121.2,332.6L121.2,332.6c-4.6,0-8.3-3.7-8.3-8.3l0,0c0-4.6,3.7-8.3,8.3-8.3h0c4.6,0,8.3,3.7,8.3,8.3l0,0
	C129.4,328.9,125.7,332.6,121.2,332.6z"/>
<path class="st1" d="M143.7,332.6L143.7,332.6c-4.6,0-8.3-3.7-8.3-8.3l0,0c0-4.6,3.7-8.3,8.3-8.3h0c4.6,0,8.3,3.7,8.3,8.3l0,0
	C152,328.9,148.3,332.6,143.7,332.6z"/>
<path class="st1" d="M166.3,332.6L166.3,332.6c-4.6,0-8.3-3.7-8.3-8.3l0,0c0-4.6,3.7-8.3,8.3-8.3h0c4.6,0,8.3,3.7,8.3,8.3l0,0
	C174.6,328.9,170.9,332.6,166.3,332.6z"/>
<path class="st1" d="M188.9,332.6L188.9,332.6c-4.6,0-8.3-3.7-8.3-8.3l0,0c0-4.6,3.7-8.3,8.3-8.3h0c4.6,0,8.3,3.7,8.3,8.3l0,0
	C197.2,328.9,193.4,332.6,188.9,332.6z"/>
<path class="st1" d="M211.4,332.6L211.4,332.6c-4.6,0-8.3-3.7-8.3-8.3l0,0c0-4.6,3.7-8.3,8.3-8.3h0c4.6,0,8.3,3.7,8.3,8.3l0,0
	C219.7,328.9,216,332.6,211.4,332.6z"/>
<path class="st1" d="M234,332.6L234,332.6c-4.6,0-8.3-3.7-8.3-8.3l0,0c0-4.6,3.7-8.3,8.3-8.3h0c4.6,0,8.3,3.7,8.3,8.3l0,0
	C242.3,328.9,238.6,332.6,234,332.6z"/>
<path class="st1" d="M256.6,332.6L256.6,332.6c-4.6,0-8.3-3.7-8.3-8.3l0,0c0-4.6,3.7-8.3,8.3-8.3l0,0c4.6,0,8.3,3.7,8.3,8.3l0,0
	C264.9,328.9,261.1,332.6,256.6,332.6z"/>
<path class="st1" d="M279.2,332.6L279.2,332.6c-4.6,0-8.3-3.7-8.3-8.3l0,0c0-4.6,3.7-8.3,8.3-8.3l0,0c4.6,0,8.3,3.7,8.3,8.3l0,0
	C287.4,328.9,283.7,332.6,279.2,332.6z"/>
<path class="st1" d="M301.7,332.6L301.7,332.6c-4.6,0-8.3-3.7-8.3-8.3l0,0c0-4.6,3.7-8.3,8.3-8.3h0c4.6,0,8.3,3.7,8.3,8.3l0,0
	C310,328.9,306.3,332.6,301.7,332.6z"/>
<path class="st1" d="M98.6,355.2L98.6,355.2c-4.6,0-8.3-3.7-8.3-8.3v0c0-4.6,3.7-8.3,8.3-8.3h0c4.6,0,8.3,3.7,8.3,8.3v0
	C106.9,351.4,103.1,355.2,98.6,355.2z"/>
<path class="st1" d="M121.2,355.2L121.2,355.2c-4.6,0-8.3-3.7-8.3-8.3v0c0-4.6,3.7-8.3,8.3-8.3h0c4.6,0,8.3,3.7,8.3,8.3v0
	C129.4,351.4,125.7,355.2,121.2,355.2z"/>
<path class="st1" d="M143.7,355.2L143.7,355.2c-4.6,0-8.3-3.7-8.3-8.3v0c0-4.6,3.7-8.3,8.3-8.3h0c4.6,0,8.3,3.7,8.3,8.3v0
	C152,351.4,148.3,355.2,143.7,355.2z"/>
<path class="st1" d="M166.3,355.2L166.3,355.2c-4.6,0-8.3-3.7-8.3-8.3v0c0-4.6,3.7-8.3,8.3-8.3h0c4.6,0,8.3,3.7,8.3,8.3v0
	C174.6,351.4,170.9,355.2,166.3,355.2z"/>
<path class="st1" d="M188.9,355.2L188.9,355.2c-4.6,0-8.3-3.7-8.3-8.3v0c0-4.6,3.7-8.3,8.3-8.3h0c4.6,0,8.3,3.7,8.3,8.3v0
	C197.2,351.4,193.4,355.2,188.9,355.2z"/>
<path class="st1" d="M211.4,355.2L211.4,355.2c-4.6,0-8.3-3.7-8.3-8.3v0c0-4.6,3.7-8.3,8.3-8.3h0c4.6,0,8.3,3.7,8.3,8.3v0
	C219.7,351.4,216,355.2,211.4,355.2z"/>
<path class="st1" d="M234,355.2L234,355.2c-4.6,0-8.3-3.7-8.3-8.3v0c0-4.6,3.7-8.3,8.3-8.3h0c4.6,0,8.3,3.7,8.3,8.3v0
	C242.3,351.4,238.6,355.2,234,355.2z"/>
<path class="st1" d="M256.6,355.2L256.6,355.2c-4.6,0-8.3-3.7-8.3-8.3v0c0-4.6,3.7-8.3,8.3-8.3l0,0c4.6,0,8.3,3.7,8.3,8.3v0
	C264.9,351.4,261.1,355.2,256.6,355.2z"/>
<path class="st1" d="M279.2,355.2L279.2,355.2c-4.6,0-8.3-3.7-8.3-8.3v0c0-4.6,3.7-8.3,8.3-8.3l0,0c4.6,0,8.3,3.7,8.3,8.3v0
	C287.4,351.4,283.7,355.2,279.2,355.2z"/>
<path class="st1" d="M301.7,355.2L301.7,355.2c-4.6,0-8.3-3.7-8.3-8.3v0c0-4.6,3.7-8.3,8.3-8.3h0c4.6,0,8.3,3.7,8.3,8.3v0
	C310,351.4,306.3,355.2,301.7,355.2z"/>
<path class="st1" d="M121.2,377.8L121.2,377.8c-4.6,0-8.3-3.7-8.3-8.3l0,0c0-4.6,3.7-8.3,8.3-8.3h0c4.6,0,8.3,3.7,8.3,8.3l0,0
	C129.4,374.1,125.7,377.8,121.2,377.8z"/>
<path class="st1" d="M143.7,377.8L143.7,377.8c-4.6,0-8.3-3.7-8.3-8.3l0,0c0-4.6,3.7-8.3,8.3-8.3h0c4.6,0,8.3,3.7,8.3,8.3l0,0
	C152,374.1,148.3,377.8,143.7,377.8z"/>
<path class="st1" d="M166.3,377.8L166.3,377.8c-4.6,0-8.3-3.7-8.3-8.3l0,0c0-4.6,3.7-8.3,8.3-8.3h0c4.6,0,8.3,3.7,8.3,8.3l0,0
	C174.6,374.1,170.9,377.8,166.3,377.8z"/>
<path class="st1" d="M188.9,377.8L188.9,377.8c-4.6,0-8.3-3.7-8.3-8.3l0,0c0-4.6,3.7-8.3,8.3-8.3h0c4.6,0,8.3,3.7,8.3,8.3l0,0
	C197.2,374.1,193.4,377.8,188.9,377.8z"/>
<path class="st1" d="M211.4,377.8L211.4,377.8c-4.6,0-8.3-3.7-8.3-8.3l0,0c0-4.6,3.7-8.3,8.3-8.3h0c4.6,0,8.3,3.7,8.3,8.3l0,0
	C219.7,374.1,216,377.8,211.4,377.8z"/>
<path class="st1" d="M234,377.8L234,377.8c-4.6,0-8.3-3.7-8.3-8.3l0,0c0-4.6,3.7-8.3,8.3-8.3h0c4.6,0,8.3,3.7,8.3,8.3l0,0
	C242.3,374.1,238.6,377.8,234,377.8z"/>
<path class="st1" d="M256.6,377.8L256.6,377.8c-4.6,0-8.3-3.7-8.3-8.3l0,0c0-4.6,3.7-8.3,8.3-8.3l0,0c4.6,0,8.3,3.7,8.3,8.3l0,0
	C264.9,374.1,261.1,377.8,256.6,377.8z"/>
<path class="st1" d="M279.2,377.8L279.2,377.8c-4.6,0-8.3-3.7-8.3-8.3l0,0c0-4.6,3.7-8.3,8.3-8.3l0,0c4.6,0,8.3,3.7,8.3,8.3l0,0
	C287.4,374.1,283.7,377.8,279.2,377.8z"/>
<path class="st1" d="M301.7,377.8L301.7,377.8c-4.6,0-8.3-3.7-8.3-8.3l0,0c0-4.6,3.7-8.3,8.3-8.3h0c4.6,0,8.3,3.7,8.3,8.3l0,0
	C310,374.1,306.3,377.8,301.7,377.8z"/>
<path class="st1" d="M121.2,400.3L121.2,400.3c-4.6,0-8.3-3.7-8.3-8.3v0c0-4.6,3.7-8.3,8.3-8.3h0c4.6,0,8.3,3.7,8.3,8.3v0
	C129.4,396.6,125.7,400.3,121.2,400.3z"/>
<path class="st1" d="M143.7,400.3L143.7,400.3c-4.6,0-8.3-3.7-8.3-8.3v0c0-4.6,3.7-8.3,8.3-8.3h0c4.6,0,8.3,3.7,8.3,8.3v0
	C152,396.6,148.3,400.3,143.7,400.3z"/>
<path class="st1" d="M166.3,400.3L166.3,400.3c-4.6,0-8.3-3.7-8.3-8.3v0c0-4.6,3.7-8.3,8.3-8.3h0c4.6,0,8.3,3.7,8.3,8.3v0
	C174.6,396.6,170.9,400.3,166.3,400.3z"/>
<path class="st1" d="M188.9,400.3L188.9,400.3c-4.6,0-8.3-3.7-8.3-8.3v0c0-4.6,3.7-8.3,8.3-8.3h0c4.6,0,8.3,3.7,8.3,8.3v0
	C197.2,396.6,193.4,400.3,188.9,400.3z"/>
<path class="st1" d="M211.4,400.3L211.4,400.3c-4.6,0-8.3-3.7-8.3-8.3v0c0-4.6,3.7-8.3,8.3-8.3h0c4.6,0,8.3,3.7,8.3,8.3v0
	C219.7,396.6,216,400.3,211.4,400.3z"/>
<path class="st1" d="M234,400.3L234,400.3c-4.6,0-8.3-3.7-8.3-8.3v0c0-4.6,3.7-8.3,8.3-8.3h0c4.6,0,8.3,3.7,8.3,8.3v0
	C242.3,396.6,238.6,400.3,234,400.3z"/>
<path class="st1" d="M256.6,400.3L256.6,400.3c-4.6,0-8.3-3.7-8.3-8.3v0c0-4.6,3.7-8.3,8.3-8.3l0,0c4.6,0,8.3,3.7,8.3,8.3v0
	C264.9,396.6,261.1,400.3,256.6,400.3z"/>
<path class="st1" d="M279.2,400.3L279.2,400.3c-4.6,0-8.3-3.7-8.3-8.3v0c0-4.6,3.7-8.3,8.3-8.3l0,0c4.6,0,8.3,3.7,8.3,8.3v0
	C287.4,396.6,283.7,400.3,279.2,400.3z"/>
<path class="st1" d="M301.7,400.3L301.7,400.3c-4.6,0-8.3-3.7-8.3-8.3v0c0-4.6,3.7-8.3,8.3-8.3h0c4.6,0,8.3,3.7,8.3,8.3v0
	C310,396.6,306.3,400.3,301.7,400.3z"/>
<path class="st1" d="M121.2,423L121.2,423c-4.6,0-8.3-3.7-8.3-8.3l0,0c0-4.6,3.7-8.3,8.3-8.3h0c4.6,0,8.3,3.7,8.3,8.3l0,0
	C129.4,419.2,125.7,423,121.2,423z"/>
<path class="st1" d="M143.7,423L143.7,423c-4.6,0-8.3-3.7-8.3-8.3l0,0c0-4.6,3.7-8.3,8.3-8.3h0c4.6,0,8.3,3.7,8.3,8.3l0,0
	C152,419.2,148.3,423,143.7,423z"/>
<path class="st1" d="M166.3,423L166.3,423c-4.6,0-8.3-3.7-8.3-8.3l0,0c0-4.6,3.7-8.3,8.3-8.3h0c4.6,0,8.3,3.7,8.3,8.3l0,0
	C174.6,419.2,170.9,423,166.3,423z"/>
<path class="st1" d="M188.9,423L188.9,423c-4.6,0-8.3-3.7-8.3-8.3l0,0c0-4.6,3.7-8.3,8.3-8.3h0c4.6,0,8.3,3.7,8.3,8.3l0,0
	C197.2,419.2,193.4,423,188.9,423z"/>
<path class="st1" d="M211.4,423L211.4,423c-4.6,0-8.3-3.7-8.3-8.3l0,0c0-4.6,3.7-8.3,8.3-8.3h0c4.6,0,8.3,3.7,8.3,8.3l0,0
	C219.7,419.2,216,423,211.4,423z"/>
<path class="st1" d="M234,423L234,423c-4.6,0-8.3-3.7-8.3-8.3l0,0c0-4.6,3.7-8.3,8.3-8.3h0c4.6,0,8.3,3.7,8.3,8.3l0,0
	C242.3,419.2,238.6,423,234,423z"/>
<path class="st1" d="M256.6,423L256.6,423c-4.6,0-8.3-3.7-8.3-8.3l0,0c0-4.6,3.7-8.3,8.3-8.3l0,0c4.6,0,8.3,3.7,8.3,8.3l0,0
	C264.9,419.2,261.1,423,256.6,423z"/>
<path class="st1" d="M279.2,423L279.2,423c-4.6,0-8.3-3.7-8.3-8.3l0,0c0-4.6,3.7-8.3,8.3-8.3l0,0c4.6,0,8.3,3.7,8.3,8.3l0,0
	C287.4,419.2,283.7,423,279.2,423z"/>
<path class="st1" d="M301.7,423L301.7,423c-4.6,0-8.3-3.7-8.3-8.3l0,0c0-4.6,3.7-8.3,8.3-8.3h0c4.6,0,8.3,3.7,8.3,8.3l0,0
	C310,419.2,306.3,423,301.7,423z"/>
<path class="st1" d="M121.2,445.5L121.2,445.5c-4.6,0-8.3-3.7-8.3-8.3v0c0-4.6,3.7-8.3,8.3-8.3h0c4.6,0,8.3,3.7,8.3,8.3v0
	C129.4,441.8,125.7,445.5,121.2,445.5z"/>
<path class="st1" d="M143.7,445.5L143.7,445.5c-4.6,0-8.3-3.7-8.3-8.3v0c0-4.6,3.7-8.3,8.3-8.3h0c4.6,0,8.3,3.7,8.3,8.3v0
	C152,441.8,148.3,445.5,143.7,445.5z"/>
<path class="st1" d="M166.3,445.5L166.3,445.5c-4.6,0-8.3-3.7-8.3-8.3v0c0-4.6,3.7-8.3,8.3-8.3h0c4.6,0,8.3,3.7,8.3,8.3v0
	C174.6,441.8,170.9,445.5,166.3,445.5z"/>
<path class="st1" d="M188.9,445.5L188.9,445.5c-4.6,0-8.3-3.7-8.3-8.3v0c0-4.6,3.7-8.3,8.3-8.3h0c4.6,0,8.3,3.7,8.3,8.3v0
	C197.2,441.8,193.4,445.5,188.9,445.5z"/>
<path class="st1" d="M211.4,445.5L211.4,445.5c-4.6,0-8.3-3.7-8.3-8.3v0c0-4.6,3.7-8.3,8.3-8.3h0c4.6,0,8.3,3.7,8.3,8.3v0
	C219.7,441.8,216,445.5,211.4,445.5z"/>
<path class="st1" d="M234,445.5L234,445.5c-4.6,0-8.3-3.7-8.3-8.3v0c0-4.6,3.7-8.3,8.3-8.3h0c4.6,0,8.3,3.7,8.3,8.3v0
	C242.3,441.8,238.6,445.5,234,445.5z"/>
<path class="st1" d="M256.6,445.5L256.6,445.5c-4.6,0-8.3-3.7-8.3-8.3v0c0-4.6,3.7-8.3,8.3-8.3l0,0c4.6,0,8.3,3.7,8.3,8.3v0
	C264.9,441.8,261.1,445.5,256.6,445.5z"/>
<path class="st1" d="M279.2,445.5L279.2,445.5c-4.6,0-8.3-3.7-8.3-8.3v0c0-4.6,3.7-8.3,8.3-8.3l0,0c4.6,0,8.3,3.7,8.3,8.3v0
	C287.4,441.8,283.7,445.5,279.2,445.5z"/>
<path class="st1" d="M301.7,445.5L301.7,445.5c-4.6,0-8.3-3.7-8.3-8.3v0c0-4.6,3.7-8.3,8.3-8.3h0c4.6,0,8.3,3.7,8.3,8.3v0
	C310,441.8,306.3,445.5,301.7,445.5z"/>
<path class="st1" d="M324.3,445.5L324.3,445.5c-4.6,0-8.3-3.7-8.3-8.3v0c0-4.6,3.7-8.3,8.3-8.3h0c4.6,0,8.3,3.7,8.3,8.3v0
	C332.6,441.8,328.9,445.5,324.3,445.5z"/>
<path class="st1" d="M346.9,445.5L346.9,445.5c-4.6,0-8.3-3.7-8.3-8.3v0c0-4.6,3.7-8.3,8.3-8.3h0c4.6,0,8.3,3.7,8.3,8.3v0
	C355.1,441.8,351.4,445.5,346.9,445.5z"/>
<path class="st1" d="M279.2,468.2L279.2,468.2c-4.6,0-8.3-3.7-8.3-8.3v0c0-4.6,3.7-8.3,8.3-8.3h0c4.6,0,8.3,3.7,8.3,8.3v0
	C287.5,464.5,283.7,468.2,279.2,468.2z"/>
<path class="st1" d="M301.7,468.2L301.7,468.2c-4.6,0-8.3-3.7-8.3-8.3v0c0-4.6,3.7-8.3,8.3-8.3l0,0c4.6,0,8.3,3.7,8.3,8.3v0
	C310,464.5,306.3,468.2,301.7,468.2z"/>
<path class="st1" d="M324.3,468.2L324.3,468.2c-4.6,0-8.3-3.7-8.3-8.3v0c0-4.6,3.7-8.3,8.3-8.3l0,0c4.6,0,8.3,3.7,8.3,8.3v0
	C332.6,464.5,328.9,468.2,324.3,468.2z"/>
<path class="st1" d="M279.2,490.7L279.2,490.7c-4.6,0-8.3-3.7-8.3-8.3l0,0c0-4.6,3.7-8.3,8.3-8.3h0c4.6,0,8.3,3.7,8.3,8.3l0,0
	C287.5,487,283.7,490.7,279.2,490.7z"/>
<path class="st1" d="M301.7,490.7L301.7,490.7c-4.6,0-8.3-3.7-8.3-8.3l0,0c0-4.6,3.7-8.3,8.3-8.3l0,0c4.6,0,8.3,3.7,8.3,8.3l0,0
	C310,487,306.3,490.7,301.7,490.7z"/>
<path class="st1" d="M324.3,490.7L324.3,490.7c-4.6,0-8.3-3.7-8.3-8.3l0,0c0-4.6,3.7-8.3,8.3-8.3l0,0c4.6,0,8.3,3.7,8.3,8.3l0,0
	C332.6,487,328.9,490.7,324.3,490.7z"/>
<path class="st1" d="M279.2,513.4L279.2,513.4c-4.6,0-8.3-3.7-8.3-8.3v0c0-4.6,3.7-8.3,8.3-8.3h0c4.6,0,8.3,3.7,8.3,8.3v0
	C287.5,509.6,283.7,513.4,279.2,513.4z"/>
<path class="st1" d="M301.7,513.4L301.7,513.4c-4.6,0-8.3-3.7-8.3-8.3v0c0-4.6,3.7-8.3,8.3-8.3l0,0c4.6,0,8.3,3.7,8.3,8.3v0
	C310,509.6,306.3,513.4,301.7,513.4z"/>
<path class="st1" d="M324.3,513.4L324.3,513.4c-4.6,0-8.3-3.7-8.3-8.3v0c0-4.6,3.7-8.3,8.3-8.3l0,0c4.6,0,8.3,3.7,8.3,8.3v0
	C332.6,509.6,328.9,513.4,324.3,513.4z"/>
<path class="st1" d="M279.2,535.9L279.2,535.9c-4.6,0-8.3-3.7-8.3-8.3v0c0-4.6,3.7-8.3,8.3-8.3h0c4.6,0,8.3,3.7,8.3,8.3v0
	C287.5,532.2,283.7,535.9,279.2,535.9z"/>
<path class="st1" d="M301.7,535.9L301.7,535.9c-4.6,0-8.3-3.7-8.3-8.3v0c0-4.6,3.7-8.3,8.3-8.3l0,0c4.6,0,8.3,3.7,8.3,8.3v0
	C310,532.2,306.3,535.9,301.7,535.9z"/>
<path class="st1" d="M324.3,535.9L324.3,535.9c-4.6,0-8.3-3.7-8.3-8.3v0c0-4.6,3.7-8.3,8.3-8.3l0,0c4.6,0,8.3,3.7,8.3,8.3v0
	C332.6,532.2,328.9,535.9,324.3,535.9z"/>
<path class="st1" d="M279.2,558.6L279.2,558.6c-4.6,0-8.3-3.7-8.3-8.3l0,0c0-4.6,3.7-8.3,8.3-8.3h0c4.6,0,8.3,3.7,8.3,8.3l0,0
	C287.5,554.8,283.7,558.6,279.2,558.6z"/>
<path class="st1" d="M301.7,558.6L301.7,558.6c-4.6,0-8.3-3.7-8.3-8.3l0,0c0-4.6,3.7-8.3,8.3-8.3l0,0c4.6,0,8.3,3.7,8.3,8.3l0,0
	C310,554.8,306.3,558.6,301.7,558.6z"/>
<path class="st1" d="M324.3,558.6L324.3,558.6c-4.6,0-8.3-3.7-8.3-8.3l0,0c0-4.6,3.7-8.3,8.3-8.3l0,0c4.6,0,8.3,3.7,8.3,8.3l0,0
	C332.6,554.8,328.9,558.6,324.3,558.6z"/>
<path class="st1" d="M279.2,581.1L279.2,581.1c-4.6,0-8.3-3.7-8.3-8.3l0,0c0-4.6,3.7-8.3,8.3-8.3h0c4.6,0,8.3,3.7,8.3,8.3l0,0
	C287.5,577.4,283.7,581.1,279.2,581.1z"/>
<path class="st1" d="M301.7,581.1L301.7,581.1c-4.6,0-8.3-3.7-8.3-8.3l0,0c0-4.6,3.7-8.3,8.3-8.3l0,0c4.6,0,8.3,3.7,8.3,8.3l0,0
	C310,577.4,306.3,581.1,301.7,581.1z"/>
<path class="st1" d="M324.3,581.1L324.3,581.1c-4.6,0-8.3-3.7-8.3-8.3l0,0c0-4.6,3.7-8.3,8.3-8.3l0,0c4.6,0,8.3,3.7,8.3,8.3l0,0
	C332.6,577.4,328.9,581.1,324.3,581.1z"/>
<path class="st1" d="M279.2,603.7L279.2,603.7c-4.6,0-8.3-3.7-8.3-8.3l0,0c0-4.6,3.7-8.3,8.3-8.3h0c4.6,0,8.3,3.7,8.3,8.3l0,0
	C287.5,600,283.7,603.7,279.2,603.7z"/>
<path class="st1" d="M301.7,603.7L301.7,603.7c-4.6,0-8.3-3.7-8.3-8.3l0,0c0-4.6,3.7-8.3,8.3-8.3l0,0c4.6,0,8.3,3.7,8.3,8.3l0,0
	C310,600,306.3,603.7,301.7,603.7z"/>
<path class="st1" d="M324.3,603.7L324.3,603.7c-4.6,0-8.3-3.7-8.3-8.3l0,0c0-4.6,3.7-8.3,8.3-8.3l0,0c4.6,0,8.3,3.7,8.3,8.3l0,0
	C332.6,600,328.9,603.7,324.3,603.7z"/>
<path class="st1" d="M30.9,129.4L30.9,129.4c-4.6,0-8.3-3.7-8.3-8.3v0c0-4.6,3.7-8.3,8.3-8.3h0c4.6,0,8.3,3.7,8.3,8.3v0
	C39.2,125.7,35.4,129.4,30.9,129.4z"/>
<path class="st1" d="M53.5,129.4L53.5,129.4c-4.6,0-8.3-3.7-8.3-8.3v0c0-4.6,3.7-8.3,8.3-8.3h0c4.6,0,8.3,3.7,8.3,8.3v0
	C61.7,125.7,58,129.4,53.5,129.4z"/>
<path class="st1" d="M76,129.4L76,129.4c-4.6,0-8.3-3.7-8.3-8.3v0c0-4.6,3.7-8.3,8.3-8.3h0c4.6,0,8.3,3.7,8.3,8.3v0
	C84.3,125.7,80.6,129.4,76,129.4z"/>
<path class="st1" d="M98.6,129.4L98.6,129.4c-4.6,0-8.3-3.7-8.3-8.3v0c0-4.6,3.7-8.3,8.3-8.3h0c4.6,0,8.3,3.7,8.3,8.3v0
	C106.9,125.7,103.1,129.4,98.6,129.4z"/>
<path class="st1" d="M121.2,129.4L121.2,129.4c-4.6,0-8.3-3.7-8.3-8.3v0c0-4.6,3.7-8.3,8.3-8.3h0c4.6,0,8.3,3.7,8.3,8.3v0
	C129.4,125.7,125.7,129.4,121.2,129.4z"/>
<path class="st1" d="M143.7,129.4L143.7,129.4c-4.6,0-8.3-3.7-8.3-8.3v0c0-4.6,3.7-8.3,8.3-8.3h0c4.6,0,8.3,3.7,8.3,8.3v0
	C152,125.7,148.3,129.4,143.7,129.4z"/>
<path class="st1" d="M166.3,129.4L166.3,129.4c-4.6,0-8.3-3.7-8.3-8.3v0c0-4.6,3.7-8.3,8.3-8.3h0c4.6,0,8.3,3.7,8.3,8.3v0
	C174.6,125.7,170.9,129.4,166.3,129.4z"/>
<path class="st1" d="M188.9,129.4L188.9,129.4c-4.6,0-8.3-3.7-8.3-8.3v0c0-4.6,3.7-8.3,8.3-8.3h0c4.6,0,8.3,3.7,8.3,8.3v0
	C197.2,125.7,193.4,129.4,188.9,129.4z"/>
<path class="st1" d="M211.4,129.4L211.4,129.4c-4.6,0-8.3-3.7-8.3-8.3v0c0-4.6,3.7-8.3,8.3-8.3h0c4.6,0,8.3,3.7,8.3,8.3v0
	C219.7,125.7,216,129.4,211.4,129.4z"/>
<path class="st1" d="M234,129.4L234,129.4c-4.6,0-8.3-3.7-8.3-8.3v0c0-4.6,3.7-8.3,8.3-8.3h0c4.6,0,8.3,3.7,8.3,8.3v0
	C242.3,125.7,238.6,129.4,234,129.4z"/>
<path class="st1" d="M256.6,129.4L256.6,129.4c-4.6,0-8.3-3.7-8.3-8.3v0c0-4.6,3.7-8.3,8.3-8.3l0,0c4.6,0,8.3,3.7,8.3,8.3v0
	C264.9,125.7,261.1,129.4,256.6,129.4z"/>
<path class="st1" d="M279.2,129.4L279.2,129.4c-4.6,0-8.3-3.7-8.3-8.3v0c0-4.6,3.7-8.3,8.3-8.3l0,0c4.6,0,8.3,3.7,8.3,8.3v0
	C287.4,125.7,283.7,129.4,279.2,129.4z"/>
<path class="st1" d="M301.7,129.4L301.7,129.4c-4.6,0-8.3-3.7-8.3-8.3v0c0-4.6,3.7-8.3,8.3-8.3h0c4.6,0,8.3,3.7,8.3,8.3v0
	C310,125.7,306.3,129.4,301.7,129.4z"/>
<path class="st1" d="M324.3,129.4L324.3,129.4c-4.6,0-8.3-3.7-8.3-8.3v0c0-4.6,3.7-8.3,8.3-8.3h0c4.6,0,8.3,3.7,8.3,8.3v0
	C332.6,125.7,328.9,129.4,324.3,129.4z"/>
<path class="st1" d="M346.9,129.4L346.9,129.4c-4.6,0-8.3-3.7-8.3-8.3v0c0-4.6,3.7-8.3,8.3-8.3h0c4.6,0,8.3,3.7,8.3,8.3v0
	C355.1,125.7,351.4,129.4,346.9,129.4z"/>
<path class="st1" d="M53.5,174.6L53.5,174.6c-4.6,0-8.3-3.7-8.3-8.3v0c0-4.6,3.7-8.3,8.3-8.3h0c4.6,0,8.3,3.7,8.3,8.3v0
	C61.8,170.8,58,174.6,53.5,174.6z"/>
<path class="st1" d="M76,174.6L76,174.6c-4.6,0-8.3-3.7-8.3-8.3v0c0-4.6,3.7-8.3,8.3-8.3h0c4.6,0,8.3,3.7,8.3,8.3v0
	C84.3,170.8,80.6,174.6,76,174.6z"/>
<path class="st1" d="M98.6,174.6L98.6,174.6c-4.6,0-8.3-3.7-8.3-8.3v0c0-4.6,3.7-8.3,8.3-8.3h0c4.6,0,8.3,3.7,8.3,8.3v0
	C106.9,170.8,103.2,174.6,98.6,174.6z"/>
<path class="st1" d="M121.2,174.6L121.2,174.6c-4.6,0-8.3-3.7-8.3-8.3v0c0-4.6,3.7-8.3,8.3-8.3h0c4.6,0,8.3,3.7,8.3,8.3v0
	C129.5,170.8,125.7,174.6,121.2,174.6z"/>
<path class="st1" d="M143.8,174.6L143.8,174.6c-4.6,0-8.3-3.7-8.3-8.3v0c0-4.6,3.7-8.3,8.3-8.3h0c4.6,0,8.3,3.7,8.3,8.3v0
	C152,170.8,148.3,174.6,143.8,174.6z"/>
<path class="st1" d="M166.3,174.6L166.3,174.6c-4.6,0-8.3-3.7-8.3-8.3v0c0-4.6,3.7-8.3,8.3-8.3h0c4.6,0,8.3,3.7,8.3,8.3v0
	C174.6,170.8,170.9,174.6,166.3,174.6z"/>
<path class="st1" d="M188.9,174.6L188.9,174.6c-4.6,0-8.3-3.7-8.3-8.3v0c0-4.6,3.7-8.3,8.3-8.3h0c4.6,0,8.3,3.7,8.3,8.3v0
	C197.2,170.8,193.4,174.6,188.9,174.6z"/>
<path class="st1" d="M211.5,174.6L211.5,174.6c-4.6,0-8.3-3.7-8.3-8.3v0c0-4.6,3.7-8.3,8.3-8.3h0c4.6,0,8.3,3.7,8.3,8.3v0
	C219.7,170.8,216,174.6,211.5,174.6z"/>
<path class="st1" d="M234,174.6L234,174.6c-4.6,0-8.3-3.7-8.3-8.3v0c0-4.6,3.7-8.3,8.3-8.3h0c4.6,0,8.3,3.7,8.3,8.3v0
	C242.3,170.8,238.6,174.6,234,174.6z"/>
<path class="st1" d="M256.6,174.6L256.6,174.6c-4.6,0-8.3-3.7-8.3-8.3v0c0-4.6,3.7-8.3,8.3-8.3l0,0c4.6,0,8.3,3.7,8.3,8.3v0
	C264.9,170.8,261.2,174.6,256.6,174.6z"/>
<path class="st1" d="M53.4,219.7L53.4,219.7c-4.6,0-8.3-3.7-8.3-8.3v0c0-4.6,3.7-8.3,8.3-8.3h0c4.6,0,8.3,3.7,8.3,8.3v0
	C61.7,216,58,219.7,53.4,219.7z"/>
<path class="st1" d="M76,219.7L76,219.7c-4.6,0-8.3-3.7-8.3-8.3v0c0-4.6,3.7-8.3,8.3-8.3h0c4.6,0,8.3,3.7,8.3,8.3v0
	C84.3,216,80.6,219.7,76,219.7z"/>
<path class="st1" d="M98.6,219.7L98.6,219.7c-4.6,0-8.3-3.7-8.3-8.3v0c0-4.6,3.7-8.3,8.3-8.3h0c4.6,0,8.3,3.7,8.3,8.3v0
	C106.9,216,103.1,219.7,98.6,219.7z"/>
<path class="st1" d="M121.2,219.7L121.2,219.7c-4.6,0-8.3-3.7-8.3-8.3v0c0-4.6,3.7-8.3,8.3-8.3h0c4.6,0,8.3,3.7,8.3,8.3v0
	C129.4,216,125.7,219.7,121.2,219.7z"/>
<path class="st1" d="M143.7,219.7L143.7,219.7c-4.6,0-8.3-3.7-8.3-8.3v0c0-4.6,3.7-8.3,8.3-8.3h0c4.6,0,8.3,3.7,8.3,8.3v0
	C152,216,148.3,219.7,143.7,219.7z"/>
<path class="st1" d="M166.3,219.7L166.3,219.7c-4.6,0-8.3-3.7-8.3-8.3v0c0-4.6,3.7-8.3,8.3-8.3h0c4.6,0,8.3,3.7,8.3,8.3v0
	C174.6,216,170.9,219.7,166.3,219.7z"/>
<path class="st1" d="M188.9,219.7L188.9,219.7c-4.6,0-8.3-3.7-8.3-8.3v0c0-4.6,3.7-8.3,8.3-8.3h0c4.6,0,8.3,3.7,8.3,8.3v0
	C197.2,216,193.4,219.7,188.9,219.7z"/>
<path class="st1" d="M211.4,219.7L211.4,219.7c-4.6,0-8.3-3.7-8.3-8.3v0c0-4.6,3.7-8.3,8.3-8.3h0c4.6,0,8.3,3.7,8.3,8.3v0
	C219.7,216,216,219.7,211.4,219.7z"/>
<path class="st1" d="M234,219.7L234,219.7c-4.6,0-8.3-3.7-8.3-8.3v0c0-4.6,3.7-8.3,8.3-8.3h0c4.6,0,8.3,3.7,8.3,8.3v0
	C242.3,216,238.6,219.7,234,219.7z"/>
<path class="st1" d="M256.6,219.7L256.6,219.7c-4.6,0-8.3-3.7-8.3-8.3v0c0-4.6,3.7-8.3,8.3-8.3h0c4.6,0,8.3,3.7,8.3,8.3v0
	C264.9,216,261.1,219.7,256.6,219.7z"/>
<path class="st1" d="M53.4,197.1L53.4,197.1c-4.6,0-8.3-3.7-8.3-8.3v0c0-4.6,3.7-8.3,8.3-8.3h0c4.6,0,8.3,3.7,8.3,8.3v0
	C61.7,193.4,58,197.1,53.4,197.1z"/>
<path class="st1" d="M76,197.1L76,197.1c-4.6,0-8.3-3.7-8.3-8.3v0c0-4.6,3.7-8.3,8.3-8.3h0c4.6,0,8.3,3.7,8.3,8.3v0
	C84.3,193.4,80.6,197.1,76,197.1z"/>
<path class="st1" d="M98.6,197.1L98.6,197.1c-4.6,0-8.3-3.7-8.3-8.3v0c0-4.6,3.7-8.3,8.3-8.3h0c4.6,0,8.3,3.7,8.3,8.3v0
	C106.9,193.4,103.1,197.1,98.6,197.1z"/>
<path class="st1" d="M121.2,197.1L121.2,197.1c-4.6,0-8.3-3.7-8.3-8.3v0c0-4.6,3.7-8.3,8.3-8.3h0c4.6,0,8.3,3.7,8.3,8.3v0
	C129.4,193.4,125.7,197.1,121.2,197.1z"/>
<path class="st1" d="M143.7,197.1L143.7,197.1c-4.6,0-8.3-3.7-8.3-8.3v0c0-4.6,3.7-8.3,8.3-8.3h0c4.6,0,8.3,3.7,8.3,8.3v0
	C152,193.4,148.3,197.1,143.7,197.1z"/>
<path class="st1" d="M166.3,197.1L166.3,197.1c-4.6,0-8.3-3.7-8.3-8.3v0c0-4.6,3.7-8.3,8.3-8.3h0c4.6,0,8.3,3.7,8.3,8.3v0
	C174.6,193.4,170.9,197.1,166.3,197.1z"/>
<path class="st1" d="M188.9,197.1L188.9,197.1c-4.6,0-8.3-3.7-8.3-8.3v0c0-4.6,3.7-8.3,8.3-8.3h0c4.6,0,8.3,3.7,8.3,8.3v0
	C197.2,193.4,193.4,197.1,188.9,197.1z"/>
<path class="st1" d="M211.4,197.1L211.4,197.1c-4.6,0-8.3-3.7-8.3-8.3v0c0-4.6,3.7-8.3,8.3-8.3h0c4.6,0,8.3,3.7,8.3,8.3v0
	C219.7,193.4,216,197.1,211.4,197.1z"/>
<path class="st1" d="M234,197.1L234,197.1c-4.6,0-8.3-3.7-8.3-8.3v0c0-4.6,3.7-8.3,8.3-8.3h0c4.6,0,8.3,3.7,8.3,8.3v0
	C242.3,193.4,238.6,197.1,234,197.1z"/>
<path class="st1" d="M256.6,197.1L256.6,197.1c-4.6,0-8.3-3.7-8.3-8.3v0c0-4.6,3.7-8.3,8.3-8.3h0c4.6,0,8.3,3.7,8.3,8.3v0
	C264.9,193.4,261.1,197.1,256.6,197.1z"/>
<path class="st1" d="M76,242.3L76,242.3c-4.6,0-8.3-3.7-8.3-8.3v0c0-4.6,3.7-8.3,8.3-8.3h0c4.6,0,8.3,3.7,8.3,8.3v0
	C84.3,238.5,80.6,242.3,76,242.3z"/>
<path class="st1" d="M98.6,242.3L98.6,242.3c-4.6,0-8.3-3.7-8.3-8.3v0c0-4.6,3.7-8.3,8.3-8.3h0c4.6,0,8.3,3.7,8.3,8.3v0
	C106.9,238.5,103.2,242.3,98.6,242.3z"/>
<path class="st1" d="M121.2,242.3L121.2,242.3c-4.6,0-8.3-3.7-8.3-8.3v0c0-4.6,3.7-8.3,8.3-8.3h0c4.6,0,8.3,3.7,8.3,8.3v0
	C129.5,238.5,125.7,242.3,121.2,242.3z"/>
<path class="st1" d="M143.8,242.3L143.8,242.3c-4.6,0-8.3-3.7-8.3-8.3v0c0-4.6,3.7-8.3,8.3-8.3h0c4.6,0,8.3,3.7,8.3,8.3v0
	C152,238.5,148.3,242.3,143.8,242.3z"/>
<path class="st1" d="M166.3,242.3L166.3,242.3c-4.6,0-8.3-3.7-8.3-8.3v0c0-4.6,3.7-8.3,8.3-8.3h0c4.6,0,8.3,3.7,8.3,8.3v0
	C174.6,238.5,170.9,242.3,166.3,242.3z"/>
<path class="st1" d="M188.9,242.3L188.9,242.3c-4.6,0-8.3-3.7-8.3-8.3v0c0-4.6,3.7-8.3,8.3-8.3h0c4.6,0,8.3,3.7,8.3,8.3v0
	C197.2,238.5,193.4,242.3,188.9,242.3z"/>
<path class="st1" d="M211.5,242.3L211.5,242.3c-4.6,0-8.3-3.7-8.3-8.3v0c0-4.6,3.7-8.3,8.3-8.3h0c4.6,0,8.3,3.7,8.3,8.3v0
	C219.7,238.5,216,242.3,211.5,242.3z"/>
<path class="st1" d="M234,242.3L234,242.3c-4.6,0-8.3-3.7-8.3-8.3v0c0-4.6,3.7-8.3,8.3-8.3h0c4.6,0,8.3,3.7,8.3,8.3v0
	C242.3,238.5,238.6,242.3,234,242.3z"/>
<path class="st1" d="M256.6,242.3L256.6,242.3c-4.6,0-8.3-3.7-8.3-8.3v0c0-4.6,3.7-8.3,8.3-8.3l0,0c4.6,0,8.3,3.7,8.3,8.3v0
	C264.9,238.5,261.2,242.3,256.6,242.3z"/>
<path class="st1" d="M98.6,287.4L98.6,287.4c-4.6,0-8.3-3.7-8.3-8.3l0,0c0-4.6,3.7-8.3,8.3-8.3h0c4.6,0,8.3,3.7,8.3,8.3l0,0
	C106.9,283.7,103.1,287.4,98.6,287.4z"/>
<path class="st1" d="M121.2,287.4L121.2,287.4c-4.6,0-8.3-3.7-8.3-8.3l0,0c0-4.6,3.7-8.3,8.3-8.3h0c4.6,0,8.3,3.7,8.3,8.3l0,0
	C129.4,283.7,125.7,287.4,121.2,287.4z"/>
<path class="st1" d="M143.7,287.4L143.7,287.4c-4.6,0-8.3-3.7-8.3-8.3l0,0c0-4.6,3.7-8.3,8.3-8.3h0c4.6,0,8.3,3.7,8.3,8.3l0,0
	C152,283.7,148.3,287.4,143.7,287.4z"/>
<path class="st1" d="M166.3,287.4L166.3,287.4c-4.6,0-8.3-3.7-8.3-8.3l0,0c0-4.6,3.7-8.3,8.3-8.3h0c4.6,0,8.3,3.7,8.3,8.3l0,0
	C174.6,283.7,170.9,287.4,166.3,287.4z"/>
<path class="st1" d="M188.9,287.4L188.9,287.4c-4.6,0-8.3-3.7-8.3-8.3l0,0c0-4.6,3.7-8.3,8.3-8.3h0c4.6,0,8.3,3.7,8.3,8.3l0,0
	C197.2,283.7,193.4,287.4,188.9,287.4z"/>
<path class="st1" d="M211.4,287.4L211.4,287.4c-4.6,0-8.3-3.7-8.3-8.3l0,0c0-4.6,3.7-8.3,8.3-8.3h0c4.6,0,8.3,3.7,8.3,8.3l0,0
	C219.7,283.7,216,287.4,211.4,287.4z"/>
<path class="st1" d="M234,287.4L234,287.4c-4.6,0-8.3-3.7-8.3-8.3l0,0c0-4.6,3.7-8.3,8.3-8.3h0c4.6,0,8.3,3.7,8.3,8.3l0,0
	C242.3,283.7,238.6,287.4,234,287.4z"/>
<path class="st1" d="M256.6,287.4L256.6,287.4c-4.6,0-8.3-3.7-8.3-8.3l0,0c0-4.6,3.7-8.3,8.3-8.3h0c4.6,0,8.3,3.7,8.3,8.3l0,0
	C264.9,283.7,261.1,287.4,256.6,287.4z"/>
<path class="st1" d="M76,264.8L76,264.8c-4.6,0-8.3-3.7-8.3-8.3l0,0c0-4.6,3.7-8.3,8.3-8.3h0c4.6,0,8.3,3.7,8.3,8.3l0,0
	C84.3,261.1,80.6,264.8,76,264.8z"/>
<path class="st1" d="M98.6,264.8L98.6,264.8c-4.6,0-8.3-3.7-8.3-8.3l0,0c0-4.6,3.7-8.3,8.3-8.3h0c4.6,0,8.3,3.7,8.3,8.3l0,0
	C106.9,261.1,103.1,264.8,98.6,264.8z"/>
<path class="st1" d="M121.2,264.8L121.2,264.8c-4.6,0-8.3-3.7-8.3-8.3l0,0c0-4.6,3.7-8.3,8.3-8.3h0c4.6,0,8.3,3.7,8.3,8.3l0,0
	C129.4,261.1,125.7,264.8,121.2,264.8z"/>
<path class="st1" d="M143.7,264.8L143.7,264.8c-4.6,0-8.3-3.7-8.3-8.3l0,0c0-4.6,3.7-8.3,8.3-8.3h0c4.6,0,8.3,3.7,8.3,8.3l0,0
	C152,261.1,148.3,264.8,143.7,264.8z"/>
<path class="st1" d="M166.3,264.8L166.3,264.8c-4.6,0-8.3-3.7-8.3-8.3l0,0c0-4.6,3.7-8.3,8.3-8.3h0c4.6,0,8.3,3.7,8.3,8.3l0,0
	C174.6,261.1,170.9,264.8,166.3,264.8z"/>
<path class="st1" d="M188.9,264.8L188.9,264.8c-4.6,0-8.3-3.7-8.3-8.3l0,0c0-4.6,3.7-8.3,8.3-8.3h0c4.6,0,8.3,3.7,8.3,8.3l0,0
	C197.2,261.1,193.4,264.8,188.9,264.8z"/>
<path class="st1" d="M211.4,264.8L211.4,264.8c-4.6,0-8.3-3.7-8.3-8.3l0,0c0-4.6,3.7-8.3,8.3-8.3h0c4.6,0,8.3,3.7,8.3,8.3l0,0
	C219.7,261.1,216,264.8,211.4,264.8z"/>
<path class="st1" d="M234,264.8L234,264.8c-4.6,0-8.3-3.7-8.3-8.3l0,0c0-4.6,3.7-8.3,8.3-8.3h0c4.6,0,8.3,3.7,8.3,8.3l0,0
	C242.3,261.1,238.6,264.8,234,264.8z"/>
<path class="st1" d="M256.6,264.8L256.6,264.8c-4.6,0-8.3-3.7-8.3-8.3l0,0c0-4.6,3.7-8.3,8.3-8.3h0c4.6,0,8.3,3.7,8.3,8.3l0,0
	C264.9,261.1,261.1,264.8,256.6,264.8z"/>
<path class="st1" d="M121.2,468.2L121.2,468.2c-4.6,0-8.3-3.7-8.3-8.3v0c0-4.6,3.7-8.3,8.3-8.3h0c4.6,0,8.3,3.7,8.3,8.3v0
	C129.5,464.5,125.8,468.2,121.2,468.2z"/>
<path class="st1" d="M143.8,468.2L143.8,468.2c-4.6,0-8.3-3.7-8.3-8.3v0c0-4.6,3.7-8.3,8.3-8.3h0c4.6,0,8.3,3.7,8.3,8.3v0
	C152.1,464.5,148.3,468.2,143.8,468.2z"/>
<path class="st1" d="M166.3,468.2L166.3,468.2c-4.6,0-8.3-3.7-8.3-8.3v0c0-4.6,3.7-8.3,8.3-8.3h0c4.6,0,8.3,3.7,8.3,8.3v0
	C174.6,464.5,170.9,468.2,166.3,468.2z"/>
<path class="st1" d="M188.9,468.2L188.9,468.2c-4.6,0-8.3-3.7-8.3-8.3v0c0-4.6,3.7-8.3,8.3-8.3h0c4.6,0,8.3,3.7,8.3,8.3v0
	C197.2,464.5,193.5,468.2,188.9,468.2z"/>
<path class="st1" d="M211.5,468.2L211.5,468.2c-4.6,0-8.3-3.7-8.3-8.3v0c0-4.6,3.7-8.3,8.3-8.3h0c4.6,0,8.3,3.7,8.3,8.3v0
	C219.8,464.5,216,468.2,211.5,468.2z"/>
<path class="st1" d="M234.1,468.2L234.1,468.2c-4.6,0-8.3-3.7-8.3-8.3v0c0-4.6,3.7-8.3,8.3-8.3h0c4.6,0,8.3,3.7,8.3,8.3v0
	C242.3,464.5,238.6,468.2,234.1,468.2z"/>
<path class="st1" d="M256.6,468.2L256.6,468.2c-4.6,0-8.3-3.7-8.3-8.3v0c0-4.6,3.7-8.3,8.3-8.3l0,0c4.6,0,8.3,3.7,8.3,8.3v0
	C264.9,464.5,261.2,468.2,256.6,468.2z"/>
<path class="st1" d="M143.7,513.3L143.7,513.3c-4.6,0-8.3-3.7-8.3-8.3v0c0-4.6,3.7-8.3,8.3-8.3h0c4.6,0,8.3,3.7,8.3,8.3v0
	C152,509.6,148.3,513.3,143.7,513.3z"/>
<path class="st1" d="M166.3,513.3L166.3,513.3c-4.6,0-8.3-3.7-8.3-8.3v0c0-4.6,3.7-8.3,8.3-8.3h0c4.6,0,8.3,3.7,8.3,8.3v0
	C174.6,509.6,170.9,513.3,166.3,513.3z"/>
<path class="st1" d="M188.9,513.3L188.9,513.3c-4.6,0-8.3-3.7-8.3-8.3v0c0-4.6,3.7-8.3,8.3-8.3h0c4.6,0,8.3,3.7,8.3,8.3v0
	C197.2,509.6,193.4,513.3,188.9,513.3z"/>
<path class="st1" d="M211.5,513.3L211.5,513.3c-4.6,0-8.3-3.7-8.3-8.3v0c0-4.6,3.7-8.3,8.3-8.3h0c4.6,0,8.3,3.7,8.3,8.3v0
	C219.7,509.6,216,513.3,211.5,513.3z"/>
<path class="st1" d="M234,513.3L234,513.3c-4.6,0-8.3-3.7-8.3-8.3v0c0-4.6,3.7-8.3,8.3-8.3h0c4.6,0,8.3,3.7,8.3,8.3v0
	C242.3,509.6,238.6,513.3,234,513.3z"/>
<path class="st1" d="M256.6,513.3L256.6,513.3c-4.6,0-8.3-3.7-8.3-8.3v0c0-4.6,3.7-8.3,8.3-8.3h0c4.6,0,8.3,3.7,8.3,8.3v0
	C264.9,509.6,261.2,513.3,256.6,513.3z"/>
<path class="st1" d="M143.7,490.8L143.7,490.8c-4.6,0-8.3-3.7-8.3-8.3v0c0-4.6,3.7-8.3,8.3-8.3h0c4.6,0,8.3,3.7,8.3,8.3v0
	C152,487,148.3,490.8,143.7,490.8z"/>
<path class="st1" d="M166.3,490.8L166.3,490.8c-4.6,0-8.3-3.7-8.3-8.3v0c0-4.6,3.7-8.3,8.3-8.3h0c4.6,0,8.3,3.7,8.3,8.3v0
	C174.6,487,170.9,490.8,166.3,490.8z"/>
<path class="st1" d="M188.9,490.8L188.9,490.8c-4.6,0-8.3-3.7-8.3-8.3v0c0-4.6,3.7-8.3,8.3-8.3h0c4.6,0,8.3,3.7,8.3,8.3v0
	C197.2,487,193.4,490.8,188.9,490.8z"/>
<path class="st1" d="M211.5,490.8L211.5,490.8c-4.6,0-8.3-3.7-8.3-8.3v0c0-4.6,3.7-8.3,8.3-8.3h0c4.6,0,8.3,3.7,8.3,8.3v0
	C219.7,487,216,490.8,211.5,490.8z"/>
<path class="st1" d="M234,490.8L234,490.8c-4.6,0-8.3-3.7-8.3-8.3v0c0-4.6,3.7-8.3,8.3-8.3h0c4.6,0,8.3,3.7,8.3,8.3v0
	C242.3,487,238.6,490.8,234,490.8z"/>
<path class="st1" d="M256.6,490.8L256.6,490.8c-4.6,0-8.3-3.7-8.3-8.3v0c0-4.6,3.7-8.3,8.3-8.3h0c4.6,0,8.3,3.7,8.3,8.3v0
	C264.9,487,261.2,490.8,256.6,490.8z"/>
<path class="st1" d="M143.8,535.9L143.8,535.9c-4.6,0-8.3-3.7-8.3-8.3l0,0c0-4.6,3.7-8.3,8.3-8.3h0c4.6,0,8.3,3.7,8.3,8.3l0,0
	C152.1,532.2,148.3,535.9,143.8,535.9z"/>
<path class="st1" d="M166.3,535.9L166.3,535.9c-4.6,0-8.3-3.7-8.3-8.3l0,0c0-4.6,3.7-8.3,8.3-8.3h0c4.6,0,8.3,3.7,8.3,8.3l0,0
	C174.6,532.2,170.9,535.9,166.3,535.9z"/>
<path class="st1" d="M188.9,535.9L188.9,535.9c-4.6,0-8.3-3.7-8.3-8.3l0,0c0-4.6,3.7-8.3,8.3-8.3h0c4.6,0,8.3,3.7,8.3,8.3l0,0
	C197.2,532.2,193.5,535.9,188.9,535.9z"/>
<path class="st1" d="M211.5,535.9L211.5,535.9c-4.6,0-8.3-3.7-8.3-8.3l0,0c0-4.6,3.7-8.3,8.3-8.3h0c4.6,0,8.3,3.7,8.3,8.3l0,0
	C219.8,532.2,216,535.9,211.5,535.9z"/>
<path class="st1" d="M234.1,535.9L234.1,535.9c-4.6,0-8.3-3.7-8.3-8.3l0,0c0-4.6,3.7-8.3,8.3-8.3h0c4.6,0,8.3,3.7,8.3,8.3l0,0
	C242.3,532.2,238.6,535.9,234.1,535.9z"/>
<path class="st1" d="M256.6,535.9L256.6,535.9c-4.6,0-8.3-3.7-8.3-8.3l0,0c0-4.6,3.7-8.3,8.3-8.3l0,0c4.6,0,8.3,3.7,8.3,8.3l0,0
	C264.9,532.2,261.2,535.9,256.6,535.9z"/>
<path class="st1" d="M166.3,581L166.3,581c-4.6,0-8.3-3.7-8.3-8.3v0c0-4.6,3.7-8.3,8.3-8.3h0c4.6,0,8.3,3.7,8.3,8.3v0
	C174.6,577.3,170.9,581,166.3,581z"/>
<path class="st1" d="M188.9,581L188.9,581c-4.6,0-8.3-3.7-8.3-8.3v0c0-4.6,3.7-8.3,8.3-8.3h0c4.6,0,8.3,3.7,8.3,8.3v0
	C197.2,577.3,193.4,581,188.9,581z"/>
<path class="st1" d="M211.5,581L211.5,581c-4.6,0-8.3-3.7-8.3-8.3v0c0-4.6,3.7-8.3,8.3-8.3h0c4.6,0,8.3,3.7,8.3,8.3v0
	C219.7,577.3,216,581,211.5,581z"/>
<path class="st1" d="M234,581L234,581c-4.6,0-8.3-3.7-8.3-8.3v0c0-4.6,3.7-8.3,8.3-8.3h0c4.6,0,8.3,3.7,8.3,8.3v0
	C242.3,577.3,238.6,581,234,581z"/>
<path class="st1" d="M256.6,581L256.6,581c-4.6,0-8.3-3.7-8.3-8.3v0c0-4.6,3.7-8.3,8.3-8.3h0c4.6,0,8.3,3.7,8.3,8.3v0
	C264.9,577.3,261.2,581,256.6,581z"/>
<path class="st1" d="M143.7,558.5L143.7,558.5c-4.6,0-8.3-3.7-8.3-8.3l0,0c0-4.6,3.7-8.3,8.3-8.3h0c4.6,0,8.3,3.7,8.3,8.3l0,0
	C152,554.7,148.3,558.5,143.7,558.5z"/>
<path class="st1" d="M166.3,558.5L166.3,558.5c-4.6,0-8.3-3.7-8.3-8.3l0,0c0-4.6,3.7-8.3,8.3-8.3h0c4.6,0,8.3,3.7,8.3,8.3l0,0
	C174.6,554.7,170.9,558.5,166.3,558.5z"/>
<path class="st1" d="M188.9,558.5L188.9,558.5c-4.6,0-8.3-3.7-8.3-8.3l0,0c0-4.6,3.7-8.3,8.3-8.3h0c4.6,0,8.3,3.7,8.3,8.3l0,0
	C197.2,554.7,193.4,558.5,188.9,558.5z"/>
<path class="st1" d="M211.5,558.5L211.5,558.5c-4.6,0-8.3-3.7-8.3-8.3l0,0c0-4.6,3.7-8.3,8.3-8.3h0c4.6,0,8.3,3.7,8.3,8.3l0,0
	C219.7,554.7,216,558.5,211.5,558.5z"/>
<path class="st1" d="M234,558.5L234,558.5c-4.6,0-8.3-3.7-8.3-8.3l0,0c0-4.6,3.7-8.3,8.3-8.3h0c4.6,0,8.3,3.7,8.3,8.3l0,0
	C242.3,554.7,238.6,558.5,234,558.5z"/>
<path class="st1" d="M256.6,558.5L256.6,558.5c-4.6,0-8.3-3.7-8.3-8.3l0,0c0-4.6,3.7-8.3,8.3-8.3h0c4.6,0,8.3,3.7,8.3,8.3l0,0
	C264.9,554.7,261.2,558.5,256.6,558.5z"/>
<path class="st1" d="M166.3,603.6L166.3,603.6c-4.6,0-8.3-3.7-8.3-8.3l0,0c0-4.6,3.7-8.3,8.3-8.3h0c4.6,0,8.3,3.7,8.3,8.3l0,0
	C174.6,599.9,170.9,603.6,166.3,603.6z"/>
<path class="st1" d="M188.9,603.6L188.9,603.6c-4.6,0-8.3-3.7-8.3-8.3l0,0c0-4.6,3.7-8.3,8.3-8.3h0c4.6,0,8.3,3.7,8.3,8.3l0,0
	C197.2,599.9,193.4,603.6,188.9,603.6z"/>
<path class="st1" d="M211.5,603.6L211.5,603.6c-4.6,0-8.3-3.7-8.3-8.3l0,0c0-4.6,3.7-8.3,8.3-8.3h0c4.6,0,8.3,3.7,8.3,8.3l0,0
	C219.7,599.9,216,603.6,211.5,603.6z"/>
<path class="st1" d="M234,603.6L234,603.6c-4.6,0-8.3-3.7-8.3-8.3l0,0c0-4.6,3.7-8.3,8.3-8.3h0c4.6,0,8.3,3.7,8.3,8.3l0,0
	C242.3,599.9,238.6,603.6,234,603.6z"/>
<path class="st1" d="M256.6,603.6L256.6,603.6c-4.6,0-8.3-3.7-8.3-8.3l0,0c0-4.6,3.7-8.3,8.3-8.3h0c4.6,0,8.3,3.7,8.3,8.3l0,0
	C264.9,599.9,261.2,603.6,256.6,603.6z"/>
<path class="st1" d="M98.6,310L98.6,310c-4.6,0-8.3-3.7-8.3-8.3v0c0-4.6,3.7-8.3,8.3-8.3h0c4.6,0,8.3,3.7,8.3,8.3v0
	C106.9,306.3,103.1,310,98.6,310z"/>
<path class="st1" d="M121.2,310L121.2,310c-4.6,0-8.3-3.7-8.3-8.3v0c0-4.6,3.7-8.3,8.3-8.3h0c4.6,0,8.3,3.7,8.3,8.3v0
	C129.4,306.3,125.7,310,121.2,310z"/>
<path class="st1" d="M143.7,310L143.7,310c-4.6,0-8.3-3.7-8.3-8.3v0c0-4.6,3.7-8.3,8.3-8.3h0c4.6,0,8.3,3.7,8.3,8.3v0
	C152,306.3,148.3,310,143.7,310z"/>
<path class="st1" d="M166.3,310L166.3,310c-4.6,0-8.3-3.7-8.3-8.3v0c0-4.6,3.7-8.3,8.3-8.3h0c4.6,0,8.3,3.7,8.3,8.3v0
	C174.6,306.3,170.9,310,166.3,310z"/>
<path class="st1" d="M188.9,310L188.9,310c-4.6,0-8.3-3.7-8.3-8.3v0c0-4.6,3.7-8.3,8.3-8.3h0c4.6,0,8.3,3.7,8.3,8.3v0
	C197.2,306.3,193.4,310,188.9,310z"/>
<path class="st1" d="M211.4,310L211.4,310c-4.6,0-8.3-3.7-8.3-8.3v0c0-4.6,3.7-8.3,8.3-8.3h0c4.6,0,8.3,3.7,8.3,8.3v0
	C219.7,306.3,216,310,211.4,310z"/>
<path class="st1" d="M234,310L234,310c-4.6,0-8.3-3.7-8.3-8.3v0c0-4.6,3.7-8.3,8.3-8.3h0c4.6,0,8.3,3.7,8.3,8.3v0
	C242.3,306.3,238.6,310,234,310z"/>
<path class="st1" d="M256.6,310L256.6,310c-4.6,0-8.3-3.7-8.3-8.3v0c0-4.6,3.7-8.3,8.3-8.3h0c4.6,0,8.3,3.7,8.3,8.3v0
	C264.9,306.3,261.1,310,256.6,310z"/>
<path class="st1" d="M279.2,174.6L279.2,174.6c-4.6,0-8.3-3.7-8.3-8.3v0c0-4.6,3.7-8.3,8.3-8.3h0c4.6,0,8.3,3.7,8.3,8.3v0
	C287.5,170.8,283.8,174.6,279.2,174.6z"/>
<path class="st1" d="M279.2,219.7L279.2,219.7c-4.6,0-8.3-3.7-8.3-8.3v0c0-4.6,3.7-8.3,8.3-8.3l0,0c4.6,0,8.3,3.7,8.3,8.3v0
	C287.5,216,283.7,219.7,279.2,219.7z"/>
<path class="st1" d="M279.2,197.1L279.2,197.1c-4.6,0-8.3-3.7-8.3-8.3v0c0-4.6,3.7-8.3,8.3-8.3l0,0c4.6,0,8.3,3.7,8.3,8.3v0
	C287.5,193.4,283.7,197.1,279.2,197.1z"/>
<path class="st1" d="M279.2,242.3L279.2,242.3c-4.6,0-8.3-3.7-8.3-8.3v0c0-4.6,3.7-8.3,8.3-8.3h0c4.6,0,8.3,3.7,8.3,8.3v0
	C287.5,238.5,283.8,242.3,279.2,242.3z"/>
<path class="st1" d="M279.2,287.4L279.2,287.4c-4.6,0-8.3-3.7-8.3-8.3l0,0c0-4.6,3.7-8.3,8.3-8.3l0,0c4.6,0,8.3,3.7,8.3,8.3l0,0
	C287.5,283.7,283.7,287.4,279.2,287.4z"/>
<path class="st1" d="M279.2,264.8L279.2,264.8c-4.6,0-8.3-3.7-8.3-8.3l0,0c0-4.6,3.7-8.3,8.3-8.3l0,0c4.6,0,8.3,3.7,8.3,8.3l0,0
	C287.5,261.1,283.7,264.8,279.2,264.8z"/>
<path class="st1" d="M279.2,310L279.2,310c-4.6,0-8.3-3.7-8.3-8.3v0c0-4.6,3.7-8.3,8.3-8.3l0,0c4.6,0,8.3,3.7,8.3,8.3v0
	C287.5,306.3,283.7,310,279.2,310z"/>
<path class="st1" d="M301.7,174.6L301.7,174.6c-4.6,0-8.3-3.7-8.3-8.3v0c0-4.6,3.7-8.3,8.3-8.3l0,0c4.6,0,8.3,3.7,8.3,8.3v0
	C310,170.8,306.3,174.6,301.7,174.6z"/>
<path class="st1" d="M301.7,219.7L301.7,219.7c-4.6,0-8.3-3.7-8.3-8.3v0c0-4.6,3.7-8.3,8.3-8.3l0,0c4.6,0,8.3,3.7,8.3,8.3v0
	C310,216,306.3,219.7,301.7,219.7z"/>
<path class="st1" d="M301.7,197.1L301.7,197.1c-4.6,0-8.3-3.7-8.3-8.3v0c0-4.6,3.7-8.3,8.3-8.3l0,0c4.6,0,8.3,3.7,8.3,8.3v0
	C310,193.4,306.3,197.1,301.7,197.1z"/>
<path class="st1" d="M301.7,242.3L301.7,242.3c-4.6,0-8.3-3.7-8.3-8.3v0c0-4.6,3.7-8.3,8.3-8.3l0,0c4.6,0,8.3,3.7,8.3,8.3v0
	C310,238.5,306.3,242.3,301.7,242.3z"/>
<path class="st1" d="M301.7,287.4L301.7,287.4c-4.6,0-8.3-3.7-8.3-8.3l0,0c0-4.6,3.7-8.3,8.3-8.3l0,0c4.6,0,8.3,3.7,8.3,8.3l0,0
	C310,283.7,306.3,287.4,301.7,287.4z"/>
<path class="st1" d="M301.7,264.8L301.7,264.8c-4.6,0-8.3-3.7-8.3-8.3l0,0c0-4.6,3.7-8.3,8.3-8.3l0,0c4.6,0,8.3,3.7,8.3,8.3l0,0
	C310,261.1,306.3,264.8,301.7,264.8z"/>
<path class="st1" d="M301.7,310L301.7,310c-4.6,0-8.3-3.7-8.3-8.3v0c0-4.6,3.7-8.3,8.3-8.3l0,0c4.6,0,8.3,3.7,8.3,8.3v0
	C310,306.3,306.3,310,301.7,310z"/>
<path class="st1" d="M324.3,174.6L324.3,174.6c-4.6,0-8.3-3.7-8.3-8.3v0c0-4.6,3.7-8.3,8.3-8.3l0,0c4.6,0,8.3,3.7,8.3,8.3v0
	C332.6,170.8,328.9,174.6,324.3,174.6z"/>
<path class="st1" d="M324.3,219.7L324.3,219.7c-4.6,0-8.3-3.7-8.3-8.3v0c0-4.6,3.7-8.3,8.3-8.3l0,0c4.6,0,8.3,3.7,8.3,8.3v0
	C332.6,216,328.8,219.7,324.3,219.7z"/>
<path class="st1" d="M324.3,197.1L324.3,197.1c-4.6,0-8.3-3.7-8.3-8.3v0c0-4.6,3.7-8.3,8.3-8.3l0,0c4.6,0,8.3,3.7,8.3,8.3v0
	C332.6,193.4,328.8,197.1,324.3,197.1z"/>
<path class="st1" d="M324.3,242.3L324.3,242.3c-4.6,0-8.3-3.7-8.3-8.3v0c0-4.6,3.7-8.3,8.3-8.3l0,0c4.6,0,8.3,3.7,8.3,8.3v0
	C332.6,238.5,328.9,242.3,324.3,242.3z"/>
<path class="st1" d="M347,174.6L347,174.6c-4.6,0-8.3-3.7-8.3-8.3v0c0-4.6,3.7-8.3,8.3-8.3l0,0c4.6,0,8.3,3.7,8.3,8.3v0
	C355.3,170.8,351.5,174.6,347,174.6z"/>
<path class="st1" d="M346.9,219.7L346.9,219.7c-4.6,0-8.3-3.7-8.3-8.3v0c0-4.6,3.7-8.3,8.3-8.3h0c4.6,0,8.3,3.7,8.3,8.3v0
	C355.2,216,351.5,219.7,346.9,219.7z"/>
<path class="st1" d="M346.9,197.1L346.9,197.1c-4.6,0-8.3-3.7-8.3-8.3v0c0-4.6,3.7-8.3,8.3-8.3h0c4.6,0,8.3,3.7,8.3,8.3v0
	C355.2,193.4,351.5,197.1,346.9,197.1z"/>
<path class="st1" d="M347,242.3L347,242.3c-4.6,0-8.3-3.7-8.3-8.3v0c0-4.6,3.7-8.3,8.3-8.3l0,0c4.6,0,8.3,3.7,8.3,8.3v0
	C355.3,238.5,351.5,242.3,347,242.3z"/>
<path class="st1" d="M347,490.6L347,490.6c-4.6,0-8.3-3.7-8.3-8.3v0c0-4.6,3.7-8.3,8.3-8.3h0c4.6,0,8.3,3.7,8.3,8.3v0
	C355.2,486.9,351.5,490.6,347,490.6z"/>
<path class="st1" d="M347,468L347,468c-4.6,0-8.3-3.7-8.3-8.3v0c0-4.6,3.7-8.3,8.3-8.3h0c4.6,0,8.3,3.7,8.3,8.3v0
	C355.2,464.3,351.5,468,347,468z"/>
<path class="st1" d="M347,513.2L347,513.2c-4.6,0-8.3-3.7-8.3-8.3v0c0-4.6,3.7-8.3,8.3-8.3h0c4.6,0,8.3,3.7,8.3,8.3v0
	C355.2,509.5,351.5,513.2,347,513.2z"/>
<path class="st1" d="M347,558.5L347,558.5c-4.6,0-8.3-3.7-8.3-8.3v0c0-4.6,3.7-8.3,8.3-8.3l0,0c4.6,0,8.3,3.7,8.3,8.3v0
	C355.3,554.7,351.5,558.5,347,558.5z"/>
<path class="st1" d="M347,535.9L347,535.9c-4.6,0-8.3-3.7-8.3-8.3l0,0c0-4.6,3.7-8.3,8.3-8.3l0,0c4.6,0,8.3,3.7,8.3,8.3l0,0
	C355.3,532.2,351.5,535.9,347,535.9z"/>
<path class="st1" d="M347,581L347,581c-4.6,0-8.3-3.7-8.3-8.3l0,0c0-4.6,3.7-8.3,8.3-8.3l0,0c4.6,0,8.3,3.7,8.3,8.3l0,0
	C355.3,577.3,351.5,581,347,581z"/>
<path class="st1" d="M347,603.6L347,603.6c-4.6,0-8.3-3.7-8.3-8.3l0,0c0-4.6,3.7-8.3,8.3-8.3h0c4.6,0,8.3,3.7,8.3,8.3l0,0
	C355.2,599.9,351.5,603.6,347,603.6z"/>
<path class="st1" d="M369.4,106.9L369.4,106.9c-4.6,0-8.3-3.7-8.3-8.3v0c0-4.6,3.7-8.3,8.3-8.3l0,0c4.6,0,8.3,3.7,8.3,8.3v0
	C377.7,103.1,374,106.9,369.4,106.9z"/>
<path class="st1" d="M392,106.9L392,106.9c-4.6,0-8.3-3.7-8.3-8.3v0c0-4.6,3.7-8.3,8.3-8.3h0c4.6,0,8.3,3.7,8.3,8.3v0
	C400.3,103.1,396.6,106.9,392,106.9z"/>
<path class="st1" d="M369.4,84.3L369.4,84.3c-4.6,0-8.3-3.7-8.3-8.3v0c0-4.6,3.7-8.3,8.3-8.3l0,0c4.6,0,8.3,3.7,8.3,8.3v0
	C377.7,80.6,374,84.3,369.4,84.3z"/>
<path class="st1" d="M392,84.3L392,84.3c-4.6,0-8.3-3.7-8.3-8.3v0c0-4.6,3.7-8.3,8.3-8.3h0c4.6,0,8.3,3.7,8.3,8.3v0
	C400.3,80.6,396.6,84.3,392,84.3z"/>
<path class="st1" d="M30.9,61.7L30.9,61.7c-4.6,0-8.3-3.7-8.3-8.3v0c0-4.6,3.7-8.3,8.3-8.3h0c4.6,0,8.3,3.7,8.3,8.3v0
	C39.1,58,35.4,61.7,30.9,61.7z"/>
<path class="st1" d="M53.4,61.7L53.4,61.7c-4.6,0-8.3-3.7-8.3-8.3v0c0-4.6,3.7-8.3,8.3-8.3h0c4.6,0,8.3,3.7,8.3,8.3v0
	C61.7,58,58,61.7,53.4,61.7z"/>
<path class="st1" d="M76,61.7L76,61.7c-4.6,0-8.3-3.7-8.3-8.3v0c0-4.6,3.7-8.3,8.3-8.3h0c4.6,0,8.3,3.7,8.3,8.3v0
	C84.3,58,80.6,61.7,76,61.7z"/>
<path class="st1" d="M98.6,61.7L98.6,61.7c-4.6,0-8.3-3.7-8.3-8.3v0c0-4.6,3.7-8.3,8.3-8.3h0c4.6,0,8.3,3.7,8.3,8.3v0
	C106.9,58,103.1,61.7,98.6,61.7z"/>
<path class="st1" d="M121.1,61.7L121.1,61.7c-4.6,0-8.3-3.7-8.3-8.3v0c0-4.6,3.7-8.3,8.3-8.3h0c4.6,0,8.3,3.7,8.3,8.3v0
	C129.4,58,125.7,61.7,121.1,61.7z"/>
<path class="st1" d="M143.7,61.7L143.7,61.7c-4.6,0-8.3-3.7-8.3-8.3v0c0-4.6,3.7-8.3,8.3-8.3h0c4.6,0,8.3,3.7,8.3,8.3v0
	C152,58,148.3,61.7,143.7,61.7z"/>
<path class="st1" d="M166.3,61.7L166.3,61.7c-4.6,0-8.3-3.7-8.3-8.3v0c0-4.6,3.7-8.3,8.3-8.3h0c4.6,0,8.3,3.7,8.3,8.3v0
	C174.6,58,170.8,61.7,166.3,61.7z"/>
<path class="st1" d="M188.8,61.7L188.8,61.7c-4.6,0-8.3-3.7-8.3-8.3v0c0-4.6,3.7-8.3,8.3-8.3h0c4.6,0,8.3,3.7,8.3,8.3v0
	C197.1,58,193.4,61.7,188.8,61.7z"/>
<path class="st1" d="M211.4,61.7L211.4,61.7c-4.6,0-8.3-3.7-8.3-8.3v0c0-4.6,3.7-8.3,8.3-8.3h0c4.6,0,8.3,3.7,8.3,8.3v0
	C219.7,58,216,61.7,211.4,61.7z"/>
<path class="st1" d="M234,61.7L234,61.7c-4.6,0-8.3-3.7-8.3-8.3v0c0-4.6,3.7-8.3,8.3-8.3h0c4.6,0,8.3,3.7,8.3,8.3v0
	C242.3,58,238.5,61.7,234,61.7z"/>
<path class="st1" d="M256.6,61.7L256.6,61.7c-4.6,0-8.3-3.7-8.3-8.3v0c0-4.6,3.7-8.3,8.3-8.3h0c4.6,0,8.3,3.7,8.3,8.3v0
	C264.8,58,261.1,61.7,256.6,61.7z"/>
<path class="st1" d="M279.1,61.7L279.1,61.7c-4.6,0-8.3-3.7-8.3-8.3v0c0-4.6,3.7-8.3,8.3-8.3h0c4.6,0,8.3,3.7,8.3,8.3v0
	C287.4,58,283.7,61.7,279.1,61.7z"/>
<path class="st1" d="M301.7,61.7L301.7,61.7c-4.6,0-8.3-3.7-8.3-8.3v0c0-4.6,3.7-8.3,8.3-8.3l0,0c4.6,0,8.3,3.7,8.3,8.3v0
	C310,58,306.3,61.7,301.7,61.7z"/>
<path class="st1" d="M324.3,61.7L324.3,61.7c-4.6,0-8.3-3.7-8.3-8.3v0c0-4.6,3.7-8.3,8.3-8.3l0,0c4.6,0,8.3,3.7,8.3,8.3v0
	C332.6,58,328.8,61.7,324.3,61.7z"/>
<path class="st1" d="M346.8,61.7L346.8,61.7c-4.6,0-8.3-3.7-8.3-8.3v0c0-4.6,3.7-8.3,8.3-8.3h0c4.6,0,8.3,3.7,8.3,8.3v0
	C355.1,58,351.4,61.7,346.8,61.7z"/>
<path class="st1" d="M369.4,61.7L369.4,61.7c-4.6,0-8.3-3.7-8.3-8.3v0c0-4.6,3.7-8.3,8.3-8.3l0,0c4.6,0,8.3,3.7,8.3,8.3v0
	C377.7,58,374,61.7,369.4,61.7z"/>
<path class="st1" d="M392,61.7L392,61.7c-4.6,0-8.3-3.7-8.3-8.3v0c0-4.6,3.7-8.3,8.3-8.3h0c4.6,0,8.3,3.7,8.3,8.3v0
	C400.3,58,396.6,61.7,392,61.7z"/>
<path class="st1" d="M369.5,152L369.5,152c-4.6,0-8.3-3.7-8.3-8.3v0c0-4.6,3.7-8.3,8.3-8.3h0c4.6,0,8.3,3.7,8.3,8.3v0
	C377.7,148.3,374,152,369.5,152z"/>
<path class="st1" d="M392,152L392,152c-4.6,0-8.3-3.7-8.3-8.3v0c0-4.6,3.7-8.3,8.3-8.3l0,0c4.6,0,8.3,3.7,8.3,8.3v0
	C400.3,148.3,396.6,152,392,152z"/>
<path class="st1" d="M324.3,332.6L324.3,332.6c-4.6,0-8.3-3.7-8.3-8.3l0,0c0-4.6,3.7-8.3,8.3-8.3l0,0c4.6,0,8.3,3.7,8.3,8.3l0,0
	C332.6,328.9,328.9,332.6,324.3,332.6z"/>
<path class="st1" d="M346.9,332.6L346.9,332.6c-4.6,0-8.3-3.7-8.3-8.3l0,0c0-4.6,3.7-8.3,8.3-8.3h0c4.6,0,8.3,3.7,8.3,8.3l0,0
	C355.2,328.9,351.4,332.6,346.9,332.6z"/>
<path class="st1" d="M324.3,355.2L324.3,355.2c-4.6,0-8.3-3.7-8.3-8.3v0c0-4.6,3.7-8.3,8.3-8.3l0,0c4.6,0,8.3,3.7,8.3,8.3v0
	C332.6,351.4,328.9,355.2,324.3,355.2z"/>
<path class="st1" d="M346.9,355.2L346.9,355.2c-4.6,0-8.3-3.7-8.3-8.3v0c0-4.6,3.7-8.3,8.3-8.3h0c4.6,0,8.3,3.7,8.3,8.3v0
	C355.2,351.4,351.4,355.2,346.9,355.2z"/>
<path class="st1" d="M324.3,377.8L324.3,377.8c-4.6,0-8.3-3.7-8.3-8.3l0,0c0-4.6,3.7-8.3,8.3-8.3l0,0c4.6,0,8.3,3.7,8.3,8.3l0,0
	C332.6,374.1,328.9,377.8,324.3,377.8z"/>
<path class="st1" d="M346.9,377.8L346.9,377.8c-4.6,0-8.3-3.7-8.3-8.3l0,0c0-4.6,3.7-8.3,8.3-8.3h0c4.6,0,8.3,3.7,8.3,8.3l0,0
	C355.2,374.1,351.4,377.8,346.9,377.8z"/>
<path class="st1" d="M324.3,400.3L324.3,400.3c-4.6,0-8.3-3.7-8.3-8.3v0c0-4.6,3.7-8.3,8.3-8.3l0,0c4.6,0,8.3,3.7,8.3,8.3v0
	C332.6,396.6,328.9,400.3,324.3,400.3z"/>
<path class="st1" d="M346.9,400.3L346.9,400.3c-4.6,0-8.3-3.7-8.3-8.3v0c0-4.6,3.7-8.3,8.3-8.3h0c4.6,0,8.3,3.7,8.3,8.3v0
	C355.2,396.6,351.4,400.3,346.9,400.3z"/>
<path class="st1" d="M324.3,423L324.3,423c-4.6,0-8.3-3.7-8.3-8.3l0,0c0-4.6,3.7-8.3,8.3-8.3l0,0c4.6,0,8.3,3.7,8.3,8.3l0,0
	C332.6,419.2,328.9,423,324.3,423z"/>
<path class="st1" d="M346.9,423L346.9,423c-4.6,0-8.3-3.7-8.3-8.3l0,0c0-4.6,3.7-8.3,8.3-8.3h0c4.6,0,8.3,3.7,8.3,8.3l0,0
	C355.2,419.2,351.4,423,346.9,423z"/>
<path class="st1" d="M369.5,445.5L369.5,445.5c-4.6,0-8.3-3.7-8.3-8.3v0c0-4.6,3.7-8.3,8.3-8.3h0c4.6,0,8.3,3.7,8.3,8.3v0
	C377.7,441.8,374,445.5,369.5,445.5z"/>
<path class="st1" d="M392,445.5L392,445.5c-4.6,0-8.3-3.7-8.3-8.3v0c0-4.6,3.7-8.3,8.3-8.3l0,0c4.6,0,8.3,3.7,8.3,8.3v0
	C400.3,441.8,396.6,445.5,392,445.5z"/>
<path class="st1" d="M369.5,468.2L369.5,468.2c-4.6,0-8.3-3.7-8.3-8.3v0c0-4.6,3.7-8.3,8.3-8.3h0c4.6,0,8.3,3.7,8.3,8.3v0
	C377.8,464.5,374,468.2,369.5,468.2z"/>
<path class="st1" d="M369.5,490.7L369.5,490.7c-4.6,0-8.3-3.7-8.3-8.3l0,0c0-4.6,3.7-8.3,8.3-8.3h0c4.6,0,8.3,3.7,8.3,8.3l0,0
	C377.8,487,374,490.7,369.5,490.7z"/>
<path class="st1" d="M369.5,513.4L369.5,513.4c-4.6,0-8.3-3.7-8.3-8.3v0c0-4.6,3.7-8.3,8.3-8.3h0c4.6,0,8.3,3.7,8.3,8.3v0
	C377.8,509.6,374,513.4,369.5,513.4z"/>
<path class="st1" d="M369.5,535.9L369.5,535.9c-4.6,0-8.3-3.7-8.3-8.3v0c0-4.6,3.7-8.3,8.3-8.3h0c4.6,0,8.3,3.7,8.3,8.3v0
	C377.8,532.2,374,535.9,369.5,535.9z"/>
<path class="st1" d="M369.5,558.6L369.5,558.6c-4.6,0-8.3-3.7-8.3-8.3l0,0c0-4.6,3.7-8.3,8.3-8.3h0c4.6,0,8.3,3.7,8.3,8.3l0,0
	C377.8,554.8,374,558.6,369.5,558.6z"/>
<path class="st1" d="M369.5,581.1L369.5,581.1c-4.6,0-8.3-3.7-8.3-8.3l0,0c0-4.6,3.7-8.3,8.3-8.3h0c4.6,0,8.3,3.7,8.3,8.3l0,0
	C377.8,577.4,374,581.1,369.5,581.1z"/>
<path class="st1" d="M369.5,603.7L369.5,603.7c-4.6,0-8.3-3.7-8.3-8.3l0,0c0-4.6,3.7-8.3,8.3-8.3h0c4.6,0,8.3,3.7,8.3,8.3l0,0
	C377.8,600,374,603.7,369.5,603.7z"/>
<path class="st1" d="M369.5,129.4L369.5,129.4c-4.6,0-8.3-3.7-8.3-8.3v0c0-4.6,3.7-8.3,8.3-8.3h0c4.6,0,8.3,3.7,8.3,8.3v0
	C377.7,125.7,374,129.4,369.5,129.4z"/>
<path class="st1" d="M392,129.4L392,129.4c-4.6,0-8.3-3.7-8.3-8.3v0c0-4.6,3.7-8.3,8.3-8.3l0,0c4.6,0,8.3,3.7,8.3,8.3v0
	C400.3,125.7,396.6,129.4,392,129.4z"/>
<path class="st1" d="M324.3,287.4L324.3,287.4c-4.6,0-8.3-3.7-8.3-8.3l0,0c0-4.6,3.7-8.3,8.3-8.3l0,0c4.6,0,8.3,3.7,8.3,8.3l0,0
	C332.6,283.7,328.9,287.4,324.3,287.4z"/>
<path class="st1" d="M324.3,264.8L324.3,264.8c-4.6,0-8.3-3.7-8.3-8.3l0,0c0-4.6,3.7-8.3,8.3-8.3l0,0c4.6,0,8.3,3.7,8.3,8.3l0,0
	C332.6,261.1,328.9,264.8,324.3,264.8z"/>
<path class="st1" d="M324.3,310L324.3,310c-4.6,0-8.3-3.7-8.3-8.3v0c0-4.6,3.7-8.3,8.3-8.3l0,0c4.6,0,8.3,3.7,8.3,8.3v0
	C332.6,306.3,328.9,310,324.3,310z"/>
<path class="st1" d="M346.9,287.4L346.9,287.4c-4.6,0-8.3-3.7-8.3-8.3l0,0c0-4.6,3.7-8.3,8.3-8.3l0,0c4.6,0,8.3,3.7,8.3,8.3l0,0
	C355.2,283.7,351.4,287.4,346.9,287.4z"/>
<path class="st1" d="M346.9,264.8L346.9,264.8c-4.6,0-8.3-3.7-8.3-8.3l0,0c0-4.6,3.7-8.3,8.3-8.3l0,0c4.6,0,8.3,3.7,8.3,8.3l0,0
	C355.2,261.1,351.4,264.8,346.9,264.8z"/>
<path class="st1" d="M346.9,310L346.9,310c-4.6,0-8.3-3.7-8.3-8.3v0c0-4.6,3.7-8.3,8.3-8.3l0,0c4.6,0,8.3,3.7,8.3,8.3v0
	C355.2,306.3,351.4,310,346.9,310z"/>
<path class="st1" d="M369.5,174.6L369.5,174.6c-4.6,0-8.3-3.7-8.3-8.3v0c0-4.6,3.7-8.3,8.3-8.3h0c4.6,0,8.3,3.7,8.3,8.3v0
	C377.8,170.8,374,174.6,369.5,174.6z"/>
<path class="st1" d="M369.4,219.7L369.4,219.7c-4.6,0-8.3-3.7-8.3-8.3v0c0-4.6,3.7-8.3,8.3-8.3l0,0c4.6,0,8.3,3.7,8.3,8.3v0
	C377.7,216,374,219.7,369.4,219.7z"/>
<path class="st1" d="M369.4,197.1L369.4,197.1c-4.6,0-8.3-3.7-8.3-8.3v0c0-4.6,3.7-8.3,8.3-8.3l0,0c4.6,0,8.3,3.7,8.3,8.3v0
	C377.7,193.4,374,197.1,369.4,197.1z"/>
<path class="st1" d="M392.1,174.6L392.1,174.6c-4.6,0-8.3-3.7-8.3-8.3v0c0-4.6,3.7-8.3,8.3-8.3l0,0c4.6,0,8.3,3.7,8.3,8.3v0
	C400.4,170.8,396.7,174.6,392.1,174.6z"/>
<path class="st1" d="M392.1,219.7L392.1,219.7c-4.6,0-8.3-3.7-8.3-8.3v0c0-4.6,3.7-8.3,8.3-8.3h0c4.6,0,8.3,3.7,8.3,8.3v0
	C400.4,216,396.7,219.7,392.1,219.7z"/>
<path class="st1" d="M392.1,197.1L392.1,197.1c-4.6,0-8.3-3.7-8.3-8.3v0c0-4.6,3.7-8.3,8.3-8.3h0c4.6,0,8.3,3.7,8.3,8.3v0
	C400.4,193.4,396.7,197.1,392.1,197.1z"/>
<path class="st1" d="M392.1,490.6L392.1,490.6c-4.6,0-8.3-3.7-8.3-8.3v0c0-4.6,3.7-8.3,8.3-8.3h0c4.6,0,8.3,3.7,8.3,8.3v0
	C400.4,486.9,396.7,490.6,392.1,490.6z"/>
<path class="st1" d="M392.1,468L392.1,468c-4.6,0-8.3-3.7-8.3-8.3v0c0-4.6,3.7-8.3,8.3-8.3h0c4.6,0,8.3,3.7,8.3,8.3v0
	C400.4,464.3,396.7,468,392.1,468z"/>
<path class="st1" d="M392.1,513.2L392.1,513.2c-4.6,0-8.3-3.7-8.3-8.3v0c0-4.6,3.7-8.3,8.3-8.3h0c4.6,0,8.3,3.7,8.3,8.3v0
	C400.4,509.5,396.7,513.2,392.1,513.2z"/>
<path class="st1" d="M392.2,558.5L392.2,558.5c-4.6,0-8.3-3.7-8.3-8.3v0c0-4.6,3.7-8.3,8.3-8.3l0,0c4.6,0,8.3,3.7,8.3,8.3v0
	C400.4,554.7,396.7,558.5,392.2,558.5z"/>
<path class="st1" d="M392.2,535.9L392.2,535.9c-4.6,0-8.3-3.7-8.3-8.3l0,0c0-4.6,3.7-8.3,8.3-8.3l0,0c4.6,0,8.3,3.7,8.3,8.3l0,0
	C400.4,532.2,396.7,535.9,392.2,535.9z"/>
<path class="st1" d="M392.2,581L392.2,581c-4.6,0-8.3-3.7-8.3-8.3l0,0c0-4.6,3.7-8.3,8.3-8.3l0,0c4.6,0,8.3,3.7,8.3,8.3l0,0
	C400.4,577.3,396.7,581,392.2,581z"/>
<path class="st1" d="M392.1,603.6L392.1,603.6c-4.6,0-8.3-3.7-8.3-8.3l0,0c0-4.6,3.7-8.3,8.3-8.3h0c4.6,0,8.3,3.7,8.3,8.3l0,0
	C400.4,599.9,396.7,603.6,392.1,603.6z"/>
<path class="st1" d="M369.5,626.3L369.5,626.3c-4.6,0-8.3-3.7-8.3-8.3l0,0c0-4.6,3.7-8.3,8.3-8.3h0c4.6,0,8.3,3.7,8.3,8.3l0,0
	C377.8,622.5,374,626.3,369.5,626.3z"/>
<path class="st1" d="M369.5,648.9L369.5,648.9c-4.6,0-8.3-3.7-8.3-8.3l0,0c0-4.6,3.7-8.3,8.3-8.3h0c4.6,0,8.3,3.7,8.3,8.3l0,0
	C377.8,645.2,374,648.9,369.5,648.9z"/>
<path class="st1" d="M369.5,671.4L369.5,671.4c-4.6,0-8.3-3.7-8.3-8.3v0c0-4.6,3.7-8.3,8.3-8.3h0c4.6,0,8.3,3.7,8.3,8.3v0
	C377.8,667.7,374,671.4,369.5,671.4z"/>
<path class="st1" d="M369.5,694.1L369.5,694.1c-4.6,0-8.3-3.7-8.3-8.3l0,0c0-4.6,3.7-8.3,8.3-8.3h0c4.6,0,8.3,3.7,8.3,8.3l0,0
	C377.8,690.4,374,694.1,369.5,694.1z"/>
<path class="st1" d="M392.2,648.8L392.2,648.8c-4.6,0-8.3-3.7-8.3-8.3l0,0c0-4.6,3.7-8.3,8.3-8.3l0,0c4.6,0,8.3,3.7,8.3,8.3l0,0
	C400.4,645.1,396.7,648.8,392.2,648.8z"/>
<path class="st1" d="M392.2,626.2L392.2,626.2c-4.6,0-8.3-3.7-8.3-8.3l0,0c0-4.6,3.7-8.3,8.3-8.3l0,0c4.6,0,8.3,3.7,8.3,8.3l0,0
	C400.4,622.5,396.7,626.2,392.2,626.2z"/>
<path class="st1" d="M392.2,671.4L392.2,671.4c-4.6,0-8.3-3.7-8.3-8.3l0,0c0-4.6,3.7-8.3,8.3-8.3l0,0c4.6,0,8.3,3.7,8.3,8.3l0,0
	C400.4,667.6,396.7,671.4,392.2,671.4z"/>
<path class="st1" d="M392.1,693.9L392.1,693.9c-4.6,0-8.3-3.7-8.3-8.3l0,0c0-4.6,3.7-8.3,8.3-8.3h0c4.6,0,8.3,3.7,8.3,8.3l0,0
	C400.4,690.2,396.7,693.9,392.1,693.9z"/>
<g>
	<text transform="matrix(1 0 0 1 142.6733 9.6986)" class="st2 st3 st4">1</text>
	<text transform="matrix(1 0 0 1 164.7358 9.6986)" class="st2 st3 st4">2</text>
	<text transform="matrix(1 0 0 1 187.3098 9.6986)" class="st2 st3 st4">3</text>
	<text transform="matrix(1 0 0 1 209.8244 9.6986)" class="st2 st3 st4">4</text>
	<text transform="matrix(1 0 0 1 232.4973 9.6986)" class="st2 st3 st4">5</text>
	<text transform="matrix(1 0 0 1 254.8195 9.6986)" class="st2 st3 st4">6</text>
	<text transform="matrix(1 0 0 1 277.7326 9.6986)" class="st2 st3 st4">7</text>
	<text transform="matrix(1 0 0 1 300.1897 9.6986)" class="st2 st3 st4">8</text>
	<text transform="matrix(1 0 0 1 322.4445 9.6986)" class="st2 st3 st4">9</text>
	<text transform="matrix(1 0 0 1 343.0676 9.6986)" class="st2 st3 st4">10</text>
	<text transform="matrix(1 0 0 1 366.55 9.6986)" class="st2 st3 st4">11</text>
	<text transform="matrix(1 0 0 1 387.9172 9.6986)" class="st2 st3 st4">12</text>
	<text transform="matrix(1 0 0 1 29.1001 100.8315)" class="st2 st3 st4">1</text>
	<text transform="matrix(1 0 0 1 51.1616 100.8315)" class="st2 st3 st4">2</text>
	<text transform="matrix(1 0 0 1 73.7358 100.8315)" class="st2 st3 st4">3</text>
	<text transform="matrix(1 0 0 1 96.2505 100.8315)" class="st2 st3 st4">4</text>
	<text transform="matrix(1 0 0 1 118.9243 100.8315)" class="st2 st3 st4">5</text>
	<text transform="matrix(1 0 0 1 141.2466 100.8315)" class="st2 st3 st4">6</text>
	<text transform="matrix(1 0 0 1 164.2729 100.8315)" class="st2 st3 st4">7</text>
	<text transform="matrix(1 0 0 1 186.4631 100.8315)" class="st2 st3 st4">8</text>
	<text transform="matrix(1 0 0 1 208.9572 100.8315)" class="st2 st3 st4">9</text>
	<text transform="matrix(1 0 0 1 229.6067 100.8315)" class="st2 st3 st4">10</text>
	<text transform="matrix(1 0 0 1 253.0891 100.8315)" class="st2 st3 st4">11</text>
	<text transform="matrix(1 0 0 1 275.1516 100.8315)" class="st2 st3 st4">12</text>
	<text transform="matrix(1 0 0 1 297.7248 100.8315)" class="st2 st3 st4">13</text>
	<text transform="matrix(1 0 0 1 320.2385 100.8315)" class="st2 st3 st4">14</text>
	<text transform="matrix(1 0 0 1 342.9133 100.8315)" class="st2 st3 st4">15</text>
	<text transform="matrix(1 0 0 1 365.2356 100.8315)" class="st2 st3 st4">16</text>
	<text transform="matrix(1 0 0 1 6.5737 78.2611)" class="st2 st3 st4">1</text>
	<text transform="matrix(1 0 0 1 28.6352 78.2611)" class="st2 st3 st4">2</text>
	<text transform="matrix(1 0 0 1 51.2094 78.2611)" class="st2 st3 st4">3</text>
	<text transform="matrix(1 0 0 1 73.7241 78.2611)" class="st2 st3 st4">4</text>
	<text transform="matrix(1 0 0 1 96.3979 78.2611)" class="st2 st3 st4">5</text>
	<text transform="matrix(1 0 0 1 118.7202 78.2611)" class="st2 st3 st4">6</text>
	<text transform="matrix(1 0 0 1 141.7466 78.2611)" class="st2 st3 st4">7</text>
	<text transform="matrix(1 0 0 1 163.937 78.2611)" class="st2 st3 st4">8</text>
	<text transform="matrix(1 0 0 1 186.4309 78.2611)" class="st2 st3 st4">9</text>
	<text transform="matrix(1 0 0 1 207.0803 78.2611)" class="st2 st3 st4">10</text>
	<text transform="matrix(1 0 0 1 230.5627 78.2611)" class="st2 st3 st4">11</text>
	<text transform="matrix(1 0 0 1 252.6252 78.2611)" class="st2 st3 st4">12</text>
	<text transform="matrix(1 0 0 1 275.1985 78.2611)" class="st2 st3 st4">13</text>
	<text transform="matrix(1 0 0 1 297.7121 78.2611)" class="st2 st3 st4">14</text>
	<text transform="matrix(1 0 0 1 320.3869 78.2611)" class="st2 st3 st4">15</text>
	<text transform="matrix(1 0 0 1 342.7092 78.2611)" class="st2 st3 st4">16</text>
	<text transform="matrix(1 0 0 1 365.6506 78.2611)" class="st2 st3 st4">17</text>
	<text transform="matrix(1 0 0 1 387.9524 78.2611)" class="st2 st3 st4">18</text>
	<text transform="matrix(1 0 0 1 6.5737 55.5111)" class="st2 st3 st4">1</text>
	<text transform="matrix(1 0 0 1 28.6352 55.5111)" class="st2 st3 st4">2</text>
	<text transform="matrix(1 0 0 1 51.2094 55.5111)" class="st2 st3 st4">3</text>
	<text transform="matrix(1 0 0 1 73.7241 55.5111)" class="st2 st3 st4">4</text>
	<text transform="matrix(1 0 0 1 96.3979 55.5111)" class="st2 st3 st4">5</text>
	<text transform="matrix(1 0 0 1 118.7202 55.5111)" class="st2 st3 st4">6</text>
	<text transform="matrix(1 0 0 1 141.7466 55.5111)" class="st2 st3 st4">7</text>
	<text transform="matrix(1 0 0 1 163.937 55.5111)" class="st2 st3 st4">8</text>
	<text transform="matrix(1 0 0 1 186.4309 55.5111)" class="st2 st3 st4">9</text>
	<text transform="matrix(1 0 0 1 207.0803 55.5111)" class="st2 st3 st4">10</text>
	<text transform="matrix(1 0 0 1 230.5627 55.5111)" class="st2 st3 st4">11</text>
	<text transform="matrix(1 0 0 1 252.6252 55.5111)" class="st2 st3 st4">12</text>
	<text transform="matrix(1 0 0 1 275.1985 55.5111)" class="st2 st3 st4">13</text>
	<text transform="matrix(1 0 0 1 297.7121 55.5111)" class="st2 st3 st4">14</text>
	<text transform="matrix(1 0 0 1 320.3869 55.5111)" class="st2 st3 st4">15</text>
	<text transform="matrix(1 0 0 1 342.7092 55.5111)" class="st2 st3 st4">16</text>
	<text transform="matrix(1 0 0 1 365.6506 55.5111)" class="st2 st3 st4">17</text>
	<text transform="matrix(1 0 0 1 387.9524 55.5111)" class="st2 st3 st4">18</text>
	<text transform="matrix(1 0 0 1 388.177 100.8315)" class="st2 st3 st4">17</text>
	<text transform="matrix(1 0 0 1 388.3318 123.4037)" class="st2 st3 st4">17</text>
	<text transform="matrix(1 0 0 1 388.3318 146.3471)" class="st2 st3 st4">17</text>
	<text transform="matrix(1 0 0 1 29.2812 145.974)" class="st2 st3 st4">1</text>
	<text transform="matrix(1 0 0 1 51.3437 145.974)" class="st2 st3 st4">2</text>
	<text transform="matrix(1 0 0 1 73.9179 145.974)" class="st2 st3 st4">3</text>
	<text transform="matrix(1 0 0 1 96.4326 145.974)" class="st2 st3 st4">4</text>
	<text transform="matrix(1 0 0 1 119.1054 145.974)" class="st2 st3 st4">5</text>
	<text transform="matrix(1 0 0 1 141.4277 145.974)" class="st2 st3 st4">6</text>
	<text transform="matrix(1 0 0 1 164.4541 145.974)" class="st2 st3 st4">7</text>
	<text transform="matrix(1 0 0 1 186.6443 145.974)" class="st2 st3 st4">8</text>
	<text transform="matrix(1 0 0 1 209.1374 145.974)" class="st2 st3 st4">9</text>
	<text transform="matrix(1 0 0 1 229.7878 145.974)" class="st2 st3 st4">10</text>
	<text transform="matrix(1 0 0 1 253.2702 145.974)" class="st2 st3 st4">11</text>
	<text transform="matrix(1 0 0 1 275.3327 145.974)" class="st2 st3 st4">12</text>
	<text transform="matrix(1 0 0 1 297.907 145.974)" class="st2 st3 st4">13</text>
	<text transform="matrix(1 0 0 1 320.4206 145.974)" class="st2 st3 st4">14</text>
	<text transform="matrix(1 0 0 1 343.0945 145.974)" class="st2 st3 st4">15</text>
	<text transform="matrix(1 0 0 1 365.4167 145.974)" class="st2 st3 st4">16</text>
	<text transform="matrix(1 0 0 1 96.7807 326.5736)" class="st2 st3 st4">1</text>
	<text transform="matrix(1 0 0 1 118.8432 326.5736)" class="st2 st3 st4">2</text>
	<text transform="matrix(1 0 0 1 141.4174 326.5736)" class="st2 st3 st4">3</text>
	<text transform="matrix(1 0 0 1 163.9321 326.5736)" class="st2 st3 st4">4</text>
	<text transform="matrix(1 0 0 1 186.6047 326.5736)" class="st2 st3 st4">5</text>
	<text transform="matrix(1 0 0 1 208.927 326.5736)" class="st2 st3 st4">6</text>
	<text transform="matrix(1 0 0 1 231.9533 326.5736)" class="st2 st3 st4">7</text>
	<text transform="matrix(1 0 0 1 254.1438 326.5736)" class="st2 st3 st4">8</text>
	<text transform="matrix(1 0 0 1 276.6369 326.5736)" class="st2 st3 st4">9</text>
	<text transform="matrix(1 0 0 1 297.2873 326.5736)" class="st2 st3 st4">10</text>
	<text transform="matrix(1 0 0 1 320.7697 326.5736)" class="st2 st3 st4">11</text>
	<text transform="matrix(1 0 0 1 342.8322 326.5736)" class="st2 st3 st4">12</text>
	<text transform="matrix(1 0 0 1 96.7807 349.1244)" class="st2 st3 st4">1</text>
	<text transform="matrix(1 0 0 1 118.8432 349.1244)" class="st2 st3 st4">2</text>
	<text transform="matrix(1 0 0 1 141.4174 349.1244)" class="st2 st3 st4">3</text>
	<text transform="matrix(1 0 0 1 163.9321 349.1244)" class="st2 st3 st4">4</text>
	<text transform="matrix(1 0 0 1 186.6047 349.1244)" class="st2 st3 st4">5</text>
	<text transform="matrix(1 0 0 1 208.927 349.1244)" class="st2 st3 st4">6</text>
	<text transform="matrix(1 0 0 1 231.9533 349.1244)" class="st2 st3 st4">7</text>
	<text transform="matrix(1 0 0 1 254.1438 349.1244)" class="st2 st3 st4">8</text>
	<text transform="matrix(1 0 0 1 276.6369 349.1244)" class="st2 st3 st4">9</text>
	<text transform="matrix(1 0 0 1 297.2873 349.1244)" class="st2 st3 st4">10</text>
	<text transform="matrix(1 0 0 1 320.7697 349.1244)" class="st2 st3 st4">11</text>
	<text transform="matrix(1 0 0 1 342.8322 349.1244)" class="st2 st3 st4">12</text>
	<text transform="matrix(1 0 0 1 119.3511 394.3119)" class="st2 st3 st4">1</text>
	<text transform="matrix(1 0 0 1 141.4135 394.3119)" class="st2 st3 st4">2</text>
	<text transform="matrix(1 0 0 1 163.9878 394.3119)" class="st2 st3 st4">3</text>
	<text transform="matrix(1 0 0 1 186.5022 394.3119)" class="st2 st3 st4">4</text>
	<text transform="matrix(1 0 0 1 209.175 394.3119)" class="st2 st3 st4">5</text>
	<text transform="matrix(1 0 0 1 231.4973 394.3119)" class="st2 st3 st4">6</text>
	<text transform="matrix(1 0 0 1 254.5237 394.3119)" class="st2 st3 st4">7</text>
	<text transform="matrix(1 0 0 1 276.7141 394.3119)" class="st2 st3 st4">8</text>
	<text transform="matrix(1 0 0 1 299.2072 394.3119)" class="st2 st3 st4">9</text>
	<text transform="matrix(1 0 0 1 319.8576 394.3119)" class="st2 st3 st4">10</text>
	<text transform="matrix(1 0 0 1 343.3401 394.3119)" class="st2 st3 st4">11</text>
	<text transform="matrix(1 0 0 1 119.3511 372.2514)" class="st2 st3 st4">1</text>
	<text transform="matrix(1 0 0 1 141.4135 372.2514)" class="st2 st3 st4">2</text>
	<text transform="matrix(1 0 0 1 163.9878 372.2514)" class="st2 st3 st4">3</text>
	<text transform="matrix(1 0 0 1 186.5022 372.2514)" class="st2 st3 st4">4</text>
	<text transform="matrix(1 0 0 1 209.175 372.2514)" class="st2 st3 st4">5</text>
	<text transform="matrix(1 0 0 1 231.4973 372.2514)" class="st2 st3 st4">6</text>
	<text transform="matrix(1 0 0 1 254.5237 372.2514)" class="st2 st3 st4">7</text>
	<text transform="matrix(1 0 0 1 276.7141 372.2514)" class="st2 st3 st4">8</text>
	<text transform="matrix(1 0 0 1 299.2072 372.2514)" class="st2 st3 st4">9</text>
	<text transform="matrix(1 0 0 1 319.8576 372.2514)" class="st2 st3 st4">10</text>
	<text transform="matrix(1 0 0 1 343.3401 372.2514)" class="st2 st3 st4">11</text>
	<text transform="matrix(1 0 0 1 119.3511 416.9447)" class="st2 st3 st4">1</text>
	<text transform="matrix(1 0 0 1 141.4135 416.9447)" class="st2 st3 st4">2</text>
	<text transform="matrix(1 0 0 1 163.9878 416.9447)" class="st2 st3 st4">3</text>
	<text transform="matrix(1 0 0 1 186.5022 416.9447)" class="st2 st3 st4">4</text>
	<text transform="matrix(1 0 0 1 209.175 416.9447)" class="st2 st3 st4">5</text>
	<text transform="matrix(1 0 0 1 231.4973 416.9447)" class="st2 st3 st4">6</text>
	<text transform="matrix(1 0 0 1 254.5237 416.9447)" class="st2 st3 st4">7</text>
	<text transform="matrix(1 0 0 1 276.7141 416.9447)" class="st2 st3 st4">8</text>
	<text transform="matrix(1 0 0 1 299.2072 416.9447)" class="st2 st3 st4">9</text>
	<text transform="matrix(1 0 0 1 319.8576 416.9447)" class="st2 st3 st4">10</text>
	<text transform="matrix(1 0 0 1 343.3401 416.9447)" class="st2 st3 st4">11</text>
	<text transform="matrix(1 0 0 1 119.3647 439.4975)" class="st2 st3 st4">1</text>
	<text transform="matrix(1 0 0 1 141.4272 439.4975)" class="st2 st3 st4">2</text>
	<text transform="matrix(1 0 0 1 164.0014 439.4975)" class="st2 st3 st4">3</text>
	<text transform="matrix(1 0 0 1 186.5158 439.4975)" class="st2 st3 st4">4</text>
	<text transform="matrix(1 0 0 1 209.1887 439.4975)" class="st2 st3 st4">5</text>
	<text transform="matrix(1 0 0 1 231.511 439.4975)" class="st2 st3 st4">6</text>
	<text transform="matrix(1 0 0 1 254.5373 439.4975)" class="st2 st3 st4">7</text>
	<text transform="matrix(1 0 0 1 276.7278 439.4975)" class="st2 st3 st4">8</text>
	<text transform="matrix(1 0 0 1 299.2209 439.4975)" class="st2 st3 st4">9</text>
	<text transform="matrix(1 0 0 1 319.8713 439.4975)" class="st2 st3 st4">10</text>
	<text transform="matrix(1 0 0 1 343.3537 439.4975)" class="st2 st3 st4">11</text>
	<text transform="matrix(1 0 0 1 365.4162 439.4975)" class="st2 st3 st4">12</text>
	<text transform="matrix(1 0 0 1 387.9904 439.4975)" class="st2 st3 st4">13</text>
	<text transform="matrix(1 0 0 1 29.2812 123.4037)" class="st2 st3 st4">1</text>
	<text transform="matrix(1 0 0 1 51.3437 123.4037)" class="st2 st3 st4">2</text>
	<text transform="matrix(1 0 0 1 73.9179 123.4037)" class="st2 st3 st4">3</text>
	<text transform="matrix(1 0 0 1 96.4326 123.4037)" class="st2 st3 st4">4</text>
	<text transform="matrix(1 0 0 1 119.1054 123.4037)" class="st2 st3 st4">5</text>
	<text transform="matrix(1 0 0 1 141.4277 123.4037)" class="st2 st3 st4">6</text>
	<text transform="matrix(1 0 0 1 164.4541 123.4037)" class="st2 st3 st4">7</text>
	<text transform="matrix(1 0 0 1 186.6443 123.4037)" class="st2 st3 st4">8</text>
	<text transform="matrix(1 0 0 1 209.1374 123.4037)" class="st2 st3 st4">9</text>
	<text transform="matrix(1 0 0 1 229.7878 123.4037)" class="st2 st3 st4">10</text>
	<text transform="matrix(1 0 0 1 253.2702 123.4037)" class="st2 st3 st4">11</text>
	<text transform="matrix(1 0 0 1 275.3327 123.4037)" class="st2 st3 st4">12</text>
	<text transform="matrix(1 0 0 1 297.907 123.4037)" class="st2 st3 st4">13</text>
	<text transform="matrix(1 0 0 1 320.4206 123.4037)" class="st2 st3 st4">14</text>
	<text transform="matrix(1 0 0 1 343.0945 123.4037)" class="st2 st3 st4">15</text>
	<text transform="matrix(1 0 0 1 365.4167 123.4037)" class="st2 st3 st4">16</text>
	<text transform="matrix(1 0 0 1 388.011 191.101)" class="st2 st3 st4">16</text>
	<text transform="matrix(1 0 0 1 388.0295 168.5307)" class="st2 st3 st4">16</text>
	<text transform="matrix(1 0 0 1 387.9856 213.6752)" class="st2 st3 st4">16</text>
	<text transform="matrix(1 0 0 1 51.9204 168.5307)" class="st2 st3 st4">1</text>
	<text transform="matrix(1 0 0 1 73.9829 168.5307)" class="st2 st3 st4">2</text>
	<text transform="matrix(1 0 0 1 96.5571 168.5307)" class="st2 st3 st4">3</text>
	<text transform="matrix(1 0 0 1 119.0718 168.5307)" class="st2 st3 st4">4</text>
	<text transform="matrix(1 0 0 1 141.7456 168.5307)" class="st2 st3 st4">5</text>
	<text transform="matrix(1 0 0 1 164.0678 168.5307)" class="st2 st3 st4">6</text>
	<text transform="matrix(1 0 0 1 187.094 168.5307)" class="st2 st3 st4">7</text>
	<text transform="matrix(1 0 0 1 209.2844 168.5307)" class="st2 st3 st4">8</text>
	<text transform="matrix(1 0 0 1 231.7785 168.5307)" class="st2 st3 st4">9</text>
	<text transform="matrix(1 0 0 1 252.4289 168.5307)" class="st2 st3 st4">10</text>
	<text transform="matrix(1 0 0 1 275.9094 168.5307)" class="st2 st3 st4">11</text>
	<text transform="matrix(1 0 0 1 297.9719 168.5307)" class="st2 st3 st4">12</text>
	<text transform="matrix(1 0 0 1 320.5461 168.5307)" class="st2 st3 st4">13</text>
	<text transform="matrix(1 0 0 1 343.0598 168.5307)" class="st2 st3 st4">14</text>
	<text transform="matrix(1 0 0 1 365.7346 168.5307)" class="st2 st3 st4">15</text>
	<text transform="matrix(1 0 0 1 51.9018 190.8822)" class="st2 st3 st4">1</text>
	<text transform="matrix(1 0 0 1 73.9643 190.8822)" class="st2 st3 st4">2</text>
	<text transform="matrix(1 0 0 1 96.5386 190.8822)" class="st2 st3 st4">3</text>
	<text transform="matrix(1 0 0 1 119.0532 190.8822)" class="st2 st3 st4">4</text>
	<text transform="matrix(1 0 0 1 141.727 190.8822)" class="st2 st3 st4">5</text>
	<text transform="matrix(1 0 0 1 164.0493 190.8822)" class="st2 st3 st4">6</text>
	<text transform="matrix(1 0 0 1 187.0754 190.8822)" class="st2 st3 st4">7</text>
	<text transform="matrix(1 0 0 1 209.2658 190.8822)" class="st2 st3 st4">8</text>
	<text transform="matrix(1 0 0 1 231.76 190.8822)" class="st2 st3 st4">9</text>
	<text transform="matrix(1 0 0 1 252.4104 190.8822)" class="st2 st3 st4">10</text>
	<text transform="matrix(1 0 0 1 275.8908 190.8822)" class="st2 st3 st4">11</text>
	<text transform="matrix(1 0 0 1 297.9533 190.8822)" class="st2 st3 st4">12</text>
	<text transform="matrix(1 0 0 1 320.5276 190.8822)" class="st2 st3 st4">13</text>
	<text transform="matrix(1 0 0 1 343.0412 190.8822)" class="st2 st3 st4">14</text>
	<text transform="matrix(1 0 0 1 365.716 190.8822)" class="st2 st3 st4">15</text>
	<text transform="matrix(1 0 0 1 51.9018 213.7162)" class="st2 st3 st4">1</text>
	<text transform="matrix(1 0 0 1 73.9643 213.7162)" class="st2 st3 st4">2</text>
	<text transform="matrix(1 0 0 1 96.5386 213.7162)" class="st2 st3 st4">3</text>
	<text transform="matrix(1 0 0 1 119.0532 213.7162)" class="st2 st3 st4">4</text>
	<text transform="matrix(1 0 0 1 141.727 213.7162)" class="st2 st3 st4">5</text>
	<text transform="matrix(1 0 0 1 164.0493 213.7162)" class="st2 st3 st4">6</text>
	<text transform="matrix(1 0 0 1 187.0754 213.7162)" class="st2 st3 st4">7</text>
	<text transform="matrix(1 0 0 1 209.2658 213.7162)" class="st2 st3 st4">8</text>
	<text transform="matrix(1 0 0 1 231.76 213.7162)" class="st2 st3 st4">9</text>
	<text transform="matrix(1 0 0 1 252.4104 213.7162)" class="st2 st3 st4">10</text>
	<text transform="matrix(1 0 0 1 275.8908 213.7162)" class="st2 st3 st4">11</text>
	<text transform="matrix(1 0 0 1 297.9533 213.7162)" class="st2 st3 st4">12</text>
	<text transform="matrix(1 0 0 1 320.5276 213.7162)" class="st2 st3 st4">13</text>
	<text transform="matrix(1 0 0 1 343.0412 213.7162)" class="st2 st3 st4">14</text>
	<text transform="matrix(1 0 0 1 365.716 213.7162)" class="st2 st3 st4">15</text>
	<text transform="matrix(1 0 0 1 74.1977 236.2455)" class="st2 st3 st4">1</text>
	<text transform="matrix(1 0 0 1 96.2602 236.2455)" class="st2 st3 st4">2</text>
	<text transform="matrix(1 0 0 1 118.8344 236.2455)" class="st2 st3 st4">3</text>
	<text transform="matrix(1 0 0 1 141.3491 236.2455)" class="st2 st3 st4">4</text>
	<text transform="matrix(1 0 0 1 164.0229 236.2455)" class="st2 st3 st4">5</text>
	<text transform="matrix(1 0 0 1 186.3449 236.2455)" class="st2 st3 st4">6</text>
	<text transform="matrix(1 0 0 1 209.3713 236.2455)" class="st2 st3 st4">7</text>
	<text transform="matrix(1 0 0 1 231.5617 236.2455)" class="st2 st3 st4">8</text>
	<text transform="matrix(1 0 0 1 254.0559 236.2455)" class="st2 st3 st4">9</text>
	<text transform="matrix(1 0 0 1 274.7063 236.2455)" class="st2 st3 st4">10</text>
	<text transform="matrix(1 0 0 1 298.1867 236.2455)" class="st2 st3 st4">11</text>
	<text transform="matrix(1 0 0 1 320.2492 236.2455)" class="st2 st3 st4">12</text>
	<text transform="matrix(1 0 0 1 342.8235 236.2455)" class="st2 st3 st4">13</text>
	<text transform="matrix(1 0 0 1 74.2837 258.5971)" class="st2 st3 st4">1</text>
	<text transform="matrix(1 0 0 1 96.3462 258.5971)" class="st2 st3 st4">2</text>
	<text transform="matrix(1 0 0 1 118.9204 258.5971)" class="st2 st3 st4">3</text>
	<text transform="matrix(1 0 0 1 141.435 258.5971)" class="st2 st3 st4">4</text>
	<text transform="matrix(1 0 0 1 164.1089 258.5971)" class="st2 st3 st4">5</text>
	<text transform="matrix(1 0 0 1 186.4309 258.5971)" class="st2 st3 st4">6</text>
	<text transform="matrix(1 0 0 1 209.4572 258.5971)" class="st2 st3 st4">7</text>
	<text transform="matrix(1 0 0 1 231.6477 258.5971)" class="st2 st3 st4">8</text>
	<text transform="matrix(1 0 0 1 254.1418 258.5971)" class="st2 st3 st4">9</text>
	<text transform="matrix(1 0 0 1 274.7922 258.5971)" class="st2 st3 st4">10</text>
	<text transform="matrix(1 0 0 1 298.2727 258.5971)" class="st2 st3 st4">11</text>
	<text transform="matrix(1 0 0 1 320.3352 258.5971)" class="st2 st3 st4">12</text>
	<text transform="matrix(1 0 0 1 342.9094 258.5971)" class="st2 st3 st4">13</text>
	<text transform="matrix(1 0 0 1 119.3374 462.1557)" class="st2 st3 st4">1</text>
	<text transform="matrix(1 0 0 1 141.3999 462.1557)" class="st2 st3 st4">2</text>
	<text transform="matrix(1 0 0 1 163.9741 462.1557)" class="st2 st3 st4">3</text>
	<text transform="matrix(1 0 0 1 186.4885 462.1557)" class="st2 st3 st4">4</text>
	<text transform="matrix(1 0 0 1 209.1623 462.1557)" class="st2 st3 st4">5</text>
	<text transform="matrix(1 0 0 1 231.4846 462.1557)" class="st2 st3 st4">6</text>
	<text transform="matrix(1 0 0 1 254.511 462.1557)" class="st2 st3 st4">7</text>
	<text transform="matrix(1 0 0 1 276.7014 462.1557)" class="st2 st3 st4">8</text>
	<text transform="matrix(1 0 0 1 299.1955 462.1557)" class="st2 st3 st4">9</text>
	<text transform="matrix(1 0 0 1 319.8459 462.1557)" class="st2 st3 st4">10</text>
	<text transform="matrix(1 0 0 1 343.3264 462.1557)" class="st2 st3 st4">11</text>
	<text transform="matrix(1 0 0 1 365.3889 462.1557)" class="st2 st3 st4">12</text>
	<text transform="matrix(1 0 0 1 387.9631 462.1557)" class="st2 st3 st4">13</text>
	<text transform="matrix(1 0 0 1 142.1743 484.5072)" class="st2 st3 st4">1</text>
	<text transform="matrix(1 0 0 1 164.2368 484.5072)" class="st2 st3 st4">2</text>
	<text transform="matrix(1 0 0 1 186.8108 484.5072)" class="st2 st3 st4">3</text>
	<text transform="matrix(1 0 0 1 209.3254 484.5072)" class="st2 st3 st4">4</text>
	<text transform="matrix(1 0 0 1 231.9992 484.5072)" class="st2 st3 st4">5</text>
	<text transform="matrix(1 0 0 1 254.3215 484.5072)" class="st2 st3 st4">6</text>
	<text transform="matrix(1 0 0 1 277.3479 484.5072)" class="st2 st3 st4">7</text>
	<text transform="matrix(1 0 0 1 299.5383 484.5072)" class="st2 st3 st4">8</text>
	<text transform="matrix(1 0 0 1 322.0324 484.5072)" class="st2 st3 st4">9</text>
	<text transform="matrix(1 0 0 1 342.6828 484.5072)" class="st2 st3 st4">10</text>
	<text transform="matrix(1 0 0 1 366.1633 484.5072)" class="st2 st3 st4">11</text>
	<text transform="matrix(1 0 0 1 388.2258 484.5072)" class="st2 st3 st4">12</text>
	<text transform="matrix(1 0 0 1 142.1743 507.3393)" class="st2 st3 st4">1</text>
	<text transform="matrix(1 0 0 1 164.2368 507.3393)" class="st2 st3 st4">2</text>
	<text transform="matrix(1 0 0 1 186.8108 507.3393)" class="st2 st3 st4">3</text>
	<text transform="matrix(1 0 0 1 209.3254 507.3393)" class="st2 st3 st4">4</text>
	<text transform="matrix(1 0 0 1 231.9992 507.3393)" class="st2 st3 st4">5</text>
	<text transform="matrix(1 0 0 1 254.3215 507.3393)" class="st2 st3 st4">6</text>
	<text transform="matrix(1 0 0 1 277.3479 507.3393)" class="st2 st3 st4">7</text>
	<text transform="matrix(1 0 0 1 299.5383 507.3393)" class="st2 st3 st4">8</text>
	<text transform="matrix(1 0 0 1 322.0324 507.3393)" class="st2 st3 st4">9</text>
	<text transform="matrix(1 0 0 1 342.6828 507.3393)" class="st2 st3 st4">10</text>
	<text transform="matrix(1 0 0 1 366.1633 507.3393)" class="st2 st3 st4">11</text>
	<text transform="matrix(1 0 0 1 388.2258 507.3393)" class="st2 st3 st4">12</text>
	<text transform="matrix(1 0 0 1 142.1743 529.8705)" class="st2 st3 st4">1</text>
	<text transform="matrix(1 0 0 1 164.2368 529.8705)" class="st2 st3 st4">2</text>
	<text transform="matrix(1 0 0 1 186.8108 529.8705)" class="st2 st3 st4">3</text>
	<text transform="matrix(1 0 0 1 209.3254 529.8705)" class="st2 st3 st4">4</text>
	<text transform="matrix(1 0 0 1 231.9992 529.8705)" class="st2 st3 st4">5</text>
	<text transform="matrix(1 0 0 1 254.3215 529.8705)" class="st2 st3 st4">6</text>
	<text transform="matrix(1 0 0 1 277.3479 529.8705)" class="st2 st3 st4">7</text>
	<text transform="matrix(1 0 0 1 299.5383 529.8705)" class="st2 st3 st4">8</text>
	<text transform="matrix(1 0 0 1 322.0324 529.8705)" class="st2 st3 st4">9</text>
	<text transform="matrix(1 0 0 1 342.6828 529.8705)" class="st2 st3 st4">10</text>
	<text transform="matrix(1 0 0 1 366.1633 529.8705)" class="st2 st3 st4">11</text>
	<text transform="matrix(1 0 0 1 388.2258 529.8705)" class="st2 st3 st4">12</text>
	<text transform="matrix(1 0 0 1 142.1743 552.2221)" class="st2 st3 st4">1</text>
	<text transform="matrix(1 0 0 1 164.2368 552.2221)" class="st2 st3 st4">2</text>
	<text transform="matrix(1 0 0 1 186.8108 552.2221)" class="st2 st3 st4">3</text>
	<text transform="matrix(1 0 0 1 209.3254 552.2221)" class="st2 st3 st4">4</text>
	<text transform="matrix(1 0 0 1 231.9992 552.2221)" class="st2 st3 st4">5</text>
	<text transform="matrix(1 0 0 1 254.3215 552.2221)" class="st2 st3 st4">6</text>
	<text transform="matrix(1 0 0 1 277.3479 552.2221)" class="st2 st3 st4">7</text>
	<text transform="matrix(1 0 0 1 299.5383 552.2221)" class="st2 st3 st4">8</text>
	<text transform="matrix(1 0 0 1 322.0324 552.2221)" class="st2 st3 st4">9</text>
	<text transform="matrix(1 0 0 1 342.6828 552.2221)" class="st2 st3 st4">10</text>
	<text transform="matrix(1 0 0 1 366.1633 552.2221)" class="st2 st3 st4">11</text>
	<text transform="matrix(1 0 0 1 388.2258 552.2221)" class="st2 st3 st4">12</text>
	<text transform="matrix(1 0 0 1 164.479 575.0541)" class="st2 st3 st4">1</text>
	<text transform="matrix(1 0 0 1 186.5412 575.0541)" class="st2 st3 st4">2</text>
	<text transform="matrix(1 0 0 1 209.1154 575.0541)" class="st2 st3 st4">3</text>
	<text transform="matrix(1 0 0 1 231.6301 575.0541)" class="st2 st3 st4">4</text>
	<text transform="matrix(1 0 0 1 254.3039 575.0541)" class="st2 st3 st4">5</text>
	<text transform="matrix(1 0 0 1 276.6262 575.0541)" class="st2 st3 st4">6</text>
	<text transform="matrix(1 0 0 1 299.6526 575.0541)" class="st2 st3 st4">7</text>
	<text transform="matrix(1 0 0 1 321.843 575.0541)" class="st2 st3 st4">8</text>
	<text transform="matrix(1 0 0 1 344.3371 575.0541)" class="st2 st3 st4">9</text>
	<text transform="matrix(1 0 0 1 364.9875 575.0541)" class="st2 st3 st4">10</text>
	<text transform="matrix(1 0 0 1 388.468 575.0541)" class="st2 st3 st4">11</text>
	<text transform="matrix(1 0 0 1 164.479 597.6381)" class="st2 st3 st4">1</text>
	<text transform="matrix(1 0 0 1 186.5412 597.6381)" class="st2 st3 st4">2</text>
	<text transform="matrix(1 0 0 1 209.1154 597.6381)" class="st2 st3 st4">3</text>
	<text transform="matrix(1 0 0 1 231.6301 597.6381)" class="st2 st3 st4">4</text>
	<text transform="matrix(1 0 0 1 254.3039 597.6381)" class="st2 st3 st4">5</text>
	<text transform="matrix(1 0 0 1 276.6262 597.6381)" class="st2 st3 st4">6</text>
	<text transform="matrix(1 0 0 1 299.6526 597.6381)" class="st2 st3 st4">7</text>
	<text transform="matrix(1 0 0 1 321.843 597.6381)" class="st2 st3 st4">8</text>
	<text transform="matrix(1 0 0 1 344.3371 597.6381)" class="st2 st3 st4">9</text>
	<text transform="matrix(1 0 0 1 364.9875 597.6381)" class="st2 st3 st4">10</text>
	<text transform="matrix(1 0 0 1 388.468 597.6381)" class="st2 st3 st4">11</text>
	<text transform="matrix(1 0 0 1 368.7365 619.9838)" class="st2 st3 st4">1</text>
	<text transform="matrix(1 0 0 1 390.799 619.9838)" class="st2 st3 st4">2</text>
	<text transform="matrix(1 0 0 1 368.7365 642.3354)" class="st2 st3 st4">1</text>
	<text transform="matrix(1 0 0 1 390.799 642.3354)" class="st2 st3 st4">2</text>
	<text transform="matrix(1 0 0 1 368.7365 665.1694)" class="st2 st3 st4">1</text>
	<text transform="matrix(1 0 0 1 390.799 665.1694)" class="st2 st3 st4">2</text>
	<text transform="matrix(1 0 0 1 368.7365 687.7514)" class="st2 st3 st4">1</text>
	<text transform="matrix(1 0 0 1 390.799 687.7514)" class="st2 st3 st4">2</text>
	<text transform="matrix(1 0 0 1 96.8012 304.0365)" class="st2 st3 st4">1</text>
	<text transform="matrix(1 0 0 1 118.8637 304.0365)" class="st2 st3 st4">2</text>
	<text transform="matrix(1 0 0 1 141.437 304.0365)" class="st2 st3 st4">3</text>
	<text transform="matrix(1 0 0 1 163.9516 304.0365)" class="st2 st3 st4">4</text>
	<text transform="matrix(1 0 0 1 186.6252 304.0365)" class="st2 st3 st4">5</text>
	<text transform="matrix(1 0 0 1 208.9475 304.0365)" class="st2 st3 st4">6</text>
	<text transform="matrix(1 0 0 1 231.9738 304.0365)" class="st2 st3 st4">7</text>
	<text transform="matrix(1 0 0 1 254.1643 304.0365)" class="st2 st3 st4">8</text>
	<text transform="matrix(1 0 0 1 276.6584 304.0365)" class="st2 st3 st4">9</text>
	<text transform="matrix(1 0 0 1 297.3088 304.0365)" class="st2 st3 st4">10</text>
	<text transform="matrix(1 0 0 1 320.7903 304.0365)" class="st2 st3 st4">11</text>
	<text transform="matrix(1 0 0 1 342.8528 304.0365)" class="st2 st3 st4">12</text>
	<text transform="matrix(1 0 0 1 96.8012 281.8236)" class="st2 st3 st4">1</text>
	<text transform="matrix(1 0 0 1 118.8637 281.8236)" class="st2 st3 st4">2</text>
	<text transform="matrix(1 0 0 1 141.437 281.8236)" class="st2 st3 st4">3</text>
	<text transform="matrix(1 0 0 1 163.9516 281.8236)" class="st2 st3 st4">4</text>
	<text transform="matrix(1 0 0 1 186.6252 281.8236)" class="st2 st3 st4">5</text>
	<text transform="matrix(1 0 0 1 208.9475 281.8236)" class="st2 st3 st4">6</text>
	<text transform="matrix(1 0 0 1 231.9738 281.8236)" class="st2 st3 st4">7</text>
	<text transform="matrix(1 0 0 1 254.1643 281.8236)" class="st2 st3 st4">8</text>
	<text transform="matrix(1 0 0 1 276.6584 281.8236)" class="st2 st3 st4">9</text>
	<text transform="matrix(1 0 0 1 297.3088 281.8236)" class="st2 st3 st4">10</text>
	<text transform="matrix(1 0 0 1 320.7903 281.8236)" class="st2 st3 st4">11</text>
	<text transform="matrix(1 0 0 1 342.8528 281.8236)" class="st2 st3 st4">12</text>
</g>
<g>
	<text transform="matrix(1 0 0 1 459.937 687.7514)" class="st5 st6 st7">1</text>
	<text transform="matrix(1 0 0 1 460.2573 55.1234)" class="st8 st6 st7">29</text>
	<text transform="matrix(1 0 0 1 460.2573 10.7524)" class="st8 st6 st7">30</text>
	<text transform="matrix(1 0 0 1 460.2573 100.6195)" class="st8 st6 st7">27</text>
	<text transform="matrix(1 0 0 1 460.2573 78.0492)" class="st8 st6 st7">28</text>
	<text transform="matrix(1 0 0 1 460.2573 145.7621)" class="st8 st6 st7">25</text>
	<text transform="matrix(1 0 0 1 460.0971 326.3617)" class="st8 st6 st7">17</text>
	<text transform="matrix(1 0 0 1 460.0971 348.9135)" class="st8 st6 st7">16</text>
	<text transform="matrix(1 0 0 1 460.2573 371.5492)" class="st8 st6 st7">15</text>
	<text transform="matrix(1 0 0 1 460.2573 394.101)" class="st8 st6 st7">14</text>
	<text transform="matrix(1 0 0 1 460.0698 416.7338)" class="st8 st6 st7">13</text>
	<text transform="matrix(1 0 0 1 460.0971 439.2865)" class="st8 st6 st7">12</text>
	<text transform="matrix(1 0 0 1 460.4341 619.9838)" class="st8 st6 st7">4</text>
	<text transform="matrix(1 0 0 1 460.4341 642.6166)" class="st8 st6 st7">3</text>
	<text transform="matrix(1 0 0 1 460.0698 665.1694)" class="st8 st6 st7">2</text>
	<text transform="matrix(1 0 0 1 460.2573 123.1918)" class="st8 st6 st7">26</text>
	<text transform="matrix(1 0 0 1 460.2573 168.2162)" class="st8 st6 st7">24</text>
	<text transform="matrix(1 0 0 1 460.2573 213.4037)" class="st8 st6 st7">22</text>
	<text transform="matrix(1 0 0 1 460.2573 190.8334)" class="st8 st6 st7">23</text>
	<text transform="matrix(1 0 0 1 460.2573 258.5482)" class="st8 st6 st7">20</text>
	<text transform="matrix(1 0 0 1 460.2573 235.9779)" class="st8 st6 st7">21</text>
	<text transform="matrix(1 0 0 1 460.0698 303.6908)" class="st8 st6 st7">18</text>
	<text transform="matrix(1 0 0 1 460.0971 281.1205)" class="st8 st6 st7">19</text>
	<text transform="matrix(1 0 0 1 460.0971 461.8402)" class="st8 st6 st7">11</text>
	<text transform="matrix(1 0 0 1 460.0971 507.0277)" class="st8 st6 st7">9</text>
	<text transform="matrix(1 0 0 1 460.0971 484.4574)" class="st8 st6 st7">10</text>
	<text transform="matrix(1 0 0 1 460.7046 552.1733)" class="st8 st6 st7">7</text>
	<text transform="matrix(1 0 0 1 460.0698 529.603)" class="st8 st6 st7">8</text>
	<text transform="matrix(1 0 0 1 460.0971 574.7455)" class="st8 st6 st7">6</text>
	<text transform="matrix(1 0 0 1 460.7046 597.3286)" class="st8 st6 st7">5</text>
</g>
</svg>
