<?xml version="1.0" encoding="utf-8"?>
<!-- Generator: Adobe Illustrator 20.1.0, SVG Export Plug-In . SVG Version: 6.00 Build 0)  -->
<svg version="1.1" id="Layer_1" xmlns="http://www.w3.org/2000/svg" xmlns:xlink="http://www.w3.org/1999/xlink" x="0px" y="0px"
	 viewBox="0 0 448.5 627.3" style="enable-background:new 0 0 448.5 627.3;" xml:space="preserve">
<style type="text/css">
	.st0{fill:#7B878F;}
	.st1{font-family:'OsnovaProLight';}
	.st2{font-size:9px;}
	.st3{fill:#D9F6E1;}
	.st4{fill:#FFFFFF;}
	.st5{fill:#737373;}
	.st6{font-family:'OsnovaPro';}
	.st7{font-size:8px;}
</style>
<g>
	<text transform="matrix(1 0 0 1 437.7158 54.6004)" class="st0 st1 st2">29</text>
	<text transform="matrix(1 0 0 1 437.7158 10.2293)" class="st0 st1 st2">30</text>
	<text transform="matrix(1 0 0 1 437.7158 100.0965)" class="st0 st1 st2">27</text>
	<text transform="matrix(1 0 0 1 437.7158 77.5262)" class="st0 st1 st2">28</text>
	<text transform="matrix(1 0 0 1 437.7158 145.2391)" class="st0 st1 st2">25</text>
	<text transform="matrix(1 0 0 1 437.5556 325.8387)" class="st0 st1 st2">17</text>
	<text transform="matrix(1 0 0 1 437.5556 348.3905)" class="st0 st1 st2">16</text>
	<text transform="matrix(1 0 0 1 437.7158 371.0262)" class="st0 st1 st2">15</text>
	<text transform="matrix(1 0 0 1 437.7158 393.578)" class="st0 st1 st2">14</text>
	<text transform="matrix(1 0 0 1 437.5283 416.2108)" class="st0 st1 st2">13</text>
	<text transform="matrix(1 0 0 1 437.5556 438.7635)" class="st0 st1 st2">12</text>
	<text transform="matrix(1 0 0 1 437.8925 619.4608)" class="st0 st1 st2">4</text>
	<text transform="matrix(1 0 0 1 437.7158 122.6688)" class="st0 st1 st2">26</text>
	<text transform="matrix(1 0 0 1 437.7158 167.6932)" class="st0 st1 st2">24</text>
	<text transform="matrix(1 0 0 1 437.7158 212.8807)" class="st0 st1 st2">22</text>
	<text transform="matrix(1 0 0 1 437.7158 190.3104)" class="st0 st1 st2">23</text>
	<text transform="matrix(1 0 0 1 437.7158 258.0252)" class="st0 st1 st2">20</text>
	<text transform="matrix(1 0 0 1 437.7158 235.4549)" class="st0 st1 st2">21</text>
	<text transform="matrix(1 0 0 1 437.5283 303.1678)" class="st0 st1 st2">18</text>
	<text transform="matrix(1 0 0 1 437.5556 280.5975)" class="st0 st1 st2">19</text>
	<text transform="matrix(1 0 0 1 437.5556 461.3172)" class="st0 st1 st2">11</text>
	<text transform="matrix(1 0 0 1 437.5556 506.5047)" class="st0 st1 st2">9</text>
	<text transform="matrix(1 0 0 1 437.5556 483.9344)" class="st0 st1 st2">10</text>
	<text transform="matrix(1 0 0 1 438.1631 551.6502)" class="st0 st1 st2">7</text>
	<text transform="matrix(1 0 0 1 437.5283 529.0799)" class="st0 st1 st2">8</text>
	<text transform="matrix(1 0 0 1 437.5556 574.2225)" class="st0 st1 st2">6</text>
	<text transform="matrix(1 0 0 1 438.1631 596.8055)" class="st0 st1 st2">5</text>
</g>
<path class="st3" d="M121.3,16.6L121.3,16.6c-4.6,0-8.3-3.7-8.3-8.3v0c0-4.6,3.7-8.3,8.3-8.3h0c4.6,0,8.3,3.7,8.3,8.3v0
	C129.6,12.8,125.8,16.6,121.3,16.6z"/>
<path class="st3" d="M143.9,16.6L143.9,16.6c-4.6,0-8.3-3.7-8.3-8.3v0c0-4.6,3.7-8.3,8.3-8.3h0c4.6,0,8.3,3.7,8.3,8.3v0
	C152.1,12.8,148.4,16.6,143.9,16.6z"/>
<path class="st3" d="M166.4,16.6L166.4,16.6c-4.6,0-8.3-3.7-8.3-8.3v0c0-4.6,3.7-8.3,8.3-8.3h0c4.6,0,8.3,3.7,8.3,8.3v0
	C174.7,12.8,171,16.6,166.4,16.6z"/>
<path class="st3" d="M189,16.6L189,16.6c-4.6,0-8.3-3.7-8.3-8.3v0c0-4.6,3.7-8.3,8.3-8.3h0c4.6,0,8.3,3.7,8.3,8.3v0
	C197.3,12.8,193.6,16.6,189,16.6z"/>
<path class="st3" d="M211.6,16.6L211.6,16.6c-4.6,0-8.3-3.7-8.3-8.3v0c0-4.6,3.7-8.3,8.3-8.3h0c4.6,0,8.3,3.7,8.3,8.3v0
	C219.9,12.8,216.1,16.6,211.6,16.6z"/>
<path class="st3" d="M234.1,16.6L234.1,16.6c-4.6,0-8.3-3.7-8.3-8.3v0c0-4.6,3.7-8.3,8.3-8.3h0c4.6,0,8.3,3.7,8.3,8.3v0
	C242.4,12.8,238.7,16.6,234.1,16.6z"/>
<path class="st3" d="M256.7,16.6L256.7,16.6c-4.6,0-8.3-3.7-8.3-8.3v0c0-4.6,3.7-8.3,8.3-8.3l0,0c4.6,0,8.3,3.7,8.3,8.3v0
	C265,12.8,261.3,16.6,256.7,16.6z"/>
<path class="st3" d="M279.3,16.6L279.3,16.6c-4.6,0-8.3-3.7-8.3-8.3v0c0-4.6,3.7-8.3,8.3-8.3l0,0c4.6,0,8.3,3.7,8.3,8.3v0
	C287.6,12.8,283.8,16.6,279.3,16.6z"/>
<path class="st3" d="M301.9,16.6L301.9,16.6c-4.6,0-8.3-3.7-8.3-8.3v0c0-4.6,3.7-8.3,8.3-8.3h0c4.6,0,8.3,3.7,8.3,8.3v0
	C310.1,12.8,306.4,16.6,301.9,16.6z"/>
<path class="st3" d="M324.4,16.6L324.4,16.6c-4.6,0-8.3-3.7-8.3-8.3v0c0-4.6,3.7-8.3,8.3-8.3h0c4.6,0,8.3,3.7,8.3,8.3v0
	C332.7,12.8,329,16.6,324.4,16.6z"/>
<path class="st3" d="M347,16.6L347,16.6c-4.6,0-8.3-3.7-8.3-8.3v0c0-4.6,3.7-8.3,8.3-8.3l0,0c4.6,0,8.3,3.7,8.3,8.3v0
	C355.3,12.8,351.5,16.6,347,16.6z"/>
<path class="st3" d="M369.6,16.6L369.6,16.6c-4.6,0-8.3-3.7-8.3-8.3v0c0-4.6,3.7-8.3,8.3-8.3l0,0c4.6,0,8.3,3.7,8.3,8.3v0
	C377.8,12.8,374.1,16.6,369.6,16.6z"/>
<path class="st4" d="M8.3,107.9L8.3,107.9c-4.6,0-8.3-3.7-8.3-8.3v0c0-4.6,3.7-8.3,8.3-8.3h0c4.6,0,8.3,3.7,8.3,8.3v0
	C16.6,104.2,12.8,107.9,8.3,107.9z"/>
<path class="st4" d="M30.9,107.9L30.9,107.9c-4.6,0-8.3-3.7-8.3-8.3v0c0-4.6,3.7-8.3,8.3-8.3h0c4.6,0,8.3,3.7,8.3,8.3v0
	C39.1,104.2,35.4,107.9,30.9,107.9z"/>
<path class="st4" d="M53.4,107.9L53.4,107.9c-4.6,0-8.3-3.7-8.3-8.3v0c0-4.6,3.7-8.3,8.3-8.3h0c4.6,0,8.3,3.7,8.3,8.3v0
	C61.7,104.2,58,107.9,53.4,107.9z"/>
<path class="st4" d="M76,107.9L76,107.9c-4.6,0-8.3-3.7-8.3-8.3v0c0-4.6,3.7-8.3,8.3-8.3h0c4.6,0,8.3,3.7,8.3,8.3v0
	C84.3,104.2,80.6,107.9,76,107.9z"/>
<path class="st4" d="M98.6,107.9L98.6,107.9c-4.6,0-8.3-3.7-8.3-8.3v0c0-4.6,3.7-8.3,8.3-8.3h0c4.6,0,8.3,3.7,8.3,8.3v0
	C106.9,104.2,103.1,107.9,98.6,107.9z"/>
<path class="st4" d="M121.1,107.9L121.1,107.9c-4.6,0-8.3-3.7-8.3-8.3v0c0-4.6,3.7-8.3,8.3-8.3h0c4.6,0,8.3,3.7,8.3,8.3v0
	C129.4,104.2,125.7,107.9,121.1,107.9z"/>
<path class="st4" d="M143.7,107.9L143.7,107.9c-4.6,0-8.3-3.7-8.3-8.3v0c0-4.6,3.7-8.3,8.3-8.3h0c4.6,0,8.3,3.7,8.3,8.3v0
	C152,104.2,148.3,107.9,143.7,107.9z"/>
<path class="st4" d="M166.3,107.9L166.3,107.9c-4.6,0-8.3-3.7-8.3-8.3v0c0-4.6,3.7-8.3,8.3-8.3h0c4.6,0,8.3,3.7,8.3,8.3v0
	C174.6,104.2,170.8,107.9,166.3,107.9z"/>
<path class="st4" d="M188.8,107.9L188.8,107.9c-4.6,0-8.3-3.7-8.3-8.3v0c0-4.6,3.7-8.3,8.3-8.3h0c4.6,0,8.3,3.7,8.3,8.3v0
	C197.1,104.2,193.4,107.9,188.8,107.9z"/>
<path class="st4" d="M211.4,107.9L211.4,107.9c-4.6,0-8.3-3.7-8.3-8.3v0c0-4.6,3.7-8.3,8.3-8.3h0c4.6,0,8.3,3.7,8.3,8.3v0
	C219.7,104.2,216,107.9,211.4,107.9z"/>
<path class="st4" d="M234,107.9L234,107.9c-4.6,0-8.3-3.7-8.3-8.3v0c0-4.6,3.7-8.3,8.3-8.3h0c4.6,0,8.3,3.7,8.3,8.3v0
	C242.3,104.2,238.5,107.9,234,107.9z"/>
<path class="st4" d="M256.6,107.9L256.6,107.9c-4.6,0-8.3-3.7-8.3-8.3v0c0-4.6,3.7-8.3,8.3-8.3h0c4.6,0,8.3,3.7,8.3,8.3v0
	C264.8,104.2,261.1,107.9,256.6,107.9z"/>
<path class="st4" d="M279.1,107.9L279.1,107.9c-4.6,0-8.3-3.7-8.3-8.3v0c0-4.6,3.7-8.3,8.3-8.3h0c4.6,0,8.3,3.7,8.3,8.3v0
	C287.4,104.2,283.7,107.9,279.1,107.9z"/>
<path class="st4" d="M301.7,107.9L301.7,107.9c-4.6,0-8.3-3.7-8.3-8.3v0c0-4.6,3.7-8.3,8.3-8.3l0,0c4.6,0,8.3,3.7,8.3,8.3v0
	C310,104.2,306.3,107.9,301.7,107.9z"/>
<path class="st4" d="M324.3,107.9L324.3,107.9c-4.6,0-8.3-3.7-8.3-8.3v0c0-4.6,3.7-8.3,8.3-8.3l0,0c4.6,0,8.3,3.7,8.3,8.3v0
	C332.6,104.2,328.8,107.9,324.3,107.9z"/>
<path class="st4" d="M346.8,107.9L346.8,107.9c-4.6,0-8.3-3.7-8.3-8.3v0c0-4.6,3.7-8.3,8.3-8.3h0c4.6,0,8.3,3.7,8.3,8.3v0
	C355.1,104.2,351.4,107.9,346.8,107.9z"/>
<path class="st4" d="M8.3,85.3L8.3,85.3C3.7,85.3,0,81.6,0,77v0c0-4.6,3.7-8.3,8.3-8.3h0c4.6,0,8.3,3.7,8.3,8.3v0
	C16.6,81.6,12.8,85.3,8.3,85.3z"/>
<path class="st4" d="M30.9,85.3L30.9,85.3c-4.6,0-8.3-3.7-8.3-8.3v0c0-4.6,3.7-8.3,8.3-8.3h0c4.6,0,8.3,3.7,8.3,8.3v0
	C39.1,81.6,35.4,85.3,30.9,85.3z"/>
<path class="st4" d="M53.4,85.3L53.4,85.3c-4.6,0-8.3-3.7-8.3-8.3v0c0-4.6,3.7-8.3,8.3-8.3h0c4.6,0,8.3,3.7,8.3,8.3v0
	C61.7,81.6,58,85.3,53.4,85.3z"/>
<path class="st4" d="M76,85.3L76,85.3c-4.6,0-8.3-3.7-8.3-8.3v0c0-4.6,3.7-8.3,8.3-8.3h0c4.6,0,8.3,3.7,8.3,8.3v0
	C84.3,81.6,80.6,85.3,76,85.3z"/>
<path class="st4" d="M98.6,85.3L98.6,85.3c-4.6,0-8.3-3.7-8.3-8.3v0c0-4.6,3.7-8.3,8.3-8.3h0c4.6,0,8.3,3.7,8.3,8.3v0
	C106.9,81.6,103.1,85.3,98.6,85.3z"/>
<path class="st4" d="M121.1,85.3L121.1,85.3c-4.6,0-8.3-3.7-8.3-8.3v0c0-4.6,3.7-8.3,8.3-8.3h0c4.6,0,8.3,3.7,8.3,8.3v0
	C129.4,81.6,125.7,85.3,121.1,85.3z"/>
<path class="st4" d="M143.7,85.3L143.7,85.3c-4.6,0-8.3-3.7-8.3-8.3v0c0-4.6,3.7-8.3,8.3-8.3h0c4.6,0,8.3,3.7,8.3,8.3v0
	C152,81.6,148.3,85.3,143.7,85.3z"/>
<path class="st4" d="M166.3,85.3L166.3,85.3c-4.6,0-8.3-3.7-8.3-8.3v0c0-4.6,3.7-8.3,8.3-8.3h0c4.6,0,8.3,3.7,8.3,8.3v0
	C174.6,81.6,170.8,85.3,166.3,85.3z"/>
<path class="st4" d="M188.8,85.3L188.8,85.3c-4.6,0-8.3-3.7-8.3-8.3v0c0-4.6,3.7-8.3,8.3-8.3h0c4.6,0,8.3,3.7,8.3,8.3v0
	C197.1,81.6,193.4,85.3,188.8,85.3z"/>
<path class="st4" d="M211.4,85.3L211.4,85.3c-4.6,0-8.3-3.7-8.3-8.3v0c0-4.6,3.7-8.3,8.3-8.3h0c4.6,0,8.3,3.7,8.3,8.3v0
	C219.7,81.6,216,85.3,211.4,85.3z"/>
<path class="st4" d="M234,85.3L234,85.3c-4.6,0-8.3-3.7-8.3-8.3v0c0-4.6,3.7-8.3,8.3-8.3h0c4.6,0,8.3,3.7,8.3,8.3v0
	C242.3,81.6,238.5,85.3,234,85.3z"/>
<path class="st4" d="M256.6,85.3L256.6,85.3c-4.6,0-8.3-3.7-8.3-8.3v0c0-4.6,3.7-8.3,8.3-8.3h0c4.6,0,8.3,3.7,8.3,8.3v0
	C264.8,81.6,261.1,85.3,256.6,85.3z"/>
<path class="st4" d="M279.1,85.3L279.1,85.3c-4.6,0-8.3-3.7-8.3-8.3v0c0-4.6,3.7-8.3,8.3-8.3h0c4.6,0,8.3,3.7,8.3,8.3v0
	C287.4,81.6,283.7,85.3,279.1,85.3z"/>
<path class="st4" d="M301.7,85.3L301.7,85.3c-4.6,0-8.3-3.7-8.3-8.3v0c0-4.6,3.7-8.3,8.3-8.3l0,0c4.6,0,8.3,3.7,8.3,8.3v0
	C310,81.6,306.3,85.3,301.7,85.3z"/>
<path class="st4" d="M324.3,85.3L324.3,85.3c-4.6,0-8.3-3.7-8.3-8.3v0c0-4.6,3.7-8.3,8.3-8.3l0,0c4.6,0,8.3,3.7,8.3,8.3v0
	C332.6,81.6,328.8,85.3,324.3,85.3z"/>
<path class="st4" d="M346.8,85.3L346.8,85.3c-4.6,0-8.3-3.7-8.3-8.3v0c0-4.6,3.7-8.3,8.3-8.3h0c4.6,0,8.3,3.7,8.3,8.3v0
	C355.1,81.6,351.4,85.3,346.8,85.3z"/>
<path class="st4" d="M8.3,153L8.3,153c-4.6,0-8.3-3.7-8.3-8.3v0c0-4.6,3.7-8.3,8.3-8.3h0c4.6,0,8.3,3.7,8.3,8.3v0
	C16.6,149.3,12.9,153,8.3,153z"/>
<path class="st4" d="M30.9,153L30.9,153c-4.6,0-8.3-3.7-8.3-8.3v0c0-4.6,3.7-8.3,8.3-8.3h0c4.6,0,8.3,3.7,8.3,8.3v0
	C39.2,149.3,35.4,153,30.9,153z"/>
<path class="st4" d="M53.5,153L53.5,153c-4.6,0-8.3-3.7-8.3-8.3v0c0-4.6,3.7-8.3,8.3-8.3h0c4.6,0,8.3,3.7,8.3,8.3v0
	C61.7,149.3,58,153,53.5,153z"/>
<path class="st4" d="M76,153L76,153c-4.6,0-8.3-3.7-8.3-8.3v0c0-4.6,3.7-8.3,8.3-8.3h0c4.6,0,8.3,3.7,8.3,8.3v0
	C84.3,149.3,80.6,153,76,153z"/>
<path class="st4" d="M98.6,153L98.6,153c-4.6,0-8.3-3.7-8.3-8.3v0c0-4.6,3.7-8.3,8.3-8.3h0c4.6,0,8.3,3.7,8.3,8.3v0
	C106.9,149.3,103.1,153,98.6,153z"/>
<path class="st4" d="M121.2,153L121.2,153c-4.6,0-8.3-3.7-8.3-8.3v0c0-4.6,3.7-8.3,8.3-8.3h0c4.6,0,8.3,3.7,8.3,8.3v0
	C129.4,149.3,125.7,153,121.2,153z"/>
<path class="st4" d="M143.7,153L143.7,153c-4.6,0-8.3-3.7-8.3-8.3v0c0-4.6,3.7-8.3,8.3-8.3h0c4.6,0,8.3,3.7,8.3,8.3v0
	C152,149.3,148.3,153,143.7,153z"/>
<path class="st4" d="M166.3,153L166.3,153c-4.6,0-8.3-3.7-8.3-8.3v0c0-4.6,3.7-8.3,8.3-8.3h0c4.6,0,8.3,3.7,8.3,8.3v0
	C174.6,149.3,170.9,153,166.3,153z"/>
<path class="st4" d="M188.9,153L188.9,153c-4.6,0-8.3-3.7-8.3-8.3v0c0-4.6,3.7-8.3,8.3-8.3h0c4.6,0,8.3,3.7,8.3,8.3v0
	C197.2,149.3,193.4,153,188.9,153z"/>
<path class="st4" d="M211.4,153L211.4,153c-4.6,0-8.3-3.7-8.3-8.3v0c0-4.6,3.7-8.3,8.3-8.3h0c4.6,0,8.3,3.7,8.3,8.3v0
	C219.7,149.3,216,153,211.4,153z"/>
<path class="st4" d="M234,153L234,153c-4.6,0-8.3-3.7-8.3-8.3v0c0-4.6,3.7-8.3,8.3-8.3h0c4.6,0,8.3,3.7,8.3,8.3v0
	C242.3,149.3,238.6,153,234,153z"/>
<path class="st4" d="M256.6,153L256.6,153c-4.6,0-8.3-3.7-8.3-8.3v0c0-4.6,3.7-8.3,8.3-8.3l0,0c4.6,0,8.3,3.7,8.3,8.3v0
	C264.9,149.3,261.1,153,256.6,153z"/>
<path class="st4" d="M279.2,153L279.2,153c-4.6,0-8.3-3.7-8.3-8.3v0c0-4.6,3.7-8.3,8.3-8.3l0,0c4.6,0,8.3,3.7,8.3,8.3v0
	C287.4,149.3,283.7,153,279.2,153z"/>
<path class="st4" d="M301.7,153L301.7,153c-4.6,0-8.3-3.7-8.3-8.3v0c0-4.6,3.7-8.3,8.3-8.3h0c4.6,0,8.3,3.7,8.3,8.3v0
	C310,149.3,306.3,153,301.7,153z"/>
<path class="st4" d="M324.3,153L324.3,153c-4.6,0-8.3-3.7-8.3-8.3v0c0-4.6,3.7-8.3,8.3-8.3h0c4.6,0,8.3,3.7,8.3,8.3v0
	C332.6,149.3,328.9,153,324.3,153z"/>
<path class="st4" d="M76.3,333.6L76.3,333.6c-4.6,0-8.3-3.7-8.3-8.3v0c0-4.6,3.7-8.3,8.3-8.3h0c4.6,0,8.3,3.7,8.3,8.3v0
	C84.6,329.9,80.9,333.6,76.3,333.6z"/>
<path class="st4" d="M98.9,333.6L98.9,333.6c-4.6,0-8.3-3.7-8.3-8.3v0c0-4.6,3.7-8.3,8.3-8.3h0c4.6,0,8.3,3.7,8.3,8.3v0
	C107.2,329.9,103.4,333.6,98.9,333.6z"/>
<path class="st4" d="M121.5,333.6L121.5,333.6c-4.6,0-8.3-3.7-8.3-8.3v0c0-4.6,3.7-8.3,8.3-8.3h0c4.6,0,8.3,3.7,8.3,8.3v0
	C129.7,329.9,126,333.6,121.5,333.6z"/>
<path class="st4" d="M144,333.6L144,333.6c-4.6,0-8.3-3.7-8.3-8.3v0c0-4.6,3.7-8.3,8.3-8.3h0c4.6,0,8.3,3.7,8.3,8.3v0
	C152.3,329.9,148.6,333.6,144,333.6z"/>
<path class="st4" d="M166.6,333.6L166.6,333.6c-4.6,0-8.3-3.7-8.3-8.3v0c0-4.6,3.7-8.3,8.3-8.3h0c4.6,0,8.3,3.7,8.3,8.3v0
	C174.9,329.9,171.1,333.6,166.6,333.6z"/>
<path class="st4" d="M189.2,333.6L189.2,333.6c-4.6,0-8.3-3.7-8.3-8.3v0c0-4.6,3.7-8.3,8.3-8.3h0c4.6,0,8.3,3.7,8.3,8.3v0
	C197.4,329.9,193.7,333.6,189.2,333.6z"/>
<path class="st4" d="M211.7,333.6L211.7,333.6c-4.6,0-8.3-3.7-8.3-8.3v0c0-4.6,3.7-8.3,8.3-8.3h0c4.6,0,8.3,3.7,8.3,8.3v0
	C220,329.9,216.3,333.6,211.7,333.6z"/>
<path class="st4" d="M234.3,333.6L234.3,333.6c-4.6,0-8.3-3.7-8.3-8.3v0c0-4.6,3.7-8.3,8.3-8.3h0c4.6,0,8.3,3.7,8.3,8.3v0
	C242.6,329.9,238.9,333.6,234.3,333.6z"/>
<path class="st4" d="M256.9,333.6L256.9,333.6c-4.6,0-8.3-3.7-8.3-8.3v0c0-4.6,3.7-8.3,8.3-8.3h0c4.6,0,8.3,3.7,8.3,8.3v0
	C265.2,329.9,261.4,333.6,256.9,333.6z"/>
<path class="st4" d="M76.3,356.2L76.3,356.2c-4.6,0-8.3-3.7-8.3-8.3l0,0c0-4.6,3.7-8.3,8.3-8.3h0c4.6,0,8.3,3.7,8.3,8.3l0,0
	C84.6,352.4,80.9,356.2,76.3,356.2z"/>
<path class="st4" d="M98.9,356.2L98.9,356.2c-4.6,0-8.3-3.7-8.3-8.3l0,0c0-4.6,3.7-8.3,8.3-8.3h0c4.6,0,8.3,3.7,8.3,8.3l0,0
	C107.2,352.4,103.4,356.2,98.9,356.2z"/>
<path class="st4" d="M121.5,356.2L121.5,356.2c-4.6,0-8.3-3.7-8.3-8.3l0,0c0-4.6,3.7-8.3,8.3-8.3h0c4.6,0,8.3,3.7,8.3,8.3l0,0
	C129.7,352.4,126,356.2,121.5,356.2z"/>
<path class="st4" d="M144,356.2L144,356.2c-4.6,0-8.3-3.7-8.3-8.3l0,0c0-4.6,3.7-8.3,8.3-8.3h0c4.6,0,8.3,3.7,8.3,8.3l0,0
	C152.3,352.4,148.6,356.2,144,356.2z"/>
<path class="st4" d="M166.6,356.2L166.6,356.2c-4.6,0-8.3-3.7-8.3-8.3l0,0c0-4.6,3.7-8.3,8.3-8.3h0c4.6,0,8.3,3.7,8.3,8.3l0,0
	C174.9,352.4,171.1,356.2,166.6,356.2z"/>
<path class="st4" d="M189.2,356.2L189.2,356.2c-4.6,0-8.3-3.7-8.3-8.3l0,0c0-4.6,3.7-8.3,8.3-8.3h0c4.6,0,8.3,3.7,8.3,8.3l0,0
	C197.4,352.4,193.7,356.2,189.2,356.2z"/>
<path class="st4" d="M211.7,356.2L211.7,356.2c-4.6,0-8.3-3.7-8.3-8.3l0,0c0-4.6,3.7-8.3,8.3-8.3h0c4.6,0,8.3,3.7,8.3,8.3l0,0
	C220,352.4,216.3,356.2,211.7,356.2z"/>
<path class="st4" d="M234.3,356.2L234.3,356.2c-4.6,0-8.3-3.7-8.3-8.3l0,0c0-4.6,3.7-8.3,8.3-8.3h0c4.6,0,8.3,3.7,8.3,8.3l0,0
	C242.6,352.4,238.9,356.2,234.3,356.2z"/>
<path class="st4" d="M256.9,356.2L256.9,356.2c-4.6,0-8.3-3.7-8.3-8.3l0,0c0-4.6,3.7-8.3,8.3-8.3h0c4.6,0,8.3,3.7,8.3,8.3l0,0
	C265.2,352.4,261.4,356.2,256.9,356.2z"/>
<path class="st4" d="M76.3,378.8L76.3,378.8c-4.6,0-8.3-3.7-8.3-8.3v0c0-4.6,3.7-8.3,8.3-8.3h0c4.6,0,8.3,3.7,8.3,8.3v0
	C84.6,375.1,80.9,378.8,76.3,378.8z"/>
<path class="st4" d="M98.9,378.8L98.9,378.8c-4.6,0-8.3-3.7-8.3-8.3v0c0-4.6,3.7-8.3,8.3-8.3h0c4.6,0,8.3,3.7,8.3,8.3v0
	C107.2,375.1,103.4,378.8,98.9,378.8z"/>
<path class="st4" d="M121.5,378.8L121.5,378.8c-4.6,0-8.3-3.7-8.3-8.3v0c0-4.6,3.7-8.3,8.3-8.3h0c4.6,0,8.3,3.7,8.3,8.3v0
	C129.7,375.1,126,378.8,121.5,378.8z"/>
<path class="st4" d="M144,378.8L144,378.8c-4.6,0-8.3-3.7-8.3-8.3v0c0-4.6,3.7-8.3,8.3-8.3h0c4.6,0,8.3,3.7,8.3,8.3v0
	C152.3,375.1,148.6,378.8,144,378.8z"/>
<path class="st4" d="M166.6,378.8L166.6,378.8c-4.6,0-8.3-3.7-8.3-8.3v0c0-4.6,3.7-8.3,8.3-8.3h0c4.6,0,8.3,3.7,8.3,8.3v0
	C174.9,375.1,171.1,378.8,166.6,378.8z"/>
<path class="st4" d="M189.2,378.8L189.2,378.8c-4.6,0-8.3-3.7-8.3-8.3v0c0-4.6,3.7-8.3,8.3-8.3h0c4.6,0,8.3,3.7,8.3,8.3v0
	C197.4,375.1,193.7,378.8,189.2,378.8z"/>
<path class="st4" d="M211.7,378.8L211.7,378.8c-4.6,0-8.3-3.7-8.3-8.3v0c0-4.6,3.7-8.3,8.3-8.3h0c4.6,0,8.3,3.7,8.3,8.3v0
	C220,375.1,216.3,378.8,211.7,378.8z"/>
<path class="st4" d="M234.3,378.8L234.3,378.8c-4.6,0-8.3-3.7-8.3-8.3v0c0-4.6,3.7-8.3,8.3-8.3h0c4.6,0,8.3,3.7,8.3,8.3v0
	C242.6,375.1,238.9,378.8,234.3,378.8z"/>
<path class="st4" d="M76.3,401.4L76.3,401.4c-4.6,0-8.3-3.7-8.3-8.3l0,0c0-4.6,3.7-8.3,8.3-8.3h0c4.6,0,8.3,3.7,8.3,8.3l0,0
	C84.6,397.6,80.9,401.4,76.3,401.4z"/>
<path class="st4" d="M98.9,401.4L98.9,401.4c-4.6,0-8.3-3.7-8.3-8.3l0,0c0-4.6,3.7-8.3,8.3-8.3h0c4.6,0,8.3,3.7,8.3,8.3l0,0
	C107.2,397.6,103.4,401.4,98.9,401.4z"/>
<path class="st4" d="M121.5,401.4L121.5,401.4c-4.6,0-8.3-3.7-8.3-8.3l0,0c0-4.6,3.7-8.3,8.3-8.3h0c4.6,0,8.3,3.7,8.3,8.3l0,0
	C129.7,397.6,126,401.4,121.5,401.4z"/>
<path class="st4" d="M144,401.4L144,401.4c-4.6,0-8.3-3.7-8.3-8.3l0,0c0-4.6,3.7-8.3,8.3-8.3h0c4.6,0,8.3,3.7,8.3,8.3l0,0
	C152.3,397.6,148.6,401.4,144,401.4z"/>
<path class="st4" d="M166.6,401.4L166.6,401.4c-4.6,0-8.3-3.7-8.3-8.3l0,0c0-4.6,3.7-8.3,8.3-8.3h0c4.6,0,8.3,3.7,8.3,8.3l0,0
	C174.9,397.6,171.1,401.4,166.6,401.4z"/>
<path class="st4" d="M189.2,401.4L189.2,401.4c-4.6,0-8.3-3.7-8.3-8.3l0,0c0-4.6,3.7-8.3,8.3-8.3h0c4.6,0,8.3,3.7,8.3,8.3l0,0
	C197.4,397.6,193.7,401.4,189.2,401.4z"/>
<path class="st4" d="M211.7,401.4L211.7,401.4c-4.6,0-8.3-3.7-8.3-8.3l0,0c0-4.6,3.7-8.3,8.3-8.3h0c4.6,0,8.3,3.7,8.3,8.3l0,0
	C220,397.6,216.3,401.4,211.7,401.4z"/>
<path class="st4" d="M234.3,401.4L234.3,401.4c-4.6,0-8.3-3.7-8.3-8.3l0,0c0-4.6,3.7-8.3,8.3-8.3h0c4.6,0,8.3,3.7,8.3,8.3l0,0
	C242.6,397.6,238.9,401.4,234.3,401.4z"/>
<path class="st4" d="M76.3,424L76.3,424c-4.6,0-8.3-3.7-8.3-8.3v0c0-4.6,3.7-8.3,8.3-8.3h0c4.6,0,8.3,3.7,8.3,8.3v0
	C84.6,420.3,80.9,424,76.3,424z"/>
<path class="st4" d="M98.9,424L98.9,424c-4.6,0-8.3-3.7-8.3-8.3v0c0-4.6,3.7-8.3,8.3-8.3h0c4.6,0,8.3,3.7,8.3,8.3v0
	C107.2,420.3,103.4,424,98.9,424z"/>
<path class="st4" d="M121.5,424L121.5,424c-4.6,0-8.3-3.7-8.3-8.3v0c0-4.6,3.7-8.3,8.3-8.3h0c4.6,0,8.3,3.7,8.3,8.3v0
	C129.7,420.3,126,424,121.5,424z"/>
<path class="st4" d="M144,424L144,424c-4.6,0-8.3-3.7-8.3-8.3v0c0-4.6,3.7-8.3,8.3-8.3h0c4.6,0,8.3,3.7,8.3,8.3v0
	C152.3,420.3,148.6,424,144,424z"/>
<path class="st4" d="M166.6,424L166.6,424c-4.6,0-8.3-3.7-8.3-8.3v0c0-4.6,3.7-8.3,8.3-8.3h0c4.6,0,8.3,3.7,8.3,8.3v0
	C174.9,420.3,171.1,424,166.6,424z"/>
<path class="st4" d="M189.2,424L189.2,424c-4.6,0-8.3-3.7-8.3-8.3v0c0-4.6,3.7-8.3,8.3-8.3h0c4.6,0,8.3,3.7,8.3,8.3v0
	C197.4,420.3,193.7,424,189.2,424z"/>
<path class="st4" d="M211.7,424L211.7,424c-4.6,0-8.3-3.7-8.3-8.3v0c0-4.6,3.7-8.3,8.3-8.3h0c4.6,0,8.3,3.7,8.3,8.3v0
	C220,420.3,216.3,424,211.7,424z"/>
<path class="st4" d="M8.3,446.5L8.3,446.5c-4.6,0-8.3-3.7-8.3-8.3l0,0c0-4.6,3.7-8.3,8.3-8.3h0c4.6,0,8.3,3.7,8.3,8.3l0,0
	C16.6,442.8,12.9,446.5,8.3,446.5z"/>
<path class="st4" d="M30.9,446.5L30.9,446.5c-4.6,0-8.3-3.7-8.3-8.3l0,0c0-4.6,3.7-8.3,8.3-8.3h0c4.6,0,8.3,3.7,8.3,8.3l0,0
	C39.2,442.8,35.4,446.5,30.9,446.5z"/>
<path class="st4" d="M53.5,446.5L53.5,446.5c-4.6,0-8.3-3.7-8.3-8.3l0,0c0-4.6,3.7-8.3,8.3-8.3h0c4.6,0,8.3,3.7,8.3,8.3l0,0
	C61.7,442.8,58,446.5,53.5,446.5z"/>
<path class="st4" d="M76,446.5L76,446.5c-4.6,0-8.3-3.7-8.3-8.3l0,0c0-4.6,3.7-8.3,8.3-8.3h0c4.6,0,8.3,3.7,8.3,8.3l0,0
	C84.3,442.8,80.6,446.5,76,446.5z"/>
<path class="st4" d="M98.6,446.5L98.6,446.5c-4.6,0-8.3-3.7-8.3-8.3l0,0c0-4.6,3.7-8.3,8.3-8.3h0c4.6,0,8.3,3.7,8.3,8.3l0,0
	C106.9,442.8,103.1,446.5,98.6,446.5z"/>
<path class="st4" d="M121.2,446.5L121.2,446.5c-4.6,0-8.3-3.7-8.3-8.3l0,0c0-4.6,3.7-8.3,8.3-8.3h0c4.6,0,8.3,3.7,8.3,8.3l0,0
	C129.4,442.8,125.7,446.5,121.2,446.5z"/>
<path class="st4" d="M143.7,446.5L143.7,446.5c-4.6,0-8.3-3.7-8.3-8.3l0,0c0-4.6,3.7-8.3,8.3-8.3h0c4.6,0,8.3,3.7,8.3,8.3l0,0
	C152,442.8,148.3,446.5,143.7,446.5z"/>
<path class="st4" d="M166.3,446.5L166.3,446.5c-4.6,0-8.3-3.7-8.3-8.3l0,0c0-4.6,3.7-8.3,8.3-8.3h0c4.6,0,8.3,3.7,8.3,8.3l0,0
	C174.6,442.8,170.9,446.5,166.3,446.5z"/>
<path class="st4" d="M188.9,446.5L188.9,446.5c-4.6,0-8.3-3.7-8.3-8.3l0,0c0-4.6,3.7-8.3,8.3-8.3h0c4.6,0,8.3,3.7,8.3,8.3l0,0
	C197.2,442.8,193.4,446.5,188.9,446.5z"/>
<path class="st4" d="M211.4,446.5L211.4,446.5c-4.6,0-8.3-3.7-8.3-8.3l0,0c0-4.6,3.7-8.3,8.3-8.3h0c4.6,0,8.3,3.7,8.3,8.3l0,0
	C219.7,442.8,216,446.5,211.4,446.5z"/>
<path class="st4" d="M8.3,130.5L8.3,130.5c-4.6,0-8.3-3.7-8.3-8.3v0c0-4.6,3.7-8.3,8.3-8.3h0c4.6,0,8.3,3.7,8.3,8.3v0
	C16.6,126.7,12.9,130.5,8.3,130.5z"/>
<path class="st4" d="M30.9,130.5L30.9,130.5c-4.6,0-8.3-3.7-8.3-8.3v0c0-4.6,3.7-8.3,8.3-8.3h0c4.6,0,8.3,3.7,8.3,8.3v0
	C39.2,126.7,35.4,130.5,30.9,130.5z"/>
<path class="st4" d="M53.5,130.5L53.5,130.5c-4.6,0-8.3-3.7-8.3-8.3v0c0-4.6,3.7-8.3,8.3-8.3h0c4.6,0,8.3,3.7,8.3,8.3v0
	C61.7,126.7,58,130.5,53.5,130.5z"/>
<path class="st4" d="M76,130.5L76,130.5c-4.6,0-8.3-3.7-8.3-8.3v0c0-4.6,3.7-8.3,8.3-8.3h0c4.6,0,8.3,3.7,8.3,8.3v0
	C84.3,126.7,80.6,130.5,76,130.5z"/>
<path class="st4" d="M98.6,130.5L98.6,130.5c-4.6,0-8.3-3.7-8.3-8.3v0c0-4.6,3.7-8.3,8.3-8.3h0c4.6,0,8.3,3.7,8.3,8.3v0
	C106.9,126.7,103.1,130.5,98.6,130.5z"/>
<path class="st4" d="M121.2,130.5L121.2,130.5c-4.6,0-8.3-3.7-8.3-8.3v0c0-4.6,3.7-8.3,8.3-8.3h0c4.6,0,8.3,3.7,8.3,8.3v0
	C129.4,126.7,125.7,130.5,121.2,130.5z"/>
<path class="st4" d="M143.7,130.5L143.7,130.5c-4.6,0-8.3-3.7-8.3-8.3v0c0-4.6,3.7-8.3,8.3-8.3h0c4.6,0,8.3,3.7,8.3,8.3v0
	C152,126.7,148.3,130.5,143.7,130.5z"/>
<path class="st4" d="M166.3,130.5L166.3,130.5c-4.6,0-8.3-3.7-8.3-8.3v0c0-4.6,3.7-8.3,8.3-8.3h0c4.6,0,8.3,3.7,8.3,8.3v0
	C174.6,126.7,170.9,130.5,166.3,130.5z"/>
<path class="st4" d="M188.9,130.5L188.9,130.5c-4.6,0-8.3-3.7-8.3-8.3v0c0-4.6,3.7-8.3,8.3-8.3h0c4.6,0,8.3,3.7,8.3,8.3v0
	C197.2,126.7,193.4,130.5,188.9,130.5z"/>
<path class="st4" d="M211.4,130.5L211.4,130.5c-4.6,0-8.3-3.7-8.3-8.3v0c0-4.6,3.7-8.3,8.3-8.3h0c4.6,0,8.3,3.7,8.3,8.3v0
	C219.7,126.7,216,130.5,211.4,130.5z"/>
<path class="st4" d="M234,130.5L234,130.5c-4.6,0-8.3-3.7-8.3-8.3v0c0-4.6,3.7-8.3,8.3-8.3h0c4.6,0,8.3,3.7,8.3,8.3v0
	C242.3,126.7,238.6,130.5,234,130.5z"/>
<path class="st4" d="M256.6,130.5L256.6,130.5c-4.6,0-8.3-3.7-8.3-8.3v0c0-4.6,3.7-8.3,8.3-8.3l0,0c4.6,0,8.3,3.7,8.3,8.3v0
	C264.9,126.7,261.1,130.5,256.6,130.5z"/>
<path class="st4" d="M279.2,130.5L279.2,130.5c-4.6,0-8.3-3.7-8.3-8.3v0c0-4.6,3.7-8.3,8.3-8.3l0,0c4.6,0,8.3,3.7,8.3,8.3v0
	C287.4,126.7,283.7,130.5,279.2,130.5z"/>
<path class="st4" d="M301.7,130.5L301.7,130.5c-4.6,0-8.3-3.7-8.3-8.3v0c0-4.6,3.7-8.3,8.3-8.3h0c4.6,0,8.3,3.7,8.3,8.3v0
	C310,126.7,306.3,130.5,301.7,130.5z"/>
<path class="st4" d="M324.3,130.5L324.3,130.5c-4.6,0-8.3-3.7-8.3-8.3v0c0-4.6,3.7-8.3,8.3-8.3h0c4.6,0,8.3,3.7,8.3,8.3v0
	C332.6,126.7,328.9,130.5,324.3,130.5z"/>
<path class="st4" d="M346.9,130.5L346.9,130.5c-4.6,0-8.3-3.7-8.3-8.3v0c0-4.6,3.7-8.3,8.3-8.3h0c4.6,0,8.3,3.7,8.3,8.3v0
	C355.1,126.7,351.4,130.5,346.9,130.5z"/>
<path class="st4" d="M8.3,175.6L8.3,175.6c-4.6,0-8.3-3.7-8.3-8.3v0c0-4.6,3.7-8.3,8.3-8.3h0c4.6,0,8.3,3.7,8.3,8.3v0
	C16.6,171.9,12.9,175.6,8.3,175.6z"/>
<path class="st4" d="M30.9,175.6L30.9,175.6c-4.6,0-8.3-3.7-8.3-8.3v0c0-4.6,3.7-8.3,8.3-8.3h0c4.6,0,8.3,3.7,8.3,8.3v0
	C39.2,171.9,35.5,175.6,30.9,175.6z"/>
<path class="st4" d="M53.5,175.6L53.5,175.6c-4.6,0-8.3-3.7-8.3-8.3v0c0-4.6,3.7-8.3,8.3-8.3h0c4.6,0,8.3,3.7,8.3,8.3v0
	C61.8,171.9,58,175.6,53.5,175.6z"/>
<path class="st4" d="M76,175.6L76,175.6c-4.6,0-8.3-3.7-8.3-8.3v0c0-4.6,3.7-8.3,8.3-8.3h0c4.6,0,8.3,3.7,8.3,8.3v0
	C84.3,171.9,80.6,175.6,76,175.6z"/>
<path class="st4" d="M98.6,175.6L98.6,175.6c-4.6,0-8.3-3.7-8.3-8.3v0c0-4.6,3.7-8.3,8.3-8.3h0c4.6,0,8.3,3.7,8.3,8.3v0
	C106.9,171.9,103.2,175.6,98.6,175.6z"/>
<path class="st4" d="M121.2,175.6L121.2,175.6c-4.6,0-8.3-3.7-8.3-8.3v0c0-4.6,3.7-8.3,8.3-8.3h0c4.6,0,8.3,3.7,8.3,8.3v0
	C129.5,171.9,125.7,175.6,121.2,175.6z"/>
<path class="st4" d="M143.8,175.6L143.8,175.6c-4.6,0-8.3-3.7-8.3-8.3v0c0-4.6,3.7-8.3,8.3-8.3h0c4.6,0,8.3,3.7,8.3,8.3v0
	C152,171.9,148.3,175.6,143.8,175.6z"/>
<path class="st4" d="M166.3,175.6L166.3,175.6c-4.6,0-8.3-3.7-8.3-8.3v0c0-4.6,3.7-8.3,8.3-8.3h0c4.6,0,8.3,3.7,8.3,8.3v0
	C174.6,171.9,170.9,175.6,166.3,175.6z"/>
<path class="st4" d="M188.9,175.6L188.9,175.6c-4.6,0-8.3-3.7-8.3-8.3v0c0-4.6,3.7-8.3,8.3-8.3h0c4.6,0,8.3,3.7,8.3,8.3v0
	C197.2,171.9,193.4,175.6,188.9,175.6z"/>
<path class="st4" d="M211.5,175.6L211.5,175.6c-4.6,0-8.3-3.7-8.3-8.3v0c0-4.6,3.7-8.3,8.3-8.3h0c4.6,0,8.3,3.7,8.3,8.3v0
	C219.7,171.9,216,175.6,211.5,175.6z"/>
<path class="st4" d="M234,175.6L234,175.6c-4.6,0-8.3-3.7-8.3-8.3v0c0-4.6,3.7-8.3,8.3-8.3h0c4.6,0,8.3,3.7,8.3,8.3v0
	C242.3,171.9,238.6,175.6,234,175.6z"/>
<path class="st4" d="M256.6,175.6L256.6,175.6c-4.6,0-8.3-3.7-8.3-8.3v0c0-4.6,3.7-8.3,8.3-8.3l0,0c4.6,0,8.3,3.7,8.3,8.3v0
	C264.9,171.9,261.2,175.6,256.6,175.6z"/>
<path class="st4" d="M8.3,220.7L8.3,220.7c-4.6,0-8.3-3.7-8.3-8.3v0c0-4.6,3.7-8.3,8.3-8.3h0c4.6,0,8.3,3.7,8.3,8.3v0
	C16.6,217,12.9,220.7,8.3,220.7z"/>
<path class="st4" d="M30.9,220.7L30.9,220.7c-4.6,0-8.3-3.7-8.3-8.3v0c0-4.6,3.7-8.3,8.3-8.3h0c4.6,0,8.3,3.7,8.3,8.3v0
	C39.2,217,35.4,220.7,30.9,220.7z"/>
<path class="st4" d="M53.4,220.7L53.4,220.7c-4.6,0-8.3-3.7-8.3-8.3v0c0-4.6,3.7-8.3,8.3-8.3h0c4.6,0,8.3,3.7,8.3,8.3v0
	C61.7,217,58,220.7,53.4,220.7z"/>
<path class="st4" d="M76,220.7L76,220.7c-4.6,0-8.3-3.7-8.3-8.3v0c0-4.6,3.7-8.3,8.3-8.3h0c4.6,0,8.3,3.7,8.3,8.3v0
	C84.3,217,80.6,220.7,76,220.7z"/>
<path class="st4" d="M98.6,220.7L98.6,220.7c-4.6,0-8.3-3.7-8.3-8.3v0c0-4.6,3.7-8.3,8.3-8.3h0c4.6,0,8.3,3.7,8.3,8.3v0
	C106.9,217,103.1,220.7,98.6,220.7z"/>
<path class="st4" d="M121.2,220.7L121.2,220.7c-4.6,0-8.3-3.7-8.3-8.3v0c0-4.6,3.7-8.3,8.3-8.3h0c4.6,0,8.3,3.7,8.3,8.3v0
	C129.4,217,125.7,220.7,121.2,220.7z"/>
<path class="st4" d="M143.7,220.7L143.7,220.7c-4.6,0-8.3-3.7-8.3-8.3v0c0-4.6,3.7-8.3,8.3-8.3h0c4.6,0,8.3,3.7,8.3,8.3v0
	C152,217,148.3,220.7,143.7,220.7z"/>
<path class="st4" d="M166.3,220.7L166.3,220.7c-4.6,0-8.3-3.7-8.3-8.3v0c0-4.6,3.7-8.3,8.3-8.3h0c4.6,0,8.3,3.7,8.3,8.3v0
	C174.6,217,170.9,220.7,166.3,220.7z"/>
<path class="st4" d="M188.9,220.7L188.9,220.7c-4.6,0-8.3-3.7-8.3-8.3v0c0-4.6,3.7-8.3,8.3-8.3h0c4.6,0,8.3,3.7,8.3,8.3v0
	C197.2,217,193.4,220.7,188.9,220.7z"/>
<path class="st4" d="M211.4,220.7L211.4,220.7c-4.6,0-8.3-3.7-8.3-8.3v0c0-4.6,3.7-8.3,8.3-8.3h0c4.6,0,8.3,3.7,8.3,8.3v0
	C219.7,217,216,220.7,211.4,220.7z"/>
<path class="st4" d="M234,220.7L234,220.7c-4.6,0-8.3-3.7-8.3-8.3v0c0-4.6,3.7-8.3,8.3-8.3h0c4.6,0,8.3,3.7,8.3,8.3v0
	C242.3,217,238.6,220.7,234,220.7z"/>
<path class="st4" d="M256.6,220.7L256.6,220.7c-4.6,0-8.3-3.7-8.3-8.3v0c0-4.6,3.7-8.3,8.3-8.3h0c4.6,0,8.3,3.7,8.3,8.3v0
	C264.9,217,261.1,220.7,256.6,220.7z"/>
<path class="st4" d="M8.3,198.2L8.3,198.2c-4.6,0-8.3-3.7-8.3-8.3v0c0-4.6,3.7-8.3,8.3-8.3h0c4.6,0,8.3,3.7,8.3,8.3v0
	C16.6,194.4,12.9,198.2,8.3,198.2z"/>
<path class="st4" d="M30.9,198.2L30.9,198.2c-4.6,0-8.3-3.7-8.3-8.3v0c0-4.6,3.7-8.3,8.3-8.3h0c4.6,0,8.3,3.7,8.3,8.3v0
	C39.2,194.4,35.4,198.2,30.9,198.2z"/>
<path class="st4" d="M53.4,198.2L53.4,198.2c-4.6,0-8.3-3.7-8.3-8.3v0c0-4.6,3.7-8.3,8.3-8.3h0c4.6,0,8.3,3.7,8.3,8.3v0
	C61.7,194.4,58,198.2,53.4,198.2z"/>
<path class="st4" d="M76,198.2L76,198.2c-4.6,0-8.3-3.7-8.3-8.3v0c0-4.6,3.7-8.3,8.3-8.3h0c4.6,0,8.3,3.7,8.3,8.3v0
	C84.3,194.4,80.6,198.2,76,198.2z"/>
<path class="st4" d="M98.6,198.2L98.6,198.2c-4.6,0-8.3-3.7-8.3-8.3v0c0-4.6,3.7-8.3,8.3-8.3h0c4.6,0,8.3,3.7,8.3,8.3v0
	C106.9,194.4,103.1,198.2,98.6,198.2z"/>
<path class="st4" d="M121.2,198.2L121.2,198.2c-4.6,0-8.3-3.7-8.3-8.3v0c0-4.6,3.7-8.3,8.3-8.3h0c4.6,0,8.3,3.7,8.3,8.3v0
	C129.4,194.4,125.7,198.2,121.2,198.2z"/>
<path class="st4" d="M143.7,198.2L143.7,198.2c-4.6,0-8.3-3.7-8.3-8.3v0c0-4.6,3.7-8.3,8.3-8.3h0c4.6,0,8.3,3.7,8.3,8.3v0
	C152,194.4,148.3,198.2,143.7,198.2z"/>
<path class="st4" d="M166.3,198.2L166.3,198.2c-4.6,0-8.3-3.7-8.3-8.3v0c0-4.6,3.7-8.3,8.3-8.3h0c4.6,0,8.3,3.7,8.3,8.3v0
	C174.6,194.4,170.9,198.2,166.3,198.2z"/>
<path class="st4" d="M188.9,198.2L188.9,198.2c-4.6,0-8.3-3.7-8.3-8.3v0c0-4.6,3.7-8.3,8.3-8.3h0c4.6,0,8.3,3.7,8.3,8.3v0
	C197.2,194.4,193.4,198.2,188.9,198.2z"/>
<path class="st4" d="M211.4,198.2L211.4,198.2c-4.6,0-8.3-3.7-8.3-8.3v0c0-4.6,3.7-8.3,8.3-8.3h0c4.6,0,8.3,3.7,8.3,8.3v0
	C219.7,194.4,216,198.2,211.4,198.2z"/>
<path class="st4" d="M234,198.2L234,198.2c-4.6,0-8.3-3.7-8.3-8.3v0c0-4.6,3.7-8.3,8.3-8.3h0c4.6,0,8.3,3.7,8.3,8.3v0
	C242.3,194.4,238.6,198.2,234,198.2z"/>
<path class="st4" d="M256.6,198.2L256.6,198.2c-4.6,0-8.3-3.7-8.3-8.3v0c0-4.6,3.7-8.3,8.3-8.3h0c4.6,0,8.3,3.7,8.3,8.3v0
	C264.9,194.4,261.1,198.2,256.6,198.2z"/>
<path class="st4" d="M76.2,243.3L76.2,243.3c-4.6,0-8.3-3.7-8.3-8.3v0c0-4.6,3.7-8.3,8.3-8.3h0c4.6,0,8.3,3.7,8.3,8.3v0
	C84.5,239.6,80.8,243.3,76.2,243.3z"/>
<path class="st4" d="M98.8,243.3L98.8,243.3c-4.6,0-8.3-3.7-8.3-8.3v0c0-4.6,3.7-8.3,8.3-8.3h0c4.6,0,8.3,3.7,8.3,8.3v0
	C107.1,239.6,103.3,243.3,98.8,243.3z"/>
<path class="st4" d="M121.4,243.3L121.4,243.3c-4.6,0-8.3-3.7-8.3-8.3v0c0-4.6,3.7-8.3,8.3-8.3h0c4.6,0,8.3,3.7,8.3,8.3v0
	C129.6,239.6,125.9,243.3,121.4,243.3z"/>
<path class="st4" d="M143.9,243.3L143.9,243.3c-4.6,0-8.3-3.7-8.3-8.3v0c0-4.6,3.7-8.3,8.3-8.3h0c4.6,0,8.3,3.7,8.3,8.3v0
	C152.2,239.6,148.5,243.3,143.9,243.3z"/>
<path class="st4" d="M166.5,243.3L166.5,243.3c-4.6,0-8.3-3.7-8.3-8.3v0c0-4.6,3.7-8.3,8.3-8.3h0c4.6,0,8.3,3.7,8.3,8.3v0
	C174.8,239.6,171.1,243.3,166.5,243.3z"/>
<path class="st4" d="M189.1,243.3L189.1,243.3c-4.6,0-8.3-3.7-8.3-8.3v0c0-4.6,3.7-8.3,8.3-8.3h0c4.6,0,8.3,3.7,8.3,8.3v0
	C197.4,239.6,193.6,243.3,189.1,243.3z"/>
<path class="st4" d="M211.6,243.3L211.6,243.3c-4.6,0-8.3-3.7-8.3-8.3v0c0-4.6,3.7-8.3,8.3-8.3h0c4.6,0,8.3,3.7,8.3,8.3v0
	C219.9,239.6,216.2,243.3,211.6,243.3z"/>
<path class="st4" d="M234.2,243.3L234.2,243.3c-4.6,0-8.3-3.7-8.3-8.3v0c0-4.6,3.7-8.3,8.3-8.3h0c4.6,0,8.3,3.7,8.3,8.3v0
	C242.5,239.6,238.8,243.3,234.2,243.3z"/>
<path class="st4" d="M256.8,243.3L256.8,243.3c-4.6,0-8.3-3.7-8.3-8.3v0c0-4.6,3.7-8.3,8.3-8.3h0c4.6,0,8.3,3.7,8.3,8.3v0
	C265.1,239.6,261.3,243.3,256.8,243.3z"/>
<path class="st4" d="M279.4,243.3L279.4,243.3c-4.6,0-8.3-3.7-8.3-8.3v0c0-4.6,3.7-8.3,8.3-8.3l0,0c4.6,0,8.3,3.7,8.3,8.3v0
	C287.6,239.6,283.9,243.3,279.4,243.3z"/>
<path class="st4" d="M76.3,288.4L76.3,288.4c-4.6,0-8.3-3.7-8.3-8.3v0c0-4.6,3.7-8.3,8.3-8.3h0c4.6,0,8.3,3.7,8.3,8.3v0
	C84.6,284.7,80.9,288.4,76.3,288.4z"/>
<path class="st4" d="M98.9,288.4L98.9,288.4c-4.6,0-8.3-3.7-8.3-8.3v0c0-4.6,3.7-8.3,8.3-8.3h0c4.6,0,8.3,3.7,8.3,8.3v0
	C107.2,284.7,103.4,288.4,98.9,288.4z"/>
<path class="st4" d="M121.4,288.4L121.4,288.4c-4.6,0-8.3-3.7-8.3-8.3v0c0-4.6,3.7-8.3,8.3-8.3h0c4.6,0,8.3,3.7,8.3,8.3v0
	C129.7,284.7,126,288.4,121.4,288.4z"/>
<path class="st4" d="M144,288.4L144,288.4c-4.6,0-8.3-3.7-8.3-8.3v0c0-4.6,3.7-8.3,8.3-8.3h0c4.6,0,8.3,3.7,8.3,8.3v0
	C152.3,284.7,148.6,288.4,144,288.4z"/>
<path class="st4" d="M166.6,288.4L166.6,288.4c-4.6,0-8.3-3.7-8.3-8.3v0c0-4.6,3.7-8.3,8.3-8.3h0c4.6,0,8.3,3.7,8.3,8.3v0
	C174.9,284.7,171.1,288.4,166.6,288.4z"/>
<path class="st4" d="M189.2,288.4L189.2,288.4c-4.6,0-8.3-3.7-8.3-8.3v0c0-4.6,3.7-8.3,8.3-8.3h0c4.6,0,8.3,3.7,8.3,8.3v0
	C197.4,284.7,193.7,288.4,189.2,288.4z"/>
<path class="st4" d="M211.7,288.4L211.7,288.4c-4.6,0-8.3-3.7-8.3-8.3v0c0-4.6,3.7-8.3,8.3-8.3h0c4.6,0,8.3,3.7,8.3,8.3v0
	C220,284.7,216.3,288.4,211.7,288.4z"/>
<path class="st4" d="M234.3,288.4L234.3,288.4c-4.6,0-8.3-3.7-8.3-8.3v0c0-4.6,3.7-8.3,8.3-8.3h0c4.6,0,8.3,3.7,8.3,8.3v0
	C242.6,284.7,238.9,288.4,234.3,288.4z"/>
<path class="st4" d="M256.9,288.4L256.9,288.4c-4.6,0-8.3-3.7-8.3-8.3v0c0-4.6,3.7-8.3,8.3-8.3h0c4.6,0,8.3,3.7,8.3,8.3v0
	C265.2,284.7,261.4,288.4,256.9,288.4z"/>
<path class="st4" d="M279.4,288.4L279.4,288.4c-4.6,0-8.3-3.7-8.3-8.3v0c0-4.6,3.7-8.3,8.3-8.3h0c4.6,0,8.3,3.7,8.3,8.3v0
	C287.7,284.7,284,288.4,279.4,288.4z"/>
<path class="st4" d="M76.3,265.9L76.3,265.9c-4.6,0-8.3-3.7-8.3-8.3v0c0-4.6,3.7-8.3,8.3-8.3h0c4.6,0,8.3,3.7,8.3,8.3v0
	C84.6,262.1,80.9,265.9,76.3,265.9z"/>
<path class="st4" d="M98.9,265.9L98.9,265.9c-4.6,0-8.3-3.7-8.3-8.3v0c0-4.6,3.7-8.3,8.3-8.3h0c4.6,0,8.3,3.7,8.3,8.3v0
	C107.2,262.1,103.4,265.9,98.9,265.9z"/>
<path class="st4" d="M121.4,265.9L121.4,265.9c-4.6,0-8.3-3.7-8.3-8.3v0c0-4.6,3.7-8.3,8.3-8.3h0c4.6,0,8.3,3.7,8.3,8.3v0
	C129.7,262.1,126,265.9,121.4,265.9z"/>
<path class="st4" d="M144,265.9L144,265.9c-4.6,0-8.3-3.7-8.3-8.3v0c0-4.6,3.7-8.3,8.3-8.3h0c4.6,0,8.3,3.7,8.3,8.3v0
	C152.3,262.1,148.6,265.9,144,265.9z"/>
<path class="st4" d="M166.6,265.9L166.6,265.9c-4.6,0-8.3-3.7-8.3-8.3v0c0-4.6,3.7-8.3,8.3-8.3h0c4.6,0,8.3,3.7,8.3,8.3v0
	C174.9,262.1,171.1,265.9,166.6,265.9z"/>
<path class="st4" d="M189.2,265.9L189.2,265.9c-4.6,0-8.3-3.7-8.3-8.3v0c0-4.6,3.7-8.3,8.3-8.3h0c4.6,0,8.3,3.7,8.3,8.3v0
	C197.4,262.1,193.7,265.9,189.2,265.9z"/>
<path class="st4" d="M211.7,265.9L211.7,265.9c-4.6,0-8.3-3.7-8.3-8.3v0c0-4.6,3.7-8.3,8.3-8.3h0c4.6,0,8.3,3.7,8.3,8.3v0
	C220,262.1,216.3,265.9,211.7,265.9z"/>
<path class="st4" d="M234.3,265.9L234.3,265.9c-4.6,0-8.3-3.7-8.3-8.3v0c0-4.6,3.7-8.3,8.3-8.3h0c4.6,0,8.3,3.7,8.3,8.3v0
	C242.6,262.1,238.9,265.9,234.3,265.9z"/>
<path class="st4" d="M256.9,265.9L256.9,265.9c-4.6,0-8.3-3.7-8.3-8.3v0c0-4.6,3.7-8.3,8.3-8.3h0c4.6,0,8.3,3.7,8.3,8.3v0
	C265.2,262.1,261.4,265.9,256.9,265.9z"/>
<path class="st4" d="M279.4,265.9L279.4,265.9c-4.6,0-8.3-3.7-8.3-8.3v0c0-4.6,3.7-8.3,8.3-8.3h0c4.6,0,8.3,3.7,8.3,8.3v0
	C287.7,262.1,284,265.9,279.4,265.9z"/>
<path class="st4" d="M302,265.9L302,265.9c-4.6,0-8.3-3.7-8.3-8.3v0c0-4.6,3.7-8.3,8.3-8.3l0,0c4.6,0,8.3,3.7,8.3,8.3v0
	C310.3,262.1,306.6,265.9,302,265.9z"/>
<path class="st4" d="M8.4,469.2L8.4,469.2c-4.6,0-8.3-3.7-8.3-8.3l0,0c0-4.6,3.7-8.3,8.3-8.3h0c4.6,0,8.3,3.7,8.3,8.3l0,0
	C16.6,465.5,12.9,469.2,8.4,469.2z"/>
<path class="st4" d="M30.9,469.2L30.9,469.2c-4.6,0-8.3-3.7-8.3-8.3l0,0c0-4.6,3.7-8.3,8.3-8.3h0c4.6,0,8.3,3.7,8.3,8.3l0,0
	C39.2,465.5,35.5,469.2,30.9,469.2z"/>
<path class="st4" d="M53.5,469.2L53.5,469.2c-4.6,0-8.3-3.7-8.3-8.3l0,0c0-4.6,3.7-8.3,8.3-8.3h0c4.6,0,8.3,3.7,8.3,8.3l0,0
	C61.8,465.5,58,469.2,53.5,469.2z"/>
<path class="st4" d="M76.1,469.2L76.1,469.2c-4.6,0-8.3-3.7-8.3-8.3l0,0c0-4.6,3.7-8.3,8.3-8.3h0c4.6,0,8.3,3.7,8.3,8.3l0,0
	C84.3,465.5,80.6,469.2,76.1,469.2z"/>
<path class="st4" d="M98.6,469.2L98.6,469.2c-4.6,0-8.3-3.7-8.3-8.3l0,0c0-4.6,3.7-8.3,8.3-8.3h0c4.6,0,8.3,3.7,8.3,8.3l0,0
	C106.9,465.5,103.2,469.2,98.6,469.2z"/>
<path class="st4" d="M121.2,469.2L121.2,469.2c-4.6,0-8.3-3.7-8.3-8.3l0,0c0-4.6,3.7-8.3,8.3-8.3h0c4.6,0,8.3,3.7,8.3,8.3l0,0
	C129.5,465.5,125.8,469.2,121.2,469.2z"/>
<path class="st4" d="M143.8,469.2L143.8,469.2c-4.6,0-8.3-3.7-8.3-8.3l0,0c0-4.6,3.7-8.3,8.3-8.3h0c4.6,0,8.3,3.7,8.3,8.3l0,0
	C152.1,465.5,148.3,469.2,143.8,469.2z"/>
<path class="st4" d="M166.3,469.2L166.3,469.2c-4.6,0-8.3-3.7-8.3-8.3l0,0c0-4.6,3.7-8.3,8.3-8.3h0c4.6,0,8.3,3.7,8.3,8.3l0,0
	C174.6,465.5,170.9,469.2,166.3,469.2z"/>
<path class="st4" d="M188.9,469.2L188.9,469.2c-4.6,0-8.3-3.7-8.3-8.3l0,0c0-4.6,3.7-8.3,8.3-8.3h0c4.6,0,8.3,3.7,8.3,8.3l0,0
	C197.2,465.5,193.5,469.2,188.9,469.2z"/>
<path class="st4" d="M8.3,514.3L8.3,514.3c-4.6,0-8.3-3.7-8.3-8.3l0,0c0-4.6,3.7-8.3,8.3-8.3h0c4.6,0,8.3,3.7,8.3,8.3l0,0
	C16.6,510.6,12.9,514.3,8.3,514.3z"/>
<path class="st4" d="M30.9,514.3L30.9,514.3c-4.6,0-8.3-3.7-8.3-8.3l0,0c0-4.6,3.7-8.3,8.3-8.3h0c4.6,0,8.3,3.7,8.3,8.3l0,0
	C39.2,510.6,35.5,514.3,30.9,514.3z"/>
<path class="st4" d="M53.5,514.3L53.5,514.3c-4.6,0-8.3-3.7-8.3-8.3l0,0c0-4.6,3.7-8.3,8.3-8.3h0c4.6,0,8.3,3.7,8.3,8.3l0,0
	C61.7,510.6,58,514.3,53.5,514.3z"/>
<path class="st4" d="M76,514.3L76,514.3c-4.6,0-8.3-3.7-8.3-8.3l0,0c0-4.6,3.7-8.3,8.3-8.3h0c4.6,0,8.3,3.7,8.3,8.3l0,0
	C84.3,510.6,80.6,514.3,76,514.3z"/>
<path class="st4" d="M98.6,514.3L98.6,514.3c-4.6,0-8.3-3.7-8.3-8.3l0,0c0-4.6,3.7-8.3,8.3-8.3h0c4.6,0,8.3,3.7,8.3,8.3l0,0
	C106.9,510.6,103.2,514.3,98.6,514.3z"/>
<path class="st4" d="M121.2,514.3L121.2,514.3c-4.6,0-8.3-3.7-8.3-8.3l0,0c0-4.6,3.7-8.3,8.3-8.3h0c4.6,0,8.3,3.7,8.3,8.3l0,0
	C129.5,510.6,125.7,514.3,121.2,514.3z"/>
<path class="st4" d="M143.7,514.3L143.7,514.3c-4.6,0-8.3-3.7-8.3-8.3l0,0c0-4.6,3.7-8.3,8.3-8.3h0c4.6,0,8.3,3.7,8.3,8.3l0,0
	C152,510.6,148.3,514.3,143.7,514.3z"/>
<path class="st4" d="M166.3,514.3L166.3,514.3c-4.6,0-8.3-3.7-8.3-8.3l0,0c0-4.6,3.7-8.3,8.3-8.3h0c4.6,0,8.3,3.7,8.3,8.3l0,0
	C174.6,510.6,170.9,514.3,166.3,514.3z"/>
<path class="st4" d="M8.3,491.8L8.3,491.8c-4.6,0-8.3-3.7-8.3-8.3l0,0c0-4.6,3.7-8.3,8.3-8.3h0c4.6,0,8.3,3.7,8.3,8.3l0,0
	C16.6,488,12.9,491.8,8.3,491.8z"/>
<path class="st4" d="M30.9,491.8L30.9,491.8c-4.6,0-8.3-3.7-8.3-8.3l0,0c0-4.6,3.7-8.3,8.3-8.3h0c4.6,0,8.3,3.7,8.3,8.3l0,0
	C39.2,488,35.5,491.8,30.9,491.8z"/>
<path class="st4" d="M53.5,491.8L53.5,491.8c-4.6,0-8.3-3.7-8.3-8.3l0,0c0-4.6,3.7-8.3,8.3-8.3h0c4.6,0,8.3,3.7,8.3,8.3l0,0
	C61.7,488,58,491.8,53.5,491.8z"/>
<path class="st4" d="M76,491.8L76,491.8c-4.6,0-8.3-3.7-8.3-8.3l0,0c0-4.6,3.7-8.3,8.3-8.3h0c4.6,0,8.3,3.7,8.3,8.3l0,0
	C84.3,488,80.6,491.8,76,491.8z"/>
<path class="st4" d="M98.6,491.8L98.6,491.8c-4.6,0-8.3-3.7-8.3-8.3l0,0c0-4.6,3.7-8.3,8.3-8.3h0c4.6,0,8.3,3.7,8.3,8.3l0,0
	C106.9,488,103.2,491.8,98.6,491.8z"/>
<path class="st4" d="M121.2,491.8L121.2,491.8c-4.6,0-8.3-3.7-8.3-8.3l0,0c0-4.6,3.7-8.3,8.3-8.3h0c4.6,0,8.3,3.7,8.3,8.3l0,0
	C129.5,488,125.7,491.8,121.2,491.8z"/>
<path class="st4" d="M143.7,491.8L143.7,491.8c-4.6,0-8.3-3.7-8.3-8.3l0,0c0-4.6,3.7-8.3,8.3-8.3h0c4.6,0,8.3,3.7,8.3,8.3l0,0
	C152,488,148.3,491.8,143.7,491.8z"/>
<path class="st4" d="M166.3,491.8L166.3,491.8c-4.6,0-8.3-3.7-8.3-8.3l0,0c0-4.6,3.7-8.3,8.3-8.3h0c4.6,0,8.3,3.7,8.3,8.3l0,0
	C174.6,488,170.9,491.8,166.3,491.8z"/>
<path class="st4" d="M188.9,491.8L188.9,491.8c-4.6,0-8.3-3.7-8.3-8.3l0,0c0-4.6,3.7-8.3,8.3-8.3h0c4.6,0,8.3,3.7,8.3,8.3l0,0
	C197.2,488,193.4,491.8,188.9,491.8z"/>
<path class="st4" d="M8.4,536.9L8.4,536.9c-4.6,0-8.3-3.7-8.3-8.3v0c0-4.6,3.7-8.3,8.3-8.3h0c4.6,0,8.3,3.7,8.3,8.3v0
	C16.6,533.2,12.9,536.9,8.4,536.9z"/>
<path class="st4" d="M30.9,536.9L30.9,536.9c-4.6,0-8.3-3.7-8.3-8.3v0c0-4.6,3.7-8.3,8.3-8.3h0c4.6,0,8.3,3.7,8.3,8.3v0
	C39.2,533.2,35.5,536.9,30.9,536.9z"/>
<path class="st4" d="M53.5,536.9L53.5,536.9c-4.6,0-8.3-3.7-8.3-8.3v0c0-4.6,3.7-8.3,8.3-8.3h0c4.6,0,8.3,3.7,8.3,8.3v0
	C61.8,533.2,58,536.9,53.5,536.9z"/>
<path class="st4" d="M76.1,536.9L76.1,536.9c-4.6,0-8.3-3.7-8.3-8.3v0c0-4.6,3.7-8.3,8.3-8.3h0c4.6,0,8.3,3.7,8.3,8.3v0
	C84.3,533.2,80.6,536.9,76.1,536.9z"/>
<path class="st4" d="M98.6,536.9L98.6,536.9c-4.6,0-8.3-3.7-8.3-8.3v0c0-4.6,3.7-8.3,8.3-8.3h0c4.6,0,8.3,3.7,8.3,8.3v0
	C106.9,533.2,103.2,536.9,98.6,536.9z"/>
<path class="st4" d="M121.2,536.9L121.2,536.9c-4.6,0-8.3-3.7-8.3-8.3v0c0-4.6,3.7-8.3,8.3-8.3h0c4.6,0,8.3,3.7,8.3,8.3v0
	C129.5,533.2,125.8,536.9,121.2,536.9z"/>
<path class="st4" d="M143.8,536.9L143.8,536.9c-4.6,0-8.3-3.7-8.3-8.3v0c0-4.6,3.7-8.3,8.3-8.3h0c4.6,0,8.3,3.7,8.3,8.3v0
	C152.1,533.2,148.3,536.9,143.8,536.9z"/>
<path class="st4" d="M166.3,536.9L166.3,536.9c-4.6,0-8.3-3.7-8.3-8.3v0c0-4.6,3.7-8.3,8.3-8.3h0c4.6,0,8.3,3.7,8.3,8.3v0
	C174.6,533.2,170.9,536.9,166.3,536.9z"/>
<path class="st4" d="M8.3,582.1L8.3,582.1c-4.6,0-8.3-3.7-8.3-8.3l0,0c0-4.6,3.7-8.3,8.3-8.3h0c4.6,0,8.3,3.7,8.3,8.3l0,0
	C16.6,578.3,12.9,582.1,8.3,582.1z"/>
<path class="st4" d="M30.9,582.1L30.9,582.1c-4.6,0-8.3-3.7-8.3-8.3l0,0c0-4.6,3.7-8.3,8.3-8.3h0c4.6,0,8.3,3.7,8.3,8.3l0,0
	C39.2,578.3,35.5,582.1,30.9,582.1z"/>
<path class="st4" d="M53.5,582.1L53.5,582.1c-4.6,0-8.3-3.7-8.3-8.3l0,0c0-4.6,3.7-8.3,8.3-8.3h0c4.6,0,8.3,3.7,8.3,8.3l0,0
	C61.7,578.3,58,582.1,53.5,582.1z"/>
<path class="st4" d="M76,582.1L76,582.1c-4.6,0-8.3-3.7-8.3-8.3l0,0c0-4.6,3.7-8.3,8.3-8.3h0c4.6,0,8.3,3.7,8.3,8.3l0,0
	C84.3,578.3,80.6,582.1,76,582.1z"/>
<path class="st4" d="M98.6,582.1L98.6,582.1c-4.6,0-8.3-3.7-8.3-8.3l0,0c0-4.6,3.7-8.3,8.3-8.3h0c4.6,0,8.3,3.7,8.3,8.3l0,0
	C106.9,578.3,103.2,582.1,98.6,582.1z"/>
<path class="st4" d="M121.2,582.1L121.2,582.1c-4.6,0-8.3-3.7-8.3-8.3l0,0c0-4.6,3.7-8.3,8.3-8.3h0c4.6,0,8.3,3.7,8.3,8.3l0,0
	C129.5,578.3,125.7,582.1,121.2,582.1z"/>
<path class="st4" d="M143.7,582.1L143.7,582.1c-4.6,0-8.3-3.7-8.3-8.3l0,0c0-4.6,3.7-8.3,8.3-8.3h0c4.6,0,8.3,3.7,8.3,8.3l0,0
	C152,578.3,148.3,582.1,143.7,582.1z"/>
<path class="st4" d="M8.3,559.5L8.3,559.5c-4.6,0-8.3-3.7-8.3-8.3l0,0c0-4.6,3.7-8.3,8.3-8.3h0c4.6,0,8.3,3.7,8.3,8.3l0,0
	C16.6,555.8,12.9,559.5,8.3,559.5z"/>
<path class="st4" d="M30.9,559.5L30.9,559.5c-4.6,0-8.3-3.7-8.3-8.3l0,0c0-4.6,3.7-8.3,8.3-8.3h0c4.6,0,8.3,3.7,8.3,8.3l0,0
	C39.2,555.8,35.5,559.5,30.9,559.5z"/>
<path class="st4" d="M53.5,559.5L53.5,559.5c-4.6,0-8.3-3.7-8.3-8.3l0,0c0-4.6,3.7-8.3,8.3-8.3h0c4.6,0,8.3,3.7,8.3,8.3l0,0
	C61.7,555.8,58,559.5,53.5,559.5z"/>
<path class="st4" d="M76,559.5L76,559.5c-4.6,0-8.3-3.7-8.3-8.3l0,0c0-4.6,3.7-8.3,8.3-8.3h0c4.6,0,8.3,3.7,8.3,8.3l0,0
	C84.3,555.8,80.6,559.5,76,559.5z"/>
<path class="st4" d="M98.6,559.5L98.6,559.5c-4.6,0-8.3-3.7-8.3-8.3l0,0c0-4.6,3.7-8.3,8.3-8.3h0c4.6,0,8.3,3.7,8.3,8.3l0,0
	C106.9,555.8,103.2,559.5,98.6,559.5z"/>
<path class="st4" d="M121.2,559.5L121.2,559.5c-4.6,0-8.3-3.7-8.3-8.3l0,0c0-4.6,3.7-8.3,8.3-8.3h0c4.6,0,8.3,3.7,8.3,8.3l0,0
	C129.5,555.8,125.7,559.5,121.2,559.5z"/>
<path class="st4" d="M143.7,559.5L143.7,559.5c-4.6,0-8.3-3.7-8.3-8.3l0,0c0-4.6,3.7-8.3,8.3-8.3h0c4.6,0,8.3,3.7,8.3,8.3l0,0
	C152,555.8,148.3,559.5,143.7,559.5z"/>
<path class="st4" d="M8.3,62L8.3,62C3.7,62,0,58.3,0,53.7v0c0-4.6,3.7-8.3,8.3-8.3h0c4.6,0,8.3,3.7,8.3,8.3v0
	C16.6,58.3,12.8,62,8.3,62z"/>
<path class="st4" d="M30.9,62L30.9,62c-4.6,0-8.3-3.7-8.3-8.3v0c0-4.6,3.7-8.3,8.3-8.3h0c4.6,0,8.3,3.7,8.3,8.3v0
	C39.1,58.3,35.4,62,30.9,62z"/>
<path class="st4" d="M53.4,62L53.4,62c-4.6,0-8.3-3.7-8.3-8.3v0c0-4.6,3.7-8.3,8.3-8.3h0c4.6,0,8.3,3.7,8.3,8.3v0
	C61.7,58.3,58,62,53.4,62z"/>
<path class="st4" d="M76,62L76,62c-4.6,0-8.3-3.7-8.3-8.3v0c0-4.6,3.7-8.3,8.3-8.3h0c4.6,0,8.3,3.7,8.3,8.3v0
	C84.3,58.3,80.6,62,76,62z"/>
<path class="st4" d="M98.6,62L98.6,62c-4.6,0-8.3-3.7-8.3-8.3v0c0-4.6,3.7-8.3,8.3-8.3h0c4.6,0,8.3,3.7,8.3,8.3v0
	C106.9,58.3,103.1,62,98.6,62z"/>
<path class="st4" d="M121.1,62L121.1,62c-4.6,0-8.3-3.7-8.3-8.3v0c0-4.6,3.7-8.3,8.3-8.3h0c4.6,0,8.3,3.7,8.3,8.3v0
	C129.4,58.3,125.7,62,121.1,62z"/>
<path class="st4" d="M143.7,62L143.7,62c-4.6,0-8.3-3.7-8.3-8.3v0c0-4.6,3.7-8.3,8.3-8.3h0c4.6,0,8.3,3.7,8.3,8.3v0
	C152,58.3,148.3,62,143.7,62z"/>
<path class="st4" d="M166.3,62L166.3,62c-4.6,0-8.3-3.7-8.3-8.3v0c0-4.6,3.7-8.3,8.3-8.3h0c4.6,0,8.3,3.7,8.3,8.3v0
	C174.6,58.3,170.8,62,166.3,62z"/>
<path class="st4" d="M188.8,62L188.8,62c-4.6,0-8.3-3.7-8.3-8.3v0c0-4.6,3.7-8.3,8.3-8.3h0c4.6,0,8.3,3.7,8.3,8.3v0
	C197.1,58.3,193.4,62,188.8,62z"/>
<path class="st4" d="M211.4,62L211.4,62c-4.6,0-8.3-3.7-8.3-8.3v0c0-4.6,3.7-8.3,8.3-8.3h0c4.6,0,8.3,3.7,8.3,8.3v0
	C219.7,58.3,216,62,211.4,62z"/>
<path class="st4" d="M234,62L234,62c-4.6,0-8.3-3.7-8.3-8.3v0c0-4.6,3.7-8.3,8.3-8.3h0c4.6,0,8.3,3.7,8.3,8.3v0
	C242.3,58.3,238.5,62,234,62z"/>
<path class="st4" d="M256.6,62L256.6,62c-4.6,0-8.3-3.7-8.3-8.3v0c0-4.6,3.7-8.3,8.3-8.3h0c4.6,0,8.3,3.7,8.3,8.3v0
	C264.8,58.3,261.1,62,256.6,62z"/>
<path class="st4" d="M279.1,62L279.1,62c-4.6,0-8.3-3.7-8.3-8.3v0c0-4.6,3.7-8.3,8.3-8.3h0c4.6,0,8.3,3.7,8.3,8.3v0
	C287.4,58.3,283.7,62,279.1,62z"/>
<path class="st4" d="M301.7,62L301.7,62c-4.6,0-8.3-3.7-8.3-8.3v0c0-4.6,3.7-8.3,8.3-8.3l0,0c4.6,0,8.3,3.7,8.3,8.3v0
	C310,58.3,306.3,62,301.7,62z"/>
<path class="st4" d="M324.3,62L324.3,62c-4.6,0-8.3-3.7-8.3-8.3v0c0-4.6,3.7-8.3,8.3-8.3l0,0c4.6,0,8.3,3.7,8.3,8.3v0
	C332.6,58.3,328.8,62,324.3,62z"/>
<path class="st4" d="M346.8,62L346.8,62c-4.6,0-8.3-3.7-8.3-8.3v0c0-4.6,3.7-8.3,8.3-8.3h0c4.6,0,8.3,3.7,8.3,8.3v0
	C355.1,58.3,351.4,62,346.8,62z"/>
<path class="st4" d="M8.3,604.6L8.3,604.6c-4.6,0-8.3-3.7-8.3-8.3v0c0-4.6,3.7-8.3,8.3-8.3h0c4.6,0,8.3,3.7,8.3,8.3v0
	C16.6,600.9,12.9,604.6,8.3,604.6z"/>
<path class="st4" d="M30.9,604.6L30.9,604.6c-4.6,0-8.3-3.7-8.3-8.3v0c0-4.6,3.7-8.3,8.3-8.3h0c4.6,0,8.3,3.7,8.3,8.3v0
	C39.2,600.9,35.5,604.6,30.9,604.6z"/>
<path class="st4" d="M53.5,604.6L53.5,604.6c-4.6,0-8.3-3.7-8.3-8.3v0c0-4.6,3.7-8.3,8.3-8.3h0c4.6,0,8.3,3.7,8.3,8.3v0
	C61.7,600.9,58,604.6,53.5,604.6z"/>
<path class="st4" d="M76,604.6L76,604.6c-4.6,0-8.3-3.7-8.3-8.3v0c0-4.6,3.7-8.3,8.3-8.3h0c4.6,0,8.3,3.7,8.3,8.3v0
	C84.3,600.9,80.6,604.6,76,604.6z"/>
<path class="st4" d="M98.6,604.6L98.6,604.6c-4.6,0-8.3-3.7-8.3-8.3v0c0-4.6,3.7-8.3,8.3-8.3h0c4.6,0,8.3,3.7,8.3,8.3v0
	C106.9,600.9,103.2,604.6,98.6,604.6z"/>
<path class="st4" d="M121.2,604.6L121.2,604.6c-4.6,0-8.3-3.7-8.3-8.3v0c0-4.6,3.7-8.3,8.3-8.3h0c4.6,0,8.3,3.7,8.3,8.3v0
	C129.5,600.9,125.7,604.6,121.2,604.6z"/>
<path class="st4" d="M76.3,311L76.3,311c-4.6,0-8.3-3.7-8.3-8.3l0,0c0-4.6,3.7-8.3,8.3-8.3h0c4.6,0,8.3,3.7,8.3,8.3l0,0
	C84.6,307.3,80.9,311,76.3,311z"/>
<path class="st4" d="M98.9,311L98.9,311c-4.6,0-8.3-3.7-8.3-8.3l0,0c0-4.6,3.7-8.3,8.3-8.3h0c4.6,0,8.3,3.7,8.3,8.3l0,0
	C107.2,307.3,103.4,311,98.9,311z"/>
<path class="st4" d="M121.4,311L121.4,311c-4.6,0-8.3-3.7-8.3-8.3l0,0c0-4.6,3.7-8.3,8.3-8.3h0c4.6,0,8.3,3.7,8.3,8.3l0,0
	C129.7,307.3,126,311,121.4,311z"/>
<path class="st4" d="M144,311L144,311c-4.6,0-8.3-3.7-8.3-8.3l0,0c0-4.6,3.7-8.3,8.3-8.3h0c4.6,0,8.3,3.7,8.3,8.3l0,0
	C152.3,307.3,148.6,311,144,311z"/>
<path class="st4" d="M166.6,311L166.6,311c-4.6,0-8.3-3.7-8.3-8.3l0,0c0-4.6,3.7-8.3,8.3-8.3h0c4.6,0,8.3,3.7,8.3,8.3l0,0
	C174.9,307.3,171.1,311,166.6,311z"/>
<path class="st4" d="M189.2,311L189.2,311c-4.6,0-8.3-3.7-8.3-8.3l0,0c0-4.6,3.7-8.3,8.3-8.3h0c4.6,0,8.3,3.7,8.3,8.3l0,0
	C197.4,307.3,193.7,311,189.2,311z"/>
<path class="st4" d="M211.7,311L211.7,311c-4.6,0-8.3-3.7-8.3-8.3l0,0c0-4.6,3.7-8.3,8.3-8.3h0c4.6,0,8.3,3.7,8.3,8.3l0,0
	C220,307.3,216.3,311,211.7,311z"/>
<path class="st4" d="M234.3,311L234.3,311c-4.6,0-8.3-3.7-8.3-8.3l0,0c0-4.6,3.7-8.3,8.3-8.3h0c4.6,0,8.3,3.7,8.3,8.3l0,0
	C242.6,307.3,238.9,311,234.3,311z"/>
<path class="st4" d="M256.9,311L256.9,311c-4.6,0-8.3-3.7-8.3-8.3l0,0c0-4.6,3.7-8.3,8.3-8.3h0c4.6,0,8.3,3.7,8.3,8.3l0,0
	C265.2,307.3,261.4,311,256.9,311z"/>
<path class="st4" d="M279.4,311L279.4,311c-4.6,0-8.3-3.7-8.3-8.3l0,0c0-4.6,3.7-8.3,8.3-8.3h0c4.6,0,8.3,3.7,8.3,8.3l0,0
	C287.7,307.3,284,311,279.4,311z"/>
<path class="st4" d="M279.2,175.6L279.2,175.6c-4.6,0-8.3-3.7-8.3-8.3v0c0-4.6,3.7-8.3,8.3-8.3h0c4.6,0,8.3,3.7,8.3,8.3v0
	C287.5,171.9,283.8,175.6,279.2,175.6z"/>
<path class="st4" d="M279.2,220.7L279.2,220.7c-4.6,0-8.3-3.7-8.3-8.3v0c0-4.6,3.7-8.3,8.3-8.3l0,0c4.6,0,8.3,3.7,8.3,8.3v0
	C287.5,217,283.7,220.7,279.2,220.7z"/>
<path class="st4" d="M279.2,198.2L279.2,198.2c-4.6,0-8.3-3.7-8.3-8.3v0c0-4.6,3.7-8.3,8.3-8.3l0,0c4.6,0,8.3,3.7,8.3,8.3v0
	C287.5,194.4,283.7,198.2,279.2,198.2z"/>
<path class="st4" d="M301.9,243.3L301.9,243.3c-4.6,0-8.3-3.7-8.3-8.3v0c0-4.6,3.7-8.3,8.3-8.3h0c4.6,0,8.3,3.7,8.3,8.3v0
	C310.2,239.6,306.5,243.3,301.9,243.3z"/>
<path class="st4" d="M301.7,175.6L301.7,175.6c-4.6,0-8.3-3.7-8.3-8.3v0c0-4.6,3.7-8.3,8.3-8.3l0,0c4.6,0,8.3,3.7,8.3,8.3v0
	C310,171.9,306.3,175.6,301.7,175.6z"/>
<path class="st4" d="M301.7,220.7L301.7,220.7c-4.6,0-8.3-3.7-8.3-8.3v0c0-4.6,3.7-8.3,8.3-8.3l0,0c4.6,0,8.3,3.7,8.3,8.3v0
	C310,217,306.3,220.7,301.7,220.7z"/>
<path class="st4" d="M301.7,198.2L301.7,198.2c-4.6,0-8.3-3.7-8.3-8.3v0c0-4.6,3.7-8.3,8.3-8.3l0,0c4.6,0,8.3,3.7,8.3,8.3v0
	C310,194.4,306.3,198.2,301.7,198.2z"/>
<path class="st4" d="M324.3,175.6L324.3,175.6c-4.6,0-8.3-3.7-8.3-8.3v0c0-4.6,3.7-8.3,8.3-8.3l0,0c4.6,0,8.3,3.7,8.3,8.3v0
	C332.6,171.9,328.9,175.6,324.3,175.6z"/>
<path class="st4" d="M324.3,198.2L324.3,198.2c-4.6,0-8.3-3.7-8.3-8.3v0c0-4.6,3.7-8.3,8.3-8.3l0,0c4.6,0,8.3,3.7,8.3,8.3v0
	C332.6,194.4,328.8,198.2,324.3,198.2z"/>
<path class="st4" d="M8.4,627.3L8.4,627.3c-4.6,0-8.3-3.7-8.3-8.3l0,0c0-4.6,3.7-8.3,8.3-8.3h0c4.6,0,8.3,3.7,8.3,8.3l0,0
	C16.6,623.5,12.9,627.3,8.4,627.3z"/>
<path class="st4" d="M30.9,627.3L30.9,627.3c-4.6,0-8.3-3.7-8.3-8.3l0,0c0-4.6,3.7-8.3,8.3-8.3h0c4.6,0,8.3,3.7,8.3,8.3l0,0
	C39.2,623.5,35.5,627.3,30.9,627.3z"/>
<path class="st4" d="M53.5,627.3L53.5,627.3c-4.6,0-8.3-3.7-8.3-8.3l0,0c0-4.6,3.7-8.3,8.3-8.3h0c4.6,0,8.3,3.7,8.3,8.3l0,0
	C61.8,623.5,58,627.3,53.5,627.3z"/>
<path class="st4" d="M76.1,627.3L76.1,627.3c-4.6,0-8.3-3.7-8.3-8.3l0,0c0-4.6,3.7-8.3,8.3-8.3h0c4.6,0,8.3,3.7,8.3,8.3l0,0
	C84.3,623.5,80.6,627.3,76.1,627.3z"/>
<path class="st4" d="M98.6,627.3L98.6,627.3c-4.6,0-8.3-3.7-8.3-8.3l0,0c0-4.6,3.7-8.3,8.3-8.3h0c4.6,0,8.3,3.7,8.3,8.3l0,0
	C106.9,623.5,103.2,627.3,98.6,627.3z"/>
<path class="st4" d="M121.2,627.3L121.2,627.3c-4.6,0-8.3-3.7-8.3-8.3l0,0c0-4.6,3.7-8.3,8.3-8.3h0c4.6,0,8.3,3.7,8.3,8.3l0,0
	C129.5,623.5,125.8,627.3,121.2,627.3z"/>
<path class="st4" d="M369.6,85.3L369.6,85.3c-4.6,0-8.3-3.7-8.3-8.3v0c0-4.6,3.7-8.3,8.3-8.3l0,0c4.6,0,8.3,3.7,8.3,8.3v0
	C377.8,81.6,374.1,85.3,369.6,85.3z"/>
<path class="st4" d="M369.6,62L369.6,62c-4.6,0-8.3-3.7-8.3-8.3v0c0-4.6,3.7-8.3,8.3-8.3l0,0c4.6,0,8.3,3.7,8.3,8.3v0
	C377.8,58.3,374.1,62,369.6,62z"/>
<g>
	<text transform="matrix(1 0 0 1 119.5769 10.3748)" class="st5 st6 st7">1</text>
	<text transform="matrix(1 0 0 1 141.6394 10.3748)" class="st5 st6 st7">2</text>
	<text transform="matrix(1 0 0 1 164.2136 10.3748)" class="st5 st6 st7">3</text>
	<text transform="matrix(1 0 0 1 186.7283 10.3748)" class="st5 st6 st7">4</text>
	<text transform="matrix(1 0 0 1 209.4011 10.3748)" class="st5 st6 st7">5</text>
	<text transform="matrix(1 0 0 1 231.7234 10.3748)" class="st5 st6 st7">6</text>
	<text transform="matrix(1 0 0 1 254.7497 10.3748)" class="st5 st6 st7">7</text>
	<text transform="matrix(1 0 0 1 276.9402 10.3748)" class="st5 st6 st7">8</text>
	<text transform="matrix(1 0 0 1 299.4333 10.3748)" class="st5 st6 st7">9</text>
	<text transform="matrix(1 0 0 1 320.0837 10.3748)" class="st5 st6 st7">10</text>
	<text transform="matrix(1 0 0 1 343.5661 10.3748)" class="st5 st6 st7">11</text>
	<text transform="matrix(1 0 0 1 365.6286 10.3748)" class="st5 st6 st7">12</text>
	<text transform="matrix(1 0 0 1 6.574 101.8524)" class="st5 st6 st7">1</text>
	<text transform="matrix(1 0 0 1 28.6355 101.8524)" class="st5 st6 st7">2</text>
	<text transform="matrix(1 0 0 1 51.2097 101.8524)" class="st5 st6 st7">3</text>
	<text transform="matrix(1 0 0 1 73.7243 101.8524)" class="st5 st6 st7">4</text>
	<text transform="matrix(1 0 0 1 96.3982 101.8524)" class="st5 st6 st7">5</text>
	<text transform="matrix(1 0 0 1 118.7204 101.8524)" class="st5 st6 st7">6</text>
	<text transform="matrix(1 0 0 1 141.7468 101.8524)" class="st5 st6 st7">7</text>
	<text transform="matrix(1 0 0 1 163.9372 101.8524)" class="st5 st6 st7">8</text>
	<text transform="matrix(1 0 0 1 186.4314 101.8524)" class="st5 st6 st7">9</text>
	<text transform="matrix(1 0 0 1 207.0808 101.8524)" class="st5 st6 st7">10</text>
	<text transform="matrix(1 0 0 1 230.5632 101.8524)" class="st5 st6 st7">11</text>
	<text transform="matrix(1 0 0 1 252.6257 101.8524)" class="st5 st6 st7">12</text>
	<text transform="matrix(1 0 0 1 275.1989 101.8524)" class="st5 st6 st7">13</text>
	<text transform="matrix(1 0 0 1 297.7126 101.8524)" class="st5 st6 st7">14</text>
	<text transform="matrix(1 0 0 1 320.3874 101.8524)" class="st5 st6 st7">15</text>
	<text transform="matrix(1 0 0 1 342.7097 101.8524)" class="st5 st6 st7">16</text>
	<text transform="matrix(1 0 0 1 6.574 79.2821)" class="st5 st6 st7">1</text>
	<text transform="matrix(1 0 0 1 28.6355 79.2821)" class="st5 st6 st7">2</text>
	<text transform="matrix(1 0 0 1 51.2097 79.2821)" class="st5 st6 st7">3</text>
	<text transform="matrix(1 0 0 1 73.7243 79.2821)" class="st5 st6 st7">4</text>
	<text transform="matrix(1 0 0 1 96.3982 79.2821)" class="st5 st6 st7">5</text>
	<text transform="matrix(1 0 0 1 118.7204 79.2821)" class="st5 st6 st7">6</text>
	<text transform="matrix(1 0 0 1 141.7468 79.2821)" class="st5 st6 st7">7</text>
	<text transform="matrix(1 0 0 1 163.9372 79.2821)" class="st5 st6 st7">8</text>
	<text transform="matrix(1 0 0 1 186.4314 79.2821)" class="st5 st6 st7">9</text>
	<text transform="matrix(1 0 0 1 207.0808 79.2821)" class="st5 st6 st7">10</text>
	<text transform="matrix(1 0 0 1 230.5632 79.2821)" class="st5 st6 st7">11</text>
	<text transform="matrix(1 0 0 1 252.6257 79.2821)" class="st5 st6 st7">12</text>
	<text transform="matrix(1 0 0 1 275.1989 79.2821)" class="st5 st6 st7">13</text>
	<text transform="matrix(1 0 0 1 297.7126 79.2821)" class="st5 st6 st7">14</text>
	<text transform="matrix(1 0 0 1 320.3874 79.2821)" class="st5 st6 st7">15</text>
	<text transform="matrix(1 0 0 1 342.7097 79.2821)" class="st5 st6 st7">16</text>
	<text transform="matrix(1 0 0 1 6.574 55.9403)" class="st5 st6 st7">1</text>
	<text transform="matrix(1 0 0 1 28.6355 55.9403)" class="st5 st6 st7">2</text>
	<text transform="matrix(1 0 0 1 51.2097 55.9403)" class="st5 st6 st7">3</text>
	<text transform="matrix(1 0 0 1 73.7243 55.9403)" class="st5 st6 st7">4</text>
	<text transform="matrix(1 0 0 1 96.3982 55.9403)" class="st5 st6 st7">5</text>
	<text transform="matrix(1 0 0 1 118.7204 55.9403)" class="st5 st6 st7">6</text>
	<text transform="matrix(1 0 0 1 141.7468 55.9403)" class="st5 st6 st7">7</text>
	<text transform="matrix(1 0 0 1 163.9372 55.9403)" class="st5 st6 st7">8</text>
	<text transform="matrix(1 0 0 1 186.4314 55.9403)" class="st5 st6 st7">9</text>
	<text transform="matrix(1 0 0 1 207.0808 55.9403)" class="st5 st6 st7">10</text>
	<text transform="matrix(1 0 0 1 230.5632 55.9403)" class="st5 st6 st7">11</text>
	<text transform="matrix(1 0 0 1 252.6257 55.9403)" class="st5 st6 st7">12</text>
	<text transform="matrix(1 0 0 1 275.1989 55.9403)" class="st5 st6 st7">13</text>
	<text transform="matrix(1 0 0 1 297.7126 55.9403)" class="st5 st6 st7">14</text>
	<text transform="matrix(1 0 0 1 320.3874 55.9403)" class="st5 st6 st7">15</text>
	<text transform="matrix(1 0 0 1 342.7097 55.9403)" class="st5 st6 st7">16</text>
	<text transform="matrix(1 0 0 1 365.8889 55.9403)" class="st5 st6 st7">17</text>
	<text transform="matrix(1 0 0 1 365.8889 79.2821)" class="st5 st6 st7">17</text>
	<text transform="matrix(1 0 0 1 6.6003 146.995)" class="st5 st6 st7">1</text>
	<text transform="matrix(1 0 0 1 28.6628 146.995)" class="st5 st6 st7">2</text>
	<text transform="matrix(1 0 0 1 51.237 146.995)" class="st5 st6 st7">3</text>
	<text transform="matrix(1 0 0 1 73.7517 146.995)" class="st5 st6 st7">4</text>
	<text transform="matrix(1 0 0 1 96.4245 146.995)" class="st5 st6 st7">5</text>
	<text transform="matrix(1 0 0 1 118.7468 146.995)" class="st5 st6 st7">6</text>
	<text transform="matrix(1 0 0 1 141.7732 146.995)" class="st5 st6 st7">7</text>
	<text transform="matrix(1 0 0 1 163.9636 146.995)" class="st5 st6 st7">8</text>
	<text transform="matrix(1 0 0 1 186.4568 146.995)" class="st5 st6 st7">9</text>
	<text transform="matrix(1 0 0 1 207.1074 146.995)" class="st5 st6 st7">10</text>
	<text transform="matrix(1 0 0 1 230.5896 146.995)" class="st5 st6 st7">11</text>
	<text transform="matrix(1 0 0 1 252.6521 146.995)" class="st5 st6 st7">12</text>
	<text transform="matrix(1 0 0 1 275.2263 146.995)" class="st5 st6 st7">13</text>
	<text transform="matrix(1 0 0 1 297.74 146.995)" class="st5 st6 st7">14</text>
	<text transform="matrix(1 0 0 1 320.4138 146.995)" class="st5 st6 st7">15</text>
	<text transform="matrix(1 0 0 1 74.2065 327.5946)" class="st5 st6 st7">1</text>
	<text transform="matrix(1 0 0 1 96.269 327.5946)" class="st5 st6 st7">2</text>
	<text transform="matrix(1 0 0 1 118.8432 327.5946)" class="st5 st6 st7">3</text>
	<text transform="matrix(1 0 0 1 141.3579 327.5946)" class="st5 st6 st7">4</text>
	<text transform="matrix(1 0 0 1 164.0307 327.5946)" class="st5 st6 st7">5</text>
	<text transform="matrix(1 0 0 1 186.353 327.5946)" class="st5 st6 st7">6</text>
	<text transform="matrix(1 0 0 1 209.3796 327.5946)" class="st5 st6 st7">7</text>
	<text transform="matrix(1 0 0 1 231.5698 327.5946)" class="st5 st6 st7">8</text>
	<text transform="matrix(1 0 0 1 254.063 327.5946)" class="st5 st6 st7">9</text>
	<text transform="matrix(1 0 0 1 74.2065 350.1463)" class="st5 st6 st7">1</text>
	<text transform="matrix(1 0 0 1 96.269 350.1463)" class="st5 st6 st7">2</text>
	<text transform="matrix(1 0 0 1 118.8432 350.1463)" class="st5 st6 st7">3</text>
	<text transform="matrix(1 0 0 1 141.3579 350.1463)" class="st5 st6 st7">4</text>
	<text transform="matrix(1 0 0 1 164.0307 350.1463)" class="st5 st6 st7">5</text>
	<text transform="matrix(1 0 0 1 186.353 350.1463)" class="st5 st6 st7">6</text>
	<text transform="matrix(1 0 0 1 209.3796 350.1463)" class="st5 st6 st7">7</text>
	<text transform="matrix(1 0 0 1 231.5698 350.1463)" class="st5 st6 st7">8</text>
	<text transform="matrix(1 0 0 1 254.063 350.1463)" class="st5 st6 st7">9</text>
	<text transform="matrix(1 0 0 1 74.2065 372.7821)" class="st5 st6 st7">1</text>
	<text transform="matrix(1 0 0 1 96.269 372.7821)" class="st5 st6 st7">2</text>
	<text transform="matrix(1 0 0 1 118.8432 372.7821)" class="st5 st6 st7">3</text>
	<text transform="matrix(1 0 0 1 141.3579 372.7821)" class="st5 st6 st7">4</text>
	<text transform="matrix(1 0 0 1 164.0307 372.7821)" class="st5 st6 st7">5</text>
	<text transform="matrix(1 0 0 1 186.353 372.7821)" class="st5 st6 st7">6</text>
	<text transform="matrix(1 0 0 1 209.3796 372.7821)" class="st5 st6 st7">7</text>
	<text transform="matrix(1 0 0 1 231.5698 372.7821)" class="st5 st6 st7">8</text>
	<text transform="matrix(1 0 0 1 74.2065 395.3338)" class="st5 st6 st7">1</text>
	<text transform="matrix(1 0 0 1 96.269 395.3338)" class="st5 st6 st7">2</text>
	<text transform="matrix(1 0 0 1 118.8432 395.3338)" class="st5 st6 st7">3</text>
	<text transform="matrix(1 0 0 1 141.3579 395.3338)" class="st5 st6 st7">4</text>
	<text transform="matrix(1 0 0 1 164.0307 395.3338)" class="st5 st6 st7">5</text>
	<text transform="matrix(1 0 0 1 186.353 395.3338)" class="st5 st6 st7">6</text>
	<text transform="matrix(1 0 0 1 209.3796 395.3338)" class="st5 st6 st7">7</text>
	<text transform="matrix(1 0 0 1 231.5698 395.3338)" class="st5 st6 st7">8</text>
	<text transform="matrix(1 0 0 1 74.2065 417.9666)" class="st5 st6 st7">1</text>
	<text transform="matrix(1 0 0 1 96.269 417.9666)" class="st5 st6 st7">2</text>
	<text transform="matrix(1 0 0 1 118.8432 417.9666)" class="st5 st6 st7">3</text>
	<text transform="matrix(1 0 0 1 141.3579 417.9666)" class="st5 st6 st7">4</text>
	<text transform="matrix(1 0 0 1 164.0307 417.9666)" class="st5 st6 st7">5</text>
	<text transform="matrix(1 0 0 1 186.353 417.9666)" class="st5 st6 st7">6</text>
	<text transform="matrix(1 0 0 1 209.3796 417.9666)" class="st5 st6 st7">7</text>
	<text transform="matrix(1 0 0 1 6.6003 440.5194)" class="st5 st6 st7">1</text>
	<text transform="matrix(1 0 0 1 28.6628 440.5194)" class="st5 st6 st7">2</text>
	<text transform="matrix(1 0 0 1 51.237 440.5194)" class="st5 st6 st7">3</text>
	<text transform="matrix(1 0 0 1 73.7517 440.5194)" class="st5 st6 st7">4</text>
	<text transform="matrix(1 0 0 1 96.4245 440.5194)" class="st5 st6 st7">5</text>
	<text transform="matrix(1 0 0 1 118.7468 440.5194)" class="st5 st6 st7">6</text>
	<text transform="matrix(1 0 0 1 141.7732 440.5194)" class="st5 st6 st7">7</text>
	<text transform="matrix(1 0 0 1 163.9636 440.5194)" class="st5 st6 st7">8</text>
	<text transform="matrix(1 0 0 1 186.4568 440.5194)" class="st5 st6 st7">9</text>
	<text transform="matrix(1 0 0 1 207.1074 440.5194)" class="st5 st6 st7">10</text>
	<text transform="matrix(1 0 0 1 6.6003 124.4246)" class="st5 st6 st7">1</text>
	<text transform="matrix(1 0 0 1 28.6628 124.4246)" class="st5 st6 st7">2</text>
	<text transform="matrix(1 0 0 1 51.237 124.4246)" class="st5 st6 st7">3</text>
	<text transform="matrix(1 0 0 1 73.7517 124.4246)" class="st5 st6 st7">4</text>
	<text transform="matrix(1 0 0 1 96.4245 124.4246)" class="st5 st6 st7">5</text>
	<text transform="matrix(1 0 0 1 118.7468 124.4246)" class="st5 st6 st7">6</text>
	<text transform="matrix(1 0 0 1 141.7732 124.4246)" class="st5 st6 st7">7</text>
	<text transform="matrix(1 0 0 1 163.9636 124.4246)" class="st5 st6 st7">8</text>
	<text transform="matrix(1 0 0 1 186.4568 124.4246)" class="st5 st6 st7">9</text>
	<text transform="matrix(1 0 0 1 207.1074 124.4246)" class="st5 st6 st7">10</text>
	<text transform="matrix(1 0 0 1 230.5896 124.4246)" class="st5 st6 st7">11</text>
	<text transform="matrix(1 0 0 1 252.6521 124.4246)" class="st5 st6 st7">12</text>
	<text transform="matrix(1 0 0 1 275.2263 124.4246)" class="st5 st6 st7">13</text>
	<text transform="matrix(1 0 0 1 297.74 124.4246)" class="st5 st6 st7">14</text>
	<text transform="matrix(1 0 0 1 320.4138 124.4246)" class="st5 st6 st7">15</text>
	<text transform="matrix(1 0 0 1 342.7361 124.4246)" class="st5 st6 st7">16</text>
	<text transform="matrix(1 0 0 1 6.573 169.5526)" class="st5 st6 st7">1</text>
	<text transform="matrix(1 0 0 1 28.6355 169.5526)" class="st5 st6 st7">2</text>
	<text transform="matrix(1 0 0 1 51.2097 169.5526)" class="st5 st6 st7">3</text>
	<text transform="matrix(1 0 0 1 73.7243 169.5526)" class="st5 st6 st7">4</text>
	<text transform="matrix(1 0 0 1 96.3982 169.5526)" class="st5 st6 st7">5</text>
	<text transform="matrix(1 0 0 1 118.7204 169.5526)" class="st5 st6 st7">6</text>
	<text transform="matrix(1 0 0 1 141.7468 169.5526)" class="st5 st6 st7">7</text>
	<text transform="matrix(1 0 0 1 163.9372 169.5526)" class="st5 st6 st7">8</text>
	<text transform="matrix(1 0 0 1 186.4314 169.5526)" class="st5 st6 st7">9</text>
	<text transform="matrix(1 0 0 1 207.082 169.5526)" class="st5 st6 st7">10</text>
	<text transform="matrix(1 0 0 1 230.5622 169.5526)" class="st5 st6 st7">11</text>
	<text transform="matrix(1 0 0 1 252.6247 169.5526)" class="st5 st6 st7">12</text>
	<text transform="matrix(1 0 0 1 275.1989 169.5526)" class="st5 st6 st7">13</text>
	<text transform="matrix(1 0 0 1 297.7126 169.5526)" class="st5 st6 st7">14</text>
	<text transform="matrix(1 0 0 1 320.3874 169.5526)" class="st5 st6 st7">15</text>
	<text transform="matrix(1 0 0 1 6.573 191.9032)" class="st5 st6 st7">1</text>
	<text transform="matrix(1 0 0 1 28.6355 191.9032)" class="st5 st6 st7">2</text>
	<text transform="matrix(1 0 0 1 51.2097 191.9032)" class="st5 st6 st7">3</text>
	<text transform="matrix(1 0 0 1 73.7243 191.9032)" class="st5 st6 st7">4</text>
	<text transform="matrix(1 0 0 1 96.3982 191.9032)" class="st5 st6 st7">5</text>
	<text transform="matrix(1 0 0 1 118.7204 191.9032)" class="st5 st6 st7">6</text>
	<text transform="matrix(1 0 0 1 141.7468 191.9032)" class="st5 st6 st7">7</text>
	<text transform="matrix(1 0 0 1 163.9372 191.9032)" class="st5 st6 st7">8</text>
	<text transform="matrix(1 0 0 1 186.4314 191.9032)" class="st5 st6 st7">9</text>
	<text transform="matrix(1 0 0 1 207.082 191.9032)" class="st5 st6 st7">10</text>
	<text transform="matrix(1 0 0 1 230.5622 191.9032)" class="st5 st6 st7">11</text>
	<text transform="matrix(1 0 0 1 252.6247 191.9032)" class="st5 st6 st7">12</text>
	<text transform="matrix(1 0 0 1 275.1989 191.9032)" class="st5 st6 st7">13</text>
	<text transform="matrix(1 0 0 1 297.7126 191.9032)" class="st5 st6 st7">14</text>
	<text transform="matrix(1 0 0 1 320.3874 191.9032)" class="st5 st6 st7">15</text>
	<text transform="matrix(1 0 0 1 6.573 214.7372)" class="st5 st6 st7">1</text>
	<text transform="matrix(1 0 0 1 28.6355 214.7372)" class="st5 st6 st7">2</text>
	<text transform="matrix(1 0 0 1 51.2097 214.7372)" class="st5 st6 st7">3</text>
	<text transform="matrix(1 0 0 1 73.7243 214.7372)" class="st5 st6 st7">4</text>
	<text transform="matrix(1 0 0 1 96.3982 214.7372)" class="st5 st6 st7">5</text>
	<text transform="matrix(1 0 0 1 118.7204 214.7372)" class="st5 st6 st7">6</text>
	<text transform="matrix(1 0 0 1 141.7468 214.7372)" class="st5 st6 st7">7</text>
	<text transform="matrix(1 0 0 1 163.9372 214.7372)" class="st5 st6 st7">8</text>
	<text transform="matrix(1 0 0 1 186.4314 214.7372)" class="st5 st6 st7">9</text>
	<text transform="matrix(1 0 0 1 207.082 214.7372)" class="st5 st6 st7">10</text>
	<text transform="matrix(1 0 0 1 230.5622 214.7372)" class="st5 st6 st7">11</text>
	<text transform="matrix(1 0 0 1 252.6247 214.7372)" class="st5 st6 st7">12</text>
	<text transform="matrix(1 0 0 1 275.1989 214.7372)" class="st5 st6 st7">13</text>
	<text transform="matrix(1 0 0 1 297.7126 214.7372)" class="st5 st6 st7">14</text>
	<text transform="matrix(1 0 0 1 74.2839 237.2674)" class="st5 st6 st7">1</text>
	<text transform="matrix(1 0 0 1 96.3464 237.2674)" class="st5 st6 st7">2</text>
	<text transform="matrix(1 0 0 1 118.9206 237.2674)" class="st5 st6 st7">3</text>
	<text transform="matrix(1 0 0 1 141.4353 237.2674)" class="st5 st6 st7">4</text>
	<text transform="matrix(1 0 0 1 164.1091 237.2674)" class="st5 st6 st7">5</text>
	<text transform="matrix(1 0 0 1 186.4314 237.2674)" class="st5 st6 st7">6</text>
	<text transform="matrix(1 0 0 1 209.458 237.2674)" class="st5 st6 st7">7</text>
	<text transform="matrix(1 0 0 1 231.6482 237.2674)" class="st5 st6 st7">8</text>
	<text transform="matrix(1 0 0 1 254.1423 237.2674)" class="st5 st6 st7">9</text>
	<text transform="matrix(1 0 0 1 274.7927 237.2674)" class="st5 st6 st7">10</text>
	<text transform="matrix(1 0 0 1 298.2732 237.2674)" class="st5 st6 st7">11</text>
	<text transform="matrix(1 0 0 1 74.1792 259.618)" class="st5 st6 st7">1</text>
	<text transform="matrix(1 0 0 1 96.2417 259.618)" class="st5 st6 st7">2</text>
	<text transform="matrix(1 0 0 1 118.8159 259.618)" class="st5 st6 st7">3</text>
	<text transform="matrix(1 0 0 1 141.3306 259.618)" class="st5 st6 st7">4</text>
	<text transform="matrix(1 0 0 1 164.0044 259.618)" class="st5 st6 st7">5</text>
	<text transform="matrix(1 0 0 1 186.3266 259.618)" class="st5 st6 st7">6</text>
	<text transform="matrix(1 0 0 1 209.353 259.618)" class="st5 st6 st7">7</text>
	<text transform="matrix(1 0 0 1 231.5434 259.618)" class="st5 st6 st7">8</text>
	<text transform="matrix(1 0 0 1 254.0376 259.618)" class="st5 st6 st7">9</text>
	<text transform="matrix(1 0 0 1 274.688 259.618)" class="st5 st6 st7">10</text>
	<text transform="matrix(1 0 0 1 298.1684 259.618)" class="st5 st6 st7">11</text>
	<text transform="matrix(1 0 0 1 74.1792 282.452)" class="st5 st6 st7">1</text>
	<text transform="matrix(1 0 0 1 96.2417 282.452)" class="st5 st6 st7">2</text>
	<text transform="matrix(1 0 0 1 118.8159 282.452)" class="st5 st6 st7">3</text>
	<text transform="matrix(1 0 0 1 141.3306 282.452)" class="st5 st6 st7">4</text>
	<text transform="matrix(1 0 0 1 164.0044 282.452)" class="st5 st6 st7">5</text>
	<text transform="matrix(1 0 0 1 186.3266 282.452)" class="st5 st6 st7">6</text>
	<text transform="matrix(1 0 0 1 209.353 282.452)" class="st5 st6 st7">7</text>
	<text transform="matrix(1 0 0 1 231.5434 282.452)" class="st5 st6 st7">8</text>
	<text transform="matrix(1 0 0 1 254.0376 282.452)" class="st5 st6 st7">9</text>
	<text transform="matrix(1 0 0 1 274.688 282.452)" class="st5 st6 st7">10</text>
	<text transform="matrix(1 0 0 1 6.573 463.1766)" class="st5 st6 st7">1</text>
	<text transform="matrix(1 0 0 1 28.6355 463.1766)" class="st5 st6 st7">2</text>
	<text transform="matrix(1 0 0 1 51.2097 463.1766)" class="st5 st6 st7">3</text>
	<text transform="matrix(1 0 0 1 73.7243 463.1766)" class="st5 st6 st7">4</text>
	<text transform="matrix(1 0 0 1 96.3982 463.1766)" class="st5 st6 st7">5</text>
	<text transform="matrix(1 0 0 1 118.7204 463.1766)" class="st5 st6 st7">6</text>
	<text transform="matrix(1 0 0 1 141.7468 463.1766)" class="st5 st6 st7">7</text>
	<text transform="matrix(1 0 0 1 163.9372 463.1766)" class="st5 st6 st7">8</text>
	<text transform="matrix(1 0 0 1 186.4314 463.1766)" class="st5 st6 st7">9</text>
	<text transform="matrix(1 0 0 1 6.573 485.5282)" class="st5 st6 st7">1</text>
	<text transform="matrix(1 0 0 1 28.6355 485.5282)" class="st5 st6 st7">2</text>
	<text transform="matrix(1 0 0 1 51.2097 485.5282)" class="st5 st6 st7">3</text>
	<text transform="matrix(1 0 0 1 73.7243 485.5282)" class="st5 st6 st7">4</text>
	<text transform="matrix(1 0 0 1 96.3982 485.5282)" class="st5 st6 st7">5</text>
	<text transform="matrix(1 0 0 1 118.7204 485.5282)" class="st5 st6 st7">6</text>
	<text transform="matrix(1 0 0 1 141.7468 485.5282)" class="st5 st6 st7">7</text>
	<text transform="matrix(1 0 0 1 163.9372 485.5282)" class="st5 st6 st7">8</text>
	<text transform="matrix(1 0 0 1 186.4314 485.5282)" class="st5 st6 st7">9</text>
	<text transform="matrix(1 0 0 1 6.573 508.3612)" class="st5 st6 st7">1</text>
	<text transform="matrix(1 0 0 1 28.6355 508.3612)" class="st5 st6 st7">2</text>
	<text transform="matrix(1 0 0 1 51.2097 508.3612)" class="st5 st6 st7">3</text>
	<text transform="matrix(1 0 0 1 73.7243 508.3612)" class="st5 st6 st7">4</text>
	<text transform="matrix(1 0 0 1 96.3982 508.3612)" class="st5 st6 st7">5</text>
	<text transform="matrix(1 0 0 1 118.7204 508.3612)" class="st5 st6 st7">6</text>
	<text transform="matrix(1 0 0 1 141.7468 508.3612)" class="st5 st6 st7">7</text>
	<text transform="matrix(1 0 0 1 163.9372 508.3612)" class="st5 st6 st7">8</text>
	<text transform="matrix(1 0 0 1 6.573 530.8914)" class="st5 st6 st7">1</text>
	<text transform="matrix(1 0 0 1 28.6355 530.8914)" class="st5 st6 st7">2</text>
	<text transform="matrix(1 0 0 1 51.2097 530.8914)" class="st5 st6 st7">3</text>
	<text transform="matrix(1 0 0 1 73.7243 530.8914)" class="st5 st6 st7">4</text>
	<text transform="matrix(1 0 0 1 96.3982 530.8914)" class="st5 st6 st7">5</text>
	<text transform="matrix(1 0 0 1 118.7204 530.8914)" class="st5 st6 st7">6</text>
	<text transform="matrix(1 0 0 1 141.7468 530.8914)" class="st5 st6 st7">7</text>
	<text transform="matrix(1 0 0 1 163.9372 530.8914)" class="st5 st6 st7">8</text>
	<text transform="matrix(1 0 0 1 6.573 553.243)" class="st5 st6 st7">1</text>
	<text transform="matrix(1 0 0 1 28.6355 553.243)" class="st5 st6 st7">2</text>
	<text transform="matrix(1 0 0 1 51.2097 553.243)" class="st5 st6 st7">3</text>
	<text transform="matrix(1 0 0 1 73.7243 553.243)" class="st5 st6 st7">4</text>
	<text transform="matrix(1 0 0 1 96.3982 553.243)" class="st5 st6 st7">5</text>
	<text transform="matrix(1 0 0 1 118.7204 553.243)" class="st5 st6 st7">6</text>
	<text transform="matrix(1 0 0 1 141.7468 553.243)" class="st5 st6 st7">7</text>
	<text transform="matrix(1 0 0 1 6.573 576.076)" class="st5 st6 st7">1</text>
	<text transform="matrix(1 0 0 1 28.6355 576.076)" class="st5 st6 st7">2</text>
	<text transform="matrix(1 0 0 1 51.2097 576.076)" class="st5 st6 st7">3</text>
	<text transform="matrix(1 0 0 1 73.7243 576.076)" class="st5 st6 st7">4</text>
	<text transform="matrix(1 0 0 1 96.3982 576.076)" class="st5 st6 st7">5</text>
	<text transform="matrix(1 0 0 1 118.7204 576.076)" class="st5 st6 st7">6</text>
	<text transform="matrix(1 0 0 1 141.7468 576.076)" class="st5 st6 st7">7</text>
	<text transform="matrix(1 0 0 1 6.573 598.659)" class="st5 st6 st7">1</text>
	<text transform="matrix(1 0 0 1 28.6355 598.659)" class="st5 st6 st7">2</text>
	<text transform="matrix(1 0 0 1 51.2097 598.659)" class="st5 st6 st7">3</text>
	<text transform="matrix(1 0 0 1 73.7243 598.659)" class="st5 st6 st7">4</text>
	<text transform="matrix(1 0 0 1 96.3982 598.659)" class="st5 st6 st7">5</text>
	<text transform="matrix(1 0 0 1 118.7204 598.659)" class="st5 st6 st7">6</text>
	<text transform="matrix(1 0 0 1 6.573 621.0057)" class="st5 st6 st7">1</text>
	<text transform="matrix(1 0 0 1 28.6355 621.0057)" class="st5 st6 st7">2</text>
	<text transform="matrix(1 0 0 1 51.2097 621.0057)" class="st5 st6 st7">3</text>
	<text transform="matrix(1 0 0 1 73.7243 621.0057)" class="st5 st6 st7">4</text>
	<text transform="matrix(1 0 0 1 96.3982 621.0057)" class="st5 st6 st7">5</text>
	<text transform="matrix(1 0 0 1 118.7204 621.0057)" class="st5 st6 st7">6</text>
	<text transform="matrix(1 0 0 1 74.227 305.0575)" class="st5 st6 st7">1</text>
	<text transform="matrix(1 0 0 1 96.2895 305.0575)" class="st5 st6 st7">2</text>
	<text transform="matrix(1 0 0 1 118.8628 305.0575)" class="st5 st6 st7">3</text>
	<text transform="matrix(1 0 0 1 141.3774 305.0575)" class="st5 st6 st7">4</text>
	<text transform="matrix(1 0 0 1 164.0513 305.0575)" class="st5 st6 st7">5</text>
	<text transform="matrix(1 0 0 1 186.3735 305.0575)" class="st5 st6 st7">6</text>
	<text transform="matrix(1 0 0 1 209.3999 305.0575)" class="st5 st6 st7">7</text>
	<text transform="matrix(1 0 0 1 231.5906 305.0575)" class="st5 st6 st7">8</text>
	<text transform="matrix(1 0 0 1 254.0845 305.0575)" class="st5 st6 st7">9</text>
	<text transform="matrix(1 0 0 1 274.7348 305.0575)" class="st5 st6 st7">10</text>
</g>
</svg>
