<?xml version="1.0" encoding="utf-8"?>
<!-- Generator: Adobe Illustrator 20.1.0, SVG Export Plug-In . SVG Version: 6.00 Build 0)  -->
<svg version="1.1" id="Layer_1" xmlns="http://www.w3.org/2000/svg" xmlns:xlink="http://www.w3.org/1999/xlink" x="0px" y="0px"
	 viewBox="0 0 628.7 447" style="enable-background:new 0 0 628.7 447;" xml:space="preserve">
<style type="text/css">
	.st0{fill:#D9F6E1;}
	.st1{fill:#FFFFFF;}
	.st2{fill:#737373;}
	.st3{font-family:'OsnovaPro';}
	.st4{font-size:8px;}
	.st5{fill:#7B878F;}
	.st6{font-family:'OsnovaProLight';}
	.st7{font-size:9px;}
</style>
<path class="st0" d="M166.6,16.6L166.6,16.6c-4.6,0-8.3-3.7-8.3-8.3v0c0-4.6,3.7-8.3,8.3-8.3h0c4.6,0,8.3,3.7,8.3,8.3v0
	C174.8,12.8,171.1,16.6,166.6,16.6z"/>
<path class="st0" d="M189.1,16.6L189.1,16.6c-4.6,0-8.3-3.7-8.3-8.3v0c0-4.6,3.7-8.3,8.3-8.3h0c4.6,0,8.3,3.7,8.3,8.3v0
	C197.4,12.8,193.7,16.6,189.1,16.6z"/>
<path class="st0" d="M211.7,16.6L211.7,16.6c-4.6,0-8.3-3.7-8.3-8.3v0c0-4.6,3.7-8.3,8.3-8.3h0c4.6,0,8.3,3.7,8.3,8.3v0
	C220,12.8,216.3,16.6,211.7,16.6z"/>
<path class="st0" d="M234.3,16.6L234.3,16.6c-4.6,0-8.3-3.7-8.3-8.3v0c0-4.6,3.7-8.3,8.3-8.3h0c4.6,0,8.3,3.7,8.3,8.3v0
	C242.6,12.8,238.8,16.6,234.3,16.6z"/>
<path class="st0" d="M256.8,16.6L256.8,16.6c-4.6,0-8.3-3.7-8.3-8.3v0c0-4.6,3.7-8.3,8.3-8.3l0,0c4.6,0,8.3,3.7,8.3,8.3v0
	C265.1,12.8,261.4,16.6,256.8,16.6z"/>
<path class="st0" d="M279.4,16.6L279.4,16.6c-4.6,0-8.3-3.7-8.3-8.3v0c0-4.6,3.7-8.3,8.3-8.3l0,0c4.6,0,8.3,3.7,8.3,8.3v0
	C287.7,12.8,284,16.6,279.4,16.6z"/>
<path class="st0" d="M301.9,16.6L301.9,16.6c-4.6,0-8.3-3.7-8.3-8.3v0c0-4.6,3.7-8.3,8.3-8.3h0c4.6,0,8.3,3.7,8.3,8.3v0
	C310.2,12.8,306.5,16.6,301.9,16.6z"/>
<path class="st0" d="M324.5,16.6L324.5,16.6c-4.6,0-8.3-3.7-8.3-8.3v0c0-4.6,3.7-8.3,8.3-8.3h0c4.6,0,8.3,3.7,8.3,8.3v0
	C332.8,12.8,329,16.6,324.5,16.6z"/>
<path class="st0" d="M347,16.6L347,16.6c-4.6,0-8.3-3.7-8.3-8.3v0c0-4.6,3.7-8.3,8.3-8.3l0,0c4.6,0,8.3,3.7,8.3,8.3v0
	C355.3,12.8,351.6,16.6,347,16.6z"/>
<path class="st0" d="M369.6,16.6L369.6,16.6c-4.6,0-8.3-3.7-8.3-8.3v0c0-4.6,3.7-8.3,8.3-8.3l0,0c4.6,0,8.3,3.7,8.3,8.3v0
	C377.9,12.8,374.2,16.6,369.6,16.6z"/>
<path class="st0" d="M392.2,16.6L392.2,16.6c-4.6,0-8.3-3.7-8.3-8.3v0c0-4.6,3.7-8.3,8.3-8.3h0c4.6,0,8.3,3.7,8.3,8.3v0
	C400.5,12.8,396.7,16.6,392.2,16.6z"/>
<path class="st0" d="M414.8,16.6L414.8,16.6c-4.6,0-8.3-3.7-8.3-8.3v0c0-4.6,3.7-8.3,8.3-8.3h0c4.6,0,8.3,3.7,8.3,8.3v0
	C423,12.8,419.3,16.6,414.8,16.6z"/>
<path class="st0" d="M437.3,16.6L437.3,16.6c-4.6,0-8.3-3.7-8.3-8.3v0c0-4.6,3.7-8.3,8.3-8.3h0c4.6,0,8.3,3.7,8.3,8.3v0
	C445.6,12.8,441.8,16.6,437.3,16.6z"/>
<path class="st0" d="M459.9,16.6L459.9,16.6c-4.6,0-8.3-3.7-8.3-8.3v0c0-4.6,3.7-8.3,8.3-8.3h0c4.6,0,8.3,3.7,8.3,8.3v0
	C468.1,12.8,464.4,16.6,459.9,16.6z"/>
<path class="st0" d="M482.4,16.6L482.4,16.6c-4.6,0-8.3-3.7-8.3-8.3v0c0-4.6,3.7-8.3,8.3-8.3l0,0c4.6,0,8.3,3.7,8.3,8.3v0
	C490.7,12.8,487,16.6,482.4,16.6z"/>
<path class="st0" d="M505,16.6L505,16.6c-4.6,0-8.3-3.7-8.3-8.3v0c0-4.6,3.7-8.3,8.3-8.3l0,0c4.6,0,8.3,3.7,8.3,8.3v0
	C513.3,12.8,509.6,16.6,505,16.6z"/>
<path class="st0" d="M527.5,16.6L527.5,16.6c-4.6,0-8.3-3.7-8.3-8.3v0c0-4.6,3.7-8.3,8.3-8.3h0c4.6,0,8.3,3.7,8.3,8.3v0
	C535.8,12.8,532.1,16.6,527.5,16.6z"/>
<path class="st0" d="M550.1,16.6L550.1,16.6c-4.6,0-8.3-3.7-8.3-8.3v0c0-4.6,3.7-8.3,8.3-8.3h0c4.6,0,8.3,3.7,8.3,8.3v0
	C558.4,12.8,554.6,16.6,550.1,16.6z"/>
<path class="st1" d="M166.1,108.3L166.1,108.3c-4.6,0-8.3-3.7-8.3-8.3v0c0-4.6,3.7-8.3,8.3-8.3h0c4.6,0,8.3,3.7,8.3,8.3v0
	C174.4,104.6,170.7,108.3,166.1,108.3z"/>
<path class="st1" d="M188.7,108.3L188.7,108.3c-4.6,0-8.3-3.7-8.3-8.3v0c0-4.6,3.7-8.3,8.3-8.3h0c4.6,0,8.3,3.7,8.3,8.3v0
	C197,104.6,193.2,108.3,188.7,108.3z"/>
<path class="st1" d="M211.3,108.3L211.3,108.3c-4.6,0-8.3-3.7-8.3-8.3v0c0-4.6,3.7-8.3,8.3-8.3h0c4.6,0,8.3,3.7,8.3,8.3v0
	C219.5,104.6,215.8,108.3,211.3,108.3z"/>
<path class="st1" d="M233.8,108.3L233.8,108.3c-4.6,0-8.3-3.7-8.3-8.3v0c0-4.6,3.7-8.3,8.3-8.3h0c4.6,0,8.3,3.7,8.3,8.3v0
	C242.1,104.6,238.4,108.3,233.8,108.3z"/>
<path class="st1" d="M256.4,108.3L256.4,108.3c-4.6,0-8.3-3.7-8.3-8.3v0c0-4.6,3.7-8.3,8.3-8.3h0c4.6,0,8.3,3.7,8.3,8.3v0
	C264.7,104.6,261,108.3,256.4,108.3z"/>
<path class="st1" d="M279,108.3L279,108.3c-4.6,0-8.3-3.7-8.3-8.3v0c0-4.6,3.7-8.3,8.3-8.3l0,0c4.6,0,8.3,3.7,8.3,8.3v0
	C287.2,104.6,283.5,108.3,279,108.3z"/>
<path class="st1" d="M301.5,108.3L301.5,108.3c-4.6,0-8.3-3.7-8.3-8.3v0c0-4.6,3.7-8.3,8.3-8.3l0,0c4.6,0,8.3,3.7,8.3,8.3v0
	C309.8,104.6,306.1,108.3,301.5,108.3z"/>
<path class="st1" d="M324.1,108.3L324.1,108.3c-4.6,0-8.3-3.7-8.3-8.3v0c0-4.6,3.7-8.3,8.3-8.3h0c4.6,0,8.3,3.7,8.3,8.3v0
	C332.4,104.6,328.7,108.3,324.1,108.3z"/>
<path class="st1" d="M346.7,108.3L346.7,108.3c-4.6,0-8.3-3.7-8.3-8.3v0c0-4.6,3.7-8.3,8.3-8.3h0c4.6,0,8.3,3.7,8.3,8.3v0
	C355,104.6,351.2,108.3,346.7,108.3z"/>
<path class="st1" d="M369.2,108.3L369.2,108.3c-4.6,0-8.3-3.7-8.3-8.3v0c0-4.6,3.7-8.3,8.3-8.3l0,0c4.6,0,8.3,3.7,8.3,8.3v0
	C377.5,104.6,373.8,108.3,369.2,108.3z"/>
<path class="st1" d="M391.8,108.3L391.8,108.3c-4.6,0-8.3-3.7-8.3-8.3v0c0-4.6,3.7-8.3,8.3-8.3l0,0c4.6,0,8.3,3.7,8.3,8.3v0
	C400.1,104.6,396.4,108.3,391.8,108.3z"/>
<path class="st1" d="M414.4,108.3L414.4,108.3c-4.6,0-8.3-3.7-8.3-8.3v0c0-4.6,3.7-8.3,8.3-8.3h0c4.6,0,8.3,3.7,8.3,8.3v0
	C422.7,104.6,418.9,108.3,414.4,108.3z"/>
<path class="st1" d="M437,108.3L437,108.3c-4.6,0-8.3-3.7-8.3-8.3v0c0-4.6,3.7-8.3,8.3-8.3h0c4.6,0,8.3,3.7,8.3,8.3v0
	C445.2,104.6,441.5,108.3,437,108.3z"/>
<path class="st1" d="M459.5,108.3L459.5,108.3c-4.6,0-8.3-3.7-8.3-8.3v0c0-4.6,3.7-8.3,8.3-8.3h0c4.6,0,8.3,3.7,8.3,8.3v0
	C467.8,104.6,464.1,108.3,459.5,108.3z"/>
<path class="st1" d="M482.1,108.3L482.1,108.3c-4.6,0-8.3-3.7-8.3-8.3v0c0-4.6,3.7-8.3,8.3-8.3l0,0c4.6,0,8.3,3.7,8.3,8.3v0
	C490.4,104.6,486.7,108.3,482.1,108.3z"/>
<path class="st1" d="M504.7,108.3L504.7,108.3c-4.6,0-8.3-3.7-8.3-8.3v0c0-4.6,3.7-8.3,8.3-8.3l0,0c4.6,0,8.3,3.7,8.3,8.3v0
	C513,104.6,509.2,108.3,504.7,108.3z"/>
<path class="st1" d="M166.1,85.7L166.1,85.7c-4.6,0-8.3-3.7-8.3-8.3v0c0-4.6,3.7-8.3,8.3-8.3h0c4.6,0,8.3,3.7,8.3,8.3v0
	C174.4,82,170.7,85.7,166.1,85.7z"/>
<path class="st1" d="M188.7,85.7L188.7,85.7c-4.6,0-8.3-3.7-8.3-8.3v0c0-4.6,3.7-8.3,8.3-8.3h0c4.6,0,8.3,3.7,8.3,8.3v0
	C197,82,193.2,85.7,188.7,85.7z"/>
<path class="st1" d="M211.3,85.7L211.3,85.7c-4.6,0-8.3-3.7-8.3-8.3v0c0-4.6,3.7-8.3,8.3-8.3h0c4.6,0,8.3,3.7,8.3,8.3v0
	C219.5,82,215.8,85.7,211.3,85.7z"/>
<path class="st1" d="M233.8,85.7L233.8,85.7c-4.6,0-8.3-3.7-8.3-8.3v0c0-4.6,3.7-8.3,8.3-8.3h0c4.6,0,8.3,3.7,8.3,8.3v0
	C242.1,82,238.4,85.7,233.8,85.7z"/>
<path class="st1" d="M256.4,85.7L256.4,85.7c-4.6,0-8.3-3.7-8.3-8.3v0c0-4.6,3.7-8.3,8.3-8.3h0c4.6,0,8.3,3.7,8.3,8.3v0
	C264.7,82,261,85.7,256.4,85.7z"/>
<path class="st1" d="M279,85.7L279,85.7c-4.6,0-8.3-3.7-8.3-8.3v0c0-4.6,3.7-8.3,8.3-8.3l0,0c4.6,0,8.3,3.7,8.3,8.3v0
	C287.2,82,283.5,85.7,279,85.7z"/>
<path class="st1" d="M301.5,85.7L301.5,85.7c-4.6,0-8.3-3.7-8.3-8.3v0c0-4.6,3.7-8.3,8.3-8.3l0,0c4.6,0,8.3,3.7,8.3,8.3v0
	C309.8,82,306.1,85.7,301.5,85.7z"/>
<path class="st1" d="M324.1,85.7L324.1,85.7c-4.6,0-8.3-3.7-8.3-8.3v0c0-4.6,3.7-8.3,8.3-8.3h0c4.6,0,8.3,3.7,8.3,8.3v0
	C332.4,82,328.7,85.7,324.1,85.7z"/>
<path class="st1" d="M346.7,85.7L346.7,85.7c-4.6,0-8.3-3.7-8.3-8.3v0c0-4.6,3.7-8.3,8.3-8.3h0c4.6,0,8.3,3.7,8.3,8.3v0
	C355,82,351.2,85.7,346.7,85.7z"/>
<path class="st1" d="M369.2,85.7L369.2,85.7c-4.6,0-8.3-3.7-8.3-8.3v0c0-4.6,3.7-8.3,8.3-8.3l0,0c4.6,0,8.3,3.7,8.3,8.3v0
	C377.5,82,373.8,85.7,369.2,85.7z"/>
<path class="st1" d="M391.8,85.7L391.8,85.7c-4.6,0-8.3-3.7-8.3-8.3v0c0-4.6,3.7-8.3,8.3-8.3l0,0c4.6,0,8.3,3.7,8.3,8.3v0
	C400.1,82,396.4,85.7,391.8,85.7z"/>
<path class="st1" d="M414.4,85.7L414.4,85.7c-4.6,0-8.3-3.7-8.3-8.3v0c0-4.6,3.7-8.3,8.3-8.3h0c4.6,0,8.3,3.7,8.3,8.3v0
	C422.7,82,418.9,85.7,414.4,85.7z"/>
<path class="st1" d="M437,85.7L437,85.7c-4.6,0-8.3-3.7-8.3-8.3v0c0-4.6,3.7-8.3,8.3-8.3h0c4.6,0,8.3,3.7,8.3,8.3v0
	C445.2,82,441.5,85.7,437,85.7z"/>
<path class="st1" d="M459.5,85.7L459.5,85.7c-4.6,0-8.3-3.7-8.3-8.3v0c0-4.6,3.7-8.3,8.3-8.3h0c4.6,0,8.3,3.7,8.3,8.3v0
	C467.8,82,464.1,85.7,459.5,85.7z"/>
<path class="st1" d="M482.1,85.7L482.1,85.7c-4.6,0-8.3-3.7-8.3-8.3v0c0-4.6,3.7-8.3,8.3-8.3l0,0c4.6,0,8.3,3.7,8.3,8.3v0
	C490.4,82,486.7,85.7,482.1,85.7z"/>
<path class="st1" d="M504.7,85.7L504.7,85.7c-4.6,0-8.3-3.7-8.3-8.3v0c0-4.6,3.7-8.3,8.3-8.3l0,0c4.6,0,8.3,3.7,8.3,8.3v0
	C513,82,509.2,85.7,504.7,85.7z"/>
<path class="st1" d="M166.1,153.4L166.1,153.4c-4.6,0-8.3-3.7-8.3-8.3v0c0-4.6,3.7-8.3,8.3-8.3h0c4.6,0,8.3,3.7,8.3,8.3v0
	C174.4,149.7,170.7,153.4,166.1,153.4z"/>
<path class="st1" d="M188.7,153.4L188.7,153.4c-4.6,0-8.3-3.7-8.3-8.3v0c0-4.6,3.7-8.3,8.3-8.3h0c4.6,0,8.3,3.7,8.3,8.3v0
	C197,149.7,193.3,153.4,188.7,153.4z"/>
<path class="st1" d="M211.3,153.4L211.3,153.4c-4.6,0-8.3-3.7-8.3-8.3v0c0-4.6,3.7-8.3,8.3-8.3h0c4.6,0,8.3,3.7,8.3,8.3v0
	C219.6,149.7,215.8,153.4,211.3,153.4z"/>
<path class="st1" d="M233.8,153.4L233.8,153.4c-4.6,0-8.3-3.7-8.3-8.3v0c0-4.6,3.7-8.3,8.3-8.3h0c4.6,0,8.3,3.7,8.3,8.3v0
	C242.1,149.7,238.4,153.4,233.8,153.4z"/>
<path class="st1" d="M256.4,153.4L256.4,153.4c-4.6,0-8.3-3.7-8.3-8.3v0c0-4.6,3.7-8.3,8.3-8.3l0,0c4.6,0,8.3,3.7,8.3,8.3v0
	C264.7,149.7,261,153.4,256.4,153.4z"/>
<path class="st1" d="M279,153.4L279,153.4c-4.6,0-8.3-3.7-8.3-8.3v0c0-4.6,3.7-8.3,8.3-8.3h0c4.6,0,8.3,3.7,8.3,8.3v0
	C287.3,149.7,283.5,153.4,279,153.4z"/>
<path class="st1" d="M301.6,153.4L301.6,153.4c-4.6,0-8.3-3.7-8.3-8.3v0c0-4.6,3.7-8.3,8.3-8.3h0c4.6,0,8.3,3.7,8.3,8.3v0
	C309.8,149.7,306.1,153.4,301.6,153.4z"/>
<path class="st1" d="M324.1,153.4L324.1,153.4c-4.6,0-8.3-3.7-8.3-8.3v0c0-4.6,3.7-8.3,8.3-8.3l0,0c4.6,0,8.3,3.7,8.3,8.3v0
	C332.4,149.7,328.7,153.4,324.1,153.4z"/>
<path class="st1" d="M346.7,153.4L346.7,153.4c-4.6,0-8.3-3.7-8.3-8.3v0c0-4.6,3.7-8.3,8.3-8.3l0,0c4.6,0,8.3,3.7,8.3,8.3v0
	C355,149.7,351.3,153.4,346.7,153.4z"/>
<path class="st1" d="M369.3,153.4L369.3,153.4c-4.6,0-8.3-3.7-8.3-8.3v0c0-4.6,3.7-8.3,8.3-8.3l0,0c4.6,0,8.3,3.7,8.3,8.3v0
	C377.6,149.7,373.8,153.4,369.3,153.4z"/>
<path class="st1" d="M391.8,153.4L391.8,153.4c-4.6,0-8.3-3.7-8.3-8.3v0c0-4.6,3.7-8.3,8.3-8.3h0c4.6,0,8.3,3.7,8.3,8.3v0
	C400.1,149.7,396.4,153.4,391.8,153.4z"/>
<path class="st1" d="M414.4,153.4L414.4,153.4c-4.6,0-8.3-3.7-8.3-8.3v0c0-4.6,3.7-8.3,8.3-8.3h0c4.6,0,8.3,3.7,8.3,8.3v0
	C422.7,149.7,419,153.4,414.4,153.4z"/>
<path class="st1" d="M437,153.4L437,153.4c-4.6,0-8.3-3.7-8.3-8.3v0c0-4.6,3.7-8.3,8.3-8.3l0,0c4.6,0,8.3,3.7,8.3,8.3v0
	C445.3,149.7,441.5,153.4,437,153.4z"/>
<path class="st1" d="M459.6,153.4L459.6,153.4c-4.6,0-8.3-3.7-8.3-8.3v0c0-4.6,3.7-8.3,8.3-8.3l0,0c4.6,0,8.3,3.7,8.3,8.3v0
	C467.8,149.7,464.1,153.4,459.6,153.4z"/>
<path class="st1" d="M482.1,153.4L482.1,153.4c-4.6,0-8.3-3.7-8.3-8.3v0c0-4.6,3.7-8.3,8.3-8.3h0c4.6,0,8.3,3.7,8.3,8.3v0
	C490.4,149.7,486.7,153.4,482.1,153.4z"/>
<path class="st1" d="M504.7,153.4L504.7,153.4c-4.6,0-8.3-3.7-8.3-8.3v0c0-4.6,3.7-8.3,8.3-8.3h0c4.6,0,8.3,3.7,8.3,8.3v0
	C513,149.7,509.2,153.4,504.7,153.4z"/>
<path class="st1" d="M211.3,334L211.3,334c-4.6,0-8.3-3.7-8.3-8.3l0,0c0-4.6,3.7-8.3,8.3-8.3h0c4.6,0,8.3,3.7,8.3,8.3l0,0
	C219.6,330.3,215.8,334,211.3,334z"/>
<path class="st1" d="M233.8,334L233.8,334c-4.6,0-8.3-3.7-8.3-8.3l0,0c0-4.6,3.7-8.3,8.3-8.3h0c4.6,0,8.3,3.7,8.3,8.3l0,0
	C242.1,330.3,238.4,334,233.8,334z"/>
<path class="st1" d="M256.4,334L256.4,334c-4.6,0-8.3-3.7-8.3-8.3l0,0c0-4.6,3.7-8.3,8.3-8.3l0,0c4.6,0,8.3,3.7,8.3,8.3l0,0
	C264.7,330.3,261,334,256.4,334z"/>
<path class="st1" d="M279,334L279,334c-4.6,0-8.3-3.7-8.3-8.3l0,0c0-4.6,3.7-8.3,8.3-8.3h0c4.6,0,8.3,3.7,8.3,8.3l0,0
	C287.3,330.3,283.5,334,279,334z"/>
<path class="st1" d="M301.6,334L301.6,334c-4.6,0-8.3-3.7-8.3-8.3l0,0c0-4.6,3.7-8.3,8.3-8.3h0c4.6,0,8.3,3.7,8.3,8.3l0,0
	C309.8,330.3,306.1,334,301.6,334z"/>
<path class="st1" d="M324.1,334L324.1,334c-4.6,0-8.3-3.7-8.3-8.3l0,0c0-4.6,3.7-8.3,8.3-8.3l0,0c4.6,0,8.3,3.7,8.3,8.3l0,0
	C332.4,330.3,328.7,334,324.1,334z"/>
<path class="st1" d="M346.7,334L346.7,334c-4.6,0-8.3-3.7-8.3-8.3l0,0c0-4.6,3.7-8.3,8.3-8.3l0,0c4.6,0,8.3,3.7,8.3,8.3l0,0
	C355,330.3,351.3,334,346.7,334z"/>
<path class="st1" d="M369.3,334L369.3,334c-4.6,0-8.3-3.7-8.3-8.3l0,0c0-4.6,3.7-8.3,8.3-8.3l0,0c4.6,0,8.3,3.7,8.3,8.3l0,0
	C377.6,330.3,373.8,334,369.3,334z"/>
<path class="st1" d="M391.8,334L391.8,334c-4.6,0-8.3-3.7-8.3-8.3l0,0c0-4.6,3.7-8.3,8.3-8.3h0c4.6,0,8.3,3.7,8.3,8.3l0,0
	C400.1,330.3,396.4,334,391.8,334z"/>
<path class="st1" d="M414.4,334L414.4,334c-4.6,0-8.3-3.7-8.3-8.3l0,0c0-4.6,3.7-8.3,8.3-8.3h0c4.6,0,8.3,3.7,8.3,8.3l0,0
	C422.7,330.3,419,334,414.4,334z"/>
<path class="st1" d="M437,334L437,334c-4.6,0-8.3-3.7-8.3-8.3l0,0c0-4.6,3.7-8.3,8.3-8.3l0,0c4.6,0,8.3,3.7,8.3,8.3l0,0
	C445.3,330.3,441.5,334,437,334z"/>
<path class="st1" d="M459.6,334L459.6,334c-4.6,0-8.3-3.7-8.3-8.3l0,0c0-4.6,3.7-8.3,8.3-8.3l0,0c4.6,0,8.3,3.7,8.3,8.3l0,0
	C467.8,330.3,464.1,334,459.6,334z"/>
<path class="st1" d="M233.8,356.6L233.8,356.6c-4.6,0-8.3-3.7-8.3-8.3v0c0-4.6,3.7-8.3,8.3-8.3h0c4.6,0,8.3,3.7,8.3,8.3v0
	C242.1,352.9,238.4,356.6,233.8,356.6z"/>
<path class="st1" d="M256.4,356.6L256.4,356.6c-4.6,0-8.3-3.7-8.3-8.3v0c0-4.6,3.7-8.3,8.3-8.3l0,0c4.6,0,8.3,3.7,8.3,8.3v0
	C264.7,352.9,261,356.6,256.4,356.6z"/>
<path class="st1" d="M279,356.6L279,356.6c-4.6,0-8.3-3.7-8.3-8.3v0c0-4.6,3.7-8.3,8.3-8.3h0c4.6,0,8.3,3.7,8.3,8.3v0
	C287.3,352.9,283.5,356.6,279,356.6z"/>
<path class="st1" d="M301.6,356.6L301.6,356.6c-4.6,0-8.3-3.7-8.3-8.3v0c0-4.6,3.7-8.3,8.3-8.3h0c4.6,0,8.3,3.7,8.3,8.3v0
	C309.8,352.9,306.1,356.6,301.6,356.6z"/>
<path class="st1" d="M324.1,356.6L324.1,356.6c-4.6,0-8.3-3.7-8.3-8.3v0c0-4.6,3.7-8.3,8.3-8.3l0,0c4.6,0,8.3,3.7,8.3,8.3v0
	C332.4,352.9,328.7,356.6,324.1,356.6z"/>
<path class="st1" d="M346.7,356.6L346.7,356.6c-4.6,0-8.3-3.7-8.3-8.3v0c0-4.6,3.7-8.3,8.3-8.3l0,0c4.6,0,8.3,3.7,8.3,8.3v0
	C355,352.9,351.3,356.6,346.7,356.6z"/>
<path class="st1" d="M369.3,356.6L369.3,356.6c-4.6,0-8.3-3.7-8.3-8.3v0c0-4.6,3.7-8.3,8.3-8.3l0,0c4.6,0,8.3,3.7,8.3,8.3v0
	C377.6,352.9,373.8,356.6,369.3,356.6z"/>
<path class="st1" d="M391.8,356.6L391.8,356.6c-4.6,0-8.3-3.7-8.3-8.3v0c0-4.6,3.7-8.3,8.3-8.3h0c4.6,0,8.3,3.7,8.3,8.3v0
	C400.1,352.9,396.4,356.6,391.8,356.6z"/>
<path class="st1" d="M414.4,356.6L414.4,356.6c-4.6,0-8.3-3.7-8.3-8.3v0c0-4.6,3.7-8.3,8.3-8.3h0c4.6,0,8.3,3.7,8.3,8.3v0
	C422.7,352.9,419,356.6,414.4,356.6z"/>
<path class="st1" d="M437,356.6L437,356.6c-4.6,0-8.3-3.7-8.3-8.3v0c0-4.6,3.7-8.3,8.3-8.3l0,0c4.6,0,8.3,3.7,8.3,8.3v0
	C445.3,352.9,441.5,356.6,437,356.6z"/>
<path class="st1" d="M459.6,356.6L459.6,356.6c-4.6,0-8.3-3.7-8.3-8.3v0c0-4.6,3.7-8.3,8.3-8.3l0,0c4.6,0,8.3,3.7,8.3,8.3v0
	C467.8,352.9,464.1,356.6,459.6,356.6z"/>
<path class="st1" d="M233.8,379.2L233.8,379.2c-4.6,0-8.3-3.7-8.3-8.3l0,0c0-4.6,3.7-8.3,8.3-8.3h0c4.6,0,8.3,3.7,8.3,8.3l0,0
	C242.1,375.5,238.4,379.2,233.8,379.2z"/>
<path class="st1" d="M256.4,379.2L256.4,379.2c-4.6,0-8.3-3.7-8.3-8.3l0,0c0-4.6,3.7-8.3,8.3-8.3l0,0c4.6,0,8.3,3.7,8.3,8.3l0,0
	C264.7,375.5,261,379.2,256.4,379.2z"/>
<path class="st1" d="M279,379.2L279,379.2c-4.6,0-8.3-3.7-8.3-8.3l0,0c0-4.6,3.7-8.3,8.3-8.3h0c4.6,0,8.3,3.7,8.3,8.3l0,0
	C287.3,375.5,283.5,379.2,279,379.2z"/>
<path class="st1" d="M301.6,379.2L301.6,379.2c-4.6,0-8.3-3.7-8.3-8.3l0,0c0-4.6,3.7-8.3,8.3-8.3h0c4.6,0,8.3,3.7,8.3,8.3l0,0
	C309.8,375.5,306.1,379.2,301.6,379.2z"/>
<path class="st1" d="M324.1,379.2L324.1,379.2c-4.6,0-8.3-3.7-8.3-8.3l0,0c0-4.6,3.7-8.3,8.3-8.3l0,0c4.6,0,8.3,3.7,8.3,8.3l0,0
	C332.4,375.5,328.7,379.2,324.1,379.2z"/>
<path class="st1" d="M346.7,379.2L346.7,379.2c-4.6,0-8.3-3.7-8.3-8.3l0,0c0-4.6,3.7-8.3,8.3-8.3l0,0c4.6,0,8.3,3.7,8.3,8.3l0,0
	C355,375.5,351.3,379.2,346.7,379.2z"/>
<path class="st1" d="M369.3,379.2L369.3,379.2c-4.6,0-8.3-3.7-8.3-8.3l0,0c0-4.6,3.7-8.3,8.3-8.3l0,0c4.6,0,8.3,3.7,8.3,8.3l0,0
	C377.6,375.5,373.8,379.2,369.3,379.2z"/>
<path class="st1" d="M391.8,379.2L391.8,379.2c-4.6,0-8.3-3.7-8.3-8.3l0,0c0-4.6,3.7-8.3,8.3-8.3h0c4.6,0,8.3,3.7,8.3,8.3l0,0
	C400.1,375.5,396.4,379.2,391.8,379.2z"/>
<path class="st1" d="M414.4,379.2L414.4,379.2c-4.6,0-8.3-3.7-8.3-8.3l0,0c0-4.6,3.7-8.3,8.3-8.3h0c4.6,0,8.3,3.7,8.3,8.3l0,0
	C422.7,375.5,419,379.2,414.4,379.2z"/>
<path class="st1" d="M437,379.2L437,379.2c-4.6,0-8.3-3.7-8.3-8.3l0,0c0-4.6,3.7-8.3,8.3-8.3l0,0c4.6,0,8.3,3.7,8.3,8.3l0,0
	C445.3,375.5,441.5,379.2,437,379.2z"/>
<path class="st1" d="M459.6,379.2L459.6,379.2c-4.6,0-8.3-3.7-8.3-8.3l0,0c0-4.6,3.7-8.3,8.3-8.3l0,0c4.6,0,8.3,3.7,8.3,8.3l0,0
	C467.8,375.5,464.1,379.2,459.6,379.2z"/>
<path class="st1" d="M256.4,401.8L256.4,401.8c-4.6,0-8.3-3.7-8.3-8.3v0c0-4.6,3.7-8.3,8.3-8.3l0,0c4.6,0,8.3,3.7,8.3,8.3v0
	C264.7,398,261,401.8,256.4,401.8z"/>
<path class="st1" d="M234.2,401.8L234.2,401.8c-4.6,0-8.3-3.7-8.3-8.3v0c0-4.6,3.7-8.3,8.3-8.3h0c4.6,0,8.3,3.7,8.3,8.3v0
	C242.5,398,238.7,401.8,234.2,401.8z"/>
<path class="st1" d="M279,401.8L279,401.8c-4.6,0-8.3-3.7-8.3-8.3v0c0-4.6,3.7-8.3,8.3-8.3h0c4.6,0,8.3,3.7,8.3,8.3v0
	C287.3,398,283.5,401.8,279,401.8z"/>
<path class="st1" d="M301.6,401.8L301.6,401.8c-4.6,0-8.3-3.7-8.3-8.3v0c0-4.6,3.7-8.3,8.3-8.3h0c4.6,0,8.3,3.7,8.3,8.3v0
	C309.8,398,306.1,401.8,301.6,401.8z"/>
<path class="st1" d="M324.1,401.8L324.1,401.8c-4.6,0-8.3-3.7-8.3-8.3v0c0-4.6,3.7-8.3,8.3-8.3l0,0c4.6,0,8.3,3.7,8.3,8.3v0
	C332.4,398,328.7,401.8,324.1,401.8z"/>
<path class="st1" d="M346.7,401.8L346.7,401.8c-4.6,0-8.3-3.7-8.3-8.3v0c0-4.6,3.7-8.3,8.3-8.3l0,0c4.6,0,8.3,3.7,8.3,8.3v0
	C355,398,351.3,401.8,346.7,401.8z"/>
<path class="st1" d="M369.3,401.8L369.3,401.8c-4.6,0-8.3-3.7-8.3-8.3v0c0-4.6,3.7-8.3,8.3-8.3l0,0c4.6,0,8.3,3.7,8.3,8.3v0
	C377.6,398,373.8,401.8,369.3,401.8z"/>
<path class="st1" d="M391.8,401.8L391.8,401.8c-4.6,0-8.3-3.7-8.3-8.3v0c0-4.6,3.7-8.3,8.3-8.3h0c4.6,0,8.3,3.7,8.3,8.3v0
	C400.1,398,396.4,401.8,391.8,401.8z"/>
<path class="st1" d="M414.4,401.8L414.4,401.8c-4.6,0-8.3-3.7-8.3-8.3v0c0-4.6,3.7-8.3,8.3-8.3h0c4.6,0,8.3,3.7,8.3,8.3v0
	C422.7,398,419,401.8,414.4,401.8z"/>
<path class="st1" d="M437,401.8L437,401.8c-4.6,0-8.3-3.7-8.3-8.3v0c0-4.6,3.7-8.3,8.3-8.3l0,0c4.6,0,8.3,3.7,8.3,8.3v0
	C445.3,398,441.5,401.8,437,401.8z"/>
<path class="st1" d="M459.6,401.8L459.6,401.8c-4.6,0-8.3-3.7-8.3-8.3v0c0-4.6,3.7-8.3,8.3-8.3l0,0c4.6,0,8.3,3.7,8.3,8.3v0
	C467.8,398,464.1,401.8,459.6,401.8z"/>
<path class="st1" d="M256.4,424.4L256.4,424.4c-4.6,0-8.3-3.7-8.3-8.3l0,0c0-4.6,3.7-8.3,8.3-8.3l0,0c4.6,0,8.3,3.7,8.3,8.3l0,0
	C264.7,420.7,261,424.4,256.4,424.4z"/>
<path class="st1" d="M279,424.4L279,424.4c-4.6,0-8.3-3.7-8.3-8.3l0,0c0-4.6,3.7-8.3,8.3-8.3h0c4.6,0,8.3,3.7,8.3,8.3l0,0
	C287.3,420.7,283.5,424.4,279,424.4z"/>
<path class="st1" d="M301.6,424.4L301.6,424.4c-4.6,0-8.3-3.7-8.3-8.3l0,0c0-4.6,3.7-8.3,8.3-8.3h0c4.6,0,8.3,3.7,8.3,8.3l0,0
	C309.8,420.7,306.1,424.4,301.6,424.4z"/>
<path class="st1" d="M324.1,424.4L324.1,424.4c-4.6,0-8.3-3.7-8.3-8.3l0,0c0-4.6,3.7-8.3,8.3-8.3l0,0c4.6,0,8.3,3.7,8.3,8.3l0,0
	C332.4,420.7,328.7,424.4,324.1,424.4z"/>
<path class="st1" d="M346.7,424.4L346.7,424.4c-4.6,0-8.3-3.7-8.3-8.3l0,0c0-4.6,3.7-8.3,8.3-8.3l0,0c4.6,0,8.3,3.7,8.3,8.3l0,0
	C355,420.7,351.3,424.4,346.7,424.4z"/>
<path class="st1" d="M369.3,424.4L369.3,424.4c-4.6,0-8.3-3.7-8.3-8.3l0,0c0-4.6,3.7-8.3,8.3-8.3l0,0c4.6,0,8.3,3.7,8.3,8.3l0,0
	C377.6,420.7,373.8,424.4,369.3,424.4z"/>
<path class="st1" d="M391.8,424.4L391.8,424.4c-4.6,0-8.3-3.7-8.3-8.3l0,0c0-4.6,3.7-8.3,8.3-8.3h0c4.6,0,8.3,3.7,8.3,8.3l0,0
	C400.1,420.7,396.4,424.4,391.8,424.4z"/>
<path class="st1" d="M414.4,424.4L414.4,424.4c-4.6,0-8.3-3.7-8.3-8.3l0,0c0-4.6,3.7-8.3,8.3-8.3h0c4.6,0,8.3,3.7,8.3,8.3l0,0
	C422.7,420.7,419,424.4,414.4,424.4z"/>
<path class="st1" d="M437,424.4L437,424.4c-4.6,0-8.3-3.7-8.3-8.3l0,0c0-4.6,3.7-8.3,8.3-8.3l0,0c4.6,0,8.3,3.7,8.3,8.3l0,0
	C445.3,420.7,441.5,424.4,437,424.4z"/>
<path class="st1" d="M459.6,424.4L459.6,424.4c-4.6,0-8.3-3.7-8.3-8.3l0,0c0-4.6,3.7-8.3,8.3-8.3l0,0c4.6,0,8.3,3.7,8.3,8.3l0,0
	C467.8,420.7,464.1,424.4,459.6,424.4z"/>
<path class="st1" d="M256.4,447L256.4,447c-4.6,0-8.3-3.7-8.3-8.3l0,0c0-4.6,3.7-8.3,8.3-8.3l0,0c4.6,0,8.3,3.7,8.3,8.3l0,0
	C264.7,443.2,261,447,256.4,447z"/>
<path class="st1" d="M279,447L279,447c-4.6,0-8.3-3.7-8.3-8.3l0,0c0-4.6,3.7-8.3,8.3-8.3h0c4.6,0,8.3,3.7,8.3,8.3l0,0
	C287.3,443.2,283.5,447,279,447z"/>
<path class="st1" d="M301.6,447L301.6,447c-4.6,0-8.3-3.7-8.3-8.3l0,0c0-4.6,3.7-8.3,8.3-8.3h0c4.6,0,8.3,3.7,8.3,8.3l0,0
	C309.8,443.2,306.1,447,301.6,447z"/>
<path class="st1" d="M324.1,447L324.1,447c-4.6,0-8.3-3.7-8.3-8.3l0,0c0-4.6,3.7-8.3,8.3-8.3l0,0c4.6,0,8.3,3.7,8.3,8.3l0,0
	C332.4,443.2,328.7,447,324.1,447z"/>
<path class="st1" d="M346.7,447L346.7,447c-4.6,0-8.3-3.7-8.3-8.3l0,0c0-4.6,3.7-8.3,8.3-8.3l0,0c4.6,0,8.3,3.7,8.3,8.3l0,0
	C355,443.2,351.3,447,346.7,447z"/>
<path class="st1" d="M369.3,447L369.3,447c-4.6,0-8.3-3.7-8.3-8.3l0,0c0-4.6,3.7-8.3,8.3-8.3l0,0c4.6,0,8.3,3.7,8.3,8.3l0,0
	C377.6,443.2,373.8,447,369.3,447z"/>
<path class="st1" d="M391.8,447L391.8,447c-4.6,0-8.3-3.7-8.3-8.3l0,0c0-4.6,3.7-8.3,8.3-8.3h0c4.6,0,8.3,3.7,8.3,8.3l0,0
	C400.1,443.2,396.4,447,391.8,447z"/>
<path class="st1" d="M414.4,447L414.4,447c-4.6,0-8.3-3.7-8.3-8.3l0,0c0-4.6,3.7-8.3,8.3-8.3h0c4.6,0,8.3,3.7,8.3,8.3l0,0
	C422.7,443.2,419,447,414.4,447z"/>
<path class="st1" d="M437,447L437,447c-4.6,0-8.3-3.7-8.3-8.3l0,0c0-4.6,3.7-8.3,8.3-8.3l0,0c4.6,0,8.3,3.7,8.3,8.3l0,0
	C445.3,443.2,441.5,447,437,447z"/>
<path class="st1" d="M459.6,447L459.6,447c-4.6,0-8.3-3.7-8.3-8.3l0,0c0-4.6,3.7-8.3,8.3-8.3l0,0c4.6,0,8.3,3.7,8.3,8.3l0,0
	C467.8,443.2,464.1,447,459.6,447z"/>
<path class="st1" d="M482.1,447L482.1,447c-4.6,0-8.3-3.7-8.3-8.3l0,0c0-4.6,3.7-8.3,8.3-8.3h0c4.6,0,8.3,3.7,8.3,8.3l0,0
	C490.4,443.2,486.7,447,482.1,447z"/>
<path class="st1" d="M504.7,447L504.7,447c-4.6,0-8.3-3.7-8.3-8.3l0,0c0-4.6,3.7-8.3,8.3-8.3h0c4.6,0,8.3,3.7,8.3,8.3l0,0
	C513,443.2,509.2,447,504.7,447z"/>
<path class="st1" d="M166.1,130.9L166.1,130.9c-4.6,0-8.3-3.7-8.3-8.3v0c0-4.6,3.7-8.3,8.3-8.3h0c4.6,0,8.3,3.7,8.3,8.3v0
	C174.4,127.1,170.7,130.9,166.1,130.9z"/>
<path class="st1" d="M188.7,130.9L188.7,130.9c-4.6,0-8.3-3.7-8.3-8.3v0c0-4.6,3.7-8.3,8.3-8.3h0c4.6,0,8.3,3.7,8.3,8.3v0
	C197,127.1,193.3,130.9,188.7,130.9z"/>
<path class="st1" d="M211.3,130.9L211.3,130.9c-4.6,0-8.3-3.7-8.3-8.3v0c0-4.6,3.7-8.3,8.3-8.3h0c4.6,0,8.3,3.7,8.3,8.3v0
	C219.6,127.1,215.8,130.9,211.3,130.9z"/>
<path class="st1" d="M233.8,130.9L233.8,130.9c-4.6,0-8.3-3.7-8.3-8.3v0c0-4.6,3.7-8.3,8.3-8.3h0c4.6,0,8.3,3.7,8.3,8.3v0
	C242.1,127.1,238.4,130.9,233.8,130.9z"/>
<path class="st1" d="M256.4,130.9L256.4,130.9c-4.6,0-8.3-3.7-8.3-8.3v0c0-4.6,3.7-8.3,8.3-8.3l0,0c4.6,0,8.3,3.7,8.3,8.3v0
	C264.7,127.1,261,130.9,256.4,130.9z"/>
<path class="st1" d="M279,130.9L279,130.9c-4.6,0-8.3-3.7-8.3-8.3v0c0-4.6,3.7-8.3,8.3-8.3h0c4.6,0,8.3,3.7,8.3,8.3v0
	C287.3,127.1,283.5,130.9,279,130.9z"/>
<path class="st1" d="M301.6,130.9L301.6,130.9c-4.6,0-8.3-3.7-8.3-8.3v0c0-4.6,3.7-8.3,8.3-8.3h0c4.6,0,8.3,3.7,8.3,8.3v0
	C309.8,127.1,306.1,130.9,301.6,130.9z"/>
<path class="st1" d="M324.1,130.9L324.1,130.9c-4.6,0-8.3-3.7-8.3-8.3v0c0-4.6,3.7-8.3,8.3-8.3l0,0c4.6,0,8.3,3.7,8.3,8.3v0
	C332.4,127.1,328.7,130.9,324.1,130.9z"/>
<path class="st1" d="M346.7,130.9L346.7,130.9c-4.6,0-8.3-3.7-8.3-8.3v0c0-4.6,3.7-8.3,8.3-8.3l0,0c4.6,0,8.3,3.7,8.3,8.3v0
	C355,127.1,351.3,130.9,346.7,130.9z"/>
<path class="st1" d="M369.3,130.9L369.3,130.9c-4.6,0-8.3-3.7-8.3-8.3v0c0-4.6,3.7-8.3,8.3-8.3l0,0c4.6,0,8.3,3.7,8.3,8.3v0
	C377.6,127.1,373.8,130.9,369.3,130.9z"/>
<path class="st1" d="M391.8,130.9L391.8,130.9c-4.6,0-8.3-3.7-8.3-8.3v0c0-4.6,3.7-8.3,8.3-8.3h0c4.6,0,8.3,3.7,8.3,8.3v0
	C400.1,127.1,396.4,130.9,391.8,130.9z"/>
<path class="st1" d="M414.4,130.9L414.4,130.9c-4.6,0-8.3-3.7-8.3-8.3v0c0-4.6,3.7-8.3,8.3-8.3h0c4.6,0,8.3,3.7,8.3,8.3v0
	C422.7,127.1,419,130.9,414.4,130.9z"/>
<path class="st1" d="M437,130.9L437,130.9c-4.6,0-8.3-3.7-8.3-8.3v0c0-4.6,3.7-8.3,8.3-8.3l0,0c4.6,0,8.3,3.7,8.3,8.3v0
	C445.3,127.1,441.5,130.9,437,130.9z"/>
<path class="st1" d="M459.6,130.9L459.6,130.9c-4.6,0-8.3-3.7-8.3-8.3v0c0-4.6,3.7-8.3,8.3-8.3l0,0c4.6,0,8.3,3.7,8.3,8.3v0
	C467.8,127.1,464.1,130.9,459.6,130.9z"/>
<path class="st1" d="M482.1,130.9L482.1,130.9c-4.6,0-8.3-3.7-8.3-8.3v0c0-4.6,3.7-8.3,8.3-8.3h0c4.6,0,8.3,3.7,8.3,8.3v0
	C490.4,127.1,486.7,130.9,482.1,130.9z"/>
<path class="st1" d="M504.7,130.9L504.7,130.9c-4.6,0-8.3-3.7-8.3-8.3v0c0-4.6,3.7-8.3,8.3-8.3h0c4.6,0,8.3,3.7,8.3,8.3v0
	C513,127.1,509.2,130.9,504.7,130.9z"/>
<path class="st1" d="M166.2,176L166.2,176c-4.6,0-8.3-3.7-8.3-8.3v0c0-4.6,3.7-8.3,8.3-8.3h0c4.6,0,8.3,3.7,8.3,8.3v0
	C174.4,172.3,170.7,176,166.2,176z"/>
<path class="st1" d="M188.7,176L188.7,176c-4.6,0-8.3-3.7-8.3-8.3v0c0-4.6,3.7-8.3,8.3-8.3h0c4.6,0,8.3,3.7,8.3,8.3v0
	C197,172.3,193.3,176,188.7,176z"/>
<path class="st1" d="M211.3,176L211.3,176c-4.6,0-8.3-3.7-8.3-8.3v0c0-4.6,3.7-8.3,8.3-8.3h0c4.6,0,8.3,3.7,8.3,8.3v0
	C219.6,172.3,215.9,176,211.3,176z"/>
<path class="st1" d="M233.9,176L233.9,176c-4.6,0-8.3-3.7-8.3-8.3v0c0-4.6,3.7-8.3,8.3-8.3h0c4.6,0,8.3,3.7,8.3,8.3v0
	C242.2,172.3,238.4,176,233.9,176z"/>
<path class="st1" d="M256.4,176L256.4,176c-4.6,0-8.3-3.7-8.3-8.3v0c0-4.6,3.7-8.3,8.3-8.3l0,0c4.6,0,8.3,3.7,8.3,8.3v0
	C264.7,172.3,261,176,256.4,176z"/>
<path class="st1" d="M279,176L279,176c-4.6,0-8.3-3.7-8.3-8.3v0c0-4.6,3.7-8.3,8.3-8.3h0c4.6,0,8.3,3.7,8.3,8.3v0
	C287.3,172.3,283.6,176,279,176z"/>
<path class="st1" d="M301.6,176L301.6,176c-4.6,0-8.3-3.7-8.3-8.3v0c0-4.6,3.7-8.3,8.3-8.3h0c4.6,0,8.3,3.7,8.3,8.3v0
	C309.9,172.3,306.1,176,301.6,176z"/>
<path class="st1" d="M324.2,176L324.2,176c-4.6,0-8.3-3.7-8.3-8.3v0c0-4.6,3.7-8.3,8.3-8.3l0,0c4.6,0,8.3,3.7,8.3,8.3v0
	C332.4,172.3,328.7,176,324.2,176z"/>
<path class="st1" d="M346.7,176L346.7,176c-4.6,0-8.3-3.7-8.3-8.3v0c0-4.6,3.7-8.3,8.3-8.3l0,0c4.6,0,8.3,3.7,8.3,8.3v0
	C355,172.3,351.3,176,346.7,176z"/>
<path class="st1" d="M369.3,176L369.3,176c-4.6,0-8.3-3.7-8.3-8.3v0c0-4.6,3.7-8.3,8.3-8.3h0c4.6,0,8.3,3.7,8.3,8.3v0
	C377.6,172.3,373.8,176,369.3,176z"/>
<path class="st1" d="M391.9,176L391.9,176c-4.6,0-8.3-3.7-8.3-8.3v0c0-4.6,3.7-8.3,8.3-8.3h0c4.6,0,8.3,3.7,8.3,8.3v0
	C400.1,172.3,396.4,176,391.9,176z"/>
<path class="st1" d="M414.4,176L414.4,176c-4.6,0-8.3-3.7-8.3-8.3v0c0-4.6,3.7-8.3,8.3-8.3h0c4.6,0,8.3,3.7,8.3,8.3v0
	C422.7,172.3,419,176,414.4,176z"/>
<path class="st1" d="M166.1,221.1L166.1,221.1c-4.6,0-8.3-3.7-8.3-8.3v0c0-4.6,3.7-8.3,8.3-8.3h0c4.6,0,8.3,3.7,8.3,8.3v0
	C174.4,217.4,170.7,221.1,166.1,221.1z"/>
<path class="st1" d="M188.7,221.1L188.7,221.1c-4.6,0-8.3-3.7-8.3-8.3v0c0-4.6,3.7-8.3,8.3-8.3h0c4.6,0,8.3,3.7,8.3,8.3v0
	C197,217.4,193.3,221.1,188.7,221.1z"/>
<path class="st1" d="M211.3,221.1L211.3,221.1c-4.6,0-8.3-3.7-8.3-8.3v0c0-4.6,3.7-8.3,8.3-8.3h0c4.6,0,8.3,3.7,8.3,8.3v0
	C219.6,217.4,215.8,221.1,211.3,221.1z"/>
<path class="st1" d="M233.8,221.1L233.8,221.1c-4.6,0-8.3-3.7-8.3-8.3v0c0-4.6,3.7-8.3,8.3-8.3h0c4.6,0,8.3,3.7,8.3,8.3v0
	C242.1,217.4,238.4,221.1,233.8,221.1z"/>
<path class="st1" d="M256.4,221.1L256.4,221.1c-4.6,0-8.3-3.7-8.3-8.3v0c0-4.6,3.7-8.3,8.3-8.3l0,0c4.6,0,8.3,3.7,8.3,8.3v0
	C264.7,217.4,261,221.1,256.4,221.1z"/>
<path class="st1" d="M279,221.1L279,221.1c-4.6,0-8.3-3.7-8.3-8.3v0c0-4.6,3.7-8.3,8.3-8.3l0,0c4.6,0,8.3,3.7,8.3,8.3v0
	C287.3,217.4,283.5,221.1,279,221.1z"/>
<path class="st1" d="M301.6,221.1L301.6,221.1c-4.6,0-8.3-3.7-8.3-8.3v0c0-4.6,3.7-8.3,8.3-8.3l0,0c4.6,0,8.3,3.7,8.3,8.3v0
	C309.8,217.4,306.1,221.1,301.6,221.1z"/>
<path class="st1" d="M324.1,221.1L324.1,221.1c-4.6,0-8.3-3.7-8.3-8.3v0c0-4.6,3.7-8.3,8.3-8.3h0c4.6,0,8.3,3.7,8.3,8.3v0
	C332.4,217.4,328.7,221.1,324.1,221.1z"/>
<path class="st1" d="M346.7,221.1L346.7,221.1c-4.6,0-8.3-3.7-8.3-8.3v0c0-4.6,3.7-8.3,8.3-8.3h0c4.6,0,8.3,3.7,8.3,8.3v0
	C355,217.4,351.3,221.1,346.7,221.1z"/>
<path class="st1" d="M369.3,221.1L369.3,221.1c-4.6,0-8.3-3.7-8.3-8.3v0c0-4.6,3.7-8.3,8.3-8.3l0,0c4.6,0,8.3,3.7,8.3,8.3v0
	C377.5,217.4,373.8,221.1,369.3,221.1z"/>
<path class="st1" d="M391.8,221.1L391.8,221.1c-4.6,0-8.3-3.7-8.3-8.3v0c0-4.6,3.7-8.3,8.3-8.3l0,0c4.6,0,8.3,3.7,8.3,8.3v0
	C400.1,217.4,396.4,221.1,391.8,221.1z"/>
<path class="st1" d="M414.4,221.1L414.4,221.1c-4.6,0-8.3-3.7-8.3-8.3v0c0-4.6,3.7-8.3,8.3-8.3h0c4.6,0,8.3,3.7,8.3,8.3v0
	C422.7,217.4,419,221.1,414.4,221.1z"/>
<path class="st1" d="M166.1,198.6L166.1,198.6c-4.6,0-8.3-3.7-8.3-8.3v0c0-4.6,3.7-8.3,8.3-8.3h0c4.6,0,8.3,3.7,8.3,8.3v0
	C174.4,194.8,170.7,198.6,166.1,198.6z"/>
<path class="st1" d="M188.7,198.6L188.7,198.6c-4.6,0-8.3-3.7-8.3-8.3v0c0-4.6,3.7-8.3,8.3-8.3h0c4.6,0,8.3,3.7,8.3,8.3v0
	C197,194.8,193.3,198.6,188.7,198.6z"/>
<path class="st1" d="M211.3,198.6L211.3,198.6c-4.6,0-8.3-3.7-8.3-8.3v0c0-4.6,3.7-8.3,8.3-8.3h0c4.6,0,8.3,3.7,8.3,8.3v0
	C219.6,194.8,215.8,198.6,211.3,198.6z"/>
<path class="st1" d="M233.8,198.6L233.8,198.6c-4.6,0-8.3-3.7-8.3-8.3v0c0-4.6,3.7-8.3,8.3-8.3h0c4.6,0,8.3,3.7,8.3,8.3v0
	C242.1,194.8,238.4,198.6,233.8,198.6z"/>
<path class="st1" d="M256.4,198.6L256.4,198.6c-4.6,0-8.3-3.7-8.3-8.3v0c0-4.6,3.7-8.3,8.3-8.3l0,0c4.6,0,8.3,3.7,8.3,8.3v0
	C264.7,194.8,261,198.6,256.4,198.6z"/>
<path class="st1" d="M279,198.6L279,198.6c-4.6,0-8.3-3.7-8.3-8.3v0c0-4.6,3.7-8.3,8.3-8.3l0,0c4.6,0,8.3,3.7,8.3,8.3v0
	C287.3,194.8,283.5,198.6,279,198.6z"/>
<path class="st1" d="M301.6,198.6L301.6,198.6c-4.6,0-8.3-3.7-8.3-8.3v0c0-4.6,3.7-8.3,8.3-8.3l0,0c4.6,0,8.3,3.7,8.3,8.3v0
	C309.8,194.8,306.1,198.6,301.6,198.6z"/>
<path class="st1" d="M324.1,198.6L324.1,198.6c-4.6,0-8.3-3.7-8.3-8.3v0c0-4.6,3.7-8.3,8.3-8.3h0c4.6,0,8.3,3.7,8.3,8.3v0
	C332.4,194.8,328.7,198.6,324.1,198.6z"/>
<path class="st1" d="M346.7,198.6L346.7,198.6c-4.6,0-8.3-3.7-8.3-8.3v0c0-4.6,3.7-8.3,8.3-8.3h0c4.6,0,8.3,3.7,8.3,8.3v0
	C355,194.8,351.3,198.6,346.7,198.6z"/>
<path class="st1" d="M369.3,198.6L369.3,198.6c-4.6,0-8.3-3.7-8.3-8.3v0c0-4.6,3.7-8.3,8.3-8.3l0,0c4.6,0,8.3,3.7,8.3,8.3v0
	C377.5,194.8,373.8,198.6,369.3,198.6z"/>
<path class="st1" d="M391.8,198.6L391.8,198.6c-4.6,0-8.3-3.7-8.3-8.3v0c0-4.6,3.7-8.3,8.3-8.3l0,0c4.6,0,8.3,3.7,8.3,8.3v0
	C400.1,194.8,396.4,198.6,391.8,198.6z"/>
<path class="st1" d="M414.4,198.6L414.4,198.6c-4.6,0-8.3-3.7-8.3-8.3v0c0-4.6,3.7-8.3,8.3-8.3h0c4.6,0,8.3,3.7,8.3,8.3v0
	C422.7,194.8,419,198.6,414.4,198.6z"/>
<path class="st1" d="M166.2,243.7L166.2,243.7c-4.6,0-8.3-3.7-8.3-8.3v0c0-4.6,3.7-8.3,8.3-8.3h0c4.6,0,8.3,3.7,8.3,8.3v0
	C174.4,240,170.7,243.7,166.2,243.7z"/>
<path class="st1" d="M188.7,243.7L188.7,243.7c-4.6,0-8.3-3.7-8.3-8.3v0c0-4.6,3.7-8.3,8.3-8.3h0c4.6,0,8.3,3.7,8.3,8.3v0
	C197,240,193.3,243.7,188.7,243.7z"/>
<path class="st1" d="M211.3,243.7L211.3,243.7c-4.6,0-8.3-3.7-8.3-8.3v0c0-4.6,3.7-8.3,8.3-8.3h0c4.6,0,8.3,3.7,8.3,8.3v0
	C219.6,240,215.9,243.7,211.3,243.7z"/>
<path class="st1" d="M233.9,243.7L233.9,243.7c-4.6,0-8.3-3.7-8.3-8.3v0c0-4.6,3.7-8.3,8.3-8.3h0c4.6,0,8.3,3.7,8.3,8.3v0
	C242.2,240,238.4,243.7,233.9,243.7z"/>
<path class="st1" d="M256.4,243.7L256.4,243.7c-4.6,0-8.3-3.7-8.3-8.3v0c0-4.6,3.7-8.3,8.3-8.3l0,0c4.6,0,8.3,3.7,8.3,8.3v0
	C264.7,240,261,243.7,256.4,243.7z"/>
<path class="st1" d="M279,243.7L279,243.7c-4.6,0-8.3-3.7-8.3-8.3v0c0-4.6,3.7-8.3,8.3-8.3h0c4.6,0,8.3,3.7,8.3,8.3v0
	C287.3,240,283.6,243.7,279,243.7z"/>
<path class="st1" d="M301.6,243.7L301.6,243.7c-4.6,0-8.3-3.7-8.3-8.3v0c0-4.6,3.7-8.3,8.3-8.3h0c4.6,0,8.3,3.7,8.3,8.3v0
	C309.9,240,306.1,243.7,301.6,243.7z"/>
<path class="st1" d="M324.2,243.7L324.2,243.7c-4.6,0-8.3-3.7-8.3-8.3v0c0-4.6,3.7-8.3,8.3-8.3l0,0c4.6,0,8.3,3.7,8.3,8.3v0
	C332.4,240,328.7,243.7,324.2,243.7z"/>
<path class="st1" d="M346.7,243.7L346.7,243.7c-4.6,0-8.3-3.7-8.3-8.3v0c0-4.6,3.7-8.3,8.3-8.3l0,0c4.6,0,8.3,3.7,8.3,8.3v0
	C355,240,351.3,243.7,346.7,243.7z"/>
<path class="st1" d="M369.3,243.7L369.3,243.7c-4.6,0-8.3-3.7-8.3-8.3v0c0-4.6,3.7-8.3,8.3-8.3h0c4.6,0,8.3,3.7,8.3,8.3v0
	C377.6,240,373.8,243.7,369.3,243.7z"/>
<path class="st1" d="M391.9,243.7L391.9,243.7c-4.6,0-8.3-3.7-8.3-8.3v0c0-4.6,3.7-8.3,8.3-8.3h0c4.6,0,8.3,3.7,8.3,8.3v0
	C400.1,240,396.4,243.7,391.9,243.7z"/>
<path class="st1" d="M414.4,243.7L414.4,243.7c-4.6,0-8.3-3.7-8.3-8.3v0c0-4.6,3.7-8.3,8.3-8.3h0c4.6,0,8.3,3.7,8.3,8.3v0
	C422.7,240,419,243.7,414.4,243.7z"/>
<path class="st1" d="M188.7,288.8L188.7,288.8c-4.6,0-8.3-3.7-8.3-8.3v0c0-4.6,3.7-8.3,8.3-8.3h0c4.6,0,8.3,3.7,8.3,8.3v0
	C197,285.1,193.3,288.8,188.7,288.8z"/>
<path class="st1" d="M211.3,288.8L211.3,288.8c-4.6,0-8.3-3.7-8.3-8.3v0c0-4.6,3.7-8.3,8.3-8.3h0c4.6,0,8.3,3.7,8.3,8.3v0
	C219.6,285.1,215.8,288.8,211.3,288.8z"/>
<path class="st1" d="M233.8,288.8L233.8,288.8c-4.6,0-8.3-3.7-8.3-8.3v0c0-4.6,3.7-8.3,8.3-8.3h0c4.6,0,8.3,3.7,8.3,8.3v0
	C242.1,285.1,238.4,288.8,233.8,288.8z"/>
<path class="st1" d="M256.4,288.8L256.4,288.8c-4.6,0-8.3-3.7-8.3-8.3v0c0-4.6,3.7-8.3,8.3-8.3l0,0c4.6,0,8.3,3.7,8.3,8.3v0
	C264.7,285.1,261,288.8,256.4,288.8z"/>
<path class="st1" d="M279,288.8L279,288.8c-4.6,0-8.3-3.7-8.3-8.3v0c0-4.6,3.7-8.3,8.3-8.3l0,0c4.6,0,8.3,3.7,8.3,8.3v0
	C287.3,285.1,283.5,288.8,279,288.8z"/>
<path class="st1" d="M301.6,288.8L301.6,288.8c-4.6,0-8.3-3.7-8.3-8.3v0c0-4.6,3.7-8.3,8.3-8.3l0,0c4.6,0,8.3,3.7,8.3,8.3v0
	C309.8,285.1,306.1,288.8,301.6,288.8z"/>
<path class="st1" d="M324.1,288.8L324.1,288.8c-4.6,0-8.3-3.7-8.3-8.3v0c0-4.6,3.7-8.3,8.3-8.3h0c4.6,0,8.3,3.7,8.3,8.3v0
	C332.4,285.1,328.7,288.8,324.1,288.8z"/>
<path class="st1" d="M346.7,288.8L346.7,288.8c-4.6,0-8.3-3.7-8.3-8.3v0c0-4.6,3.7-8.3,8.3-8.3h0c4.6,0,8.3,3.7,8.3,8.3v0
	C355,285.1,351.3,288.8,346.7,288.8z"/>
<path class="st1" d="M369.3,288.8L369.3,288.8c-4.6,0-8.3-3.7-8.3-8.3v0c0-4.6,3.7-8.3,8.3-8.3l0,0c4.6,0,8.3,3.7,8.3,8.3v0
	C377.5,285.1,373.8,288.8,369.3,288.8z"/>
<path class="st1" d="M391.8,288.8L391.8,288.8c-4.6,0-8.3-3.7-8.3-8.3v0c0-4.6,3.7-8.3,8.3-8.3l0,0c4.6,0,8.3,3.7,8.3,8.3v0
	C400.1,285.1,396.4,288.8,391.8,288.8z"/>
<path class="st1" d="M414.4,288.8L414.4,288.8c-4.6,0-8.3-3.7-8.3-8.3v0c0-4.6,3.7-8.3,8.3-8.3h0c4.6,0,8.3,3.7,8.3,8.3v0
	C422.7,285.1,419,288.8,414.4,288.8z"/>
<path class="st1" d="M166.1,266.3L166.1,266.3c-4.6,0-8.3-3.7-8.3-8.3l0,0c0-4.6,3.7-8.3,8.3-8.3h0c4.6,0,8.3,3.7,8.3,8.3l0,0
	C174.4,262.5,170.7,266.3,166.1,266.3z"/>
<path class="st1" d="M188.7,266.3L188.7,266.3c-4.6,0-8.3-3.7-8.3-8.3l0,0c0-4.6,3.7-8.3,8.3-8.3h0c4.6,0,8.3,3.7,8.3,8.3l0,0
	C197,262.5,193.3,266.3,188.7,266.3z"/>
<path class="st1" d="M211.3,266.3L211.3,266.3c-4.6,0-8.3-3.7-8.3-8.3l0,0c0-4.6,3.7-8.3,8.3-8.3h0c4.6,0,8.3,3.7,8.3,8.3l0,0
	C219.6,262.5,215.8,266.3,211.3,266.3z"/>
<path class="st1" d="M233.8,266.3L233.8,266.3c-4.6,0-8.3-3.7-8.3-8.3l0,0c0-4.6,3.7-8.3,8.3-8.3h0c4.6,0,8.3,3.7,8.3,8.3l0,0
	C242.1,262.5,238.4,266.3,233.8,266.3z"/>
<path class="st1" d="M256.4,266.3L256.4,266.3c-4.6,0-8.3-3.7-8.3-8.3l0,0c0-4.6,3.7-8.3,8.3-8.3l0,0c4.6,0,8.3,3.7,8.3,8.3l0,0
	C264.7,262.5,261,266.3,256.4,266.3z"/>
<path class="st1" d="M279,266.3L279,266.3c-4.6,0-8.3-3.7-8.3-8.3l0,0c0-4.6,3.7-8.3,8.3-8.3l0,0c4.6,0,8.3,3.7,8.3,8.3l0,0
	C287.3,262.5,283.5,266.3,279,266.3z"/>
<path class="st1" d="M301.6,266.3L301.6,266.3c-4.6,0-8.3-3.7-8.3-8.3l0,0c0-4.6,3.7-8.3,8.3-8.3l0,0c4.6,0,8.3,3.7,8.3,8.3l0,0
	C309.8,262.5,306.1,266.3,301.6,266.3z"/>
<path class="st1" d="M324.1,266.3L324.1,266.3c-4.6,0-8.3-3.7-8.3-8.3l0,0c0-4.6,3.7-8.3,8.3-8.3h0c4.6,0,8.3,3.7,8.3,8.3l0,0
	C332.4,262.5,328.7,266.3,324.1,266.3z"/>
<path class="st1" d="M346.7,266.3L346.7,266.3c-4.6,0-8.3-3.7-8.3-8.3l0,0c0-4.6,3.7-8.3,8.3-8.3h0c4.6,0,8.3,3.7,8.3,8.3l0,0
	C355,262.5,351.3,266.3,346.7,266.3z"/>
<path class="st1" d="M369.3,266.3L369.3,266.3c-4.6,0-8.3-3.7-8.3-8.3l0,0c0-4.6,3.7-8.3,8.3-8.3l0,0c4.6,0,8.3,3.7,8.3,8.3l0,0
	C377.5,262.5,373.8,266.3,369.3,266.3z"/>
<path class="st1" d="M391.8,266.3L391.8,266.3c-4.6,0-8.3-3.7-8.3-8.3l0,0c0-4.6,3.7-8.3,8.3-8.3l0,0c4.6,0,8.3,3.7,8.3,8.3l0,0
	C400.1,262.5,396.4,266.3,391.8,266.3z"/>
<path class="st1" d="M414.4,266.3L414.4,266.3c-4.6,0-8.3-3.7-8.3-8.3l0,0c0-4.6,3.7-8.3,8.3-8.3h0c4.6,0,8.3,3.7,8.3,8.3l0,0
	C422.7,262.5,419,266.3,414.4,266.3z"/>
<path class="st1" d="M188.7,311.5L188.7,311.5c-4.6,0-8.3-3.7-8.3-8.3v0c0-4.6,3.7-8.3,8.3-8.3h0c4.6,0,8.3,3.7,8.3,8.3v0
	C197,307.7,193.3,311.5,188.7,311.5z"/>
<path class="st1" d="M211.3,311.5L211.3,311.5c-4.6,0-8.3-3.7-8.3-8.3v0c0-4.6,3.7-8.3,8.3-8.3h0c4.6,0,8.3,3.7,8.3,8.3v0
	C219.6,307.7,215.8,311.5,211.3,311.5z"/>
<path class="st1" d="M233.8,311.5L233.8,311.5c-4.6,0-8.3-3.7-8.3-8.3v0c0-4.6,3.7-8.3,8.3-8.3h0c4.6,0,8.3,3.7,8.3,8.3v0
	C242.1,307.7,238.4,311.5,233.8,311.5z"/>
<path class="st1" d="M256.4,311.5L256.4,311.5c-4.6,0-8.3-3.7-8.3-8.3v0c0-4.6,3.7-8.3,8.3-8.3l0,0c4.6,0,8.3,3.7,8.3,8.3v0
	C264.7,307.7,261,311.5,256.4,311.5z"/>
<path class="st1" d="M279,311.5L279,311.5c-4.6,0-8.3-3.7-8.3-8.3v0c0-4.6,3.7-8.3,8.3-8.3l0,0c4.6,0,8.3,3.7,8.3,8.3v0
	C287.3,307.7,283.5,311.5,279,311.5z"/>
<path class="st1" d="M301.6,311.5L301.6,311.5c-4.6,0-8.3-3.7-8.3-8.3v0c0-4.6,3.7-8.3,8.3-8.3l0,0c4.6,0,8.3,3.7,8.3,8.3v0
	C309.8,307.7,306.1,311.5,301.6,311.5z"/>
<path class="st1" d="M324.1,311.5L324.1,311.5c-4.6,0-8.3-3.7-8.3-8.3v0c0-4.6,3.7-8.3,8.3-8.3h0c4.6,0,8.3,3.7,8.3,8.3v0
	C332.4,307.7,328.7,311.5,324.1,311.5z"/>
<path class="st1" d="M346.7,311.5L346.7,311.5c-4.6,0-8.3-3.7-8.3-8.3v0c0-4.6,3.7-8.3,8.3-8.3h0c4.6,0,8.3,3.7,8.3,8.3v0
	C355,307.7,351.3,311.5,346.7,311.5z"/>
<path class="st1" d="M369.3,311.5L369.3,311.5c-4.6,0-8.3-3.7-8.3-8.3v0c0-4.6,3.7-8.3,8.3-8.3l0,0c4.6,0,8.3,3.7,8.3,8.3v0
	C377.5,307.7,373.8,311.5,369.3,311.5z"/>
<path class="st1" d="M391.8,311.5L391.8,311.5c-4.6,0-8.3-3.7-8.3-8.3v0c0-4.6,3.7-8.3,8.3-8.3l0,0c4.6,0,8.3,3.7,8.3,8.3v0
	C400.1,307.7,396.4,311.5,391.8,311.5z"/>
<path class="st1" d="M414.4,311.5L414.4,311.5c-4.6,0-8.3-3.7-8.3-8.3v0c0-4.6,3.7-8.3,8.3-8.3h0c4.6,0,8.3,3.7,8.3,8.3v0
	C422.7,307.7,419,311.5,414.4,311.5z"/>
<path class="st1" d="M437,176L437,176c-4.6,0-8.3-3.7-8.3-8.3v0c0-4.6,3.7-8.3,8.3-8.3h0c4.6,0,8.3,3.7,8.3,8.3v0
	C445.3,172.3,441.6,176,437,176z"/>
<path class="st1" d="M437,221.1L437,221.1c-4.6,0-8.3-3.7-8.3-8.3v0c0-4.6,3.7-8.3,8.3-8.3l0,0c4.6,0,8.3,3.7,8.3,8.3v0
	C445.3,217.4,441.6,221.1,437,221.1z"/>
<path class="st1" d="M437,198.6L437,198.6c-4.6,0-8.3-3.7-8.3-8.3v0c0-4.6,3.7-8.3,8.3-8.3l0,0c4.6,0,8.3,3.7,8.3,8.3v0
	C445.3,194.8,441.6,198.6,437,198.6z"/>
<path class="st1" d="M437,243.7L437,243.7c-4.6,0-8.3-3.7-8.3-8.3v0c0-4.6,3.7-8.3,8.3-8.3h0c4.6,0,8.3,3.7,8.3,8.3v0
	C445.3,240,441.6,243.7,437,243.7z"/>
<path class="st1" d="M437,288.8L437,288.8c-4.6,0-8.3-3.7-8.3-8.3v0c0-4.6,3.7-8.3,8.3-8.3l0,0c4.6,0,8.3,3.7,8.3,8.3v0
	C445.3,285.1,441.6,288.8,437,288.8z"/>
<path class="st1" d="M437,266.3L437,266.3c-4.6,0-8.3-3.7-8.3-8.3l0,0c0-4.6,3.7-8.3,8.3-8.3l0,0c4.6,0,8.3,3.7,8.3,8.3l0,0
	C445.3,262.5,441.6,266.3,437,266.3z"/>
<path class="st1" d="M437,311.5L437,311.5c-4.6,0-8.3-3.7-8.3-8.3v0c0-4.6,3.7-8.3,8.3-8.3l0,0c4.6,0,8.3,3.7,8.3,8.3v0
	C445.3,307.7,441.6,311.5,437,311.5z"/>
<path class="st1" d="M459.6,176L459.6,176c-4.6,0-8.3-3.7-8.3-8.3v0c0-4.6,3.7-8.3,8.3-8.3l0,0c4.6,0,8.3,3.7,8.3,8.3v0
	C467.8,172.3,464.1,176,459.6,176z"/>
<path class="st1" d="M459.5,221.1L459.5,221.1c-4.6,0-8.3-3.7-8.3-8.3v0c0-4.6,3.7-8.3,8.3-8.3h0c4.6,0,8.3,3.7,8.3,8.3v0
	C467.8,217.4,464.1,221.1,459.5,221.1z"/>
<path class="st1" d="M459.5,198.6L459.5,198.6c-4.6,0-8.3-3.7-8.3-8.3v0c0-4.6,3.7-8.3,8.3-8.3h0c4.6,0,8.3,3.7,8.3,8.3v0
	C467.8,194.8,464.1,198.6,459.5,198.6z"/>
<path class="st1" d="M459.6,243.7L459.6,243.7c-4.6,0-8.3-3.7-8.3-8.3v0c0-4.6,3.7-8.3,8.3-8.3l0,0c4.6,0,8.3,3.7,8.3,8.3v0
	C467.8,240,464.1,243.7,459.6,243.7z"/>
<path class="st1" d="M459.5,288.8L459.5,288.8c-4.6,0-8.3-3.7-8.3-8.3v0c0-4.6,3.7-8.3,8.3-8.3h0c4.6,0,8.3,3.7,8.3,8.3v0
	C467.8,285.1,464.1,288.8,459.5,288.8z"/>
<path class="st1" d="M459.5,266.3L459.5,266.3c-4.6,0-8.3-3.7-8.3-8.3l0,0c0-4.6,3.7-8.3,8.3-8.3h0c4.6,0,8.3,3.7,8.3,8.3l0,0
	C467.8,262.5,464.1,266.3,459.5,266.3z"/>
<path class="st1" d="M459.5,311.5L459.5,311.5c-4.6,0-8.3-3.7-8.3-8.3v0c0-4.6,3.7-8.3,8.3-8.3h0c4.6,0,8.3,3.7,8.3,8.3v0
	C467.8,307.7,464.1,311.5,459.5,311.5z"/>
<path class="st1" d="M482.1,176L482.1,176c-4.6,0-8.3-3.7-8.3-8.3v0c0-4.6,3.7-8.3,8.3-8.3l0,0c4.6,0,8.3,3.7,8.3,8.3v0
	C490.4,172.3,486.7,176,482.1,176z"/>
<path class="st1" d="M482.1,221.1L482.1,221.1c-4.6,0-8.3-3.7-8.3-8.3v0c0-4.6,3.7-8.3,8.3-8.3h0c4.6,0,8.3,3.7,8.3,8.3v0
	C490.4,217.4,486.7,221.1,482.1,221.1z"/>
<path class="st1" d="M482.1,198.6L482.1,198.6c-4.6,0-8.3-3.7-8.3-8.3v0c0-4.6,3.7-8.3,8.3-8.3h0c4.6,0,8.3,3.7,8.3,8.3v0
	C490.4,194.8,486.7,198.6,482.1,198.6z"/>
<path class="st1" d="M482.1,243.7L482.1,243.7c-4.6,0-8.3-3.7-8.3-8.3v0c0-4.6,3.7-8.3,8.3-8.3l0,0c4.6,0,8.3,3.7,8.3,8.3v0
	C490.4,240,486.7,243.7,482.1,243.7z"/>
<path class="st1" d="M504.8,176L504.8,176c-4.6,0-8.3-3.7-8.3-8.3v0c0-4.6,3.7-8.3,8.3-8.3h0c4.6,0,8.3,3.7,8.3,8.3v0
	C513.1,172.3,509.4,176,504.8,176z"/>
<path class="st1" d="M504.8,221.1L504.8,221.1c-4.6,0-8.3-3.7-8.3-8.3v0c0-4.6,3.7-8.3,8.3-8.3l0,0c4.6,0,8.3,3.7,8.3,8.3v0
	C513.1,217.4,509.3,221.1,504.8,221.1z"/>
<path class="st1" d="M504.8,198.6L504.8,198.6c-4.6,0-8.3-3.7-8.3-8.3v0c0-4.6,3.7-8.3,8.3-8.3l0,0c4.6,0,8.3,3.7,8.3,8.3v0
	C513.1,194.8,509.3,198.6,504.8,198.6z"/>
<path class="st1" d="M504.8,243.7L504.8,243.7c-4.6,0-8.3-3.7-8.3-8.3v0c0-4.6,3.7-8.3,8.3-8.3h0c4.6,0,8.3,3.7,8.3,8.3v0
	C513.1,240,509.4,243.7,504.8,243.7z"/>
<path class="st1" d="M527.3,108.3L527.3,108.3c-4.6,0-8.3-3.7-8.3-8.3v0c0-4.6,3.7-8.3,8.3-8.3l0,0c4.6,0,8.3,3.7,8.3,8.3v0
	C535.5,104.6,531.8,108.3,527.3,108.3z"/>
<path class="st1" d="M549.8,108.3L549.8,108.3c-4.6,0-8.3-3.7-8.3-8.3v0c0-4.6,3.7-8.3,8.3-8.3l0,0c4.6,0,8.3,3.7,8.3,8.3v0
	C558.1,104.6,554.4,108.3,549.8,108.3z"/>
<path class="st1" d="M527.3,85.7L527.3,85.7c-4.6,0-8.3-3.7-8.3-8.3v0c0-4.6,3.7-8.3,8.3-8.3l0,0c4.6,0,8.3,3.7,8.3,8.3v0
	C535.5,82,531.8,85.7,527.3,85.7z"/>
<path class="st1" d="M549.8,85.7L549.8,85.7c-4.6,0-8.3-3.7-8.3-8.3v0c0-4.6,3.7-8.3,8.3-8.3l0,0c4.6,0,8.3,3.7,8.3,8.3v0
	C558.1,82,554.4,85.7,549.8,85.7z"/>
<path class="st1" d="M166.1,63.1L166.1,63.1c-4.6,0-8.3-3.7-8.3-8.3v0c0-4.6,3.7-8.3,8.3-8.3h0c4.6,0,8.3,3.7,8.3,8.3v0
	C174.4,59.4,170.7,63.1,166.1,63.1z"/>
<path class="st1" d="M188.7,63.1L188.7,63.1c-4.6,0-8.3-3.7-8.3-8.3v0c0-4.6,3.7-8.3,8.3-8.3h0c4.6,0,8.3,3.7,8.3,8.3v0
	C197,59.4,193.2,63.1,188.7,63.1z"/>
<path class="st1" d="M211.3,63.1L211.3,63.1c-4.6,0-8.3-3.7-8.3-8.3v0c0-4.6,3.7-8.3,8.3-8.3h0c4.6,0,8.3,3.7,8.3,8.3v0
	C219.5,59.4,215.8,63.1,211.3,63.1z"/>
<path class="st1" d="M233.8,63.1L233.8,63.1c-4.6,0-8.3-3.7-8.3-8.3v0c0-4.6,3.7-8.3,8.3-8.3h0c4.6,0,8.3,3.7,8.3,8.3v0
	C242.1,59.4,238.4,63.1,233.8,63.1z"/>
<path class="st1" d="M76,108.3L76,108.3c-4.6,0-8.3-3.7-8.3-8.3v0c0-4.6,3.7-8.3,8.3-8.3h0c4.6,0,8.3,3.7,8.3,8.3v0
	C84.3,104.6,80.6,108.3,76,108.3z"/>
<path class="st1" d="M98.6,108.3L98.6,108.3c-4.6,0-8.3-3.7-8.3-8.3v0c0-4.6,3.7-8.3,8.3-8.3h0c4.6,0,8.3,3.7,8.3,8.3v0
	C106.9,104.6,103.1,108.3,98.6,108.3z"/>
<path class="st1" d="M121.2,108.3L121.2,108.3c-4.6,0-8.3-3.7-8.3-8.3v0c0-4.6,3.7-8.3,8.3-8.3h0c4.6,0,8.3,3.7,8.3,8.3v0
	C129.4,104.6,125.7,108.3,121.2,108.3z"/>
<path class="st1" d="M143.7,108.3L143.7,108.3c-4.6,0-8.3-3.7-8.3-8.3v0c0-4.6,3.7-8.3,8.3-8.3h0c4.6,0,8.3,3.7,8.3,8.3v0
	C152,104.6,148.3,108.3,143.7,108.3z"/>
<path class="st1" d="M76,85.7L76,85.7c-4.6,0-8.3-3.7-8.3-8.3v0c0-4.6,3.7-8.3,8.3-8.3h0c4.6,0,8.3,3.7,8.3,8.3v0
	C84.3,82,80.6,85.7,76,85.7z"/>
<path class="st1" d="M98.6,85.7L98.6,85.7c-4.6,0-8.3-3.7-8.3-8.3v0c0-4.6,3.7-8.3,8.3-8.3h0c4.6,0,8.3,3.7,8.3,8.3v0
	C106.9,82,103.1,85.7,98.6,85.7z"/>
<path class="st1" d="M121.2,85.7L121.2,85.7c-4.6,0-8.3-3.7-8.3-8.3v0c0-4.6,3.7-8.3,8.3-8.3h0c4.6,0,8.3,3.7,8.3,8.3v0
	C129.4,82,125.7,85.7,121.2,85.7z"/>
<path class="st1" d="M143.7,85.7L143.7,85.7c-4.6,0-8.3-3.7-8.3-8.3v0c0-4.6,3.7-8.3,8.3-8.3h0c4.6,0,8.3,3.7,8.3,8.3v0
	C152,82,148.3,85.7,143.7,85.7z"/>
<path class="st1" d="M76,153.4L76,153.4c-4.6,0-8.3-3.7-8.3-8.3v0c0-4.6,3.7-8.3,8.3-8.3h0c4.6,0,8.3,3.7,8.3,8.3v0
	C84.3,149.7,80.6,153.4,76,153.4z"/>
<path class="st1" d="M98.6,153.4L98.6,153.4c-4.6,0-8.3-3.7-8.3-8.3v0c0-4.6,3.7-8.3,8.3-8.3h0c4.6,0,8.3,3.7,8.3,8.3v0
	C106.9,149.7,103.2,153.4,98.6,153.4z"/>
<path class="st1" d="M121.2,153.4L121.2,153.4c-4.6,0-8.3-3.7-8.3-8.3v0c0-4.6,3.7-8.3,8.3-8.3h0c4.6,0,8.3,3.7,8.3,8.3v0
	C129.5,149.7,125.7,153.4,121.2,153.4z"/>
<path class="st1" d="M143.8,153.4L143.8,153.4c-4.6,0-8.3-3.7-8.3-8.3v0c0-4.6,3.7-8.3,8.3-8.3h0c4.6,0,8.3,3.7,8.3,8.3v0
	C152,149.7,148.3,153.4,143.8,153.4z"/>
<path class="st1" d="M76,130.9L76,130.9c-4.6,0-8.3-3.7-8.3-8.3v0c0-4.6,3.7-8.3,8.3-8.3h0c4.6,0,8.3,3.7,8.3,8.3v0
	C84.3,127.1,80.6,130.9,76,130.9z"/>
<path class="st1" d="M98.6,130.9L98.6,130.9c-4.6,0-8.3-3.7-8.3-8.3v0c0-4.6,3.7-8.3,8.3-8.3h0c4.6,0,8.3,3.7,8.3,8.3v0
	C106.9,127.1,103.2,130.9,98.6,130.9z"/>
<path class="st1" d="M121.2,130.9L121.2,130.9c-4.6,0-8.3-3.7-8.3-8.3v0c0-4.6,3.7-8.3,8.3-8.3h0c4.6,0,8.3,3.7,8.3,8.3v0
	C129.5,127.1,125.7,130.9,121.2,130.9z"/>
<path class="st1" d="M143.8,130.9L143.8,130.9c-4.6,0-8.3-3.7-8.3-8.3v0c0-4.6,3.7-8.3,8.3-8.3h0c4.6,0,8.3,3.7,8.3,8.3v0
	C152,127.1,148.3,130.9,143.8,130.9z"/>
<path class="st1" d="M98.6,176L98.6,176c-4.6,0-8.3-3.7-8.3-8.3v0c0-4.6,3.7-8.3,8.3-8.3h0c4.6,0,8.3,3.7,8.3,8.3v0
	C106.9,172.3,103.2,176,98.6,176z"/>
<path class="st1" d="M121.2,176L121.2,176c-4.6,0-8.3-3.7-8.3-8.3v0c0-4.6,3.7-8.3,8.3-8.3h0c4.6,0,8.3,3.7,8.3,8.3v0
	C129.5,172.3,125.8,176,121.2,176z"/>
<path class="st1" d="M143.8,176L143.8,176c-4.6,0-8.3-3.7-8.3-8.3v0c0-4.6,3.7-8.3,8.3-8.3h0c4.6,0,8.3,3.7,8.3,8.3v0
	C152.1,172.3,148.3,176,143.8,176z"/>
<path class="st1" d="M121.2,221.1L121.2,221.1c-4.6,0-8.3-3.7-8.3-8.3v0c0-4.6,3.7-8.3,8.3-8.3h0c4.6,0,8.3,3.7,8.3,8.3v0
	C129.5,217.4,125.7,221.1,121.2,221.1z"/>
<path class="st1" d="M143.7,221.1L143.7,221.1c-4.6,0-8.3-3.7-8.3-8.3v0c0-4.6,3.7-8.3,8.3-8.3h0c4.6,0,8.3,3.7,8.3,8.3v0
	C152,217.4,148.3,221.1,143.7,221.1z"/>
<path class="st1" d="M121.2,198.6L121.2,198.6c-4.6,0-8.3-3.7-8.3-8.3v0c0-4.6,3.7-8.3,8.3-8.3h0c4.6,0,8.3,3.7,8.3,8.3v0
	C129.5,194.8,125.7,198.6,121.2,198.6z"/>
<path class="st1" d="M143.7,198.6L143.7,198.6c-4.6,0-8.3-3.7-8.3-8.3v0c0-4.6,3.7-8.3,8.3-8.3h0c4.6,0,8.3,3.7,8.3,8.3v0
	C152,194.8,148.3,198.6,143.7,198.6z"/>
<path class="st1" d="M76,63.1L76,63.1c-4.6,0-8.3-3.7-8.3-8.3v0c0-4.6,3.7-8.3,8.3-8.3h0c4.6,0,8.3,3.7,8.3,8.3v0
	C84.3,59.4,80.6,63.1,76,63.1z"/>
<path class="st1" d="M98.6,63.1L98.6,63.1c-4.6,0-8.3-3.7-8.3-8.3v0c0-4.6,3.7-8.3,8.3-8.3h0c4.6,0,8.3,3.7,8.3,8.3v0
	C106.9,59.4,103.1,63.1,98.6,63.1z"/>
<path class="st1" d="M53.4,108.3L53.4,108.3c-4.6,0-8.3-3.7-8.3-8.3v0c0-4.6,3.7-8.3,8.3-8.3h0c4.6,0,8.3,3.7,8.3,8.3v0
	C61.7,104.6,58,108.3,53.4,108.3z"/>
<path class="st1" d="M53.4,85.7L53.4,85.7c-4.6,0-8.3-3.7-8.3-8.3v0c0-4.6,3.7-8.3,8.3-8.3h0c4.6,0,8.3,3.7,8.3,8.3v0
	C61.7,82,58,85.7,53.4,85.7z"/>
<path class="st1" d="M30.9,63.1L30.9,63.1c-4.6,0-8.3-3.7-8.3-8.3v0c0-4.6,3.7-8.3,8.3-8.3h0c4.6,0,8.3,3.7,8.3,8.3v0
	C39.1,59.4,35.4,63.1,30.9,63.1z"/>
<path class="st1" d="M8.3,63.1L8.3,63.1c-4.6,0-8.3-3.7-8.3-8.3v0c0-4.6,3.7-8.3,8.3-8.3h0c4.6,0,8.3,3.7,8.3,8.3v0
	C16.6,59.4,12.8,63.1,8.3,63.1z"/>
<path class="st1" d="M30.9,85.7L30.9,85.7c-4.6,0-8.3-3.7-8.3-8.3v0c0-4.6,3.7-8.3,8.3-8.3h0c4.6,0,8.3,3.7,8.3,8.3v0
	C39.1,82,35.4,85.7,30.9,85.7z"/>
<path class="st1" d="M8.3,85.7L8.3,85.7C3.7,85.7,0,82,0,77.4v0c0-4.6,3.7-8.3,8.3-8.3h0c4.6,0,8.3,3.7,8.3,8.3v0
	C16.6,82,12.8,85.7,8.3,85.7z"/>
<path class="st1" d="M30.9,108.3L30.9,108.3c-4.6,0-8.3-3.7-8.3-8.3v0c0-4.6,3.7-8.3,8.3-8.3h0c4.6,0,8.3,3.7,8.3,8.3v0
	C39.1,104.6,35.4,108.3,30.9,108.3z"/>
<path class="st1" d="M53.4,130.9L53.4,130.9c-4.6,0-8.3-3.7-8.3-8.3v0c0-4.6,3.7-8.3,8.3-8.3h0c4.6,0,8.3,3.7,8.3,8.3v0
	C61.7,127.2,58,130.9,53.4,130.9z"/>
<path class="st1" d="M53.4,153.4L53.4,153.4c-4.6,0-8.3-3.7-8.3-8.3v0c0-4.6,3.7-8.3,8.3-8.3h0c4.6,0,8.3,3.7,8.3,8.3v0
	C61.7,149.7,58,153.4,53.4,153.4z"/>
<path class="st1" d="M76,176L76,176c-4.6,0-8.3-3.7-8.3-8.3v0c0-4.6,3.7-8.3,8.3-8.3h0c4.6,0,8.3,3.7,8.3,8.3v0
	C84.3,172.3,80.6,176,76,176z"/>
<path class="st1" d="M98.6,198.6L98.6,198.6c-4.6,0-8.3-3.7-8.3-8.3v0c0-4.6,3.7-8.3,8.3-8.3h0c4.6,0,8.3,3.7,8.3,8.3v0
	C106.9,194.9,103.2,198.6,98.6,198.6z"/>
<path class="st1" d="M98.6,221.1L98.6,221.1c-4.6,0-8.3-3.7-8.3-8.3v0c0-4.6,3.7-8.3,8.3-8.3h0c4.6,0,8.3,3.7,8.3,8.3v0
	C106.9,217.4,103.2,221.1,98.6,221.1z"/>
<path class="st1" d="M143.9,243.7L143.9,243.7c-4.6,0-8.3-3.7-8.3-8.3v0c0-4.6,3.7-8.3,8.3-8.3h0c4.6,0,8.3,3.7,8.3,8.3v0
	C152.1,240,148.4,243.7,143.9,243.7z"/>
<path class="st1" d="M121.2,243.7L121.2,243.7c-4.6,0-8.3-3.7-8.3-8.3v0c0-4.6,3.7-8.3,8.3-8.3h0c4.6,0,8.3,3.7,8.3,8.3v0
	C129.5,240,125.8,243.7,121.2,243.7z"/>
<path class="st1" d="M143.8,266.3L143.8,266.3c-4.6,0-8.3-3.7-8.3-8.3l0,0c0-4.6,3.7-8.3,8.3-8.3h0c4.6,0,8.3,3.7,8.3,8.3l0,0
	C152.1,262.6,148.4,266.3,143.8,266.3z"/>
<path class="st1" d="M143.8,288.8L143.8,288.8c-4.6,0-8.3-3.7-8.3-8.3l0,0c0-4.6,3.7-8.3,8.3-8.3h0c4.6,0,8.3,3.7,8.3,8.3l0,0
	C152.1,285.1,148.4,288.8,143.8,288.8z"/>
<path class="st1" d="M166.4,288.8L166.4,288.8c-4.6,0-8.3-3.7-8.3-8.3l0,0c0-4.6,3.7-8.3,8.3-8.3h0c4.6,0,8.3,3.7,8.3,8.3l0,0
	C174.7,285.1,171,288.8,166.4,288.8z"/>
<path class="st1" d="M166.4,311.4L166.4,311.4c-4.6,0-8.3-3.7-8.3-8.3v0c0-4.6,3.7-8.3,8.3-8.3h0c4.6,0,8.3,3.7,8.3,8.3v0
	C174.7,307.7,171,311.4,166.4,311.4z"/>
<path class="st1" d="M166.4,333.9L166.4,333.9c-4.6,0-8.3-3.7-8.3-8.3v0c0-4.6,3.7-8.3,8.3-8.3h0c4.6,0,8.3,3.7,8.3,8.3v0
	C174.7,330.2,171,333.9,166.4,333.9z"/>
<path class="st1" d="M189,333.9L189,333.9c-4.6,0-8.3-3.7-8.3-8.3v0c0-4.6,3.7-8.3,8.3-8.3h0c4.6,0,8.3,3.7,8.3,8.3v0
	C197.3,330.2,193.6,333.9,189,333.9z"/>
<path class="st1" d="M189,356.5L189,356.5c-4.6,0-8.3-3.7-8.3-8.3v0c0-4.6,3.7-8.3,8.3-8.3h0c4.6,0,8.3,3.7,8.3,8.3v0
	C197.3,352.8,193.6,356.5,189,356.5z"/>
<path class="st1" d="M211.6,356.5L211.6,356.5c-4.6,0-8.3-3.7-8.3-8.3v0c0-4.6,3.7-8.3,8.3-8.3h0c4.6,0,8.3,3.7,8.3,8.3v0
	C219.9,352.8,216.2,356.5,211.6,356.5z"/>
<path class="st1" d="M211.6,379.1L211.6,379.1c-4.6,0-8.3-3.7-8.3-8.3l0,0c0-4.6,3.7-8.3,8.3-8.3h0c4.6,0,8.3,3.7,8.3,8.3l0,0
	C219.9,375.4,216.2,379.1,211.6,379.1z"/>
<path class="st1" d="M211.6,401.6L211.6,401.6c-4.6,0-8.3-3.7-8.3-8.3l0,0c0-4.6,3.7-8.3,8.3-8.3h0c4.6,0,8.3,3.7,8.3,8.3l0,0
	C219.9,397.9,216.2,401.6,211.6,401.6z"/>
<path class="st1" d="M233.8,424.3L233.8,424.3c-4.6,0-8.3-3.7-8.3-8.3l0,0c0-4.6,3.7-8.3,8.3-8.3h0c4.6,0,8.3,3.7,8.3,8.3l0,0
	C242.1,420.6,238.4,424.3,233.8,424.3z"/>
<path class="st1" d="M53.4,63.1L53.4,63.1c-4.6,0-8.3-3.7-8.3-8.3v0c0-4.6,3.7-8.3,8.3-8.3h0c4.6,0,8.3,3.7,8.3,8.3v0
	C61.7,59.4,58,63.1,53.4,63.1z"/>
<path class="st1" d="M121.2,63.1L121.2,63.1c-4.6,0-8.3-3.7-8.3-8.3v0c0-4.6,3.7-8.3,8.3-8.3h0c4.6,0,8.3,3.7,8.3,8.3v0
	C129.4,59.4,125.7,63.1,121.2,63.1z"/>
<path class="st1" d="M143.7,63.1L143.7,63.1c-4.6,0-8.3-3.7-8.3-8.3v0c0-4.6,3.7-8.3,8.3-8.3h0c4.6,0,8.3,3.7,8.3,8.3v0
	C152,59.4,148.3,63.1,143.7,63.1z"/>
<path class="st1" d="M256.4,63.1L256.4,63.1c-4.6,0-8.3-3.7-8.3-8.3v0c0-4.6,3.7-8.3,8.3-8.3h0c4.6,0,8.3,3.7,8.3,8.3v0
	C264.7,59.4,261,63.1,256.4,63.1z"/>
<path class="st1" d="M279,63.1L279,63.1c-4.6,0-8.3-3.7-8.3-8.3v0c0-4.6,3.7-8.3,8.3-8.3l0,0c4.6,0,8.3,3.7,8.3,8.3v0
	C287.2,59.4,283.5,63.1,279,63.1z"/>
<path class="st1" d="M301.5,63.1L301.5,63.1c-4.6,0-8.3-3.7-8.3-8.3v0c0-4.6,3.7-8.3,8.3-8.3l0,0c4.6,0,8.3,3.7,8.3,8.3v0
	C309.8,59.4,306.1,63.1,301.5,63.1z"/>
<path class="st1" d="M324.1,63.1L324.1,63.1c-4.6,0-8.3-3.7-8.3-8.3v0c0-4.6,3.7-8.3,8.3-8.3h0c4.6,0,8.3,3.7,8.3,8.3v0
	C332.4,59.4,328.7,63.1,324.1,63.1z"/>
<path class="st1" d="M346.7,63.1L346.7,63.1c-4.6,0-8.3-3.7-8.3-8.3v0c0-4.6,3.7-8.3,8.3-8.3h0c4.6,0,8.3,3.7,8.3,8.3v0
	C355,59.4,351.2,63.1,346.7,63.1z"/>
<path class="st1" d="M369.2,63.1L369.2,63.1c-4.6,0-8.3-3.7-8.3-8.3v0c0-4.6,3.7-8.3,8.3-8.3l0,0c4.6,0,8.3,3.7,8.3,8.3v0
	C377.5,59.4,373.8,63.1,369.2,63.1z"/>
<path class="st1" d="M391.8,63.1L391.8,63.1c-4.6,0-8.3-3.7-8.3-8.3v0c0-4.6,3.7-8.3,8.3-8.3l0,0c4.6,0,8.3,3.7,8.3,8.3v0
	C400.1,59.4,396.4,63.1,391.8,63.1z"/>
<path class="st1" d="M414.4,63.1L414.4,63.1c-4.6,0-8.3-3.7-8.3-8.3v0c0-4.6,3.7-8.3,8.3-8.3h0c4.6,0,8.3,3.7,8.3,8.3v0
	C422.7,59.4,418.9,63.1,414.4,63.1z"/>
<path class="st1" d="M437,63.1L437,63.1c-4.6,0-8.3-3.7-8.3-8.3v0c0-4.6,3.7-8.3,8.3-8.3h0c4.6,0,8.3,3.7,8.3,8.3v0
	C445.2,59.4,441.5,63.1,437,63.1z"/>
<path class="st1" d="M459.5,63.1L459.5,63.1c-4.6,0-8.3-3.7-8.3-8.3v0c0-4.6,3.7-8.3,8.3-8.3h0c4.6,0,8.3,3.7,8.3,8.3v0
	C467.8,59.4,464.1,63.1,459.5,63.1z"/>
<path class="st1" d="M482.1,63.1L482.1,63.1c-4.6,0-8.3-3.7-8.3-8.3v0c0-4.6,3.7-8.3,8.3-8.3l0,0c4.6,0,8.3,3.7,8.3,8.3v0
	C490.4,59.4,486.7,63.1,482.1,63.1z"/>
<path class="st1" d="M504.7,63.1L504.7,63.1c-4.6,0-8.3-3.7-8.3-8.3v0c0-4.6,3.7-8.3,8.3-8.3l0,0c4.6,0,8.3,3.7,8.3,8.3v0
	C513,59.4,509.2,63.1,504.7,63.1z"/>
<path class="st1" d="M527.3,63.1L527.3,63.1c-4.6,0-8.3-3.7-8.3-8.3v0c0-4.6,3.7-8.3,8.3-8.3l0,0c4.6,0,8.3,3.7,8.3,8.3v0
	C535.5,59.4,531.8,63.1,527.3,63.1z"/>
<path class="st1" d="M550,63.1L550,63.1c-4.6,0-8.3-3.7-8.3-8.3v0c0-4.6,3.7-8.3,8.3-8.3l0,0c4.6,0,8.3,3.7,8.3,8.3v0
	C558.3,59.4,554.5,63.1,550,63.1z"/>
<path class="st1" d="M527.3,153.4L527.3,153.4c-4.6,0-8.3-3.7-8.3-8.3v0c0-4.6,3.7-8.3,8.3-8.3l0,0c4.6,0,8.3,3.7,8.3,8.3v0
	C535.6,149.7,531.8,153.4,527.3,153.4z"/>
<path class="st1" d="M549.9,153.4L549.9,153.4c-4.6,0-8.3-3.7-8.3-8.3v0c0-4.6,3.7-8.3,8.3-8.3l0,0c4.6,0,8.3,3.7,8.3,8.3v0
	C558.1,149.7,554.4,153.4,549.9,153.4z"/>
<path class="st1" d="M482.1,334L482.1,334c-4.6,0-8.3-3.7-8.3-8.3l0,0c0-4.6,3.7-8.3,8.3-8.3l0,0c4.6,0,8.3,3.7,8.3,8.3l0,0
	C490.4,330.3,486.7,334,482.1,334z"/>
<path class="st1" d="M504.7,334L504.7,334c-4.6,0-8.3-3.7-8.3-8.3l0,0c0-4.6,3.7-8.3,8.3-8.3l0,0c4.6,0,8.3,3.7,8.3,8.3l0,0
	C513,330.3,509.3,334,504.7,334z"/>
<path class="st1" d="M482.1,356.6L482.1,356.6c-4.6,0-8.3-3.7-8.3-8.3v0c0-4.6,3.7-8.3,8.3-8.3l0,0c4.6,0,8.3,3.7,8.3,8.3v0
	C490.4,352.9,486.7,356.6,482.1,356.6z"/>
<path class="st1" d="M504.7,356.6L504.7,356.6c-4.6,0-8.3-3.7-8.3-8.3v0c0-4.6,3.7-8.3,8.3-8.3l0,0c4.6,0,8.3,3.7,8.3,8.3v0
	C513,352.9,509.3,356.6,504.7,356.6z"/>
<path class="st1" d="M482.1,379.2L482.1,379.2c-4.6,0-8.3-3.7-8.3-8.3l0,0c0-4.6,3.7-8.3,8.3-8.3l0,0c4.6,0,8.3,3.7,8.3,8.3l0,0
	C490.4,375.5,486.7,379.2,482.1,379.2z"/>
<path class="st1" d="M504.7,379.2L504.7,379.2c-4.6,0-8.3-3.7-8.3-8.3l0,0c0-4.6,3.7-8.3,8.3-8.3l0,0c4.6,0,8.3,3.7,8.3,8.3l0,0
	C513,375.5,509.3,379.2,504.7,379.2z"/>
<path class="st1" d="M482.1,401.8L482.1,401.8c-4.6,0-8.3-3.7-8.3-8.3v0c0-4.6,3.7-8.3,8.3-8.3l0,0c4.6,0,8.3,3.7,8.3,8.3v0
	C490.4,398,486.7,401.8,482.1,401.8z"/>
<path class="st1" d="M504.7,401.8L504.7,401.8c-4.6,0-8.3-3.7-8.3-8.3v0c0-4.6,3.7-8.3,8.3-8.3l0,0c4.6,0,8.3,3.7,8.3,8.3v0
	C513,398,509.3,401.8,504.7,401.8z"/>
<path class="st1" d="M482.1,424.4L482.1,424.4c-4.6,0-8.3-3.7-8.3-8.3l0,0c0-4.6,3.7-8.3,8.3-8.3l0,0c4.6,0,8.3,3.7,8.3,8.3l0,0
	C490.4,420.7,486.7,424.4,482.1,424.4z"/>
<path class="st1" d="M504.7,424.4L504.7,424.4c-4.6,0-8.3-3.7-8.3-8.3l0,0c0-4.6,3.7-8.3,8.3-8.3l0,0c4.6,0,8.3,3.7,8.3,8.3l0,0
	C513,420.7,509.3,424.4,504.7,424.4z"/>
<path class="st1" d="M527.3,447L527.3,447c-4.6,0-8.3-3.7-8.3-8.3l0,0c0-4.6,3.7-8.3,8.3-8.3l0,0c4.6,0,8.3,3.7,8.3,8.3l0,0
	C535.6,443.2,531.8,447,527.3,447z"/>
<path class="st1" d="M549.9,447L549.9,447c-4.6,0-8.3-3.7-8.3-8.3l0,0c0-4.6,3.7-8.3,8.3-8.3l0,0c4.6,0,8.3,3.7,8.3,8.3l0,0
	C558.1,443.2,554.4,447,549.9,447z"/>
<path class="st1" d="M527.3,130.9L527.3,130.9c-4.6,0-8.3-3.7-8.3-8.3v0c0-4.6,3.7-8.3,8.3-8.3l0,0c4.6,0,8.3,3.7,8.3,8.3v0
	C535.6,127.1,531.8,130.9,527.3,130.9z"/>
<path class="st1" d="M549.9,130.9L549.9,130.9c-4.6,0-8.3-3.7-8.3-8.3v0c0-4.6,3.7-8.3,8.3-8.3l0,0c4.6,0,8.3,3.7,8.3,8.3v0
	C558.1,127.1,554.4,130.9,549.9,130.9z"/>
<path class="st1" d="M482.2,288.8L482.2,288.8c-4.6,0-8.3-3.7-8.3-8.3v0c0-4.6,3.7-8.3,8.3-8.3l0,0c4.6,0,8.3,3.7,8.3,8.3v0
	C490.5,285.1,486.7,288.8,482.2,288.8z"/>
<path class="st1" d="M482.2,266.3L482.2,266.3c-4.6,0-8.3-3.7-8.3-8.3l0,0c0-4.6,3.7-8.3,8.3-8.3l0,0c4.6,0,8.3,3.7,8.3,8.3l0,0
	C490.5,262.5,486.7,266.3,482.2,266.3z"/>
<path class="st1" d="M482.2,311.5L482.2,311.5c-4.6,0-8.3-3.7-8.3-8.3v0c0-4.6,3.7-8.3,8.3-8.3l0,0c4.6,0,8.3,3.7,8.3,8.3v0
	C490.5,307.7,486.7,311.5,482.2,311.5z"/>
<path class="st1" d="M504.7,288.8L504.7,288.8c-4.6,0-8.3-3.7-8.3-8.3v0c0-4.6,3.7-8.3,8.3-8.3h0c4.6,0,8.3,3.7,8.3,8.3v0
	C513,285.1,509.3,288.8,504.7,288.8z"/>
<path class="st1" d="M504.7,266.3L504.7,266.3c-4.6,0-8.3-3.7-8.3-8.3l0,0c0-4.6,3.7-8.3,8.3-8.3h0c4.6,0,8.3,3.7,8.3,8.3l0,0
	C513,262.5,509.3,266.3,504.7,266.3z"/>
<path class="st1" d="M504.7,311.5L504.7,311.5c-4.6,0-8.3-3.7-8.3-8.3v0c0-4.6,3.7-8.3,8.3-8.3h0c4.6,0,8.3,3.7,8.3,8.3v0
	C513,307.7,509.3,311.5,504.7,311.5z"/>
<path class="st1" d="M527.3,176L527.3,176c-4.6,0-8.3-3.7-8.3-8.3v0c0-4.6,3.7-8.3,8.3-8.3h0c4.6,0,8.3,3.7,8.3,8.3v0
	C535.6,172.3,531.9,176,527.3,176z"/>
<path class="st1" d="M527.3,221.1L527.3,221.1c-4.6,0-8.3-3.7-8.3-8.3v0c0-4.6,3.7-8.3,8.3-8.3l0,0c4.6,0,8.3,3.7,8.3,8.3v0
	C535.6,217.4,531.8,221.1,527.3,221.1z"/>
<path class="st1" d="M527.3,198.6L527.3,198.6c-4.6,0-8.3-3.7-8.3-8.3v0c0-4.6,3.7-8.3,8.3-8.3l0,0c4.6,0,8.3,3.7,8.3,8.3v0
	C535.6,194.8,531.8,198.6,527.3,198.6z"/>
<path class="st1" d="M550,176L550,176c-4.6,0-8.3-3.7-8.3-8.3v0c0-4.6,3.7-8.3,8.3-8.3l0,0c4.6,0,8.3,3.7,8.3,8.3v0
	C558.3,172.3,554.5,176,550,176z"/>
<path class="st1" d="M549.9,221.1L549.9,221.1c-4.6,0-8.3-3.7-8.3-8.3v0c0-4.6,3.7-8.3,8.3-8.3l0,0c4.6,0,8.3,3.7,8.3,8.3v0
	C558.2,217.4,554.5,221.1,549.9,221.1z"/>
<path class="st1" d="M549.9,198.6L549.9,198.6c-4.6,0-8.3-3.7-8.3-8.3v0c0-4.6,3.7-8.3,8.3-8.3l0,0c4.6,0,8.3,3.7,8.3,8.3v0
	C558.2,194.8,554.5,198.6,549.9,198.6z"/>
<path class="st1" d="M527.3,266.3L527.3,266.3c-4.6,0-8.3-3.7-8.3-8.3v0c0-4.6,3.7-8.3,8.3-8.3l0,0c4.6,0,8.3,3.7,8.3,8.3v0
	C535.5,262.5,531.8,266.3,527.3,266.3z"/>
<path class="st1" d="M549.8,266.3L549.8,266.3c-4.6,0-8.3-3.7-8.3-8.3v0c0-4.6,3.7-8.3,8.3-8.3l0,0c4.6,0,8.3,3.7,8.3,8.3v0
	C558.1,262.5,554.4,266.3,549.8,266.3z"/>
<path class="st1" d="M527.3,243.7L527.3,243.7c-4.6,0-8.3-3.7-8.3-8.3v0c0-4.6,3.7-8.3,8.3-8.3l0,0c4.6,0,8.3,3.7,8.3,8.3v0
	C535.5,240,531.8,243.7,527.3,243.7z"/>
<path class="st1" d="M549.8,243.7L549.8,243.7c-4.6,0-8.3-3.7-8.3-8.3v0c0-4.6,3.7-8.3,8.3-8.3l0,0c4.6,0,8.3,3.7,8.3,8.3v0
	C558.1,240,554.4,243.7,549.8,243.7z"/>
<path class="st1" d="M527.3,311.4L527.3,311.4c-4.6,0-8.3-3.7-8.3-8.3l0,0c0-4.6,3.7-8.3,8.3-8.3l0,0c4.6,0,8.3,3.7,8.3,8.3l0,0
	C535.6,307.7,531.8,311.4,527.3,311.4z"/>
<path class="st1" d="M549.9,311.4L549.9,311.4c-4.6,0-8.3-3.7-8.3-8.3l0,0c0-4.6,3.7-8.3,8.3-8.3l0,0c4.6,0,8.3,3.7,8.3,8.3l0,0
	C558.1,307.7,554.4,311.4,549.9,311.4z"/>
<path class="st1" d="M527.3,288.8L527.3,288.8c-4.6,0-8.3-3.7-8.3-8.3v0c0-4.6,3.7-8.3,8.3-8.3l0,0c4.6,0,8.3,3.7,8.3,8.3v0
	C535.6,285.1,531.8,288.8,527.3,288.8z"/>
<path class="st1" d="M549.9,288.8L549.9,288.8c-4.6,0-8.3-3.7-8.3-8.3v0c0-4.6,3.7-8.3,8.3-8.3l0,0c4.6,0,8.3,3.7,8.3,8.3v0
	C558.1,285.1,554.4,288.8,549.9,288.8z"/>
<path class="st1" d="M527.3,334L527.3,334c-4.6,0-8.3-3.7-8.3-8.3l0,0c0-4.6,3.7-8.3,8.3-8.3h0c4.6,0,8.3,3.7,8.3,8.3l0,0
	C535.6,330.2,531.9,334,527.3,334z"/>
<path class="st1" d="M527.3,379.1L527.3,379.1c-4.6,0-8.3-3.7-8.3-8.3l0,0c0-4.6,3.7-8.3,8.3-8.3l0,0c4.6,0,8.3,3.7,8.3,8.3l0,0
	C535.6,375.4,531.8,379.1,527.3,379.1z"/>
<path class="st1" d="M527.3,356.5L527.3,356.5c-4.6,0-8.3-3.7-8.3-8.3v0c0-4.6,3.7-8.3,8.3-8.3l0,0c4.6,0,8.3,3.7,8.3,8.3v0
	C535.6,352.8,531.8,356.5,527.3,356.5z"/>
<path class="st1" d="M550,334L550,334c-4.6,0-8.3-3.7-8.3-8.3l0,0c0-4.6,3.7-8.3,8.3-8.3l0,0c4.6,0,8.3,3.7,8.3,8.3l0,0
	C558.3,330.2,554.5,334,550,334z"/>
<path class="st1" d="M549.9,379.1L549.9,379.1c-4.6,0-8.3-3.7-8.3-8.3l0,0c0-4.6,3.7-8.3,8.3-8.3l0,0c4.6,0,8.3,3.7,8.3,8.3l0,0
	C558.2,375.4,554.5,379.1,549.9,379.1z"/>
<path class="st1" d="M549.9,356.5L549.9,356.5c-4.6,0-8.3-3.7-8.3-8.3v0c0-4.6,3.7-8.3,8.3-8.3l0,0c4.6,0,8.3,3.7,8.3,8.3v0
	C558.2,352.8,554.5,356.5,549.9,356.5z"/>
<path class="st1" d="M527.3,424.4L527.3,424.4c-4.6,0-8.3-3.7-8.3-8.3v0c0-4.6,3.7-8.3,8.3-8.3l0,0c4.6,0,8.3,3.7,8.3,8.3v0
	C535.6,420.6,531.8,424.4,527.3,424.4z"/>
<path class="st1" d="M527.3,401.8L527.3,401.8c-4.6,0-8.3-3.7-8.3-8.3v0c0-4.6,3.7-8.3,8.3-8.3l0,0c4.6,0,8.3,3.7,8.3,8.3v0
	C535.6,398.1,531.8,401.8,527.3,401.8z"/>
<path class="st1" d="M549.9,424.4L549.9,424.4c-4.6,0-8.3-3.7-8.3-8.3v0c0-4.6,3.7-8.3,8.3-8.3l0,0c4.6,0,8.3,3.7,8.3,8.3v0
	C558.2,420.6,554.5,424.4,549.9,424.4z"/>
<path class="st1" d="M549.9,401.8L549.9,401.8c-4.6,0-8.3-3.7-8.3-8.3v0c0-4.6,3.7-8.3,8.3-8.3l0,0c4.6,0,8.3,3.7,8.3,8.3v0
	C558.2,398.1,554.5,401.8,549.9,401.8z"/>
<g>
	<text transform="matrix(1 0 0 1 6.3131 57.531)" class="st2 st3 st4">1</text>
	<text transform="matrix(1 0 0 1 28.3746 57.531)" class="st2 st3 st4">2</text>
	<text transform="matrix(1 0 0 1 50.9488 57.531)" class="st2 st3 st4">3</text>
	<text transform="matrix(1 0 0 1 73.4635 57.531)" class="st2 st3 st4">4</text>
	<text transform="matrix(1 0 0 1 96.1373 57.531)" class="st2 st3 st4">5</text>
	<text transform="matrix(1 0 0 1 118.4596 57.531)" class="st2 st3 st4">6</text>
	<text transform="matrix(1 0 0 1 141.4859 57.531)" class="st2 st3 st4">7</text>
	<text transform="matrix(1 0 0 1 163.6764 57.531)" class="st2 st3 st4">8</text>
	<text transform="matrix(1 0 0 1 186.1705 57.531)" class="st2 st3 st4">9</text>
	<text transform="matrix(1 0 0 1 206.8199 57.531)" class="st2 st3 st4">10</text>
	<text transform="matrix(1 0 0 1 230.3024 57.531)" class="st2 st3 st4">11</text>
	<text transform="matrix(1 0 0 1 252.3649 57.531)" class="st2 st3 st4">12</text>
	<text transform="matrix(1 0 0 1 274.9381 57.531)" class="st2 st3 st4">13</text>
	<text transform="matrix(1 0 0 1 297.4518 57.531)" class="st2 st3 st4">14</text>
	<text transform="matrix(1 0 0 1 320.1266 57.531)" class="st2 st3 st4">15</text>
	<text transform="matrix(1 0 0 1 342.4488 57.531)" class="st2 st3 st4">16</text>
	<text transform="matrix(1 0 0 1 164.4 10.2195)" class="st2 st3 st4">1</text>
	<text transform="matrix(1 0 0 1 186.4615 10.2195)" class="st2 st3 st4">2</text>
	<text transform="matrix(1 0 0 1 209.0367 10.2195)" class="st2 st3 st4">3</text>
	<text transform="matrix(1 0 0 1 231.5514 10.2195)" class="st2 st3 st4">4</text>
	<text transform="matrix(1 0 0 1 254.2252 10.2195)" class="st2 st3 st4">5</text>
	<text transform="matrix(1 0 0 1 276.5475 10.2195)" class="st2 st3 st4">6</text>
	<text transform="matrix(1 0 0 1 299.5738 10.2195)" class="st2 st3 st4">7</text>
	<text transform="matrix(1 0 0 1 321.7643 10.2195)" class="st2 st3 st4">8</text>
	<text transform="matrix(1 0 0 1 344.2584 10.2195)" class="st2 st3 st4">9</text>
	<text transform="matrix(1 0 0 1 364.9068 10.2195)" class="st2 st3 st4">10</text>
	<text transform="matrix(1 0 0 1 388.3893 10.2195)" class="st2 st3 st4">11</text>
	<text transform="matrix(1 0 0 1 410.4518 10.2195)" class="st2 st3 st4">12</text>
	<text transform="matrix(1 0 0 1 433.026 10.2195)" class="st2 st3 st4">13</text>
	<text transform="matrix(1 0 0 1 455.5396 10.2195)" class="st2 st3 st4">14</text>
	<text transform="matrix(1 0 0 1 478.2144 10.2195)" class="st2 st3 st4">15</text>
	<text transform="matrix(1 0 0 1 500.5367 10.2195)" class="st2 st3 st4">16</text>
	<text transform="matrix(1 0 0 1 365.3902 57.531)" class="st2 st3 st4">17</text>
	<text transform="matrix(1 0 0 1 387.692 57.531)" class="st2 st3 st4">18</text>
	<text transform="matrix(1 0 0 1 523.4772 10.6364)" class="st2 st3 st4">17</text>
	<text transform="matrix(1 0 0 1 545.7789 10.6364)" class="st2 st3 st4">18</text>
	<text transform="matrix(1 0 0 1 410.2154 57.531)" class="st2 st3 st4">19</text>
	<text transform="matrix(1 0 0 1 432.2047 57.531)" class="st2 st3 st4">20</text>
	<text transform="matrix(1 0 0 1 455.565 57.531)" class="st2 st3 st4">21</text>
	<text transform="matrix(1 0 0 1 477.9322 57.531)" class="st2 st3 st4">22</text>
	<text transform="matrix(1 0 0 1 500.2281 57.531)" class="st2 st3 st4">23</text>
	<text transform="matrix(1 0 0 1 522.7545 57.531)" class="st2 st3 st4">24</text>
	<text transform="matrix(1 0 0 1 6.3131 80.1784)" class="st2 st3 st4">1</text>
	<text transform="matrix(1 0 0 1 28.3746 80.1784)" class="st2 st3 st4">2</text>
	<text transform="matrix(1 0 0 1 50.9488 80.1784)" class="st2 st3 st4">3</text>
	<text transform="matrix(1 0 0 1 73.4635 80.1784)" class="st2 st3 st4">4</text>
	<text transform="matrix(1 0 0 1 96.1373 80.1784)" class="st2 st3 st4">5</text>
	<text transform="matrix(1 0 0 1 118.4596 80.1784)" class="st2 st3 st4">6</text>
	<text transform="matrix(1 0 0 1 141.4859 80.1784)" class="st2 st3 st4">7</text>
	<text transform="matrix(1 0 0 1 163.6764 80.1784)" class="st2 st3 st4">8</text>
	<text transform="matrix(1 0 0 1 186.1705 80.1784)" class="st2 st3 st4">9</text>
	<text transform="matrix(1 0 0 1 206.8199 80.1784)" class="st2 st3 st4">10</text>
	<text transform="matrix(1 0 0 1 230.3024 80.1784)" class="st2 st3 st4">11</text>
	<text transform="matrix(1 0 0 1 252.3649 80.1784)" class="st2 st3 st4">12</text>
	<text transform="matrix(1 0 0 1 274.9381 80.1784)" class="st2 st3 st4">13</text>
	<text transform="matrix(1 0 0 1 297.4518 80.1784)" class="st2 st3 st4">14</text>
	<text transform="matrix(1 0 0 1 320.1266 80.1784)" class="st2 st3 st4">15</text>
	<text transform="matrix(1 0 0 1 342.4488 80.1784)" class="st2 st3 st4">16</text>
	<text transform="matrix(1 0 0 1 365.3902 80.1784)" class="st2 st3 st4">17</text>
	<text transform="matrix(1 0 0 1 387.692 80.1784)" class="st2 st3 st4">18</text>
	<text transform="matrix(1 0 0 1 410.2154 80.1784)" class="st2 st3 st4">19</text>
	<text transform="matrix(1 0 0 1 432.2047 80.1784)" class="st2 st3 st4">20</text>
	<text transform="matrix(1 0 0 1 455.565 80.1784)" class="st2 st3 st4">21</text>
	<text transform="matrix(1 0 0 1 477.9322 80.1784)" class="st2 st3 st4">22</text>
	<text transform="matrix(1 0 0 1 500.2281 80.1784)" class="st2 st3 st4">23</text>
	<text transform="matrix(1 0 0 1 522.7545 80.1784)" class="st2 st3 st4">24</text>
	<text transform="matrix(1 0 0 1 545.444 80.1784)" class="st2 st3 st4">25</text>
	<text transform="matrix(1 0 0 1 545.444 57.948)" class="st2 st3 st4">25</text>
	<text transform="matrix(1 0 0 1 28.8971 102.4343)" class="st2 st3 st4">1</text>
	<text transform="matrix(1 0 0 1 50.9586 102.4343)" class="st2 st3 st4">2</text>
	<text transform="matrix(1 0 0 1 73.5328 102.4343)" class="st2 st3 st4">3</text>
	<text transform="matrix(1 0 0 1 96.0475 102.4343)" class="st2 st3 st4">4</text>
	<text transform="matrix(1 0 0 1 118.7213 102.4343)" class="st2 st3 st4">5</text>
	<text transform="matrix(1 0 0 1 141.0436 102.4343)" class="st2 st3 st4">6</text>
	<text transform="matrix(1 0 0 1 164.0699 102.4343)" class="st2 st3 st4">7</text>
	<text transform="matrix(1 0 0 1 186.2604 102.4343)" class="st2 st3 st4">8</text>
	<text transform="matrix(1 0 0 1 208.7545 102.4343)" class="st2 st3 st4">9</text>
	<text transform="matrix(1 0 0 1 229.4049 102.4343)" class="st2 st3 st4">10</text>
	<text transform="matrix(1 0 0 1 252.8873 102.4343)" class="st2 st3 st4">11</text>
	<text transform="matrix(1 0 0 1 274.9498 102.4343)" class="st2 st3 st4">12</text>
	<text transform="matrix(1 0 0 1 297.5221 102.4343)" class="st2 st3 st4">13</text>
	<text transform="matrix(1 0 0 1 320.0357 102.4343)" class="st2 st3 st4">14</text>
	<text transform="matrix(1 0 0 1 342.7105 102.4343)" class="st2 st3 st4">15</text>
	<text transform="matrix(1 0 0 1 365.0328 102.4343)" class="st2 st3 st4">16</text>
	<text transform="matrix(1 0 0 1 387.9752 102.4343)" class="st2 st3 st4">17</text>
	<text transform="matrix(1 0 0 1 410.2769 102.4343)" class="st2 st3 st4">18</text>
	<text transform="matrix(1 0 0 1 432.8004 102.4343)" class="st2 st3 st4">19</text>
	<text transform="matrix(1 0 0 1 454.7896 102.4343)" class="st2 st3 st4">20</text>
	<text transform="matrix(1 0 0 1 478.149 102.4343)" class="st2 st3 st4">21</text>
	<text transform="matrix(1 0 0 1 500.5162 102.4343)" class="st2 st3 st4">22</text>
	<text transform="matrix(1 0 0 1 522.8121 102.4343)" class="st2 st3 st4">23</text>
	<text transform="matrix(1 0 0 1 545.3395 102.4343)" class="st2 st3 st4">24</text>
	<text transform="matrix(1 0 0 1 51.6158 125.321)" class="st2 st3 st4">1</text>
	<text transform="matrix(1 0 0 1 73.6774 125.321)" class="st2 st3 st4">2</text>
	<text transform="matrix(1 0 0 1 96.2516 125.321)" class="st2 st3 st4">3</text>
	<text transform="matrix(1 0 0 1 118.7662 125.321)" class="st2 st3 st4">4</text>
	<text transform="matrix(1 0 0 1 141.44 125.321)" class="st2 st3 st4">5</text>
	<text transform="matrix(1 0 0 1 163.7623 125.321)" class="st2 st3 st4">6</text>
	<text transform="matrix(1 0 0 1 186.7887 125.321)" class="st2 st3 st4">7</text>
	<text transform="matrix(1 0 0 1 208.9791 125.321)" class="st2 st3 st4">8</text>
	<text transform="matrix(1 0 0 1 231.4733 125.321)" class="st2 st3 st4">9</text>
	<text transform="matrix(1 0 0 1 252.1227 125.321)" class="st2 st3 st4">10</text>
	<text transform="matrix(1 0 0 1 275.6051 125.321)" class="st2 st3 st4">11</text>
	<text transform="matrix(1 0 0 1 297.6676 125.321)" class="st2 st3 st4">12</text>
	<text transform="matrix(1 0 0 1 320.2408 125.321)" class="st2 st3 st4">13</text>
	<text transform="matrix(1 0 0 1 342.7545 125.321)" class="st2 st3 st4">14</text>
	<text transform="matrix(1 0 0 1 365.4293 125.321)" class="st2 st3 st4">15</text>
	<text transform="matrix(1 0 0 1 387.7516 125.321)" class="st2 st3 st4">16</text>
	<text transform="matrix(1 0 0 1 410.693 125.321)" class="st2 st3 st4">17</text>
	<text transform="matrix(1 0 0 1 432.9947 125.321)" class="st2 st3 st4">18</text>
	<text transform="matrix(1 0 0 1 455.5182 125.321)" class="st2 st3 st4">19</text>
	<text transform="matrix(1 0 0 1 477.5074 125.321)" class="st2 st3 st4">20</text>
	<text transform="matrix(1 0 0 1 500.8678 125.321)" class="st2 st3 st4">21</text>
	<text transform="matrix(1 0 0 1 523.235 125.321)" class="st2 st3 st4">22</text>
	<text transform="matrix(1 0 0 1 545.5309 125.321)" class="st2 st3 st4">23</text>
	<text transform="matrix(1 0 0 1 51.6158 147.0857)" class="st2 st3 st4">1</text>
	<text transform="matrix(1 0 0 1 73.6774 147.0857)" class="st2 st3 st4">2</text>
	<text transform="matrix(1 0 0 1 96.2516 147.0857)" class="st2 st3 st4">3</text>
	<text transform="matrix(1 0 0 1 118.7662 147.0857)" class="st2 st3 st4">4</text>
	<text transform="matrix(1 0 0 1 141.44 147.0857)" class="st2 st3 st4">5</text>
	<text transform="matrix(1 0 0 1 163.7623 147.0857)" class="st2 st3 st4">6</text>
	<text transform="matrix(1 0 0 1 186.7887 147.0857)" class="st2 st3 st4">7</text>
	<text transform="matrix(1 0 0 1 208.9791 147.0857)" class="st2 st3 st4">8</text>
	<text transform="matrix(1 0 0 1 231.4733 147.0857)" class="st2 st3 st4">9</text>
	<text transform="matrix(1 0 0 1 252.1227 147.0857)" class="st2 st3 st4">10</text>
	<text transform="matrix(1 0 0 1 275.6051 147.0857)" class="st2 st3 st4">11</text>
	<text transform="matrix(1 0 0 1 297.6676 147.0857)" class="st2 st3 st4">12</text>
	<text transform="matrix(1 0 0 1 320.2408 147.0857)" class="st2 st3 st4">13</text>
	<text transform="matrix(1 0 0 1 342.7545 147.0857)" class="st2 st3 st4">14</text>
	<text transform="matrix(1 0 0 1 365.4293 147.0857)" class="st2 st3 st4">15</text>
	<text transform="matrix(1 0 0 1 387.7516 147.0857)" class="st2 st3 st4">16</text>
	<text transform="matrix(1 0 0 1 410.693 147.0857)" class="st2 st3 st4">17</text>
	<text transform="matrix(1 0 0 1 432.9947 147.0857)" class="st2 st3 st4">18</text>
	<text transform="matrix(1 0 0 1 455.5182 147.0857)" class="st2 st3 st4">19</text>
	<text transform="matrix(1 0 0 1 477.5074 147.0857)" class="st2 st3 st4">20</text>
	<text transform="matrix(1 0 0 1 500.8678 147.0857)" class="st2 st3 st4">21</text>
	<text transform="matrix(1 0 0 1 523.235 147.0857)" class="st2 st3 st4">22</text>
	<text transform="matrix(1 0 0 1 545.5309 147.0857)" class="st2 st3 st4">23</text>
	<text transform="matrix(1 0 0 1 73.9068 169.4392)" class="st2 st3 st4">1</text>
	<text transform="matrix(1 0 0 1 95.9684 169.4392)" class="st2 st3 st4">2</text>
	<text transform="matrix(1 0 0 1 118.5426 169.4392)" class="st2 st3 st4">3</text>
	<text transform="matrix(1 0 0 1 141.0572 169.4392)" class="st2 st3 st4">4</text>
	<text transform="matrix(1 0 0 1 163.7311 169.4392)" class="st2 st3 st4">5</text>
	<text transform="matrix(1 0 0 1 186.0533 169.4392)" class="st2 st3 st4">6</text>
	<text transform="matrix(1 0 0 1 209.0797 169.4392)" class="st2 st3 st4">7</text>
	<text transform="matrix(1 0 0 1 231.2701 169.4392)" class="st2 st3 st4">8</text>
	<text transform="matrix(1 0 0 1 253.7643 169.4392)" class="st2 st3 st4">9</text>
	<text transform="matrix(1 0 0 1 274.4146 169.4392)" class="st2 st3 st4">10</text>
	<text transform="matrix(1 0 0 1 297.8971 169.4392)" class="st2 st3 st4">11</text>
	<text transform="matrix(1 0 0 1 319.9596 169.4392)" class="st2 st3 st4">12</text>
	<text transform="matrix(1 0 0 1 342.5318 169.4392)" class="st2 st3 st4">13</text>
	<text transform="matrix(1 0 0 1 365.0455 169.4392)" class="st2 st3 st4">14</text>
	<text transform="matrix(1 0 0 1 387.7203 169.4392)" class="st2 st3 st4">15</text>
	<text transform="matrix(1 0 0 1 410.0426 169.4392)" class="st2 st3 st4">16</text>
	<text transform="matrix(1 0 0 1 432.985 169.4392)" class="st2 st3 st4">17</text>
	<text transform="matrix(1 0 0 1 455.2867 169.4392)" class="st2 st3 st4">18</text>
	<text transform="matrix(1 0 0 1 477.8102 169.4392)" class="st2 st3 st4">19</text>
	<text transform="matrix(1 0 0 1 499.7994 169.4392)" class="st2 st3 st4">20</text>
	<text transform="matrix(1 0 0 1 523.1588 169.4392)" class="st2 st3 st4">21</text>
	<text transform="matrix(1 0 0 1 545.526 169.4392)" class="st2 st3 st4">22</text>
	<text transform="matrix(1 0 0 1 96.9186 192.07)" class="st2 st3 st4">1</text>
	<text transform="matrix(1 0 0 1 118.7096 192.07)" class="st2 st3 st4">2</text>
	<text transform="matrix(1 0 0 1 141.2838 192.07)" class="st2 st3 st4">3</text>
	<text transform="matrix(1 0 0 1 163.7984 192.07)" class="st2 st3 st4">4</text>
	<text transform="matrix(1 0 0 1 186.4723 192.07)" class="st2 st3 st4">5</text>
	<text transform="matrix(1 0 0 1 208.7945 192.07)" class="st2 st3 st4">6</text>
	<text transform="matrix(1 0 0 1 231.8209 192.07)" class="st2 st3 st4">7</text>
	<text transform="matrix(1 0 0 1 254.0113 192.07)" class="st2 st3 st4">8</text>
	<text transform="matrix(1 0 0 1 276.5055 192.07)" class="st2 st3 st4">9</text>
	<text transform="matrix(1 0 0 1 297.1549 192.07)" class="st2 st3 st4">10</text>
	<text transform="matrix(1 0 0 1 320.6373 192.07)" class="st2 st3 st4">11</text>
	<text transform="matrix(1 0 0 1 342.6998 192.07)" class="st2 st3 st4">12</text>
	<text transform="matrix(1 0 0 1 365.273 192.07)" class="st2 st3 st4">13</text>
	<text transform="matrix(1 0 0 1 387.7867 192.07)" class="st2 st3 st4">14</text>
	<text transform="matrix(1 0 0 1 410.4615 192.07)" class="st2 st3 st4">15</text>
	<text transform="matrix(1 0 0 1 432.7838 192.07)" class="st2 st3 st4">16</text>
	<text transform="matrix(1 0 0 1 455.7252 192.07)" class="st2 st3 st4">17</text>
	<text transform="matrix(1 0 0 1 478.0269 192.07)" class="st2 st3 st4">18</text>
	<text transform="matrix(1 0 0 1 500.5504 192.07)" class="st2 st3 st4">19</text>
	<text transform="matrix(1 0 0 1 522.5397 192.07)" class="st2 st3 st4">20</text>
	<text transform="matrix(1 0 0 1 545.9 192.07)" class="st2 st3 st4">21</text>
	<text transform="matrix(1 0 0 1 96.4772 215.2282)" class="st2 st3 st4">1</text>
	<text transform="matrix(1 0 0 1 118.7096 215.2282)" class="st2 st3 st4">2</text>
	<text transform="matrix(1 0 0 1 141.2838 215.2282)" class="st2 st3 st4">3</text>
	<text transform="matrix(1 0 0 1 163.7984 215.2282)" class="st2 st3 st4">4</text>
	<text transform="matrix(1 0 0 1 186.4723 215.2282)" class="st2 st3 st4">5</text>
	<text transform="matrix(1 0 0 1 208.7945 215.2282)" class="st2 st3 st4">6</text>
	<text transform="matrix(1 0 0 1 231.8209 215.2282)" class="st2 st3 st4">7</text>
	<text transform="matrix(1 0 0 1 254.0113 215.2282)" class="st2 st3 st4">8</text>
	<text transform="matrix(1 0 0 1 276.5055 215.2282)" class="st2 st3 st4">9</text>
	<text transform="matrix(1 0 0 1 297.1549 215.2282)" class="st2 st3 st4">10</text>
	<text transform="matrix(1 0 0 1 320.6373 215.2282)" class="st2 st3 st4">11</text>
	<text transform="matrix(1 0 0 1 342.6998 215.2282)" class="st2 st3 st4">12</text>
	<text transform="matrix(1 0 0 1 365.273 215.2282)" class="st2 st3 st4">13</text>
	<text transform="matrix(1 0 0 1 387.7867 215.2282)" class="st2 st3 st4">14</text>
	<text transform="matrix(1 0 0 1 410.4615 215.2282)" class="st2 st3 st4">15</text>
	<text transform="matrix(1 0 0 1 432.7838 215.2282)" class="st2 st3 st4">16</text>
	<text transform="matrix(1 0 0 1 455.7252 215.2282)" class="st2 st3 st4">17</text>
	<text transform="matrix(1 0 0 1 478.0269 215.2282)" class="st2 st3 st4">18</text>
	<text transform="matrix(1 0 0 1 500.5504 215.2282)" class="st2 st3 st4">19</text>
	<text transform="matrix(1 0 0 1 522.5397 215.2282)" class="st2 st3 st4">20</text>
	<text transform="matrix(1 0 0 1 545.9 215.2282)" class="st2 st3 st4">21</text>
	<text transform="matrix(1 0 0 1 119.0475 238.6071)" class="st2 st3 st4">1</text>
	<text transform="matrix(1 0 0 1 141.2916 238.6071)" class="st2 st3 st4">2</text>
	<text transform="matrix(1 0 0 1 163.8658 238.6071)" class="st2 st3 st4">3</text>
	<text transform="matrix(1 0 0 1 186.3805 238.6071)" class="st2 st3 st4">4</text>
	<text transform="matrix(1 0 0 1 209.0553 238.6071)" class="st2 st3 st4">5</text>
	<text transform="matrix(1 0 0 1 231.3775 238.6071)" class="st2 st3 st4">6</text>
	<text transform="matrix(1 0 0 1 254.4039 238.6071)" class="st2 st3 st4">7</text>
	<text transform="matrix(1 0 0 1 276.5943 238.6071)" class="st2 st3 st4">8</text>
	<text transform="matrix(1 0 0 1 299.0885 238.6071)" class="st2 st3 st4">9</text>
	<text transform="matrix(1 0 0 1 319.7369 238.6071)" class="st2 st3 st4">10</text>
	<text transform="matrix(1 0 0 1 343.2193 238.6071)" class="st2 st3 st4">11</text>
	<text transform="matrix(1 0 0 1 365.2818 238.6071)" class="st2 st3 st4">12</text>
	<text transform="matrix(1 0 0 1 387.856 238.6071)" class="st2 st3 st4">13</text>
	<text transform="matrix(1 0 0 1 410.3697 238.6071)" class="st2 st3 st4">14</text>
	<text transform="matrix(1 0 0 1 433.0445 238.6071)" class="st2 st3 st4">15</text>
	<text transform="matrix(1 0 0 1 455.3668 238.6071)" class="st2 st3 st4">16</text>
	<text transform="matrix(1 0 0 1 478.3072 238.6071)" class="st2 st3 st4">17</text>
	<text transform="matrix(1 0 0 1 500.609 238.6071)" class="st2 st3 st4">18</text>
	<text transform="matrix(1 0 0 1 523.1324 238.6071)" class="st2 st3 st4">19</text>
	<text transform="matrix(1 0 0 1 545.1217 238.6071)" class="st2 st3 st4">20</text>
	<text transform="matrix(1 0 0 1 142.0777 261.1462)" class="st2 st3 st4">1</text>
	<text transform="matrix(1 0 0 1 163.8629 261.2546)" class="st2 st3 st4">2</text>
	<text transform="matrix(1 0 0 1 186.4371 261.2546)" class="st2 st3 st4">3</text>
	<text transform="matrix(1 0 0 1 208.9518 261.2546)" class="st2 st3 st4">4</text>
	<text transform="matrix(1 0 0 1 231.6256 261.2546)" class="st2 st3 st4">5</text>
	<text transform="matrix(1 0 0 1 253.9479 261.2546)" class="st2 st3 st4">6</text>
	<text transform="matrix(1 0 0 1 276.9742 261.2546)" class="st2 st3 st4">7</text>
	<text transform="matrix(1 0 0 1 299.1646 261.2546)" class="st2 st3 st4">8</text>
	<text transform="matrix(1 0 0 1 321.6588 261.2546)" class="st2 st3 st4">9</text>
	<text transform="matrix(1 0 0 1 342.3082 261.2546)" class="st2 st3 st4">10</text>
	<text transform="matrix(1 0 0 1 365.7906 261.2546)" class="st2 st3 st4">11</text>
	<text transform="matrix(1 0 0 1 387.8531 261.2546)" class="st2 st3 st4">12</text>
	<text transform="matrix(1 0 0 1 410.4264 261.2546)" class="st2 st3 st4">13</text>
	<text transform="matrix(1 0 0 1 432.94 261.2546)" class="st2 st3 st4">14</text>
	<text transform="matrix(1 0 0 1 455.6148 261.2546)" class="st2 st3 st4">15</text>
	<text transform="matrix(1 0 0 1 477.9371 261.2546)" class="st2 st3 st4">16</text>
	<text transform="matrix(1 0 0 1 500.8785 261.2546)" class="st2 st3 st4">17</text>
	<text transform="matrix(1 0 0 1 523.1803 261.2546)" class="st2 st3 st4">18</text>
	<text transform="matrix(1 0 0 1 545.7037 261.2546)" class="st2 st3 st4">19</text>
	<text transform="matrix(1 0 0 1 142.0777 283.4021)" class="st2 st3 st4">1</text>
	<text transform="matrix(1 0 0 1 163.8629 283.5105)" class="st2 st3 st4">2</text>
	<text transform="matrix(1 0 0 1 186.4371 283.5105)" class="st2 st3 st4">3</text>
	<text transform="matrix(1 0 0 1 208.9518 283.5105)" class="st2 st3 st4">4</text>
	<text transform="matrix(1 0 0 1 231.6256 283.5105)" class="st2 st3 st4">5</text>
	<text transform="matrix(1 0 0 1 253.9479 283.5105)" class="st2 st3 st4">6</text>
	<text transform="matrix(1 0 0 1 276.9742 283.5105)" class="st2 st3 st4">7</text>
	<text transform="matrix(1 0 0 1 299.1646 283.5105)" class="st2 st3 st4">8</text>
	<text transform="matrix(1 0 0 1 321.6588 283.5105)" class="st2 st3 st4">9</text>
	<text transform="matrix(1 0 0 1 342.3082 283.5105)" class="st2 st3 st4">10</text>
	<text transform="matrix(1 0 0 1 365.7906 283.5105)" class="st2 st3 st4">11</text>
	<text transform="matrix(1 0 0 1 387.8531 283.5105)" class="st2 st3 st4">12</text>
	<text transform="matrix(1 0 0 1 410.4264 283.5105)" class="st2 st3 st4">13</text>
	<text transform="matrix(1 0 0 1 432.94 283.5105)" class="st2 st3 st4">14</text>
	<text transform="matrix(1 0 0 1 455.6148 283.5105)" class="st2 st3 st4">15</text>
	<text transform="matrix(1 0 0 1 477.9371 283.5105)" class="st2 st3 st4">16</text>
	<text transform="matrix(1 0 0 1 500.8785 283.5105)" class="st2 st3 st4">17</text>
	<text transform="matrix(1 0 0 1 523.1803 283.5105)" class="st2 st3 st4">18</text>
	<text transform="matrix(1 0 0 1 545.7037 283.5105)" class="st2 st3 st4">19</text>
	<text transform="matrix(1 0 0 1 164.6783 306.3972)" class="st2 st3 st4">1</text>
	<text transform="matrix(1 0 0 1 186.4625 306.3972)" class="st2 st3 st4">2</text>
	<text transform="matrix(1 0 0 1 209.0367 306.3972)" class="st2 st3 st4">3</text>
	<text transform="matrix(1 0 0 1 231.5514 306.3972)" class="st2 st3 st4">4</text>
	<text transform="matrix(1 0 0 1 254.2252 306.3972)" class="st2 st3 st4">5</text>
	<text transform="matrix(1 0 0 1 276.5475 306.3972)" class="st2 st3 st4">6</text>
	<text transform="matrix(1 0 0 1 299.5738 306.3972)" class="st2 st3 st4">7</text>
	<text transform="matrix(1 0 0 1 321.7643 306.3972)" class="st2 st3 st4">8</text>
	<text transform="matrix(1 0 0 1 344.2584 306.3972)" class="st2 st3 st4">9</text>
	<text transform="matrix(1 0 0 1 364.9078 306.3972)" class="st2 st3 st4">10</text>
	<text transform="matrix(1 0 0 1 388.3902 306.3972)" class="st2 st3 st4">11</text>
	<text transform="matrix(1 0 0 1 410.4527 306.3972)" class="st2 st3 st4">12</text>
	<text transform="matrix(1 0 0 1 433.026 306.3972)" class="st2 st3 st4">13</text>
	<text transform="matrix(1 0 0 1 455.5396 306.3972)" class="st2 st3 st4">14</text>
	<text transform="matrix(1 0 0 1 478.2144 306.3972)" class="st2 st3 st4">15</text>
	<text transform="matrix(1 0 0 1 500.5367 306.3972)" class="st2 st3 st4">16</text>
	<text transform="matrix(1 0 0 1 523.4781 306.3972)" class="st2 st3 st4">17</text>
	<text transform="matrix(1 0 0 1 545.7799 306.3972)" class="st2 st3 st4">18</text>
	<text transform="matrix(1 0 0 1 164.6783 328.1618)" class="st2 st3 st4">1</text>
	<text transform="matrix(1 0 0 1 186.4625 328.1618)" class="st2 st3 st4">2</text>
	<text transform="matrix(1 0 0 1 209.0367 328.1618)" class="st2 st3 st4">3</text>
	<text transform="matrix(1 0 0 1 231.5514 328.1618)" class="st2 st3 st4">4</text>
	<text transform="matrix(1 0 0 1 254.2252 328.1618)" class="st2 st3 st4">5</text>
	<text transform="matrix(1 0 0 1 276.5475 328.1618)" class="st2 st3 st4">6</text>
	<text transform="matrix(1 0 0 1 299.5738 328.1618)" class="st2 st3 st4">7</text>
	<text transform="matrix(1 0 0 1 321.7643 328.1618)" class="st2 st3 st4">8</text>
	<text transform="matrix(1 0 0 1 344.2584 328.1618)" class="st2 st3 st4">9</text>
	<text transform="matrix(1 0 0 1 364.9078 328.1618)" class="st2 st3 st4">10</text>
	<text transform="matrix(1 0 0 1 388.3902 328.1618)" class="st2 st3 st4">11</text>
	<text transform="matrix(1 0 0 1 410.4527 328.1618)" class="st2 st3 st4">12</text>
	<text transform="matrix(1 0 0 1 433.026 328.1618)" class="st2 st3 st4">13</text>
	<text transform="matrix(1 0 0 1 455.5396 328.1618)" class="st2 st3 st4">14</text>
	<text transform="matrix(1 0 0 1 478.2144 328.1618)" class="st2 st3 st4">15</text>
	<text transform="matrix(1 0 0 1 500.5367 328.1618)" class="st2 st3 st4">16</text>
	<text transform="matrix(1 0 0 1 523.4781 328.1618)" class="st2 st3 st4">17</text>
	<text transform="matrix(1 0 0 1 545.7799 328.1618)" class="st2 st3 st4">18</text>
	<text transform="matrix(1 0 0 1 186.7584 350.5154)" class="st2 st3 st4">1</text>
	<text transform="matrix(1 0 0 1 209.1441 350.5154)" class="st2 st3 st4">2</text>
	<text transform="matrix(1 0 0 1 231.7184 350.5154)" class="st2 st3 st4">3</text>
	<text transform="matrix(1 0 0 1 254.233 350.5154)" class="st2 st3 st4">4</text>
	<text transform="matrix(1 0 0 1 276.9068 350.5154)" class="st2 st3 st4">5</text>
	<text transform="matrix(1 0 0 1 299.2291 350.5154)" class="st2 st3 st4">6</text>
	<text transform="matrix(1 0 0 1 322.2555 350.5154)" class="st2 st3 st4">7</text>
	<text transform="matrix(1 0 0 1 344.4459 350.5154)" class="st2 st3 st4">8</text>
	<text transform="matrix(1 0 0 1 366.94 350.5154)" class="st2 st3 st4">9</text>
	<text transform="matrix(1 0 0 1 387.5894 350.5154)" class="st2 st3 st4">10</text>
	<text transform="matrix(1 0 0 1 411.0719 350.5154)" class="st2 st3 st4">11</text>
	<text transform="matrix(1 0 0 1 433.1344 350.5154)" class="st2 st3 st4">12</text>
	<text transform="matrix(1 0 0 1 455.7076 350.5154)" class="st2 st3 st4">13</text>
	<text transform="matrix(1 0 0 1 478.2213 350.5154)" class="st2 st3 st4">14</text>
	<text transform="matrix(1 0 0 1 500.8961 350.5154)" class="st2 st3 st4">15</text>
	<text transform="matrix(1 0 0 1 523.2184 350.5154)" class="st2 st3 st4">16</text>
	<text transform="matrix(1 0 0 1 546.1598 350.5154)" class="st2 st3 st4">17</text>
	<text transform="matrix(1 0 0 1 209.6422 373.1462)" class="st2 st3 st4">1</text>
	<text transform="matrix(1 0 0 1 231.7643 373.1462)" class="st2 st3 st4">2</text>
	<text transform="matrix(1 0 0 1 254.3385 373.1462)" class="st2 st3 st4">3</text>
	<text transform="matrix(1 0 0 1 276.8531 373.1462)" class="st2 st3 st4">4</text>
	<text transform="matrix(1 0 0 1 299.5269 373.1462)" class="st2 st3 st4">5</text>
	<text transform="matrix(1 0 0 1 321.8492 373.1462)" class="st2 st3 st4">6</text>
	<text transform="matrix(1 0 0 1 344.8756 373.1462)" class="st2 st3 st4">7</text>
	<text transform="matrix(1 0 0 1 367.066 373.1462)" class="st2 st3 st4">8</text>
	<text transform="matrix(1 0 0 1 389.5602 373.1462)" class="st2 st3 st4">9</text>
	<text transform="matrix(1 0 0 1 410.2096 373.1462)" class="st2 st3 st4">10</text>
	<text transform="matrix(1 0 0 1 433.692 373.1462)" class="st2 st3 st4">11</text>
	<text transform="matrix(1 0 0 1 455.7545 373.1462)" class="st2 st3 st4">12</text>
	<text transform="matrix(1 0 0 1 478.3277 373.1462)" class="st2 st3 st4">13</text>
	<text transform="matrix(1 0 0 1 500.8414 373.1462)" class="st2 st3 st4">14</text>
	<text transform="matrix(1 0 0 1 523.5162 373.1462)" class="st2 st3 st4">15</text>
	<text transform="matrix(1 0 0 1 545.8385 373.1462)" class="st2 st3 st4">16</text>
	<text transform="matrix(1 0 0 1 209.6608 396.3044)" class="st2 st3 st4">1</text>
	<text transform="matrix(1 0 0 1 231.7828 396.3044)" class="st2 st3 st4">2</text>
	<text transform="matrix(1 0 0 1 254.357 396.3044)" class="st2 st3 st4">3</text>
	<text transform="matrix(1 0 0 1 276.8717 396.3044)" class="st2 st3 st4">4</text>
	<text transform="matrix(1 0 0 1 299.5455 396.3044)" class="st2 st3 st4">5</text>
	<text transform="matrix(1 0 0 1 321.8678 396.3044)" class="st2 st3 st4">6</text>
	<text transform="matrix(1 0 0 1 344.8941 396.3044)" class="st2 st3 st4">7</text>
	<text transform="matrix(1 0 0 1 367.0846 396.3044)" class="st2 st3 st4">8</text>
	<text transform="matrix(1 0 0 1 389.5787 396.3044)" class="st2 st3 st4">9</text>
	<text transform="matrix(1 0 0 1 410.2281 396.3044)" class="st2 st3 st4">10</text>
	<text transform="matrix(1 0 0 1 433.7105 396.3044)" class="st2 st3 st4">11</text>
	<text transform="matrix(1 0 0 1 455.773 396.3044)" class="st2 st3 st4">12</text>
	<text transform="matrix(1 0 0 1 478.3463 396.3044)" class="st2 st3 st4">13</text>
	<text transform="matrix(1 0 0 1 500.86 396.3044)" class="st2 st3 st4">14</text>
	<text transform="matrix(1 0 0 1 523.5348 396.3044)" class="st2 st3 st4">15</text>
	<text transform="matrix(1 0 0 1 545.8571 396.3044)" class="st2 st3 st4">16</text>
	<text transform="matrix(1 0 0 1 232.569 418.3718)" class="st2 st3 st4">1</text>
	<text transform="matrix(1 0 0 1 254.3531 418.3718)" class="st2 st3 st4">2</text>
	<text transform="matrix(1 0 0 1 276.9273 418.3718)" class="st2 st3 st4">3</text>
	<text transform="matrix(1 0 0 1 299.442 418.3718)" class="st2 st3 st4">4</text>
	<text transform="matrix(1 0 0 1 322.1158 418.3718)" class="st2 st3 st4">5</text>
	<text transform="matrix(1 0 0 1 344.4381 418.3718)" class="st2 st3 st4">6</text>
	<text transform="matrix(1 0 0 1 367.4644 418.3718)" class="st2 st3 st4">7</text>
	<text transform="matrix(1 0 0 1 389.6549 418.3718)" class="st2 st3 st4">8</text>
	<text transform="matrix(1 0 0 1 412.149 418.3718)" class="st2 st3 st4">9</text>
	<text transform="matrix(1 0 0 1 432.7984 418.3718)" class="st2 st3 st4">10</text>
	<text transform="matrix(1 0 0 1 456.2809 418.3718)" class="st2 st3 st4">11</text>
	<text transform="matrix(1 0 0 1 478.3434 418.3718)" class="st2 st3 st4">12</text>
	<text transform="matrix(1 0 0 1 500.9166 418.3718)" class="st2 st3 st4">13</text>
	<text transform="matrix(1 0 0 1 523.4303 418.3718)" class="st2 st3 st4">14</text>
	<text transform="matrix(1 0 0 1 546.1051 418.3718)" class="st2 st3 st4">15</text>
	<text transform="matrix(1 0 0 1 254.4684 441.8259)" class="st2 st3 st4">1</text>
	<text transform="matrix(1 0 0 1 276.7965 441.8259)" class="st2 st3 st4">2</text>
	<text transform="matrix(1 0 0 1 299.3707 441.8259)" class="st2 st3 st4">3</text>
	<text transform="matrix(1 0 0 1 321.8853 441.8259)" class="st2 st3 st4">4</text>
	<text transform="matrix(1 0 0 1 344.5592 441.8259)" class="st2 st3 st4">5</text>
	<text transform="matrix(1 0 0 1 366.8814 441.8259)" class="st2 st3 st4">6</text>
	<text transform="matrix(1 0 0 1 389.9078 441.8259)" class="st2 st3 st4">7</text>
	<text transform="matrix(1 0 0 1 412.0982 441.8259)" class="st2 st3 st4">8</text>
	<text transform="matrix(1 0 0 1 434.5924 441.8259)" class="st2 st3 st4">9</text>
	<text transform="matrix(1 0 0 1 455.2418 441.8259)" class="st2 st3 st4">10</text>
	<text transform="matrix(1 0 0 1 478.7242 441.8259)" class="st2 st3 st4">11</text>
	<text transform="matrix(1 0 0 1 500.7867 441.8259)" class="st2 st3 st4">12</text>
	<text transform="matrix(1 0 0 1 523.36 441.8259)" class="st2 st3 st4">13</text>
	<text transform="matrix(1 0 0 1 545.8737 441.8259)" class="st2 st3 st4">14</text>
</g>
<g>
	<text transform="matrix(1 0 0 1 617.9283 56.0075)" class="st5 st6 st7">29</text>
	<text transform="matrix(1 0 0 1 617.9283 11.6364)" class="st5 st6 st7">30</text>
	<text transform="matrix(1 0 0 1 617.9283 101.5036)" class="st5 st6 st7">27</text>
	<text transform="matrix(1 0 0 1 617.9283 78.9333)" class="st5 st6 st7">28</text>
	<text transform="matrix(1 0 0 1 617.9283 146.6462)" class="st5 st6 st7">25</text>
	<text transform="matrix(1 0 0 1 617.7682 327.2458)" class="st5 st6 st7">17</text>
	<text transform="matrix(1 0 0 1 617.7682 349.7976)" class="st5 st6 st7">16</text>
	<text transform="matrix(1 0 0 1 617.9283 372.4333)" class="st5 st6 st7">15</text>
	<text transform="matrix(1 0 0 1 617.9283 394.9851)" class="st5 st6 st7">14</text>
	<text transform="matrix(1 0 0 1 617.7408 417.6179)" class="st5 st6 st7">13</text>
	<text transform="matrix(1 0 0 1 617.7682 440.1706)" class="st5 st6 st7">12</text>
	<text transform="matrix(1 0 0 1 617.9283 124.0759)" class="st5 st6 st7">26</text>
	<text transform="matrix(1 0 0 1 617.9283 169.1003)" class="st5 st6 st7">24</text>
	<text transform="matrix(1 0 0 1 617.9283 214.2878)" class="st5 st6 st7">22</text>
	<text transform="matrix(1 0 0 1 617.9283 191.7175)" class="st5 st6 st7">23</text>
	<text transform="matrix(1 0 0 1 617.9283 259.4323)" class="st5 st6 st7">20</text>
	<text transform="matrix(1 0 0 1 617.9283 236.862)" class="st5 st6 st7">21</text>
	<text transform="matrix(1 0 0 1 617.7408 304.5749)" class="st5 st6 st7">18</text>
	<text transform="matrix(1 0 0 1 617.7682 282.0046)" class="st5 st6 st7">19</text>
</g>
</svg>
