<?xml version="1.0" encoding="utf-8"?>
<!-- Generator: Adobe Illustrator 20.1.0, SVG Export Plug-In . SVG Version: 6.00 Build 0)  -->
<svg version="1.1" id="Уровень_2" xmlns="http://www.w3.org/2000/svg" xmlns:xlink="http://www.w3.org/1999/xlink" x="0px"
	 y="0px" viewBox="0 0 1954 1790.7" style="enable-background:new 0 0 1954 1790.7;" xml:space="preserve">
<style type="text/css">
	.st0{fill:#FFFFFF;}
	.st1{fill:none;}
	.st2{fill:#A8C456;}
	.st3{fill:none;stroke:#FFFFFF;stroke-miterlimit:10;}
	.st4{fill:none;stroke:#000000;stroke-width:2;stroke-miterlimit:10;}
	.st5{opacity:0.3;}
	.st6{opacity:0.2;}
	.st7{fill:none;stroke:#000000;stroke-miterlimit:10;}
	.st8{fill:#E2E2E2;}
	.st9{fill:#D3D3D3;}
	.st10{fill:none;stroke:#DDDDDD;stroke-miterlimit:10;}
	.st11{fill:#EAEAEA;}
	.st12{fill:none;stroke:#FFFFFF;stroke-width:0.25;stroke-miterlimit:10;}
	.st13{opacity:0.3;fill:none;stroke:#4D4D4D;stroke-miterlimit:10;}
	.st14{fill:none;stroke:#939393;stroke-width:4;stroke-miterlimit:10;}
	.st15{fill:#D2D5D9;}
	.st16{fill:#DDDDDD;}
	.st17{fill:#F7F7F7;}
	.st18{fill:#CED3D9;}
	.st19{fill:#D1D1D1;}
	.st20{fill:#939393;}
	.st21{fill:none;stroke:#CED3D9;stroke-width:4;stroke-miterlimit:10;}
	.st22{opacity:0.3;fill:#595959;}
	.st23{fill:none;stroke:#CED3D9;stroke-width:2;stroke-miterlimit:10;}
	.st24{fill:none;stroke:#ADADAD;stroke-width:0.75;stroke-linecap:round;stroke-linejoin:round;stroke-miterlimit:10;}
	.st25{fill:#ADADAD;}
	.st26{font-family:'OsnovaProMedium';}
	.st27{font-size:6.1731px;}
	.st28{fill:none;stroke:#7A8991;stroke-linecap:round;stroke-linejoin:round;stroke-miterlimit:10;}
	.st29{fill:#7A8991;}
	.st30{font-family:'OsnovaPro';}
	.st31{font-size:9px;}
	.st32{fill:#0093D5;}
	.st33{fill:#EE2729;}
	.st34{fill:#40AE49;}
	.st35{fill:#885BA6;}
</style>
<g id="Plan_1_">
	<polygon class="st0" points="1075.6,617.4 1076.6,617.4 1076.6,617.4 	"/>
	<polygon class="st0" points="1074.6,617.4 1075.6,617.4 1075.6,617.4 	"/>
	<polygon class="st0" points="897.3,1238.3 897.3,1238.3 895.3,1238.3 895.3,1238.3 896.3,1238.3 	"/>
	<path class="st1" d="M1319.2,645.8l0.5,0.5l0,0C1319.5,646.1,1319.4,646,1319.2,645.8L1319.2,645.8z"/>
	
		<rect x="727.8" y="745.8" transform="matrix(-1 -1.224647e-16 1.224647e-16 -1 1955.6498 1823.5543)" class="st2" width="500" height="332"/>
	
		<rect x="738.2" y="756.7" transform="matrix(-1 -1.224647e-16 1.224647e-16 -1 1955.3743 1824.5543)" class="st3" width="479" height="311.1"/>
	<line class="st3" x1="976.6" y1="1067.3" x2="976.6" y2="757.3"/>
	
		<rect x="1141.8" y="820.2" transform="matrix(-1 -1.224647e-16 1.224647e-16 -1 2359.0498 1825.6307)" class="st3" width="75.4" height="185.2"/>
	<polyline class="st3" points="1217.7,954.8 1192.4,954.8 1192.4,870.8 1217.7,870.8 	"/>
	<circle class="st3" cx="977.2" cy="912.9" r="41.6"/>
	<path class="st3" d="M1142.2,946.8c-10.5-7.5-17.4-19.9-17.4-33.8c0-13.9,6.8-26.2,17.3-33.8"/>
	<rect x="738.2" y="821.3" class="st3" width="75.4" height="185.2"/>
	<polyline class="st3" points="738.2,871.9 762.9,871.9 762.9,955.9 738.2,955.9 	"/>
	<path class="st3" d="M813.5,880.5c10.5,7.5,16.7,19.4,16.7,33.3c0,13.9-6.2,25.8-16.7,33.3"/>
	<circle class="st0" cx="976.5" cy="913.4" r="2.1"/>
	<path class="st4" d="M710.6,773.7"/>
	<path d="M978.6,733.7"/>
	<g>
		<path class="st4" d="M1224.7,703.2"/>
	</g>
	<g class="st5">
		<polygon points="675.8,697.1 675.2,696.5 675.8,697.1 676.4,697.6 		"/>
	</g>
	<g class="st6">
		<polygon points="675.8,697.1 675.2,696.5 675.8,697.1 676.4,697.6 		"/>
	</g>
	<g class="st5">
		<polygon points="1258.6,734.6 1258.7,734.5 1258.7,734.5 		"/>
	</g>
	<g class="st6">
		<polygon points="1258.6,734.6 1258.7,734.5 1258.7,734.5 		"/>
	</g>
	<g class="st5">
		<polygon points="1258.6,734.6 1258.7,734.5 1258.7,734.5 		"/>
	</g>
	<polygon points="710.8,774.9 710.8,774.9 711.3,775 	"/>
	<polygon class="st5" points="710.8,774.9 710.8,774.9 711.3,775 	"/>
	<path d="M600.6,1128.3"/>
	<path class="st7" d="M1235.4,715.9"/>
	<path class="st8" d="M1223.7,1120.4C1223.7,1120.4,1223.7,1120.4,1223.7,1120.4l1.1,1.8L1223.7,1120.4z"/>
	<path class="st0" d="M1224.5,1117.8l-1.7,1.1l0.9,1.5c0.4-0.2,1-0.4,1.8-0.8L1224.5,1117.8z"/>
	<polygon points="977.3,1111.5 977.3,1111.5 977.3,1111.8 977.3,1111.8 	"/>
	<path class="st8" d="M1205.2,589.4c0.2,0,0.5,0.1,0.7,0.1L1205.2,589.4L1205.2,589.4z"/>
	<path class="st0" d="M1206.1,589.6L1206.1,589.6c-0.1,0-0.1,0-0.2,0L1206.1,589.6z"/>
	<path class="st0" d="M1357.5,605.9l-0.2-0.2c0.2,0.2,0.4,0.4,0.5,0.6l0.1-0.1L1357.5,605.9z"/>
	<path class="st3" d="M1207,1067.8c0-5.6,4.6-10.2,10.2-10.2"/>
	<path class="st3" d="M1217.2,766.9c-5.6,0-10.2-4.6-10.2-10.2"/>
	<path class="st3" d="M738.1,1057.6c5.6,0,10.2,4.6,10.2,10.2"/>
	<path class="st3" d="M748.4,756.7c0,5.6-4.6,10.2-10.2,10.2"/>
	<path class="st0" d="M1319.7,646.3l-0.5-0.5l0,0C1319.4,646,1319.5,646.1,1319.7,646.3L1319.7,646.3z"/>
	<path class="st0" d="M1268.8,609.1L1268.8,609.1C1268.8,609.1,1268.8,609.1,1268.8,609.1L1268.8,609.1L1268.8,609.1z"/>
	<polygon class="st0" points="1268.8,609.1 1268.8,609.1 1268.8,609.1 	"/>
	<path class="st4" d="M1225.1,1122"/>
	<path class="st9" d="M1199.1,1202.1"/>
	<line class="st0" x1="1362.9" y1="1131.2" x2="1362.9" y2="1131.2"/>
	<path class="st0" d="M1212.7,1242.6L1212.7,1242.6l-0.7,0.1l0,0C1212.2,1242.6,1212.4,1242.6,1212.7,1242.6z"/>
	<path class="st1" d="M1211.9,1242.7c-0.3,0-0.6,0.1-0.9,0.1l0,0L1211.9,1242.7z"/>
	<polygon class="st0" points="1141.3,1238.3 1141.3,1238.3 1139.3,1238.3 1139.3,1238.3 1140.3,1238.3 	"/>
	<path class="st10" d="M1251.9,1365.6"/>
	<polygon class="st11" points="811.3,1240.3 811.3,1240.3 813.3,1240.3 813.3,1240.3 812.3,1240.3 	"/>
	<path class="st4" d="M729.5,704.1"/>
	<path class="st4" d="M456.8,824.2"/>
	<path class="st0" d="M492.6,642c0.1-0.3,0.3-0.5,0.4-0.8c-0.5-0.2-0.6-0.2-0.7-0.1L492.6,642L492.6,642l-0.1,0.3"/>
	<path class="st4" d="M1225.1,707.1"/>
	<path class="st9" d="M1199.1,627.1"/>
	<path class="st0" d="M1205.6,592.1L1205.6,592.1l-0.7-0.1l0,0C1205.1,592,1205.3,592,1205.6,592.1z"/>
	<path class="st1" d="M1204.8,592c-0.3,0-0.6-0.1-0.9-0.1l0,0L1204.8,592z"/>
	<polygon class="st0" points="1033.8,415.6 1034.3,415.9 1034.8,416.2 1034.8,415.6 1034.8,415 1034.3,415.3 	"/>
	<line class="st12" x1="1034.8" y1="415.6" x2="1047.2" y2="415.6"/>
	
		<rect x="1217.2" y="895.6" transform="matrix(-1 -1.224647e-16 1.224647e-16 -1 2443.0144 1826.7073)" class="st3" width="8.6" height="35.5"/>
	<rect x="729.6" y="895.6" class="st3" width="8.6" height="35.5"/>
	<rect x="881.2" y="731.3" class="st8" width="0.1" height="0"/>
	<rect x="1073.3" y="618.3" class="st0" width="1" height="0"/>
	<rect x="1072.3" y="618.3" class="st0" width="1" height="0"/>
	<path class="st8" d="M1243.9,716.8c0.1,0.1,0.1,0.1,0.2,0.2C1244.1,716.8,1243.9,716.6,1243.9,716.8z"/>
	<path class="st0" d="M1244.1,717.2l-0.2-0.2C1244,717.1,1244.1,717.1,1244.1,717.2z"/>
	<path class="st0" d="M1243.6,716.6L1243.6,716.6c0.3,0.3,0.5,0.6,0.8,0.8l-0.3-0.3c0,0-0.1-0.1-0.2-0.2
		C1243.9,716.9,1243.6,716.6,1243.6,716.6z"/>
	<path class="st0" d="M1243.9,716.9l0.2,0.2c0.1,0.1,0.1,0,0-0.1C1244.1,717,1244,716.9,1243.9,716.9
		C1243.9,716.9,1243.9,716.9,1243.9,716.9z"/>
	<path class="st0" d="M1243.9,716.9C1243.9,716.9,1243.9,716.9,1243.9,716.9c-0.3-0.4-0.6-0.6-0.9-0.9c-0.2-0.1-0.3-0.3-0.5-0.4
		c0.3,0.3,0.7,0.6,1,1l0,0C1243.6,716.6,1243.9,716.9,1243.9,716.9z"/>
	<polygon class="st1" points="1345.8,912.3 1346.3,912.3 1346.3,911.2 1244.3,911.2 1244.3,912.3 	"/>
	<polygon class="st1" points="1244.3,912.5 1244.3,913.4 1346.3,913.2 1346.3,912.3 	"/>
	<path class="st8" d="M1317.2,1129.9C1317.2,1129.9,1317.2,1129.9,1317.2,1129.9L1317.2,1129.9L1317.2,1129.9z"/>
	<path class="st1" d="M1245,1106.4l-1.1,1C1244.3,1107.1,1244.7,1106.8,1245,1106.4C1245,1106.4,1245,1106.4,1245,1106.4z"/>
	<path class="st1" d="M1245.1,1106.3C1245.1,1106.3,1245.1,1106.3,1245.1,1106.3L1245.1,1106.3L1245.1,1106.3L1245.1,1106.3z"/>
	<path class="st8" d="M1245.8,1105.6c-0.2,0.2-0.3,0.3-0.5,0.5l-0.2,0.2l0.1,0C1245.3,1106.1,1245.6,1105.8,1245.8,1105.6z"/>
	<path class="st1" d="M1245,1106.4C1245,1106.4,1245.1,1106.4,1245,1106.4C1245.1,1106.4,1245,1106.4,1245,1106.4L1245,1106.4z"/>
	<path class="st1" d="M1245.1,1106.3L1245.1,1106.3L1245.1,1106.3C1245.1,1106.4,1245.1,1106.3,1245.1,1106.3z"/>
	<path class="st8" d="M1245.1,1106.4L1245.1,1106.4L1245.1,1106.4L1245.1,1106.4C1245,1106.4,1245,1106.4,1245.1,1106.4
		C1245,1106.4,1245.1,1106.4,1245.1,1106.4z"/>
	<path class="st11" d="M1246,1106.3"/>
	<path class="st11" d="M1245,1106.4"/>
	<path class="st11" d="M1245.1,1106.3"/>
	<path class="st0" d="M1317.5,1129.4L1317.5,1129.4c-0.1,0.2-0.2,0.3-0.3,0.5L1317.5,1129.4z"/>
	<path class="st0" d="M1243.9,1107.4c0,0-0.1,0.1-0.1,0.1L1243.9,1107.4L1243.9,1107.4z"/>
	<path class="st0" d="M1245,1106.3C1245,1106.3,1245,1106.4,1245,1106.3L1245,1106.3L1245,1106.3z"/>
	<path class="st0" d="M1345.8,1037.3c0,0.3,0,0.7,0,1h0.5v-2h-0.5l0,0C1345.8,1036.7,1345.8,1036.9,1345.8,1037.3z"/>
	<polygon class="st0" points="1346.3,912.3 1346.3,912.3 1345.8,912.3 1345.8,912.3 1244.3,912.3 1244.3,911.2 1243.9,911.2 
		1243.9,913.4 1244.3,913.4 1244.3,912.5 1346.3,912.3 1346.3,913.2 1346.8,913.2 1346.9,913.2 1346.9,911.2 1346.3,911.2 	"/>
	
		<rect x="1345.8" y="912.3" transform="matrix(1 -1.953121e-03 1.953121e-03 1 -1.7792 2.6308)" class="st0" width="0.5" height="0"/>
	<path class="st0" d="M1346.3,786.3L1346.3,786.3c0,0,0,0.1,0,0.1V786.3z"/>
	<rect x="880.2" y="731.3" class="st0" width="1" height="2.4"/>
	<path class="st0" d="M728.1,703.7"/>
	<path class="st11" d="M731.6,701.5l6.9-3.8C736.9,698.5,734.5,699.8,731.6,701.5z"/>
	<path class="st11" d="M729.3,702.8L729.3,702.8c0.9-0.4,1.6-0.9,2.4-1.3L729.3,702.8z"/>
	<path class="st11" d="M1243,1100"/>
	<path class="st13" d="M1260.3,736.1"/>
	<path class="st13" d="M1226.3,704.5"/>
	<path class="st11" d="M715.5,1111.3"/>
	<path class="st11" d="M1257.6,1091.1"/>
	<path class="st11" d="M1224.1,1119.8"/>
	<path class="st11" d="M1247.2,1101.5c0,0,8.1-8.1,9.7-10.8l-1.1-0.8"/>
	<path class="st14" d="M1255.6,719.5"/>
	<path class="st1" d="M710.3,1028.7v9v13.6l-36.4,7.2c0.1,0.3,0.2,0.7,0.2,1l36.2-7.1l1,51.6v6.4l-3.4-3.2l-2.6-2.8l-1.7-2.1
		l-4.8,4.3c0.2,0.3,0.4,0.5,0.7,0.7l4.1-3.6l3.9,4.4l3.9,3.7c1.7,1.3,2.7,2.2,3.6,3l0.1-0.1l6.4,4.6l-0.1,0.1
		c2.4,1.6,4.7,2.8,6.8,4.3c2.4,1.8,8.5,4.3,11.1,5.8l-2.4,5.8c0.3,0.1,0.6,0.3,0.9,0.4l2.8-6.7l-0.9-0.4c-4.2-2-7.7-3.8-10.3-5.4
		l19.5-29.9h11.8h46.7v52.8h1v-52.8h90.7v52.8h1v-52.8h25.7h9h26.6v24h14.4v28.8h1v-28.8h15.6v-23.5l27.3,0v0h9v0l27.2,0v52.4h1
		v-52.4l89.4,0l0.6,52.4h1l-0.6-52.4l59.3,0.1l4,6.2l12.2,19.5c0.7,1,1,1.5,1,1.5l4.8,7.6c0.3-0.2,0.6-0.3,0.8-0.5l-5.2-8.2
		c0,0,18.5-9.4,33.6-28.6l5.4,3.7c0.2-0.3,0.4-0.5,0.5-0.8l-5.4-3.7l-0.7-0.6l-10.4,11.7c-0.9,0.9-2,1.9-2.8,2.8v-47.4l0-4.7l0,0
		v-15.7l38.1-0.1c0-0.3,0-0.7,0-1l-38.2,0.1v-49.3v-9v-35v-9v-20.3l38.3,0v-1l-38.3,0v-18.4v-9v-35.3v-9v-51.8h38.1
		c0-0.3,0-0.7-0.1-1h-38.1V775l0,0l0-4.6v-52.1c2.1,1.9,4.9,4.6,7.2,7.2c4.1,4.5,6.9,8.7,7,8.7l0.8,1.2l5.1-3.3
		c-0.2-0.3-0.4-0.6-0.6-0.8l-4.2,2.8c-1-1.4-4.2-5.6-7.1-9c-3.2-3.7-5.9-6.1-8.3-8.2l-0.1-0.2c-0.2-0.1-1.2-1.1-1.4-1.2
		c-2.1-1.9-4.4-3.6-6.6-5.2l-4.1-2.8c-2.6-1.7-5-3.1-6.8-4l4.1-6.4c-0.2-0.1-0.4-0.3-0.6-0.4l-4.2,6.4c0,0,0,0,0.1,0l-5,7.7
		l-13.7,20.5h-15l0,0l-4.6,0h-24.4v-52.2h-1v52.2h0.5h-0.5h-40.1h-9h-37.4h-1h-44.9h-9h-35.3h-4.8h-2.6h-0.4h-0.6h-43h-9h-41.4h-1
		h-39.6h-9h-37.4h-1h-22.6h-9.1h-13.4L732,703.6l6.2-3.1l5.2-2.1l-4.1-9.6c-0.3,0.1-0.6,0.3-1,0.4l3.7,8.6l-3.3,1.3
		c-1.7,0.8-3.6,1.6-6.6,3.2l-2.4,1.4c-3,1.9-6.4,3.9-9.8,6.2l-4.7,3.5l0-0.1c-1.4,1.1-2.8,2.2-4.2,3.5c-1.8,1.5-4.8,4.2-6.1,5.3
		l-5.2-4.6c-0.2,0.2-0.4,0.5-0.7,0.7l5.8,5.2l0.5-0.4c0.7-0.6,3.6-3.3,5.8-5.1l0.1,33.7l0,0l0.1,10.3l0,0l0,11.3l-37.2-7.7
		c-0.1,0.4-0.2,0.7-0.3,1.1l37.5,7.8v14.4v9v32.4v0v1h0l-0.4,37.5v1.6h0l-0.4,42h-0.2v44.3v9v28.7h-39.7v1h39.7V1028.7z"/>
	<polygon class="st1" points="711.3,830.3 670.6,830.3 670.6,831.3 711.3,831.3 	"/>
	<rect x="1073.3" y="679.1" class="st1" width="1" height="52.2"/>
	<polygon class="st1" points="882.3,731.3 882.3,679.1 881.3,679.1 881.3,731.3 	"/>
	<rect x="794.3" y="679.1" class="st1" width="1" height="52.2"/>
	<polygon class="st1" points="976.3,731.3 976.7,731.3 976.7,679.1 975.7,679.1 975.7,731.3 	"/>
	<polygon class="st0" points="675,861.3 711,861.3 711,868.8 711.3,831.3 670.6,831.3 670.6,856.3 675,856.3 	"/>
	<polygon class="st0" points="710.5,912.3 710.9,870.3 675,870.3 675,875.3 670.6,875.3 670.6,912.3 710.3,912.3 	"/>
	<polygon class="st0" points="711.3,830.3 711.3,797.9 675,797.9 675,802.9 670.6,802.9 670.6,830.3 711.3,830.3 	"/>
	<path class="st0" d="M675,788.9h36.3v-14.4l-37.5-7.8c-1.4,5.6-2.3,11.3-2.8,17.1h4V788.9z"/>
	<polygon class="st11" points="711.3,831.3 711.3,831.3 711.3,830.3 711.3,830.3 	"/>
	<polygon class="st11" points="711.3,830.3 711.3,830.3 711.3,830.3 	"/>
	<polygon class="st0" points="808.3,1093.3 808.3,1146.1 828,1146.1 828,1140.6 833,1140.6 833,1093.7 842,1093.7 842,1140.6 
		847,1140.6 847,1146.1 899.1,1146.1 899.1,1093.3 	"/>
	<path class="st0" d="M760.6,1093.3l8.9,0.5l-5.7,45.8l5,0.6l-0.6,4.6c5.7,0.9,11.5,1.3,17.4,1.3h21.8v-52.8H760.6z"/>
	<path class="st0" d="M754.8,1138.4l5.8-45.1h-11.8l-19.5,29.9c2.6,1.6,6.1,3.4,10.3,5.4l0.9,0.4l-2.8,6.7c3.8,1.8,7.8,3.3,11.8,4.7
		l0.3-2.5L754.8,1138.4z"/>
	<path class="st0" d="M1222.7,1119.4l-12.2-19.5l-4-6.2l-59.3-0.1l0.6,52.4h19.9c5.5,0,10.9-0.4,16.3-1.2l-0.7-4.9l4.9-0.7
		l-6.8-45.3l9.1,0.1l6.6,43.9l4.9-0.7l0.5,3.5c9.2-3,17.9-7.1,26-12.1l-4.8-7.6C1223.7,1121,1223.4,1120.5,1222.7,1119.4z"/>
	<polygon class="st0" points="1019.7,1140.6 1019.7,1093.8 992.3,1093.8 992.3,1117.3 976.7,1117.3 976.7,1146.1 1014.7,1146.1 
		1014.7,1140.6 	"/>
	<polygon class="st0" points="1028.7,1093.8 1028.7,1140.6 1033.7,1140.6 1033.7,1146.1 1055.8,1146.1 1055.8,1093.7 	"/>
	<polygon class="st0" points="961.3,1117.3 961.3,1093.3 934.7,1093.3 934.7,1140.6 939.7,1140.6 939.7,1146.1 975.7,1146.1 
		975.7,1117.3 	"/>
	<polygon class="st0" points="925.7,1140.6 925.7,1093.3 900.1,1093.3 900.1,1146.1 920.7,1146.1 920.7,1140.6 	"/>
	<polygon class="st0" points="1056.8,1093.7 1056.8,1146.1 1106.2,1146.1 1106.2,1140.6 1111.2,1140.6 1111.2,1093.7 1120.2,1093.7 
		1120.2,1140.6 1125.2,1140.6 1125.2,1146.1 1146.8,1146.1 1146.2,1093.7 	"/>
	<path class="st0" d="M705.4,1104.2l2.6,2.8l3.4,3.2v-6.4l-1-51.6l-36.2,7.1c1.3,4.9,2.8,9.7,4.7,14.3l2.2-1.1l2.1,4.5l27.4-12.5
		l0.2,9.2l-23.7,11.5l2.1,4.5l-1.8,0.8c3.4,5.5,7.2,10.8,11.4,15.6l4.8-4.3L705.4,1104.2z"/>
	<polygon class="st0" points="675,1028.7 710.3,1028.7 710.3,995.3 670.6,995.3 670.6,1023.7 675,1023.7 	"/>
	<path class="st0" d="M710.3,1051.2v-13.6H675v5h-3.8c0.5,5.4,1.5,10.6,2.7,15.8L710.3,1051.2z"/>
	<polygon class="st0" points="710.3,965.6 675,965.6 675,970.6 670.6,970.6 670.6,994.3 710.3,994.3 	"/>
	<polygon class="st0" points="675,956.6 710.3,956.6 710.3,913.3 670.6,913.3 670.6,951.6 675,951.6 	"/>
	<path class="st0" d="M711.4,1111.6l-3.9-3.7l-3.9-4.4l-4.1,3.6c3.7,4.2,7.8,8.2,12.1,11.8l3.4-4.4
		C714,1113.8,713,1112.9,711.4,1111.6z"/>
	<path class="st0" d="M728.1,1123.5c-2.1-1.5-4.5-2.8-6.8-4.3l-3.5,4.6c5.9,4.4,12.3,8.2,19.1,11.4l2.4-5.8
		C736.6,1127.9,730.5,1125.3,728.1,1123.5z"/>
	<polygon class="st0" points="923.7,731.3 923.7,684.2 918.7,684.2 918.7,679.1 882.3,679.1 882.3,731.3 	"/>
	<polygon class="st0" points="932.7,684.2 932.7,731.3 975.7,731.3 975.7,679.1 937.7,679.1 937.7,684.2 	"/>
	<polygon class="st0" points="1028.4,684.2 1028.4,731.3 1073.3,731.3 1073.3,679.1 1033.4,679.1 1033.4,684.2 	"/>
	<polygon class="st0" points="979.3,731.3 984.1,731.3 1019.4,731.3 1019.4,684.2 1014.4,684.2 1014.4,679.1 976.7,679.1 
		976.7,731.3 	"/>
	<polygon class="st0" points="1120.7,684.2 1120.7,731.3 1160.8,731.3 1160.8,679.1 1125.7,679.1 1125.7,684.2 	"/>
	<polygon class="st0" points="1111.7,731.3 1111.7,684.2 1106.7,684.2 1106.7,679.1 1074.3,679.1 1074.3,731.3 	"/>
	<path class="st0" d="M1186.2,731.3l-4.5,0l6.1-43.8l-5-0.7l0.9-6.6c-5.2-0.7-10.6-1.1-16-1.1h-5.8v52.2H1186.2z"/>
	<path class="st0" d="M1196.7,688.7l-5.9,42.6h15l13.7-20.5l5-7.7c-0.1,0,0,0,0,0l4.1-6.4c-8.1-5.1-17-9.3-26.3-12.3l-0.7,4.9
		L1196.7,688.7z"/>
	<path class="st0" d="M1236.1,710.3c2.2,1.6,4.5,3.4,6.6,5.2c0.2,0.1,1.2,1,1.4,1.2l0.1,0.2c2.4,2.1,5.1,4.5,8.3,8.2
		c2.9,3.3,6.1,7.5,7.1,9l4.2-2.8c-6.2-9.5-13.7-18-22.4-25.2l-4.1,5.2L1236.1,710.3z"/>
	<path class="st0" d="M1232,707.5l-1.1-0.8l4.4-5.6c-1.9-1.4-3.9-2.8-6-4.1l-4.1,6.4C1227,704.4,1229.4,705.8,1232,707.5z"/>
	<path class="st0" d="M1276.7,767.3l-32.4,7.7v12.3h38.1c-0.3-5.3-1-10.6-2-15.7l-2.5,0.6L1276.7,767.3z"/>
	<path class="st0" d="M1258.5,734.3c0,0-2.9-4.2-7-8.7c-2.3-2.6-5.1-5.3-7.2-7.2v52.1l0-4.6l30.4-7.2l-1.1-4.9l1.5-0.3
		c-2.8-7.4-6.4-14.5-10.7-21.2l-5.1,3.3L1258.5,734.3z"/>
	<path class="st0" d="M1244.3,840.1h34.2v-5h4.1V794c0-1.9,0-3.8-0.1-5.7h-38.1V840.1z"/>
	<polygon class="st0" points="1278.5,849.1 1244.3,849.1 1244.3,884.4 1282.6,884.4 1282.6,854.1 1278.5,854.1 	"/>
	<polygon class="st0" points="1244.3,911.8 1282.6,911.8 1282.6,893.4 1244.3,893.4 	"/>
	<polygon class="st0" points="1244.3,977.1 1278.5,977.1 1278.5,972.1 1282.6,972.1 1282.6,942.1 1244.3,942.1 	"/>
	<polygon class="st0" points="1244.3,933.1 1282.6,933.1 1282.6,912.8 1244.3,912.8 	"/>
	<path class="st0" d="M1278.5,986.1h-34.2v49.3l38.2-0.1c0-1.4,0.1-2.8,0.1-4.1v-40.1h-4.1V986.1z"/>
	<path class="st0" d="M1273.3,1067.7l-28.9-6.3l0-4.7v47.4c0.9-0.8,1.9-1.8,2.8-2.8l10.4-11.7l0.7,0.6l5.4,3.7
		c4.3-6.5,8-13.5,10.9-20.9l-2.4-0.6L1273.3,1067.7z"/>
	<path class="st0" d="M1244.3,1052.1l31,6.8l1.1-4.9l3.7,0.8c1.3-6,2.1-12.2,2.4-18.5l-38.1,0.1V1052.1z"/>
	<path class="st0" d="M1224.1,1119.8l5.2,8.2c2.1-1.3,4.1-2.7,6.1-4.2l-5.6-7.4l6.5-4.6l5.3,7c8.2-7,15.5-15.1,21.5-24l-5.4-3.7
		C1242.6,1110.3,1224.1,1119.8,1224.1,1119.8z"/>
	<path class="st0" d="M686.6,741.3l24.6,10.6l-0.1-33.7c-2.2,1.8-5.1,4.5-5.8,5.1l-0.5,0.4l-5.8-5.2c-4.6,5.3-8.8,11.1-12.4,17.2
		l2.3,1.1L686.6,741.3z"/>
	<path class="st0" d="M711.3,762.2l-28.7-12.8l-2.3,4.5l-2-1c-1.6,4.2-3,8.5-4.1,12.9l37.2,7.7L711.3,762.2z"/>
	<path class="st0" d="M719.9,710.1c3.4-2.3,6.8-4.4,9.8-6.2l2.4-1.4c3-1.6,4.9-2.4,6.6-3.2l3.3-1.3l-3.7-8.6
		c-7.8,3.5-15.1,7.9-21.8,13l4.9,6.7L719.9,710.1z"/>
	<path class="st0" d="M710.9,717c1.4-1.2,2.8-2.4,4.2-3.5l-4.7-6.4c-3.8,3.3-7.4,6.9-10.7,10.6l5.2,4.6
		C706.2,721.2,709.1,718.5,710.9,717z"/>
	<path class="st0" d="M738.2,700.5l-6.2,3.1l17.2,27.6h13.4l-6.1-42.8l-4.9,0.7l-0.7-4.8c-3.9,1.3-7.8,2.7-11.5,4.4l4.1,9.6
		L738.2,700.5z"/>
	<path class="st0" d="M765.4,687.2l6.3,44h22.6v-52.2h-8.8c-5.5,0-10.8,0.4-16.1,1.1l0.9,6.3L765.4,687.2z"/>
	<polygon class="st0" points="832.8,731.3 832.8,684.2 827.8,684.2 827.8,679.1 795.3,679.1 795.3,731.3 	"/>
	<polygon class="st0" points="841.8,684.2 841.8,731.3 881.3,731.3 881.3,679.1 846.8,679.1 846.8,684.2 	"/>
	<rect x="1111.2" y="1093.7" class="st15" width="9" height="46.9"/>
	<rect x="1106.2" y="1140.6" class="st15" width="5" height="5.5"/>
	<rect x="1120.2" y="1140.6" class="st15" width="5" height="5.5"/>
	<rect x="1111.2" y="1140.6" class="st15" width="9" height="5.5"/>
	<polygon class="st15" points="1190.5,1094 1181.4,1093.9 1188.1,1139.3 1197,1137.9 	"/>
	<path class="st15" d="M1183.2,1140l0.7,4.9c1.7-0.2,3.3-0.5,4.9-0.8l-0.7-4.8L1183.2,1140z"/>
	<path class="st15" d="M1197,1137.9l0.6,4.2c1.6-0.4,3.2-0.9,4.8-1.4l-0.5-3.5L1197,1137.9z"/>
	<path class="st15" d="M1188.1,1139.3l0.7,4.8c3-0.6,5.9-1.2,8.8-2l-0.6-4.2L1188.1,1139.3z"/>
	<rect x="1019.7" y="1093.7" class="st16" width="9" height="0"/>
	<rect x="1019.7" y="1093.8" class="st15" width="9" height="46.8"/>
	<rect x="1014.7" y="1140.6" class="st15" width="5" height="5.5"/>
	<rect x="1028.7" y="1140.6" class="st15" width="5" height="5.5"/>
	<rect x="1019.7" y="1140.6" class="st15" width="9" height="5.5"/>
	<rect x="934.7" y="1140.6" class="st15" width="5" height="5.5"/>
	<rect x="920.7" y="1140.6" class="st15" width="5" height="5.5"/>
	<rect x="925.7" y="1093.3" class="st15" width="9" height="47.3"/>
	<rect x="925.7" y="1140.6" class="st15" width="9" height="5.5"/>
	<rect x="1278.5" y="986.1" class="st15" width="4.1" height="5"/>
	<rect x="1278.5" y="972.1" class="st15" width="4.1" height="5"/>
	<rect x="1244.3" y="977.1" class="st15" width="34.2" height="9"/>
	<rect x="1278.5" y="977.1" class="st15" width="4.1" height="9"/>
	<rect x="1278.5" y="849.1" class="st15" width="4.1" height="5"/>
	<rect x="1278.5" y="835.1" class="st15" width="4.1" height="5"/>
	<rect x="1244.3" y="840.1" class="st15" width="34.2" height="9"/>
	<rect x="1278.5" y="840.1" class="st15" width="4.1" height="9"/>
	<rect x="828" y="1140.6" class="st15" width="5" height="5.5"/>
	<rect x="842" y="1140.6" class="st15" width="5" height="5.5"/>
	<rect x="833" y="1093.7" class="st15" width="9" height="46.9"/>
	<rect x="833" y="1140.6" class="st15" width="9" height="5.5"/>
	<path class="st15" d="M763.8,1139.5l5.7-45.8l-8.9-0.5l-5.8,45.1l-5-0.6l-0.3,2.5c1.6,0.5,3.2,1,4.8,1.5l0.4-3.3l8.9,1l-0.5,4.5
		c1.7,0.3,3.3,0.6,5,0.9l0.6-4.6L763.8,1139.5z"/>
	<path class="st17" d="M754.7,1138.5l-0.4,3.3c2.9,0.8,5.8,1.5,8.8,2.1l0.5-4.5L754.7,1138.5z"/>
	<rect x="675" y="1028.7" class="st15" width="35.3" height="9"/>
	<rect x="670.6" y="1023.7" class="st15" width="4.4" height="5"/>
	<path class="st15" d="M675,1037.7h-4.2c0.1,1.7,0.2,3.3,0.4,5h3.8V1037.7z"/>
	<path class="st15" d="M675,1028.7h-4.4v2.5c0,2.2,0.1,4.3,0.2,6.5h4.2V1028.7z"/>
	<rect x="675" y="956.6" class="st15" width="35.3" height="9"/>
	<rect x="670.6" y="951.6" class="st15" width="4.4" height="5"/>
	<rect x="670.6" y="965.6" class="st15" width="4.4" height="5"/>
	<rect x="670.6" y="956.6" class="st15" width="4.4" height="9"/>
	<polygon class="st16" points="711,870.3 711,868.8 710.9,870.3 	"/>
	<polygon class="st15" points="675,861.3 675,870.3 710.9,870.3 711,868.8 711,861.3 	"/>
	<rect x="670.6" y="856.3" class="st15" width="4.4" height="5"/>
	<rect x="670.6" y="870.3" class="st15" width="4.4" height="5"/>
	<rect x="670.6" y="861.3" class="st15" width="4.4" height="9"/>
	<path class="st15" d="M675,783.9h-4c-0.1,1.7-0.3,3.3-0.3,5h4.3V783.9z"/>
	<rect x="670.6" y="797.9" class="st15" width="4.4" height="5"/>
	<rect x="675" y="788.9" class="st15" width="36.3" height="9"/>
	<path class="st15" d="M675,788.9h-4.3c-0.1,1.7-0.1,3.4-0.1,5.1v3.9h4.4V788.9z"/>
	<rect x="832.8" y="684.2" class="st18" width="9" height="47.1"/>
	<rect x="827.8" y="679.1" class="st15" width="5" height="5.2"/>
	<rect x="841.8" y="679.1" class="st15" width="5" height="5.2"/>
	<rect x="832.8" y="679.1" class="st15" width="9" height="5.2"/>
	<rect x="918.7" y="679.1" class="st15" width="5" height="5.2"/>
	<rect x="932.7" y="679.1" class="st15" width="5" height="5.2"/>
	<rect x="923.7" y="684.2" class="st15" width="9" height="47.1"/>
	<rect x="923.7" y="679.1" class="st15" width="9" height="5.2"/>
	<rect x="1019.4" y="684.2" class="st15" width="9" height="47.1"/>
	<rect x="1028.4" y="679.1" class="st15" width="5" height="5.2"/>
	<rect x="1014.4" y="679.1" class="st15" width="5" height="5.2"/>
	<rect x="1019.4" y="679.1" class="st15" width="9" height="5.2"/>
	<rect x="1111.7" y="684.2" class="st15" width="9" height="47.1"/>
	<rect x="1106.7" y="679.1" class="st15" width="5" height="5.2"/>
	<rect x="1120.7" y="679.1" class="st15" width="5" height="5.2"/>
	<rect x="1111.7" y="679.1" class="st15" width="9" height="5.2"/>
	<polygon class="st16" points="1190.8,731.3 1190.8,731.3 1186.2,731.3 	"/>
	<polygon class="st15" points="1187.8,687.5 1181.7,731.3 1186.2,731.3 1190.8,731.3 1196.7,688.7 	"/>
	<path class="st15" d="M1201.6,689.4l0.7-4.9c-1.6-0.5-3.2-1-4.9-1.4l-0.8,5.7L1201.6,689.4z"/>
	<path class="st15" d="M1187.8,687.5l0.9-6.5c-1.6-0.3-3.3-0.6-4.9-0.8l-0.9,6.6L1187.8,687.5z"/>
	<path class="st15" d="M1196.7,688.7l0.8-5.7c-2.8-0.7-5.6-1.4-8.4-1.9l-0.5,0.5l0.1-0.6l0,0l-0.9,6.5L1196.7,688.7z"/>
	<path class="st19" d="M1188.6,681.6l0.5-0.5c-0.1,0-0.3-0.1-0.4-0.1L1188.6,681.6z"/>
	<polygon class="st16" points="1244.3,775 1244.3,775 1244.3,770.4 	"/>
	<polygon class="st15" points="1274.7,758.5 1244.3,765.8 1244.3,770.4 1244.3,775 1276.7,767.3 	"/>
	<path class="st11" d="M1274.7,758.5l2.1-0.5c-0.5-1.6-1.1-3.2-1.7-4.7l-1.5,0.3L1274.7,758.5z"/>
	<path class="st15" d="M1277.9,772.2l2.5-0.6c-0.3-1.6-0.7-3.3-1.1-4.9l-2.6,0.6L1277.9,772.2z"/>
	<path class="st15" d="M1276.7,767.3l2.6-0.6c-0.7-2.9-1.6-5.8-2.5-8.7l-2.1,0.5L1276.7,767.3z"/>
	<polygon class="st16" points="1244.3,1052.1 1244.3,1056.8 1244.3,1052.1 	"/>
	<path class="st11" d="M1275.3,1058.9l-31-6.8v4.6l0,4.7l28.9,6.3l-1.1,4.9l2.4,0.6c2.3-5.9,4.2-12,5.5-18.2l-3.7-0.8L1275.3,1058.9
		z"/>
	<polygon class="st15" points="756.4,688.5 762.6,731.3 771.7,731.3 765.4,687.2 	"/>
	<path class="st15" d="M770.3,686.5l-0.9-6.3c-1.7,0.2-3.3,0.5-4.9,0.8l0.9,6.2L770.3,686.5z"/>
	<path class="st15" d="M756.4,688.5l-0.8-5.5c-1.6,0.4-3.2,0.9-4.8,1.4l0.7,4.8L756.4,688.5z"/>
	<path class="st15" d="M765.4,687.2l-0.9-6.2c-3,0.6-5.9,1.2-8.8,2l0.8,5.5L765.4,687.2z"/>
	<polygon class="st16" points="711.3,762.2 711.3,751.9 711.3,751.9 711.3,762.2 	"/>
	<polygon class="st15" points="682.6,749.3 711.3,762.2 711.3,751.9 686.6,741.3 	"/>
	<path class="st11" d="M688.9,736.8l-2.3-1.1c-0.9,1.4-1.7,2.9-2.5,4.4l2.5,1.3L688.9,736.8z"/>
	<path class="st11" d="M682.6,749.3l-2.4-1.2c-0.7,1.5-1.3,3.1-1.9,4.6l2,1L682.6,749.3z"/>
	<path class="st16" d="M686.6,741.3l-2.5-1.3c-1.4,2.6-2.7,5.3-3.9,8.1l2.4,1.2L686.6,741.3z"/>
	<path class="st15" d="M687,1085.4l-2.2,1c0.8,1.5,1.6,2.9,2.5,4.3l1.8-0.8L687,1085.4z"/>
	<path class="st15" d="M681.1,1072.7l-2.2,1.1c0.6,1.5,1.3,3.1,2,4.6l2.4-1.1L681.1,1072.7z"/>
	<polygon class="st15" points="710.7,1073.9 710.6,1064.7 683.2,1077.2 687,1085.4 	"/>
	<path class="st15" d="M683.2,1077.2l-2.4,1.1c1.2,2.7,2.6,5.4,4,8l2.2-1L683.2,1077.2z"/>
	<path class="st15" d="M1229.8,1116.5l5.6,7.4c2.1-1.6,4.2-3.2,6.2-4.9l-5.3-7L1229.8,1116.5z"/>
	<path class="st16" d="M1236.1,710.3c-1.4-1-2.8-2-4.1-2.8L1236.1,710.3z"/>
	<path class="st15" d="M1232,707.5c1.3,0.9,2.7,1.8,4.1,2.8l1.4,0.9l4.1-5.2c-2-1.7-4.1-3.3-6.3-4.9l-4.4,5.6L1232,707.5z"/>
	<path class="st16" d="M715.2,713.6l4.7-3.5C718.3,711.2,716.7,712.3,715.2,713.6L715.2,713.6z"/>
	<path class="st15" d="M719.9,710.1l1.6-1.2l-4.9-6.7c-2.1,1.6-4.1,3.2-6.1,4.9l4.7,6.4C716.7,712.3,718.3,711.2,719.9,710.1z"/>
	<path class="st16" d="M721.3,1119.2l0.1-0.1l-6.4-4.6l-0.1,0.1C716.5,1115.9,717.7,1116.9,721.3,1119.2
		C721.3,1119.2,721.3,1119.2,721.3,1119.2z"/>
	<path class="st15" d="M721.3,1119.2c-3.6-2.4-4.8-3.3-6.3-4.6l-3.4,4.4c2,1.7,4.1,3.3,6.2,4.9L721.3,1119.2
		C721.3,1119.2,721.3,1119.2,721.3,1119.2z"/>
	<rect x="1244.3" y="933.1" class="st15" width="38.3" height="9"/>
	<rect x="1244.3" y="884.4" class="st15" width="38.3" height="9"/>
	<path class="st20" d="M1197.4,1201.3l0.2,0C1197.6,1201.2,1197.5,1201.2,1197.4,1201.3L1197.4,1201.3z"/>
	<path class="st20" d="M625.1,720.1l-0.1,0.2l0,0C625,720.3,625.1,720.2,625.1,720.1z"/>
	<path class="st20" d="M1278.9,1169.3l0.5-0.4l0,0C1279.2,1169,1279.1,1169.1,1278.9,1169.3z"/>
	<path class="st20" d="M1272.9,1173.5l0.3-0.2C1273.2,1173.4,1273,1173.5,1272.9,1173.5L1272.9,1173.5z"/>
	<path class="st20" d="M1281.6,654.8L1281.6,654.8l-1.1-1c0.1,0.1,0.1,0.1,0.2,0.2L1281.6,654.8z"/>
	<polygon class="st20" points="1346.2,938.5 1346.2,942.1 1346.2,942.1 	"/>
	<path class="st15" d="M769.5,1093.3h-8.9l-6.3,48.5c0,0,7.5,1.9,8.8,2.1L769.5,1093.3z"/>
	<path class="st15" d="M1244.4,1061.4l0-9.3l34.6,7.6c0,0-2.2,8.2-2.7,8.8L1244.4,1061.4z"/>
	<path class="st21" d="M784.4,679.1h384.4c62.6,0,113.8,51.2,113.8,113.8v241c0,62.6-51.2,113.8-113.8,113.8H784.4
		c-62.6,0-113.8-51.2-113.8-113.8v-241C670.6,730.3,721.8,679.1,784.4,679.1z"/>
	<path class="st14" d="M1088.5,307.4"/>
	<polyline class="st22" points="748.9,943.2 748.9,905.5 738.7,895.3 738.7,931.7 729,931.7 740.3,943.2 748.9,943.2 	"/>
	<polyline class="st22" points="1236.5,943 1236.5,905.3 1226.3,895.1 1226.3,931.5 1216.7,931.5 1227.9,943 1236.5,943 	"/>
	<path class="st7" d="M773.3,441.9"/>
	<path class="st21" d="M596.2,363.9l57.9,134.5l9.5,21.4l8.4,18.9C458,701.7,460.6,897.9,460.6,897.9v39.5
		c0,0-2.5,196.2,211.4,359.2c0,0,31.3,23.8,82.5,43.7"/>
	<line class="st21" x1="1277.8" y1="537.2" x2="1350.5" y2="362.5"/>
	<path class="st23" d="M1095.5,308.1l-5.6,91.8l-35-3v62.8c0,0,106.3,17.2,146,43.3v36.3c0,0,48.5,4.6,65.8,15.2l10.9-18.6"/>
	<path class="st23" d="M854.2,308.1l5.6,91.8l35-3v62.8c0,0-106.3,17.2-146,43.3v36.3c0,0-48.5,4.6-65.8,15.2l-85.3-191.3"/>
	<path class="st23" d="M804.6,1359.2c-3.8,1.9-5.7,5.4-5.7,9.9c0,6.4,5.1,11.5,11.5,11.5c2.9,0,5.5-1.1,7.6-2.8c0,0,21.4,8,25.6,9.2
		v-71.1h124"/>
	<path class="st23" d="M1228,1326.8c32.5-15.8,51.8-30.2,51.8-30.2c214-163.1,211.4-359.2,211.4-359.2s0.3-14.9,0-39.5
		c0,0,2.5-196.2-211.4-359.2l-2.6-1.9"/>
	<path class="st23" d="M1147.1,1359.7v-3.5c28.5-7,60.3-19.8,80.9-29.3"/>
	<path class="st21" d="M1006.9,302.8c27.5,0.4,55.6,1.7,81.1,4.5c57.2,6.2,109.8,15,156.7,25.9c40.2,9.4,76.1,20,107,30.4"/>
	<path class="st21" d="M749.9,1338.6c-48.2-19.4-78.3-42-78.3-42c-214-163.1-211.4-359.2-211.4-359.2s-0.3-14.9,0-39.5
		c0,0-2.5-196.2,211.4-359.2l2.6-1.9l-78-172.8c67.1-22.8,158.9-46.7,268.4-57c0,0,32.9-2.5,77.6-3.7"/>
	<path class="st23" d="M804.3,1359.7v-3.5c-16.6-4-36.2-10.6-50.3-15.9"/>
	<path class="st23" d="M1147.1,1359.2c3.8,1.9,5.7,5.4,5.7,9.9c0,6.4-5.1,11.5-11.5,11.5c-2.9,0-5.5-1.1-7.6-2.8
		c0,0-21.4,8-25.6,9.2v-71.1H985.8"/>
	<path class="st11" d="M1173.4,500.4"/>
	<path class="st23" d="M1375.9,859.3c0,29.7,0,54.3,0,54.3"/>
	<path class="st23" d="M1365.8,711.1c0,0,10.1,36,10.1,82c0,12.9,0,28.2,0,43.3"/>
	<path class="st23" d="M1343.2,913.6c0,0,0-74.5,0-120.5s-10.1-82-10.1-82H1286c0,0-3.3-7.8-11.9-16.3"/>
	<path class="st23" d="M1343.2,913.4c0,0,0,74.5,0,120.5s-10.1,82-10.1,82h-83.4"/>
	<path class="st23" d="M1375.9,962.5c0-27.2,0-48.9,0-48.9"/>
	<path class="st23" d="M1375.9,988.9c0,15.7,0,31.5,0,45c0,46-10.1,81.9-10.1,81.9s-10.2,25.3-15.4,32.1l51.4,25.5"/>
	<g>
		<g>
			
				<rect x="752.9" y="507.9" transform="matrix(-0.9997 2.588200e-02 -2.588200e-02 -0.9997 1537.4277 1016.7767)" class="st18" width="18.4" height="20.9"/>
			<g>
				<g>
					<polyline class="st24" points="763.7,514.2 762.3,513 761,514.2 					"/>
				</g>
				<line class="st24" x1="762.3" y1="513" x2="762.5" y2="523.8"/>
			</g>
		</g>
		<g>
			
				<rect x="772.2" y="507.3" transform="matrix(0.9997 -2.588200e-02 2.588200e-02 0.9997 -13.1394 20.3973)" class="st18" width="18.4" height="20.9"/>
			<g>
				<g>
					<polyline class="st24" points="779.8,521.9 781.2,523.2 782.5,521.9 					"/>
				</g>
				<line class="st24" x1="781.2" y1="523.2" x2="781" y2="512.3"/>
			</g>
		</g>
	</g>
	<g>
		<g>
			
				<rect x="850.5" y="473.7" transform="matrix(-0.9997 2.588200e-02 -2.588200e-02 -0.9997 1731.7128 945.9167)" class="st18" width="18.4" height="20.9"/>
			<g>
				<g>
					<polyline class="st24" points="861.3,480.1 859.9,478.8 858.6,480.1 					"/>
				</g>
				<line class="st24" x1="859.9" y1="478.8" x2="860.1" y2="489.6"/>
			</g>
		</g>
		<g>
			
				<rect x="869.8" y="473.1" transform="matrix(0.9997 -2.588200e-02 2.588200e-02 0.9997 -12.2223 22.912)" class="st18" width="18.4" height="20.9"/>
			<g>
				<g>
					<polyline class="st24" points="877.4,487.7 878.8,489 880.1,487.7 					"/>
				</g>
				<line class="st24" x1="878.8" y1="489" x2="878.7" y2="478.2"/>
			</g>
		</g>
	</g>
	<g>
		<g>
			
				<rect x="1062.9" y="472.7" transform="matrix(-0.9997 2.588200e-02 -2.588200e-02 -0.9997 2156.2612 938.4421)" class="st18" width="18.4" height="20.9"/>
			<g>
				<g>
					<polyline class="st24" points="1073.6,479.1 1072.2,477.8 1070.9,479.1 					"/>
				</g>
				<line class="st24" x1="1072.2" y1="477.8" x2="1072.4" y2="488.6"/>
			</g>
		</g>
		<g>
			
				<rect x="1082.1" y="472.1" transform="matrix(0.9997 -2.588200e-02 2.588200e-02 0.9997 -12.1255 28.407)" class="st18" width="18.4" height="20.9"/>
			<g>
				<g>
					<polyline class="st24" points="1089.8,486.7 1091.2,488 1092.5,486.7 					"/>
				</g>
				<line class="st24" x1="1091.2" y1="488" x2="1091" y2="477.2"/>
			</g>
		</g>
	</g>
	<g>
		<g>
			
				<rect x="1159.1" y="510.6" transform="matrix(-0.9978 -6.629518e-02 6.629518e-02 -0.9978 2299.5093 1118.3824)" class="st18" width="18.4" height="20.9"/>
			<g>
				<g>
					<polyline class="st24" points="1170.2,517.1 1168.9,515.7 1167.5,516.8 					"/>
				</g>
				<line class="st24" x1="1169" y1="515.7" x2="1168.1" y2="526.5"/>
			</g>
		</g>
		<g>
			
				<rect x="1178.3" y="511.8" transform="matrix(0.9978 6.629518e-02 -6.629518e-02 0.9978 37.2356 -77.5788)" class="st18" width="18.4" height="20.9"/>
			<g>
				<g>
					<polyline class="st24" points="1185.6,526.2 1186.9,527.6 1188.3,526.5 					"/>
				</g>
				<line class="st24" x1="1186.9" y1="527.6" x2="1187.7" y2="516.8"/>
			</g>
		</g>
	</g>
	<g>
		
			<rect x="909.6" y="376.1" transform="matrix(-1 -1.224647e-16 1.224647e-16 -1 1827.9788 812.2421)" class="st18" width="8.9" height="60"/>
		<g>
			<g>
				<g>
					<polyline class="st24" points="915.4,389.3 914,388 912.7,389.2 					"/>
				</g>
				<line class="st24" x1="914" y1="388" x2="914" y2="398.8"/>
			</g>
		</g>
	</g>
	<g>
		
			<rect x="918.8" y="1206.9" transform="matrix(6.123234e-17 -1 1 6.123234e-17 -313.6007 2160.1001)" class="st18" width="8.9" height="60"/>
		<g>
			<g>
				<g>
					<polyline class="st24" points="927.4,1238.2 928.7,1236.9 927.4,1235.5 					"/>
				</g>
				<line class="st24" x1="928.7" y1="1236.9" x2="917.8" y2="1236.9"/>
			</g>
		</g>
	</g>
	<g>
		
			<rect x="1021.9" y="1206.9" transform="matrix(-1.836970e-16 1 -1 -1.836970e-16 2263.196 210.5047)" class="st18" width="8.9" height="60"/>
		<g>
			<g>
				<g>
					<polyline class="st24" points="1026.3,1235.5 1025,1236.8 1026.3,1238.2 					"/>
				</g>
				<line class="st24" x1="1025" y1="1236.8" x2="1035.8" y2="1236.8"/>
			</g>
		</g>
	</g>
	<g>
		
			<rect x="920.1" y="376.1" transform="matrix(-1 -1.224647e-16 1.224647e-16 -1 1848.9788 812.2421)" class="st18" width="8.9" height="60"/>
		<g>
			<g>
				<g>
					<polyline class="st24" points="925.9,389.3 924.5,388 923.2,389.2 					"/>
				</g>
				<line class="st24" x1="924.5" y1="388" x2="924.5" y2="398.8"/>
			</g>
		</g>
	</g>
	<g>
		
			<rect x="1021.9" y="376.1" transform="matrix(-1 -1.224647e-16 1.224647e-16 -1 2052.6033 812.2421)" class="st18" width="8.9" height="60"/>
		<g>
			<g>
				<g>
					<polyline class="st24" points="1027.7,389.3 1026.3,388 1025,389.2 					"/>
				</g>
				<line class="st24" x1="1026.3" y1="388" x2="1026.3" y2="398.8"/>
			</g>
		</g>
	</g>
	<g>
		
			<rect x="1032.4" y="376.1" transform="matrix(-1 -1.224647e-16 1.224647e-16 -1 2073.6033 812.2421)" class="st18" width="8.9" height="60"/>
		<g>
			<g>
				<g>
					<polyline class="st24" points="1038.2,389.3 1036.8,388 1035.5,389.2 					"/>
				</g>
				<line class="st24" x1="1036.8" y1="388" x2="1036.8" y2="398.8"/>
			</g>
		</g>
	</g>
	<g>
		<g>
			
				<rect x="753.8" y="1258.3" transform="matrix(-0.9997 2.588200e-02 -2.588200e-02 -0.9997 1558.603 2517.3623)" class="st18" width="18.4" height="20.9"/>
			<g>
				<g>
					<polyline class="st24" points="764.6,1264.7 763.2,1263.4 761.9,1264.7 					"/>
				</g>
				<line class="st24" x1="763.2" y1="1263.4" x2="763.3" y2="1274.2"/>
			</g>
		</g>
		<g>
			
				<rect x="773.1" y="1257.7" transform="matrix(0.9997 -2.588200e-02 2.588200e-02 0.9997 -32.5618 20.6714)" class="st18" width="18.4" height="20.9"/>
			<g>
				<g>
					<polyline class="st24" points="780.7,1272.3 782.1,1273.6 783.4,1272.3 					"/>
				</g>
				<line class="st24" x1="782.1" y1="1273.6" x2="781.9" y2="1262.8"/>
			</g>
		</g>
	</g>
	<g>
		<g>
			
				<rect x="507.3" y="787.8" transform="matrix(-2.588200e-02 -0.9997 0.9997 -2.588200e-02 -268.1273 1335.2797)" class="st18" width="18.4" height="20.9"/>
			<g>
				<g>
					<polyline class="st24" points="520.6,799.8 521.9,798.4 520.6,797.1 					"/>
				</g>
				<line class="st24" x1="521.9" y1="798.4" x2="511.1" y2="798.6"/>
			</g>
		</g>
		<g>
			
				<rect x="507.9" y="807.1" transform="matrix(2.588200e-02 0.9997 -0.9997 2.588200e-02 1320.9453 279.4728)" class="st18" width="18.4" height="20.9"/>
			<g>
				<g>
					<polyline class="st24" points="513,816 511.7,817.4 513,818.7 					"/>
				</g>
				<line class="st24" x1="511.7" y1="817.4" x2="522.5" y2="817.2"/>
			</g>
		</g>
	</g>
	<g>
		<g>
			
				<rect x="507.3" y="1000.3" transform="matrix(-2.588200e-02 -0.9997 0.9997 -2.588200e-02 -480.5258 1553.2484)" class="st18" width="18.4" height="20.9"/>
			<g>
				<g>
					<polyline class="st24" points="520.6,1012.3 521.9,1010.9 520.6,1009.6 					"/>
				</g>
				<line class="st24" x1="521.9" y1="1010.9" x2="511.1" y2="1011.1"/>
			</g>
		</g>
		<g>
			
				<rect x="507.9" y="1019.5" transform="matrix(2.588200e-02 0.9997 -0.9997 2.588200e-02 1533.3438 486.4433)" class="st18" width="18.4" height="20.9"/>
			<g>
				<g>
					<polyline class="st24" points="513,1028.5 511.7,1029.9 513,1031.1 					"/>
				</g>
				<line class="st24" x1="511.7" y1="1029.9" x2="522.5" y2="1029.7"/>
			</g>
		</g>
	</g>
	<g>
		<g>
			
				<rect x="1444.3" y="827.1" transform="matrix(-2.588200e-02 -0.9997 0.9997 -2.588200e-02 653.8622 2312.3049)" class="st18" width="18.4" height="20.9"/>
			<g>
				<g>
					<polyline class="st24" points="1457.6,839.1 1458.9,837.7 1457.7,836.4 					"/>
				</g>
				<line class="st24" x1="1458.9" y1="837.7" x2="1448.1" y2="837.9"/>
			</g>
		</g>
		<g>
			
				<rect x="1444.9" y="846.4" transform="matrix(2.588200e-02 0.9997 -0.9997 2.588200e-02 2273.0022 -618.9547)" class="st18" width="18.4" height="20.9"/>
			<g>
				<g>
					<polyline class="st24" points="1450,855.3 1448.7,856.7 1450,858 					"/>
				</g>
				<line class="st24" x1="1448.7" y1="856.7" x2="1459.5" y2="856.5"/>
			</g>
		</g>
	</g>
	<g>
		<g>
			
				<rect x="1442.7" y="952" transform="matrix(-2.588200e-02 -0.9997 0.9997 -2.588200e-02 527.2846 2438.7813)" class="st18" width="18.4" height="20.9"/>
			<g>
				<g>
					<polyline class="st24" points="1456,964 1457.2,962.6 1456,961.3 					"/>
				</g>
				<line class="st24" x1="1457.2" y1="962.6" x2="1446.4" y2="962.8"/>
			</g>
		</g>
		<g>
			
				<rect x="1443.2" y="971.3" transform="matrix(2.588200e-02 0.9997 -0.9997 2.588200e-02 2396.2463 -495.6119)" class="st18" width="18.4" height="20.9"/>
			<g>
				<g>
					<polyline class="st24" points="1448.3,980.2 1447.1,981.6 1448.3,982.9 					"/>
				</g>
				<line class="st24" x1="1447.1" y1="981.6" x2="1457.9" y2="981.4"/>
			</g>
		</g>
	</g>
	<g>
		<g>
			
				<rect x="1162.5" y="1257.8" transform="matrix(-0.9999 1.233347e-02 -1.233347e-02 -0.9999 2359.0046 2522.0928)" class="st18" width="18.4" height="20.9"/>
			<g>
				<g>
					<polyline class="st24" points="1173.3,1264.2 1171.9,1263 1170.6,1264.2 					"/>
				</g>
				<line class="st24" x1="1171.9" y1="1263" x2="1172" y2="1273.8"/>
			</g>
		</g>
		<g>
			
				<rect x="1181.8" y="1257.5" transform="matrix(0.9999 -1.233347e-02 1.233347e-02 0.9999 -15.5485 14.7854)" class="st18" width="18.4" height="20.9"/>
			<g>
				<g>
					<polyline class="st24" points="1189.4,1272.1 1190.8,1273.4 1192.1,1272.2 					"/>
				</g>
				<line class="st24" x1="1190.8" y1="1273.4" x2="1190.7" y2="1262.6"/>
			</g>
		</g>
	</g>
	<g>
		<g>
			<g>
				
					<rect x="915.8" y="1300.3" transform="matrix(1.609992e-04 1 -1 1.609992e-04 2233.0212 388.1992)" class="st18" width="13.1" height="20.9"/>
				<g>
					<g>
						<polyline class="st24" points="926.4,1309.3 927.7,1310.7 926.5,1312 						"/>
					</g>
					<line class="st24" x1="927.7" y1="1310.7" x2="916.9" y2="1310.8"/>
				</g>
			</g>
		</g>
		<g>
			<g>
				
					<rect x="916" y="1285.9" transform="matrix(-1.609993e-04 1 -1 -1.609993e-04 2219.0569 373.9966)" class="st18" width="13.1" height="20.9"/>
				<g>
					<g>
						<polyline class="st24" points="918.5,1294.9 917.2,1296.2 918.4,1297.6 						"/>
					</g>
					<line class="st24" x1="917.2" y1="1296.2" x2="928" y2="1296.3"/>
				</g>
			</g>
		</g>
	</g>
	<g>
		<g>
			<g>
				
					<rect x="1029.9" y="1299.3" transform="matrix(1.609992e-04 1 -1 1.609992e-04 2346.0627 273.1393)" class="st18" width="13.1" height="20.9"/>
				<g>
					<g>
						<polyline class="st24" points="1040.5,1308.3 1041.8,1309.7 1040.6,1311 						"/>
					</g>
					<line class="st24" x1="1041.8" y1="1309.7" x2="1031" y2="1309.8"/>
				</g>
			</g>
		</g>
		<g>
			<g>
				
					<rect x="1030.1" y="1284.9" transform="matrix(-1.609993e-04 1 -1 -1.609993e-04 2332.1353 258.9365)" class="st18" width="13.1" height="20.9"/>
				<g>
					<g>
						<polyline class="st24" points="1032.6,1293.9 1031.3,1295.2 1032.5,1296.6 						"/>
					</g>
					<line class="st24" x1="1031.3" y1="1295.2" x2="1042.1" y2="1295.3"/>
				</g>
			</g>
		</g>
	</g>
	<g>
		<rect x="1064.4" y="1287.2" class="st18" width="13.1" height="13.1"/>
		<text transform="matrix(1 0 0 1 1068.7076 1295.3477)" class="st25 st26 st27">Л</text>
	</g>
	<g>
		<rect x="873" y="1289.2" class="st18" width="13.1" height="13.1"/>
		<text transform="matrix(1 0 0 1 877.3451 1297.3477)" class="st25 st26 st27">Л</text>
	</g>
	<path class="st23" d="M1198.1,571.5l-1.6,26.8c0,0,0.2,5,7.9,7.1c5.4,1.5,3.2,12.5,2.2,18.4s-8.2,59.2-8.2,59.2"/>
	<line class="st23" x1="1200.8" y1="539.4" x2="1200" y2="552"/>
	<path class="st23" d="M1310.8,1115.9v12.1c0,0-42.3,62.1-120,63.6"/>
	<line class="st23" x1="1310.8" y1="1128" x2="1337.1" y2="1140.5"/>
	<path class="st21" d="M752.8,1339.8l-74,141.3c0,0,117.5,75.5,298.9,75.5"/>
	<path class="st21" d="M1225.1,1328.2l82,152.9c0,0-117.5,75.5-298.9,75.5"/>
	<path class="st23" d="M1327.4,1256.6l-32.7-48c0,0-39.8,24.5-61.3,28"/>
	<path class="st23" d="M1217.2,1240.2c-0.7-0.6-18.1,0-18.1,0v17.2"/>
	<g>
		<g>
			<g>
				<polyline class="st28" points="972,272.4 975,275.3 977.9,272.6 				"/>
			</g>
		</g>
		<g>
			<text transform="matrix(1 0 0 1 934.7137 240.3429)" class="st29 st30 st31">Центральный вход</text>
			<line class="st28" x1="975.1" y1="250.3" x2="975.1" y2="274.9"/>
		</g>
	</g>
	<g>
		<g>
			<g>
				
					<rect x="956.2" y="1534.8" transform="matrix(1.609992e-04 1 -1 1.609992e-04 2507.9229 582.2532)" class="st18" width="13.1" height="20.9"/>
				<g>
					<g>
						<polyline class="st24" points="966.8,1543.8 968.2,1545.2 966.9,1546.5 						"/>
					</g>
					<line class="st24" x1="968.2" y1="1545.2" x2="957.3" y2="1545.3"/>
				</g>
			</g>
		</g>
		<g>
			<g>
				
					<rect x="956.4" y="1520.4" transform="matrix(-1.609993e-04 1 -1 -1.609993e-04 2493.9714 568.1262)" class="st18" width="13.1" height="20.9"/>
				<g>
					<g>
						<polyline class="st24" points="958.9,1529.4 957.6,1530.7 958.8,1532.1 						"/>
					</g>
					<line class="st24" x1="957.6" y1="1530.7" x2="968.4" y2="1530.8"/>
				</g>
			</g>
		</g>
	</g>
</g>
<g id="b-6">
	<rect x="1058.4" y="595.1" class="st32" width="84.7" height="38"/>
	<rect x="1058.4" y="538.1" class="st32" width="84.7" height="41.2"/>
	<rect x="795.3" y="532.6" class="st32" width="84.7" height="43.7"/>
	<g>
		<path class="st32" d="M1118,384c5.9-15.6,12.1-37.9,13.1-41.7l-37.1-4.6l-0.3,5.1l-3.8,55.8C1104.3,399.4,1113.6,395.5,1118,384z"
			/>
	</g>
	<g>
		<path class="st32" d="M831.7,384c-5.9-15.6-12.1-37.9-13.1-41.7l37.1-4.6l0.3,5.1l3.8,56.6C845.3,400.2,836,395.5,831.7,384z"/>
	</g>
	
		<rect x="1036.2" y="1170.6" transform="matrix(-1 -1.224647e-16 1.224647e-16 -1 2153.1912 2362.8826)" class="st32" width="80.9" height="21.8"/>
	
		<rect x="842.4" y="1170.6" transform="matrix(-1 -1.224647e-16 1.224647e-16 -1 1765.6366 2362.8826)" class="st32" width="80.9" height="21.8"/>
	
		<rect x="794.1" y="1236.9" transform="matrix(-1 -1.224647e-16 1.224647e-16 -1 1653.387 2516.9941)" class="st32" width="65.3" height="43.2"/>
	
		<rect x="1108.7" y="1240.2" transform="matrix(-1 -1.224647e-16 1.224647e-16 -1 2268.6882 2523.6609)" class="st32" width="51.3" height="43.2"/>
	<path class="st32" d="M1263.4,601.1l25.6-55.3c59.5,43.7,111.5,114.2,111.5,114.2s16.7,21.7,22.7,35.2l-57.8,16
		C1365.2,711.2,1342.8,646.3,1263.4,601.1z"/>
	<path class="st32" d="M513,720.4c0,0,50.6-92.4,126.2-155.1l32.5,47.1c0,0-46.6,34-94.2,126.1L513,720.4z"/>
	<path class="st32" d="M634.6,1265.9l28.2-46.2c0,0-56.3-39.4-91.5-127l-66,8.3C505.4,1101.1,556.6,1207.2,634.6,1265.9z"/>
	<path class="st32" d="M1400.9,1172.8c0,0,28-38.8,38.3-60.8h-72.5l-3.5,9.3c-2.5,6.7-5.5,13.1-9.1,19.2l-4.2,7.2L1400.9,1172.8z"/>
</g>
<g id="r-6">
	<rect x="952.8" y="650.2" class="st33" width="23.3" height="26"/>
	<rect x="1058.4" y="650.2" class="st33" width="23.3" height="26"/>
</g>
<g id="g-6">
	<rect x="1127.5" y="634.8" class="st34" width="15.5" height="15.5"/>
</g>
<g id="f-6">
	<rect x="944.4" y="558.6" class="st35" width="63.5" height="46"/>
	<polygon class="st35" points="1200.8,505.6 1200,503.3 1198,501.3 1187,495.4 1139.6,477.8 1139.6,456.4 1200.8,466.3 	"/>
	<polygon class="st35" points="613.8,919.2 613.8,954.1 649.8,954.1 649.8,875.3 621.3,875.3 613.8,875.3 598.3,875.3 598.3,919.2 	
		"/>
	<polygon class="st35" points="963,1192 963.1,1182.9 992.6,1183.1 992.5,1192.2 1004.7,1192.3 1004.9,1171 995.4,1170.9 
		992.7,1170.9 963.2,1170.7 954.7,1170.6 950.9,1170.6 950.7,1191.9 	"/>
	<path class="st35" d="M676.6,698.2L676.6,698.2l1.7,1.4c33.4-36.5,71-42.2,72-42.2v-11.3v-9.7h-12.1V649c-7,2.1-16.4,5.5-26.7,10.9
		l-6.4-11.1l-10.2,5.9l6.4,11c-7.8,4.8-15.7,10.8-23.3,18.1l-10-8.1l-7.7,9.3L676.6,698.2z"/>
	<path class="st35" d="M1201.9,655.4L1201.9,655.4l-0.3,2.1c48.5,9.5,72.9,38.7,73.4,39.5l9.6-5.9l8.3-5.1l-6.3-10.3l-10.8,6.6
		c-5.4-4.9-13.2-11.1-23.2-17.1l6.1-11.2l-10.3-5.6l-6.1,11.2c-8.2-4.1-17.4-7.8-27.6-10.5l1.7-12.7l-11.9-1.8L1201.9,655.4z"/>
	
		<rect x="1310.4" y="935.7" transform="matrix(6.123234e-17 -1 1 6.123234e-17 384.7942 2277.8809)" class="st35" width="41.8" height="21.8"/>
	
		<rect x="1310.4" y="870.8" transform="matrix(6.123234e-17 -1 1 6.123234e-17 449.6578 2213.0173)" class="st35" width="41.8" height="21.8"/>
	<polygon class="st35" points="859.7,400.8 859.7,465.3 893.8,458.8 893.8,397.8 	"/>
	<rect x="882.6" y="633.6" class="st35" width="16.1" height="16.1"/>
	<rect x="968" y="500" class="st35" width="16.1" height="16.1"/>
	<rect x="857.8" y="633.6" class="st35" width="16.1" height="16.1"/>
	<rect x="830.6" y="633.6" class="st35" width="16.1" height="16.1"/>
	
		<rect x="727.1" y="1154.6" transform="matrix(0.8812 0.4727 -0.4727 0.8812 636.8742 -209.4051)" class="st35" width="16.1" height="16.1"/>
	
		<rect x="702.3" y="1141.3" transform="matrix(0.8812 0.4727 -0.4727 0.8812 627.6489 -199.2709)" class="st35" width="16.1" height="16.1"/>
	<polygon class="st35" points="1156.8,635.4 1156.8,595.1 1143.9,595.1 1143.9,650.4 1156.1,650.4 1156.8,650.4 1169.1,650.4 
		1169.1,635.4 	"/>
	<rect x="970.7" y="1227.7" class="st35" width="16.1" height="16.1"/>
	<polygon class="st35" points="1089.9,401 1089.9,465.5 1055.8,459 1055.8,398 	"/>
</g>
</svg>
