<?xml version="1.0" encoding="utf-8"?>
<!-- Generator: Adobe Illustrator 20.1.0, SVG Export Plug-In . SVG Version: 6.00 Build 0)  -->
<svg version="1.1" id="Уровень_3" xmlns="http://www.w3.org/2000/svg" xmlns:xlink="http://www.w3.org/1999/xlink" x="0px"
	 y="0px" viewBox="0 0 1954 1790.7" style="enable-background:new 0 0 1954 1790.7;" xml:space="preserve">
<style type="text/css">
	.st0{fill:none;}
	.st1{fill:#A8C456;}
	.st2{fill:none;stroke:#FFFFFF;stroke-miterlimit:10;}
	.st3{fill:#FFFFFF;}
	.st4{fill:none;stroke:#000000;stroke-width:2;stroke-miterlimit:10;}
	.st5{fill:#ADADAD;}
	.st6{opacity:0.3;fill:none;stroke:#4D4D4D;stroke-miterlimit:10;}
	.st7{fill:none;stroke:#ADADAD;stroke-miterlimit:10;}
	.st8{fill:none;stroke:#D2D5D9;stroke-width:4;stroke-miterlimit:10;}
	.st9{opacity:0.3;fill:#595959;}
	.st10{fill:none;stroke:#D2D5D9;stroke-width:2;stroke-miterlimit:10;}
	.st11{fill:#D2D5D9;}
	.st12{fill:none;stroke:#ADADAD;stroke-width:0.75;stroke-linecap:round;stroke-linejoin:round;stroke-miterlimit:10;}
	.st13{font-family:'OsnovaProMedium';}
	.st14{font-size:6.1731px;}
	.st15{opacity:0.3;fill:#FFFFFF;}
	.st16{fill:none;stroke:#7A8991;stroke-linecap:round;stroke-linejoin:round;stroke-miterlimit:10;}
	.st17{fill:#7A8991;}
	.st18{font-family:'OsnovaPro';}
	.st19{font-size:9px;}
	.st20{fill:#40AE49;}
	.st21{fill:#885BA6;}
	.st22{fill:#0093D5;}
</style>
<g id="plan">
	<path class="st0" d="M1322.7,646.3l0.5,0.5l0,0C1323,646.7,1322.8,646.5,1322.7,646.3L1322.7,646.3z"/>
	
		<rect x="727.3" y="746.3" transform="matrix(-1 -1.224647e-16 1.224647e-16 -1 1954.5962 1824.6287)" class="st1" width="500" height="332"/>
	
		<rect x="737.6" y="757.3" transform="matrix(-1 -1.224647e-16 1.224647e-16 -1 1954.3208 1825.6287)" class="st2" width="479" height="311.1"/>
	<line class="st2" x1="976.1" y1="1067.8" x2="976.1" y2="757.8"/>
	
		<rect x="1141.3" y="820.8" transform="matrix(-1 -1.224647e-16 1.224647e-16 -1 2357.9963 1826.7052)" class="st2" width="75.4" height="185.2"/>
	<polyline class="st2" points="1217.2,955.3 1191.9,955.3 1191.9,871.4 1217.2,871.4 	"/>
	<path class="st2" d="M1141.7,947.3c-10.5-7.5-17.4-19.9-17.4-33.8c0-13.9,6.8-26.2,17.3-33.8"/>
	<rect x="737.6" y="821.9" class="st2" width="75.4" height="185.2"/>
	<polyline class="st2" points="737.6,872.4 762.4,872.4 762.4,956.4 737.6,956.4 	"/>
	<path class="st2" d="M813,881c10.5,7.5,16.7,19.4,16.7,33.3c0,13.9-6.2,25.8-16.7,33.3"/>
	<circle class="st3" cx="976" cy="913.9" r="2.1"/>
	<path class="st4" d="M717.1,1191.3"/>
	<path d="M982.1,734.3"/>
	<polygon points="1262.1,735.1 1262.2,735 1262.2,735 	"/>
	<polygon points="1262.1,735.1 1262.2,735 1262.2,735 	"/>
	<polygon points="1262.1,735.1 1262.2,735 1262.2,735 	"/>
	<rect x="1059.5" y="1203.8" class="st5" width="0.3" height="0"/>
	<path class="st3" d="M1265.3,1181.2c-0.1,0-0.2,0.1-0.3,0.1l0.4,0.6l1.7-1.1l-0.2-0.4c-0.5,0.3-1,0.6-1.5,0.9L1265.3,1181.2z"/>
	<polygon points="980.8,1112 980.8,1112 980.8,1112.3 980.8,1112.3 	"/>
	<path class="st5" d="M1208.6,590c0.2,0,0.5,0.1,0.7,0.1L1208.6,590L1208.6,590z"/>
	<path class="st3" d="M1209.6,590.1L1209.6,590.1c-0.1,0-0.1,0-0.2,0L1209.6,590.1z"/>
	<path class="st3" d="M1360.9,606.5l-0.2-0.2c0.2,0.2,0.4,0.4,0.5,0.6l0.1-0.1L1360.9,606.5z"/>
	<polygon class="st0" points="810.8,1203.8 810.8,1203.8 810.8,1212.6 	"/>
	<path class="st2" d="M1206.5,1068.4c0-5.6,4.6-10.2,10.2-10.2"/>
	<path class="st2" d="M1216.7,767.5c-5.6,0-10.2-4.6-10.2-10.2"/>
	<path class="st2" d="M737.6,1058.2c5.6,0,10.2,4.6,10.2,10.2"/>
	<path class="st2" d="M747.8,757.3c0,5.6-4.6,10.2-10.2,10.2"/>
	<path class="st3" d="M1323.2,646.8l-0.5-0.5l0,0C1322.8,646.5,1323,646.7,1323.2,646.8L1323.2,646.8z"/>
	<path class="st3" d="M1272.2,609.6L1272.2,609.6C1272.2,609.7,1272.3,609.7,1272.2,609.6L1272.2,609.6L1272.2,609.6z"/>
	<polygon class="st3" points="1272.3,609.7 1272.3,609.7 1272.3,609.7 	"/>
	<path class="st5" d="M1202.6,1202.6"/>
	<path class="st3" d="M1209,1237.6L1209,1237.6l-0.7,0.1l0,0C1208.5,1237.7,1208.8,1237.6,1209,1237.6z"/>
	<path class="st0" d="M1208.3,1237.7c-0.3,0-0.6,0.1-0.9,0.1l0,0L1208.3,1237.7z"/>
	<polygon class="st3" points="1144.8,1238.8 1144.8,1238.8 1142.8,1238.8 1142.8,1238.8 1143.8,1238.8 	"/>
	<polygon class="st3" points="1070.6,1238.8 1070.6,1238.5 1068.6,1238.5 1068.6,1238.8 1069.8,1238.8 	"/>
	<path class="st5" d="M757,1204.6"/>
	<path class="st3" d="M750.5,1239.6L750.5,1239.6l0.7,0.1l0,0C751,1239.7,750.8,1239.6,750.5,1239.6z"/>
	<path class="st0" d="M751.3,1239.7c0.3,0,0.6,0.1,0.9,0.1l0,0L751.3,1239.7z"/>
	<polygon class="st3" points="814.8,1240.8 814.8,1240.8 816.8,1240.8 816.8,1240.8 815.8,1240.8 	"/>
	<path class="st5" d="M759,624.6"/>
	<path class="st3" d="M752.5,589.6L752.5,589.6l0.7-0.1l0,0C753,589.5,752.8,589.6,752.5,589.6z"/>
	<path class="st0" d="M753.3,589.5c0.3,0,0.6-0.1,0.9-0.1l0,0L753.3,589.5z"/>
	<polygon class="st3" points="816.8,588.4 816.8,588.4 818.8,588.4 818.8,588.4 817.8,588.4 	"/>
	<polygon class="st3" points="890.9,588.4 890.9,588.7 892.9,588.7 892.9,588.4 891.8,588.4 	"/>
	<path class="st3" d="M1209,592.6L1209,592.6l-0.7-0.1l0,0C1208.5,592.5,1208.8,592.6,1209,592.6z"/>
	<path class="st0" d="M1208.3,592.5c-0.3,0-0.6-0.1-0.9-0.1l0,0L1208.3,592.5z"/>
	
		<rect x="1216.7" y="896.1" transform="matrix(-1 -1.224647e-16 1.224647e-16 -1 2441.9609 1827.7816)" class="st2" width="8.6" height="35.5"/>
	<rect x="729" y="896.1" class="st2" width="8.6" height="35.5"/>
	<rect x="884.7" y="731.8" class="st5" width="0.1" height="0"/>
	<polygon class="st3" points="884.8,618.8 885.8,618.8 885.8,618.8 884.7,618.8 884.7,618.8 	"/>
	<polygon class="st3" points="980.8,618.8 980.8,618.8 978.8,618.8 978.8,618.8 979.8,618.8 	"/>
	<rect x="1076.8" y="618.8" class="st3" width="1" height="0"/>
	<rect x="1075.8" y="618.8" class="st3" width="1" height="0"/>
	<path class="st0" d="M1248.5,1106.9l-1.1,1C1247.8,1107.6,1248.1,1107.3,1248.5,1106.9C1248.5,1106.9,1248.5,1106.9,1248.5,1106.9z
		"/>
	<path class="st0" d="M1248.6,1106.9C1248.6,1106.9,1248.6,1106.9,1248.6,1106.9L1248.6,1106.9L1248.6,1106.9L1248.6,1106.9z"/>
	<path class="st5" d="M1249.3,1106.1c-0.2,0.2-0.3,0.3-0.5,0.5l-0.2,0.2l0.1,0C1248.8,1106.6,1249,1106.4,1249.3,1106.1z"/>
	<path class="st0" d="M1248.5,1107C1248.5,1106.9,1248.5,1106.9,1248.5,1107C1248.5,1106.9,1248.5,1106.9,1248.5,1107L1248.5,1107z"
		/>
	<path class="st0" d="M1248.6,1106.9L1248.6,1106.9C1248.6,1106.9,1248.6,1106.9,1248.6,1106.9
		C1248.6,1106.9,1248.6,1106.9,1248.6,1106.9z"/>
	<path class="st5" d="M1248.5,1106.9C1248.6,1106.9,1248.6,1106.9,1248.5,1106.9L1248.5,1106.9L1248.5,1106.9
		C1248.5,1106.9,1248.5,1106.9,1248.5,1106.9C1248.5,1106.9,1248.5,1106.9,1248.5,1106.9z"/>
	<path class="st5" d="M1249.5,1106.8"/>
	<path class="st5" d="M1248.5,1107"/>
	<path class="st5" d="M1248.6,1106.9"/>
	<path class="st3" d="M1247.4,1107.9c0,0-0.1,0.1-0.1,0.1L1247.4,1107.9L1247.4,1107.9z"/>
	<path class="st3" d="M1248.5,1106.9C1248.5,1106.9,1248.5,1106.9,1248.5,1106.9L1248.5,1106.9L1248.5,1106.9z"/>
	<polygon class="st3" points="1165.8,618.8 1165.8,618.8 1163.8,618.8 1163.8,618.8 1164.8,618.8 	"/>
	<rect x="883.7" y="731.8" class="st3" width="1" height="2.4"/>
	<rect x="883.8" y="618.8" class="st3" width="0.9" height="0"/>
	<polygon class="st5" points="798.8,618.8 798.8,618.8 796.8,618.8 796.8,618.8 797.8,618.8 	"/>
	<path class="st5" d="M1246.5,1100.6"/>
	<path class="st6" d="M1263.8,736.7"/>
	<path class="st5" d="M719,1111.9"/>
	<path class="st5" d="M1227.6,1120.3"/>
	<path class="st7" d="M545.7,662.3"/>
	<polyline class="st8" points="854.3,1222 854.3,1212.6 928.2,1212.6 	"/>
	<path class="st8" d="M993.5,1212.6H1116v26.3h0.5h62.3c114.6,0,207.5-92.9,207.5-207.5V794.5c0-114.6-92.9-207.5-207.5-207.5H781.2
		c-114.6,0-207.5,92.9-207.5,207.5v236.8c0,114.6,92.9,207.5,207.5,207.5h73v-6"/>
	<line class="st8" x1="940" y1="1212.6" x2="981.4" y2="1212.6"/>
	<path class="st8" d="M949.5,1375.4c-42.8-1.7-83-7-120.7-15.8h-1.9"/>
	<path class="st8" d="M1009.8,1375.8c41.8-1.9,85.3-7.7,122.1-16.2"/>
	<path class="st8" d="M479.3,926c1.2,51.9,9.1,100.2,23.4,144.5l11.2,30.8c37.8,93,105.4,166.2,196.9,215.6l1.8,0.9
		c0,0,29.7,14.7,37.8,17.6h0.6c9.1,3.6,16.6,6.3,16.6,6.3c13.1,4.7,25.5,8.6,39.4,12.4l0.3,0.2"/>
	<path class="st8" d="M500.7,760.5c-7.7,25.4-13.4,52.2-17,80.1c-0.7,5.2-1.3,10.5-1.8,15.8c-1.4,14.3-2.3,28.8-2.6,43.6"/>
	<path class="st8" d="M500.5,761.3c2.6-8.8,11.4-32.6,11.4-32.6c37.6-96.9,106.7-173.1,202.5-221l36.3-16.5h0.5
		c17.7-7.1,36.2-13.2,55.4-18.5l1.1-0.7"/>
	<path class="st8" d="M1152.5,471.9l0.5,0.3c17.8,4.9,35,10.6,51.6,17l0,0c0,0,34,14.3,45.2,20.2c53.1,28.3,99.2,64.4,135.1,108.7
		c0,0,23.8,31.7,30.2,42.3c12.9,21.5,24.6,44.1,34.1,68.1l0.1,0.5c0,0,7.7,21.1,11,31l0.2,1.1c14.3,46.6,21.8,97.4,21.8,151.7h0
		c0,0.1,0,0.3,0,0.4c0,0.1,0,0.3,0,0.4h0c-0.1,55.6-7.8,107.4-22.6,154.8l-0.1,0.6c0,0-11.4,31.9-12.3,33.9
		c-38.4,94-106.6,168-200.2,215l-1.2,0.6c-6.9,3.4-39,17.6-39,17.6l-2.8,1.2c-6.5,2.5-11.3,4.3-11.3,4.3c-12.8,4.6-26.4,8.7-40,12.4
		"/>
	<path class="st8" d="M1153.5,1354.6c1.2,1.9,1.9,4.1,1.9,6.5c0,6.6-5.4,12-12,12c-6.6,0-12-5.4-12-12c0-0.8,0.1-1.6,0.2-2.4"/>
	<path class="st8" d="M806.6,1354.6c-1.2,1.9-1.9,4.1-1.9,6.5c0,6.6,5.4,12,12,12s12-5.4,12-12c0-0.8-0.1-1.6-0.2-2.4"/>
	<path class="st8" d="M1153.5,471c1.2-1.9,1.9-4.1,1.9-6.5c0-6.6-5.4-12-12-12c-6.6,0-12,5.4-12,12c0,0.8,0.1,1.6,0.2,2.4"/>
	<path class="st8" d="M806.6,471c-1.2-1.9-1.9-4.1-1.9-6.5c0-6.6,5.4-12,12-12s12,5.4,12,12c0,0.8-0.1,1.6-0.2,2.4"/>
	<polyline class="st9" points="748.4,943.7 748.4,906.1 738.2,895.9 738.2,932.2 728.5,932.2 739.8,943.7 748.4,943.7 	"/>
	<polyline class="st9" points="1236,943.5 1236,905.8 1225.9,895.6 1225.9,932 1216.2,932 1227.4,943.5 1236,943.5 	"/>
	<circle class="st2" cx="974.7" cy="913.5" r="41.6"/>
	<path class="st8" d="M953.7,451c-44.5,1.5-85.9,6.9-124.9,16l-0.7-0.1"/>
	<line class="st10" x1="854.9" y1="1363.9" x2="854.9" y2="1238.9"/>
	<line class="st10" x1="1115" y1="1363.9" x2="1115" y2="1238.9"/>
	<g>
		
			<rect x="765.6" y="522.1" transform="matrix(-0.9997 2.588200e-02 -2.588200e-02 -0.9997 1563.1346 1044.9542)" class="st11" width="18.4" height="20.9"/>
		<g>
			<g>
				<polyline class="st12" points="776.4,528.5 774.9,527.2 773.7,528.5 				"/>
			</g>
			<line class="st12" x1="775" y1="527.2" x2="775.1" y2="538"/>
		</g>
	</g>
	<g>
		
			<rect x="784.9" y="521.6" transform="matrix(0.9997 -2.588200e-02 2.588200e-02 0.9997 -13.5041 20.73)" class="st11" width="18.4" height="20.9"/>
		<g>
			<g>
				<polyline class="st12" points="792.5,536.1 793.9,537.4 795.2,536.1 				"/>
			</g>
			<line class="st12" x1="793.9" y1="537.4" x2="793.7" y2="526.6"/>
		</g>
	</g>
	<g>
		
			<rect x="1165.7" y="521.8" transform="matrix(-0.9999 -1.269060e-02 1.269060e-02 -0.9999 2343.0022 1079.3577)" class="st11" width="18.4" height="20.9"/>
		<g>
			<g>
				<polyline class="st12" points="1176.6,528.2 1175.3,526.9 1173.9,528.1 				"/>
			</g>
			<line class="st12" x1="1175.3" y1="526.9" x2="1175.1" y2="537.7"/>
		</g>
	</g>
	<g>
		
			<rect x="1185" y="522" transform="matrix(0.9999 1.269060e-02 -1.269060e-02 0.9999 6.853 -15.1121)" class="st11" width="18.4" height="20.9"/>
		<g>
			<g>
				<polyline class="st12" points="1192.5,536.5 1193.8,537.8 1195.2,536.6 				"/>
			</g>
			<line class="st12" x1="1193.8" y1="537.8" x2="1194.1" y2="527"/>
		</g>
	</g>
	<g>
		
			<rect x="1169.3" y="1253.3" transform="matrix(-0.9999 -1.269060e-02 1.269060e-02 -0.9999 2340.7815 2542.3169)" class="st11" width="18.4" height="20.9"/>
		<g>
			<g>
				<polyline class="st12" points="1180.2,1259.7 1178.8,1258.4 1177.5,1259.6 				"/>
			</g>
			<line class="st12" x1="1178.8" y1="1258.4" x2="1178.6" y2="1269.2"/>
		</g>
	</g>
	<g>
		
			<rect x="1188.5" y="1253.4" transform="matrix(0.9999 1.269060e-02 -1.269060e-02 0.9999 16.1363 -15.098)" class="st11" width="18.4" height="20.9"/>
		<g>
			<g>
				<polyline class="st12" points="1196,1267.9 1197.4,1269.3 1198.7,1268.1 				"/>
			</g>
			<line class="st12" x1="1197.4" y1="1269.3" x2="1197.6" y2="1258.5"/>
		</g>
	</g>
	<g>
		
			<rect x="1034.1" y="1306" transform="matrix(-1.269060e-02 0.9999 -0.9999 -1.269060e-02 2372.8796 289.9779)" class="st11" width="18.4" height="20.9"/>
		<g>
			<g>
				<polyline class="st12" points="1039.2,1314.8 1037.9,1316.1 1039.1,1317.5 				"/>
			</g>
			<line class="st12" x1="1037.9" y1="1316.1" x2="1048.7" y2="1316.3"/>
		</g>
	</g>
	<g>
		
			<rect x="1034.3" y="1286.7" transform="matrix(1.269060e-02 -0.9999 0.9999 1.269060e-02 -266.879 2324.125)" class="st11" width="18.4" height="20.9"/>
		<g>
			<g>
				<polyline class="st12" points="1047.5,1298.9 1048.8,1297.6 1047.6,1296.2 				"/>
			</g>
			<line class="st12" x1="1048.8" y1="1297.6" x2="1038" y2="1297.3"/>
		</g>
	</g>
	<g>
		
			<rect x="1069.5" y="1324.4" transform="matrix(-0.9999 -1.269060e-02 1.269060e-02 -0.9999 2140.4604 2683.3601)" class="st11" width="18.4" height="20.9"/>
		<g>
			<g>
				<polyline class="st12" points="1080.4,1330.9 1079.1,1329.5 1077.8,1330.7 				"/>
			</g>
			<line class="st12" x1="1079.1" y1="1329.5" x2="1078.9" y2="1340.3"/>
		</g>
	</g>
	<g>
		
			<rect x="1088.8" y="1324.6" transform="matrix(0.9999 1.269060e-02 -1.269060e-02 0.9999 17.0313 -13.8268)" class="st11" width="18.4" height="20.9"/>
		<g>
			<g>
				<polyline class="st12" points="1096.3,1339.1 1097.7,1340.4 1099,1339.2 				"/>
			</g>
			<line class="st12" x1="1097.6" y1="1340.4" x2="1097.9" y2="1329.6"/>
		</g>
	</g>
	<g>
		
			<rect x="911.9" y="1306.9" transform="matrix(1.834815e-03 1 -1 1.834815e-03 2236.7952 393.7761)" class="st11" width="18.4" height="20.9"/>
		<g>
			<g>
				<polyline class="st12" points="917.1,1315.7 915.8,1317.1 917,1318.4 				"/>
			</g>
			<line class="st12" x1="915.8" y1="1317.1" x2="926.6" y2="1317.1"/>
		</g>
	</g>
	<g>
		
			<rect x="911.9" y="1287.6" transform="matrix(-1.834815e-03 -1 1 -1.834815e-03 -375.3327 2221.5127)" class="st11" width="18.4" height="20.9"/>
		<g>
			<g>
				<polyline class="st12" points="925.1,1299.7 926.4,1298.3 925.2,1297 				"/>
			</g>
			<line class="st12" x1="926.4" y1="1298.4" x2="915.6" y2="1298.3"/>
		</g>
	</g>
	<rect x="881.8" y="1288.9" class="st11" width="13.1" height="13.1"/>
	<text transform="matrix(1 0 0 1 886.1213 1296.9653)" class="st5 st13 st14">Л</text>
	<rect x="1072.3" y="1286.3" class="st11" width="13.1" height="13.1"/>
	<text transform="matrix(1 0 0 1 1076.5956 1294.4143)" class="st5 st13 st14">Л</text>
	<rect x="959.4" y="1272.4" class="st11" width="13.1" height="13.1"/>
	<text transform="matrix(1 0 0 1 963.7532 1280.4602)" class="st5 st13 st14">Л</text>
	<g>
		
			<rect x="766.7" y="1258.5" transform="matrix(-1 8.427202e-03 -8.427202e-03 -1 1562.3802 2531.384)" class="st11" width="18.4" height="20.9"/>
		<g>
			<g>
				<polyline class="st12" points="777.5,1264.9 776.1,1263.6 774.8,1264.9 				"/>
			</g>
			<line class="st12" x1="776.1" y1="1263.6" x2="776.1" y2="1274.4"/>
		</g>
	</g>
	<g>
		
			<rect x="785.9" y="1258.3" transform="matrix(1 -8.427202e-03 8.427202e-03 1 -10.6639 6.7457)" class="st11" width="18.4" height="20.9"/>
		<g>
			<g>
				<polyline class="st12" points="793.5,1272.8 794.9,1274.1 796.2,1272.9 				"/>
			</g>
			<line class="st12" x1="794.9" y1="1274.1" x2="794.9" y2="1263.3"/>
		</g>
	</g>
	<g>
		<g>
			
				<rect x="1441" y="809.5" transform="matrix(-1 1.609992e-04 -1.609992e-04 -1 2895.2969 1639.7382)" class="st11" width="13.1" height="20.9"/>
			<g>
				<g>
					<polyline class="st12" points="1449.1,824 1447.7,825.4 1446.4,824.1 					"/>
				</g>
				<line class="st12" x1="1447.7" y1="825.4" x2="1447.6" y2="814.5"/>
			</g>
		</g>
	</g>
	<g>
		<g>
			
				<rect x="1455.5" y="809.7" transform="matrix(-1 -1.609993e-04 1.609993e-04 -1 2923.9165 1640.5675)" class="st11" width="13.1" height="20.9"/>
			<g>
				<g>
					<polyline class="st12" points="1463.5,816.1 1462.1,814.8 1460.8,816 					"/>
				</g>
				<line class="st12" x1="1462.1" y1="814.8" x2="1462" y2="825.6"/>
			</g>
		</g>
	</g>
	<g>
		<g>
			
				<rect x="1439.3" y="1006.4" transform="matrix(-1 1.609992e-04 -1.609992e-04 -1 2891.9641 2033.4662)" class="st11" width="13.1" height="20.9"/>
			<g>
				<g>
					<polyline class="st12" points="1447.4,1020.9 1446,1022.2 1444.7,1021 					"/>
				</g>
				<line class="st12" x1="1446" y1="1022.2" x2="1445.9" y2="1011.4"/>
			</g>
		</g>
	</g>
	<g>
		<g>
			
				<rect x="1453.8" y="1006.6" transform="matrix(-1 -1.609993e-04 1.609993e-04 -1 2920.5203 2034.2949)" class="st11" width="13.1" height="20.9"/>
			<g>
				<g>
					<polyline class="st12" points="1461.8,1013 1460.4,1011.7 1459.1,1012.9 					"/>
				</g>
				<line class="st12" x1="1460.5" y1="1011.7" x2="1460.4" y2="1022.5"/>
			</g>
		</g>
	</g>
	<path class="st8" d="M1023.3,1212.6"/>
	<polyline class="st10" points="1023.3,1212.6 1023.3,1238.7 1114.2,1238.7 	"/>
	<g>
		<g>
			
				<rect x="496.1" y="841.9" transform="matrix(-1 1.609992e-04 -1.609992e-04 -1 1005.4114 1704.6553)" class="st11" width="13.1" height="20.9"/>
			<g>
				<g>
					<polyline class="st12" points="504.1,856.4 502.7,857.7 501.4,856.5 					"/>
				</g>
				<line class="st12" x1="502.8" y1="857.7" x2="502.7" y2="846.9"/>
			</g>
		</g>
	</g>
	<g>
		<g>
			
				<rect x="510.5" y="842.1" transform="matrix(-1 -1.609993e-04 1.609993e-04 -1 1034.0205 1705.1803)" class="st11" width="13.1" height="20.9"/>
			<g>
				<g>
					<polyline class="st12" points="518.6,848.5 517.2,847.2 515.9,848.4 					"/>
				</g>
				<line class="st12" x1="517.2" y1="847.2" x2="517.1" y2="858"/>
			</g>
		</g>
	</g>
	<g>
		<g>
			
				<rect x="496.1" y="968.1" transform="matrix(-1 1.609992e-04 -1.609992e-04 -1 1005.4318 1957.1553)" class="st11" width="13.1" height="20.9"/>
			<g>
				<g>
					<polyline class="st12" points="504.1,982.7 502.7,984 501.4,982.8 					"/>
				</g>
				<line class="st12" x1="502.8" y1="984" x2="502.7" y2="973.2"/>
			</g>
		</g>
	</g>
	<g>
		<g>
			
				<rect x="510.5" y="968.3" transform="matrix(-1 -1.609993e-04 1.609993e-04 -1 1034.0002 1957.6803)" class="st11" width="13.1" height="20.9"/>
			<g>
				<g>
					<polyline class="st12" points="518.6,974.7 517.2,973.4 515.9,974.7 					"/>
				</g>
				<line class="st12" x1="517.2" y1="973.4" x2="517.1" y2="984.3"/>
			</g>
		</g>
	</g>
	<path class="st3" d="M884.6,618.7h-86v113.1c22.9,0,52.8,0.1,86,0.1V618.7z"/>
	<path class="st15" d="M884.6,618.7h-86v113.1c22.9,0,52.8,0.1,86,0.1V618.7z"/>
	<path class="st3" d="M885.7,731.8c29.4,0,61.4,0.1,93.4,0.1V618.7h-93.4V731.8z"/>
	<path class="st15" d="M885.7,731.8c29.4,0,61.4,0.1,93.4,0.1V618.7h-93.4V731.8z"/>
	<path class="st3" d="M1076.6,618.7h-96.6v113.2c33.1,0,66.2,0,96.6,0V618.7z"/>
	<path class="st15" d="M1076.6,618.7h-96.6v113.2c33.1,0,66.2,0,96.6,0V618.7z"/>
	<path class="st3" d="M1164.3,731.9V618.7h-86.6V732C1111.2,732,1141.3,732,1164.3,731.9z"/>
	<path class="st15" d="M1164.3,731.9V618.7h-86.6V732C1111.2,732,1141.3,732,1164.3,731.9z"/>
	<path class="st3" d="M1266.5,643c-25.6-15.4-55.5-24.3-87.4-24.3h-14v113.2c26.1,0,42.7-0.1,44.1-0.2L1266.5,643z"/>
	<path class="st15" d="M1266.5,643c-25.6-15.4-55.5-24.3-87.4-24.3h-14v113.2c26.1,0,42.7-0.1,44.1-0.2L1266.5,643z"/>
	<path class="st3" d="M1262.7,734.5l59.3-38c-14-21.5-32.8-39.7-54.7-53l-38.7,60.6C1228.5,704,1246.9,713.4,1262.7,734.5z"/>
	<path class="st15" d="M1262.7,734.5l59.3-38c-14-21.5-32.8-39.7-54.7-53l-38.7,60.6C1228.5,704,1246.9,713.4,1262.7,734.5z"/>
	<path class="st3" d="M1247.8,718.9l0,68.9h101.8c-0.3-33.3-10.2-64.4-27.1-90.6l-59.8,38.7C1262.7,735.9,1253.4,723.9,1247.8,718.9
		z"/>
	<path class="st15" d="M1247.8,718.9l0,68.9h101.8c-0.3-33.3-10.2-64.4-27.1-90.6l-59.8,38.7
		C1262.7,735.9,1253.4,723.9,1247.8,718.9z"/>
	<path class="st3" d="M1228.7,1120.5c-0.3,0.2-0.5,0.4-0.7,0.5l39.4,60.9c22.1-13.5,40.9-31.8,55-53.5l-59.6-38.2
		C1248.8,1108.8,1232.4,1118.5,1228.7,1120.5z"/>
	<path class="st15" d="M1228.7,1120.5c-0.3,0.2-0.5,0.4-0.7,0.5l39.4,60.9c22.1-13.5,40.9-31.8,55-53.5l-59.6-38.2
		C1248.8,1108.8,1232.4,1118.5,1228.7,1120.5z"/>
	<path class="st3" d="M1248,1105.4c5.7-5.1,14.7-16.6,14.7-16.6l60.1,38.9c16.8-26.3,26.7-57.4,26.8-90.8h-101.7L1248,1105.4z"/>
	<path class="st15" d="M1248,1105.4c5.7-5.1,14.7-16.6,14.7-16.6l60.1,38.9c16.8-26.3,26.7-57.4,26.8-90.8h-101.7L1248,1105.4z"/>
	<path class="st3" d="M1247.8,788.7l0.1,123.5h101.8v-123c0-0.2,0-0.4,0-0.5H1247.8z"/>
	<path class="st15" d="M1247.8,788.7l0.1,123.5h101.8v-123c0-0.2,0-0.4,0-0.5H1247.8z"/>
	<polygon class="st3" points="1247.9,1035.9 1349.6,1035.9 1349.6,913.2 1247.9,913.2 	"/>
	<polygon class="st15" points="1247.9,1035.9 1349.6,1035.9 1349.6,913.2 1247.9,913.2 	"/>
	<path class="st3" d="M1227.4,1121.3l-1.8-2.7c-4.4-6.9-15.7-24.4-15.7-24.4l-59.2-0.1v112.6h28.4c32,0,61.9-8.9,87.6-24.4
		L1227.4,1121.3L1227.4,1121.3z"/>
	<path class="st15" d="M1227.4,1121.3l-1.8-2.7c-4.4-6.9-15.7-24.4-15.7-24.4l-59.2-0.1v112.6h28.4c32,0,61.9-8.9,87.6-24.4
		L1227.4,1121.3L1227.4,1121.3z"/>
	<path class="st3" d="M706.8,1103.8l-49.9,44.4c8.1,9.2,17.2,17.6,27.1,25c9.8,7.3,20.5,13.5,31.8,18.6l26.7-62
		C742.5,1129.8,725.4,1123.1,706.8,1103.8z"/>
	<path class="st15" d="M706.8,1103.8l-49.9,44.4c8.1,9.2,17.2,17.6,27.1,25c9.8,7.3,20.5,13.5,31.8,18.6l26.7-62
		C742.5,1129.8,725.4,1123.1,706.8,1103.8z"/>
	<path class="st3" d="M732.7,1123.8l11,5.4l-26.4,63.2c20.8,9.1,43.8,14.2,67.8,14.2H810v-112.9l-57.6-0.1L732.7,1123.8z"/>
	<path class="st15" d="M732.7,1123.8l11,5.4l-26.4,63.2c20.8,9.1,43.8,14.2,67.8,14.2H810v-112.9l-57.6-0.1L732.7,1123.8z"/>
	<polygon class="st3" points="1059.8,1206.3 1149.7,1206.3 1149.7,1094.1 1059.8,1094 	"/>
	<polygon class="st15" points="1059.8,1206.3 1149.7,1206.3 1149.7,1094.1 1059.8,1094 	"/>
	<polygon class="st3" points="811.6,1206.3 899.1,1206.3 899.1,1093.8 811.6,1093.7 	"/>
	<polygon class="st15" points="811.6,1206.3 899.1,1206.3 899.1,1093.8 811.6,1093.7 	"/>
	<polygon class="st3" points="995.3,1117.4 979.9,1117.5 979.9,1206.3 1058.7,1206.3 1058.7,1094 995.3,1093.9 	"/>
	<polygon class="st15" points="995.3,1117.4 979.9,1117.5 979.9,1206.3 1058.7,1206.3 1058.7,1094 995.3,1093.9 	"/>
	<polygon class="st3" points="963.6,1093.9 900.1,1093.8 900.1,1206.3 978.9,1206.3 978.9,1117.5 963.6,1117.4 	"/>
	<polygon class="st15" points="963.6,1093.9 900.1,1093.8 900.1,1206.3 978.9,1206.3 978.9,1117.5 963.6,1117.4 	"/>
	<path class="st3" d="M714.9,1110.7l0-58.4l-96.6,19.1c6.1,28.6,19.4,54.6,37.9,76l50.9-44.9
		C708.6,1104.6,713.6,1109.4,714.9,1110.7z"/>
	<path class="st15" d="M714.9,1110.7l0-58.4l-96.6,19.1c6.1,28.6,19.4,54.6,37.9,76l50.9-44.9
		C708.6,1104.6,713.6,1109.4,714.9,1110.7z"/>
	<path class="st3" d="M735.6,704.5l2.9,4.7l14.1,22.5c0,0,17.2,0,44.9,0.1V618.7h-12.5c-23.7,0-46.4,4.9-67,13.8l28.6,66.4
		C742.1,700.5,735.6,704.5,735.6,704.5z"/>
	<path class="st15" d="M735.6,704.5l2.9,4.7l14.1,22.5c0,0,17.2,0,44.9,0.1V618.7h-12.5c-23.7,0-46.4,4.9-67,13.8l28.6,66.4
		C742.1,700.5,735.6,704.5,735.6,704.5z"/>
	<path class="st3" d="M714.6,718.4c-2.1,1.9-4.9,4.4-6.3,5.8L656,678.1c-19.2,22.2-32.8,49.4-38.5,79.3l97,18.9L714.6,718.4z"/>
	<path class="st15" d="M714.6,718.4c-2.1,1.9-4.9,4.4-6.3,5.8L656,678.1c-19.2,22.2-32.8,49.4-38.5,79.3l97,18.9L714.6,718.4z"/>
	<path class="st3" d="M714.8,995.7H614.6v40.5c0,11.7,1.2,23.2,3.5,34.2l96.8-18.9L714.8,995.7z"/>
	<path class="st15" d="M714.8,995.7H614.6v40.5c0,11.7,1.2,23.2,3.5,34.2l96.8-18.9L714.8,995.7z"/>
	<path class="st3" d="M714.6,777.3l-97.2-19c-1.8,10-2.8,20.3-2.8,30.8v44h100.1L714.6,777.3z"/>
	<path class="st15" d="M714.6,777.3l-97.2-19c-1.8,10-2.8,20.3-2.8,30.8v44h100.1L714.6,777.3z"/>
	<polygon class="st3" points="714.7,914.9 614.6,914.9 614.6,994.7 714.8,994.7 	"/>
	<polygon class="st15" points="714.7,914.9 614.6,914.9 614.6,994.7 714.8,994.7 	"/>
	<polygon class="st3" points="714.7,834.1 614.6,834.1 614.6,913.9 714.7,913.9 	"/>
	<polygon class="st15" points="714.7,834.1 614.6,834.1 614.6,913.9 714.7,913.9 	"/>
	<path class="st3" d="M745.3,698.2l-28.2-65.3c-23.3,10.2-43.9,25.4-60.4,44.3l51.5,45.5C729.7,703.6,745.3,698.2,745.3,698.2z"/>
	<path class="st15" d="M745.3,698.2l-28.2-65.3c-23.3,10.2-43.9,25.4-60.4,44.3l51.5,45.5C729.7,703.6,745.3,698.2,745.3,698.2z"/>
	<polyline class="st11" points="845,731.5 845,684.7 850,684.7 850,652.8 845,652.8 845,618.7 836,618.7 836,652.8 831,652.8 
		831,684.7 836,684.7 836,731.5 	"/>
	<polyline class="st11" points="836.3,1093.7 836.3,1140.5 831.3,1140.5 831.3,1172.4 836.3,1172.4 836.3,1206.3 845.3,1206.3 
		845.3,1172.2 850.3,1172.4 850.3,1140.5 845.3,1140.5 845.3,1093.7 	"/>
	<polyline class="st11" points="929,1093.7 929,1140.5 924,1140.5 924,1172.4 929,1172.4 929,1206.3 938,1206.3 938,1172.2 
		943,1172.4 943,1140.5 938,1140.5 938,1093.7 	"/>
	<polyline class="st11" points="1023,1093.7 1023,1140.5 1018,1140.5 1018,1172.4 1023,1172.4 1023,1206.3 1032,1206.3 1032,1172.2 
		1037,1172.4 1037,1140.5 1032,1140.5 1032,1093.7 	"/>
	<polyline class="st11" points="1114.5,1093.7 1114.5,1140.5 1109.5,1140.5 1109.5,1172.4 1114.5,1172.4 1114.5,1206.3 
		1123.5,1206.3 1123.5,1172.2 1128.5,1172.4 1128.5,1140.5 1123.5,1140.5 1123.5,1093.7 	"/>
	<polyline class="st11" points="714.6,790 678.4,790 678.4,785 646.5,785 646.5,790 614.6,790 614.6,799 646.5,799 646.5,804 
		678.4,804 678.4,799 714.6,799 	"/>
	<polyline class="st11" points="714.6,860.7 678.4,860.7 678.4,855.7 646.5,855.7 646.5,860.7 614.6,860.7 614.6,869.7 646.5,869.7 
		646.5,874.7 678.4,874.7 678.4,869.7 714.6,869.7 	"/>
	<polyline class="st11" points="714.6,957 678.4,957 678.4,952 646.5,952 646.5,957 614.6,957 614.6,966 646.5,966 646.5,971 
		678.4,971 678.4,966 714.6,966 	"/>
	<polyline class="st11" points="1349.6,849.5 1313.8,849.5 1313.8,854.5 1281.9,854.5 1281.9,849.5 1247.8,849.5 1247.8,840.5 
		1281.9,840.5 1281.9,835.5 1313.8,835.5 1313.8,840.5 1349.6,840.5 	"/>
	<polyline class="st11" points="1349.6,986.5 1313.8,986.5 1313.8,991.5 1281.9,991.5 1281.9,986.5 1247.8,986.5 1247.8,977.5 
		1281.9,977.5 1281.9,972.5 1313.8,972.5 1313.8,977.5 1349.6,977.5 	"/>
	<polyline class="st11" points="714.6,1029.1 678.4,1029.1 678.4,1024.1 646.5,1024.1 646.5,1029.1 614.6,1029.1 614.6,1038.1 
		646.5,1038.1 646.5,1043.1 678.4,1043.1 678.4,1038.1 714.6,1038.1 	"/>
	<polyline class="st11" points="714.6,753.6 690.4,741.5 692.6,737 663.9,722.7 661.5,727.1 632.7,712.8 628.9,720.9 657.8,735.3 
		655.6,739.8 684.1,754 686.3,749.5 714.6,763.6 	"/>
	<polyline class="st11" points="936,731.5 936,684.7 941,684.7 941,652.8 936,652.8 936,618.7 927,618.7 927,652.8 922,652.8 
		922,684.7 927,684.7 927,731.5 	"/>
	<polyline class="st11" points="1031.7,731.5 1031.7,684.7 1036.7,684.7 1036.7,652.8 1031.7,652.8 1031.7,618.7 1022.7,618.7 
		1022.7,652.8 1017.7,652.8 1017.7,684.7 1022.7,684.7 1022.7,731.5 	"/>
	<polyline class="st11" points="1124,731.5 1124,684.7 1129,684.7 1129,652.8 1124,652.8 1124,618.7 1115,618.7 1115,652.8 
		1110,652.8 1110,684.7 1115,684.7 1115,731.5 	"/>
	<polyline class="st11" points="1193.9,732 1199.9,689.3 1204.9,690 1209.3,658.4 1204.4,657.7 1209.5,621.4 1200.6,620 
		1195.4,656.4 1190.5,655.7 1186,687.3 1191,688 1184.8,732 	"/>
	<polygon class="st11" points="759.5,620.6 764.5,656.1 769.4,655.4 773.9,687 768.9,687.7 775,731.7 765.9,731.7 760,689 
		755,689.7 750.6,658.1 755.5,657.4 750.2,622.3 	"/>
	<polyline class="st11" points="1193.9,1094.2 1199.9,1136.1 1204.9,1135.4 1209.3,1167 1204.4,1167.7 1209.5,1204 1200.6,1205.4 
		1195.4,1169 1190.5,1169.7 1186,1138.1 1191,1137.4 1184.8,1094.2 	"/>
	<polyline class="st11" points="759.5,1204.8 764.5,1169.2 769.4,1169.9 773.9,1138.4 768.9,1137.7 775,1093.7 765.9,1093.7 
		760,1136.4 755,1135.7 750.6,1167.3 755.5,1168 750.2,1203.1 	"/>
	<polyline class="st11" points="1247.8,775.5 1280,767.7 1281.1,772.6 1312.2,765.3 1311.1,760.4 1345.7,752.7 1343.5,744 
		1309,751.7 1307.9,746.8 1276.8,754.1 1277.9,758.9 1247.8,766.3 	"/>
	<polyline class="st11" points="714.8,1073.9 690.9,1086 693.2,1090.5 664.4,1104.8 662,1100.4 633.7,1114.3 629.7,1106.4 
		658.4,1092.2 656.1,1087.7 684.7,1073.5 686.9,1078 714.8,1063.9 	"/>
	<polyline class="st11" points="1247.9,1052.3 1280.6,1059.8 1281.7,1054.9 1312.8,1062.2 1311.6,1067.1 1345.2,1074.6 1343,1083.3 
		1309.6,1075.8 1308.4,1080.7 1277.4,1073.4 1278.5,1068.6 1247.9,1061.1 	"/>
	<rect x="1247.8" y="933.5" class="st11" width="101.8" height="9"/>
	<rect x="1247.8" y="884.7" class="st11" width="101.8" height="9"/>
	<polygon class="st11" points="1288.5,658.7 1245.3,715.9 1238.3,710.3 1281.5,653 	"/>
	<polygon class="st11" points="684.3,651.9 727,708.2 719.6,713.4 677.2,657.4 	"/>
	<polygon class="st11" points="1287.1,1167.8 1243.5,1110.2 1236.4,1115.7 1280,1173.4 	"/>
	<polygon class="st11" points="686.1,1174.8 726.9,1120.9 719.6,1115.6 679,1169.3 	"/>
	<path class="st8" d="M1132,466.6l-0.6,0.2c-38-8.8-85.2-15.7-130.9-15.7"/>
	<g>
		<g>
			<polyline class="st16" points="973,421.9 976,424.7 978.9,422 			"/>
		</g>
	</g>
	<g>
		<text transform="matrix(1 0 0 1 935.7474 389.8049)" class="st17 st18 st19">Центральный вход</text>
		<line class="st16" x1="976.1" y1="399.7" x2="976.1" y2="424.4"/>
	</g>
</g>
<g id="g-6">
	
		<rect x="1421.3" y="790.1" transform="matrix(6.123234e-17 -1 1 6.123234e-17 629.7686 2230.8979)" class="st20" width="18.1" height="20.9"/>
	
		<rect x="766.6" y="544.3" transform="matrix(-0.9995 3.075967e-02 -3.075967e-02 -0.9995 1586.3912 1085.2222)" class="st20" width="36.5" height="20.9"/>
</g>
<g id="f-6">
	<rect x="845" y="528.5" class="st21" width="43.4" height="17.2"/>
	<rect x="1061.8" y="528.5" class="st21" width="43.4" height="17.2"/>
	
		<rect x="1192.2" y="497.4" transform="matrix(0.9179 0.3968 -0.3968 0.9179 300.41 -440.1282)" class="st21" width="43.4" height="17.2"/>
	
		<rect x="723.6" y="497.4" transform="matrix(0.9161 -0.401 0.401 0.9161 -140.3326 341.2895)" class="st21" width="43.4" height="17.2"/>
	<rect x="955.3" y="336.8" class="st21" width="43.4" height="17.2"/>
	<rect x="966.4" y="1407.4" class="st21" width="43.4" height="17.2"/>
	<rect x="933.6" y="1262.5" class="st21" width="22.9" height="22.9"/>
	
		<rect x="613.1" y="1179.9" transform="matrix(0.7462 0.6657 -0.6657 0.7462 951.5857 -113.4317)" class="st21" width="22.9" height="22.9"/>
	
		<rect x="592.6" y="1158.4" transform="matrix(0.6541 0.7564 -0.7564 0.6541 1093.7472 -52.2886)" class="st21" width="22.9" height="22.9"/>
	
		<rect x="604.1" y="626.6" transform="matrix(-0.6657 0.7462 -0.7462 -0.6657 1501.3944 603.4521)" class="st21" width="22.9" height="22.9"/>
	
		<rect x="1331.6" y="625.5" transform="matrix(0.7071 0.7071 -0.7071 0.7071 843.7275 -763.0993)" class="st21" width="22.9" height="22.9"/>
	
		<rect x="1331.6" y="1176" transform="matrix(0.7071 0.7071 -0.7071 0.7071 1232.9899 -601.8616)" class="st21" width="22.9" height="22.9"/>
	<rect x="1002.4" y="1262.5" class="st21" width="22.9" height="22.9"/>
	<rect x="908.7" y="1330.4" class="st21" width="22.9" height="22.9"/>
	<rect x="997.8" y="1216.4" class="st21" width="22.9" height="43.7"/>
	<polygon class="st21" points="923.3,507.4 923.3,480 909,480 909,468 911.5,468 911.5,456.1 909,456.1 905.3,456.1 899.8,456.1 
		899.8,466.3 899.8,480 899.8,483.5 899.8,493.7 899.8,507.4 	"/>
	<polygon class="st21" points="1048.8,507.4 1048.8,480 1063.1,480 1063.1,468 1060.6,468 1060.6,456.1 1063.1,456.1 1066.8,456.1 
		1072.3,456.1 1072.3,466.3 1072.3,480 1072.3,483.5 1072.3,493.7 1072.3,507.4 	"/>
</g>
<g id="b-6">
	
		<rect x="531.5" y="957.1" transform="matrix(6.123234e-17 -1 1 6.123234e-17 -425.575 1528.3416)" class="st22" width="39.7" height="39.7"/>
	
		<rect x="531.5" y="832.6" transform="matrix(6.123234e-17 -1 1 6.123234e-17 -301.0751 1403.8416)" class="st22" width="39.7" height="39.7"/>
	
		<rect x="1400.3" y="846.9" transform="matrix(6.123234e-17 -1 1 6.123234e-17 568.3521 2275.7314)" class="st22" width="43.4" height="13.6"/>
	
		<rect x="1400.3" y="969.6" transform="matrix(6.123234e-17 -1 1 6.123234e-17 445.6021 2398.4814)" class="st22" width="43.4" height="13.6"/>
	<rect x="1061.8" y="548.7" class="st22" width="43.4" height="34.3"/>
	<rect x="845" y="548.7" class="st22" width="43.4" height="34.3"/>
	<rect x="1027.3" y="1242.5" class="st22" width="36.7" height="43"/>
	
		<rect x="1134.6" y="1255" transform="matrix(-1.836970e-16 1 -1 -1.836970e-16 2419.4458 113.6174)" class="st22" width="36.7" height="23"/>
	<rect x="894.9" y="1262.5" class="st22" width="36.7" height="23"/>
	
		<rect x="1233.9" y="579" transform="matrix(0.9514 0.3079 -0.3079 0.9514 240.6629 -354.061)" class="st22" width="16.5" height="13"/>
</g>
</svg>
