<?xml version="1.0" encoding="utf-8"?>
<!-- Generator: Adobe Illustrator 21.0.2, SVG Export Plug-In . SVG Version: 6.00 Build 0)  -->
<svg version="1.1" id="Layer_1" xmlns="http://www.w3.org/2000/svg" xmlns:xlink="http://www.w3.org/1999/xlink" x="0px" y="0px"
	 viewBox="0 0 1225 1121" style="enable-background:new 0 0 1225 1121;" xml:space="preserve">
<style type="text/css">
	.st0{fill:#FFFFFF;}
	.st1{fill:none;}
	.st2{fill:#9CC54C;}
	.st3{fill:none;stroke:#FFFFFF;stroke-miterlimit:10;}
	.st4{fill:none;stroke:#010101;stroke-width:2;stroke-miterlimit:10;}
	.st5{fill:#010101;}
	.st6{opacity:0.3;}
	.st7{opacity:0.2;}
	.st8{opacity:0.3;fill:#010101;}
	.st9{fill:none;stroke:#010101;stroke-miterlimit:10;}
	.st10{fill:#E3E3E3;}
	.st11{fill:none;stroke:#010101;stroke-width:0.5;stroke-miterlimit:10;}
	.st12{fill:#D5D4D4;}
	.st13{fill:#EAEAEA;}
	.st14{fill:#E8ECF0;}
	.st15{opacity:0.3;fill:none;stroke:#4D4D4D;stroke-miterlimit:10;}
	.st16{fill:#E4E8EC;}
	.st17{fill:none;stroke:#959494;stroke-width:4;stroke-miterlimit:10;}
	.st18{fill:none;stroke:#FFFFFF;stroke-width:0.25;stroke-miterlimit:10;}
	.st19{opacity:0.3;fill:#595A5A;}
</style>
<g id="base-4">
	<polygon class="st0" points="593.7,907.4 594.2,907.4 594.2,907.4 592.2,907.4 592.2,907.4 593.2,907.4 	"/>
	<polygon class="st0" points="514.2,907.4 514.2,907.4 512.2,907.4 512.2,907.4 513.2,907.4 	"/>
	<path class="st1" d="M936,314.9l0.5,0.5l0,0C936.4,315.2,936.2,315,936,314.9L936,314.9z"/>
	
		<rect x="344.7" y="414.9" transform="matrix(-1 -1.224647e-16 1.224647e-16 -1 1189.3347 1161.707)" class="st2" width="500" height="332"/>
	
		<rect x="355" y="425.8" transform="matrix(-1 -1.224647e-16 1.224647e-16 -1 1189.0592 1162.707)" class="st3" width="479" height="311.1"/>
	<line class="st3" x1="593.5" y1="736.4" x2="593.5" y2="426.3"/>
	
		<rect x="758.7" y="489.3" transform="matrix(-1 -1.224647e-16 1.224647e-16 -1 1592.7347 1163.7834)" class="st3" width="75.4" height="185.2"/>
	<polyline class="st3" points="834.6,623.9 809.3,623.9 809.3,539.9 834.6,539.9 	"/>
	<circle class="st3" cx="594.1" cy="582" r="41.6"/>
	<path class="st3" d="M759,615.8c-10.5-7.5-17.4-19.9-17.4-33.8c0-13.9,6.8-26.2,17.3-33.8"/>
	<rect x="355" y="490.4" class="st3" width="75.4" height="185.2"/>
	<polyline class="st3" points="355,541 379.8,541 379.8,625 355,625 	"/>
	<path class="st3" d="M430.4,549.5c10.5,7.5,16.7,19.4,16.7,33.3c0,13.9-6.2,25.8-16.7,33.3"/>
	<circle class="st0" cx="593.4" cy="582.4" r="2.1"/>
	<g>
		<path class="st0" d="M231,421.9c32.6,6.9,95.5,20,97.4,20.2l-0.1,2c-1.2,0-75.2-15.5-97.7-20.2L231,421.9z"/>
	</g>
	<g>
		<polygon class="st0" points="327.2,581.4 327.4,581.4 328.2,500.4 228.2,500.4 228.2,581.4 		"/>
		<path class="st0" d="M328.2,443.6l-96.8-20c-1.9,10.2-3.2,20.7-3.2,31.5v44.3h100V443.6z"/>
		<polygon class="st0" points="328.2,500.4 328.2,499.4 328.2,500.4 		"/>
	</g>
	<g>
		<rect x="228.2" y="580.4" class="st0" width="100" height="2"/>
	</g>
	<g>
		<path class="st4" d="M330.4,859.8"/>
	</g>
	<path class="st4" d="M327.4,442.7"/>
	<path class="st5" d="M595.5,402.8"/>
	<g>
		<path class="st4" d="M841.5,372.3"/>
	</g>
	<g class="st6">
		<polygon class="st5" points="292.6,366.1 292,365.6 292.6,366.1 293.2,366.7 		"/>
	</g>
	<g class="st7">
		<polygon class="st5" points="292.6,366.1 292,365.6 292.6,366.1 293.2,366.7 		"/>
	</g>
	<g class="st6">
		<polygon class="st5" points="875.5,403.6 875.6,403.6 875.6,403.6 		"/>
	</g>
	<g class="st7">
		<polygon class="st5" points="875.5,403.6 875.6,403.6 875.6,403.6 		"/>
	</g>
	<g class="st6">
		<polygon class="st5" points="875.5,403.6 875.6,403.6 875.6,403.6 		"/>
	</g>
	<polygon class="st5" points="327.7,444 327.7,444 328.2,444.1 	"/>
	<polygon class="st8" points="327.7,444 327.7,444 328.2,444.1 	"/>
	<path class="st5" d="M217.4,797.4"/>
	<path class="st9" d="M852.3,385"/>
	<rect x="425.2" y="762.4" class="st0" width="90.7" height="110"/>
	<path class="st0" d="M357.4,797.9l-26,62c19.7,8.1,41.3,12.4,63.9,12.4h28.9v-110h-58.5l-19.5,29.9c2.6,1.6,6.1,3.4,10.3,5.4
		L357.4,797.9z"/>
	<path class="st0" d="M764,762.8l1.3,109.2l29.7-0.7c30.3,0,58.8-7.4,83.4-21.4l-14.1-22.5L840.5,790c0,0-0.3-0.5-1-1.5L827.3,769
		l-4-6.2L764,762.8"/>
	<polyline class="st0" points="672.9,872.4 672.9,872.4 672.7,872.4 672.7,762.8 609.2,762.8 609.2,786.4 593.6,786.4 593.6,872.4 	
		"/>
	<polygon class="st0" points="592.6,872.4 592.6,872.4 592.6,786.4 578.2,786.4 578.2,762.4 516.9,762.4 516.9,872.4 	"/>
	<path class="st10" d="M840.5,789.5C840.5,789.5,840.5,789.5,840.5,789.5l1.1,1.8L840.5,789.5z"/>
	<polyline class="st0" points="763,762.8 673.7,762.8 673.7,872.4 673.2,872.4 673.7,872.4 764.3,872.1 763,762.8 	"/>
	<rect x="672.9" y="872.4" class="st10" width="0.3" height="0"/>
	<rect x="672.9" y="762.8" class="st0" width="0.3" height="109.5"/>
	<path class="st0" d="M841.3,786.9l-1.7,1.1l0.9,1.5c0.4-0.2,1-0.4,1.8-0.8L841.3,786.9z"/>
	<path class="st0" d="M878.6,849.8c-0.1,0-0.2,0.1-0.3,0.1l0.4,0.6l1.7-1.1l-0.2-0.4c-0.5,0.3-1,0.6-1.5,0.9L878.6,849.8z"/>
	<path class="st0" d="M864.3,827.4l14.1,22.5c0.1,0,0.2-0.1,0.3-0.1L864.3,827.4z"/>
	<polygon class="st5" points="594.2,780.6 594.1,780.6 594.1,780.8 594.1,780.8 	"/>
	<path class="st0" d="M255.5,797.4c4.1,6.1,8.7,12.4,14.3,18.8l50.7-45l1.7,2.1l2.6,2.8l3.4,3.2v-6.4l-1-51.6l-95.3,18.7
		C236.3,760.5,244.4,780.5,255.5,797.4z"/>
	<path class="st0" d="M231.6,739L231.6,739l95.5-18.7v-56h-99v10.2v28C228.2,714.3,229.4,726.5,231.6,739z"/>
	<rect x="228.2" y="581.4" class="st0" width="99" height="82"/>
	<path class="st0" d="M270.4,817c0,0,0.7,0.8,0.8,0.8c3.8,4,19.8,20.4,40.8,32.8c5.6,3.2,12.1,6.3,18.5,8.9l6.7-15.9l19-45.2
		c-2.7-1.5-8.7-4.1-11.1-5.8c-2.1-1.5-4.5-2.8-6.9-4.3c-5.6-3.7-5.4-4-9.9-7.6l-3.9-3.7l-3.9-4.4L270.4,817z"/>
	<path class="st0" d="M270.6,817.3c-0.1-0.1-0.2-0.3-0.3-0.4l0,0C270.3,816.9,270.4,817,270.6,817.3z"/>
	<path class="st0" d="M270.3,816.9L270.3,816.9c-0.1-0.1-0.2-0.3-0.3-0.4C270.1,816.6,270.2,816.8,270.3,816.9z"/>
	<path class="st0" d="M270.3,816.9l0.4-0.3L270.3,816.9C270.3,816.9,270.3,816.9,270.3,816.9L270.3,816.9
		C270.3,816.9,270.3,816.9,270.3,816.9z"/>
	<path class="st0" d="M270.7,816.6l50.9-45.2l-51.3,45.4c0,0,0,0,0,0L270.7,816.6z"/>
	<polygon class="st0" points="321.6,771.4 321.6,771.4 270.7,816.6 	"/>
	<path class="st10" d="M822,258.5c0.2,0,0.5,0.1,0.7,0.1L822,258.5L822,258.5z"/>
	<polygon class="st0" points="595.2,135.4 595.2,135.4 593.2,135.4 593.2,135.4 594.2,135.4 	"/>
	<path class="st0" d="M822.9,258.7L822.9,258.7c-0.1,0-0.1,0-0.2,0L822.9,258.7z"/>
	<path class="st0" d="M974.3,275l-0.2-0.2c0.2,0.2,0.4,0.4,0.5,0.6l0.1-0.1L974.3,275z"/>
	<polygon class="st0" points="195.2,666.4 195.5,666.4 195.5,664.4 195.2,664.4 195.2,665.4 	"/>
	<g>
		<polygon class="st1" points="424.2,872.4 424.1,872.4 424.2,881.1 		"/>
	</g>
	<polygon class="st0" points="195.2,582.4 195.2,583.4 196.2,583.4 196.2,581.4 195.2,581.4 195.2,582.4 	"/>
	<path class="st0" d="M196.1,734c0,0.3,0.1,0.5,0.1,0.8l0.4-0.1l-0.1-1l-0.4,0.1C196.1,733.8,196.1,733.9,196.1,734z"/>
	<path class="st9" d="M57.1,379.7"/>
	<path class="st11" d="M830.7,126"/>
	<path class="st3" d="M823.8,736.9c0-5.6,4.6-10.2,10.2-10.2"/>
	<path class="st3" d="M834,436c-5.6,0-10.2-4.6-10.2-10.2"/>
	<path class="st3" d="M355,726.7c5.6,0,10.2,4.6,10.2,10.2"/>
	<path class="st3" d="M365.2,425.8c0,5.6-4.6,10.2-10.2,10.2"/>
	<path class="st0" d="M936.5,315.4l-0.5-0.5l0,0C936.2,315,936.4,315.2,936.5,315.4L936.5,315.4z"/>
	<path class="st0" d="M885.6,278.2L885.6,278.2C885.6,278.2,885.6,278.2,885.6,278.2L885.6,278.2L885.6,278.2z"/>
	<polygon class="st0" points="885.6,278.2 885.6,278.2 885.6,278.2 	"/>
	<rect x="1059.7" y="665.4" class="st0" width="2.9" height="1"/>
	<path class="st4" d="M841.9,791.1"/>
	<path class="st4" d="M1114.7,671"/>
	<path class="st12" d="M815.9,871.1"/>
	<line class="st0" x1="973.4" y1="797.7" x2="973.4" y2="797.7"/>
	<path class="st0" d="M822.4,906.1L822.4,906.1l-0.7,0.1l0,0C821.9,906.2,822.2,906.2,822.4,906.1z"/>
	<path class="st1" d="M821.7,906.2c-0.3,0-0.6,0.1-0.9,0.1l0,0L821.7,906.2z"/>
	<polygon class="st0" points="758.2,907.4 758.2,907.4 756.2,907.4 756.2,907.4 757.2,907.4 	"/>
	<polygon class="st0" points="684,907.4 684,907.1 682,907.1 682,907.4 683.2,907.4 	"/>
	<path class="st9" d="M846.4,1051"/>
	<path class="st11" d="M868.8,1034.7"/>
	<path class="st12" d="M370.4,873.1"/>
	<path class="st0" d="M363.9,908.1L363.9,908.1l0.7,0.1l0,0C364.4,908.2,364.2,908.2,363.9,908.1z"/>
	<path class="st1" d="M364.6,908.2c0.3,0,0.6,0.1,0.9,0.1l0,0L364.6,908.2z"/>
	<polygon class="st0" points="428.1,909.4 428.1,909.4 430.1,909.4 430.1,909.4 429.1,909.4 	"/>
	<path class="st9" d="M339.9,1053"/>
	<path class="st4" d="M346.4,373.2"/>
	<path class="st12" d="M372.4,293.1"/>
	<path class="st0" d="M365.9,258.1L365.9,258.1l0.7-0.1l0,0C366.4,258.1,366.2,258.1,365.9,258.1z"/>
	<path class="st1" d="M366.6,258c0.3,0,0.6-0.1,0.9-0.1l0,0L366.6,258z"/>
	<polygon class="st0" points="430.1,256.9 430.1,256.9 432.1,256.9 432.1,256.9 431.1,256.9 	"/>
	<polygon class="st0" points="504.3,256.9 504.3,257.2 506.3,257.2 506.3,256.9 505.1,256.9 	"/>
	<path class="st9" d="M341.9,113.3"/>
	<path class="st4" d="M841.9,376.2"/>
	<path class="st4" d="M1114.7,496.3"/>
	<path class="st12" d="M815.9,296.1"/>
	<path class="st0" d="M822.4,261.1L822.4,261.1l-0.7-0.1l0,0C821.9,261.1,822.2,261.1,822.4,261.1z"/>
	<path class="st1" d="M821.7,261c-0.3,0-0.6-0.1-0.9-0.1l0,0L821.7,261z"/>
	<path class="st9" d="M846.4,116.3"/>
	<path class="st9" d="M1029.5,214.7"/>
	
		<rect x="834" y="564.7" transform="matrix(-1 -1.224647e-16 1.224647e-16 -1 1676.6993 1164.8599)" class="st3" width="8.6" height="35.5"/>
	<rect x="346.4" y="564.7" class="st3" width="8.6" height="35.5"/>
	<polygon class="st1" points="593.2,400.4 594.2,400.4 594.2,287.4 593.2,287.4 592.2,287.4 592.2,400.4 	"/>
	<rect x="498" y="400.4" class="st10" width="0.1" height="0"/>
	<polygon class="st0" points="498.2,287.4 499.2,287.4 499.2,287.4 498,287.4 498,287.4 	"/>
	<rect x="498" y="287.4" class="st0" width="0.1" height="113"/>
	<polygon class="st1" points="690.2,400.4 691.2,400.4 691.2,287.4 690.2,287.4 689.2,287.4 689.2,400.4 	"/>
	<polygon class="st0" points="498.2,400.4 498.2,400.4 593.2,400.4 593.2,400.4 592.6,400.4 592.6,287.4 499.2,287.4 499.2,400.4 	
		"/>
	<polygon class="st0" points="594.2,287.4 594.2,287.4 592.2,287.4 592.2,287.4 593.2,287.4 	"/>
	<polygon class="st0" points="593.2,400.4 593.2,400.4 596.2,400.4 601,400.4 690.2,400.4 690.2,400.4 690.2,400.4 690.2,287.4 
		593.6,287.4 593.6,400.4 	"/>
	<rect x="690.2" y="287.4" class="st0" width="1" height="0"/>
	<rect x="689.2" y="287.4" class="st0" width="1" height="0"/>
	<polygon class="st0" points="690.2,400.4 690.2,400.4 778.2,400.4 778.2,400.4 777.7,400.4 777.7,287.4 691.2,287.4 691.2,400.4 	
		"/>
	<path class="st0" d="M778.7,400.4L778.7,400.4l44,0l13.7-20.5l5-7.7c-0.1,0-0.1,0-0.1,0l10.4-15.7l28.8-45.5
		c-25-14.9-54.2-23.5-85.4-23.5h-16.4V400.4L778.7,400.4z"/>
	<path class="st10" d="M860.8,385.9c0.1,0.1,0.1,0.1,0.2,0.2C860.9,385.9,860.7,385.7,860.8,385.9z"/>
	<path class="st0" d="M861,386c2.4,2.1,5.1,4.5,8.3,8.2c2.9,3.3,6.1,7.5,7.1,9l59.6-38.7c-2.9-4.5-9.5-12.7-17.7-21.8
		c-1.5-1.6-3-3.1-4.6-4.6l-16.2-15c-2.5-2.3-5.2-4.5-8-6.4c-2.4-1.6-5.7-3.8-8.2-5.3L842,372.5c4.2,2.1,11.4,6.7,17.5,12.1
		c0.2,0.1,1.2,1,1.4,1.2"/>
	<path class="st10" d="M851.7,356.4l-10.4,15.7c0,0,0,0,0.1,0l7.9-12.1L851.7,356.4z"/>
	<path class="st0" d="M875.6,403.6l60.5-38.8c0,0,0,0,0-0.1L875.6,403.6L875.6,403.6z"/>
	<path class="st0" d="M861,386.2l-0.2-0.2C860.9,386.1,860.9,386.2,861,386.2z"/>
	<path class="st0" d="M860.4,385.7L860.4,385.7c0.3,0.3,0.5,0.6,0.8,0.8l-0.3-0.3c0,0-0.1-0.1-0.2-0.2
		C860.8,386,860.4,385.7,860.4,385.7z"/>
	<path class="st0" d="M860.8,386l0.2,0.2c0.1,0.1,0.1,0,0-0.1C860.9,386,860.8,386,860.8,386C860.8,385.9,860.8,386,860.8,386z"/>
	<path class="st0" d="M860.8,386C860.8,386,860.8,385.9,860.8,386c-0.3-0.4-0.6-0.6-0.9-0.9c-0.2-0.1-0.3-0.3-0.5-0.4
		c0.3,0.3,0.7,0.6,1,1l0,0C860.4,385.7,860.8,386,860.8,386z"/>
	<polygon class="st1" points="962.7,581.4 963.2,581.4 963.2,580.2 861.2,580.2 861.2,581.4 	"/>
	<polygon class="st1" points="861.2,581.6 861.2,582.5 963.2,582.2 963.2,581.4 	"/>
	<path class="st0" d="M875.3,403.3c0,0-2.9-4.2-7-8.7c-2.3-2.6-5.1-5.3-7.2-7.2v69h102c0-33.1-9.9-65-26.5-91l-60.5,39.2
		L875.3,403.3z"/>
	<polygon class="st0" points="963.2,457.4 861.2,457.4 861.2,580.9 963.2,580.8 	"/>
	<polygon class="st0" points="861.2,704.5 962.7,704.3 963.2,581.9 861.2,581.9 	"/>
	<path class="st10" d="M934,798.9C934,798.9,934.1,798.9,934,798.9L934,798.9L934,798.9z"/>
	<path class="st0" d="M874.4,758.9L874.4,758.9l0.7,0.6l58.5,39.6c17.5-26.1,28.3-57.9,29-93.8l-101.5,0.1v67.8
		c0.9-0.8,1.9-1.8,2.8-2.8"/>
	<path class="st1" d="M861.8,775.4l-1.1,1C861.1,776.2,861.5,775.8,861.8,775.4C861.8,775.5,861.8,775.5,861.8,775.4z"/>
	<path class="st1" d="M861.9,775.4C861.9,775.4,862,775.4,861.9,775.4L861.9,775.4L861.9,775.4L861.9,775.4z"/>
	<path class="st10" d="M862.6,774.7c-0.2,0.2-0.3,0.3-0.5,0.5l-0.2,0.2l0.1,0C862.2,775.1,862.4,774.9,862.6,774.7z"/>
	<path class="st1" d="M861.9,775.5C861.9,775.5,861.9,775.5,861.9,775.5C861.9,775.5,861.9,775.5,861.9,775.5
		C861.9,775.5,861.9,775.5,861.9,775.5z"/>
	<path class="st1" d="M861.9,775.4L861.9,775.4C861.9,775.4,861.9,775.4,861.9,775.4C861.9,775.4,861.9,775.4,861.9,775.4z"/>
	<path class="st10" d="M861.9,775.4C861.9,775.4,861.9,775.4,861.9,775.4L861.9,775.4L861.9,775.4
		C861.8,775.5,861.8,775.5,861.9,775.4C861.9,775.5,861.9,775.5,861.9,775.4z"/>
	<path class="st13" d="M862.8,775.4"/>
	<path class="st0" d="M874.6,760.3l58.7,39.8c-13.7,20-33.1,36.8-54,49.3L841,788.9C841,788.9,859.4,779.4,874.6,760.3"/>
	<path class="st13" d="M861.9,775.5"/>
	<path class="st13" d="M861.9,775.4"/>
	<path class="st0" d="M934.4,798.5L934.4,798.5c-0.1,0.2-0.2,0.3-0.3,0.5L934.4,798.5z"/>
	<path class="st0" d="M860.8,776.5c0,0-0.1,0.1-0.1,0.1L860.8,776.5L860.8,776.5z"/>
	<path class="st0" d="M861.8,775.4C861.8,775.4,861.8,775.4,861.8,775.4L861.8,775.4L861.8,775.4z"/>
	<path class="st0" d="M962.7,706.4c0,0.3,0,0.7,0,1h0.5v-2h-0.5l0,0C962.7,705.8,962.7,706,962.7,706.4z"/>
	<polygon class="st0" points="963.2,581.4 963.2,581.4 962.7,581.4 962.7,581.4 861.2,581.4 861.2,580.2 860.8,580.2 860.8,582.5 
		861.2,582.5 861.2,581.6 963.2,581.4 963.2,582.2 963.7,582.2 963.8,582.2 963.8,580.2 963.2,580.2 	"/>
	
		<rect x="962.7" y="581.4" transform="matrix(1 -1.953121e-03 1.953121e-03 1 -1.1336 1.8818)" class="st0" width="0.5" height="0"/>
	<path class="st0" d="M963.2,455.4L963.2,455.4c0,0,0,0.1,0,0.1V455.4z"/>
	<polygon class="st0" points="779.2,287.4 779.2,287.4 777.2,287.4 777.2,287.4 778.2,287.4 	"/>
	<rect x="497" y="400.4" class="st0" width="1" height="2.4"/>
	<rect x="497.2" y="287.4" class="st0" width="0.9" height="0"/>
	<path class="st0" d="M344.9,372.7"/>
	<path class="st13" d="M348.5,370.6l6.9-3.8C353.7,367.6,351.3,368.9,348.5,370.6z"/>
	<g>
		<path class="st0" d="M321.7,392.8l-53-46.9c-18.4,21.5-31.3,47.7-36.9,76.6l96.3,20.1l-0.2-55.3c-2.2,1.8-5.1,4.5-5.8,5.1
			L321.7,392.8z"/>
		<path class="st0" d="M269.3,345.1l23.8,21.1l17.8,15.7l10.8,9.6c1.3-1.1,4.2-3.8,6.1-5.3c6.1-5.4,13-9.6,18.8-13.1l0,0l2.4-1.4
			c3-1.6,4.9-2.4,6.6-3.2l3.3-1.3l-28.4-66.3c-23.1,9.8-44.8,25.9-61.2,44.3L269.3,345.1C269.3,345.1,269.3,345.1,269.3,345.1z"/>
	</g>
	<path class="st0" d="M348.8,372.7l17.2,27.6h45.1v0v0v-113h-15.9c-22.6,0-44.3,4.8-64,12.8l28.9,67.3l-5.2,2.1L348.8,372.7z"/>
	<polygon class="st0" points="411.2,400.4 412.2,400.4 498.2,400.4 498.1,287.4 412.2,287.4 412.2,400.4 	"/>
	<polygon class="st13" points="412.2,287.4 412.2,287.4 410.2,287.4 410.2,287.4 411.2,287.4 	"/>
	<path class="st13" d="M346.1,371.9L346.1,371.9c0.9-0.4,1.6-0.9,2.4-1.3L346.1,371.9z"/>
	<g>
		<polygon class="st14" points="737,762.8 728,762.8 728,809.7 723,809.7 723,841.5 728,841.5 728,872.4 737,872.4 737,841.5 
			742,841.5 742,809.7 737,809.7 		"/>
		<polygon class="st14" points="818.8,806.3 813.9,807 807.3,763.1 798.2,763 805,808.3 800,809.1 804.7,840.6 809.7,839.9 
			814.2,870.3 823.1,869 818.6,838.5 823.5,837.8 		"/>
		<polygon class="st14" points="645.5,762.8 636.5,762.8 636.5,809.7 631.5,809.7 631.5,841.5 636.5,841.5 636.5,872.4 645.5,872.4 
			645.5,841.5 650.5,841.5 650.5,809.7 645.5,809.7 		"/>
		<polygon class="st14" points="551.6,762.4 542.6,762.4 542.6,809.7 537.6,809.7 537.6,841.5 542.6,841.5 542.6,872.4 551.6,872.4 
			551.6,841.5 556.6,841.5 556.6,809.7 551.6,809.7 		"/>
		<polygon class="st14" points="927.2,641.2 895.3,641.2 895.3,646.2 861.2,646.2 861.2,655.2 895.3,655.2 895.3,660.2 927.2,660.2 
			927.2,655.2 962.9,655.2 962.9,646.2 927.2,646.2 		"/>
		<polygon class="st14" points="927.2,509.2 927.2,504.2 895.3,504.2 895.3,509.2 861.2,509.2 861.2,518.2 895.3,518.2 895.3,523.2 
			927.2,523.2 927.2,518.2 963.2,518.2 963.2,509.2 		"/>
		<polygon class="st14" points="458.8,762.8 449.8,762.8 449.8,809.7 444.8,809.7 444.8,841.5 449.8,841.5 449.8,872.4 458.8,872.4 
			458.8,841.5 463.8,841.5 463.8,809.7 458.8,809.7 		"/>
		<polygon class="st14" points="377.5,762.4 371.7,807.5 366.7,806.8 362.7,838.4 367.6,839.1 363.8,869.4 372.7,870.8 376.6,840.2 
			381.5,840.9 385.6,809.2 380.6,808.6 386.3,762.8 		"/>
		<polygon class="st14" points="260,711.7 291.9,711.7 291.9,706.7 327.2,706.7 327.2,697.7 291.9,697.7 291.9,692.7 260,692.7 
			260,697.7 228.2,697.7 228.2,706.7 260,706.7 		"/>
		<polygon class="st14" points="260,639.6 291.9,639.6 291.9,634.6 327.2,634.6 327.2,625.6 291.9,625.6 291.9,620.6 260,620.6 
			260,625.6 228.2,625.6 228.2,634.6 260,634.6 		"/>
		<polygon class="st14" points="260,544.4 291.9,544.4 291.9,539.4 327.8,539.4 327.8,530.4 291.9,530.4 291.9,525.4 260,525.4 
			260,530.4 228.2,530.4 228.2,539.4 260,539.4 		"/>
		<polygon class="st14" points="260,472 291.9,472 291.9,467 328.2,467 328.2,458 291.9,458 291.9,453 260,453 260,458 228.2,458 
			228.2,467 260,467 		"/>
		<polygon class="st14" points="449.6,400.4 458.6,400.4 458.6,353.3 463.6,353.3 463.6,321.4 458.6,321.4 458.6,287.4 449.6,287.4 
			449.6,321.4 444.6,321.4 444.6,353.3 449.6,353.3 		"/>
		<polygon class="st14" points="540.6,400.4 549.6,400.4 549.6,353.3 554.6,353.3 554.6,321.4 549.6,321.4 549.6,287.4 540.6,287.4 
			540.6,321.4 535.6,321.4 535.6,353.3 540.6,353.3 		"/>
		<polygon class="st14" points="636.3,400.4 645.3,400.4 645.3,353.3 650.3,353.3 650.3,321.4 645.3,321.4 645.3,287.4 636.3,287.4 
			636.3,321.4 631.3,321.4 631.3,353.3 636.3,353.3 		"/>
		<polygon class="st14" points="737.5,287.4 728.5,287.4 728.5,321.4 723.5,321.4 723.5,353.3 728.5,353.3 728.5,400.4 737.5,400.4 
			737.5,353.3 742.5,353.3 742.5,321.4 737.5,321.4 		"/>
		<polygon class="st14" points="807.6,400.4 813.5,357.8 818.5,358.4 822.7,326.8 817.8,326.2 823,289.7 814,288.4 808.8,325 
			803.9,324.3 799.7,355.9 804.6,356.6 798.6,400.3 		"/>
		<polygon class="st14" points="891.5,427.6 861.2,434.8 861.2,444.1 893.6,436.4 894.7,441.2 925.8,434.1 924.6,429.2 959.6,421.5 
			957.5,412.7 922.6,420.4 921.5,415.6 890.4,422.7 		"/>
		<polygon class="st14" points="924.3,730.3 893.3,723.1 892.2,728 861.1,721.2 861.2,730.5 890.1,736.8 889,741.7 920.1,748.8 
			921.2,743.9 956,752 958.3,743.3 923.2,735.2 		"/>
		<polygon class="st14" points="387.1,355.6 382.6,324.1 377.6,324.8 372.8,288.9 363.4,290.5 368.7,326.1 363.8,326.8 368.3,358.3 
			373.3,357.6 379.4,400.4 388.5,400.4 382.2,356.3 		"/>
		<polygon class="st14" points="268.7,408.5 297.1,422.9 299.4,418.4 328.2,431.2 328.1,420.9 303.5,410.4 305.7,405.9 277.3,391.5 
			275,396 246.3,381.1 241.8,389.4 270.9,404 		"/>
		<polygon class="st14" points="303.9,754.5 327.6,743 327.4,733.8 300,746.3 297.9,741.8 269.1,755.4 271.2,759.9 242.3,773.1 
			246.2,781.8 275,768 277.2,772.5 306,759 		"/>
		<polygon class="st14" points="846.7,785.6 889.8,842.6 896.2,838 853.2,781 		"/>
		<polygon class="st14" points="898.5,323.8 892.3,318.9 847.7,375.8 854.3,380.3 		"/>
		<polygon class="st14" points="289.7,325.3 332,382.7 338.3,378 296,320.5 		"/>
		<polygon class="st14" points="291.1,836.1 297.5,841 338.2,788.2 331.8,783.6 		"/>
		<rect x="861.2" y="602.2" class="st14" width="101.9" height="9"/>
		<rect x="861.2" y="553.4" class="st14" width="101.9" height="9"/>
	</g>
	<path class="st13" d="M859.9,769.1"/>
	<path class="st15" d="M877.2,405.2"/>
	<path class="st15" d="M843.1,373.6"/>
	<path class="st13" d="M332.3,780.4"/>
	<path class="st13" d="M874.4,760.2"/>
	<path class="st13" d="M841,788.9"/>
	<path class="st13" d="M864,770.5c0,0,8.1-8.1,9.7-10.8l-1.1-0.8"/>
	<path class="st16" d="M594.2,1056.1c-79.9,0-153.3-11.8-218.3-35.1l-9.7-3.8v36.1l-58.1-9.7l11.5-50.3l3.9,0.9l-10.6,46.2l49.2,8.2
		v-37.3l15.1,6c64.5,23.1,137.5,34.8,216.9,34.8c82.2,0,157.3-12.8,223.1-38l2.7-1l0.6,35.8l49.3-8.2l-9.4-45.3l1.4-0.7
		c95.9-47.4,167.5-123.8,206.9-221.1l1.4-3.6l60.3,12.3c4.3-11.5,7.8-21.4,11.6-35.1l-61.4-6.7l0.7-2.3
		c15-48.3,22.6-100.8,22.7-156.1l0-0.6l0-0.2c-0.1-54.6-7.5-106.5-22.2-154.3l-0.7-2.3l61.2-8.2c-3.8-13.2-7.8-25.5-11.9-36.5
		l-59.1,16.5l-0.7-1.7c-8.5-21.6-19.9-44.5-35-70.1c-8.9-15.1-32-45.7-32.2-46l3.2-2.4c0.2,0.3,23.4,31.1,32.5,46.4
		c14.8,25.1,26.2,47.7,34.6,69l59.2-16.5l0.6,1.7c4.6,12.2,9.1,25.9,13.3,40.8l0.6,2.2l-61.1,8.2c14.1,47,21.4,97.8,21.6,151.2h0
		l0,2l0,0.4l0,2.4h0c-0.3,54.1-7.7,105.5-22.2,152.9l61.3,6.7l-0.6,2.3c-4.4,15.8-8.1,26.4-13,39.3l-0.6,1.6l-60.4-12.3l-0.2,0.5
		c-19.9,49-47.6,92.9-82.6,130.3C955,942.8,913,973.8,865,997.7l9.6,46.3l-58,9.6l-0.6-34.8C750.4,1043.6,675.7,1056.1,594.2,1056.1
		z"/>
	<path class="st16" d="M320.7,997.3c-48.2-25.4-90.1-57.4-124.6-95c-34.3-37.4-61.5-80.6-80.7-128.3l-61.6,13.7l-0.6-1.6
		c-4.9-12.9-9.4-26.3-13.3-39.8l-0.7-2.3l63.4-6C88,690.2,80.4,638.6,80.2,584.3h0l0-2l0-0.4l0-2.4h0c0.2-53.6,7.4-104.4,21.3-151
		l-62.2-6.3l13.3-46.8l61.5,16.3c9.4-24.3,20.3-46.5,33.4-67.8c13.2-21.7,31.9-45.3,32.1-45.5c37.7-47,85.5-85.1,142.2-113.2
		l-15.6-44.2l1.7-0.8c10.6-4.8,53.7-10.8,55.5-11.1l2.3-0.3l0.4,37.1c66.5-25.3,143.3-38.1,228.3-38.2c0.3,0,0.7,0,1,0
		c81.3,0,155.8,12.5,221.5,37.3l0-36.8l58,9.6l-7.6,47.9c54.9,27.6,101.9,64.9,139.8,110.8l0.7,0.9l-3.2,2.4l-0.6-0.8
		c-37.8-45.8-84.8-82.9-139.7-110.4l-1.3-0.7L870,121l-49.4-8.2l0,37.9l-2.7-1c-65.9-25.2-140.8-38-222.8-38c-0.3,0-0.6,0-1,0
		c-85.4,0.1-162.4,13.1-228.9,38.7l-0.3,0.1h-3l-0.4-37.1c-8.6,1.3-39.6,5.9-50.5,9.8l15.6,44.4l-2.6,0.9
		C267.6,196.2,220,234,182.6,280.8c-0.2,0.2-18.7,23.6-31.8,45.1c-13.2,21.6-24.2,44.2-33.7,68.8l-0.6,1.7l-61.2-16.2l-10.9,38.4
		l62.3,6.3l-0.7,2.3c-14.4,47.4-21.7,99.3-21.8,154.2l0,0.6l0,0.2c0.1,55.5,7.8,108.3,22.9,156.8l0.7,2.4l-63.5,6
		c3.5,12,7.5,24,11.9,35.5l61.5-13.6l0.6,1.6c38.6,96.7,107.2,171.7,204.2,222.8L320.7,997.3z"/>
	<path class="st17" d="M1045.6,840"/>
	<g>
		<path class="st16" d="M392.8,259.5h403.9c51.9,0,100.8,20.3,137.7,57.3c36.9,36.9,57.3,85.8,57.3,137.7v256.8
			c0,51.9-20.3,100.8-57.3,137.7c-36.9,36.9-85.8,57.3-137.7,57.3H392.8c-51.9,0-100.8-20.3-137.7-57.3
			c-36.9-36.9-57.3-85.8-57.3-137.7V454.5c0-51.9,20.3-100.8,57.3-137.7C292,279.8,340.9,259.5,392.8,259.5z M796.7,901.2
			c104.8,0,190-85.2,190-190V454.5c0-104.8-85.2-190-190-190H392.8c-104.8,0-190,85.2-190,190v256.8c0,104.8,85.2,190,190,190H796.7
			z"/>
	</g>
	<polygon class="st0" points="537.7,81.7 537.2,82 536.7,82.3 536.7,81.7 536.7,81.1 537.2,81.4 	"/>
	<line class="st18" x1="536.7" y1="81.7" x2="524.2" y2="81.7"/>
	<polygon class="st0" points="650.6,84.7 651.1,85 651.7,85.3 651.7,84.7 651.7,84.1 651.1,84.4 	"/>
	<line class="st18" x1="651.7" y1="84.7" x2="664.1" y2="84.7"/>
	<path class="st16" d="M545.6,41.9L545.6,41.9C545.6,41.9,545.6,41.9,545.6,41.9l-4.4-7.2c-0.1-0.3-0.3-0.5-0.5-0.8l0,0h0
		c-1.2-1.7-3.2-2.8-5.5-2.8c-2.3,0-4.3,1.1-5.5,2.9h0l0,0c-0.1,0.2-0.3,0.4-0.4,0.7l-9.4,15.6v127.5h0.4h0.7l0,0.3l29.1-0.3h0.5h0
		V50.2L545.6,41.9z"/>
	<path class="st16" d="M662,41.9L662,41.9C662,41.9,662,41.9,662,41.9l-4.4-7.2c-0.1-0.3-0.3-0.5-0.5-0.8l0,0h0
		c-1.2-1.7-3.2-2.8-5.5-2.8c-2.3,0-4.3,1.1-5.5,2.9h0l0,0c-0.1,0.2-0.3,0.4-0.4,0.7l-9.4,15.6v127.5h0.4h0.7v0.3l29.1-0.3h0.5h0
		V50.2L662,41.9z"/>
	<g>
		<path class="st16" d="M1180.3,678.4L1180.3,678.4L1180.3,678.4c-0.3-0.2-0.5-0.3-0.7-0.4l-8.1-4.9c0,0,0,0,0-0.1l0,0l-7.5-4.5
			h-80.7l0,2.3l-0.2,0l0,8.1l0.2,0l0,1.1l-0.2,0l0,8.1l0.1,0l0,1.1l-0.1,0l0,8.1l0,0l0,1.2l0.1,0l0,0.6l0,0v0h80.8l15.5-9.4
			c0.3-0.1,0.5-0.3,0.8-0.5l0,0v0c1.7-1.2,2.8-3.2,2.8-5.5C1183.2,681.6,1182.1,679.6,1180.3,678.4z"/>
		<path class="st16" d="M1083.1,475.1l0.2,0l0,1.1l-0.2,0l0,8.1l0.1,0l0,1.1l-0.1,0l0,8.1l0,0l0,1.2l0.1,0l0,0.6l0,0v0h80.8
			l15.5-9.4c0.3-0.1,0.5-0.3,0.8-0.5l0,0v0c1.7-1.2,2.8-3.2,2.8-5.5c0-2.3-1.1-4.3-2.9-5.5v0l0,0c-0.2-0.1-0.4-0.3-0.7-0.4l-8.1-4.9
			c0,0,0,0,0-0.1l0,0l-7.5-4.5h-80.7l0,2.3l-0.2,0L1083.1,475.1z"/>
	</g>
	<path class="st16" d="M796.2,910.1H393.3c-110.1,0-199.6-89.6-199.6-199.6V455.2c0-110.1,89.6-199.6,199.6-199.6h402.9
		c110.1,0,199.6,89.6,199.6,199.6v255.3C995.8,820.6,906.3,910.1,796.2,910.1z M393.3,259.6c-107.9,0-195.6,87.8-195.6,195.6v255.3
		c0,107.9,87.8,195.6,195.6,195.6h402.9c107.9,0,195.6-87.8,195.6-195.6V455.2c0-107.9-87.8-195.6-195.6-195.6H393.3z"/>
	<polyline class="st19" points="365.7,612.2 365.7,574.5 355.6,564.3 355.6,600.7 345.9,600.7 357.1,612.2 365.7,612.2 	"/>
	<polyline class="st19" points="853.4,612 853.4,574.3 843.2,564.1 843.2,600.5 833.5,600.5 844.8,612 853.4,612 	"/>
</g>
</svg>
