<?xml version="1.0" encoding="utf-8"?>
<!-- Generator: Adobe Illustrator 20.1.0, SVG Export Plug-In . SVG Version: 6.00 Build 0)  -->
<svg version="1.1" id="Уровень_5" xmlns="http://www.w3.org/2000/svg" xmlns:xlink="http://www.w3.org/1999/xlink" x="0px"
	 y="0px" viewBox="0 0 1954 1790.7" style="enable-background:new 0 0 1954 1790.7;" xml:space="preserve">
<style type="text/css">
	.st0{fill:#885BA6;}
	.st1{fill:#0093D5;}
	.st2{fill:#9CC54C;}
	.st3{fill:none;stroke:#FFFFFF;stroke-miterlimit:10;}
	.st4{fill:#FFFFFF;}
	.st5{fill:none;stroke:#010101;stroke-width:2;stroke-miterlimit:10;}
	.st6{fill:#010101;}
	.st7{opacity:0.3;}
	.st8{opacity:0.2;}
	.st9{opacity:0.3;fill:#010101;enable-background:new    ;}
	.st10{fill:#D9D8D8;}
	.st11{fill:none;stroke:#010101;stroke-miterlimit:10;}
	.st12{fill:#D9D9D9;}
	.st13{fill:none;}
	.st14{fill:none;stroke:#010101;stroke-width:0.5;stroke-miterlimit:10;}
	.st15{fill:none;stroke:#D9D9D9;stroke-miterlimit:10;}
	.st16{fill:none;stroke:#FFFFFF;stroke-width:0.25;stroke-miterlimit:10;}
	.st17{opacity:0.3;fill:none;stroke:#4D4D4D;stroke-miterlimit:10;enable-background:new    ;}
	.st18{fill:#EE2E30;}
	.st19{fill:none;stroke:#919090;stroke-width:4;stroke-miterlimit:10;}
	.st20{fill:#D2D5D9;}
	.st21{fill:#0096D7;}
	.st22{fill:#EF3839;}
	.st23{opacity:0.3;fill:#595A5A;enable-background:new    ;}
	.st24{fill:none;stroke:#919191;stroke-width:0.75;stroke-linecap:round;stroke-linejoin:round;stroke-miterlimit:10;}
	.st25{opacity:0.3;fill:#FFFFFF;}
	.st26{opacity:0.2;fill:#FFFFFF;}
	.st27{fill:none;stroke:#D2D5D9;stroke-width:4;stroke-miterlimit:10;}
	.st28{fill:none;stroke:#7A8991;stroke-linecap:round;stroke-linejoin:round;stroke-miterlimit:10;}
	.st29{fill:#7A8991;}
	.st30{font-family:'OsnovaPro';}
	.st31{font-size:9px;}
</style>
<g id="f-6">
	<rect x="844" y="481.7" class="st0" width="43.4" height="17.2"/>
	<rect x="1060.8" y="481.7" class="st0" width="43.4" height="17.2"/>
</g>
<g id="b-6">
	<rect x="1043.8" y="1271.5" class="st1" width="42.3" height="23.7"/>
	<path class="st1" d="M1197.4,1295.8v-28l0,0c5.7,0,12-1.3,17.6-2.1c6.3-0.9,12-1.5,18.1-3.6l0,0l6.6,27.1l-16.7,4.2
		c-3,0.7-6,1.3-9,1.7l-16.6,2.2"/>
	<rect x="1043.8" y="529.5" class="st1" width="42.3" height="23.7"/>
	<rect x="870.7" y="529.5" class="st1" width="42.3" height="23.7"/>
	<path class="st1" d="M1197.4,556.9L1197.4,556.9c5.6,0,29.5,3.6,35.7,5.7l0,0l6.6-27.1l-2.2-0.7c-11.5-3.5-23.4-5.5-35.4-5.9
		l-4.7-0.2V556.9L1197.4,556.9z"/>
	<rect x="871.9" y="1271.5" class="st1" width="42.3" height="23.7"/>
	<path class="st1" d="M1346.4,1230.8c0,0,19.3-18.6,27.8-29.6l-16.8-13.8c-8.5,11-25.7,27.4-25.7,27.4L1346.4,1230.8z"/>
	<path class="st1" d="M1397.3,1119.5l13.3,6.6c4.8,2.4,6.8,8.2,4.4,13l-17,34.4c-2.4,4.8-8.2,6.8-13,4.4l-13.3-6.6l0.6-1.1
		C1382,1154.1,1390.4,1137.1,1397.3,1119.5L1397.3,1119.5z"/>
	<path class="st1" d="M1410.9,1040.8h15.3c4.6,0,8.3,3.9,8,8.5l-1.3,18.7c-0.4,6.3-1.2,12.5-2.4,18.7l-3.3,17.2
		c-0.8,4-4.8,6.6-8.8,5.5l-16.6-4.7C1401.8,1104.7,1409.7,1084.1,1410.9,1040.8z"/>
	<path class="st1" d="M1346.4,595.8c0,0,19.3,18.6,27.8,29.6l-16.8,13.8c-8.5-11-25.7-27.4-25.7-27.4L1346.4,595.8z"/>
	<path class="st1" d="M1397.3,707.1l13.3-6.6c4.8-2.4,6.8-8.2,4.4-13l-17-34.4c-2.4-4.8-8.2-6.8-13-4.4l-13.3,6.6l0.6,1.1
		C1382,672.5,1390.4,689.5,1397.3,707.1L1397.3,707.1z"/>
	<path class="st1" d="M1410.9,785.8h15.3c4.6,0,8.3-3.9,8-8.5l-1.3-18.7c-0.4-6.3-1.2-12.5-2.4-18.7l-3.3-17.2
		c-0.8-4-4.8-6.6-8.8-5.5l-16.6,4.7C1401.8,721.9,1409.7,742.5,1410.9,785.8z"/>
	<path class="st1" d="M1412.4,966.3h12.9c3.5,0,6.4,2.9,6.4,6.4v42.5c0,3.5-2.9,6.4-6.4,6.4h-12.9V966.3z"/>
	<path class="st1" d="M1412.4,802.6h12.9c3.5,0,6.4,2.9,6.4,6.4v42.5c0,3.5-2.9,6.4-6.4,6.4h-12.9V802.6z"/>
	<path class="st1" d="M760.6,1267.8L760.6,1267.8c-6,0-11.1-0.8-16.9-1.7c-6.1-0.9-12.9-2-18.8-4l0,0l-6.6,27.1l2.2,0.7
		c11.5,3.5,23.4,5.5,35.4,5.9l3.2,0.2L760.6,1267.8z"/>
	<path class="st1" d="M718.3,536.8l2.2-0.7c11.5-3.5,23.4-5.5,35.4-5.9l4.7-0.2v28.2l0,0c-6.2-0.1-12.2,0.7-18.4,1.5
		c-5.9,0.8-11.9,1.5-17.5,3.4"/>
	<path class="st1" d="M611.5,1230.8c0,0-19.3-18.6-27.8-29.6l16.8-13.8c8.5,11,25.7,27.4,25.7,27.4L611.5,1230.8z"/>
	<path class="st1" d="M560.7,1119.5l-13.3,6.6c-4.8,2.4-6.8,8.2-4.4,13l17,34.4c2.4,4.8,8.2,6.8,13,4.4l13.3-6.6l-0.6-1.1
		C576,1154.1,567.6,1137.1,560.7,1119.5L560.7,1119.5z"/>
	<path class="st1" d="M547.1,1040.8h-15.3c-4.6,0-8.3,3.9-8,8.5l1.3,18.7c0.4,6.3,1.2,12.5,2.4,18.7l3.3,17.2c0.8,4,4.8,6.6,8.8,5.5
		l16.6-4.7C556.2,1104.7,548.2,1084.1,547.1,1040.8z"/>
	<path class="st1" d="M611.5,595.8c0,0-19.3,18.6-27.8,29.6l16.8,13.8c8.5-11,25.7-27.4,25.7-27.4L611.5,595.8z"/>
	<path class="st1" d="M560.7,707.1l-13.3-6.6c-4.8-2.4-6.8-8.2-4.4-13l17-34.4c2.4-4.8,8.2-6.8,13-4.4l13.3,6.6l-0.6,1.1
		C576,672.5,567.6,689.5,560.7,707.1L560.7,707.1z"/>
	<path class="st1" d="M547.1,785.8h-15.3c-4.6,0-8.3-3.9-8-8.5l1.3-18.7c0.4-6.3,1.2-12.5,2.4-18.7l3.3-17.2c0.8-4,4.8-6.6,8.8-5.5
		l16.6,4.7C556.2,721.9,548.2,742.5,547.1,785.8z"/>
	<path class="st1" d="M545.6,966.3h-12.9c-3.5,0-6.4,2.9-6.4,6.4v42.5c0,3.5,2.9,6.4,6.4,6.4h12.9V966.3z"/>
	<path class="st1" d="M545.6,802.6h-12.9c-3.5,0-6.4,2.9-6.4,6.4v42.5c0,3.5,2.9,6.4,6.4,6.4h12.9V802.6z"/>
</g>
<g id="Plan_2_">
	<rect x="726.9" y="746.7" class="st2" width="500" height="332"/>
	<rect x="737.3" y="757.6" class="st3" width="479" height="311.1"/>
	<line class="st3" x1="975.8" y1="1068.1" x2="975.8" y2="758.1"/>
	<rect x="1140.9" y="821.1" class="st3" width="75.4" height="185.2"/>
	<polyline class="st3" points="1216.9,955.7 1191.6,955.7 1191.6,871.7 1216.9,871.7 	"/>
	<circle class="st3" cx="976.4" cy="913.8" r="41.6"/>
	<path class="st3" d="M1141.3,947.6c-10.5-7.5-17.4-19.9-17.4-33.8c0-13.9,6.8-26.2,17.3-33.8"/>
	<rect x="737.3" y="822.2" class="st3" width="75.4" height="185.2"/>
	<polyline class="st3" points="737.3,872.8 762.1,872.8 762.1,956.7 737.3,956.7 	"/>
	<path class="st3" d="M812.7,881.3c10.5,7.5,16.7,19.4,16.7,33.3c0,13.9-6.2,25.8-16.7,33.3"/>
	<circle class="st4" cx="975.7" cy="914.2" r="2.1"/>
	<g>
		<path class="st5" d="M715.7,1191.6"/>
	</g>
	<path class="st5" d="M712.7,774.5"/>
	<path class="st6" d="M980.8,734.6"/>
	<g>
		<path class="st5" d="M1226.8,704.1"/>
	</g>
	<g class="st7">
		<polygon class="st6" points="677.9,697.9 677.3,697.4 677.9,697.9 678.6,698.5 		"/>
	</g>
	<g class="st8">
		<polygon class="st6" points="677.9,697.9 677.3,697.4 677.9,697.9 678.6,698.5 		"/>
	</g>
	<g class="st7">
		<polygon class="st6" points="1260.8,735.4 1260.9,735.4 1260.9,735.4 		"/>
	</g>
	<g class="st8">
		<polygon class="st6" points="1260.8,735.4 1260.9,735.4 1260.9,735.4 		"/>
	</g>
	<g class="st7">
		<polygon class="st6" points="1260.8,735.4 1260.9,735.4 1260.9,735.4 		"/>
	</g>
	<polygon class="st6" points="713,775.8 713,775.8 713.5,775.9 	"/>
	<polygon class="st9" points="713,775.8 713,775.8 713.5,775.9 	"/>
	<path class="st6" d="M1352.7,600.8"/>
	<path class="st10" d="M1352.9,600.8L1352.9,600.8L1352.9,600.8z"/>
	<path class="st11" d="M1237.6,716.8"/>
	<polygon class="st12" points="1058.2,1204.1 1058.5,1204.1 1058.5,1204.1 	"/>
	<path class="st4" d="M655.9,1149.1c-0.1-0.1-0.2-0.3-0.3-0.4l0,0C655.6,1148.7,655.7,1148.8,655.9,1149.1z"/>
	<path class="st4" d="M655.6,1148.7L655.6,1148.7c-0.1-0.1-0.2-0.3-0.3-0.4C655.4,1148.4,655.5,1148.5,655.6,1148.7z"/>
	<path class="st4" d="M655.6,1148.7l0.4-0.3L655.6,1148.7C655.6,1148.7,655.6,1148.6,655.6,1148.7L655.6,1148.7L655.6,1148.7z"/>
	<path class="st12" d="M643.8,1330.4l0.1,0.1C643.8,1330.5,643.8,1330.4,643.8,1330.4L643.8,1330.4z"/>
	<path class="st12" d="M643.5,1330.3l0.2,0.1c0.1,0,0.1,0.1,0.2,0.1l0.3,0.1C644,1330.5,643.7,1330.4,643.5,1330.3z"/>
	<path class="st12" d="M643.9,1330.5c0.3,0.2,0.7,0.3,1,0.5c-0.2-0.1-0.5-0.2-0.7-0.3L643.9,1330.5z"/>
	<path class="st12" d="M643.2,1330.2c0.2,0.1,0.3,0.2,0.5,0.2l-0.2-0.1C643.4,1330.3,643.3,1330.2,643.2,1330.2z"/>
	<polygon class="st4" points="980.5,467.1 980.5,467.1 978.5,467.1 978.5,467.1 979.5,467.1 	"/>
	<path class="st4" d="M1359.6,606.8l-0.2-0.2c0.2,0.2,0.4,0.4,0.5,0.6l0.1-0.1L1359.6,606.8z"/>
	<polygon class="st4" points="458.5,996.1 457.5,996.1 457.5,998.1 458.5,998.1 458.5,997.1 	"/>
	<polygon class="st4" points="580.5,998.1 580.8,998.1 580.8,996.1 580.5,996.1 580.5,997.1 	"/>
	<path class="st4" d="M581.4,1065.7c0,0.3,0.1,0.5,0.1,0.8l0.4-0.1l-0.1-1l-0.4,0.1C581.4,1065.6,581.4,1065.7,581.4,1065.7z"/>
	<path class="st11" d="M775.4,442.7"/>
	<path class="st11" d="M1505,748.8"/>
	<path class="st3" d="M1206.1,1068.7c0-5.6,4.6-10.2,10.2-10.2"/>
	<path class="st3" d="M1216.4,767.8c-5.6,0-10.2-4.6-10.2-10.2"/>
	<path class="st3" d="M737.3,1058.5c5.6,0,10.2,4.6,10.2,10.2"/>
	<path class="st3" d="M747.5,757.6c0,5.6-4.6,10.2-10.2,10.2"/>
	<path class="st5" d="M1500,1002.8"/>
	<path class="st6" d="M1325.1,1327.6"/>
	<path class="st10" d="M1201.2,1202.9"/>
	<path class="st4" d="M1464.2,1185c-0.1,0.3-0.3,0.5-0.4,0.8c0.5,0.2,0.6,0.2,0.7,0.1L1464.2,1185L1464.2,1185l0.1-0.3"/>
	<line class="st13" x1="1464.3" y1="1184.7" x2="1464.6" y2="1184.1"/>
	<path class="st11" d="M1231.7,1382.8"/>
	<path class="st14" d="M1254.1,1366.5"/>
	<path class="st13" d="M1298,1370.2"/>
	<polygon class="st4" points="885.6,443.7 885.1,444 884.6,444.2 884.6,443.7 884.6,443.1 885.1,443.4 	"/>
	<path class="st15" d="M1148.5,1392.5c0.2,0,1.1,0,3.2,0"/>
	<path class="st5" d="M456.9,1004.8"/>
	<path class="st5" d="M530.1,1244.1"/>
	<path class="st11" d="M725.2,1384.8"/>
	<path class="st14" d="M702.8,1368.5"/>
	<line class="st11" x1="521.4" y1="1265.4" x2="521.4" y2="1265.4"/>
	<path class="st5" d="M731.7,705"/>
	<path class="st5" d="M458.9,825"/>
	<path class="st5" d="M532.1,585.8"/>
	<path class="st6" d="M633.8,500.3"/>
	<path class="st4" d="M494.7,642.8c0.1-0.3,0.3-0.5,0.4-0.8c-0.5-0.2-0.6-0.2-0.7-0.1L494.7,642.8L494.7,642.8l-0.1,0.3"/>
	<path class="st11" d="M727.2,445.1"/>
	<polygon class="st4" points="923,413.5 922.5,413.8 922,414.1 922,413.5 922,412.9 922.5,413.2 	"/>
	<path class="st11" d="M802.2,435.3c-2.2,0-4,0-4,0"/>
	<path class="st11" d="M810.4,435.3c-0.2,0-1.1,0-3.2,0"/>
	<path class="st5" d="M1227.2,708"/>
	<path class="st5" d="M1500,828"/>
	<path class="st5" d="M1426.8,588.8"/>
	<path class="st4" d="M1464.2,645.8c-0.1-0.3-0.3-0.5-0.4-0.8c0.5-0.2,0.6-0.2,0.7-0.1L1464.2,645.8L1464.2,645.8l0.1,0.3"/>
	<path class="st11" d="M1231.7,448.1"/>
	<polygon class="st4" points="1036,416.5 1036.5,416.8 1037,417.1 1037,416.5 1037,415.9 1036.5,416.2 	"/>
	<line class="st16" x1="1037" y1="416.5" x2="1049.4" y2="416.5"/>
	<rect x="1216.3" y="896.5" class="st3" width="8.6" height="35.5"/>
	<rect x="728.7" y="896.4" class="st3" width="8.6" height="35.5"/>
	<polygon class="st12" points="883.3,732.1 883.4,732.1 883.4,732.1 	"/>
	<path class="st12" d="M1246.1,717.7c0.1,0.1,0.1,0.1,0.2,0.2C1246.2,717.7,1246.1,717.5,1246.1,717.7z"/>
	<path class="st12" d="M1237,688.2l-10.4,15.7c0,0,0,0,0.1,0l7.9-12.1L1237,688.2z"/>
	<path class="st4" d="M1246.3,718l-0.2-0.2C1246.2,717.9,1246.2,718,1246.3,718z"/>
	<path class="st4" d="M1245.7,717.5L1245.7,717.5c0.3,0.3,0.5,0.6,0.8,0.8l-0.3-0.3c0,0-0.1-0.1-0.2-0.2
		C1246.1,717.8,1245.7,717.5,1245.7,717.5z"/>
	<path class="st4" d="M1246.1,717.8l0.2,0.2c0.1,0.1,0.1,0,0-0.1C1246.2,717.8,1246.2,717.8,1246.1,717.8
		C1246.1,717.7,1246.1,717.7,1246.1,717.8z"/>
	<path class="st4" d="M1246.1,717.8C1246.1,717.7,1246.1,717.7,1246.1,717.8c-0.3-0.4-0.6-0.6-0.9-0.9c-0.2-0.1-0.3-0.3-0.5-0.4
		c0.3,0.3,0.7,0.6,1,1l0,0L1246.1,717.8z"/>
	<path class="st12" d="M1319.3,1130.7C1319.4,1130.7,1319.4,1130.7,1319.3,1130.7L1319.3,1130.7L1319.3,1130.7z"/>
	<path class="st13" d="M1247.1,1107.2l-1.1,1C1246.4,1107.9,1246.8,1107.6,1247.1,1107.2C1247.2,1107.3,1247.1,1107.2,1247.1,1107.2
		z"/>
	<path class="st13" d="M1247.2,1107.2C1247.3,1107.2,1247.3,1107.2,1247.2,1107.2L1247.2,1107.2L1247.2,1107.2L1247.2,1107.2z"/>
	<path class="st12" d="M1247.9,1106.5c-0.2,0.2-0.3,0.3-0.5,0.5l-0.2,0.2h0.1C1247.5,1106.9,1247.7,1106.7,1247.9,1106.5z"/>
	<path class="st13" d="M1247.2,1107.3C1247.2,1107.3,1247.2,1107.2,1247.2,1107.3C1247.2,1107.2,1247.2,1107.3,1247.2,1107.3
		L1247.2,1107.3z"/>
	<path class="st13" d="M1247.2,1107.2L1247.2,1107.2L1247.2,1107.2L1247.2,1107.2z"/>
	<path class="st12" d="M1247.2,1107.2L1247.2,1107.2L1247.2,1107.2L1247.2,1107.2C1247.1,1107.2,1247.2,1107.3,1247.2,1107.2
		C1247.2,1107.3,1247.2,1107.2,1247.2,1107.2z"/>
	<path class="st12" d="M1248.1,1107.1"/>
	<path class="st12" d="M1247.2,1107.3"/>
	<path class="st12" d="M1247.2,1107.2"/>
	<path class="st4" d="M1319.7,1130.2L1319.7,1130.2c-0.1,0.2-0.2,0.3-0.3,0.5L1319.7,1130.2z"/>
	<path class="st4" d="M1246.1,1108.3L1246.1,1108.3L1246.1,1108.3L1246.1,1108.3z"/>
	<path class="st4" d="M1247.1,1107.2L1247.1,1107.2L1247.1,1107.2L1247.1,1107.2z"/>
	<path class="st4" d="M1348.5,787.1L1348.5,787.1L1348.5,787.1L1348.5,787.1z"/>
	<path class="st4" d="M730.2,704.5"/>
	<path class="st12" d="M733.8,702.3l6.9-3.8C739,699.4,736.6,700.7,733.8,702.3z"/>
	<path class="st12" d="M731.4,703.7L731.4,703.7c0.9-0.4,1.6-0.9,2.4-1.3L731.4,703.7z"/>
	<path class="st12" d="M1410.2,1033.5"/>
	<path class="st12" d="M1245.2,1100.9"/>
	<path class="st17" d="M1262.5,737"/>
	<path class="st17" d="M1228.4,705.4"/>
	<path class="st12" d="M1259.7,1092"/>
	<path class="st12" d="M1249.3,1102.3c0,0,8.1-8.1,9.7-10.8l-1.1-0.8"/>
	<path class="st12" d="M617.3,670.5c0.3-0.4,0.6-0.8,0.8-1.1l-0.6,0.8L617.3,670.5z"/>
	<polygon class="st12" points="1178,1254.4 1178,1254.3 1177.9,1254.4 	"/>
	<polygon class="st12" points="1309.4,1211.5 1311.8,1214.7 1311.8,1214.7 1309.4,1211.4 1309.3,1211.5 	"/>
	<polygon class="st12" points="1352.7,1164.6 1352.7,1164.6 1354,1162.8 	"/>
	<path class="st12" d="M590.4,723.1c-0.8,2.5-1.6,5.1-2.4,7.7L590.4,723.1z"/>
	<path class="st12" d="M619.8,667.1c-0.6,0.7-1.1,1.5-1.7,2.3L619.8,667.1z"/>
	<polygon class="st12" points="603.5,1173 603.5,1173 605.6,1171.5 	"/>
	<polygon class="st12" points="570.5,1111.9 570.5,1111.9 573.2,1111 	"/>
	<polygon class="st18" points="544.3,1037.9 547.8,1037.9 546.7,1037.9 	"/>
	<polygon class="st18" points="544.4,964 544.3,965 544.4,965 	"/>
	<path class="st18" d="M544.4,964L544.4,964L544.4,964z"/>
	<path class="st12" d="M1394.5,799.8"/>
	<path class="st19" d="M515.9,1253.2"/>
	<path class="st19" d="M542.1,1231.4"/>
	<path class="st14" d="M1216.1,1376.2"/>
	<path class="st11" d="M1231.7,449.8"/>
	<path class="st13" d="M442.4,1117.5"/>
	<path class="st20" d="M979.5,1414.4c-82.5,0-158.6-11.9-226.1-35.5l-1.2,6.9l-57.5-9.6l2.7-20.5c-0.3-0.2-0.6-0.3-0.9-0.5
		c-3.4,6.5-10.6,11.2-17.6,11.2c-10.5,0-19-8.5-19-19c0-3.5,2.1-7.5,4.2-10.7c-12-8.7-88-64.5-119.4-101.9l-26.4,19.7l-1.2-1.5
		c-14.4-17.6-27.8-36.5-39.7-56.2l-1.1-1.9l30-14c-12.7-21.2-24.3-44.6-33.5-68l-32.7,7.2l-0.6-1.6c-4.9-12.9-9.4-26.3-13.3-39.8
		l-0.7-2.3l33.5-3.5c-14.5-48.6-21.9-101.3-22.2-156.8l0,0v-2v-0.5v-2.5l0,0c0.2-54.7,7.1-104.8,21-153.1l-33.3-6.4l0.6-2.1
		c3.4-12.1,7.7-25.3,13.2-40.1l0.6-1.7l32.6,8.3c9.4-24.5,20.8-48,33.8-70l-30.2-14.7l1.1-1.9c13-22,25.5-39.8,40.5-57.8l1.2-1.5
		l26.3,20.8c32.2-39.1,67.2-69.5,109.9-95.5c-2.5-7.2-3.5-14.1-3.5-14.4v-0.3c0-12.5,10.1-22.6,22.6-22.6c9.3,0,18,6,21.3,14.7
		c1.1-0.5,2.5-1.2,3.8-1.8l-5.8-17.7l1.6-0.7c10.6-4.8,53.7-10.8,55.5-11.1l2.1-0.3l0.5,7.7c68.1-23.9,144.6-36,227.3-36
		c81.1,0,156.1,11.8,223.2,35.2l0.3-7.6l57.8,9.6l-2.6,20.9l4.9,2.4c3.6-7.9,11.3-15.2,21.5-15.2c12.5,0,22.6,10.1,22.6,22.6v0.1
		c0,0.3-0.4,6.5-4.5,14.7c10.9,8,82.2,60.7,112.1,96.5l25.5-20.6l1.3,1.5c14.3,17.4,27.5,36,39.3,55.4l1.1,1.9l-29.7,14.8
		c13.5,22.4,25.2,46.4,34.9,71.3l32.2-8.5l0.6,1.7c4.6,12.2,9.1,25.9,13.3,40.8l0.6,2.2l-33.3,4.3c14.2,48.7,21.3,99.3,21.5,154.4
		l0,0v2v0.5v2.4l0,0c-0.3,54.9-7.7,107.7-22.3,157.1l33.7,3.1l-0.6,2.3c-4.4,15.8-8.1,26.4-13,39.3l-0.6,1.6l-32.5-7.8
		c-9.4,24-20.7,47.2-33.7,69l29.9,14.5l-1.1,1.9c-11.7,19.6-24.9,38.4-39.2,55.8l-1.2,1.5l-26.5-19.6
		c-32,38.3-110.3,94.5-122.4,103.1c1.8,3.1,2.9,6.7,2.9,9.9c0,10.5-8.5,19-19,19c-8,0-13.6-5.8-16.4-11.4l-1.9,0.8l2.5,20.3
		l-57.9,9.6v-7c-18.3,6.4-37.4,12-56.9,16.6C1094.3,1408.1,1038.2,1414.4,979.5,1414.4z M750.2,1373.5l2.2,0.8
		c67.6,23.9,144,36.1,227,36.1c58.4,0,114.2-6.2,165.6-18.5c20.2-4.8,40-10.7,58.9-17.3l3-0.9v7.9l49.4-8.2l-2.4-19.5l8.3-3.7l0.8,2
		c2.1,5.3,7,10.7,13.5,10.7c8.3,0,15-6.7,15-15c0-2.9-1.2-6.5-3.2-9.2l-1.2-1.6l1.7-1.2c0.9-0.6,90.7-63.7,124.2-104.7l0.3-0.4
		l1.2-1.3l26.3,19.5c13.2-16.3,25.5-33.8,36.5-52l-30-14.5l1.3-2.2c13.6-22.5,25.3-46.6,35-71.5l0.6-1.6l32.5,7.8
		c4.3-11.5,7.7-21.3,11.6-35l-33.8-3.2l0.7-2.3c15.1-50.3,22.7-104.2,22.8-160.3v-0.7v-0.2c-0.1-56.4-7.3-107.9-22-157.6l-0.7-2.3
		l33.3-4.3c-3.8-13.2-7.8-25.5-11.9-36.5l-32.1,8.5l-0.6-1.7c-9.9-25.9-22.1-50.8-36.2-73.9l-1.3-2.1l29.7-14.8
		c-11-18-23.3-35.3-36.5-51.6l-25.5,20.6l-1.3-1.6c-31-38.2-113.2-97.7-114-98.3l-1.4-1l0.8-1.5c4.2-7.7,4.8-13.9,4.8-14.5
		c0-10.2-8.4-18.5-18.6-18.5c-9.1,0-16,7.6-18.6,14.7l-0.8,2.1l-11.4-5.6l2.5-19.9l-49.6-8.2l-0.4,8.5l-2.5-0.9
		c-67.1-23.9-142.6-36-224.2-36c-83.2,0-160.1,12.3-228.4,36.6l-2.5,0.9l-0.5-8.6c-8.5,1.2-39.8,5.9-50.6,9.8l5.8,17.6l-1.6,0.8
		c-2.5,1.2-7.4,3.5-7.4,3.5l-2.2,1l-0.6-2.3c-2.2-8.1-9.9-14-18.2-14c-10.2,0-18.5,8.3-18.6,18.5c0.1,1,1.2,7.5,3.5,13.9l0.1,0.2
		l0.6,2.6l-1.3,0.8c-43.5,26.2-78.9,57-111.4,96.9l-1.2,1.5L518.7,576c-13.9,16.8-25.6,33.6-37.8,53.9l30.3,14.7l-1.1,1.9
		c-13.7,22.7-25.5,47.2-35.2,72.6l-0.5,2l-32.8-8.4c-4.8,13.2-8.7,25-11.9,36l33.3,6.4l-0.6,2.1c-14.4,49.1-21.4,100.2-21.5,156v0.7
		v0.2c0.1,56.5,7.7,110.2,22.6,159.6l0.7,2.7l-33.4,3.5c3.5,12,7.5,24,11.9,35.5l32.7-7.2l0.6,1.6c9.5,24.4,21.7,48.9,35,70.9
		l1.2,1.9l-30,14c11.2,18.3,23.6,35.9,37,52.4l26.3-19.7l1.2,1.5c32.8,39.9,120.6,103.1,121.5,103.8l1.6,1.2l-1.2,1.6
		c-3,4.1-4.6,7.7-4.6,10.1c0,8.3,6.7,15,15,15c6.7,0,12.8-5.4,14.8-10.7l0.8-2.1l2,1c0,0,1.1,0.6,3.3,1.7l1.9,1.1l-2.6,19.4
		l49.8,8.3L750.2,1373.5z"/>
	<path class="st19" d="M1451.9,1182"/>
	<path class="st15" d="M1477.3,1033.4c0,0,0.4-0.9,0.8-2.6"/>
	<path class="st20" d="M1593,1012.6L1593,1012.6L1593,1012.6c-0.3-0.2-0.5-0.3-0.7-0.4l-15.6-9.4h-127.5v0.4v0.7h-0.3l0.3,29.1v0.5
		l0,0h127.5l8.3-5l0,0l0,0l7.2-4.4c0.3-0.1,0.5-0.3,0.8-0.5l0,0l0,0c1.7-1.2,2.8-3.2,2.8-5.5
		C1595.9,1015.8,1594.8,1013.8,1593,1012.6z"/>
	<path class="st20" d="M1593,809.2L1593,809.2L1593,809.2c-0.3-0.2-0.5-0.3-0.7-0.4l-15.6-9.4h-127.5v0.4v0.7h-0.3l0.3,29.1v0.5l0,0
		h127.5l8.3-5l0,0l0,0l7.2-4.4c0.3-0.1,0.5-0.3,0.8-0.5l0,0l0,0c1.7-1.2,2.8-3.2,2.8-5.5C1595.9,812.5,1594.8,810.4,1593,809.2z"/>
	<g>
		<path class="st20" d="M472.3,962.9v-0.4H344.9l-15.6,9.4c-0.2,0.1-0.5,0.3-0.7,0.4l0,0l0,0c-1.7,1.2-2.9,3.2-2.9,5.5
			s1.1,4.3,2.8,5.5l0,0l0,0c0.2,0.2,0.5,0.3,0.8,0.5l7.3,4.4l0,0l0,0l8.3,5h127.5l0,0v-0.5l0.3-29.1h-0.3v-0.7H472.3z"/>
		<path class="st20" d="M328.5,858.1L328.5,858.1L328.5,858.1c0.3,0.2,0.5,0.4,0.8,0.5l7.3,4.4l0,0l0,0l8.3,5h127.5l0,0v-0.5
			l0.3-29.1h-0.3v-0.7v-0.4H344.9l-15.6,9.4c-0.2,0.1-0.5,0.3-0.7,0.4l0,0l0,0c-1.7,1.2-2.9,3.2-2.9,5.5
			C325.7,854.9,326.8,856.9,328.5,858.1z"/>
	</g>
	<path class="st19" d="M1474.1,1192.7"/>
	<path class="st20" d="M1200.9,1377.4v-29h-1v-0.4l-29.1,0.3l0,0h-0.5v0.1v29v34.8l0,0c0,0.3,0,0.6,0.1,1l-0.1,62.6l9.4,15.5
		c0.1,0.3,0.3,0.5,0.5,0.8l0,0l0,0c1.2,1.7,3.2,2.8,5.5,2.8c2.3,0,4.3-1.1,5.5-2.9l0,0l0,0c0.1-0.2,0.3-0.4,0.4-0.7l9.4-15.6v-98.4
		L1200.9,1377.4L1200.9,1377.4z"/>
	<path class="st20" d="M937.1,1405.1v-29h-1v-0.4L907,1376l0,0h-0.5v0.1v29v34.8l0,0c0,0.3,0,0.6,0.1,1l-0.1,62.6l9.4,15.5
		c0.1,0.3,0.3,0.5,0.5,0.8l0,0l0,0c1.2,1.7,3.2,2.8,5.5,2.8s4.3-1.1,5.5-2.9l0,0l0,0c0.1-0.2,0.3-0.4,0.4-0.7l9.4-15.6V1405
		L937.1,1405.1L937.1,1405.1z"/>
	<path class="st20" d="M1051.6,1405.1v-29h-1v-0.4l-29.1,0.3l0,0h-0.5v0.1v29v34.8l0,0c0,0.3-0.1-0.1,0,0.3v63.3l9.4,15.5
		c0.1,0.3,0.3,0.5,0.5,0.8l0,0l0,0c1.2,1.7,3.2,2.8,5.5,2.8c2.3,0,4.3-1.1,5.5-2.9l0,0l0,0c0.1-0.2,0.3-0.4,0.4-0.7l9.4-15.6V1405
		L1051.6,1405.1L1051.6,1405.1z"/>
	<path class="st20" d="M787.8,1377.4v-29h-1v-0.4l-29.1,0.3l0,0h-0.5v0.1v29v34.8l0,0c0,0.3,0,0.6,0.1,1l-0.1,62.6l9.4,15.5
		c0.1,0.3,0.3,0.5,0.5,0.8l0,0l0,0c1.2,1.7,3.2,2.8,5.5,2.8s4.3-1.1,5.5-2.9l0,0l0,0c0.1-0.2,0.3-0.4,0.4-0.7l9.4-15.6L787.8,1377.4
		L787.8,1377.4L787.8,1377.4z"/>
	<path class="st21" d="M661.2,1362.8"/>
	<path class="st21" d="M651.3,484.2"/>
	<path class="st22" d="M1319.7,1224"/>
	<polyline class="st23" points="748.1,944 748.1,906.4 737.9,896.1 737.9,932.5 728.2,932.5 739.5,944 748.1,944 	"/>
	<polyline class="st23" points="1235.7,943.8 1235.7,906.1 1225.6,895.9 1225.6,932.3 1215.9,932.3 1227.1,943.8 1235.7,943.8 	"/>
	<path class="st20" d="M1193.8,360l-4.8-8l0,0l0,0l-4.3-7c-0.1-0.3-0.3-0.5-0.4-0.7l0,0l0,0c-1.2-1.7-3.1-2.8-5.3-2.8
		c-2.2,0-4.2,1.1-5.4,2.8l0,0l0,0c-0.1,0.2-0.3,0.4-0.4,0.7l-9.1,15.1v15v27.3v81.5h29.8v-0.3v-61.9V375l0,0L1193.8,360z"/>
	<path class="st20" d="M789.5,360l-4.8-8l0,0l0,0l-4.3-7c-0.1-0.3-0.3-0.5-0.4-0.7l0,0l0,0c-1.2-1.7-3.1-2.8-5.3-2.8
		s-4.2,1.1-5.4,2.8l0,0l0,0c-0.1,0.2-0.3,0.4-0.4,0.7l-9.1,15.1v15v27.3v81.5h29.8v-0.3v-61.9V375l0,0L789.5,360z"/>
	<g>
		<g>
			
				<rect x="504.1" y="608.9" transform="matrix(-0.5762 0.8173 -0.8173 -0.5762 1315.3923 556.7171)" class="st20" width="18.4" height="20.9"/>
			<g>
				<g>
					<polyline class="st24" points="511,615.7 509.1,616.1 509.4,617.9 					"/>
				</g>
				<line class="st24" x1="509.1" y1="616.1" x2="517.9" y2="622.4"/>
			</g>
		</g>
		<g>
			
				<rect x="515.2" y="593.2" transform="matrix(0.5762 -0.8173 0.8173 0.5762 -271.1131 684.4538)" class="st20" width="18.4" height="20.9"/>
			<g>
				<g>
					<polyline class="st24" points="526.8,607.3 528.6,607 528.4,605.2 					"/>
				</g>
				<line class="st24" x1="528.6" y1="607" x2="519.8" y2="600.7"/>
			</g>
		</g>
	</g>
	<g>
		<g>
			
				<rect x="511.6" y="1210.9" transform="matrix(0.5965 0.8026 -0.8026 0.5965 1190.4808 74.842)" class="st20" width="18.4" height="20.9"/>
			<g>
				<g>
					<polyline class="st24" points="516.6,1222.4 516.3,1224.3 518.1,1224.6 					"/>
				</g>
				<line class="st24" x1="516.3" y1="1224.3" x2="525.1" y2="1217.9"/>
			</g>
		</g>
		<g>
			
				<rect x="500.1" y="1195.4" transform="matrix(-0.5965 -0.8026 0.8026 -0.5965 -154.894 2333.9543)" class="st20" width="18.4" height="20.9"/>
			<g>
				<g>
					<polyline class="st24" points="513.5,1204.8 513.7,1202.9 512,1202.6 					"/>
				</g>
				<line class="st24" x1="513.8" y1="1202.9" x2="505" y2="1209.3"/>
			</g>
		</g>
	</g>
	<g>
		<g>
			
				<rect x="727.9" y="1349.9" transform="matrix(0.9963 8.616643e-02 -8.616643e-02 0.9963 119.9622 -58.452)" class="st20" width="18.4" height="20.9"/>
			<g>
				<g>
					<polyline class="st24" points="735.1,1364.3 736.3,1365.7 737.8,1364.6 					"/>
				</g>
				<line class="st24" x1="736.3" y1="1365.7" x2="737.4" y2="1354.9"/>
			</g>
		</g>
		<g>
			
				<rect x="708.7" y="1348.3" transform="matrix(-0.9963 -8.616643e-02 8.616643e-02 -0.9963 1316.0215 2774.4019)" class="st20" width="18.4" height="20.9"/>
			<g>
				<g>
					<polyline class="st24" points="719.9,1354.9 718.6,1353.5 717.2,1354.6 					"/>
				</g>
				<line class="st24" x1="718.6" y1="1353.5" x2="717.6" y2="1364.3"/>
			</g>
		</g>
	</g>
	<g>
		<g>
			
				<rect x="1058.9" y="1333.3" transform="matrix(0.9994 -3.337172e-02 3.337172e-02 0.9994 -44.2506 36.3926)" class="st20" width="18.4" height="20.9"/>
			<g>
				<g>
					<polyline class="st24" points="1066.6,1347.9 1068,1349.2 1069.3,1347.9 					"/>
				</g>
				<line class="st24" x1="1068" y1="1349.2" x2="1067.7" y2="1338.4"/>
			</g>
		</g>
		<g>
			
				<rect x="1039.6" y="1334" transform="matrix(-0.9994 3.337172e-02 -3.337172e-02 -0.9994 2141.9734 2653.2883)" class="st20" width="18.4" height="20.9"/>
			<g>
				<g>
					<polyline class="st24" points="1050.4,1340.4 1048.9,1339.1 1047.7,1340.4 					"/>
				</g>
				<line class="st24" x1="1049" y1="1339.1" x2="1049.2" y2="1350"/>
			</g>
		</g>
	</g>
	<g>
		<g>
			
				<rect x="1437.3" y="1201.6" transform="matrix(0.5922 -0.8058 0.8058 0.5922 -386.8067 1659.7856)" class="st20" width="18.4" height="20.9"/>
			<g>
				<g>
					<polyline class="st24" points="1448.7,1215.8 1450.6,1215.5 1450.4,1213.7 					"/>
				</g>
				<line class="st24" x1="1450.6" y1="1215.5" x2="1441.9" y2="1209"/>
			</g>
		</g>
		<g>
			
				<rect x="1425.9" y="1217.1" transform="matrix(-0.5922 0.8058 -0.8058 -0.5922 3274.1741 798.2479)" class="st20" width="18.4" height="20.9"/>
			<g>
				<g>
					<polyline class="st24" points="1432.8,1223.9 1430.9,1224.2 1431.1,1226 					"/>
				</g>
				<line class="st24" x1="1430.9" y1="1224.2" x2="1439.6" y2="1230.7"/>
			</g>
		</g>
	</g>
	<g>
		<g>
			<polygon class="st20" points="1491.9,1077.6 1489.1,1091.4 1509.6,1095.4 1512.5,1081.6 			"/>
			<g>
				<g>
					<polyline class="st24" points="1504.6,1088.8 1506.1,1087.7 1505.2,1086.1 					"/>
				</g>
				<line class="st24" x1="1506.1" y1="1087.7" x2="1495.5" y2="1085.5"/>
			</g>
		</g>
		<g>
			<polygon class="st20" points="1509.5,1095.9 1506.8,1109.7 1486.3,1105.5 1489,1091.7 			"/>
			<g>
				<g>
					<polyline class="st24" points="1493.5,1101.3 1492.5,1099.7 1494,1098.7 					"/>
				</g>
				<line class="st24" x1="1492.5" y1="1099.7" x2="1503.1" y2="1101.8"/>
			</g>
		</g>
	</g>
	<g>
		<g>
			<polygon class="st20" points="1488,723.7 1490.7,737.5 1511.3,733.3 1508.5,719.5 			"/>
			<g>
				<g>
					<polyline class="st24" points="1504,729.1 1505,727.5 1503.5,726.5 					"/>
				</g>
				<line class="st24" x1="1505" y1="727.5" x2="1494.4" y2="729.6"/>
			</g>
		</g>
		<g>
			<polygon class="st20" points="1511.3,733.7 1514.2,747.5 1493.7,751.7 1490.8,737.9 			"/>
			<g>
				<g>
					<polyline class="st24" points="1498.7,745 1497.2,743.9 1498.1,742.4 					"/>
				</g>
				<line class="st24" x1="1497.2" y1="743.9" x2="1507.8" y2="741.7"/>
			</g>
		</g>
	</g>
	<g>
		<g>
			
				<rect x="1424.7" y="594.1" transform="matrix(-0.5853 -0.8108 0.8108 -0.5853 1782.895 2121.0671)" class="st20" width="18.4" height="20.9"/>
			<g>
				<g>
					<polyline class="st24" points="1438.1,603.6 1438.4,601.7 1436.6,601.3 					"/>
				</g>
				<line class="st24" x1="1438.4" y1="601.7" x2="1429.6" y2="608"/>
			</g>
		</g>
		<g>
			
				<rect x="1436" y="609.7" transform="matrix(0.5853 0.8108 -0.8108 0.5853 1102.1597 -914.5878)" class="st20" width="18.4" height="20.9"/>
			<g>
				<g>
					<polyline class="st24" points="1440.9,621.2 1440.7,623.1 1442.4,623.5 					"/>
				</g>
				<line class="st24" x1="1440.7" y1="623.1" x2="1449.5" y2="616.8"/>
			</g>
		</g>
	</g>
	<g>
		
			<rect x="972.2" y="1347.4" transform="matrix(-1.836970e-16 1 -1 -1.836970e-16 2340.9753 387.7172)" class="st20" width="8.9" height="33.9"/>
		<g>
			<g>
				<polyline class="st24" points="980.6,1365.8 981.9,1364.4 980.6,1363.1 				"/>
			</g>
			<line class="st24" x1="981.9" y1="1364.4" x2="971" y2="1364.4"/>
		</g>
	</g>
	<g>
		
			<rect x="972.2" y="1336.5" transform="matrix(6.123234e-17 -1 1 6.123234e-17 -376.8333 2330.0916)" class="st20" width="8.9" height="33.9"/>
		<g>
			<g>
				<polyline class="st24" points="972.7,1352 971.4,1353.4 972.6,1354.7 				"/>
			</g>
			<line class="st24" x1="971.4" y1="1353.4" x2="982.2" y2="1353.4"/>
		</g>
	</g>
	<g>
		<g>
			<polygon class="st20" points="449.4,720.5 445.9,734.2 466.3,739.1 469.7,725.4 			"/>
			<g>
				<g>
					<polyline class="st24" points="461.5,732.2 463.1,731.2 462.2,729.6 					"/>
				</g>
				<line class="st24" x1="463.1" y1="731.2" x2="452.6" y2="728.6"/>
			</g>
		</g>
		<g>
			<polygon class="st20" points="466.2,739.5 462.9,753.2 442.5,748.2 445.8,734.5 			"/>
			<g>
				<g>
					<polyline class="st24" points="449.9,744.3 449,742.7 450.5,741.7 					"/>
				</g>
				<line class="st24" x1="449" y1="742.7" x2="459.5" y2="745.2"/>
			</g>
		</g>
	</g>
	<g>
		<g>
			<polygon class="st20" points="443.7,1083.2 446.9,1096.9 467.3,1092.1 464.1,1078.4 			"/>
			<g>
				<g>
					<polyline class="st24" points="459.9,1088.2 460.8,1086.5 459.3,1085.5 					"/>
				</g>
				<line class="st24" x1="460.8" y1="1086.5" x2="450.3" y2="1088.9"/>
			</g>
		</g>
		<g>
			<polygon class="st20" points="467.3,1092.5 470.6,1106.2 450.2,1111 446.9,1097.3 			"/>
			<g>
				<g>
					<polyline class="st24" points="455.1,1104.2 453.5,1103.1 454.4,1101.6 					"/>
				</g>
				<line class="st24" x1="453.5" y1="1103.1" x2="464" y2="1100.6"/>
			</g>
		</g>
	</g>
	<g>
		<g>
			<rect x="964.9" y="445.2" class="st20" width="8.9" height="33.9"/>
			<g>
				<g>
					<polyline class="st24" points="970.8,458.2 969.4,456.9 968.1,458.2 					"/>
				</g>
				<line class="st24" x1="969.4" y1="456.9" x2="969.4" y2="467.8"/>
			</g>
		</g>
		<g>
			<rect x="976.4" y="445.2" class="st20" width="8.9" height="33.9"/>
			<g>
				<g>
					<polyline class="st24" points="982.3,458.2 980.9,456.9 979.6,458.2 					"/>
				</g>
				<line class="st24" x1="980.9" y1="456.9" x2="980.9" y2="467.8"/>
			</g>
		</g>
		<g>
			<g>
				<g>
					
						<rect x="725.9" y="455.9" transform="matrix(0.987 -0.1609 0.1609 0.987 -65.4598 124.3564)" class="st20" width="18.4" height="20.9"/>
					<g>
						<g>
							<polyline class="st24" points="734.1,470.6 735.7,471.7 736.8,470.3 							"/>
						</g>
						<line class="st24" x1="735.7" y1="471.7" x2="734" y2="461"/>
					</g>
				</g>
				<g>
					
						<rect x="706.9" y="459" transform="matrix(-0.987 0.1609 -0.1609 -0.987 1498.4291 817.6926)" class="st20" width="18.4" height="20.9"/>
					<g>
						<g>
							<polyline class="st24" points="717.1,465.3 715.5,464.2 714.4,465.6 							"/>
						</g>
						<line class="st24" x1="715.5" y1="464.2" x2="717.2" y2="474.9"/>
					</g>
				</g>
			</g>
			<g>
				<g>
					
						<rect x="1227.8" y="459.9" transform="matrix(0.9837 0.1798 -0.1798 0.9837 104.7146 -214.7293)" class="st20" width="18.4" height="20.9"/>
					<g>
						<g>
							<polyline class="st24" points="1236.1,466.1 1237.7,465 1238.8,466.5 							"/>
						</g>
						<line class="st24" x1="1237.7" y1="465" x2="1235.8" y2="475.7"/>
					</g>
				</g>
				<g>
					
						<rect x="1208.9" y="456.3" transform="matrix(-0.9837 -0.1798 0.1798 -0.9837 2332.3752 1145.024)" class="st20" width="18.4" height="20.9"/>
					<g>
						<g>
							<polyline class="st24" points="1219,471.1 1217.4,472.2 1216.3,470.7 							"/>
						</g>
						<line class="st24" x1="1217.4" y1="472.2" x2="1219.2" y2="461.5"/>
					</g>
				</g>
			</g>
			<g>
				<g>
					
						<rect x="1228.7" y="1346.9" transform="matrix(0.9856 -0.169 0.169 0.9856 -211.6054 228.746)" class="st20" width="18.4" height="20.9"/>
					<g>
						<g>
							<polyline class="st24" points="1237,1361.7 1238.6,1362.8 1239.7,1361.3 							"/>
						</g>
						<line class="st24" x1="1238.6" y1="1362.8" x2="1236.8" y2="1352.1"/>
					</g>
				</g>
				<g>
					
						<rect x="1209.8" y="1350.3" transform="matrix(-0.9856 0.169 -0.169 -0.9856 2650.3562 2495.8772)" class="st20" width="18.4" height="20.9"/>
					<g>
						<g>
							<polyline class="st24" points="1219.9,1356.5 1218.3,1355.4 1217.2,1356.8 							"/>
						</g>
						<line class="st24" x1="1218.3" y1="1355.4" x2="1220.1" y2="1366.1"/>
					</g>
				</g>
			</g>
		</g>
	</g>
	<g>
		<path class="st4" d="M879.6,618h-86V731c22.9,0,52.8,0.1,86,0.1V618z"/>
		<path class="st25" d="M879.6,618h-86V731c22.9,0,52.8,0.1,86,0.1V618z"/>
		<path class="st4" d="M880.7,731.1c29.4,0,61.4,0.1,93.4,0.1V618h-93.4V731.1z"/>
		<path class="st25" d="M880.7,731.1c29.4,0,61.4,0.1,93.4,0.1V618h-93.4V731.1z"/>
		<path class="st4" d="M1071.6,618h-96.6v113.2c33.1,0,66.2,0,96.6,0V618z"/>
		<path class="st25" d="M1071.6,618h-96.6v113.2c33.1,0,66.2,0,96.6,0V618z"/>
		<path class="st4" d="M1159.3,731.2V618h-86.6v113.3C1106.2,731.3,1136.3,731.3,1159.3,731.2z"/>
		<path class="st25" d="M1159.3,731.2V618h-86.6v113.3C1106.2,731.3,1136.3,731.3,1159.3,731.2z"/>
		<path class="st4" d="M1261.5,642.3c-25.6-15.4-55.5-24.3-87.4-24.3h-14v113.2c26.1,0,42.7-0.1,44.1-0.2L1261.5,642.3z"/>
		<path class="st25" d="M1261.5,642.3c-25.6-15.4-55.5-24.3-87.4-24.3h-14v113.2c26.1,0,42.7-0.1,44.1-0.2L1261.5,642.3z"/>
		<path class="st4" d="M1257.7,733.8l59.3-38c-14-21.5-32.8-39.7-54.7-53l-38.7,60.6C1223.5,703.3,1241.9,712.7,1257.7,733.8z"/>
		<path class="st25" d="M1257.7,733.8l59.3-38c-14-21.5-32.8-39.7-54.7-53l-38.7,60.6C1223.5,703.3,1241.9,712.7,1257.7,733.8z"/>
		<path class="st4" d="M1242.8,718.2l0,68.9h101.8c-0.3-33.3-10.2-64.4-27.1-90.6l-59.8,38.7
			C1257.7,735.2,1248.4,723.2,1242.8,718.2z"/>
		<path class="st25" d="M1242.8,718.2l0,68.9h101.8c-0.3-33.3-10.2-64.4-27.1-90.6l-59.8,38.7
			C1257.7,735.2,1248.4,723.2,1242.8,718.2z"/>
		<path class="st4" d="M1223.7,1119.8c-0.3,0.2-0.5,0.4-0.7,0.5l39.4,60.9c22.1-13.5,40.9-31.8,55-53.5l-59.6-38.2
			C1243.8,1108.1,1227.4,1117.8,1223.7,1119.8z"/>
		<path class="st25" d="M1223.7,1119.8c-0.3,0.2-0.5,0.4-0.7,0.5l39.4,60.9c22.1-13.5,40.9-31.8,55-53.5l-59.6-38.2
			C1243.8,1108.1,1227.4,1117.8,1223.7,1119.8z"/>
		<path class="st4" d="M1243,1104.7c5.7-5.1,14.7-16.6,14.7-16.6l60.1,38.9c16.8-26.3,26.7-57.4,26.8-90.8h-101.7L1243,1104.7z"/>
		<path class="st25" d="M1243,1104.7c5.7-5.1,14.7-16.6,14.7-16.6l60.1,38.9c16.8-26.3,26.7-57.4,26.8-90.8h-101.7L1243,1104.7z"/>
		<path class="st4" d="M1242.8,788l0.1,123.5h101.8v-123c0-0.2,0-0.4,0-0.5H1242.8z"/>
		<path class="st25" d="M1242.8,788l0.1,123.5h101.8v-123c0-0.2,0-0.4,0-0.5H1242.8z"/>
		<polygon class="st4" points="1242.9,1035.2 1344.6,1035.2 1344.6,912.5 1242.9,912.5 		"/>
		<polygon class="st25" points="1242.9,1035.2 1344.6,1035.2 1344.6,912.5 1242.9,912.5 		"/>
		<path class="st4" d="M1222.4,1120.6l-1.8-2.7c-4.4-6.9-15.7-24.4-15.7-24.4l-59.2-0.1V1206h28.4c32,0,61.9-8.9,87.6-24.4
			L1222.4,1120.6L1222.4,1120.6z"/>
		<path class="st25" d="M1222.4,1120.6l-1.8-2.7c-4.4-6.9-15.7-24.4-15.7-24.4l-59.2-0.1V1206h28.4c32,0,61.9-8.9,87.6-24.4
			L1222.4,1120.6L1222.4,1120.6z"/>
		<path class="st4" d="M701.8,1103.1l-49.9,44.4c8.1,9.2,17.2,17.6,27.1,25c9.8,7.3,20.5,13.5,31.8,18.6l26.7-62
			C737.5,1129.1,720.4,1122.4,701.8,1103.1z"/>
		<path class="st25" d="M701.8,1103.1l-49.9,44.4c8.1,9.2,17.2,17.6,27.1,25c9.8,7.3,20.5,13.5,31.8,18.6l26.7-62
			C737.5,1129.1,720.4,1122.4,701.8,1103.1z"/>
		<path class="st4" d="M727.7,1123.1l11,5.4l-26.4,63.2c20.8,9.1,43.8,14.2,67.8,14.2H805V1093l-57.6-0.1L727.7,1123.1z"/>
		<path class="st25" d="M727.7,1123.1l11,5.4l-26.4,63.2c20.8,9.1,43.8,14.2,67.8,14.2H805V1093l-57.6-0.1L727.7,1123.1z"/>
		<polygon class="st4" points="1054.8,1205.6 1144.7,1205.6 1144.7,1093.4 1054.8,1093.3 		"/>
		<polygon class="st25" points="1054.8,1205.6 1144.7,1205.6 1144.7,1093.4 1054.8,1093.3 		"/>
		<polygon class="st4" points="806.6,1205.6 894.1,1205.6 894.1,1093.1 806.6,1093 		"/>
		<polygon class="st25" points="806.6,1205.6 894.1,1205.6 894.1,1093.1 806.6,1093 		"/>
		<polygon class="st4" points="990.3,1116.7 974.9,1116.8 974.9,1205.6 1053.7,1205.6 1053.7,1093.3 990.3,1093.2 		"/>
		<polygon class="st25" points="990.3,1116.7 974.9,1116.8 974.9,1205.6 1053.7,1205.6 1053.7,1093.3 990.3,1093.2 		"/>
		<polygon class="st4" points="958.6,1093.2 895.1,1093.1 895.1,1205.6 973.9,1205.6 973.9,1116.8 958.6,1116.7 		"/>
		<polygon class="st25" points="958.6,1093.2 895.1,1093.1 895.1,1205.6 973.9,1205.6 973.9,1116.8 958.6,1116.7 		"/>
		<path class="st4" d="M709.9,1110l0-58.4l-96.6,19.1c6.1,28.6,19.4,54.6,37.9,76l50.9-44.9C703.6,1103.9,708.6,1108.7,709.9,1110z"
			/>
		<path class="st25" d="M709.9,1110l0-58.4l-96.6,19.1c6.1,28.6,19.4,54.6,37.9,76l50.9-44.9C703.6,1103.9,708.6,1108.7,709.9,1110z
			"/>
		<path class="st4" d="M730.6,703.8l2.9,4.7l14.1,22.5c0,0,17.2,0,44.9,0.1V618h-12.5c-23.7,0-46.4,4.9-67,13.8l28.6,66.4
			C737.1,699.8,730.6,703.8,730.6,703.8z"/>
		<path class="st25" d="M730.6,703.8l2.9,4.7l14.1,22.5c0,0,17.2,0,44.9,0.1V618h-12.5c-23.7,0-46.4,4.9-67,13.8l28.6,66.4
			C737.1,699.8,730.6,703.8,730.6,703.8z"/>
		<path class="st4" d="M709.6,717.8c-2.1,1.9-4.9,4.4-6.3,5.8L651,677.4c-19.2,22.2-32.8,49.4-38.5,79.3l97,18.9L709.6,717.8z"/>
		<path class="st25" d="M709.6,717.8c-2.1,1.9-4.9,4.4-6.3,5.8L651,677.4c-19.2,22.2-32.8,49.4-38.5,79.3l97,18.9L709.6,717.8z"/>
		<path class="st4" d="M709.8,995H609.6v40.5c0,11.7,1.2,23.2,3.5,34.2l96.8-18.9L709.8,995z"/>
		<path class="st25" d="M709.8,995H609.6v40.5c0,11.7,1.2,23.2,3.5,34.2l96.8-18.9L709.8,995z"/>
		<path class="st4" d="M709.6,776.6l-97.2-19c-1.8,10-2.8,20.3-2.8,30.8v44h100.1L709.6,776.6z"/>
		<path class="st25" d="M709.6,776.6l-97.2-19c-1.8,10-2.8,20.3-2.8,30.8v44h100.1L709.6,776.6z"/>
		<polygon class="st4" points="709.7,914.2 609.6,914.2 609.6,994 709.8,994 		"/>
		<polygon class="st25" points="709.7,914.2 609.6,914.2 609.6,994 709.8,994 		"/>
		<polygon class="st4" points="709.7,833.4 609.6,833.4 609.6,913.2 709.7,913.2 		"/>
		<polygon class="st25" points="709.7,833.4 609.6,833.4 609.6,913.2 709.7,913.2 		"/>
		<path class="st4" d="M740.3,697.5l-28.2-65.3c-23.3,10.2-43.9,25.4-60.4,44.3l51.5,45.5C724.7,702.9,740.3,697.5,740.3,697.5z"/>
		<path class="st25" d="M740.3,697.5l-28.2-65.3c-23.3,10.2-43.9,25.4-60.4,44.3l51.5,45.5C724.7,702.9,740.3,697.5,740.3,697.5z"/>
		<g>
			<rect x="811.1" y="568.9" class="st4" width="85" height="17.2"/>
			<rect x="811.1" y="568.9" class="st25" width="85" height="17.2"/>
			<rect x="811.1" y="568.9" class="st26" width="85" height="17.2"/>
			<rect x="897.1" y="568.9" class="st4" width="78" height="17.2"/>
			<rect x="897.1" y="568.9" class="st25" width="78" height="17.2"/>
			<rect x="897.1" y="568.9" class="st26" width="78" height="17.2"/>
			<rect x="976.1" y="568.9" class="st4" width="80" height="17.2"/>
			<rect x="976.1" y="568.9" class="st25" width="80" height="17.2"/>
			<rect x="976.1" y="568.9" class="st26" width="80" height="17.2"/>
			<rect x="1057.1" y="568.9" class="st4" width="78.1" height="17.2"/>
			<rect x="1057.1" y="568.9" class="st25" width="78.1" height="17.2"/>
			<rect x="1057.1" y="568.9" class="st26" width="78.1" height="17.2"/>
			<rect x="1376.7" y="830.7" class="st4" width="20.1" height="82"/>
			<rect x="1376.7" y="830.7" class="st25" width="20.1" height="82"/>
			<rect x="1376.7" y="830.7" class="st26" width="20.1" height="82"/>
			<polygon class="st4" points="1376.7,995.6 1396.8,995.6 1396.8,913.7 1376.7,913.7 			"/>
			<polygon class="st25" points="1376.7,995.6 1396.8,995.6 1396.8,913.7 1376.7,913.7 			"/>
			<polygon class="st26" points="1376.7,995.6 1396.8,995.6 1396.8,913.7 1376.7,913.7 			"/>
			<rect x="1065.6" y="1239.2" class="st4" width="72.4" height="18.9"/>
			<rect x="1065.6" y="1239.2" class="st25" width="72.4" height="18.9"/>
			<rect x="1065.6" y="1239.2" class="st26" width="72.4" height="18.9"/>
			<rect x="974.6" y="1239.2" class="st4" width="90" height="18.9"/>
			<rect x="974.6" y="1239.2" class="st25" width="90" height="18.9"/>
			<rect x="974.6" y="1239.2" class="st26" width="90" height="18.9"/>
			<rect x="895.1" y="1239.2" class="st4" width="79" height="18.9"/>
			<rect x="895.1" y="1239.2" class="st25" width="79" height="18.9"/>
			<rect x="895.1" y="1239.2" class="st26" width="79" height="18.9"/>
			<rect x="810.1" y="1239.2" class="st4" width="84" height="18.9"/>
			<rect x="810.1" y="1239.2" class="st25" width="84" height="18.9"/>
			<rect x="810.1" y="1239.2" class="st26" width="84" height="18.9"/>
			<rect x="555.1" y="914.2" class="st4" width="20.7" height="81.5"/>
			<rect x="555.1" y="914.2" class="st25" width="20.7" height="81.5"/>
			<rect x="555.1" y="914.2" class="st26" width="20.7" height="81.5"/>
			<rect x="555.1" y="831.1" class="st4" width="20.7" height="82.1"/>
			<rect x="555.1" y="831.1" class="st25" width="20.7" height="82.1"/>
			<rect x="555.1" y="831.1" class="st26" width="20.7" height="82.1"/>
			<path class="st4" d="M1318.6,643.6l12.5-12.7c-16.2-15.9-35-29.2-55.5-39.4l-7.7,15.5C1286.7,616.5,1303.8,628.9,1318.6,643.6z"
				/>
			<path class="st25" d="M1318.6,643.6l12.5-12.7c-16.2-15.9-35-29.2-55.5-39.4l-7.7,15.5C1286.7,616.5,1303.8,628.9,1318.6,643.6z"
				/>
			<path class="st26" d="M1318.6,643.6l12.5-12.7c-16.2-15.9-35-29.2-55.5-39.4l-7.7,15.5C1286.7,616.5,1303.8,628.9,1318.6,643.6z"
				/>
			<path class="st4" d="M1355.9,695.1l16.6-8.5c-10.6-20.5-24.4-39.1-40.7-55.1l-12.5,12.8C1334,659.1,1346.5,676.3,1355.9,695.1z"
				/>
			<path class="st25" d="M1355.9,695.1l16.6-8.5c-10.6-20.5-24.4-39.1-40.7-55.1l-12.5,12.8C1334,659.1,1346.5,676.3,1355.9,695.1z"
				/>
			<path class="st26" d="M1355.9,695.1l16.6-8.5c-10.6-20.5-24.4-39.1-40.7-55.1l-12.5,12.8C1334,659.1,1346.5,676.3,1355.9,695.1z"
				/>
			<path class="st4" d="M1375.3,759.9l19.5-2.6c-3.3-24.9-10.9-48.4-21.9-69.9l-16.6,8.5C1366.1,715.7,1372.7,737.2,1375.3,759.9z"
				/>
			<path class="st25" d="M1375.3,759.9l19.5-2.6c-3.3-24.9-10.9-48.4-21.9-69.9l-16.6,8.5C1366.1,715.7,1372.7,737.2,1375.3,759.9z"
				/>
			<path class="st26" d="M1375.3,759.9l19.5-2.6c-3.3-24.9-10.9-48.4-21.9-69.9l-16.6,8.5C1366.1,715.7,1372.7,737.2,1375.3,759.9z"
				/>
			<path class="st4" d="M1376.7,782.8v46.9l20.1,0.1v-43.1c0-9.6-0.6-19.1-1.8-28.4l-19.5,2.6
				C1376.2,768.1,1376.7,775.4,1376.7,782.8z"/>
			<path class="st25" d="M1376.7,782.8v46.9l20.1,0.1v-43.1c0-9.6-0.6-19.1-1.8-28.4l-19.5,2.6
				C1376.2,768.1,1376.7,775.4,1376.7,782.8z"/>
			<path class="st26" d="M1376.7,782.8v46.9l20.1,0.1v-43.1c0-9.6-0.6-19.1-1.8-28.4l-19.5,2.6
				C1376.2,768.1,1376.7,775.4,1376.7,782.8z"/>
			<path class="st4" d="M1376.7,1042.5c0,7.5-0.4,14.9-1.3,22.2l19.7,2.8c1.1-8.9,1.7-18,1.7-27.2v-43.6h-20.1V1042.5z"/>
			<path class="st25" d="M1376.7,1042.5c0,7.5-0.4,14.9-1.3,22.2l19.7,2.8c1.1-8.9,1.7-18,1.7-27.2v-43.6h-20.1V1042.5z"/>
			<path class="st26" d="M1376.7,1042.5c0,7.5-0.4,14.9-1.3,22.2l19.7,2.8c1.1-8.9,1.7-18,1.7-27.2v-43.6h-20.1V1042.5z"/>
			<path class="st4" d="M1356.1,1129.8l17.2,8.9c11-21.6,18.4-45.3,21.7-70.3l-19.7-2.8C1372.6,1088.4,1366,1110,1356.1,1129.8z"/>
			<path class="st25" d="M1356.1,1129.8l17.2,8.9c11-21.6,18.4-45.3,21.7-70.3l-19.7-2.8C1372.6,1088.4,1366,1110,1356.1,1129.8z"/>
			<path class="st26" d="M1356.1,1129.8l17.2,8.9c11-21.6,18.4-45.3,21.7-70.3l-19.7-2.8C1372.6,1088.4,1366,1110,1356.1,1129.8z"/>
			<path class="st4" d="M575.8,782.8c0-7.3,0.4-14.5,1.2-21.5l-20.1-2.7c-1.2,9.2-1.8,18.6-1.8,28.2v43h20.7V782.8z"/>
			<path class="st25" d="M575.8,782.8c0-7.3,0.4-14.5,1.2-21.5l-20.1-2.7c-1.2,9.2-1.8,18.6-1.8,28.2v43h20.7V782.8z"/>
			<path class="st26" d="M575.8,782.8c0-7.3,0.4-14.5,1.2-21.5l-20.1-2.7c-1.2,9.2-1.8,18.6-1.8,28.2v43h20.7V782.8z"/>
			<path class="st4" d="M595.9,696.4l-17.1-8.7c-11,21.4-18.4,44.9-21.8,69.7l20.1,2.7C579.8,737.5,586.3,716.1,595.9,696.4z"/>
			<path class="st25" d="M595.9,696.4l-17.1-8.7c-11,21.4-18.4,44.9-21.8,69.7l20.1,2.7C579.8,737.5,586.3,716.1,595.9,696.4z"/>
			<path class="st26" d="M595.9,696.4l-17.1-8.7c-11,21.4-18.4,44.9-21.8,69.7l20.1,2.7C579.8,737.5,586.3,716.1,595.9,696.4z"/>
			<path class="st4" d="M577.1,1065l-20.3,2.9c3.2,24.9,10.6,48.6,21.4,70.1l17.7-9.1C586.3,1109.3,579.8,1087.7,577.1,1065z"/>
			<path class="st25" d="M577.1,1065l-20.3,2.9c3.2,24.9,10.6,48.6,21.4,70.1l17.7-9.1C586.3,1109.3,579.8,1087.7,577.1,1065z"/>
			<path class="st26" d="M577.1,1065l-20.3,2.9c3.2,24.9,10.6,48.6,21.4,70.1l17.7-9.1C586.3,1109.3,579.8,1087.7,577.1,1065z"/>
			<path class="st4" d="M575.8,1042.5v-45.8h-20.7v43.5c0,9.1,0.6,18,1.6,26.7l20.3-3C576.2,1057,575.8,1049.8,575.8,1042.5z"/>
			<path class="st25" d="M575.8,1042.5v-45.8h-20.7v43.5c0,9.1,0.6,18,1.6,26.7l20.3-3C576.2,1057,575.8,1049.8,575.8,1042.5z"/>
			<path class="st26" d="M575.8,1042.5v-45.8h-20.7v43.5c0,9.1,0.6,18,1.6,26.7l20.3-3C576.2,1057,575.8,1049.8,575.8,1042.5z"/>
			<path class="st4" d="M1319.2,1181.1l13.2,13.8c16.3-16.1,30-34.8,40.6-55.4l-17.3-8.9C1346.2,1149.3,1333.8,1166.4,1319.2,1181.1
				z"/>
			<path class="st25" d="M1319.2,1181.1l13.2,13.8c16.3-16.1,30-34.8,40.6-55.4l-17.3-8.9
				C1346.2,1149.3,1333.8,1166.4,1319.2,1181.1z"/>
			<path class="st26" d="M1319.2,1181.1l13.2,13.8c16.3-16.1,30-34.8,40.6-55.4l-17.3-8.9
				C1346.2,1149.3,1333.8,1166.4,1319.2,1181.1z"/>
			<path class="st4" d="M1268,1218.2l8.3,16.9c20.5-10.3,39.2-23.7,55.4-39.6l-13.2-13.8C1303.8,1196.4,1286.8,1208.7,1268,1218.2z"
				/>
			<path class="st25" d="M1268,1218.2l8.3,16.9c20.5-10.3,39.2-23.7,55.4-39.6l-13.2-13.8C1303.8,1196.4,1286.8,1208.7,1268,1218.2z
				"/>
			<path class="st26" d="M1268,1218.2l8.3,16.9c20.5-10.3,39.2-23.7,55.4-39.6l-13.2-13.8C1303.8,1196.4,1286.8,1208.7,1268,1218.2z
				"/>
			<path class="st4" d="M632.9,1180.7l-13.5,14.1c16,15.9,34.5,29.4,54.9,39.7l8.4-17.2C664.2,1207.8,647.4,1195.4,632.9,1180.7z"/>
			<path class="st25" d="M632.9,1180.7l-13.5,14.1c16,15.9,34.5,29.4,54.9,39.7l8.4-17.2C664.2,1207.8,647.4,1195.4,632.9,1180.7z"
				/>
			<path class="st26" d="M632.9,1180.7l-13.5,14.1c16,15.9,34.5,29.4,54.9,39.7l8.4-17.2C664.2,1207.8,647.4,1195.4,632.9,1180.7z"
				/>
			<path class="st4" d="M596.4,1129.8l-17.7,9.2c10.4,20.4,23.9,39,40,55.1l13.5-14.1C617.8,1165.3,605.7,1148.4,596.4,1129.8z"/>
			<path class="st25" d="M596.4,1129.8l-17.7,9.2c10.4,20.4,23.9,39,40,55.1l13.5-14.1C617.8,1165.3,605.7,1148.4,596.4,1129.8z"/>
			<path class="st26" d="M596.4,1129.8l-17.7,9.2c10.4,20.4,23.9,39,40,55.1l13.5-14.1C617.8,1165.3,605.7,1148.4,596.4,1129.8z"/>
			<path class="st25" d="M632.3,645.2l-12.9-13c-16.1,16-29.7,34.5-40.2,54.9l17.1,8.7C605.5,677.1,617.8,660,632.3,645.2z"/>
			<path class="st4" d="M632.3,645.2l-12.9-13c-16.1,16-29.7,34.5-40.2,54.9l17.1,8.7C605.5,677.1,617.8,660,632.3,645.2z"/>
			<path class="st4" d="M682.6,608l-7.8-15.8c-20.3,10.2-38.7,23.6-54.7,39.3l12.8,13.1C647.4,629.9,664.1,617.5,682.6,608z"/>
			<path class="st25" d="M682.6,608l-7.8-15.8c-20.3,10.2-38.7,23.6-54.7,39.3l12.8,13.1C647.4,629.9,664.1,617.5,682.6,608z"/>
			<path class="st26" d="M682.6,608l-7.8-15.8c-20.3,10.2-38.7,23.6-54.7,39.3l12.8,13.1C647.4,629.9,664.1,617.5,682.6,608z"/>
			<path class="st4" d="M1180,586.1c7.8,0,15.7,0.5,23.3,1.4l2.6-17c-8.8-1.1-17.8-1.7-26.9-1.7h-42.8v17.2H1180z"/>
			<path class="st25" d="M1180,586.1c7.8,0,15.7,0.5,23.3,1.4l2.6-17c-8.8-1.1-17.8-1.7-26.9-1.7h-42.8v17.2H1180z"/>
			<path class="st26" d="M1180,586.1c7.8,0,15.7,0.5,23.3,1.4l2.6-17c-8.8-1.1-17.8-1.7-26.9-1.7h-42.8v17.2H1180z"/>
			<path class="st4" d="M1267,606.5l7.7-15.5c-21-10.3-44-17.3-68.1-20.4l-2.6,17C1226.3,590.3,1247.5,596.8,1267,606.5z"/>
			<path class="st25" d="M1267,606.5l7.7-15.5c-21-10.3-44-17.3-68.1-20.4l-2.6,17C1226.3,590.3,1247.5,596.8,1267,606.5z"/>
			<path class="st26" d="M1267,606.5l7.7-15.5c-21-10.3-44-17.3-68.1-20.4l-2.6,17C1226.3,590.3,1247.5,596.8,1267,606.5z"/>
			<path class="st4" d="M772.5,586.1h37.6v-17.2h-37.2c-9.1,0-18.1,0.6-27,1.7l2.5,17C756.3,586.6,764.3,586.1,772.5,586.1z"/>
			<path class="st25" d="M772.5,586.1h37.6v-17.2h-37.2c-9.1,0-18.1,0.6-27,1.7l2.5,17C756.3,586.6,764.3,586.1,772.5,586.1z"/>
			<path class="st26" d="M772.5,586.1h37.6v-17.2h-37.2c-9.1,0-18.1,0.6-27,1.7l2.5,17C756.3,586.6,764.3,586.1,772.5,586.1z"/>
			<path class="st4" d="M747.5,587.7l-2.5-17c-24.6,3.1-47.9,10.4-69.2,21.1l7.8,15.8C703.2,597.4,724.8,590.6,747.5,587.7z"/>
			<path class="st25" d="M747.5,587.7l-2.5-17c-24.6,3.1-47.9,10.4-69.2,21.1l7.8,15.8C703.2,597.4,724.8,590.6,747.5,587.7z"/>
			<path class="st26" d="M747.5,587.7l-2.5-17c-24.6,3.1-47.9,10.4-69.2,21.1l7.8,15.8C703.2,597.4,724.8,590.6,747.5,587.7z"/>
			<path class="st4" d="M772.5,1239.2c-8.3,0-16.4-0.5-24.4-1.5l-2.5,18.7c9,1.1,18.1,1.7,27.3,1.7h36.2v-18.9H772.5z"/>
			<path class="st25" d="M772.5,1239.2c-8.3,0-16.4-0.5-24.4-1.5l-2.5,18.7c9,1.1,18.1,1.7,27.3,1.7h36.2v-18.9H772.5z"/>
			<path class="st26" d="M772.5,1239.2c-8.3,0-16.4-0.5-24.4-1.5l-2.5,18.7c9,1.1,18.1,1.7,27.3,1.7h36.2v-18.9H772.5z"/>
			<path class="st4" d="M683.8,1217.9l-8.5,17.2c21.3,10.7,44.6,18,69.1,21.2l2.7-18.7C724.6,1234.6,703.3,1227.8,683.8,1217.9z"/>
			<path class="st25" d="M683.8,1217.9l-8.5,17.2c21.3,10.7,44.6,18,69.1,21.2l2.7-18.7C724.6,1234.6,703.3,1227.8,683.8,1217.9z"/>
			<path class="st26" d="M683.8,1217.9l-8.5,17.2c21.3,10.7,44.6,18,69.1,21.2l2.7-18.7C724.6,1234.6,703.3,1227.8,683.8,1217.9z"/>
			<path class="st4" d="M1203.2,1237.8l2.6,18.7c24.7-3,48.2-10.2,69.7-20.9l-8.3-16.9C1247.5,1228.5,1225.9,1235.1,1203.2,1237.8z"
				/>
			<path class="st25" d="M1203.2,1237.8l2.6,18.7c24.7-3,48.2-10.2,69.7-20.9l-8.3-16.9C1247.5,1228.5,1225.9,1235.1,1203.2,1237.8z
				"/>
			<path class="st26" d="M1203.2,1237.8l2.6,18.7c24.7-3,48.2-10.2,69.7-20.9l-8.3-16.9C1247.5,1228.5,1225.9,1235.1,1203.2,1237.8z
				"/>
			<path class="st4" d="M1180,1239.2H1139v18.9h39.9c8.7,0,17.4-0.5,25.8-1.5l-2.5-18.7C1195,1238.7,1187.5,1239.2,1180,1239.2z"/>
			<path class="st25" d="M1180,1239.2H1139v18.9h39.9c8.7,0,17.4-0.5,25.8-1.5l-2.5-18.7C1195,1238.7,1187.5,1239.2,1180,1239.2z"/>
			<path class="st26" d="M1180,1239.2H1139v18.9h39.9c8.7,0,17.4-0.5,25.8-1.5l-2.5-18.7C1195,1238.7,1187.5,1239.2,1180,1239.2z"/>
		</g>
		<g>
			<polyline class="st20" points="923.8,568.8 918.8,568.8 918.8,572.5 923.8,572.5 923.8,586.1 932.8,586.1 932.8,572.5 
				937.8,572.5 937.8,568.8 932.8,568.8 			"/>
			<polyline class="st20" points="845.3,568.8 840.3,568.8 840.3,572.5 845.3,572.5 845.3,586.1 854.3,586.1 854.3,572.5 
				859.3,572.5 859.3,568.8 854.3,568.8 			"/>
			<polyline class="st20" points="840,730.8 840,684 845,684 845,652.1 840,652.1 840,618 831,618 831,652.1 826,652.1 826,684 
				831,684 831,730.8 			"/>
			<polyline class="st20" points="831.3,1093 831.3,1139.8 826.3,1139.8 826.3,1171.7 831.3,1171.7 831.3,1205.6 840.3,1205.6 
				840.3,1171.5 845.3,1171.7 845.3,1139.8 840.3,1139.8 840.3,1093 			"/>
			<polyline class="st20" points="924,1093 924,1139.8 919,1139.8 919,1171.7 924,1171.7 924,1205.6 933,1205.6 933,1171.5 
				938,1171.7 938,1139.8 933,1139.8 933,1093 			"/>
			<polyline class="st20" points="1018,1093 1018,1139.8 1013,1139.8 1013,1171.7 1018,1171.7 1018,1205.6 1027,1205.6 1027,1171.5 
				1032,1171.7 1032,1139.8 1027,1139.8 1027,1093 			"/>
			<polyline class="st20" points="1109.5,1093 1109.5,1139.8 1104.5,1139.8 1104.5,1171.7 1109.5,1171.7 1109.5,1205.6 
				1118.5,1205.6 1118.5,1171.5 1123.5,1171.7 1123.5,1139.8 1118.5,1139.8 1118.5,1093 			"/>
			<polyline class="st20" points="709.6,789.3 673.4,789.3 673.4,784.3 641.5,784.3 641.5,789.3 609.6,789.3 609.6,798.3 
				641.5,798.3 641.5,803.3 673.4,803.3 673.4,798.3 709.6,798.3 			"/>
			<polyline class="st20" points="709.6,860 673.4,860 673.4,855 641.5,855 641.5,860 609.6,860 609.6,869 641.5,869 641.5,874 
				673.4,874 673.4,869 709.6,869 			"/>
			<polyline class="st20" points="709.6,956.3 673.4,956.3 673.4,951.3 641.5,951.3 641.5,956.3 609.6,956.3 609.6,965.3 
				641.5,965.3 641.5,970.3 673.4,970.3 673.4,965.3 709.6,965.3 			"/>
			<polyline class="st20" points="1344.6,848.8 1308.8,848.8 1308.8,853.8 1276.9,853.8 1276.9,848.8 1242.8,848.8 1242.8,839.8 
				1276.9,839.8 1276.9,834.8 1308.8,834.8 1308.8,839.8 1344.6,839.8 			"/>
			<polyline class="st20" points="1344.6,985.8 1308.8,985.8 1308.8,990.8 1276.9,990.8 1276.9,985.8 1242.8,985.8 1242.8,976.8 
				1276.9,976.8 1276.9,971.8 1308.8,971.8 1308.8,976.8 1344.6,976.8 			"/>
			<polyline class="st20" points="709.6,1028.4 673.4,1028.4 673.4,1023.4 641.5,1023.4 641.5,1028.4 609.6,1028.4 609.6,1037.4 
				641.5,1037.4 641.5,1042.4 673.4,1042.4 673.4,1037.4 709.6,1037.4 			"/>
			<polyline class="st20" points="709.6,752.9 685.4,740.8 687.6,736.3 658.9,722 656.5,726.4 627.7,712.1 623.9,720.2 652.8,734.6 
				650.6,739.1 679.1,753.3 681.3,748.8 709.6,762.9 			"/>
			<polyline class="st20" points="931,730.8 931,684 936,684 936,652.1 931,652.1 931,618 922,618 922,652.1 917,652.1 917,684 
				922,684 922,730.8 			"/>
			<polyline class="st20" points="1026.7,730.8 1026.7,684 1031.7,684 1031.7,652.1 1026.7,652.1 1026.7,618 1017.7,618 
				1017.7,652.1 1012.7,652.1 1012.7,684 1017.7,684 1017.7,730.8 			"/>
			<polyline class="st20" points="1119,730.8 1119,684 1124,684 1124,652.1 1119,652.1 1119,618 1110,618 1110,652.1 1105,652.1 
				1105,684 1110,684 1110,730.8 			"/>
			<polyline class="st20" points="1188.9,731.3 1194.9,688.6 1199.9,689.3 1204.3,657.7 1199.4,657 1204.5,620.7 1195.6,619.3 
				1190.4,655.7 1185.5,655 1181,686.6 1186,687.3 1179.8,731.3 			"/>
			<polyline class="st20" points="754.5,619.9 759.5,655.4 764.4,654.8 768.9,686.3 763.9,687 770,731 760.9,731 755,688.3 750,689 
				745.6,657.4 750.5,656.7 745.2,621.6 			"/>
			<polyline class="st20" points="1188.9,1093.5 1194.9,1135.4 1199.9,1134.7 1204.3,1166.3 1199.4,1167 1204.5,1203.3 
				1195.6,1204.7 1190.4,1168.3 1185.5,1169 1181,1137.4 1186,1136.7 1179.8,1093.5 			"/>
			<polyline class="st20" points="754.5,1204.1 759.5,1168.5 764.4,1169.2 768.9,1137.7 763.9,1137 770,1093 760.9,1093 755,1135.7 
				750,1135 745.6,1166.6 750.5,1167.3 745.2,1202.4 			"/>
			<polyline class="st20" points="1242.8,774.8 1275,767 1276.1,771.9 1307.2,764.6 1306.1,759.7 1340.7,752 1338.5,743.3 1304,751 
				1302.9,746.1 1271.8,753.4 1272.9,758.2 1242.8,765.6 			"/>
			<polyline class="st20" points="709.8,1073.2 685.9,1085.3 688.2,1089.8 659.4,1104.1 657,1099.7 628.7,1113.6 624.7,1105.7 
				653.4,1091.5 651.1,1087 679.7,1072.8 681.9,1077.3 709.8,1063.2 			"/>
			<polyline class="st20" points="1242.9,1051.6 1275.6,1059.1 1276.7,1054.2 1307.8,1061.5 1306.6,1066.4 1340.2,1073.9 
				1338,1082.6 1304.6,1075.1 1303.4,1080 1272.4,1072.7 1273.5,1067.9 1242.9,1060.4 			"/>
			<polyline class="st20" points="776.5,568.8 771.5,568.8 771.5,572.5 776.5,572.5 776.5,586.1 785.5,586.1 785.5,572.5 
				790.5,572.5 790.5,568.8 785.5,568.8 			"/>
			<polyline class="st20" points="1027.8,568.8 1032.8,568.8 1032.8,572.5 1027.8,572.5 1027.8,586.1 1018.8,586.1 1018.8,572.5 
				1013.8,572.5 1013.8,568.8 1018.8,568.8 			"/>
			<polyline class="st20" points="1165.5,568.8 1160.5,568.8 1160.5,572.5 1165.5,572.5 1165.5,586.1 1174.5,586.1 1174.5,572.5 
				1179.5,572.5 1179.5,568.8 1174.5,568.8 			"/>
			<polyline class="st20" points="1106.5,568.8 1111.5,568.8 1111.5,572.5 1106.5,572.5 1106.5,586.1 1097.5,586.1 1097.5,572.5 
				1092.5,572.5 1092.5,568.8 1097.5,568.8 			"/>
			<polyline class="st20" points="1104.2,1258.1 1109.2,1258.1 1109.2,1252.7 1104.2,1252.7 1104.2,1239.2 1095.2,1239.2 
				1095.2,1252.7 1090.2,1252.7 1090.2,1258.1 1095.2,1258.1 			"/>
			<polyline class="st20" points="1174.2,1258.1 1179.2,1258.1 1179.2,1252.7 1174.2,1252.7 1174.2,1239.2 1165.2,1239.2 
				1165.2,1252.7 1160.2,1252.7 1160.2,1258.1 1165.2,1258.1 			"/>
			<polyline class="st20" points="933.1,1258.1 938.1,1258.1 938.1,1252.7 933.1,1252.7 933.1,1239.2 924.1,1239.2 924.1,1252.7 
				919.1,1252.7 919.1,1258.1 924.1,1258.1 			"/>
			<polyline class="st20" points="854.3,1258.1 859.3,1258.1 859.3,1252.7 854.3,1252.7 854.3,1239.2 845.3,1239.2 845.3,1252.7 
				840.3,1252.7 840.3,1258.1 845.3,1258.1 			"/>
			<polyline class="st20" points="784.5,1258.1 789.5,1258.1 789.5,1252.7 784.5,1252.7 784.5,1239.2 775.5,1239.2 775.5,1252.7 
				770.5,1252.7 770.5,1258.1 775.5,1258.1 			"/>
			<polyline class="st20" points="1026.2,1258.1 1031.2,1258.1 1031.2,1252.7 1026.2,1252.7 1026.2,1239.2 1017.2,1239.2 
				1017.2,1252.7 1012.2,1252.7 1012.2,1258.1 1017.2,1258.1 			"/>
			<polyline class="st20" points="1396.8,859.6 1396.8,854.6 1390.2,854.6 1390.2,859.6 1376.7,859.6 1376.7,868.6 1390.2,868.6 
				1390.2,873.6 1396.8,873.6 1396.8,868.6 			"/>
			<polyline class="st20" points="1396.8,958.5 1396.8,953.5 1390.2,953.5 1390.2,958.5 1376.7,958.5 1376.7,967.5 1390.2,967.5 
				1390.2,972.5 1396.8,972.5 1396.8,967.5 			"/>
			<polyline class="st20" points="1396.8,1028.6 1396.8,1023.6 1390.2,1023.6 1390.2,1028.6 1376.7,1028.6 1376.7,1037.6 
				1390.2,1037.6 1390.2,1042.6 1396.8,1042.6 1396.8,1037.6 			"/>
			<polyline class="st20" points="1384,1114 1388.8,1099 1381.8,1096.8 1380.3,1101.5 1368.7,1097.8 1365.9,1106.4 1377.6,1110.1 
				1376.1,1114.9 1382.9,1117.1 1384,1114 			"/>
			<polyline class="st20" points="1302.7,607.4 1297.6,604 1294.6,608.3 1298.6,611.3 1291.6,620.9 1298.8,626.3 1305.9,616.6 
				1309.9,619.5 1313,615 1308.1,611.3 			"/>
			<polyline class="st20" points="1384.1,713.2 1382.3,708.5 1376.6,710.3 1378.2,715 1366,719.1 1368.7,727.6 1381,723.6 
				1382.6,728.3 1388.5,726.5 1386.9,721.8 			"/>
			<polyline class="st20" points="1396.8,790.1 1396.8,785.1 1391.2,785.2 1391.2,790.2 1376.7,790.2 1376.6,799.2 1391.2,799.2 
				1391.3,804.2 1396.8,804.1 1396.8,799.1 			"/>
			<polyline class="st20" points="1352.7,655.3 1348,649.3 1342.7,653.1 1345.5,657.2 1336.3,663.7 1341.6,671 1350.7,664.5 
				1353.6,668.6 1359.4,664.6 1355.4,658.9 			"/>
			<polyline class="st20" points="1303,1219.3 1294.9,1224.7 1290.9,1218.8 1294.9,1215.9 1288.1,1206.5 1295.5,1201.4 
				1302.2,1210.6 1306.2,1207.6 1310.7,1213.7 1303,1219.3 			"/>
			<path class="st20" d="M1321.8,1261.5"/>
			<polyline class="st20" points="1351.9,1172.8 1348.3,1177.5 1342.1,1172.9 1345,1168.8 1335.7,1162.3 1341,1155 1350.2,1161.5 
				1353.1,1157.4 1359.5,1162.1 1351.9,1172.8 			"/>
			<polyline class="st20" points="555,869 555,874 561.2,874 561.2,869 575.8,869 575.8,860 561.2,860 561.2,855 555,855 555,860 
							"/>
			<polyline class="st20" points="555,788.6 555,783.6 561.1,783.6 561.1,788.6 575.8,788.6 575.8,797.6 561.1,797.6 561.1,802.6 
				555,802.6 555,797.6 			"/>
			<polyline class="st20" points="555,958.9 555,953.9 561.2,953.9 561.2,958.9 575.8,958.9 575.8,967.9 561.2,967.9 561.2,972.9 
				555,972.9 555,967.9 			"/>
			<polyline class="st20" points="555.1,1029.4 555.7,1024 561.9,1024 561.9,1029 575.8,1029 575.8,1038 561.9,1038 561.9,1043 
				555.7,1043 555.1,1037.5 			"/>
			<polyline class="st20" points="566,1108.5 563.4,1100 571.3,1097.2 572.9,1102 584,1098.4 586.8,1107 575.6,1110.6 577.1,1115.3 
				569.4,1118 566,1108.5 			"/>
			<polyline class="st20" points="647.2,608.8 654,604.1 657.7,608.8 653.7,611.8 660.7,621.3 653.4,626.5 646.4,617.1 642.4,620 
				638.7,615.3 644.9,610.4 			"/>
			<polyline class="st20" points="711.7,577.7 716.5,576.1 717.7,580 713,581.5 717.1,594 708.6,596.8 704.4,584.3 699.6,585.8 
				698.4,581.9 703.2,580.4 			"/>
			<polyline class="st20" points="567.1,715.5 568.7,710.8 573.8,712.4 572.2,717.2 585.8,721.9 583.1,730.4 569.4,725.7 
				567.8,730.4 562.7,728.8 564.6,723.1 			"/>
			<polyline class="st20" points="600.2,654 603.7,649.6 608.5,652.9 605.6,656.9 615.9,664.2 610.6,671.5 600.4,664.3 597.5,668.4 
				592.3,664.8 595.2,660.7 			"/>
			<polyline class="st20" points="658,1225.4 662.3,1219.3 658.2,1216.3 665,1207 657.6,1201.9 651,1211 646.9,1208.1 642.3,1214.6 
				658,1225.4 			"/>
			<polyline class="st20" points="600.5,1173.4 604.3,1178.2 611,1173.4 608.2,1169.3 617.4,1162.7 612.1,1155.5 603,1161.9 
				600.1,1157.8 592.9,1163 599.1,1171.5 604.3,1178.2 			"/>
			<path class="st20" d="M1265.8,541.4"/>
			<polyline class="st20" points="1239.6,577.5 1234.8,576 1233.6,580 1238.4,581.5 1234.3,593.8 1242.9,596.5 1246.9,584.3 
				1251.7,585.8 1252.9,581.7 1248.1,580.2 			"/>
			<polyline class="st20" points="716,1250.8 716,1250.8 717.7,1245.2 713,1243.7 717.1,1231.2 708.6,1228.4 704.4,1240.9 
				699.6,1239.4 697.9,1245 716,1250.8 			"/>
			<path class="st20" d="M670.2,1304.1"/>
			<polyline class="st20" points="1244.3,1248.1 1235.5,1250.7 1233.6,1245.2 1238.4,1243.7 1234.3,1231.5 1242.9,1228.7 
				1246.9,1240.9 1251.7,1239.4 1253.6,1244.9 1245.7,1247.7 			"/>
			<rect x="1242.8" y="932.8" class="st20" width="101.8" height="9"/>
			<rect x="1242.8" y="884" class="st20" width="101.8" height="9"/>
			<polygon class="st20" points="1283.5,658 1240.3,715.2 1233.3,709.6 1276.5,652.4 			"/>
			<polygon class="st20" points="679.3,651.2 722,707.5 714.6,712.7 672.2,656.7 			"/>
			<polygon class="st20" points="1282.1,1167.1 1238.5,1109.5 1231.4,1115 1275,1172.7 			"/>
			<polygon class="st20" points="681.1,1174.1 721.9,1120.2 714.6,1114.9 674,1168.6 			"/>
		</g>
		<path class="st27" d="M594.6,1167.6c-11.8-16.6-21.3-34.9-28.1-54.4"/>
		<path class="st27" d="M646.8,1219.6c-17.7-12.5-33.5-27.6-46.8-44.7"/>
		<path class="st27" d="M703.2,1248.1c-17.9-6-34.7-14.2-50.2-24.3"/>
		<path class="st27" d="M776.6,1259.3h-4.4c-21.4,0-42-3.1-61.5-8.8"/>
		<line class="st27" x1="846.3" y1="1259.3" x2="784.2" y2="1259.3"/>
		<line class="st27" x1="924.7" y1="1259.3" x2="854.2" y2="1259.3"/>
		<line class="st27" x1="1018.2" y1="1259.3" x2="933" y2="1259.3"/>
		<line class="st27" x1="1095.9" y1="1259.3" x2="1025.9" y2="1259.3"/>
		<line class="st27" x1="1166.3" y1="1259.3" x2="1104" y2="1259.3"/>
		<path class="st27" d="M1240.8,1250.8c-19.2,5.5-39.5,8.5-60.5,8.5h-6.2"/>
		<path class="st27" d="M1300.4,1223.2c-15.5,10.3-32.8,18.9-50.8,25"/>
		<path class="st27" d="M1353.4,1173.7c-13,17.1-28.3,31.9-45.7,44.5"/>
		<path class="st27" d="M1386.2,1112.6c-6.8,19.8-16.4,38.2-28.3,54.9"/>
		<path class="st27" d="M1398.1,1037.4v4.1c0,21.5-3.2,43.1-9,62.8"/>
		<line class="st27" x1="1398.1" y1="967.4" x2="1398.1" y2="1028.5"/>
		<line class="st27" x1="1398.1" y1="868" x2="1398.1" y2="958.4"/>
		<line class="st27" x1="1398.1" y1="799.1" x2="1398.1" y2="859.9"/>
		<path class="st27" d="M1388.3,720.5c6.4,20.5,9.8,42,9.8,64.7v4.8"/>
		<path class="st27" d="M1357.3,658.2c11.8,16.5,21.4,34.7,28.3,54.2"/>
		<path class="st27" d="M1309.2,609.6c16.7,12.2,31.1,26.3,43.7,42.7"/>
		<path class="st27" d="M1248.1,578.1c19.9,6.5,38.5,15.8,55.5,27.5"/>
		<path class="st27" d="M1173.4,567.3h6.9c21,0,41.4,3,60.6,8.5"/>
		<line class="st27" x1="1105.4" y1="567.3" x2="1166.4" y2="567.3"/>
		<line class="st27" x1="1026.8" y1="567.3" x2="1098" y2="567.3"/>
		<line class="st27" x1="931.6" y1="567.3" x2="1019.4" y2="567.3"/>
		<line class="st27" x1="853.6" y1="567.3" x2="924.3" y2="567.3"/>
		<line class="st27" x1="784.7" y1="567.3" x2="845.9" y2="567.3"/>
		<path class="st27" d="M710.9,576.1c19.5-5.7,40-8.8,61.3-8.8h4.3"/>
		<path class="st27" d="M648.5,605.8c16.6-11.5,35-20.7,54.5-27.3"/>
		<path class="st27" d="M598.7,653.5c12.4-16.4,27.1-30.9,43.6-43.2"/>
		<path class="st27" d="M565.6,715.9c6.9-20.5,16.7-39.6,28.9-56.9"/>
		<path class="st27" d="M554.4,789v-3.9c0-21.6,3.1-42.4,9-62.1"/>
		<line class="st27" x1="554.4" y1="860.4" x2="554.4" y2="796.9"/>
		<line class="st27" x1="554.4" y1="959.2" x2="554.4" y2="868.5"/>
		<line class="st27" x1="554.4" y1="1029.4" x2="554.4" y2="967.1"/>
		<path class="st27" d="M563.6,1104.3c-6-19.9-9.2-41-9.2-62.8v-4.3"/>
		<path class="st20" d="M585.4,1180.7"/>
		<g>
			<path class="st4" d="M774.1,589.1H1178c51.9,0,100.8,20.3,137.7,57.3c36.9,36.9,57.3,85.8,57.3,137.7v256.8
				c0,51.9-20.3,100.8-57.3,137.7c-36.9,36.9-85.8,57.3-137.7,57.3H774.1c-51.9,0-100.8-20.3-137.7-57.3
				c-36.9-36.9-57.3-85.8-57.3-137.7V784.1c0-51.9,20.3-100.8,57.3-137.7C673.3,609.5,722.2,589.1,774.1,589.1z M1178.1,1230.9
				c104.8,0,190-85.2,190-190V784.1c0-104.8-85.2-190-190-190h-404c-104.8,0-190,85.2-190,190v256.8c0,104.8,85.2,190,190,190
				L1178.1,1230.9L1178.1,1230.9z"/>
		</g>
	</g>
	<path class="st1" d="M741.3,563.9"/>
	<path class="st1" d="M778.9,1283"/>
	<path class="st20" d="M1052.3,372.9l-5-8.3l0,0l0,0l-4.4-7.3c-0.1-0.3-0.3-0.5-0.5-0.8l0,0l0,0c-1.2-1.7-3.2-2.8-5.5-2.8
		c-2.3,0-4.3,1.1-5.5,2.9l0,0l0,0c-0.1,0.2-0.3,0.4-0.4,0.7l-9.4,15.6v15.5v28.1v84.2h30.8v-0.3v-63.9v-48.2l0,0L1052.3,372.9z"/>
	<path class="st20" d="M937.8,372.9l-5-8.3l0,0l0,0l-4.4-7.3c-0.1-0.3-0.3-0.5-0.5-0.8l0,0l0,0c-1.2-1.7-3.2-2.8-5.5-2.8
		s-4.3,1.1-5.5,2.9l0,0l0,0c-0.1,0.2-0.3,0.4-0.4,0.7l-9.4,15.6v12v31.6v85h30.8v-1.2v-63.9v-51.6l0,0L937.8,372.9z"/>
	<g>
		<g>
			<g>
				<polyline class="st28" points="972,329.9 975,332.7 977.9,330 				"/>
			</g>
		</g>
		<g>
			<text transform="matrix(1 0 0 1 934.714 297.8066)" class="st29 st30 st31">Центральный вход</text>
			<line class="st28" x1="975.1" y1="307.7" x2="975.1" y2="332.4"/>
		</g>
	</g>
</g>
</svg>
