<?xml version="1.0" encoding="utf-8"?>
<!-- Generator: Adobe Illustrator 20.1.0, SVG Export Plug-In . SVG Version: 6.00 Build 0)  -->
<svg version="1.1" id="Уровень_6" xmlns="http://www.w3.org/2000/svg" xmlns:xlink="http://www.w3.org/1999/xlink" x="0px"
	 y="0px" viewBox="0 0 1954 1790.7" style="enable-background:new 0 0 1954 1790.7;" xml:space="preserve">
<style type="text/css">
	.st0{fill:#885BA6;}
	.st1{fill:#0093D5;}
	.st2{opacity:0.5;fill:#D9D8D8;enable-background:new    ;}
	.st3{opacity:0.4;fill:#D9D8D8;enable-background:new    ;}
	.st4{fill:#9CC54C;}
	.st5{fill:none;stroke:#FFFFFF;stroke-miterlimit:10;}
	.st6{fill:#FFFFFF;}
	.st7{fill:none;stroke:#010101;stroke-width:2;stroke-miterlimit:10;}
	.st8{fill:#010101;}
	.st9{opacity:0.3;fill:#010101;enable-background:new    ;}
	.st10{fill:#D9D8D8;}
	.st11{fill:none;stroke:#010101;stroke-miterlimit:10;}
	.st12{fill:#D9D9D9;}
	.st13{fill:none;}
	.st14{fill:#D2D5D9;}
	.st15{opacity:0.3;fill:none;stroke:#4D4D4D;stroke-miterlimit:10;enable-background:new    ;}
	.st16{opacity:0.3;fill:#595A5A;enable-background:new    ;}
	.st17{fill:none;stroke:#ADADAD;stroke-width:0.75;stroke-linecap:round;stroke-linejoin:round;stroke-miterlimit:10;}
	.st18{opacity:0.3;fill:#FFFFFF;}
	.st19{fill:none;stroke:#D2D5D9;stroke-width:4;stroke-miterlimit:10;}
	.st20{fill:none;stroke:#7A8991;stroke-linecap:round;stroke-linejoin:round;stroke-miterlimit:10;}
	.st21{fill:#7A8991;}
	.st22{font-family:'OsnovaPro';}
	.st23{font-size:9px;}
</style>
<g id="f-6">
	<rect x="954.8" y="410.9" class="st0" width="43.4" height="17.2"/>
</g>
<g id="b-6">
	<path class="st1" d="M1453.6,798.8h11.8c4.9,0,8.8,4,8.8,8.8v44c0,4.9-4,8.8-8.8,8.8h-11.8V798.8z"/>
	<path class="st1" d="M1439.9,705.7c12.6,39.4,13.9,81.7,13.9,81.7l11.1-0.3c5.2-0.2,9.2-4.8,8.5-10c-1.7-15-6.9-50.7-12.8-68.4
		c-1.5-4.8-6.6-7.4-11.4-6L1439.9,705.7z"/>
	<path class="st1" d="M1440.5,1119.3c12.3-39.5,13.3-81.8,13.3-81.8l11.1,0.2c5.2,0.1,9.2,4.7,8.6,9.9c-1.6,15-6.5,50.8-12.3,68.6
		c-1.5,4.8-6.6,7.5-11.3,6.1L1440.5,1119.3z"/>
	<rect x="1453.6" y="868.6" class="st1" width="20.7" height="89.2"/>
	<path class="st1" d="M1453.6,967.7h11.8c4.9,0,8.8,4,8.8,8.8v41c0,4.9-4,8.8-8.8,8.8h-11.8V967.7z"/>
	<path class="st1" d="M1267.1,1298.8l5.7,11.5c2.1,4.2,7.2,5.8,11.4,3.6l51.9-26.8c4.2-2.1,5.8-7.2,3.6-11.4l-5.9-11.4
		C1333.9,1264.3,1296.8,1288.5,1267.1,1298.8z"/>
	<path class="st1" d="M1269.8,527.1l5.9-11.4c2.1-4.2,7.2-5.8,11.4-3.6l51.9,26.8c4.2,2.1,5.8,7.2,3.6,11.4l-5.9,11.4
		C1336.8,561.6,1299.5,537.3,1269.8,527.1z"/>
	<rect x="1107.8" y="489.4" class="st1" width="59" height="19"/>
	<rect x="1029.1" y="489.4" class="st1" width="67.8" height="19"/>
	<path class="st1" d="M943.8,489.4h63.5c5.5,0,10,4.5,10,10v9h-83.5v-9C933.8,493.9,938.3,489.4,943.8,489.4z"/>
	<rect x="1107.8" y="1315.2" class="st1" width="59" height="19"/>
	<rect x="1034.9" y="1315.2" class="st1" width="57.8" height="19"/>
	<path class="st1" d="M503.2,797.9h-11.8c-4.9,0-8.8,4-8.8,8.8v44c0,4.9,4,8.8,8.8,8.8h11.8V797.9z"/>
	<path class="st1" d="M513.6,709.5c-11.4,39.8-10.5,79.1-10.5,79.1H492c-5.2,0-9.3-4.5-8.8-9.7c1.3-15,4.4-47.9,9.8-65.8
		c1.4-4.8,6.4-7.6,11.2-6.3L513.6,709.5z"/>
	<path class="st1" d="M516.6,1120c-12.2-39.6-13.2-80.8-13.2-80.8l-11.1,0.2c-5.2,0.1-9.2,4.7-8.6,9.9c1.6,15,6.4,49.8,12.2,67.6
		c1.5,4.8,6.6,7.5,11.3,6.1L516.6,1120z"/>
	<rect x="482.5" y="869.5" class="st1" width="20.7" height="88.2"/>
	<path class="st1" d="M503.2,967.9h-11.8c-4.9,0-8.8,4-8.8,8.8v44c0,4.9,4,8.8,8.8,8.8h11.8V967.9z"/>
	<path class="st1" d="M686.4,1298.9l-5.9,11.4c-2.1,4.2-7.2,5.8-11.4,3.6l-46.3-22c-4.2-2.1-5.8-7.2-3.6-11.4l6.7-12.2
		C625.8,1268.4,656.7,1288.6,686.4,1298.9z"/>
	<path class="st1" d="M687.4,528.2l-5.9-11.4c-2.1-4.2-7.2-5.8-11.4-3.6L618.2,540c-4.2,2.1-5.8,7.2-3.6,11.4l5.9,11.4
		C620.4,562.7,657.7,538.4,687.4,528.2z"/>
	<rect x="786.2" y="489.4" class="st1" width="59.1" height="19"/>
	<rect x="855.5" y="489.4" class="st1" width="68.7" height="19"/>
	<rect x="786.3" y="1315.2" class="st1" width="61.7" height="19"/>
	<rect x="856.5" y="1315.2" class="st1" width="68.1" height="19"/>
	<path class="st1" d="M945.5,1334.2h63.5c5.5,0,10-4.5,10-10v-9h-83.5v9C935.5,1329.7,940,1334.2,945.5,1334.2z"/>
</g>
<g id="Plan_3_">
	<polygon class="st2" points="541.6,755.6 548.5,756.6 558.1,757.9 548.7,756.6 	"/>
	<polygon class="st3" points="541.6,755.6 548.5,756.6 558.1,757.9 548.7,756.6 	"/>
	<rect x="728.4" y="745.7" class="st4" width="500" height="332"/>
	<rect x="738.7" y="756.7" class="st5" width="479" height="311.1"/>
	<line class="st5" x1="977.1" y1="1067.2" x2="977.1" y2="757.2"/>
	<rect x="1142.4" y="820.2" class="st5" width="75.4" height="185.2"/>
	<polyline class="st5" points="1218.2,954.7 1192.9,954.7 1192.9,870.7 1218.2,870.7 	"/>
	<circle class="st5" cx="977.7" cy="912.9" r="41.6"/>
	<path class="st5" d="M1142.7,946.7c-10.5-7.5-17.4-19.9-17.4-33.8c0-13.9,6.8-26.2,17.3-33.8"/>
	<rect x="738.7" y="821.2" class="st5" width="75.4" height="185.2"/>
	<polyline class="st5" points="738.7,871.8 763.4,871.8 763.4,955.8 738.7,955.8 	"/>
	<path class="st5" d="M814,880.4c10.5,7.5,16.7,19.4,16.7,33.3c0,13.9-6.2,25.8-16.7,33.3"/>
	<circle class="st6" cx="977" cy="913.3" r="2.1"/>
	<path class="st7" d="M711.1,773.6"/>
	<path class="st8" d="M979.1,733.6"/>
	<g>
		<path class="st7" d="M1225.2,703.1"/>
	</g>
	<polygon class="st8" points="711.3,774.8 711.3,774.8 711.8,774.9 	"/>
	<polygon class="st9" points="711.3,774.8 711.3,774.8 711.8,774.9 	"/>
	<path class="st8" d="M1351,599.8"/>
	<path class="st10" d="M1351.3,599.8L1351.3,599.8L1351.3,599.8z"/>
	<path class="st11" d="M1235.9,715.9"/>
	<path class="st12" d="M1224.2,1120.3L1224.2,1120.3l1.1,1.8L1224.2,1120.3z"/>
	<polygon class="st12" points="1056.5,1203.2 1056.8,1203.2 1056.8,1203.2 	"/>
	<path class="st6" d="M1225,1117.7l-1.7,1.1l0.9,1.5c0.4-0.2,1-0.4,1.8-0.8L1225,1117.7z"/>
	<polygon class="st8" points="977.8,1111.4 977.8,1111.4 977.8,1111.7 977.8,1111.7 	"/>
	<path class="st6" d="M1358,605.8l-0.2-0.2c0.2,0.2,0.4,0.4,0.5,0.6l0.1-0.1L1358,605.8z"/>
	<polygon class="st6" points="541.6,755.6 548.5,756.6 558.1,757.9 548.7,756.6 	"/>
	<g>
		<polygon class="st13" points="807.8,1203.2 807.8,1203.2 807.8,1211.9 		"/>
	</g>
	<path class="st13" d="M655.4,453.4"/>
	<path class="st11" d="M440.7,710.5"/>
	<path class="st11" d="M1513.9,710.5"/>
	<path class="st11" d="M518.1,566.9"/>
	<path class="st11" d="M1408.2,538"/>
	<path class="st5" d="M1207.5,1067.7c0-5.6,4.6-10.2,10.2-10.2"/>
	<path class="st5" d="M1217.7,766.8c-5.6,0-10.2-4.6-10.2-10.2"/>
	<path class="st5" d="M738.6,1057.5c5.6,0,10.2,4.6,10.2,10.2"/>
	<path class="st5" d="M748.9,756.6c0,5.6-4.6,10.2-10.2,10.2"/>
	<rect x="1443.3" y="996.2" class="st6" width="2.9" height="1"/>
	<rect x="1443.3" y="995.2" class="st6" width="2.9" height="1"/>
	<path class="st7" d="M1225.6,1121.9"/>
	<path class="st7" d="M1498.3,1001.9"/>
	<path class="st7" d="M1425.2,1241.1"/>
	<path class="st6" d="M1462.5,1184.1c-0.1,0.3-0.3,0.5-0.4,0.8c0.5,0.2,0.6,0.2,0.7,0.1L1462.5,1184.1L1462.5,1184.1l0.1-0.3"/>
	<line class="st13" x1="1462.6" y1="1183.8" x2="1462.9" y2="1183.1"/>
	<path class="st11" d="M1230.1,1381.8"/>
	<path class="st13" d="M1296.3,1369.2"/>
	<line class="st11" x1="1433.9" y1="1262.4" x2="1433.9" y2="1262.4"/>
	<path class="st11" d="M1413.1,1283.4"/>
	<g>
		<path class="st12" d="M1358.4,1332.7"/>
		<path class="st12" d="M1353.3,1325.8"/>
		<path class="st12" d="M1358.4,1332.7"/>
		<path class="st12" d="M1353.3,1325.8"/>
	</g>
	<circle class="st14" cx="589.4" cy="598.9" r="6.7"/>
	<circle class="st14" cx="1367.6" cy="597.7" r="6.7"/>
	<circle class="st14" cx="1366.3" cy="1228" r="6.7"/>
	<circle class="st14" cx="587.3" cy="1229" r="6.7"/>
	<path class="st10" d="M754,1204"/>
	<path class="st6" d="M445.8,1123c0.1,0.3,0.3,0.5,0.4,0.8c-0.5,0.2-0.6,0.2-0.7,0.1L445.8,1123L445.8,1123l-0.1-0.3"/>
	<path class="st11" d="M723.5,1383.8"/>
	<path class="st13" d="M657.3,1371.2"/>
	<line class="st11" x1="519.7" y1="1264.4" x2="519.7" y2="1264.4"/>
	<path class="st11" d="M540.5,1285.4"/>
	<path class="st7" d="M730,704"/>
	<path class="st13" d="M659.3,456.7"/>
	<line class="st11" x1="521.7" y1="563.5" x2="521.7" y2="563.5"/>
	<path class="st7" d="M1225.6,707"/>
	<path class="st7" d="M1498.3,827.1"/>
	<path class="st6" d="M1462.5,644.9c-0.1-0.3-0.3-0.5-0.4-0.8c0.5-0.2,0.6-0.2,0.7-0.1L1462.5,644.9L1462.5,644.9l0.1,0.3"/>
	<line class="st11" x1="1433.9" y1="566.5" x2="1433.9" y2="566.5"/>
	<path class="st11" d="M1413.1,545.6"/>
	<rect x="1217.7" y="895.5" class="st5" width="8.6" height="35.5"/>
	<rect x="730.1" y="895.5" class="st5" width="8.6" height="35.5"/>
	<polygon class="st12" points="881.7,731.2 881.8,731.2 881.8,731.2 	"/>
	<path class="st12" d="M1244.4,716.7c0.1,0.1,0.1,0.1,0.2,0.2C1244.6,716.8,1244.4,716.5,1244.4,716.7z"/>
	<path class="st12" d="M1235.3,687.2l-10.4,15.8c0,0,0,0,0.1,0l7.9-12.1L1235.3,687.2z"/>
	<path class="st6" d="M1244.6,717.1l-0.2-0.2C1244.5,717,1244.6,717,1244.6,717.1z"/>
	<path class="st6" d="M1244.1,716.5L1244.1,716.5c0.3,0.3,0.5,0.6,0.8,0.8l-0.3-0.3c0,0-0.1-0.1-0.2-0.2L1244.1,716.5z"/>
	<path class="st6" d="M1244.4,716.8l0.2,0.2c0.1,0.1,0.1,0,0-0.1C1244.6,716.9,1244.5,716.8,1244.4,716.8L1244.4,716.8z"/>
	<path class="st6" d="M1244.4,716.8L1244.4,716.8c-0.3-0.4-0.6-0.6-0.9-0.9c-0.2-0.1-0.3-0.3-0.5-0.4c0.3,0.3,0.7,0.6,1,1l0,0
		C1244.1,716.5,1244.4,716.8,1244.4,716.8z"/>
	<path class="st12" d="M1317.7,1129.8L1317.7,1129.8L1317.7,1129.8L1317.7,1129.8z"/>
	<path class="st13" d="M1245.5,1106.3l-1.1,1C1244.8,1107,1245.2,1106.7,1245.5,1106.3L1245.5,1106.3z"/>
	<path class="st13" d="M1245.6,1106.3C1245.6,1106.2,1245.6,1106.2,1245.6,1106.3L1245.6,1106.3L1245.6,1106.3L1245.6,1106.3z"/>
	<path class="st12" d="M1246.3,1105.5c-0.2,0.2-0.3,0.3-0.5,0.5l-0.2,0.2h0.1C1245.8,1106,1246.1,1105.7,1246.3,1105.5z"/>
	<path class="st13" d="M1245.5,1106.3C1245.5,1106.3,1245.6,1106.3,1245.5,1106.3C1245.6,1106.3,1245.5,1106.3,1245.5,1106.3
		L1245.5,1106.3z"/>
	<path class="st13" d="M1245.6,1106.3L1245.6,1106.3L1245.6,1106.3L1245.6,1106.3z"/>
	<path class="st12" d="M1245.6,1106.3L1245.6,1106.3L1245.6,1106.3L1245.6,1106.3C1245.5,1106.3,1245.5,1106.3,1245.6,1106.3
		C1245.5,1106.3,1245.6,1106.3,1245.6,1106.3z"/>
	<path class="st12" d="M1246.5,1106.2"/>
	<path class="st12" d="M1245.5,1106.3"/>
	<path class="st12" d="M1245.6,1106.3"/>
	<path class="st6" d="M1318,1129.3L1318,1129.3c-0.1,0.2-0.2,0.3-0.3,0.5L1318,1129.3z"/>
	<path class="st6" d="M1244.4,1107.3L1244.4,1107.3L1244.4,1107.3L1244.4,1107.3z"/>
	<path class="st6" d="M1245.5,1106.3L1245.5,1106.3L1245.5,1106.3L1245.5,1106.3z"/>
	<rect x="880.7" y="731.2" class="st6" width="1" height="2.4"/>
	<path class="st6" d="M728.6,703.6"/>
	<path class="st12" d="M732.1,701.4l6.9-3.8C737.4,698.4,735,699.7,732.1,701.4z"/>
	<path class="st12" d="M729.8,702.7L729.8,702.7c0.9-0.4,1.6-0.9,2.4-1.3L729.8,702.7z"/>
	<polyline class="st12" points="545,964 542.7,964 542.7,961 557.2,964.1 	"/>
	<path class="st12" d="M1243.5,1100"/>
	<path class="st15" d="M1226.7,704.5"/>
	<path class="st12" d="M716,1111.3"/>
	<path class="st12" d="M1224.6,1119.7"/>
	<g>
		<path class="st14" d="M977.8,1449.9c-176.6,0-324.4-51.2-427.3-147.9c-100.7-94.7-154.2-228.4-154.9-386.8l0,0v-2v-0.5v-2.5l0,0
			c0.7-158.4,54.2-292.1,154.9-386.8c102.9-96.8,250.7-147.9,427.3-147.9c352.5,0,580.8,209.8,582.2,534.7l0,0v2v0.5v2.5l0,0
			C1558.6,1240.1,1330.3,1449.9,977.8,1449.9z M399.6,912.9v0.3c0.5,328.6,222,532.7,578.2,532.7c350.8,0,577.7-209.1,578.2-532.7
			v-0.7v-0.3c-0.5-323.6-227.4-532.7-578.2-532.7c-356.2,0-577.7,204.1-578.2,532.7V912.9z"/>
	</g>
	<polyline class="st16" points="749.4,943 749.4,905.4 739.2,895.2 739.2,931.5 729.5,931.5 740.8,943 749.4,943 	"/>
	<polyline class="st16" points="1237,942.8 1237,905.1 1226.9,894.9 1226.9,931.3 1217.2,931.3 1228.4,942.8 1237,942.8 	"/>
	<g>
		
			<rect x="1031.6" y="399.4" transform="matrix(6.123234e-17 -1 1 6.123234e-17 619.658 1452.325)" class="st14" width="8.9" height="33.9"/>
		<g>
			<g>
				<polyline class="st17" points="1032.1,414.9 1030.8,416.3 1032,417.6 				"/>
			</g>
			<line class="st17" x1="1030.8" y1="416.3" x2="1041.6" y2="416.3"/>
		</g>
	</g>
	<g>
		
			<rect x="919.6" y="399.4" transform="matrix(-1.836970e-16 1 -1 -1.836970e-16 1340.325 -507.658)" class="st14" width="8.9" height="33.9"/>
		<g>
			<g>
				<polyline class="st17" points="927.9,417.8 929.2,416.4 928,415.1 				"/>
			</g>
			<line class="st17" x1="929.2" y1="416.4" x2="918.4" y2="416.4"/>
		</g>
	</g>
	<g>
		<g>
			
				<rect x="498.3" y="597.5" transform="matrix(-0.5762 0.8173 -0.8173 -0.5762 1296.7928 543.4435)" class="st14" width="18.4" height="20.9"/>
			<g>
				<g>
					<polyline class="st17" points="505.1,604.3 503.3,604.6 503.5,606.4 					"/>
				</g>
				<line class="st17" x1="503.3" y1="604.6" x2="512.1" y2="610.9"/>
			</g>
		</g>
		<g>
			
				<rect x="509.3" y="581.7" transform="matrix(0.5762 -0.8173 0.8173 0.5762 -264.2299 674.8089)" class="st14" width="18.4" height="20.9"/>
			<g>
				<g>
					<polyline class="st17" points="520.9,595.9 522.8,595.5 522.5,593.7 					"/>
				</g>
				<line class="st17" x1="522.8" y1="595.5" x2="514" y2="589.2"/>
			</g>
		</g>
	</g>
	<g>
		<g>
			
				<rect x="517.7" y="1214.6" transform="matrix(0.5965 0.8026 -0.8026 0.5965 1195.9548 71.4483)" class="st14" width="18.4" height="20.9"/>
			<g>
				<g>
					<polyline class="st17" points="522.7,1226.2 522.4,1228.1 524.2,1228.4 					"/>
				</g>
				<line class="st17" x1="522.4" y1="1228.1" x2="531.2" y2="1221.7"/>
			</g>
		</g>
		<g>
			
				<rect x="506.2" y="1199.2" transform="matrix(-0.5965 -0.8026 0.8026 -0.5965 -148.144 2344.842)" class="st14" width="18.4" height="20.9"/>
			<g>
				<g>
					<polyline class="st17" points="519.6,1208.6 519.9,1206.7 518.1,1206.4 					"/>
				</g>
				<line class="st17" x1="519.9" y1="1206.7" x2="511.1" y2="1213.1"/>
			</g>
		</g>
	</g>
	<g>
		<g>
			
				<rect x="1439.4" y="1199.6" transform="matrix(0.5922 -0.8058 0.8058 0.5922 -384.35 1660.693)" class="st14" width="18.4" height="20.9"/>
			<g>
				<g>
					<polyline class="st17" points="1450.9,1213.8 1452.7,1213.5 1452.5,1211.7 					"/>
				</g>
				<line class="st17" x1="1452.7" y1="1213.5" x2="1444.1" y2="1207"/>
			</g>
		</g>
		<g>
			
				<rect x="1428" y="1215.2" transform="matrix(-0.5922 0.8058 -0.8058 -0.5922 3275.967 793.3934)" class="st14" width="18.4" height="20.9"/>
			<g>
				<g>
					<polyline class="st17" points="1434.9,1221.9 1433.1,1222.2 1433.3,1224 					"/>
				</g>
				<line class="st17" x1="1433.1" y1="1222.2" x2="1441.7" y2="1228.7"/>
			</g>
		</g>
	</g>
	<g>
		<g>
			
				<rect x="1432" y="588.9" transform="matrix(-0.5853 -0.8108 0.8108 -0.5853 1798.7804 2118.7092)" class="st14" width="18.4" height="20.9"/>
			<g>
				<g>
					<polyline class="st17" points="1445.5,598.3 1445.7,596.4 1444,596.1 					"/>
				</g>
				<line class="st17" x1="1445.7" y1="596.4" x2="1436.9" y2="602.7"/>
			</g>
		</g>
		<g>
			
				<rect x="1443.3" y="604.5" transform="matrix(0.5853 0.8108 -0.8108 0.5853 1100.9537 -922.7124)" class="st14" width="18.4" height="20.9"/>
			<g>
				<g>
					<polyline class="st17" points="1448.3,616 1448,617.9 1449.8,618.2 					"/>
				</g>
				<line class="st17" x1="1448" y1="617.8" x2="1456.8" y2="611.6"/>
			</g>
		</g>
	</g>
	<g>
		
			<rect x="927.3" y="1392.9" transform="matrix(-1.836970e-16 1 -1 -1.836970e-16 2341.5151 478.0654)" class="st14" width="8.9" height="33.9"/>
		<g>
			<g>
				<polyline class="st17" points="935.7,1411.2 937,1409.8 935.7,1408.5 				"/>
			</g>
			<line class="st17" x1="937" y1="1409.9" x2="926.1" y2="1409.9"/>
		</g>
	</g>
	<g>
		
			<rect x="1030.8" y="1392.9" transform="matrix(6.123234e-17 -1 1 6.123234e-17 -374.5363 2445.0442)" class="st14" width="8.9" height="33.9"/>
		<g>
			<g>
				<polyline class="st17" points="1031.3,1408.4 1030,1409.7 1031.3,1411 				"/>
			</g>
			<line class="st17" x1="1030" y1="1409.7" x2="1040.8" y2="1409.7"/>
		</g>
	</g>
	<g>
		<g>
			<rect x="967" y="442.6" class="st14" width="8.9" height="33.9"/>
			<g>
				<g>
					<polyline class="st17" points="972.9,455.6 971.5,454.3 970.2,455.5 					"/>
				</g>
				<line class="st17" x1="971.5" y1="454.3" x2="971.5" y2="465.1"/>
			</g>
		</g>
		<g>
			<rect x="978.5" y="442.6" class="st14" width="8.9" height="33.9"/>
			<g>
				<g>
					<polyline class="st17" points="984.4,455.6 983,454.3 981.7,455.5 					"/>
				</g>
				<line class="st17" x1="983" y1="454.3" x2="983" y2="465.1"/>
			</g>
		</g>
		<g>
			
				<rect x="974.3" y="1335.2" transform="matrix(6.123234e-17 -1 1 6.123234e-17 -373.3687 2330.8767)" class="st14" width="8.9" height="33.9"/>
			<g>
				<g>
					<polyline class="st17" points="974.8,1350.7 973.5,1352.1 974.8,1353.4 					"/>
				</g>
				<line class="st17" x1="973.5" y1="1352.1" x2="984.3" y2="1352.1"/>
			</g>
		</g>
		<g>
			
				<rect x="974.3" y="1345.4" transform="matrix(-1.836970e-16 1 -1 -1.836970e-16 2341.1267 383.6187)" class="st14" width="8.9" height="33.9"/>
			<g>
				<g>
					<polyline class="st17" points="982.7,1363.8 984,1362.4 982.8,1361.1 					"/>
				</g>
				<line class="st17" x1="984" y1="1362.4" x2="973.2" y2="1362.4"/>
			</g>
		</g>
		<g>
			<g>
				<g>
					
						<rect x="724.4" y="465.1" transform="matrix(0.987 -0.1609 0.1609 0.987 -66.966 124.2418)" class="st14" width="18.4" height="20.9"/>
					<g>
						<g>
							<polyline class="st17" points="732.7,479.9 734.2,480.9 735.3,479.5 							"/>
						</g>
						<line class="st17" x1="734.2" y1="480.9" x2="732.6" y2="470.2"/>
					</g>
				</g>
				<g>
					
						<rect x="705.4" y="468.3" transform="matrix(-0.987 0.1609 -0.1609 -0.987 1497.0148 836.2925)" class="st14" width="18.4" height="20.9"/>
					<g>
						<g>
							<polyline class="st17" points="715.6,474.5 714.1,473.4 713,474.8 							"/>
						</g>
						<line class="st17" x1="714.1" y1="473.4" x2="715.7" y2="484.1"/>
					</g>
				</g>
			</g>
			<g>
				<g>
					<g>
						
							<rect x="668.5" y="462.7" transform="matrix(-0.7231 0.6907 -0.6907 -0.7231 1487.4713 350.0219)" class="st14" width="10.2" height="20.9"/>
						<g>
							<g>
								<polyline class="st17" points="671.9,469.1 670,469.1 669.9,470.9 								"/>
							</g>
							<line class="st17" x1="670" y1="469.1" x2="677.4" y2="477"/>
						</g>
					</g>
				</g>
				<g>
					<g>
						
							<rect x="676.1" y="455.4" transform="matrix(-0.7231 0.6907 -0.6907 -0.7231 1495.595 332.2052)" class="st14" width="10.2" height="20.9"/>
						<g>
							<g>
								<polyline class="st17" points="683.2,469.7 685.1,469.7 685.2,467.9 								"/>
							</g>
							<line class="st17" x1="685.1" y1="469.7" x2="677.6" y2="461.8"/>
						</g>
					</g>
				</g>
			</g>
			<g>
				<g>
					
						<rect x="1230" y="468.8" transform="matrix(0.9837 0.1798 -0.1798 0.9837 106.3553 -214.9855)" class="st14" width="18.4" height="20.9"/>
					<g>
						<g>
							<polyline class="st17" points="1238.3,475 1239.9,473.9 1241,475.4 							"/>
						</g>
						<line class="st17" x1="1239.9" y1="473.9" x2="1238.1" y2="484.6"/>
					</g>
				</g>
				<g>
					
						<rect x="1211.1" y="465.3" transform="matrix(-0.9837 -0.1798 0.1798 -0.9837 2335.2021 1163.1282)" class="st14" width="18.4" height="20.9"/>
					<g>
						<g>
							<polyline class="st17" points="1221.2,480 1219.6,481.1 1218.5,479.6 							"/>
						</g>
						<line class="st17" x1="1219.6" y1="481.1" x2="1221.5" y2="470.4"/>
					</g>
				</g>
			</g>
			<g>
				<g>
					
						<rect x="723.3" y="1349.5" transform="matrix(0.987 0.1609 -0.1609 0.987 228.3738 -100.1385)" class="st14" width="18.4" height="20.9"/>
					<g>
						<g>
							<polyline class="st17" points="731.5,1355.8 733.1,1354.7 734.2,1356.1 							"/>
						</g>
						<line class="st17" x1="733.1" y1="1354.7" x2="731.4" y2="1365.4"/>
					</g>
				</g>
				<g>
					
						<rect x="704.3" y="1346.4" transform="matrix(-0.987 -0.1609 0.1609 -0.987 1199.3635 2810.8542)" class="st14" width="18.4" height="20.9"/>
					<g>
						<g>
							<polyline class="st17" points="714.5,1361.1 712.9,1362.2 711.8,1360.8 							"/>
						</g>
						<line class="st17" x1="712.9" y1="1362.2" x2="714.6" y2="1351.5"/>
					</g>
				</g>
			</g>
			<g>
				<g>
					
						<rect x="1230.9" y="1344.3" transform="matrix(0.9856 -0.169 0.169 0.9856 -211.124 229.0667)" class="st14" width="18.4" height="20.9"/>
					<g>
						<g>
							<polyline class="st17" points="1239.1,1359 1240.7,1360.1 1241.8,1358.7 							"/>
						</g>
						<line class="st17" x1="1240.7" y1="1360.1" x2="1238.9" y2="1349.4"/>
					</g>
				</g>
				<g>
					
						<rect x="1211.9" y="1347.6" transform="matrix(-0.9856 0.169 -0.169 -0.9856 2654.1245 2490.2205)" class="st14" width="18.4" height="20.9"/>
					<g>
						<g>
							<polyline class="st17" points="1222,1353.8 1220.5,1352.7 1219.4,1354.2 							"/>
						</g>
						<line class="st17" x1="1220.5" y1="1352.7" x2="1222.2" y2="1363.4"/>
					</g>
				</g>
			</g>
			<g>
				<g>
					
						<rect x="436.6" y="718.8" transform="matrix(0.1369 -0.9906 0.9906 0.1369 -337.7222 1070.9934)" class="st14" width="18.4" height="20.9"/>
					<g>
						<g>
							<polyline class="st17" points="449.5,731.5 451,730.3 450,728.8 							"/>
						</g>
						<line class="st17" x1="451" y1="730.3" x2="440.3" y2="728.8"/>
					</g>
				</g>
				<g>
					
						<rect x="434" y="737.9" transform="matrix(-0.1369 0.9906 -0.9906 -0.1369 1245.2031 411.8755)" class="st14" width="18.4" height="20.9"/>
					<g>
						<g>
							<polyline class="st17" points="439.4,746.2 437.9,747.4 438.9,748.9 							"/>
						</g>
						<line class="st17" x1="437.9" y1="747.4" x2="448.6" y2="748.9"/>
					</g>
				</g>
			</g>
			<g>
				<g>
					
						<rect x="436" y="1073.3" transform="matrix(-0.1587 -0.9873 0.9873 -0.1587 -554.2166 1695.3856)" class="st14" width="18.4" height="20.9"/>
					<g>
						<g>
							<polyline class="st17" points="449.5,1084.8 450.6,1083.2 449.1,1082.1 							"/>
						</g>
						<line class="st17" x1="450.6" y1="1083.2" x2="439.9" y2="1084.9"/>
					</g>
				</g>
				<g>
					
						<rect x="439.1" y="1092.3" transform="matrix(0.1587 0.9873 -0.9873 0.1587 1466.0203 485.162)" class="st14" width="18.4" height="20.9"/>
					<g>
						<g>
							<polyline class="st17" points="444.1,1101.8 443,1103.4 444.4,1104.5 							"/>
						</g>
						<line class="st17" x1="443" y1="1103.4" x2="453.7" y2="1101.8"/>
					</g>
				</g>
			</g>
			<g>
				<g>
					
						<rect x="1498.1" y="1092.6" transform="matrix(-0.1587 0.9873 -0.9873 -0.1587 2835.5891 -209.9936)" class="st14" width="18.4" height="20.9"/>
					<g>
						<g>
							<polyline class="st17" points="1511.5,1102.1 1512.6,1103.7 1511.2,1104.8 							"/>
						</g>
						<line class="st17" x1="1512.6" y1="1103.7" x2="1501.9" y2="1102"/>
					</g>
				</g>
				<g>
					
						<rect x="1501.2" y="1073.6" transform="matrix(0.1587 -0.9873 0.9873 0.1587 200.3222 2403.2815)" class="st14" width="18.4" height="20.9"/>
					<g>
						<g>
							<polyline class="st17" points="1506.1,1085.1 1505,1083.5 1506.5,1082.4 							"/>
						</g>
						<line class="st17" x1="1505" y1="1083.5" x2="1515.7" y2="1085.2"/>
					</g>
				</g>
			</g>
			<g>
				<g>
					
						<rect x="1502.4" y="737.5" transform="matrix(0.1323 0.9912 -0.9912 0.1323 2052.9016 -849.3117)" class="st14" width="18.4" height="20.9"/>
					<g>
						<g>
							<polyline class="st17" points="1515.4,745.8 1516.9,747 1515.8,748.4 							"/>
						</g>
						<line class="st17" x1="1516.9" y1="746.9" x2="1506.1" y2="748.5"/>
					</g>
				</g>
				<g>
					
						<rect x="1499.9" y="718.4" transform="matrix(-0.1323 -0.9912 0.9912 -0.1323 986.3489 2321.1003)" class="st14" width="18.4" height="20.9"/>
					<g>
						<g>
							<polyline class="st17" points="1505.3,731 1503.8,729.8 1504.8,728.4 							"/>
						</g>
						<line class="st17" x1="1503.8" y1="729.8" x2="1514.5" y2="728.3"/>
					</g>
				</g>
			</g>
			<g>
				<g>
					<g>
						
							<rect x="1272.8" y="457.6" transform="matrix(-0.7231 -0.6907 0.6907 -0.7231 1878.6953 1689.2676)" class="st14" width="10.2" height="20.9"/>
						<g>
							<g>
								<polyline class="st17" points="1276.3,472.1 1274.4,472.1 1274.3,470.3 								"/>
							</g>
							<line class="st17" x1="1274.4" y1="472.2" x2="1281.8" y2="464.3"/>
						</g>
					</g>
				</g>
				<g>
					<g>
						
							<rect x="1280.5" y="464.9" transform="matrix(-0.7231 -0.6907 0.6907 -0.7231 1886.819 1707.0844)" class="st14" width="10.2" height="20.9"/>
						<g>
							<g>
								<polyline class="st17" points="1287.5,471.5 1289.4,471.5 1289.5,473.3 								"/>
							</g>
							<line class="st17" x1="1289.4" y1="471.5" x2="1282" y2="479.4"/>
						</g>
					</g>
				</g>
			</g>
		</g>
	</g>
	<g>
		<g>
			<path class="st6" d="M776.6,589.7h403.9c51.9,0,100.8,20.3,137.7,57.3c36.9,36.9,57.3,85.8,57.3,137.7v256.8
				c0,51.9-20.3,100.8-57.3,137.7c-36.9,36.9-85.8,57.3-137.7,57.3H776.6c-51.9,0-100.8-20.3-137.7-57.3
				c-36.9-36.9-57.3-85.8-57.3-137.7V784.7c0-51.9,20.3-100.8,57.3-137.7C675.8,610.1,724.7,589.7,776.6,589.7z M1180.6,1231.5
				c104.8,0,190-85.2,190-190V784.7c0-104.8-85.2-190-190-190h-404c-104.8,0-190,85.2-190,190v256.8c0,104.8,85.2,190,190,190
				L1180.6,1231.5L1180.6,1231.5z"/>
		</g>
		<g>
			<g>
				<g>
					<rect x="813.4" y="517.6" class="st6" width="85" height="69"/>
					<rect x="813.4" y="517.6" class="st18" width="85" height="69"/>
					<rect x="899.4" y="517.6" class="st6" width="78" height="69"/>
					<rect x="899.4" y="517.6" class="st18" width="78" height="69"/>
					<rect x="978.4" y="517.6" class="st6" width="80" height="69"/>
					<rect x="978.4" y="517.6" class="st18" width="80" height="69"/>
					<rect x="1059.3" y="517.6" class="st6" width="78.1" height="69"/>
					<rect x="1059.3" y="517.6" class="st18" width="78.1" height="69"/>
					<rect x="1378.9" y="831.2" class="st6" width="68" height="82"/>
					<rect x="1378.9" y="831.2" class="st18" width="68" height="82"/>
					<polygon class="st6" points="1378.9,996.1 1446.9,996.1 1446.9,914.2 1378.9,914.2 					"/>
					<polygon class="st18" points="1378.9,996.1 1446.9,996.1 1446.9,914.2 1378.9,914.2 					"/>
					<polygon class="st6" points="1067.8,1239.6 1067.8,1308.4 1140.3,1308.4 1140.3,1239.6 					"/>
					<polygon class="st18" points="1067.8,1239.6 1067.8,1308.4 1140.3,1308.4 1140.3,1239.6 					"/>
					<rect x="976.9" y="1239.6" class="st6" width="90" height="68.8"/>
					<rect x="976.9" y="1239.6" class="st18" width="90" height="68.8"/>
					<rect x="897.4" y="1239.6" class="st6" width="79" height="68.8"/>
					<rect x="897.4" y="1239.6" class="st18" width="79" height="68.8"/>
					<rect x="812.4" y="1239.6" class="st6" width="84" height="68.8"/>
					<rect x="812.4" y="1239.6" class="st18" width="84" height="68.8"/>
					<rect x="509.9" y="914.7" class="st6" width="68.2" height="81.5"/>
					<rect x="509.9" y="914.7" class="st18" width="68.2" height="81.5"/>
					<rect x="509.9" y="831.6" class="st6" width="68.2" height="82.1"/>
					<rect x="509.9" y="831.6" class="st18" width="68.2" height="82.1"/>
					<path class="st6" d="M1320.8,644.1l37-37.5c-3.9-3.9-6.5-6-6.5-6l7.3-9.2c-17.8-16.6-37.8-30.8-59.5-42.2l-29,58.3
						C1288.9,616.9,1306,629.3,1320.8,644.1z"/>
					<path class="st18" d="M1320.8,644.1l37-37.5c-3.9-3.9-6.5-6-6.5-6l7.3-9.2c-17.8-16.6-37.8-30.8-59.5-42.2l-29,58.3
						C1288.9,616.9,1306,629.3,1320.8,644.1z"/>
					<path class="st6" d="M1358.4,607.1l-36.9,37.6c14.7,14.8,27.2,32,36.6,50.9l57.5-29.6c-11-21.1-24.6-40.6-40.5-58l-11.2,5.1
						C1362,610.8,1360.1,608.8,1358.4,607.1z"/>
					<path class="st18" d="M1358.4,607.1l-36.9,37.6c14.7,14.8,27.2,32,36.6,50.9l57.5-29.6c-11-21.1-24.6-40.6-40.5-58l-11.2,5.1
						C1362,610.8,1360.1,608.8,1358.4,607.1z"/>
					<path class="st6" d="M1377.5,760.4l66.2-8.8c-4.6-30.1-14.1-58.6-27.6-84.7l-57.6,29.5C1368.3,716.2,1374.9,737.7,1377.5,760.4
						z"/>
					<path class="st18" d="M1377.5,760.4l66.2-8.8c-4.6-30.1-14.1-58.6-27.6-84.7l-57.6,29.5
						C1368.3,716.2,1374.9,737.7,1377.5,760.4z"/>
					<path class="st6" d="M1378.9,783.2v46.9l68,0.2v-36.8c0-14-1-27.7-3-41.1l-66.2,8.9C1378.4,768.6,1378.9,775.9,1378.9,783.2z"
						/>
					<path class="st18" d="M1378.9,783.2v46.9l68,0.2v-36.8c0-14-1-27.7-3-41.1l-66.2,8.9C1378.4,768.6,1378.9,775.9,1378.9,783.2z"
						/>
					<path class="st6" d="M1378.9,1043c0,7.5-0.4,14.9-1.3,22.2l66.1,9.4c2.1-13.7,3.2-27.8,3.2-42.1v-35.2h-68V1043z"/>
					<path class="st18" d="M1378.9,1043c0,7.5-0.4,14.9-1.3,22.2l66.1,9.4c2.1-13.7,3.2-27.8,3.2-42.1v-35.2h-68V1043z"/>
					<path class="st6" d="M1358.3,1130.2l57.4,29.7c13.6-26,23.1-54.5,27.8-84.5l-66-9.3C1374.8,1088.8,1368.2,1110.5,1358.3,1130.2
						z"/>
					<path class="st18" d="M1358.3,1130.2l57.4,29.7c13.6-26,23.1-54.5,27.8-84.5l-66-9.3
						C1374.8,1088.8,1368.2,1110.5,1358.3,1130.2z"/>
					<path class="st6" d="M578,783.2c0-7.3,0.4-14.5,1.2-21.5l-66.4-8.9c-2,13.3-3,27-3,40.9v36.5H578V783.2z"/>
					<path class="st18" d="M578,783.2c0-7.3,0.4-14.5,1.2-21.5l-66.4-8.9c-2,13.3-3,27-3,40.9v36.5H578V783.2z"/>
					<path class="st6" d="M598.1,696.9l-57.8-29.4c-13.4,26-22.8,54.4-27.3,84.3l66.3,8.8C582,738,588.5,716.5,598.1,696.9z"/>
					<path class="st18" d="M598.1,696.9l-57.8-29.4c-13.4,26-22.8,54.4-27.3,84.3l66.3,8.8C582,738,588.5,716.5,598.1,696.9z"/>
					<path class="st6" d="M579.4,1065.5l-66.2,9.6c4.6,29.9,14.1,58.2,27.5,84l57.6-29.7C588.5,1109.7,582,1088.2,579.4,1065.5z"/>
					<path class="st18" d="M579.4,1065.5l-66.2,9.6c4.6,29.9,14.1,58.2,27.5,84l57.6-29.7C588.5,1109.7,582,1088.2,579.4,1065.5z"/>
					<path class="st6" d="M578,1043v-45.8h-68.2v35.2c0,14.2,1.1,28.2,3.1,41.8l66.2-9.6C578.5,1057.4,578,1050.3,578,1043z"/>
					<path class="st18" d="M578,1043v-45.8h-68.2v35.2c0,14.2,1.1,28.2,3.1,41.8l66.2-9.6C578.5,1057.4,578,1050.3,578,1043z"/>
					<path class="st6" d="M1321.4,1181.6l37.3,38.8l0.2,0.1c2.4-2.5,4.8-4.9,5.7-6.1l10,4.4c16-17.5,29.8-37,40.9-58.1l-57.4-29.6
						C1348.4,1149.8,1336.1,1166.8,1321.4,1181.6z"/>
					<path class="st18" d="M1321.4,1181.6l37.3,38.8l0.2,0.1c2.4-2.5,4.8-4.9,5.7-6.1l10,4.4c16-17.5,29.8-37,40.9-58.1l-57.4-29.6
						C1348.4,1149.8,1336.1,1166.8,1321.4,1181.6z"/>
					<path class="st6" d="M1358.1,1221.2l-37.4-39c-14.7,14.7-31.8,27-50.5,36.5l28.7,58.3c21.3-11.2,41-25.1,58.5-41.2l-6-8
						C1351.5,1227.8,1354.8,1224.5,1358.1,1221.2z"/>
					<path class="st18" d="M1358.1,1221.2l-37.4-39c-14.7,14.7-31.8,27-50.5,36.5l28.7,58.3c21.3-11.2,41-25.1,58.5-41.2l-6-8
						C1351.5,1227.8,1354.8,1224.5,1358.1,1221.2z"/>
					<path class="st6" d="M635.1,1181.2l-37.5,39.1l-0.3,0.5c2.6,2.6,5.2,5.2,6.2,5.9l-5.7,7.6c17.5,16.3,37.2,30.4,58.5,41.8
						l28.7-58.3C666.4,1208.2,649.6,1195.8,635.1,1181.2z"/>
					<path class="st18" d="M635.1,1181.2l-37.5,39.1l-0.3,0.5c2.6,2.6,5.2,5.2,6.2,5.9l-5.7,7.6c17.5,16.3,37.2,30.4,58.5,41.8
						l28.7-58.3C666.4,1208.2,649.6,1195.8,635.1,1181.2z"/>
					<path class="st6" d="M596.5,1220l0.1,0l37.8-39.5c-14.4-14.7-26.5-31.6-35.8-50.1l-57.6,29.7c11,21.1,24.7,40.7,40.6,58.2
						l9.1-4C590.8,1214.1,593.5,1216.9,596.5,1220z"/>
					<path class="st18" d="M596.5,1220l0.1,0l37.8-39.5c-14.4-14.7-26.5-31.6-35.8-50.1l-57.6,29.7c11,21.1,24.7,40.7,40.6,58.2
						l9.1-4C590.8,1214.1,593.5,1216.9,596.5,1220z"/>
					<path class="st6" d="M634.5,645.7l-38-38.5c-2.9,3-5.6,5.9-5.6,5.9l-9.9-4.4c-15.7,17.4-29.3,36.9-40.2,58l57.7,29.6
						C607.8,677.5,620,660.5,634.5,645.7z"/>
					<path class="st18" d="M634.5,645.7l-38-38.5c-2.9,3-5.6,5.9-5.6,5.9l-9.9-4.4c-15.7,17.4-29.3,36.9-40.2,58l57.7,29.6
						C607.8,677.5,620,660.5,634.5,645.7z"/>
					<path class="st6" d="M597.2,606.4l37.9,38.6c14.5-14.6,31.3-27,49.7-36.6L656.1,550c-21.3,11.4-41,25.5-58.5,41.9l6.2,8.2
						C603,600.6,600.1,603.5,597.2,606.4z"/>
					<path class="st18" d="M597.2,606.4l37.9,38.6c14.5-14.6,31.3-27,49.7-36.6L656.1,550c-21.3,11.4-41,25.5-58.5,41.9l6.2,8.2
						C603,600.6,600.1,603.5,597.2,606.4z"/>
					<path class="st6" d="M881.8,618.5h-86v113.1c22.9,0,52.8,0.1,86,0.1V618.5z"/>
					<path class="st18" d="M881.8,618.5h-86v113.1c22.9,0,52.8,0.1,86,0.1V618.5z"/>
					<path class="st6" d="M882.9,731.6c29.4,0,61.4,0.1,93.4,0.1V618.5h-93.4V731.6z"/>
					<path class="st18" d="M882.9,731.6c29.4,0,61.4,0.1,93.4,0.1V618.5h-93.4V731.6z"/>
					<path class="st6" d="M1073.9,618.5h-96.6v113.2c33.1,0,66.2,0,96.6,0V618.5z"/>
					<path class="st18" d="M1073.9,618.5h-96.6v113.2c33.1,0,66.2,0,96.6,0V618.5z"/>
					<path class="st6" d="M1161.5,731.7V618.5h-86.6v113.3C1108.4,731.8,1138.5,731.7,1161.5,731.7z"/>
					<path class="st18" d="M1161.5,731.7V618.5h-86.6v113.3C1108.4,731.8,1138.5,731.7,1161.5,731.7z"/>
					<path class="st6" d="M1263.7,642.7c-25.6-15.4-55.5-24.3-87.4-24.3h-14v113.2c26.1,0,42.7-0.1,44.1-0.2L1263.7,642.7z"/>
					<path class="st18" d="M1263.7,642.7c-25.6-15.4-55.5-24.3-87.4-24.3h-14v113.2c26.1,0,42.7-0.1,44.1-0.2L1263.7,642.7z"/>
					<path class="st6" d="M1259.9,734.3l59.3-38c-14-21.5-32.8-39.7-54.7-53l-38.7,60.6C1225.8,703.8,1244.2,713.2,1259.9,734.3z"/>
					<path class="st18" d="M1259.9,734.3l59.3-38c-14-21.5-32.8-39.7-54.7-53l-38.7,60.6C1225.8,703.8,1244.2,713.2,1259.9,734.3z"
						/>
					<path class="st6" d="M1245,718.7l0,68.9h101.8c-0.3-33.3-10.2-64.4-27.1-90.6l-59.8,38.7C1259.9,735.7,1250.6,723.7,1245,718.7
						z"/>
					<path class="st18" d="M1245,718.7l0,68.9h101.8c-0.3-33.3-10.2-64.4-27.1-90.6l-59.8,38.7
						C1259.9,735.7,1250.6,723.7,1245,718.7z"/>
					<path class="st6" d="M1225.9,1120.3c-0.3,0.2-0.5,0.4-0.7,0.5l39.4,60.9c22.1-13.5,40.9-31.8,55-53.5l-59.6-38.2
						C1246,1108.5,1229.6,1118.2,1225.9,1120.3z"/>
					<path class="st18" d="M1225.9,1120.3c-0.3,0.2-0.5,0.4-0.7,0.5l39.4,60.9c22.1-13.5,40.9-31.8,55-53.5l-59.6-38.2
						C1246,1108.5,1229.6,1118.2,1225.9,1120.3z"/>
					<path class="st6" d="M1245.2,1105.2c5.7-5.1,14.7-16.6,14.7-16.6l60.1,38.9c16.8-26.3,26.7-57.4,26.8-90.8h-101.7
						L1245.2,1105.2z"/>
					<path class="st18" d="M1245.2,1105.2c5.7-5.1,14.7-16.6,14.7-16.6l60.1,38.9c16.8-26.3,26.7-57.4,26.8-90.8h-101.7
						L1245.2,1105.2z"/>
					<path class="st6" d="M1245,788.5l0.1,123.5h101.8V789c0-0.2,0-0.4,0-0.5H1245z"/>
					<path class="st18" d="M1245,788.5l0.1,123.5h101.8V789c0-0.2,0-0.4,0-0.5H1245z"/>
					<polygon class="st6" points="1245.1,1035.6 1346.9,1035.6 1346.9,912.9 1245.1,912.9 					"/>
					<polygon class="st18" points="1245.1,1035.6 1346.9,1035.6 1346.9,912.9 1245.1,912.9 					"/>
					<path class="st6" d="M1224.7,1121l-1.8-2.7c-4.4-6.9-15.7-24.4-15.7-24.4l-59.2-0.1v112.6h28.4c32,0,61.9-8.9,87.6-24.4
						L1224.7,1121L1224.7,1121z"/>
					<path class="st18" d="M1224.7,1121l-1.8-2.7c-4.4-6.9-15.7-24.4-15.7-24.4l-59.2-0.1v112.6h28.4c32,0,61.9-8.9,87.6-24.4
						L1224.7,1121L1224.7,1121z"/>
					<path class="st6" d="M704,1103.6l-49.9,44.4c8.1,9.2,17.2,17.6,27.1,25c9.8,7.3,20.5,13.5,31.8,18.6l26.7-62
						C739.7,1129.6,722.6,1122.8,704,1103.6z"/>
					<path class="st18" d="M704,1103.6l-49.9,44.4c8.1,9.2,17.2,17.6,27.1,25c9.8,7.3,20.5,13.5,31.8,18.6l26.7-62
						C739.7,1129.6,722.6,1122.8,704,1103.6z"/>
					<path class="st6" d="M729.9,1123.6l11,5.4l-26.4,63.2c20.8,9.1,43.8,14.2,67.8,14.2h24.9v-112.9l-57.6-0.1L729.9,1123.6z"/>
					<path class="st18" d="M729.9,1123.6l11,5.4l-26.4,63.2c20.8,9.1,43.8,14.2,67.8,14.2h24.9v-112.9l-57.6-0.1L729.9,1123.6z"/>
					<polygon class="st6" points="1057,1206.1 1147,1206.1 1147,1093.9 1057,1093.8 					"/>
					<polygon class="st18" points="1057,1206.1 1147,1206.1 1147,1093.9 1057,1093.8 					"/>
					<polygon class="st6" points="808.9,1206.1 896.4,1206.1 896.4,1093.6 808.9,1093.5 					"/>
					<polygon class="st18" points="808.9,1206.1 896.4,1206.1 896.4,1093.6 808.9,1093.5 					"/>
					<polygon class="st6" points="992.5,1117.2 977.2,1117.3 977.2,1206.1 1056,1206.1 1056,1093.8 992.5,1093.7 					"/>
					<polygon class="st18" points="992.5,1117.2 977.2,1117.3 977.2,1206.1 1056,1206.1 1056,1093.8 992.5,1093.7 					"/>
					<polygon class="st6" points="960.8,1093.7 897.4,1093.6 897.4,1206.1 976.2,1206.1 976.2,1117.3 960.8,1117.2 					"/>
					<polygon class="st18" points="960.8,1093.7 897.4,1093.6 897.4,1206.1 976.2,1206.1 976.2,1117.3 960.8,1117.2 					"/>
					<path class="st6" d="M712.1,1110.5l0-58.4l-96.6,19.1c6.1,28.6,19.4,54.6,37.9,76l50.9-44.9
						C705.8,1104.4,710.8,1109.2,712.1,1110.5z"/>
					<path class="st18" d="M712.1,1110.5l0-58.4l-96.6,19.1c6.1,28.6,19.4,54.6,37.9,76l50.9-44.9
						C705.8,1104.4,710.8,1109.2,712.1,1110.5z"/>
					<path class="st6" d="M732.9,704.3l2.9,4.7l14.1,22.5c0,0,17.2,0,44.9,0.1V618.5h-12.5c-23.7,0-46.4,4.9-67,13.8l28.6,66.4
						C739.3,700.3,732.9,704.3,732.9,704.3z"/>
					<path class="st18" d="M732.9,704.3l2.9,4.7l14.1,22.5c0,0,17.2,0,44.9,0.1V618.5h-12.5c-23.7,0-46.4,4.9-67,13.8l28.6,66.4
						C739.3,700.3,732.9,704.3,732.9,704.3z"/>
					<path class="st6" d="M711.8,718.2c-2.1,1.9-4.9,4.4-6.3,5.8l-52.2-46.1c-19.2,22.2-32.8,49.4-38.5,79.3l97,18.9L711.8,718.2z"
						/>
					<path class="st18" d="M711.8,718.2c-2.1,1.9-4.9,4.4-6.3,5.8l-52.2-46.1c-19.2,22.2-32.8,49.4-38.5,79.3l97,18.9L711.8,718.2z"
						/>
					<path class="st6" d="M712,995.5H611.8v40.5c0,11.7,1.2,23.2,3.5,34.2l96.8-18.9L712,995.5z"/>
					<path class="st18" d="M712,995.5H611.8v40.5c0,11.7,1.2,23.2,3.5,34.2l96.8-18.9L712,995.5z"/>
					<path class="st6" d="M711.8,777.1l-97.2-19c-1.8,10-2.8,20.3-2.8,30.8v44h100.1L711.8,777.1z"/>
					<path class="st18" d="M711.8,777.1l-97.2-19c-1.8,10-2.8,20.3-2.8,30.8v44h100.1L711.8,777.1z"/>
					<polygon class="st6" points="711.9,914.7 611.8,914.7 611.8,994.5 712,994.5 					"/>
					<polygon class="st18" points="711.9,914.7 611.8,914.7 611.8,994.5 712,994.5 					"/>
					<polygon class="st6" points="711.9,833.9 611.8,833.9 611.8,913.7 711.9,913.7 					"/>
					<polygon class="st18" points="711.9,833.9 611.8,833.9 611.8,913.7 711.9,913.7 					"/>
					<path class="st6" d="M1182.2,586.6c7.8,0,15.7,0.5,23.3,1.4l10-66.7c-14.5-2.4-29.5-3.6-44.7-3.6h-32.5v69H1182.2z"/>
					<path class="st18" d="M1182.2,586.6c7.8,0,15.7,0.5,23.3,1.4l10-66.7c-14.5-2.4-29.5-3.6-44.7-3.6h-32.5v69H1182.2z"/>
					<path class="st6" d="M1269.2,607l29.1-58.3c-25.2-13.2-52.8-22.5-81.8-27.3l-10.2,66.7C1228.5,590.8,1249.8,597.3,1269.2,607z"
						/>
					<path class="st18" d="M1269.2,607l29.1-58.3c-25.2-13.2-52.8-22.5-81.8-27.3l-10.2,66.7C1228.5,590.8,1249.8,597.3,1269.2,607z
						"/>
					<path class="st6" d="M774.7,586.6h37.6v-69h-26.5c-15.4,0-30.5,1.3-45.2,3.7l10,66.7C758.5,587.1,766.6,586.6,774.7,586.6z"/>
					<path class="st18" d="M774.7,586.6h37.6v-69h-26.5c-15.4,0-30.5,1.3-45.2,3.7l10,66.7C758.5,587.1,766.6,586.6,774.7,586.6z"/>
					<path class="st6" d="M749.7,588.2l-9.9-66.7c-29.5,4.9-57.4,14.6-82.9,28.1l28.8,58.5C705.4,597.9,727,591.1,749.7,588.2z"/>
					<path class="st18" d="M749.7,588.2l-9.9-66.7c-29.5,4.9-57.4,14.6-82.9,28.1l28.8,58.5C705.4,597.9,727,591.1,749.7,588.2z"/>
					<path class="st6" d="M774.7,1239.6c-8.3,0-16.4-0.5-24.4-1.5l-9,66.7c14.5,2.4,29.4,3.6,44.5,3.6h25.5v-68.8H774.7z"/>
					<path class="st18" d="M774.7,1239.6c-8.3,0-16.4-0.5-24.4-1.5l-9,66.7c14.5,2.4,29.4,3.6,44.5,3.6h25.5v-68.8H774.7z"/>
					<path class="st6" d="M686,1218.4l-28.7,58.3c25.5,13.4,53.3,23,82.6,27.9l9.4-66.6C726.9,1235.1,705.5,1228.3,686,1218.4z"/>
					<path class="st18" d="M686,1218.4l-28.7,58.3c25.5,13.4,53.3,23,82.6,27.9l9.4-66.6C726.9,1235.1,705.5,1228.3,686,1218.4z"/>
					<path class="st6" d="M1205.4,1238.2l9.3,66.7c29.6-4.7,57.6-14.2,83.3-27.5l-28.7-58.3
						C1249.7,1228.9,1228.1,1235.5,1205.4,1238.2z"/>
					<path class="st18" d="M1205.4,1238.2l9.3,66.7c29.6-4.7,57.6-14.2,83.3-27.5l-28.7-58.3
						C1249.7,1228.9,1228.1,1235.5,1205.4,1238.2z"/>
					<path class="st6" d="M1182.2,1239.6h-40.9v68.8h29.6c14.5,0,28.7-1.1,42.6-3.3l-9-66.8
						C1197.2,1239.2,1189.7,1239.6,1182.2,1239.6z"/>
					<path class="st18" d="M1182.2,1239.6h-40.9v68.8h29.6c14.5,0,28.7-1.1,42.6-3.3l-9-66.8
						C1197.2,1239.2,1189.7,1239.6,1182.2,1239.6z"/>
					<path class="st6" d="M742.5,698l-28.2-65.3c-23.3,10.2-43.9,25.4-60.4,44.3l51.5,45.5C726.9,703.4,742.5,698,742.5,698z"/>
					<path class="st18" d="M742.5,698l-28.2-65.3c-23.3,10.2-43.9,25.4-60.4,44.3l51.5,45.5C726.9,703.4,742.5,698,742.5,698z"/>
				</g>
				<g>
					<polyline class="st14" points="921.1,517.6 921.1,525.2 926.1,525.2 926.1,546.8 921.1,546.8 921.1,573 926.1,573 926.1,586.6 
						935.1,586.6 935.1,573 940.1,573 940.1,546.8 935.1,546.8 935.1,525.2 940.1,525.2 940.1,517.6 					"/>
					<polyline class="st14" points="842.5,517.6 842.5,525.2 847.5,525.2 847.5,546.8 842.5,546.8 842.5,573 847.5,573 847.5,586.6 
						856.5,586.6 856.5,573 861.5,573 861.5,546.8 856.5,546.8 856.5,525.2 861.5,525.2 861.5,517.6 					"/>
					<polyline class="st14" points="842.3,731.3 842.3,684.5 847.3,684.5 847.3,652.6 842.3,652.6 842.3,618.5 833.3,618.5 
						833.3,652.6 828.3,652.6 828.3,684.5 833.3,684.5 833.3,731.3 					"/>
					<polyline class="st14" points="833.6,1093.5 833.6,1140.3 828.6,1140.3 828.6,1172.2 833.6,1172.2 833.6,1206.1 842.6,1206.1 
						842.6,1171.9 847.6,1172.2 847.6,1140.3 842.6,1140.3 842.6,1093.5 					"/>
					<polyline class="st14" points="926.3,1093.5 926.3,1140.3 921.3,1140.3 921.3,1172.2 926.3,1172.2 926.3,1206.1 935.3,1206.1 
						935.3,1171.9 940.3,1172.2 940.3,1140.3 935.3,1140.3 935.3,1093.5 					"/>
					<polyline class="st14" points="1020.3,1093.5 1020.3,1140.3 1015.3,1140.3 1015.3,1172.2 1020.3,1172.2 1020.3,1206.1 
						1029.3,1206.1 1029.3,1171.9 1034.3,1172.2 1034.3,1140.3 1029.3,1140.3 1029.3,1093.5 					"/>
					<polyline class="st14" points="1111.8,1093.5 1111.8,1140.3 1106.8,1140.3 1106.8,1172.2 1111.8,1172.2 1111.8,1206.1 
						1120.8,1206.1 1120.8,1171.9 1125.8,1172.2 1125.8,1140.3 1120.8,1140.3 1120.8,1093.5 					"/>
					<polyline class="st14" points="711.9,789.8 675.6,789.8 675.6,784.8 643.7,784.8 643.7,789.8 611.8,789.8 611.8,798.8 
						643.7,798.8 643.7,803.8 675.6,803.8 675.6,798.8 711.9,798.8 					"/>
					<polyline class="st14" points="711.9,860.5 675.6,860.5 675.6,855.5 643.7,855.5 643.7,860.5 611.8,860.5 611.8,869.5 
						643.7,869.5 643.7,874.5 675.6,874.5 675.6,869.5 711.9,869.5 					"/>
					<polyline class="st14" points="711.9,956.8 675.6,956.8 675.6,951.8 643.7,951.8 643.7,956.8 611.8,956.8 611.8,965.8 
						643.7,965.8 643.7,970.8 675.6,970.8 675.6,965.8 711.9,965.8 					"/>
					<polyline class="st14" points="1346.9,849.3 1311,849.3 1311,854.3 1279.1,854.3 1279.1,849.3 1245,849.3 1245,840.3 
						1279.1,840.3 1279.1,835.3 1311,835.3 1311,840.3 1346.9,840.3 					"/>
					<polyline class="st14" points="1346.9,986.3 1311,986.3 1311,991.3 1279.1,991.3 1279.1,986.3 1245,986.3 1245,977.3 
						1279.1,977.3 1279.1,972.3 1311,972.3 1311,977.3 1346.9,977.3 					"/>
					<polyline class="st14" points="711.9,1028.9 675.6,1028.9 675.6,1023.9 643.7,1023.9 643.7,1028.9 611.8,1028.9 611.8,1037.9 
						643.7,1037.9 643.7,1042.9 675.6,1042.9 675.6,1037.9 711.9,1037.9 					"/>
					<polyline class="st14" points="711.8,753.3 687.6,741.3 689.8,736.8 661.1,722.5 658.7,726.9 630,712.6 626.1,720.7 655,735.1 
						652.8,739.6 681.3,753.8 683.6,749.3 711.8,763.4 					"/>
					<polyline class="st14" points="933.3,731.3 933.3,684.5 938.3,684.5 938.3,652.6 933.3,652.6 933.3,618.5 924.3,618.5 
						924.3,652.6 919.3,652.6 919.3,684.5 924.3,684.5 924.3,731.3 					"/>
					<polyline class="st14" points="1029,731.3 1029,684.5 1034,684.5 1034,652.6 1029,652.6 1029,618.5 1020,618.5 1020,652.6 
						1015,652.6 1015,684.5 1020,684.5 1020,731.3 					"/>
					<polyline class="st14" points="1121.3,731.3 1121.3,684.5 1126.3,684.5 1126.3,652.6 1121.3,652.6 1121.3,618.5 1112.3,618.5 
						1112.3,652.6 1107.3,652.6 1107.3,684.5 1112.3,684.5 1112.3,731.3 					"/>
					<polyline class="st14" points="1191.1,731.7 1197.1,689 1202.1,689.7 1206.5,658.1 1201.6,657.5 1206.7,621.2 1197.8,619.8 
						1192.7,656.2 1187.7,655.5 1183.3,687.1 1188.2,687.8 1182,731.7 					"/>
					<polyline class="st14" points="756.7,620.4 761.7,655.9 766.6,655.2 771.1,686.8 766.1,687.5 772.3,731.5 763.2,731.5 
						757.2,688.8 752.3,689.5 747.8,657.9 752.8,657.2 747.4,622.1 					"/>
					<polyline class="st14" points="1191.1,1094 1197.1,1135.9 1202.1,1135.2 1206.5,1166.8 1201.6,1167.5 1206.7,1203.7 
						1197.8,1205.1 1192.7,1168.8 1187.7,1169.5 1183.3,1137.9 1188.2,1137.2 1182,1094 					"/>
					<polyline class="st14" points="756.7,1204.6 761.7,1169 766.6,1169.7 771.1,1138.1 766.1,1137.4 772.3,1093.5 763.2,1093.5 
						757.2,1136.2 752.3,1135.5 747.8,1167.1 752.8,1167.8 747.4,1202.9 					"/>
					<polyline class="st14" points="1245,775.3 1277.2,767.5 1278.4,772.4 1309.4,765.1 1308.3,760.2 1342.9,752.5 1340.7,743.8 
						1306.2,751.5 1305.1,746.6 1274,753.9 1275.2,758.7 1245,766 					"/>
					<polyline class="st14" points="712,1073.7 688.1,1085.8 690.4,1090.3 661.7,1104.6 659.3,1100.1 630.9,1114.1 627,1106.2 
						655.6,1092 653.3,1087.5 681.9,1073.3 684.1,1077.7 712,1063.7 					"/>
					<polyline class="st14" points="1245.1,1052.1 1277.8,1059.6 1278.9,1054.7 1310,1062 1308.9,1066.8 1342.5,1074.3 
						1340.2,1083.1 1306.8,1075.6 1305.7,1080.5 1274.6,1073.2 1275.7,1068.3 1245.1,1060.9 					"/>
					<polyline class="st14" points="773.8,517.9 773.8,525.2 778.8,525.2 778.8,546.8 773.8,546.8 773.8,573 778.8,573 778.8,586.6 
						787.8,586.6 787.8,573 792.8,573 792.8,546.8 787.8,546.8 787.8,525.2 792.8,525.2 792.8,517.6 779.8,517.7 					"/>
					<polygon class="st14" points="1035.1,525.2 1030.1,525.2 1030.1,546.8 1035.1,546.8 1035.1,573 1030.1,573 1030.1,586.6 
						1021.1,586.6 1021.1,573 1016.1,573 1016.1,546.8 1021.1,546.8 1021.1,525.2 1016.1,525.2 1016.1,517.6 1035.1,517.6 					"/>
					<polyline class="st14" points="1162.8,517.6 1162.8,525.2 1167.8,525.2 1167.8,546.8 1162.8,546.8 1162.8,573 1167.8,573 
						1167.8,586.6 1176.8,586.6 1176.8,573 1181.8,573 1181.8,546.8 1176.8,546.8 1176.8,525.2 1181.8,525.2 1181.8,517.8 					"/>
					<polygon class="st14" points="1113.8,525.2 1108.8,525.2 1108.8,546.8 1113.8,546.8 1113.8,573 1108.8,573 1108.8,586.6 
						1099.8,586.6 1099.8,573 1094.8,573 1094.8,546.8 1099.8,546.8 1099.8,525.2 1094.8,525.2 1094.8,517.6 1113.8,517.6 					"/>
					<polyline class="st14" points="1111.5,1308.4 1111.5,1301 1106.5,1301 1106.5,1279.4 1111.5,1279.4 1111.5,1253.2 
						1106.5,1253.2 1106.5,1239.6 1097.5,1239.6 1097.5,1253.2 1092.5,1253.2 1092.5,1279.4 1097.5,1279.4 1097.5,1301 1092.5,1301 
						1092.5,1308.4 					"/>
					<polyline class="st14" points="1181.5,1308.2 1181.5,1301 1176.5,1301 1176.5,1279.4 1181.5,1279.4 1181.5,1253.2 
						1176.5,1253.2 1176.5,1239.6 1167.5,1239.6 1167.5,1253.2 1162.5,1253.2 1162.5,1279.4 1167.5,1279.4 1167.5,1301 1162.5,1301 
						1162.5,1308.4 					"/>
					<polyline class="st14" points="940.4,1308.4 940.4,1301 935.4,1301 935.4,1279.4 940.4,1279.4 940.4,1253.2 935.4,1253.2 
						935.4,1239.6 926.4,1239.6 926.4,1253.2 921.4,1253.2 921.4,1279.4 926.4,1279.4 926.4,1301 921.4,1301 921.4,1308.4 					"/>
					<polyline class="st14" points="861.6,1308.4 861.6,1301 856.6,1301 856.6,1279.4 861.6,1279.4 861.6,1253.2 856.6,1253.2 
						856.6,1239.6 847.6,1239.6 847.6,1253.2 842.6,1253.2 842.6,1279.4 847.6,1279.4 847.6,1301 842.6,1301 842.6,1308.4 					"/>
					<polyline class="st14" points="791.8,1308.4 791.8,1301 786.8,1301 786.8,1279.4 791.8,1279.4 791.8,1253.2 786.8,1253.2 
						786.8,1239.6 777.8,1239.6 777.8,1253.2 772.8,1253.2 772.8,1279.4 777.8,1279.4 777.8,1301 772.8,1301 772.8,1308.1 					"/>
					<polyline class="st14" points="1033.5,1308.4 1033.5,1301 1028.5,1301 1028.5,1279.4 1033.5,1279.4 1033.5,1253.2 
						1028.5,1253.2 1028.5,1239.6 1019.5,1239.6 1019.5,1253.2 1014.5,1253.2 1014.5,1279.4 1019.5,1279.4 1019.5,1301 1014.5,1301 
						1014.5,1308.4 					"/>
					<polyline class="st14" points="1446.9,855.1 1440.2,855.1 1440.2,860.1 1418.6,860.1 1418.6,855.1 1392.4,855.1 1392.4,860.1 
						1378.9,860.1 1378.9,869.1 1392.4,869.1 1392.4,874.1 1418.6,874.1 1418.6,869.1 1440.2,869.1 1440.2,874.1 1446.9,874.1 					
						"/>
					<polyline class="st14" points="1446.9,954 1440.2,954 1440.2,959 1418.6,959 1418.6,954 1392.4,954 1392.4,959 1378.9,959 
						1378.9,968 1392.4,968 1392.4,973 1418.6,973 1418.6,968 1440.2,968 1440.2,973 1446.8,973 					"/>
					<polyline class="st14" points="1446.9,1024.1 1440.2,1024.1 1440.2,1029.1 1418.6,1029.1 1418.6,1024.1 1392.4,1024.1 
						1392.4,1029.1 1378.9,1029.1 1378.9,1038.1 1392.4,1038.1 1392.4,1043.1 1418.6,1043.1 1418.6,1038.1 1440.2,1038.1 
						1440.2,1043.1 1446.9,1043.1 					"/>
					<polyline class="st14" points="1434.8,1113.3 1429.5,1111.7 1428,1116.4 1407.5,1109.9 1409,1105.2 1384,1097.3 1382.5,1102 
						1370.9,1098.3 1368.1,1106.8 1379.8,1110.6 1378.3,1115.4 1403.3,1123.3 1404.8,1118.5 1425.3,1125 1423.8,1129.8 
						1428.6,1131.3 					"/>
					<polyline class="st14" points="1328.3,566.9 1323.6,573.5 1327.6,576.4 1316.3,590.6 1312.2,587.6 1296.8,608.8 1300.8,611.8 
						1293.8,621.4 1301,626.8 1308.1,617.1 1312.2,620 1327.6,598.8 1323.5,595.9 1334.9,581.7 1338.9,584.7 1343.5,578.3 					"/>
					<polyline class="st14" points="1428.4,694.3 1424.2,695.7 1425.7,700.5 1405.3,707.2 1403.7,702.5 1378.8,710.7 1380.4,715.5 
						1368.2,719.5 1370.9,728.1 1383.3,724 1384.8,728.8 1409.7,720.5 1408.1,715.8 1428.6,709 1430.2,713.8 1434.7,712.3 					"/>
					<polyline class="st14" points="1446.7,785.6 1441.2,785.6 1441.2,790.6 1419.6,790.6 1419.6,785.6 1393.4,785.7 1393.4,790.7 
						1378.9,790.7 1378.9,799.7 1393.5,799.7 1393.5,804.7 1419.7,804.6 1419.7,799.6 1441.2,799.6 1441.2,804.6 1446.9,804.6 					
						"/>
					<polyline class="st14" points="1388,623.3 1383.9,626.1 1386.8,630.1 1369.2,642.6 1366.3,638.5 1344.9,653.6 1347.8,657.7 
						1338.5,664.2 1343.8,671.5 1352.9,665 1355.8,669.1 1377.2,654 1374.3,649.9 1392,637.5 1394.8,641.6 1399.3,638.6 					"/>
					<polyline class="st14" points="1324,1262 1319.4,1255.4 1323.4,1252.5 1312.6,1237.5 1308.5,1240.4 1293.1,1219.3 
						1297.1,1216.3 1290.3,1207 1297.7,1201.9 1304.4,1211 1308.5,1208.1 1323.9,1229.2 1319.9,1232.2 1330.7,1247.1 1334.7,1244.2 
						1339.4,1250.9 					"/>
					<polyline class="st14" points="1387.3,1203.7 1383.4,1200.9 1386.2,1196.8 1368.6,1184.4 1365.7,1188.5 1344.3,1173.4 
						1347.2,1169.3 1337.9,1162.8 1343.2,1155.5 1352.4,1161.9 1355.3,1157.9 1376.7,1173 1373.8,1177 1391.4,1189.5 1394.3,1185.4 
						1398.6,1188.4 					"/>
					<polygon class="st14" points="515.7,874.5 515.7,869.5 537.2,869.5 537.2,874.5 563.4,874.5 563.4,869.5 578,869.5 578,860.5 
						563.4,860.5 563.4,855.5 537.2,855.5 537.2,860.5 515.7,860.5 515.7,855.5 509.9,855.5 509.9,874.5 					"/>
					<polyline class="st14" points="510,784.1 515.6,784.1 515.6,789.1 537.2,789.1 537.2,784.1 563.4,784.1 563.4,789.1 578,789.1 
						578,798.1 563.4,798.1 563.4,803.1 537.2,803.1 537.2,798.1 515.6,798.1 515.6,803.1 509.9,803.1 					"/>
					<polyline class="st14" points="509.9,954.4 515.7,954.4 515.7,959.4 537.2,959.4 537.2,954.4 563.4,954.4 563.4,959.4 
						578,959.4 578,968.4 563.4,968.4 563.4,973.4 537.2,973.4 537.2,968.4 515.7,968.4 515.7,973.4 509.9,973.4 					"/>
					<polyline class="st14" points="509.9,1024.5 516.3,1024.5 516.3,1029.5 537.9,1029.5 537.9,1024.5 564.1,1024.5 564.1,1029.5 
						578,1029.5 578,1038.5 564.1,1038.5 564.1,1043.5 537.9,1043.5 537.9,1038.5 516.3,1038.5 516.3,1043.5 510.1,1043.5 					"/>
					<polyline class="st14" points="522.1,1114 528,1112.1 529.6,1116.9 550.1,1110.4 548.6,1105.6 573.6,1097.7 575.1,1102.5 
						586.2,1098.9 589,1107.5 577.8,1111.1 579.3,1115.8 554.3,1123.7 552.8,1119 532.3,1125.5 533.8,1130.2 528.4,1132 					"/>
					<polyline class="st14" points="621.5,571.9 628.9,566.6 632.6,571.6 628.5,574.5 641.2,592 645.3,589 660.7,610.2 656.7,613.1 
						663,621.8 655.7,627.1 649.4,618.4 645.3,621.4 629.9,600.2 634,597.3 621.2,579.8 617.2,582.8 613.7,577.9 621.5,571.9 					
						"/>
					<polyline class="st14" points="704,530 705.9,536.1 701.1,537.6 707.7,558.1 712.5,556.6 720,580.5 715.2,582 719.3,594.5 
						710.8,597.3 706.6,584.7 701.9,586.3 694.4,562.4 699.1,560.9 692.6,540.3 687.8,541.9 686.1,536.2 698.4,531.8 					"/>
					<polyline class="st14" points="527.3,696.9 534.4,699.3 532.8,704 549.6,709.4 551.2,704.7 576,712.9 574.4,717.6 588,722.4 
						585.3,730.9 571.6,726.2 570,730.9 545.2,722.7 546.7,717.9 530,712.6 528.4,717.3 521.2,714.9 					"/>
					<polyline class="st14" points="568.6,623.5 574.9,627.9 572,632 586.4,642.3 589.3,638.2 610.7,653.3 607.8,657.4 618.1,664.7 
						612.8,671.9 602.6,664.8 599.8,668.9 578.4,653.8 581.2,649.7 566.8,639.4 564,643.5 557.3,638.8 					"/>
					<polyline class="st14" points="633.2,1262.3 637.6,1256.3 633.5,1253.3 645,1238 649,1240.9 664.5,1219.7 660.4,1216.8 
						667.3,1207.5 659.8,1202.3 653.2,1211.5 649.1,1208.5 633.7,1229.7 637.7,1232.6 626.3,1248 622.2,1245.1 617.7,1251.3 					
						"/>
					<polyline class="st14" points="570,1204.4 575.9,1200.2 573.1,1196.2 589,1184.9 591.9,1188.9 613.3,1173.8 610.4,1169.8 
						619.6,1163.2 614.3,1155.9 605.2,1162.4 602.3,1158.3 580.9,1173.4 583.8,1177.5 567.9,1188.8 565,1184.7 558.7,1189.2 					
						"/>
					<polyline class="st14" points="1251.9,529.7 1249.9,536.1 1254.6,537.6 1248.1,558.1 1243.3,556.6 1235.8,580.5 1240.6,582 
						1236.5,594.2 1245.1,597 1249.2,584.7 1253.9,586.3 1261.4,562.4 1256.6,560.9 1263.2,540.3 1268,541.9 1269.8,535.9 					"/>
					<polyline class="st14" points="704,1296.1 705.9,1290.1 701.1,1288.5 707.7,1268 712.5,1269.5 720,1245.7 715.2,1244.1 
						719.3,1231.7 710.8,1228.9 706.6,1241.4 701.9,1239.9 694.4,1263.7 699.1,1265.3 692.6,1285.8 687.8,1284.3 686.1,1289.8 					
						"/>
					<line class="st14" x1="672.4" y1="1304.6" x2="667.5" y2="1302.6"/>
					<polyline class="st14" points="1251.8,1296.3 1249.9,1290.1 1254.6,1288.5 1248.1,1268 1243.3,1269.5 1235.8,1245.7 
						1240.6,1244.1 1236.5,1231.9 1245.1,1229.2 1249.2,1241.4 1253.9,1239.9 1261.4,1263.7 1256.6,1265.3 1263.2,1285.8 
						1268,1284.3 1269.8,1290.1 					"/>
					<rect x="1245" y="933.3" class="st14" width="101.8" height="9"/>
					<rect x="1245" y="884.5" class="st14" width="101.8" height="9"/>
					<polygon class="st14" points="1285.7,658.4 1242.5,715.7 1235.5,710 1278.7,652.8 					"/>
					<polygon class="st14" points="681.5,651.7 724.2,707.9 716.9,713.2 674.4,657.2 					"/>
					<polygon class="st14" points="1284.3,1167.6 1240.7,1110 1233.6,1115.4 1277.2,1173.2 					"/>
					<polygon class="st14" points="683.3,1174.6 724.1,1120.7 716.9,1115.3 676.2,1169.1 					"/>
				</g>
			</g>
			<path class="st19" d="M559.2,632.8c-14.9,20.9-27,43.8-35.6,68.4"/>
			<path class="st19" d="M617.1,573c-7.1,5.5-14,11.3-20.6,17.4l7.2,9.8l-12.9,13l-11.3-5.6c-5.7,6.2-11,12.7-16.1,19.5"/>
			<path class="st19" d="M690.7,532.6c-24.1,8.8-46.6,20.9-67.1,35.6"/>
			<path class="st19" d="M779.2,515.8c-28.3,0.7-55.5,5.7-81.1,14.2"/>
			<polyline class="st19" points="848.1,515.7 787.2,515.7 786.8,515.7 			"/>
			<line class="st19" x1="926.7" y1="515.7" x2="855.9" y2="515.7"/>
			<line class="st19" x1="1022" y1="515.7" x2="934.3" y2="515.7"/>
			<line class="st19" x1="1100.6" y1="515.7" x2="1029.6" y2="515.7"/>
			<line class="st19" x1="1168.1" y1="515.7" x2="1108.3" y2="515.7"/>
			<path class="st19" d="M1257.4,530.2c-25.7-8.6-53-13.6-81.4-14.4"/>
			<path class="st19" d="M1332.8,569c-20.7-15-43.5-27.2-67.8-36.2"/>
			<path class="st19" d="M1392.4,627.5c-5.2-6.9-10.7-13.5-16.5-19.9l-11.9,5.7l-12.6-12.5l8.2-9.7c-6.6-6.2-13.6-12.1-20.8-17.6"/>
			<path class="st19" d="M1431.4,698.6c-8.7-23.5-20.6-45.6-35-65.6"/>
			<path class="st19" d="M1448.8,790.7c-0.6-29.5-5.7-57.8-14.7-84.4"/>
			<line class="st19" x1="1448.9" y1="860.6" x2="1448.9" y2="798.6"/>
			<line class="st19" x1="1448.9" y1="959.1" x2="1448.9" y2="868.4"/>
			<line class="st19" x1="1448.9" y1="1028.8" x2="1448.9" y2="967.1"/>
			<path class="st19" d="M1434.9,1119c8.5-25.9,13.3-53.4,13.9-82.1"/>
			<path class="st19" d="M1397.1,1193.6c14.7-20.5,26.7-43.2,35.3-67.3"/>
			<path class="st19" d="M1336.1,1255.2c7.7-5.7,15-11.8,22-18.2l-6.6-9.2l13-13.4l10.9,5.8c5.9-6.4,11.5-13.1,16.8-20"/>
			<path class="st19" d="M1265,1293.6c22.9-8.4,44.5-19.6,64.1-33.4"/>
			<path class="st19" d="M1176,1310.4c28.4-0.7,55.7-5.6,81.4-14.2"/>
			<line class="st19" x1="1106.2" y1="1310.5" x2="1168.1" y2="1310.5"/>
			<line class="st19" x1="1028.5" y1="1310.5" x2="1097.8" y2="1310.5"/>
			<line class="st19" x1="935.1" y1="1310.5" x2="1020" y2="1310.5"/>
			<line class="st19" x1="856.6" y1="1310.5" x2="927" y2="1310.5"/>
			<path class="st19" d="M786.4,1310.5c0.5,0,1.1,0,1.6,0h60.3"/>
			<path class="st19" d="M698.9,1296.1c24.9,8.3,51.6,13.3,79.1,14.2"/>
			<path class="st19" d="M629.2,1261.2c19,13.1,39.3,23.7,61.3,31.9"/>
			<path class="st19" d="M525.2,1127.5c12.7,34.2,31.8,65.3,56,91.8l9.9-4.9l12.4,12.4l-6.8,8.2c7.9,7.4,16.2,14.3,25,20.8"/>
			<path class="st19" d="M508,1038.4c0.8,28.3,5.8,55.6,14.4,81.2"/>
			<line class="st19" x1="507.9" y1="968.3" x2="507.9" y2="1030.4"/>
			<line class="st19" x1="507.9" y1="869.4" x2="507.9" y2="959.8"/>
			<line class="st19" x1="507.9" y1="797.8" x2="507.9" y2="860.8"/>
			<path class="st19" d="M520.8,709.4c-8,25.2-12.5,51.9-12.9,79.7"/>
			<path class="st19" d="M1434.8,1118.6"/>
		</g>
	</g>
	<g>
		<g>
			<g>
				<polyline class="st20" points="974.1,344.8 977.2,347.7 980,345 				"/>
			</g>
		</g>
		<g>
			<text transform="matrix(1 0 0 1 936.8721 312.744)" class="st21 st22 st23">Центральный вход</text>
			<line class="st20" x1="977.2" y1="322.7" x2="977.2" y2="347.3"/>
		</g>
	</g>
</g>
</svg>
