<?xml version="1.0" encoding="utf-8"?>
<!-- Generator: Adobe Illustrator 20.1.0, SVG Export Plug-In . SVG Version: 6.00 Build 0)  -->
<svg version="1.1" id="Уровень_7" xmlns="http://www.w3.org/2000/svg" xmlns:xlink="http://www.w3.org/1999/xlink" x="0px"
	 y="0px" viewBox="0 0 1954 1790.7" style="enable-background:new 0 0 1954 1790.7;" xml:space="preserve">
<style type="text/css">
	.st0{fill:#D2D5D9;}
	.st1{fill:#FFFFFF;}
	.st2{fill:#9CC54C;}
	.st3{fill:none;stroke:#FFFFFF;stroke-miterlimit:10;}
	.st4{opacity:0.3;fill:#595A5A;enable-background:new    ;}
	.st5{fill:none;stroke:#D2D5D9;stroke-width:4;stroke-miterlimit:10;}
	.st6{fill:none;stroke:#ADADAD;stroke-width:0.75;stroke-linecap:round;stroke-linejoin:round;stroke-miterlimit:10;}
</style>
<g id="Plan_5_">
	<circle class="st0" cx="587.6" cy="598.5" r="6.7"/>
	<circle class="st0" cx="1365.8" cy="597.3" r="6.7"/>
	<circle class="st0" cx="1364.5" cy="1227.6" r="6.7"/>
	<circle class="st0" cx="585.5" cy="1228.6" r="6.7"/>
	<g>
		<rect x="812.8" y="464.7" class="st1" width="85" height="120.5"/>
		<rect x="898.8" y="464.7" class="st1" width="78" height="120.5"/>
		<rect x="977.8" y="464.7" class="st1" width="80" height="120.5"/>
		<rect x="1058.7" y="464.7" class="st1" width="78" height="120.5"/>
		<rect x="1378.3" y="829.8" class="st1" width="120" height="82"/>
		<polygon class="st1" points="1498.3,994.8 1498.3,912.8 1378.3,912.8 1378.3,994.7 		"/>
		<polygon class="st1" points="1067.3,1359.4 1139.7,1359.4 1139.7,1238.3 1067.2,1238.3 		"/>
		<rect x="976.3" y="1238.3" class="st1" width="90" height="121.2"/>
		<rect x="896.8" y="1238.3" class="st1" width="79" height="121.2"/>
		<rect x="811.8" y="1238.3" class="st1" width="84" height="121.2"/>
		<rect x="456.4" y="913.3" class="st1" width="121.1" height="81.5"/>
		<rect x="456.4" y="830.2" class="st1" width="121.1" height="82.1"/>
		<path class="st1" d="M1391.2,548.5c-20.8-18.8-44-35-69.1-47.9l-52.6,105.5c18.8,9.5,35.9,21.9,50.7,36.6l37-37.5
			c-3.9-3.9-6.5-6-6.5-6L1391.2,548.5z"/>
		<path class="st1" d="M1461.8,640.7l-104.3,53.6c-9.5-18.9-21.9-36-36.6-50.9l36.9-37.6c1.7,1.7,3.6,3.7,5.6,6l61.5-27.9
			C1424.9,583.9,1444.6,609.1,1461.8,640.7z"/>
		<path class="st1" d="M1491.9,724.8c-4.5-22.2-11.2-43.5-20-63.8l-9.4-19.4l-104.6,53.6c9.8,19.7,16.3,41.3,19,64l106.2-14.1
			c-1-7.4-2.7-17.5-2.7-17.5L1491.9,724.8z"/>
		<path class="st1" d="M1483.7,749.1c-0.1-1-0.3-2.1-0.4-3.3L1377,760c0.8,7.2,1.2,14.4,1.2,21.8v46.9l120,0.4v-40.7
			c0-13.9-0.9-27.5-2.6-40.9L1483.7,749.1z"/>
		<path class="st1" d="M1378.3,995.8v45.8c0,7.5-0.4,14.9-1.3,22.2l107,15.2c0.4-2.7,0.7-4.6,0.7-4.6l11,0.9
			c1.4-11.1,2.2-22.4,2.5-33.8c0-1.3,0-2.7,0.1-4c0-0.9,0-1.7,0-2.6v-39.1H1378.3z"/>
		<path class="st1" d="M1483.9,1079.7l-107-15.1c-2.7,22.8-9.3,44.4-19.2,64.2l104.3,53.9l0.2,0.1c13.8-26.7,24-55.5,30-85.8
			l-11.2-2.3C1481.8,1092.2,1483,1084.9,1483.9,1079.7z"/>
		<path class="st1" d="M459,747.3c-1.7,13.5-2.7,27.2-2.7,41.2v40.3h121.1v-46.9c0-7.3,0.4-14.5,1.2-21.5L470,745.7
			c-0.3,1.6-0.4,2.5-0.4,2.5L459,747.3z"/>
		<path class="st1" d="M470.2,744.5l0.3,0.3l108.3,14.4c2.6-22.6,9.1-44.1,18.8-63.7l-105.7-53.8l-0.3,0.4
			c-13.3,26-23.2,54.1-29,83.6l10.6,2.2C472.5,730.7,471,739.5,470.2,744.5z"/>
		<path class="st1" d="M597.6,1128.1c-9.7-19.7-16.2-41.2-18.9-63.9l-103.8,15l-0.6,0.1c0.9,6.6,2.5,16.1,2.5,16.1l-14.2,2.8
			c5.9,29.8,16,58.1,29.6,84.4L597.6,1128.1z"/>
		<path class="st1" d="M474.2,1078.4l104.4-15.2c-0.8-7.1-1.2-14.3-1.2-21.6v-45.8H456.4v39c0,0.7,0,1.4,0,2c0,1.5,0,3,0.1,4.5
			c0.2,11.6,1.1,23.1,2.5,34.4l14.8-1.7C473.8,1075.1,474,1076.6,474.2,1078.4z"/>
		<path class="st1" d="M1424.5,1240c14.3-17.4,26.8-36.3,37.3-56.4l-104.5-53.9c-9.5,18.7-21.8,35.8-36.5,50.6l37.3,38.8l0.2,0.1
			c2.4-2.5,4.8-4.9,5.7-6.1L1424.5,1240z"/>
		<path class="st1" d="M1357.5,1219.8l-37.4-39c-14.7,14.7-31.8,27-50.5,36.5l52.1,105.7c24.3-12.5,46.9-28,67.2-46l-38-50.6
			C1350.9,1226.4,1354.2,1223.2,1357.5,1219.8z"/>
		<path class="st1" d="M684.3,1216.4c-18.5-9.6-35.3-22-49.8-36.6l-37.5,39.1l-0.3,0.5c2.6,2.6,5.2,5.2,6.2,5.9l-38.4,51.2
			c20.3,18.2,42.9,33.9,67.3,46.6L684.3,1216.4z"/>
		<path class="st1" d="M595.9,1218.6l0.1,0l37.8-39.5c-14.4-14.7-26.5-31.6-35.8-50.1l-105.4,54.4c10.4,20.1,22.9,38.9,37.1,56.3
			l60.5-26.8C590.2,1212.8,592.9,1215.6,595.9,1218.6z"/>
		<path class="st1" d="M528.9,584.8c-14,17.3-26.4,36-36.6,55.9l0.2,0.2l105.4,54c9.3-18.7,21.5-35.8,36-50.6l-38-38.5
			c-2.9,3-5.6,5.9-5.6,5.9L528.9,584.8z"/>
		<path class="st1" d="M596.6,605l37.9,38.6c14.5-14.6,31.3-27,49.7-36.6l-51.8-105.5l-1.7-0.1c-23.4,12.3-45.2,27.4-64.9,44.8
			l-0.9,1.5l0.1,0.3l38.2,50.6C602.4,599.2,599.5,602.1,596.6,605z"/>
		<path class="st1" d="M881.2,730.2V617.1h-86v113.1C818.2,730.2,848,730.2,881.2,730.2z"/>
		<path class="st1" d="M975.7,730.3V617.1h-93.4v113.2C911.7,730.3,943.6,730.3,975.7,730.3z"/>
		<path class="st1" d="M1073.3,730.4V617.1h-96.6v113.2C1009.8,730.4,1042.9,730.4,1073.3,730.4z"/>
		<path class="st1" d="M1160.9,730.3V617.1h-86.6v113.3C1107.8,730.4,1137.9,730.4,1160.9,730.3z"/>
		<path class="st1" d="M1205.9,730.1l57.2-88.7c-25.6-15.4-55.5-24.3-87.4-24.3h-14v113.2C1187.9,730.3,1204.5,730.2,1205.9,730.1z"
			/>
		<path class="st1" d="M1259.3,732.9l59.3-38c-14-21.5-32.8-39.7-54.7-53l-38.7,60.6C1225.2,702.4,1243.6,711.8,1259.3,732.9z"/>
		<path class="st1" d="M1244.4,717.3l0,68.9h101.8c-0.3-33.3-10.2-64.4-27.1-90.6l-59.8,38.7
			C1259.3,734.3,1250.1,722.3,1244.4,717.3z"/>
		<path class="st1" d="M1225.3,1118.9c-0.3,0.2-0.5,0.4-0.7,0.5l39.4,60.9c22.1-13.5,40.9-31.8,55-53.5l-59.6-38.2
			C1245.4,1107.2,1229,1116.9,1225.3,1118.9z"/>
		<path class="st1" d="M1244.6,1103.8c5.7-5.1,14.7-16.6,14.7-16.6l60.1,38.9c16.8-26.3,26.7-57.4,26.8-90.8h-101.7L1244.6,1103.8z"
			/>
		<path class="st1" d="M1346.3,787.1h-101.8l0.1,123.5h101.8v-123C1346.3,787.4,1346.3,787.3,1346.3,787.1z"/>
		<polygon class="st1" points="1244.5,1034.3 1346.3,1034.3 1346.3,911.6 1244.5,911.6 		"/>
		<path class="st1" d="M1224.1,1119.7L1224.1,1119.7l-1.8-2.7c-4.4-6.9-15.7-24.4-15.7-24.4l-59.2-0.1v112.6h28.4
			c32,0,61.9-8.9,87.6-24.4L1224.1,1119.7L1224.1,1119.7z"/>
		<path class="st1" d="M739.1,1128.2c0,0-17.1-6.8-35.7-26l-49.9,44.4c8.1,9.2,17.2,17.6,27.1,25c9.8,7.3,20.5,13.5,31.8,18.6
			L739.1,1128.2z"/>
		<path class="st1" d="M749,1092.1l-19.7,30.2l11,5.4l-26.4,63.2c20.8,9.1,43.8,14.2,67.8,14.2h24.9l0-112.9L749,1092.1z"/>
		<polygon class="st1" points="1056.4,1204.7 1146.4,1204.7 1146.4,1092.5 1056.4,1092.4 		"/>
		<polygon class="st1" points="808.3,1204.7 895.8,1204.7 895.8,1092.2 808.3,1092.1 		"/>
		<polygon class="st1" points="991.9,1115.9 976.6,1115.9 976.6,1204.7 1055.4,1204.7 1055.4,1092.4 991.9,1092.4 		"/>
		<polygon class="st1" points="896.8,1204.7 975.6,1204.7 975.6,1115.9 960.2,1115.9 960.2,1092.3 896.8,1092.2 		"/>
		<path class="st1" d="M711.5,1109.1l0-58.4l-96.6,19.1c6.1,28.6,19.4,54.6,37.9,76l50.9-44.9C705.3,1103,710.2,1107.9,711.5,1109.1
			z"/>
		<path class="st1" d="M732.3,702.9l2.9,4.7l0,0l14.1,22.5c0,0,17.2,0,44.9,0.1V617.1h-12.5c-23.7,0-46.4,4.9-67,13.8l28.6,66.4
			C738.8,698.9,732.3,702.9,732.3,702.9z"/>
		<path class="st1" d="M711.2,716.9c-2.1,1.9-4.9,4.4-6.3,5.8l-52.2-46.1c-19.2,22.2-32.8,49.4-38.5,79.3l97,18.9L711.2,716.9z"/>
		<path class="st1" d="M711.4,994.1H611.2v40.5c0,11.7,1.2,23.2,3.5,34.2l96.8-18.9L711.4,994.1z"/>
		<path class="st1" d="M711.2,775.7l-97.2-19c-1.8,10-2.8,20.3-2.8,30.8v44h100.1L711.2,775.7z"/>
		<polygon class="st1" points="711.3,913.3 611.2,913.3 611.2,993.1 711.4,993.1 		"/>
		<polygon class="st1" points="711.3,832.5 611.2,832.5 611.2,912.3 711.3,912.3 		"/>
		<path class="st1" d="M1207.6,466.4c-10.9-1.1-22-1.7-33.2-1.7h-36.7v120.5h43.8c7.8,0,15.7,0.5,23.3,1.4l14.9-99.4
			c-7.8-1.1-13.8-1.5-13.8-1.5L1207.6,466.4z"/>
		<path class="st1" d="M1252.6,474.3l-5,18.4c-5.2-1.1-13.7-3.2-21.4-4.5c-1.9-0.3-3.7-0.6-5.4-0.8l-15.2,99.3
			c22.3,2.7,43.6,9.3,63,18.9l52.6-105.5C1299.6,489,1276.6,480.3,1252.6,474.3z"/>
		<path class="st1" d="M780.2,464.7c-11.2,0-22.2,0.6-33.1,1.7l0.7,17.7c-2.8,0.2-7.5,1-12.7,1.8l0,0.1l15,100.6
			c7.9-1,15.9-1.5,24.1-1.5h37.6V464.7H780.2z"/>
		<path class="st1" d="M701.6,474.4c-24.1,6.1-47.1,14.8-68.8,26l52.3,106.2c19.7-10.1,41.2-16.9,64-19.8l-15-100.7
			c-12.4,2.1-27.4,5.2-27.4,5.2L701.6,474.4z"/>
		<path class="st1" d="M774.1,1238.3c-8.3,0-16.4-0.5-24.4-1.5l-13.6,100.7l11.3,2l-1.6,18.2c11.3,1.2,22.7,1.8,34.3,1.8h30.6
			v-121.2H774.1z"/>
		<path class="st1" d="M734.5,1337.2l14.2-100.5c-22.5-2.9-43.8-9.7-63.3-19.6l-52.6,106.8c21.6,11.1,44.5,19.9,68.6,25.9l4.3-17.6
			L734.5,1337.2z"/>
		<path class="st1" d="M1320.8,1323.5l-52-105.8c-19.7,9.8-41.2,16.4-63.9,19.1l14.2,101.2l0,0c11.6-2.1,27.4-5,28.7-5.4
			c0,0,3.5,10.9,5.1,17.1c14.5-3.7,28.7-8.3,42.4-13.8C1303.9,1332,1312.4,1327.8,1320.8,1323.5z"/>
		<path class="st1" d="M1217.5,1338.4l-13.6-101.4c-7.3,0.8-14.8,1.3-22.3,1.3h-40.9v121.2h33.8c11.1,0,22.1-0.6,32.9-1.7l-0.7-17.4
			C1206.6,1340.4,1211.3,1339.5,1217.5,1338.4z"/>
		<path class="st1" d="M741.9,696.6l-28.2-65.3c-23.3,10.2-43.9,25.4-60.4,44.3l51.5,45.5C726.3,702,741.9,696.6,741.9,696.6z"/>
		<g>
			<polygon class="st0" points="939.5,523.9 939.5,497.7 934.5,497.7 934.5,464.7 925.5,464.7 925.5,497.7 920.5,497.7 920.5,523.9 
				925.5,523.9 925.5,545.4 920.5,545.4 920.5,571.6 925.5,571.6 925.5,585.2 934.5,585.2 934.5,571.6 939.5,571.6 939.5,545.4 
				934.5,545.4 934.5,523.9 			"/>
			<polygon class="st0" points="860.9,523.9 860.9,497.7 855.9,497.7 855.9,464.7 846.9,464.7 846.9,497.7 841.9,497.7 841.9,523.9 
				846.9,523.9 846.9,545.4 841.9,545.4 841.9,571.6 846.9,571.6 846.9,585.2 855.9,585.2 855.9,571.6 860.9,571.6 860.9,545.4 
				855.9,545.4 855.9,523.9 			"/>
			<polyline class="st0" points="841.7,729.9 841.7,683.1 846.7,683.1 846.7,651.2 841.7,651.2 841.7,617.1 832.7,617.1 
				832.7,651.2 827.7,651.2 827.7,683.1 832.7,683.1 832.7,729.9 			"/>
			<polyline class="st0" points="833,1092.1 833,1138.9 828,1138.9 828,1170.8 833,1170.8 833,1204.7 842,1204.7 842,1170.6 
				847,1170.8 847,1138.9 842,1138.9 842,1092.1 			"/>
			<polyline class="st0" points="925.7,1092.1 925.7,1138.9 920.7,1138.9 920.7,1170.8 925.7,1170.8 925.7,1204.7 934.7,1204.7 
				934.7,1170.6 939.7,1170.8 939.7,1138.9 934.7,1138.9 934.7,1092.1 			"/>
			<polyline class="st0" points="1019.7,1092.1 1019.7,1138.9 1014.7,1138.9 1014.7,1170.8 1019.7,1170.8 1019.7,1204.7 
				1028.7,1204.7 1028.7,1170.6 1033.7,1170.8 1033.7,1138.9 1028.7,1138.9 1028.7,1092.1 			"/>
			<polyline class="st0" points="1111.2,1092.1 1111.2,1138.9 1106.2,1138.9 1106.2,1170.8 1111.2,1170.8 1111.2,1204.7 
				1120.2,1204.7 1120.2,1170.6 1125.2,1170.8 1125.2,1138.9 1120.2,1138.9 1120.2,1092.1 			"/>
			<polyline class="st0" points="711.3,788.4 675,788.4 675,783.4 643.1,783.4 643.1,788.4 611.2,788.4 611.2,797.4 643.1,797.4 
				643.1,802.4 675,802.4 675,797.4 711.3,797.4 			"/>
			<polyline class="st0" points="711.3,859.1 675,859.1 675,854.1 643.1,854.1 643.1,859.1 611.2,859.1 611.2,868.1 643.1,868.1 
				643.1,873.1 675,873.1 675,868.1 711.3,868.1 			"/>
			<polyline class="st0" points="711.3,955.4 675,955.4 675,950.4 643.1,950.4 643.1,955.4 611.2,955.4 611.2,964.4 643.1,964.4 
				643.1,969.4 675,969.4 675,964.4 711.3,964.4 			"/>
			<polyline class="st0" points="1346.3,847.9 1310.4,847.9 1310.4,852.9 1278.5,852.9 1278.5,847.9 1244.4,847.9 1244.4,838.9 
				1278.5,838.9 1278.5,833.9 1310.4,833.9 1310.4,838.9 1346.3,838.9 			"/>
			<polyline class="st0" points="1346.3,984.9 1310.4,984.9 1310.4,989.9 1278.5,989.9 1278.5,984.9 1244.4,984.9 1244.4,975.9 
				1278.5,975.9 1278.5,970.9 1310.4,970.9 1310.4,975.9 1346.3,975.9 			"/>
			<polyline class="st0" points="711.3,1027.5 675,1027.5 675,1022.5 643.1,1022.5 643.1,1027.5 611.2,1027.5 611.2,1036.5 
				643.1,1036.5 643.1,1041.5 675,1041.5 675,1036.5 711.3,1036.5 			"/>
			<polyline class="st0" points="711.2,752 687,739.9 689.2,735.4 660.5,721.1 658.1,725.6 629.4,711.3 625.5,719.4 654.4,733.7 
				652.2,738.2 680.7,752.4 683,748 711.2,762 			"/>
			<polyline class="st0" points="932.7,729.9 932.7,683.1 937.7,683.1 937.7,651.2 932.7,651.2 932.7,617.1 923.7,617.1 
				923.7,651.2 918.7,651.2 918.7,683.1 923.7,683.1 923.7,729.9 			"/>
			<polyline class="st0" points="1028.4,729.9 1028.4,683.1 1033.4,683.1 1033.4,651.2 1028.4,651.2 1028.4,617.1 1019.4,617.1 
				1019.4,651.2 1014.4,651.2 1014.4,683.1 1019.4,683.1 1019.4,729.9 			"/>
			<polyline class="st0" points="1120.7,729.9 1120.7,683.1 1125.7,683.1 1125.7,651.2 1120.7,651.2 1120.7,617.1 1111.7,617.1 
				1111.7,651.2 1106.7,651.2 1106.7,683.1 1111.7,683.1 1111.7,729.9 			"/>
			<polyline class="st0" points="1190.5,730.4 1196.5,687.7 1201.5,688.4 1205.9,656.8 1201,656.1 1206.1,619.8 1197.2,618.4 
				1192.1,654.8 1187.1,654.1 1182.7,685.7 1187.6,686.4 1181.4,730.4 			"/>
			<polyline class="st0" points="756.1,619 761.1,654.6 766,653.9 770.5,685.5 765.5,686.2 771.7,730.1 762.6,730.1 756.6,687.4 
				751.7,688.1 747.2,656.5 752.2,655.8 746.8,620.7 			"/>
			<polyline class="st0" points="1190.5,1092.6 1196.5,1134.5 1201.5,1133.8 1205.9,1165.4 1201,1166.1 1206.1,1202.4 
				1197.2,1203.8 1192.1,1167.4 1187.1,1168.1 1182.7,1136.5 1187.6,1135.8 1181.4,1092.6 			"/>
			<polyline class="st0" points="756.1,1203.2 761.1,1167.7 766,1168.4 770.5,1136.8 765.5,1136.1 771.7,1092.1 762.6,1092.1 
				756.6,1134.8 751.7,1134.1 747.2,1165.7 752.2,1166.4 746.8,1201.5 			"/>
			<polyline class="st0" points="1244.4,773.9 1276.6,766.1 1277.8,771 1308.8,763.7 1307.7,758.9 1342.3,751.1 1340.2,742.4 
				1305.6,750.1 1304.5,745.2 1273.4,752.5 1274.6,757.4 1244.4,764.7 			"/>
			<polyline class="st0" points="711.8,1072.4 687.5,1084.4 689.8,1088.9 661.1,1103.2 658.7,1098.8 630.3,1112.7 626.4,1104.8 
				655,1090.6 652.7,1086.1 681.3,1071.9 683.5,1076.4 711.8,1062.3 			"/>
			<polyline class="st0" points="1244.5,1050.7 1277.2,1058.2 1278.3,1053.3 1309.4,1060.6 1308.3,1065.5 1342.9,1073.2 
				1339.6,1081.7 1306.2,1074.2 1305.1,1079.1 1274,1071.8 1275.1,1067 1244.5,1059.5 			"/>
			<polygon class="st0" points="792.2,523.9 792.2,497.7 787.2,497.7 787.2,464.7 778.2,464.7 778.2,497.7 773.2,497.7 773.2,523.9 
				778.2,523.9 778.2,545.4 773.2,545.4 773.2,571.6 778.2,571.6 778.2,585.2 787.2,585.2 787.2,571.6 792.2,571.6 792.2,545.4 
				787.2,545.4 787.2,523.9 			"/>
			<polygon class="st0" points="1034.5,523.9 1034.5,497.7 1029.5,497.7 1029.5,464.7 1020.5,464.7 1020.5,497.7 1015.5,497.7 
				1015.5,523.9 1020.5,523.9 1020.5,545.4 1015.5,545.4 1015.5,571.6 1020.5,571.6 1020.5,585.2 1029.5,585.2 1029.5,571.6 
				1034.5,571.6 1034.5,545.4 1029.5,545.4 1029.5,523.9 			"/>
			<polygon class="st0" points="1181.2,523.9 1181.2,497.7 1176.2,497.7 1176.2,464.7 1167.2,464.7 1167.2,497.7 1162.2,497.7 
				1162.2,523.9 1167.2,523.9 1167.2,545.4 1162.2,545.4 1162.2,571.6 1167.2,571.6 1167.2,585.2 1176.2,585.2 1176.2,571.6 
				1181.2,571.6 1181.2,545.4 1176.2,545.4 1176.2,523.9 			"/>
			<polygon class="st0" points="1113.2,523.9 1113.2,497.7 1108.2,497.7 1108.2,464.7 1099.2,464.7 1099.2,497.7 1094.2,497.7 
				1094.2,523.9 1099.2,523.9 1099.2,545.4 1094.2,545.4 1094.2,571.6 1099.2,571.6 1099.2,585.2 1108.2,585.2 1108.2,571.6 
				1113.2,571.6 1113.2,545.4 1108.2,545.4 1108.2,523.9 			"/>
			<polygon class="st0" points="1091.9,1299.6 1091.9,1325.8 1096.9,1325.8 1096.9,1359.4 1105.9,1359.4 1105.9,1325.8 
				1110.9,1325.8 1110.9,1299.6 1105.9,1299.6 1105.9,1278 1110.9,1278 1110.9,1251.8 1105.9,1251.8 1105.9,1238.3 1096.9,1238.3 
				1096.9,1251.8 1091.9,1251.8 1091.9,1278 1096.9,1278 1096.9,1299.6 			"/>
			<polygon class="st0" points="1161.9,1299.6 1161.9,1325.8 1166.9,1325.8 1166.9,1359.4 1175.9,1359.4 1175.9,1325.8 
				1180.9,1325.8 1180.9,1299.6 1175.9,1299.6 1175.9,1278 1180.9,1278 1180.9,1251.8 1175.9,1251.8 1175.9,1238.3 1166.9,1238.3 
				1166.9,1251.8 1161.9,1251.8 1161.9,1278 1166.9,1278 1166.9,1299.6 			"/>
			<polygon class="st0" points="920.8,1299.6 920.8,1325.8 925.8,1325.8 925.8,1359.4 934.8,1359.4 934.8,1325.8 939.8,1325.8 
				939.8,1299.6 934.8,1299.6 934.8,1278 939.8,1278 939.8,1251.8 934.8,1251.8 934.8,1238.3 925.8,1238.3 925.8,1251.8 
				920.8,1251.8 920.8,1278 925.8,1278 925.8,1299.6 			"/>
			<polygon class="st0" points="842,1299.6 842,1325.8 847,1325.8 847,1359.4 856,1359.4 856,1325.8 861,1325.8 861,1299.6 
				856,1299.6 856,1278 861,1278 861,1251.8 856,1251.8 856,1238.3 847,1238.3 847,1251.8 842,1251.8 842,1278 847,1278 847,1299.6 
							"/>
			<polygon class="st0" points="772.2,1299.6 772.2,1325.8 777.2,1325.8 777.2,1359.4 786.2,1359.4 786.2,1325.8 791.2,1325.8 
				791.2,1299.6 786.2,1299.6 786.2,1278 791.2,1278 791.2,1251.8 786.2,1251.8 786.2,1238.3 777.2,1238.3 777.2,1251.8 
				772.2,1251.8 772.2,1278 777.2,1278 777.2,1299.6 			"/>
			<polygon class="st0" points="1013.9,1299.6 1013.9,1325.8 1018.9,1325.8 1018.9,1359.4 1027.9,1359.4 1027.9,1325.8 
				1032.9,1325.8 1032.9,1299.6 1027.9,1299.6 1027.9,1278 1032.9,1278 1032.9,1251.8 1027.9,1251.8 1027.9,1238.3 1018.9,1238.3 
				1018.9,1251.8 1013.9,1251.8 1013.9,1278 1018.9,1278 1018.9,1299.6 			"/>
			<polygon class="st0" points="1439.6,872.7 1465.8,872.7 1465.8,867.7 1498.3,867.7 1498.3,858.7 1465.8,858.7 1465.8,853.7 
				1439.6,853.7 1439.6,858.7 1418,858.7 1418,853.7 1391.8,853.7 1391.8,858.7 1378.3,858.7 1378.3,867.7 1391.8,867.7 
				1391.8,872.7 1418,872.7 1418,867.7 1439.6,867.7 			"/>
			<polygon class="st0" points="1439.6,971.6 1465.8,971.6 1465.8,966.6 1498.3,966.6 1498.3,957.6 1465.8,957.6 1465.8,952.6 
				1439.6,952.6 1439.6,957.6 1418,957.6 1418,952.6 1391.8,952.6 1391.8,957.6 1378.3,957.6 1378.3,966.6 1391.8,966.6 
				1391.8,971.6 1418,971.6 1418,966.6 1439.6,966.6 			"/>
			<polygon class="st0" points="1439.6,1041.7 1465.8,1041.7 1465.8,1036.7 1498.3,1036.7 1498.3,1027.7 1465.8,1027.7 
				1465.8,1022.7 1439.6,1022.7 1439.6,1027.7 1418,1027.7 1418,1022.7 1391.8,1022.7 1391.8,1027.7 1378.3,1027.7 1378.3,1036.7 
				1391.8,1036.7 1391.8,1041.7 1418,1041.7 1418,1036.7 1439.6,1036.7 			"/>
			<polygon class="st0" points="1423.2,1128.4 1448.2,1136.3 1449.7,1131.6 1480.2,1141.2 1483,1132.7 1452.4,1123 1453.9,1118.2 
				1429,1110.3 1427.4,1115.1 1406.9,1108.6 1408.4,1103.8 1383.4,1095.9 1381.9,1100.7 1370.3,1096.9 1367.5,1105.5 1379.2,1109.2 
				1377.7,1114 1402.7,1121.9 1404.2,1117.1 1424.7,1123.7 			"/>
			<polygon class="st0" points="1338.3,583.3 1353.8,562.1 1349.7,559.2 1369.6,530.6 1362.4,525.2 1342.5,553.9 1338.4,550.9 
				1323,572.1 1327,575 1315.7,589.2 1311.6,586.3 1296.2,607.4 1300.2,610.4 1293.2,620.1 1300.4,625.4 1307.5,615.7 1311.6,618.6 
				1327,597.5 1323,594.5 1334.3,580.3 			"/>
			<polygon class="st0" points="1429.6,712.4 1454.4,704.2 1452.8,699.4 1482.7,689.5 1479.9,681 1450,690.9 1448.4,686.1 
				1423.6,694.4 1425.2,699.1 1404.7,705.9 1403.1,701.1 1378.3,709.4 1379.8,714.1 1367.6,718.2 1370.3,726.7 1382.7,722.7 
				1384.2,727.4 1409.1,719.2 1407.5,714.4 1428,707.6 			"/>
			<polygon class="st0" points="1440.6,803.2 1466.8,803.2 1466.8,798.2 1498.2,798.1 1498.3,789.1 1466.8,789.2 1466.8,784.2 
				1440.6,784.2 1440.6,789.2 1419,789.3 1419,784.3 1392.8,784.3 1392.8,789.3 1378.3,789.4 1378.3,798.4 1392.9,798.3 
				1392.9,803.3 1419.1,803.3 1419.1,798.3 1440.6,798.2 			"/>
			<polygon class="st0" points="1394.2,640.2 1415.6,625.1 1412.8,621 1438.5,602.9 1433.4,595.5 1407.6,613.7 1404.7,609.6 
				1383.3,624.7 1386.2,628.8 1368.6,641.2 1365.7,637.1 1344.3,652.2 1347.2,656.3 1337.9,662.8 1343.2,670.1 1352.3,663.7 
				1355.2,667.7 1376.6,652.6 1373.7,648.6 1391.4,636.1 			"/>
			<polygon class="st0" points="1334.1,1242.8 1349.6,1264 1345.5,1266.9 1366.3,1295.3 1359.1,1300.7 1338.3,1272.2 1334.2,1275.2 
				1318.8,1254 1322.8,1251.1 1312,1236.1 1307.9,1239.1 1292.5,1217.9 1296.6,1215 1289.5,1205.3 1296.7,1199.9 1303.8,1209.7 
				1307.9,1206.7 1323.3,1227.9 1319.3,1230.8 1330.1,1245.8 			"/>
			<polygon class="st0" points="1393.7,1184 1415.1,1199.1 1412.2,1203.2 1438.4,1221.9 1433.2,1229.3 1407,1210.6 1404.2,1214.6 
				1382.8,1199.5 1385.6,1195.5 1368,1183 1365.1,1187.1 1343.7,1172 1346.6,1167.9 1337.3,1161.4 1342.6,1154.1 1351.8,1160.6 
				1354.7,1156.5 1376.1,1171.6 1373.2,1175.7 1390.8,1188.1 			"/>
			<polygon class="st0" points="515.1,873.1 488.9,873.1 488.9,868.1 456.4,868.1 456.4,859.1 488.9,859.1 488.9,854.1 515.1,854.1 
				515.1,859.1 536.6,859.1 536.6,854.1 562.8,854.1 562.8,859.1 577.4,859.1 577.4,868.1 562.8,868.1 562.8,873.1 536.6,873.1 
				536.6,868.1 515.1,868.1 			"/>
			<polygon class="st0" points="515,801.7 488.8,801.7 488.8,796.7 456.4,796.7 456.4,787.7 488.8,787.7 488.8,782.7 515,782.7 
				515,787.7 536.6,787.7 536.6,782.7 562.8,782.7 562.8,787.7 577.4,787.7 577.4,796.7 562.8,796.7 562.8,801.7 536.6,801.7 
				536.6,796.7 515,796.7 			"/>
			<polygon class="st0" points="515.1,972 488.9,972 488.9,967 456.4,967 456.4,958 488.9,958 488.9,953 515.1,953 515.1,958 
				536.6,958 536.6,953 562.8,953 562.8,958 577.4,958 577.4,967 562.8,967 562.8,972 536.6,972 536.6,967 515.1,967 			"/>
			<polygon class="st0" points="515.7,1042.1 489.6,1042.1 489.6,1037.1 456.4,1037.1 456.4,1028.1 489.6,1028.1 489.6,1023.1 
				515.7,1023.1 515.7,1028.1 537.3,1028.1 537.3,1023.1 563.5,1023.1 563.5,1028.1 577.4,1028.1 577.4,1037.1 563.5,1037.1 
				563.5,1042.1 537.3,1042.1 537.3,1037.1 515.7,1037.1 			"/>
			<polygon class="st0" points="533.2,1128.9 508.2,1136.8 506.7,1132 476.2,1141.7 473.4,1133.2 504,1123.4 502.5,1118.7 
				527.4,1110.8 529,1115.5 549.5,1109 548,1104.3 573,1096.3 574.5,1101.1 585.6,1097.5 588.4,1106.1 577.2,1109.7 578.7,1114.5 
				553.7,1122.4 552.2,1117.6 531.7,1124.1 			"/>
			<polygon class="st0" points="616.6,581.4 601.2,560.3 605.2,557.3 585.1,530.7 592.3,525.3 612.5,552 616.5,549.1 632,570.2 
				627.9,573.2 640.6,590.6 644.7,587.6 660.1,608.8 656.1,611.8 662.3,620.3 655,625.6 648.8,617.1 644.8,620 629.3,598.8 
				633.4,595.9 620.6,578.5 			"/>
			<polygon class="st0" points="693.2,512.8 698,511.2 705.3,534.7 700.5,536.2 707.1,556.8 711.9,555.2 719.4,579.1 714.6,580.6 
				718.7,593.1 710.2,595.9 706,583.4 701.3,584.9 693.8,561 698.5,559.5 692,539 687.2,540.5 679.9,517 684.7,515.5 			"/>
			<polygon class="st0" points="527.8,715.9 503,707.7 504.6,703 471.3,691.7 474.1,683.1 507.4,694.4 509,689.7 533.8,697.9 
				532.2,702.7 549,708 550.6,703.3 575.4,711.5 573.8,716.3 587.4,721 584.7,729.6 571,724.8 569.4,729.6 544.6,721.3 546.2,716.6 
				529.4,711.2 			"/>
			<polygon class="st0" points="563.4,642.1 542,627 544.8,622.9 515.9,602.6 521,595.2 550,615.6 552.9,611.5 574.3,626.6 
				571.4,630.7 585.8,641 588.7,636.9 610.1,652 607.2,656.1 617.5,663.3 612.2,670.6 602.1,663.4 599.2,667.5 577.8,652.4 
				580.7,648.3 566.2,638 			"/>
			<polygon class="st0" points="621.6,1243.7 606.2,1264.9 610.2,1267.8 589.4,1297 596.7,1302.3 617.5,1273.1 621.6,1276.1 
				637,1254.9 633,1252 644.4,1236.6 648.5,1239.5 663.9,1218.4 659.8,1215.4 666.7,1206.1 659.2,1201 652.6,1210.1 648.5,1207.2 
				633.1,1228.3 637.1,1231.3 625.7,1246.7 			"/>
			<polygon class="st0" points="564.4,1183.4 543,1198.5 545.9,1202.5 517,1222.8 522.1,1230.2 551.1,1209.9 553.9,1214 
				575.3,1198.9 572.5,1194.8 588.4,1183.5 591.3,1187.6 612.7,1172.5 609.8,1168.4 619.1,1161.9 613.8,1154.6 604.6,1161 
				601.7,1157 580.3,1172.1 583.2,1176.1 567.3,1187.4 			"/>
			<polygon class="st0" points="711.6,507.1 706.5,508.6 696.6,475.7 701.7,474.4 			"/>
			<polygon class="st0" points="671.8,520.2 666.9,522.1 654.5,490.2 659.3,488.2 			"/>
			<polygon class="st0" points="1261.4,512.8 1256.6,511.2 1249.3,534.7 1254,536.2 1247.5,556.8 1242.7,555.2 1235.2,579.1 
				1240,580.6 1235.8,593.1 1244.4,595.9 1248.6,583.4 1253.3,584.9 1260.8,561 1256,559.5 1262.6,539 1267.4,540.5 1274.7,517 
				1269.9,515.5 			"/>
			<polygon class="st0" points="1243.7,507.3 1248.6,508.6 1257.6,475.6 1252.5,474.3 			"/>
			<polygon class="st0" points="1282.8,520.2 1287.7,522.1 1300.1,490.2 1295.3,488.2 			"/>
			<polygon class="st0" points="693.2,1310.7 698,1312.2 705.3,1288.7 700.5,1287.2 707.1,1266.6 711.9,1268.2 719.4,1244.3 
				714.6,1242.8 718.7,1230.3 710.2,1227.5 706,1240 701.3,1238.5 693.8,1262.4 698.5,1263.9 692,1284.4 687.2,1282.9 679.9,1306.4 
				684.7,1307.9 			"/>
			<polygon class="st0" points="709.6,1316.4 704.4,1314.9 696.2,1348.3 701.4,1349.6 			"/>
			<polygon class="st0" points="671.8,1303.2 666.9,1301.3 654.2,1333.8 659.1,1335.7 			"/>
			<polygon class="st0" points="1261.4,1310.7 1256.6,1312.2 1249.3,1288.7 1254,1287.2 1247.5,1266.6 1242.7,1268.2 1235.2,1244.3 
				1240,1242.8 1235.8,1230.3 1244.4,1227.5 1248.6,1240 1253.3,1238.5 1260.8,1262.4 1256,1263.9 1262.6,1284.4 1267.4,1282.9 
				1274.7,1306.4 1269.9,1307.9 			"/>
			<polygon class="st0" points="1242.6,1316 1247.6,1314.7 1258,1348.4 1252.8,1349.8 			"/>
			<polygon class="st0" points="1282.6,1302.7 1287.5,1300.7 1300.3,1333.6 1295.6,1335.8 			"/>
			<rect x="1244.4" y="932" class="st0" width="101.8" height="9"/>
			<rect x="1244.4" y="883.2" class="st0" width="101.8" height="9"/>
			<polygon class="st0" points="1285.1,657.1 1241.9,714.3 1234.9,708.7 1278.1,651.5 			"/>
			<polygon class="st0" points="680.9,650.3 723.6,706.6 716.3,711.8 673.8,655.8 			"/>
			<polygon class="st0" points="1283.7,1166.3 1240.1,1108.6 1233,1114.1 1276.6,1171.8 			"/>
			<polygon class="st0" points="682.7,1173.2 723.5,1119.3 716.3,1114 675.6,1167.8 			"/>
		</g>
	</g>
	<g>
		<rect x="727.8" y="745.8" class="st2" width="500" height="332"/>
		<rect x="738.1" y="756.8" class="st3" width="479" height="311.1"/>
		<line class="st3" x1="976.5" y1="1067.3" x2="976.5" y2="757.3"/>
		<rect x="1141.8" y="820.2" class="st3" width="75.4" height="185.2"/>
		<polyline class="st3" points="1217.6,954.8 1192.3,954.8 1192.3,870.8 1217.6,870.8 		"/>
		<circle class="st3" cx="977.1" cy="913" r="41.6"/>
		<path class="st3" d="M1142.1,946.8c-10.5-7.5-17.4-19.9-17.4-33.8c0-13.9,6.8-26.2,17.3-33.8"/>
		<rect x="738.1" y="821.3" class="st3" width="75.4" height="185.2"/>
		<polyline class="st3" points="738.1,871.9 762.8,871.9 762.8,955.9 738.1,955.9 		"/>
		<path class="st3" d="M813.4,880.5c10.5,7.5,16.7,19.4,16.7,33.3c0,13.9-6.2,25.8-16.7,33.3"/>
		<circle class="st1" cx="976.4" cy="913.4" r="2.1"/>
		<path class="st3" d="M1206.9,1067.8c0-5.6,4.6-10.2,10.2-10.2"/>
		<path class="st3" d="M1217.1,766.9c-5.6,0-10.2-4.6-10.2-10.2"/>
		<path class="st3" d="M738,1057.6c5.6,0,10.2,4.6,10.2,10.2"/>
		<path class="st3" d="M748.3,756.7c0,5.6-4.6,10.2-10.2,10.2"/>
		<rect x="1217.1" y="895.6" class="st3" width="8.6" height="35.5"/>
		<rect x="729.5" y="895.6" class="st3" width="8.6" height="35.5"/>
		<polyline class="st4" points="748.8,943.1 748.8,905.5 738.6,895.3 738.6,931.6 728.9,931.6 740.2,943.1 748.8,943.1 		"/>
		<polyline class="st4" points="1236.4,942.9 1236.4,905.2 1226.3,895 1226.3,931.4 1216.6,931.4 1227.8,942.9 1236.4,942.9 		"/>
	</g>
	<path class="st5" d="M1020.5,1476.2h-93.2c-309.1,0-559.7-250.6-559.7-559.7v0c0-309.1,250.6-559.7,559.7-559.7h93.2
		c309.1,0,559.7,250.6,559.7,559.7v0C1580.2,1225.6,1329.6,1476.2,1020.5,1476.2z"/>
	<g>
		<g>
			<g>
				
					<rect x="724.6" y="460.3" transform="matrix(0.987 -0.1609 0.1609 0.987 -66.1901 124.2114)" class="st0" width="18.4" height="20.9"/>
				<g>
					<g>
						<polyline class="st6" points="732.9,475.1 734.4,476.1 735.5,474.7 						"/>
					</g>
					<line class="st6" x1="734.4" y1="476.1" x2="732.8" y2="465.4"/>
				</g>
			</g>
			<g>
				
					<rect x="705.6" y="463.5" transform="matrix(-0.987 0.1609 -0.1609 -0.987 1496.6392 826.7105)" class="st0" width="18.4" height="20.9"/>
				<g>
					<g>
						<polyline class="st6" points="715.8,469.7 714.3,468.6 713.2,470 						"/>
					</g>
					<line class="st6" x1="714.3" y1="468.6" x2="715.9" y2="479.3"/>
				</g>
			</g>
		</g>
		<g>
			<g>
				<g>
					
						<rect x="668.7" y="457.9" transform="matrix(-0.7231 0.6907 -0.6907 -0.7231 1484.4965 341.602)" class="st0" width="10.2" height="20.9"/>
					<g>
						<g>
							<polyline class="st6" points="672.1,464.3 670.2,464.3 670.1,466.1 							"/>
						</g>
						<line class="st6" x1="670.2" y1="464.3" x2="677.6" y2="472.2"/>
					</g>
				</g>
			</g>
			<g>
				<g>
					
						<rect x="676.3" y="450.6" transform="matrix(-0.7231 0.6907 -0.6907 -0.7231 1492.6202 323.7852)" class="st0" width="10.2" height="20.9"/>
					<g>
						<g>
							<polyline class="st6" points="683.4,464.9 685.3,464.9 685.4,463.1 							"/>
						</g>
						<line class="st6" x1="685.3" y1="464.9" x2="677.8" y2="457"/>
					</g>
				</g>
			</g>
		</g>
		<g>
			<g>
				
					<rect x="1230.2" y="464" transform="matrix(0.9837 0.1798 -0.1798 0.9837 105.4945 -215.0998)" class="st0" width="18.4" height="20.9"/>
				<g>
					<g>
						<polyline class="st6" points="1238.5,470.2 1240.1,469.1 1241.2,470.6 						"/>
					</g>
					<line class="st6" x1="1240.1" y1="469.1" x2="1238.3" y2="479.8"/>
				</g>
			</g>
			<g>
				
					<rect x="1211.3" y="460.5" transform="matrix(-0.9837 -0.1798 0.1798 -0.9837 2336.4634 1153.63)" class="st0" width="18.4" height="20.9"/>
				<g>
					<g>
						<polyline class="st6" points="1221.4,475.2 1219.8,476.3 1218.7,474.8 						"/>
					</g>
					<line class="st6" x1="1219.8" y1="476.3" x2="1221.7" y2="465.6"/>
				</g>
			</g>
		</g>
		<g>
			<g>
				
					<rect x="723.5" y="1344.7" transform="matrix(0.987 0.1609 -0.1609 0.987 227.6031 -100.2334)" class="st0" width="18.4" height="20.9"/>
				<g>
					<g>
						<polyline class="st6" points="731.7,1351 733.3,1349.9 734.4,1351.3 						"/>
					</g>
					<line class="st6" x1="733.3" y1="1349.9" x2="731.6" y2="1360.6"/>
				</g>
			</g>
			<g>
				
					<rect x="704.5" y="1341.6" transform="matrix(-0.987 -0.1609 0.1609 -0.987 1200.5345 2801.3367)" class="st0" width="18.4" height="20.9"/>
				<g>
					<g>
						<polyline class="st6" points="714.7,1356.3 713.1,1357.4 712,1356 						"/>
					</g>
					<line class="st6" x1="713.1" y1="1357.4" x2="714.8" y2="1346.7"/>
				</g>
			</g>
		</g>
		<g>
			<g>
				
					<rect x="1231.1" y="1339.5" transform="matrix(0.9856 -0.169 0.169 0.9856 -210.3088 229.0314)" class="st0" width="18.4" height="20.9"/>
				<g>
					<g>
						<polyline class="st6" points="1239.3,1354.2 1240.9,1355.3 1242,1353.9 						"/>
					</g>
					<line class="st6" x1="1240.9" y1="1355.3" x2="1239.1" y2="1344.6"/>
				</g>
			</g>
			<g>
				
					<rect x="1212.1" y="1342.8" transform="matrix(-0.9856 0.169 -0.169 -0.9856 2653.7095 2480.6436)" class="st0" width="18.4" height="20.9"/>
				<g>
					<g>
						<polyline class="st6" points="1222.2,1349 1220.7,1347.9 1219.6,1349.4 						"/>
					</g>
					<line class="st6" x1="1220.7" y1="1347.9" x2="1222.4" y2="1358.6"/>
				</g>
			</g>
		</g>
		<g>
			<g>
				
					<rect x="436.8" y="714" transform="matrix(0.1369 -0.9906 0.9906 0.1369 -332.7885 1067.0436)" class="st0" width="18.4" height="20.9"/>
				<g>
					<g>
						<polyline class="st6" points="449.7,726.7 451.2,725.5 450.2,724 						"/>
					</g>
					<line class="st6" x1="451.2" y1="725.5" x2="440.5" y2="723.9"/>
				</g>
			</g>
			<g>
				
					<rect x="434.2" y="733.1" transform="matrix(-0.1369 0.9906 -0.9906 -0.1369 1240.6697 406.2129)" class="st0" width="18.4" height="20.9"/>
				<g>
					<g>
						<polyline class="st6" points="439.6,741.4 438.1,742.6 439.1,744.1 						"/>
					</g>
					<line class="st6" x1="438.1" y1="742.6" x2="448.8" y2="744.1"/>
				</g>
			</g>
		</g>
		<g>
			<g>
				
					<rect x="436.2" y="1068.5" transform="matrix(-0.1587 -0.9873 0.9873 -0.1587 -549.2393 1690.0142)" class="st0" width="18.4" height="20.9"/>
				<g>
					<g>
						<polyline class="st6" points="449.7,1080 450.8,1078.4 449.3,1077.3 						"/>
					</g>
					<line class="st6" x1="450.8" y1="1078.4" x2="440.1" y2="1080.1"/>
				</g>
			</g>
			<g>
				
					<rect x="439.3" y="1087.5" transform="matrix(0.1587 0.9873 -0.9873 0.1587 1461.4434 480.921)" class="st0" width="18.4" height="20.9"/>
				<g>
					<g>
						<polyline class="st6" points="444.3,1097 443.2,1098.6 444.6,1099.7 						"/>
					</g>
					<line class="st6" x1="443.2" y1="1098.6" x2="453.9" y2="1097"/>
				</g>
			</g>
		</g>
		<g>
			<g>
				
					<rect x="1498.3" y="1087.8" transform="matrix(-0.1587 0.9873 -0.9873 -0.1587 2831.0757 -215.7602)" class="st0" width="18.4" height="20.9"/>
				<g>
					<g>
						<polyline class="st6" points="1511.7,1097.3 1512.8,1098.9 1511.4,1100 						"/>
					</g>
					<line class="st6" x1="1512.8" y1="1098.9" x2="1502.1" y2="1097.2"/>
				</g>
			</g>
			<g>
				
					<rect x="1501.4" y="1068.8" transform="matrix(0.1587 -0.9873 0.9873 0.1587 205.2359 2399.4355)" class="st0" width="18.4" height="20.9"/>
				<g>
					<g>
						<polyline class="st6" points="1506.3,1080.3 1505.2,1078.7 1506.7,1077.6 						"/>
					</g>
					<line class="st6" x1="1505.2" y1="1078.7" x2="1515.9" y2="1080.3"/>
				</g>
			</g>
		</g>
		<g>
			<g>
				
					<rect x="1502.6" y="732.7" transform="matrix(0.1323 0.9912 -0.9912 0.1323 2048.3113 -853.6803)" class="st0" width="18.4" height="20.9"/>
				<g>
					<g>
						<polyline class="st6" points="1515.6,741 1517.1,742.1 1516,743.6 						"/>
					</g>
					<line class="st6" x1="1517.1" y1="742.1" x2="1506.3" y2="743.7"/>
				</g>
			</g>
			<g>
				
					<rect x="1500.1" y="713.6" transform="matrix(-0.1323 -0.9912 0.9912 -0.1323 991.3395 2315.8567)" class="st0" width="18.4" height="20.9"/>
				<g>
					<g>
						<polyline class="st6" points="1505.5,726.2 1504,725 1505,723.6 						"/>
					</g>
					<line class="st6" x1="1504" y1="725" x2="1514.7" y2="723.5"/>
				</g>
			</g>
		</g>
		<g>
			<g>
				<g>
					
						<rect x="1273" y="452.8" transform="matrix(-0.7231 -0.6907 0.6907 -0.7231 1882.3599 1681.1241)" class="st0" width="10.2" height="20.9"/>
					<g>
						<g>
							<polyline class="st6" points="1276.5,467.3 1274.6,467.3 1274.5,465.5 							"/>
						</g>
						<line class="st6" x1="1274.6" y1="467.3" x2="1282" y2="459.5"/>
					</g>
				</g>
			</g>
			<g>
				<g>
					
						<rect x="1280.7" y="460.1" transform="matrix(-0.7231 -0.6907 0.6907 -0.7231 1890.4835 1698.9408)" class="st0" width="10.2" height="20.9"/>
					<g>
						<g>
							<polyline class="st6" points="1287.7,466.7 1289.6,466.7 1289.7,468.5 							"/>
						</g>
						<line class="st6" x1="1289.6" y1="466.7" x2="1282.2" y2="474.6"/>
					</g>
				</g>
			</g>
		</g>
	</g>
	<g>
		<path class="st1" d="M775.8,588.2h403.9c51.9,0,100.8,20.3,137.7,57.3c36.9,36.9,57.3,85.8,57.3,137.7V1040
			c0,51.9-20.3,100.8-57.3,137.7c-36.9,36.9-85.8,57.3-137.7,57.3H775.8c-51.9,0-100.8-20.3-137.7-57.3
			c-36.9-36.9-57.3-85.8-57.3-137.7V783.2c0-51.9,20.3-100.8,57.3-137.7C675,608.6,723.9,588.2,775.8,588.2z M1179.8,1230
			c104.8,0,190-85.2,190-190V783.2c0-104.8-85.2-190-190-190h-404c-104.8,0-190,85.2-190,190V1040c0,104.8,85.2,190,190,190
			L1179.8,1230L1179.8,1230z"/>
	</g>
</g>
</svg>
