<?xml version="1.0" encoding="utf-8"?>
<!-- Generator: Adobe Illustrator 20.1.0, SVG Export Plug-In . SVG Version: 6.00 Build 0)  -->
<svg version="1.1" id="svg-service-1" xmlns="http://www.w3.org/2000/svg" xmlns:xlink="http://www.w3.org/1999/xlink" x="0px"
	 y="0px" viewBox="0 0 1954 1790.7" style="enable-background:new 0 0 1954 1790.7;" xml:space="preserve">

<g id="Plan">
	<g id="base-1">
			<rect x="451.5" y="1418.3" transform="matrix(0.5324 -0.8465 0.8465 0.5324 -994.5584 1068.3767)" class="st0" width="36.6" height="32.3"/>
		<path class="st0" d="M609.3,1440.2l36.3-56.5l-57.8-40.9c0,0-103.4,160.8-103.5,160.8s33.5,18.2,33.5,18.2l12.6-18.9l40.9,25.2
			l-7.5,11.7l10.6,5.2c0,0,44.7-35,55-52.9c5.8-10,7.4-10.7,7.4-10.7l10-16.2L609.3,1440.2z"/>
		<rect x="906.9" y="1273.1" class="st0" width="58.7" height="31.3"/>
		<path class="st0" d="M1680.7,502.8c0,0-16.8-23.3-43.2-50.1c-27.8-28.3-65.7-61.1-94.5-81.9c-8.3-6-15.1-11.3-21.6-14.9
			l-42.1,58.1l47.3,45.5l50,62.1l19,31.3h1.9L1680.7,502.8z"/>
		<polygon class="st1" points="746.2,1260.1 744.8,1269.7 743.8,1276.9 744.8,1269.8 		"/>
		<polygon class="st1" points="897.5,1238.3 897.5,1238.3 895.5,1238.3 895.5,1238.3 896.5,1238.3 		"/>
		<path class="st2" d="M1319.3,645.8l0.5,0.5l0,0C1319.7,646.1,1319.4,645.9,1319.3,645.8L1319.3,645.8z"/>
		<polygon class="st3" points="541.3,755.7 548.2,756.6 557.7,757.9 548.3,756.6 		"/>
		<polygon class="st4" points="541.3,755.7 548.2,756.6 557.7,757.9 548.3,756.6 		"/>
		<rect x="727.9" y="745.7" class="st5" width="500" height="332"/>
		<rect x="738.3" y="756.7" class="st6" width="479" height="311.1"/>
		<line class="st6" x1="976.8" y1="1067.3" x2="976.8" y2="757.2"/>
		<rect x="1141.9" y="820.2" class="st6" width="75.4" height="185.2"/>
		<polyline class="st6" points="1217.8,954.8 1192.6,954.8 1192.6,870.8 1217.8,870.8 		"/>
		<circle class="st6" cx="977.3" cy="912.9" r="41.6"/>
		<path class="st6" d="M1142.3,946.8c-10.5-7.5-17.4-19.9-17.4-33.8c0-13.9,6.8-26.2,17.3-33.8"/>
		<rect x="738.3" y="821.3" class="st6" width="75.4" height="185.2"/>
		<polyline class="st6" points="738.3,871.9 763,871.9 763,955.9 738.3,955.9 		"/>
		<path class="st6" d="M813.7,880.4c10.5,7.5,16.7,19.4,16.7,33.3c0,13.9-6.2,25.8-16.7,33.3"/>
		<circle class="st1" cx="976.7" cy="913.3" r="2.1"/>
		<g>
			<path class="st7" d="M713.7,1190.7"/>
		</g>
		<path class="st7" d="M710.7,773.6"/>
		<path class="st8" d="M978.8,733.7"/>
		<g>
			<path class="st7" d="M1224.8,703.2"/>
		</g>
		<g class="st9">
			<polygon class="st8" points="675.8,697 675.3,696.5 675.8,697 676.5,697.6 			"/>
		</g>
		<g class="st10">
			<polygon class="st8" points="675.8,697 675.3,696.5 675.8,697 676.5,697.6 			"/>
		</g>
		<g class="st9">
			<polygon class="st8" points="1258.8,734.5 1258.8,734.5 1258.8,734.5 			"/>
		</g>
		<g class="st10">
			<polygon class="st8" points="1258.8,734.5 1258.8,734.5 1258.8,734.5 			"/>
		</g>
		<g class="st9">
			<polygon class="st8" points="1258.8,734.5 1258.8,734.5 1258.8,734.5 			"/>
		</g>
		<polygon class="st8" points="711,774.9 711,774.9 711.5,775 		"/>
		<polygon class="st11" points="711,774.9 711,774.9 711.5,775 		"/>
		<path class="st12" d="M632.5,1325.1c-0.1,0-0.2-0.1-0.3-0.1l0,0L632.5,1325.1L632.5,1325.1z"/>
		<path class="st12" d="M632.5,1325.1c-0.1,0-0.2-0.1-0.3-0.1v-0.2L632.5,1325.1L632.5,1325.1z"/>
		<path class="st13" d="M1235.4,715.9"/>
		<path class="st14" d="M1223.8,1120.4L1223.8,1120.4l1.1,1.8L1223.8,1120.4z"/>
		<path class="st1" d="M1224.6,1117.8l-1.7,1.1l0.9,1.5c0.4-0.2,1-0.4,1.8-0.8L1224.6,1117.8z"/>
		<path class="st1" d="M1261.8,1180.7c-0.1,0-0.2,0.1-0.3,0.1l0.4,0.6l1.7-1.1l-0.2-0.4C1262.9,1180.2,1262.4,1180.5,1261.8,1180.7
			L1261.8,1180.7z"/>
		<path class="st1" d="M1247.6,1158.3l14.1,22.5c0.1,0,0.2-0.1,0.3-0.1L1247.6,1158.3z"/>
		<polygon class="st8" points="977.3,1111.5 977.3,1111.5 977.3,1111.7 977.3,1111.7 		"/>
		<path class="st2" d="M636.8,1327.2c0.5,0.2,1,0.5,1.4,0.7c1,0.5,1.9,0.9,2.9,1.4c0.1,0,0.2,0.1,0.3,0.1l-8.9-4.4l0,0
			C634,1325.8,635.5,1326.5,636.8,1327.2z"/>
		<path class="st14" d="M1205.3,589.4c0.2,0,0.5,0.1,0.7,0.1L1205.3,589.4L1205.3,589.4z"/>
		<path class="st14" d="M641.8,1329.6L641.8,1329.6C641.8,1329.6,641.8,1329.6,641.8,1329.6L641.8,1329.6z"/>
		<path class="st14" d="M641.5,1329.4l0.2,0.1c0.1,0,0.1,0.1,0.2,0.1l0.3,0.1C642,1329.7,641.7,1329.6,641.5,1329.4z"/>
		<path class="st14" d="M641.8,1329.6c0.3,0.2,0.7,0.3,1,0.5c-0.2-0.1-0.5-0.2-0.7-0.3L641.8,1329.6z"/>
		<path class="st14" d="M641.2,1329.3c0.2,0.1,0.3,0.2,0.5,0.2l-0.2-0.1C641.3,1329.4,641.3,1329.4,641.2,1329.3z"/>
		<path class="st14" d="M636.8,1327.2c-1.4-0.7-2.9-1.4-4.3-2.2C634,1325.8,635.5,1326.5,636.8,1327.2z"/>
		<path class="st14" d="M641.2,1329.3c-1-0.5-1.9-0.9-2.9-1.4C639.3,1328.4,640.3,1328.8,641.2,1329.3z"/>
		<path class="st14" d="M638.3,1327.9c-0.5-0.2-1-0.5-1.4-0.7C637.3,1327.4,637.8,1327.7,638.3,1327.9z"/>
		<polygon class="st14" points="632.5,1325 632.3,1324.9 632.5,1325.1 		"/>
		<path class="st1" d="M1206.2,589.6L1206.2,589.6c-0.1,0-0.1,0-0.2,0H1206.2z"/>
		<path class="st1" d="M1357.6,605.9l-0.2-0.2c0.2,0.2,0.4,0.4,0.5,0.6l0.1-0.1L1357.6,605.9z"/>
		<polygon class="st1" points="541.3,755.7 548.2,756.6 557.7,757.9 548.3,756.6 		"/>
		<polygon class="st1" points="456.5,995.3 455.5,995.3 455.5,997.3 456.5,997.3 456.5,996.3 		"/>
		<polygon class="st1" points="578.5,997.3 578.8,997.3 578.8,995.3 578.5,995.3 578.5,996.3 		"/>
		<polygon class="st15" points="578.5,913.3 578.5,914.3 579.5,914.3 579.5,912.3 578.5,912.3 		"/>
		<path class="st15" d="M579.3,1064.9c0,0.3,0.1,0.5,0.1,0.8l0.4-0.1l-0.1-1l-0.4,0.1C579.3,1064.7,579.3,1064.8,579.3,1064.9z"/>
		<path class="st13" d="M773.3,441.8"/>
		<path class="st13" d="M440.4,710.6"/>
		<path class="st13" d="M1502.9,747.9"/>
		<path class="st6" d="M1207.1,1067.8c0-5.6,4.6-10.2,10.2-10.2"/>
		<path class="st6" d="M1217.3,766.9c-5.6,0-10.2-4.6-10.2-10.2"/>
		<path class="st6" d="M738.3,1057.6c5.6,0,10.2,4.6,10.2,10.2"/>
		<path class="st6" d="M748.5,756.7c0,5.6-4.6,10.2-10.2,10.2"/>
		<path class="st1" d="M1319.8,646.3l-0.5-0.5l0,0C1319.4,645.9,1319.7,646.1,1319.8,646.3L1319.8,646.3z"/>
		<path class="st1" d="M1268.8,609.1L1268.8,609.1L1268.8,609.1L1268.8,609.1L1268.8,609.1z"/>
		<path class="st1" d="M1268.8,609.1L1268.8,609.1L1268.8,609.1z"/>
		<path class="st7" d="M1225.2,1122"/>
		<path class="st7" d="M1497.9,1001.9"/>
		<path class="st7" d="M1424.8,1241.2"/>
		<path class="st1" d="M1205.7,1237L1205.7,1237l-0.7,0.1l0,0C1205.2,1237.1,1205.3,1237.1,1205.7,1237z"/>
		<path class="st2" d="M1204.9,1237.1c-0.3,0-0.6,0.1-0.9,0.1l0,0L1204.9,1237.1z"/>
		<polygon class="st1" points="1141.4,1238.3 1141.4,1238.3 1139.4,1238.3 1139.4,1238.3 1140.4,1238.3 		"/>
		<polygon class="st1" points="1067.3,1238.3 1067.3,1238 1065.3,1238 1065.3,1238.3 1066.4,1238.3 		"/>
		<path class="st15" d="M1229.7,1381.9"/>
		<line class="st15" x1="1210.3" y1="1353.4" x2="1207.4" y2="1353.9"/>
		<line class="st13" x1="1433.4" y1="1262.5" x2="1433.4" y2="1262.5"/>
		<path class="st13" d="M1412.8,1283.4"/>
		<path class="st7" d="M454.9,1003.9"/>
		<path class="st7" d="M528,1243.2"/>
		<path class="st8" d="M629.8,1328.7"/>
		<path class="st16" d="M753.7,1204"/>
		<path class="st1" d="M747.2,1239L747.2,1239l0.7,0.1l0,0C747.7,1239.1,747.5,1239.1,747.2,1239z"/>
		<path class="st2" d="M747.8,1239.1c0.3,0,0.6,0.1,0.9,0.1l0,0L747.8,1239.1z"/>
		<polygon class="st1" points="811.3,1240.3 811.3,1240.3 813.3,1240.3 813.3,1240.3 812.3,1240.3 		"/>
		<line class="st13" x1="519.3" y1="1264.5" x2="519.3" y2="1264.5"/>
		<path class="st13" d="M540,1285.4"/>
		<path class="st7" d="M729.7,704.1"/>
		<path class="st7" d="M456.9,824.2"/>
		<path class="st7" d="M530,584.9"/>
		<path class="st8" d="M631.8,499.4"/>
		<path class="st16" d="M755.7,624"/>
		<path class="st1" d="M492.6,641.9c0.1-0.3,0.3-0.5,0.4-0.8c-0.5-0.2-0.6-0.2-0.7-0.1L492.6,641.9L492.6,641.9l-0.1,0.3"/>
		<path class="st1" d="M749.2,589L749.2,589l0.7-0.1l0,0C749.7,589,749.5,589,749.2,589z"/>
		<path class="st2" d="M749.8,588.9c0.3,0,0.6-0.1,0.9-0.1l0,0L749.8,588.9z"/>
		<path class="st13" d="M725.2,444.2"/>
		<path class="st13" d="M542,542.6"/>
		<polygon class="st1" points="921,412.6 920.5,412.9 919.8,413.2 919.8,412.6 919.8,412 920.5,412.3 		"/>
		<line class="st17" x1="919.8" y1="412.6" x2="907.5" y2="412.6"/>
		<g>
			<path class="st13" d="M451.3,782.1"/>
			<path class="st18" d="M453,776.9"/>
		</g>
		<path class="st7" d="M1225.2,707.1"/>
		<path class="st7" d="M1497.9,827.2"/>
		<path class="st7" d="M1424.8,587.9"/>
		<path class="st15" d="M1462.2,644.9c-0.1-0.3-0.3-0.5-0.4-0.8c0.5-0.2,0.6-0.2,0.7-0.1L1462.2,644.9L1462.2,644.9l0.1,0.3"/>
		<path class="st1" d="M1205.7,592L1205.7,592l-0.7-0.1l0,0C1205.2,592,1205.3,592,1205.7,592z"/>
		<path class="st2" d="M1204.9,591.9c-0.3,0-0.6-0.1-0.9-0.1l0,0L1204.9,591.9z"/>
		<path class="st13" d="M1229.7,447.2"/>
		<path class="st13" d="M1412.8,545.6"/>
		<polygon class="st1" points="1033.8,415.6 1034.3,415.9 1034.8,416.2 1034.8,415.6 1034.8,415 1034.3,415.3 		"/>
		<line class="st17" x1="1034.8" y1="415.6" x2="1047.3" y2="415.6"/>
		<polyline class="st19" points="749,943.1 749,905.4 738.8,895.2 738.8,931.6 729.2,931.6 740.3,943.1 749,943.1 		"/>
		<rect x="1217.3" y="895.5" class="st6" width="8.6" height="35.5"/>
		<polyline class="st19" points="1236.7,942.9 1236.7,905.2 1226.4,895 1226.4,931.4 1216.8,931.4 1228.1,942.9 1236.7,942.9 		"/>
		<rect x="729.7" y="895.6" class="st6" width="8.6" height="35.5"/>
		<polygon class="st14" points="881.3,731.3 881.3,731.3 881.3,731.3 		"/>
		<path class="st14" d="M1244.1,716.8c0.1,0.1,0.1,0.1,0.2,0.2C1244.2,716.8,1243.9,716.6,1244.1,716.8z"/>
		<path class="st14" d="M1234.9,687.3l-10.4,15.7c0,0,0,0,0.1,0l7.9-12.1L1234.9,687.3z"/>
		<path class="st1" d="M1258.8,734.5l60.4-38.8c0,0,0,0,0-0.1L1258.8,734.5L1258.8,734.5z"/>
		<path class="st1" d="M1244.3,717.1l-0.2-0.2C1244.2,717,1244.2,717.1,1244.3,717.1z"/>
		<path class="st1" d="M1243.7,716.6L1243.7,716.6c0.3,0.3,0.5,0.6,0.8,0.8l-0.3-0.3c0,0-0.1-0.1-0.2-0.2
			C1244.1,716.9,1243.7,716.6,1243.7,716.6z"/>
		<path class="st1" d="M1244.1,716.9l0.2,0.2c0.1,0.1,0.1,0,0-0.1C1244.2,716.9,1244.1,716.9,1244.1,716.9
			C1244.1,716.8,1244.1,716.9,1244.1,716.9z"/>
		<path class="st1" d="M1244.1,716.9C1244.1,716.9,1244.1,716.8,1244.1,716.9c-0.3-0.4-0.6-0.6-0.9-0.9c-0.2-0.1-0.3-0.3-0.5-0.4
			c0.3,0.3,0.7,0.6,1,1l0,0L1244.1,716.9z"/>
		<path class="st14" d="M1317.3,1129.9C1317.3,1129.8,1317.3,1129.8,1317.3,1129.9L1317.3,1129.9L1317.3,1129.9z"/>
		<path class="st2" d="M1245.1,1106.3l-1.1,1C1244.3,1107.1,1244.8,1106.7,1245.1,1106.3C1245.1,1106.4,1245.1,1106.4,1245.1,1106.3
			z"/>
		<path class="st2" d="M1245.2,1106.3C1245.2,1106.3,1245.3,1106.3,1245.2,1106.3L1245.2,1106.3L1245.2,1106.3L1245.2,1106.3z"/>
		<path class="st14" d="M1245.8,1105.6c-0.2,0.2-0.3,0.3-0.5,0.5l-0.2,0.2h0.1C1245.4,1106.1,1245.7,1105.8,1245.8,1105.6z"/>
		<path class="st2" d="M1245.2,1106.4L1245.2,1106.4L1245.2,1106.4L1245.2,1106.4z"/>
		<path class="st2" d="M1245.2,1106.3L1245.2,1106.3L1245.2,1106.3L1245.2,1106.3z"/>
		<path class="st14" d="M1245.2,1106.3L1245.2,1106.3L1245.2,1106.3L1245.2,1106.3C1245.1,1106.4,1245.1,1106.4,1245.2,1106.3
			C1245.2,1106.4,1245.2,1106.4,1245.2,1106.3z"/>
		<path class="st14" d="M1246.1,1106.3"/>
		<path class="st14" d="M1245.2,1106.4"/>
		<path class="st14" d="M1245.2,1106.3"/>
		<path class="st1" d="M1317.7,1129.4L1317.7,1129.4c-0.1,0.2-0.2,0.3-0.3,0.5L1317.7,1129.4z"/>
		<path class="st1" d="M1244.1,1107.4L1244.1,1107.4L1244.1,1107.4L1244.1,1107.4z"/>
		<path class="st1" d="M1245.1,1106.3L1245.1,1106.3L1245.1,1106.3L1245.1,1106.3z"/>
		<path class="st1" d="M1346.4,786.3L1346.4,786.3L1346.4,786.3L1346.4,786.3z"/>
		<rect x="880.3" y="731.3" class="st1" width="1" height="2.4"/>
		<path class="st1" d="M728.2,703.6"/>
		<path class="st14" d="M731.8,701.5l6.9-3.8C737,698.5,734.5,699.8,731.8,701.5z"/>
		<polygon class="st14" points="795.5,618.3 795.5,618.3 793.5,618.3 793.5,618.3 794.5,618.3 		"/>
		<path class="st14" d="M729.3,702.8L729.3,702.8c0.9-0.4,1.6-0.9,2.4-1.3L729.3,702.8z"/>
		<path class="st14" d="M1243.2,1100"/>
		<path class="st20" d="M1260.4,736.1"/>
		<path class="st20" d="M1226.3,704.5"/>
		<path class="st14" d="M715.5,1111.3"/>
		<path class="st14" d="M1257.7,1091.1"/>
		<path class="st14" d="M1224.3,1119.8"/>
		<polyline class="st21" points="786.5,572 786.5,568.7 785.8,568.7 786.5,572 		"/>
		<polyline class="st21" points="1247.4,583.6 1248.7,580.3 1247.7,580 1247.4,583.6 		"/>
		<polyline class="st21" points="1307.1,615.5 1309.3,612.3 1308.4,611.7 1307.1,615.5 		"/>
		<polyline class="st21" points="1354.1,664.3 1357.4,662 1356.8,661 1354.1,664.3 		"/>
		<polyline class="st15" points="1392.4,798.9 1397.1,798.9 1397.1,797.6 1392.4,798.9 		"/>
		<polyline class="st21" points="1027.9,1258.3 1027.8,1258.4 1024.3,1258.4 1027.9,1253.4 		"/>
		<path class="st22" d="M513.8,1252.4"/>
		<path class="st22" d="M540,1230.5"/>
		<path class="st0" d="M871,308.3l-0.4-4c23.3-2.1,46.9-3.4,70.2-4.1l0.1,4C917.8,304.9,894.3,306.3,871,308.3z"/>
		<path class="st0" d="M1082.3,308.8c-23.5-2.2-47.3-3.7-70.8-4.4l0.1-4c23.5,0.8,47.4,2.2,71,4.4L1082.3,308.8z"/>
		<path class="st0" d="M992.5,303.9c-2.5,0-5-0.1-7.6-0.1v-4c2.5,0,5.1,0.1,7.6,0.1V303.9z"/>
		<path class="st0" d="M959.5,303.9l-0.1-4c2.3,0,4.6-0.1,6.9-0.1v4C964.3,303.8,961.8,303.8,959.5,303.9z"/>
		<path class="st22" d="M1255.7,719.5"/>
		<path class="st22" d="M824.7,273"/>
		<path class="st22" d="M1128.7,272.9"/>
		<path class="st22" d="M1088.7,307.4"/>
		<path class="st22" d="M938.8,265.7"/>
		<path class="st0" d="M836,309.9l-6.4-39.8l2.1-0.2c6.8-0.7,27.1-2.2,39.4-2.9v-2.9l-4.2-112.7l69-3.5l1.9,50.2l33.2-0.6l0.1,4
			l-37.1,0.6L932,152l-61,3l4.1,108.8v6.8l-1.9,0.1c-10.9,0.6-30.3,2-39,2.8l5.7,35.6L836,309.9z"/>
		<path class="st0" d="M1123.1,276.5c-4.6-0.5-11.5-1.6-18.8-2.8c-8.9-1.4-18.2-2.9-23.9-3.4l-1.8-0.1v-6.1l1.9-107.3l-61-3l-0.9,47
			l-38.1,0.6l-0.1-4l34.2-0.6l0.9-47.3l69,3.5l-2,111.1v2.4c5.9,0.6,14.3,1.9,22.4,3.2c7.2,1.2,14.1,2.3,18.6,2.7L1123.1,276.5z"/>
		<path class="st0" d="M1243.7,1499l-1.4-3.8c60.6-22.3,113.4-52.1,161.3-90.9l2.5,3.1C1357.8,1446.5,1304.7,1476.5,1243.7,1499z"/>
		<path class="st0" d="M977.5,1543.6c-86.1,0-166.5-11.6-238.8-34.4l1.2-3.8c72,22.7,151.9,34.2,237.6,34.2
			c85.5,0,165.4-11.7,237.4-34.7l1.2,3.8C1143.7,1531.8,1063.3,1543.6,977.5,1543.6z"/>
		<path class="st22" d="M708.3,1496.7"/>
		<path class="st22" d="M335.3,1274.9"/>
		<path class="st0" d="M455,1486.9c-54.7-31.5-136.8-110.1-137.6-110.9l-0.4-0.4l70.7-67l0.7,0.7l-70,66.3
			c6.1,5.9,84.3,80,137,110.4L455,1486.9z"/>
		<path class="st0" d="M514.5,411.5l-1.9-3.5c58.2-31.6,181.4-87.1,352-103.1l0.4,4C695,324.8,572.3,380,514.5,411.5z"/>
		<path class="st22" d="M1245.3,718.6"/>
		<path class="st15" d="M1476.1,718.6"/>
		<path class="st22" d="M1627.7,1015.1"/>
		<path class="st22" d="M1243.9,1106.8"/>
		<rect x="708.3" y="716" class="st0" width="4" height="383.8"/>
		<polygon class="st0" points="746.8,732.9 728.5,703.5 731.8,701.4 749,728.9 1203.6,728.8 1221.8,701.9 1225.1,704.1 
			1205.7,732.8 		"/>
		<polygon class="st0" points="1245.9,1107.9 1241.9,1107.9 1241.9,719.4 1241.2,718.5 1244.2,715.8 1245.9,717.8 		"/>
		<path class="st0" d="M669.5,1624.9l-0.5-0.9c20.1-12,27.7-26.4,27.8-26.6l42.5-91.7l0.9,0.4l-42.5,91.8
			C697.8,1598,690,1612.7,669.5,1624.9z"/>
		<path class="st0" d="M646,1611.1l-0.5-0.8c14.7-9.6,18.9-18.5,19-18.5l44.5-98.5l0.9,0.4l-44.5,98.5
			C665.2,1592.5,660.8,1601.3,646,1611.1z"/>
		<path class="st0" d="M1282.3,1624.9c-20.4-12.2-28.1-26.8-28.2-27l-40.1-92.7l0.9-0.4l40.1,92.6c0.1,0.1,7.7,14.6,27.8,26.6
			L1282.3,1624.9z"/>
		<path class="st0" d="M1305.9,1611.4c-15.1-10.3-19.1-18.9-19.2-19.3l-44.2-96.3l0.9-0.4l44.2,96.3c0,0.1,4,8.8,18.9,18.8
			L1305.9,1611.4z"/>
		<path class="st0" d="M594.5,370.2l-14.9-39.5c-5.9,2.5-46.6,19.9-46.6,19.9l-0.4,0.2l-19-40.3c-3,1.2-21,8.9-50.8,26.7l-0.5-0.9
			c32.7-19.6,51.2-26.9,51.4-27l0.4-0.2l19,40.3c4.6-2,43.3-18.5,46.6-19.9l0.5-0.2l15.3,40.4L594.5,370.2z"/>
		<path class="st0" d="M707.5,1498.5c-1-0.5-104.9-50.8-155.1-100.6l2.8-2.8c49.8,49.3,153,99.3,154.1,99.8L707.5,1498.5z"/>
		<path class="st0" d="M655.7,1467.5l-0.9-0.5l36.6-66l6.5,4.5l29.1-50.1c-37-18.6-74.4-50.5-78.7-54.2l-5.3,6.9l-21.5-17.8
			l-65.3,103.4l-0.8-0.5l65.9-104.3l21.6,17.9l5.3-6.9l0.4,0.4c0.4,0.3,40.2,35,79.4,54.6l0.5,0.2l-30.2,51.9l-6.5-4.5L655.7,1467.5
			z"/>
		
			<rect x="401.5" y="1477.3" transform="matrix(0.5475 -0.8368 0.8368 0.5475 -1010.1335 1087.5708)" class="st0" width="198.1" height="1"/>
		<path class="st0" d="M1377.3,1542.1l-0.2-0.1c-0.4-0.2-40-21.5-70-72.8l0.9-0.5c28.8,49.4,66.6,70.8,69.4,72.3
			c27.2-7.1,88-40,88.6-40.3l0.5,0.9c-0.6,0.3-61.8,33.4-89,40.4L1377.3,1542.1z"/>
		<path class="st0" d="M1497.9,1482.9l-0.5-0.9c90.8-51.3,157.2-127.5,196.8-182.4c40.6-56.3,62.3-102.3,64.7-107.5l-147-50.3
			l0.3-0.9l148,50.6l-0.2,0.5c-0.2,0.5-22,48.6-65.1,108.2C1655.3,1355.2,1588.9,1431.6,1497.9,1482.9z"/>
		<path class="st0" d="M1461.9,1428.5l-0.5-0.9c128.5-79,206.1-206.8,233.4-258.1l0.9,0.5c-15.2,28.4-41.1,72.1-78.4,118.5
			C1570.3,1346.9,1518.1,1394,1461.9,1428.5z"/>
		<path class="st0" d="M1449.3,1408.6l-0.5-0.8c89.1-57.1,163.2-140.2,220.2-247l0.9,0.5C1612.8,1268.1,1538.6,1351.4,1449.3,1408.6
			z"/>
		<polygon class="st0" points="1431.9,1382.2 1356.7,1262.4 1366.7,1254.1 1301.9,1187.5 1243.6,1107.1 1244.3,1106.5 
			1302.8,1186.8 1368.1,1254.2 1357.9,1262.6 1432.8,1381.6 		"/>
		
			<rect x="1483.2" y="1367" transform="matrix(0.8447 -0.5352 0.5352 0.8447 -552.5316 1021.2398)" class="st0" width="1" height="191.7"/>
		<path class="st0" d="M1444.8,401.7c-60.5-27.4-187.3-75.8-356.8-92.3l0.4-4c170.1,16.6,297.4,65.2,358.1,92.7L1444.8,401.7z"/>
		<path class="st0" d="M1621.4,694.4l-0.7-1.3h-2.2v-1.7l29.8-14.9c-8.5-27.4-21.3-57.8-38.1-90.6l3.6-1.8
			c17.3,33.6,30.4,64.9,38.9,92.9l0.5,1.6L1621.4,694.4z"/>
		<path class="st0" d="M1649.1,671.9l-0.3-0.9l110-39.8c-1.9-4.9-19-46.5-57.2-100.5l0.8-0.6c40.6,57.3,57.4,100.7,57.5,101.2
			l0.2,0.5L1649.1,671.9z"/>
		
			<rect x="1583.7" y="510.8" transform="matrix(0.857 -0.5154 0.5154 0.857 -25.0712 932.3226)" class="st0" width="166.8" height="1"/>
		
			<rect x="488" y="328.6" transform="matrix(0.8198 -0.5726 0.5726 0.8198 -126.1257 347.1171)" class="st0" width="1" height="90.8"/>
		
			<rect x="1598.8" y="542.2" transform="matrix(0.857 -0.5154 0.5154 0.857 -39.0833 944.6)" class="st0" width="166.8" height="1"/>
		<path class="st0" d="M594.8,1266.7L528,1375.3l-72.7-34.3l112.9-100.7C568.3,1240.3,586,1259.4,594.8,1266.7z"/>
		<polygon class="st0" points="1445.9,398.8 1361.2,365.2 1375.6,331.6 1421.8,349.8 1443.1,311 1469.1,324 1491.4,337.2 
			1490.9,338.1 1468.7,324.9 1443.4,312.4 1422.3,351 1421.9,350.9 1376.2,332.9 1362.4,364.7 1446.3,397.8 		"/>
		<path class="st0" d="M579.5,330.3l-63.8-166.1l52.8-21.2l9.5,25.2l-16.4,5.9l56.7,147.8c7.9-2.4,116.6-34.8,175-44.2l-25.7-149.6
			l-15,2.2l-4.2-29l0.5-0.1l52.8-7l36.7,215.3l-1,0.2L800.8,95.3l-51.3,6.8l3.9,27l14.9-2.2l26.1,151.5l-0.5,0.1
			c-60.1,9.5-174.7,44-175.8,44.3l-0.4,0.1l-0.2-0.4l-57.2-149.2l16.4-5.9l-8.8-23.3l-51,20.5l63.4,165.2L579.5,330.3z"/>
		<path class="st0" d="M1376.3,332.4l-0.9-0.3l60.8-166.7l-49-19.6l-8.8,23.3l13.4,4.8l-57.7,149.9l-0.4-0.1
			c-1.1-0.3-112.3-34-172.4-43.5l-0.5-0.1l0.1-0.5l24.3-151.3l13.5,2l3.9-27l-49.8-6.6l-28.9,177.9l-1-0.2L1152,95.5l51.8,6.9
			l-4.2,29l-13.5-2l-24,149.8c58.4,9.3,163.9,41,171.6,43.3l57-148l-13.4-4.8l9.5-25.2l50.8,20.4L1376.3,332.4z"/>
		<path class="st23" d="M1119.4,310.8"/>
		<rect x="1103" y="290" transform="matrix(0.147 -0.9891 0.9891 0.147 667.0855 1357.6458)" class="st0" width="35.5" height="4"/>
		
			<ellipse transform="matrix(0.2119 -0.9773 0.9773 0.2119 911.6068 1450.5101)" class="st14" cx="1355.2" cy="160" rx="1.3" ry="1.3"/>
		
			<ellipse transform="matrix(0.2119 -0.9773 0.9773 0.2119 896.7991 1420.9739)" class="st14" cx="1329.4" cy="154.4" rx="1.3" ry="1.3"/>
		
			<ellipse transform="matrix(0.2119 -0.9773 0.9773 0.2119 881.9353 1391.3253)" class="st14" cx="1303.6" cy="148.8" rx="1.3" ry="1.3"/>
		
			<ellipse transform="matrix(0.2119 -0.9773 0.9773 0.2119 867.0714 1361.6768)" class="st14" cx="1277.8" cy="143.2" rx="1.3" ry="1.3"/>
		
			<ellipse transform="matrix(0.2119 -0.9773 0.9773 0.2119 851.9365 1332.1854)" class="st14" cx="1252" cy="137.9" rx="1.3" ry="1.3"/>
		
			<ellipse transform="matrix(0.2119 -0.9773 0.9773 0.2119 837.2316 1302.4358)" class="st14" cx="1226.2" cy="132.1" rx="1.3" ry="1.3"/>
		<path class="st23" d="M1199.1,130.8"/>
		<path class="st14" d="M1377.8,169.4"/>
		<path class="st14" d="M1285.7,161.6"/>
		
			<ellipse transform="matrix(0.2119 -0.9773 0.9773 0.2119 934.0285 1438.5895)" class="st14" cx="1359" cy="140.2" rx="1.3" ry="1.3"/>
		
			<ellipse transform="matrix(0.2119 -0.9773 0.9773 0.2119 919.1646 1408.941)" class="st14" cx="1333.2" cy="134.6" rx="1.3" ry="1.3"/>
		
			<ellipse transform="matrix(0.2119 -0.9773 0.9773 0.2119 904.3007 1379.2925)" class="st14" cx="1307.4" cy="129" rx="1.3" ry="1.3"/>
		
			<ellipse transform="matrix(0.2119 -0.9773 0.9773 0.2119 889.3246 1349.7002)" class="st14" cx="1281.5" cy="123.4" rx="1.3" ry="1.3"/>
		
			<ellipse transform="matrix(0.2119 -0.9773 0.9773 0.2119 874.302 1320.1525)" class="st14" cx="1255.7" cy="118" rx="1.3" ry="1.3"/>
		
			<ellipse transform="matrix(0.2119 -0.9773 0.9773 0.2119 859.597 1290.4031)" class="st14" cx="1229.9" cy="112.2" rx="1.3" ry="1.3"/>
		<path class="st14" d="M1289.4,141.7"/>
		
			<ellipse transform="matrix(0.9773 -0.2119 0.2119 0.9773 -20.1574 129.4406)" class="st14" cx="593.8" cy="158.8" rx="1.3" ry="1.3"/>
		
			<ellipse transform="matrix(0.9773 -0.2119 0.2119 0.9773 -18.3786 134.8005)" class="st14" cx="619.7" cy="153.1" rx="1.3" ry="1.3"/>
		
			<ellipse transform="matrix(0.9773 -0.2119 0.2119 0.9773 -16.6064 140.1401)" class="st14" cx="645.5" cy="147.5" rx="1.3" ry="1.3"/>
		
			<ellipse transform="matrix(0.9773 -0.2119 0.2119 0.9773 -14.8342 145.4798)" class="st14" cx="671.3" cy="142" rx="1.3" ry="1.3"/>
		
			<ellipse transform="matrix(0.9773 -0.2119 0.2119 0.9773 -13.1061 150.825)" class="st14" cx="697.1" cy="136.6" rx="1.3" ry="1.3"/>
		
			<ellipse transform="matrix(0.9773 -0.2119 0.2119 0.9773 -11.3102 156.1658)" class="st14" cx="723" cy="130.9" rx="1.3" ry="1.3"/>
		<path class="st14" d="M663.3,160.4"/>
		
			<ellipse transform="matrix(0.9773 -0.2119 0.2119 0.9773 -16.0423 128.208)" class="st14" cx="590.2" cy="139" rx="1.3" ry="1.3"/>
		
			<ellipse transform="matrix(0.9773 -0.2119 0.2119 0.9773 -14.2702 133.5476)" class="st14" cx="616" cy="133.4" rx="1.3" ry="1.3"/>
		
			<ellipse transform="matrix(0.9773 -0.2119 0.2119 0.9773 -12.498 138.8873)" class="st14" cx="641.8" cy="127.8" rx="1.3" ry="1.3"/>
		
			<ellipse transform="matrix(0.9773 -0.2119 0.2119 0.9773 -10.7259 144.2269)" class="st14" cx="667.6" cy="122.2" rx="1.3" ry="1.3"/>
		
			<ellipse transform="matrix(0.9773 -0.2119 0.2119 0.9773 -8.991 149.5924)" class="st14" cx="693.5" cy="116.7" rx="1.3" ry="1.3"/>
		
			<ellipse transform="matrix(0.9773 -0.2119 0.2119 0.9773 -7.1815 154.9062)" class="st14" cx="719.1" cy="111" rx="1.3" ry="1.3"/>
		<path class="st14" d="M659.7,140.5"/>
		<path class="st14" d="M1377.8,169.4"/>
		<rect x="607.9" y="987.8" class="st0" width="63.7" height="40.7"/>
		
			<rect x="1415.2" y="342.9" transform="matrix(0.5881 -0.8088 0.8088 0.5881 334.7652 1344.1801)" class="st0" width="143.7" height="1"/>
		<path class="st0" d="M1593.8,555.5c-52.8-88.3-113.7-136.1-114.3-136.6l-0.1-0.1l-2.7-2.4l2.7-3l2.7,2.4
			c2.1,1.7,62.7,49.9,115.2,137.7L1593.8,555.5z"/>
		<path class="st0" d="M260.9,895.6c0,0-2.7-58.3,16.1-140.1c18.9-82.2,59.4-188.1,153.9-281.6c29.6-29.3,53.7-48.9,53.7-48.9
			l0.4-1.2L434.3,355c0,0-155.9,95-234.3,257c-29.1,60.2-62.5,127-66.1,284.6L260.9,895.6z"/>
		<path class="st0" d="M527.2,1377.4l-140.3-66.9l-0.3-0.4c-12.4-16.9-32.1-48-32.3-48.3c-2.8-4.2-4.6-7-7.2-11.4
			c-58-95.4-87.7-207.1-88.2-332.1l0,0v-2v-0.6v-2.6l0,0c0.4-101.5,19.7-194.8,57.5-277.4c37.7-82.6,93.1-152.9,164.6-209.1l4-3.3
			l2.6,3.1l-4.1,3.4C339.4,543,263.1,710.9,262.8,915.3v0.9v0.3c0.2,125,29.7,236.7,87.6,332c2.6,4.3,4.3,7.1,7.2,11.3
			c0.2,0.4,19.6,30.9,31.9,47.7l139.4,66.5L527.2,1377.4z"/>
		<path class="st22" d="M1309.7,1254.1"/>
		<path class="st0" d="M854.3,1375l-0.5-0.1l-65-19.6v-19c-6.4-2.6-105.6-43.2-147.1-82.6l-0.3-0.3l0.2-0.3l83.8-130.6l0.8,0.5
			l-83.5,130.2c42.7,40.4,145.8,81.9,146.8,82.3l0.3,0.1v19l63.8,19.2l18.8-69.9h103v1H873.3L854.3,1375z"/>
		<path class="st0" d="M1299.2,1473.2l-39.2-70.7l-6.5,4.5l-30.2-51.9l0.5-0.2c39.2-19.6,79-54.2,79.4-54.6l0.4-0.4l5.3,6.9
			l21.6-17.9l0.3,0.5l65.6,103.9l7.7,11.7l-0.8,0.5l-7.7-11.8l-65.3-103.4l-21.5,17.8l-5.3-6.9c-4.3,3.7-41.7,35.5-78.7,54.2
			l29.1,50.1l6.5-4.5l0.3,0.5l39.5,71.2L1299.2,1473.2z"/>
		
			<rect x="1454.3" y="1391.2" transform="matrix(0.8369 -0.5474 0.5474 0.8369 -574.7132 1038.3145)" class="st0" width="1" height="184.4"/>
		<path class="st0" d="M1097.3,1375l-18.9-70.1H976.2v-1h103l18.8,69.9l63.8-19.2v-19l0.3-0.1c1-0.4,104-41.9,146.8-82.3l-86-131
			l0.8-0.5l86.5,131.7l-0.3,0.3c-41.5,39.5-140.7,80.1-147.1,82.6v19L1097.3,1375z"/>
		<path class="st0" d="M612.8,1226.2l-0.4-0.3c-0.4-0.3-36.4-31.3-71.9-85.4c-20.9-31.7-37.5-65.1-49.4-99.1
			c-14.9-42.6-22.5-86.3-22.5-130.1v-6.8c0-42.5,7.6-85.5,22.5-127.8c11.9-33.8,28.6-67.3,49.4-99.4c35.5-54.7,71.6-87.1,71.9-87.4
			l0.4-0.3l35.5,36.8l62.5,89.7l-0.8,0.6L647.5,627l-34.8-36.1c-3.8,3.5-37.8,35.2-71.4,86.9c-32.7,50.4-71.7,130.6-71.7,226.6v6.8
			c0,98.8,39,178.9,71.8,228.7c33.6,51.1,67.6,81.5,71.4,84.9l34.8-36.2L710,1099l0.8,0.6l-62.5,89.7L612.8,1226.2z"/>
		<path class="st14" d="M575,1240.3"/>
		<path class="st0" d="M529.3,1374.4l-0.9-0.5l65.8-107l-3.7-3.3c-0.4-0.4-40.1-36-79.2-96.3c-23-35.4-41.3-72.2-54.5-109.5
			C440.4,1011.2,432,963.9,432,917v-7.5c0-46.8,8.3-94.2,24.8-140.8c13.1-37.3,31.5-74.1,54.5-109.5c37.2-57.3,74.9-92.4,78.9-96
			L487,426.7l-1.4-1.8l-0.4,0.3l-51.3-70.4l0.8-0.6l53.1,71.9l103.8,137.1l-0.3,0.3c-0.4,0.4-40,36-79.1,96.1
			c-36.1,55.5-79.1,143.9-79.1,249.7v7.5c0,105.8,43,194.2,79.1,249.7c39.1,60.2,78.7,95.8,79.1,96.1l4.3,3.8l-0.2,0.4L529.3,1374.4
			z"/>
		
			<rect x="367.6" y="1460.8" transform="matrix(0.5475 -0.8368 0.8368 0.5475 -1009.3841 1055.9861)" class="st0" width="208.2" height="1"/>
		<path class="st23" d="M590.8,1263.8"/>
		<path class="st0" d="M730.5,702.2L638,559l-48.7-45.4L529,427.7l0.5-0.3c1-0.5,97.3-51.4,234.7-79.8c67.9-14,145.2-21,212.1-19.3
			v1c-66.9-1.7-144.1,5.3-211.9,19.3C632.1,375.9,538,424,530.3,428l59.6,84.9l48.7,45.4l92.6,143.3L730.5,702.2z"/>
		<path class="st0" d="M1222.9,702.2l-0.8-0.5l91.9-143.4l0,0l48.6-45.3l59.6-84.9c-7.7-4-101.8-52.2-234-79.4
			c-67.8-14-145-21-211.9-19.3v-1c66.9-1.7,144.2,5.3,212.1,19.3c137.5,28.4,233.8,79.3,234.7,79.8l0.5,0.3l-60.3,86l-48.6,45.3
			L1222.9,702.2z"/>
		<polygon class="st0" points="1244.4,717.2 1243.7,716.6 1300.8,629.5 1368.8,557.7 1479.8,411.6 1480.7,412.2 1369.6,558.3 
			1301.6,630.2 		"/>
		<path class="st0" d="M647.5,1189.4c-0.2-0.2-19.5-15.4-38.6-42.3c-17.6-24.8-38.6-64.7-38.6-114.5v-85.3h1v85.3
			c0,49.5,20.9,89.2,38.4,113.9c19,26.7,38.2,41.9,38.4,42.1L647.5,1189.4z"/>
		<path class="st0" d="M571.3,867h-1v-71.9c0-49.7,22.5-90.8,41.4-116.5c20.4-27.9,41.1-44.2,41.4-44.3l0.6,0.8
			c-0.2,0.2-20.8,16.4-41.2,44.2c-18.8,25.6-41.1,66.5-41.1,115.9V867H571.3z"/>
		<path class="st0" d="M691.3,1126.5c-0.3-0.3-28.1-29.1-34.3-58.1l-32.5,6.7l-0.1-0.5c-0.1-0.2-5.1-24.6-4.9-45.6h-12.1v-42.2h102
			v1h-101v40.2h12.1v0.5c-0.3,19.4,4,41.8,4.7,45.4l32.5-6.7l0.1,0.5c5.9,28.9,33.9,57.8,34.1,58.1L691.3,1126.5z"/>
		<path class="st0" d="M619.5,782.5c-0.3-21.2,4.8-41.3,4.9-41.5l0.1-0.5l0.5,0.1l32,6.6c6.2-29,34-57.8,34.3-58.1l0.7,0.7
			c-0.3,0.3-28.2,29.2-34.1,58.1l-0.1,0.5l-0.5-0.1l-32-6.6c-0.8,3.1-5,21.5-4.7,40.8H619.5z"/>
		<rect x="609.3" y="782.5" class="st0" width="63.7" height="40.7"/>
		
			<rect x="369.9" y="1250.8" transform="matrix(0.7809 -0.6247 0.6247 0.7809 -680.8155 561.7618)" class="st0" width="180.9" height="1"/>
		<path class="st0" d="M397.1,1269.7l-0.3-0.3c-7.2-7.9-43.1-69.3-44.6-72c-43-72.6-66.8-173.2-67-283.5l0,0v-0.5v-0.5v-1l0,0
			c0.2-94.8,18.4-177.9,54-247c0.3-0.6,28.1-62.2,74.9-126.5l-25.2-17.6l0.6-0.8l26,18.2l-0.3,0.4c-46.9,64.4-74.8,126.1-75.1,126.7
			c-35.6,69.1-53.8,152.2-53.9,247.1v0.6v0.3c0.2,110.3,23.9,211,66.9,283.5c0.4,0.6,36.4,62.3,44.2,71.4l11.6-9.1l106.9-85.5
			l0.6,0.8l-106.9,85.5L397.1,1269.7z"/>
		<path class="st22" d="M465.8,516.3"/>
		<polygon class="st0" points="620.5,947.9 570.8,947.9 570.8,946.9 619.5,946.9 619.5,867.1 570.8,867.1 570.8,866.1 620.5,866.1 
					"/>
		<polygon class="st0" points="709.3,823.7 608.8,823.7 608.8,782 620,782 620,783 609.8,783 609.8,822.7 709.3,822.7 		"/>
		<rect x="1244.6" y="1103.4" class="st0" width="308.4" height="1"/>
		<rect x="1244.6" y="717.3" class="st0" width="308.4" height="1"/>
		<path class="st14" d="M1472.6,317.1"/>
		<path class="st0" d="M1433.8,1383.4l-2.7-2.9c63.5-59.2,110.9-132.5,140.8-218l0.5-1.4l9.6,0.3l50.4-37.5v-18h-71l-11.7,0.1l1.5-3
			c0.4-0.8,43-84.8,37-203.6c-2.6-51.5-14.4-108.4-37.1-179.3l-1-3.1l9.6,0.1c5.8,0,49,0.3,58.9,0.4v-24.9h4v28.9h-2
			c-0.5,0-54.3-0.4-60.9-0.4h-4.1c22.3,70.2,34,126.9,36.6,178.1c3.2,62.7-7.1,115.2-16.4,148.3c-7.9,28.2-16.3,47.4-19.6,54.4h5.1
			h75v24l-53.1,39.5l-8-0.3C1545.1,1250.6,1497.4,1324.1,1433.8,1383.4z"/>
		<path class="st14" d="M1559.6,370.9"/>
		
			<rect x="1448.3" y="359.3" transform="matrix(0.5881 -0.8088 0.8088 0.5881 334.354 1376.1162)" class="st0" width="139.9" height="1"/>
		<polyline class="st0" points="1241.2,1407.2 1214.7,1421 1210.3,1385.9 1231.7,1392 1241.2,1407.2 		"/>
		<rect x="784.6" y="1092.9" class="st0" width="58" height="45.5"/>
		<polygon class="st0" points="729,1124.9 725.5,1122.7 746.3,1091 962.2,1091 962.2,1114.8 989,1114.8 989,1090.9 1206.6,1090.9 
			1224.9,1120.8 1221.6,1122.9 1204.3,1094.9 993,1094.9 993,1118.8 958.2,1118.8 958.2,1095 748.5,1095 		"/>
		<polyline class="st0" points="727.7,1391.2 753.7,1406 759.3,1371 737.7,1376.4 727.7,1391.2 		"/>
		<polygon class="st0" points="648.8,1376.9 677.3,1334.1 660.3,1321.1 647.3,1363.1 641.5,1371 		"/>
		<polygon class="st0" points="409.9,1160.1 450.9,1226.6 397,1269 357,1201.8 		"/>
		<polyline class="st0" points="387,1178.1 368.4,1098.1 459,1062.1 472.6,1095.6 484.6,1120.1 389.6,1176.1 		"/>
		<path class="st14" d="M477,1090.6"/>
		<g>
			<path class="st0" d="M286.5,918.1h46.1v-14h19.8v14h-10l0.9,26l-56.8,2l2.6,37.1l92.5-7.9c2.7,36.4,12.9,75.1,12.9,75.1l24.6-8
				l34.5,3.8C437,1003,432.8,955,432.8,917H421v-32.7h12.7c1.3-22.1,3.6-36.1,3.6-36.1l-124.2-8.5c-2,9-3.5,40.6-3.5,40.6
				s-14.1,0.1-22.9,0.1C284.4,880.5,286.5,918.1,286.5,918.1z"/>
		</g>
		<g>
			<path class="st0" d="M315.6,762.5l-11.4-3.5c-3.8,14.9-6.4,27.4-6.4,27.4L413,813l6.7-2.9l23.6,6.6c3.4-23.3,21.8-68.4,21.8-68.4
				l-81.3-32.5l-5.5,14l-58.8-19c-2.2,5.5-7.9,21.4-12.3,37.3c-0.1,0.4-0.2,0.8-0.3,1.1l11.4,3.5L315.6,762.5z"/>
		</g>
	</g>
	<g>
		<g>
			<g>
				<polyline class="st24" points="971.3,120.7 974.4,123.6 977.3,120.9 				"/>
			</g>
		</g>
		<g>
			<text transform="matrix(1 0 0 1 934.0847 88.651)" class="st25 st26 st27">Центральный вход</text>
			<line class="st24" x1="974.4" y1="98.6" x2="974.4" y2="123.2"/>
		</g>
	</g>
</g>
<g id="f-6">
	<rect x="569.8" y="58.9" transform="matrix(0.982 -0.1887 0.1887 0.982 -3.7439 123.514)" class="st28" width="154" height="45"/>
    <rect x="1230.4" y="59.4" transform="matrix(0.9712 0.2385 -0.2385 0.9712 57.2492 -309.3813)" class="st28" width="154" height="45"/>
</g>
</svg>
