<?xml version="1.0" encoding="utf-8"?>
<!-- Generator: Adobe Illustrator 19.1.0, SVG Export Plug-In . SVG Version: 6.00 Build 0)  -->
<svg version="1.1" id="Layer_1" xmlns="http://www.w3.org/2000/svg" xmlns:xlink="http://www.w3.org/1999/xlink" x="0px" y="0px"
	 viewBox="-468 269.5 21.5 22.5" style="enable-background:new -468 269.5 21.5 22.5;" xml:space="preserve">
<style type="text/css">
	.st0{fill:#2996EA;}
</style>
<g>
	<path class="st0" d="M-461.4,282.8c-0.9,0-1.6,0.7-1.6,1.6s0.7,1.6,1.6,1.6c0.9,0,1.6-0.7,1.6-1.6S-460.5,282.8-461.4,282.8z
		 M-461.4,284.7c-0.2,0-0.3-0.1-0.3-0.3c0-0.2,0.1-0.3,0.3-0.3c0.2,0,0.3,0.1,0.3,0.3C-461,284.6-461.2,284.7-461.4,284.7z"/>
	<path class="st0" d="M-453.1,282.8c-0.9,0-1.6,0.7-1.6,1.6s0.7,1.6,1.6,1.6c0.9,0,1.6-0.7,1.6-1.6S-452.2,282.8-453.1,282.8z
		 M-453.1,284.7c-0.2,0-0.3-0.1-0.3-0.3c0-0.2,0.1-0.3,0.3-0.3c0.2,0,0.3,0.1,0.3,0.3C-452.8,284.6-452.9,284.7-453.1,284.7z"/>
	<path class="st0" d="M-448.5,276.5h-0.5v-1.4c0-1.5-1.3-2.8-2.8-2.8h-11c-1.5,0-2.8,1.3-2.8,2.8v1.4h-0.6c-0.4,0-0.6,0.3-0.6,0.6
		v2.2c0,0.4,0.3,0.6,0.6,0.6h0.6v5.5c0,0.9,0.4,1.6,1,2.2l0,0v1.1c0,0.9,0.7,1.7,1.7,1.7h1.1c0.9,0,1.7-0.7,1.7-1.7v-0.4h5.7v0.4
		c0,0.9,0.7,1.7,1.7,1.7h1.1c0.9,0,1.7-0.7,1.7-1.7v-1.1l0,0c0.6-0.5,1-1.3,1-2.2V280h0.5c0.4,0,0.6-0.3,0.6-0.6v-2.2
		C-447.8,276.8-448.1,276.5-448.5,276.5z M-451.8,287h-11c-0.8,0-1.5-0.7-1.5-1.5V282h14v3.5C-450.2,286.3-450.9,287-451.8,287z
		 M-464.2,280.7v-5h14v5H-464.2z M-462.7,273.5h11c0.6,0,1.1,0.3,1.4,0.8h-13.7C-463.8,273.9-463.3,273.5-462.7,273.5z
		 M-461.3,288.7c0,0.2-0.2,0.4-0.4,0.4h-1.1c-0.2,0-0.4-0.2-0.4-0.4v-0.5c0.2,0,0.3,0,0.5,0h1.4V288.7z M-451.2,288.7
		c0,0.2-0.2,0.4-0.4,0.4h-1.1c-0.2,0-0.4-0.2-0.4-0.4v-0.4h1.4c0.2,0,0.3,0,0.5,0V288.7L-451.2,288.7z"/>
</g>
</svg>
