<?xml version="1.0" encoding="utf-8"?>
<!-- Generator: Adobe Illustrator 19.1.0, SVG Export Plug-In . SVG Version: 6.00 Build 0)  -->
<svg version="1.1" id="Layer_1" xmlns="http://www.w3.org/2000/svg" xmlns:xlink="http://www.w3.org/1999/xlink" x="0px" y="0px"
	 viewBox="0 0 20.5 19.5" style="enable-background:new 0 0 20.5 19.5;" xml:space="preserve">
<style type="text/css">
	.st0{fill:#FFFFFF;}
	.st1{fill:#E7EBF0;}
	.st2{fill:none;stroke:#000200;stroke-width:2;stroke-miterlimit:10;}
	.st3{fill:none;stroke:#000200;stroke-width:2;stroke-linecap:round;stroke-linejoin:round;stroke-miterlimit:10;}
	.st4{fill:none;stroke:#000200;stroke-width:2;stroke-linecap:round;stroke-miterlimit:10;}
	.st5{fill:#5E8ECA;}
</style>
<g>
	<rect x="95.1" y="-122.5" class="st0" width="431.1" height="173.3"/>
</g>
<rect x="378.6" y="-122.5" class="st1" width="73.5" height="71.5"/>
<rect x="303.5" y="-122.5" class="st1" width="73.5" height="71.5"/>
<text transform="matrix(1 0 0 1 149.9164 -12.752)" style="fill:#252635; font-family:'OsnovaPro'; font-size:15px;">От ст.м. «Площадь Восстания»</text>
<text transform="matrix(1 0 0 1 149.9164 21.248)" style="fill:#252635; font-family:'OsnovaPro'; font-size:15px;">В пути ~ 35 мин.</text>
<g>
	<circle class="st2" cx="118.7" cy="-10.5" r="3.6"/>
	<path class="st2" d="M119-22.9"/>
	<path class="st2" d="M118.7-15.1v-5.8c0-2.2,1.7-3.9,3.9-3.9h0c2.2,0,3.9,1.7,3.9,3.9v5.8"/>
	<path class="st2" d="M134.4-18.4v5.8c0,2.2-1.7,3.9-3.9,3.9l0,0c-2.2,0-3.9-1.7-3.9-3.9v-5.8"/>
	<line class="st3" x1="131.7" y1="-27" x2="136.7" y2="-21.4"/>
	<line class="st3" x1="136.7" y1="-27" x2="131.7" y2="-21.4"/>
</g>
<g>
	<line class="st4" x1="122.2" y1="-81.3" x2="122.2" y2="-79.2"/>
	<line class="st4" x1="130.8" y1="-81" x2="130.8" y2="-79.2"/>
	<g>
		<text transform="matrix(1 0 0 1 145.9164 -82.4072)" style="fill:#252635; font-family:'OsnovaPro'; font-size:15px;">Автобус </text>
		<path class="st2" d="M121.1-81.3h10.7c1.3,0,2.4-1.1,2.4-2.4v-10.7c0-1.3-1.1-2.4-2.4-2.4h-10.7c-1.3,0-2.4,1.1-2.4,2.4v10.7
			C118.7-82.3,119.8-81.3,121.1-81.3z"/>
		<polyline class="st3" points="122.5,-84.5 122.5,-84.5 122.5,-84.5 		"/>
		<polyline class="st3" points="130.8,-84.5 130.8,-84.5 130.8,-84.5 		"/>
		<line class="st2" x1="118.7" y1="-92.3" x2="134.2" y2="-92.3"/>
	</g>
</g>
<g>
	<text transform="matrix(1 0 0 1 327.7252 -82.4072)" style="fill:#9D9D9D; font-family:'OsnovaPro'; font-size:15px;"> S3</text>
</g>
<rect x="229" y="-122.5" class="st5" width="73.5" height="71.5"/>
<g>
	<text transform="matrix(1 0 0 1 253.1771 -82.4072)" class="st0" style="font-family:'OsnovaPro'; font-size:15px;"> S2</text>
</g>
<g>
	<text transform="matrix(1 0 0 1 402.6444 -82.4072)" style="fill:#9D9D9D; font-family:'OsnovaPro'; font-size:15px;"> S4</text>
</g>
<rect x="452.7" y="-122.5" class="st1" width="73.5" height="71.5"/>
<g>
	<text transform="matrix(1 0 0 1 476.7493 -82.4072)" style="fill:#9D9D9D; font-family:'OsnovaPro'; font-size:15px;"> S6</text>
</g>
<g>
	<circle class="st2" cx="126.4" cy="17.5" r="7.7"/>
	<polyline class="st3" points="124.9,14.1 126.4,17.9 129.5,17.9 	"/>
</g>
<g>
	<circle class="st2" cx="10.5" cy="9.7" r="7.7"/>
	<polyline class="st3" points="9,6.2 10.5,10 13.6,10 	"/>
</g>
</svg>
