<?xml version="1.0" encoding="utf-8"?>
<!-- Generator: Adobe Illustrator 19.1.0, SVG Export Plug-In . SVG Version: 6.00 Build 0)  -->
<svg version="1.1" id="Layer_1" xmlns="http://www.w3.org/2000/svg" xmlns:xlink="http://www.w3.org/1999/xlink" x="0px" y="0px"
	 viewBox="336 -246 1631 723" style="enable-background:new 336 -246 1631 723;" xml:space="preserve">
<style type="text/css">
	.st0{fill:#FFFFFF;}
	.st1{clip-path:url(#SVGID_2_);}
	.st2{fill:#DCE7ED;}
	.st3{fill:#9CC44C;}
	.st4{fill:#999999;}
	.st5{fill:#CCCCCC;}
	.st6{fill:#8DB839;}
	.st7{fill:#F0F4F7;}
	.st8{fill:#212233;}
	.st9{fill:#7A8991;}
	.st10{fill:url(#SVGID_3_);}
	.st11{fill:url(#SVGID_4_);}
	.st12{fill:url(#SVGID_5_);}
	.st13{fill:url(#SVGID_6_);}
	.st14{fill:url(#SVGID_7_);}
	.st15{fill:none;stroke:#7A8991;stroke-miterlimit:10;}
	.st16{fill:#A6A6A6;}
	.st17{fill:#BABABA;}
	.st18{fill:none;stroke:#212233;stroke-miterlimit:10;}
	.st19{fill:url(#SVGID_8_);}
	.st20{fill:url(#SVGID_9_);}
	.st21{fill:url(#SVGID_10_);}
	.st22{fill:url(#SVGID_11_);}
	.st23{fill:url(#SVGID_12_);}
	.st24{fill:url(#SVGID_13_);}
	.st25{fill:url(#SVGID_14_);}
</style>
<g>
	<g>
		<path class="st0" d="M1329.2-114.8l-18-1.6v-32.8l-11.7-0.5v32.4l-16.7-1.5v-46.1l46.4,1.2V-114.8z"/>
		<path class="st0" d="M1364.7-109.4c-18.6-1.7-28.6-12.8-28.6-29.4s10-26.5,28.6-26.1c19.4,0.4,30.8,11.6,30.8,29.4
			C1395.6-117.7,1383.1-107.8,1364.7-109.4z M1355.8-137.8c0,7.5,1.9,13.1,8.9,13.6c7.1,0.5,9.2-4.8,9.2-12.5c0-7.5-2.1-13-9.2-13.3
			C1357.8-150.3,1355.8-145.2,1355.8-137.8z"/>
		<path class="st0" d="M1464.1-103l-24.7-2.1v-38.3l-9.1-0.4c0,23.2-4.9,39.9-23.8,38.3c-2-0.2-4.3-0.6-6.7-1.2v-16.2
			c0.8,0.3,1.5,0.4,2.1,0.5c6.6,0.5,8.5-9.5,8.5-39l53.6,1.3L1464.1-103L1464.1-103z"/>
		<path class="st0" d="M1546.6-108.1c0,0-8.2,14.2-34.4,11.9c-23.5-2.1-38.5-12.6-38.5-33.9c0-21.2,15-32.1,37.3-31.6
			c23.3,0.5,36,12.8,36,30.9c0,8.1-2.6,12.3-2.6,12.3l-45.8-3c1,4.3,5.7,7.3,15.1,8c10.2,0.7,16.5-4.3,16.5-4.3L1546.6-108.1z
			 M1498.3-136.3l25,1.2v-0.5c0-4.5-3.4-9-12.5-9.4C1502.2-145.3,1498.6-141.9,1498.3-136.3z"/>
	</g>
</g>
<g>
	<g>
		<path class="st0" d="M900.4-82.7l-29.1,3.5v-41l0.6-13.1h-0.5l-39,55l-1.7,4.1l-33.6,4.1v-109.3h34.4v44.3l-0.9,12.5h0.5
			l39.6-53.1l1.6-3.7h28v96.7H900.4z"/>
		<path class="st0" d="M943.8-136.4V-88l-26.1,3.2v-72.8l46.8-1.3v21.3L943.8-136.4z"/>
		<path class="st0" d="M971.3-159.1l20.1-0.6l2.1,5.7c1.3-2.5,5.7-8.7,16.6-8.9c14.9-0.4,23.4,13.7,23.4,32
			c0,20.2-9.5,35.9-24.1,37.7c-11.4,1.4-15-5.2-15-5.2l-0.7,0.1v37l-22.5,3.8v-101.6H971.3z M993.9-135.3v18.3c0,0,0.8,6.1,8.3,5.4
			c7.8-0.8,10.7-5.5,10.7-17c0-11.6-2.4-14.7-10.3-14.3C994.9-142.6,993.9-135.3,993.9-135.3z"/>
		<path class="st0" d="M1065.4-100.2c-17.2,2.2-27.2-9.4-27.2-30c0-20.7,10-33.6,27.2-34c16.3-0.4,25.1,11.1,25.1,30.1
			S1080.8-102.1,1065.4-100.2z M1057.4-131.8c0,8.8,1.8,15.1,8,14.5c6.1-0.6,7.9-7,7.9-15.6c0-8.5-1.8-14.5-7.9-14.2
			C1059.1-146.7,1057.4-140.5,1057.4-131.8z"/>
		<path class="st0" d="M1096.5-106.6v-56.1l19.2-0.5c13.8-0.4,18,5.4,18,13.2c0,7.2-3.7,11-7.2,12.9v0.6c1.1-0.1,8.9,0.2,8.9,10.1
			c0,10.6-5.7,15.7-19.5,17.4L1096.5-106.6z M1117.5-141.6c0,0,2.1-0.8,2.1-3.8c0-2.4-0.8-3.2-4.4-3l-3.8,0.2v7L1117.5-141.6z
			 M1111.3-130.3v7l4.6-0.4c4-0.4,5.1-0.8,5.1-4c0-2.7-1-3.3-4.9-2.9L1111.3-130.3z"/>
		<path class="st0" d="M1158.6-111.9c-12.4,1.6-19.6-8.4-19.6-25.9s7.2-28.4,19.6-28.7c11.9-0.3,18.3,9.6,18.3,25.9
			C1177-124.3,1169.8-113.4,1158.6-111.9z M1152.8-138.9c0,7.5,1.3,12.9,5.8,12.4c4.4-0.4,5.7-5.8,5.7-13.2c0-7.3-1.3-12.4-5.7-12.1
			C1154.1-151.6,1152.8-146.4,1152.8-138.9z"/>
		<path class="st0" d="M1209.2-129.2c0,0-2.9,11.3-12.9,12.5c-9.8,1.2-16.5-5.6-16.5-23.3s6.7-27.2,16-27.4
			c8.9-0.2,13.5,8.4,13.5,21.6c0,5.9-0.9,9.2-0.9,9.2l-17.7,1.6c0.4,3.4,2.4,5.2,6.2,4.9c4-0.4,6.3-4.8,6.3-4.8L1209.2-129.2z
			 M1190.6-146.9l10-0.6v-0.4c0-3.4-1.3-6.7-4.9-6.5C1192.2-154.2,1190.7-151.3,1190.6-146.9z"/>
	</g>
</g>
<g>
	<defs>
		<path id="SVGID_1_" d="M1235.5-108.1L621.8-22.4L1144,772.5l508.8-841.2L1235.5-108.1z M1119.4,351.8L696-21.3l548.3-82.7
			l352.6,34.8L1119.4,351.8z"/>
	</defs>
	<clipPath id="SVGID_2_">
		<use xlink:href="#SVGID_1_"  style="overflow:visible;"/>
	</clipPath>
	<g class="st1">
		<polygon class="st2" points="572.5,339.6 614.1,300.4 2875.5,300.4 3019.9,339.6 		"/>
		<polygon class="st2" points="583.3,447.4 631.8,391 3323.6,391 3542.9,447.4 		"/>
		<polygon class="st2" points="600.1,616.4 658.4,527.5 3998.8,527.5 4363,616.4 		"/>
		<polygon class="st2" points="628.7,903.4 700.8,744.8 5074.4,744.8 5756.1,903.4 		"/>
		<polygon class="st2" points="689.2,1510.9 780.5,1153 7094.2,1153 8703.9,1510.9 		"/>
		<polygon class="st2" points="548.7,100.6 572.8,88.9 1828.9,88.9 1860.2,100.6 		"/>
		<polygon class="st2" points="551.5,128.8 577.8,114.7 1956.4,114.7 1997,128.8 		"/>
		<polygon class="st2" points="555.1,164.2 584.1,146.7 2114.8,146.7 2168.8,164.2 		"/>
		<polygon class="st2" points="559.4,207.9 591.7,185.8 2308.2,185.8 2381,207.9 		"/>
		<polygon class="st2" points="565,264.2 601.4,235.3 2553.3,235.3 2654,264.2 		"/>
		<polygon class="st2" points="540,12.6 556.8,7.1 1424.2,7.1 1433.3,12.6 		"/>
		<polygon class="st2" points="541.2,25.3 559.2,19.1 1704.9,19.1 1723.7,25.3 		"/>
		<polygon class="st2" points="542.7,40.1 561.9,32.9 1707.9,32.9 1728.2,40.1 		"/>
		<polygon class="st2" points="544.4,56.9 564.9,48.6 1704.7,48.6 1726.4,56.9 		"/>
		<polygon class="st2" points="1489.6,-8.7 1480,-13 1693.9,-13 1709.2,-8.7 		"/>
		<polygon class="st2" points="1477.8,1.4 1467.9,-3.5 1699.9,-3.5 1716.3,1.4 		"/>
		<polygon class="st2" points="1467.3,12.6 1457.2,7.1 1705.7,7.1 1723.3,12.6 		"/>
		<polygon class="st2" points="1522.3,-32.6 1513.3,-35.8 1697.2,-35.8 1710.4,-32.6 		"/>
		<polygon class="st2" points="1513.9,-25.3 1504.7,-28.8 1702.4,-28.8 1716.4,-25.3 		"/>
		<polygon class="st2" points="1507,-17.3 1497.5,-21.2 1707.5,-21.2 1722.3,-17.3 		"/>
		<polygon class="st2" points="1547,-50.8 1538.7,-53.2 1699.7,-53.2 1711.2,-50.8 		"/>
		<polygon class="st2" points="1540.9,-45.2 1532.3,-47.9 1704.4,-47.9 1716.5,-45.2 		"/>
		<polygon class="st2" points="591.1,-39.2 602.4,-42.1 1708.8,-42.1 1721.6,-39.2 		"/>
		<polygon class="st2" points="1566,-64.6 1558.2,-66.6 1701.6,-66.6 1711.9,-64.6 		"/>
		<polygon class="st2" points="1561.3,-60.3 1553.4,-62.4 1705.8,-62.4 1716.6,-60.3 		"/>
		<polygon class="st2" points="1558,-55.6 1549.8,-57.9 1709.8,-57.9 1721.1,-55.6 		"/>
		<polygon class="st2" points="1532.7,-72.5 1526,-74.1 1663.8,-74.1 1672.8,-72.5 		"/>
		<polygon class="st2" points="1572.8,-68.7 1565.2,-70.5 1706.7,-70.5 1716.7,-68.7 		"/>
		<polygon class="st2" points="1499.6,-75.8 1493.7,-77.4 1625.5,-77.4 1633.6,-75.8 		"/>
		<polygon class="st2" points="1469.2,-78.9 1463.9,-80.4 1593.1,-80.4 1600.4,-78.9 		"/>
		<polygon class="st2" points="1440.1,-81.9 1435.4,-83.3 1559.3,-83.3 1565.8,-81.9 		"/>
		<polygon class="st2" points="1413.2,-84.6 1409,-85.9 1530.7,-85.9 1536.7,-84.6 		"/>
		<polygon class="st2" points="1387.3,-87.2 1383.6,-88.5 1500.5,-88.5 1505.9,-87.2 		"/>
		<polygon class="st2" points="1363.4,-89.7 1360.1,-90.9 1475.1,-90.9 1480,-89.7 		"/>
		<polygon class="st2" points="1340.3,-92 1337.4,-93.1 1448.1,-93.1 1452.4,-92 		"/>
		<polygon class="st2" points="1318.9,-94.2 1316.3,-95.3 1425.3,-95.3 1429.3,-94.2 		"/>
		<polygon class="st2" points="1298.1,-96.3 1295.9,-97.3 1400.9,-97.3 1404.5,-96.3 		"/>
		<polygon class="st2" points="1278.8,-98.3 1276.9,-99.2 1380.5,-99.2 1383.7,-98.3 		"/>
		<polygon class="st2" points="1260.1,-100.2 1258.4,-101.1 1358.4,-101.1 1361.2,-100.2 		"/>
		<polygon class="st2" points="1152.1,-102 1151.7,-102.9 1339.4,-102.9 1342,-102 		"/>
		<polygon class="st2" points="1167.1,-103.7 1166.6,-104.6 1319.2,-104.6 1321.5,-103.7 		"/>
		<polygon class="st2" points="1179.4,-105.4 1178.7,-106.1 1302.5,-106.1 1304.5,-105.4 		"/>
		<polygon class="st2" points="1191.2,-106.9 1190.4,-107.7 1284,-107.7 1285.8,-106.9 		"/>
		<polygon class="st2" points="1139.9,-100.3 1139.7,-101.2 1242.3,-101.2 1243.8,-100.3 		"/>
		<polygon class="st2" points="1125.7,-98.4 1125.6,-99.4 1230.8,-99.4 1232.2,-98.4 		"/>
		<polygon class="st2" points="1110.9,-96.5 1111,-97.5 1218.7,-97.5 1220,-96.5 		"/>
		<polygon class="st2" points="1095.2,-94.5 1095.5,-95.5 1206,-95.5 1207.1,-94.5 		"/>
		<polygon class="st2" points="1078.4,-92.3 1078.9,-93.4 1192.4,-93.4 1193.3,-92.3 		"/>
		<polygon class="st2" points="1060.9,-90 1061.7,-91.1 1178.2,-91.1 1179,-90 		"/>
		<polygon class="st2" points="1042.6,-87.6 1043.6,-88.8 1163.4,-88.8 1164,-87.6 		"/>
		<polygon class="st2" points="1023.1,-85.1 1024.5,-86.4 1147.6,-86.4 1148,-85.1 		"/>
		<polygon class="st2" points="1002.4,-82.4 1004.1,-83.8 1130.9,-83.8 1131,-82.4 		"/>
		<polygon class="st2" points="980.5,-79.5 982.6,-81 1113.2,-81 1113.1,-79.5 		"/>
		<polygon class="st2" points="956.8,-76.5 959.3,-78 1094,-78 1093.6,-76.5 		"/>
		<polygon class="st2" points="931.9,-73.2 934.9,-74.9 1074,-74.9 1073.2,-73.2 		"/>
		<polygon class="st2" points="905.5,-69.8 909.1,-71.5 1052.7,-71.5 1051.6,-69.8 		"/>
		<polygon class="st2" points="877.2,-66.1 881.3,-68 1029.9,-68 1028.3,-66.1 		"/>
		<polygon class="st2" points="846.4,-62.1 851.3,-64.1 1005.2,-64.1 1003.1,-62.1 		"/>
		<polygon class="st2" points="813.7,-57.9 819.3,-60 978.9,-60 976.3,-57.9 		"/>
		<polygon class="st2" points="778.6,-53.3 785.1,-55.6 950.8,-55.6 947.5,-53.3 		"/>
		<polygon class="st2" points="740.4,-48.3 747.9,-50.9 920.2,-50.9 916.2,-48.3 		"/>
		<polygon class="st2" points="706.2,-43.9 714.7,-46.6 892.9,-46.6 888.1,-43.9 		"/>
		<polygon class="st2" points="1203,-108.4 1202.1,-109.1 1265.6,-109.1 1267.2,-108.4 		"/>
		<polygon class="st2" points="1213.7,-109.9 1212.7,-110.5 1247,-110.5 1248.4,-109.9 		"/>
		<polygon class="st2" points="546.3,76.5 568.5,66.7 1719,66.7 1743.2,76.5 		"/>
		<polygon class="st2" points="535.4,-32.6 548.5,-35.8 1211.7,-35.8 1213.8,-32.6 		"/>
		<polygon class="st2" points="536.2,-25.4 549.8,-28.9 1245.7,-28.9 1248.7,-25.4 		"/>
		<polygon class="st2" points="537,-17.3 551.3,-21.2 1283.9,-21.2 1288.1,-17.3 		"/>
		<polygon class="st2" points="537.9,-8.4 553,-12.8 1325.6,-12.8 1331.1,-8.4 		"/>
		<polygon class="st2" points="538.8,1.4 554.8,-3.5 1371.8,-3.5 1378.9,1.4 		"/>
	</g>
</g>
<polygon class="st3" points="1249.7,-99.3 1579.8,-64.9 1119.6,305.1 723,-13.9 "/>
<polygon class="st4" points="1119.6,288.5 1579.6,-68.7 1579.6,-64.8 1119.6,305.1 "/>
<polygon class="st5" points="723,-13.9 1119.6,305.1 1119.6,288.6 723,-18.9 "/>
<polygon class="st6" points="1252,-102.5 1579.6,-68.7 1119.6,288.5 723,-18.9 "/>
<polygon class="st3" points="723,-18.9 1119.6,288.5 1245,191.4 803.9,-32.1 "/>
<polygon class="st3" points="877,-43.2 1330.8,124.6 1390.6,78.1 939.7,-53 "/>
<polygon class="st3" points="994.9,-61.7 1434.6,43.8 1467.6,18.2 1041.2,-69 "/>
<polygon class="st3" points="1080.8,-75.4 1493.3,-1.7 1515.2,-18.6 1117.9,-81.3 "/>
<polygon class="st3" points="1150.1,-86.8 1533.5,-32.8 1547.5,-43.7 1177.8,-91.1 "/>
<polygon class="st3" points="1206.7,-95.3 1560.8,-54 1570.7,-61.7 1228.6,-98.8 "/>
<polygon class="st7" points="854.6,83.3 809.9,48.6 828,44.1 874.5,77.3 "/>
<polygon class="st7" points="1418.2,-86 1373.4,-90.5 1364.9,-88.4 1410.4,-83.7 "/>
<polygon class="st7" points="1093.7,-73.5 1480.6,-4.7 1479.3,-3.7 1089.8,-73.5 "/>
<g>
	<g>
		<path class="st8" d="M469,162l18.2-5.2c13.3-3.8,17.7-3.2,17.5-1.3c-0.1,1.3-3,3-6.3,4.5c5.4-1,8.4-0.8,8.3,0.7
			c-0.2,2.5-6.3,6.1-21.1,10.4L466,177L469,162z M487.9,162.4c2.7-0.8,6-2.2,6.2-3.5c0.1-1.1-2.7-0.9-7.7,0.5l-7.2,2.1l-0.6,3.6
			L487.9,162.4z M478.1,167.1l-0.7,3.9l7.8-2.3c6.9-2,10.1-3.7,10.2-4.9c0.1-1.2-2.5-1.1-7.3,0.3L478.1,167.1z"/>
		<path class="st8" d="M571.6,145.9L561,149l-0.9-12.8l10.2-2.9L571.6,145.9z M516.9,148.5l11-3.1l-0.2,5.2l5-1.4
			c13.4-3.9,20.1-4.7,20.3-2c0.1,2.7-5.9,6.1-20.3,10.3l-16.7,4.9L516.9,148.5z M527.7,152.7l-0.1,3.8l4.7-1.4
			c7.2-2.1,10.4-3.6,10.4-4.9s-3.8-0.7-10.4,1.2L527.7,152.7z"/>
		<path class="st8" d="M581.8,130.1l9.8-2.8l0.9,5.2l3.5-1.7l12.1-8.2l10.4-3l-14.7,10l19.2,1.1l-11.3,3.3l-14.8-0.7l-4,1.9l0.7,4.2
			l-10.2,3L581.8,130.1z"/>
		<path class="st8" d="M647.2,111.6l17.8,6.8l-9.1,2.7l-3.8-1.4l-16,4.7l-2.1,3.2l-9.5,2.8l10.9-15.4L647.2,111.6z M641.8,115.1
			l-4.2,6.9l11.8-3.4L641.8,115.1L641.8,115.1z"/>
		<path class="st8" d="M687.6,102.2L678,105l4.1,8.4l-8.7,2.6l-3.8-8.5l-9.9,2.8l-0.8-1.9l27.8-7.9L687.6,102.2z"/>
		<path class="st8" d="M727.6,99.9l-7.9,2.3l-2.5-4l-14.1,4.1l2.4,4.1l-8.2,2.4l-5.4-10l8-2.3l2.3,3.9l14.1-4l-2.4-3.8l7.6-2.2
			L727.6,99.9z"/>
		<path class="st8" d="M751.1,93.3c-10.9,3.2-18.3,2.9-20.3,0s2.5-6.4,13.1-9.4c10.4-2.9,17.5-2.7,19.8-0.1
			C766,86.6,761.7,90.2,751.1,93.3z M745.2,85.6c-5.8,1.7-8,3.8-6.7,5.5c1.3,1.8,5.3,2.1,11.3,0.4s8.1-3.8,6.7-5.6
			C755,84.2,750.9,84,745.2,85.6z"/>
		<path class="st8" d="M794.3,80.2l-21.1,6.2l-7.4-8.5l19.9-5.6l1.4,1.5L774,77.5l1.6,1.8l11.7-3.4l1.4,1.5L777,80.8l1.7,1.9l14-4.1
			L794.3,80.2z"/>
		<path class="st8" d="M508.2,192l-12.8,4.1l1.5-13.6l-21,6.5l-2.3,14.1l-13.5,4.3l3.5-17.5l45.9-14L508.2,192z"/>
		<path class="st8" d="M545.7,180.5c-17.4,5.6-26.9,5.1-26.7,0c0.3-4.9,9.7-11,26.3-16.1c16.2-4.9,25.3-4.6,25.7-0.1
			C571.5,169,562.6,175.2,545.7,180.5z M545.4,167.4c-9.1,2.8-14.1,6.4-14.1,9.4c-0.1,3.1,4.8,3.7,14.4,0.6c9.5-3,14.2-6.6,14-9.5
			C559.5,165.1,554.4,164.6,545.4,167.4z"/>
		<path class="st8" d="M617,143l3.2,13.4l-10.5,3.3l-2.3-11.1l-11.4,3.5c1.3,8.5-3.9,13.7-13.7,16.8c-4,1.3-5.9,1.4-5.9,1.4l0.3-3.1
			c0,0,0.8-0.1,2.6-0.7c6.4-2,8.1-5.1,6.8-14.1L617,143z"/>
		<path class="st8" d="M662.1,143.1l-30.1,9.6l-3.7-13.1l28-8.5l0.8,2.3l-18.4,5.7l0.9,2.8l16.5-5.1l0.8,2.2l-16.6,5.2l0.9,2.9
			l19.9-6.3L662.1,143.1z"/>
	</g>
</g>
<g>
	<g>
		<path class="st8" d="M491.2,295.1c6.5-1.7,13-2.5,12.7,1.5c-0.4,5.9-11.9,12.9-30.2,20.4c-18.7,7.7-30.5,10.1-29.3,3.6
			c0.7-3.6,7.7-8.5,15-12.7c-5.9,1.3-11.4,1.7-10.7-2.1c0.9-5.1,12.9-12.4,28.8-18.6c15.6-6.1,26.1-7.5,25.7-2.8
			C503.1,287.4,497.6,291.4,491.2,295.1z M476.4,299.3c4.2-1.9,11.5-5.6,11.8-8.7c0.2-2.4-4-2.1-11.1,0.7c-7.2,2.8-11.8,6-12.2,8.5
			C464.4,302.8,471.4,300.9,476.4,299.3z M474.9,303.8c-4.5,2.1-12.4,6.1-12.9,9.4c-0.4,2.8,4.6,2.3,12.4-0.8
			c7.7-3.2,13-6.8,13.3-9.6C488,299.6,480.3,301.9,474.9,303.8z"/>
		<path class="st8" d="M568.8,252.4c-1.7,6-6.8,13.5-13.4,20.1l17.5-7l-0.3-3.5l1.1-8l11.4-4.5l1.2,10.6l6.8-2.7l0.4,3.3l-6.8,3.6
			l0.6,5.3l-13.7,5.6l-0.4-5.4l-30.9,12.5l-0.8-3c5-5.5,12.9-16.3,14.7-22.4L568.8,252.4z"/>
		<path class="st8" d="M647.1,233.2c1.8,6.7-3.8,14.1-21.1,21.2c-17.9,7.3-25.9,5.4-26.9-2c-1-7.1,5.3-14.5,22.3-21
			C637.8,225,645.4,226.7,647.1,233.2z M612.7,246.9c0.9,5.4,4.2,6.7,12.4,3.3c8-3.3,10.3-6.7,9.1-11.9c-1.2-5.1-4.4-6.3-12.2-3.3
			C614.2,238.2,611.8,241.7,612.7,246.9z"/>
		<path class="st8" d="M698.3,212.8c2.5,6.1-2,12.7-17.6,19.1c-16.1,6.6-23.9,4.9-25.8-1.8c-1.8-6.4,3.3-13,18.7-19
			C688.5,205.3,695.9,206.9,698.3,212.8z M667.2,225.2c1.5,4.9,4.8,6,12.2,3c7.3-3,9-6.1,7.2-10.8c-1.7-4.6-4.9-5.7-11.9-2.9
			C667.6,217.3,665.7,220.4,667.2,225.2z"/>
		<path class="st8" d="M754.7,183.9l-11.5,4.5l7.7,14l-10.5,4.3l-7.4-14.3l-12.1,4.7l-1.6-3.2l33.6-13L754.7,183.9z"/>
		<path class="st8" d="M788.1,187.7c-14,5.8-24,5.3-27.2,0c-3.1-5.1,2.4-11.5,16-16.7c13.2-5.1,22.7-4.8,26.1-0.1
			C806.6,175.7,801.7,182.1,788.1,187.7z M778.9,174c-7.4,2.9-10,6.6-8.1,9.8c2,3.2,7.4,3.8,15.1,0.7c7.6-3.1,10-6.8,7.9-9.8
			C791.7,171.6,786.2,171.1,778.9,174z"/>
		<path class="st8" d="M848.9,162.2l-8.4,3.4l-5.1-5.9l-15.2,6.1l4.9,6.1l-8.9,3.6l-11.5-14.9l8.6-3.3l4.7,5.8l15.1-6l-4.8-5.6
			l8.2-3.2L848.9,162.2z"/>
		<path class="st8" d="M887.9,146.1l-7.6,3.1l-5.5-5.4l-13.8,5.5l5.4,5.6l-8,3.3l-12.6-13.5l7.8-3l5.1,5.3l13.7-5.5l-5.2-5.1
			l7.5-2.9L887.9,146.1z"/>
	</g>
</g>
<g>
	<path class="st9" d="M1569.9-6.4h-1v-7h-4.1v7h-1v-7.8h6.1V-6.4z"/>
	<path class="st9" d="M1574.7-6.2c-2,0-3-1.2-3-3.2s1-3.2,3-3.2s3,1.2,3,3.2S1576.6-6.2,1574.7-6.2z M1572.7-9.4
		c0,1.5,0.6,2.4,2,2.4s2-0.9,2-2.4s-0.6-2.4-2-2.4C1573.3-11.8,1572.7-10.9,1572.7-9.4z"/>
	<path class="st9" d="M1579.2-12.4h1v2.6l0.8-0.4l2-2.2h1.1l-2.4,2.6l2.5,3.4h-1.2l-2.2-2.9l-0.7,0.3v2.6h-1L1579.2-12.4
		L1579.2-12.4z"/>
	<path class="st9" d="M1585.4-12.4h0.9l0.1,0.8c0.1-0.2,0.7-1,2-1c1.6,0,2.7,1.1,2.7,3c0,2-1,3.3-2.9,3.3c-1.3,0-1.8-0.8-1.8-0.8
		v3.6h-1L1585.4-12.4L1585.4-12.4z M1586.3-10.7v2.9c0.1,0.1,0.5,0.8,1.5,0.8c1.5,0,2.2-0.9,2.2-2.6c0-1.6-0.7-2.3-2.1-2.3
		C1586.8-11.8,1586.4-10.8,1586.3-10.7z"/>
	<path class="st9" d="M1593.5-10.2h1.2c1.5,0,2.7,0.5,2.7,1.8c0,1.4-0.9,2-2.7,2h-2.2v-6h1V-10.2z M1593.5-9.5v2.4h1.2
		c1.1,0,1.7-0.4,1.7-1.3c0-0.9-0.8-1.2-1.7-1.2h-1.2V-9.5z M1599.6-6.4h-1v-6h1V-6.4z"/>
	<path class="st9" d="M1603.7-11.6v5.2h-1v-5.2h-1.9v-0.8h4.8v0.8H1603.7z"/>
	<path class="st9" d="M1606.8-12.4h1v4.5l3.4-4.3l0.1-0.3h0.8v6h-1V-11l-3.4,4.3l-0.1,0.2h-0.9L1606.8-12.4L1606.8-12.4z"/>
	<path class="st9" d="M1619-7.4c0,0-0.6,1.2-2.4,1.2s-3-1-3-3s1.1-3.3,2.9-3.3c1.6,0,2.5,1.1,2.5,2.8c0,0.4-0.1,0.6-0.1,0.6h-4.3
		l0,0c0,1.4,0.8,2.1,2,2.1s1.8-0.8,1.8-0.8L1619-7.4z M1614.6-9.8h3.5c0,0,0,0,0-0.1c0-1.1-0.6-1.8-1.6-1.8
		C1615.3-11.8,1614.7-11,1614.6-9.8z"/>
	<path class="st9" d="M1628.8-6.4h-1v-5.2h-3.1v5.2h-1v-6h5L1628.8-6.4L1628.8-6.4z"/>
	<path class="st9" d="M1633.3-6.2c-2,0-3-1.2-3-3.2s1-3.2,3-3.2s3,1.2,3,3.2S1635.2-6.2,1633.3-6.2z M1631.3-9.4
		c0,1.5,0.6,2.4,2,2.4s2-0.9,2-2.4s-0.6-2.4-2-2.4C1631.9-11.8,1631.3-10.9,1631.3-9.4z"/>
	<path class="st9" d="M1642.7-6.4h-1v-5.2h-2.4c0,3.6-0.4,5.4-2,5.4c-0.1,0-0.2,0-0.3,0V-7h0.1c1,0,1.3-1.5,1.3-5.4h4.2v6H1642.7z"
		/>
	<path class="st9" d="M1649.1-6.4h-1v-2.3h-1.6l-1.2,2.3h-1l1.4-2.4c-0.9-0.2-1.4-0.9-1.4-1.7c0-1.2,0.8-1.9,2.5-1.9h2.3L1649.1-6.4
		L1649.1-6.4z M1646.2-9.4L1646.2-9.4c0.2,0,0.4,0.1,0.6,0.1h1.4v-2.4h-1.3c-1.2,0-1.6,0.4-1.6,1.2
		C1645.2-9.9,1645.5-9.6,1646.2-9.4L1646.2-9.4L1646.2-9.4z"/>
</g>
<g>
	<path class="st8" d="M1572.2,15.6h-2.1v-5h-5.8v5h-2.1V3.9h2.1V9h5.8V3.9h2.1V15.6z"/>
	<path class="st8" d="M1580.6,14.4c-0.2,0.4-0.8,1.5-2.8,1.5c-2.1,0-3.2-1-3.2-2.6c0-2.6,3.8-3.3,6-3.4V9.8c0-1.4-0.6-1.9-2-1.9
		c-1.5,0-2.2,0.9-2.2,0.9l-1.1-0.9c0,0,0.8-1.5,3.5-1.5c2.5,0,3.8,1,3.8,3.4v5.9h-1.6L1580.6,14.4z M1580.6,13.1v-1.9
		c-2,0.2-4,0.6-4,1.9c0,1,0.6,1.4,1.9,1.4C1580.1,14.5,1580.5,13.2,1580.6,13.1z"/>
	<path class="st8" d="M1588.7,8.2v7.4h-2V8.2h-2.7V6.6h7.4v1.6L1588.7,8.2L1588.7,8.2z"/>
	<path class="st8" d="M1593.3,18.7c1,0,1.7-1.2,2.4-3.1l-4-8.9h2.2l2.8,7h0.1l2.2-7h2.2l-3.6,9.3c-1.1,2.8-2.3,4.5-4,4.5
		c-1,0-1.5-0.4-1.5-0.4l0.3-1.6C1592.4,18.4,1592.9,18.7,1593.3,18.7z"/>
	<path class="st8" d="M1602.8,6.6h1.7l0.2,1.2c0.2-0.4,1-1.4,2.9-1.4c2.5,0,4.1,1.8,4.1,4.6c0,2.9-1.5,5-4.3,5c-2,0-2.7-1.1-2.7-1.1
		l0,0v5.3h-1.9L1602.8,6.6L1602.8,6.6z M1604.7,9.4v3.9c0.1,0.1,0.6,1.1,2.1,1.1c2.1,0,2.9-1.2,2.9-3.4c0-2.2-0.9-3.1-2.7-3.1
		C1605.3,7.9,1604.8,9.2,1604.7,9.4z"/>
	<path class="st8" d="M1619,14.4c-0.2,0.4-0.8,1.5-2.8,1.5c-2.1,0-3.2-1-3.2-2.6c0-2.6,3.8-3.3,6-3.4V9.8c0-1.4-0.6-1.9-2-1.9
		c-1.5,0-2.2,0.9-2.2,0.9l-1.1-0.9c0,0,0.8-1.5,3.5-1.5c2.5,0,3.8,1,3.8,3.4v5.9h-1.6L1619,14.4z M1618.9,13.1v-1.9
		c-2,0.2-4,0.6-4,1.9c0,1,0.6,1.4,1.9,1.4C1618.5,14.5,1618.9,13.2,1618.9,13.1z"/>
	<path class="st8" d="M1631.2,15.6h-2V8.2h-3c0,5-0.7,7.7-3.2,7.7c-0.2,0-0.4,0-0.5,0v-1.5c0.1,0,0.1,0,0.2,0c1.4,0,1.7-2.1,1.7-7.7
		h6.7v8.9H1631.2z"/>
	<path class="st8" d="M1635.9,9.8h1.6c2.5,0,4.2,0.8,4.2,2.8c0,2.1-1.4,3-4.2,3h-3.6v-9h2V9.8z M1635.9,11.1v3.1h1.6
		c1.4,0,2.2-0.5,2.2-1.6c0-1.2-1-1.5-2.2-1.5H1635.9z"/>
	<path class="st8" d="M1643.7,6.6h2v3.6h4.2V6.6h2v9h-2v-3.8h-4.2v3.8h-2V6.6z"/>
	<path class="st8" d="M1656.5,9.8h1.6c2.5,0,4.2,0.8,4.2,2.8c0,2.1-1.4,3-4.2,3h-3.6v-9h2V9.8z M1656.5,11.1v3.1h1.6
		c1.4,0,2.2-0.5,2.2-1.6c0-1.2-1-1.5-2.2-1.5H1656.5z M1665.9,15.6h-1.9v-9h1.9V15.6z"/>
	<path class="st8" d="M1668.7,6.6h2v6.2l4.6-5.6l0.2-0.5h1.7v9h-2v-6l-4.6,5.6l-0.1,0.4h-1.7L1668.7,6.6L1668.7,6.6z M1674.9,3
		L1674.9,3l1.5,0.2c0,0-0.4,2-3.3,2s-3.3-2-3.3-2l1.4-0.2h0.1c0,0,0.4,1.1,1.8,1.1S1674.9,3,1674.9,3z"/>
	<path class="st8" d="M1692.5,14.1c0,0-0.8,1.8-3.6,1.8c-3,0-4.6-1.6-4.6-4.7c0-3,1.5-4.9,4.6-4.9c2.3,0,3.3,1.2,3.3,1.2l-0.6,1.2
		c0,0-1.2-0.9-2.4-0.9c-2,0-2.9,1-2.9,3.3s1.1,3.3,2.7,3.3c1.5,0,2.4-1.1,2.4-1.1L1692.5,14.1z"/>
	<path class="st8" d="M1701.7,14c0,0-0.9,1.9-3.8,1.9c-2.8,0-4.6-1.5-4.6-4.6s1.7-5,4.5-5c2.5,0,3.9,1.6,3.9,4.2
		c0,0.8-0.2,1.2-0.2,1.2h-6.3c0,1.7,1,2.7,2.8,2.7c1.7,0,2.5-1.1,2.5-1.1L1701.7,14z M1695.3,10.4h4.8c0,0,0,0,0-0.2
		c0-1.4-0.7-2.4-2.3-2.4C1696.2,7.8,1695.4,8.9,1695.3,10.4z"/>
	<path class="st8" d="M1710.8,15.6h-2v-3.3h-1.9l-1.7,3.3h-2.1l2-3.6c-1.3-0.4-2-1.3-2-2.6c0-1.9,1.2-2.9,3.9-2.9h3.8L1710.8,15.6
		L1710.8,15.6z M1707.1,11.1h1.7V8h-1.6c-1.5,0-2.2,0.5-2.2,1.5C1705.1,10.6,1705.8,11.1,1707.1,11.1z"/>
	<path class="st8" d="M1713.6,6.6h2v3.6h4.2V6.6h2v9h-2v-3.8h-4.2v3.8h-2V6.6z"/>
	<path class="st8" d="M1726.5,9.8h1.6c2.5,0,4.2,0.8,4.2,2.8c0,2.1-1.4,3-4.2,3h-3.6v-9h2V9.8z M1726.5,11.1v3.1h1.6
		c1.4,0,2.2-0.5,2.2-1.6c0-1.2-1-1.5-2.2-1.5H1726.5z M1735.9,15.6h-1.9v-9h1.9V15.6z"/>
	<path class="st8" d="M1738.6,6.6h2v6.2l4.6-5.6l0.2-0.5h1.7v9h-2v-6l-4.6,5.6l-0.1,0.4h-1.7L1738.6,6.6L1738.6,6.6z M1744.8,3
		L1744.8,3l1.5,0.2c0,0-0.4,2-3.3,2s-3.3-2-3.3-2l1.4-0.2h0.1c0,0,0.4,1.1,1.8,1.1C1744.5,4.1,1744.8,3,1744.8,3z"/>
	<path class="st8" d="M1756.9,8.2v7.4h-2v-9h5.7v1.6L1756.9,8.2L1756.9,8.2z"/>
	<path class="st8" d="M1767,14.4c-0.2,0.4-0.8,1.5-2.8,1.5c-2.1,0-3.2-1-3.2-2.6c0-2.6,3.8-3.3,6-3.4V9.8c0-1.4-0.6-1.9-2-1.9
		c-1.5,0-2.2,0.9-2.2,0.9l-1.1-0.9c0,0,0.8-1.5,3.5-1.5c2.5,0,3.8,1,3.8,3.4v5.9h-1.6L1767,14.4z M1767,13.1v-1.9
		c-2,0.2-4,0.6-4,1.9c0,1,0.6,1.4,1.9,1.4C1766.5,14.5,1767,13.2,1767,13.1z"/>
	<path class="st8" d="M1771,7.8c0,0,0.6-1.5,3.3-1.5c2.2,0,3.5,1,3.5,2.5c0,1-0.5,1.6-1.2,2c0.8,0.3,1.6,1.1,1.6,2.2
		c0,1.8-1.4,2.9-4,2.9c-3.1,0-3.6-1.6-3.6-1.6l0.9-1c0,0,0.6,1.1,2.6,1.1c1.6,0,2.1-0.7,2.1-1.5s-0.7-1.3-1.8-1.3h-1.7v-1.3h1.7
		c0.3,0,1.4-0.2,1.4-1.3c0-0.8-0.6-1.3-1.9-1.3c-1.5,0-2,0.9-2,0.9L1771,7.8z"/>
	<path class="st8" d="M1784.3,15.9c-3,0-4.7-1.8-4.7-4.8s1.6-4.8,4.7-4.8s4.7,1.8,4.7,4.8C1788.9,14.1,1787.2,15.9,1784.3,15.9z
		 M1781.6,11.1c0,2,0.8,3.3,2.6,3.3c1.9,0,2.6-1.3,2.6-3.3s-0.8-3.3-2.6-3.3S1781.6,9.1,1781.6,11.1z"/>
	<path class="st8" d="M1791,6.6h2v3.6h4.2V6.6h2v9h-2v-3.8h-4.2v3.8h-2V6.6z"/>
</g>
<g>
	<g>
		<g>
			<path class="st0" d="M858.2,22.5c0,0,0-1.1-0.4-1.3c-1.3-0.7-4.3-0.7-9.1,0.3c1.6,0,3.4,0.1,4.4,0.7c2.1,1.2,1,2.8-4.9,4.1
				c-5.6,1.3-10.6,1.2-13-0.2c-2.3-1.5-0.2-3.2,7.5-4.9c1.1-0.2,3.2-0.7,3.7-0.8c8.7-1.6,13.5-1.5,15.7-0.3c2,1.1,0.4,2,0.4,2
				L858.2,22.5z M845.4,22.4c-0.6,0.1-1.4,0.2-2.2,0.4c-3.4,0.8-4.7,1.5-3.5,2.2c1.1,0.7,3.9,0.4,6.5-0.2c2.4-0.5,4-1.3,2.8-2
				C848,22.4,846.3,22.3,845.4,22.4z"/>
			<path class="st0" d="M860.5,29.8c0.1,0.8-0.7,1.9-4.5,2.8c-5.5,1.3-9.4,0.8-11.9-0.8c-2.5-1.6-1.8-3.1,3.7-4.4
				c3.1-0.7,5.9-0.6,8-0.3c0.1-0.7,1.1-1.6,4.4-2.4c4.5-1,8.7-0.7,11.1,0.6c2.4,1.4,1.4,3-3.1,4.1C865.2,30.1,862.5,30,860.5,29.8z
				 M856,28.9c-0.9-0.3-2.8-0.8-5.6-0.1c-2.5,0.6-3.2,1.4-2.2,2c1.1,0.7,3.3,0.8,5.8,0.2C856.9,30.2,856.6,29.4,856,28.9z M860,28
				c0.8,0.3,2.7,0.8,5.6,0.1c2.3-0.5,2.9-1.2,1.9-1.9c-1.1-0.6-3-0.7-5.3-0.1C859.4,26.7,859.5,27.5,860,28z"/>
			<path class="st0" d="M869.8,47.5l-2.6-1.6l18.5-4.8h-0.1l-21.7,2.7l-2.5-1.6l15.1-6.6h-0.1l-18.2,4.6l-2.4-1.5L882,32l3.4,2
				l-16.8,7.4l0.1,0.1l24.3-3.1l3.6,2.1L869.8,47.5z"/>
			<path class="st0" d="M881.6,55l-8.6-5.5l27-7.2l8.6,5l-5,1.4l-5.7-3.3l-5.8,1.6l5,3l-4.9,1.3l-5-3L881,50l5.9,3.7L881.6,55z"/>
			<path class="st0" d="M915.3,55.5l-3.6-2.1l-22.6,6.4l-3-1.9l22.5-6.3l-3.5-2.1l5-1.4l10.3,5.9L915.3,55.5z"/>
			<path class="st0" d="M922.4,55.2l4.8,2.7c3.6,2.1,2.8,4.2-3.6,6.1c-7.2,2.2-13,1.2-15.5-0.4l-1.8-1.1l-8.8,2.6l-2.9-1.9
				L922.4,55.2z M920.6,58.4l-9.5,2.8l1.1,0.7c1.6,0.9,3.9,1.4,7.6,0.3c3.5-1,3.5-2.1,1.8-3.1L920.6,58.4z"/>
			<path class="st0" d="M912.7,75.7c-4.9-3.1-1.3-6.7,7.7-9.4c8.8-2.7,17.3-2.9,22.4,0c5.2,3,2.2,6.6-6.8,9.5
				C926.9,78.7,917.7,78.9,912.7,75.7z M937.4,68c-2.8-1.6-8.1-1.3-13.5,0.4c-5.5,1.7-8.1,3.8-5.3,5.5c2.8,1.8,8.3,1.4,13.9-0.3
				C937.9,71.8,940.2,69.6,937.4,68z"/>
			<path class="st0" d="M953.3,73l5.8,3.3c4.5,2.6,2.2,4.8-1.7,6.1c-2.7,0.9-5.5,1-7.8,0.8c0.7,1.5-0.7,2.9-3.8,4
				c-5.3,1.8-10.9,1.9-15.6-1.1l-5.8-3.7L953.3,73z M947.6,80.6c0.9,0.5,2.9,0.8,5.5,0c2.3-0.8,2.6-1.7,0.9-2.7l-2.3-1.4l-7,2.3
				L947.6,80.6z M940.7,80.1l-7.7,2.5l2.4,1.5c2.2,1.4,4.6,1.5,7.2,0.6c2.4-0.8,2.9-1.8,1.3-2.7L940.7,80.1z"/>
		</g>
	</g>
	<polygon class="st0" points="988.3,108.8 962.4,93 967.4,91.2 993.4,106.8 	"/>
	<polygon class="st0" points="979.8,109.5 996.5,103 996.4,111.1 	"/>
	<polygon class="st0" points="829,8.6 841.2,15.9 837.1,16.8 825,9.4 	"/>
	<polygon class="st0" points="834.8,8.3 821.4,11.1 824.7,7.6 	"/>
</g>
<g>
	<g>
		<g>
			<path class="st0" d="M1275,111.1l-4.2,2.7l-21.9-8.4c0,1.3-0.6,2.5-2.2,3.7l-5.5-1.7c1.9-1.6,1.6-4.2-0.9-5.3l-0.1-0.1l4.3-2.5
				L1275,111.1z"/>
			<path class="st0" d="M1279.4,93.1c9.6,3.4,13.9,7.1,8.5,10.6c-5.6,3.6-14.4,2.7-24.2-1c-9.5-3.6-13.4-7.2-7.6-10.6
				C1261.7,88.9,1270,89.7,1279.4,93.1z M1268.2,100c7.3,2.7,11.5,3.3,14.1,1.7c2.6-1.6,0.2-3.4-7.1-6c-7.1-2.6-11.3-3.2-13.9-1.6
				C1258.7,95.6,1261,97.3,1268.2,100z"/>
			<path class="st0" d="M1283.9,81.6l-6.1,3.6l5.2,2.2c0.2-0.2,0.5-0.4,0.8-0.6c3.9-2.4,9.5-2.9,15.6-0.9c7.2,2.4,7.6,5.3,3.8,7.8
				c-5.1,3.3-12.1,1.9-12.1,1.9l-1.8-2.5c0,0,5.5,0.3,8.1-1.3c2.1-1.3,1.1-2.6-1.8-3.6c-2.5-0.8-5.5-0.8-7.5,0.4
				c-1.3,0.8-1.3,1.4-1.1,1.7l0,0l-2.4,1.1l-15.2-6.2l9.1-5.3L1283.9,81.6z"/>
			<path class="st0" d="M1337.6,70.6l-3.1,2l-19.8-6l-0.1,0.1l15.7,8.7l-3.3,2.1l-24.4-3.6h-0.1l20.1,6.4l-3.4,2.2l-29.1-9.4
				l4.7-2.8l27.1,4l0.1-0.1l-17.4-9.7l4.4-2.6L1337.6,70.6z"/>
			<path class="st0" d="M1350.8,62l-9.5,6.1l-28.3-8.4l9.5-5.5l5.1,1.5l-6.2,3.7l6.1,1.8l5.4-3.3l5,1.4l-5.4,3.3l6.5,1.9l6.4-4
				L1350.8,62z"/>
			<path class="st0" d="M1339.2,48.8l-3.5,2.1l22.6,6.3l-2.9,1.9l-22.7-6.4l-3.6,2.1l-5.1-1.5l10.2-5.9L1339.2,48.8z"/>
			<path class="st0" d="M1336.1,46.3l4.2-2.5c3.1-1.8,7.8-2.1,13.8-0.5c6.9,1.8,7.1,4.1,4.9,5.4l-1.6,1l8.6,2.3l-2.6,1.7
				L1336.1,46.3z M1343.5,46l9.2,2.5l1-0.6c1.4-0.8,1.4-1.8-2.2-2.7c-3.3-0.9-5.6-0.6-7,0.3L1343.5,46z"/>
			<path class="st0" d="M1380,43.9c-3.8,2.4-11.8,2.2-20.3,0c-8.4-2.2-11.8-4.9-7.9-7.2c3.9-2.2,11.5-2.1,19.7,0
				C1379.9,38.7,1383.7,41.5,1380,43.9z M1356.9,38c-2.1,1.3,0.3,2.9,5.5,4.2c5.2,1.4,10,1.6,12.1,0.3c2.1-1.3-0.5-2.9-5.7-4.2
				C1363.7,36.9,1359,36.7,1356.9,38z"/>
			<path class="st0" d="M1360.6,32.1l3.9-2.3c2.9-1.7,7.3-1.4,10.8-0.6c2.4,0.6,3.5,1.3,3.9,2c2.2-0.5,4.9-0.3,7.7,0.3
				c4.6,1.1,6.8,2.7,3.9,4.6l-3.9,2.5L1360.6,32.1z M1375.6,32.3c0.6-0.3,0.4-1-1.9-1.5c-2.1-0.5-3.8-0.4-4.9,0.2l-1.5,0.9l6.4,1.6
				L1375.6,32.3z M1377.3,34.3l7,1.7l1.6-1c1.4-0.9,0.7-1.6-1.6-2.1c-2.1-0.5-3.9-0.5-4.9,0.1L1377.3,34.3z"/>
		</g>
	</g>
	<g>
		<polygon class="st0" points="1403.1,19.2 1389.9,27.3 1385.6,26.3 1398.9,18.2 		"/>
		<polygon class="st0" points="1406.8,21 1392.8,17.9 1403.5,17.2 		"/>
	</g>
	<g>
		<polygon class="st0" points="1202.2,137.9 1233.5,118.8 1238.7,121 1207.5,140.3 		"/>
		<polygon class="st0" points="1199.4,133.2 1216.9,141.1 1198.2,143.2 		"/>
	</g>
</g>
<g>
	<path class="st9" d="M1568.9,95.7h-1v-7h-4.1v7h-1v-7.8h6.1V95.7z"/>
	<path class="st9" d="M1573.7,95.9c-2,0-3-1.2-3-3.2s1-3.2,3-3.2s3,1.2,3,3.2C1576.7,94.7,1575.6,95.9,1573.7,95.9z M1571.7,92.7
		c0,1.5,0.6,2.4,2,2.4s2-0.9,2-2.4s-0.6-2.4-2-2.4C1572.3,90.3,1571.7,91.2,1571.7,92.7z"/>
	<path class="st9" d="M1578.2,89.7h1v2.6l0.8-0.4l2-2.2h1.1l-2.4,2.6l2.5,3.4h-1.2l-2.2-2.9l-0.7,0.3v2.6h-1L1578.2,89.7
		L1578.2,89.7z"/>
	<path class="st9" d="M1584.4,89.7h0.9l0.1,0.8c0.1-0.2,0.7-1,2-1c1.6,0,2.7,1.1,2.7,3c0,2-1,3.3-2.9,3.3c-1.3,0-1.8-0.8-1.8-0.8
		v3.6h-1L1584.4,89.7L1584.4,89.7z M1585.3,91.4v2.9c0.1,0.1,0.5,0.8,1.5,0.8c1.5,0,2.2-0.9,2.2-2.6c0-1.6-0.7-2.3-2.1-2.3
		C1585.8,90.3,1585.4,91.3,1585.3,91.4z"/>
	<path class="st9" d="M1592.5,91.9h1.2c1.5,0,2.7,0.5,2.7,1.8c0,1.4-0.9,2-2.7,2h-2.2v-6h1V91.9z M1592.5,92.6V95h1.2
		c1.1,0,1.7-0.4,1.7-1.3s-0.8-1.2-1.7-1.2h-1.2V92.6z M1598.6,95.7h-1v-6h1V95.7z"/>
	<path class="st9" d="M1602.7,90.5v5.2h-1v-5.2h-1.9v-0.8h4.8v0.8H1602.7z"/>
	<path class="st9" d="M1605.8,89.7h1v4.5l3.4-4.3l0.1-0.3h0.8v6h-1v-4.5l-3.4,4.3l-0.1,0.2h-0.9L1605.8,89.7L1605.8,89.7z"/>
	<path class="st9" d="M1618,94.7c0,0-0.6,1.2-2.4,1.2s-3-1-3-3s1.1-3.3,2.9-3.3c1.6,0,2.5,1.1,2.5,2.8c0,0.4-0.1,0.6-0.1,0.6h-4.3
		l0,0c0,1.4,0.8,2.1,2,2.1s1.8-0.8,1.8-0.8L1618,94.7z M1613.6,92.3h3.5c0,0,0,0,0-0.1c0-1.1-0.6-1.8-1.6-1.8
		C1614.3,90.3,1613.7,91.1,1613.6,92.3z"/>
	<path class="st9" d="M1624.7,90.5v5.2h-1v-5.2h-1.9v-0.8h4.8v0.8H1624.7z"/>
	<path class="st9" d="M1632.7,94.7c0,0-0.6,1.2-2.4,1.2s-3-1-3-3s1.1-3.3,2.9-3.3c1.6,0,2.5,1.1,2.5,2.8c0,0.4-0.1,0.6-0.1,0.6h-4.3
		l0,0c0,1.4,0.8,2.1,2,2.1s1.8-0.8,1.8-0.8L1632.7,94.7z M1628.3,92.3h3.5c0,0,0,0,0-0.1c0-1.1-0.6-1.8-1.6-1.8
		C1629,90.3,1628.4,91.1,1628.3,92.3z"/>
	<path class="st9" d="M1636.9,92.7l2.4,3h-1.1l-1.9-2.5l0,0l-1.9,2.5h-1.1l2.4-3l-2.4-3h1.1l1.8,2.4l0,0l1.8-2.4h1.1L1636.9,92.7z"
		/>
	<path class="st9" d="M1640.5,89.7h1v2.5h3.2v-2.5h1v6h-1V93h-3.2v2.7h-1V89.7z"/>
	<path class="st9" d="M1647.7,89.7h1v4.5l3.4-4.3l0.1-0.3h0.8v6h-1v-4.5l-3.4,4.3l-0.1,0.2h-0.9L1647.7,89.7L1647.7,89.7z"/>
	<path class="st9" d="M1658.5,89.7h1v6h-1v-2.5c-0.1,0-0.7,0.3-1.9,0.3c-1.1,0-1.9-0.5-1.9-1.6v-2.2h1v2.1c0,0.7,0.4,1.1,1.2,1.1
		c1,0,1.5-0.3,1.5-0.3v-2.9H1658.5z"/>
	<path class="st9" d="M1666.4,94.7c0,0-0.6,1.2-2.4,1.2s-3-1-3-3s1.1-3.3,2.9-3.3c1.6,0,2.5,1.1,2.5,2.8c0,0.4-0.1,0.6-0.1,0.6h-4.3
		l0,0c0,1.4,0.8,2.1,2,2.1s1.8-0.8,1.8-0.8L1666.4,94.7z M1662,92.3h3.5c0,0,0,0,0-0.1c0-1.1-0.6-1.8-1.6-1.8
		C1662.7,90.3,1662.1,91.1,1662,92.3z"/>
	<path class="st9" d="M1672.6,94.8c0,0-0.5,1.1-2.3,1.1c-1.9,0-3-1-3-3.1c0-2,1-3.2,3-3.2c1.5,0,2.1,0.7,2.1,0.7l-0.3,0.6
		c0,0-0.6-0.6-1.7-0.6c-1.5,0-2.1,0.8-2.1,2.5s0.8,2.4,2.1,2.4c1.1,0,1.7-0.7,1.7-0.7L1672.6,94.8z"/>
	<path class="st9" d="M1673.8,89.7h1v2.6l0.8-0.4l2-2.2h1.1l-2.4,2.6l2.5,3.4h-1.2l-2.2-2.9l-0.7,0.3v2.6h-1L1673.8,89.7
		L1673.8,89.7z"/>
	<path class="st9" d="M1682.4,95.9c-2,0-3-1.2-3-3.2s1-3.2,3-3.2s3,1.2,3,3.2C1685.4,94.7,1684.3,95.9,1682.4,95.9z M1680.4,92.7
		c0,1.5,0.6,2.4,2,2.4s2-0.9,2-2.4s-0.6-2.4-2-2.4C1681,90.3,1680.4,91.2,1680.4,92.7z"/>
	<path class="st9" d="M1686.9,89.7h1v4.5l3.4-4.3l0.1-0.3h0.8v6h-1v-4.5l-3.4,4.3l-0.1,0.2h-0.9L1686.9,89.7L1686.9,89.7z
		 M1690.9,87.5L1690.9,87.5l0.8,0.1c0,0-0.3,1.2-2.1,1.2s-2.1-1.2-2.1-1.2l0.8-0.1l0,0c0,0,0.2,0.7,1.3,0.7
		C1690.7,88.2,1690.9,87.5,1690.9,87.5z"/>
	<path class="st9" d="M1697.1,90.5c0,0,0.4-0.9,2.1-0.9c1.5,0,2.2,0.7,2.2,1.6c0,0.7-0.4,1.1-0.8,1.3c0.6,0.2,1,0.7,1,1.5
		c0,1.1-0.8,1.9-2.5,1.9c-2,0-2.4-1-2.4-1l0.5-0.5c0,0,0.4,0.8,1.8,0.8c1.2,0,1.6-0.6,1.6-1.2s-0.5-1-1.4-1h-1.1v-0.6h1.2
		c0.1,0,1.1-0.1,1.1-1c0-0.6-0.5-1-1.5-1c-1.1,0-1.4,0.6-1.4,0.6L1697.1,90.5z"/>
	<path class="st9" d="M1705.7,95.9c-2,0-3-1.2-3-3.2s1-3.2,3-3.2s3,1.2,3,3.2C1708.7,94.7,1707.7,95.9,1705.7,95.9z M1703.8,92.7
		c0,1.5,0.6,2.4,2,2.4s2-0.9,2-2.4s-0.6-2.4-2-2.4C1704.4,90.3,1703.8,91.2,1703.8,92.7z"/>
	<path class="st9" d="M1710.3,89.7h1v2.5h3.2v-2.5h1v6h-1V93h-3.2v2.7h-1V89.7z"/>
	<path class="st9" d="M1718.4,91.9h1.2c1.5,0,2.7,0.5,2.7,1.8c0,1.4-0.9,2-2.7,2h-2.2v-6h1V91.9z M1718.4,92.6V95h1.2
		c1.1,0,1.7-0.4,1.7-1.3s-0.8-1.2-1.7-1.2h-1.2V92.6z M1724.5,95.7h-1v-6h1V95.7z"/>
</g>
<g>
	<path class="st8" d="M1571.3,117.7h-1.9v-7.9l0.1-0.8l0,0l-6.1,8.5l-0.1,0.2h-1.9V106h2v7.9l-0.1,0.8l0,0l6.1-8.5l0.1-0.2h1.9
		L1571.3,117.7L1571.3,117.7z"/>
	<path class="st8" d="M1582,116.2c0,0-0.8,1.8-3.6,1.8c-3,0-4.6-1.6-4.6-4.7c0-3,1.5-4.9,4.6-4.9c2.3,0,3.3,1.2,3.3,1.2l-0.6,1.2
		c0,0-1.2-0.9-2.4-0.9c-2,0-2.9,1-2.9,3.3s1.1,3.3,2.7,3.3c1.5,0,2.4-1.1,2.4-1.1L1582,116.2z"/>
	<path class="st8" d="M1583.6,108.7h2v3.8l1-0.6l2.6-3.1h2.3l-3.3,3.9l3.6,5.1h-2.4l-2.9-4.1l-0.9,0.4v3.8h-2L1583.6,108.7
		L1583.6,108.7z"/>
	<path class="st8" d="M1593.5,120.8c1,0,1.7-1.2,2.4-3.1l-4-8.9h2.2l2.8,7h0.1l2.2-7h2.2l-3.6,9.3c-1.1,2.8-2.3,4.5-4,4.5
		c-1,0-1.5-0.4-1.5-0.4l0.3-1.6C1592.6,120.5,1593.1,120.8,1593.5,120.8z"/>
	<path class="st8" d="M1610.5,116.2c0,0-0.8,1.8-3.6,1.8c-3,0-4.6-1.6-4.6-4.7c0-3,1.5-4.9,4.6-4.9c2.3,0,3.3,1.2,3.3,1.2l-0.6,1.2
		c0,0-1.2-0.9-2.4-0.9c-2,0-2.9,1-2.9,3.3s1.1,3.3,2.7,3.3c1.5,0,2.4-1.1,2.4-1.1L1610.5,116.2z"/>
	<path class="st8" d="M1619.5,116.2c0,0-0.8,1.8-3.6,1.8c-3,0-4.6-1.6-4.6-4.7c0-3,1.5-4.9,4.6-4.9c2.3,0,3.3,1.2,3.3,1.2l-0.6,1.2
		c0,0-1.2-0.9-2.4-0.9c-2,0-2.9,1-2.9,3.3s1.1,3.3,2.7,3.3c1.5,0,2.4-1.1,2.4-1.1L1619.5,116.2z"/>
	<path class="st8" d="M1624.6,110.3v7.4h-2v-7.4h-2.7v-1.6h7.4v1.6H1624.6z"/>
	<path class="st8" d="M1636.3,111.1c0,1.1-0.8,1.7-1.5,2c1,0.2,1.9,0.8,1.9,2c0,1.6-1,2.6-4.1,2.6h-3.7v-9h3.7
		C1635.4,108.7,1636.3,109.7,1636.3,111.1z M1632.9,112.6c0,0,1.4-0.1,1.4-1.3c0-0.8-0.4-1.3-1.7-1.3h-1.8v2.5L1632.9,112.6
		L1632.9,112.6z M1630.8,113.6v2.7h1.8c1.8,0,2.1-0.6,2.1-1.4c0-0.7-0.5-1.3-2-1.3L1630.8,113.6L1630.8,113.6z"/>
	<path class="st8" d="M1646.5,116.2c0,0-0.9,1.9-3.8,1.9c-2.8,0-4.6-1.5-4.6-4.6s1.7-5,4.5-5c2.5,0,3.9,1.6,3.9,4.2
		c0,0.8-0.2,1.2-0.2,1.2h-6.3c0,1.7,1,2.7,2.8,2.7c1.7,0,2.5-1.1,2.5-1.1L1646.5,116.2z M1640,112.5h4.8c0,0,0,0,0-0.2
		c0-1.4-0.7-2.4-2.3-2.4C1640.9,109.9,1640.1,111,1640,112.5z"/>
	<path class="st8" d="M1648.5,108.7h2v3.6h4.2v-3.6h2v9h-2v-3.8h-4.2v3.8h-2V108.7z"/>
	<path class="st8" d="M1659.4,108.7h2v3.6h4.2v-3.6h2v9h-2v-3.8h-4.2v3.8h-2V108.7z"/>
	<path class="st8" d="M1672.2,111.9h1.6c2.5,0,4.2,0.8,4.2,2.8c0,2.1-1.4,3-4.2,3h-3.6v-9h2V111.9z M1672.2,113.2v3.1h1.6
		c1.4,0,2.2-0.5,2.2-1.6c0-1.2-1-1.5-2.2-1.5H1672.2z M1681.6,117.7h-1.9v-9h1.9V117.7z"/>
	<path class="st8" d="M1684.4,108.7h2v6.2l4.6-5.6l0.2-0.5h1.7v9h-2v-6l-4.6,5.6l-0.1,0.4h-1.7L1684.4,108.7L1684.4,108.7z
		 M1690.6,105.1L1690.6,105.1l1.5,0.2c0,0-0.4,2-3.3,2s-3.3-2-3.3-2l1.4-0.2h0.1c0,0,0.4,1.1,1.8,1.1S1690.6,105.1,1690.6,105.1z"/>
	<path class="st8" d="M1702.6,110.3v7.4h-2v-9h5.7v1.6H1702.6z"/>
	<path class="st8" d="M1712.8,116.5c-0.2,0.4-0.8,1.5-2.8,1.5c-2.1,0-3.2-1-3.2-2.6c0-2.6,3.8-3.3,6-3.4v-0.1c0-1.4-0.6-1.9-2-1.9
		c-1.5,0-2.2,0.9-2.2,0.9l-1.1-0.9c0,0,0.8-1.5,3.5-1.5c2.5,0,3.8,1,3.8,3.4v5.9h-1.6L1712.8,116.5z M1712.8,115.2v-1.9
		c-2,0.2-4,0.6-4,1.9c0,1,0.6,1.4,1.9,1.4C1712.3,116.6,1712.7,115.3,1712.8,115.2z"/>
	<path class="st8" d="M1716.8,109.9c0,0,0.6-1.5,3.3-1.5c2.2,0,3.5,1,3.5,2.5c0,1-0.5,1.6-1.2,2c0.8,0.3,1.6,1.1,1.6,2.2
		c0,1.8-1.4,2.9-4,2.9c-3.1,0-3.6-1.6-3.6-1.6l0.9-1c0,0,0.6,1.1,2.6,1.1c1.6,0,2.1-0.7,2.1-1.5s-0.7-1.3-1.8-1.3h-1.7v-1.3h1.7
		c0.3,0,1.4-0.2,1.4-1.3c0-0.8-0.6-1.3-1.9-1.3c-1.5,0-2,0.9-2,0.9L1716.8,109.9z"/>
	<path class="st8" d="M1730,118c-3,0-4.7-1.8-4.7-4.8s1.6-4.8,4.7-4.8s4.7,1.8,4.7,4.8S1733,118,1730,118z M1727.4,113.2
		c0,2,0.8,3.3,2.6,3.3c1.9,0,2.6-1.3,2.6-3.3s-0.8-3.3-2.6-3.3C1728.2,109.9,1727.4,111.2,1727.4,113.2z"/>
	<path class="st8" d="M1736.8,108.7h2v3.6h4.2v-3.6h2v9h-2v-3.8h-4.2v3.8h-2V108.7z"/>
	<path class="st8" d="M1760.8,117.7h-2v-7.4h-4.1v7.4h-2v-9h8L1760.8,117.7L1760.8,117.7z"/>
	<path class="st8" d="M1767.5,118c-3,0-4.7-1.8-4.7-4.8s1.6-4.8,4.7-4.8s4.7,1.8,4.7,4.8S1770.4,118,1767.5,118z M1764.8,113.2
		c0,2,0.8,3.3,2.6,3.3c1.9,0,2.6-1.3,2.6-3.3s-0.8-3.3-2.6-3.3C1765.6,109.9,1764.8,111.2,1764.8,113.2z"/>
	<path class="st8" d="M1781.7,116.2c0,0-0.8,1.8-3.6,1.8c-3,0-4.6-1.6-4.6-4.7c0-3,1.5-4.9,4.6-4.9c2.3,0,3.3,1.2,3.3,1.2l-0.6,1.2
		c0,0-1.2-0.9-2.4-0.9c-2,0-2.9,1-2.9,3.3s1.1,3.3,2.7,3.3c1.5,0,2.4-1.1,2.4-1.1L1781.7,116.2z"/>
	<path class="st8" d="M1790.9,117.7h-2v-7.4h-3c0,5-0.7,7.7-3.2,7.7c-0.2,0-0.4,0-0.5,0v-1.5c0.1,0,0.1,0,0.2,0
		c1.4,0,1.7-2.1,1.7-7.7h6.7v8.9H1790.9z"/>
	<path class="st8" d="M1801.3,116.2c0,0-0.9,1.9-3.8,1.9c-2.8,0-4.6-1.5-4.6-4.6s1.7-5,4.5-5c2.5,0,3.9,1.6,3.9,4.2
		c0,0.8-0.2,1.2-0.2,1.2h-6.3c0,1.7,1,2.7,2.8,2.7c1.7,0,2.5-1.1,2.5-1.1L1801.3,116.2z M1794.9,112.5h4.8c0,0,0,0,0-0.2
		c0-1.4-0.7-2.4-2.3-2.4C1795.8,109.9,1795,111,1794.9,112.5z"/>
	<path class="st8" d="M1812.7,120.2h-1.5l-0.1-2.5h-7.2l-0.2,2.5h-1.4l-0.1-4h1.2c0.9-2,1.1-4.2,1.1-7.5h6.8v7.5h1.5L1812.7,120.2z
		 M1805.3,116.2h4.3v-5.9h-3.3C1806.2,112.6,1806,114.4,1805.3,116.2z"/>
	<path class="st8" d="M1814.8,108.7h2v3.6h4.2v-3.6h2v9h-2v-3.8h-4.2v3.8h-2V108.7z"/>
	<path class="st8" d="M1833.3,116.2c0,0-0.9,1.9-3.8,1.9c-2.8,0-4.6-1.5-4.6-4.6s1.7-5,4.5-5c2.5,0,3.9,1.6,3.9,4.2
		c0,0.8-0.2,1.2-0.2,1.2h-6.3c0,1.7,1,2.7,2.8,2.7c1.7,0,2.5-1.1,2.5-1.1L1833.3,116.2z M1826.9,112.5h4.8c0,0,0,0,0-0.2
		c0-1.4-0.7-2.4-2.3-2.4C1827.8,109.9,1827,111,1826.9,112.5z"/>
	<path class="st8" d="M1837.3,110.3v7.4h-2v-9h5.7v1.6H1837.3z"/>
	<path class="st8" d="M1846.5,118c-3,0-4.7-1.8-4.7-4.8s1.6-4.8,4.7-4.8s4.7,1.8,4.7,4.8S1849.4,118,1846.5,118z M1843.8,113.2
		c0,2,0.8,3.3,2.6,3.3s2.6-1.3,2.6-3.3s-0.8-3.3-2.6-3.3S1843.8,111.2,1843.8,113.2z"/>
	<path class="st8" d="M1866.3,117.7h-2v-7.4h-4.1v7.4h-2v-9h8L1866.3,117.7L1866.3,117.7z"/>
	<path class="st8" d="M1873,118c-3,0-4.7-1.8-4.7-4.8s1.6-4.8,4.7-4.8s4.7,1.8,4.7,4.8S1876,118,1873,118z M1870.4,113.2
		c0,2,0.8,3.3,2.6,3.3c1.9,0,2.6-1.3,2.6-3.3s-0.8-3.3-2.6-3.3C1871.1,109.9,1870.4,111.2,1870.4,113.2z"/>
	<path class="st8" d="M1879.7,108.7h2v3.8l1-0.6l2.6-3.1h2.3l-3.3,3.9l3.6,5.1h-2.4l-2.9-4.1l-0.9,0.4v3.8h-2L1879.7,108.7
		L1879.7,108.7z"/>
	<path class="st8" d="M1893.3,118c-3,0-4.7-1.8-4.7-4.8s1.6-4.8,4.7-4.8s4.7,1.8,4.7,4.8S1896.2,118,1893.3,118z M1890.6,113.2
		c0,2,0.8,3.3,2.6,3.3s2.6-1.3,2.6-3.3s-0.8-3.3-2.6-3.3S1890.6,111.2,1890.6,113.2z"/>
	<path class="st8" d="M1907.7,117.7h-2v-7.4h-3c0,5-0.7,7.7-3.2,7.7c-0.2,0-0.4,0-0.5,0v-1.5c0.1,0,0.1,0,0.2,0
		c1.3,0,1.7-2.1,1.7-7.7h6.7v8.9H1907.7z"/>
	<path class="st8" d="M1918.1,116.2c0,0-0.9,1.9-3.8,1.9c-2.8,0-4.6-1.5-4.6-4.6s1.7-5,4.5-5c2.5,0,3.9,1.6,3.9,4.2
		c0,0.8-0.2,1.2-0.2,1.2h-6.3c0,1.7,1,2.7,2.8,2.7c1.7,0,2.5-1.1,2.5-1.1L1918.1,116.2z M1911.6,112.5h4.8c0,0,0,0,0-0.2
		c0-1.4-0.7-2.4-2.3-2.4C1912.6,109.9,1911.7,111,1911.6,112.5z"/>
	<path class="st8" d="M1920.1,108.7h2v3.6h4.2v-3.6h2v9h-2v-3.8h-4.2v3.8h-2V108.7z"/>
	<path class="st8" d="M1931,108.7h2v6.2l4.6-5.6l0.2-0.5h1.7v9h-2v-6l-4.6,5.6l-0.1,0.4h-1.7L1931,108.7L1931,108.7z"/>
	<path class="st8" d="M1949.3,117.7h-2v-3.3h-1.9l-1.7,3.3h-2.1l2-3.6c-1.3-0.4-2-1.3-2-2.6c0-1.9,1.2-2.9,3.9-2.9h3.8L1949.3,117.7
		L1949.3,117.7z M1945.6,113.2h1.7v-3.1h-1.6c-1.5,0-2.2,0.5-2.2,1.5S1944.3,113.2,1945.6,113.2z"/>
</g>
<linearGradient id="SVGID_3_" gradientUnits="userSpaceOnUse" x1="809.9" y1="183.6" x2="1093.1" y2="183.6" gradientTransform="matrix(1 0 0 -1 0 562)">
	<stop  offset="0" style="stop-color:#F0F4F7"/>
	<stop  offset="1" style="stop-color:#DCE7ED"/>
</linearGradient>
<polygon class="st10" points="1093.1,283.8 821.4,482.2 809.9,466.5 1081.7,274.6 "/>
<linearGradient id="SVGID_4_" gradientUnits="userSpaceOnUse" x1="509" y1="287.45" x2="957.6" y2="287.45" gradientTransform="matrix(1 0 0 -1 0 562)">
	<stop  offset="0" style="stop-color:#F0F4F7"/>
	<stop  offset="1" style="stop-color:#DCE7ED"/>
</linearGradient>
<polygon class="st11" points="951.2,169.7 509,370.9 514.4,379.4 957.6,174.6 "/>
<linearGradient id="SVGID_5_" gradientUnits="userSpaceOnUse" x1="443.7" y1="393.75" x2="865.6" y2="393.75" gradientTransform="matrix(1 0 0 -1 0 562)">
	<stop  offset="0" style="stop-color:#F0F4F7"/>
	<stop  offset="1" style="stop-color:#DCE7ED"/>
</linearGradient>
<polygon class="st12" points="865.6,100.8 445.5,238.2 443.7,234.1 862.5,98.3 "/>
<linearGradient id="SVGID_6_" gradientUnits="userSpaceOnUse" x1="418.5" y1="461.35" x2="805.4" y2="461.35" gradientTransform="matrix(1 0 0 -1 0 562)">
	<stop  offset="0" style="stop-color:#F0F4F7"/>
	<stop  offset="1" style="stop-color:#DCE7ED"/>
</linearGradient>
<polygon class="st13" points="805.4,52.4 421.7,150 418.5,148.1 804,51.3 "/>
<linearGradient id="SVGID_7_" gradientUnits="userSpaceOnUse" x1="381.8" y1="504.2" x2="763.7" y2="504.2" gradientTransform="matrix(1 0 0 -1 0 562)">
	<stop  offset="0" style="stop-color:#F0F4F7"/>
	<stop  offset="1" style="stop-color:#DCE7ED"/>
</linearGradient>
<polygon class="st14" points="763.7,18.9 382.7,97.4 381.8,96 762.8,18.2 "/>
<line class="st15" x1="1519.8" y1="106" x2="1344.3" y2="106"/>
<line class="st15" x1="1519.8" y1="0.1" x2="1344.3" y2="0.1"/>
<path class="st16" d="M997,203.5c0,0-2.1-4,0.5-4.1s3.5-2.8,3.5-2.8l63.7,49.5c0,0-5.9,0.4-4.1,7.2c0,0,1.6,2.1-0.1,3.2L997,203.5z"
	/>
<g>
	<path class="st17" d="M1002.1,197.5l-0.4-0.3l-0.7-0.5c0,0.1-0.8,2-2.6,2.6C1000.4,198.8,1000.8,198.8,1002.1,197.5z"/>
	<path class="st17" d="M998.2,199.3C998.2,199.3,998.3,199.3,998.2,199.3c-0.2,0.1-0.5,0.1-0.8,0.1c-2.6,0.1-2.7,5.3-2.7,5.3
		l2.3-1.2C997,203.5,996.1,199.7,998.2,199.3z"/>
</g>
<polyline class="st15" points="1060.4,249.6 1192.9,382 1519.8,381.9 "/>
<polygon class="st8" points="484.7,101.2 623,68.4 611.5,74.4 616.2,74.4 634.2,65 613.4,65 609.4,67 622.5,67 485,99.4 500.8,92.2 
	495.7,92.2 469.9,103.8 494,103.8 499.6,101.2 "/>
<circle class="st9" cx="1343" cy="106" r="3.8"/>
<circle class="st9" cx="1343" cy="0.1" r="3.8"/>
<g>
	<path class="st0" d="M1575.1,197.7c0,0-19.2-7.7-20.6-7.7c-6.5,0-9.5,2.2-9.5,6.6c0,11,42.9,9.7,42.9,37.4
		c0,20.3-14.1,30.5-37.3,30.5c-27.2,0-37.1-14.5-37.1-14.5l13.8-18.2c0,0,11.5,9.9,24.9,9.9c5.8,0,8.1-1.5,8.1-5.2
		c0-10.1-42.9-7.6-42.9-38.1c0-17,14.6-29.5,35.9-29.5c22.1,0,30.6,10.2,30.6,10.2L1575.1,197.7z"/>
</g>
<g>
	<path class="st9" d="M1564,212.8c-2.5,0-3.9-1.6-3.9-4.1s1.5-4.1,3.9-4.1s3.9,1.6,3.9,4.1C1568,211.3,1566.5,212.8,1564,212.8z
		 M1564,205.6c-1.8,0-2.9,1.3-2.9,3.2c0,2,1.1,3.2,2.9,3.2s2.9-1.2,2.9-3.2C1566.9,206.8,1565.9,205.6,1564,205.6z"/>
	<path class="st9" d="M1570.1,207.6c0.5-0.6,1.2-1.1,2.2-1.1c1.9,0,2.9,1.2,2.9,3.2s-1.1,3.2-3,3.2c-2,0-3-1.2-3-3.4
		c0-3.2,0.5-5.3,3.4-5.6l1.9-0.2l0.1,0.9l-1.7,0.2C1571.2,204.8,1570.4,205.7,1570.1,207.6z M1570.3,209.4v0.3c0,1.5,0.6,2.4,2,2.4
		s2-0.9,2-2.4s-0.6-2.4-2-2.4C1570.9,207.2,1570.3,208.2,1570.3,209.4z"/>
	<path class="st9" d="M1585.4,214.4h-0.9v-1.7h-7.8v-6h0.9v5.2h2.5v-5.2h0.9v5.2h2.5v-5.2h0.9v5.2h0.9L1585.4,214.4z"/>
	<path class="st9" d="M1590.4,211.8c-0.1,0.3-0.6,1.1-1.9,1.1c-1.4,0-2.1-0.6-2.1-1.7c0-1.8,2.6-2.1,4-2.2v-0.2c0-1-0.4-1.5-1.5-1.5
		s-1.6,0.6-1.6,0.6l-0.5-0.5c0,0,0.5-0.9,2.2-0.9c1.6,0,2.3,0.7,2.3,2.2v4h-0.8L1590.4,211.8z M1590.4,211.1v-1.5
		c-1.4,0.1-3,0.4-3,1.5c0,0.7,0.5,1.1,1.4,1.1C1590,212.1,1590.4,211.2,1590.4,211.1z"/>
	<path class="st9" d="M1597.8,212.7h-1v-2.3h-1.6l-1.2,2.3h-1l1.4-2.4c-0.9-0.2-1.4-0.9-1.4-1.7c0-1.2,0.8-1.9,2.5-1.9h2.3
		L1597.8,212.7L1597.8,212.7z M1594.8,209.7L1594.8,209.7c0.2,0,0.4,0.1,0.6,0.1h1.4v-2.4h-1.3c-1.2,0-1.6,0.4-1.6,1.2
		C1593.9,209.1,1594.2,209.5,1594.8,209.7L1594.8,209.7L1594.8,209.7z"/>
	<path class="st9" d="M1608.1,212.7h-1v-5.2h-3.1v5.2h-1v-6h5L1608.1,212.7L1608.1,212.7z"/>
	<path class="st9" d="M1615,212.7h-1v-5.2h-2.4c0,3.6-0.4,5.4-2,5.4c-0.1,0-0.2,0-0.3,0v-0.8h0.1c1,0,1.3-1.5,1.3-5.4h4.2v6H1615z"
		/>
	<path class="st9" d="M1619.5,212.8c-2,0-3-1.2-3-3.2s1-3.2,3-3.2s3,1.2,3,3.2C1622.5,211.6,1621.4,212.8,1619.5,212.8z
		 M1617.5,209.7c0,1.5,0.6,2.4,2,2.4s2-0.9,2-2.4s-0.6-2.4-2-2.4C1618.1,207.2,1617.5,208.2,1617.5,209.7z"/>
	<path class="st9" d="M1632.7,214.4h-0.9v-1.7h-7.8v-6h0.9v5.2h2.5v-5.2h0.9v5.2h2.5v-5.2h0.9v5.2h0.9L1632.7,214.4z"/>
	<path class="st9" d="M1637.7,211.8c-0.1,0.3-0.6,1.1-1.9,1.1c-1.4,0-2.1-0.6-2.1-1.7c0-1.8,2.6-2.1,4-2.2v-0.2c0-1-0.4-1.5-1.5-1.5
		s-1.6,0.6-1.6,0.6l-0.5-0.5c0,0,0.5-0.9,2.2-0.9c1.6,0,2.3,0.7,2.3,2.2v4h-0.8L1637.7,211.8z M1637.7,211.1v-1.5
		c-1.4,0.1-3,0.4-3,1.5c0,0.7,0.5,1.1,1.4,1.1C1637.3,212.1,1637.6,211.2,1637.7,211.1z"/>
	<path class="st9" d="M1646.6,214.4h-0.8v-1.7h-5.1l-0.1,1.7h-0.7v-2.5h0.8c0.6-1.4,0.8-2.9,0.8-5.2h4.3v5.2h1L1646.6,214.4z
		 M1641.6,211.9h3.2v-4.5h-2.5C1642.2,209.3,1642,210.6,1641.6,211.9z"/>
	<path class="st9" d="M1649,208.9h1.2c1.5,0,2.7,0.5,2.7,1.8c0,1.4-0.9,2-2.7,2h-2.2v-6h1V208.9z M1649,209.6v2.4h1.2
		c1.1,0,1.7-0.4,1.7-1.3s-0.8-1.2-1.7-1.2h-1.2V209.6z"/>
	<path class="st9" d="M1662.6,212.7h-1v-5.2h-3.1v5.2h-1v-6h5L1662.6,212.7L1662.6,212.7z"/>
	<path class="st9" d="M1667.1,212.8c-2,0-3-1.2-3-3.2s1-3.2,3-3.2s3,1.2,3,3.2C1670.1,211.6,1669.1,212.8,1667.1,212.8z
		 M1665.2,209.7c0,1.5,0.6,2.4,2,2.4s2-0.9,2-2.4s-0.6-2.4-2-2.4C1665.8,207.2,1665.2,208.2,1665.2,209.7z"/>
	<path class="st9" d="M1676.5,212.7h-1v-5.2h-2.4c0,3.6-0.4,5.4-2,5.4c-0.1,0-0.2,0-0.3,0v-0.8h0.1c1,0,1.3-1.5,1.3-5.4h4.2v6
		H1676.5z"/>
	<path class="st9" d="M1683,212.7h-1v-2.3h-1.6l-1.2,2.3h-1l1.4-2.4c-0.9-0.2-1.4-0.9-1.4-1.7c0-1.2,0.8-1.9,2.5-1.9h2.4v6H1683z
		 M1680,209.7L1680,209.7c0.2,0,0.4,0.1,0.6,0.1h1.4v-2.4h-1.3c-1.2,0-1.6,0.4-1.6,1.2C1679.1,209.1,1679.4,209.5,1680,209.7
		L1680,209.7L1680,209.7z"/>
</g>
<g>
	<path class="st8" d="M1564.2,267.8c0,0,2.8,3.5,8.6,3.5c6.1,0,10-4.5,10.6-13.1c-1.6,1.5-4.7,3.6-10.2,3.6
		c-9.1,0-15.1-4.7-15.1-13.3c0-8.3,5.9-15.2,16.1-15.2c10.3,0,15.9,6,15.9,17.5c0,1.6-0.1,5.1-0.2,5.8c-0.9,13.9-7.5,20.3-17.2,20.3
		c-9,0-12.2-4.6-12.2-4.6L1564.2,267.8z M1582.6,253.3c0.2-1,0.4-3.1,0.4-4.6c0-6.4-2.5-10.2-8.8-10.2c-6.2,0-9,5.1-9,9.7
		c0,4.4,2.7,8.8,8.8,8.8C1579,256.9,1581.6,254.5,1582.6,253.3z"/>
	<path class="st8" d="M1620.4,254.5c4,1.3,8.7,4.2,8.7,10.6c0,8.3-6.3,11.8-16.1,11.8c-9.7,0-16.1-3.5-16.1-11.9
		c0-5.4,4.2-8.5,8.4-10.3c-3.6-1.4-7.4-4.2-7.4-10.1c0-7,6.1-11.3,15.1-11.3c9.1,0,15.1,4.3,15.1,11.4
		C1628.1,250,1624.2,252.9,1620.4,254.5z M1612.7,257.1c-2.7,0.4-8.5,1.9-8.5,7.6c0,4.9,3.5,7.4,8.8,7.4s8.8-2.6,8.8-7.4
		C1621.8,258.9,1615.9,257.5,1612.7,257.1z M1613.2,252.5c2.6-0.3,8-1.7,8-7.5c0-4.3-3-6.9-8.2-6.9c-5.1,0-8.2,2.6-8.2,6.8
		C1604.8,250.7,1610.1,252.1,1613.2,252.5z"/>
	<path class="st8" d="M1651.8,234.2c-2.1,10-6.4,19.8-10.6,26.7h14.5v-11.1l0.9-9.5h6.1v20.5h5.1v4.9l-5.1,0.5v9.5h-7v-9.5h-21
		l-0.4-4.7c3.6-6.2,8.8-17.9,10.9-27.9L1651.8,234.2z"/>
	<path class="st8" d="M1708.2,255.1c0,13.2-5.4,21.7-17.5,21.7s-17.5-8.4-17.5-21.7s5.4-21.9,17.5-21.9
		C1702.8,233.3,1708.2,241.8,1708.2,255.1z M1680.7,255.1c0,10.8,3.1,16.1,10,16.1s10-5.3,10-16.1c0-10.9-3.1-16.3-10-16.3
		C1683.8,238.8,1680.7,244.3,1680.7,255.1z"/>
	<path class="st8" d="M1774.3,275.8h-6.2v-19.6l0.3-5.1h-0.1l-10.3,24.7h-6.8l-10.3-24.6h-0.1l0.3,5.1v19.5h-6.1v-32h8.6l11,27h0.1
		l10.9-27h8.8v32H1774.3z"/>
	<path class="st8" d="M1798.2,254.5h-17.5v-3.2c0,0,12.5-8.2,12.5-14c0-2.7-1.4-4.2-5.1-4.2c-3.2,0-4.8,2.6-4.8,2.6l-2.6-2.1
		c0,0,1.7-4,7.9-4c6.4,0,9.1,3.2,9.1,7.3c0,5.6-6.6,11-11,14h11.6L1798.2,254.5L1798.2,254.5z"/>
</g>
<path class="st18" d="M729.1-9"/>
<linearGradient id="SVGID_8_" gradientUnits="userSpaceOnUse" x1="469.9" y1="546.4" x2="731.5" y2="546.4" gradientTransform="matrix(1 0 0 -1 0 562)">
	<stop  offset="0" style="stop-color:#F0F4F7"/>
	<stop  offset="1" style="stop-color:#DCE7ED"/>
</linearGradient>
<polygon class="st19" points="730.2,-8.1 470.3,37.4 469.9,39.3 731.5,-7 "/>
<linearGradient id="SVGID_9_" gradientUnits="userSpaceOnUse" x1="464.2" y1="544.95" x2="731.8" y2="544.95" gradientTransform="matrix(1 0 0 -1 0 562)">
	<stop  offset="0" style="stop-color:#F0F4F7"/>
	<stop  offset="1" style="stop-color:#C7D1D6"/>
</linearGradient>
<polygon class="st20" points="464.2,40.5 464.2,41.1 731.8,-6.8 731.5,-7 "/>
<linearGradient id="SVGID_10_" gradientUnits="userSpaceOnUse" x1="821.4" y1="180.1" x2="1093.1" y2="180.1" gradientTransform="matrix(1 0 0 -1 0 562)">
	<stop  offset="0" style="stop-color:#F0F4F7"/>
	<stop  offset="1" style="stop-color:#C7D1D6"/>
</linearGradient>
<polygon class="st21" points="1093.1,283.8 821.4,482.2 821.4,477 1090.3,281.6 "/>
<linearGradient id="SVGID_11_" gradientUnits="userSpaceOnUse" x1="382.7" y1="503.4" x2="764.1" y2="503.4" gradientTransform="matrix(1 0 0 -1 0 562)">
	<stop  offset="0" style="stop-color:#F0F4F7"/>
	<stop  offset="1" style="stop-color:#C7D1D6"/>
</linearGradient>
<polygon class="st22" points="763.7,18.9 382.7,97.4 382.7,98.3 764.1,19.2 "/>
<linearGradient id="SVGID_12_" gradientUnits="userSpaceOnUse" x1="421.7" y1="459.8" x2="806.1" y2="459.8" gradientTransform="matrix(1 0 0 -1 0 562)">
	<stop  offset="0" style="stop-color:#F0F4F7"/>
	<stop  offset="1" style="stop-color:#C7D1D6"/>
</linearGradient>
<polygon class="st23" points="805.4,52.4 806.1,53 422.1,152 421.7,150 "/>
<linearGradient id="SVGID_13_" gradientUnits="userSpaceOnUse" x1="445.5" y1="391.25" x2="867.3" y2="391.25" gradientTransform="matrix(1 0 0 -1 0 562)">
	<stop  offset="0" style="stop-color:#F0F4F7"/>
	<stop  offset="1" style="stop-color:#C7D1D6"/>
</linearGradient>
<polygon class="st24" points="445.5,238.2 865.6,100.8 867.3,102.2 445.5,240.7 "/>
<linearGradient id="SVGID_14_" gradientUnits="userSpaceOnUse" x1="514.4" y1="281.8" x2="960.5" y2="281.8" gradientTransform="matrix(1 0 0 -1 0 562)">
	<stop  offset="0" style="stop-color:#F0F4F7"/>
	<stop  offset="1" style="stop-color:#C7D1D6"/>
</linearGradient>
<polygon class="st25" points="514.4,379.4 957.6,174.6 960.5,177.2 514.4,385.8 "/>
<circle class="st9" cx="1060.4" cy="249.6" r="3.8"/>
<g>
	<path class="st9" d="M1566.7,364.6c-2.5,0-3.9-1.6-3.9-4.1s1.5-4.1,3.9-4.1s3.9,1.6,3.9,4.1
		C1570.7,363.1,1569.2,364.6,1566.7,364.6z M1566.7,357.4c-1.8,0-2.9,1.3-2.9,3.2c0,2,1.1,3.2,2.9,3.2s2.9-1.2,2.9-3.2
		C1569.6,358.6,1568.6,357.4,1566.7,357.4z"/>
	<path class="st9" d="M1572.8,359.4c0.5-0.6,1.2-1.1,2.2-1.1c1.9,0,2.9,1.2,2.9,3.2s-1.1,3.2-3,3.2c-2,0-3-1.2-3-3.4
		c0-3.2,0.5-5.3,3.4-5.6l1.9-0.2l0.1,0.9l-1.7,0.2C1573.9,356.6,1573.1,357.5,1572.8,359.4z M1573,361.2v0.3c0,1.5,0.6,2.4,2,2.4
		s2-0.9,2-2.4s-0.6-2.4-2-2.4C1573.6,359,1573,360,1573,361.2z"/>
	<path class="st9" d="M1582,364.6c-2,0-3-1.2-3-3.2s1-3.2,3-3.2s3,1.2,3,3.2S1583.9,364.6,1582,364.6z M1580,361.5
		c0,1.5,0.6,2.4,2,2.4s2-0.9,2-2.4s-0.6-2.4-2-2.4C1580.6,359,1580,360,1580,361.5z"/>
	<path class="st9" d="M1587.5,359.3v5.2h-1v-6h3.7v0.8H1587.5z"/>
	<path class="st9" d="M1591.2,358.5h0.9l0.1,0.8c0.1-0.2,0.7-1,2-1c1.6,0,2.7,1.1,2.7,3c0,2-1,3.3-2.9,3.3c-1.3,0-1.8-0.8-1.8-0.8
		v3.6h-1L1591.2,358.5L1591.2,358.5z M1592.2,360.2v2.9c0.1,0.1,0.5,0.8,1.5,0.8c1.5,0,2.2-0.9,2.2-2.6c0-1.6-0.7-2.3-2.1-2.3
		C1592.6,359.1,1592.2,360.1,1592.2,360.2z"/>
	<path class="st9" d="M1603.3,363.5c0,0-0.6,1.2-2.4,1.2s-3-1-3-3s1.1-3.3,2.9-3.3c1.6,0,2.5,1.1,2.5,2.8c0,0.4-0.1,0.6-0.1,0.6
		h-4.3l0,0c0,1.4,0.8,2.1,2,2.1s1.8-0.8,1.8-0.8L1603.3,363.5z M1598.9,361h3.5c0,0,0,0,0-0.1c0-1.1-0.6-1.8-1.6-1.8
		C1599.6,359,1599,359.9,1598.9,361z"/>
	<path class="st9" d="M1609.3,360.1c0,0.7-0.5,1.1-0.9,1.3c0.7,0.2,1.2,0.7,1.2,1.4c0,1-0.6,1.8-2.6,1.8h-2.3v-6h2.4
		C1608.8,358.5,1609.3,359.1,1609.3,360.1z M1607.3,361.1c0.2,0,1.1-0.1,1.1-1c0-0.6-0.3-1-1.3-1h-1.4v2H1607.3z M1605.6,361.7v2.1
		h1.4c1.4,0,1.6-0.5,1.6-1.2c0-0.6-0.4-1-1.5-1h-1.5V361.7z"/>
	<path class="st9" d="M1614.4,358.5h1v4.5l3.4-4.3l0.1-0.3h0.8v6h-1V360l-3.4,4.3l-0.1,0.2h-0.9L1614.4,358.5L1614.4,358.5z"/>
	<path class="st9" d="M1627.6,364.6c-2,0-3-1.2-3-3.2s1-3.2,3-3.2s3,1.2,3,3.2S1629.5,364.6,1627.6,364.6z M1625.6,361.5
		c0,1.5,0.6,2.4,2,2.4s2-0.9,2-2.4s-0.6-2.4-2-2.4C1626.2,359,1625.6,360,1625.6,361.5z"/>
	<path class="st9" d="M1634.8,361.5l2.4,3h-1.1l-1.9-2.5l0,0l-1.9,2.5h-1.1l2.4-3l-2.4-3h1.1l1.8,2.4l0,0l1.8-2.4h1.1L1634.8,361.5z
		"/>
	<path class="st9" d="M1643.3,364.5h-1v-5.2h-2.4c0,3.6-0.4,5.4-2,5.4c-0.1,0-0.2,0-0.3,0v-0.8h0.1c1,0,1.3-1.5,1.3-5.4h4.2v6
		H1643.3z"/>
	<path class="st9" d="M1648.8,363.6c-0.1,0.3-0.6,1.1-1.9,1.1c-1.4,0-2.1-0.6-2.1-1.7c0-1.8,2.6-2.1,4-2.2v-0.2c0-1-0.4-1.5-1.5-1.5
		s-1.6,0.6-1.6,0.6l-0.5-0.5c0,0,0.5-0.9,2.2-0.9c1.6,0,2.3,0.7,2.3,2.2v4h-0.8L1648.8,363.6z M1648.8,362.9v-1.5
		c-1.4,0.1-3,0.4-3,1.5c0,0.7,0.5,1.1,1.4,1.1C1648.4,363.9,1648.7,363,1648.8,362.9z"/>
	<path class="st9" d="M1655.6,361h0.8l1.9-2.5h1.1l-2.1,2.9l2.1,3.1h-1.1l-1.8-2.7h-0.9v2.7h-0.9v-2.7h-0.8l-1.9,2.7h-1.1l2.1-3.1
		l-2-2.9h1.1l1.7,2.5h0.9v-2.5h0.9L1655.6,361L1655.6,361z"/>
	<path class="st9" d="M1666.6,366.2h-0.8v-1.7h-5.1l-0.1,1.7h-0.7v-2.5h0.8c0.6-1.4,0.8-2.9,0.8-5.2h4.3v5.2h1L1666.6,366.2z
		 M1661.6,363.7h3.2v-4.5h-2.5C1662.3,361.1,1662.1,362.4,1661.6,363.7z"/>
	<path class="st9" d="M1673,363.5c0,0-0.6,1.2-2.4,1.2s-3-1-3-3s1.1-3.3,2.9-3.3c1.6,0,2.5,1.1,2.5,2.8c0,0.4-0.1,0.6-0.1,0.6h-4.3
		l0,0c0,1.4,0.8,2.1,2,2.1s1.8-0.8,1.8-0.8L1673,363.5z M1668.6,361h3.5c0,0,0,0,0-0.1c0-1.1-0.6-1.8-1.6-1.8
		C1669.3,359,1668.7,359.9,1668.6,361z"/>
	<path class="st9" d="M1674.4,358.5h1v2.5h3.2v-2.5h1v6h-1v-2.7h-3.2v2.7h-1V358.5z"/>
	<path class="st9" d="M1681.6,358.5h1v4.5l3.4-4.3l0.1-0.3h0.8v6h-1V360l-3.4,4.3l-0.1,0.2h-0.9L1681.6,358.5L1681.6,358.5z"/>
	<path class="st9" d="M1693.9,363.5c0,0-0.6,1.2-2.4,1.2s-3-1-3-3s1.1-3.3,2.9-3.3c1.6,0,2.5,1.1,2.5,2.8c0,0.4-0.1,0.6-0.1,0.6
		h-4.3l0,0c0,1.4,0.8,2.1,2,2.1s1.8-0.8,1.8-0.8L1693.9,363.5z M1689.5,361h3.5c0,0,0,0,0-0.1c0-1.1-0.6-1.8-1.6-1.8
		C1690.2,359,1689.6,359.9,1689.5,361z"/>
</g>
<g>
	<path class="st8" d="M1572.1,386.3h-2.1v-10.1h-5.5v10.1h-2.1v-11.7h9.6L1572.1,386.3L1572.1,386.3z"/>
	<path class="st8" d="M1579.3,386.6c-3,0-4.7-1.8-4.7-4.8s1.6-4.8,4.7-4.8s4.7,1.8,4.7,4.8C1584,384.7,1582.3,386.6,1579.3,386.6z
		 M1576.7,381.7c0,2,0.8,3.3,2.6,3.3c1.9,0,2.6-1.3,2.6-3.3s-0.8-3.3-2.6-3.3C1577.4,378.5,1576.7,379.7,1576.7,381.7z"/>
	<path class="st8" d="M1593.7,386.3h-2v-7.4h-3c0,5-0.7,7.7-3.2,7.7c-0.2,0-0.4,0-0.5,0v-1.5c0.1,0,0.1,0,0.2,0
		c1.4,0,1.7-2.1,1.7-7.7h6.7v8.9H1593.7z"/>
	<path class="st8" d="M1596.5,377.3h2v6.2l4.6-5.6l0.2-0.5h1.7v9h-2v-6l-4.6,5.6l-0.1,0.4h-1.7L1596.5,377.3L1596.5,377.3z"/>
	<path class="st8" d="M1606.9,378.1c0,0,1-1.1,3.4-1.1c2.8,0,4.6,1.8,4.6,4.6c0,3.3-2,5-4.9,5c-2.5,0-3.3-1.5-3.3-1.5l0.7-1
		c0,0,0.8,1,2.6,1c1.9,0,2.8-0.9,3-2.7h-4.5v-1.5h4.5c-0.2-1.7-1.2-2.4-3-2.4c-1.6,0-2.6,0.8-2.6,0.8L1606.9,378.1z"/>
	<path class="st8" d="M1620.3,378.8v7.4h-2v-7.4h-2.7v-1.6h7.4v1.6H1620.3z"/>
	<path class="st8" d="M1624.6,377.3h2v6.2l4.6-5.6l0.2-0.5h1.7v9h-2v-6l-4.6,5.6l-0.1,0.4h-1.7L1624.6,377.3L1624.6,377.3z"/>
	<path class="st8" d="M1643.4,386.3h-2v-7.4h-3c0,5-0.7,7.7-3.2,7.7c-0.2,0-0.4,0-0.5,0v-1.5c0.1,0,0.1,0,0.2,0
		c1.4,0,1.7-2.1,1.7-7.7h6.7v8.9H1643.4z"/>
	<path class="st8" d="M1653.8,384.7c0,0-0.9,1.9-3.8,1.9c-2.8,0-4.6-1.5-4.6-4.6s1.7-5,4.5-5c2.5,0,3.9,1.6,3.9,4.2
		c0,0.8-0.2,1.2-0.2,1.2h-6.3c0,1.7,1,2.7,2.8,2.7c1.7,0,2.5-1.1,2.5-1.1L1653.8,384.7z M1647.4,381h4.8c0,0,0,0,0-0.2
		c0-1.4-0.7-2.4-2.3-2.4C1648.3,378.4,1647.5,379.5,1647.4,381z"/>
	<path class="st8" d="M1655.8,377.3h2v3.6h4.2v-3.6h2v9h-2v-3.8h-4.2v3.8h-2V377.3z"/>
	<path class="st8" d="M1670.7,386.6c-3,0-4.7-1.8-4.7-4.8s1.6-4.8,4.7-4.8s4.7,1.8,4.7,4.8C1675.3,384.7,1673.6,386.6,1670.7,386.6z
		 M1668,381.7c0,2,0.8,3.3,2.6,3.3s2.6-1.3,2.6-3.3s-0.8-3.3-2.6-3.3S1668,379.7,1668,381.7z"/>
	<path class="st8" d="M1684.8,379.6c0,1.1-0.8,1.7-1.5,2c1,0.2,1.9,0.8,1.9,2c0,1.6-1,2.6-4.1,2.6h-3.7v-9h3.7
		C1683.9,377.3,1684.8,378.2,1684.8,379.6z M1681.4,381.2c0,0,1.4-0.1,1.4-1.3c0-0.8-0.4-1.3-1.7-1.3h-1.8v2.5L1681.4,381.2
		L1681.4,381.2z M1679.3,382.2v2.7h1.8c1.8,0,2.1-0.6,2.1-1.4c0-0.7-0.5-1.3-2-1.3H1679.3z"/>
	<path class="st8" d="M1689.3,380.4h1.6c2.5,0,4.2,0.8,4.2,2.8c0,2.1-1.4,3-4.2,3h-3.6v-9h2V380.4z M1689.3,381.7v3.1h1.6
		c1.4,0,2.2-0.5,2.2-1.6c0-1.2-1-1.5-2.2-1.5H1689.3z M1698.7,386.3h-1.9v-9h1.9V386.3z"/>
	<path class="st8" d="M1709.1,384.7c0,0-0.9,1.9-3.8,1.9c-2.8,0-4.6-1.5-4.6-4.6s1.7-5,4.5-5c2.5,0,3.9,1.6,3.9,4.2
		c0,0.8-0.2,1.2-0.2,1.2h-6.3c0,1.7,1,2.7,2.8,2.7c1.7,0,2.5-1.1,2.5-1.1L1709.1,384.7z M1702.7,381h4.8c0,0,0,0,0-0.2
		c0-1.4-0.7-2.4-2.3-2.4C1703.6,378.4,1702.8,379.5,1702.7,381z"/>
	<path class="st8" d="M1719.7,378.8v7.4h-2v-7.4h-2.7v-1.6h7.4v1.6H1719.7z"/>
	<path class="st8" d="M1724,377.3h1.7l0.2,1.2c0.2-0.4,1-1.4,2.9-1.4c2.5,0,4.1,1.8,4.1,4.6c0,2.9-1.5,5-4.2,5c-2,0-2.7-1.1-2.7-1.1
		l0,0v5.3h-1.9L1724,377.3L1724,377.3z M1725.9,380v3.9c0.1,0.1,0.6,1.1,2.1,1.1c2.1,0,2.9-1.2,2.9-3.4s-0.9-3.1-2.7-3.1
		C1726.5,378.5,1726,379.9,1725.9,380z"/>
	<path class="st8" d="M1735.3,389.3c1,0,1.7-1.2,2.4-3.1l-4-8.9h2.2l2.8,7h0.1l2.2-7h2.2l-3.6,9.3c-1.1,2.8-2.3,4.5-4,4.5
		c-1,0-1.5-0.4-1.5-0.4l0.3-1.6C1734.4,389.1,1734.9,389.3,1735.3,389.3z"/>
	<path class="st8" d="M1745.8,378.8c0.6-1,1.7-1.8,3.4-1.8c2.8,0,4.4,1.8,4.4,4.8s-1.7,4.8-4.6,4.8c-3.2,0-4.7-1.9-4.7-5.3
		c0-4.4,0.7-7.8,5.4-8.4l2.9-0.3l0.2,1.8l-2.4,0.2C1747.3,374.9,1746.1,376.2,1745.8,378.8z M1746.3,381.4v0.3
		c0,2.1,0.8,3.3,2.6,3.3c1.9,0,2.6-1.2,2.6-3.3s-0.8-3.3-2.6-3.3C1747.1,378.5,1746.3,379.7,1746.3,381.4z"/>
	<path class="st8" d="M1757.6,380.4h1.6c2.5,0,4.2,0.8,4.2,2.8c0,2.1-1.4,3-4.2,3h-3.6v-9h2V380.4z M1757.6,381.7v3.1h1.6
		c1.4,0,2.2-0.5,2.2-1.6c0-1.2-1-1.5-2.2-1.5H1757.6z M1767,386.3h-1.9v-9h1.9V386.3z"/>
	<path class="st8" d="M1570.1,407.3h-2v-7.4h-4.1v7.4h-2v-9h8L1570.1,407.3L1570.1,407.3z"/>
	<path class="st8" d="M1572.9,398.3h1.7l0.2,1.2c0.2-0.4,1-1.4,2.9-1.4c2.5,0,4.1,1.8,4.1,4.6c0,2.9-1.5,5-4.3,5
		c-2,0-2.7-1.1-2.7-1.1l0,0v5.3h-1.9L1572.9,398.3L1572.9,398.3z M1574.9,401v3.9c0.1,0.1,0.6,1.1,2.1,1.1c2.1,0,2.9-1.2,2.9-3.4
		s-0.9-3.1-2.7-3.1C1575.4,399.5,1574.9,400.9,1574.9,401z"/>
	<path class="st8" d="M1587.8,407.6c-3,0-4.7-1.8-4.7-4.8s1.6-4.8,4.7-4.8s4.7,1.8,4.7,4.8C1592.5,405.7,1590.8,407.6,1587.8,407.6z
		 M1585.2,402.7c0,2,0.8,3.3,2.6,3.3c1.9,0,2.6-1.3,2.6-3.3s-0.8-3.3-2.6-3.3C1585.9,399.5,1585.2,400.7,1585.2,402.7z"/>
	<path class="st8" d="M1597.9,399.8v7.4h-2v-7.4h-2.7v-1.6h7.4v1.6H1597.9z"/>
	<path class="st8" d="M1609.3,407.3h-2V404h-1.9l-1.7,3.3h-2.1l2-3.6c-1.3-0.4-2-1.3-2-2.6c0-1.9,1.2-2.9,3.9-2.9h3.8L1609.3,407.3
		L1609.3,407.3z M1605.6,402.7h1.7v-3.1h-1.6c-1.5,0-2.2,0.5-2.2,1.5S1604.3,402.7,1605.6,402.7z"/>
	<path class="st8" d="M1618.7,401.9h1.1l2.4-3.7h2.3l-3,4.4l3,4.6h-2.3l-2.4-4h-1.1v4h-1.9v-4h-1.1l-2.4,4h-2.2l3-4.7l-2.9-4.3h2.2
		l2.2,3.7h1.2v-3.7h1.9L1618.7,401.9L1618.7,401.9z"/>
	<path class="st8" d="M1633.7,405.7c0,0-0.9,1.9-3.8,1.9c-2.8,0-4.6-1.5-4.6-4.6s1.7-5,4.5-5c2.5,0,3.9,1.6,3.9,4.2
		c0,0.8-0.2,1.2-0.2,1.2h-6.3c0,1.7,1,2.7,2.8,2.7c1.7,0,2.5-1.1,2.5-1.1L1633.7,405.7z M1628.6,394.8v1.6h-1.7v-1.6H1628.6z
		 M1627.3,402h4.8c0,0,0,0,0-0.2c0-1.4-0.7-2.4-2.3-2.4C1628.2,399.4,1627.4,400.5,1627.3,402z M1632.1,394.8v1.6h-1.7v-1.6H1632.1z
		"/>
	<path class="st8" d="M1635.7,398.3h2v3.6h4.2v-3.6h2v9h-2v-3.8h-4.2v3.8h-2V398.3z"/>
	<path class="st8" d="M1646.6,398.3h2v3.6h4.2v-3.6h2v9h-2v-3.8h-4.2v3.8h-2V398.3z"/>
	<path class="st8" d="M1661.5,407.6c-3,0-4.7-1.8-4.7-4.8s1.6-4.8,4.7-4.8s4.7,1.8,4.7,4.8C1666.1,405.7,1664.4,407.6,1661.5,407.6z
		 M1658.8,402.7c0,2,0.8,3.3,2.6,3.3c1.9,0,2.6-1.3,2.6-3.3s-0.8-3.3-2.6-3.3C1659.6,399.5,1658.8,400.7,1658.8,402.7z"/>
	<path class="st8" d="M1675.7,405.7c0,0-0.8,1.8-3.6,1.8c-3,0-4.6-1.6-4.6-4.7c0-3,1.5-4.9,4.6-4.9c2.3,0,3.3,1.2,3.3,1.2l-0.6,1.2
		c0,0-1.2-0.9-2.4-0.9c-2,0-2.9,1-2.9,3.3s1.1,3.3,2.7,3.3c1.5,0,2.4-1.1,2.4-1.1L1675.7,405.7z"/>
	<path class="st8" d="M1680.8,399.8v7.4h-2v-7.4h-2.7v-1.6h7.4v1.6H1680.8z"/>
	<path class="st8" d="M1687,401.4h1.6c2.5,0,4.2,0.8,4.2,2.8c0,2.1-1.4,3-4.2,3h-3.6v-9h2V401.4z M1687,402.7v3.1h1.6
		c1.4,0,2.2-0.5,2.2-1.6c0-1.2-1-1.5-2.2-1.5H1687z"/>
	<path class="st8" d="M1707.2,402.8c0,3-1.5,4.8-4.5,4.8c-2.6,0-4.1-1.5-4.3-4.1h-1.6v3.8h-2v-9h2v3.6h1.6c0.3-2.4,1.7-3.9,4.3-3.9
		C1705.7,398,1707.2,399.8,1707.2,402.8z M1700.1,402.7c0,2,0.6,3.3,2.5,3.3s2.6-1.3,2.6-3.3s-0.6-3.3-2.6-3.3
		C1700.8,399.4,1700.1,400.8,1700.1,402.7z"/>
	<path class="st8" d="M1719.7,401.7l0.6-6.2h6v1.6h-4.4l-0.3,3c0.3-0.1,0.6-0.1,1-0.1c2.7,0,4.4,1.3,4.4,3.6c0,2.6-1.9,3.9-4.6,3.9
		c-3.4,0-4.1-2.1-4.1-2.1l1.1-1c0,0,0.9,1.6,3,1.6c1.8,0,2.6-1,2.6-2.4c0-1.2-1-2.1-2.6-2.1c-1,0-1.6,0.3-1.7,0.4L1719.7,401.7z"/>
	<path class="st8" d="M1733.4,395.6c-0.6,2.8-1.8,5.6-3,7.5h4.1V400l0.3-2.7h1.7v5.8h1.4v1.4l-1.4,0.1v2.7h-2v-2.7h-5.9l-0.1-1.3
		c1-1.7,2.5-5,3.1-7.9L1733.4,395.6z"/>
	<path class="st8" d="M1754.4,401.4c0,3.7-1.5,6.1-4.9,6.1s-4.9-2.4-4.9-6.1c0-3.7,1.5-6.2,4.9-6.2S1754.4,397.7,1754.4,401.4z
		 M1746.7,401.4c0,3,0.9,4.5,2.8,4.5s2.8-1.5,2.8-4.5c0-3.1-0.9-4.6-2.8-4.6S1746.7,398.4,1746.7,401.4z"/>
	<path class="st8" d="M1761,395.6c-0.6,2.8-1.8,5.6-3,7.5h4.1V400l0.3-2.7h1.7v5.8h1.4v1.4l-1.4,0.1v2.7h-2v-2.7h-5.9l-0.1-1.3
		c1-1.7,2.5-5,3.1-7.9L1761,395.6z"/>
	<path class="st8" d="M1767.7,401.7l0.6-6.2h6v1.6h-4.4l-0.3,3c0.3-0.1,0.6-0.1,1-0.1c2.7,0,4.4,1.3,4.4,3.6c0,2.6-1.9,3.9-4.6,3.9
		c-3.4,0-4.1-2.1-4.1-2.1l1.1-1c0,0,0.9,1.6,3,1.6c1.8,0,2.6-1,2.6-2.4c0-1.2-1-2.1-2.6-2.1c-1,0-1.6,0.3-1.7,0.4L1767.7,401.7z"/>
	<path class="st8" d="M1790.3,407.3h-2v-7.4h-4.1v7.4h-2v-9h8L1790.3,407.3L1790.3,407.3z"/>
	<path class="st8" d="M1795.4,405.5v1.8h-1.8v-1.8H1795.4z"/>
	<path class="st8" d="M1814.7,407.3h-1.7v-5.5l0.1-1.4l0,0l-2.9,7h-1.9l-2.9-6.9l0,0l0.1,1.4v5.5h-1.7v-9h2.4l3.1,7.6l0,0l3.1-7.6
		h2.5v8.9H1814.7z"/>
	<path class="st8" d="M1819.7,405.5v1.8h-1.8v-1.8H1819.7z"/>
</g>
<polygon class="st0" points="530.3,48.8 527.5,40.7 616.3,23.9 621,32.3 "/>
<polygon class="st0" points="612,20.3 621.8,36.9 628,25.8 "/>
<polygon class="st0" points="528.5,35.2 532.9,52.4 518.1,47.5 "/>
</svg>
