<?xml version="1.0" encoding="utf-8"?>
<!-- Generator: Adobe Illustrator 19.1.0, SVG Export Plug-In . SVG Version: 6.00 Build 0)  -->
<svg version="1.1" id="Layer_1" xmlns="http://www.w3.org/2000/svg" xmlns:xlink="http://www.w3.org/1999/xlink" x="0px" y="0px"
	 viewBox="0 0 23.4 22.8" style="enable-background:new 0 0 23.4 22.8;" xml:space="preserve">
<style type="text/css">
	.st0{fill:#212233;}
	.st1{fill:none;stroke:#212233;stroke-width:2;stroke-linecap:round;stroke-miterlimit:10;}
</style>
<path class="st0" d="M4.6,6.5l7.2-3.8c0.3-0.1,0.6-0.1,0.8,0l7.5,3.8c0.7,0.3,0.7,1.3,0,1.6l-7.5,4.2c-0.3,0.2-0.6,0.2-0.9,0
	L4.6,8.1C4,7.7,4,6.8,4.6,6.5z"/>
<path class="st1" d="M20,11.4l-7.2,4c-0.3,0.1-0.6,0.1-0.9,0l-7-4"/>
<path class="st1" d="M20,15.6l-7.2,4c-0.3,0.1-0.6,0.1-0.9,0l-7-4"/>
</svg>
