<?xml version="1.0" encoding="utf-8"?>
<!-- Generator: Adobe Illustrator 19.1.0, SVG Export Plug-In . SVG Version: 6.00 Build 0)  -->
<svg version="1.1" id="Layer_1" xmlns="http://www.w3.org/2000/svg" xmlns:xlink="http://www.w3.org/1999/xlink" x="0px" y="0px"
	 viewBox="0 0 20.3 27.2" style="enable-background:new 0 0 20.3 27.2;" xml:space="preserve">
<style type="text/css">
	.st0{fill:#212233;}
</style>
<g>
	<path class="st0" d="M15,23.7c0,0-1-3.6-1.7-4.8c-0.7-1.2-1.8-2.8-1.8-2.8s0-2.9,0.6-4.3s-0.2-2.1-0.7-2.1s-1.1-0.1-2.7,1.9
		s-2.3,3.8-2,4.7c0.2,0.5,1.1,0.6,1.4,0.1c0.2-0.5,1-2.5,1-2.5v2.8c0,0,1.7,2.3,2.5,3.5c0.7,1.2,1.7,4.1,1.7,4.1s0.2,0.6,1.2,0.4
		C15.3,24.4,15,23.7,15,23.7z"/>
	<circle class="st0" cx="11.3" cy="7.3" r="1.5"/>
	<path class="st0" d="M8,24.2l2.6-3.7c0,0-1.1-2.2-1.8-2.8v1.7L6.5,23c0,0-0.6,0.6,0.2,1.4C7.6,25,8,24.2,8,24.2z"/>
	<path class="st0" d="M12.3,14.6c0,0,0-2.1,0.4-2.5c0,0,2.6,2.7,1.6,3.6c-0.7,0.7-1.1,0.1-1.1,0.1L12.3,14.6z"/>
</g>
</svg>
