<?xml version="1.0" encoding="utf-8"?>
<!-- Generator: Adobe Illustrator 21.0.2, SVG Export Plug-In . SVG Version: 6.00 Build 0)  -->
<svg version="1.1" id="Layer_1" xmlns="http://www.w3.org/2000/svg" xmlns:xlink="http://www.w3.org/1999/xlink" x="0px" y="0px"
	 viewBox="0 0 1454.1 734.1" style="enable-background:new 0 0 1454.1 734.1;" xml:space="preserve">
<style type="text/css">
	.st0{fill:#F8F5ED;}
	.st1{fill:none;stroke:#FFFFFF;stroke-width:2;stroke-miterlimit:10;}
	.st2{fill:#FFFFFF;}
	.st3{fill:#CCD9E2;}
	.st4{fill:#9CC44D;}
	.st5{fill:#B0D577;}
	.st6{fill:#BDE3F1;}
	.st7{fill:#E5EEF1;}
	.st8{fill:#ADADAD;}
	.st9{fill:#F0F4F6;}
	.st10{fill:none;stroke:#FFFFFF;stroke-miterlimit:10;}
	.st11{fill:#C1C1C1;}
	.st12{fill:#D8D8D8;}
	.st13{fill:#EAEAEA;}
	.st14{fill:none;stroke:#FFFFFF;stroke-width:9;stroke-miterlimit:10;}
	.st15{fill:#04ADDA;}
	.st16{fill:#04A0CE;}
	.st17{fill:#A2DCEB;}
	.st18{fill:#98CEF0;}
	.st19{fill:#C9C9C9;}
	.st20{fill:#3C91CF;}
	.st21{fill:none;stroke:#3C91CF;stroke-width:11;stroke-miterlimit:10;}
	.st22{fill:none;stroke:#3C91CF;stroke-width:3;stroke-linecap:round;stroke-linejoin:round;stroke-miterlimit:10;}
	.st23{fill:none;stroke:#3C91CF;stroke-width:3;stroke-miterlimit:10;}
</style>
<g id="base">
	<path class="st0" d="M246.3,445.6L87.9,501.9c-2.3,0.8-4.8,0.7-7.2,0.8c-11,0.3-31.3-9.9-32.8-36.5c-2-33.8,24.6-39.2,31.3-42.9
		c6.8-3.7,2.8-11.8,2.8-11.8s-15.2-51.3-15.7-74.6c-3.4-140.1,83-205.4,83-205.4l32.9-22.3l1.8,1.4l3,2.1c0,0,27.6-4.1,39.8-4.1
		c12.2,0,13.2,7.3,13.2,7.3s38.5,2.6,39.7,3.4c1.2,0.7,3.3,1.9,2.8,5.3s-4,3.9-7.6,4.2S235,126,235,126l-2.5,34.6
		c0,0,70.4,6.5,74.5,6.9c4.2,0.4,77.7,6.7,77.7,6.7s62.7,5.6,72.3,6.4s81.7,7.7,87.8,7.6s77.5,7.1,79.8,7.4
		c2.3,0.2,78.7,6.6,78.7,6.6s65.1,6,66.7,6.2c1.6,0.2,69.6,6.7,70.6,6.3s7.4-1.2,8.9-13.5s2.1-17.5-6.3-19.9
		c-8.4-2.3-37.4-4-43.7-4.9c-6.3-1-40.8-4.3-42.6-4.1s-27.9-2.9-31.5-3.1s-25.3-2.5-27.5-2.9s-4.9-0.3-5.9-1c-1.1-0.7-0.8-3-0.9-4
		c0-1-0.6-6.2,10.4-4.7c1.2,0.2,2.4-0.9,3-2.5c0.8-2.1,0-4.5-1.9-5.9c-1.5-1.1-3.9-3.4-4.1-7.1c0,0,0.2-2.1-4.4-5.7
		c-4.7-3.6-10.2-8.2-18.8-8.2s-15.1,0.6-16.4,0.3s-4.7-1.1-8.5-4.3s-6.2-5.2-9.6-6c-3.4-0.7-6.5-3.1-6.5-3.1s-2.1-2.1-6.4,1.6
		c-4.3,3.7-6,3.1-9.6,7.7s-9.6,7.3-9.6,7.3s-7.4,3-8.4,3.9c0,0-6.5,2.6-18.9-5.4c-8.3-5.4-9.8-6.8-10.9-8.4c-1-1.6-7.2-4.3-9.2-4.5
		s-8.2-1.7-10.9-4.1c-2.7-2.5-3.6-5.7-7.8-7.4c-4.2-1.7-9.9-8.3-9.9-8.3s-5.2-5.9-7.6-9.9c0,0-2.6-7.9-3.7-8.1
		c-1.1-0.2-2-4.9-0.6-7.6s-1.4-9.1-1.5-9.8s1.6-8.7,8.4-11.7c6.8-2.9,27.8-10.7,27.8-10.7s12.7,0.1,19.1,2.3c6.4,2.2,14.7,1,14.7,1
		s4.1,0.3,4.9,9c0.4,4.1,5.4,6,8.7,6s15.5,2.6,17.9,2.3c2.5-0.2,12.2-4.7,15.4-1.6s9.6,9.6,16.6,9.1s23.8-6.1,27.4-10
		c3.6-3.8,29.9,3.9,29.9,3.9s35.4,10.1,38.6,10.8c3.2,0.7,12.2,7.1,19.2,11s13.2,5.3,16,5.3s41.4,14.5,41.4,14.5l0.9-1.5l26.7,10.1
		l5.4,10.7l5.5,3.7L840.2,170c0,0,20.6,2.6,23.6,0.2s9.5-13.5,11.3-17.8s10.2-21.5,14.7-21.9s19.3,3.4,25.3,7.4s4.3,6.1,7.5,6.2
		s6.3-1.8,9.3,1.9s9.3,8.8,17.1,10.9c7.9,2.1,34.2,17.1,38.3,19.8c4.2,2.7,27,10.9,32,14.3s18.2,8,29.8,10.3
		c11.6,2.3,43.7,11.6,46,12s27.8,5.7,35.4,5.2c5.9-0.4,13.9-5.8,22.4-6.1h1.2l1.7,0.1l1.7,0.3c0.9,0.2,1.8,0.5,2.7,0.8
		c6.9,2.8,15.2,1.6,17.3,1.3c2-0.2,16.5-1.1,27.6,3.6c0,0,32.1,7.8,36.9,10.1s28.2,8.3,37.3,11.4c33.4,11.6,60.1,9.7,60.1,9.7
		c-13.1,17.6,2.4,30.9,2.4,30.9c46.5,47.2-14.4,154.2-14.7,179c-0.3,24.8,17.5,69.6,38.7,98.6c21.1,29,7.3,90.9,1.3,91.8
		c-12.9,1.8-33.3,4.1-33.3,4.1l-3.1-3.6l-10.2,1.5c0,0-0.7-2.1-4.4-5.6s-33.9-3.6-37.2-3.6s-36.3-0.4-36.3-0.4s-4.9-4.3-13.5-4.3
		s-25.6-2.1-28.4-3.2c-2.8-1.1-13.9-3.5-20.3-4.2c-6.5-0.7-25.5-7.6-27-7.9c-1.5-0.2-11.6,0.4-19.5-3.6s-25.1-8.8-27.1-9.1
		c-2-0.3-3.2,1.2-3.2,1.2c-0.6,2.8-1.9,5.4-3.4,6.1s-4.2,0-4.2,0l-21,68.2h-10.2c0,0,18.3-58.9,19.8-66c1.5-7.2-11.6-11-16-11.7
		c-4.4-0.7-11.5-2.7-19.8-4.3s-20.6-7.4-23.2-8.3c-2.6-0.9-5.1,2-6.3,2.1c-1.2,0.1-24.7-0.9-29.7-2.3s-12.7-0.4-15.3,0.2
		c-2.6,0.6-19.7-0.1-20.7-0.5s-10.2-1.4-10.2-1.4l-1-6.1c0,0-8.2,1-15,1.1s-14.3,3.3-14.3,3.3l-20.1,0.5l-0.5-3.2
		c0,0-0.4-0.2-4.1-0.3s-32.4-1.4-38.8-1.9s-8.3,2-14.4,2.2c-6.1,0.2-9.8-4.3-14.5-5.5c-4.8-1.3-4.8,2.8-8.9,5.5
		c-4.1,2.7-13.7,0.5-16.1-0.6c-2.5-1.1-9.8,0.1-12.5,0s-2.9-1.2-6.1-2c-3.2-0.8-7.6-0.7-7.9-1.4c-0.3-0.7,0.4-5.8,0-7.7
		s-3.9-7.8-10.3-13.1c-6.4-5.3-12.2-6.6-16.5-1.3c-4.4,5.3-8.8,6.3-13.3,7c-4.4,0.7-17.8-3.4-20.8-6.5s-9.7-6.3-9.7-6.3
		c-7.4,2.9-11.9,0-11.9,0l-25.2-12c0,0-48.8-22.3-57.6-26.3c-8.8-3.9-8.2-8-10-15.8s-5.7-7.1-13.5-7.6c-7.9-0.4-7.5,5.2-7.5,5.2
		s-1,15.9-2.3,24.6c-1.4,8.7-2.5,8.2-2.5,8.2s-12,0.2-13.4,0.1c-14.2-1.3-5.8-0.6-16,0.5s-12.9-1.5-16.8-3
		c-3.9-1.5-13.6-17-14.6-18.3c-1-1.3-4.6-7.1-5.1-7.5c-0.6-0.4-3.2-2.7-3.8-3.7c-2.4-3.8-5.6-4.4-5.6-4.4s-11.6-2.8-19.7-7.7
		c-8.1-4.9-15.5-2.8-18.3-3c-2.7-0.2-22.9-4.5-34.1-6c-11.2-1.5-13.8,1.7-13.8,1.7s-13.2,13.8-13.6,14.3c-0.3,0.5-1.6,12.4-1.6,12.4
		l-24.5-3.4l1-7.6l21.5,3.3c0,0,0,0.1,0-2s-2.2-3.4-4.4-5.3c-2.2-1.9-9-17-11.1-19.7c-2.2-2.8-9.4-0.9-10.9-2.5
		c-1.5-1.5-3.8-2.2-3.8-2.2l-4.4,34l-65.2-8l4.7-36.3c0,0-3.4-0.6-5-1.7c-5.1-3.5-10.8-5.1-20.3-5.7
		C259.6,451.1,246.3,445.6,246.3,445.6"/>
	<path class="st1" d="M1177.1,493.9"/>
	<g>
		<path class="st2" d="M596.3,504.4l4.9-13.8l-4.5-1.4c0,0-22-6.8-23.9-7.6s-13.3-2.2-13.3-2.2l-21.8,0.6l0.4-17.6l1.4-36.1
			l0.9-31.1l-0.4-5.9l-1.4-6.5l-2.9-7.4l-7.1-12l-6.8-12.9l-2.5-10.7v-10.7l2.1-9.3l4.8-11.1l5.8-8.6l9.5-10.1l8-11.6l2.8-11
			l10.2-66.1l-2.2-2.7l-136-10.5l-137.7-6.6l-108.2,81.6c0,0-9.2-2.3-17.1-1.1c-7.9,1.2-16.4,1.3-16.4,1.3
			c-5.3-19.1,8.8-76.4,8.8-76.4l11.6,6.8c0,0,0.9-17.6,9.5-17.6c14-0.1,13.2,15.1,13.2,15.1l15.3-15.9l-1.6-3.9l11.8-8.3l0.6,0.4
			c0,0,11.3,5.9,14.3,5.3c2.4-0.5,6.6-5.7,8.2-7.8c-2.7-0.2-4.2-0.4-4.2-0.4l2.5-34.6c0,0,36.3,3.1,39.9,2.8s7.1-0.8,7.6-4.2
			c0.5-3.4-1.6-4.6-2.8-5.3c-1.2-0.7-39.7-3.4-39.7-3.4s-0.9-7.3-13.2-7.3c-12.2,0-39.8,4.1-39.8,4.1l-3-2.1l-1.8-1.4l-32.9,22.3
			c0,0-86.4,65.3-83,205.4c0.6,23.4,15.7,74.6,15.7,74.6s3.9,8.1-2.8,11.8c-6.8,3.7-33.3,9.1-31.3,42.9
			c1.6,26.6,21.8,36.8,32.8,36.5c2.5-0.1,4.9,0,7.2-0.8l158.4-56.3c0,0,13.3,5.5,22.8,6.1s15.2,2.2,20.3,5.7c1.6,1.1,5,1.7,5,1.7
			l-4.7,36.3l65.2,8l4.4-34c0,0,2.2,0.7,3.8,2.2c1.5,1.5,8.8-0.3,10.9,2.5c2.2,2.8,8.9,17.8,11.1,19.7c2.2,1.9,4.4,3.3,4.4,5.3
			c0,1.9,0,2,0,2l0,0l0,0l-21.5-3.3l-1,7.6l24.5,3.4c0,0,1.3-11.8,1.6-12.4c0.3-0.5,13.6-14.3,13.6-14.3s2.6-3.1,13.8-1.7
			c11.2,1.5,31.3,5.8,34.1,6c2.7,0.2,10.1-2,18.3,3c8.1,4.9,19.7,7.7,19.7,7.7s3.2,0.6,5.6,4.4c0.6,1,3.3,3.3,3.8,3.7
			c0.6,0.4,4.1,6.1,5.1,7.5c1,1.4,10.7,16.9,14.6,18.3c3.9,1.5,6.6,4.1,16.8,3s1.8-1.8,16-0.5c1.4,0.1,13.4-0.1,13.4-0.1
			s1.2,0.5,2.5-8.2c1.3-8.7,2.3-24.6,2.3-24.6s-0.3-5.7,7.5-5.2c7.9,0.4,11.7-0.2,13.5,7.6c0.2,0.8,0.4,1.6,0.5,2.4
			c-0.1-1.1-0.1-1.8-0.1-1.8L596.3,504.4z"/>
		<path class="st0" d="M595.5,511c0.9,2.6,2.4,4.7,5.9,6.7c-1.8-1.5-3.1-2.6-3.6-3.1C596.8,513.6,596.1,512.4,595.5,511z"/>
		<path class="st0" d="M800.1,589.7c3.8,0.7,8.8,1.1,11.5-0.7c1.9-1.2,3-2.8,4-4C809.7,583.2,803.8,586.7,800.1,589.7z"/>
		<path class="st0" d="M769.1,579.2c0,2.3-0.3,5.2-0.1,5.7c0.3,0.7,4.7,0.7,7.9,1.4c3.2,0.7,3.4,1.8,6.1,2c0.1,0,0.2,0,0.3,0
			c-3.5-1.8-7.3-4.1-10.8-7C771.5,580.4,770.4,579.8,769.1,579.2z"/>
		<path class="st0" d="M703.1,202c0,0-4.7-0.4-11.9-1l59.4,5.4C730.9,204.6,703.1,202,703.1,202z"/>
		<path class="st0" d="M835,589c3.6-0.1,5.7-1.1,8.2-1.7l-16.9-1.1C828.8,587.7,831.5,589.2,835,589z"/>
		<path class="st3" d="M1084.6,619.6c-1.5,7.2-19.8,66.1-19.8,66.1h10.1l20.6-67.1c-3.3-0.7-7.2-1.7-11.6-2.9
			C1084.6,616.9,1084.9,618.2,1084.6,619.6z"/>
		<path class="st2" d="M1365.6,558.1c-21.1-29-39-73.7-38.7-98.6c0.3-24.8,61.2-131.8,14.7-179c0,0-15.5-13.3-2.4-30.9
			c0,0-24.6,2.3-60.1-9.7c-9.1-3.1-32.5-9.1-37.3-11.4s-36.9-10.1-36.9-10.1c-14.9-4.4-25.6-3.8-27.6-3.6c-2,0.2-10.4,1.5-17.3-1.3
			c-0.9-0.4-1.8-0.6-2.7-0.8l-1.7-0.3l-1.7-0.1h-1.2c-8.4,0.3-16.5,5.7-22.4,6.1c-7.6,0.5-33.1-4.9-35.4-5.2
			c-2.3-0.3-34.3-9.7-46-12c-11.6-2.3-24.8-7-29.8-10.3c-5-3.4-27.8-11.6-32-14.3c-4.2-2.7-30.5-17.7-38.3-19.8
			c-7.9-2.1-14.2-7.2-17.1-10.9s-6.1-1.8-9.3-1.9c-3.2-0.1-1.5-2.3-7.5-6.2c-6-3.9-20.8-7.7-25.3-7.4c-4.5,0.3-12.9,17.6-14.7,21.9
			c-1.8,4.3-8.4,15.3-11.3,17.8s-23.6-0.2-23.6-0.2l23.8-44.8l-5.5-3.7l-5.4-10.7l-26.7-10.1l-0.9,1.5c0,0-38.6-14.5-41.4-14.5
			s-9-1.4-16-5.3s-16-10.3-19.2-11s-38.6-10.8-38.6-10.8s-26.3-7.7-29.9-3.9c-3.6,3.8-20.4,9.5-27.4,10s-13.4-6-16.6-9.1
			s-12.9,1.4-15.4,1.6c-2.5,0.2-14.6-2.3-17.9-2.3c-3.3,0-8.4-2-8.7-6c-0.8-8.7-4.9-9-4.9-9s-8.4,1.2-14.7-1
			c-6.4-2.2-19.1-2.3-19.1-2.3s-21,7.7-27.8,10.7c-6.8,2.9-8.4,8.1-8.4,11.7c0,0.7,2.8,7.1,1.5,9.8s0,6.7,0.6,7.6
			c0.5,0.8,1.1,2,1.7,3.3c2.1,4.8,4.9,9.3,8.4,13.3c0.7,0.8,1.2,1.4,1.2,1.4s5.7,6.6,9.9,8.3c4.2,1.7,5.1,4.9,7.8,7.4
			s8.9,3.9,10.9,4.1s8.1,2.9,9.2,4.5c1,1.6,2.6,3,10.9,8.4c12.4,8,18.9,5.4,18.9,5.4c1-0.9,8.4-3.9,8.4-3.9s6-2.7,9.6-7.3
			c3.6-4.6,5.3-4,9.6-7.7s6.4-1.6,6.4-1.6s3.1,2.3,6.5,3.1c3.4,0.7,5.8,2.7,9.6,6c3.8,3.2,7.2,4.1,8.5,4.3c1.3,0.3,7.9-0.3,16.4-0.3
			s14.1,4.6,18.8,8.2s4.4,5.7,4.4,5.7c0.2,3.7,2.6,6,4.1,7.1c1.8,1.4,2.7,3.7,1.9,5.9c-0.6,1.5-1.8,2.6-3,2.5
			c-11-1.5-10.4,3.7-10.4,4.7s-0.2,3.2,0.9,4c1.1,0.7,3.8,0.6,5.9,1c2.2,0.4,23.9,2.8,27.5,2.9c3.6,0.2,29.7,3.3,31.5,3.1
			s36.3,3.2,42.6,4.1c6.3,1,35.3,2.6,43.7,4.9c8.4,2.3,7.7,7.5,6.3,19.9c-1.4,12-7.5,13.1-8.8,13.5l20.8,1.9l0.7,11.3l17.1,1.9
			l25.4,5.9l18.3,6.8l19.5,8.8l26.3,15.4l1.9,3.6l17.2,0.9l37.7,3.4l27.5,2.1l30,2.1l27.4,2l20.6,0.8l27,0.8l20.2,235l18.4-2.3
			l2.2,44.4h20.2l26.7,46.5l-20.1,2.8l3.1,29.4c0.1,0,0.2,0,0.4,0c8.6,0,13.5,4.3,13.5,4.3s32.9,0.4,36.3,0.4s33.5,0.2,37.2,3.6
			c3.7,3.4,4.4,5.6,4.4,5.6l10.2-1.5l3.1,3.6c0,0,20.3-2.3,33.3-4.1C1372.9,649,1386.7,587.1,1365.6,558.1z"/>
		<path class="st4" d="M840.4,214.6L840.4,214.6l-89.7-8.1c10.4,1,18.6,1.7,19.1,1.8C771.4,208.5,839.3,214.9,840.4,214.6z"/>
		<path class="st4" d="M595.5,511c-0.6-1.6-0.9-3.5-1.3-5.6C594.4,506.9,594.7,509,595.5,511z"/>
		<path class="st4" d="M384.5,174.1c0,0,62.7,5.6,72.3,6.4s81.7,7.7,87.8,7.6s77.5,7.1,79.8,7.4c1.7,0.2,45.3,3.8,66.9,5.6l-454-41
			c0,0-0.3,0.3-0.7,0.9c15.2,1.4,66.8,6.1,70.3,6.5C311,167.9,384.5,174.1,384.5,174.1z"/>
		<path class="st0" d="M888.2,588.8c-3.7-0.1-32.4-1.4-38.8-1.9c-2.6-0.2-4.5,0.1-6.2,0.5l6.7,0.4l42.7,2.8l-0.2-1.5
			C892.3,589.1,892,588.8,888.2,588.8z"/>
		<path class="st5" d="M1245.6,605.6l-26.7-46.5h-20.2l-2.2-44.4l-18.4,2.3l-20.2-235l-27-0.8l-20.6-0.8l-27.4-2l-30-2.1l-27.5-2.1
			l-37.7-3.4l-17.2-0.9l-1.9-3.6l-26.3-15.4l-19.5-8.8l-18.3-6.8l-25.4-5.9l-17.1-1.9l-0.7-11.3l-20.8-1.9h-0.1
			c-1,0.4-69-6.1-70.6-6.3c-0.6-0.1-8.7-0.9-19.1-1.8l-59.4-5.4c-21.6-1.8-65.2-5.4-66.9-5.6c-2.3-0.2-73.7-7.5-79.8-7.4
			s-78.2-6.8-87.8-7.6c-9.6-0.8-72.3-6.4-72.3-6.4s-73.5-6.3-77.7-6.7c-3.6-0.4-55.1-5.1-70.3-6.5c-1.6,2.1-5.8,7.3-8.2,7.8
			c-3.1,0.7-14.3-5.3-14.3-5.3l-0.6-0.4l-11.8,8.3l1.6,3.9l-15.3,15.9c0,0,0.8-15.2-13.2-15.1c-8.5,0.1-9.5,17.6-9.5,17.6l-11.6-6.8
			c0,0-14.1,57.3-8.8,76.4c0,0,8.6-0.1,16.4-1.3c7.9-1.2,17.1,1.1,17.1,1.1l108.3-81.6l137.7,6.6l135.9,10.6l2.2,2.7l-10.2,66.1
			l-2.8,11l-8,11.6l-9.5,10.1l-5.8,8.6l-4.8,11.1l-2.1,9.3v10.7l2.5,10.7l6.8,12.9l7.1,12l2.9,7.4l1.4,6.5l0.4,5.9l-0.9,31.1
			l-1.4,36.1l-0.4,17.6l21.8-0.6c0,0,11.4,1.4,13.3,2.2c1.9,0.8,23.9,7.6,23.9,7.6l4.5,1.4l-4.9,13.8l-2.2-0.7c0,0,0,0.7,0.1,1.8
			c0.4,2.1,0.8,4,1.3,5.6c0.5,1.3,1.3,2.6,2.3,3.6c0.5,0.5,1.8,1.6,3.6,3.1c0.7,0.4,1.4,0.8,2.3,1.1c8.8,3.9,57.6,26.3,57.6,26.3
			l25.2,12c0,0,4.4,2.9,11.9,0c0,0,6.7,3.3,9.7,6.3c3,3.1,16.3,7.1,20.8,6.5c4.4-0.7,8.9-1.7,13.3-7c4.4-5.3,10.1-4,16.5,1.3
			c6.4,5.3,10,11.2,10.3,13.1c0.1,0.5,2.5,3.1,3.5,4c3.4,3,7.2,5.3,10.8,7c2.9,0,9.8-1.1,12.1,0c0.9,0.4,2.6,0.9,4.6,1.3
			c3.7-3,9.7-6.5,15.6-4.6c1.2-1.3,2.4-2.2,4.9-1.5c2,0.5,3.9,1.7,5.8,2.8l16.9,1.1c1.7-0.5,3.6-0.8,6.2-0.5
			c6.3,0.6,35.1,1.8,38.8,1.9c3.7,0.1,4.1,0.3,4.1,0.3l0.2,1.5l19.3,1.3h1c0,0,7.5-3.2,14.3-3.3s15-1.1,15-1.1l0.7,4.3
			c2.2,0.4,8,1.2,12.1,1c4.7-0.2,17.5-1.4,25.5,1.8c3-0.2,6.4-0.1,9,0.6c5,1.4,28.6,2.5,29.7,2.3c1.2-0.1,3.7-3,6.3-2.1
			c2.6,0.9,15,6.8,23.2,8.3s15.3,3.6,19.8,4.3c3.5,0.6,12.6,3.1,15.4,7.8c4.3,1.2,8.3,2.2,11.6,2.9l0.3-1.1c0,0,2.6,0.7,4.2,0
			c1.5-0.7,2.9-3.3,3.4-6.1c0,0,1.2-1.5,3.2-1.2c2,0.3,19.2,5.1,27.1,9.1s18,3.3,19.5,3.6c1.5,0.3,20.5,7.2,27,7.9
			c6.5,0.7,17.5,3.1,20.3,4.2s19.3,3.1,28,3.2l-3.1-29.4L1245.6,605.6z"/>
	</g>
	<path class="st2" d="M538.2,480.9l-2.2-0.1c0-0.8,3.1-78.2,3-88.4c-0.1-9.8-5.8-17.8-5.8-17.9v-0.1c0-0.1-4.3-7-11-19.2
		c-6.4-11.7-4.3-25-4.2-25.6l2.2,0.4l-1.1-0.2l1.1,0.2c0,0.1-2.1,13.2,3.9,24.2c6.4,11.7,10.6,18.5,10.9,19
		c0.5,0.7,6.1,8.8,6.2,19.1C541.3,402.7,538.2,480.2,538.2,480.9z"/>
	<g>
		<path class="st5" d="M259.2,302.1l-21,33.6l-10.9-5.4c0,0,2.8,7.2,6.1,12.7"/>
		<path class="st5" d="M233.3,343c8.4,14.2,21.3,25,36.5,30.4V369h41.8v4.6c27.7-9.4,47.7-37.1,47.7-69.8
			c0-40.4-30.6-73.2-68.3-73.2c-22.5,0-42.5,11.7-54.9,29.7c0,0-3.5,4.2-6.6,13.7s9.5-4.7,9.5-4.7s9.1,0.1,8.7,1.6
			s10.4,29.2,10.4,29.2"/>
	</g>
	<path class="st2" d="M520.2,330.1l-2.2-0.3l0.2-1.7c0-1,0.7-12.7,8.6-23.1c7.9-10.4,14.2-16.9,14.3-16.9l0,0
		c0.1-0.1,7-6.9,8.9-16.5c2-10,10.7-70.9,10.8-71.5l2.2,0.3c-0.1,0.6-8.8,61.5-10.8,71.6c-2,10.2-9.1,17.2-9.6,17.7
		c-0.3,0.3-6.5,6.7-14.1,16.7s-8.1,21.8-8.1,21.9v0.1L520.2,330.1z"/>
	<path class="st1" d="M516.7,331.2"/>
	<path class="st2" d="M524.8,309.9l-101.5-9.3c-3.2-0.3-5.6-3-5.6-6.2l1.4-106.4h2.2l-1.4,106.4c0,2,1.5,3.8,3.6,4l101.5,9.3
		L524.8,309.9z"/>
	<path class="st6" d="M659.6,220.2c0,0-14.8,22.2-19.7,26.1s-14.3,10.5-15.2,15.2s-2.4,9.2-4.8,12.4c-2.4,3.2-9.2,8.6-6.8,14
		c2.3,5.4,14.3,14.1,14.3,14.1s7.1,7.7,21.2,10.5s20.1,6.3,26.7,0.4c6.6-5.8,7.7-23.9,5.7-29s-4.9-14.5-11.5-19.2s-8.8-5.8-9.4-8.7
		c-0.6-2.9,1.5-7.3,5-11.1s13-18.7,13-18.7s2.6-5.7-2.7-6.6s-12.6-0.8-12.6-0.8S660.6,218.6,659.6,220.2z"/>
	<path class="st6" d="M878.1,270.4c0,0,2,2.1,3.8,2.5c1.7,0.4,2.3-1.8,6.3-3.7c6.1-2.9,9.6,2.4,9.6,2.4s5.4,8.5,6.5,8.9
		s4.1,3.2,4.8,6.6c0.4,1.7,0.8,3.3,1.1,4.4c0.3,1.1,0.8,2.1,1.5,3c0.9,1.3,2.5,3.5,4.3,6.1l-3.5,2.2l4.2,9.7l5.2-3.5
		c5.2,7.3,6.3,11.1,5.3,18.4c-1,7.2-2.9,16.5-7.6,19.5c-4.7,3.1-13.2,1.6-20-1.5c-6.8-3.2-5.2-12.6-6.2-29.5s-18.8-42.3-18.8-42.3"
		/>
	<path class="st6" d="M870.2,268.9c-2.3-2.9-5.9-7.4-6.7-8.6c-0.7-1-5-4.7-14.5-13.4c-5.3-4.7-6.8-8.4-7.2-10.8
		c-0.3-2,0.9-3.8,2.8-4.4c1.8-0.5,4.6-0.7,8.7,0.4c8.4,2.3,15.9,9.3,20.4,13c4.4,3.6,8.4,5.5,5.3,11.7c-2.6,5.1-5.2,6-4.4,8.4"/>
	<path class="st1" d="M872.3,271.5"/>
	<path class="st6" d="M582.2,467.6c0,0,8.1-16,13.2-18.1s19.1-2.9,36.8-0.5s17.6,1.2,19.7,0.3c2-0.9,7.6-2.3,16.4-2.3
		s8.9,0.9,11.2,1.5c2.3,0.7,20.6-1.4,34.1-6.6c13.5-5.3,23.4-9.6,31.6-9.4c8.2,0.2,11.4-3.2,14.1-3.9c2.8-0.7,7.4-1.4,13.9,4.1
		c6.6,5.5,9.4,9,10.6,11.5s0.9,23.4-4.9,28.7c0,0-5.3,5.4-12.4,4.5c-7-0.9-20.5-6.3-25.4-12.5s-13.5-7.5-20-3.4s-15.3,7.3-33.4,6.6
		c-18.1-0.6-45.8-0.4-57.8,1.8c-12,2.3-21.9,2.8-21.9,2.8s-6-0.1-12.2,4.8c-1.6,1.2-8.4,0.6-9.9-0.8s-1.9-2.2-1.9-2.2l1.4-1
		l-3.5-5.5L582.2,467.6z"/>
	<path class="st6" d="M1087.5,588.4c-10.3-7-29.1-16.8-31.3-18.6c-2.3-1.8-18.8-14.1-20.4-15.1s-23.5-15.3-23.5-15.3
		s-3.9-2.9-5.4-7.2c-1.5-4.2-5.4-13.5-5.4-13.5l-5.6,0.8c0,0,4.9,18.7,10.7,23.2s21.7,16.3,27.9,20c6.2,3.7,34.2,20.3,39.1,23.2
		s19.3,15.1,21.1,15.9c1.8,0.7,5.8,1.2,7,0C1102.8,600.4,1097.8,595.4,1087.5,588.4z"/>
	<path class="st7" d="M1070.4,667.5c0,0-0.8-0.3-3.4-0.7s-10.6,0.3-14.4,0c-3.8-0.3-3.6-1-5.1-2.8c-1.5-1.8-4.4-3.9-6.6-5.9
		s-7.4-5.7-7.4-5.7s-0.7-5-0.7-6s0.9-1.4,2.2-1.8c1.4-0.4,9.8,0.4,9.8,0.4s9.3,1.7,14.6,4.1c5.3,2.4,15,5.1,15,5.1"/>
	<path class="st7" d="M1084.1,655.5c0,0,10.1-3.2,14.3-0.4c4.2,2.8,5.5,3.7,5.3,4.4c-0.2,0.7-2.8,2-3.4,4.2
		c-0.6,2.2-0.1,7.3-2.1,8.2s-4.3,2.9-7.9,2.2c-3.6-0.7-10.8-3.8-10.8-3.8"/>
	<polygon class="st8" points="1172.9,351.2 1189.8,350.4 1190.6,366.3 1173.6,367.4 	"/>
	<path class="st2" d="M589.2,149.2l91.2,6.1c1.3,0.1,2.3,1,2.6,2.2c0.2,0.7,0.3,1.6,0.3,2.8c0,4.4-4.2,4.5-6.4,4.4l-116.6-8.6
		c0,0-63.5-4.3-66.2-4.3s-41.4-6.9-47.3-7.9c-5.9-1-70.4-6.9-75.5-6.9c-5,0-70.7-5.8-72.8-6.1c-2.2-0.3-5.5-0.2-7.3-3.3
		c-0.5-0.9-0.6-3.3-0.5-4.9c0-0.8,0.7-1.3,1.4-1.3l78.9,5.1c0,0,1.2,0.8,7.3-6.7s21.6-25.6,23.2-26.2c1.6-0.6,12.1-5.8,24.3-7.7
		c12-1.8,24.6-5.6,35.6-2.1c11,3.4,31.1,10.6,32,11s2.8,2.8,9.5,5.6c6.8,2.8,8.9,4.3,12,9.2c1.2,1.9,16.3,11,18.4,12
		c2,1,24.2,14.6,27.4,17.2s8.9,4.1,10.2,4.9s9,4.5,12.4,5.2C584.6,149,589.2,149.2,589.2,149.2z"/>
	<path class="st1" d="M1401.5,401.4"/>
	<path class="st1" d="M1169.3,384.8"/>
	<polygon class="st9" points="1131.6,337.2 1134.3,359.6 1145.6,358.4 1145.1,353.6 1150.9,353 1149.3,338.2 1142.2,339 1141.8,336 
			"/>
	<polygon class="st3" points="1175.9,285 1171.4,289 1175.7,292.5 1177.6,314.9 1174.2,319.1 1178.6,322.6 1182.5,319.1 
		1188.3,318.9 1194.3,325.4 1191.6,329.2 1196.9,332.8 1200.4,328.3 1196.9,325 1201.1,321.1 1195.9,315.4 1191.4,313.3 
		1182.5,313.7 1180.8,293.1 1187.7,292.7 1191.6,296.3 1197.7,295.5 1197.6,301.3 1199.4,302.9 1201.1,301 1200.9,295.1 1204,291.4 
		1199.6,287.9 1196.5,291.7 1194.5,291.7 1189.9,287.4 1179.8,288.2 	"/>
	<path class="st1" d="M676.2,156.3"/>
	<path class="st1" d="M752.6,183.1"/>
	<polygon class="st9" points="1053,441 1052.4,464.2 1056.1,464.2 1056.1,469.8 1068.4,469.8 1068.4,468.6 1072.6,468.6 
		1072.6,464.2 1077.4,459.1 1081.3,462.5 1084.9,458.4 1100.9,458.9 1101,446.5 1087.3,446.5 1087.3,451.4 1079.7,451.4 
		1067.3,440.1 1065.8,441.5 	"/>
	<path class="st9" d="M1004.3,451.8l1.2-1.1l0.7,0.6l6.4-4.9l-0.7-0.8l1.4-1.1l1,1l2.2-1.6l2.3,2.6l-1.8,1.6c0,0,2.2,0.1,3.4,1.6
		s1,3.4,1,3.4l1.3-1.1l2.2,2.5l-2.1,1.9l0.8,0.9l-1.1,0.9l-0.8-0.7c0,0-0.4,2.4-2,3.6s-4.4,1.4-4.4,1.4l0.7,0.8l-1.5,1l-1-1.1
		l-2.3,1.7l-1.9-2.1l1.1-0.9c0,0-2.3-0.3-3.2-1.5s-1.1-2.3-1.2-3.3v-0.4l-0.8,0.5l-2.5-2.6l2.4-1.9l-0.9-0.9L1004.3,451.8z"/>
	<polygon class="st9" points="793.6,439.8 792.9,448.4 808.8,449.8 807.8,460.9 791.9,459.5 791,468 816.3,470 818.5,441.9 	"/>
	<polygon class="st9" points="658.8,515.1 657,522.7 674.1,527.2 676.2,519.8 	"/>
	<path class="st9" d="M600.5,498.1l0.9,2.2l-1.1,0.2l1.7,4.1c0,0-1,2.8,0.9,5c1.9,2.3,4.7,2.3,5.6,2.4l0.4-0.5l3.5,1.6l0.7-1.3
		l2.1,0.8l0.1-7.3l-3.7-1.2c0,0,0.2-1-0.6-1.7c-0.8-0.6-1.4-0.5-1.4-0.5l-1.3-4.3L600.5,498.1z"/>
	<polygon class="st9" points="632.8,513.2 631.2,517.9 636,519.3 637.5,514.5 	"/>
	<polygon class="st9" points="677,527.6 675.7,532 680.4,533.4 681.8,529 	"/>
	<polygon class="st9" points="676,479.9 674.8,493.3 695.7,494.9 696.6,481.5 	"/>
	<polygon class="st3" points="448.1,353.4 417.4,350.5 412.2,403.3 427.3,404.9 427.1,406 433.9,406.8 434,405.7 442.6,406.7 	"/>
	<path class="st2" d="M468.3,446.8l-9.1-0.9l1.4-13.8l9.1,0.9L468.3,446.8z M459.7,445.4l8.1,0.8l1.3-12.9l-8.1-0.8L459.7,445.4z"/>
	<g>
		<polygon class="st3" points="471.3,429.4 471.4,428 461,427.1 460.9,428.4 455.8,427.9 453.1,452.5 458.6,453.1 468.6,454.1 
			472.8,454.6 475.4,429.8 		"/>
		<path class="st3" d="M468.6,456L468.6,456L468.6,456z"/>
	</g>
	<path class="st3" d="M492.9,373.8v0.2l-1.4,20.4c0,0,0.5,10.3,9.8,12.1c9.3,1.7,15.3-3.8,15.3-3.8l7.6,4.6v-5.2l8.8,0.4l-3.1-5.4
		l2.9-1.6l-5.4-11.1l2.5-1.1l-7.7-15.7c0,0-4.9-8.2-14-7.1C499.1,361.6,493.6,367,492.9,373.8z"/>
	<polyline class="st3" points="514.6,435.1 515.3,424.6 513.3,424.4 513,427.9 495.4,426.4 495.6,422.6 493.6,422.5 492.8,433.3 
		495.4,433.5 495.4,434.4 499.7,434.7 500.5,434 507.2,434.5 508.1,435.5 512,435.7 512.1,434.7 514.6,434.8 	"/>
	<circle class="st3" cx="505.6" cy="447.7" r="5.1"/>
	
		<rect x="956.4" y="288.9" transform="matrix(0.5432 -0.8396 0.8396 0.5432 193.9676 939.2507)" class="st9" width="7.5" height="4.9"/>
	<g>
		<g>
			<polygon class="st9" points="931.2,291.7 930.2,289.5 925.7,291.5 929.8,300.5 934.2,298.5 933.1,296 			"/>
			
				<rect x="932" y="290.7" transform="matrix(0.9125 -0.409 0.409 0.9125 -38.3175 407.382)" class="st9" width="2.6" height="5.2"/>
		</g>
	</g>
	<rect x="966.5" y="293.2" transform="matrix(0.866 -0.5 0.5 0.866 -17.7705 524.5238)" class="st9" width="6.8" height="4.5"/>
	<rect x="1042.7" y="291.4" transform="matrix(0.866 -0.5 0.5 0.866 -6.4414 561.7214)" class="st9" width="4.4" height="2.9"/>
	<polygon class="st9" points="973.2,309.9 974.9,309 973.5,306 971.7,306.9 971.7,306.9 967.2,309.1 970.8,316.4 975.3,314.2 	"/>
	<path class="st1" d="M944,526.3"/>
	
		<rect x="449.2" y="276.1" transform="matrix(0.1005 -0.9949 0.9949 0.1005 100.2666 728.5226)" class="st5" width="7.7" height="65.4"/>
	
		<rect x="446.9" y="303" transform="matrix(0.1005 -0.9949 0.9949 0.1005 71.4359 750.4393)" class="st5" width="7.7" height="65.4"/>
	
		<rect x="443.4" y="298.6" transform="matrix(0.1005 -0.9949 0.9949 0.1005 81.9714 734.4963)" class="st5" width="7.7" height="46.7"/>
	
		<rect x="475.2" y="319.7" transform="matrix(0.1005 -0.9949 0.9949 0.1005 107.3906 769.0146)" class="st5" width="7.7" height="10.9"/>
	<path class="st3" d="M1190,396.5l-0.2,2.3c0,0-2.2,0.1-3.2,1.1c-1,0.9-1.8,2.8-1.8,2.8l-2.2-0.2l-0.5,9.1l12.6,1.3l2.8-2.3l1-13.4
		L1190,396.5z"/>
	<path class="st3" d="M1183.7,463.9h-0.7v-8.6h3.7v-3.9h-4.4v-7.9h6.9v-8.4h5.2v-8.8h8.4v-3.2h6.1v4.9h-5.4v8.4h-5.2v8.6h-6.9v5.2
		h1.5v5.7h-3.4v8.1l1.8,1.5l28.9-4.6l-1.5-10l-3.2,0.5l-0.9-6.2l8.9-1.3l0.9,6.2l1.3,9.9l1.2,7.4l-34.2,5.4l-2.2,0.3l-2-1.3
		c-0.4,0.8-1.2,1.3-2.1,1.3c-1.3,0-2.3-1-2.3-2.3c0-0.8,0.4-1.6,1.1-2l-1.1-0.7l-0.3-0.2L1183.7,463.9z"/>
	<path class="st3" d="M222.7,123.4l-0.4,4.8l-8-0.8l-0.3,3.3l-2.1-0.1c0,0-2.6,3.6-2.8,8.4c-0.2,4.7,0.4,7.8,0.4,7.8h0.8l-0.1,2.9
		l2.8,5.4l2.6,2.3l5.3,0.4c0,0,0.4,4.7,3.9,4.9c3.5,0.2,6.2-2.8,6.3-4.8s0.2-3.6,0.2-3.6l-5.9-0.3v-2l-1.6-0.1l-0.1,2h-0.8l0.1-3.7
		h-1.7v0.5l-4.9-0.4l0.1-2.4l1.6,0.1l2.1-1l0.2-3.6l1.2,0.1l1.3-14.4l2.9,0.2l0.5-5.7L222.7,123.4z"/>
	<rect x="272.8" y="372.1" class="st3" width="35.6" height="52"/>
	<path class="st10" d="M384.8,349.3"/>
	<path class="st5" d="M409.7,199.6l-10.9,8L380.2,221c-1.3,0.9-1.6,2.8-0.7,4.1l7.7,10.7c0.9,1.3,2.8,1.6,4.1,0.7l20.1-14.5
		c0.7-0.5,1.2-1.3,1.2-2.2l0,0V210v-8.7C412.8,199.8,411,198.8,409.7,199.6z"/>
	<path class="st5" d="M389.4,437.3l-9.3-9.9l-15.9-16.5c-1.1-1.2-1.1-3,0.1-4.2l9.5-9.2c1.2-1.1,3-1.1,4.2,0.1l17.2,17.8
		c0.6,0.7,0.9,1.5,0.8,2.4l0,0l-1.7,9.7l-1.5,8.6C392.5,437.6,390.6,438.3,389.4,437.3z"/>
	<path class="st5" d="M408.6,244.4c0,1.9,1.5,2.3,1.5,2.3h1.8c0,0,1.2-0.1,1.2-1.2s0-1.5,0-1.5s0-8.1,0-13.7s-3.3-4-3.3-4
		l-18.2,13.6c0,0-1.6,1.1-0.2,3.6c1.1,1.9,2.6,4.3,3.2,5.2c0.3,0.5,0.7,0.9,1.2,1.1c0.6,0.3,1.6,0.3,2.7-0.4l4.5-2.3
		c0,0,0.8-0.3,0.8-2.7"/>
	<path class="st5" d="M398.7,252l3.8-2c1.1-0.6,2.2-0.8,3.4-0.8h4.7c0,0,2.2,0.4,2.2,3s0,20.3,0,20.3s0.1,2-1.4,2.7
		s-3.5,1.3-3.5,1.3s-1.9,0.2-2.7-1.9c-0.4-1.2-1-2.8-1.3-3.9c-0.3-0.8,0.1-1.6,0.9-1.9l3.6-1.4l-2.1-5.7l-3.6,1.2
		c0,0-1.3,0.5-2.3-1.9s-2.6-7.5-2.6-7.5S397.5,252.6,398.7,252z"/>
	<rect x="403.8" y="238.7" class="st11" width="4.8" height="5.7"/>
	<path class="st3" d="M102.2,394.7l16.7-8.6c0,0-12-32.7-11.9-45.1l3.3-0.4l-1.4-14.8l-18.4,1.4C90.5,327.1,92.4,367.6,102.2,394.7z
		"/>
	<path class="st1" d="M101.3,393.4"/>
	<rect x="773.2" y="546.9" class="st9" width="14" height="14"/>
	<rect x="793.9" y="544.6" class="st9" width="29.7" height="14"/>
	<rect x="776.1" y="562.8" class="st9" width="31.8" height="15.6"/>
	<polygon class="st9" points="1018.4,438.8 1027.5,431.6 1029.3,433.5 1028.5,434.3 1029.5,435.2 1028.5,436.2 1029.2,436.9 
		1024.4,440.6 1022.9,439.5 1020.6,441.3 1018.3,438.9 	"/>
	<path class="st9" d="M1030.3,444.1l0.2,2.1c0.1,1.7-0.1,3.4-0.7,4.9c-0.2,0.6-0.5,1.1-0.8,1.5l8.3,10.1l5.4-4.5l-7.2-8.4l2.1-2.1
		h3.3l0.1-2.3L1030.3,444.1z"/>
	<rect x="1056.5" y="479.2" class="st9" width="5.7" height="16.3"/>
	
		<rect x="768.5" y="97.7" transform="matrix(0.3185 -0.9479 0.9479 0.3185 426.7883 805.9264)" class="st3" width="10.8" height="16.8"/>
	<path class="st3" d="M841.9,110.8l-0.9-0.3l0,0l-15.9-5.4l-3.4,10.3l15.9,5.4l1.7-5.2l0,0l0.9,0.3c1.4,0.5,2.9-0.3,3.4-1.7
		C844.1,112.8,843.3,111.3,841.9,110.8z"/>
	<polygon class="st3" points="811.2,118.7 803,115.9 796,136.7 790.4,134.8 797.4,114 789.2,111.3 779.7,139.5 787.9,142.3 
		787.9,142.3 794.4,144.5 794.4,144.5 801.7,146.9 	"/>
	<polygon class="st9" points="956.3,450.7 951,441.4 952.7,440.4 949.8,435.4 938.3,442 941.2,447 943.3,445.9 948.6,455.2 	"/>
	
		<rect x="928.1" y="424.4" transform="matrix(0.8842 -0.4671 0.4671 0.8842 -91.2325 486.4192)" class="st9" width="14.6" height="5.6"/>
	
		<rect x="881.9" y="429.1" transform="matrix(0.8407 -0.5416 0.5416 0.8407 -92.4961 549.3446)" class="st9" width="10.7" height="5.6"/>
	
		<rect x="957.3" y="475.4" transform="matrix(0.8407 -0.5416 0.5416 0.8407 -107.3666 596.5695)" class="st9" width="5.6" height="10.7"/>
	
		<rect x="1191.6" y="584" transform="matrix(0.6137 -0.7895 0.7895 0.6137 -0.7953 1170.1494)" class="st12" width="7.7" height="3.8"/>
	
		<rect x="881.6" y="532.4" transform="matrix(0.9871 -0.1601 0.1601 0.9871 -73.7037 150.5753)" class="st2" width="31.9" height="0.5"/>
	<path class="st1" d="M1166,346"/>
	<path class="st1" d="M70,343.9"/>
	<path class="st1" d="M144.2,140.7"/>
	<path class="st9" d="M78.2,496c-6-2.3-10.9-5.6-14.6-9.8c-4.9-5.5-7.6-12.4-8.2-20.4c-0.7-11.3,2.3-20.4,9-27.3
		c5.6-5.7,12.8-8.7,17.5-10.7c1.7-0.7,3.1-1.3,4.1-1.9c3.5-2,2.1-8.9,2-9.3c-0.7-2.4-13.9-50.7-14.9-66.3
		c-1.3-19.3-0.8-31.4,0.4-44.8c2.2-23.3,7.1-46.2,14.7-68c6-17.5,13.7-34.3,22.9-50c15.6-26.8,30.2-41.4,30.4-41.5l1.6,1.6
		c-0.1,0.1-14.6,14.5-30.1,41.1c-14.2,24.5-32.3,64.7-37.2,117c-1.3,13.2-1.8,25.3-0.4,44.4c1.1,15.5,14.7,65.4,14.9,65.9l0,0
		c0.1,0.4,2,8.8-3,11.7c-1.1,0.6-2.6,1.3-4.3,2c-9.3,4-26.7,11.3-25.2,35.9c1.1,16.9,12.2,24.7,21.4,28.3L78.2,496z"/>
	<path class="st1" d="M77.4,498.6"/>
	
		<rect x="85.6" y="393" transform="matrix(0.8835 -0.4685 0.4685 0.8835 -170.6519 100.4746)" class="st2" width="62.1" height="0.5"/>
	
		<rect x="96.6" y="276.6" transform="matrix(9.040704e-02 -0.9959 0.9959 9.040704e-02 -208.5332 367.3329)" class="st2" width="0.5" height="42.5"/>
	<polygon class="st9" points="191.7,233.2 124.1,168.6 125.6,167 130.8,171.9 130.7,171.9 193.2,231.6 	"/>
	
		<rect x="155.3" y="365.1" transform="matrix(0.8837 -0.468 0.468 0.8837 -151.3756 121.3382)" class="st2" width="26.5" height="0.5"/>
	<rect x="1079" y="299.2" transform="matrix(0.866 -0.5 0.5 0.866 -5.9166 582.8953)" class="st9" width="11.4" height="6.6"/>
	<rect x="1110.6" y="415.9" class="st9" width="34.9" height="22.9"/>
	
		<rect x="1053.7" y="384.1" transform="matrix(4.832346e-02 -0.9988 0.9988 4.832346e-02 617.6087 1429.7755)" class="st9" width="10.8" height="13.4"/>
	<g>
		<polygon class="st3" points="1235,403.1 1240.2,407.2 1240.7,400.1 1235.2,399.8 1235,402.8 1234.4,402.8 1234.4,402.8 
			1235,402.8 		"/>
		<path class="st3" d="M1240.5,401.3l-0.3,5.9l2,0.1v-1.6h1.1l0.1-4.2C1243.5,401.5,1240.6,401.3,1240.5,401.3z"/>
		<polygon class="st3" points="1235.1,402.8 1205.2,401.2 1204.9,406.8 1234.1,408.4 1233.6,415.6 1224.9,415.2 1224.6,420.5 
			1220.4,420.3 1220.2,425.5 1229,425.9 1229.1,423.1 1233.3,423.3 1232.8,432.6 1238.8,432.9 1240.2,407 		"/>
	</g>
	
		<rect x="1244.9" y="415.4" transform="matrix(4.948057e-02 -0.9988 0.9988 4.948057e-02 772.5054 1651.1528)" class="st3" width="17.6" height="8.7"/>
	<polygon class="st3" points="1286.9,450.6 1286.4,445.2 1284.1,445.4 1283.7,441 1273.3,442 1273.7,446.4 1271.4,446.6 
		1271.9,452.1 1274.2,451.8 1274.7,456.9 1285.1,455.9 1284.6,450.8 	"/>
	<polygon class="st3" points="1243.6,337 1239.2,340.3 1238.3,358.3 1214.7,357.1 1215.1,344.5 1234.9,326.8 1231.7,323.2 
		1210.4,342.2 1209.6,362.8 1214.4,363 1214.4,363 1238,364.2 1238,364.2 1243.8,364.5 1244.8,344.5 1247.7,342.3 	"/>
	<polygon class="st3" points="1246.8,302.2 1241.2,302.2 1241.2,309.3 1241.2,316 1239.3,317.4 1242.6,321.9 1246.6,318.9 
		1246.6,318.9 1246.6,318.9 1246.6,309.3 1262.4,309.3 1262.4,325.9 1252.2,333.3 1255.5,337.8 1269.5,327.5 1269.5,327.5 
		1269.5,327.5 1269.5,309.3 1269.5,305.1 1269.5,302.2 	"/>
	
		<rect x="1185.9" y="502.7" transform="matrix(0.9972 -7.415909e-02 7.415909e-02 0.9972 -34.1704 89.5644)" class="st3" width="6.2" height="4.5"/>
	
		<rect x="1192.8" y="495.9" transform="matrix(0.9972 -7.415909e-02 7.415909e-02 0.9972 -33.6435 90.1537)" class="st3" width="8.8" height="4.5"/>
	<path class="st3" d="M1242,511.5l-1.8-9.4l-2.9,0.3l-0.7-4.8l-6.1,0.6l0,0l-0.3-4l-0.2-2.5l-6.2,0.5l0.2,2.5l-11,0.8l-0.2-2.5
		l-6.2,0.5l0.6,8.6l5.6-0.4l0,0l16.6-1.2l0.2,2.8l-2,0.2l0.3,3.3l9.6-0.8l0.7,4.5l-3.3,0.4l0.7,4.7l3.3-0.3l-0.7-3.4L1242,511.5z"/>
	<g>
		<polyline class="st3" points="1208.9,538.7 1209.5,545.6 1216.8,545 1214.1,508.6 1206.8,509.2 1207.8,522.7 		"/>
		<polyline class="st3" points="1207.7,522.5 1202.8,522.9 1204,539.3 1209,539 		"/>
	</g>
	<path class="st3" d="M1230.9,542.6c0,0.3,8.7,19.3,8.7,19.3l1.8-0.7l0.5,0.5l1.8-1.6l-0.4-0.7l2-2.6l-1.6-2.2l1.5-1.3l-0.8-0.8
		l1.7-5.6l5.8-2.7l7-2.8c0.7-0.3,1.2-0.8,1.5-1.4c0.3-0.7,0.3-1.6-0.2-2.5l-1,0.4l-2.2-4.3l-2.7,1.1l-1.2-2.4l-2.5,1.1l-0.7-1.6
		l-3,1.3l0.7,1.8l-2.9,1.1l-0.5-1.3l-2-0.1l-1.4,0.5l1,2.5l-11,4.8L1230.9,542.6z"/>
	<path class="st3" d="M1213.9,270.8l-2.9,9.1l10.4,3l1-3.6l-3.9-1.1c0,0,0.6-1.2-0.3-2.1c-0.3-0.3-0.7-0.4-0.7-0.4l1.1-3.7
		L1213.9,270.8z"/>
	<path class="st3" d="M1284.5,268l-7.1-3.3l0,0l-16.2-7.4l0,0l0,0l-11-5l-1.9-0.9l0,0l-14-6.4l-2,4.5l0,0l-10.1,22l4.6,2.1l9.9-22
		l9.5,4.4l-3.4,7.4l3.6,1.6l3.3-7.4l5.8,2.7l-3.4,7.4l3.6,1.6l3.4-7.4l16.1,7.4l-0.4,1l0,0l-3.1,6.6l0,0l0,0l-1.5,3.3l0,0h-12.8v7.6
		h12.8l0,0c2.2-0.1,3.7-1.8,3.7-3.9c0-1.4-0.7-2.6-1.8-3.3l1.4-3.1l-0.2-0.1l5.7,2.6L1284.5,268z"/>
	<path class="st1" d="M1272.6,277.1"/>
	<rect x="1233.3" y="280.5" class="st3" width="10" height="5.8"/>
	
		<rect x="1236.3" y="266.7" transform="matrix(0.4348 -0.9005 0.9005 0.4348 457.157 1266.6986)" class="st3" width="2.9" height="5"/>
	<polygon class="st3" points="1215.2,236.9 1215.2,236.9 1200.9,231.3 1198.8,236.6 1213.2,242.2 1211.5,246.4 1216.8,248.4 
		1220.5,239 	"/>
	<path class="st3" d="M1211.2,255.4l1.2-2.4l0,0l0,0l-2.4-1.1l-4.6-2.2l-2.6,5.4l1.6,0.8l-4.3,9.2l-10.6-4.9l-8.1-10.5
		c1-3.5,1.8-7.2,2.3-10.8l13.3-1.9l-0.8-5.9l-17.5,2.5l-0.3-0.1l0,0c-0.5,5.9-1.6,11.8-3.5,17.4h-0.1l0,0v0.1l0,0h0.1l10.8,13.9l0,0
		l0,0v0.1l0,0l17.3,8l2.5-5.4l0,0L1211.2,255.4z"/>
	<polygon class="st3" points="1203.3,308.1 1204.7,328.3 1215.4,327.8 1215.4,325 1217.4,324.9 1217.4,323.3 1219.6,323.3 
		1219.6,321.6 1221.6,321.6 1221.6,314.2 1219.3,314.2 1219.3,312.8 1216.1,312.8 1216.1,311.3 1213.7,311.3 1213.7,309.6 
		1208.8,309.6 1208.8,306.4 1205.3,306.4 	"/>
	
		<rect x="717.6" y="534.9" transform="matrix(0.3511 -0.9363 0.9363 0.3511 -36.6027 1025.2043)" class="st9" width="7.5" height="8.3"/>
	<rect x="733.3" y="540.6" class="st9" width="8.3" height="4.7"/>
	<rect x="713.7" y="550" class="st9" width="8.3" height="4.7"/>
	<polygon class="st9" points="710.8,538.6 700.3,535.2 698.9,539.7 698.9,539.7 698.2,541.7 696.9,545.7 703.9,548 705,544.7 
		706.2,545.1 707.1,542.3 709.4,543.1 	"/>
	<rect x="836.6" y="565.6" class="st9" width="10.8" height="10"/>
	<rect x="889.6" y="573.6" class="st9" width="12.4" height="7"/>
	<rect x="877.4" y="568.4" class="st9" width="7.2" height="5.2"/>
	<path class="st3" d="M1251.3,559.2l-1.9,8.1c0,0,5.6,0.2,8.8,3.2c3.2,3,3,2.9,3,2.9l3.5-4.1l-0.8-0.5l1.4-1.6l-4.9-3.5v-1.1
		l-4.2-1.1v-1L1251.3,559.2z"/>
	<path class="st1" d="M1222.3,558.1"/>
	
		<rect x="1225.7" y="555.7" transform="matrix(0.8557 -0.5174 0.5174 0.8557 -114.2076 717.1423)" class="st3" width="6.4" height="15.4"/>
	<path class="st3" d="M1264.8,577.3l5.4-1l1.3,5.3l0.9-0.2l0.8,2.8h1.5v9.8h-1l0.6,2.5l-5.2,2.6c0,0-2.2-9.9-2.3-13.8
		C1266.7,581.4,1264.8,577.3,1264.8,577.3z"/>
	<polygon class="st3" points="1273.7,604.8 1273.7,609 1277.1,609 1277.1,610.7 1282.5,610.7 1282.5,607.2 1283.7,607.2 
		1283.7,605.3 1282.5,605.3 1282.5,603.3 1277.1,603.3 1277.1,604.8 	"/>
	<path class="st3" d="M1252.5,617.6v4.7l43.1,3.3c0,0,2.9-0.6,2.8-2.7s-2.6-2.6-2.6-2.6v-2l-34.5-2.6v1.5l-2.9-0.4l-2.7,0.9
		L1252.5,617.6z"/>
	<polygon class="st3" points="1235.8,450.9 1236.1,453.9 1234.6,454.1 1235.3,461.5 1237.3,461.3 1237.4,463.9 1242,463.6 
		1242.2,465.7 1258.7,464.2 1258.3,460 1243.2,461.2 1243.1,459.5 1240.1,459.8 1239.6,454.9 1241.7,454.7 1241.6,454.1 
		1244.3,453.7 1243.7,449.9 	"/>
	<polygon class="st3" points="1245.6,446.7 1245.6,450.9 1248.6,450.9 1248.6,448.9 1252,449 1252,447.9 1255,448 1255,447.5 
		1261.6,447.5 1263.8,451.1 1263.8,454.6 1261.6,454.6 1261.6,459.5 1268.3,459.5 1268.3,454.3 1269.5,454.3 1269.5,451.6 
		1267.5,451.6 1267.5,447.9 1264.9,444.5 1261.9,444.5 1261.9,443.3 1255.7,443.3 1255.7,444 1252.8,444 1252.8,445 1249.3,445 
		1249.3,446 1245.6,446 	"/>
	
		<rect x="1033.8" y="204.5" transform="matrix(0.3518 -0.9361 0.9361 0.3518 472.2184 1109.3403)" class="st3" width="6.7" height="18.4"/>
	<path class="st3" d="M1073.4,234.1l6.8,2.3l-5,14.1l-4.4-1.4l-0.1,0.5c0,0,1.1,1.1,0.7,2.1c-0.7,1.7-3.7,0.6-3.7,0.6l-1,2.1
		l1.6,0.6l-2.8,7.3l-16.1-6.3l2.6-7.4l3.2,1.1l2.1-4.8c0,0,1.5-2,4.8-2s3.8-2.6,3.8-2.6s0.8-2.5,4.1,0c0.5,0.4,1.3-0.1,1.5-0.8
		C1071.8,238.5,1073.4,234.1,1073.4,234.1z"/>
	
		<rect x="1096.9" y="228.1" transform="matrix(0.2529 -0.9675 0.9675 0.2529 597.2208 1239.1736)" class="st3" width="8.2" height="9.6"/>
	
		<rect x="1112.9" y="236.9" transform="matrix(0.2529 -0.9675 0.9675 0.2529 601.1128 1259.2715)" class="st3" width="6.1" height="7.1"/>
	<path class="st1" d="M871.1,270"/>
	<path class="st1" d="M892.4,187.3"/>
	
		<rect x="948.7" y="228.9" transform="matrix(0.3287 -0.9444 0.9444 0.3287 422.7273 1053.0709)" class="st2" width="6.9" height="0.5"/>
	<path class="st1" d="M961.6,202.7"/>
	<polygon class="st3" points="921.2,168.3 921.6,167.2 917.7,165.6 917.3,166.7 912.7,164.9 912.9,164.4 908.8,162.8 909.2,161.7 
		905.2,160.2 904.8,161.3 901.9,168.7 906.2,170.4 905.8,171.4 909.6,172.9 909.9,172.2 909.8,172.5 914.3,174.2 914.3,174.2 
		918.7,175.9 918.3,176.9 922.1,178.4 922.5,177.4 925.4,169.9 	"/>
	<polygon class="st3" points="931.8,170.8 930.8,173.1 932.4,173.7 929.2,181.2 932.4,182.4 933.5,180 938.8,182.1 939.7,179.9 
		941.1,180.5 941.7,178.9 940.4,178.4 941.8,174.9 	"/>
	<polygon class="st3" points="950.7,178.6 947.7,186.2 956.9,189.6 960.2,180.7 955.2,178.9 954.7,180.1 	"/>
	<polyline class="st3" points="962.2,200.5 951.9,196.5 948.1,194.9 946.5,198.3 930.8,192.2 931.9,189.1 927.6,187.5 925.6,192.6 
		918.4,190.4 919.5,187.3 911.3,184.6 912.3,181 903.3,178.2 899.9,188.3 909.2,190.9 908.8,192 929,198.3 928.6,199.6 948.4,207.1 
		947.9,208.1 950.9,209.2 951.4,208 958.8,210.7 959.2,209.2 	"/>
	<polyline class="st3" points="951,232.8 934.7,226.3 934.2,227 930,225.4 930.4,224.5 916.6,219.5 916.2,220.5 911.9,219.5 
		912.2,218.6 897.8,215.1 897.6,215.8 893.5,215 893.6,214.5 885.4,212.8 885.1,213.7 867.9,211 868.4,206.1 870.5,206.4 871.3,200 
		876.3,200.6 876.1,202.6 877.7,202.7 877.9,200.6 884.4,201.7 883.6,206.2 898.3,208.7 899.2,204.4 904,205.4 903,209.7 917,212.7 
		917.9,208.8 922.8,210.1 921.7,214.6 936.5,219.2 937.7,216.1 942,217.7 940.7,220.9 953.4,226.3 	"/>
	<polygon class="st3" points="973.6,187.3 966.3,184.3 964.4,188.9 964.4,188.9 961.8,195.1 965.6,196.7 967.6,192.1 971,193.5 	"/>
	
		<rect x="1151.6" y="180.5" transform="matrix(0.9955 -9.448518e-02 9.448518e-02 0.9955 -14.2772 109.7544)" class="st2" width="0.5" height="50.3"/>
	
		<rect x="1153.1" y="180" transform="matrix(0.9955 -9.448713e-02 9.448713e-02 0.9955 -14.2422 109.8971)" class="st2" width="0.5" height="50.7"/>
	<path class="st1" d="M120.3,209.3"/>
	<path class="st1" d="M144.2,186.3"/>
	<path class="st1" d="M130.4,173"/>
	<polygon class="st3" points="1231.1,610.4 1231.1,613.9 1228.4,613.9 1228.4,617.6 1231.1,617.6 1231.1,618.8 1241.7,618.8 
		1241.7,622.7 1244.9,622.7 1244.9,618.8 1244.9,616.7 1244.9,610.4 	"/>
	<g>
		<path class="st3" d="M530,207.8l0.3-3.1l-2.9-0.2l0,0l-3-0.2l-0.2,3.1l-16.6-1.2l-1.9,30l10.8,11.4l-0.4,6.5l3.6,4l3.3,0.3l0,0
			h0.1l0,0l0,0l3.3,0.2l4.1-3.4l0.6-6.5l12.7-9.6l2.8-30L530,207.8z M538,236.5l-10.4,8.3h-3.7l-3.1-0.4l-9-9.8l1.8-21.1l8.7,0.5
			l-0.2,3.2l2.1,2.2l1.8,0.1l2.1,0.1l2.4-1.9l0.2-3.2l8.8,0.8L538,236.5z"/>
	</g>
	<path class="st12" d="M455.4,428"/>
	<polygon class="st6" points="871.1,270 872.6,271.7 876.6,268.6 875.1,266.7 	"/>
	
		<rect x="867.5" y="265.8" transform="matrix(0.7686 -0.6397 0.6397 0.7686 31.7873 620.8231)" class="st13" width="13.2" height="1.4"/>
	<g>
		<g>
			<g>
				<g>
					<path class="st6" d="M1005.5,390.6c-3.9-2.5-7-2.5-7.9-0.2c-1,2.3-2.2,5.4-7.3,4.9c-5.2-0.5-5.5-4.9-7.7-6.9s-6.3-1.7-9.2,2.2
						c-2.9,3.8-7.1,4.3-13.5,7.1s-10,13.9-10,17.7c-0.1,3.7-2.2,1.1-2.2,1.1s-1.7-1.4-5.8-8.7c-4.1-7.3-14.7-15-16.6-16.2
						s-5.3-4.1-6.6-6.5c-5.5-9.8-7.6-8.6-7.6-8.6L905,378c0,0-1.8,1.1,0.7,4c2.6,2.9,6.9,6.6,8.1,7.2c1.1,0.6,4.8,5.8,6.6,7.3
						s15.6,11.2,17.5,13.1c1.9,1.8,10.8,13.6,16.6,23.5c5.7,10,12.2,17.5,17.6,30.9s23,53.3,23,53.3l5.8-0.9c0,0-6.1-11.9-9-17.9
						s-14.7-32.6-17.3-39.5c-2.6-6.9-15.4-25.2-19.3-32s-2.5-14,0-19.5s10.2-10.6,16.7-10s6.1,8.9,5.6,11.1
						c-0.5,2.2-7.5,6.1-8.7,11.5c-1.2,5.5,5.9,6.4,9.9,6.5s7-4.2,7-4.2c2.3-2.6,5.7-2,6.2-1c2.1,3.9,3.6,4.7,8.1,4.7
						s6.3-3.1,6.7-6.1c0.3-2.9-3.7-6.3-4.2-8.6c-1.3-6.2,1.2-4.3,4.3-10.1C1009.9,395.5,1009.5,393.2,1005.5,390.6z M991.3,415
						c-4,0-7.3-3.3-7.3-7.3s3.3-7.3,7.3-7.3s7.3,3.3,7.3,7.3C998.6,411.7,995.3,415,991.3,415z"/>
				</g>
			</g>
		</g>
	</g>
	<g>
		<g>
			<path class="st9" d="M786.5,335.1l-13.6-0.8l-10.2,9l-0.8,13.6l9,10.2l13.6,0.8l10.2-9l0.8-13.6L786.5,335.1z M792,357.6
				l-8.5,7.5l-11.3-0.7l-7.5-8.5l0.7-11.3l8.5-7.5l11.3,0.7l7.5,8.5L792,357.6z"/>
		</g>
	</g>
	<circle class="st6" cx="778.7" cy="351.1" r="7.9"/>
	<g>
		<path class="st3" d="M1276.5,342.4l-0.8-0.2l-3.6,31.4l6.8,0.7l13.7-28.1L1276.5,342.4z M1277.9,370l-2.6-0.3l2.4-23.1l0.8,0.1
			l9.1,2L1277.9,370z"/>
	</g>
	<g>
		<path class="st3" d="M887.9,171.9c0-5,4.1-9.1,9.1-9.1c1.1,0,2.2,0.2,3.2,0.6l2-6.4c-1.7-0.6-3.8-1-5.6-1c-8.8,0-16,7.2-16,16
			c0,7.4,5.4,13.7,12.2,15.5l2.1-6.7C890.8,179.7,887.9,176.1,887.9,171.9z"/>
	</g>
	<g>
		<path class="st3" d="M965.8,218.3c-0.2,5-4.4,8.9-9.4,8.7c-1.1,0-2.2-0.3-3.2-0.7l-2.2,6.4c1.6,0.6,3.7,1.2,5.6,1.2
			c8.8,0.3,16.2-6.5,16.6-15.4c0.3-7.4-4.9-13.9-11.7-16l-2.3,6.6C963.1,210.3,965.9,214,965.8,218.3z"/>
	</g>
	<g>
		<g>
			<g>
				<g>
					<path class="st6" d="M1127.2,517.4c-0.1-0.1-0.2-0.2-0.3-0.3c-3.7-2.8-9-2.1-12,1.4l-11.9,13.7c0,0-6.4,8.4,0.7,13
						c7.1,4.7,13.8-2.8,13.8-2.8l9.6-11.8c1.5-1.8,2.4-3.9,2.7-6.2C1130.2,522.2,1129.7,519.5,1127.2,517.4z M1125.7,525.4
						c-0.3,2.8-9.7,13.1-11.8,15.2c-2.1,2.1-5.6,3.1-8.1,0.9s-0.4-6.3,0-7.4c0.3-0.8,7.6-9.2,11-13c1.8-2,4.8-2.5,7.1-1l0,0
						C1125.1,520.9,1126,522.6,1125.7,525.4z"/>
				</g>
			</g>
		</g>
	</g>
	
		<rect x="662.9" y="475.5" transform="matrix(0.1639 -0.9865 0.9865 0.1639 79.1476 1061.4601)" class="st9" width="5.7" height="17.1"/>
	
		<rect x="662" y="486.3" transform="matrix(0.1639 -0.9865 0.9865 0.1639 70.0385 1065.5145)" class="st9" width="3.1" height="10.2"/>
	<polygon class="st9" points="1166.9,387.6 794.3,353.6 794.5,351.1 1167.1,385.1 	"/>
	<polygon class="st9" points="1345.5,399.8 1168.3,387.6 1168.5,385.1 1346.3,397.4 	"/>
	<polygon class="st9" points="1279.3,386.2 1326.8,284.3 1328.9,285.3 1281.5,387.2 	"/>
	<polygon class="st9" points="1175.7,492.4 1148.7,179.8 1151.1,179.6 1178.1,491.7 	"/>
	
		<rect x="1279" y="386.7" transform="matrix(0.9999 -1.185709e-02 1.185709e-02 0.9999 -4.5359 15.2058)" class="st9" width="2.2" height="6.9"/>
	<path class="st14" d="M1176.6,494"/>
	<path class="st9" d="M1247.5,601.1c-0.4-2.8-0.9-3.7-2-4.9c-1.1-1.3-5.2-2.9-8.8-4.3c-2-0.8-4-1.5-5.4-2.3c-3-1.5-3.2-1.7-7-5
		c-1.5-1.3-3.6-3.2-6.6-5.8c-10.3-8.8-16.2-8-16.3-8h-0.1c-0.4,0-9.8,0.5-13.7,0.4c-4.4-0.2-4.9-3.1-4.9-3.2l-6.9-74.1l1.2-0.1
		l6.9,74.1c0,0.2,0.4,2,3.7,2.1c3.8,0.2,13-0.3,13.6-0.4c0.6-0.1,6.8-0.7,17.2,8.3c3.1,2.6,5.1,4.5,6.6,5.8c3.7,3.3,3.8,3.4,6.7,4.8
		c1.4,0.7,3.3,1.4,5.3,2.2c3.9,1.5,7.9,3.1,9.3,4.6c1.2,1.4,1.8,2.5,2.3,5.6L1247.5,601.1z"/>
	<path class="st9" d="M796.7,541.3c-9.7,0-19.6-0.3-24-1.2c-7.6-1.6-12.9-4.8-24.5-11.8c-3.7-2.2-7.8-4.7-12.9-7.7
		c-20.9-12.2-34.2-11.9-34.3-11.9c-1.4,0-34.8,0.8-41,0c-8-1-65.3-17.8-80.6-23.6c-13.5-5.1-26.1-4.2-26.2-4.2
		c-1.2,0.1-28,1.9-38.1-0.8c-23.2-6.1-118.9-22.6-119.8-22.8l0.4-2.2c1,0.2,96.7,16.7,120,22.8c9.8,2.6,37.1,0.8,37.4,0.7
		c0.5,0,13.1-1,27.1,4.3c15.3,5.8,72.2,22.5,80.1,23.5c6,0.8,40.3,0,40.6,0c0.5,0,13.9-0.4,35.5,12.2c5.1,3,9.2,5.5,12.9,7.7
		c11.4,6.8,16.5,10,23.8,11.5c9.4,2,46,0.8,47.2,0.7l54.3-4.6l452.1-63.5l0.3,2.2l-452.2,63.5l0,0l-54.4,4.6l0,0
		C819.6,541,808.3,541.3,796.7,541.3z"/>
	<path class="st9" d="M1071.4,686.1l-2.1-0.7c0.1-0.4,12.9-40.7,19.1-61.1c1.7-5.5,1.4-10.3-0.9-14.2c-4-7-12.7-9.2-12.8-9.2
		c-0.4-0.1-44.5-10.4-79.1-20.8c-33.2-9.9-60.7-19.3-86.9-33c-24.4-12.6-34.2-10.8-34.3-10.8l-0.5-2.2c0.4-0.1,10.5-2.2,35.8,11
		c26.1,13.5,53.5,22.9,86.5,32.8c34.6,10.4,78.6,20.7,79,20.8s9.8,2.4,14.2,10.2c2.6,4.5,2.9,9.9,1.1,16
		C1084.2,645.4,1071.5,685.7,1071.4,686.1z"/>
	<path class="st9" d="M920.9,551.6c-0.7,0-1.4-0.1-2.2-0.2c-6.7-1.1-11.1-7.1-10-13.6s6.8-10.6,13.9-10c3,0.3,5.7,1.8,7.6,4.2
		c2.1,2.7,3,6.3,2.5,9.8C931.8,547.6,926.8,551.6,920.9,551.6z M921.2,529.9c-5.4,0-9.5,3.2-10.3,8.2c-0.9,5.4,2.6,10.1,8.2,11
		s10.6-2.5,11.5-7.8c0.5-2.8-0.3-5.8-2-8c-1.5-2-3.7-3.2-6.1-3.4C922,529.9,921.6,529.9,921.2,529.9z"/>
	<path class="st14" d="M945.4,525.3"/>
	<path class="st9" d="M945,563.4c-0.2-0.1-4.2-1.4-8-4.7c-5.1-4.4-7.4-10.2-6.6-16.7c1-8.2,5.6-12.7,9.3-15c4-2.5,7.7-3,7.8-3.1
		l0.3,2.2l-0.2-1.1l0.2,1.1c0,0-3.5,0.5-7.1,2.8c-4.7,3-7.5,7.5-8.2,13.4c-1.7,13.9,13,19,13.1,19L945,563.4z"/>
	
		<rect x="858.7" y="336.8" transform="matrix(0.7598 -0.6502 0.6502 0.7598 -82.7541 665.9178)" class="st9" width="2.2" height="216.3"/>
	
		<rect x="640.1" y="216.8" transform="matrix(8.591434e-02 -0.9963 0.9963 8.591434e-02 248.2825 948.7886)" class="st9" width="2.2" height="244.6"/>
	<path class="st9" d="M605.3,335.8c-0.1-1.9-1.3-45.8,1.5-56.9c2.7-10.8-5.7-73.9-5.8-74.5l2.2-0.3c0.3,2.6,8.5,64.1,5.7,75.3
		c-2.7,10.9-1.5,55.9-1.4,56.3L605.3,335.8z"/>
	<polygon class="st3" points="530.1,486.3 530.1,490 527.2,492.7 523.8,500.1 537.5,500.1 540.1,502.6 542.5,500.8 548.5,500.8 
		550.7,493.8 554.6,489.2 552,487.6 548.8,490.3 538.5,485.9 536.6,488.5 	"/>
	<path class="st9" d="M791.4,342l-1.4-1.7l90.7-75l2.6-2c0.3-0.2,2.7-1.9,9-1.5l0,0l143.7,11.7c0.7,0.1,72.9,5.4,82.2,6
		c9.3,0.6,54.3,1,54.8,1h0.1c1.7,0.2,42.5,3.8,49.6,6.2c8.2,2.9,34.1,9.5,38,9.5l0,0c4-0.1,14.9,1.9,15.6,2.2l-0.8,2.1l0,0
		c-0.8-0.2-11.1-2.1-14.9-2c0,0,0,0-0.1,0c-4.4,0-30.9-6.9-38.7-9.6c-6.7-2.4-47.4-6-49-6.1c-1.7,0-45.6-0.4-54.8-1
		c-9.4-0.6-81.5-6-82.2-6l-143.7-11.7c-5.3-0.3-7.4,1-7.5,1.1l-2.5,2L791.4,342z"/>
	<path class="st9" d="M395.3,457.4c-6.3-0.9-14.2-1.9-22.5-3c-42.9-5.8-101.6-13.6-113.1-17.3l0,0l-10.9-3.9c-1-0.4-2-0.8-3-1.3
		c-10.7-5.3-20.8-12.6-29.9-21.8c-8.9-8.8-16.6-19.1-23.2-30.6c-6.5-11.4-11.5-23.7-15-36.5c-3.5-13-5.3-26.3-5.3-39.3
		c0-37,14.4-72.1,39.6-96.2c10.6-10.2,22.6-18,35.7-23.2c13.7-5.5,28.2-7.9,43.1-7.3l0,0l445,36.8l0,0c0.7,0.1,73,8.3,130.6,12.8
		c13.4,1,27.3,3.9,41.4,8.4c11.3,3.6,22.6,8.3,33.8,13.9c19.1,9.6,31.1,18.7,31.3,18.8l-1.3,1.8c-0.1-0.1-12.1-9.1-31-18.6
		c-17.4-8.7-44.4-19.7-74.3-22c-57.3-4.5-129.2-12.6-130.7-12.8l-444.9-36.8c-28.5-1.1-55.9,9.5-77.2,29.9
		c-24.7,23.8-38.9,58.3-38.9,94.6c0,53.2,29.7,105.1,72.2,126.2c0.9,0.4,1.8,0.8,2.7,1.2l10.9,3.9c11.4,3.6,72.4,11.8,112.8,17.2
		c8.3,1.1,16.2,2.2,22.5,3L395.3,457.4z"/>
	<path class="st9" d="M214.3,207.1c-12.2-11.3-24.5-25.3-36.4-41.7c-9.5-13.1-18.8-27.8-27.7-43.5c-15.1-26.9-23.7-48-23.8-48.2
		l3.9-1.6c0.1,0.2,8.7,21.2,23.6,47.8c13.8,24.5,35.9,59,63.2,84.2L214.3,207.1z"/>
	
		<rect x="122.8" y="251.7" transform="matrix(9.236293e-02 -0.9957 0.9957 9.236293e-02 -186.4304 395.7979)" class="st9" width="2.2" height="97"/>
	<rect x="138" y="316.7" transform="matrix(0.9942 -0.1076 0.1076 0.9942 -33.2894 18.6262)" class="st9" width="36" height="2.2"/>
	
		<rect x="73.3" y="323" transform="matrix(0.9942 -0.1076 0.1076 0.9942 -34.3036 12.4222)" class="st9" width="49.4" height="2.2"/>
	
		<rect x="81.2" y="381.2" transform="matrix(0.8836 -0.4682 0.4682 0.8836 -163.2046 108.0154)" class="st9" width="109" height="2.2"/>
	<path class="st2" d="M397.7,456.1l-2.2-0.3l14-113.7c0-0.3,0.2-1.2,1-1.9c1-0.8,2.4-1.2,4.4-1c4,0.4,104.6,10,105.6,10.1l-0.2,2.2
		c-1-0.1-101.6-9.7-105.6-10.1c-2.2-0.2-2.9,0.4-3,0.8v0.1l0,0L397.7,456.1z M411.7,342.3L411.7,342.3L411.7,342.3z"/>
	
		<rect x="544" y="414.4" transform="matrix(1.016630e-02 -0.9999 0.9999 1.016630e-02 123.1764 966.9758)" class="st9" width="12" height="13.8"/>
	
		<rect x="578.7" y="469.2" transform="matrix(0.8409 -0.5413 0.5413 0.8409 -163.1291 389.9165)" class="st9" width="5.5" height="6.3"/>
	<path class="st9" d="M573,444.2l-3.6-6.9l-4,2.1l-0.8-1.6l-7.6,4l2.8,5.3c-0.3,0.6-0.4,1.3-0.1,1.9c0.5,1,1.7,1.3,2.6,0.8l4.1-2.2
		l0,0L573,444.2z"/>
	
		<rect x="505.7" y="303.9" transform="matrix(0.1005 -0.9949 0.9949 0.1005 146.7613 784.8491)" class="st9" width="3.4" height="14.8"/>
	
		<rect x="502.3" y="337.5" transform="matrix(0.1005 -0.9949 0.9949 0.1005 110.2744 811.6871)" class="st9" width="3.4" height="14.8"/>
	<g>
		<path class="st3" d="M509.2,127.8l-0.8-1.5c-7.9-12.8-17.5-26.3-53.2-33.6c-35.7-7.3-62.4,29-62.4,29s15.3,5.7,26.8,6.1
			s17.2-1.4,26.8-3.8s22.3-12.9,22.3-12.9c2.4,5.4,7.5,11.3,10,14c1,1.1,2.1,2.1,3.3,3c4.6,3.4,17.2,11.7,30.4,11.7
			c16.7,0,24.8-5.9,24.8-5.9C527.8,126.4,509.2,127.8,509.2,127.8z M441.4,118.4c-13.3,3.5-23.5,3.7-35.3-0.6
			c0,0,24.6-22.5,50.1-17.2c6.8,1.4,8.9,3.1,8.9,3.1S458.4,114,441.4,118.4z"/>
	</g>
	<rect x="611.2" y="257.1" class="st9" width="8.2" height="13.7"/>
	<path class="st9" d="M862.5,182.5c-15-7.7-30.6-10-44.4-12c-1.6-0.2-3.1-0.5-4.6-0.7c-15.1-2.3-239.3-17.9-241.6-18
		c-3.3-0.2-80.9-5.8-85.2-6.7c-12.9-3-92.2-12.3-94-12.5l-165.4-11.7c-0.1,0-9.6-0.6-15.6,5c-3.2,3-4.8,7.3-4.8,12.7
		c0,20.1,7.9,24.8,16.7,28.3c9,3.5,59,10,67.1,10.3l-0.1,2.2c-4-0.1-19.2-1.9-33.2-3.9c-10.6-1.5-29.1-4.4-34.7-6.5
		c-4.3-1.7-9.2-4.1-12.7-8.8c-3.6-5-5.4-12-5.4-21.5c0-6.1,1.9-10.9,5.5-14.3c6.7-6.2,16.8-5.6,17.3-5.6l165.5,11.7l0,0
		c3.3,0.4,81.2,9.5,94.3,12.5c3.2,0.8,56.9,4.7,84.8,6.7c9.2,0.6,226.6,15.8,241.7,18c1.5,0.2,3.1,0.5,4.6,0.7
		c13.9,2,29.7,4.3,45.1,12.2L862.5,182.5z"/>
	<polygon class="st9" points="186.8,443.6 185.6,441.8 206.6,427.4 216,409.3 217.9,410.4 208.3,428.9 208,429 	"/>
	<path class="st9" d="M1351.2,295.5L1220,235.9l0,0c-17-8.6-28-7.4-39.7-5.1c-11.3,2.2-41.7,1.9-46.1,1.2
		c-3.7-0.6-15.2-3.6-19.9-4.9c-1.1-0.3-2.2-0.5-3.3-0.7c-27.1-4.1-68.9-18.3-82.7-23c-0.9-0.3-1.7-0.6-2.4-0.8
		c-10.7-3.6-113.1-45.3-117.4-47.1l0,0l-11.6-5.1c-0.4-0.2-10.6-5.4-19.3,9.2l0,0l-11.4,17.9c0,0-3,4.3-3,11
		c0,7.1,0.1,11.5,0.1,11.5l0,0l0,0c0,3.5-0.1,6.2-0.1,8.4c-0.1,7.6-0.1,8.5,1,18.5l-2.2,0.2c-1.1-10.1-1.1-11.1-1-18.8
		c0-2.1,0.1-4.8,0.1-8.3c0-0.4-0.2-4.7-0.1-11.6c0-7.3,3.1-11.8,3.4-12.2l11.4-17.8c5.1-8.5,10.8-10.8,14.7-11.2
		c4.1-0.4,7,1,7.4,1.2l11.5,5c1.7,0.7,106.7,43.4,117.3,47c0.7,0.2,1.5,0.5,2.4,0.8c13.7,4.7,55.4,18.9,82.3,22.9
		c1.2,0.2,2.4,0.4,3.6,0.7c3.7,1,16,4.3,19.7,4.9c4.3,0.7,34.2,0.9,45.4-1.2c12.1-2.3,23.5-3.6,41.1,5.3l131.2,59.6L1351.2,295.5z"
		/>
	<path class="st9" d="M1247.2,391l-2.2-0.2c0-0.2,1.7-22.9,2-26.4c0.3-3.8,2.5-5.5,2.9-5.8c10.2-8.4,25.8-21.3,27-22.9
		c0.6-0.9-1-3.1-2.1-4.6c-0.9-1.2-1.6-2.2-1.9-3.1c-0.5-1.4-0.4-1.8-0.3-4.1c0.1-1.9,0.4-5.6,0.5-12.8c0.3-15.4,16.6-42.6,17.3-43.7
		l1.9,1.1c-0.2,0.3-16.7,27.9-17,42.6c-0.2,7.3-0.4,10.9-0.5,12.9c-0.1,2.1-0.2,2.3,0.2,3.2c0.2,0.6,0.9,1.5,1.6,2.5
		c1.7,2.3,3.7,5.1,2.1,7.2c-1.8,2.3-24.8,21.2-27.4,23.3l-0.1,0.1c-0.1,0-1.7,1.2-1.9,4.1C1248.9,368.1,1247.2,390.8,1247.2,391z"/>
	
		<rect x="1274.8" y="476.4" transform="matrix(0.898 -0.44 0.44 0.898 -117.8267 618.8586)" class="st9" width="2.2" height="174.4"/>
	<path class="st9" d="M1144.7,281.4c0,0-1.1-11.8-1.7-19.2c-0.3-3,0.2-5.3,1.5-6.8c1.2-1.5,2.7-1.6,2.8-1.6l0,0h8.6v1.2h-8.6
		c-0.1,0-1.1,0.2-2,1.2c-1,1.2-1.4,3.3-1.2,5.9c0.7,7.4,1.7,19.2,1.7,19.2L1144.7,281.4z"/>
	
		<rect x="1285.4" y="482.7" transform="matrix(0.8958 -0.4445 0.4445 0.8958 -117.9554 631.4182)" class="st3" width="4.3" height="169.2"/>
	<circle class="st9" cx="1250" cy="491.7" r="2.2"/>
	<polyline class="st3" points="1324.3,636.5 1354.5,623.4 1363.6,639.2 1359.3,638.8 1357.2,641.2 1352.7,639.4 1351.1,641.2 
		1348.1,639.7 1346.6,641.9 1343.3,640.6 1340.7,643 1337.8,641.1 1335.6,643.8 1332.4,641.9 1331.1,643.8 1324.3,642.8 	"/>
	<path class="st5" d="M1307.7,554.6L1307.7,554.6c-8.1,4-18,0.7-22-7.4l-12.7-25.5c-4-8.1-0.7-18,7.4-22l0,0c8.1-4,18-0.7,22,7.4
		l12.7,25.5C1319.2,540.6,1315.8,550.6,1307.7,554.6z"/>
	<g>
		<polygon class="st3" points="355,349.4 364.8,326.1 346.4,318.4 344,324 356.8,329.3 351.7,341.4 339,336.1 336.7,341.7 		"/>
	</g>
	<g>
		<polygon class="st3" points="365.7,281.2 355.5,258.1 337.2,266.2 339.7,271.7 352.3,266.2 357.6,278.1 345,283.7 347.5,289.3 		
			"/>
	</g>
	<path class="st2" d="M349.1,303.8c0,34.4-26,62.3-58.1,62.3s-58.1-27.9-58.1-62.3s26-62.2,58.1-62.3
		C323,241.5,349.1,269.4,349.1,303.8z"/>
	<path class="st2" d="M232.9,303.8c0-34.4,26-62.3,58.1-62.3"/>
	<ellipse class="st9" cx="291" cy="303.8" rx="52.8" ry="56.6"/>
	<polygon class="st15" points="311.3,333.6 270.2,333.3 270,274.7 311.3,274.7 	"/>
	<rect x="272.7" y="278.2" class="st5" width="35.6" height="52"/>
	<path class="st2" d="M261.3,288.4"/>
	<rect x="270" y="295.7" class="st16" width="2.7" height="0.2"/>
	<rect x="270" y="311.4" class="st16" width="2.7" height="0.2"/>
	<rect x="308.4" y="295.7" class="st16" width="2.9" height="0.2"/>
	<rect x="308.4" y="303.8" class="st16" width="2.9" height="0.2"/>
	<rect x="308.4" y="285.1" class="st16" width="2.9" height="0.2"/>
	<rect x="270" y="285.1" class="st16" width="2.7" height="0.2"/>
	<rect x="270" y="322.2" class="st16" width="2.7" height="0.2"/>
	<rect x="308.4" y="322.2" class="st16" width="2.9" height="0.2"/>
	<rect x="308.4" y="311.4" class="st16" width="2.9" height="0.2"/>
	<rect x="270.5" y="302.2" class="st16" width="2.2" height="3.4"/>
	<path class="st2" d="M300.3,285.3h-19.5v-7.2h19.5V285.3z M281.1,285.1h19v-6.8h-19V285.1z"/>
	<path class="st2" d="M290.5,288.5c-1.8,0-3.2-1.4-3.2-3.2h0.2c0,1.6,1.3,3,3,3c1.6,0,3-1.3,3-3h0.2
		C293.7,287,292.3,288.5,290.5,288.5z"/>
	<path class="st2" d="M293.6,280.4h-6v-2.3h6V280.4z M287.8,280.2h5.5v-1.9h-5.5V280.2z"/>
	<path class="st2" d="M300.3,330.4h-19.5v-7.3h19.5V330.4z M281.1,330.1h19v-6.8h-19V330.1z"/>
	<path class="st2" d="M293.9,323.2h-0.2c0-1.6-1.3-3-3-3s-3,1.3-3,3h-0.2c0-1.8,1.4-3.2,3.2-3.2S293.9,321.4,293.9,323.2z"/>
	<path class="st2" d="M293.6,330.4h-6v-2.3h6V330.4z M287.8,330.1h5.5v-1.9h-5.5V330.1z"/>
	<rect x="272.7" y="303.7" class="st2" width="35.6" height="0.2"/>
	<path class="st2" d="M290.5,307.8c-2.2,0-4-1.8-4-4s1.8-4,4-4s4,1.8,4,4C294.5,306,292.7,307.8,290.5,307.8z M290.5,300.1
		c-2,0-3.7,1.7-3.7,3.7s1.7,3.7,3.7,3.7s3.7-1.7,3.7-3.7C294.2,301.7,292.6,300.1,290.5,300.1z"/>
	<rect x="278.2" y="330.3" class="st16" width="0.2" height="3.4"/>
	<rect x="302.7" y="330.3" class="st16" width="0.2" height="3.4"/>
	<rect x="290.5" y="330.3" class="st16" width="0.2" height="3.4"/>
	<rect x="278.2" y="274.7" class="st16" width="0.2" height="3.5"/>
	<rect x="302.7" y="274.7" class="st16" width="0.2" height="3.4"/>
	<rect x="290.5" y="274.7" class="st16" width="0.2" height="3.7"/>
	<path class="st17" d="M270.2,274.7h41v-13.9c0-3.4-2.8-6.2-6.2-6.2h-28.6c-3.4,0-6.2,2.8-6.2,6.2L270.2,274.7L270.2,274.7z"/>
	<path class="st17" d="M270.2,333.3v-58.6l0,0c-5.3,0-9.7,4.3-9.7,9.7v39.3C260.6,329,264.9,333.3,270.2,333.3L270.2,333.3z"/>
	<path class="st17" d="M311.3,274.9v58.6l0,0c5.3,0,9.7-4.3,9.7-9.7v-39.3C320.9,279.3,316.6,274.9,311.3,274.9L311.3,274.9z"/>
	<path class="st17" d="M311.3,333.3h-41v13.9c0,3.4,2.8,6.2,6.2,6.2h28.6c3.4,0,6.2-2.8,6.2-6.2V333.3z"/>
	<path class="st5" d="M378.1,393.4l16.1,15.8c0.6,0.6,1.4,0.8,2.2,0.7c0.6-0.1,1.2-0.5,1.5-1.4c0.6-2.2,2.7-16.5,2.7-16.5
		s0.6-2.6-2.2-2.8s-7.8-0.4-11.6-3.8c-2.6-2.3-4.9,0.6-4.9,0.6l-3.3,3.4C378.7,389.4,376.5,391.3,378.1,393.4z"/>
	<path class="st5" d="M400,360.4l1.7,0.6c1.3,0.4,2.1,1.6,2.2,2.9c0,0.8,0,1.8-0.2,3.1c-0.3,2.1-0.4,2.9-0.6,4.5
		c-0.8,5.8-1.3,13.3-1.3,13.3s0,2-2.3,1.9c-2.3,0-9.5-1-11.3-3.1c-1.7-2.1-1.8-3.4-0.8-4.9s9.6-16.3,9.6-16.3S398.3,359.8,400,360.4
		z"/>
	<path class="st5" d="M350.7,425.2l6.8-4.2c0,0,1.5-0.9,3.9,1.9c2.4,2.8,7,7.8,7,7.8s0.7,1.6-1,1.4c-1.7-0.2-13.1-1.6-13.1-1.6
		s-1.4-0.3-2-1.4c-0.7-1.1-1.6-2.7-1.6-2.7S350.1,425.5,350.7,425.2z"/>
	<path class="st5" d="M346.4,416.9l2.1,4.7c0,0,0.6,0.8,1.6,0.4c1-0.4,6.1-3.2,6.1-3.2s1.2-0.6,0.5-1.8s-2.9-4.2-2.9-4.2
		s-0.9-0.9-3,0.5C348.6,414.6,345.7,415.3,346.4,416.9z"/>
	<rect x="270.2" y="338.6" class="st18" width="41" height="0.5"/>
	<rect x="270.2" y="345.1" class="st18" width="41" height="0.5"/>
	<rect x="260.5" y="288.7" class="st18" width="9.8" height="0.5"/>
	<rect x="260.9" y="281" class="st18" width="9.3" height="0.5"/>
	<rect x="260.5" y="296.3" class="st18" width="9.8" height="0.5"/>
	<rect x="260.6" y="304.2" class="st18" width="9.7" height="0.5"/>
	<rect x="260.6" y="311.8" class="st18" width="9.7" height="0.5"/>
	<rect x="260.5" y="319.4" class="st18" width="9.8" height="0.5"/>
	<rect x="260.5" y="327" class="st18" width="9.8" height="0.5"/>
	<rect x="311.3" y="288.7" class="st18" width="9.7" height="0.5"/>
	<rect x="311.3" y="281" class="st18" width="9.1" height="0.5"/>
	<rect x="311.3" y="296.3" class="st18" width="9.8" height="0.5"/>
	<rect x="311.3" y="304.2" class="st18" width="9.7" height="0.5"/>
	<rect x="311.3" y="311.8" class="st18" width="9.7" height="0.5"/>
	<rect x="311.3" y="319.4" class="st18" width="9.7" height="0.5"/>
	<rect x="311.3" y="327" class="st18" width="9" height="0.5"/>
	<rect x="279.4" y="333.4" class="st18" width="0.5" height="20"/>
	<rect x="290.4" y="333.4" class="st18" width="0.5" height="20"/>
	<rect x="301" y="333.4" class="st18" width="0.5" height="20"/>
	<rect x="270.2" y="269" class="st18" width="41" height="0.5"/>
	<rect x="270.2" y="262.5" class="st18" width="41" height="0.5"/>
	<rect x="279.4" y="254.5" class="st18" width="0.5" height="20.2"/>
	<rect x="265.9" y="275.6" class="st18" width="0.5" height="56.8"/>
	<rect x="314.8" y="275.6" class="st18" width="0.5" height="56.8"/>
	<rect x="290.4" y="254.5" class="st18" width="0.5" height="20.2"/>
	<rect x="301" y="254.5" class="st18" width="0.5" height="20.2"/>
	<path class="st9" d="M148.7,459.9c-1.2,0-2.5-0.2-3.6-0.7c-2.5-1-4.5-2.9-5.6-5.4c-2.7-6.1-5-11.6-6.8-16.1
		c-4.1-10.2-14-9.7-14.4-9.7h-0.1H86.7v-2.2h31.4c0.4,0,3.2-0.1,6.5,1.1c3.2,1.2,7.6,3.9,10.1,10c1.8,4.5,4.1,10,6.8,16
		c0.9,1.9,2.4,3.4,4.4,4.2s4.2,0.7,6.1-0.2l19.6-8.8l0.9,2l-19.6,8.8C151.5,459.6,150.1,459.9,148.7,459.9z"/>
	<path class="st9" d="M97.3,428.1c-1.6,0-3.7-0.1-5.7-0.8c-3.3-1.1-3.5-4.8-3.2-6.6l2.2,0.4c0,0.1-0.6,3.3,1.7,4
		c3,1,6.8,0.6,6.9,0.6l0.2,2.2C99.3,428,98.5,428.1,97.3,428.1z"/>
	<circle class="st3" cx="97.2" cy="444.8" r="6.2"/>
	<circle class="st3" cx="97.2" cy="468.3" r="6.2"/>
	<rect x="89.4" y="427.1" class="st2" width="2.2" height="17.7"/>
	<rect x="103.1" y="427.1" class="st9" width="2.2" height="17.7"/>
	<path class="st9" d="M97.3,476.3c-4.4,0-8-3.6-8-8v-23.4c0-4.4,3.6-8,8-8s8,3.6,8,8v23.4C105.3,472.7,101.7,476.3,97.3,476.3z
		 M97.3,439c-3.2,0-5.8,2.6-5.8,5.8v23.4c0,3.2,2.6,5.8,5.8,5.8c3.2,0,5.8-2.6,5.8-5.8v-23.4C103.1,441.6,100.5,439,97.3,439z"/>
	<path class="st2" d="M209.7,202.8c0,0,2.9,3.8,0.1,6.8l1,0.6l2.5-4L209.7,202.8z"/>
	<path class="st2" d="M190.3,231.8c0,0,1.3,1.6,0,3.5l0.6,0.3l1.3-2.1L190.3,231.8z"/>
	<path class="st2" d="M193.9,229.5c0,0-1.2,1.4-2.9-0.1l-0.4,0.6l2,1.5L193.9,229.5z"/>
	<path class="st2" d="M219.7,200.8c0,0-4.3,2.4-6.8-0.8l-0.7,0.9l3.6,3L219.7,200.8z"/>
	<path class="st2" d="M170.8,305.5c0,0,1.8,0.7,1.6,3h0.9l-0.4-4L170.8,305.5z"/>
	<path class="st2" d="M170.8,303.4c0,0,1.7-0.6,1.5-2.9h0.9l-0.4,4L170.8,303.4z"/>
	<path class="st2" d="M171.2,317.3c0,0,1.5,0.6,2,3h0.5l-0.4-4L171.2,317.3z"/>
	<path class="st2" d="M180.8,359.6c0,0,1.8-0.3,3.1,2.1l0.4-0.1l-1.5-3.7L180.8,359.6z"/>
	<path class="st2" d="M180.5,357.3c0,0,1.4-1.2,0.3-3.8l0.4-0.3l1.9,3.5L180.5,357.3z"/>
	<path class="st2" d="M216.2,413.7c0,0,1.4-1.1,3.8,0.5l0.3-0.3l-3-2.6L216.2,413.7z"/>
	<path class="st2" d="M214.9,411.4c0,0,0.7-1.7-1.5-3.5l0.2-0.4l3.3,2.2L214.9,411.4z"/>
	<path class="st2" d="M171,315.2c0,0,1.7-0.6,1.5-2.9l0.9-0.1l-0.4,4L171,315.2z"/>
	<polygon class="st2" points="300.3,379.2 280.8,379.2 280.8,372.1 281.1,372.1 281.1,379 300.1,379 300.1,372.1 300.3,372.1 	"/>
	<path class="st2" d="M290.5,382.3c-1.8,0-3.2-1.4-3.2-3.2h0.2c0,1.6,1.3,3,3,3c1.6,0,3-1.3,3-3h0.2
		C293.7,380.9,292.3,382.3,290.5,382.3z"/>
	<polygon class="st2" points="293.6,374.3 287.6,374.3 287.6,372.1 287.8,372.1 287.8,374.1 293.3,374.1 293.3,372.1 293.6,372.1 	
		"/>
	<polygon class="st2" points="300.3,424.1 300.1,424.1 300.1,417.3 281.1,417.3 281.1,424.1 280.8,424.1 280.8,417 300.3,417 	"/>
	<path class="st2" d="M293.9,417.1h-0.2c0-1.6-1.3-3-3-3s-3,1.3-3,3h-0.2c0-1.8,1.4-3.2,3.2-3.2S293.9,415.3,293.9,417.1z"/>
	<polygon class="st2" points="293.6,424.2 293.3,424.2 293.3,422.2 287.8,422.2 287.8,424.2 287.6,424.2 287.6,421.9 293.6,421.9 	
		"/>
	<rect x="272.7" y="397.6" class="st2" width="35.6" height="0.2"/>
	<path class="st2" d="M290.5,401.6c-2.2,0-4-1.8-4-4s1.8-4,4-4s4,1.8,4,4S292.7,401.6,290.5,401.6z M290.5,394c-2,0-3.7,1.7-3.7,3.7
		s1.7,3.7,3.7,3.7s3.7-1.7,3.7-3.7S292.6,394,290.5,394z"/>
	<path class="st3" d="M351.5,313l7.4-0.3c0,0,1.2-11.3-0.2-19.2l-7.2,1.6C351.5,295.2,354.1,302.3,351.5,313z"/>
	<polygon class="st9" points="348.8,297.5 358.8,295.2 358.6,293.1 358,289.6 348,291.9 	"/>
	<polygon class="st9" points="348.7,310.5 358.8,312.7 358.6,314.9 358.3,317.2 358.1,318.4 348.1,316.1 	"/>
	<polygon class="st9" points="332.9,346.9 340.1,354.7 338.6,356.4 337.2,357.8 336.2,358.8 328.9,350.9 330.9,349.1 	"/>
	<polygon class="st9" points="322.4,356.2 326.9,366.1 324.7,367.5 323,368.4 321.9,369.1 317.5,359.2 319.8,357.9 	"/>
	<polygon class="st9" points="317.2,248.2 323.3,239.3 325.2,240.4 326.8,241.5 328,242.3 322,251.2 319.8,249.7 	"/>
	<polygon class="st9" points="328,255.8 336.4,249.1 338.2,251 339.5,252.2 340.5,253.3 332.1,259.8 330.3,257.9 	"/>
	<polygon class="st9" points="249,346.9 241.8,354.7 243.3,356.4 244.7,357.8 245.7,358.8 252.9,350.9 251,349.1 	"/>
	<polygon class="st9" points="259.5,356.2 255,366.1 257.2,367.5 258.9,368.4 259.9,369.1 264.4,359.2 262.1,357.9 	"/>
	<polygon class="st9" points="264.6,248.2 258.6,239.3 256.6,240.4 255,241.5 253.9,242.3 259.8,251.2 262.1,249.7 	"/>
	<polygon class="st9" points="283.9,242.1 281.7,231.3 279.3,231.7 277.6,232 276.1,232.3 278.3,243 281,242.5 	"/>
	<polygon class="st9" points="304.9,243.3 307.3,232.7 305,232.1 303.2,231.8 301.7,231.5 299.4,242.2 302.1,242.7 	"/>
	<polygon class="st9" points="253.9,255.8 245.4,249.1 243.6,251 242.4,252.2 241.4,253.3 249.8,259.8 251.6,257.9 	"/>
	<path class="st12" d="M223.2,256.1"/>
	<g>
		<path class="st3" d="M229.4,292.7l-7.2-1.5c3-14.3,7.9-23.3,14.6-26.7c5.2-2.7,9.5-0.9,9.9-0.7l-4.8,6.7c0,0-0.1,0,0,0
			c-0.1,0,0.2-0.5-2,0.7C237.4,272.6,232.6,277.3,229.4,292.7z"/>
	</g>
	<g>
		<path class="st3" d="M241.3,340c-1.9,0-5-0.5-8.3-2.8c-6.7-4.7-11-14.5-12.9-29.2l7.3-0.9c2,15.3,6.3,21.5,9.6,23.9
			c2.6,1.9,0.8,1.2,3.2,1.5c-2.1-0.2-0.8-0.1-0.8-0.1l3.9,7.4C243.1,339.9,242.4,340,241.3,340z"/>
	</g>
	<path class="st4" d="M233.3,343"/>
	<path class="st3" d="M256.3,401.5l-1.4,3.1l-7.1-3.6l-5.6,10.5c0,0-11.6-6.1-16.7-10.8l7.3-9.6l-3.6-2.7l-7.9,8.9
		c0,0-9.8-8.5-13.7-14.2l9.3-7.7c0,0-7.8-9.5-9.3-13.2l-10.5,6.1c0,0-8.1-15.1-8.6-17.6l11.1-4.6l-1.5-4.4l-11.3,3.9l-2.7-8.5
		l-1.6-6.6l-0.6-4l11.8-2.1l-1.2-8.4l-0.5-7.7l-12.1,0.3v-7.5l0.2-7.5l0.6-4.7l11.9,1.5l0.5-4.7l-11.7-1.9l0.9-5.1l1.9-8
		c0,0,1.6-6,1.8-6c0.1,0,11.5,3.6,11.5,3.6l3-8.3l3.1-6.6l-10.7-5.4l0.2-0.7l4.8-8.8l5.1-7.4l9.5,6.7l0.9-0.8l2-2.8l-1.3-1.2
		l-8.1-6.2l1.4-1.8l7-7.9l5-4.8l7.9,8.7l0.9-0.6l11.9-9.3l-6.3-9.9l6.1-3.8l11.2-5.5l4.7,10.7l2.6-0.7l1.7-1l-4-11l9.9-3l9.4-2.1
		l1.9,11.7l0.4,0.1l13.8-1.2l1.9,0.3l0.1-12.1l11.8,0.7l8.1,1.4l-2.3,11.9l4.4,1l1.1-4.1l1.9-7.7l7.8,2.2l11,4.4l-3.5,7.5l-1.4,3.6
		l7.4,3.7l-1.8,3.2c0,0-21.8-12.4-42.8-12.1s-38.5,3.6-59.1,19.8c-20.6,16.2-27.6,31.5-32.9,44.1s-8.9,35.1-7.8,46.3
		c0,0,1.6,26.3,9.9,40.9c2.3,4.1,3.5,7.4,5.1,10.1c4.1,6.9,6.7,10.8,13.2,17.8c9,9.7,18,15.6,19.1,16s8.5,5.5,11.9,6.5l1.5,0.7
		L256.3,401.5z"/>
	<g>
		
			<rect x="345.9" y="206.4" transform="matrix(0.6022 -0.7983 0.7983 0.6022 -33.5522 364.8217)" class="st3" width="6.8" height="19.4"/>
		
			<rect x="340.9" y="209.9" transform="matrix(0.6022 -0.7983 0.7983 0.6022 -33.3827 358.7337)" class="st3" width="4.7" height="5.9"/>
		
			<rect x="341.6" y="210.7" transform="matrix(0.6022 -0.7983 0.7983 0.6022 -33.3307 358.698)" class="st3" width="3.4" height="4.2"/>
	</g>
	<g>
		
			<rect x="361.6" y="221.1" transform="matrix(0.764 -0.6452 0.6452 0.764 -62.7834 289.9973)" class="st3" width="6.8" height="19.4"/>
		
			<rect x="357.6" y="223.4" transform="matrix(0.764 -0.6452 0.6452 0.764 -61.1174 285.6497)" class="st3" width="4.7" height="5.9"/>
		
			<rect x="358.2" y="224.2" transform="matrix(0.764 -0.6452 0.6452 0.764 -61.0706 285.637)" class="st3" width="3.4" height="4.2"/>
	</g>
	<g>
		
			<rect x="373.6" y="238.9" transform="matrix(0.8773 -0.4799 0.4799 0.8773 -73.0608 211.4389)" class="st3" width="6.8" height="19.4"/>
		
			<rect x="370.5" y="240.2" transform="matrix(0.8773 -0.4799 0.4799 0.8773 -70.9601 208.7784)" class="st3" width="4.7" height="5.9"/>
		
			<rect x="371.2" y="241.1" transform="matrix(0.8773 -0.4799 0.4799 0.8773 -70.9613 208.8134)" class="st3" width="3.4" height="4.2"/>
	</g>
	<g>
		
			<rect x="382.4" y="259.1" transform="matrix(0.9503 -0.3114 0.3114 0.9503 -64.5159 133.4919)" class="st3" width="6.8" height="19.4"/>
		
			<rect x="380.4" y="259.7" transform="matrix(0.9503 -0.3114 0.3114 0.9503 -62.7525 132.2312)" class="st3" width="4.7" height="5.9"/>
		
			<rect x="381" y="260.6" transform="matrix(0.9503 -0.3114 0.3114 0.9503 -62.7737 132.2244)" class="st3" width="3.4" height="4.2"/>
	</g>
	<g>
		
			<rect x="386.5" y="281.1" transform="matrix(0.9977 -6.724808e-02 6.724808e-02 0.9977 -18.6719 26.8806)" class="st3" width="6.8" height="19.4"/>
		
			<rect x="386.1" y="281.1" transform="matrix(0.9977 -6.724808e-02 6.724808e-02 0.9977 -18.2212 26.7675)" class="st3" width="4.7" height="5.9"/>
		
			<rect x="386.7" y="282" transform="matrix(0.9977 -6.724808e-02 6.724808e-02 0.9977 -18.2249 26.7645)" class="st3" width="3.4" height="4.2"/>
	</g>
	<g>
		
			<rect x="339.6" y="385.2" transform="matrix(0.7983 -0.6022 0.6022 0.7983 -163.5615 288.7515)" class="st3" width="19.4" height="6.8"/>
		
			<rect x="340.4" y="389.5" transform="matrix(0.7983 -0.6022 0.6022 0.7983 -166.7121 285.7716)" class="st3" width="5.9" height="4.7"/>
		
			<rect x="341.2" y="390.2" transform="matrix(0.7983 -0.6022 0.6022 0.7983 -166.7563 285.7798)" class="st3" width="4.2" height="3.4"/>
	</g>
	<g>
		
			<rect x="321.4" y="396.4" transform="matrix(0.9002 -0.4355 0.4355 0.9002 -141.0723 184.1096)" class="st3" width="19.4" height="6.8"/>
		
			<rect x="321.6" y="399.5" transform="matrix(0.9002 -0.4355 0.4355 0.9002 -142.6021 181.4564)" class="st3" width="5.9" height="4.7"/>
		
			<rect x="322.5" y="400.2" transform="matrix(0.9002 -0.4355 0.4355 0.9002 -142.6055 181.4878)" class="st3" width="4.2" height="3.4"/>
	</g>
	<g>
		
			<rect x="355.4" y="370.5" transform="matrix(0.6452 -0.764 0.764 0.6452 -156.1246 411.5682)" class="st3" width="19.4" height="6.8"/>
		
			<rect x="356.9" y="376.1" transform="matrix(0.6452 -0.764 0.764 0.6452 -161.4198 409.2212)" class="st3" width="5.9" height="4.7"/>
		
			<rect x="357.9" y="376.7" transform="matrix(0.6452 -0.764 0.764 0.6452 -161.3902 409.2729)" class="st3" width="4.2" height="3.4"/>
	</g>
	<g>
		
			<rect x="367.5" y="352.7" transform="matrix(0.4799 -0.8773 0.8773 0.4799 -116.2352 516.0795)" class="st3" width="19.4" height="6.8"/>
		
			<rect x="370" y="359.2" transform="matrix(0.4799 -0.8773 0.8773 0.4799 -123.2168 515.1761)" class="st3" width="5.9" height="4.7"/>
		
			<rect x="370.9" y="359.8" transform="matrix(0.4799 -0.8773 0.8773 0.4799 -123.164 515.2253)" class="st3" width="4.2" height="3.4"/>
	</g>
	<g>
		
			<rect x="376" y="332.5" transform="matrix(0.3114 -0.9503 0.9503 0.3114 -53.599 597.8927)" class="st3" width="19.4" height="6.8"/>
		
			<rect x="379.7" y="339.7" transform="matrix(0.3114 -0.9503 0.9503 0.3114 -61.557 599.2157)" class="st3" width="5.9" height="4.7"/>
		
			<rect x="380.6" y="340.3" transform="matrix(0.3114 -0.9503 0.9503 0.3114 -61.5191 599.142)" class="st3" width="4.2" height="3.4"/>
	</g>
	
		<rect x="356.8" y="222.3" transform="matrix(0.6944 -0.7196 0.7196 0.6944 -51.4717 325.235)" class="st19" width="0.7" height="1.8"/>
	
		<rect x="370.4" y="239.1" transform="matrix(0.8216 -0.5701 0.5701 0.8216 -70.686 254.1801)" class="st19" width="0.7" height="1.8"/>
	
		<rect x="380.4" y="257.8" transform="matrix(0.9224 -0.3863 0.3863 0.9224 -70.4876 167.1661)" class="st19" width="0.7" height="2.3"/>
	
		<rect x="387.3" y="278.6" transform="matrix(0.9904 -0.1384 0.1384 0.9904 -35.0074 56.34)" class="st19" width="0.7" height="2.6"/>
	
		<rect x="379.8" y="345.5" transform="matrix(0.3574 -0.9339 0.9339 0.3574 -78.1846 578.0421)" class="st19" width="2.3" height="0.7"/>
	
		<rect x="369.9" y="364.5" transform="matrix(0.5124 -0.8588 0.8588 0.5124 -132.4618 496.3907)" class="st19" width="2" height="0.7"/>
	
		<rect x="356" y="380.8" transform="matrix(0.7391 -0.6736 0.6736 0.7391 -163.5674 339.9331)" class="st19" width="2" height="0.7"/>
	
		<rect x="339.3" y="393.7" transform="matrix(0.87 -0.4931 0.4931 0.87 -150.0719 218.9447)" class="st19" width="1.7" height="0.7"/>
	<path class="st9" d="M743.7,161c-0.3-0.4-28.8-41.7-43.7-47.5c-8.1-3.1-23.2-3.2-37.9-3.3c-13.1,0-25.5-0.1-33.6-2.2
		c-16.9-4.3-41.2,0-41.5,0l0,0c-0.1,0-15.2,1.9-33.8-8.4l0.6-1.1c18.1,10,32.6,8.3,33.1,8.3c0.8-0.1,25-4.3,42,0
		c7.9,2,20.8,2.1,33.3,2.1c14.8,0.1,30.1,0.1,38.3,3.3c15.2,5.9,43.1,46.2,44.3,48L743.7,161z"/>
	<path class="st9" d="M700.8,113l-1.2-0.2c0.7-4.9-1.3-12.8-3.2-20.4c-2.6-10.2-4.8-19-1.1-21.3c5.4-3.3,5.3-6.8,5.3-6.8l1.2-0.1
		c0,0.2,0.3,4.2-5.9,8c-2.9,1.8-0.6,11,1.7,19.9C699.5,99.9,701.5,107.9,700.8,113z"/>
	<path class="st12" d="M233.4,289.6"/>
	<path class="st3" d="M463.9,214.7l-3.2-0.3c-2.3-9.5-8.5-16.4-15.9-16.4c-6.6,0-12.4,5.6-15.1,13.8l-3-0.3l-1.5,18.2l3.6,0.3
		c2.1,10.1,8.5,17.4,16.1,17.4c6.9,0,12.8-6.1,15.4-14.8l2.2,0.2L463.9,214.7z"/>
	<path class="st9" d="M143,147.5l-1.5-1.6c0.3-0.3,8.6-8.2,23.6-15.5c8.8-4.3,18.1-7.5,27.6-9.6c11.9-2.6,24.1-3.3,36.4-2.2
		l-0.2,2.2c-27.3-2.5-49.2,4.9-62.8,11.6C151.4,139.6,143.1,147.4,143,147.5z"/>
	<path class="st3" d="M188.3,564.1c0-0.5-1-46.5-8.1-93.3c-5.2-34.2-18.9-63-30.9-88.5c-4.5-9.5-8.7-18.4-12.3-27.1
		c-14.1-34.3-17.6-63.2-19.2-87c-1.6-24,3.4-65.9,16-96.1c7.9-19,16.9-36.3,26.7-51.6c7.9-12.3,16.4-23.3,25.3-32.6
		c15.3-16.2,26.4-22,26.8-22.3l4.2,8.1l-2.1-4l2.1,4c-0.1,0.1-10.5,5.6-24.8,20.9c-13.2,14.1-32.6,39.6-49.8,81
		c-11.6,27.9-16.9,68.7-15.3,92c1.6,24.2,5,51.1,18.6,84.2c3.5,8.5,7.7,17.3,12.1,26.7c12.3,26,26.3,55.5,31.7,91
		c7.2,47.4,8.2,94,8.2,94.5L188.3,564.1z"/>
	<path class="st9" d="M192,564c0-0.5-1-46.7-8.1-93.8c-5.3-34.8-19.1-63.8-31.2-89.5c-4.5-9.4-8.7-18.3-12.2-26.9
		c-13.8-33.7-17.3-61.2-19-85.9c-0.8-12,0.1-28.4,2.6-44.7c2-13.1,5.9-32.3,13.1-49.7c7.8-18.7,16.7-35.9,26.4-51
		c7.8-12.1,16.2-22.9,24.9-32.1c14.9-15.7,25.4-21.3,25.8-21.5l0.8,1.5c-0.1,0.1-10.8,5.7-25.5,21.3c-13.6,14.4-33.4,40.3-50.9,82.5
		c-12.2,29.5-17.2,70.3-15.6,93.7c1.7,24.5,5.1,51.8,18.8,85.3c3.5,8.6,7.7,17.4,12.2,26.9c12.2,25.8,26.1,55,31.4,90
		c7.2,47.2,8.1,93.5,8.1,94L192,564z"/>
	<path class="st9" d="M208.2,130.8l-2.2-0.3c0,0,0.6-4.3-1.7-6.8c-1.3-1.4-3.4-2-6.1-1.8l-0.2-2.2c3.5-0.3,6.1,0.5,8,2.5
		C209,125.5,208.3,130.6,208.2,130.8z"/>
	<path class="st9" d="M352.3,266.2l-11.7,5.2c0,0,2.3,4.4,3.9,8.2c0.6,1.4,1.2,2.8,1.4,3.8c0,0,11.8-4.9,11.7-5.2
		C357.5,277.9,352.3,266.2,352.3,266.2z"/>
	<path class="st9" d="M356.8,329.3l-11-4.6c0,0-1.4,4-3.2,7.7c-0.7,1.4-1.6,3.4-2.2,4.2c0,0,11.2,5,11.3,4.7
		C351.8,341.2,356.8,329.3,356.8,329.3z"/>
	<g>
		<circle class="st20" cx="1184.7" cy="359.1" r="13.6"/>
		<path class="st2" d="M1182.2,365.5c0,0-4.1-2.5-4.1-5.8c0-2.7,0.8-4,2-4.9c0,0,0.5-0.4,0.7-0.4c0,0,0.3,0,0.5,0.6
			c0.2,0.8,3.2,10.4,3.2,10.4l3.2-10.4c0,0,0.2-0.6,0.6-0.6c0.3,0,0.9,0.2,1.3,0.7c0.3,0.4,1.3,1.4,1.3,4.5c0,3.7-4.1,5.8-4.2,5.8
			l0,0h3.7c0,0,2.1-2.4,2.1-5.5c0,0,0.2-5.5-5.3-7.7l-2.6,9c0,0,0,0-0.1,0s-0.1,0-0.1,0l-2.7-9c0,0-5.3,1.8-5.3,7.7
			c0,0-0.1,3.3,2.1,5.5h3.7V365.5z"/>
	</g>
	<g>
		<circle class="st20" cx="198.1" cy="210.1" r="5.5"/>
		<g>
			<path class="st2" d="M200.5,209.2c0,0.7-0.1,1.2-0.4,1.4c-0.2,0.2-0.5,0.2-0.8,0.2h-2.4v1.8h-1v-4.3c0-0.3,0.1-0.5,0.2-0.6
				s0.3-0.2,0.6-0.2h2.4c0.5,0,0.8,0.1,1,0.3C200.4,208.1,200.5,208.5,200.5,209.2z M199.5,209.2c0-0.3-0.1-0.6-0.2-0.7
				s-0.3-0.2-0.6-0.2h-1.5c-0.1,0-0.2,0-0.2,0.1c0,0-0.1,0.1-0.1,0.2v1.5h1.8c0.3,0,0.5-0.1,0.6-0.2
				C199.5,209.8,199.5,209.5,199.5,209.2z"/>
		</g>
	</g>
	<g>
		<circle class="st20" cx="145.7" cy="247.2" r="5.5"/>
		<g>
			<path class="st2" d="M148.1,246.3c0,0.7-0.1,1.2-0.4,1.4c-0.2,0.2-0.5,0.2-0.8,0.2h-2.4v1.8h-1v-4.3c0-0.3,0.1-0.5,0.2-0.6
				s0.3-0.2,0.6-0.2h2.4c0.5,0,0.8,0.1,1,0.3C147.9,245.2,148.1,245.6,148.1,246.3z M147.1,246.3c0-0.3-0.1-0.6-0.2-0.7
				s-0.3-0.2-0.6-0.2h-1.5c-0.1,0-0.2,0-0.2,0.1c0,0-0.1,0.1-0.1,0.2v1.5h1.8c0.3,0,0.5-0.1,0.6-0.2
				C147,246.8,147.1,246.6,147.1,246.3z"/>
		</g>
	</g>
	<g>
		<circle class="st20" cx="94.3" cy="278.2" r="5.5"/>
		<g>
			<path class="st2" d="M96.7,277.3c0,0.7-0.1,1.2-0.4,1.4c-0.2,0.2-0.5,0.2-0.8,0.2h-2.4v1.8h-1v-4.3c0-0.3,0.1-0.5,0.2-0.6
				s0.3-0.2,0.6-0.2h2.4c0.5,0,0.8,0.1,1,0.3C96.6,276.2,96.7,276.6,96.7,277.3z M95.7,277.3c0-0.3-0.1-0.6-0.2-0.7
				s-0.3-0.2-0.6-0.2h-1.5c-0.1,0-0.2,0-0.2,0.1c0,0-0.1,0.1-0.1,0.2v1.5h1.8c0.3,0,0.5-0.1,0.6-0.2S95.7,277.6,95.7,277.3z"/>
		</g>
	</g>
	<g>
		<circle class="st20" cx="237.3" cy="221.2" r="5.5"/>
		<g>
			<path class="st2" d="M239.7,220.3c0,0.7-0.1,1.2-0.4,1.4c-0.2,0.2-0.5,0.2-0.8,0.2h-2.4v1.8h-1v-4.3c0-0.3,0.1-0.5,0.2-0.6
				s0.3-0.2,0.6-0.2h2.4c0.5,0,0.8,0.1,1,0.3C239.5,219.2,239.7,219.6,239.7,220.3z M238.7,220.3c0-0.3-0.1-0.6-0.2-0.7
				s-0.3-0.2-0.6-0.2h-1.5c-0.1,0-0.2,0-0.2,0.1c0,0-0.1,0.1-0.1,0.2v1.5h1.8c0.3,0,0.5-0.1,0.6-0.2S238.7,220.6,238.7,220.3z"/>
		</g>
	</g>
	<g>
		<circle class="st20" cx="200.2" cy="305.6" r="5.5"/>
		<g>
			<path class="st2" d="M202.7,304.7c0,0.7-0.1,1.2-0.4,1.4c-0.2,0.2-0.5,0.2-0.8,0.2h-2.4v1.8h-1v-4.3c0-0.3,0.1-0.5,0.2-0.6
				s0.3-0.2,0.6-0.2h2.4c0.5,0,0.8,0.1,1,0.3C202.5,303.6,202.7,304,202.7,304.7z M201.7,304.7c0-0.3-0.1-0.6-0.2-0.7
				s-0.3-0.2-0.6-0.2h-1.5c-0.1,0-0.2,0-0.2,0.1c0,0-0.1,0.1-0.1,0.2v1.5h1.8c0.3,0,0.5-0.1,0.6-0.2
				C201.6,305.2,201.7,305,201.7,304.7z"/>
		</g>
	</g>
	<g>
		<circle class="st20" cx="247.6" cy="390.9" r="5.5"/>
		<g>
			<path class="st2" d="M250,390c0,0.7-0.1,1.2-0.4,1.4c-0.2,0.2-0.5,0.2-0.8,0.2h-2.4v1.8h-1v-4.3c0-0.3,0.1-0.5,0.2-0.6
				s0.3-0.2,0.6-0.2h2.4c0.5,0,0.8,0.1,1,0.3C249.9,388.9,250,389.3,250,390z M249.1,390c0-0.3-0.1-0.6-0.2-0.7
				c-0.1-0.1-0.3-0.2-0.6-0.2h-1.5c-0.1,0-0.2,0-0.2,0.1s-0.1,0.1-0.1,0.2v1.5h1.8c0.3,0,0.5-0.1,0.6-0.2S249.1,390.3,249.1,390z"/>
		</g>
	</g>
	<g>
		<circle class="st20" cx="469.4" cy="383" r="5.5"/>
		<g>
			<path class="st2" d="M471.8,382.1c0,0.7-0.1,1.2-0.4,1.4c-0.2,0.2-0.5,0.2-0.8,0.2h-2.4v1.8h-1v-4.3c0-0.3,0.1-0.5,0.2-0.6
				c0.1-0.1,0.3-0.2,0.6-0.2h2.4c0.5,0,0.8,0.1,1,0.3C471.7,381,471.8,381.4,471.8,382.1z M470.8,382.1c0-0.3-0.1-0.6-0.2-0.7
				s-0.3-0.2-0.6-0.2h-1.5c-0.1,0-0.2,0-0.2,0.1c0,0-0.1,0.1-0.1,0.2v1.5h1.8c0.3,0,0.5-0.1,0.6-0.2
				C470.8,382.7,470.8,382.4,470.8,382.1z"/>
		</g>
	</g>
	<path class="st21" d="M420.3,319.5"/>
	<path class="st21" d="M411.7,318.9"/>
</g>
<g id="line2">
	<path class="st22" d="M782.9,335.9l-7.5-0.4c-1.6-0.1-3.1,0.5-4.3,1.5l-5.6,5c-1.2,1.1-1.9,2.6-2,4.1l-0.4,7.5
		c-0.1,1.6,0.5,3.1,1.5,4.3l5,5.6c1.1,1.2,2.6,1.9,4.1,2l7.5,0.4c1.6,0.1,3.1-0.5,4.3-1.5l5.6-5c1.2-1.1,1.9-2.6,2-4.1l0.4-7.5
		c0.1-1.6-0.5-3.1-1.5-4.3l-5-5.6C786,336.7,784.5,336,782.9,335.9z"/>
	<path class="st23" d="M793.3,351.6l374.2,34.7c7.7,0.7,9.8-5.7,15.8-15.7"/>
	<polyline class="st23" points="763.4,349.8 519.3,328.4 406.3,318.6 	"/>
	<circle class="st20" cx="406.3" cy="318.6" r="5"/>
</g>
<g id="line3">
	<circle class="st20" cx="351.8" cy="404.1" r="5"/>
	<path class="st23" d="M1184.3,368.6c-10,18-13.5,21.4-13,27.7l8.5,91c0.3,3-1.8,5.7-4.8,6.1L877.6,535c-2.4,0.3-4.7,0.6-7.1,0.8
		l-41.8,3.3c-4.2,0.3-8.5,0.5-12.8,0.4l-37.7-0.7c-7.8-0.1-15.3-2.4-21.8-6.6l-18.6-12c-12.6-8.2-27.4-12.4-42.5-12.2l-20.8,0.3
		c-12,0.2-24-1.8-35.3-5.8l-52.3-18.4c-10.3-3.6-21.2-5.2-32.2-4.6l-23.2,1.3c-10.1,0.6-20.3-0.3-30.2-2.4l-87.7-19.3
		c-11.7-2.6-22.2-8.9-30-18l-31.3-36.6"/>
</g>
<g id="line1">
	<circle class="st20" cx="375.8" cy="219.1" r="5"/>
	<path class="st23" d="M1178.3,350.6c-5.6-5.9-12.4-17.4-13.1-25.5l-3.4-38.1c-0.3-3.1-2.8-5.5-5.9-5.7l-173.5-11
		c-6.7-0.4-13.2-2.8-18.6-6.8C949.5,253,915,232,862.3,227.6l-438.6-39c-3.9-0.3-7.7,0.7-10.9,3l-37.5,27"/>
</g>
</svg>
