<?xml version="1.0" encoding="utf-8"?>
<!-- Generator: Adobe Illustrator 21.0.2, SVG Export Plug-In . SVG Version: 6.00 Build 0)  -->
<svg version="1.1" id="Layer_1" xmlns="http://www.w3.org/2000/svg" xmlns:xlink="http://www.w3.org/1999/xlink" x="0px" y="0px"
	 viewBox="0 0 1272 1190" style="enable-background:new 0 0 1272 1190;" xml:space="preserve">
<style type="text/css">
	.st0{fill:#885BA6;}
	.st1{fill:#0093D5;}
	.st2{fill:#00AA4F;}
	.st3{fill:#EE2729;}
	.st4{fill:#FFFFFF;}
	.st5{fill:none;}
	.st6{opacity:0.5;fill:#D5D4D4;}
	.st7{opacity:0.4;fill:#D5D4D4;}
	.st8{fill:#9CC54C;}
	.st9{fill:none;stroke:#FFFFFF;stroke-miterlimit:10;}
	.st10{fill:none;stroke:#010101;stroke-width:2;stroke-miterlimit:10;}
	.st11{fill:#E4E8EC;}
	.st12{fill:#010101;}
	.st13{opacity:0.3;}
	.st14{opacity:0.2;}
	.st15{opacity:0.3;fill:#010101;}
	.st16{fill:#D5D4D4;}
	.st17{fill:none;stroke:#010101;stroke-miterlimit:10;}
	.st18{fill:#E3E3E3;}
	.st19{fill:#D3D3D3;}
	.st20{fill:none;stroke:#010101;stroke-width:0.75;stroke-miterlimit:10;}
	.st21{fill:#EAEAEA;}
	.st22{fill:#E8ECF0;}
	.st23{opacity:0.3;fill:none;stroke:#4D4D4D;stroke-miterlimit:10;}
	.st24{opacity:0.3;fill:#595A5A;}
</style>
<g id="f-6">
	<path class="st0" d="M693,1022h57.8v24.8c0,4.3-3.5,7.8-7.8,7.8l-38.8,5c-3.8,0.5-7.3-2.3-7.8-6.1L693,1022z"/>
	<path class="st0" d="M580.5,1022h-66.8v24.8c0,4.3,3.5,7.8,7.8,7.8l47.8,5c3.8,0.5,7.3-2.3,7.8-6.1L580.5,1022z"/>
	<path class="st0" d="M688,168.1h66.8v-24.8c0-4.3-3.5-7.8-7.8-7.8l-47.8-5c-3.8-0.5-7.3,2.3-7.8,6.1L688,168.1z"/>
	<path class="st0" d="M582.2,168.1h-68.8v-24.8c0-4.3,3.5-7.8,7.8-7.8l49.8-5c3.8-0.5,7.3,2.3,7.8,6.1L582.2,168.1z"/>
</g>
<g id="b-6">
	<path class="st1" d="M1108,481.7h11.8c4.9,0,8.8,4,8.8,8.8v44c0,4.9-4,8.8-8.8,8.8H1108V481.7z"/>
	<path class="st1" d="M1095.6,389.3c11.4,39.8,11.5,82.1,11.5,82.1h11.1c5.2,0,9.3-4.5,8.8-9.7c-1.3-15-5.4-50.9-10.8-68.8
		c-1.4-4.8-6.4-7.6-11.2-6.3L1095.6,389.3z"/>
	<path class="st1" d="M1097.1,801.1c11.4-39.8,11.5-82.1,11.5-82.1h11.1c5.2,0,9.3,4.5,8.8,9.7c-1.3,15-5.4,50.9-10.8,68.8
		c-1.4,4.8-6.4,7.6-11.2,6.3L1097.1,801.1z"/>
	
		<rect x="1108" y="552.5" transform="matrix(-1 -1.224647e-16 1.224647e-16 -1 2236.748 1194.3479)" class="st1" width="20.7" height="89.2"/>
	<path class="st1" d="M1108.1,651.7h11.8c4.9,0,8.8,4,8.8,8.8v41c0,4.9-4,8.8-8.8,8.8h-11.8V651.7z"/>
	<path class="st1" d="M926.6,982.7l5.9,11.4c2.1,4.2,7.2,5.8,11.4,3.6l51.9-26.8c4.2-2.1,5.8-7.2,3.6-11.4l-5.9-11.4
		C993.6,948.1,956.3,972.4,926.6,982.7z"/>
	<path class="st1" d="M926.6,208.9l5.9-11.4c2.1-4.2,7.2-5.8,11.4-3.6l51.9,26.8c4.2,2.1,5.8,7.2,3.6,11.4l-5.9,11.4
		C993.6,243.4,956.3,219.1,926.6,208.9z"/>
	
		<rect x="765.9" y="173.2" transform="matrix(-1 -1.224647e-16 1.224647e-16 -1 1590.777 365.3493)" class="st1" width="59" height="19"/>
	
		<rect x="687.2" y="173.2" transform="matrix(-1 -1.224647e-16 1.224647e-16 -1 1442.183 365.3493)" class="st1" width="67.8" height="19"/>
	<path class="st1" d="M601.9,173.2h63.5c5.5,0,10,4.5,10,10v9h-83.5v-9C591.9,177.7,596.4,173.2,601.9,173.2z"/>
	
		<rect x="765.9" y="995.7" transform="matrix(-1 -1.224647e-16 1.224647e-16 -1 1590.777 2010.4246)" class="st1" width="59" height="19"/>
	
		<rect x="693" y="995.7" transform="matrix(-1 -1.224647e-16 1.224647e-16 -1 1443.8218 2010.4246)" class="st1" width="57.8" height="19"/>
	<path class="st1" d="M161.3,481.7h-11.8c-4.9,0-8.8,4-8.8,8.8v44c0,4.9,4,8.8,8.8,8.8h11.8V481.7z"/>
	<path class="st1" d="M171.7,393.3c-11.4,39.8-10.5,79.1-10.5,79.1h-11.1c-5.2,0-9.3-4.5-8.8-9.7c1.3-15,4.4-47.9,9.8-65.8
		c1.4-4.8,6.4-7.6,11.2-6.3L171.7,393.3z"/>
	<path class="st1" d="M173,801.9c-11.4-39.8-11.5-81.1-11.5-81.1h-11.1c-5.2,0-9.3,4.5-8.8,9.7c1.3,15,5.4,49.9,10.8,67.8
		c1.4,4.8,6.4,7.6,11.2,6.3L173,801.9z"/>
	<rect x="140.6" y="553.3" class="st1" width="20.7" height="88.2"/>
	<path class="st1" d="M161.3,651.7h-11.8c-4.9,0-8.8,4-8.8,8.8v44c0,4.9,4,8.8,8.8,8.8h11.8V651.7z"/>
	<path class="st1" d="M344.5,982.7l-5.9,11.4c-2.1,4.2-7.2,5.8-11.4,3.6l-51.6-25.4c-4.2-2.1-5.8-7.2-3.6-11.4l5.9-11.4
		C277.8,949.5,314.8,972.4,344.5,982.7z"/>
	<path class="st1" d="M342.7,208.9l-5.9-11.4c-2.1-4.2-7.2-5.8-11.4-3.6l-51.9,26.8c-4.2,2.1-5.8,7.2-3.6,11.4l5.9,11.4
		C275.7,243.4,313,219.1,342.7,208.9z"/>
	<rect x="444.3" y="173.2" class="st1" width="59.1" height="19"/>
	<rect x="513.6" y="173.2" class="st1" width="68.7" height="19"/>
	<rect x="444.4" y="995.7" class="st1" width="60.7" height="19"/>
	<rect x="514.6" y="995.7" class="st1" width="68.1" height="19"/>
	<path class="st1" d="M605.9,1014.7h63.5c5.5,0,10-4.5,10-10v-9h-83.5v9C595.9,1010.2,600.4,1014.7,605.9,1014.7z"/>
</g>
<g id="g-6">
	<polygon class="st2" points="1162.6,723 1190.8,723 1190.8,695.9 1166.9,695.9 	"/>
	<path class="st2" d="M834.6,995.7c0,0,21.8,0.1,33-1.1l1.2,17.7c0,0-27,2.6-34.2,2.4V995.7z"/>
	<path class="st2" d="M833.3,192c0,0,21.8-0.1,33,1.1l1.2-17.7c0,0-27-2.6-34.2-2.5L833.3,192z"/>
	<g>
		<polygon class="st2" points="84.2,726.5 103.7,727 98,701.3 77.8,701.3 77.8,721.2 84.2,721.2 		"/>
	</g>
</g>
<g id="r-6">
	<polygon class="st3" points="1202.6,723 1208.1,695.9 1191.7,695.9 1191.7,723 	"/>
	<path class="st3" d="M433.5,192.4c0,0-21.8,0.8-32.9,2.5l-1.9-17.6c0,0,26.9-3.7,34.1-3.9L433.5,192.4z"/>
	<path class="st3" d="M435.3,995.7c0,0-21.8,0.1-33-1.1l-1.2,17.7c0,0,27,2.6,34.2,2.4V995.7z"/>
	<polygon class="st3" points="69.5,462.3 89.7,462.3 89.7,493.4 63.5,493.4 	"/>
	<polygon class="st3" points="1170.4,368.9 1144.6,374.1 1148.3,390.8 1180,384.4 	"/>
</g>
<g id="base-6_1_">
	<polygon class="st4" points="404.7,943.8 403.3,953.4 402.3,960.6 403.3,953.6 	"/>
	<polygon class="st4" points="635.4,922 635.9,922 635.9,922 633.9,922 633.9,922 634.9,922 	"/>
	<polygon class="st4" points="555.9,922 555.9,922 553.9,922 553.9,922 554.9,922 	"/>
	<path class="st5" d="M1035.9,679v-81h65.5v-2h-65.5v-81h65.5v-2h-65.5v-44.1c0-7.9-0.7-15.8-1.6-23.5l65.3-8.8
		c-0.1-0.7-0.1-1.3-0.2-2l-65.5,8.8l0.1,1l0,0c-2.8-22.5-9.4-43.8-19-63.3l59-30.5c-0.3-0.6-0.6-1.2-0.9-1.8l-59.1,30.5
		c-9.2-18.1-21.1-34.5-35.2-48.8l38.3-39.8c2.9,3.1,5,5.7,5,5.7l11.5-5.1c-5.4-6-11.1-11.8-17.1-17.3l-7.2,9.6l0,0l-0.1,0.1l6.4,5.6
		l-38.3,39.8c-14.5-14.4-31.1-26.6-49.5-36c-0.2-0.1-0.3-0.2-0.5-0.3c0,0,0,0,0,0l0,0l0,0v0l0.4,0.2l30.1-60.3
		c-0.6-0.3-1.2-0.6-1.8-0.9L926,292.1c-19.3-9.8-39-15.8-61.3-18.8l9.9-67.1c-0.7-0.1-1.4-0.2-2.1-0.3l-9.7,66.9
		c-8.1-1-16.3-1.8-24.7-1.8h-41.1v-67.5h-2V271h-78h-81h-79h-85v-67.5h-2V271h-36.1c-8.2,0-16.4,0.7-24.3,1.7l-10.1-67.1
		c-0.7,0.1-1.3,0.2-2,0.3l10.1,67.4c-22.2,2.9-43.2,9.6-62.4,19.2L315,231.2c-0.5,0.2-0.9,0.5-1.4,0.7l30.1,61.3
		c-18.3,9.4-35,21.6-49.5,36.1l-39.5-40c3.5-3.3,7-6,7-6l-7.7-10.2c-6.1,5.6-12,11.6-17.6,17.7l12.5,5.6c0.8-1.7,2.5-3.8,4.4-5.7
		l39.5,40c-14.1,14.4-26,30.9-35.2,49l-60.9-31.2c-0.3,0.6-0.6,1.2-0.9,1.8l60.9,31.2c-9.5,19.2-15.9,40.1-18.8,62.1l-67.7-9.1
		c-0.1,0.7-0.1,1.3-0.2,2l67.9,9.1c-0.9,7.6-1.1,15.4-1.1,23.3V513h-68.7v2h68.7v81h-68.7v2.3l68.7-0.3v81h-68.7v2h68.7v44.1
		c0,7.9,0.3,15.6,1.2,23.2l0,0l-0.1-1l-67.9,9.8c0.1,0.7,0.1,1.3,0.2,2l67.6-9.8c2.7,22.4,9.2,43.5,18.8,62.9l0,0l-0.2-0.3
		c-16.6,8.6-40.1,20.7-60.8,31.4c0.3,0.6,0.6,1.2,0.9,1.8c2.5-1.3,5-2.6,7.6-3.9c26.5-13.7,53-27.4,53.2-27.5
		c9.3,18.5,20.7,34.6,35.1,49.2l-38,39.7l-5.7-5.2l-12.5,5.5c5.6,6.2,11.4,12.1,17.6,17.7l7.7-10.3l-6.7-6.7l0.7,0.7l38.4-40
		c14.3,14.4,30.9,26.6,49.1,36L313.3,962c0.6,0.3,1.2,0.6,1.8,0.9l29.7-61.5c19.4,9.8,39.7,16.4,62.1,19.3l0,0.1l-9.5,67.4
		c0.7,0.1,1.3,0.2,2,0.3l9.5-67.4l0-0.4c8.5,1.1,16.1,1.3,24.9,1.3h35.1v68.5h2V922h83v68.5h2V922h78v68.5h2V922h87.8l0.1,68.5h2
		l-0.1-68.5h72.2v68.5h2V922H838c8.3,0,16.1-0.1,24.1-1.1l0,0.2l9.4,67.2c0.7-0.1,1.3-0.2,2-0.3l-9.4-67.2c22.5-3,43-9.3,62.4-19.2
		l29.7,60.4c0.6-0.3,1.2-0.6,1.8-0.9l-29.7-60.4c18.3-9.4,34.3-21.1,48.7-35.5l38.8,39.2l-6.4,6.7l6.9,9.1
		c6.1-5.6,11.9-11.5,17.4-17.7l-11.3-5.1l-5.2,5.4l-38.7-39.2c14.6-14.8,26.4-30.9,35.7-49.6c0,0,26.4,13.7,52.9,27.3
		c2.1,1.1,4.1,2.1,6.2,3.2c0.3-0.6,0.6-1.2,0.9-1.8c-20.2-10.4-42.9-22.2-59-30.5c9.6-18.7,15.6-37.6,18.9-62.2l65.3,8.7
		c0-0.4,0.1-0.7,0.1-1.1l-65.3-8.9l65.3,8.7c0-0.2,0.1-0.5,0.1-0.7l-65.3-8.7c0.9-7.6,1.6-15.2,1.6-23V681 M977.8,329.5l0.5,0.5l0,0
		C978.1,329.8,978,329.7,977.8,329.5L977.8,329.5z"/>
	<rect x="470.9" y="922" class="st4" width="84" height="68.5"/>
	<polygon class="st4" points="635.9,922 635.9,990.5 724.8,990.5 724.7,922 	"/>
	<polygon class="st4" points="725.8,922 725.8,990.5 799,990.5 799,922 	"/>
	<path class="st4" d="M863.1,920.8c-8,1-16.8,1.2-25.1,1.2h-38.1v68.5h36.8c11.8,0,24.3-0.8,35.8-2.3l-9.2-66.1L863.1,920.8z"/>
	<path class="st4" d="M433.8,922c-8.8,0-16.9-0.3-25.3-1.4l0,0.4l-9.6,67.4c11,1.4,22.7,2.1,34.1,2.1h36.9V922H433.8z"/>
	<rect x="555.9" y="922" class="st4" width="78.9" height="68.5"/>
	<path class="st4" d="M407.5,920.6c-22.4-2.9-43.8-9.7-63.2-19.5l-29.5,61.7c25.4,12.7,53.8,21.4,83.1,25.3L407.5,920.6L407.5,920.6
		z"/>
	<polygon class="st6" points="199.7,439.4 206.6,440.4 216.2,441.7 206.8,440.4 	"/>
	<polygon class="st7" points="199.7,439.4 206.6,440.4 216.2,441.7 206.8,440.4 	"/>
	
		<rect x="386.4" y="429.5" transform="matrix(-1 -1.224647e-16 1.224647e-16 -1 1272.8398 1190.9706)" class="st8" width="500" height="332"/>
	
		<rect x="396.8" y="440.4" transform="matrix(-1 -1.224647e-16 1.224647e-16 -1 1272.5643 1191.9706)" class="st9" width="479" height="311.1"/>
	<line class="st9" x1="635.2" y1="751" x2="635.2" y2="441"/>
	
		<rect x="800.4" y="503.9" transform="matrix(-1 -1.224647e-16 1.224647e-16 -1 1676.24 1193.0471)" class="st9" width="75.4" height="185.2"/>
	<polyline class="st9" points="876.3,638.5 851,638.5 851,554.5 876.3,554.5 	"/>
	<circle class="st9" cx="635.8" cy="596.7" r="41.6"/>
	<path class="st9" d="M800.8,630.5c-10.5-7.5-17.4-19.9-17.4-33.8c0-13.9,6.8-26.2,17.3-33.8"/>
	<rect x="396.8" y="505" class="st9" width="75.4" height="185.2"/>
	<polyline class="st9" points="396.8,555.6 421.5,555.6 421.5,639.6 396.8,639.6 	"/>
	<path class="st9" d="M472.1,564.2c10.5,7.5,16.7,19.4,16.7,33.3c0,13.9-6.2,25.8-16.7,33.3"/>
	<circle class="st4" cx="635.1" cy="597.1" r="2.1"/>
	<g>
		<path class="st4" d="M272.8,436.5c32.6,6.9,95.5,20,97.4,20.2l-0.1,2c-1.2,0-75.2-15.5-97.7-20.2L272.8,436.5z"/>
	</g>
	<g>
		<polygon class="st4" points="368.9,596 369.1,596 369.9,515 269.9,515 269.9,596 		"/>
		<path class="st4" d="M369.9,458.3l-96.8-20c-1.9,10.2-3.2,20.7-3.2,31.5V514h100V458.3z"/>
		<polygon class="st4" points="369.9,515 369.9,514 369.9,515 		"/>
	</g>
	<g>
		<rect x="269.9" y="595" class="st4" width="100" height="2"/>
	</g>
	<g>
		<path class="st10" d="M372.2,874.5"/>
	</g>
	<circle class="st11" cx="247.5" cy="283" r="6.7"/>
	<circle class="st11" cx="1025.7" cy="281.8" r="6.7"/>
	<path class="st10" d="M369.2,457.4"/>
	<path class="st12" d="M637.2,417.4"/>
	<g>
		<path class="st10" d="M883.3,386.9"/>
	</g>
	<g class="st13">
		<polygon class="st12" points="334.4,380.8 333.8,380.2 334.4,380.8 335,381.3 		"/>
	</g>
	<g class="st14">
		<polygon class="st12" points="334.4,380.8 333.8,380.2 334.4,380.8 335,381.3 		"/>
	</g>
	<g class="st13">
		<polygon class="st12" points="917.2,418.3 917.3,418.2 917.3,418.2 		"/>
	</g>
	<g class="st14">
		<polygon class="st12" points="917.2,418.3 917.3,418.2 917.3,418.2 		"/>
	</g>
	<g class="st13">
		<polygon class="st12" points="917.2,418.3 917.3,418.2 917.3,418.2 		"/>
	</g>
	<polygon class="st12" points="369.4,458.6 369.4,458.6 369.9,458.7 	"/>
	<polygon class="st15" points="369.4,458.6 369.4,458.6 369.9,458.7 	"/>
	<path class="st12" d="M1009.1,283.6"/>
	<path class="st12" d="M259.2,812"/>
	<polygon class="st16" points="1009.4,283.6 1009.4,283.6 1009.4,283.6 	"/>
	<path class="st17" d="M894,399.7"/>
	<rect x="466.9" y="777" class="st4" width="90.7" height="110"/>
	<path class="st4" d="M399.1,812.6l-26,62c19.7,8.1,41.3,12.4,63.9,12.4h28.9V777h-58.5l-19.5,29.9c2.6,1.6,6.1,3.4,10.3,5.4
		L399.1,812.6z"/>
	<path class="st4" d="M805.8,777.4l1.3,109.2l29.7-0.7c30.3,0,58.8-7.4,83.4-21.4l-14.1-22.5l-23.8-37.4c0,0-0.3-0.5-1-1.5
		l-12.2-19.5l-4-6.2L805.8,777.4"/>
	<polyline class="st4" points="714.6,887 714.6,887 714.4,887 714.4,777.4 650.9,777.5 650.9,801 635.3,801 635.3,887 	"/>
	<polygon class="st4" points="634.3,887 634.3,887 634.3,801 619.9,801 619.9,777 558.7,777 558.7,887 	"/>
	<path class="st18" d="M882.3,804.1C882.3,804.1,882.3,804.1,882.3,804.1l1.1,1.8L882.3,804.1z"/>
	<polyline class="st4" points="804.8,777.4 715.4,777.4 715.4,887 714.9,887 715.4,887 806,886.7 804.8,777.4 	"/>
	<rect x="714.6" y="887" class="st18" width="0.3" height="0"/>
	<rect x="714.6" y="777.4" class="st4" width="0.3" height="109.5"/>
	<path class="st4" d="M883.1,801.5l-1.7,1.1l0.9,1.5c0.4-0.2,1-0.4,1.8-0.8L883.1,801.5z"/>
	<path class="st4" d="M920.4,864.4c-0.1,0-0.2,0.1-0.3,0.1l0.4,0.6l1.7-1.1l-0.2-0.4c-0.5,0.3-1,0.6-1.5,0.9L920.4,864.4z"/>
	<path class="st4" d="M906.1,842.1l14.1,22.5c0.1,0,0.2-0.1,0.3-0.1L906.1,842.1z"/>
	<polygon class="st12" points="635.9,795.2 635.9,795.2 635.9,795.5 635.9,795.5 	"/>
	<path class="st4" d="M297.3,812c4.1,6.1,8.7,12.4,14.3,18.8l50.7-45l1.7,2.1l2.6,2.8l3.4,3.2v-6.4l-1-51.6l-95.3,18.7
		C278,775.2,286.1,795.1,297.3,812z"/>
	<path class="st4" d="M273.4,753.7L273.4,753.7l95.5-18.7v-56h-99v10.2v28C269.9,728.9,271.2,741.2,273.4,753.7z"/>
	<rect x="269.9" y="596" class="st4" width="99" height="82"/>
	<path class="st4" d="M312.1,831.6c0,0,0.7,0.8,0.8,0.8c3.8,4,19.8,20.4,40.8,32.8c5.6,3.2,12.1,6.3,18.5,8.9l6.7-15.9l19-45.2
		c-2.7-1.5-8.7-4.1-11.1-5.8c-2.1-1.5-4.5-2.8-6.9-4.3c-5.6-3.7-5.4-4-9.9-7.6l-3.9-3.7l-3.9-4.4L312.1,831.6z"/>
	<path class="st4" d="M312.4,831.9c-0.1-0.1-0.2-0.3-0.3-0.4l0,0C312,831.5,312.2,831.7,312.4,831.9z"/>
	<path class="st4" d="M312,831.5L312,831.5c-0.1-0.1-0.2-0.3-0.3-0.4C311.8,831.3,311.9,831.4,312,831.5z"/>
	<path class="st4" d="M312.1,831.5l0.4-0.3L312.1,831.5C312.1,831.5,312.1,831.5,312.1,831.5L312.1,831.5
		C312.1,831.5,312.1,831.5,312.1,831.5z"/>
	<path class="st4" d="M312.4,831.2l50.9-45.2l-51.3,45.4c0,0,0,0,0,0L312.4,831.2z"/>
	<polygon class="st4" points="363.4,786.1 363.4,786 312.4,831.2 	"/>
	<path class="st18" d="M863.7,273.2c0.2,0,0.5,0.1,0.7,0.1L863.7,273.2L863.7,273.2z"/>
	<path class="st4" d="M864.7,273.3L864.7,273.3c-0.1,0-0.1,0-0.2,0L864.7,273.3z"/>
	<path class="st4" d="M1016.1,289.6l-0.2-0.2c0.2,0.2,0.4,0.4,0.5,0.6l0.1-0.1L1016.1,289.6z"/>
	<polygon class="st4" points="199.7,439.4 206.6,440.4 216.2,441.7 206.8,440.4 	"/>
	<polygon class="st4" points="114.9,679 113.9,679 113.9,681 114.9,681 114.9,680 	"/>
	<polygon class="st4" points="236.9,681 237.3,681 237.3,679 236.9,679 236.9,680 	"/>
	<g>
		<polygon class="st5" points="465.9,887 465.9,887 465.9,895.7 		"/>
	</g>
	<polygon class="st4" points="236.9,597 236.9,598 237.9,598 237.9,596 236.9,596 236.9,597 	"/>
	<path class="st4" d="M237.8,748.6c0,0.3,0.1,0.5,0.1,0.8l0.4-0.1l-0.1-1l-0.4,0.1C237.8,748.4,237.8,748.5,237.8,748.6z"/>
	<path class="st5" d="M313.5,137.2"/>
	<path class="st17" d="M98.8,394.3"/>
	<path class="st17" d="M1172,394.3"/>
	<path class="st17" d="M176.2,250.7"/>
	<path class="st17" d="M1066.3,221.8"/>
	<path class="st5" d="M954.4,139.1"/>
	<path class="st9" d="M865.6,751.5c0-5.6,4.6-10.2,10.2-10.2"/>
	<path class="st9" d="M875.8,450.6c-5.6,0-10.2-4.6-10.2-10.2"/>
	<path class="st9" d="M396.7,741.3c5.6,0,10.2,4.6,10.2,10.2"/>
	<path class="st9" d="M407,440.4c0,5.6-4.6,10.2-10.2,10.2"/>
	<polygon class="st5" points="716.9,271 717.9,271 717.9,203.5 715.9,203.5 715.9,271 	"/>
	<polygon class="st5" points="635.9,271 636.9,271 636.9,203.5 634.9,203.5 634.9,271 	"/>
	<polygon class="st5" points="556.9,271 557.9,271 557.9,203.5 555.9,203.5 555.9,271 	"/>
	<path class="st4" d="M864,920.8l9.6,67.1c29.4-4.1,57.9-13.2,83.4-26.1l-29.6-60.5C907.9,911.2,886.5,917.8,864,920.8z"/>
	<path class="st4" d="M408.6,272.9l-10.8-67.1c-29.2,3.9-57.3,12.7-82.7,25.4l30.1,61.3C364.4,282.8,386.4,275.9,408.6,272.9z"/>
	<rect x="1035.9" y="598" class="st4" width="65.5" height="81.5"/>
	<rect x="1035.9" y="515" class="st4" width="65.5" height="82"/>
	<path class="st4" d="M1035.9,468.9V514h65.5v-45.8c0-10.7-0.5-21.8-1.7-32.1l-65.5,9.2C1035.1,452.9,1035.9,461,1035.9,468.9z"/>
	<polygon class="st4" points="635.9,271 635.9,271 716.5,271 716.5,271 716.5,271 716.4,203.5 636.9,203.5 636.9,271 	"/>
	<polygon class="st4" points="556.9,271 556.9,271 635.9,271 635.9,271 635.9,271 635.9,203.5 557.9,203.5 557.9,271 	"/>
	<rect x="168.3" y="514.6" class="st4" width="68.7" height="81.4"/>
	<polyline class="st4" points="168.3,650.4 168.3,679 236.9,679 236.9,597 168.3,597 168.3,641.9 	"/>
	<path class="st4" d="M254.8,902.9l38.1-39.6c-14.4-14.6-26.3-31.5-35.7-49.9c-0.2,0.1-26.4,13.8-52.9,27.5
		c-2.5,1.3-5.3,2.8-7.8,4.1c10.7,21,24.2,40.7,39.8,58.1l12.5-5.5L254.8,902.9z"/>
	<path class="st4" d="M253.8,290.1l39.4,40c14.6-14.2,32.7-27.6,51-37.1l-30.4-61.3c-21.8,11-42.2,25.2-60,41.5l7.7,10.2
		C261.7,283.5,257.3,286.9,253.8,290.1z"/>
	<path class="st4" d="M292.9,330.7l-39.5-40c-1.9,1.9-3.6,4-4.4,5.7l-12.5-5.6c-15.6,17.3-29.1,36.8-39.8,57.8l61,31
		C266.9,361.6,278.8,345.1,292.9,330.7z"/>
	<path class="st4" d="M257.2,380.5l-60.7-30.8c-12.9,25.9-22.3,55.7-26.1,85.6l67.7,9.2C240.9,422.3,247.7,399.6,257.2,380.5z"/>
	<path class="st4" d="M236.9,468.9c0-7.9,0.3-15.8,1.1-23.4l-67.9-9.3c-1.2,10.4-1.9,21.3-1.9,32v45.4h68.7V468.9z"/>
	<path class="st4" d="M170.3,757.9l67.8-10.3l0-0.2l0,0c-0.9-7.6-1.1-14.4-1.1-22.3V680l-68.7,0v45.8
		C168.3,736.4,169,747.6,170.3,757.9z"/>
	<path class="st4" d="M256.7,812.3L256.7,812.3c-9.6-19.4-15.9-40.1-18.6-63.8l-67.8,10.4c3.8,29.9,12.9,59.3,25.8,85.2
		c20.7-10.7,44.1-23.1,60.7-31.7L256.7,812.3z"/>
	<path class="st4" d="M293.6,864.1L255.1,904l-0.2-0.2l6.7,6.7l-7.7,10.3c17.7,16.3,38.4,30.6,60.1,41.6l29.5-61.7
		C325.3,891.1,307.9,878.5,293.6,864.1z"/>
	<path class="st4" d="M1014.4,813.7c-9.4,18.8-21.6,35.6-36.2,50.3l38.5,39.3l5.7-5.8l11.3,5.1c15.6-17.4,29.3-37.5,39.9-58.6
		c-2-1.1-4.8-2.5-6.8-3.5C1040.3,826.8,1014.4,813.7,1014.4,813.7z"/>
	<path class="st4" d="M1016.1,904.1l-38.5-39.4c-14.4,14.3-31.1,26.7-49.5,36l29.6,60.5c21.2-11,41.2-25,58.6-41l-6.9-9.1
		L1016.1,904.1z"/>
	<path class="st4" d="M1014.9,812.8c16.1,8.3,38.9,19.9,59.2,30.3c12.8-25.9,21.7-55.1,25.5-85l-65.2-8.7
		C1031,774.2,1024.5,794.1,1014.9,812.8z"/>
	<path class="st4" d="M1035.9,725.1c0,7.8-0.7,15.9-1.6,23.5l65.3,8.6c1.2-10.2,1.8-20.8,1.8-31.3v-45.3l-65.5,0V725.1z"/>
	<path class="st4" d="M926.7,292.3l30.1-60.2c-25.1-12.7-53.7-21.9-82.7-26l-9.9,67.1C886.5,276.2,907.4,282.5,926.7,292.3z"/>
	<path class="st4" d="M988.8,251.4c-10-7.1-20.1-13.3-31.1-18.9l-30.1,60.4c18.4,9.4,35.4,21.8,49.9,36.3l38.2-39.8l-6.4-5.6
		l0.1-0.1l0,0l8.6-10.7c-6.7-6.2-20.3-17-27.7-22.6"/>
	<path class="st4" d="M1016.4,290l-38.2,39.9c14.1,14.3,26.8,31.6,36,49.7l59-30.3c-10.6-20.9-24-40.7-39.6-57.9l-11.5,5.1
		C1022.1,296.4,1019.3,293.1,1016.4,290z"/>
	<path class="st4" d="M1034.2,444.3l-0.2,0.2L1034.2,444.3l65.2-9.1c-3.8-29.9-12.8-59.4-25.6-85.3l-59,30.5
		C1024.3,399.9,1031.4,421.8,1034.2,444.3z"/>
	<path class="st4" d="M978.3,330l-0.5-0.5l0,0C978,329.7,978.1,329.8,978.3,330L978.3,330z"/>
	<path class="st4" d="M927.4,292.8L927.4,292.8C927.4,292.8,927.4,292.8,927.4,292.8L927.4,292.8L927.4,292.8z"/>
	<polygon class="st4" points="927.4,292.8 927.4,292.8 927.4,292.8 	"/>
	<path class="st4" d="M838,271c8.4,0,17.2,0.9,25.3,2l10-67c-11.7-1.6-24.4-2.5-36.6-2.5h-40.1V271H838z"/>
	<polygon class="st4" points="716.9,271 716.9,271 795.6,271 795.6,203.5 717.4,203.5 717.4,271 	"/>
	<path class="st4" d="M435.3,203.5H433c-11.4,0-23.3,0.8-34.3,2.2l10.9,67.1c8-1,16.1-1.7,24.3-1.7h37.1v-67.5l-26.6,0"/>
	<polygon class="st4" points="556.9,271 556.9,271 556.9,271 556.9,203.5 471.9,203.5 471.9,271 	"/>
	<rect x="1101.4" y="680" class="st4" width="2.9" height="1"/>
	<rect x="1101.4" y="679" class="st4" width="2.9" height="1"/>
	<path class="st10" d="M883.7,805.7"/>
	<path class="st10" d="M1156.4,685.7"/>
	<path class="st10" d="M1083.3,924.9"/>
	<circle class="st11" cx="1024.4" cy="911.1" r="6.7"/>
	<path class="st16" d="M857.7,885.8"/>
	<path class="st4" d="M1120.6,867.9c-0.1,0.3-0.3,0.5-0.4,0.8c0.5,0.2,0.6,0.2,0.7,0.1L1120.6,867.9L1120.6,867.9l0.1-0.3"/>
	<line class="st4" x1="1015.2" y1="812.3" x2="1015.2" y2="812.3"/>
	<line class="st4" x1="1120.7" y1="867.6" x2="1121" y2="866.9"/>
	<path class="st4" d="M864.1,920.8L864.1,920.8l-0.7,0.1l0,0C863.7,920.8,863.9,920.8,864.1,920.8z"/>
	<path class="st5" d="M863.4,920.9c-0.3,0-0.6,0.1-0.9,0.1l0,0L863.4,920.9z"/>
	<polygon class="st4" points="799.9,922 799.9,922 797.9,922 797.9,922 798.9,922 	"/>
	<polygon class="st4" points="725.8,922 725.8,921.7 723.8,921.7 723.8,922 724.9,922 	"/>
	<path class="st17" d="M888.2,1065.6"/>
	<path class="st5" d="M954.4,1053"/>
	<line class="st17" x1="1092" y1="946.2" x2="1092" y2="946.2"/>
	<path class="st17" d="M1071.2,967.2"/>
	<g>
		<path class="st19" d="M1016.5,1016.5"/>
		<path class="st19" d="M1011.4,1009.6"/>
		<path class="st19" d="M1016.5,1016.5"/>
		<path class="st19" d="M1011.4,1009.6"/>
	</g>
	<path class="st10" d="M113.4,687.7"/>
	<circle class="st11" cx="245.4" cy="913.1" r="6.7"/>
	<path class="st16" d="M412.1,887.8"/>
	<path class="st4" d="M103.9,806.8c0.1,0.3,0.3,0.5,0.4,0.8c-0.5,0.2-0.6,0.2-0.7,0.1L103.9,806.8L103.9,806.8l-0.1-0.3"/>
	<path class="st4" d="M405.7,922.8L405.7,922.8l0.7,0.1l0,0C406.1,922.8,405.9,922.8,405.7,922.8z"/>
	<path class="st5" d="M406.4,922.9c0.3,0,0.6,0.1,0.9,0.1l0,0L406.4,922.9z"/>
	<polygon class="st4" points="469.9,924 469.9,924 471.9,924 471.9,924 470.9,924 	"/>
	<path class="st17" d="M381.6,1067.6"/>
	<path class="st5" d="M315.4,1055"/>
	<line class="st17" x1="177.8" y1="948.2" x2="177.8" y2="948.2"/>
	<path class="st17" d="M198.6,969.2"/>
	<path class="st20" d="M73.1,683.9"/>
	<path class="st10" d="M388.1,387.8"/>
	<path class="st16" d="M414.1,307.8"/>
	<path class="st4" d="M407.7,272.8L407.7,272.8l0.7-0.1l0,0C408.1,272.7,407.9,272.7,407.7,272.8z"/>
	<path class="st5" d="M408.4,272.7c0.3,0,0.6-0.1,0.9-0.1l0,0L408.4,272.7z"/>
	<polygon class="st4" points="471.9,271.6 471.9,271.6 473.9,271.6 473.9,271.6 472.9,271.6 	"/>
	<polygon class="st4" points="546.1,271.6 546.1,271.8 548.1,271.8 548.1,271.6 546.9,271.6 	"/>
	<path class="st5" d="M317.4,140.5"/>
	<line class="st17" x1="179.8" y1="247.3" x2="179.8" y2="247.3"/>
	<path class="st20" d="M75.1,511.6"/>
	<path class="st10" d="M883.7,390.8"/>
	<path class="st10" d="M1156.4,510.9"/>
	<path class="st16" d="M857.7,310.8"/>
	<path class="st4" d="M1120.6,328.7c-0.1-0.3-0.3-0.5-0.4-0.8c0.5-0.2,0.6-0.2,0.7-0.1L1120.6,328.7L1120.6,328.7l0.1,0.3"/>
	<path class="st4" d="M864.1,275.8L864.1,275.8l-0.7-0.1l0,0C863.7,275.7,863.9,275.7,864.1,275.8z"/>
	<path class="st5" d="M863.4,275.7c-0.3,0-0.6-0.1-0.9-0.1l0,0L863.4,275.7z"/>
	<path class="st5" d="M954.4,143.5"/>
	<line class="st17" x1="1092" y1="250.3" x2="1092" y2="250.3"/>
	<path class="st17" d="M1071.2,229.4"/>
	
		<rect x="875.8" y="579.3" transform="matrix(-1 -1.224647e-16 1.224647e-16 -1 1760.2045 1194.1235)" class="st9" width="8.6" height="35.5"/>
	<rect x="388.2" y="579.3" class="st9" width="8.6" height="35.5"/>
	<polygon class="st5" points="634.9,415 635.9,415 635.9,302 634.9,302 633.9,302 633.9,415 	"/>
	<rect x="539.8" y="415" class="st18" width="0.1" height="0"/>
	<polygon class="st4" points="539.9,302 540.9,302 540.9,302 539.8,302 539.8,302 	"/>
	<rect x="539.8" y="302" class="st4" width="0.1" height="113"/>
	<polygon class="st5" points="731.9,415 732.9,415 732.9,302 731.9,302 730.9,302 730.9,415 	"/>
	<polygon class="st4" points="539.9,415 539.9,415 634.9,415 634.9,415 634.3,415 634.3,302 540.9,302 540.9,415 	"/>
	<polygon class="st4" points="635.9,302 635.9,302 633.9,302 633.9,302 634.9,302 	"/>
	<polygon class="st4" points="634.9,415 634.9,415 637.9,415 642.7,415 731.9,415 731.9,415 731.9,415 731.9,302 635.3,302 
		635.3,415 	"/>
	<rect x="731.9" y="302" class="st4" width="1" height="0"/>
	<rect x="730.9" y="302" class="st4" width="1" height="0"/>
	<polygon class="st4" points="731.9,415 731.9,415 819.9,415 819.9,415 819.4,415 819.4,302 732.9,302 732.9,415 	"/>
	<path class="st4" d="M820.4,415L820.4,415l44,0l13.7-20.5l5-7.7c-0.1,0-0.1,0-0.1,0l10.4-15.7l28.8-45.5
		c-25-14.9-54.2-23.5-85.4-23.5h-16.4V415L820.4,415z"/>
	<path class="st18" d="M902.5,400.5c0.1,0.1,0.1,0.1,0.2,0.2C902.7,400.6,902.5,400.3,902.5,400.5z"/>
	<path class="st4" d="M902.7,400.6c2.4,2.1,5.1,4.5,8.3,8.2c2.9,3.3,6.1,7.5,7.1,9l59.6-38.7c-2.9-4.5-9.5-12.7-17.7-21.8
		c-1.5-1.6-3-3.1-4.6-4.6l-16.2-15c-2.5-2.3-5.2-4.5-8-6.4c-2.4-1.6-5.7-3.8-8.2-5.3l-39.4,61.3c4.2,2.1,11.4,6.7,17.5,12.1
		c0.2,0.1,1.2,1,1.4,1.2"/>
	<path class="st18" d="M893.4,371L883,386.8c0,0,0,0,0.1,0l7.9-12.1L893.4,371z"/>
	<path class="st4" d="M917.3,418.2l60.5-38.8c0,0,0,0,0-0.1L917.3,418.2L917.3,418.2z"/>
	<path class="st4" d="M902.7,400.9l-0.2-0.2C902.6,400.8,902.7,400.8,902.7,400.9z"/>
	<path class="st4" d="M902.2,400.3L902.2,400.3c0.3,0.3,0.5,0.6,0.8,0.8l-0.3-0.3c0,0-0.1-0.1-0.2-0.2
		C902.5,400.6,902.2,400.3,902.2,400.3z"/>
	<path class="st4" d="M902.5,400.6l0.2,0.2c0.1,0.1,0.1,0,0-0.1C902.7,400.7,902.6,400.6,902.5,400.6
		C902.5,400.6,902.5,400.6,902.5,400.6z"/>
	<path class="st4" d="M902.5,400.6C902.5,400.6,902.5,400.6,902.5,400.6c-0.3-0.4-0.6-0.6-0.9-0.9c-0.2-0.1-0.3-0.3-0.5-0.4
		c0.3,0.3,0.7,0.6,1,1l0,0C902.2,400.3,902.5,400.6,902.5,400.6z"/>
	<polygon class="st5" points="1004.4,596 1004.9,596 1004.9,594.9 902.9,594.9 902.9,596 	"/>
	<polygon class="st5" points="902.9,596.2 902.9,597.1 1004.9,596.9 1004.9,596 	"/>
	<path class="st4" d="M917.1,418c0,0-2.9-4.2-7-8.7c-2.3-2.6-5.1-5.3-7.2-7.2v69h102c0-33.1-9.9-65-26.5-91l-60.5,39.2L917.1,418z"
		/>
	<polygon class="st4" points="1004.9,472 902.9,472 902.9,595.5 1004.9,595.4 	"/>
	<polygon class="st4" points="902.9,719.1 1004.4,718.9 1004.9,596.5 902.9,596.5 	"/>
	<path class="st18" d="M975.8,813.6C975.8,813.6,975.8,813.6,975.8,813.6L975.8,813.6L975.8,813.6z"/>
	<path class="st4" d="M916.2,773.5L916.2,773.5l0.7,0.6l58.5,39.6c17.5-26.1,28.3-57.9,29-93.8l-101.5,0.1v67.8
		c0.9-0.8,1.9-1.8,2.8-2.8"/>
	<path class="st5" d="M903.6,790.1l-1.1,1C902.9,790.8,903.3,790.5,903.6,790.1C903.6,790.1,903.6,790.1,903.6,790.1z"/>
	<path class="st5" d="M903.7,790.1C903.7,790,903.7,790,903.7,790.1L903.7,790.1L903.7,790.1L903.7,790.1z"/>
	<path class="st18" d="M904.4,789.3c-0.2,0.2-0.3,0.3-0.5,0.5l-0.2,0.2l0.1,0C903.9,789.8,904.2,789.5,904.4,789.3z"/>
	<path class="st5" d="M903.6,790.1C903.6,790.1,903.7,790.1,903.6,790.1C903.7,790.1,903.6,790.1,903.6,790.1
		C903.6,790.1,903.6,790.1,903.6,790.1z"/>
	<path class="st5" d="M903.7,790.1L903.7,790.1C903.7,790.1,903.7,790.1,903.7,790.1C903.7,790.1,903.7,790.1,903.7,790.1z"/>
	<path class="st18" d="M903.7,790.1C903.7,790.1,903.7,790.1,903.7,790.1L903.7,790.1L903.7,790.1
		C903.6,790.1,903.6,790.1,903.7,790.1C903.6,790.1,903.7,790.1,903.7,790.1z"/>
	<path class="st21" d="M904.6,790"/>
	<path class="st4" d="M916.3,774.9l58.7,39.8c-13.7,20-33.1,36.8-54,49.3l-38.3-60.5C882.7,803.5,901.2,794,916.3,774.9"/>
	<path class="st21" d="M903.6,790.1"/>
	<path class="st21" d="M903.7,790.1"/>
	<path class="st4" d="M976.1,813.1L976.1,813.1c-0.1,0.2-0.2,0.3-0.3,0.5L976.1,813.1z"/>
	<path class="st4" d="M902.5,791.1c0,0-0.1,0.1-0.1,0.1L902.5,791.1L902.5,791.1z"/>
	<path class="st4" d="M903.6,790.1C903.6,790.1,903.6,790.1,903.6,790.1L903.6,790.1L903.6,790.1z"/>
	<path class="st4" d="M1004.4,721c0,0.3,0,0.7,0,1h0.5v-2h-0.5l0,0C1004.4,720.4,1004.4,720.6,1004.4,721z"/>
	<polygon class="st4" points="1004.9,596 1004.9,596 1004.4,596 1004.4,596 902.9,596 902.9,594.9 902.5,594.9 902.5,597.1 
		902.9,597.1 902.9,596.2 1004.9,596 1004.9,596.9 1005.4,596.9 1005.5,596.9 1005.5,594.9 1004.9,594.9 	"/>
	<rect x="1004.4" y="596" transform="matrix(1 -1.953121e-03 1.953121e-03 1 -1.1621 1.9634)" class="st4" width="0.5" height="0"/>
	<path class="st4" d="M1004.9,470L1004.9,470c0,0,0,0.1,0,0.1V470z"/>
	<polygon class="st4" points="820.9,302 820.9,302 818.9,302 818.9,302 819.9,302 	"/>
	<rect x="538.8" y="415" class="st4" width="1" height="2.4"/>
	<rect x="538.9" y="302" class="st4" width="0.9" height="0"/>
	<path class="st4" d="M386.7,387.4"/>
	<path class="st21" d="M390.2,385.2l6.9-3.8C395.5,382.2,393.1,383.5,390.2,385.2z"/>
	<g>
		<path class="st4" d="M363.4,407.4l-53-46.9c-18.4,21.5-31.3,47.7-36.9,76.6l96.3,20.1l-0.2-55.3c-2.2,1.8-5.1,4.5-5.8,5.1
			L363.4,407.4z"/>
		<path class="st4" d="M311.1,359.7l23.8,21.1l17.8,15.7l10.8,9.6c1.3-1.1,4.2-3.8,6.1-5.3c6.1-5.4,13-9.6,18.8-13.1l0,0l2.4-1.4
			c3-1.6,4.9-2.4,6.6-3.2l3.3-1.3l-28.4-66.3c-23.1,9.8-44.8,25.9-61.2,44.3L311.1,359.7C311,359.7,311.1,359.7,311.1,359.7z"/>
	</g>
	<path class="st4" d="M390.6,387.3l17.2,27.6h45.1v0v0V302H437c-22.6,0-44.3,4.8-64,12.8l28.9,67.3l-5.2,2.1L390.6,387.3z"/>
	<polygon class="st4" points="452.9,415 453.9,415 539.9,415 539.9,302 453.9,302 453.9,415 	"/>
	<polygon class="st21" points="453.9,302 453.9,302 451.9,302 451.9,302 452.9,302 	"/>
	<path class="st21" d="M387.9,386.5L387.9,386.5c0.9-0.4,1.6-0.9,2.4-1.3L387.9,386.5z"/>
	<polyline class="st19" points="203.1,647.8 200.8,647.8 200.8,644.8 215.3,647.9 	"/>
	<g>
		<polygon class="st22" points="686.4,922.2 677.4,922.2 677.4,937.2 672.4,937.2 672.4,963.2 677.4,963.2 677.4,992.2 686.4,992.2 
			686.4,963.2 691.4,963.2 691.4,937.2 686.4,937.2 		"/>
		<polygon class="st22" points="764.8,922.2 755.8,922.2 755.8,937.2 750.8,937.2 750.8,963.2 755.8,963.2 755.8,992.5 764.8,992.5 
			764.8,963.2 769.8,963.2 769.8,937.2 764.8,937.2 		"/>
		<polygon class="st22" points="834.5,922.2 825.5,922.2 825.5,937.2 820.5,937.2 820.5,963.2 825.5,963.2 825.5,992.5 834.5,992.5 
			834.5,963.2 839.5,963.2 839.5,937.2 834.5,937.2 		"/>
		<polygon class="st22" points="1077.8,704.8 1051.8,704.8 1051.8,709.8 1036.8,709.8 1036.8,718.8 1051.8,718.8 1051.8,723.8 
			1077.8,723.8 1077.8,718.8 1103.4,718.8 1103.4,709.8 1077.8,709.8 		"/>
		<polygon class="st22" points="1076.9,636.8 1050.9,636.8 1050.9,641.8 1035.9,641.8 1035.9,650.8 1050.9,650.8 1050.9,655.8 
			1076.9,655.8 1076.9,650.8 1103.4,650.8 1103.4,641.8 1076.9,641.8 		"/>
		<polygon class="st22" points="1076.9,543.5 1076.9,538.5 1050.9,538.5 1050.9,543.5 1035.9,543.5 1035.9,552.5 1050.9,552.5 
			1050.9,557.5 1076.9,557.5 1076.9,552.5 1103.4,552.5 1103.4,543.5 		"/>
		<polygon class="st22" points="1076.9,487.7 1076.9,482.7 1103.3,482.7 1103.3,473.7 1076.9,473.7 1076.9,468.7 1050.9,468.7 
			1050.9,473.7 1035.9,473.7 1035.9,482.7 1050.9,482.7 1050.9,487.7 		"/>
		<polygon class="st22" points="985.1,912.4 969.9,891.3 965.8,894.3 957.3,882.5 950,887.8 958.5,899.5 954.4,902.5 969.7,923.5 
			973.7,920.6 990.7,944.1 998,938.9 981,915.3 		"/>
		<polygon class="st22" points="1034.6,856.3 1013.2,841.5 1010.3,845.6 999.8,838.3 994.5,845.6 1005.2,853 1002.4,857.1 
			1023.8,871.9 1026.6,867.8 1051,884.7 1056.1,877.3 1031.7,860.4 		"/>
		<polygon class="st22" points="1066.5,787.7 1041.6,780.3 1040.2,785 1027.6,781.3 1024.8,789.9 1037.6,793.7 1036.2,798.5 
			1061.1,805.9 1062.5,801.1 1090.3,809.4 1092.9,800.8 1065.1,792.5 		"/>
		<polygon class="st22" points="918.7,950 910.1,925.5 905.4,927.1 900.3,912.5 891.7,915.2 896.9,930.1 892.2,931.8 900.8,956.3 
			905.5,954.7 914.7,980.9 923.2,978 914,951.7 		"/>
		<polygon class="st22" points="593.3,922.2 584.3,922.2 584.3,937.2 579.3,937.2 579.3,963.2 584.3,963.2 584.3,992.2 593.3,992.2 
			593.3,963.2 598.3,963.2 598.3,937.2 593.3,937.2 		"/>
		<polygon class="st22" points="514.6,922.2 505.6,922.2 505.6,937.2 500.6,937.2 500.6,963.2 505.6,963.2 505.6,992.5 514.6,992.5 
			514.6,963.2 519.6,963.2 519.6,937.2 514.6,937.2 		"/>
		<polygon class="st22" points="444.8,937.2 444.8,937.2 444.4,937.2 444.4,922.2 435.4,922.2 435.4,937.2 430.4,937.2 430.4,963.2 
			435.4,963.2 435.4,992.5 444.4,992.5 444.4,963.2 449.4,963.2 449.4,937.2 444.8,937.2 		"/>
		<polygon class="st22" points="195.9,725.8 221.9,725.8 221.9,720.8 236.9,720.8 236.9,711.8 221.9,711.8 221.9,706.8 195.9,706.8 
			195.9,711.8 166.3,711.8 166.3,720.8 195.9,720.8 		"/>
		<polygon class="st22" points="195.9,655.4 221.9,655.4 221.9,650.4 236.9,650.4 236.9,641.4 221.9,641.4 221.9,636.4 195.9,636.4 
			195.9,641.4 166.3,641.5 166.3,650.4 195.9,650.4 		"/>
		<polygon class="st22" points="221.9,559 221.9,554 236.9,554 236.9,545 221.9,545 221.9,540 195.9,540 195.9,545 166.3,545 
			166.3,554 195.9,554 195.9,559 		"/>
		<polygon class="st22" points="195.9,486.6 221.9,486.6 221.9,481.6 236.9,481.6 236.9,472.6 221.9,472.6 221.9,467.6 195.9,467.6 
			195.9,472.6 166.3,472.6 166.3,481.6 195.9,481.6 		"/>
		<polygon class="st22" points="203.5,405.2 228,413.7 229.7,409 244.3,414.1 247,405.5 232.6,400.5 234.3,395.8 209.7,387.3 
			208.1,392 180.4,382.4 177.6,391 205.1,400.5 		"/>
		<polygon class="st22" points="235,336.3 256,351.6 258.9,347.6 271.4,356.7 274,353 276.7,349.4 264.2,340.3 267.2,336.3 
			246.2,320.9 243.2,325 219.8,307.8 214.5,315.1 237.9,332.2 		"/>
		<polygon class="st22" points="316.5,291.2 301,270.4 297,273.4 279.5,250 272.2,255.3 289.8,278.8 285.8,281.7 301.3,302.6 
			305.3,299.6 314.3,311.6 321.5,306.2 312.5,294.2 		"/>
		<polygon class="st22" points="351.5,244.8 359.4,269.5 364.1,268 368.7,282.3 377.2,279.6 372.7,265.3 377.5,263.8 369.6,239 
			364.8,240.5 356,212.8 347.4,215.5 356.3,243.2 		"/>
		<polygon class="st22" points="444.7,229.9 444.3,201.6 435.3,201.6 435.7,230 430.7,230.1 431.1,256.1 436.1,256 436.3,271 
			445.3,270.9 445.1,255.9 450.1,255.8 449.7,229.8 		"/>
		<polygon class="st22" points="504.9,271 513.8,270.9 513.6,255.9 518.6,255.8 518.3,229.8 513.3,229.9 512.9,201.5 503.9,201.5 
			504.3,230 499.3,230.1 499.6,256.1 504.6,256 		"/>
		<polygon class="st22" points="583.3,271 592.3,270.9 592.1,255.9 597.1,255.8 596.7,229.8 591.7,229.9 591.3,201.5 582.3,201.5 
			582.7,230 577.7,230.1 578.1,256.1 583.1,256 		"/>
		<polygon class="st22" points="686.8,229.9 686.4,201.5 677.4,201.5 677.8,230 672.8,230.1 673.2,256.1 678.2,256 678.4,271 
			687.4,270.9 687.2,255.9 692.2,255.8 691.8,229.8 		"/>
		<polygon class="st22" points="765.4,229.9 765,201.5 756,201.6 756.4,230 751.4,230.1 751.8,256.1 756.8,256 757,271 766,270.9 
			765.8,255.9 770.8,255.8 770.4,229.8 		"/>
		<polygon class="st22" points="825.2,271 834.2,270.9 834,255.9 839,255.8 838.6,229.8 833.6,229.9 833.2,201.4 824.2,201.5 
			824.7,230 819.7,230.1 820,256.1 825,256 		"/>
		<polygon class="st22" points="906.1,239.9 901.4,238.2 892.8,262.7 897.5,264.4 892.3,278.9 901,281.5 906,267.4 910.7,269.1 
			919.3,244.6 914.6,242.9 924.1,216.1 915.4,213.2 		"/>
		<polygon class="st22" points="956.8,311.4 965.5,299.2 969.6,302.1 984.8,281 980.7,278.1 997.2,255.1 989.8,249.9 973.4,272.9 
			969.3,269.9 954.2,291.1 958.2,294 949.6,306 		"/>
		<polygon class="st22" points="995.3,349.1 1000.3,356.6 1012.6,348 1015.5,352.1 1036.8,337.2 1034,333.1 1056.6,317.4 
			1051.3,309.9 1028.8,325.8 1026,321.7 1004.6,336.5 1007.5,340.6 		"/>
		<polygon class="st22" points="1037.3,400 1024.6,404.6 1027.5,413.1 1040.4,408.5 1042,413.2 1066.5,404.5 1064.8,399.8 
			1091.8,390.1 1088.9,381.6 1061.8,391.3 1060.1,386.6 1035.6,395.3 		"/>
		<polygon class="st22" points="378.5,914.7 369.9,912 365.6,924.3 360.9,922.7 352.4,947.3 357.1,948.9 347,978.2 355.7,981 
			365.6,951.9 370.3,953.5 378.8,928.9 374.1,927.3 		"/>
		<polygon class="st22" points="313.8,882 306.4,892.9 302.3,890 287.3,911.2 291.3,914.1 273.2,939.3 280.6,944.5 298.7,919.3 
			302.8,922.2 317.8,901 313.7,898.1 321.1,887.2 		"/>
		<polygon class="st22" points="276.2,844 270.6,836.7 259.8,844.9 256.9,840.8 235.8,856 238.7,860.1 213.9,878 219.2,885.3 
			244,867.4 246.9,871.5 268,856.3 265.1,852.2 		"/>
		<polygon class="st22" points="233.5,792.6 246.6,788.1 243.5,779.5 230.7,784 229.1,779.3 204.5,787.5 206,792.2 177.1,801.7 
			179.9,810.4 208.9,800.8 210.5,805.5 235.1,797.3 		"/>
	</g>
	<g>
		<polygon class="st22" points="778.8,777.4 769.8,777.4 769.8,824.3 764.8,824.3 764.8,856.2 769.8,856.2 769.8,887 778.8,887 
			778.8,856.2 783.8,856.2 783.8,824.3 778.8,824.3 		"/>
		<polygon class="st22" points="860.6,820.9 855.6,821.6 849.1,777.7 839.9,777.7 846.7,823 841.8,823.7 846.5,855.2 851.4,854.5 
			856,885 864.9,883.6 860.3,853.2 865.3,852.4 		"/>
		<polygon class="st22" points="687.3,777.4 678.3,777.4 678.3,824.3 673.3,824.3 673.3,856.2 678.3,856.2 678.3,887 687.3,887 
			687.3,856.2 692.3,856.2 692.3,824.3 687.3,824.3 		"/>
		<polygon class="st22" points="593.3,777 584.3,777 584.3,824.3 579.3,824.3 579.3,856.2 584.3,856.2 584.3,887 593.3,887 
			593.3,856.2 598.3,856.2 598.3,824.3 593.3,824.3 		"/>
		<polygon class="st22" points="969,655.8 937.1,655.8 937.1,660.8 902.9,660.8 902.9,669.8 937.1,669.8 937.1,674.8 969,674.8 
			969,669.8 1004.6,669.8 1004.7,660.8 969,660.8 		"/>
		<polygon class="st22" points="969,523.8 969,518.8 937.1,518.8 937.1,523.8 902.9,523.8 902.9,532.8 937.1,532.8 937.1,537.8 
			969,537.8 969,532.8 1004.9,532.8 1004.9,523.8 		"/>
		<polygon class="st22" points="500.6,777.4 491.6,777.4 491.6,824.3 486.6,824.3 486.6,856.2 491.6,856.2 491.6,887 500.6,887 
			500.6,856.2 505.6,856.2 505.6,824.3 500.6,824.3 		"/>
		<polygon class="st22" points="419.2,777 413.4,822.1 408.5,821.5 404.4,853.1 409.4,853.7 405.5,884 414.4,885.4 418.3,854.9 
			423.3,855.5 427.3,823.9 422.4,823.2 428.1,777.4 		"/>
		<polygon class="st22" points="301.7,726.4 333.6,726.4 333.6,721.4 368.9,721.4 368.9,712.4 333.6,712.4 333.6,707.4 301.7,707.4 
			301.7,712.4 269.9,712.4 269.9,721.4 301.7,721.4 		"/>
		<polygon class="st22" points="301.7,654.3 333.6,654.3 333.6,649.3 368.9,649.3 368.9,640.3 333.6,640.3 333.6,635.3 301.7,635.3 
			301.7,640.3 269.9,640.3 269.9,649.3 301.7,649.3 		"/>
		<polygon class="st22" points="301.7,559 333.6,559 333.6,554 369.5,554 369.5,545 333.6,545 333.6,540 301.7,540 301.7,545 
			269.9,545 269.9,554 301.7,554 		"/>
		<polygon class="st22" points="301.7,486.6 333.6,486.6 333.6,481.6 369.9,481.6 369.9,472.6 333.6,472.6 333.6,467.6 301.7,467.6 
			301.7,472.6 269.9,472.6 269.9,481.6 301.7,481.6 		"/>
		<polygon class="st22" points="491.3,415 500.3,415 500.3,367.9 505.3,367.9 505.3,336.1 500.3,336.1 500.3,302 491.3,302 
			491.3,336.1 486.3,336.1 486.3,367.9 491.3,367.9 		"/>
		<polygon class="st22" points="582.3,415 591.3,415 591.3,367.9 596.3,367.9 596.3,336.1 591.3,336.1 591.3,302 582.3,302 
			582.3,336.1 577.3,336.1 577.3,367.9 582.3,367.9 		"/>
		<polygon class="st22" points="678,415 687,415 687,367.9 692,367.9 692,336.1 687,336.1 687,302 678,302 678,336.1 673,336.1 
			673,367.9 678,367.9 		"/>
		<polygon class="st22" points="779.3,302 770.3,302 770.3,336.1 765.3,336.1 765.3,367.9 770.3,367.9 770.3,415 779.3,415 
			779.3,367.9 784.3,367.9 784.3,336.1 779.3,336.1 		"/>
		<polygon class="st22" points="849.4,415 855.3,372.4 860.2,373.1 864.5,341.5 859.5,340.8 864.8,304.3 855.8,303.1 850.6,339.6 
			845.6,339 841.4,370.5 846.4,371.2 840.3,415 		"/>
		<polygon class="st22" points="933.3,442.2 902.9,449.5 902.9,458.7 935.3,451 936.4,455.9 967.5,448.7 966.4,443.8 1001.4,436.1 
			999.3,427.3 964.4,435.1 963.2,430.2 932.2,437.4 		"/>
		<polygon class="st22" points="966.1,744.9 935,737.8 933.9,742.6 902.9,735.8 902.9,745.1 931.9,751.4 930.8,756.3 961.8,763.4 
			962.9,758.6 997.8,766.6 1000.1,757.9 965,749.8 		"/>
		<polygon class="st22" points="428.9,370.2 424.3,338.7 419.4,339.4 414.6,303.5 405.2,305.1 410.5,340.7 405.5,341.4 410.1,373 
			415,372.2 421.2,415 430.3,415 424,370.9 		"/>
		<polygon class="st22" points="310.4,423.1 338.9,437.5 341.1,433 369.9,445.9 369.9,435.6 345.2,425 347.5,420.5 319,406.1 
			316.8,410.6 288.1,395.7 283.6,404.1 312.7,418.6 		"/>
		<polygon class="st22" points="345.6,769.1 369.3,757.6 369.2,748.4 341.8,760.9 339.7,756.4 310.8,770 313,774.5 284.1,787.7 
			287.9,796.4 316.8,782.7 318.9,787.2 347.8,773.6 		"/>
		<polygon class="st22" points="888.4,800.2 931.5,857.2 938,852.6 895,795.6 		"/>
		<polygon class="st22" points="940.3,338.4 934,333.5 889.5,390.4 896,395 		"/>
		<polygon class="st22" points="331.4,340 373.8,397.3 380.1,392.6 337.8,335.2 		"/>
		<polygon class="st22" points="332.9,850.7 339.3,855.7 380,802.8 373.6,798.2 		"/>
		<rect x="902.9" y="616.8" class="st22" width="101.9" height="9"/>
		<rect x="902.9" y="568.1" class="st22" width="101.9" height="9"/>
	</g>
	<path class="st21" d="M901.6,783.8"/>
	<path class="st23" d="M918.9,419.8"/>
	<path class="st23" d="M884.8,388.3"/>
	<path class="st21" d="M374.1,795.1"/>
	<path class="st21" d="M916.2,774.8"/>
	<path class="st21" d="M882.7,803.5"/>
	<path class="st21" d="M905.8,785.2c0,0,8.1-8.1,9.7-10.8l-1.1-0.8"/>
	<g>
		<path class="st11" d="M433.8,273.4h403.9c51.9,0,100.8,20.3,137.7,57.3c36.9,36.9,57.3,85.8,57.3,137.7v256.8
			c0,51.9-20.3,100.8-57.3,137.7c-36.9,36.9-85.8,57.3-137.7,57.3H433.8c-51.9,0-100.8-20.3-137.7-57.3
			c-36.9-36.9-57.3-85.8-57.3-137.7V468.4c0-51.9,20.3-100.8,57.3-137.7C333,293.8,381.9,273.4,433.8,273.4z M837.8,915.2
			c104.8,0,190-85.2,190-190V468.4c0-104.8-85.2-190-190-190H433.8c-104.8,0-190,85.2-190,190v256.8c0,104.8,85.2,190,190,190H837.8
			z"/>
	</g>
	<g>
		<rect x="592.7" y="988.5" class="st11" width="85.5" height="4"/>
		<path class="st11" d="M836.7,992.5H686v-4h150.7c65.7,0,128.5-24.3,177-68.6l-5.9-9.1l14.4-14.9l10.4,4.9
			c5.3-5.9,10.5-12.3,15.2-18.6l3.2,2.4c-5.1,6.8-10.7,13.7-16.4,19.9l-1,1.1l-10.5-5l-10.1,10.5l6,9.2l-1.2,1.1
			C968.3,967.4,904,992.5,836.7,992.5z"/>
		<path class="st11" d="M1056.1,877.5l-3.3-2.3c14.3-20.7,25.6-43.2,33.5-67l3.8,1.3C1082.1,833.6,1070.7,856.5,1056.1,877.5z"/>
		<path class="st11" d="M1092.7,801l-3.8-1.1c7-24,10.6-48.9,10.6-74.1v-7.4h4v7.4C1103.4,751.4,1099.8,776.7,1092.7,801z"/>
		<polygon class="st11" points="1103.4,710.9 1099.4,710.9 1099.4,650.4 1103.4,650.3 		"/>
		<rect x="444.1" y="988.5" class="st11" width="62.5" height="4"/>
		<rect x="513.9" y="988.5" class="st11" width="70.9" height="4"/>
		<rect x="1099.4" y="482.7" class="st11" width="4" height="60.7"/>
		<path class="st11" d="M1103.4,473.7h-4v-5.5c0-26.2-3.8-52-11.4-76.8l3.8-1.2c7.7,25.2,11.6,51.4,11.6,78V473.7z"/>
		<path class="st11" d="M347.3,978.4c-24-8.1-45.9-19.2-66.7-33.8l2.3-3.3c20.5,14.4,42,25.3,65.7,33.3L347.3,978.4z"/>
		<path class="st11" d="M435.3,992.5H433c-26.3,0-52.3-3.8-77.3-11.4l1.2-3.8c24.6,7.4,50.2,11.2,76.1,11.2h2.3V992.5z"/>
		<rect x="1099.4" y="552.5" class="st11" width="4" height="89.4"/>
		<path class="st11" d="M1085.2,382.9c-7.7-22.4-18.5-43.7-31.9-63.3l3.3-2.3c13.6,19.9,24.5,41.5,32.4,64.2L1085.2,382.9z"/>
		<path class="st11" d="M1048.1,312.2c-4.9-6.6-10.1-13-15.5-19.1l-10.6,4.4l-13.1-12.8l5.2-10.3c-6.3-5.8-12.6-11-19.3-16.1
			l2.4-3.2c7.2,5.4,14,11.1,20.7,17.4l1.1,1l-5.3,10.4l9.1,8.9l10.8-4.5l0.9,1c5.8,6.5,11.4,13.3,16.7,20.4L1048.1,312.2z"/>
		<path class="st11" d="M987.5,253.2c-20-14.1-41.8-25.3-64.7-33.3l1.3-3.8c23.3,8,45.4,19.4,65.7,33.8L987.5,253.2z"/>
		<path class="st11" d="M914.3,217.1c-24.9-7.7-51-11.6-77.6-11.6h-3.5v-4h3.5c27,0,53.4,4,78.8,11.8L914.3,217.1z"/>
		<rect x="765" y="201.5" class="st11" width="59.2" height="4"/>
		<rect x="686.4" y="201.5" class="st11" width="69.6" height="4"/>
		<rect x="591.3" y="201.5" class="st11" width="86.1" height="4"/>
		<rect x="512.9" y="201.5" class="st11" width="69.5" height="4"/>
		<rect x="444.3" y="201.5" class="st11" width="59.6" height="4"/>
		<path class="st11" d="M357.2,216.6l-1.2-3.8c24.8-7.5,50.7-11.3,76.9-11.3h2.4v4H433C407.2,205.5,381.7,209.2,357.2,216.6z"/>
		<path class="st11" d="M281.7,253.4l-2.3-3.3c21.1-14.8,44-26.5,68.2-34.7l1.3,3.8C325,227.3,302.4,238.8,281.7,253.4z"/>
		<path class="st11" d="M222.9,310.4l-3.2-2.4c5.1-6.8,10.5-13.2,16.3-19.6l1.1-1.2l11.5,6.7l9.7-10.8l-7.4-9.6l1.3-1.2
			c5.6-5.2,13-11.3,20.1-16.8l2.4,3.2c-6.5,4.9-13.1,10.4-18.4,15.3l7.2,9.4l-14,15.7l-11.5-6.7
			C232.6,298.1,227.7,304.1,222.9,310.4z"/>
		<path class="st11" d="M184.2,383.7l-3.8-1.3c8.2-23.9,19.6-46.6,34.1-67.3l3.3,2.3C203.5,337.8,192.2,360.1,184.2,383.7z"/>
		<path class="st11" d="M170.3,472.6h-4v-4.4c0-26.2,3.8-52.2,11.4-77.1l3.8,1.2c-7.4,24.6-11.2,50.1-11.2,76V472.6z"/>
		<rect x="166.3" y="481.6" class="st11" width="4" height="63.5"/>
		<rect x="166.3" y="553.6" class="st11" width="4" height="87.9"/>
		<rect x="166.3" y="650.4" class="st11" width="4" height="61.4"/>
		<path class="st11" d="M177.2,801.8c-7.2-24.5-10.9-50.1-10.9-76v-5h4v5c0,25.5,3.6,50.7,10.7,74.9L177.2,801.8z"/>
		<path class="st11" d="M213.8,878c-14.5-20.7-25.9-43.5-34-67.6l3.8-1.3c7.9,23.7,19.1,46.1,33.4,66.5L213.8,878z"/>
		<path class="st11" d="M273.2,939.4c-7.1-5.4-14.1-11.1-20.7-17.2l-1.3-1.2l7.8-10.3L248.5,900l-11.8,6.4l-1.1-1.2
			c-6-6.5-11.4-13-16.5-19.9l3.2-2.4c4.7,6.3,9.7,12.4,15.2,18.4l11.7-6.3l15,15.3l-7.7,10.2c6.1,5.5,12.5,10.8,19,15.7L273.2,939.4
			z"/>
		<path class="st11" d="M635.9,1133.7c-176.6,0-324.4-51.2-427.3-147.9C107.9,891.1,54.4,757.4,53.7,599h0l0-2l0-0.5l0-2.5h0
			c0.7-158.4,54.2-292.1,154.9-386.8C311.5,110.4,459.3,59.3,635.9,59.3c352.5,0,580.8,209.8,582.2,534.7h0l0,2l0,0.5l0,2.5h0
			C1216.7,923.9,988.4,1133.7,635.9,1133.7z M57.7,596.7l0,0.3c0.5,328.6,222,532.7,578.2,532.7c350.8,0,577.7-209.1,578.2-532.7
			l0-0.7l0-0.3c-0.5-323.6-227.4-532.7-578.2-532.7C279.7,63.3,58.2,267.4,57.7,596L57.7,596.7z"/>
	</g>
	<polyline class="st24" points="407.5,626.8 407.5,589.2 397.3,579 397.3,615.3 387.6,615.3 398.9,626.8 407.5,626.8 	"/>
	<polyline class="st24" points="895.1,626.6 895.1,588.9 885,578.7 885,615.1 875.3,615.1 886.5,626.6 895.1,626.6 	"/>
</g>
</svg>
