<?xml version="1.0" encoding="utf-8"?>
<!-- Generator: Adobe Illustrator 19.1.0, SVG Export Plug-In . SVG Version: 6.00 Build 0)  -->
<svg version="1.1" id="Layer_1" xmlns="http://www.w3.org/2000/svg" xmlns:xlink="http://www.w3.org/1999/xlink" x="0px" y="0px"
	 viewBox="0 0 38.6 29.7" style="enable-background:new 0 0 38.6 29.7;" xml:space="preserve">
<style type="text/css">
	.st0{fill:#FFFFFF;}
</style>
<g id="XMLID_1_">
	<path id="XMLID_807_" class="st0" d="M31.4,18.1c1.1,1.1,2.2,2,3.2,3.2c0.4,0.5,0.8,1,1.1,1.6c0.4,0.8,0,1.8-0.7,1.8l-4.7,0
		c-1.2,0.1-2.2-0.4-3-1.2c-0.7-0.7-1.3-1.4-1.9-2.1c-0.3-0.3-0.5-0.5-0.9-0.8c-0.6-0.4-1.2-0.3-1.6,0.4c-0.4,0.7-0.5,1.4-0.5,2.2
		c-0.1,1.1-0.4,1.4-1.5,1.5c-2.4,0.1-4.7-0.2-6.8-1.5c-1.9-1.1-3.3-2.6-4.6-4.3c-2.4-3.3-4.3-6.9-6-10.7C3.3,7.5,3.5,7.1,4.5,7.1
		c1.5,0,3.1,0,4.6,0c0.6,0,1,0.4,1.3,1c0.8,2.1,1.9,4,3.1,5.8c0.3,0.5,0.7,1,1.2,1.3c0.5,0.4,1,0.3,1.2-0.4c0.2-0.4,0.2-0.8,0.3-1.2
		c0.1-1.4,0.1-2.9-0.1-4.3c-0.1-0.9-0.6-1.5-1.5-1.6c-0.5-0.1-0.4-0.3-0.2-0.5c0.4-0.4,0.7-0.7,1.5-0.7h5.3c0.8,0.2,1,0.5,1.1,1.4
		l0,5.9c0,0.3,0.2,1.3,0.8,1.5c0.5,0.2,0.8-0.2,1.1-0.5c1.3-1.4,2.2-3,3-4.6c0.4-0.7,0.7-1.5,1-2.2c0.2-0.6,0.6-0.8,1.2-0.8l5.1,0
		c0.2,0,0.3,0,0.5,0c0.9,0.1,1.1,0.5,0.8,1.4c-0.4,1.3-1.2,2.4-2,3.5c-0.9,1.2-1.8,2.3-2.6,3.5C30.4,16.6,30.5,17.2,31.4,18.1
		L31.4,18.1z"/>
</g>
</svg>
