<?xml version="1.0" encoding="utf-8"?>
<!-- Generator: Adobe Illustrator 20.1.0, SVG Export Plug-In . SVG Version: 6.00 Build 0)  -->
<svg version="1.1" id="Layer_1" xmlns="http://www.w3.org/2000/svg" xmlns:xlink="http://www.w3.org/1999/xlink" x="0px" y="0px"
	 viewBox="0 0 1424.3 647.8" style="enable-background:new 0 0 1424.3 647.8;" xml:space="preserve">
<style type="text/css">
	.st0{fill:#F7F4EC;}
	.st1{fill:none;stroke:#FFFFFF;stroke-width:2;stroke-miterlimit:10;}
	.st2{fill:#FFFFFF;}
	.st3{fill:#CBD8E0;}
	.st4{fill:#9BC34C;}
	.st5{fill:#AED476;}
	.st6{fill:#BBE2F0;}
	.st7{fill:#E4ECF0;}
	.st8{fill:#ADADAD;}
	.st9{fill:#EFF3F5;}
	.st10{fill:none;stroke:#FFFFFF;stroke-miterlimit:10;}
	.st11{fill:#C1C1C1;}
	.st12{fill:#D8D8D8;}
	.st13{fill:#EAEAEA;}
	.st14{fill:none;stroke:#FFFFFF;stroke-width:9;stroke-miterlimit:10;}
	.st15{fill:#00ACD9;}
	.st16{fill:#009FCD;}
	.st17{fill:#A1DBEA;}
	.st18{fill:#96CDEF;}
	.st19{fill:#DEE5EA;}
	.st20{fill:#3B90CE;}
	.st21{fill:#C9C9C9;}
	.st22{fill:none;stroke:#3B90CE;stroke-width:11;stroke-miterlimit:10;}
	.st23{fill:#F1F4F6;}
	.st24{fill:#212233;}
</style>
<g>
	<path class="st0" d="M198.5,407.3L40.2,463.6c-2.3,0.8-4.8,0.7-7.2,0.8c-11,0.3-31.3-9.9-32.8-36.5c-2-33.8,24.6-39.2,31.3-42.9
		s2.8-11.8,2.8-11.8s-15.2-51.3-15.7-74.6c-3.4-140.1,83-205.4,83-205.4l32.9-22.3l1.8,1.4l3,2.1c0,0,27.6-4.1,39.8-4.1
		s13.2,7.3,13.2,7.3s38.5,2.6,39.7,3.4c1.2,0.7,3.3,1.9,2.8,5.3c-0.5,3.4-4,3.9-7.6,4.2s-39.9-2.8-39.9-2.8l-2.5,34.6
		c0,0,70.4,6.5,74.5,6.9c4.2,0.4,77.7,6.7,77.7,6.7s62.7,5.6,72.3,6.4c9.6,0.8,81.7,7.7,87.8,7.6c6.1-0.1,77.5,7.1,79.8,7.4
		c2.3,0.2,78.7,6.6,78.7,6.6s65.1,6,66.7,6.2c1.6,0.2,69.6,6.7,70.6,6.3s7.4-1.2,8.9-13.5c1.5-12.4,2.1-17.5-6.3-19.9
		c-8.4-2.3-37.4-4-43.7-4.9c-6.3-1-40.8-4.3-42.6-4.1s-27.9-2.9-31.5-3.1s-25.3-2.5-27.5-2.9c-2.2-0.4-4.9-0.3-5.9-1
		c-1.1-0.7-0.8-3-0.9-4c0-1-0.6-6.2,10.4-4.7c1.2,0.2,2.4-0.9,3-2.5c0.8-2.1,0-4.5-1.9-5.9c-1.5-1.1-3.9-3.4-4.1-7.1
		c0,0,0.2-2.1-4.4-5.7c-4.7-3.6-10.2-8.2-18.8-8.2c-8.5,0-15.1,0.6-16.4,0.3s-4.7-1.1-8.5-4.3s-6.2-5.2-9.6-6
		c-3.4-0.7-6.5-3.1-6.5-3.1s-2.1-2.1-6.4,1.6c-4.3,3.7-6,3.1-9.6,7.7c-3.6,4.6-9.6,7.3-9.6,7.3s-7.4,3-8.4,3.9c0,0-6.5,2.6-18.9-5.4
		c-8.3-5.4-9.8-6.8-10.9-8.4c-1-1.6-7.2-4.3-9.2-4.5c-2-0.2-8.2-1.7-10.9-4.1c-2.7-2.5-3.6-5.7-7.8-7.4s-9.9-8.3-9.9-8.3
		s-5.2-5.9-7.6-9.9c0,0-2.6-7.9-3.7-8.1c-1.1-0.2-2-4.9-0.6-7.6s-1.4-9.1-1.5-9.8c-0.1-0.7,1.6-8.7,8.4-11.7
		C486.8,7.7,507.8,0,507.8,0s12.7,0.1,19.1,2.3c6.4,2.2,14.7,1,14.7,1s4.1,0.3,4.9,9c0.4,4.1,5.4,6,8.7,6c3.3,0,15.5,2.6,17.9,2.3
		c2.5-0.2,12.2-4.7,15.4-1.6s9.6,9.6,16.6,9.1c7-0.5,23.8-6.1,27.4-10s29.9,3.9,29.9,3.9s35.4,10.1,38.6,10.8
		c3.2,0.7,12.2,7.1,19.2,11c7,3.9,13.2,5.3,16,5.3s41.4,14.5,41.4,14.5l0.9-1.5l26.7,10.1l5.4,10.7l5.5,3.7l-23.6,44.7
		c0,0,20.6,2.6,23.6,0.2c2.9-2.5,9.5-13.5,11.3-17.8c1.8-4.3,10.2-21.5,14.7-21.9c4.5-0.3,19.3,3.4,25.3,7.4c6,3.9,4.3,6.1,7.5,6.2
		c3.2,0.1,6.3-1.8,9.3,1.9c2.9,3.7,9.3,8.8,17.1,10.9c7.9,2.1,34.2,17.1,38.3,19.8s27,10.9,32,14.3c5,3.4,18.2,8,29.8,10.3
		c11.6,2.3,43.7,11.6,46,12s27.8,5.7,35.4,5.2c5.9-0.4,13.9-5.8,22.4-6.1l1.2,0l1.7,0.1l1.7,0.3c0.9,0.2,1.8,0.5,2.7,0.8
		c6.9,2.8,15.2,1.6,17.3,1.3c2-0.2,16.5-1.1,27.6,3.6c0,0,32.1,7.8,36.9,10.1c4.8,2.4,28.2,8.3,37.3,11.4
		c33.4,11.6,60.1,9.7,60.1,9.7c-13.1,17.6,2.4,30.9,2.4,30.9c46.5,47.2-14.4,154.2-14.7,179c-0.3,24.8,17.5,69.6,38.7,98.6
		c21.1,29,7.3,91,1.3,91.8c-12.9,1.8-33.3,4.1-33.3,4.1l-3.1-3.6l-10.2,1.5c0,0-0.7-2.1-4.4-5.6c-3.8-3.4-33.9-3.6-37.2-3.6
		c-3.3,0-36.3-0.4-36.3-0.4s-4.9-4.3-13.5-4.3c-8.6,0-25.6-2.1-28.4-3.2c-2.8-1.1-13.9-3.5-20.3-4.2c-6.5-0.7-25.5-7.6-27-7.9
		c-1.5-0.2-11.6,0.4-19.5-3.6c-7.9-4-25.1-8.8-27.1-9.1c-2-0.3-3.2,1.2-3.2,1.2c-0.6,2.8-1.9,5.4-3.4,6.1s-4.2,0-4.2,0l-21,68.2
		h-10.1c0,0,18.3-58.9,19.8-66c1.5-7.2-11.6-11-16-11.7c-4.4-0.7-11.5-2.7-19.8-4.3c-8.2-1.5-20.6-7.4-23.2-8.3
		c-2.6-0.9-5.1,2-6.3,2.1c-1.2,0.1-24.7-0.9-29.7-2.3s-12.7-0.4-15.3,0.2c-2.6,0.7-19.7-0.1-20.7-0.5c-1.1-0.4-10.2-1.4-10.2-1.4
		l-1-6.1c0,0-8.2,1-15,1.1s-14.3,3.3-14.3,3.3l-20.1,0.5l-0.5-3.2c0,0-0.4-0.2-4.1-0.3c-3.7-0.1-32.4-1.4-38.8-1.9
		c-6.4-0.6-8.3,2-14.4,2.2c-6.1,0.2-9.8-4.3-14.5-5.5c-4.8-1.3-4.8,2.8-8.9,5.5c-4.2,2.7-13.7,0.5-16.1-0.6c-2.5-1.1-9.8,0.1-12.5,0
		c-2.7-0.1-2.9-1.2-6.1-2s-7.6-0.7-7.9-1.4c-0.3-0.7,0.4-5.8,0-7.7s-3.9-7.8-10.3-13.1s-12.2-6.6-16.5-1.3c-4.4,5.3-8.8,6.3-13.3,7
		c-4.4,0.7-17.8-3.4-20.8-6.5c-3-3.1-9.7-6.3-9.7-6.3c-7.4,2.9-11.9,0-11.9,0l-25.2-12c0,0-48.8-22.3-57.6-26.3
		c-8.8-3.9-8.2-8-10-15.8c-1.8-7.8-5.7-7.1-13.5-7.6c-7.9-0.4-7.5,5.2-7.5,5.2s-1,15.9-2.3,24.6c-1.4,8.7-2.5,8.2-2.5,8.2
		s-12,0.2-13.4,0.1c-14.2-1.3-5.8-0.6-16,0.5s-12.9-1.5-16.8-3c-3.9-1.5-13.6-17-14.6-18.3s-4.6-7.1-5.1-7.5
		c-0.6-0.4-3.2-2.7-3.8-3.7c-2.4-3.8-5.6-4.4-5.6-4.4s-11.6-2.8-19.7-7.7c-8.1-4.9-15.5-2.8-18.3-3c-2.7-0.2-22.9-4.5-34.1-6
		c-11.2-1.5-13.8,1.7-13.8,1.7s-13.2,13.8-13.6,14.3s-1.6,12.4-1.6,12.4l-24.5-3.4l1-7.6l21.5,3.3c0,0,0,0.1,0-2
		c0-2.1-2.2-3.4-4.4-5.3c-2.2-1.9-9-17-11.1-19.7c-2.2-2.8-9.4-0.9-10.9-2.5c-1.5-1.5-3.8-2.2-3.8-2.2l-4.4,34l-65.2-8l4.7-36.3
		c0,0-3.4-0.6-5-1.7c-5.1-3.5-10.8-5.1-20.3-5.7C211.9,412.8,198.5,407.3,198.5,407.3"/>
</g>
<g>
	<path class="st1" d="M1129.4,455.6"/>
</g>
<g>
	<g>
		<path class="st2" d="M548.5,466l4.9-13.8l-4.5-1.4c0,0-22-6.8-23.9-7.6c-1.9-0.8-13.3-2.2-13.3-2.2l-21.8,0.6l0.4-17.6l1.4-36.1
			l0.9-31.1l-0.4-5.9l-1.4-6.5L488,337l-7.1-12l-6.8-12.9l-2.5-10.7v-10.7l2.1-9.3l4.8-11.1l5.8-8.6l9.5-10.1l8-11.6l2.8-11
			l10.2-66.1l-2.2-2.7l-135.9-10.6l-137.7-6.6l-108.3,81.6c0,0-9.2-2.3-17.1-1.1c-7.9,1.2-16.4,1.3-16.4,1.3
			c-5.3-19.1,8.8-76.4,8.8-76.4l11.6,6.8c0,0,0.9-17.6,9.5-17.6c14-0.1,13.2,15.1,13.2,15.1l15.3-15.9l-1.6-3.9l11.8-8.3l0.6,0.4
			c0,0,11.3,5.9,14.3,5.3c2.4-0.5,6.6-5.7,8.2-7.8c-2.7-0.2-4.2-0.4-4.2-0.4l2.5-34.6c0,0,36.3,3.1,39.9,2.8s7.1-0.8,7.6-4.2
			c0.5-3.4-1.6-4.6-2.8-5.3c-1.2-0.7-39.7-3.4-39.7-3.4s-0.9-7.3-13.2-7.3c-12.2,0-39.8,4.1-39.8,4.1l-3-2.1l-1.8-1.4l-32.9,22.3
			c0,0-86.4,65.3-83,205.4c0.6,23.4,15.7,74.6,15.7,74.6s3.9,8.1-2.8,11.8S-1.9,394,0.1,427.8c1.6,26.6,21.8,36.8,32.8,36.5
			c2.5-0.1,4.9,0,7.2-0.8l158.4-56.3c0,0,13.3,5.5,22.8,6.1c9.5,0.6,15.2,2.2,20.3,5.7c1.6,1.1,5,1.7,5,1.7l-4.7,36.3l65.2,8l4.4-34
			c0,0,2.2,0.7,3.8,2.2c1.5,1.5,8.8-0.3,10.9,2.5c2.2,2.8,8.9,17.8,11.1,19.7c2.2,1.9,4.4,3.3,4.4,5.3c0,1.9,0,2,0,2v0v0l-21.5-3.3
			l-1,7.6l24.5,3.4c0,0,1.3-11.8,1.6-12.4s13.6-14.3,13.6-14.3s2.6-3.1,13.8-1.7c11.2,1.5,31.3,5.8,34.1,6c2.7,0.2,10.1-2,18.3,3
			c8.1,4.9,19.7,7.7,19.7,7.7s3.2,0.6,5.6,4.4c0.6,1,3.3,3.3,3.8,3.7c0.6,0.4,4.1,6.1,5.1,7.5s10.7,16.9,14.6,18.3
			c3.9,1.5,6.6,4.1,16.8,3c10.2-1.1,1.8-1.8,16-0.5c1.4,0.1,13.4-0.1,13.4-0.1s1.2,0.5,2.5-8.2s2.3-24.6,2.3-24.6s-0.3-5.7,7.5-5.2
			c7.9,0.4,11.7-0.2,13.5,7.6c0.2,0.8,0.4,1.6,0.5,2.4c-0.1-1.1-0.1-1.8-0.1-1.8L548.5,466z"/>
	</g>
	<g>
		<path class="st0" d="M547.8,472.7c0.9,2.6,2.4,4.7,5.9,6.7c-1.8-1.5-3.1-2.6-3.6-3.1C549.1,475.3,548.4,474.1,547.8,472.7z"/>
	</g>
	<g>
		<path class="st0" d="M752.3,551.4c3.8,0.7,8.8,1.1,11.5-0.7c1.9-1.2,3-2.8,4-4C762,544.9,756,548.4,752.3,551.4z"/>
	</g>
	<g>
		<path class="st0" d="M721.4,540.9c0,2.3-0.3,5.2-0.1,5.7c0.3,0.7,4.7,0.7,7.9,1.4s3.4,1.8,6.1,2c0.1,0,0.2,0,0.3,0
			c-3.5-1.8-7.3-4.1-10.8-7C723.8,542.1,722.6,541.4,721.4,540.9z"/>
	</g>
	<g>
		<path class="st0" d="M655.4,163.7c0,0-4.7-0.4-11.9-1l59.4,5.4C683.2,166.3,655.4,163.7,655.4,163.7z"/>
	</g>
	<g>
		<path class="st0" d="M787.3,550.7c3.6-0.1,5.7-1.1,8.2-1.7l-16.9-1.1C781.1,549.4,783.8,550.8,787.3,550.7z"/>
	</g>
	<g>
		<path class="st3" d="M1036.9,581.3c-1.5,7.2-19.8,66.1-19.8,66.1h10.1l20.6-67.1c-3.3-0.7-7.2-1.7-11.6-2.9
			C1036.9,578.5,1037.2,579.8,1036.9,581.3z"/>
	</g>
	<g>
		<path class="st2" d="M1410.1,470.5c-37.5-77.8-52.1-121.2-48.3-153.6c2.3-19.5,5-39.5,10.1-70.1c5.3-32.1-17.3-59.9-17.3-59.9
			c-23.7,24.7-62.2,24.5-62.2,24.5s-24.6,2.3-60.1-9.7c-9.1-3.1-32.5-9.1-37.3-11.4c-4.8-2.4-36.9-10.1-36.9-10.1
			c-14.9-4.4-25.6-3.8-27.6-3.6c-2,0.2-10.4,1.5-17.3-1.3c-0.9-0.4-1.8-0.6-2.7-0.8l-1.7-0.3l-1.7-0.1l-1.2,0
			c-8.4,0.3-16.5,5.7-22.4,6.1c-7.6,0.5-33.1-4.9-35.4-5.2c-2.3-0.3-34.3-9.7-46-12c-11.6-2.3-24.8-7-29.8-10.3
			c-5-3.4-27.8-11.6-32-14.3s-30.5-17.7-38.3-19.8c-7.9-2.1-14.2-7.2-17.1-10.9c-2.9-3.7-6.1-1.8-9.3-1.9c-3.2-0.1-1.5-2.3-7.5-6.2
			c-6-3.9-20.8-7.7-25.3-7.4c-4.5,0.3-12.9,17.6-14.7,21.9c-1.8,4.3-8.4,15.3-11.3,17.8s-23.6-0.2-23.6-0.2l23.6-44.7l-5.5-3.7
			l-5.4-10.7l-26.7-10.1l-0.9,1.5c0,0-38.6-14.5-41.4-14.5s-9-1.4-16-5.3c-7-3.9-16-10.3-19.2-11s-38.6-10.8-38.6-10.8
			s-26.3-7.7-29.9-3.9s-20.4,9.5-27.4,10s-13.4-6-16.6-9.1s-12.9,1.4-15.4,1.6c-2.5,0.2-14.6-2.3-17.9-2.3c-3.3,0-8.4-2-8.7-6
			c-0.8-8.7-4.9-9-4.9-9s-8.4,1.2-14.7-1c-6.4-2.2-19.1-2.3-19.1-2.3s-21,7.7-27.8,10.7c-6.8,2.9-8.4,8.1-8.4,11.7
			c0,0.7,2.8,7.1,1.5,9.8c-1.4,2.7,0,6.7,0.6,7.6c0.5,0.8,1.1,2,1.7,3.3c2.1,4.8,4.9,9.3,8.4,13.3c0.7,0.8,1.2,1.4,1.2,1.4
			s5.7,6.6,9.9,8.3s5.1,4.9,7.8,7.4c2.7,2.5,8.9,3.9,10.9,4.1c2,0.2,8.1,2.9,9.2,4.5s2.6,3,10.9,8.4c12.4,8,18.9,5.4,18.9,5.4
			c1-0.9,8.4-3.9,8.4-3.9s6-2.7,9.6-7.3c3.6-4.6,5.3-4,9.6-7.7c4.3-3.7,6.4-1.6,6.4-1.6s3.1,2.3,6.5,3.1c3.4,0.7,5.8,2.7,9.6,6
			c3.8,3.2,7.2,4.1,8.5,4.3c1.3,0.3,7.9-0.3,16.4-0.3s14.1,4.6,18.8,8.2c4.7,3.6,4.4,5.7,4.4,5.7c0.2,3.7,2.6,6,4.1,7.1
			c1.8,1.4,2.7,3.7,1.9,5.9c-0.6,1.5-1.8,2.6-3,2.5c-11-1.5-10.4,3.7-10.4,4.7c0,1-0.2,3.2,0.9,4c1.1,0.7,3.8,0.6,5.9,1
			c2.2,0.4,23.9,2.8,27.5,2.9c3.6,0.2,29.7,3.3,31.5,3.1s36.3,3.2,42.6,4.1c6.3,1,35.3,2.6,43.7,4.9c8.4,2.3,7.7,7.5,6.3,19.9
			c-1.4,12-7.5,13.1-8.8,13.5l20.8,1.9l0.7,11.3l17.1,1.9l25.4,5.9l18.3,6.8l19.5,8.8l26.3,15.4l1.9,3.6l17.2,0.9l37.7,3.4l27.5,2.1
			l30,2.1l27.4,2l20.6,0.8l27,0.8l20.2,235l18.4-2.3l2.2,44.4h20.2l26.7,46.5l-20.1,2.8l3.1,29.4c0.1,0,0.2,0,0.4,0
			c8.6,0,13.5,4.3,13.5,4.3s32.9,0.4,36.3,0.4c3.3,0,33.5,0.2,37.2,3.6c3.8,3.4,4.4,5.6,4.4,5.6l10.2-1.5l3.1,3.6
			c0,0,20.3-2.3,33.3-4.1C1320,611.7,1470.1,595,1410.1,470.5z"/>
	</g>
	<g>
		<path class="st4" d="M792.6,176.2c0,0,0.1,0,0.1,0l-89.8-8.1c10.4,1,18.6,1.7,19.1,1.8C723.6,170.2,791.6,176.6,792.6,176.2z"/>
	</g>
	<g>
		<path class="st4" d="M547.8,472.7c-0.6-1.6-0.9-3.5-1.3-5.6C546.7,468.6,547,470.7,547.8,472.7z"/>
	</g>
	<g>
		<path class="st4" d="M336.8,135.8c0,0,62.7,5.6,72.3,6.4c9.6,0.8,81.7,7.7,87.8,7.6c6.1-0.1,77.5,7.1,79.8,7.4
			c1.7,0.2,45.3,3.8,66.9,5.6l-454-41c0,0-0.3,0.3-0.7,0.9c15.2,1.4,66.8,6.1,70.3,6.5C263.3,129.5,336.8,135.8,336.8,135.8z"/>
	</g>
	<g>
		<path class="st0" d="M840.5,550.4c-3.7-0.1-32.4-1.4-38.8-1.9c-2.6-0.2-4.5,0.1-6.2,0.5l6.7,0.4l42.7,2.8l-0.2-1.5
			C844.6,550.8,844.2,550.5,840.5,550.4z"/>
	</g>
	<g>
		<path class="st5" d="M1197.9,567.2l-26.7-46.5H1151l-2.2-44.4l-18.4,2.3l-20.2-235l-27-0.8l-20.6-0.8l-27.4-2l-30-2.1l-27.5-2.1
			l-37.7-3.4l-17.2-0.9l-1.9-3.6l-26.3-15.4l-19.5-8.8l-18.3-6.8l-25.4-5.9l-17.1-1.9l-0.7-11.3l-20.8-1.9c0,0-0.1,0-0.1,0
			c-1,0.4-69-6.1-70.6-6.3c-0.6-0.1-8.7-0.9-19.1-1.8l-59.4-5.4c-21.6-1.8-65.2-5.4-66.9-5.6c-2.3-0.2-73.7-7.5-79.8-7.4
			c-6.1,0.1-78.2-6.8-87.8-7.6c-9.6-0.8-72.3-6.4-72.3-6.4s-73.5-6.3-77.7-6.7c-3.6-0.4-55.1-5.1-70.3-6.5c-1.6,2.1-5.8,7.3-8.2,7.8
			c-3.1,0.7-14.3-5.3-14.3-5.3l-0.6-0.4l-11.8,8.3l1.6,3.9l-15.3,15.9c0,0,0.8-15.2-13.2-15.1c-8.5,0.1-9.5,17.6-9.5,17.6l-11.6-6.8
			c0,0-14.1,57.3-8.8,76.4c0,0,8.6-0.1,16.4-1.3c7.9-1.2,17.1,1.1,17.1,1.1l108.3-81.6l137.7,6.6l135.9,10.6l2.2,2.7l-10.2,66.1
			l-2.8,11l-8,11.6l-9.5,10.1l-5.8,8.6l-4.8,11.1l-2.1,9.3v10.7l2.5,10.7l6.8,12.9l7.1,12l2.9,7.4l1.4,6.5l0.4,5.9l-0.9,31.1
			l-1.4,36.1l-0.4,17.6l21.8-0.6c0,0,11.4,1.4,13.3,2.2c1.9,0.8,23.9,7.6,23.9,7.6l4.5,1.4l-4.9,13.8l-2.2-0.7c0,0,0,0.7,0.1,1.8
			c0.4,2.1,0.8,4,1.3,5.6c0.5,1.3,1.3,2.6,2.3,3.6c0.5,0.5,1.8,1.6,3.6,3.1c0.7,0.4,1.4,0.8,2.3,1.1c8.8,3.9,57.6,26.3,57.6,26.3
			l25.2,12c0,0,4.4,2.9,11.9,0c0,0,6.7,3.3,9.7,6.3c3,3.1,16.3,7.1,20.8,6.5c4.4-0.7,8.9-1.7,13.3-7c4.4-5.3,10.1-4,16.5,1.3
			s10,11.2,10.3,13.1c0.1,0.5,2.5,3.1,3.5,4c3.4,3,7.2,5.3,10.8,7c2.9,0,9.8-1.1,12.1,0c0.9,0.4,2.6,0.9,4.6,1.3
			c3.7-3,9.7-6.5,15.6-4.6c1.2-1.3,2.4-2.2,4.9-1.5c2,0.5,3.9,1.7,5.8,2.8l16.9,1.1c1.7-0.5,3.6-0.8,6.2-0.5
			c6.3,0.6,35.1,1.8,38.8,1.9s4.1,0.3,4.1,0.3l0.2,1.5l19.3,1.3l1,0c0,0,7.5-3.2,14.3-3.3c6.8-0.1,15-1.1,15-1.1l0.7,4.3
			c2.2,0.4,8,1.2,12.1,1c4.7-0.2,17.5-1.4,25.5,1.8c3-0.2,6.4-0.1,9,0.6c5,1.4,28.6,2.5,29.7,2.3c1.2-0.1,3.7-3,6.3-2.1
			c2.6,0.9,15,6.8,23.2,8.3c8.2,1.5,15.3,3.6,19.8,4.3c3.5,0.6,12.6,3.1,15.4,7.8c4.3,1.2,8.3,2.2,11.6,2.9l0.3-1.1
			c0,0,2.6,0.7,4.2,0c1.5-0.7,2.9-3.3,3.4-6.1c0,0,1.2-1.5,3.2-1.2c2,0.3,19.2,5.1,27.1,9.1c7.9,4,18,3.3,19.5,3.6
			c1.5,0.2,20.5,7.2,27,7.9c6.5,0.7,17.5,3.1,20.3,4.2c2.8,1.1,19.3,3.1,28,3.2l-3.1-29.4L1197.9,567.2z"/>
	</g>
</g>
<g>
	<path class="st2" d="M490.4,442.6l-2.2-0.1c0-0.8,3.1-78.2,3-88.4c-0.1-9.8-5.8-17.8-5.8-17.9l0-0.1c0-0.1-4.3-7-11-19.2
		c-6.4-11.7-4.3-25-4.2-25.6l2.2,0.4l-1.1-0.2l1.1,0.2c0,0.1-2.1,13.2,3.9,24.2c6.4,11.7,10.6,18.5,10.9,19
		c0.5,0.7,6.1,8.8,6.2,19.1C493.6,364.4,490.5,441.8,490.4,442.6z"/>
</g>
<g>
	<g>
		<path class="st5" d="M211.5,263.8l-21,33.6l-10.9-5.4c0,0,2.8,7.2,6.1,12.7"/>
	</g>
	<g>
		<path class="st5" d="M185.6,304.7c8.4,14.2,21.3,25,36.5,30.4v-4.4h41.8v4.6c27.7-9.4,47.7-37.1,47.7-69.8
			c0-40.4-30.6-73.2-68.3-73.2c-22.5,0-42.5,11.7-54.9,29.7c0,0-3.5,4.2-6.6,13.7s9.5-4.7,9.5-4.7s9.1,0.1,8.7,1.6
			c-0.5,1.4,10.4,29.2,10.4,29.2"/>
	</g>
</g>
<g>
	<path class="st2" d="M472.4,291.8l-2.2-0.3l0.2-1.7c0-1,0.7-12.7,8.6-23.1c7.9-10.4,14.2-16.9,14.3-16.9l0,0
		c0.1-0.1,7-6.9,8.9-16.5c2-10,10.7-70.9,10.8-71.5l2.2,0.3c-0.1,0.6-8.8,61.5-10.8,71.6c-2,10.2-9.1,17.2-9.6,17.7
		c-0.3,0.3-6.5,6.7-14.1,16.7c-7.6,10-8.1,21.8-8.1,21.9l0,0.1L472.4,291.8z"/>
</g>
<g>
	<path class="st1" d="M469,292.9"/>
</g>
<g>
	<path class="st2" d="M477.1,271.6l-101.5-9.3c-3.2-0.3-5.6-3-5.6-6.2l1.4-106.4l2.2,0l-1.4,106.4c0,2,1.5,3.8,3.6,4l101.5,9.3
		L477.1,271.6z"/>
</g>
<g>
	<path class="st6" d="M611.8,181.9c0,0-14.8,22.2-19.7,26.1c-4.9,3.9-14.3,10.5-15.2,15.2c-0.9,4.7-2.4,9.2-4.8,12.4
		c-2.4,3.2-9.2,8.6-6.8,14c2.3,5.4,14.3,14.1,14.3,14.1s7.1,7.7,21.2,10.5c14.1,2.8,20.1,6.3,26.7,0.4s7.7-23.9,5.7-29
		c-2-5.1-4.9-14.5-11.5-19.2s-8.8-5.8-9.4-8.7c-0.6-2.9,1.5-7.3,5-11.1c3.5-3.8,13-18.7,13-18.7s2.6-5.7-2.7-6.6
		c-5.3-0.9-12.6-0.8-12.6-0.8S612.9,180.3,611.8,181.9z"/>
</g>
<g>
	<path class="st6" d="M830.4,232.1c0,0,2,2.1,3.8,2.5s2.3-1.8,6.3-3.7c6.1-2.9,9.6,2.4,9.6,2.4s5.4,8.5,6.5,8.9s4.1,3.2,4.8,6.6
		c0.4,1.7,0.8,3.3,1.1,4.4c0.3,1.1,0.8,2.1,1.5,3c0.9,1.3,2.5,3.5,4.3,6.1l-3.5,2.2l4.2,9.7l5.2-3.5c5.2,7.3,6.3,11.1,5.3,18.4
		c-1,7.2-2.9,16.5-7.6,19.5c-4.7,3.1-13.2,1.6-20-1.5c-6.8-3.2-5.2-12.6-6.2-29.5c-1-16.9-18.8-42.3-18.8-42.3"/>
</g>
<g>
	<path class="st6" d="M822.5,230.6c-2.3-2.9-5.9-7.4-6.7-8.6c-0.7-1-5-4.7-14.5-13.4c-5.3-4.7-6.8-8.4-7.2-10.8
		c-0.3-2,0.9-3.8,2.8-4.4c1.8-0.5,4.6-0.7,8.7,0.4c8.4,2.3,15.9,9.3,20.4,13c4.4,3.6,8.4,5.5,5.3,11.7c-2.6,5.1-5.2,6-4.4,8.4"/>
</g>
<g>
	<path class="st1" d="M824.6,233.1"/>
</g>
<g>
	<path class="st6" d="M534.4,429.3c0,0,8.1-16,13.2-18.1c5.2-2,19.1-2.9,36.8-0.5c17.8,2.5,17.6,1.2,19.7,0.3
		c2-0.9,7.6-2.3,16.4-2.3s8.9,0.9,11.2,1.5c2.3,0.7,20.6-1.4,34.1-6.6c13.5-5.3,23.4-9.6,31.6-9.4c8.2,0.2,11.4-3.2,14.1-3.9
		c2.8-0.7,7.4-1.4,13.9,4.1c6.6,5.5,9.4,9,10.6,11.5c1.2,2.5,0.9,23.4-4.9,28.7c0,0-5.3,5.4-12.4,4.5c-7-0.9-20.5-6.3-25.4-12.5
		c-4.9-6.2-13.5-7.5-20-3.4c-6.5,4.1-15.3,7.3-33.4,6.6c-18.1-0.6-45.8-0.4-57.8,1.8c-12,2.3-21.9,2.8-21.9,2.8s-6-0.1-12.2,4.8
		c-1.6,1.2-8.4,0.6-9.9-0.8c-1.5-1.4-1.9-2.2-1.9-2.2l1.4-1l-3.5-5.5L534.4,429.3z"/>
</g>
<g>
	<path class="st6" d="M1039.7,550.1c-10.3-7-29.1-16.8-31.3-18.6c-2.3-1.8-18.8-14.1-20.4-15.1c-1.6-1-23.5-15.3-23.5-15.3
		s-3.9-2.9-5.4-7.2s-5.4-13.5-5.4-13.5l-5.6,0.8c0,0,4.9,18.7,10.7,23.2c5.8,4.4,21.7,16.3,27.9,20c6.2,3.7,34.2,20.3,39.1,23.2
		c4.9,2.9,19.3,15.1,21.1,15.9c1.8,0.7,5.8,1.2,7,0C1055.1,562.1,1050.1,557.1,1039.7,550.1z"/>
</g>
<g>
	<path class="st7" d="M1022.7,629.2c0,0-0.8-0.3-3.4-0.7c-2.6-0.4-10.6,0.3-14.4,0s-3.6-1-5.1-2.8c-1.5-1.8-4.4-3.9-6.6-5.9
		c-2.2-2-7.4-5.7-7.4-5.7s-0.7-5-0.7-6s0.9-1.4,2.2-1.8s9.8,0.4,9.8,0.4s9.3,1.7,14.6,4.1s15,5.1,15,5.1"/>
</g>
<g>
	<path class="st7" d="M1036.4,617.2c0,0,10.1-3.2,14.3-0.4c4.2,2.8,5.5,3.7,5.3,4.4c-0.2,0.7-2.8,2-3.4,4.2s-0.1,7.3-2.1,8.2
		c-2,0.9-4.3,2.9-7.9,2.2c-3.6-0.7-10.8-3.8-10.8-3.8"/>
</g>
<g>
	<polygon class="st8" points="1125.2,312.9 1142.1,312.1 1142.9,328 1125.9,329.1 	"/>
</g>
<g>
	<path class="st2" d="M541.5,110.9l91.2,6.1c1.3,0.1,2.3,1,2.6,2.2c0.2,0.7,0.3,1.6,0.3,2.8c0,4.4-4.2,4.5-6.4,4.4l-116.6-8.5
		c0,0-63.5-4.3-66.2-4.3c-2.7,0-41.4-6.9-47.3-7.9c-5.9-1-70.4-6.9-75.5-6.9c-5,0-70.7-5.8-72.8-6.1c-2.2-0.3-5.5-0.2-7.3-3.3
		c-0.5-0.9-0.6-3.3-0.5-4.9c0-0.8,0.7-1.3,1.4-1.3l78.9,5.1c0,0,1.2,0.8,7.3-6.7c6.1-7.5,21.6-25.6,23.2-26.2
		c1.6-0.6,12.1-5.8,24.3-7.7c12-1.8,24.6-5.6,35.6-2.1c11,3.4,31.1,10.6,32,11c0.9,0.4,2.8,2.8,9.5,5.6c6.8,2.8,8.9,4.3,12,9.2
		c1.2,1.9,16.3,11,18.4,12c2,1,24.2,14.6,27.4,17.2c3.2,2.6,8.9,4.1,10.2,4.9c1.3,0.8,9,4.5,12.4,5.2
		C536.9,110.7,541.5,110.9,541.5,110.9z"/>
</g>
<g>
	<path class="st1" d="M1353.8,363.1"/>
</g>
<g>
	<path class="st1" d="M1121.6,346.5"/>
</g>
<g>
	<polygon class="st9" points="1083.9,298.9 1086.5,321.3 1097.8,320.1 1097.3,315.3 1103.2,314.7 1101.5,299.8 1094.5,300.7 
		1094.1,297.7 	"/>
</g>
<g>
	<polygon class="st3" points="1128.2,246.7 1123.6,250.7 1127.9,254.2 1129.8,276.6 1126.5,280.8 1130.9,284.3 1134.7,280.8 
		1140.6,280.6 1146.5,287.1 1143.8,290.9 1149.1,294.4 1152.6,290 1149.2,286.7 1153.3,282.8 1148.2,277.1 1143.7,275 1134.8,275.3 
		1133.1,254.8 1140,254.4 1143.9,258 1149.9,257.2 1149.9,263 1151.7,264.6 1153.3,262.7 1153.1,256.8 1156.3,253.1 1151.9,249.6 
		1148.8,253.4 1146.8,253.4 1142.2,249.1 1132.1,249.8 	"/>
</g>
<g>
	<path class="st1" d="M628.5,118"/>
</g>
<g>
	<path class="st1" d="M704.8,144.8"/>
</g>
<g>
	<polygon class="st9" points="1005.2,402.7 1004.7,425.9 1008.4,425.9 1008.4,431.5 1020.7,431.5 1020.7,430.3 1024.9,430.2 
		1024.9,425.9 1029.7,420.7 1033.6,424.2 1037.2,420.1 1053.1,420.6 1053.3,408.2 1039.6,408.2 1039.6,413.1 1032,413.1 
		1019.6,401.8 1018.1,403.2 	"/>
</g>
<g>
	<path class="st9" d="M956.5,413.4l1.2-1.1l0.7,0.6l6.4-4.9l-0.7-0.8l1.4-1.1l1,1l2.2-1.6l2.3,2.6l-1.8,1.6c0,0,2.2,0.1,3.4,1.6
		s1,3.4,1,3.4l1.3-1.1l2.2,2.5L975,418l0.8,0.9l-1.1,0.9l-0.8-0.7c0,0-0.4,2.4-2,3.6c-1.6,1.2-4.4,1.4-4.4,1.4l0.7,0.8l-1.5,1
		l-1-1.1l-2.3,1.7l-1.9-2.1l1.1-0.9c0,0-2.3-0.3-3.2-1.5c-0.8-1.2-1.1-2.3-1.2-3.3l0-0.4l-0.8,0.5l-2.5-2.6l2.4-1.9l-0.9-0.9
		L956.5,413.4z"/>
</g>
<g>
	<polygon class="st9" points="745.9,401.5 745.1,410.1 761.1,411.5 760.1,422.6 744.2,421.2 743.3,429.6 768.6,431.7 770.8,403.6 	
		"/>
</g>
<g>
	<polygon class="st9" points="611.1,476.8 609.3,484.4 626.4,488.8 628.5,481.4 	"/>
</g>
<g>
	<path class="st9" d="M552.8,459.8l0.9,2.2l-1.1,0.2l1.7,4.1c0,0-1,2.8,0.9,5c1.9,2.3,4.7,2.3,5.6,2.4l0.4-0.5l3.5,1.6l0.7-1.3
		l2.1,0.8l0.1-7.3l-3.7-1.2c0,0,0.2-1-0.6-1.7c-0.8-0.6-1.4-0.5-1.4-0.5l-1.3-4.3L552.8,459.8z"/>
</g>
<g>
	<polygon class="st9" points="585.1,474.9 583.5,479.6 588.3,481 589.8,476.2 	"/>
</g>
<g>
	<polygon class="st9" points="629.3,489.3 627.9,493.7 632.7,495.1 634.1,490.7 	"/>
</g>
<g>
	<polygon class="st9" points="628.2,441.6 627,455 648,456.6 648.9,443.2 	"/>
</g>
<g>
	<polygon class="st3" points="400.4,315.1 369.6,312.2 364.5,365 379.5,366.6 379.4,367.7 386.2,368.5 386.3,367.4 394.9,368.4 	"/>
</g>
<g>
	<path class="st2" d="M420.6,408.5l-9.1-0.9l1.4-13.8l9.1,0.9L420.6,408.5z M412,407.1l8.1,0.8l1.3-12.9l-8.1-0.8L412,407.1z"/>
</g>
<g>
	<g>
		<polygon class="st3" points="423.5,391.1 423.6,389.7 413.3,388.8 413.2,390.1 408,389.6 405.4,414.2 410.9,414.8 420.9,415.8 
			425.1,416.3 427.7,391.5 		"/>
	</g>
	<g>
		<path class="st3" d="M420.9,417.7C420.9,417.7,420.9,417.7,420.9,417.7L420.9,417.7z"/>
	</g>
</g>
<g>
	<path class="st3" d="M445.2,335.4l0,0.2l-1.4,20.4c0,0,0.5,10.3,9.8,12.1c9.3,1.7,15.3-3.8,15.3-3.8l7.6,4.6v-5.2l8.8,0.4l-3.1-5.4
		l2.9-1.6l-5.4-11.1l2.5-1.1l-7.7-15.7c0,0-4.9-8.2-14-7.1S445.9,328.7,445.2,335.4z"/>
</g>
<g>
	<polyline class="st3" points="466.9,396.8 467.6,386.3 465.6,386.1 465.3,389.5 447.6,388.1 447.9,384.3 445.9,384.2 445.1,395 
		447.7,395.2 447.7,396.1 451.9,396.4 452.8,395.7 459.5,396.2 460.4,397.2 464.3,397.3 464.3,396.4 466.9,396.5 	"/>
</g>
<g>
	<circle class="st3" cx="457.9" cy="409.4" r="5.1"/>
</g>
<g>
	
		<rect x="908.8" y="250.6" transform="matrix(0.5432 -0.8396 0.8396 0.5432 204.4205 881.7509)" class="st9" width="7.5" height="4.9"/>
</g>
<g>
	<g>
		<polygon class="st9" points="883.5,253.4 882.5,251.2 878,253.2 882,262.2 886.5,260.2 885.4,257.7 		"/>
	</g>
	<g>
		
			<rect x="884.3" y="252.4" transform="matrix(0.9125 -0.409 0.409 0.9125 -26.8444 384.534)" class="st9" width="2.6" height="5.2"/>
	</g>
</g>
<g>
	<rect x="918.8" y="254.8" transform="matrix(0.866 -0.5 0.5 0.866 -4.9888 495.5179)" class="st9" width="6.8" height="4.5"/>
</g>
<g>
	<rect x="995" y="253.2" transform="matrix(0.866 -0.5 0.5 0.866 6.2963 532.7245)" class="st9" width="4.4" height="2.9"/>
</g>
<g>
	<polygon class="st9" points="925.4,271.6 927.2,270.7 925.8,267.7 924,268.6 924,268.6 919.4,270.8 923,278.1 927.6,275.9 	"/>
</g>
<g>
	<path class="st1" d="M896.2,488"/>
</g>
<g>
	
		<rect x="372.7" y="266.7" transform="matrix(0.9949 0.1005 -0.1005 0.9949 29.2493 -39.3859)" class="st5" width="65.4" height="7.7"/>
</g>
<g>
	
		<rect x="370.4" y="293.6" transform="matrix(0.9949 0.1005 -0.1005 0.9949 31.9468 -39.0143)" class="st5" width="65.4" height="7.7"/>
</g>
<g>
	
		<rect x="376.2" y="279.8" transform="matrix(0.9949 0.1005 -0.1005 0.9949 30.5422 -38.7261)" class="st5" width="46.7" height="7.7"/>
</g>
<g>
	
		<rect x="425.8" y="283" transform="matrix(0.9949 0.1005 -0.1005 0.9949 31.0261 -41.9047)" class="st5" width="10.9" height="7.7"/>
</g>
<g>
	<path class="st3" d="M1142.3,358.1l-0.2,2.3c0,0-2.2,0.1-3.2,1.1s-1.8,2.8-1.8,2.8l-2.2-0.2l-0.5,9.1l12.6,1.3l2.8-2.3l1-13.4
		L1142.3,358.1z"/>
</g>
<g>
	<path class="st3" d="M1136,425.6h-0.7V417h3.7v-3.9h-4.4v-7.9h6.9v-8.4h5.2V388h8.4v-3.2h6.1v4.9h-5.4v8.4h-5.2v8.6h-6.9v5.2h1.5
		v5.7h-3.4v8.1l1.8,1.5l28.9-4.6l-1.5-10l-3.2,0.5l-0.9-6.2l8.9-1.3l0.9,6.2l1.3,9.9l1.2,7.4l-34.2,5.4l-2.2,0.3l-2-1.3
		c-0.4,0.8-1.2,1.3-2.1,1.3c-1.3,0-2.3-1-2.3-2.3c0-0.8,0.4-1.6,1.1-2l-1.1-0.7l-0.3-0.2L1136,425.6z"/>
</g>
<g>
	<path class="st3" d="M175,85.1l-0.4,4.8l-8-0.8l-0.3,3.3l-2.1-0.1c0,0-2.6,3.6-2.8,8.4c-0.2,4.7,0.4,7.8,0.4,7.8l0.8,0l-0.1,2.9
		l2.8,5.4l2.6,2.3l5.3,0.4c0,0,0.4,4.7,3.9,4.9c3.5,0.2,6.2-2.8,6.3-4.8c0.1-2.1,0.2-3.6,0.2-3.6l-5.9-0.3l0-2l-1.6-0.1l-0.1,2
		l-0.8,0l0.1-3.7l-1.7,0l0,0.5l-4.9-0.4l0.1-2.4l1.6,0.1l2.1-1l0.2-3.6l1.2,0.1l1.3-14.4l2.9,0.2l0.5-5.7L175,85.1z"/>
</g>
<g>
	<rect x="225.1" y="333.8" class="st3" width="35.6" height="52"/>
</g>
<g>
	<path class="st10" d="M337.1,311"/>
</g>
<g>
	<path class="st5" d="M361.9,161.3l-10.9,8l-18.6,13.4c-1.3,0.9-1.6,2.8-0.7,4.1l7.7,10.7c0.9,1.3,2.8,1.6,4.1,0.7l20.1-14.5
		c0.7-0.5,1.2-1.3,1.2-2.2l0,0l0-9.8l0-8.7C365,161.5,363.3,160.5,361.9,161.3z"/>
</g>
<g>
	<path class="st5" d="M341.7,399l-9.3-9.9l-15.9-16.5c-1.1-1.2-1.1-3,0.1-4.2l9.5-9.2c1.2-1.1,3-1.1,4.2,0.1l17.2,17.8
		c0.6,0.7,0.9,1.5,0.8,2.4l0,0l-1.7,9.7l-1.5,8.6C344.7,399.3,342.9,400,341.7,399z"/>
</g>
<g>
	<path class="st5" d="M360.9,206c0,1.9,1.5,2.3,1.5,2.3h1.8c0,0,1.2-0.1,1.2-1.2c0-1.1,0-1.5,0-1.5s0-8.1,0-13.7c0-5.7-3.3-4-3.3-4
		l-18.2,13.6c0,0-1.6,1.1-0.2,3.6c1.1,1.9,2.6,4.3,3.2,5.2c0.3,0.5,0.7,0.9,1.2,1.1c0.6,0.3,1.6,0.3,2.7-0.4l4.5-2.3
		c0,0,0.8-0.3,0.8-2.7"/>
</g>
<g>
	<path class="st5" d="M351,213.7l3.8-2c1.1-0.6,2.2-0.8,3.4-0.8h4.7c0,0,2.2,0.4,2.2,3c0,2.7,0,20.3,0,20.3s0.1,2-1.4,2.7
		c-1.6,0.7-3.5,1.3-3.5,1.3s-1.9,0.2-2.7-1.9c-0.4-1.2-1-2.8-1.3-3.9c-0.3-0.8,0.1-1.6,0.9-1.9l3.6-1.4l-2.1-5.7l-3.6,1.2
		c0,0-1.3,0.5-2.3-1.9s-2.6-7.5-2.6-7.5S349.8,214.3,351,213.7z"/>
</g>
<g>
	<rect x="356.1" y="200.4" class="st11" width="4.8" height="5.7"/>
</g>
<g>
	<path class="st3" d="M54.5,356.3l16.7-8.6c0,0-12-32.7-11.9-45.1l3.3-0.4l-1.4-14.8l-18.4,1.4C42.8,288.8,44.6,329.2,54.5,356.3z"
		/>
</g>
<g>
	<path class="st1" d="M53.6,355.1"/>
</g>
<g>
	<rect x="725.5" y="508.6" class="st9" width="14" height="14"/>
</g>
<g>
	<rect x="746.1" y="506.3" class="st9" width="29.7" height="14"/>
</g>
<g>
	<rect x="728.3" y="524.5" class="st9" width="31.8" height="15.6"/>
</g>
<g>
	<polygon class="st9" points="970.7,400.5 979.7,393.3 981.6,395.2 980.8,396 981.8,396.9 980.8,397.9 981.5,398.6 976.6,402.3 
		975.2,401.2 972.9,402.9 970.5,400.6 	"/>
</g>
<g>
	<path class="st9" d="M982.6,405.8l0.2,2.1c0.1,1.7-0.1,3.4-0.7,4.9c-0.2,0.6-0.5,1.1-0.8,1.5l8.3,10.1l5.4-4.5l-7.2-8.4l2.1-2.1
		h3.3l0.1-2.3L982.6,405.8z"/>
</g>
<g>
	<rect x="1008.8" y="440.9" class="st9" width="5.7" height="16.3"/>
</g>
<g>
	
		<rect x="717.8" y="62.4" transform="matrix(0.9479 0.3185 -0.3185 0.9479 59.3892 -227.7479)" class="st3" width="16.8" height="10.8"/>
</g>
<g>
	<path class="st3" d="M794.2,72.5l-0.9-0.3l0,0l-15.9-5.4l-3.4,10.3l15.9,5.4l1.7-5.2l0,0l0.9,0.3c1.4,0.5,2.9-0.3,3.4-1.7
		C796.3,74.5,795.6,73,794.2,72.5z"/>
</g>
<g>
	<polygon class="st3" points="763.4,80.3 755.2,77.6 748.2,98.4 742.7,96.5 749.6,75.7 741.4,73 732,101.2 740.2,104 740.2,104 
		746.7,106.2 746.7,106.2 753.9,108.6 	"/>
</g>
<g>
	<polygon class="st9" points="908.6,412.4 903.2,403.1 905,402.1 902.1,397 890.6,403.7 893.5,408.7 895.5,407.5 900.9,416.9 	"/>
</g>
<g>
	
		<rect x="880.5" y="386.2" transform="matrix(0.8842 -0.4671 0.4671 0.8842 -78.9011 459.662)" class="st9" width="14.6" height="5.6"/>
</g>
<g>
	
		<rect x="834.2" y="390.8" transform="matrix(0.8407 -0.5416 0.5416 0.8407 -79.3644 517.3447)" class="st9" width="10.7" height="5.6"/>
</g>
<g>
	
		<rect x="909.7" y="437" transform="matrix(0.8407 -0.5416 0.5416 0.8407 -94.1746 564.6312)" class="st9" width="5.6" height="10.7"/>
</g>
<g>
	
		<rect x="1143.9" y="545.6" transform="matrix(-0.6137 0.7895 -0.7895 -0.6137 2284.354 -22.5597)" class="st12" width="7.7" height="3.8"/>
</g>
<g>
	
		<rect x="834" y="494.1" transform="matrix(0.9871 -0.1601 0.1601 0.9871 -68.1907 142.4714)" class="st2" width="31.9" height="0.5"/>
</g>
<g>
	<path class="st1" d="M1118.3,307.7"/>
</g>
<g>
	<path class="st1" d="M22.3,305.6"/>
</g>
<g>
	<path class="st1" d="M96.4,102.4"/>
</g>
<g>
	<path class="st9" d="M30.5,457.7c-6-2.3-10.9-5.6-14.6-9.8c-4.9-5.5-7.6-12.4-8.2-20.4c-0.7-11.3,2.3-20.4,9-27.3
		c5.6-5.7,12.8-8.7,17.5-10.7c1.7-0.7,3.1-1.3,4.1-1.9c3.5-2,2.1-8.9,2-9.3c-0.7-2.4-13.9-50.7-14.9-66.3
		c-1.3-19.3-0.8-31.4,0.4-44.8c2.2-23.3,7.1-46.2,14.7-68c6-17.5,13.7-34.3,22.9-50c15.6-26.8,30.2-41.4,30.4-41.5l1.6,1.6
		c-0.1,0.1-14.6,14.5-30.1,41.1C51,174.8,32.9,215,28,267.3c-1.3,13.2-1.8,25.3-0.4,44.4c1.1,15.5,14.7,65.4,14.9,65.9l0,0
		c0.1,0.4,2,8.8-3,11.7c-1.1,0.6-2.6,1.3-4.3,2c-9.3,4-26.7,11.3-25.2,35.9c1.1,16.9,12.2,24.7,21.4,28.3L30.5,457.7z"/>
</g>
<g>
	<path class="st1" d="M29.7,460.3"/>
</g>
<g>
	
		<rect x="37.9" y="354.7" transform="matrix(0.8835 -0.4685 0.4685 0.8835 -158.2299 73.6749)" class="st2" width="62.1" height="0.5"/>
</g>
<g>
	
		<rect x="48.9" y="238.3" transform="matrix(9.040659e-02 -0.9959 0.9959 9.040659e-02 -213.7643 284.9728)" class="st2" width="0.5" height="42.5"/>
</g>
<g>
	<polygon class="st9" points="144,194.9 76.4,130.3 77.9,128.7 83,133.6 83,133.6 145.5,193.3 	"/>
</g>
<g>
	
		<rect x="107.5" y="326.8" transform="matrix(0.8837 -0.468 0.468 0.8837 -138.9964 94.5499)" class="st2" width="26.5" height="0.5"/>
</g>
<g>
	<rect x="1031.4" y="260.9" transform="matrix(0.866 -0.5 0.5 0.866 6.8387 553.9321)" class="st9" width="11.4" height="6.6"/>
</g>
<g>
	<rect x="1062.8" y="377.6" class="st9" width="34.9" height="22.9"/>
</g>
<g>
	
		<rect x="1006.1" y="345.8" transform="matrix(4.832193e-02 -0.9988 0.9988 4.832193e-02 610.489 1345.7665)" class="st9" width="10.8" height="13.4"/>
</g>
<g>
	<g>
		<polygon class="st3" points="1187.3,364.7 1192.5,368.9 1192.9,361.8 1187.5,361.5 1187.3,364.5 1186.6,364.5 1186.6,364.5 
			1187.3,364.5 		"/>
	</g>
	<g>
		<path class="st3" d="M1192.8,363l-0.3,5.9l2,0.1l0-1.6h1.1l0.1-4.2C1195.8,363.1,1192.9,363,1192.8,363z"/>
	</g>
	<g>
		<polygon class="st3" points="1187.4,364.5 1157.4,362.9 1157.1,368.5 1186.3,370 1185.9,377.2 1177.1,376.8 1176.9,382.2 
			1172.7,382 1172.5,387.2 1181.3,387.6 1181.4,384.8 1185.5,385 1185,394.3 1191.1,394.6 1192.5,368.7 		"/>
	</g>
</g>
<g>
	
		<rect x="1201.7" y="372.6" transform="matrix(0.9988 4.948180e-02 -4.948180e-02 0.9988 20.3492 -59.2095)" class="st3" width="8.7" height="17.6"/>
</g>
<g>
	<polygon class="st3" points="1239.2,412.3 1238.7,406.8 1236.4,407.1 1235.9,402.7 1225.5,403.7 1226,408.1 1223.6,408.3 
		1224.2,413.8 1226.5,413.5 1227,418.6 1237.4,417.6 1236.9,412.5 	"/>
</g>
<g>
	<polygon class="st3" points="1195.9,298.7 1191.5,302 1190.6,320 1166.9,318.8 1167.4,306.2 1187.2,288.5 1184,284.9 1162.7,303.8 
		1161.9,324.5 1166.7,324.7 1166.7,324.6 1190.3,325.8 1190.3,325.9 1196.1,326.2 1197.1,306.2 1199.9,304 	"/>
</g>
<g>
	<polygon class="st3" points="1199,263.9 1193.5,263.9 1193.5,271 1193.5,277.7 1191.6,279.1 1194.9,283.6 1198.9,280.6 
		1198.9,280.6 1198.9,280.6 1198.9,271 1214.6,271 1214.6,287.6 1204.5,295 1207.7,299.4 1221.8,289.2 1221.8,289.2 1221.8,289.2 
		1221.8,271 1221.8,266.8 1221.8,263.9 	"/>
</g>
<g>
	
		<rect x="1138.3" y="464.4" transform="matrix(0.9972 -7.415564e-02 7.415564e-02 0.9972 -31.4644 85.9258)" class="st3" width="6.2" height="4.5"/>
</g>
<g>
	
		<rect x="1145.2" y="457.6" transform="matrix(0.9972 -7.415564e-02 7.415564e-02 0.9972 -30.9381 86.5142)" class="st3" width="8.8" height="4.5"/>
</g>
<g>
	<path class="st3" d="M1194.3,473.2l-1.8-9.4l-2.9,0.3l-0.7-4.8c0,0-6.1,0.6-6.1,0.6l0,0l-0.3-4l-0.2-2.5l-6.2,0.5l0.2,2.5l-11,0.8
		l-0.2-2.5l-6.2,0.5l0.6,8.6l5.6-0.4l0,0l16.6-1.2l0.2,2.8l-2,0.2l0.3,3.3l9.6-0.8l0.7,4.5l-3.3,0.4l0.7,4.7l3.3-0.3l-0.7-3.4
		L1194.3,473.2z"/>
</g>
<g>
	<g>
		<polyline class="st3" points="1161.2,500.4 1161.8,507.3 1169.1,506.7 1166.4,470.3 1159,470.9 1160.1,484.4 		"/>
	</g>
	<g>
		<polyline class="st3" points="1160,484.2 1155.1,484.6 1156.3,501 1161.2,500.6 		"/>
	</g>
</g>
<g>
	<path class="st3" d="M1183.2,504.3c0,0.3,8.7,19.3,8.7,19.3l1.8-0.7l0.5,0.5l1.8-1.6l-0.4-0.7l2-2.6l-1.6-2.2l1.5-1.3l-0.8-0.8
		l1.7-5.6l5.8-2.7l7-2.8c0.7-0.3,1.2-0.8,1.5-1.4c0.3-0.7,0.3-1.6-0.2-2.5l-1,0.4l-2.2-4.3l-2.7,1.1l-1.2-2.4l-2.5,1.1l-0.7-1.6
		l-3,1.3l0.7,1.8l-2.9,1.1l-0.5-1.3l-2-0.1l-1.4,0.5l1,2.5l-11,4.8L1183.2,504.3z"/>
</g>
<g>
	<path class="st3" d="M1166.2,232.5l-2.9,9.1l10.4,3l1-3.6l-3.9-1.1c0,0,0.6-1.2-0.3-2.1c-0.3-0.3-0.7-0.4-0.7-0.4l1.1-3.7
		L1166.2,232.5z"/>
</g>
<g>
	<path class="st3" d="M1236.8,229.7l-7.1-3.3l0,0l-16.2-7.4l0,0l0,0l-11-5l-1.9-0.9l0,0l-14-6.4l-2,4.5l0,0l-10.1,22l4.6,2.1l9.9-22
		l9.5,4.4l-3.4,7.4l3.6,1.6l3.3-7.4l5.8,2.7l-3.4,7.4l3.6,1.6l3.4-7.4l16.1,7.4l-0.4,1l0,0l-3.1,6.6l0,0l0,0l-1.5,3.3c0,0,0,0,0,0
		h-12.8v7.6h12.8v0c2.2-0.1,3.7-1.8,3.7-3.9c0-1.4-0.7-2.6-1.8-3.3l1.4-3.1l-0.2-0.1l5.7,2.6L1236.8,229.7z"/>
</g>
<g>
	<path class="st1" d="M1224.9,238.8"/>
</g>
<g>
	<rect x="1185.5" y="242.2" class="st3" width="10" height="5.8"/>
</g>
<g>
	
		<rect x="1187.6" y="229.4" transform="matrix(0.9005 0.4348 -0.4348 0.9005 218.7426 -494.4721)" class="st3" width="5" height="2.9"/>
</g>
<g>
	<polygon class="st3" points="1167.5,198.6 1167.5,198.6 1153.1,193 1151.1,198.3 1165.4,203.9 1163.8,208.1 1169.1,210.1 
		1172.8,200.7 	"/>
</g>
<g>
	<path class="st3" d="M1163.5,217.1l1.2-2.4l0,0l0,0l-2.4-1.1l-4.6-2.2l-2.6,5.4l1.6,0.8l-4.3,9.2l-10.6-4.9l-8.1-10.5
		c1-3.5,1.8-7.2,2.3-10.8l13.3-1.9l-0.8-5.9l-17.5,2.5l-0.3-0.1v0c-0.5,5.9-1.6,11.8-3.5,17.4l-0.1,0l0,0c0,0,0,0.1,0,0.1l0,0l0.1,0
		l10.8,13.9l0,0l0,0l0,0.1l0,0l17.3,8l2.5-5.4l0,0L1163.5,217.1z"/>
</g>
<g>
	<polygon class="st3" points="1155.6,269.8 1157,290 1167.7,289.5 1167.7,286.7 1169.7,286.6 1169.7,285 1171.9,285 1171.9,283.3 
		1173.8,283.3 1173.8,275.9 1171.6,275.9 1171.6,274.4 1168.4,274.4 1168.4,273 1166,273 1166,271.2 1161,271.2 1161,268.1 
		1157.6,268.1 	"/>
</g>
<g>
	
		<rect x="670" y="496.6" transform="matrix(0.3511 -0.9363 0.9363 0.3511 -31.6648 955.7873)" class="st9" width="7.5" height="8.3"/>
</g>
<g>
	<rect x="685.6" y="502.3" class="st9" width="8.3" height="4.7"/>
</g>
<g>
	<rect x="666" y="511.7" class="st9" width="8.3" height="4.7"/>
</g>
<g>
	<polygon class="st9" points="663.1,500.3 652.6,496.9 651.1,501.3 651.1,501.3 650.5,503.4 649.2,507.4 656.1,509.7 657.2,506.4 
		658.4,506.8 659.3,504 661.7,504.8 	"/>
</g>
<g>
	<rect x="788.8" y="527.3" class="st9" width="10.8" height="10"/>
</g>
<g>
	<rect x="841.8" y="535.2" class="st9" width="12.4" height="7"/>
</g>
<g>
	<rect x="829.7" y="530.1" class="st9" width="7.2" height="5.2"/>
</g>
<g>
	<path class="st3" d="M1203.6,520.9l-1.9,8.1c0,0,5.6,0.2,8.8,3.2c3.2,3,3,2.9,3,2.9l3.5-4.1l-0.8-0.5l1.4-1.6l-4.9-3.5l0-1.1
		l-4.2-1.1v-1L1203.6,520.9z"/>
</g>
<g>
	<path class="st1" d="M1174.5,519.8"/>
</g>
<g>
	
		<rect x="1178.1" y="517.4" transform="matrix(0.8557 -0.5174 0.5174 0.8557 -101.2467 686.9396)" class="st3" width="6.4" height="15.4"/>
</g>
<g>
	<path class="st3" d="M1217,539l5.4-1l1.3,5.3l0.9-0.2l0.8,2.8h1.5v9.8h-1l0.6,2.5l-5.2,2.6c0,0-2.2-9.9-2.3-13.8
		C1218.9,543,1217,539,1217,539z"/>
</g>
<g>
	<polygon class="st3" points="1225.9,566.5 1225.9,570.6 1229.4,570.6 1229.4,572.4 1234.8,572.4 1234.8,568.9 1236,568.9 1236,567 
		1234.8,567 1234.8,565 1229.4,565 1229.4,566.5 	"/>
</g>
<g>
	<path class="st3" d="M1204.8,579.2v4.7l43.1,3.3c0,0,2.9-0.6,2.8-2.7c-0.1-2.1-2.6-2.6-2.6-2.6v-2l-34.5-2.6l0,1.5l-2.9-0.4
		l-2.7,0.9L1204.8,579.2z"/>
</g>
<g>
	<polygon class="st3" points="1188.1,412.6 1188.3,415.6 1186.9,415.8 1187.6,423.2 1189.6,423 1189.7,425.6 1194.3,425.3 
		1194.5,427.4 1210.9,425.9 1210.6,421.7 1195.5,422.9 1195.3,421.2 1192.4,421.5 1191.9,416.6 1193.9,416.4 1193.9,415.7 
		1196.5,415.4 1196,411.6 	"/>
</g>
<g>
	<polygon class="st3" points="1197.9,408.4 1197.9,412.6 1200.9,412.6 1200.9,410.6 1204.3,410.7 1204.3,409.6 1207.3,409.7 
		1207.3,409.1 1213.9,409.1 1216.1,412.8 1216.1,416.3 1213.9,416.3 1213.9,421.2 1220.5,421.2 1220.5,416 1221.8,416 1221.8,413.3 
		1219.8,413.3 1219.8,409.6 1217.2,406.2 1214.1,406.2 1214.1,405 1208,405 1208,405.7 1205,405.7 1205,406.7 1201.6,406.7 
		1201.6,407.7 1197.9,407.7 	"/>
</g>
<g>
	
		<rect x="986.1" y="166.2" transform="matrix(0.3518 -0.9361 0.9361 0.3518 477.1627 1039.8953)" class="st3" width="6.7" height="18.4"/>
</g>
<g>
	<path class="st3" d="M1025.7,195.7l6.8,2.3l-5,14.1l-4.4-1.4l-0.1,0.5c0,0,1.1,1.1,0.7,2.1c-0.7,1.7-3.7,0.6-3.7,0.6l-1,2.1
		l1.6,0.6l-2.8,7.3l-16.1-6.3l2.6-7.4l3.2,1.1l2.1-4.8c0,0,1.5-2,4.8-2c3.3,0,3.8-2.6,3.8-2.6s0.8-2.5,4.1,0
		c0.5,0.4,1.3-0.1,1.5-0.8C1024.1,200.2,1025.7,195.7,1025.7,195.7z"/>
</g>
<g>
	
		<rect x="1048.4" y="190.4" transform="matrix(0.9675 0.2529 -0.2529 0.9675 83.4514 -260.0578)" class="st3" width="9.6" height="8.2"/>
</g>
<g>
	
		<rect x="1064.7" y="199.1" transform="matrix(0.9675 0.2529 -0.2529 0.9675 85.856 -263.6144)" class="st3" width="7.1" height="6.1"/>
</g>
<g>
	<path class="st1" d="M823.4,231.7"/>
</g>
<g>
	<path class="st1" d="M844.7,149"/>
</g>
<g>
	
		<rect x="900.9" y="190.7" transform="matrix(0.3287 -0.9445 0.9445 0.3287 426.7878 982.3401)" class="st2" width="6.9" height="0.5"/>
</g>
<g>
	<path class="st1" d="M913.9,164.4"/>
</g>
<g>
	<polygon class="st3" points="873.5,130 873.9,128.9 869.9,127.3 869.5,128.4 865,126.6 865.2,126.1 861.1,124.5 861.5,123.4 
		857.5,121.9 857.1,123 854.2,130.4 858.5,132.1 858.1,133.1 861.9,134.6 862.2,133.8 862.1,134.1 866.6,135.9 866.6,135.9 
		870.9,137.6 870.6,138.6 874.3,140 874.8,139.1 877.6,131.6 	"/>
</g>
<g>
	<polygon class="st3" points="884.1,132.5 883,134.8 884.6,135.4 881.5,142.9 884.6,144.1 885.7,141.6 891.1,143.8 892,141.6 
		893.4,142.1 894,140.6 892.7,140 894.1,136.6 	"/>
</g>
<g>
	<polygon class="st3" points="903,140.3 899.9,147.9 909.2,151.3 912.5,142.4 907.5,140.6 907,141.8 	"/>
</g>
<g>
	<polyline class="st3" points="914.5,162.2 904.2,158.2 900.4,156.6 898.8,160 883.1,153.9 884.2,150.8 879.9,149.2 877.8,154.3 
		870.7,152.1 871.8,149 863.6,146.3 864.6,142.6 855.6,139.8 852.1,150 861.5,152.6 861.1,153.7 881.3,160 880.9,161.3 900.7,168.8 
		900.2,169.8 903.1,170.9 903.7,169.7 911,172.3 911.5,170.9 	"/>
</g>
<g>
	<polyline class="st3" points="903.2,194.5 887,187.9 886.5,188.7 882.3,187.1 882.7,186.2 868.8,181.2 868.5,182.1 864.2,181.2 
		864.5,180.3 850.1,176.8 849.9,177.5 845.7,176.7 845.9,176.2 837.6,174.4 837.4,175.4 820.2,172.7 820.7,167.8 822.8,168 
		823.6,161.7 828.5,162.3 828.4,164.3 829.9,164.4 830.2,162.3 836.7,163.3 835.9,167.9 850.6,170.4 851.5,166.1 856.3,167.1 
		855.3,171.4 869.3,174.3 870.2,170.5 875.1,171.8 873.9,176.3 888.8,180.9 890,177.8 894.3,179.4 892.9,182.6 905.6,188 	"/>
</g>
<g>
	<polygon class="st3" points="925.9,149 918.6,146 916.7,150.6 916.7,150.6 914.1,156.8 917.9,158.3 919.8,153.7 923.3,155.2 	"/>
</g>
<g>
	
		<rect x="1104" y="142.2" transform="matrix(0.9955 -9.448269e-02 9.448269e-02 0.9955 -10.8707 105.083)" class="st2" width="0.5" height="50.3"/>
</g>
<g>
	
		<rect x="1105.5" y="141.7" transform="matrix(0.9955 -9.448466e-02 9.448466e-02 0.9955 -10.8353 105.2249)" class="st2" width="0.5" height="50.7"/>
</g>
<g>
	<path class="st1" d="M72.5,171"/>
</g>
<g>
	<path class="st1" d="M96.4,148"/>
</g>
<g>
	<path class="st1" d="M82.6,134.7"/>
</g>
<g>
	<polygon class="st3" points="1183.4,572.1 1183.4,575.6 1180.7,575.6 1180.7,579.2 1183.4,579.2 1183.4,580.5 1194,580.5 
		1194,584.4 1197.2,584.4 1197.2,580.5 1197.2,578.4 1197.2,572.1 	"/>
</g>
<g>
	<g>
		<path class="st3" d="M482.3,169.4l0.3-3.1l-2.9-0.2v0l-3-0.2l-0.2,3.1l-16.6-1.2l-1.9,30l10.8,11.4l-0.4,6.5l3.6,4l3.3,0.3l0,0
			l0.1,0l0,0l0,0l3.3,0.2l4.1-3.4l0.6-6.5l12.5-9.6l2.8-30L482.3,169.4z M490.3,198.1l-10.4,8.3l-3.7,0l-3.1-0.4l-9-9.8l1.8-21.1
			l8.7,0.5l-0.2,3.2l2.1,2.2l1.8,0.1l2.1,0.1l2.4-1.9l0.2-3.2l8.8,0.8L490.3,198.1z"/>
	</g>
</g>
<g>
	<path class="st12" d="M407.7,389.7"/>
</g>
<g>
	<polygon class="st6" points="823.4,231.7 824.9,233.4 828.9,230.2 827.4,228.4 	"/>
</g>
<g>
	
		<rect x="819.9" y="227.5" transform="matrix(0.7686 -0.6397 0.6397 0.7686 45.2177 581.4867)" class="st13" width="13.2" height="1.4"/>
</g>
<g>
	<g>
		<path class="st6" d="M957.8,352.3c-3.9-2.5-7-2.5-7.9-0.2c-1,2.3-2.2,5.4-7.3,4.9c-5.2-0.5-5.5-4.9-7.7-6.9s-6.3-1.7-9.2,2.2
			c-2.9,3.8-7.1,4.3-13.5,7.1c-6.4,2.8-10,13.9-10,17.7s-2.2,1.1-2.2,1.1s-1.7-1.4-5.8-8.7c-4.1-7.3-14.7-15-16.6-16.2
			c-1.9-1.2-5.3-4.1-6.6-6.5c-5.5-9.8-7.6-8.6-7.6-8.6l-6.1,1.5c0,0-1.8,1.1,0.7,4c2.6,2.9,6.9,6.6,8.1,7.2c1.1,0.6,4.8,5.8,6.6,7.3
			c1.8,1.4,15.6,11.2,17.5,13.1c1.9,1.8,10.8,13.6,16.6,23.5c5.7,10,12.2,17.5,17.6,30.9c5.4,13.4,23,53.3,23,53.3l5.8-0.9
			c0,0-6.1-11.9-9-17.9c-2.9-6-14.7-32.6-17.3-39.5c-2.6-6.9-15.4-25.2-19.3-32c-3.9-6.8-2.5-14,0-19.5c2.5-5.5,10.2-10.6,16.7-10
			c6.5,0.6,6.1,8.9,5.6,11.1c-0.5,2.2-7.5,6.1-8.7,11.5c-1.2,5.5,5.9,6.4,9.9,6.5c4,0.2,7-4.2,7-4.2c2.3-2.6,5.7-2,6.2-1
			c2.1,3.9,3.6,4.7,8.1,4.7c4.5,0,6.3-3.1,6.7-6.1s-3.7-6.3-4.2-8.6c-1.3-6.2,1.2-4.3,4.3-10.1C962.2,357.2,961.7,354.9,957.8,352.3
			z M943.6,376.7c-4,0-7.3-3.3-7.3-7.3c0-4,3.3-7.3,7.3-7.3c4,0,7.3,3.3,7.3,7.3C950.9,373.4,947.6,376.7,943.6,376.7z"/>
	</g>
</g>
<g>
	<g>
		<path class="st9" d="M738.8,296.8l-13.6-0.8l-10.2,9l-0.8,13.6l9,10.2l13.6,0.8l10.2-9l0.8-13.6L738.8,296.8z M744.3,319.3
			l-8.5,7.5l-11.3-0.7l-7.5-8.5l0.7-11.3l8.5-7.5l11.3,0.7l7.5,8.5L744.3,319.3z"/>
	</g>
</g>
<g>
	<circle class="st6" cx="731" cy="312.8" r="7.9"/>
</g>
<g>
	<g>
		<path class="st3" d="M1228.7,304.1l-0.8-0.2l-3.6,31.4l6.8,0.7l13.7-28.1L1228.7,304.1z M1230.2,331.7l-2.6-0.3l2.4-23.1l0.8,0.1
			l9.1,2L1230.2,331.7z"/>
	</g>
</g>
<g>
	<g>
		<path class="st3" d="M840.1,133.6c0-5,4.1-9.1,9.1-9.1c1.1,0,2.2,0.2,3.2,0.6l2-6.4c-1.7-0.6-3.8-1-5.6-1c-8.8,0-16,7.2-16,16
			c0,7.4,5.4,13.7,12.2,15.5l2.1-6.7C843.1,141.4,840.1,137.8,840.1,133.6z"/>
	</g>
</g>
<g>
	<g>
		<path class="st3" d="M918.1,180c-0.2,5-4.4,8.9-9.4,8.7c-1.1,0-2.2-0.3-3.2-0.7l-2.2,6.4c1.6,0.6,3.7,1.2,5.6,1.2
			c8.8,0.3,16.2-6.5,16.6-15.4c0.3-7.4-4.9-13.9-11.7-16l-2.3,6.6C915.4,172,918.2,175.7,918.1,180z"/>
	</g>
</g>
<g>
	<g>
		<path class="st6" d="M1079.4,479.1c-0.1-0.1-0.2-0.2-0.3-0.3c-3.7-2.8-9-2.1-12,1.4l-11.9,13.7c0,0-6.4,8.4,0.7,13
			c7.1,4.7,13.8-2.8,13.8-2.8l9.6-11.8c1.5-1.8,2.4-3.9,2.7-6.2C1082.4,483.9,1082,481.1,1079.4,479.1z M1078,487.1
			c-0.3,2.8-9.7,13.1-11.8,15.2c-2.1,2.1-5.6,3.1-8.1,0.9c-2.4-2.2-0.4-6.3,0-7.4c0.3-0.8,7.6-9.2,11-13c1.8-2,4.8-2.5,7.1-1
			c0,0,0,0,0,0C1077.4,482.6,1078.3,484.3,1078,487.1z"/>
	</g>
</g>
<g>
	
		<rect x="615.2" y="437.2" transform="matrix(0.1639 -0.9865 0.9865 0.1639 76.986 982.4307)" class="st9" width="5.7" height="17.1"/>
</g>
<g>
	
		<rect x="614.4" y="448" transform="matrix(0.1639 -0.9865 0.9865 0.1639 67.9566 986.4211)" class="st9" width="3.1" height="10.2"/>
</g>
<g>
	<polygon class="st9" points="1119.2,349.2 746.6,315.2 746.8,312.8 1119.4,346.8 	"/>
</g>
<g>
	<polygon class="st9" points="1368.8,369.2 1120.6,349.2 1120.8,346.8 1369.6,366.8 	"/>
</g>
<g>
	<polygon class="st9" points="1231.5,347.9 1279.1,246 1281.2,247 1233.7,348.9 	"/>
</g>
<g>
	<polygon class="st9" points="1265.9,359.1 1312.8,258.6 1315,259.6 1268.1,360.1 	"/>
</g>
<g>
	<polygon class="st9" points="1128,454.1 1101,141.4 1103.4,141.3 1130.4,453.4 	"/>
</g>
<g>
	<polygon class="st9" points="1231.4,356 1231.5,347.9 1233.6,348.4 1234,356.3 	"/>
</g>
<g>
	<path class="st14" d="M1128.8,455.7"/>
</g>
<g>
	<path class="st9" d="M1199.8,562.8c-0.4-2.8-0.9-3.7-2-4.9c-1.1-1.3-5.2-2.9-8.8-4.3c-2-0.8-4-1.5-5.4-2.3c-3-1.5-3.2-1.7-7-5
		c-1.5-1.3-3.6-3.2-6.6-5.8c-10.3-8.8-16.2-8-16.3-8l-0.1,0c-0.4,0-9.8,0.5-13.7,0.4c-4.4-0.2-4.9-3.1-4.9-3.2l-6.9-74.1l1.2-0.1
		l6.9,74.1c0,0.2,0.4,2,3.7,2.1c3.8,0.2,13-0.3,13.6-0.4c0.6-0.1,6.8-0.7,17.2,8.3c3.1,2.6,5.1,4.5,6.6,5.8c3.7,3.3,3.8,3.4,6.7,4.8
		c1.4,0.7,3.3,1.4,5.3,2.2c3.9,1.5,7.9,3.1,9.3,4.6c1.2,1.4,1.8,2.5,2.3,5.6L1199.8,562.8z"/>
</g>
<g>
	<path class="st9" d="M749,503c-9.7,0-19.6-0.3-24-1.2c-7.6-1.6-12.9-4.8-24.5-11.8c-3.7-2.2-7.8-4.7-12.9-7.7
		c-20.9-12.2-34.2-11.9-34.3-11.9c-1.4,0-34.8,0.8-41,0c-8-1-65.3-17.8-80.6-23.6c-13.5-5.1-26.1-4.2-26.2-4.2
		c-1.2,0.1-28,1.9-38.1-0.8c-23.2-6.1-118.9-22.6-119.8-22.8l0.4-2.2c1,0.2,96.7,16.7,120,22.8c9.8,2.6,37.1,0.8,37.4,0.7
		c0.5,0,13.1-1,27.1,4.3c15.3,5.8,72.2,22.5,80.1,23.5c6,0.8,40.3,0,40.6,0c0.5,0,13.9-0.4,35.5,12.2c5.1,3,9.2,5.5,12.9,7.7
		c11.4,6.8,16.5,10,23.8,11.5c9.4,2,46,0.8,47.2,0.7l54.3-4.6l559.1-78.9l0.3,2.2L827.2,498l0,0l-54.4,4.6l0,0
		C771.9,502.6,760.6,503,749,503z"/>
</g>
<g>
	<path class="st9" d="M1023.7,647.8l-2.1-0.7c0.1-0.4,12.9-40.7,19.1-61.1c1.7-5.5,1.4-10.3-0.9-14.2c-4-7-12.7-9.2-12.8-9.2
		c-0.4-0.1-44.5-10.4-79.1-20.8c-33.2-9.9-60.7-19.3-86.9-33c-24.4-12.6-34.2-10.8-34.3-10.8l-0.5-2.2c0.4-0.1,10.5-2.2,35.8,11
		c26.1,13.5,53.5,22.9,86.5,32.8c34.6,10.4,78.6,20.7,79,20.8c0.4,0.1,9.8,2.4,14.2,10.2c2.6,4.5,2.9,9.9,1.1,16
		C1036.5,607,1023.8,647.4,1023.7,647.8z"/>
</g>
<g>
	<g>
		<path class="st9" d="M873.2,513.2c-0.7,0-1.4-0.1-2.2-0.2c-6.7-1.1-11.1-7.1-10-13.6c1.1-6.5,6.8-10.6,13.9-10
			c3,0.3,5.7,1.8,7.6,4.2c2.1,2.7,3,6.3,2.5,9.8C884.1,509.3,879.1,513.2,873.2,513.2z M873.5,491.6c-5.4,0-9.5,3.2-10.3,8.2
			c-0.9,5.4,2.6,10.1,8.2,11c5.6,0.9,10.6-2.5,11.5-7.8c0.5-2.8-0.3-5.8-2-8c-1.5-2-3.7-3.2-6.1-3.4
			C874.3,491.6,873.9,491.6,873.5,491.6z"/>
	</g>
</g>
<g>
	<path class="st14" d="M897.7,487"/>
</g>
<g>
	<path class="st9" d="M897.3,525.1c-0.2-0.1-4.2-1.4-8-4.7c-5.1-4.4-7.4-10.2-6.6-16.7c1-8.2,5.6-12.7,9.3-15c4-2.5,7.7-3,7.8-3.1
		l0.3,2.2l-0.2-1.1l0.2,1.1c0,0-3.5,0.5-7.1,2.8c-4.7,3-7.5,7.5-8.2,13.4c-1.7,13.9,13,19,13.1,19L897.3,525.1z"/>
</g>
<g>
	
		<rect x="810.9" y="298.4" transform="matrix(0.7598 -0.6502 0.6502 0.7598 -69.2923 625.6743)" class="st9" width="2.2" height="216.3"/>
</g>
<g>
	
		<rect x="592.4" y="178.5" transform="matrix(8.591413e-02 -0.9963 0.9963 8.591413e-02 242.8554 866.311)" class="st9" width="2.2" height="244.6"/>
</g>
<g>
	<path class="st9" d="M557.6,297.5c-0.1-1.9-1.3-45.8,1.5-56.9c2.7-10.8-5.7-73.9-5.8-74.5l2.2-0.3c0.3,2.6,8.5,64.1,5.7,75.3
		c-2.7,10.9-1.5,55.9-1.4,56.3L557.6,297.5z"/>
</g>
<g>
	<polygon class="st3" points="482.4,448 482.4,451.7 479.5,454.4 476,461.7 489.8,461.7 492.3,464.3 494.8,462.5 500.8,462.5 
		503,455.5 506.9,450.9 504.3,449.3 501.1,452 490.8,447.6 488.9,450.2 	"/>
</g>
<g>
	<path class="st9" d="M743.6,303.7l-1.4-1.7l90.7-75l2.6-2c0.3-0.2,2.7-1.9,9-1.5l0,0l143.7,11.7c0.7,0.1,72.9,5.4,82.2,6
		c9.3,0.6,54.3,1,54.8,1l0.1,0c1.7,0.2,42.5,3.8,49.6,6.2c8.2,2.9,34.1,9.5,38,9.5c0,0,0,0,0,0c4-0.1,14.9,1.9,15.6,2.2l-0.8,2.1
		c0,0,0,0,0,0c-0.8-0.2-11.1-2.1-14.9-2c0,0,0,0-0.1,0c-4.4,0-30.9-6.9-38.7-9.6c-6.7-2.4-47.4-6-49-6.1c-1.7,0-45.6-0.4-54.8-1
		c-9.4-0.6-81.5-6-82.2-6l-143.7-11.7c-5.3-0.3-7.4,1-7.5,1.1l-2.5,2L743.6,303.7z"/>
</g>
<g>
	<path class="st9" d="M347.5,419.1c-6.3-0.9-14.2-1.9-22.5-3c-42.9-5.8-101.6-13.6-113.1-17.3l0,0l-10.9-3.9c-1-0.4-2-0.8-3-1.3
		c-10.7-5.3-20.8-12.6-29.9-21.8c-8.9-8.8-16.6-19.1-23.2-30.6c-6.5-11.4-11.5-23.7-15-36.5c-3.5-13-5.3-26.3-5.3-39.3
		c0-37,14.4-72.1,39.6-96.2c10.6-10.2,22.6-18,35.7-23.2c13.7-5.5,28.2-7.9,43.1-7.3l0,0l445,36.8l0,0c0.7,0.1,73,8.3,130.6,12.8
		c13.4,1,27.3,3.9,41.4,8.4c11.3,3.6,22.6,8.3,33.8,13.9c19.1,9.6,31.1,18.7,31.3,18.8l-1.3,1.8c-0.1-0.1-12.1-9.1-31-18.6
		c-17.4-8.7-44.4-19.7-74.3-22c-57.3-4.5-129.2-12.6-130.7-12.8l-444.9-36.8c-28.5-1.1-55.9,9.5-77.2,29.9
		c-24.7,23.8-38.9,58.3-38.9,94.6c0,53.2,29.7,105.1,72.2,126.2c0.9,0.4,1.8,0.8,2.7,1.2l10.9,3.9c11.4,3.6,72.4,11.8,112.8,17.2
		c8.3,1.1,16.2,2.2,22.5,3L347.5,419.1z"/>
</g>
<g>
	<path class="st9" d="M166.6,168.8c-12.2-11.3-24.5-25.3-36.4-41.7c-9.5-13.1-18.8-27.8-27.7-43.5c-15.1-26.9-23.7-48-23.8-48.2
		l3.9-1.6c0.1,0.2,8.7,21.2,23.6,47.8c13.8,24.5,35.9,59,63.2,84.2L166.6,168.8z"/>
</g>
<g>
	
		<rect x="75.2" y="213.3" transform="matrix(9.236058e-02 -0.9957 0.9957 9.236058e-02 -191.4896 313.6095)" class="st9" width="2.2" height="97"/>
</g>
<g>
	
		<rect x="90.3" y="278.4" transform="matrix(0.9942 -0.1076 0.1076 0.9942 -29.4427 13.2713)" class="st9" width="36" height="2.2"/>
</g>
<g>
	
		<rect x="25.5" y="284.7" transform="matrix(0.9942 -0.1076 0.1076 0.9942 -30.4553 7.063)" class="st9" width="49.4" height="2.2"/>
</g>
<g>
	
		<rect x="33.5" y="342.9" transform="matrix(0.8836 -0.4682 0.4682 0.8836 -150.7917 81.238)" class="st9" width="109" height="2.2"/>
</g>
<g>
	<path class="st2" d="M350,417.8l-2.2-0.3l13.9-113.7c0-0.3,0.2-1.2,1-1.9c1-0.8,2.4-1.2,4.4-1c4,0.4,104.6,10,105.6,10.1l-0.2,2.2
		c-1-0.1-101.6-9.7-105.6-10.1c-2.2-0.2-2.9,0.4-3,0.8l0,0.1l0,0L350,417.8z M363.9,304L363.9,304L363.9,304z"/>
</g>
<g>
	
		<rect x="496.4" y="376.1" transform="matrix(1.016581e-02 -0.9999 0.9999 1.016581e-02 114.355 881.5305)" class="st9" width="12" height="13.8"/>
</g>
<g>
	
		<rect x="531" y="430.8" transform="matrix(0.8409 -0.5413 0.5413 0.8409 -149.9668 357.9731)" class="st9" width="5.5" height="6.3"/>
</g>
<g>
	<path class="st9" d="M525.3,405.9l-3.6-6.9l-4,2.1l-0.8-1.6l-7.6,4l2.8,5.3c-0.3,0.6-0.4,1.3-0.1,1.9c0.5,1,1.7,1.3,2.6,0.8
		l4.1-2.2l0,0L525.3,405.9z"/>
</g>
<g>
	
		<rect x="458.1" y="265.6" transform="matrix(0.1005 -0.9949 0.9949 0.1005 141.9846 703.0093)" class="st9" width="3.4" height="14.8"/>
</g>
<g>
	
		<rect x="454.7" y="299.1" transform="matrix(0.1005 -0.9949 0.9949 0.1005 105.5208 729.8392)" class="st9" width="3.4" height="14.8"/>
</g>
<g>
	<g>
		<path class="st3" d="M461.5,89.4l-0.8-1.5c-7.9-12.8-17.5-26.3-53.2-33.6c-35.7-7.3-62.4,29-62.4,29s15.3,5.7,26.8,6.1
			c11.5,0.4,17.2-1.4,26.8-3.8c9.6-2.5,22.3-12.9,22.3-12.9c2.4,5.4,7.5,11.3,10,14c1,1.1,2.1,2.1,3.3,3
			c4.6,3.4,17.2,11.7,30.4,11.7c16.7,0,24.8-5.9,24.8-5.9C480,88.1,461.5,89.4,461.5,89.4z M393.7,80.1c-13.3,3.5-23.5,3.7-35.3-0.6
			c0,0,24.6-22.5,50.1-17.2c6.8,1.4,8.9,3.1,8.9,3.1S410.7,75.6,393.7,80.1z"/>
	</g>
</g>
<g>
	<rect x="563.5" y="218.8" class="st9" width="8.2" height="13.7"/>
</g>
<g>
	<path class="st9" d="M814.8,144.2c-15-7.7-30.6-10-44.4-12c-1.6-0.2-3.1-0.5-4.6-0.7c-15.1-2.3-239.3-17.9-241.6-18
		c-3.3-0.2-80.9-5.8-85.2-6.7c-12.9-3-92.2-12.3-94-12.5L179.6,82.5c-0.1,0-9.6-0.6-15.6,5c-3.2,3-4.8,7.3-4.8,12.7
		c0,20.1,7.9,24.8,16.7,28.3c9,3.5,59,10,67.1,10.3l-0.1,2.2c-4-0.1-19.2-1.9-33.2-3.9c-10.6-1.5-29.1-4.4-34.7-6.5
		c-4.3-1.7-9.2-4.1-12.7-8.8c-3.6-5-5.4-12-5.4-21.5c0-6.1,1.9-10.9,5.5-14.3c6.7-6.2,16.8-5.6,17.3-5.6L345.2,92l0,0
		c3.3,0.4,81.2,9.5,94.3,12.5c3.2,0.8,56.9,4.7,84.8,6.7c9.2,0.6,226.6,15.8,241.7,18c1.5,0.2,3.1,0.5,4.6,0.7
		c13.9,2,29.7,4.3,45.1,12.2L814.8,144.2z"/>
</g>
<g>
	<polygon class="st9" points="139.1,405.3 137.8,403.5 158.8,389.1 168.3,371 170.2,372 160.5,390.6 160.3,390.7 	"/>
</g>
<g>
	<path class="st9" d="M1199.4,352.7l-2.2-0.2c0-0.2,1.7-22.9,2-26.4c0.3-3.8,2.5-5.5,2.9-5.8c10.2-8.4,25.8-21.3,27-22.9
		c0.6-0.9-1-3.1-2.1-4.6c-0.9-1.2-1.6-2.2-1.9-3.1c-0.5-1.4-0.4-1.8-0.3-4.1c0.1-1.9,0.4-5.6,0.5-12.8c0.3-15.4,16.6-42.6,17.3-43.7
		l1.9,1.1c-0.2,0.3-16.7,27.9-17,42.6c-0.2,7.3-0.4,10.9-0.5,12.9c-0.1,2.1-0.2,2.3,0.2,3.2c0.2,0.6,0.9,1.5,1.6,2.5
		c1.7,2.3,3.7,5.1,2.1,7.2c-1.8,2.3-24.8,21.2-27.4,23.3l-0.1,0.1c-0.1,0-1.7,1.2-1.9,4.1C1201.2,329.8,1199.5,352.5,1199.4,352.7z"
		/>
</g>
<g>
	<rect x="1227" y="438.1" transform="matrix(0.898 -0.44 0.44 0.898 -105.8551 593.942)" class="st9" width="2.2" height="174.4"/>
</g>
<g>
	<path class="st9" d="M1097,243.1c0,0-1.1-11.8-1.7-19.2c-0.3-3,0.2-5.3,1.5-6.8c1.2-1.5,2.7-1.6,2.8-1.6l0,0h8.6v1.2h-8.6
		c-0.1,0-1.1,0.2-2,1.2c-1,1.2-1.4,3.3-1.2,5.9c0.7,7.4,1.7,19.2,1.7,19.2L1097,243.1z"/>
</g>
<g>
	
		<rect x="1237.7" y="444.4" transform="matrix(0.8958 -0.4445 0.4445 0.8958 -105.9181 606.1866)" class="st3" width="4.3" height="169.2"/>
</g>
<g>
	<circle class="st9" cx="1202.3" cy="453.4" r="2.2"/>
</g>
<g>
	<polyline class="st3" points="1276.6,598.2 1306.7,585.1 1315.8,600.9 1311.6,600.5 1309.5,602.8 1305,601 1303.4,602.8 
		1300.3,601.4 1298.9,603.6 1295.6,602.3 1293,604.6 1290.1,602.8 1287.9,605.5 1284.7,603.6 1283.4,605.5 1276.6,604.5 	"/>
</g>
<g>
	<path class="st5" d="M1260,516.3L1260,516.3c-8.1,4-18,0.7-22-7.4l-12.7-25.5c-4-8.1-0.7-18,7.4-22v0c8.1-4,18-0.7,22,7.4
		l12.7,25.5C1271.4,502.3,1268.1,512.2,1260,516.3z"/>
</g>
<g>
	<g>
		<polygon class="st3" points="307.3,311.1 317.1,287.8 298.7,280.1 296.3,285.7 309,291 304,303.1 291.3,297.8 288.9,303.4 		"/>
	</g>
</g>
<g>
	<g>
		<polygon class="st3" points="318,242.9 307.8,219.8 289.5,227.9 292,233.4 304.6,227.8 309.9,239.8 297.3,245.4 299.8,251 		"/>
	</g>
</g>
<g>
	<path class="st2" d="M301.4,265.5c0,34.4-26,62.3-58.1,62.3s-58.1-27.9-58.1-62.3s26-62.2,58.1-62.3
		C275.3,203.2,301.3,231.1,301.4,265.5z"/>
</g>
<g>
	<path class="st2" d="M185.2,265.5c0-34.4,26-62.3,58.1-62.3"/>
</g>
<g>
	<ellipse class="st9" cx="243.3" cy="265.5" rx="52.8" ry="56.6"/>
</g>
<g>
	<polygon class="st15" points="263.5,295.3 222.5,295 222.3,236.4 263.5,236.4 	"/>
</g>
<g>
	<rect x="225" y="239.9" class="st5" width="35.6" height="52"/>
</g>
<g>
	<path class="st2" d="M213.5,250.1"/>
</g>
<g>
	<rect x="222.3" y="257.4" class="st16" width="2.7" height="0.2"/>
</g>
<g>
	<rect x="222.3" y="273.1" class="st16" width="2.7" height="0.2"/>
</g>
<g>
	<rect x="260.7" y="257.4" class="st16" width="2.9" height="0.2"/>
</g>
<g>
	<rect x="260.7" y="265.5" class="st16" width="2.9" height="0.2"/>
</g>
<g>
	<rect x="260.7" y="246.8" class="st16" width="2.9" height="0.2"/>
</g>
<g>
	<rect x="222.3" y="246.8" class="st16" width="2.7" height="0.2"/>
</g>
<g>
	<rect x="222.3" y="283.9" class="st16" width="2.7" height="0.2"/>
</g>
<g>
	<rect x="260.7" y="283.9" class="st16" width="2.9" height="0.2"/>
</g>
<g>
	<rect x="260.7" y="273.1" class="st16" width="2.9" height="0.2"/>
</g>
<g>
	<rect x="222.7" y="263.9" class="st16" width="2.2" height="3.4"/>
</g>
<g>
	<path class="st2" d="M252.6,247h-19.5v-7.3h19.5V247z M233.3,246.8h19V240h-19V246.8z"/>
</g>
<g>
	<path class="st2" d="M242.8,250.1c-1.8,0-3.2-1.4-3.2-3.2h0.2c0,1.6,1.3,3,3,3s3-1.3,3-3h0.2C246,248.7,244.6,250.1,242.8,250.1z"
		/>
</g>
<g>
	<path class="st2" d="M245.8,242.1h-6v-2.3h6V242.1z M240.1,241.9h5.5V240h-5.5V241.9z"/>
</g>
<g>
	<path class="st2" d="M252.6,292.1h-19.5v-7.3h19.5V292.1z M233.3,291.8h19v-6.8h-19V291.8z"/>
</g>
<g>
	<path class="st2" d="M246.2,284.9h-0.2c0-1.6-1.3-3-3-3s-3,1.3-3,3h-0.2c0-1.8,1.4-3.2,3.2-3.2
		C244.7,281.7,246.2,283.1,246.2,284.9z"/>
</g>
<g>
	<path class="st2" d="M245.8,292.1h-6v-2.3h6V292.1z M240.1,291.8h5.5V290h-5.5V291.8z"/>
</g>
<g>
	<rect x="225" y="265.4" class="st2" width="35.6" height="0.2"/>
</g>
<g>
	<path class="st2" d="M242.8,269.4c-2.2,0-4-1.8-4-4c0-2.2,1.8-4,4-4c2.2,0,4,1.8,4,4C246.7,267.7,245,269.4,242.8,269.4z
		 M242.8,261.8c-2,0-3.7,1.7-3.7,3.7c0,2,1.7,3.7,3.7,3.7c2,0,3.7-1.7,3.7-3.7C246.5,263.4,244.8,261.8,242.8,261.8z"/>
</g>
<g>
	<rect x="230.5" y="291.9" class="st16" width="0.2" height="3.4"/>
</g>
<g>
	<rect x="254.9" y="291.9" class="st16" width="0.2" height="3.4"/>
</g>
<g>
	<rect x="242.8" y="291.9" class="st16" width="0.2" height="3.4"/>
</g>
<g>
	<rect x="230.5" y="236.4" class="st16" width="0.2" height="3.5"/>
</g>
<g>
	<rect x="254.9" y="236.4" class="st16" width="0.2" height="3.4"/>
</g>
<g>
	<rect x="242.8" y="236.4" class="st16" width="0.2" height="3.7"/>
</g>
<g>
	<path class="st17" d="M222.5,236.4h41v-13.9c0-3.4-2.8-6.2-6.2-6.2h-28.6c-3.4,0-6.2,2.8-6.2,6.2V236.4z"/>
</g>
<g>
	<path class="st17" d="M222.5,295v-58.6h0c-5.3,0-9.7,4.3-9.7,9.7v39.3C212.8,290.7,217.2,295,222.5,295L222.5,295z"/>
</g>
<g>
	<path class="st17" d="M263.5,236.6v58.6h0c5.3,0,9.7-4.3,9.7-9.7v-39.3C273.2,240.9,268.9,236.6,263.5,236.6L263.5,236.6z"/>
</g>
<g>
	<path class="st17" d="M263.5,295h-41v13.9c0,3.4,2.8,6.2,6.2,6.2h28.6c3.4,0,6.2-2.8,6.2-6.2V295z"/>
</g>
<g>
	<path class="st5" d="M330.4,355.1l16.1,15.8c0.6,0.6,1.4,0.8,2.2,0.7c0.6-0.1,1.2-0.5,1.5-1.4c0.6-2.2,2.7-16.5,2.7-16.5
		s0.6-2.6-2.2-2.8s-7.8-0.4-11.6-3.8c-2.6-2.3-4.9,0.6-4.9,0.6l-3.3,3.4C331,351.1,328.8,352.9,330.4,355.1z"/>
</g>
<g>
	<path class="st5" d="M352.3,322.1l1.7,0.6c1.3,0.4,2.1,1.6,2.2,2.9c0,0.8,0,1.8-0.2,3.1c-0.3,2.1-0.4,2.9-0.6,4.5
		c-0.8,5.8-1.3,13.3-1.3,13.3s0,2-2.3,1.9c-2.3,0-9.5-1-11.3-3.1c-1.7-2.1-1.8-3.4-0.8-4.9c1.1-1.5,9.6-16.3,9.6-16.3
		S350.6,321.5,352.3,322.1z"/>
</g>
<g>
	<path class="st5" d="M302.9,386.9l6.8-4.2c0,0,1.5-0.9,3.9,1.9s7,7.8,7,7.8s0.7,1.6-1,1.4c-1.7-0.2-13.1-1.6-13.1-1.6
		s-1.4-0.3-2-1.4c-0.7-1.1-1.6-2.7-1.6-2.7S302.3,387.2,302.9,386.9z"/>
</g>
<g>
	<path class="st5" d="M298.7,378.6l2.1,4.7c0,0,0.6,0.8,1.6,0.4c1-0.4,6.1-3.2,6.1-3.2s1.2-0.6,0.5-1.8c-0.7-1.2-2.9-4.2-2.9-4.2
		s-0.9-0.9-3,0.5S298,377,298.7,378.6z"/>
</g>
<g>
	<rect x="222.5" y="300.3" class="st18" width="41" height="0.5"/>
</g>
<g>
	<rect x="222.5" y="306.8" class="st18" width="41" height="0.5"/>
</g>
<g>
	<rect x="212.7" y="250.4" class="st18" width="9.8" height="0.5"/>
</g>
<g>
	<rect x="213.2" y="242.7" class="st18" width="9.3" height="0.5"/>
</g>
<g>
	<rect x="212.7" y="258" class="st18" width="9.8" height="0.5"/>
</g>
<g>
	<rect x="212.8" y="265.8" class="st18" width="9.7" height="0.5"/>
</g>
<g>
	<rect x="212.9" y="273.5" class="st18" width="9.7" height="0.5"/>
</g>
<g>
	<rect x="212.7" y="281.1" class="st18" width="9.8" height="0.5"/>
</g>
<g>
	<rect x="212.7" y="288.7" class="st18" width="9.8" height="0.5"/>
</g>
<g>
	<rect x="263.5" y="250.4" class="st18" width="9.7" height="0.5"/>
</g>
<g>
	<rect x="263.5" y="242.7" class="st18" width="9.1" height="0.5"/>
</g>
<g>
	<rect x="263.5" y="258" class="st18" width="9.8" height="0.5"/>
</g>
<g>
	<rect x="263.5" y="265.8" class="st18" width="9.7" height="0.5"/>
</g>
<g>
	<rect x="263.5" y="273.5" class="st18" width="9.7" height="0.5"/>
</g>
<g>
	<rect x="263.5" y="281.1" class="st18" width="9.7" height="0.5"/>
</g>
<g>
	<rect x="263.5" y="288.7" class="st18" width="9" height="0.5"/>
</g>
<g>
	<rect x="231.7" y="295.1" class="st18" width="0.5" height="20"/>
</g>
<g>
	<rect x="242.7" y="295.1" class="st18" width="0.5" height="20"/>
</g>
<g>
	<rect x="253.3" y="295.1" class="st18" width="0.5" height="20"/>
</g>
<g>
	<rect x="222.5" y="230.7" class="st18" width="41" height="0.5"/>
</g>
<g>
	<rect x="222.5" y="224.2" class="st18" width="41" height="0.5"/>
</g>
<g>
	<rect x="231.7" y="216.2" class="st18" width="0.5" height="20.2"/>
</g>
<g>
	<rect x="218.1" y="237.3" class="st18" width="0.5" height="56.8"/>
</g>
<g>
	<rect x="267.1" y="237.3" class="st18" width="0.5" height="56.8"/>
</g>
<g>
	<rect x="242.7" y="216.2" class="st18" width="0.5" height="20.2"/>
</g>
<g>
	<rect x="253.3" y="216.2" class="st18" width="0.5" height="20.2"/>
</g>
<g>
	<path class="st9" d="M101,421.6c-1.2,0-2.5-0.2-3.6-0.7c-2.5-1-4.5-2.9-5.6-5.4c-2.7-6.1-5-11.6-6.8-16.1
		c-4.1-10.2-14-9.7-14.4-9.7l-0.1,0H38.9v-2.2h31.4c0.4,0,3.2-0.1,6.5,1.1c3.2,1.2,7.6,3.9,10.1,10c1.8,4.5,4.1,10,6.8,16
		c0.9,1.9,2.4,3.4,4.4,4.2c2,0.8,4.2,0.7,6.1-0.2l19.6-8.8l0.9,2l-19.6,8.8C103.8,421.3,102.4,421.6,101,421.6z"/>
</g>
<g>
	<path class="st9" d="M49.5,389.8c-1.6,0-3.7-0.1-5.7-0.8c-3.3-1.1-3.5-4.8-3.2-6.6l2.2,0.4c0,0.1-0.6,3.3,1.7,4
		c3,1,6.8,0.6,6.9,0.6l0.2,2.2C51.6,389.7,50.7,389.8,49.5,389.8z"/>
</g>
<g>
	<circle class="st3" cx="49.5" cy="406.5" r="6.2"/>
</g>
<g>
	<circle class="st3" cx="49.5" cy="430" r="6.2"/>
</g>
<g>
	<rect x="41.6" y="388.7" class="st2" width="2.2" height="17.7"/>
</g>
<g>
	<rect x="55.4" y="388.7" class="st9" width="2.2" height="17.7"/>
</g>
<g>
	<g>
		<path class="st9" d="M49.6,438c-4.4,0-8-3.6-8-8v-23.4c0-4.4,3.6-8,8-8s8,3.6,8,8V430C57.6,434.4,54,438,49.6,438z M49.6,400.7
			c-3.2,0-5.8,2.6-5.8,5.8V430c0,3.2,2.6,5.8,5.8,5.8c3.2,0,5.8-2.6,5.8-5.8v-23.4C55.4,403.3,52.8,400.7,49.6,400.7z"/>
	</g>
</g>
<g>
	<path class="st2" d="M162,164.5c0,0,2.9,3.8,0.1,6.8l1,0.6l2.5-4L162,164.5z"/>
</g>
<g>
	<path class="st2" d="M142.6,193.5c0,0,1.3,1.6,0,3.5l0.6,0.3l1.3-2.1L142.6,193.5z"/>
</g>
<g>
	<path class="st2" d="M146.1,191.2c0,0-1.2,1.4-2.9-0.1l-0.4,0.6l2,1.5L146.1,191.2z"/>
</g>
<g>
	<path class="st2" d="M171.9,162.5c0,0-4.3,2.4-6.8-0.8l-0.7,0.9l3.6,3L171.9,162.5z"/>
</g>
<g>
	<path class="st2" d="M123,267.2c0,0,1.8,0.7,1.6,3l0.9,0l-0.4-4L123,267.2z"/>
</g>
<g>
	<path class="st2" d="M123,265.1c0,0,1.7-0.6,1.5-2.9l0.9,0l-0.4,4L123,265.1z"/>
</g>
<g>
	<path class="st2" d="M123.5,278.9c0,0,1.5,0.6,2,3h0.5l-0.4-4L123.5,278.9z"/>
</g>
<g>
	<path class="st2" d="M133.1,321.3c0,0,1.8-0.3,3.1,2.1l0.4-0.1l-1.5-3.7L133.1,321.3z"/>
</g>
<g>
	<path class="st2" d="M132.8,319c0,0,1.4-1.2,0.3-3.8l0.4-0.3l1.9,3.5L132.8,319z"/>
</g>
<g>
	<path class="st2" d="M168.4,375.4c0,0,1.4-1.1,3.8,0.5l0.3-0.3l-3-2.6L168.4,375.4z"/>
</g>
<g>
	<path class="st2" d="M167.2,373.1c0,0,0.7-1.7-1.5-3.5l0.2-0.4l3.3,2.2L167.2,373.1z"/>
</g>
<g>
	<path class="st2" d="M123.3,276.9c0,0,1.7-0.6,1.5-2.9l0.9-0.1l-0.4,4L123.3,276.9z"/>
</g>
<g>
	<polygon class="st2" points="252.6,340.9 233.1,340.9 233.1,333.8 233.3,333.8 233.3,340.7 252.3,340.7 252.3,333.8 252.6,333.8 	
		"/>
</g>
<g>
	<path class="st2" d="M242.8,344c-1.8,0-3.2-1.4-3.2-3.2h0.2c0,1.6,1.3,3,3,3s3-1.3,3-3h0.2C246,342.6,244.6,344,242.8,344z"/>
</g>
<g>
	<polygon class="st2" points="245.8,336 239.8,336 239.8,333.8 240.1,333.8 240.1,335.8 245.6,335.8 245.6,333.8 245.8,333.8 	"/>
</g>
<g>
	<polygon class="st2" points="252.6,385.8 252.3,385.8 252.3,378.9 233.3,378.9 233.3,385.8 233.1,385.8 233.1,378.7 252.6,378.7 	
		"/>
</g>
<g>
	<path class="st2" d="M246.2,378.8h-0.2c0-1.6-1.3-3-3-3s-3,1.3-3,3h-0.2c0-1.8,1.4-3.2,3.2-3.2C244.7,375.6,246.2,377,246.2,378.8z
		"/>
</g>
<g>
	<polygon class="st2" points="245.8,385.9 245.6,385.9 245.6,383.8 240.1,383.8 240.1,385.9 239.8,385.9 239.8,383.6 245.8,383.6 	
		"/>
</g>
<g>
	<rect x="225" y="359.2" class="st2" width="35.6" height="0.2"/>
</g>
<g>
	<path class="st2" d="M242.8,363.3c-2.2,0-4-1.8-4-4c0-2.2,1.8-4,4-4c2.2,0,4,1.8,4,4C246.7,361.6,245,363.3,242.8,363.3z
		 M242.8,355.7c-2,0-3.7,1.7-3.7,3.7s1.7,3.7,3.7,3.7c2,0,3.7-1.7,3.7-3.7S244.8,355.7,242.8,355.7z"/>
</g>
<g>
	<path class="st3" d="M303.7,274.7l7.4-0.3c0,0,1.2-11.3-0.2-19.2l-7.2,1.6C303.7,256.9,306.4,264,303.7,274.7z"/>
</g>
<g>
	<polygon class="st9" points="301.1,259.2 311.1,256.9 310.8,254.8 310.3,251.3 300.3,253.6 	"/>
</g>
<g>
	<polygon class="st9" points="301,272.1 311,274.4 310.8,276.6 310.5,278.8 310.4,280.1 300.4,277.8 	"/>
</g>
<g>
	<polygon class="st9" points="285.2,308.6 292.4,316.4 290.9,318 289.5,319.5 288.5,320.5 281.2,312.6 283.1,310.8 	"/>
</g>
<g>
	<polygon class="st9" points="274.6,317.9 279.2,327.8 277,329.2 275.3,330.1 274.2,330.8 269.8,320.9 272,319.6 	"/>
</g>
<g>
	<polygon class="st9" points="269.5,209.9 275.5,200.9 277.5,202.1 279.1,203.2 280.3,204 274.3,212.9 272,211.4 	"/>
</g>
<g>
	<polygon class="st9" points="280.3,217.5 288.7,210.8 290.5,212.7 291.8,213.9 292.7,215 284.3,221.5 282.5,219.6 	"/>
</g>
<g>
	<polygon class="st9" points="201.2,308.6 194,316.4 195.5,318 196.9,319.5 198,320.5 205.2,312.6 203.3,310.8 	"/>
</g>
<g>
	<polygon class="st9" points="211.8,317.9 207.2,327.8 209.4,329.2 211.2,330.1 212.2,330.8 216.6,320.9 214.4,319.6 	"/>
</g>
<g>
	<polygon class="st9" points="216.9,209.9 210.9,200.9 208.9,202.1 207.3,203.2 206.1,204 212.1,212.9 214.4,211.4 	"/>
</g>
<g>
	<polygon class="st9" points="236.1,203.7 234,193 231.6,193.3 229.8,193.7 228.3,194 230.6,204.7 233.2,204.2 	"/>
</g>
<g>
	<polygon class="st9" points="257.2,205 259.6,194.4 257.2,193.8 255.5,193.5 254,193.2 251.7,203.9 254.4,204.3 	"/>
</g>
<g>
	<polygon class="st9" points="206.1,217.5 197.7,210.8 195.9,212.7 194.7,213.9 193.7,215 202.1,221.5 203.9,219.6 	"/>
</g>
<g>
	<path class="st12" d="M175.4,217.8"/>
</g>
<g>
	<g>
		<path class="st3" d="M181.7,254.4l-7.2-1.5c3-14.3,7.9-23.3,14.6-26.7c5.2-2.7,9.5-0.9,9.9-0.7l-4.8,6.7c0,0-0.1,0,0,0
			c-0.1,0,0.2-0.5-2,0.7C189.7,234.3,184.9,238.9,181.7,254.4z"/>
	</g>
</g>
<g>
	<g>
		<path class="st3" d="M193.6,301.7c-1.9,0-5-0.5-8.3-2.8c-6.7-4.7-11-14.5-12.9-29.2l7.3-0.9c2,15.3,6.3,21.5,9.6,23.9
			c2.6,1.9,0.8,1.2,3.2,1.5c-2.1-0.2-0.8-0.1-0.8-0.1l3.9,7.4C195.4,301.6,194.7,301.7,193.6,301.7z"/>
	</g>
</g>
<g>
	<path class="st4" d="M185.6,304.7"/>
</g>
<g>
	<path class="st19" d="M208.5,363.2l-1.4,3.1l-7.1-3.6l-5.6,10.5c0,0-11.6-6.1-16.7-10.8l7.3-9.6l-3.6-2.7l-7.9,8.9
		c0,0-9.8-8.5-13.7-14.2l9.3-7.7c0,0-7.8-9.5-9.3-13.2l-10.5,6.1c0,0-8.1-15.1-8.6-17.6l11.1-4.6l-1.5-4.4l-11.3,3.9l-2.7-8.5
		l-1.6-6.6l-0.6-4l11.8-2.1l-1.2-8.4l-0.5-7.7l-12.1,0.3v-7.5l0.2-7.5l0.6-4.7l11.9,1.5l0.5-4.7l-11.7-1.9l0.9-5.1l1.9-8
		c0,0,1.6-6,1.8-6s11.5,3.6,11.5,3.6l3-8.3l3.1-6.6l-10.7-5.4l0.2-0.7l4.8-8.8l5.1-7.4l9.5,6.7l0.9-0.8l2-2.8l-1.3-1.2l-8.1-6.2
		l1.4-1.8l7-7.9l5-4.8l7.9,8.7l0.9-0.6l11.9-9.3l-6.3-9.9l6.1-3.8l11.2-5.5l4.7,10.7l2.6-0.7l1.7-1l-4-11l9.9-3l9.4-2.1l1.9,11.7
		l0.4,0.1l13.8-1.2l1.9,0.3l0.1-12.1l11.8,0.7l8.1,1.4l-2.3,11.9l4.4,1l1.1-4.1l1.9-7.7l7.8,2.2l11,4.4l-3.5,7.5l-1.4,3.6l7.4,3.7
		l-1.8,3.2c0,0-21.8-12.4-42.8-12.1c-21,0.3-38.5,3.6-59.1,19.8s-27.6,31.5-32.9,44.1c-5.4,12.6-8.9,35.1-7.8,46.3
		c0,0,1.6,26.3,9.9,40.9c2.3,4.1,3.5,7.4,5.1,10.1c4.1,6.9,6.7,10.8,13.2,17.8c9,9.7,18,15.6,19.1,16c1.1,0.4,8.5,5.5,11.9,6.5
		l1.5,0.7L208.5,363.2z"/>
</g>
<g>
	<g>
		
			<rect x="298.3" y="168.1" transform="matrix(0.6022 -0.7983 0.7983 0.6022 -21.9431 311.5383)" class="st19" width="6.8" height="19.4"/>
	</g>
	<g>
		
			<rect x="293.3" y="171.6" transform="matrix(0.6022 -0.7983 0.7983 0.6022 -21.7298 305.4516)" class="st19" width="4.7" height="5.9"/>
	</g>
	<g>
		
			<rect x="294" y="172.4" transform="matrix(0.6022 -0.7983 0.7983 0.6022 -21.7298 305.4516)" class="st19" width="3.4" height="4.2"/>
	</g>
</g>
<g>
	<g>
		
			<rect x="314" y="182.8" transform="matrix(0.764 -0.6452 0.6452 0.764 -49.3056 250.2168)" class="st19" width="6.8" height="19.4"/>
	</g>
	<g>
		
			<rect x="309.9" y="185.1" transform="matrix(0.764 -0.6452 0.6452 0.764 -47.61 245.8426)" class="st19" width="4.7" height="5.9"/>
	</g>
	<g>
		
			<rect x="310.6" y="185.9" transform="matrix(0.764 -0.6452 0.6452 0.764 -47.61 245.8426)" class="st19" width="3.4" height="4.2"/>
	</g>
</g>
<g>
	<g>
		
			<rect x="326" y="200.6" transform="matrix(0.8773 -0.4799 0.4799 0.8773 -60.5244 183.8849)" class="st19" width="6.8" height="19.4"/>
	</g>
	<g>
		
			<rect x="322.9" y="201.9" transform="matrix(0.8773 -0.4799 0.4799 0.8773 -58.4215 181.2355)" class="st19" width="4.7" height="5.9"/>
	</g>
	<g>
		
			<rect x="323.6" y="202.8" transform="matrix(0.8773 -0.4799 0.4799 0.8773 -58.4215 181.2355)" class="st19" width="3.4" height="4.2"/>
	</g>
</g>
<g>
	<g>
		
			<rect x="334.7" y="220.8" transform="matrix(0.9503 -0.3114 0.3114 0.9503 -54.9599 116.7205)" class="st20" width="6.8" height="19.4"/>
	</g>
	<g>
		
			<rect x="332.6" y="221.4" transform="matrix(0.9503 -0.3114 0.3114 0.9503 -53.2126 115.4626)" class="st20" width="4.7" height="5.9"/>
	</g>
	<g>
		
			<rect x="333.3" y="222.3" transform="matrix(0.9503 -0.3114 0.3114 0.9503 -53.2126 115.4626)" class="st20" width="3.4" height="4.2"/>
	</g>
</g>
<g>
	<g>
		
			<rect x="338.9" y="242.7" transform="matrix(0.9977 -6.724564e-02 6.724564e-02 0.9977 -16.2007 23.5884)" class="st20" width="6.8" height="19.4"/>
	</g>
	<g>
		
			<rect x="338.5" y="242.8" transform="matrix(0.9977 -6.724564e-02 6.724564e-02 0.9977 -15.7555 23.4747)" class="st20" width="4.7" height="5.9"/>
	</g>
	<g>
		
			<rect x="339.1" y="243.7" transform="matrix(0.9977 -6.724564e-02 6.724564e-02 0.9977 -15.7555 23.4747)" class="st20" width="3.4" height="4.2"/>
	</g>
</g>
<g>
	<g>
		
			<rect x="298.3" y="340.6" transform="matrix(0.6022 0.7983 -0.7983 0.6022 399.6452 -101.4843)" class="st19" width="6.8" height="19.4"/>
	</g>
	<g>
		
			<rect x="293.3" y="350.6" transform="matrix(0.6022 0.7983 -0.7983 0.6022 399.8585 -95.3976)" class="st19" width="4.7" height="5.9"/>
	</g>
	<g>
		
			<rect x="294" y="351.5" transform="matrix(0.6022 0.7983 -0.7983 0.6022 399.8585 -95.3976)" class="st19" width="3.4" height="4.2"/>
	</g>
</g>
<g>
	<g>
		
			<rect x="280.1" y="351.8" transform="matrix(0.4355 0.9002 -0.9002 0.4355 485.4004 -51.1053)" class="st19" width="6.8" height="19.4"/>
	</g>
	<g>
		
			<rect x="274.6" y="360.5" transform="matrix(0.4355 0.9002 -0.9002 0.4355 483.5451 -44.0909)" class="st19" width="4.7" height="5.9"/>
	</g>
	<g>
		
			<rect x="275.2" y="361.4" transform="matrix(0.4355 0.9002 -0.9002 0.4355 483.5451 -44.0909)" class="st19" width="3.4" height="4.2"/>
	</g>
</g>
<g>
	<g>
		
			<rect x="314" y="325.9" transform="matrix(0.764 0.6452 -0.6452 0.764 291.4342 -125.5846)" class="st19" width="6.8" height="19.4"/>
	</g>
	<g>
		
			<rect x="309.9" y="337.1" transform="matrix(0.764 0.6452 -0.6452 0.764 293.1297 -121.2104)" class="st19" width="4.7" height="5.9"/>
	</g>
	<g>
		
			<rect x="310.6" y="338" transform="matrix(0.764 0.6452 -0.6452 0.764 293.1297 -121.2104)" class="st19" width="3.4" height="4.2"/>
	</g>
</g>
<g>
	<g>
		
			<rect x="319.8" y="314.4" transform="matrix(0.4799 -0.8773 0.8773 0.4799 -107.4367 454.3304)" class="st20" width="19.4" height="6.8"/>
	</g>
	<g>
		
			<rect x="322.3" y="320.9" transform="matrix(0.4799 -0.8773 0.8773 0.4799 -114.4048 453.4514)" class="st20" width="5.9" height="4.7"/>
	</g>
	<g>
		
			<rect x="323.1" y="321.5" transform="matrix(0.4799 -0.8773 0.8773 0.4799 -114.4048 453.4514)" class="st20" width="4.2" height="3.4"/>
	</g>
</g>
<g>
	<g>
		
			<rect x="328.4" y="294.2" transform="matrix(0.3114 -0.9503 0.9503 0.3114 -50.0092 526.2161)" class="st20" width="19.4" height="6.8"/>
	</g>
	<g>
		
			<rect x="332.1" y="301.3" transform="matrix(0.3114 -0.9503 0.9503 0.3114 -57.9187 527.5041)" class="st20" width="5.9" height="4.7"/>
	</g>
	<g>
		
			<rect x="332.9" y="302" transform="matrix(0.3114 -0.9503 0.9503 0.3114 -57.9187 527.5041)" class="st20" width="4.2" height="3.4"/>
	</g>
</g>
<g>
	
		<rect x="309.2" y="184" transform="matrix(0.6944 -0.7196 0.7196 0.6944 -38.4872 279.2656)" class="st21" width="0.7" height="1.8"/>
</g>
<g>
	
		<rect x="322.7" y="200.7" transform="matrix(0.8216 -0.5701 0.5701 0.8216 -57.3226 220.1605)" class="st21" width="0.7" height="1.8"/>
</g>
<g>
	
		<rect x="332.7" y="219.5" transform="matrix(0.9224 -0.3863 0.3863 0.9224 -59.3949 145.7927)" class="st21" width="0.7" height="2.3"/>
</g>
<g>
	
		<rect x="322.1" y="326.2" transform="matrix(0.5124 -0.8588 0.8588 0.5124 -122.8479 436.7584)" class="st21" width="2" height="0.7"/>
</g>
<g>
	
		<rect x="308.4" y="342.4" transform="matrix(0.7391 -0.6736 0.6736 0.7391 -150.1719 297.8669)" class="st21" width="2" height="0.7"/>
</g>
<g>
	
		<rect x="291.5" y="355.3" transform="matrix(0.87 -0.4931 0.4931 0.87 -137.3856 190.4211)" class="st21" width="1.7" height="0.7"/>
</g>
<g>
	<path class="st9" d="M696,122.7c-0.3-0.4-28.8-41.7-43.7-47.5c-8.1-3.1-23.2-3.2-37.9-3.3c-13.1,0-25.5-0.1-33.6-2.2
		c-16.9-4.3-41.2,0-41.5,0l0,0c-0.1,0-15.2,1.9-33.8-8.4l0.6-1.1c18.1,10,32.6,8.3,33.1,8.3c0.8-0.1,25-4.3,42,0
		c7.9,2,20.8,2.1,33.3,2.1c14.8,0.1,30.1,0.1,38.3,3.3c15.2,5.9,43.1,46.2,44.3,48L696,122.7z"/>
</g>
<g>
	<path class="st9" d="M653.1,74.7l-1.2-0.2c0.7-4.9-1.3-12.8-3.2-20.4c-2.6-10.2-4.8-19-1.1-21.3c5.4-3.3,5.3-6.8,5.3-6.8L654,26
		c0,0.2,0.3,4.2-5.9,8c-2.9,1.8-0.6,11,1.7,19.9C651.8,61.6,653.8,69.6,653.1,74.7z"/>
</g>
<g>
	<path class="st12" d="M185.6,251.3"/>
</g>
<g>
	<path class="st3" d="M416.2,176.4l-3.2-0.3c-2.3-9.5-8.5-16.4-15.9-16.4c-6.6,0-12.4,5.6-15.1,13.8l-3-0.3l-1.5,18.2l3.6,0.3
		c2.1,10.1,8.5,17.4,16.1,17.4c6.9,0,12.8-6.1,15.4-14.8l2.2,0.2L416.2,176.4z"/>
</g>
<g>
	<path class="st9" d="M95.3,109.2l-1.5-1.6c0.3-0.3,8.6-8.2,23.6-15.5c8.8-4.3,18.1-7.5,27.6-9.6c11.9-2.6,24.1-3.3,36.4-2.2
		l-0.2,2.2c-27.3-2.5-49.2,4.9-62.8,11.6C103.6,101.3,95.3,109.1,95.3,109.2z"/>
</g>
<g>
	<path class="st3" d="M140.6,525.8c0-0.5-1-46.5-8.1-93.3c-5.2-34.2-18.9-63-30.9-88.5c-4.5-9.5-8.7-18.4-12.3-27.1
		c-14.1-34.3-17.6-63.2-19.2-87c-1.6-24,3.4-65.9,16-96.1c7.9-19,16.9-36.3,26.7-51.6c7.9-12.3,16.4-23.3,25.3-32.6
		c15.3-16.2,26.4-22,26.8-22.3l4.2,8.1l-2.1-4l2.1,4c-0.1,0.1-10.5,5.6-24.8,20.9c-13.2,14.1-32.6,39.6-49.8,81
		c-11.6,27.9-16.9,68.7-15.3,92c1.6,24.2,5,51.1,18.6,84.2c3.5,8.5,7.7,17.3,12.1,26.7c12.3,26,26.3,55.5,31.7,91
		c7.2,47.4,8.2,94,8.2,94.5L140.6,525.8z"/>
</g>
<g>
	<path class="st9" d="M144.3,525.7c0-0.5-1-46.7-8.1-93.8c-5.3-34.8-19.1-63.8-31.2-89.5c-4.5-9.4-8.7-18.3-12.2-26.9
		c-13.8-33.7-17.3-61.2-19-85.9c-0.8-12,0.1-28.4,2.6-44.7c2-13.1,5.9-32.3,13.1-49.7c7.8-18.7,16.7-35.9,26.4-51
		c7.8-12.1,16.2-22.9,24.9-32.1c14.9-15.7,25.4-21.3,25.8-21.5l0.8,1.5c-0.1,0.1-10.8,5.7-25.5,21.3c-13.6,14.4-33.4,40.3-50.9,82.5
		c-12.2,29.5-17.2,70.3-15.6,93.7c1.7,24.5,5.1,51.8,18.8,85.3c3.5,8.6,7.7,17.4,12.2,26.9c12.2,25.8,26.1,55,31.4,90
		c7.2,47.2,8.1,93.5,8.1,94L144.3,525.7z"/>
</g>
<g>
	<path class="st9" d="M160.5,92.5l-2.2-0.3c0,0,0.6-4.3-1.7-6.8c-1.3-1.4-3.4-2-6.1-1.8l-0.2-2.2c3.5-0.3,6.1,0.5,8,2.5
		C161.3,87.2,160.6,92.3,160.5,92.5z"/>
</g>
<g>
	<path class="st9" d="M304.6,227.8l-11.7,5.2c0,0,2.3,4.4,3.9,8.2c0.6,1.4,1.2,2.8,1.4,3.8c0,0,11.8-4.9,11.7-5.2
		C309.8,239.6,304.6,227.8,304.6,227.8z"/>
</g>
<g>
	<path class="st9" d="M309,291l-11-4.6c0,0-1.4,4-3.2,7.7c-0.7,1.4-1.6,3.4-2.2,4.2c0,0,11.2,5,11.3,4.7
		C304.1,302.8,309,291,309,291z"/>
</g>
<g>
	<g>
		<circle class="st20" cx="1137" cy="320.8" r="13.6"/>
	</g>
	<g>
		<path class="st2" d="M1134.5,327.2c0,0-4.1-2.5-4.1-5.8c0-2.7,0.8-4,2-4.9c0,0,0.5-0.4,0.7-0.4c0,0,0.3,0,0.5,0.6
			c0.2,0.8,3.2,10.4,3.2,10.4l3.2-10.4c0,0,0.2-0.6,0.6-0.6c0.3,0,0.9,0.2,1.3,0.7c0.3,0.4,1.3,1.4,1.3,4.5c0,3.7-4.1,5.8-4.2,5.8
			l0,0h3.7c0,0,2.1-2.4,2.1-5.5c0,0,0.2-5.5-5.3-7.7l-2.6,9c0,0,0,0-0.1,0c-0.1,0-0.1,0-0.1,0l-2.7-9c0,0-5.3,1.8-5.3,7.7
			c0,0-0.1,3.3,2.1,5.5H1134.5z"/>
	</g>
</g>
<g>
	<path class="st22" d="M372.6,281.2"/>
</g>
<g>
	<path class="st22" d="M364,280.6"/>
</g>
<g>
	<path class="st20" d="M733.9,329.2c-0.1,0-0.3,0-0.4,0l-7.5-0.4c-2-0.1-3.8-1-5.2-2.5l-5-5.6c-1.3-1.5-2-3.4-1.9-5.4l0.4-7.5
		c0.1-2,1-3.8,2.5-5.2l5.6-5c1.5-1.3,3.4-2,5.4-1.9l7.5,0.4c2,0.1,3.8,1,5.2,2.5l5,5.6c1.3,1.5,2,3.4,1.9,5.4l-0.4,7.5
		c-0.1,2-1,3.8-2.5,5.2l-5.6,5C737.6,328.5,735.8,329.2,733.9,329.2z M727.4,298.7c-1.1,0-2.2,0.4-3,1.2l-5.6,5
		c-0.9,0.8-1.4,1.9-1.5,3.1l-0.4,7.5c-0.1,1.2,0.3,2.3,1.1,3.2l5,5.6c0.8,0.9,1.9,1.4,3.1,1.5l7.5,0.4c1.2,0.1,2.4-0.4,3.2-1.1
		l5.6-5c0.9-0.8,1.4-1.9,1.5-3.1l0.4-7.5c0.1-1.2-0.3-2.3-1.1-3.2l-5-5.6c-0.8-0.9-1.9-1.4-3.1-1.5l0,0l-7.5-0.4
		C727.6,298.7,727.5,298.7,727.4,298.7z"/>
</g>
<g>
	<path class="st20" d="M1120.9,349.6c-0.4,0-0.9,0-1.3-0.1l-374.2-34.7l0.3-3l374.2,34.7c5.3,0.5,7.3-2.7,11.8-10.5
		c0.8-1.4,1.6-2.9,2.6-4.5l2.6,1.5c-0.9,1.6-1.8,3-2.6,4.4C1130.2,344.7,1127.4,349.6,1120.9,349.6z"/>
</g>
<g>
	<polygon class="st20" points="715.5,313 471.5,291 358.4,280.9 358.7,277.9 471.7,288 715.8,310 	"/>
</g>
<g>
	<circle class="st20" cx="358.1" cy="278.8" r="5"/>
</g>
<g>
	<polygon class="st3" points="1232.8,374.8 1232.8,369.8 1224.8,369.8 1224.8,375.8 1229.8,375.8 1229.8,380.8 1230.8,380.8 
		1230.8,393.8 1236.8,393.8 1236.8,380.6 1236.8,379.6 1236.8,374.8 	"/>
</g>
<g>
	<polygon class="st3" points="1267.8,374.8 1267.8,369.8 1275.8,369.8 1275.8,375.8 1270.8,375.8 1270.8,380.8 1269.8,380.8 
		1269.8,393.8 1263.8,393.8 1263.8,380.6 1263.8,379.6 1263.8,374.8 	"/>
</g>
<g>
	<rect x="1235.9" y="380.6" class="st3" width="29.9" height="5.3"/>
</g>
<g>
	<g>
		<path class="st9" d="M1248.9,230.7c-2.5,0-4,0-4.1-0.1l0.1-3c0.7,0,79.8,1.5,115.7-31.6l2.2,2.4
			C1328.3,228.5,1265.1,230.7,1248.9,230.7z"/>
	</g>
</g>
<g>
	<path class="st9" d="M1359.1,281l-186.8-83.4l0,0c-17-8.6-28-7.4-39.7-5.1c-11.3,2.2-41.7,1.9-46.1,1.2c-3.7-0.6-15.2-3.6-19.9-4.9
		c-1.1-0.3-2.2-0.5-3.3-0.7c-27.1-4.1-68.9-18.3-82.7-23c-0.9-0.3-1.7-0.6-2.4-0.8c-10.7-3.6-113.1-45.3-117.4-47.1l0,0l-11.6-5.1
		c-0.4-0.2-10.6-5.4-19.3,9.2l0,0l-11.4,17.9c0,0-3,4.3-3,11c0,7.1,0.1,11.5,0.1,11.5l0,0l0,0c0,3.5-0.1,6.2-0.1,8.4
		c-0.1,7.6-0.1,8.5,1,18.5l-2.2,0.2c-1.1-10.1-1.1-11.1-1-18.8c0-2.1,0.1-4.8,0.1-8.3c0-0.4-0.2-4.7-0.1-11.6
		c0-7.3,3.1-11.8,3.4-12.2l11.4-17.8c5.1-8.5,10.8-10.8,14.7-11.2c4.1-0.4,7,1,7.4,1.2l11.5,5c1.7,0.7,106.7,43.4,117.3,47
		c0.7,0.2,1.5,0.5,2.4,0.8c13.7,4.7,55.4,18.9,82.3,22.9c1.2,0.2,2.4,0.4,3.6,0.7c3.7,1,16,4.3,19.7,4.9c4.3,0.7,34.2,0.9,45.4-1.2
		c12.1-2.3,23.5-3.6,41.1,5.3l186.8,83.3L1359.1,281z"/>
</g>
<g>
	<path class="st23" d="M1418.6,554.1c-5.1-29.5-14.7-53.2-22.6-70.5c-0.6-1.2-1.2-2.8-1.9-4.6c-2.9-7.3-7.3-18.4-13.8-24.7
		l-10.4-8.4l-0.2-0.5l-27.6-73c-1.8-4.7-2.5-9.8-2.1-14.8c0.5-6.1,1.7-16,5.1-28.8c6-22.9,21.1-93.9,20.9-102l4-0.1
		c0.2,9.4-15.3,81.3-21,103.2c-3.3,12.5-4.5,22.2-5,28.1c-0.3,4.4,0.3,8.9,1.9,13l27.4,72.5l9.8,7.9c7.1,6.9,11.7,18.5,14.7,26.1
		c0.7,1.8,1.3,3.3,1.9,4.5c4.7,10.3,17.1,37.7,22.9,71.5L1418.6,554.1z"/>
</g>
<g>
	<rect x="1238.2" y="343.9" class="st3" width="8" height="8"/>
</g>
<g>
	<rect x="1256.1" y="343.2" class="st3" width="8" height="8"/>
</g>
<g>
	<polygon class="st3" points="1315.5,229.7 1313.2,235.1 1310.8,233.8 1305,247.9 1339.7,262.3 1345.2,248.6 1348.3,249.6 
		1350.9,243.5 1354.7,244.9 1359.6,231.4 1335.8,221.8 1335.3,223.1 1333.9,222.5 1333.1,224.4 1331.3,223.7 1330.5,225.8 
		1328,224.8 1326.8,227.5 1324.6,226.4 1322.4,231.4 1316.1,228.5 	"/>
</g>
<g>
	
		<rect x="1345.2" y="258.4" transform="matrix(0.9319 0.3628 -0.3628 0.9319 187.0144 -472.0859)" class="st3" width="10.3" height="7"/>
</g>
<g>
	<path class="st3" d="M1258.6,542.9l6.7,16.1l2.8-1.1l7.3,18.1l28.6-11.4l-10.9-21.8l1.7-0.9c0,0-14.8,3.3-20.6-8.3l-0.4,2.8
		l-15.2,5.8L1258.6,542.9z"/>
</g>
<g>
	<polygon class="st3" points="1285,505.5 1283.4,501.7 1283.4,501.7 1263.5,454.2 1256.3,457.2 1276.2,504.7 1277.7,504.1 
		1279.2,507.9 	"/>
</g>
<g>
	<circle class="st3" cx="1284.3" cy="512" r="6.6"/>
</g>
<g>
	
		<rect x="1276.6" y="449.2" transform="matrix(0.9329 -0.3602 0.3602 0.9329 -76.9245 491.9033)" class="st3" width="9.3" height="6.3"/>
</g>
<g>
	<polygon class="st3" points="1348,282.6 1315.7,270 1318.4,265.6 1349.9,277.8 	"/>
</g>
<g>
	
		<rect x="1341.6" y="280" transform="matrix(-0.1301 0.9915 -0.9915 -0.1301 1802.0358 -1015.8967)" class="st3" width="10.2" height="5.1"/>
</g>
<g>
	<polygon class="st3" points="1305.9,282.2 1312.1,267.7 1318.4,265.6 1311.9,280.9 	"/>
</g>
<g>
	
		<rect x="1327.7" y="302" transform="matrix(-0.1301 0.9915 -0.9915 -0.1301 1817.8025 -985.8403)" class="st3" width="27.4" height="5.1"/>
</g>
<g>
	
		<rect x="1287.4" y="325.1" transform="matrix(-0.9979 -6.414569e-02 6.414569e-02 -0.9979 2563.261 737.6938)" class="st3" width="12.1" height="5.1"/>
</g>
<g>
	
		<rect x="1310.5" y="327" transform="matrix(-0.9979 -6.414569e-02 6.414569e-02 -0.9979 2609.2183 742.9193)" class="st3" width="12.1" height="5.1"/>
</g>
<g>
	
		<rect x="1298.8" y="324.6" transform="matrix(-0.9979 -6.414569e-02 6.414569e-02 -0.9979 2586.0237 737.2997)" class="st3" width="12.1" height="5.1"/>
</g>
<g>
	
		<rect x="1322" y="325.6" transform="matrix(-0.9979 -6.414569e-02 6.414569e-02 -0.9979 2626.7322 740.7415)" class="st3" width="6.4" height="5.1"/>
</g>
<g>
	
		<rect x="1322" y="318.5" transform="matrix(-0.9979 -6.414569e-02 6.414569e-02 -0.9979 2627.1924 726.4042)" class="st3" width="6.4" height="5.1"/>
</g>
<g>
	
		<rect x="1329.2" y="313.4" transform="matrix(6.414569e-02 -0.9979 0.9979 6.414569e-02 931.6607 1625.3579)" class="st3" width="6.4" height="5.1"/>
</g>
<g>
	
		<rect x="1328.7" y="276.4" transform="matrix(0.9319 0.3628 -0.3628 0.9319 191.9793 -464.4199)" class="st3" width="7.5" height="5.1"/>
</g>
<g>
	
		<rect x="1323.6" y="289.3" transform="matrix(0.9319 0.3628 -0.3628 0.9319 196.3332 -461.7089)" class="st3" width="7.5" height="5.1"/>
</g>
<g>
	
		<rect x="1324.5" y="280.6" transform="matrix(0.9319 0.3628 -0.3628 0.9319 194.3797 -462.9566)" class="st3" width="10.5" height="10.9"/>
</g>
<g>
	<path class="st3" d="M1317,297.2L1317,297.2l-5.3-16.9l-5.7,1.7l5.2,16.8c0.1,0.3,0.1,0.5,0.2,0.5c0.2,1,1.1,5.1-1.3,8
		c-2.3,2.9-7.5,3.9-14.9,3l-2.1,5.9c2,0.2,5.2,0.4,6.8,0.4c10,0,14.3-4,16.2-7.7C1318.4,304.8,1317.9,299.7,1317,297.2z"/>
</g>
<g>
	<path class="st3" d="M1322.2,318.3l7.9-5.7l-0.3,4.4l2.6,2.2c0,0-3.9,2.1-4.2,2.1C1327.9,321.3,1322.2,318.3,1322.2,318.3z"/>
</g>
<g>
	<path class="st9" d="M1270.3,241.2c-2.6-8.1,2.2-13.6,2.4-13.8l2.2,2c-0.2,0.2-3.8,4.4-1.8,10.9L1270.3,241.2z"/>
</g>
<g>
	<path class="st9" d="M1366.6,227.5c-4.8-12.4-22.6-16-22.8-16l0.6-2.9c0.8,0.2,19.5,3.9,25,17.9L1366.6,227.5z"/>
</g>
<g>
	<path class="st9" d="M1393.6,513.6c-1.9,0-3.7-1.2-4.2-3.1l-19.2-65.4l2.9-0.8l19.1,65.4c0.2,0.7,1,1.1,1.7,1l27.7-6.7l0.7,2.9
		l-27.7,6.7C1394.2,513.5,1393.9,513.6,1393.6,513.6z"/>
</g>
<g>
	
		<rect x="1405.3" y="487.4" transform="matrix(0.2684 0.9633 -0.9633 0.2684 1503.6438 -1000.6307)" class="st3" width="10.7" height="4.6"/>
</g>
<g>
	
		<rect x="1380.8" y="439.4" transform="matrix(0.2684 0.9633 -0.9633 0.2684 1441.7751 -1015.119)" class="st3" width="16.8" height="4.6"/>
</g>
<g>
	<polygon class="st3" points="1384.9,434.2 1391.9,432.2 1393.8,436.5 1386.2,438.6 	"/>
</g>
<g>
	
		<rect x="1401.2" y="472.4" transform="matrix(0.2684 0.9633 -0.9633 0.2684 1485.009 -1005.9913)" class="st3" width="7.3" height="4.6"/>
</g>
<g>
	<g>
		<polygon class="st3" points="1366.2,505.6 1364,497.5 1372.6,495.1 1374.9,503.2 1380.9,501.5 1377,487.4 1370.9,489.1 
			1370.9,489.1 1356.2,493.2 1357.9,499.2 1357.9,499.2 1360.2,507.3 		"/>
	</g>
	<g>
		
			<rect x="1363.5" y="515.4" transform="matrix(0.9633 -0.2684 0.2684 0.9633 -88.9337 386.5518)" class="st3" width="11.2" height="6.3"/>
	</g>
	<g>
		
			<rect x="1367.9" y="527.8" transform="matrix(0.9633 -0.2684 0.2684 0.9633 -92.1009 388.169)" class="st3" width="11.2" height="6.3"/>
	</g>
	<g>
		
			<rect x="1370.5" y="537.3" transform="matrix(0.9633 -0.2684 0.2684 0.9633 -94.5659 389.2372)" class="st3" width="11.2" height="6.3"/>
	</g>
	<g>
		
			<rect x="1373.4" y="547.7" transform="matrix(0.9633 -0.2684 0.2684 0.9633 -97.2393 390.3916)" class="st3" width="11.2" height="6.3"/>
	</g>
	<g>
		
			<rect x="1375.9" y="557.3" transform="matrix(0.9633 -0.2684 0.2684 0.9633 -99.7322 391.4207)" class="st3" width="11.2" height="6.3"/>
	</g>
	<g>
		
			<rect x="1378.3" y="507" transform="matrix(0.9633 -0.2684 0.2684 0.9633 -87.3587 389.6911)" class="st3" width="6.3" height="14.7"/>
	</g>
	<g>
		
			<rect x="1387.7" y="542.4" transform="matrix(0.9633 -0.2684 0.2684 0.9633 -95.5152 393.3765)" class="st3" width="6.3" height="7.1"/>
	</g>
	<g>
		
			<rect x="1390.4" y="552.3" transform="matrix(0.9633 -0.2684 0.2684 0.9633 -98.0716 394.454)" class="st3" width="6.3" height="7.1"/>
	</g>
	<g>
		
			<rect x="1403.8" y="549" transform="matrix(0.9633 -0.2684 0.2684 0.9633 -96.6866 397.9479)" class="st3" width="6.3" height="7.1"/>
	</g>
	<g>
		<polygon class="st3" points="1401.5,520.8 1401.4,520.8 1401.2,520.3 1381.9,525.7 1382.3,527.1 1382.3,527.1 1386.2,541.2 
			1392.3,539.5 1389.6,530 1397,528 1401.9,545.8 1408,544.1 		"/>
	</g>
</g>
<g>
	
		<rect x="1378.8" y="465.6" transform="matrix(0.9689 -0.2474 0.2474 0.9689 -72.2655 359.1586)" class="st9" width="28.1" height="3"/>
</g>
<g>
	<rect x="1142" y="243.3" class="st2" width="171.1" height="64.2"/>
</g>
<g>
	<g>
		<path class="st24" d="M1164.8,268.3h-0.9v-6.1h-3.5v6.1h-0.9v-6.8h5.3V268.3z"/>
		<path class="st24" d="M1171.1,267.4c0,0-0.5,1-2.1,1c-1.6,0-2.6-0.9-2.6-2.7c0-1.8,1-2.9,2.5-2.9c1.4,0,2.2,0.9,2.2,2.4
			c0,0.4-0.1,0.6-0.1,0.6h-3.8v0c0,1.2,0.7,1.9,1.8,1.9c1.1,0,1.6-0.7,1.6-0.7L1171.1,267.4z M1167.2,265.3h3.1c0,0,0,0,0-0.1
			c0-1-0.5-1.6-1.4-1.6C1167.8,263.5,1167.3,264.3,1167.2,265.3z"/>
		<path class="st24" d="M1179.2,268.3h-6.8v-5.2h0.8v4.6h2.2v-4.6h0.8v4.6h2.2v-4.6h0.8V268.3z"/>
		<path class="st24" d="M1181,263.1h0.8v2.3l0.7-0.4l1.8-1.9h1l-2.1,2.3l2.2,2.9h-1l-1.9-2.5l-0.6,0.3v2.3h-0.8V263.1z"/>
		<path class="st24" d="M1188.5,268.4c-1.7,0-2.6-1.1-2.6-2.8s0.9-2.8,2.6-2.8c1.7,0,2.6,1.1,2.6,2.8S1190.2,268.4,1188.5,268.4z
			 M1186.8,265.7c0,1.3,0.5,2.1,1.7,2.1c1.2,0,1.7-0.8,1.7-2.1c0-1.3-0.5-2.1-1.7-2.1C1187.3,263.5,1186.8,264.4,1186.8,265.7z"/>
		<path class="st24" d="M1198.6,268.3h-0.8v-3.8l0-0.5l-1.9,4.3h-0.8l-1.9-4.3l0,0.5v3.7h-0.8v-5.2h1l2,4.5l2-4.5h1.1V268.3z"/>
		<path class="st24" d="M1208.4,269.8h-0.7l0-1.5h-4.5l-0.1,1.5h-0.6l0-2.2h0.7c0.5-1.2,0.7-2.6,0.7-4.6h3.7v4.6h0.9L1208.4,269.8z
			 M1204,267.6h2.8v-3.9h-2.2C1204.6,265.3,1204.5,266.5,1204,267.6z"/>
		<path class="st24" d="M1211.8,268.4c-1.7,0-2.6-1.1-2.6-2.8s0.9-2.8,2.6-2.8c1.7,0,2.6,1.1,2.6,2.8S1213.5,268.4,1211.8,268.4z
			 M1210.1,265.7c0,1.3,0.5,2.1,1.7,2.1c1.2,0,1.7-0.8,1.7-2.1c0-1.3-0.5-2.1-1.7-2.1C1210.6,263.5,1210.1,264.4,1210.1,265.7z"/>
		<path class="st24" d="M1222.8,267.5c0,0-0.5,0.9-2,0.9c-1.7,0-2.6-0.9-2.6-2.7c0-1.8,0.9-2.8,2.6-2.8c1.3,0,1.8,0.6,1.8,0.6
			l-0.3,0.5c0,0-0.5-0.5-1.4-0.5c-1.3,0-1.9,0.7-1.9,2.2c0,1.5,0.7,2.1,1.8,2.1c1,0,1.5-0.6,1.5-0.6L1222.8,267.5z"/>
		<path class="st24" d="M1225.6,263.7v4.6h-0.8v-4.6h-1.7v-0.7h4.2v0.7H1225.6z"/>
		<path class="st24" d="M1231.1,267.5c-0.1,0.2-0.5,0.9-1.7,0.9c-1.2,0-1.9-0.6-1.9-1.5c0-1.5,2.3-1.9,3.5-2v-0.2
			c0-0.9-0.4-1.3-1.3-1.3c-1,0-1.4,0.6-1.4,0.6l-0.5-0.4c0,0,0.5-0.8,1.9-0.8c1.4,0,2,0.6,2,1.9v3.5h-0.7L1231.1,267.5z
			 M1231.1,266.9v-1.3c-1.2,0.1-2.6,0.3-2.6,1.3c0,0.6,0.4,1,1.2,1C1230.8,267.8,1231.1,267,1231.1,266.9z"/>
		<path class="st24" d="M1238.9,269.8h-0.7l0-1.5h-4.5l-0.1,1.5h-0.6l0-2.2h0.7c0.5-1.2,0.7-2.6,0.7-4.6h3.7v4.6h0.9L1238.9,269.8z
			 M1234.5,267.6h2.8v-3.9h-2.2C1235.1,265.3,1234.9,266.5,1234.5,267.6z"/>
		<path class="st24" d="M1240.1,263.1h0.8v4l3-3.7l0.1-0.2h0.7v5.2h-0.8v-3.9l-3,3.7l-0.1,0.2h-0.7V263.1z"/>
		<path class="st24" d="M1248.7,268.4c-1.7,0-2.6-1.1-2.6-2.8s0.9-2.8,2.6-2.8c1.7,0,2.6,1.1,2.6,2.8S1250.4,268.4,1248.7,268.4z
			 M1247,265.7c0,1.3,0.5,2.1,1.7,2.1c1.2,0,1.7-0.8,1.7-2.1c0-1.3-0.5-2.1-1.7-2.1C1247.5,263.5,1247,264.4,1247,265.7z"/>
		<path class="st24" d="M1252.7,263.1h0.8v2.2h2.8v-2.2h0.8v5.2h-0.8V266h-2.8v2.3h-0.8V263.1z"/>
		<path class="st24" d="M1262,267.5c-0.1,0.2-0.5,0.9-1.7,0.9c-1.2,0-1.9-0.6-1.9-1.5c0-1.5,2.3-1.9,3.5-2v-0.2
			c0-0.9-0.4-1.3-1.3-1.3c-1,0-1.4,0.6-1.4,0.6l-0.5-0.4c0,0,0.5-0.8,1.9-0.8c1.4,0,2,0.6,2,1.9v3.5h-0.7L1262,267.5z M1262,266.9
			v-1.3c-1.2,0.1-2.6,0.3-2.6,1.3c0,0.6,0.4,1,1.2,1C1261.6,267.8,1261.9,267,1262,266.9z"/>
		<path class="st24" d="M1271.7,268.3h-4.8v-0.7c0,0,3.6-2.4,3.6-4.2c0-0.8-0.4-1.3-1.6-1.3c-1,0-1.5,0.8-1.5,0.8l-0.5-0.4
			c0,0,0.5-1.1,2.1-1.1c1.8,0,2.4,0.8,2.4,2c0,1.6-2,3.3-3.2,4.3h3.4V268.3z"/>
		<path class="st24" d="M1276,263.1h0.8v2.3l0.7-0.4l1.8-1.9h1l-2.1,2.3l2.2,2.9h-1l-1.9-2.5l-0.6,0.3v2.3h-0.8V263.1z"/>
		<path class="st24" d="M1287.5,268.3h-0.8v-3.8l0-0.5l-1.9,4.3h-0.8l-1.9-4.3l0,0.5v3.7h-0.8v-5.2h1l2,4.5l2-4.5h1.1V268.3z"/>
		<path class="st24" d="M1290.3,267.5v0.8h-0.8v-0.8H1290.3z"/>
	</g>
	<g>
		<path class="st24" d="M1161.5,275.9c0,0-1.3,1.7-1.3,4.6c0,2.9,1.3,4.5,1.3,4.5l-0.6,0.3c0,0-1.5-1.5-1.5-4.8
			c0-3.2,1.5-4.8,1.5-4.8L1161.5,275.9z"/>
		<path class="st24" d="M1162.5,281.1c0-1,0.5-1.6,1.2-1.6c0.4,0,0.8,0.1,1.5,0.5c0.5,0.3,0.9,0.4,1.3,0.4c0.4,0,0.6-0.3,0.6-0.9
			h0.6c0.1,1.2-0.6,1.6-1.2,1.6c-0.4,0-0.8-0.1-1.5-0.5c-0.5-0.2-0.9-0.5-1.3-0.5s-0.6,0.3-0.6,0.9H1162.5z"/>
		<path class="st24" d="M1173.5,283.3h-4.8v-0.7c0,0,3.6-2.4,3.6-4.2c0-0.8-0.4-1.3-1.6-1.3c-1,0-1.5,0.8-1.5,0.8l-0.5-0.4
			c0,0,0.5-1.1,2.1-1.1c1.8,0,2.4,0.8,2.4,2c0,1.6-2,3.3-3.2,4.3h3.4V283.3z"/>
		<path class="st24" d="M1175.1,279.9l0.3-3.4h3.3v0.7h-2.7l-0.2,2c0.2-0.1,0.5-0.1,0.8-0.1c1.5,0,2.5,0.8,2.5,2.1
			c0,1.4-1,2.3-2.6,2.3c-1.9,0-2.3-1.2-2.3-1.2l0.5-0.5c0,0,0.4,0.9,1.7,0.9c1.2,0,1.7-0.7,1.7-1.6c0-0.8-0.6-1.4-1.7-1.4
			c-0.6,0-1,0.2-1,0.3L1175.1,279.9z"/>
		<path class="st24" d="M1189.6,283.3h-0.8v-3.8l0-0.5l-1.9,4.3h-0.8l-1.9-4.3l0,0.5v3.7h-0.8v-5.2h1l2,4.5l2-4.5h1.1V283.3z"/>
		<path class="st24" d="M1191.4,278.1h0.8v4l3-3.7l0.1-0.2h0.7v5.2h-0.8v-3.9l-3,3.7l-0.1,0.2h-0.7V278.1z"/>
		<path class="st24" d="M1197.8,278.1h0.8v2.2h2.8v-2.2h0.8v5.2h-0.8V281h-2.8v2.3h-0.8V278.1z"/>
		<path class="st24" d="M1205,282.5v0.8h-0.8v-0.8H1205z"/>
		<path class="st24" d="M1206.6,285c0,0,1.3-1.7,1.3-4.6s-1.3-4.5-1.3-4.5l0.7-0.3c0,0,1.5,1.5,1.5,4.7c0,3.3-1.5,4.8-1.5,4.9
			L1206.6,285z"/>
	</g>
</g>
</svg>
