<svg id="Layer_1" xmlns="http://www.w3.org/2000/svg" viewBox="0 0 1920 1080"><style>.st0{fill:#f8f5ed}.st1{fill:none;stroke:#fff;stroke-width:2;stroke-miterlimit:10}.st2{fill:#fff}.st3{fill:#ccd9e2}.st4{fill:#9cc44d}.st5{fill:#b0d577}.st6{fill:#bde3f1}.st7{fill:#e5eef1}.st8{fill:#adadad}.st9{fill:#f0f4f6}.st10{fill:none;stroke:#fff;stroke-miterlimit:10}.st11{fill:#c1c1c1}.st12{fill:#d8d8d8}.st13{fill:#eaeaea}.st14{fill:none;stroke:#fff;stroke-width:9;stroke-miterlimit:10}.st15{fill:#04adda}.st16{fill:#04a0ce}.st17{fill:#a2dceb}.st18{fill:#98cef0}.st19{fill:#c9c9c9}.st20{fill:#3c91cf}.st21{fill:none;stroke:#3c91cf;stroke-width:11;stroke-miterlimit:10}.st22{stroke-linecap:round;stroke-linejoin:round}.st22,.st23{fill:none;stroke:#3c91cf;stroke-width:3;stroke-miterlimit:10}</style><g id="base"><path class="st0" d="M482.5 623.5l-158.4 56.3c-2.3.8-4.8.7-7.2.8-11 .3-31.3-9.9-32.8-36.5-2-33.8 24.6-39.2 31.3-42.9 6.8-3.7 2.8-11.8 2.8-11.8s-15.2-51.3-15.7-74.6c-3.4-140.1 83-205.4 83-205.4l32.9-22.3 1.8 1.4 3 2.1s27.6-4.1 39.8-4.1c12.2 0 13.2 7.3 13.2 7.3s38.5 2.6 39.7 3.4c1.2.7 3.3 1.9 2.8 5.3s-4 3.9-7.6 4.2-39.9-2.8-39.9-2.8l-2.5 34.6s70.4 6.5 74.5 6.9c4.2.4 77.7 6.7 77.7 6.7s62.7 5.6 72.3 6.4c9.6.8 81.7 7.7 87.8 7.6 6.1-.1 77.5 7.1 79.8 7.4 2.3.2 78.7 6.6 78.7 6.6s65.1 6 66.7 6.2c1.6.2 69.6 6.7 70.6 6.3s7.4-1.2 8.9-13.5 2.1-17.5-6.3-19.9c-8.4-2.3-37.4-4-43.7-4.9-6.3-1-40.8-4.3-42.6-4.1s-27.9-2.9-31.5-3.1c-3.6-.2-25.3-2.5-27.5-2.9-2.2-.4-4.9-.3-5.9-1-1.1-.7-.8-3-.9-4 0-1-.6-6.2 10.4-4.7 1.2.2 2.4-.9 3-2.5.8-2.1 0-4.5-1.9-5.9-1.5-1.1-3.9-3.4-4.1-7.1 0 0 .2-2.1-4.4-5.7-4.7-3.6-10.2-8.2-18.8-8.2s-15.1.6-16.4.3-4.7-1.1-8.5-4.3-6.2-5.2-9.6-6c-3.4-.7-6.5-3.1-6.5-3.1s-2.1-2.1-6.4 1.6c-4.3 3.7-6 3.1-9.6 7.7s-9.6 7.3-9.6 7.3-7.4 3-8.4 3.9c0 0-6.5 2.6-18.9-5.4-8.3-5.4-9.8-6.8-10.9-8.4-1-1.6-7.2-4.3-9.2-4.5-2-.2-8.2-1.7-10.9-4.1-2.7-2.5-3.6-5.7-7.8-7.4-4.2-1.7-9.9-8.3-9.9-8.3s-5.2-5.9-7.6-9.9c0 0-2.6-7.9-3.7-8.1-1.1-.2-2-4.9-.6-7.6s-1.4-9.1-1.5-9.8c-.1-.7 1.6-8.7 8.4-11.7 6.8-2.9 27.8-10.7 27.8-10.7s12.7.1 19.1 2.3c6.4 2.2 14.7 1 14.7 1s4.1.3 4.9 9c.4 4.1 5.4 6 8.7 6 3.3 0 15.5 2.6 17.9 2.3 2.5-.2 12.2-4.7 15.4-1.6s9.6 9.6 16.6 9.1c7-.5 23.8-6.1 27.4-10 3.6-3.8 29.9 3.9 29.9 3.9s35.4 10.1 38.6 10.8c3.2.7 12.2 7.1 19.2 11 7 3.9 13.2 5.3 16 5.3s41.4 14.5 41.4 14.5l.9-1.5 26.7 10.1 5.4 10.7 5.5 3.7-23.6 44.7s20.6 2.6 23.6.2 9.5-13.5 11.3-17.8c1.8-4.3 10.2-21.5 14.7-21.9s19.3 3.4 25.3 7.4 4.3 6.1 7.5 6.2c3.2.1 6.3-1.8 9.3 1.9s9.3 8.8 17.1 10.9c7.9 2.1 34.2 17.1 38.3 19.8 4.2 2.7 27 10.9 32 14.3 5 3.4 18.2 8 29.8 10.3 11.6 2.3 43.7 11.6 46 12s27.8 5.7 35.4 5.2c5.9-.4 13.9-5.8 22.4-6.1h1.2l1.7.1 1.7.3c.9.2 1.8.5 2.7.8 6.9 2.8 15.2 1.6 17.3 1.3 2-.2 16.5-1.1 27.6 3.6 0 0 32.1 7.8 36.9 10.1s28.2 8.3 37.3 11.4c33.4 11.6 60.1 9.7 60.1 9.7-13.1 17.6 2.4 30.9 2.4 30.9 46.5 47.2-14.4 154.2-14.7 179-.3 24.8 17.5 69.6 38.7 98.6 21.1 29 7.3 90.9 1.3 91.8-12.9 1.8-33.3 4.1-33.3 4.1l-3.1-3.6-10.2 1.5s-.7-2.1-4.4-5.6-33.9-3.6-37.2-3.6-36.3-.4-36.3-.4-4.9-4.3-13.5-4.3-25.6-2.1-28.4-3.2-13.9-3.5-20.3-4.2c-6.5-.7-25.5-7.6-27-7.9-1.5-.2-11.6.4-19.5-3.6s-25.1-8.8-27.1-9.1c-2-.3-3.2 1.2-3.2 1.2-.6 2.8-1.9 5.4-3.4 6.1-1.5.7-4.2 0-4.2 0l-21 68.2H1301s18.3-58.9 19.8-66c1.5-7.2-11.6-11-16-11.7-4.4-.7-11.5-2.7-19.8-4.3s-20.6-7.4-23.2-8.3c-2.6-.9-5.1 2-6.3 2.1-1.2.1-24.7-.9-29.7-2.3s-12.7-.4-15.3.2-19.7-.1-20.7-.5-10.2-1.4-10.2-1.4l-1-6.1s-8.2 1-15 1.1c-6.8.1-14.3 3.3-14.3 3.3l-20.1.5-.5-3.2s-.4-.2-4.1-.3c-3.7-.1-32.4-1.4-38.8-1.9s-8.3 2-14.4 2.2c-6.1.2-9.8-4.3-14.5-5.5-4.8-1.3-4.8 2.8-8.9 5.5s-13.7.5-16.1-.6c-2.5-1.1-9.8.1-12.5 0-2.7-.1-2.9-1.2-6.1-2s-7.6-.7-7.9-1.4.4-5.8 0-7.7-3.9-7.8-10.3-13.1-12.2-6.6-16.5-1.3c-4.4 5.3-8.8 6.3-13.3 7-4.4.7-17.8-3.4-20.8-6.5s-9.7-6.3-9.7-6.3c-7.4 2.9-11.9 0-11.9 0l-25.2-12s-48.8-22.3-57.6-26.3c-8.8-3.9-8.2-8-10-15.8-1.8-7.8-5.7-7.1-13.5-7.6-7.9-.4-7.5 5.2-7.5 5.2s-1 15.9-2.3 24.6c-1.4 8.7-2.5 8.2-2.5 8.2s-12 .2-13.4.1c-14.2-1.3-5.8-.6-16 .5s-12.9-1.5-16.8-3c-3.9-1.5-13.6-17-14.6-18.3s-4.6-7.1-5.1-7.5c-.6-.4-3.2-2.7-3.8-3.7-2.4-3.8-5.6-4.4-5.6-4.4s-11.6-2.8-19.7-7.7-15.5-2.8-18.3-3c-2.7-.2-22.9-4.5-34.1-6-11.2-1.5-13.8 1.7-13.8 1.7s-13.2 13.8-13.6 14.3c-.3.5-1.6 12.4-1.6 12.4l-24.5-3.4 1-7.6 21.5 3.3v-2c0-2.1-2.2-3.4-4.4-5.3s-9-17-11.1-19.7c-2.2-2.8-9.4-.9-10.9-2.5-1.5-1.5-3.8-2.2-3.8-2.2l-4.4 34-65.2-8 4.7-36.3s-3.4-.6-5-1.7c-5.1-3.5-10.8-5.1-20.3-5.7-9.7-.6-23-6.1-23-6.1"/><path class="st2" d="M832.5 682.3l4.9-13.8-4.5-1.4s-22-6.8-23.9-7.6c-1.9-.8-13.3-2.2-13.3-2.2l-21.8.6.4-17.6 1.4-36.1.9-31.1-.4-5.9-1.4-6.5-2.9-7.4-7.1-12-6.8-12.9-2.5-10.7V507l2.1-9.3 4.8-11.1 5.8-8.6 9.5-10.1 8-11.6 2.8-11 10.2-66.1-2.2-2.7-136-10.5-137.7-6.6L414.6 441s-9.2-2.3-17.1-1.1c-7.9 1.2-16.4 1.3-16.4 1.3-5.3-19.1 8.8-76.4 8.8-76.4l11.6 6.8s.9-17.6 9.5-17.6c14-.1 13.2 15.1 13.2 15.1l15.3-15.9-1.6-3.9 11.8-8.3.6.4s11.3 5.9 14.3 5.3c2.4-.5 6.6-5.7 8.2-7.8-2.7-.2-4.2-.4-4.2-.4l2.5-34.6s36.3 3.1 39.9 2.8 7.1-.8 7.6-4.2c.5-3.4-1.6-4.6-2.8-5.3-1.2-.7-39.7-3.4-39.7-3.4s-.9-7.3-13.2-7.3c-12.2 0-39.8 4.1-39.8 4.1l-3-2.1-1.8-1.4-32.9 22.3s-86.4 65.3-83 205.4c.6 23.4 15.7 74.6 15.7 74.6s3.9 8.1-2.8 11.8c-6.8 3.7-33.3 9.1-31.3 42.9 1.6 26.6 21.8 36.8 32.8 36.5 2.5-.1 4.9 0 7.2-.8l158.4-56.3s13.3 5.5 22.8 6.1c9.5.6 15.2 2.2 20.3 5.7 1.6 1.1 5 1.7 5 1.7l-4.7 36.3 65.2 8 4.4-34s2.2.7 3.8 2.2c1.5 1.5 8.8-.3 10.9 2.5 2.2 2.8 8.9 17.8 11.1 19.7 2.2 1.9 4.4 3.3 4.4 5.3v2l-21.5-3.3-1 7.6 24.5 3.4s1.3-11.8 1.6-12.4c.3-.5 13.6-14.3 13.6-14.3s2.6-3.1 13.8-1.7c11.2 1.5 31.3 5.8 34.1 6 2.7.2 10.1-2 18.3 3 8.1 4.9 19.7 7.7 19.7 7.7s3.2.6 5.6 4.4c.6 1 3.3 3.3 3.8 3.7.6.4 4.1 6.1 5.1 7.5s10.7 16.9 14.6 18.3c3.9 1.5 6.6 4.1 16.8 3 10.2-1.1 1.8-1.8 16-.5 1.4.1 13.4-.1 13.4-.1s1.2.5 2.5-8.2 2.3-24.6 2.3-24.6-.3-5.7 7.5-5.2c7.9.4 11.7-.2 13.5 7.6.2.8.4 1.6.5 2.4-.1-1.1-.1-1.8-.1-1.8l2.3.8z"/><path class="st0" d="M831.7 688.9c.9 2.6 2.4 4.7 5.9 6.7-1.8-1.5-3.1-2.6-3.6-3.1-1-1-1.7-2.2-2.3-3.6zm204.6 78.7c3.8.7 8.8 1.1 11.5-.7 1.9-1.2 3-2.8 4-4-5.9-1.8-11.8 1.7-15.5 4.7zm-31-10.5c0 2.3-.3 5.2-.1 5.7.3.7 4.7.7 7.9 1.4s3.4 1.8 6.1 2h.3c-3.5-1.8-7.3-4.1-10.8-7-1-.9-2.1-1.5-3.4-2.1zm-66-377.2s-4.7-.4-11.9-1l59.4 5.4c-19.7-1.8-47.5-4.4-47.5-4.4zm131.9 387c3.6-.1 5.7-1.1 8.2-1.7l-16.9-1.1c2.5 1.5 5.2 3 8.7 2.8z"/><path class="st3" d="M1320.8 797.5c-1.5 7.2-19.8 66.1-19.8 66.1h10.1l20.6-67.1c-3.3-.7-7.2-1.7-11.6-2.9.7 1.2 1 2.5.7 3.9z"/><path class="st2" d="M1601.8 736c-21.1-29-39-73.7-38.7-98.6.3-24.8 61.2-131.8 14.7-179 0 0-15.5-13.3-2.4-30.9 0 0-24.6 2.3-60.1-9.7-9.1-3.1-32.5-9.1-37.3-11.4s-36.9-10.1-36.9-10.1c-14.9-4.4-25.6-3.8-27.6-3.6-2 .2-10.4 1.5-17.3-1.3-.9-.4-1.8-.6-2.7-.8l-1.7-.3-1.7-.1h-1.2c-8.4.3-16.5 5.7-22.4 6.1-7.6.5-33.1-4.9-35.4-5.2-2.3-.3-34.3-9.7-46-12-11.6-2.3-24.8-7-29.8-10.3-5-3.4-27.8-11.6-32-14.3-4.2-2.7-30.5-17.7-38.3-19.8-7.9-2.1-14.2-7.2-17.1-10.9s-6.1-1.8-9.3-1.9c-3.2-.1-1.5-2.3-7.5-6.2-6-3.9-20.8-7.7-25.3-7.4-4.5.3-12.9 17.6-14.7 21.9-1.8 4.3-8.4 15.3-11.3 17.8s-23.6-.2-23.6-.2L1100 303l-5.5-3.7-5.4-10.7-26.7-10.1-.9 1.5s-38.6-14.5-41.4-14.5-9-1.4-16-5.3-16-10.3-19.2-11c-3.2-.7-38.6-10.8-38.6-10.8s-26.3-7.7-29.9-3.9c-3.6 3.8-20.4 9.5-27.4 10s-13.4-6-16.6-9.1-12.9 1.4-15.4 1.6c-2.5.2-14.6-2.3-17.9-2.3-3.3 0-8.4-2-8.7-6-.8-8.7-4.9-9-4.9-9s-8.4 1.2-14.7-1c-6.4-2.2-19.1-2.3-19.1-2.3s-21 7.7-27.8 10.7c-6.8 2.9-8.4 8.1-8.4 11.7 0 .7 2.8 7.1 1.5 9.8s0 6.7.6 7.6c.5.8 1.1 2 1.7 3.3 2.1 4.8 4.9 9.3 8.4 13.3.7.8 1.2 1.4 1.2 1.4s5.7 6.6 9.9 8.3c4.2 1.7 5.1 4.9 7.8 7.4s8.9 3.9 10.9 4.1c2 .2 8.1 2.9 9.2 4.5 1 1.6 2.6 3 10.9 8.4 12.4 8 18.9 5.4 18.9 5.4 1-.9 8.4-3.9 8.4-3.9s6-2.7 9.6-7.3c3.6-4.6 5.3-4 9.6-7.7s6.4-1.6 6.4-1.6 3.1 2.3 6.5 3.1c3.4.7 5.8 2.7 9.6 6 3.8 3.2 7.2 4.1 8.5 4.3 1.3.3 7.9-.3 16.4-.3 8.5 0 14.1 4.6 18.8 8.2 4.7 3.6 4.4 5.7 4.4 5.7.2 3.7 2.6 6 4.1 7.1 1.8 1.4 2.7 3.7 1.9 5.9-.6 1.5-1.8 2.6-3 2.5-11-1.5-10.4 3.7-10.4 4.7s-.2 3.2.9 4c1.1.7 3.8.6 5.9 1 2.2.4 23.9 2.8 27.5 2.9 3.6.2 29.7 3.3 31.5 3.1s36.3 3.2 42.6 4.1c6.3 1 35.3 2.6 43.7 4.9 8.4 2.3 7.7 7.5 6.3 19.9-1.4 12-7.5 13.1-8.8 13.5l20.8 1.9.7 11.3 17.1 1.9 25.4 5.9 18.3 6.8 19.5 8.8 26.3 15.4 1.9 3.6 17.2.9 37.7 3.4 27.5 2.1 30 2.1 27.4 2 20.6.8 27 .8 20.2 235 18.4-2.3 2.2 44.4h20.2l26.7 46.5-20.1 2.8 3.1 29.4h.4c8.6 0 13.5 4.3 13.5 4.3s32.9.4 36.3.4 33.5.2 37.2 3.6 4.4 5.6 4.4 5.6l10.2-1.5 3.1 3.6s20.3-2.3 33.3-4.1c5.7-.9 19.5-62.8-1.6-91.8z"/><path class="st4" d="M1076.6 392.5h.1l-89.8-8.1c10.4 1 18.6 1.7 19.1 1.8 1.6.2 69.5 6.6 70.6 6.3zM831.7 688.9c-.6-1.6-.9-3.5-1.3-5.6.2 1.5.5 3.6 1.3 5.6zM620.7 352s62.7 5.6 72.3 6.4c9.6.8 81.7 7.7 87.8 7.6 6.1-.1 77.5 7.1 79.8 7.4 1.7.2 45.3 3.8 66.9 5.6l-454-41s-.3.3-.7.9c15.2 1.4 66.8 6.1 70.3 6.5 4.1.4 77.6 6.6 77.6 6.6z"/><path class="st0" d="M1124.4 766.7c-3.7-.1-32.4-1.4-38.8-1.9-2.6-.2-4.5.1-6.2.5l6.7.4 42.7 2.8-.2-1.5c-.1 0-.4-.3-4.2-.3z"/><path class="st5" d="M1481.8 783.5l-26.7-46.5h-20.2l-2.2-44.4-18.4 2.3-20.2-235-27-.8-20.6-.8-27.4-2-30-2.1-27.5-2.1-37.7-3.4-17.2-.9-1.9-3.6-26.3-15.4-19.5-8.8-18.3-6.8-25.4-5.9-17.1-1.9-.7-11.3-20.8-1.9h-.1c-1 .4-69-6.1-70.6-6.3-.6-.1-8.7-.9-19.1-1.8l-59.4-5.4c-21.6-1.8-65.2-5.4-66.9-5.6-2.3-.2-73.7-7.5-79.8-7.4-6.1.1-78.2-6.8-87.8-7.6-9.6-.8-72.3-6.4-72.3-6.4s-73.5-6.3-77.7-6.7c-3.6-.4-55.1-5.1-70.3-6.5-1.6 2.1-5.8 7.3-8.2 7.8-3.1.7-14.3-5.3-14.3-5.3l-.6-.4-11.8 8.3 1.6 3.9-15.3 15.9s.8-15.2-13.2-15.1c-8.5.1-9.5 17.6-9.5 17.6l-11.6-6.8s-14.1 57.3-8.8 76.4c0 0 8.6-.1 16.4-1.3 7.9-1.2 17.1 1.1 17.1 1.1L522.8 359l137.7 6.6 135.9 10.6 2.2 2.7-10.2 66.1-2.8 11-8 11.6-9.5 10.1-5.8 8.6-4.8 11.1-2.1 9.3v10.7l2.5 10.7 6.8 12.9 7.1 12 2.9 7.4 1.4 6.5.4 5.9-.9 31.1-1.4 36.1-.4 17.6 21.8-.6s11.4 1.4 13.3 2.2c1.9.8 23.9 7.6 23.9 7.6l4.5 1.4-4.9 13.8-2.2-.7s0 .7.1 1.8c.4 2.1.8 4 1.3 5.6.5 1.3 1.3 2.6 2.3 3.6.5.5 1.8 1.6 3.6 3.1.7.4 1.4.8 2.3 1.1 8.8 3.9 57.6 26.3 57.6 26.3l25.2 12s4.4 2.9 11.9 0c0 0 6.7 3.3 9.7 6.3 3 3.1 16.3 7.1 20.8 6.5 4.4-.7 8.9-1.7 13.3-7s10.1-4 16.5 1.3 10 11.2 10.3 13.1c.1.5 2.5 3.1 3.5 4 3.4 3 7.2 5.3 10.8 7 2.9 0 9.8-1.1 12.1 0 .9.4 2.6.9 4.6 1.3 3.7-3 9.7-6.5 15.6-4.6 1.2-1.3 2.4-2.2 4.9-1.5 2 .5 3.9 1.7 5.8 2.8l16.9 1.1c1.7-.5 3.6-.8 6.2-.5 6.3.6 35.1 1.8 38.8 1.9 3.7.1 4.1.3 4.1.3l.2 1.5 19.3 1.3h1s7.5-3.2 14.3-3.3 15-1.1 15-1.1l.7 4.3c2.2.4 8 1.2 12.1 1 4.7-.2 17.5-1.4 25.5 1.8 3-.2 6.4-.1 9 .6 5 1.4 28.6 2.5 29.7 2.3 1.2-.1 3.7-3 6.3-2.1 2.6.9 15 6.8 23.2 8.3 8.2 1.5 15.3 3.6 19.8 4.3 3.5.6 12.6 3.1 15.4 7.8 4.3 1.2 8.3 2.2 11.6 2.9l.3-1.1s2.6.7 4.2 0c1.5-.7 2.9-3.3 3.4-6.1 0 0 1.2-1.5 3.2-1.2s19.2 5.1 27.1 9.1c7.9 4 18 3.3 19.5 3.6s20.5 7.2 27 7.9c6.5.7 17.5 3.1 20.3 4.2 2.8 1.1 19.3 3.1 28 3.2l-3.1-29.4 20.4-3.1z"/><path class="st2" d="M774.4 658.8l-2.2-.1c0-.8 3.1-78.2 3-88.4-.1-9.8-5.8-17.8-5.8-17.9v-.1c0-.1-4.3-7-11-19.2-6.4-11.7-4.3-25-4.2-25.6l2.2.4-1.1-.2 1.1.2c0 .1-2.1 13.2 3.9 24.2 6.4 11.7 10.6 18.5 10.9 19 .5.7 6.1 8.8 6.2 19.1.1 10.4-3 87.9-3 88.6z"/><path class="st5" d="M495.4 480l-21 33.6-10.9-5.4s2.8 7.2 6.1 12.7"/><path class="st5" d="M469.5 520.9c8.4 14.2 21.3 25 36.5 30.4v-4.4h41.8v4.6c27.7-9.4 47.7-37.1 47.7-69.8 0-40.4-30.6-73.2-68.3-73.2-22.5 0-42.5 11.7-54.9 29.7 0 0-3.5 4.2-6.6 13.7-3.1 9.5 9.5-4.7 9.5-4.7s9.1.1 8.7 1.6 10.4 29.2 10.4 29.2"/><path class="st2" d="M756.4 508l-2.2-.3.2-1.7c0-1 .7-12.7 8.6-23.1 7.9-10.4 14.2-16.9 14.3-16.9.1-.1 7-6.9 8.9-16.5 2-10 10.7-70.9 10.8-71.5l2.2.3c-.1.6-8.8 61.5-10.8 71.6-2 10.2-9.1 17.2-9.6 17.7-.3.3-6.5 6.7-14.1 16.7s-8.1 21.8-8.1 21.9v.1l-.2 1.7z"/><path class="st2" d="M761 487.8l-101.5-9.3c-3.2-.3-5.6-3-5.6-6.2l1.4-106.4h2.2l-1.4 106.4c0 2 1.5 3.8 3.6 4l101.5 9.3-.2 2.2z"/><path class="st6" d="M895.8 398.1s-14.8 22.2-19.7 26.1c-4.9 3.9-14.3 10.5-15.2 15.2-.9 4.7-2.4 9.2-4.8 12.4-2.4 3.2-9.2 8.6-6.8 14 2.3 5.4 14.3 14.1 14.3 14.1s7.1 7.7 21.2 10.5 20.1 6.3 26.7.4c6.6-5.8 7.7-23.9 5.7-29-2-5.1-4.9-14.5-11.5-19.2s-8.8-5.8-9.4-8.7c-.6-2.9 1.5-7.3 5-11.1s13-18.7 13-18.7 2.6-5.7-2.7-6.6c-5.3-.9-12.6-.8-12.6-.8s-2.2-.2-3.2 1.4zm218.5 50.2s2 2.1 3.8 2.5c1.7.4 2.3-1.8 6.3-3.7 6.1-2.9 9.6 2.4 9.6 2.4s5.4 8.5 6.5 8.9 4.1 3.2 4.8 6.6c.4 1.7.8 3.3 1.1 4.4.3 1.1.8 2.1 1.5 3 .9 1.3 2.5 3.5 4.3 6.1l-3.5 2.2 4.2 9.7 5.2-3.5c5.2 7.3 6.3 11.1 5.3 18.4-1 7.2-2.9 16.5-7.6 19.5-4.7 3.1-13.2 1.6-20-1.5-6.8-3.2-5.2-12.6-6.2-29.5s-18.8-42.3-18.8-42.3m-4.4-4.7c-2.3-2.9-5.9-7.4-6.7-8.6-.7-1-5-4.7-14.5-13.4-5.3-4.7-6.8-8.4-7.2-10.8-.3-2 .9-3.8 2.8-4.4 1.8-.5 4.6-.7 8.7.4 8.4 2.3 15.9 9.3 20.4 13 4.4 3.6 8.4 5.5 5.3 11.7-2.6 5.1-5.2 6-4.4 8.4M818.4 645.5s8.1-16 13.2-18.1 19.1-2.9 36.8-.5 17.6 1.2 19.7.3c2-.9 7.6-2.3 16.4-2.3s8.9.9 11.2 1.5c2.3.7 20.6-1.4 34.1-6.6 13.5-5.3 23.4-9.6 31.6-9.4 8.2.2 11.4-3.2 14.1-3.9 2.8-.7 7.4-1.4 13.9 4.1 6.6 5.5 9.4 9 10.6 11.5s.9 23.4-4.9 28.7c0 0-5.3 5.4-12.4 4.5-7-.9-20.5-6.3-25.4-12.5s-13.5-7.5-20-3.4-15.3 7.3-33.4 6.6c-18.1-.6-45.8-.4-57.8 1.8-12 2.3-21.9 2.8-21.9 2.8s-6-.1-12.2 4.8c-1.6 1.2-8.4.6-9.9-.8s-1.9-2.2-1.9-2.2l1.4-1-3.5-5.5.3-.4zm505.3 120.8c-10.3-7-29.1-16.8-31.3-18.6-2.3-1.8-18.8-14.1-20.4-15.1-1.6-1-23.5-15.3-23.5-15.3s-3.9-2.9-5.4-7.2c-1.5-4.2-5.4-13.5-5.4-13.5l-5.6.8s4.9 18.7 10.7 23.2 21.7 16.3 27.9 20c6.2 3.7 34.2 20.3 39.1 23.2 4.9 2.9 19.3 15.1 21.1 15.9 1.8.7 5.8 1.2 7 0 1.1-1.4-3.9-6.4-14.2-13.4z"/><path class="st7" d="M1306.6 845.4s-.8-.3-3.4-.7-10.6.3-14.4 0c-3.8-.3-3.6-1-5.1-2.8-1.5-1.8-4.4-3.9-6.6-5.9s-7.4-5.7-7.4-5.7-.7-5-.7-6 .9-1.4 2.2-1.8c1.4-.4 9.8.4 9.8.4s9.3 1.7 14.6 4.1 15 5.1 15 5.1m9.7 1.3s10.1-3.2 14.3-.4c4.2 2.8 5.5 3.7 5.3 4.4s-2.8 2-3.4 4.2c-.6 2.2-.1 7.3-2.1 8.2-2 .9-4.3 2.9-7.9 2.2s-10.8-3.8-10.8-3.8"/><path class="st8" d="M1409.1 529.1l16.9-.8.8 15.9-17 1.1z"/><path class="st2" d="M825.4 327.1l91.2 6.1c1.3.1 2.3 1 2.6 2.2.2.7.3 1.6.3 2.8 0 4.4-4.2 4.5-6.4 4.4L796.5 334s-63.5-4.3-66.2-4.3c-2.7 0-41.4-6.9-47.3-7.9-5.9-1-70.4-6.9-75.5-6.9-5 0-70.7-5.8-72.8-6.1-2.2-.3-5.5-.2-7.3-3.3-.5-.9-.6-3.3-.5-4.9 0-.8.7-1.3 1.4-1.3l78.9 5.1s1.2.8 7.3-6.7 21.6-25.6 23.2-26.2c1.6-.6 12.1-5.8 24.3-7.7 12-1.8 24.6-5.6 35.6-2.1 11 3.4 31.1 10.6 32 11s2.8 2.8 9.5 5.6c6.8 2.8 8.9 4.3 12 9.2 1.2 1.9 16.3 11 18.4 12 2 1 24.2 14.6 27.4 17.2 3.2 2.6 8.9 4.1 10.2 4.9 1.3.8 9 4.5 12.4 5.2 1.3.1 5.9.3 5.9.3z"/><path class="st9" d="M1367.8 515.1l2.7 22.4 11.3-1.2-.5-4.8 5.8-.6-1.6-14.8-7.1.8-.4-3z"/><path class="st3" d="M1412.1 462.9l-4.5 4 4.3 3.5 1.9 22.4-3.4 4.2 4.4 3.5 3.9-3.5 5.8-.2 6 6.5-2.7 3.8 5.3 3.6 3.5-4.5-3.5-3.3 4.2-3.9-5.2-5.7-4.5-2.1-8.9.4-1.7-20.6 6.9-.4 3.9 3.6 6.1-.8-.1 5.8 1.8 1.6 1.7-1.9-.2-5.9 3.1-3.7-4.4-3.5-3.1 3.8h-2l-4.6-4.3-10.1.8z"/><path class="st9" d="M1289.2 618.9l-.6 23.2h3.7v5.6h12.3v-1.2h4.2v-4.4l4.8-5.1 3.9 3.4 3.6-4.1 16 .5.1-12.4h-13.7v4.9h-7.6l-12.4-11.3-1.5 1.4zm-48.7 10.8l1.2-1.1.7.6 6.4-4.9-.7-.8 1.4-1.1 1 1 2.2-1.6 2.3 2.6-1.8 1.6s2.2.1 3.4 1.6 1 3.4 1 3.4l1.3-1.1 2.2 2.5-2.1 1.9.8.9-1.1.9-.8-.7s-.4 2.4-2 3.6-4.4 1.4-4.4 1.4l.7.8-1.5 1-1-1.1-2.3 1.7-1.9-2.1 1.1-.9s-2.3-.3-3.2-1.5-1.1-2.3-1.2-3.3v-.4l-.8.5-2.5-2.6 2.4-1.9-.9-.9h.1zm-210.7-12l-.7 8.6 15.9 1.4-1 11.1-15.9-1.4-.9 8.5 25.3 2 2.2-28.1zM895 693l-1.8 7.6 17.1 4.5 2.1-7.4zm-58.3-17l.9 2.2-1.1.2 1.7 4.1s-1 2.8.9 5c1.9 2.3 4.7 2.3 5.6 2.4l.4-.5 3.5 1.6.7-1.3 2.1.8.1-7.3-3.7-1.2s.2-1-.6-1.7c-.8-.6-1.4-.5-1.4-.5l-1.3-4.3-7.8.5zm32.3 15.1l-1.6 4.7 4.8 1.4 1.5-4.8zm44.2 14.4l-1.3 4.4 4.7 1.4 1.4-4.4zm-1-47.7l-1.2 13.4 20.9 1.6.9-13.4z"/><path class="st3" d="M684.3 531.3l-30.7-2.9-5.2 52.8 15.1 1.6-.2 1.1 6.8.8.1-1.1 8.6 1z"/><path class="st2" d="M704.5 624.7l-9.1-.9 1.4-13.8 9.1.9-1.4 13.8zm-8.6-1.4l8.1.8 1.3-12.9-8.1-.8-1.3 12.9z"/><path class="st3" d="M707.5 607.3l.1-1.4-10.4-.9-.1 1.3-5.1-.5-2.7 24.6 5.5.6 10 1 4.2.5 2.6-24.8zm-2.7 26.6zm24.3-82.2v.2l-1.4 20.4s.5 10.3 9.8 12.1c9.3 1.7 15.3-3.8 15.3-3.8l7.6 4.6V580l8.8.4-3.1-5.4 2.9-1.6-5.4-11.1 2.5-1.1-7.7-15.7s-4.9-8.2-14-7.1-14.6 6.5-15.3 13.3zm21.7 61.3l.7-10.5-2-.2-.3 3.5-17.6-1.5.2-3.8-2-.1-.8 10.8 2.6.2v.9l4.3.3.8-.7 6.7.5.9 1 3.9.2.1-1 2.5.1"/><circle class="st3" cx="741.8" cy="625.6" r="5.1"/><path transform="rotate(32.902 1196.399 469.187)" class="st9" d="M1194 465.5h4.9v7.5h-4.9z"/><path class="st9" d="M1167.4 469.6l-1-2.2-4.5 2 4.1 9 4.4-2-1.1-2.5z"/><path transform="rotate(-24.143 1169.568 471.254)" class="st9" d="M1168.3 468.6h2.6v5.2h-2.6z"/><path transform="rotate(60 1206.112 473.276)" class="st9" d="M1203.9 469.9h4.5v6.8h-4.5z"/><path transform="rotate(60 1281.184 470.82)" class="st9" d="M1279.7 468.6h2.9v4.4h-2.9z"/><path class="st9" d="M1209.4 487.8l1.7-.9-1.4-3-1.8.9-4.5 2.2 3.6 7.3 4.5-2.2z"/><path transform="rotate(5.768 689.54 486.89)" class="st5" d="M656.6 482.9H722v7.7h-65.4z"/><path transform="rotate(5.768 687.2 513.848)" class="st5" d="M654.3 509.8h65.4v7.7h-65.4z"/><path transform="rotate(5.768 683.638 500.052)" class="st5" d="M660.1 496h46.7v7.7h-46.7z"/><path transform="rotate(5.768 715.428 503.265)" class="st5" d="M709.8 499.2h10.9v7.7h-10.9z"/><path class="st3" d="M1426.2 574.4l-.2 2.3s-2.2.1-3.2 1.1c-1 .9-1.8 2.8-1.8 2.8l-2.2-.2-.5 9.1 12.6 1.3 2.8-2.3 1-13.4-8.5-.7zm-6.3 67.4h-.7v-8.6h3.7v-3.9h-4.4v-7.9h6.9V613h5.2v-8.8h8.4V601h6.1v4.9h-5.4v8.4h-5.2v8.6h-6.9v5.2h1.5v5.7h-3.4v8.1l1.8 1.5 28.9-4.6-1.5-10-3.2.5-.9-6.2 8.9-1.3.9 6.2 1.3 9.9 1.2 7.4-34.2 5.4-2.2.3-2-1.3c-.4.8-1.2 1.3-2.1 1.3-1.3 0-2.3-1-2.3-2.3 0-.8.4-1.6 1.1-2l-1.1-.7-.3-.2-.1-4zm-961-340.5l-.4 4.8-8-.8-.3 3.3-2.1-.1s-2.6 3.6-2.8 8.4c-.2 4.7.4 7.8.4 7.8h.8l-.1 2.9 2.8 5.4 2.6 2.3 5.3.4s.4 4.7 3.9 4.9c3.5.2 6.2-2.8 6.3-4.8s.2-3.6.2-3.6l-5.9-.3v-2l-1.6-.1-.1 2h-.8l.1-3.7h-1.7v.5l-4.9-.4.1-2.4 1.6.1 2.1-1 .2-3.6 1.2.1 1.3-14.4 2.9.2.5-5.7-3.6-.2zM509 550h35.6v52H509z"/><path class="st5" d="M645.9 377.5l-10.9 8-18.6 13.4c-1.3.9-1.6 2.8-.7 4.1l7.7 10.7c.9 1.3 2.8 1.6 4.1.7l20.1-14.5c.7-.5 1.2-1.3 1.2-2.2v-18.5c.2-1.5-1.6-2.5-2.9-1.7zm-20.3 237.7l-9.3-9.9-15.9-16.5c-1.1-1.2-1.1-3 .1-4.2l9.5-9.2c1.2-1.1 3-1.1 4.2.1l17.2 17.8c.6.7.9 1.5.8 2.4l-1.7 9.7-1.5 8.6c-.3 1.5-2.2 2.2-3.4 1.2zm19.2-192.9c0 1.9 1.5 2.3 1.5 2.3h1.8s1.2-.1 1.2-1.2v-15.2c0-5.6-3.3-4-3.3-4l-18.2 13.6s-1.6 1.1-.2 3.6c1.1 1.9 2.6 4.3 3.2 5.2.3.5.7.9 1.2 1.1.6.3 1.6.3 2.7-.4l4.5-2.3s.8-.3.8-2.7m-5.1 7.6l3.8-2c1.1-.6 2.2-.8 3.4-.8h4.7s2.2.4 2.2 3v20.3s.1 2-1.4 2.7-3.5 1.3-3.5 1.3-1.9.2-2.7-1.9c-.4-1.2-1-2.8-1.3-3.9-.3-.8.1-1.6.9-1.9l3.6-1.4-2.1-5.7-3.6 1.2s-1.3.5-2.3-1.9c-1-2.4-2.6-7.5-2.6-7.5s-.3-.9.9-1.5z"/><path class="st11" d="M640 416.6h4.8v5.7H640z"/><path class="st3" d="M338.4 572.6l16.7-8.6s-12-32.7-11.9-45.1l3.3-.4-1.4-14.8-18.4 1.4c0-.1 1.9 40.4 11.7 67.5z"/><path class="st9" d="M1009.4 724.8h14v14h-14zm20.7-2.3h29.7v14h-29.7zm-17.8 18.2h31.8v15.6h-31.8zm242.3-124l9.1-7.2 1.8 1.9-.8.8 1 .9-1 1 .7.7-4.8 3.7-1.5-1.1-2.3 1.8-2.3-2.4zm11.9 5.3l.2 2.1c.1 1.7-.1 3.4-.7 4.9-.2.6-.5 1.1-.8 1.5l8.3 10.1 5.4-4.5-7.2-8.4 2.1-2.1h3.3l.1-2.3-10.7-1.3zm26.2 35.1h5.7v16.3h-5.7z"/><path transform="rotate(18.576 1010.038 283.838)" class="st3" d="M1001.8 278.6h16.8v10.8h-16.8z"/><path class="st3" d="M1078.1 288.7l-.9-.3-15.9-5.4-3.4 10.3 15.9 5.4 1.7-5.2.9.3c1.4.5 2.9-.3 3.4-1.7s-.3-2.9-1.7-3.4zm-30.7 7.9l-8.2-2.8-7 20.8-5.6-1.9 7-20.8-8.2-2.7-9.5 28.2 8.2 2.8 6.5 2.2 7.3 2.4z"/><path class="st9" d="M1192.5 628.6l-5.3-9.3 1.7-1-2.9-5-11.5 6.6 2.9 5 2.1-1.1 5.3 9.3z"/><path transform="rotate(-27.847 1171.53 605.174)" class="st9" d="M1164.4 602.4h14.6v5.6h-14.6z"/><path transform="rotate(-32.791 1123.334 609.72)" class="st9" d="M1118.1 607h10.7v5.6h-10.7z"/><path transform="rotate(57.209 1196.315 658.546)" class="st9" d="M1191 655.8h10.7v5.6H1191z"/><path transform="rotate(127.859 1431.661 763.774)" class="st12" d="M1427.8 761.8h7.7v3.8h-7.7z"/><path transform="rotate(-9.213 1134.019 710.66)" class="st2" d="M1117.9 710.3h31.9v.5h-31.9z"/><path class="st9" d="M314.4 673.9c-6-2.3-10.9-5.6-14.6-9.8-4.9-5.5-7.6-12.4-8.2-20.4-.7-11.3 2.3-20.4 9-27.3 5.6-5.7 12.8-8.7 17.5-10.7 1.7-.7 3.1-1.3 4.1-1.9 3.5-2 2.1-8.9 2-9.3-.7-2.4-13.9-50.7-14.9-66.3-1.3-19.3-.8-31.4.4-44.8 2.2-23.3 7.1-46.2 14.7-68 6-17.5 13.7-34.3 22.9-50 15.6-26.8 30.2-41.4 30.4-41.5l1.6 1.6c-.1.1-14.6 14.5-30.1 41.1-14.2 24.5-32.3 64.7-37.2 117-1.3 13.2-1.8 25.3-.4 44.4 1.1 15.5 14.7 65.4 14.9 65.9.1.4 2 8.8-3 11.7-1.1.6-2.6 1.3-4.3 2-9.3 4-26.7 11.3-25.2 35.9 1.1 16.9 12.2 24.7 21.4 28.3l-1 2.1z"/><path transform="rotate(-27.936 352.882 571.095)" class="st2" d="M321.8 570.9h62.1v.5h-62.1z"/><path transform="rotate(-84.813 333.051 475.726)" class="st2" d="M332.8 454.5h.5V497h-.5z"/><path class="st9" d="M427.9 411.1l-67.6-64.6 1.5-1.6 5.2 4.9h-.1l62.5 59.7z"/><path transform="rotate(-27.905 404.698 543.22)" class="st2" d="M391.5 543H418v.5h-26.5z"/><path transform="rotate(-30 1320.956 480.474)" class="st9" d="M1315.3 477.1h11.4v6.6h-11.4z"/><path class="st9" d="M1346.8 593.8h34.9v22.9h-34.9z"/><path transform="rotate(2.772 1295.374 568.662) scale(.99997)" class="st9" d="M1288.7 563.3h13.4v10.8h-13.4z"/><path class="st3" d="M1471.2 581l5.2 4.1.5-7.1-5.5-.3-.2 3h-.6.6z"/><path class="st3" d="M1476.7 579.2l-.3 5.9 2 .1v-1.6h1.1l.1-4.2c.1 0-2.8-.2-2.9-.2zm-5.4 1.5l-29.9-1.6-.3 5.6 29.2 1.6-.5 7.2-8.7-.4-.3 5.3-4.2-.2-.2 5.2 8.8.4.1-2.8 4.2.2-.5 9.3 6 .3 1.4-25.9z"/><path transform="matrix(.9988 .04948 -.04948 .9988 31.396 -72.994)" class="st3" d="M1485.6 588.8h8.7v17.6h-8.7z"/><path class="st3" d="M1523.1 628.5l-.5-5.4-2.3.2-.4-4.4-10.4 1 .4 4.4-2.3.2.5 5.5 2.3-.3.5 5.1 10.4-1-.5-5.1zm-43.3-113.6l-4.4 3.3-.9 18-23.6-1.2.4-12.6 19.8-17.7-3.2-3.6-21.3 19-.8 20.6 4.8.2 23.6 1.2 5.8.3 1-20 2.9-2.2zm3.2-34.8h-5.6v13.8l-1.9 1.4 3.3 4.5 4-3v-9.6h15.8v16.6l-10.2 7.4 3.3 4.5 14-10.3v-25.3z"/><path transform="matrix(.9972 -.07416 .07416 .9972 -46.716 107.576)" class="st3" d="M1422.2 680.6h6.2v4.5h-6.2z"/><path transform="matrix(.9972 -.07416 .07416 .9972 -46.19 108.164)" class="st3" d="M1429.1 673.8h8.8v4.5h-8.8z"/><path class="st3" d="M1478.2 689.4l-1.8-9.4-2.9.3-.7-4.8-6.1.6-.3-4-.2-2.5-6.2.5.2 2.5-11 .8-.2-2.5-6.2.5.6 8.6 5.6-.4 16.6-1.2.2 2.8-2 .2.3 3.3 9.6-.8.7 4.5-3.3.4.7 4.7 3.3-.3-.7-3.4 3.8-.4zm-33.1 27.2l.6 6.9 7.3-.6-2.7-36.4-7.3.6 1 13.5"/><path class="st3" d="M1443.9 700.4l-4.9.4 1.2 16.4 5-.3m21.9 3.6c0 .3 8.7 19.3 8.7 19.3l1.8-.7.5.5 1.8-1.6-.4-.7 2-2.6-1.6-2.2 1.5-1.3-.8-.8 1.7-5.6 5.8-2.7 7-2.8c.7-.3 1.2-.8 1.5-1.4.3-.7.3-1.6-.2-2.5l-1 .4-2.2-4.3-2.7 1.1-1.2-2.4-2.5 1.1-.7-1.6-3 1.3.7 1.8-2.9 1.1-.5-1.3-2-.1-1.4.5 1 2.5-11 4.8.1.2zm-17-271.8l-2.9 9.1 10.4 3 1-3.6-3.9-1.1s.6-1.2-.3-2.1c-.3-.3-.7-.4-.7-.4l1.1-3.7-4.7-1.2zm70.6-2.8l-7.1-3.3-16.2-7.4-11-5-1.9-.9-14-6.4-2 4.5-10.1 22 4.6 2.1 9.9-22 9.5 4.4-3.4 7.4 3.6 1.6 3.3-7.4 5.8 2.7-3.4 7.4 3.6 1.6 3.4-7.4 16.1 7.4-.4 1-3.1 6.6-1.5 3.3h-12.8v7.6h12.8c2.2-.1 3.7-1.8 3.7-3.9 0-1.4-.7-2.6-1.8-3.3l1.4-3.1-.2-.1 5.7 2.6 5.5-12z"/><path class="st3" d="M1469.5 458.4h10v5.8h-10z"/><path transform="rotate(25.776 1473.967 446.933)" class="st3" d="M1471.5 445.6h5v2.9h-5z"/><path class="st3" d="M1451.4 414.8l-14.3-5.6-2.1 5.3 14.4 5.6-1.7 4.2 5.3 2 3.7-9.4z"/><path class="st3" d="M1447.4 433.3l1.2-2.4-2.4-1.1-4.6-2.2-2.6 5.4 1.6.8-4.3 9.2-10.6-4.9-8.1-10.5c1-3.5 1.8-7.2 2.3-10.8l13.3-1.9-.8-5.9-17.5 2.5-.3-.1c-.5 5.9-1.6 11.8-3.5 17.4h-.1v.1h.1l10.8 13.9v.1l17.3 8 2.5-5.4 5.7-12.2zm-7.9 52.7l1.4 20.2 10.7-.5v-2.8l2-.1v-1.6h2.2v-1.7h2v-7.4h-2.3v-1.4h-3.2v-1.5h-2.4v-1.7h-4.9v-3.2h-3.5z"/><path transform="rotate(20.555 957.69 716.955)" class="st9" d="M953.5 713.2h8.3v7.5h-8.3z"/><path class="st9" d="M969.5 718.5h8.3v4.7h-8.3zm-19.6 9.4h8.3v4.7h-8.3zm-2.9-11.4l-10.5-3.4-1.4 4.5-.7 2-1.3 4 7 2.3 1.1-3.3 1.2.4.9-2.8 2.3.8zm125.8 27h10.8v10h-10.8zm53 8h12.4v7h-12.4zm-12.2-5.2h7.2v5.2h-7.2z"/><path class="st3" d="M1487.5 737.1l-1.9 8.1s5.6.2 8.8 3.2c3.2 3 3 2.9 3 2.9l3.5-4.1-.8-.5 1.4-1.6-4.9-3.5v-1.1l-4.2-1.1v-1l-4.9-1.3z"/><path transform="rotate(-31.159 1465.213 741.27)" class="st3" d="M1462 733.6h6.4V749h-6.4z"/><path class="st3" d="M1501 755.2l5.4-1 1.3 5.3.9-.2.8 2.8h1.5v9.8h-1l.6 2.5-5.2 2.6s-2.2-9.9-2.3-13.8c-.1-3.9-2-8-2-8zm8.9 27.5v4.2h3.4v1.7h5.4v-3.5h1.2v-1.9h-1.2v-2h-5.4v1.5zm-21.2 12.8v4.7l43.1 3.3s2.9-.6 2.8-2.7c-.1-2.1-2.6-2.6-2.6-2.6v-2l-34.5-2.6v1.5l-2.9-.4-2.7.9-3.2-.1zM1472 628.8l.3 3-1.5.2.7 7.4 2-.2.1 2.6 4.6-.3.2 2.1 16.5-1.5-.4-4.2-15.1 1.2-.1-1.7-3 .3-.5-4.9 2.1-.2-.1-.6 2.7-.4-.6-3.8zm9.8-4.2v4.2h3v-2l3.4.1v-1.1l3 .1v-.5h6.6l2.2 3.6v3.5h-2.2v4.9h6.7v-5.2h1.2v-2.7h-2v-3.7l-2.6-3.4h-3v-1.2h-6.2v.7h-2.9v1h-3.5v1h-3.7z"/><path transform="rotate(-69.403 1273.356 391.599)" class="st3" d="M1270 382.4h6.7v18.4h-6.7z"/><path class="st3" d="M1309.6 412l6.8 2.3-5 14.1-4.4-1.4-.1.5s1.1 1.1.7 2.1c-.7 1.7-3.7.6-3.7.6l-1 2.1 1.6.6-2.8 7.3-16.1-6.3 2.6-7.4 3.2 1.1 2.1-4.8s1.5-2 4.8-2 3.8-2.6 3.8-2.6.8-2.5 4.1 0c.5.4 1.3-.1 1.5-.8.3-1 1.9-5.4 1.9-5.4z"/><path transform="rotate(14.647 1337.256 410.862)" class="st3" d="M1332.4 406.7h9.6v8.2h-9.6z"/><path transform="rotate(14.647 1352.292 418.438)" class="st3" d="M1348.6 415.3h7.1v6.1h-7.1z"/><path transform="rotate(-70.811 1188.252 407.146)" class="st2" d="M1184.9 406.9h6.9v.5h-6.9z"/><path class="st3" d="M1157.4 346.2l.4-1.1-3.9-1.6-.4 1.1-4.6-1.8.2-.5-4.1-1.6.4-1.1-4-1.5-.4 1.1-2.9 7.4 4.3 1.7-.4 1 3.8 1.5.3-.7-.1.3 4.5 1.7 4.4 1.7-.4 1 3.8 1.5.4-1 2.9-7.5zm10.6 2.5l-1 2.3 1.6.6-3.2 7.5 3.2 1.2 1.1-2.4 5.3 2.1.9-2.2 1.4.6.6-1.6-1.3-.5 1.4-3.5zm18.9 7.8l-3 7.6 9.2 3.4 3.3-8.9-5-1.8-.5 1.2zm11.5 21.9l-10.3-4-3.8-1.6-1.6 3.4-15.7-6.1 1.1-3.1-4.3-1.6-2 5.1-7.2-2.2 1.1-3.1-8.2-2.7 1-3.6-9-2.8-3.4 10.1 9.3 2.6-.4 1.1 20.2 6.3-.4 1.3 19.8 7.5-.5 1 3 1.1.5-1.2 7.4 2.7.4-1.5m-8.2 23.6l-16.3-6.5-.5.7-4.2-1.6.4-.9-13.8-5-.4 1-4.3-1 .3-.9-14.4-3.5-.2.7-4.1-.8.1-.5-8.2-1.7-.3.9-17.2-2.7.5-4.9 2.1.3.8-6.4 5 .6-.2 2 1.6.1.2-2.1 6.5 1.1-.8 4.5 14.7 2.5.9-4.3 4.8 1-1 4.3 14 3 .9-3.9 4.9 1.3-1.1 4.5 14.8 4.6 1.2-3.1 4.3 1.6-1.3 3.2 12.7 5.4m20.2-39l-7.3-3-1.9 4.6-2.6 6.2 3.8 1.6 2-4.6 3.4 1.4z"/><path transform="matrix(.9955 -.09448 .09448 .9955 -30.029 132.876)" class="st2" d="M1387.9 358.4h.5v50.3h-.5z"/><path transform="matrix(.9955 -.09448 .09448 .9955 -29.994 133.019)" class="st2" d="M1389.4 357.9h.5v50.7h-.5z"/><path class="st3" d="M1467.3 788.3v3.5h-2.7v3.7h2.7v1.2h10.6v3.9h3.2v-12.3zM766.2 385.7l.3-3.1-2.9-.2-3-.2-.2 3.1-16.6-1.2-1.9 30 10.8 11.4-.4 6.5 3.6 4 3.3.3h.1l3.3.2 4.1-3.4.6-6.5L780 417l2.8-30-16.6-1.3zm8 28.7l-10.4 8.3h-3.7l-3.1-.4-9-9.8 1.8-21.1 8.7.5-.2 3.2 2.1 2.2 1.8.1 2.1.1 2.4-1.9.2-3.2 8.8.8-1.5 21.2z"/><path class="st6" d="M1107.3 447.9l1.5 1.7 4-3.1-1.5-1.9z"/><path transform="rotate(-39.772 1110.326 444.475)" class="st13" d="M1103.8 443.7h13.2v1.4h-13.2z"/><path class="st6" d="M1241.7 568.5c-3.9-2.5-7-2.5-7.9-.2-1 2.3-2.2 5.4-7.3 4.9-5.2-.5-5.5-4.9-7.7-6.9s-6.3-1.7-9.2 2.2c-2.9 3.8-7.1 4.3-13.5 7.1s-10 13.9-10 17.7c-.1 3.7-2.2 1.1-2.2 1.1s-1.7-1.4-5.8-8.7c-4.1-7.3-14.7-15-16.6-16.2-1.9-1.2-5.3-4.1-6.6-6.5-5.5-9.8-7.6-8.6-7.6-8.6l-6.1 1.5s-1.8 1.1.7 4c2.6 2.9 6.9 6.6 8.1 7.2 1.1.6 4.8 5.8 6.6 7.3s15.6 11.2 17.5 13.1c1.9 1.8 10.8 13.6 16.6 23.5 5.7 10 12.2 17.5 17.6 30.9s23 53.3 23 53.3l5.8-.9s-6.1-11.9-9-17.9c-2.9-6-14.7-32.6-17.3-39.5-2.6-6.9-15.4-25.2-19.3-32-3.9-6.8-2.5-14 0-19.5s10.2-10.6 16.7-10c6.5.6 6.1 8.9 5.6 11.1-.5 2.2-7.5 6.1-8.7 11.5-1.2 5.5 5.9 6.4 9.9 6.5s7-4.2 7-4.2c2.3-2.6 5.7-2 6.2-1 2.1 3.9 3.6 4.7 8.1 4.7s6.3-3.1 6.7-6.1c.3-2.9-3.7-6.3-4.2-8.6-1.3-6.2 1.2-4.3 4.3-10.1 3-5.8 2.6-8.1-1.4-10.7zm-14.2 24.4c-4 0-7.3-3.3-7.3-7.3s3.3-7.3 7.3-7.3 7.3 3.3 7.3 7.3-3.3 7.3-7.3 7.3z"/><path class="st9" d="M1022.7 513l-13.6-.8-10.2 9-.8 13.6 9 10.2 13.6.8 10.2-9 .8-13.6-9-10.2zm5.5 22.5l-8.5 7.5-11.3-.7-7.5-8.5.7-11.3 8.5-7.5 11.3.7 7.5 8.5-.7 11.3z"/><circle class="st6" cx="1014.9" cy="529" r="7.9"/><path class="st3" d="M1512.7 520.3l-.8-.2-3.6 31.4 6.8.7 13.7-28.1-16.1-3.8zm1.4 27.6l-2.6-.3 2.4-23.1.8.1 9.1 2-9.7 21.3zm-390-198.1c0-5 4.1-9.1 9.1-9.1 1.1 0 2.2.2 3.2.6l2-6.4c-1.7-.6-3.8-1-5.6-1-8.8 0-16 7.2-16 16 0 7.4 5.4 13.7 12.2 15.5l2.1-6.7c-4.1-1.1-7-4.7-7-8.9zm77.9 46.4c-.2 5-4.4 8.9-9.4 8.7-1.1 0-2.2-.3-3.2-.7l-2.2 6.4c1.6.6 3.7 1.2 5.6 1.2 8.8.3 16.2-6.5 16.6-15.4.3-7.4-4.9-13.9-11.7-16l-2.3 6.6c3.9 1.2 6.7 4.9 6.6 9.2z"/><path class="st6" d="M1363.4 695.3l-.3-.3c-3.7-2.8-9-2.1-12 1.4l-11.9 13.7s-6.4 8.4.7 13c7.1 4.7 13.8-2.8 13.8-2.8l9.6-11.8c1.5-1.8 2.4-3.9 2.7-6.2.4-2.2-.1-4.9-2.6-7zm-1.5 8c-.3 2.8-9.7 13.1-11.8 15.2-2.1 2.1-5.6 3.1-8.1.9s-.4-6.3 0-7.4c.3-.8 7.6-9.2 11-13 1.8-2 4.8-2.5 7.1-1 1.2.8 2.1 2.5 1.8 5.3z"/><path transform="rotate(9.425 902.043 662.257)" class="st9" d="M893.4 659.1h17.1v5.7h-17.1z"/><path transform="rotate(9.425 899.881 669.58)" class="st9" d="M894.7 667.8h10.2v3.1h-10.2z"/><path class="st9" d="M1403.1 565.5l-372.6-34 .2-2.5 372.6 34zm178.6 12.2l-177.2-12.2.2-2.5 177.8 12.3zm-66.2-13.6l47.5-101.9 2.1 1-47.4 101.9z"/><path class="st9" d="M1411.9 670.3l-27-312.6 2.4-.2 27 312.1z"/><path transform="rotate(-.678 1516.395 568.044) scale(.99997)" class="st9" d="M1515.3 564.6h2.2v6.9h-2.2z"/><path class="st9" d="M1483.7 779c-.4-2.8-.9-3.7-2-4.9-1.1-1.3-5.2-2.9-8.8-4.3-2-.8-4-1.5-5.4-2.3-3-1.5-3.2-1.7-7-5-1.5-1.3-3.6-3.2-6.6-5.8-10.3-8.8-16.2-8-16.3-8h-.1c-.4 0-9.8.5-13.7.4-4.4-.2-4.9-3.1-4.9-3.2l-6.9-74.1 1.2-.1 6.9 74.1c0 .2.4 2 3.7 2.1 3.8.2 13-.3 13.6-.4.6-.1 6.8-.7 17.2 8.3 3.1 2.6 5.1 4.5 6.6 5.8 3.7 3.3 3.8 3.4 6.7 4.8 1.4.7 3.3 1.4 5.3 2.2 3.9 1.5 7.9 3.1 9.3 4.6 1.2 1.4 1.8 2.5 2.3 5.6l-1.1.2zm-450.8-59.8c-9.7 0-19.6-.3-24-1.2-7.6-1.6-12.9-4.8-24.5-11.8-3.7-2.2-7.8-4.7-12.9-7.7-20.9-12.2-34.2-11.9-34.3-11.9-1.4 0-34.8.8-41 0-8-1-65.3-17.8-80.6-23.6-13.5-5.1-26.1-4.2-26.2-4.2-1.2.1-28 1.9-38.1-.8-23.2-6.1-118.9-22.6-119.8-22.8l.4-2.2c1 .2 96.7 16.7 120 22.8 9.8 2.6 37.1.8 37.4.7.5 0 13.1-1 27.1 4.3 15.3 5.8 72.2 22.5 80.1 23.5 6 .8 40.3 0 40.6 0 .5 0 13.9-.4 35.5 12.2 5.1 3 9.2 5.5 12.9 7.7 11.4 6.8 16.5 10 23.8 11.5 9.4 2 46 .8 47.2.7l54.3-4.6 452.1-63.5.3 2.2L1111 714l-54.4 4.6c-.8.3-12.1.6-23.7.6z"/><path class="st9" d="M1307.6 864l-2.1-.7c.1-.4 12.9-40.7 19.1-61.1 1.7-5.5 1.4-10.3-.9-14.2-4-7-12.7-9.2-12.8-9.2-.4-.1-44.5-10.4-79.1-20.8-33.2-9.9-60.7-19.3-86.9-33-24.4-12.6-34.2-10.8-34.3-10.8l-.5-2.2c.4-.1 10.5-2.2 35.8 11 26.1 13.5 53.5 22.9 86.5 32.8 34.6 10.4 78.6 20.7 79 20.8.4.1 9.8 2.4 14.2 10.2 2.6 4.5 2.9 9.9 1.1 16-6.3 20.5-19 60.8-19.1 61.2z"/><path class="st9" d="M1157.1 729.5c-.7 0-1.4-.1-2.2-.2-6.7-1.1-11.1-7.1-10-13.6 1.1-6.5 6.8-10.6 13.9-10 3 .3 5.7 1.8 7.6 4.2 2.1 2.7 3 6.3 2.5 9.8-.9 5.8-5.9 9.8-11.8 9.8zm.3-21.7c-5.4 0-9.5 3.2-10.3 8.2-.9 5.4 2.6 10.1 8.2 11 5.6.9 10.6-2.5 11.5-7.8.5-2.8-.3-5.8-2-8-1.5-2-3.7-3.2-6.1-3.4h-1.3z"/><path class="st9" d="M1181.2 741.3c-.2-.1-4.2-1.4-8-4.7-5.1-4.4-7.4-10.2-6.6-16.7 1-8.2 5.6-12.7 9.3-15 4-2.5 7.7-3 7.8-3.1l.3 2.2-.2-1.1.2 1.1s-3.5.5-7.1 2.8c-4.7 3-7.5 7.5-8.2 13.4-1.7 13.9 13 19 13.1 19l-.6 2.1z"/><path transform="rotate(-40.555 1095.987 622.81)" class="st9" d="M1094.9 514.7h2.2V731h-2.2z"/><path transform="rotate(-85.071 877.47 517.02)" class="st9" d="M876.4 394.7h2.2v244.6h-2.2z"/><path class="st9" d="M841.5 513.7c-.1-1.9-1.3-45.8 1.5-56.9 2.7-10.8-5.7-73.9-5.8-74.5l2.2-.3c.3 2.6 8.5 64.1 5.7 75.3-2.7 10.9-1.5 55.9-1.4 56.3l-2.2.1z"/><path class="st3" d="M766.3 664.2v3.7l-2.9 2.7-3.4 7.4h13.7l2.6 2.5 2.4-1.8h6l2.2-7 3.9-4.6-2.6-1.6-3.2 2.7-10.3-4.4-1.9 2.6z"/><path class="st9" d="M1027.6 519.9l-1.4-1.7 90.7-75 2.6-2c.3-.2 2.7-1.9 9-1.5l143.7 11.7c.7.1 72.9 5.4 82.2 6 9.3.6 54.3 1 54.8 1h.1c1.7.2 42.5 3.8 49.6 6.2 8.2 2.9 34.1 9.5 38 9.5 4-.1 14.9 1.9 15.6 2.2l-.8 2.1c-.8-.2-11.1-2.1-14.9-2h-.1c-4.4 0-30.9-6.9-38.7-9.6-6.7-2.4-47.4-6-49-6.1-1.7 0-45.6-.4-54.8-1-9.4-.6-81.5-6-82.2-6L1128.3 442c-5.3-.3-7.4 1-7.5 1.1l-2.5 2-90.7 74.8z"/><path class="st9" d="M631.5 635.3c-6.3-.9-14.2-1.9-22.5-3-42.9-5.8-101.6-13.6-113.1-17.3l-10.9-3.9c-1-.4-2-.8-3-1.3-10.7-5.3-20.8-12.6-29.9-21.8-8.9-8.8-16.6-19.1-23.2-30.6-6.5-11.4-11.5-23.7-15-36.5-3.5-13-5.3-26.3-5.3-39.3 0-37 14.4-72.1 39.6-96.2 10.6-10.2 22.6-18 35.7-23.2 13.7-5.5 28.2-7.9 43.1-7.3l445 36.8c.7.1 73 8.3 130.6 12.8 13.4 1 27.3 3.9 41.4 8.4 11.3 3.6 22.6 8.3 33.8 13.9 19.1 9.6 31.1 18.7 31.3 18.8l-1.3 1.8c-.1-.1-12.1-9.1-31-18.6-17.4-8.7-44.4-19.7-74.3-22-57.3-4.5-129.2-12.6-130.7-12.8l-444.9-36.8c-28.5-1.1-55.9 9.5-77.2 29.9-24.7 23.8-38.9 58.3-38.9 94.6 0 53.2 29.7 105.1 72.2 126.2l2.7 1.2 10.9 3.9c11.4 3.6 72.4 11.8 112.8 17.2 8.3 1.1 16.2 2.2 22.5 3l-.4 2.1z"/><path class="st9" d="M450.5 385c-12.2-11.3-24.5-25.3-36.4-41.7-9.5-13.1-18.8-27.8-27.7-43.5-15.1-26.9-23.7-48-23.8-48.2l3.9-1.6c.1.2 8.7 21.2 23.6 47.8 13.8 24.5 35.9 59 63.2 84.2l-2.8 3z"/><path transform="rotate(-84.7 360.202 478.053) scale(.99997)" class="st9" d="M359.1 429.5h2.2v97h-2.2z"/><path transform="rotate(-6.174 392.185 495.648)" class="st9" d="M374.2 494.6h36v2.2h-36z"/><path transform="rotate(-6.174 334.149 501.93)" class="st9" d="M309.5 500.9h49.4v2.2h-49.4z"/><path transform="rotate(-27.92 371.9 560.163)" class="st9" d="M317.4 559.1h109v2.2h-109z"/><path class="st2" d="M633.9 634l-2.2-.3 14-113.7c0-.3.2-1.2 1-1.9 1-.8 2.4-1.2 4.4-1 4 .4 104.6 10 105.6 10.1l-.2 2.2c-1-.1-101.6-9.7-105.6-10.1-2.2-.2-2.9.4-3 .8v.1l-14 113.8zm14-113.8z"/><path transform="rotate(.573 786.23 599.32) scale(.99995)" class="st9" d="M779.4 593.2h13.8v12h-13.8z"/><path transform="rotate(-32.77 817.617 650.176)" class="st9" d="M814.9 647.1h5.5v6.3h-5.5z"/><path class="st9" d="M809.2 622.1l-3.6-6.9-4 2.1-.8-1.6-7.6 4 2.8 5.3c-.3.6-.4 1.3-.1 1.9.5 1 1.7 1.3 2.6.8l4.1-2.2 6.6-3.4z"/><path transform="rotate(5.768 743.947 489.348)" class="st9" d="M736.3 487.5h14.8v3.4h-14.8z"/><path transform="rotate(5.768 740.552 522.94)" class="st9" d="M732.9 521.1h14.8v3.4h-14.8z"/><path class="st3" d="M745.4 305.7l-.8-1.5c-7.9-12.8-17.5-26.3-53.2-33.6-35.7-7.3-62.4 29-62.4 29s15.3 5.7 26.8 6.1c11.5.4 17.2-1.4 26.8-3.8s22.3-12.9 22.3-12.9c2.4 5.4 7.5 11.3 10 14 1 1.1 2.1 2.1 3.3 3 4.6 3.4 17.2 11.7 30.4 11.7 16.7 0 24.8-5.9 24.8-5.9-9.4-7.5-28-6.1-28-6.1zm-67.8-9.4c-13.3 3.5-23.5 3.7-35.3-.6 0 0 24.6-22.5 50.1-17.2 6.8 1.4 8.9 3.1 8.9 3.1s-6.7 10.3-23.7 14.7z"/><path class="st9" d="M847.4 435h8.2v13.7h-8.2zm251.3-74.6c-15-7.7-30.6-10-44.4-12-1.6-.2-3.1-.5-4.6-.7-15.1-2.3-239.3-17.9-241.6-18-3.3-.2-80.9-5.8-85.2-6.7-12.9-3-92.2-12.3-94-12.5l-165.4-11.7c-.1 0-9.6-.6-15.6 5-3.2 3-4.8 7.3-4.8 12.7 0 20.1 7.9 24.8 16.7 28.3 9 3.5 59 10 67.1 10.3l-.1 2.2c-4-.1-19.2-1.9-33.2-3.9-10.6-1.5-29.1-4.4-34.7-6.5-4.3-1.7-9.2-4.1-12.7-8.8-3.6-5-5.4-12-5.4-21.5 0-6.1 1.9-10.9 5.5-14.3 6.7-6.2 16.8-5.6 17.3-5.6l165.5 11.7c3.3.4 81.2 9.5 94.3 12.5 3.2.8 56.9 4.7 84.8 6.7 9.2.6 226.6 15.8 241.7 18 1.5.2 3.1.5 4.6.7 13.9 2 29.7 4.3 45.1 12.2l-.9 1.9zM423 621.5l-1.2-1.8 21-14.4 9.4-18.1 1.9 1.1-9.6 18.5-.3.1z"/><path class="st9" d="M1587.4 473.4l-131.2-59.6c-17-8.6-28-7.4-39.7-5.1-11.3 2.2-41.7 1.9-46.1 1.2-3.7-.6-15.2-3.6-19.9-4.9-1.1-.3-2.2-.5-3.3-.7-27.1-4.1-68.9-18.3-82.7-23-.9-.3-1.7-.6-2.4-.8-10.7-3.6-113.1-45.3-117.4-47.1l-11.6-5.1c-.4-.2-10.6-5.4-19.3 9.2l-11.4 17.9s-3 4.3-3 11c0 7.1.1 11.5.1 11.5 0 3.5-.1 6.2-.1 8.4-.1 7.6-.1 8.5 1 18.5l-2.2.2c-1.1-10.1-1.1-11.1-1-18.8 0-2.1.1-4.8.1-8.3 0-.4-.2-4.7-.1-11.6 0-7.3 3.1-11.8 3.4-12.2l11.4-17.8c5.1-8.5 10.8-10.8 14.7-11.2 4.1-.4 7 1 7.4 1.2l11.5 5c1.7.7 106.7 43.4 117.3 47 .7.2 1.5.5 2.4.8 13.7 4.7 55.4 18.9 82.3 22.9 1.2.2 2.4.4 3.6.7 3.7 1 16 4.3 19.7 4.9 4.3.7 34.2.9 45.4-1.2 12.1-2.3 23.5-3.6 41.1 5.3l131.2 59.6-1.2 2.1z"/><path class="st9" d="M1483.4 568.9l-2.2-.2c0-.2 1.7-22.9 2-26.4.3-3.8 2.5-5.5 2.9-5.8 10.2-8.4 25.8-21.3 27-22.9.6-.9-1-3.1-2.1-4.6-.9-1.2-1.6-2.2-1.9-3.1-.5-1.4-.4-1.8-.3-4.1.1-1.9.4-5.6.5-12.8.3-15.4 16.6-42.6 17.3-43.7l1.9 1.1c-.2.3-16.7 27.9-17 42.6-.2 7.3-.4 10.9-.5 12.9-.1 2.1-.2 2.3.2 3.2.2.6.9 1.5 1.6 2.5 1.7 2.3 3.7 5.1 2.1 7.2-1.8 2.3-24.8 21.2-27.4 23.3l-.1.1c-.1 0-1.7 1.2-1.9 4.1-.4 3.7-2.1 26.4-2.1 26.6z"/><path transform="rotate(-26.1 1512.014 741.482)" class="st9" d="M1511 654.3h2.2v174.4h-2.2z"/><path class="st9" d="M1380.9 459.3s-1.1-11.8-1.7-19.2c-.3-3 .2-5.3 1.5-6.8 1.2-1.5 2.7-1.6 2.8-1.6h8.6v1.2h-8.6c-.1 0-1.1.2-2 1.2-1 1.2-1.4 3.3-1.2 5.9.7 7.4 1.7 19.2 1.7 19.2l-1.1.1z"/><path transform="rotate(-26.389 1523.667 745.1)" class="st3" d="M1521.6 660.6h4.3v169.2h-4.3z"/><circle class="st9" cx="1486.2" cy="669.6" r="2.2"/><path class="st3" d="M1560.5 814.4l30.2-13.1 9.1 15.8-4.3-.4-2.1 2.4-4.5-1.8-1.6 1.8-3-1.5-1.5 2.2-3.3-1.3-2.6 2.4-2.9-1.9-2.2 2.7-3.2-1.9-1.3 1.9-6.8-1"/><path class="st5" d="M1543.9 732.5c-8.1 4-18 .7-22-7.4l-12.7-25.5c-4-8.1-.7-18 7.4-22s18-.7 22 7.4l12.7 25.5c4.1 8 .7 18-7.4 22z"/><path class="st3" d="M591.2 527.3L601 504l-18.4-7.7-2.4 5.6 12.8 5.3-5.1 12.1-12.7-5.3-2.3 5.6zm10.7-68.2L591.7 436l-18.3 8.1 2.5 5.5 12.6-5.5 5.3 11.9-12.6 5.6 2.5 5.6z"/><path class="st2" d="M585.3 481.7c0 34.4-26 62.3-58.1 62.3s-58.1-27.9-58.1-62.3 26-62.2 58.1-62.3c32 0 58.1 27.9 58.1 62.3zm-116.2 0c0-34.4 26-62.3 58.1-62.3"/><ellipse class="st9" cx="527.2" cy="481.7" rx="52.8" ry="56.6"/><path class="st15" d="M547.5 511.5l-41.1-.3-.2-58.6h41.3z"/><path class="st5" d="M508.9 456.1h35.6v52h-35.6z"/><path class="st16" d="M506.2 473.6h2.7v.2h-2.7zm0 15.7h2.7v.2h-2.7zm38.4-15.7h2.9v.2h-2.9zm0 8.1h2.9v.2h-2.9zm0-18.7h2.9v.2h-2.9zm-38.4 0h2.7v.2h-2.7zm0 37.1h2.7v.2h-2.7zm38.4 0h2.9v.2h-2.9zm0-10.8h2.9v.2h-2.9zm-37.9-9.2h2.2v3.4h-2.2z"/><path class="st2" d="M536.5 463.2H517V456h19.5v7.2zm-19.2-.2h19v-6.8h-19v6.8zm9.4 3.4c-1.8 0-3.2-1.4-3.2-3.2h.2c0 1.6 1.3 3 3 3 1.6 0 3-1.3 3-3h.2c0 1.7-1.4 3.2-3.2 3.2z"/><path class="st2" d="M529.8 458.3h-6V456h6v2.3zm-5.8-.2h5.5v-1.9H524v1.9zm12.5 50.2H517V501h19.5v7.3zm-19.2-.3h19v-6.8h-19v6.8z"/><path class="st2" d="M530.1 501.1h-.2c0-1.6-1.3-3-3-3s-3 1.3-3 3h-.2c0-1.8 1.4-3.2 3.2-3.2s3.2 1.4 3.2 3.2zm-.3 7.2h-6V506h6v2.3zm-5.8-.3h5.5v-1.9H524v1.9zm-15.1-26.4h35.6v.2h-35.6z"/><path class="st2" d="M526.7 485.7c-2.2 0-4-1.8-4-4s1.8-4 4-4 4 1.8 4 4-1.8 4-4 4zm0-7.7c-2 0-3.7 1.7-3.7 3.7s1.7 3.7 3.7 3.7 3.7-1.7 3.7-3.7c0-2.1-1.6-3.7-3.7-3.7z"/><path class="st16" d="M514.4 508.2h.2v3.4h-.2zm24.5 0h.2v3.4h-.2zm-12.2 0h.2v3.4h-.2zm-12.3-55.6h.2v3.5h-.2zm24.5 0h.2v3.4h-.2zm-12.2 0h.2v3.7h-.2z"/><path class="st17" d="M506.4 452.6h41v-13.9c0-3.4-2.8-6.2-6.2-6.2h-28.6c-3.4 0-6.2 2.8-6.2 6.2v13.9z"/><path class="st17" d="M506.4 511.2v-58.6c-5.3 0-9.7 4.3-9.7 9.7v39.3c.1 5.3 4.4 9.6 9.7 9.6zm41.1-58.4v58.6c5.3 0 9.7-4.3 9.7-9.7v-39.3c-.1-5.2-4.4-9.6-9.7-9.6z"/><path class="st17" d="M547.5 511.2h-41v13.9c0 3.4 2.8 6.2 6.2 6.2h28.6c3.4 0 6.2-2.8 6.2-6.2v-13.9z"/><path class="st5" d="M614.3 571.3l16.1 15.8c.6.6 1.4.8 2.2.7.6-.1 1.2-.5 1.5-1.4.6-2.2 2.7-16.5 2.7-16.5s.6-2.6-2.2-2.8-7.8-.4-11.6-3.8c-2.6-2.3-4.9.6-4.9.6l-3.3 3.4c.1 0-2.1 1.9-.5 4zm21.9-33l1.7.6c1.3.4 2.1 1.6 2.2 2.9 0 .8 0 1.8-.2 3.1-.3 2.1-.4 2.9-.6 4.5-.8 5.8-1.3 13.3-1.3 13.3s0 2-2.3 1.9c-2.3 0-9.5-1-11.3-3.1-1.7-2.1-1.8-3.4-.8-4.9s9.6-16.3 9.6-16.3 1.3-2.6 3-2zm-49.3 64.8l6.8-4.2s1.5-.9 3.9 1.9 7 7.8 7 7.8.7 1.6-1 1.4c-1.7-.2-13.1-1.6-13.1-1.6s-1.4-.3-2-1.4c-.7-1.1-1.6-2.7-1.6-2.7s-.6-.9 0-1.2zm-4.3-8.3l2.1 4.7s.6.8 1.6.4 6.1-3.2 6.1-3.2 1.2-.6.5-1.8-2.9-4.2-2.9-4.2-.9-.9-3 .5c-2.2 1.3-5.1 2-4.4 3.6z"/><path class="st18" d="M506.4 516.5h41v.5h-41zm0 6.5h41v.5h-41zm-9.7-56.4h9.8v.5h-9.8zm.4-7.7h9.3v.5h-9.3zm-.4 15.3h9.8v.5h-9.8zm.1 7.9h9.7v.5h-9.7zm0 7.6h9.7v.5h-9.7zm-.1 7.6h9.8v.5h-9.8zm0 7.6h9.8v.5h-9.8zm50.8-38.3h9.7v.5h-9.7zm0-7.7h9.1v.5h-9.1zm0 15.3h9.8v.5h-9.8zm0 7.9h9.7v.5h-9.7zm0 7.6h9.7v.5h-9.7zm0 7.6h9.7v.5h-9.7zm0 7.6h9v.5h-9z"/><path class="st18" d="M515.6 511.3h.5v20h-.5zm11 0h.5v20h-.5zm10.6 0h.5v20h-.5zm-30.8-64.4h41v.5h-41zm0-6.5h41v.5h-41z"/><path class="st18" d="M515.6 432.4h.5v20.2h-.5zm-13.5 21.1h.5v56.8h-.5zm48.9 0h.5v56.8h-.5zm-24.4-21.1h.5v20.2h-.5zm10.6 0h.5v20.2h-.5z"/><path class="st9" d="M384.9 637.8c-1.2 0-2.5-.2-3.6-.7-2.5-1-4.5-2.9-5.6-5.4-2.7-6.1-5-11.6-6.8-16.1-4.1-10.2-14-9.7-14.4-9.7h-31.6v-2.2h31.4c.4 0 3.2-.1 6.5 1.1 3.2 1.2 7.6 3.9 10.1 10 1.8 4.5 4.1 10 6.8 16 .9 1.9 2.4 3.4 4.4 4.2 2 .8 4.2.7 6.1-.2l19.6-8.8.9 2-19.6 8.8c-1.4.7-2.8 1-4.2 1z"/><path class="st9" d="M333.5 606c-1.6 0-3.7-.1-5.7-.8-3.3-1.1-3.5-4.8-3.2-6.6l2.2.4c0 .1-.6 3.3 1.7 4 3 1 6.8.6 6.9.6l.2 2.2c-.1.1-.9.2-2.1.2z"/><circle class="st3" cx="333.4" cy="622.7" r="6.2"/><circle class="st3" cx="333.4" cy="646.2" r="6.2"/><path class="st2" d="M325.6 605h2.2v17.7h-2.2z"/><path class="st9" d="M339.3 605h2.2v17.7h-2.2z"/><path class="st9" d="M333.5 654.2c-4.4 0-8-3.6-8-8v-23.4c0-4.4 3.6-8 8-8s8 3.6 8 8v23.4c0 4.4-3.6 8-8 8zm0-37.3c-3.2 0-5.8 2.6-5.8 5.8v23.4c0 3.2 2.6 5.8 5.8 5.8 3.2 0 5.8-2.6 5.8-5.8v-23.4c0-3.2-2.6-5.8-5.8-5.8z"/><path class="st2" d="M445.9 380.7s2.9 3.8.1 6.8l1 .6 2.5-4-3.6-3.4zm-19.4 29s1.3 1.6 0 3.5l.6.3 1.3-2.1-1.9-1.7zm3.6-2.3s-1.2 1.4-2.9-.1l-.4.6 2 1.5 1.3-2zm25.8-28.7s-4.3 2.4-6.8-.8l-.7.9 3.6 3 3.9-3.1zM407 483.4s1.8.7 1.6 3h.9l-.4-4-2.1 1zm0-2.1s1.7-.6 1.5-2.9h.9l-.4 4-2-1.1zm.4 13.9s1.5.6 2 3h.5l-.4-4-2.1 1zm9.6 42.3s1.8-.3 3.1 2.1l.4-.1-1.5-3.7-2 1.7zm-.3-2.3s1.4-1.2.3-3.8l.4-.3 1.9 3.5-2.6.6zm35.7 56.4s1.4-1.1 3.8.5l.3-.3-3-2.6-1.1 2.4zm-1.3-2.3s.7-1.7-1.5-3.5l.2-.4 3.3 2.2-2 1.7zm-43.9-96.2s1.7-.6 1.5-2.9l.9-.1-.4 4-2-1zm129.3 64H517V550h.3v6.9h19V550h.2z"/><path class="st2" d="M526.7 560.2c-1.8 0-3.2-1.4-3.2-3.2h.2c0 1.6 1.3 3 3 3 1.6 0 3-1.3 3-3h.2c0 1.8-1.4 3.2-3.2 3.2zm3.1-8h-6V550h.2v2h5.5v-2h.3zm6.7 49.8h-.2v-6.8h-19v6.8h-.3v-7.1h19.5z"/><path class="st2" d="M530.1 595h-.2c0-1.6-1.3-3-3-3s-3 1.3-3 3h-.2c0-1.8 1.4-3.2 3.2-3.2s3.2 1.4 3.2 3.2zm-.3 7.1h-.3v-2H524v2h-.2v-2.3h6zm-20.9-26.6h35.6v.2h-35.6z"/><path class="st2" d="M526.7 579.5c-2.2 0-4-1.8-4-4s1.8-4 4-4 4 1.8 4 4-1.8 4-4 4zm0-7.6c-2 0-3.7 1.7-3.7 3.7s1.7 3.7 3.7 3.7 3.7-1.7 3.7-3.7-1.6-3.7-3.7-3.7z"/><path class="st3" d="M587.7 490.9l7.4-.3s1.2-11.3-.2-19.2l-7.2 1.6c0 .1 2.6 7.2 0 17.9z"/><path class="st9" d="M585 475.4l10-2.3-.2-2.1-.6-3.5-10 2.3zm-.1 13l10.1 2.2-.2 2.2-.3 2.3-.2 1.2-10-2.3zm-15.8 36.4l7.2 7.8-1.5 1.7-1.4 1.4-1 1-7.3-7.9 2-1.8zm-10.5 9.3l4.5 9.9-2.2 1.4-1.7.9-1.1.7-4.4-9.9 2.3-1.3zm-5.2-108l6.1-8.9 1.9 1.1 1.6 1.1 1.2.8-6 8.9-2.2-1.5zm10.8 7.6l8.4-6.7 1.8 1.9 1.3 1.2 1 1.1-8.4 6.5-1.8-1.9zm-79 91.1l-7.2 7.8 1.5 1.7 1.4 1.4 1 1 7.2-7.9-1.9-1.8zm10.5 9.3l-4.5 9.9 2.2 1.4 1.7.9 1 .7 4.5-9.9-2.3-1.3zm5.1-108l-6-8.9-2 1.1-1.6 1.1-1.1.8 5.9 8.9 2.3-1.5zm19.3-6.1l-2.2-10.8-2.4.4-1.7.3-1.5.3 2.2 10.7 2.7-.5zm21 1.2l2.4-10.6-2.3-.6-1.8-.3-1.5-.3-2.3 10.7 2.7.5zm-51 12.5l-8.5-6.7-1.8 1.9-1.2 1.2-1 1.1 8.4 6.5 1.8-1.9z"/><path class="st3" d="M465.6 470.6l-7.2-1.5c3-14.3 7.9-23.3 14.6-26.7 5.2-2.7 9.5-.9 9.9-.7l-4.8 6.7s-.1 0 0 0c-.1 0 .2-.5-2 .7-2.5 1.4-7.3 6.1-10.5 21.5zm11.9 47.3c-1.9 0-5-.5-8.3-2.8-6.7-4.7-11-14.5-12.9-29.2l7.3-.9c2 15.3 6.3 21.5 9.6 23.9 2.6 1.9.8 1.2 3.2 1.5-2.1-.2-.8-.1-.8-.1l3.9 7.4c-.2.1-.9.2-2 .2z"/><path class="st3" d="M492.5 579.4l-1.4 3.1-7.1-3.6-5.6 10.5s-11.6-6.1-16.7-10.8l7.3-9.6-3.6-2.7-7.9 8.9s-9.8-8.5-13.7-14.2l9.3-7.7s-7.8-9.5-9.3-13.2l-10.5 6.1s-8.1-15.1-8.6-17.6l11.1-4.6-1.5-4.4-11.3 3.9-2.7-8.5-1.6-6.6-.6-4 11.8-2.1-1.2-8.4-.5-7.7-12.1.3V479l.2-7.5.6-4.7 11.9 1.5.5-4.7-11.7-1.9.9-5.1 1.9-8s1.6-6 1.8-6c.1 0 11.5 3.6 11.5 3.6l3-8.3 3.1-6.6-10.7-5.4.2-.7 4.8-8.8 5.1-7.4 9.5 6.7.9-.8 2-2.8-1.3-1.2-8.1-6.2 1.4-1.8 7-7.9 5-4.8 7.9 8.7.9-.6 11.9-9.3-6.3-9.9 6.1-3.8 11.2-5.5 4.7 10.7 2.6-.7 1.7-1-4-11 9.9-3 9.4-2.1 1.9 11.7.4.1 13.8-1.2 1.9.3.1-12.1 11.8.7 8.1 1.4-2.3 11.9 4.4 1 1.1-4.1 1.9-7.7 7.8 2.2 11 4.4-3.5 7.5-1.4 3.6 7.4 3.7-1.8 3.2s-21.8-12.4-42.8-12.1c-21 .3-38.5 3.6-59.1 19.8s-27.6 31.5-32.9 44.1-8.9 35.1-7.8 46.3c0 0 1.6 26.3 9.9 40.9 2.3 4.1 3.5 7.4 5.1 10.1 4.1 6.9 6.7 10.8 13.2 17.8 9 9.7 18 15.6 19.1 16s8.5 5.5 11.9 6.5l1.5.7h.2z"/><path transform="rotate(-52.971 585.586 394.014)" class="st3" d="M582.2 384.3h6.8v19.4h-6.8z"/><path transform="rotate(-52.971 579.585 390.756)" class="st3" d="M577.2 387.8h4.7v5.9h-4.7z"/><path transform="rotate(-52.971 579.585 390.756)" class="st3" d="M577.9 388.6h3.4v4.2h-3.4z"/><path transform="rotate(-40.182 601.325 408.735)" class="st3" d="M597.9 399h6.8v19.4h-6.8z"/><path transform="rotate(-40.182 596.193 404.23)" class="st3" d="M593.8 401.3h4.7v5.9h-4.7z"/><path transform="rotate(-40.182 596.193 404.23)" class="st3" d="M594.5 402.1h3.4v4.2h-3.4z"/><path transform="rotate(-28.682 613.323 426.568)" class="st3" d="M609.9 416.8h6.8v19.4h-6.8z"/><path transform="rotate(-28.682 609.193 421.13)" class="st3" d="M606.8 418.1h4.7v5.9h-4.7z"/><path transform="rotate(-28.682 609.193 421.13)" class="st3" d="M607.5 419h3.4v4.2h-3.4z"/><path transform="rotate(-18.14 621.948 446.62)" class="st3" d="M618.6 437h6.8v19.4h-6.8z"/><path transform="rotate(-18.14 618.882 440.52)" class="st3" d="M616.6 437.6h4.7v5.9h-4.7z"/><path transform="rotate(-18.14 618.882 440.52)" class="st3" d="M617.2 438.5h3.4v4.2h-3.4z"/><path transform="matrix(.9977 -.06725 .06725 .9977 -30.097 43.17)" class="st3" d="M622.8 459h6.8v19.4h-6.8z"/><path transform="matrix(.9977 -.06725 .06725 .9977 -29.652 43.057)" class="st3" d="M622.4 459h4.7v5.9h-4.7z"/><path transform="matrix(.9977 -.06725 .06725 .9977 -29.652 43.057)" class="st3" d="M623 459.9h3.4v4.2H623z"/><path transform="rotate(52.971 585.6 566.518)" class="st3" d="M582.2 556.8h6.8v19.4h-6.8z"/><path transform="rotate(52.971 579.6 569.775)" class="st3" d="M577.2 566.8h4.7v5.9h-4.7z"/><path transform="rotate(52.971 579.6 569.775)" class="st3" d="M577.9 567.7h3.4v4.2h-3.4z"/><path transform="rotate(64.183 567.366 577.689)" class="st3" d="M564 568h6.8v19.4H564z"/><path transform="rotate(64.183 560.846 579.716)" class="st3" d="M558.5 576.8h4.7v5.9h-4.7z"/><path transform="rotate(64.183 560.846 579.716)" class="st3" d="M559.2 577.6h3.4v4.2h-3.4z"/><path transform="rotate(40.182 601.332 551.814)" class="st3" d="M597.9 542.1h6.8v19.4h-6.8z"/><path transform="rotate(40.182 596.2 556.32)" class="st3" d="M593.8 553.4h4.7v5.9h-4.7z"/><path transform="rotate(40.182 596.2 556.32)" class="st3" d="M594.5 554.2h3.4v4.2h-3.4z"/><path transform="rotate(28.682 613.45 533.996)" class="st3" d="M610 524.3h6.8v19.4H610z"/><path transform="rotate(28.682 609.224 539.434)" class="st3" d="M606.8 536.5h4.7v5.9h-4.7z"/><path transform="rotate(28.682 609.224 539.434)" class="st3" d="M607.5 537.3h3.4v4.2h-3.4z"/><path transform="rotate(18.14 621.904 513.796)" class="st3" d="M618.6 504.1h6.8v19.4h-6.8z"/><path transform="rotate(18.14 618.837 519.897)" class="st3" d="M616.6 517h4.7v5.9h-4.7z"/><path transform="rotate(18.14 618.837 519.897)" class="st3" d="M617.2 517.8h3.4v4.2h-3.4z"/><path transform="rotate(-46.021 593.453 401.147)" class="st19" d="M593.1 400.2h.7v1.8h-.7z"/><path transform="rotate(-34.755 607.002 417.848)" class="st19" d="M606.6 417h.7v1.8h-.7z"/><path transform="rotate(-22.72 617.012 436.854)" class="st19" d="M616.6 435.7h.7v2.3h-.7z"/><path transform="rotate(-7.946 623.88 457.63)" class="st19" d="M623.5 456.5h.7v2.6h-.7z"/><path transform="rotate(-69.058 617.261 523.755)" class="st19" d="M616.1 523.4h2.3v.7h-2.3z"/><path transform="rotate(-59.178 607.06 542.741)" class="st19" d="M606.1 542.4h2v.7h-2z"/><path transform="rotate(-42.345 593.376 559.006)" class="st19" d="M592.3 558.6h2v.7h-2z"/><path transform="rotate(-29.541 576.337 571.904)" class="st19" d="M575.5 571.6h1.7v.7h-1.7z"/><path class="st9" d="M979.9 338.9c-.3-.4-28.8-41.7-43.7-47.5-8.1-3.1-23.2-3.2-37.9-3.3-13.1 0-25.5-.1-33.6-2.2-16.9-4.3-41.2 0-41.5 0-.1 0-15.2 1.9-33.8-8.4l.6-1.1c18.1 10 32.6 8.3 33.1 8.3.8-.1 25-4.3 42 0 7.9 2 20.8 2.1 33.3 2.1 14.8.1 30.1.1 38.3 3.3 15.2 5.9 43.1 46.2 44.3 48l-1.1.8z"/><path class="st9" d="M937 290.9l-1.2-.2c.7-4.9-1.3-12.8-3.2-20.4-2.6-10.2-4.8-19-1.1-21.3 5.4-3.3 5.3-6.8 5.3-6.8l1.2-.1c0 .2.3 4.2-5.9 8-2.9 1.8-.6 11 1.7 19.9 1.9 7.8 3.9 15.8 3.2 20.9z"/><path class="st3" d="M700.1 392.6l-3.2-.3c-2.3-9.5-8.5-16.4-15.9-16.4-6.6 0-12.4 5.6-15.1 13.8l-3-.3-1.5 18.2 3.6.3c2.1 10.1 8.5 17.4 16.1 17.4 6.9 0 12.8-6.1 15.4-14.8l2.2.2 1.4-18.1z"/><path class="st9" d="M379.2 325.4l-1.5-1.6c.3-.3 8.6-8.2 23.6-15.5 8.8-4.3 18.1-7.5 27.6-9.6 11.9-2.6 24.1-3.3 36.4-2.2l-.2 2.2c-27.3-2.5-49.2 4.9-62.8 11.6-14.7 7.2-23 15-23.1 15.1z"/><path class="st3" d="M424.5 742c0-.5-1-46.5-8.1-93.3-5.2-34.2-18.9-63-30.9-88.5-4.5-9.5-8.7-18.4-12.3-27.1-14.1-34.3-17.6-63.2-19.2-87-1.6-24 3.4-65.9 16-96.1 7.9-19 16.9-36.3 26.7-51.6 7.9-12.3 16.4-23.3 25.3-32.6 15.3-16.2 26.4-22 26.8-22.3l4.2 8.1-2.1-4 2.1 4c-.1.1-10.5 5.6-24.8 20.9-13.2 14.1-32.6 39.6-49.8 81-11.6 27.9-16.9 68.7-15.3 92 1.6 24.2 5 51.1 18.6 84.2 3.5 8.5 7.7 17.3 12.1 26.7 12.3 26 26.3 55.5 31.7 91 7.2 47.4 8.2 94 8.2 94.5l-9.2.1z"/><path class="st9" d="M428.2 741.9c0-.5-1-46.7-8.1-93.8-5.3-34.8-19.1-63.8-31.2-89.5-4.5-9.4-8.7-18.3-12.2-26.9-13.8-33.7-17.3-61.2-19-85.9-.8-12 .1-28.4 2.6-44.7 2-13.1 5.9-32.3 13.1-49.7 7.8-18.7 16.7-35.9 26.4-51 7.8-12.1 16.2-22.9 24.9-32.1 14.9-15.7 25.4-21.3 25.8-21.5l.8 1.5c-.1.1-10.8 5.7-25.5 21.3-13.6 14.4-33.4 40.3-50.9 82.5-12.2 29.5-17.2 70.3-15.6 93.7 1.7 24.5 5.1 51.8 18.8 85.3 3.5 8.6 7.7 17.4 12.2 26.9 12.2 25.8 26.1 55 31.4 90 7.2 47.2 8.1 93.5 8.1 94l-1.6-.1z"/><path class="st9" d="M444.4 308.7l-2.2-.3s.6-4.3-1.7-6.8c-1.3-1.4-3.4-2-6.1-1.8l-.2-2.2c3.5-.3 6.1.5 8 2.5 3 3.3 2.3 8.4 2.2 8.6zm144.1 135.4l-11.7 5.2s2.3 4.4 3.9 8.2c.6 1.4 1.2 2.8 1.4 3.8 0 0 11.8-4.9 11.7-5.2-.1-.3-5.3-12-5.3-12zm4.5 63.1l-11-4.6s-1.4 4-3.2 7.7c-.7 1.4-1.6 3.4-2.2 4.2 0 0 11.2 5 11.3 4.7.1-.1 5.1-12 5.1-12z"/><circle class="st20" cx="1420.9" cy="537" r="13.6"/><path class="st2" d="M1418.4 543.4s-4.1-2.5-4.1-5.8c0-2.7.8-4 2-4.9 0 0 .5-.4.7-.4 0 0 .3 0 .5.6.2.8 3.2 10.4 3.2 10.4l3.2-10.4s.2-.6.6-.6c.3 0 .9.2 1.3.7.3.4 1.3 1.4 1.3 4.5 0 3.7-4.1 5.8-4.2 5.8h3.7s2.1-2.4 2.1-5.5c0 0 .2-5.5-5.3-7.7l-2.6 9h-.2l-2.7-9s-5.3 1.8-5.3 7.7c0 0-.1 3.3 2.1 5.5h3.7z"/><circle class="st20" cx="434.3" cy="388" r="5.5"/><path class="st2" d="M436.7 387.1c0 .7-.1 1.2-.4 1.4-.2.2-.5.2-.8.2h-2.4v1.8h-1v-4.3c0-.3.1-.5.2-.6.1-.1.3-.2.6-.2h2.4c.5 0 .8.1 1 .3.3.3.4.7.4 1.4zm-1 0c0-.3-.1-.6-.2-.7s-.3-.2-.6-.2h-1.5c-.1 0-.2 0-.2.1 0 0-.1.1-.1.2v1.5h1.8c.3 0 .5-.1.6-.2.2-.1.2-.4.2-.7z"/><circle class="st20" cx="381.9" cy="425.1" r="5.5"/><path class="st2" d="M384.3 424.2c0 .7-.1 1.2-.4 1.4-.2.2-.5.2-.8.2h-2.4v1.8h-1v-4.3c0-.3.1-.5.2-.6.1-.1.3-.2.6-.2h2.4c.5 0 .8.1 1 .3.2.3.4.7.4 1.4zm-1 0c0-.3-.1-.6-.2-.7s-.3-.2-.6-.2H381c-.1 0-.2 0-.2.1 0 0-.1.1-.1.2v1.5h1.8c.3 0 .5-.1.6-.2.1-.2.2-.4.2-.7z"/><circle class="st20" cx="330.5" cy="456.1" r="5.5"/><path class="st2" d="M332.9 455.2c0 .7-.1 1.2-.4 1.4-.2.2-.5.2-.8.2h-2.4v1.8h-1v-4.3c0-.3.1-.5.2-.6.1-.1.3-.2.6-.2h2.4c.5 0 .8.1 1 .3.3.3.4.7.4 1.4zm-1 0c0-.3-.1-.6-.2-.7-.1-.1-.3-.2-.6-.2h-1.5c-.1 0-.2 0-.2.1 0 0-.1.1-.1.2v1.5h1.8c.3 0 .5-.1.6-.2s.2-.4.2-.7z"/><circle class="st20" cx="473.5" cy="399.1" r="5.5"/><path class="st2" d="M475.9 398.2c0 .7-.1 1.2-.4 1.4-.2.2-.5.2-.8.2h-2.4v1.8h-1v-4.3c0-.3.1-.5.2-.6s.3-.2.6-.2h2.4c.5 0 .8.1 1 .3.2.3.4.7.4 1.4zm-1 0c0-.3-.1-.6-.2-.7-.1-.1-.3-.2-.6-.2h-1.5c-.1 0-.2 0-.2.1 0 0-.1.1-.1.2v1.5h1.8c.3 0 .5-.1.6-.2s.2-.4.2-.7z"/><circle class="st20" cx="436.4" cy="483.5" r="5.5"/><path class="st2" d="M438.9 482.6c0 .7-.1 1.2-.4 1.4-.2.2-.5.2-.8.2h-2.4v1.8h-1v-4.3c0-.3.1-.5.2-.6.1-.1.3-.2.6-.2h2.4c.5 0 .8.1 1 .3.2.3.4.7.4 1.4zm-1 0c0-.3-.1-.6-.2-.7s-.3-.2-.6-.2h-1.5c-.1 0-.2 0-.2.1 0 0-.1.1-.1.2v1.5h1.8c.3 0 .5-.1.6-.2.1-.2.2-.4.2-.7z"/><circle class="st20" cx="483.8" cy="568.8" r="5.5"/><path class="st2" d="M486.2 567.9c0 .7-.1 1.2-.4 1.4-.2.2-.5.2-.8.2h-2.4v1.8h-1V567c0-.3.1-.5.2-.6.1-.1.3-.2.6-.2h2.4c.5 0 .8.1 1 .3.3.3.4.7.4 1.4zm-.9 0c0-.3-.1-.6-.2-.7-.1-.1-.3-.2-.6-.2H483c-.1 0-.2 0-.2.1s-.1.1-.1.2v1.5h1.8c.3 0 .5-.1.6-.2s.2-.4.2-.7z"/><circle class="st20" cx="705.6" cy="560.9" r="5.5"/><path class="st2" d="M708 560c0 .7-.1 1.2-.4 1.4-.2.2-.5.2-.8.2h-2.4v1.8h-1v-4.3c0-.3.1-.5.2-.6.1-.1.3-.2.6-.2h2.4c.5 0 .8.1 1 .3.3.3.4.7.4 1.4zm-1 0c0-.3-.1-.6-.2-.7s-.3-.2-.6-.2h-1.5c-.1 0-.2 0-.2.1 0 0-.1.1-.1.2v1.5h1.8c.3 0 .5-.1.6-.2.2-.1.2-.4.2-.7z"/></g><g id="line2"><path class="st22" d="M1019.1 513.8l-7.5-.4c-1.6-.1-3.1.5-4.3 1.5l-5.6 5c-1.2 1.1-1.9 2.6-2 4.1l-.4 7.5c-.1 1.6.5 3.1 1.5 4.3l5 5.6c1.1 1.2 2.6 1.9 4.1 2l7.5.4c1.6.1 3.1-.5 4.3-1.5l5.6-5c1.2-1.1 1.9-2.6 2-4.1l.4-7.5c.1-1.6-.5-3.1-1.5-4.3l-5-5.6c-1-1.2-2.5-1.9-4.1-2z"/><path class="st23" d="M1029.5 529.5l374.2 34.7c7.7.7 9.8-5.7 15.8-15.7m-419.9-20.8l-244.1-21.4-113-9.8"/><circle class="st20" cx="642.5" cy="496.5" r="5"/></g><g id="line3"><circle class="st20" cx="588" cy="582" r="5"/><path class="st23" d="M1420.5 546.5c-10 18-13.5 21.4-13 27.7l8.5 91c.3 3-1.8 5.7-4.8 6.1l-297.4 41.6c-2.4.3-4.7.6-7.1.8l-41.8 3.3c-4.2.3-8.5.5-12.8.4l-37.7-.7c-7.8-.1-15.3-2.4-21.8-6.6l-18.6-12c-12.6-8.2-27.4-12.4-42.5-12.2l-20.8.3c-12 .2-24-1.8-35.3-5.8L823.1 662c-10.3-3.6-21.2-5.2-32.2-4.6l-23.2 1.3c-10.1.6-20.3-.3-30.2-2.4L649.8 637c-11.7-2.6-22.2-8.9-30-18l-31.3-36.6"/></g><g id="line1"><circle class="st20" cx="612" cy="397" r="5"/><path class="st23" d="M1414.5 528.5c-5.6-5.9-12.4-17.4-13.1-25.5l-3.4-38.1c-.3-3.1-2.8-5.5-5.9-5.7l-173.5-11c-6.7-.4-13.2-2.8-18.6-6.8-14.3-10.5-48.8-31.5-101.5-35.9l-438.6-39c-3.9-.3-7.7.7-10.9 3l-37.5 27"/></g></svg>