<?xml version="1.0" encoding="utf-8"?>
<!-- Generator: Adobe Illustrator 20.1.0, SVG Export Plug-In . SVG Version: 6.00 Build 0)  -->
<svg version="1.1" id="Layer_1" xmlns="http://www.w3.org/2000/svg" xmlns:xlink="http://www.w3.org/1999/xlink" x="0px" y="0px"
	 viewBox="0 0 448.6 446.7" style="enable-background:new 0 0 448.6 446.7;" xml:space="preserve">
<style type="text/css">
	.st0{fill:#D9F6E1;}
	.st1{fill:#FFFFFF;}
	.st2{fill:#737373;}
	.st3{font-family:'OsnovaPro';}
	.st4{font-size:8px;}
	.st5{fill:#7B878F;}
	.st6{font-family:'OsnovaProLight';}
	.st7{font-size:9px;}
</style>
<path class="st0" d="M8.3,16.7L8.3,16.7C3.8,16.7,0,13,0,8.5v0c0-4.6,3.7-8.3,8.3-8.3h0c4.6,0,8.3,3.7,8.3,8.3v0
	C16.6,13,12.9,16.7,8.3,16.7z"/>
<path class="st0" d="M30.9,16.6L30.9,16.6c-4.6,0-8.3-3.7-8.3-8.3v0c0-4.6,3.7-8.3,8.3-8.3h0c4.6,0,8.3,3.7,8.3,8.3v0
	C39.2,12.8,35.5,16.6,30.9,16.6z"/>
<path class="st0" d="M53.5,16.6L53.5,16.6c-4.6,0-8.3-3.7-8.3-8.3v0c0-4.6,3.7-8.3,8.3-8.3h0c4.6,0,8.3,3.7,8.3,8.3v0
	C61.8,12.8,58,16.6,53.5,16.6z"/>
<path class="st0" d="M76,16.6L76,16.6c-4.6,0-8.3-3.7-8.3-8.3v0C67.8,3.7,71.5,0,76,0h0c4.6,0,8.3,3.7,8.3,8.3v0
	C84.3,12.8,80.6,16.6,76,16.6z"/>
<path class="st0" d="M98.6,16.6L98.6,16.6c-4.6,0-8.3-3.7-8.3-8.3v0c0-4.6,3.7-8.3,8.3-8.3h0c4.6,0,8.3,3.7,8.3,8.3v0
	C106.9,12.8,103.2,16.6,98.6,16.6z"/>
<path class="st0" d="M121.2,16.6L121.2,16.6c-4.6,0-8.3-3.7-8.3-8.3v0c0-4.6,3.7-8.3,8.3-8.3h0c4.6,0,8.3,3.7,8.3,8.3v0
	C129.5,12.8,125.7,16.6,121.2,16.6z"/>
<path class="st0" d="M143.8,16.6L143.8,16.6c-4.6,0-8.3-3.7-8.3-8.3v0c0-4.6,3.7-8.3,8.3-8.3h0c4.6,0,8.3,3.7,8.3,8.3v0
	C152.1,12.8,148.4,16.6,143.8,16.6z"/>
<path class="st0" d="M166.4,16.6L166.4,16.6c-4.6,0-8.3-3.7-8.3-8.3v0c0-4.6,3.7-8.3,8.3-8.3h0c4.6,0,8.3,3.7,8.3,8.3v0
	C174.7,12.8,170.9,16.6,166.4,16.6z"/>
<path class="st0" d="M188.9,16.6L188.9,16.6c-4.6,0-8.3-3.7-8.3-8.3v0c0-4.6,3.7-8.3,8.3-8.3h0c4.6,0,8.3,3.7,8.3,8.3v0
	C197.2,12.8,193.5,16.6,188.9,16.6z"/>
<path class="st0" d="M211.5,16.6L211.5,16.6c-4.6,0-8.3-3.7-8.3-8.3v0c0-4.6,3.7-8.3,8.3-8.3h0c4.6,0,8.3,3.7,8.3,8.3v0
	C219.8,12.8,216.1,16.6,211.5,16.6z"/>
<path class="st0" d="M234.1,16.6L234.1,16.6c-4.6,0-8.3-3.7-8.3-8.3v0c0-4.6,3.7-8.3,8.3-8.3h0c4.6,0,8.3,3.7,8.3,8.3v0
	C242.4,12.8,238.6,16.6,234.1,16.6z"/>
<path class="st0" d="M256.6,16.6L256.6,16.6c-4.6,0-8.3-3.7-8.3-8.3v0c0-4.6,3.7-8.3,8.3-8.3h0c4.6,0,8.3,3.7,8.3,8.3v0
	C264.9,12.8,261.2,16.6,256.6,16.6z"/>
<path class="st1" d="M8.3,108L8.3,108c-4.6,0-8.3-3.7-8.3-8.3v0c0-4.6,3.7-8.3,8.3-8.3h0c4.6,0,8.3,3.7,8.3,8.3v0
	C16.6,104.3,12.8,108,8.3,108z"/>
<path class="st1" d="M30.9,107.9L30.9,107.9c-4.6,0-8.3-3.7-8.3-8.3v0c0-4.6,3.7-8.3,8.3-8.3h0c4.6,0,8.3,3.7,8.3,8.3v0
	C39.2,104.2,35.4,107.9,30.9,107.9z"/>
<path class="st1" d="M53.4,107.9L53.4,107.9c-4.6,0-8.3-3.7-8.3-8.3v0c0-4.6,3.7-8.3,8.3-8.3h0c4.6,0,8.3,3.7,8.3,8.3v0
	C61.7,104.2,58,107.9,53.4,107.9z"/>
<path class="st1" d="M76,107.9L76,107.9c-4.6,0-8.3-3.7-8.3-8.3v0c0-4.6,3.7-8.3,8.3-8.3h0c4.6,0,8.3,3.7,8.3,8.3v0
	C84.3,104.2,80.6,107.9,76,107.9z"/>
<path class="st1" d="M98.6,107.9L98.6,107.9c-4.6,0-8.3-3.7-8.3-8.3v0c0-4.6,3.7-8.3,8.3-8.3h0c4.6,0,8.3,3.7,8.3,8.3v0
	C106.9,104.2,103.1,107.9,98.6,107.9z"/>
<path class="st1" d="M121.2,107.9L121.2,107.9c-4.6,0-8.3-3.7-8.3-8.3v0c0-4.6,3.7-8.3,8.3-8.3h0c4.6,0,8.3,3.7,8.3,8.3v0
	C129.4,104.2,125.7,107.9,121.2,107.9z"/>
<path class="st1" d="M143.7,107.9L143.7,107.9c-4.6,0-8.3-3.7-8.3-8.3v0c0-4.6,3.7-8.3,8.3-8.3h0c4.6,0,8.3,3.7,8.3,8.3v0
	C152,104.2,148.3,107.9,143.7,107.9z"/>
<path class="st1" d="M166.3,107.9L166.3,107.9c-4.6,0-8.3-3.7-8.3-8.3v0c0-4.6,3.7-8.3,8.3-8.3h0c4.6,0,8.3,3.7,8.3,8.3v0
	C174.6,104.2,170.9,107.9,166.3,107.9z"/>
<path class="st1" d="M188.9,107.9L188.9,107.9c-4.6,0-8.3-3.7-8.3-8.3v0c0-4.6,3.7-8.3,8.3-8.3h0c4.6,0,8.3,3.7,8.3,8.3v0
	C197.2,104.2,193.4,107.9,188.9,107.9z"/>
<path class="st1" d="M211.4,107.9L211.4,107.9c-4.6,0-8.3-3.7-8.3-8.3v0c0-4.6,3.7-8.3,8.3-8.3h0c4.6,0,8.3,3.7,8.3,8.3v0
	C219.7,104.2,216,107.9,211.4,107.9z"/>
<path class="st1" d="M234,107.9L234,107.9c-4.6,0-8.3-3.7-8.3-8.3v0c0-4.6,3.7-8.3,8.3-8.3h0c4.6,0,8.3,3.7,8.3,8.3v0
	C242.3,104.2,238.6,107.9,234,107.9z"/>
<path class="st1" d="M256.6,107.9L256.6,107.9c-4.6,0-8.3-3.7-8.3-8.3v0c0-4.6,3.7-8.3,8.3-8.3h0c4.6,0,8.3,3.7,8.3,8.3v0
	C264.9,104.2,261.1,107.9,256.6,107.9z"/>
<path class="st1" d="M279.1,107.9L279.1,107.9c-4.6,0-8.3-3.7-8.3-8.3v0c0-4.6,3.7-8.3,8.3-8.3h0c4.6,0,8.3,3.7,8.3,8.3v0
	C287.4,104.2,283.7,107.9,279.1,107.9z"/>
<path class="st1" d="M301.7,107.9L301.7,107.9c-4.6,0-8.3-3.7-8.3-8.3v0c0-4.6,3.7-8.3,8.3-8.3l0,0c4.6,0,8.3,3.7,8.3,8.3v0
	C310,104.2,306.3,107.9,301.7,107.9z"/>
<path class="st1" d="M324.3,107.9L324.3,107.9c-4.6,0-8.3-3.7-8.3-8.3v0c0-4.6,3.7-8.3,8.3-8.3l0,0c4.6,0,8.3,3.7,8.3,8.3v0
	C332.6,104.2,328.8,107.9,324.3,107.9z"/>
<path class="st1" d="M8.3,85.5L8.3,85.5c-4.6,0-8.3-3.7-8.3-8.3v0c0-4.6,3.7-8.3,8.3-8.3h0c4.6,0,8.3,3.7,8.3,8.3v0
	C16.6,81.7,12.8,85.5,8.3,85.5z"/>
<path class="st1" d="M30.9,85.3L30.9,85.3c-4.6,0-8.3-3.7-8.3-8.3v0c0-4.6,3.7-8.3,8.3-8.3h0c4.6,0,8.3,3.7,8.3,8.3v0
	C39.2,81.6,35.4,85.3,30.9,85.3z"/>
<path class="st1" d="M53.4,85.3L53.4,85.3c-4.6,0-8.3-3.7-8.3-8.3v0c0-4.6,3.7-8.3,8.3-8.3h0c4.6,0,8.3,3.7,8.3,8.3v0
	C61.7,81.6,58,85.3,53.4,85.3z"/>
<path class="st1" d="M76,85.3L76,85.3c-4.6,0-8.3-3.7-8.3-8.3v0c0-4.6,3.7-8.3,8.3-8.3h0c4.6,0,8.3,3.7,8.3,8.3v0
	C84.3,81.6,80.6,85.3,76,85.3z"/>
<path class="st1" d="M98.6,85.3L98.6,85.3c-4.6,0-8.3-3.7-8.3-8.3v0c0-4.6,3.7-8.3,8.3-8.3h0c4.6,0,8.3,3.7,8.3,8.3v0
	C106.9,81.6,103.1,85.3,98.6,85.3z"/>
<path class="st1" d="M121.2,85.3L121.2,85.3c-4.6,0-8.3-3.7-8.3-8.3v0c0-4.6,3.7-8.3,8.3-8.3h0c4.6,0,8.3,3.7,8.3,8.3v0
	C129.4,81.6,125.7,85.3,121.2,85.3z"/>
<path class="st1" d="M143.7,85.3L143.7,85.3c-4.6,0-8.3-3.7-8.3-8.3v0c0-4.6,3.7-8.3,8.3-8.3h0c4.6,0,8.3,3.7,8.3,8.3v0
	C152,81.6,148.3,85.3,143.7,85.3z"/>
<path class="st1" d="M166.3,85.3L166.3,85.3c-4.6,0-8.3-3.7-8.3-8.3v0c0-4.6,3.7-8.3,8.3-8.3h0c4.6,0,8.3,3.7,8.3,8.3v0
	C174.6,81.6,170.9,85.3,166.3,85.3z"/>
<path class="st1" d="M188.9,85.3L188.9,85.3c-4.6,0-8.3-3.7-8.3-8.3v0c0-4.6,3.7-8.3,8.3-8.3h0c4.6,0,8.3,3.7,8.3,8.3v0
	C197.2,81.6,193.4,85.3,188.9,85.3z"/>
<path class="st1" d="M211.4,85.3L211.4,85.3c-4.6,0-8.3-3.7-8.3-8.3v0c0-4.6,3.7-8.3,8.3-8.3h0c4.6,0,8.3,3.7,8.3,8.3v0
	C219.7,81.6,216,85.3,211.4,85.3z"/>
<path class="st1" d="M234,85.3L234,85.3c-4.6,0-8.3-3.7-8.3-8.3v0c0-4.6,3.7-8.3,8.3-8.3h0c4.6,0,8.3,3.7,8.3,8.3v0
	C242.3,81.6,238.6,85.3,234,85.3z"/>
<path class="st1" d="M256.6,85.3L256.6,85.3c-4.6,0-8.3-3.7-8.3-8.3v0c0-4.6,3.7-8.3,8.3-8.3h0c4.6,0,8.3,3.7,8.3,8.3v0
	C264.9,81.6,261.1,85.3,256.6,85.3z"/>
<path class="st1" d="M279.1,85.3L279.1,85.3c-4.6,0-8.3-3.7-8.3-8.3v0c0-4.6,3.7-8.3,8.3-8.3h0c4.6,0,8.3,3.7,8.3,8.3v0
	C287.4,81.6,283.7,85.3,279.1,85.3z"/>
<path class="st1" d="M301.7,85.3L301.7,85.3c-4.6,0-8.3-3.7-8.3-8.3v0c0-4.6,3.7-8.3,8.3-8.3l0,0c4.6,0,8.3,3.7,8.3,8.3v0
	C310,81.6,306.3,85.3,301.7,85.3z"/>
<path class="st1" d="M324.3,85.3L324.3,85.3c-4.6,0-8.3-3.7-8.3-8.3v0c0-4.6,3.7-8.3,8.3-8.3l0,0c4.6,0,8.3,3.7,8.3,8.3v0
	C332.6,81.6,328.8,85.3,324.3,85.3z"/>
<path class="st1" d="M346.9,85.3L346.9,85.3c-4.6,0-8.3-3.7-8.3-8.3v0c0-4.6,3.7-8.3,8.3-8.3h0c4.6,0,8.3,3.7,8.3,8.3v0
	C355.1,81.6,351.4,85.3,346.9,85.3z"/>
<path class="st1" d="M8.3,153.2L8.3,153.2c-4.6,0-8.3-3.7-8.3-8.3v0c0-4.6,3.7-8.3,8.3-8.3h0c4.6,0,8.3,3.7,8.3,8.3v0
	C16.6,149.5,12.9,153.2,8.3,153.2z"/>
<path class="st1" d="M30.9,153L30.9,153c-4.6,0-8.3-3.7-8.3-8.3v0c0-4.6,3.7-8.3,8.3-8.3h0c4.6,0,8.3,3.7,8.3,8.3v0
	C39.2,149.3,35.5,153,30.9,153z"/>
<path class="st1" d="M53.5,153L53.5,153c-4.6,0-8.3-3.7-8.3-8.3v0c0-4.6,3.7-8.3,8.3-8.3h0c4.6,0,8.3,3.7,8.3,8.3v0
	C61.8,149.3,58,153,53.5,153z"/>
<path class="st1" d="M76,153L76,153c-4.6,0-8.3-3.7-8.3-8.3v0c0-4.6,3.7-8.3,8.3-8.3h0c4.6,0,8.3,3.7,8.3,8.3v0
	C84.3,149.3,80.6,153,76,153z"/>
<path class="st1" d="M98.6,153L98.6,153c-4.6,0-8.3-3.7-8.3-8.3v0c0-4.6,3.7-8.3,8.3-8.3h0c4.6,0,8.3,3.7,8.3,8.3v0
	C106.9,149.3,103.2,153,98.6,153z"/>
<path class="st1" d="M121.2,153L121.2,153c-4.6,0-8.3-3.7-8.3-8.3v0c0-4.6,3.7-8.3,8.3-8.3h0c4.6,0,8.3,3.7,8.3,8.3v0
	C129.5,149.3,125.7,153,121.2,153z"/>
<path class="st1" d="M143.8,153L143.8,153c-4.6,0-8.3-3.7-8.3-8.3v0c0-4.6,3.7-8.3,8.3-8.3h0c4.6,0,8.3,3.7,8.3,8.3v0
	C152,149.3,148.3,153,143.8,153z"/>
<path class="st1" d="M166.3,153L166.3,153c-4.6,0-8.3-3.7-8.3-8.3v0c0-4.6,3.7-8.3,8.3-8.3h0c4.6,0,8.3,3.7,8.3,8.3v0
	C174.6,149.3,170.9,153,166.3,153z"/>
<path class="st1" d="M188.9,153L188.9,153c-4.6,0-8.3-3.7-8.3-8.3v0c0-4.6,3.7-8.3,8.3-8.3h0c4.6,0,8.3,3.7,8.3,8.3v0
	C197.2,149.3,193.4,153,188.9,153z"/>
<path class="st1" d="M211.5,153L211.5,153c-4.6,0-8.3-3.7-8.3-8.3v0c0-4.6,3.7-8.3,8.3-8.3h0c4.6,0,8.3,3.7,8.3,8.3v0
	C219.7,149.3,216,153,211.5,153z"/>
<path class="st1" d="M234,153L234,153c-4.6,0-8.3-3.7-8.3-8.3v0c0-4.6,3.7-8.3,8.3-8.3h0c4.6,0,8.3,3.7,8.3,8.3v0
	C242.3,149.3,238.6,153,234,153z"/>
<path class="st1" d="M256.6,153L256.6,153c-4.6,0-8.3-3.7-8.3-8.3v0c0-4.6,3.7-8.3,8.3-8.3l0,0c4.6,0,8.3,3.7,8.3,8.3v0
	C264.9,149.3,261.2,153,256.6,153z"/>
<path class="st1" d="M279.2,153L279.2,153c-4.6,0-8.3-3.7-8.3-8.3v0c0-4.6,3.7-8.3,8.3-8.3l0,0c4.6,0,8.3,3.7,8.3,8.3v0
	C287.5,149.3,283.7,153,279.2,153z"/>
<path class="st1" d="M301.7,153L301.7,153c-4.6,0-8.3-3.7-8.3-8.3v0c0-4.6,3.7-8.3,8.3-8.3h0c4.6,0,8.3,3.7,8.3,8.3v0
	C310,149.3,306.3,153,301.7,153z"/>
<path class="st1" d="M53.5,333.6L53.5,333.6c-4.6,0-8.3-3.7-8.3-8.3v0c0-4.6,3.7-8.3,8.3-8.3h0c4.6,0,8.3,3.7,8.3,8.3v0
	C61.8,329.9,58.1,333.6,53.5,333.6z"/>
<path class="st1" d="M76.1,333.6L76.1,333.6c-4.6,0-8.3-3.7-8.3-8.3v0c0-4.6,3.7-8.3,8.3-8.3h0c4.6,0,8.3,3.7,8.3,8.3v0
	C84.4,329.9,80.6,333.6,76.1,333.6z"/>
<path class="st1" d="M98.7,333.6L98.7,333.6c-4.6,0-8.3-3.7-8.3-8.3v0c0-4.6,3.7-8.3,8.3-8.3h0c4.6,0,8.3,3.7,8.3,8.3v0
	C106.9,329.9,103.2,333.6,98.7,333.6z"/>
<path class="st1" d="M121.2,333.6L121.2,333.6c-4.6,0-8.3-3.7-8.3-8.3v0c0-4.6,3.7-8.3,8.3-8.3h0c4.6,0,8.3,3.7,8.3,8.3v0
	C129.5,329.9,125.8,333.6,121.2,333.6z"/>
<path class="st1" d="M143.8,333.6L143.8,333.6c-4.6,0-8.3-3.7-8.3-8.3v0c0-4.6,3.7-8.3,8.3-8.3h0c4.6,0,8.3,3.7,8.3,8.3v0
	C152.1,329.9,148.4,333.6,143.8,333.6z"/>
<path class="st1" d="M166.4,333.6L166.4,333.6c-4.6,0-8.3-3.7-8.3-8.3v0c0-4.6,3.7-8.3,8.3-8.3h0c4.6,0,8.3,3.7,8.3,8.3v0
	C174.7,329.9,170.9,333.6,166.4,333.6z"/>
<path class="st1" d="M188.9,333.6L188.9,333.6c-4.6,0-8.3-3.7-8.3-8.3v0c0-4.6,3.7-8.3,8.3-8.3h0c4.6,0,8.3,3.7,8.3,8.3v0
	C197.2,329.9,193.5,333.6,188.9,333.6z"/>
<path class="st1" d="M211.5,333.6L211.5,333.6c-4.6,0-8.3-3.7-8.3-8.3v0c0-4.6,3.7-8.3,8.3-8.3h0c4.6,0,8.3,3.7,8.3,8.3v0
	C219.8,329.9,216.1,333.6,211.5,333.6z"/>
<path class="st1" d="M53.5,356.2L53.5,356.2c-4.6,0-8.3-3.7-8.3-8.3l0,0c0-4.6,3.7-8.3,8.3-8.3h0c4.6,0,8.3,3.7,8.3,8.3l0,0
	C61.8,352.4,58.1,356.2,53.5,356.2z"/>
<path class="st1" d="M76.1,356.2L76.1,356.2c-4.6,0-8.3-3.7-8.3-8.3l0,0c0-4.6,3.7-8.3,8.3-8.3h0c4.6,0,8.3,3.7,8.3,8.3l0,0
	C84.4,352.4,80.6,356.2,76.1,356.2z"/>
<path class="st1" d="M98.7,356.2L98.7,356.2c-4.6,0-8.3-3.7-8.3-8.3l0,0c0-4.6,3.7-8.3,8.3-8.3h0c4.6,0,8.3,3.7,8.3,8.3l0,0
	C106.9,352.4,103.2,356.2,98.7,356.2z"/>
<path class="st1" d="M121.2,356.2L121.2,356.2c-4.6,0-8.3-3.7-8.3-8.3l0,0c0-4.6,3.7-8.3,8.3-8.3h0c4.6,0,8.3,3.7,8.3,8.3l0,0
	C129.5,352.4,125.8,356.2,121.2,356.2z"/>
<path class="st1" d="M143.8,356.2L143.8,356.2c-4.6,0-8.3-3.7-8.3-8.3l0,0c0-4.6,3.7-8.3,8.3-8.3h0c4.6,0,8.3,3.7,8.3,8.3l0,0
	C152.1,352.4,148.4,356.2,143.8,356.2z"/>
<path class="st1" d="M166.4,356.2L166.4,356.2c-4.6,0-8.3-3.7-8.3-8.3l0,0c0-4.6,3.7-8.3,8.3-8.3h0c4.6,0,8.3,3.7,8.3,8.3l0,0
	C174.7,352.4,170.9,356.2,166.4,356.2z"/>
<path class="st1" d="M188.9,356.2L188.9,356.2c-4.6,0-8.3-3.7-8.3-8.3l0,0c0-4.6,3.7-8.3,8.3-8.3h0c4.6,0,8.3,3.7,8.3,8.3l0,0
	C197.2,352.4,193.5,356.2,188.9,356.2z"/>
<path class="st1" d="M211.5,356.2L211.5,356.2c-4.6,0-8.3-3.7-8.3-8.3l0,0c0-4.6,3.7-8.3,8.3-8.3h0c4.6,0,8.3,3.7,8.3,8.3l0,0
	C219.8,352.4,216.1,356.2,211.5,356.2z"/>
<path class="st1" d="M53.5,378.8L53.5,378.8c-4.6,0-8.3-3.7-8.3-8.3v0c0-4.6,3.7-8.3,8.3-8.3h0c4.6,0,8.3,3.7,8.3,8.3v0
	C61.8,375.1,58.1,378.8,53.5,378.8z"/>
<path class="st1" d="M76.1,378.8L76.1,378.8c-4.6,0-8.3-3.7-8.3-8.3v0c0-4.6,3.7-8.3,8.3-8.3h0c4.6,0,8.3,3.7,8.3,8.3v0
	C84.4,375.1,80.6,378.8,76.1,378.8z"/>
<path class="st1" d="M98.7,378.8L98.7,378.8c-4.6,0-8.3-3.7-8.3-8.3v0c0-4.6,3.7-8.3,8.3-8.3h0c4.6,0,8.3,3.7,8.3,8.3v0
	C106.9,375.1,103.2,378.8,98.7,378.8z"/>
<path class="st1" d="M121.2,378.8L121.2,378.8c-4.6,0-8.3-3.7-8.3-8.3v0c0-4.6,3.7-8.3,8.3-8.3h0c4.6,0,8.3,3.7,8.3,8.3v0
	C129.5,375.1,125.8,378.8,121.2,378.8z"/>
<path class="st1" d="M143.8,378.8L143.8,378.8c-4.6,0-8.3-3.7-8.3-8.3v0c0-4.6,3.7-8.3,8.3-8.3h0c4.6,0,8.3,3.7,8.3,8.3v0
	C152.1,375.1,148.4,378.8,143.8,378.8z"/>
<path class="st1" d="M166.4,378.8L166.4,378.8c-4.6,0-8.3-3.7-8.3-8.3v0c0-4.6,3.7-8.3,8.3-8.3h0c4.6,0,8.3,3.7,8.3,8.3v0
	C174.7,375.1,170.9,378.8,166.4,378.8z"/>
<path class="st1" d="M188.9,378.8L188.9,378.8c-4.6,0-8.3-3.7-8.3-8.3v0c0-4.6,3.7-8.3,8.3-8.3h0c4.6,0,8.3,3.7,8.3,8.3v0
	C197.2,375.1,193.5,378.8,188.9,378.8z"/>
<path class="st1" d="M211.5,378.8L211.5,378.8c-4.6,0-8.3-3.7-8.3-8.3v0c0-4.6,3.7-8.3,8.3-8.3h0c4.6,0,8.3,3.7,8.3,8.3v0
	C219.8,375.1,216.1,378.8,211.5,378.8z"/>
<path class="st1" d="M211.5,401.4L211.5,401.4c-4.6,0-8.3-3.7-8.3-8.3l0,0c0-4.6,3.7-8.3,8.3-8.3h0c4.6,0,8.3,3.7,8.3,8.3l0,0
	C219.8,397.6,216.1,401.4,211.5,401.4z"/>
<path class="st1" d="M211.5,423.9L211.5,423.9c-4.6,0-8.3-3.7-8.3-8.3v0c0-4.6,3.7-8.3,8.3-8.3h0c4.6,0,8.3,3.7,8.3,8.3v0
	C219.8,420.2,216.1,423.9,211.5,423.9z"/>
<path class="st1" d="M53.5,401.4L53.5,401.4c-4.6,0-8.3-3.7-8.3-8.3l0,0c0-4.6,3.7-8.3,8.3-8.3h0c4.6,0,8.3,3.7,8.3,8.3l0,0
	C61.8,397.6,58.1,401.4,53.5,401.4z"/>
<path class="st1" d="M76.1,401.4L76.1,401.4c-4.6,0-8.3-3.7-8.3-8.3l0,0c0-4.6,3.7-8.3,8.3-8.3h0c4.6,0,8.3,3.7,8.3,8.3l0,0
	C84.4,397.6,80.6,401.4,76.1,401.4z"/>
<path class="st1" d="M98.7,401.4L98.7,401.4c-4.6,0-8.3-3.7-8.3-8.3l0,0c0-4.6,3.7-8.3,8.3-8.3h0c4.6,0,8.3,3.7,8.3,8.3l0,0
	C106.9,397.6,103.2,401.4,98.7,401.4z"/>
<path class="st1" d="M121.2,401.4L121.2,401.4c-4.6,0-8.3-3.7-8.3-8.3l0,0c0-4.6,3.7-8.3,8.3-8.3h0c4.6,0,8.3,3.7,8.3,8.3l0,0
	C129.5,397.6,125.8,401.4,121.2,401.4z"/>
<path class="st1" d="M143.8,401.4L143.8,401.4c-4.6,0-8.3-3.7-8.3-8.3l0,0c0-4.6,3.7-8.3,8.3-8.3h0c4.6,0,8.3,3.7,8.3,8.3l0,0
	C152.1,397.6,148.4,401.4,143.8,401.4z"/>
<path class="st1" d="M166.4,401.4L166.4,401.4c-4.6,0-8.3-3.7-8.3-8.3l0,0c0-4.6,3.7-8.3,8.3-8.3h0c4.6,0,8.3,3.7,8.3,8.3l0,0
	C174.7,397.6,170.9,401.4,166.4,401.4z"/>
<path class="st1" d="M188.9,401.4L188.9,401.4c-4.6,0-8.3-3.7-8.3-8.3l0,0c0-4.6,3.7-8.3,8.3-8.3h0c4.6,0,8.3,3.7,8.3,8.3l0,0
	C197.2,397.6,193.5,401.4,188.9,401.4z"/>
<path class="st1" d="M53.5,424L53.5,424c-4.6,0-8.3-3.7-8.3-8.3v0c0-4.6,3.7-8.3,8.3-8.3h0c4.6,0,8.3,3.7,8.3,8.3v0
	C61.8,420.3,58.1,424,53.5,424z"/>
<path class="st1" d="M76.1,424L76.1,424c-4.6,0-8.3-3.7-8.3-8.3v0c0-4.6,3.7-8.3,8.3-8.3h0c4.6,0,8.3,3.7,8.3,8.3v0
	C84.4,420.3,80.6,424,76.1,424z"/>
<path class="st1" d="M98.7,424L98.7,424c-4.6,0-8.3-3.7-8.3-8.3v0c0-4.6,3.7-8.3,8.3-8.3h0c4.6,0,8.3,3.7,8.3,8.3v0
	C106.9,420.3,103.2,424,98.7,424z"/>
<path class="st1" d="M121.2,424L121.2,424c-4.6,0-8.3-3.7-8.3-8.3v0c0-4.6,3.7-8.3,8.3-8.3h0c4.6,0,8.3,3.7,8.3,8.3v0
	C129.5,420.3,125.8,424,121.2,424z"/>
<path class="st1" d="M143.8,424L143.8,424c-4.6,0-8.3-3.7-8.3-8.3v0c0-4.6,3.7-8.3,8.3-8.3h0c4.6,0,8.3,3.7,8.3,8.3v0
	C152.1,420.3,148.4,424,143.8,424z"/>
<path class="st1" d="M166.4,424L166.4,424c-4.6,0-8.3-3.7-8.3-8.3v0c0-4.6,3.7-8.3,8.3-8.3h0c4.6,0,8.3,3.7,8.3,8.3v0
	C174.7,420.3,170.9,424,166.4,424z"/>
<path class="st1" d="M188.9,424L188.9,424c-4.6,0-8.3-3.7-8.3-8.3v0c0-4.6,3.7-8.3,8.3-8.3h0c4.6,0,8.3,3.7,8.3,8.3v0
	C197.2,420.3,193.5,424,188.9,424z"/>
<path class="st1" d="M8.3,446.7L8.3,446.7c-4.6,0-8.3-3.7-8.3-8.3v0c0-4.6,3.7-8.3,8.3-8.3h0c4.6,0,8.3,3.7,8.3,8.3v0
	C16.6,443,12.9,446.7,8.3,446.7z"/>
<path class="st1" d="M30.9,446.5L30.9,446.5c-4.6,0-8.3-3.7-8.3-8.3l0,0c0-4.6,3.7-8.3,8.3-8.3h0c4.6,0,8.3,3.7,8.3,8.3l0,0
	C39.2,442.8,35.5,446.5,30.9,446.5z"/>
<path class="st1" d="M53.5,446.5L53.5,446.5c-4.6,0-8.3-3.7-8.3-8.3l0,0c0-4.6,3.7-8.3,8.3-8.3h0c4.6,0,8.3,3.7,8.3,8.3l0,0
	C61.8,442.8,58,446.5,53.5,446.5z"/>
<path class="st1" d="M76,446.5L76,446.5c-4.6,0-8.3-3.7-8.3-8.3l0,0c0-4.6,3.7-8.3,8.3-8.3h0c4.6,0,8.3,3.7,8.3,8.3l0,0
	C84.3,442.8,80.6,446.5,76,446.5z"/>
<path class="st1" d="M98.6,446.5L98.6,446.5c-4.6,0-8.3-3.7-8.3-8.3l0,0c0-4.6,3.7-8.3,8.3-8.3h0c4.6,0,8.3,3.7,8.3,8.3l0,0
	C106.9,442.8,103.2,446.5,98.6,446.5z"/>
<path class="st1" d="M121.2,446.5L121.2,446.5c-4.6,0-8.3-3.7-8.3-8.3l0,0c0-4.6,3.7-8.3,8.3-8.3h0c4.6,0,8.3,3.7,8.3,8.3l0,0
	C129.5,442.8,125.7,446.5,121.2,446.5z"/>
<path class="st1" d="M143.8,446.5L143.8,446.5c-4.6,0-8.3-3.7-8.3-8.3l0,0c0-4.6,3.7-8.3,8.3-8.3h0c4.6,0,8.3,3.7,8.3,8.3l0,0
	C152,442.8,148.3,446.5,143.8,446.5z"/>
<path class="st1" d="M166.3,446.5L166.3,446.5c-4.6,0-8.3-3.7-8.3-8.3l0,0c0-4.6,3.7-8.3,8.3-8.3h0c4.6,0,8.3,3.7,8.3,8.3l0,0
	C174.6,442.8,170.9,446.5,166.3,446.5z"/>
<path class="st1" d="M188.9,446.5L188.9,446.5c-4.6,0-8.3-3.7-8.3-8.3l0,0c0-4.6,3.7-8.3,8.3-8.3h0c4.6,0,8.3,3.7,8.3,8.3l0,0
	C197.2,442.8,193.4,446.5,188.9,446.5z"/>
<path class="st1" d="M8.3,130.6L8.3,130.6c-4.6,0-8.3-3.7-8.3-8.3v0c0-4.6,3.7-8.3,8.3-8.3h0c4.6,0,8.3,3.7,8.3,8.3v0
	C16.6,126.9,12.9,130.6,8.3,130.6z"/>
<path class="st1" d="M30.9,130.5L30.9,130.5c-4.6,0-8.3-3.7-8.3-8.3v0c0-4.6,3.7-8.3,8.3-8.3h0c4.6,0,8.3,3.7,8.3,8.3v0
	C39.2,126.7,35.5,130.5,30.9,130.5z"/>
<path class="st1" d="M53.5,130.5L53.5,130.5c-4.6,0-8.3-3.7-8.3-8.3v0c0-4.6,3.7-8.3,8.3-8.3h0c4.6,0,8.3,3.7,8.3,8.3v0
	C61.8,126.7,58,130.5,53.5,130.5z"/>
<path class="st1" d="M76,130.5L76,130.5c-4.6,0-8.3-3.7-8.3-8.3v0c0-4.6,3.7-8.3,8.3-8.3h0c4.6,0,8.3,3.7,8.3,8.3v0
	C84.3,126.7,80.6,130.5,76,130.5z"/>
<path class="st1" d="M98.6,130.5L98.6,130.5c-4.6,0-8.3-3.7-8.3-8.3v0c0-4.6,3.7-8.3,8.3-8.3h0c4.6,0,8.3,3.7,8.3,8.3v0
	C106.9,126.7,103.2,130.5,98.6,130.5z"/>
<path class="st1" d="M121.2,130.5L121.2,130.5c-4.6,0-8.3-3.7-8.3-8.3v0c0-4.6,3.7-8.3,8.3-8.3h0c4.6,0,8.3,3.7,8.3,8.3v0
	C129.5,126.7,125.7,130.5,121.2,130.5z"/>
<path class="st1" d="M143.8,130.5L143.8,130.5c-4.6,0-8.3-3.7-8.3-8.3v0c0-4.6,3.7-8.3,8.3-8.3h0c4.6,0,8.3,3.7,8.3,8.3v0
	C152,126.7,148.3,130.5,143.8,130.5z"/>
<path class="st1" d="M166.3,130.5L166.3,130.5c-4.6,0-8.3-3.7-8.3-8.3v0c0-4.6,3.7-8.3,8.3-8.3h0c4.6,0,8.3,3.7,8.3,8.3v0
	C174.6,126.7,170.9,130.5,166.3,130.5z"/>
<path class="st1" d="M188.9,130.5L188.9,130.5c-4.6,0-8.3-3.7-8.3-8.3v0c0-4.6,3.7-8.3,8.3-8.3h0c4.6,0,8.3,3.7,8.3,8.3v0
	C197.2,126.7,193.4,130.5,188.9,130.5z"/>
<path class="st1" d="M211.5,130.5L211.5,130.5c-4.6,0-8.3-3.7-8.3-8.3v0c0-4.6,3.7-8.3,8.3-8.3h0c4.6,0,8.3,3.7,8.3,8.3v0
	C219.7,126.7,216,130.5,211.5,130.5z"/>
<path class="st1" d="M234,130.5L234,130.5c-4.6,0-8.3-3.7-8.3-8.3v0c0-4.6,3.7-8.3,8.3-8.3h0c4.6,0,8.3,3.7,8.3,8.3v0
	C242.3,126.7,238.6,130.5,234,130.5z"/>
<path class="st1" d="M256.6,130.5L256.6,130.5c-4.6,0-8.3-3.7-8.3-8.3v0c0-4.6,3.7-8.3,8.3-8.3l0,0c4.6,0,8.3,3.7,8.3,8.3v0
	C264.9,126.7,261.2,130.5,256.6,130.5z"/>
<path class="st1" d="M279.2,130.5L279.2,130.5c-4.6,0-8.3-3.7-8.3-8.3v0c0-4.6,3.7-8.3,8.3-8.3l0,0c4.6,0,8.3,3.7,8.3,8.3v0
	C287.5,126.7,283.7,130.5,279.2,130.5z"/>
<path class="st1" d="M301.7,130.5L301.7,130.5c-4.6,0-8.3-3.7-8.3-8.3v0c0-4.6,3.7-8.3,8.3-8.3h0c4.6,0,8.3,3.7,8.3,8.3v0
	C310,126.7,306.3,130.5,301.7,130.5z"/>
<path class="st1" d="M324.3,130.5L324.3,130.5c-4.6,0-8.3-3.7-8.3-8.3v0c0-4.6,3.7-8.3,8.3-8.3h0c4.6,0,8.3,3.7,8.3,8.3v0
	C332.6,126.7,328.9,130.5,324.3,130.5z"/>
<path class="st1" d="M8.3,175.7L8.3,175.7c-4.6,0-8.3-3.7-8.3-8.3v0c0-4.6,3.7-8.3,8.3-8.3h0c4.6,0,8.3,3.7,8.3,8.3v0
	C16.6,172,12.9,175.7,8.3,175.7z"/>
<path class="st1" d="M30.9,175.6L30.9,175.6c-4.6,0-8.3-3.7-8.3-8.3v0c0-4.6,3.7-8.3,8.3-8.3h0c4.6,0,8.3,3.7,8.3,8.3v0
	C39.2,171.9,35.5,175.6,30.9,175.6z"/>
<path class="st1" d="M53.5,175.6L53.5,175.6c-4.6,0-8.3-3.7-8.3-8.3v0c0-4.6,3.7-8.3,8.3-8.3h0c4.6,0,8.3,3.7,8.3,8.3v0
	C61.8,171.9,58,175.6,53.5,175.6z"/>
<path class="st1" d="M76.1,175.6L76.1,175.6c-4.6,0-8.3-3.7-8.3-8.3v0c0-4.6,3.7-8.3,8.3-8.3h0c4.6,0,8.3,3.7,8.3,8.3v0
	C84.3,171.9,80.6,175.6,76.1,175.6z"/>
<path class="st1" d="M98.6,175.6L98.6,175.6c-4.6,0-8.3-3.7-8.3-8.3v0c0-4.6,3.7-8.3,8.3-8.3h0c4.6,0,8.3,3.7,8.3,8.3v0
	C106.9,171.9,103.2,175.6,98.6,175.6z"/>
<path class="st1" d="M121.2,175.6L121.2,175.6c-4.6,0-8.3-3.7-8.3-8.3v0c0-4.6,3.7-8.3,8.3-8.3h0c4.6,0,8.3,3.7,8.3,8.3v0
	C129.5,171.9,125.8,175.6,121.2,175.6z"/>
<path class="st1" d="M143.8,175.6L143.8,175.6c-4.6,0-8.3-3.7-8.3-8.3v0c0-4.6,3.7-8.3,8.3-8.3h0c4.6,0,8.3,3.7,8.3,8.3v0
	C152.1,171.9,148.3,175.6,143.8,175.6z"/>
<path class="st1" d="M166.3,175.6L166.3,175.6c-4.6,0-8.3-3.7-8.3-8.3v0c0-4.6,3.7-8.3,8.3-8.3h0c4.6,0,8.3,3.7,8.3,8.3v0
	C174.6,171.9,170.9,175.6,166.3,175.6z"/>
<path class="st1" d="M188.9,175.6L188.9,175.6c-4.6,0-8.3-3.7-8.3-8.3v0c0-4.6,3.7-8.3,8.3-8.3h0c4.6,0,8.3,3.7,8.3,8.3v0
	C197.2,171.9,193.5,175.6,188.9,175.6z"/>
<path class="st1" d="M211.5,175.6L211.5,175.6c-4.6,0-8.3-3.7-8.3-8.3v0c0-4.6,3.7-8.3,8.3-8.3h0c4.6,0,8.3,3.7,8.3,8.3v0
	C219.8,171.9,216,175.6,211.5,175.6z"/>
<path class="st1" d="M234.1,175.6L234.1,175.6c-4.6,0-8.3-3.7-8.3-8.3v0c0-4.6,3.7-8.3,8.3-8.3h0c4.6,0,8.3,3.7,8.3,8.3v0
	C242.3,171.9,238.6,175.6,234.1,175.6z"/>
<path class="st1" d="M256.6,175.6L256.6,175.6c-4.6,0-8.3-3.7-8.3-8.3v0c0-4.6,3.7-8.3,8.3-8.3l0,0c4.6,0,8.3,3.7,8.3,8.3v0
	C264.9,171.9,261.2,175.6,256.6,175.6z"/>
<path class="st1" d="M8.3,220.9L8.3,220.9c-4.6,0-8.3-3.7-8.3-8.3v0c0-4.6,3.7-8.3,8.3-8.3h0c4.6,0,8.3,3.7,8.3,8.3v0
	C16.6,217.2,12.9,220.9,8.3,220.9z"/>
<path class="st1" d="M30.9,220.7L30.9,220.7c-4.6,0-8.3-3.7-8.3-8.3v0c0-4.6,3.7-8.3,8.3-8.3h0c4.6,0,8.3,3.7,8.3,8.3v0
	C39.2,217,35.5,220.7,30.9,220.7z"/>
<path class="st1" d="M53.5,220.7L53.5,220.7c-4.6,0-8.3-3.7-8.3-8.3v0c0-4.6,3.7-8.3,8.3-8.3h0c4.6,0,8.3,3.7,8.3,8.3v0
	C61.8,217,58,220.7,53.5,220.7z"/>
<path class="st1" d="M76,220.7L76,220.7c-4.6,0-8.3-3.7-8.3-8.3v0c0-4.6,3.7-8.3,8.3-8.3h0c4.6,0,8.3,3.7,8.3,8.3v0
	C84.3,217,80.6,220.7,76,220.7z"/>
<path class="st1" d="M98.6,220.7L98.6,220.7c-4.6,0-8.3-3.7-8.3-8.3v0c0-4.6,3.7-8.3,8.3-8.3h0c4.6,0,8.3,3.7,8.3,8.3v0
	C106.9,217,103.2,220.7,98.6,220.7z"/>
<path class="st1" d="M121.2,220.7L121.2,220.7c-4.6,0-8.3-3.7-8.3-8.3v0c0-4.6,3.7-8.3,8.3-8.3h0c4.6,0,8.3,3.7,8.3,8.3v0
	C129.5,217,125.7,220.7,121.2,220.7z"/>
<path class="st1" d="M143.7,220.7L143.7,220.7c-4.6,0-8.3-3.7-8.3-8.3v0c0-4.6,3.7-8.3,8.3-8.3h0c4.6,0,8.3,3.7,8.3,8.3v0
	C152,217,148.3,220.7,143.7,220.7z"/>
<path class="st1" d="M166.3,220.7L166.3,220.7c-4.6,0-8.3-3.7-8.3-8.3v0c0-4.6,3.7-8.3,8.3-8.3h0c4.6,0,8.3,3.7,8.3,8.3v0
	C174.6,217,170.9,220.7,166.3,220.7z"/>
<path class="st1" d="M188.9,220.7L188.9,220.7c-4.6,0-8.3-3.7-8.3-8.3v0c0-4.6,3.7-8.3,8.3-8.3h0c4.6,0,8.3,3.7,8.3,8.3v0
	C197.2,217,193.4,220.7,188.9,220.7z"/>
<path class="st1" d="M211.5,220.7L211.5,220.7c-4.6,0-8.3-3.7-8.3-8.3v0c0-4.6,3.7-8.3,8.3-8.3h0c4.6,0,8.3,3.7,8.3,8.3v0
	C219.7,217,216,220.7,211.5,220.7z"/>
<path class="st1" d="M234,220.7L234,220.7c-4.6,0-8.3-3.7-8.3-8.3v0c0-4.6,3.7-8.3,8.3-8.3h0c4.6,0,8.3,3.7,8.3,8.3v0
	C242.3,217,238.6,220.7,234,220.7z"/>
<path class="st1" d="M256.6,220.7L256.6,220.7c-4.6,0-8.3-3.7-8.3-8.3v0c0-4.6,3.7-8.3,8.3-8.3h0c4.6,0,8.3,3.7,8.3,8.3v0
	C264.9,217,261.2,220.7,256.6,220.7z"/>
<path class="st1" d="M8.3,198.3L8.3,198.3c-4.6,0-8.3-3.7-8.3-8.3v0c0-4.6,3.7-8.3,8.3-8.3h0c4.6,0,8.3,3.7,8.3,8.3v0
	C16.6,194.6,12.9,198.3,8.3,198.3z"/>
<path class="st1" d="M30.9,198.2L30.9,198.2c-4.6,0-8.3-3.7-8.3-8.3v0c0-4.6,3.7-8.3,8.3-8.3h0c4.6,0,8.3,3.7,8.3,8.3v0
	C39.2,194.4,35.5,198.2,30.9,198.2z"/>
<path class="st1" d="M53.5,198.2L53.5,198.2c-4.6,0-8.3-3.7-8.3-8.3v0c0-4.6,3.7-8.3,8.3-8.3h0c4.6,0,8.3,3.7,8.3,8.3v0
	C61.8,194.4,58,198.2,53.5,198.2z"/>
<path class="st1" d="M76,198.2L76,198.2c-4.6,0-8.3-3.7-8.3-8.3v0c0-4.6,3.7-8.3,8.3-8.3h0c4.6,0,8.3,3.7,8.3,8.3v0
	C84.3,194.4,80.6,198.2,76,198.2z"/>
<path class="st1" d="M98.6,198.2L98.6,198.2c-4.6,0-8.3-3.7-8.3-8.3v0c0-4.6,3.7-8.3,8.3-8.3h0c4.6,0,8.3,3.7,8.3,8.3v0
	C106.9,194.4,103.2,198.2,98.6,198.2z"/>
<path class="st1" d="M121.2,198.2L121.2,198.2c-4.6,0-8.3-3.7-8.3-8.3v0c0-4.6,3.7-8.3,8.3-8.3h0c4.6,0,8.3,3.7,8.3,8.3v0
	C129.5,194.4,125.7,198.2,121.2,198.2z"/>
<path class="st1" d="M143.7,198.2L143.7,198.2c-4.6,0-8.3-3.7-8.3-8.3v0c0-4.6,3.7-8.3,8.3-8.3h0c4.6,0,8.3,3.7,8.3,8.3v0
	C152,194.4,148.3,198.2,143.7,198.2z"/>
<path class="st1" d="M166.3,198.2L166.3,198.2c-4.6,0-8.3-3.7-8.3-8.3v0c0-4.6,3.7-8.3,8.3-8.3h0c4.6,0,8.3,3.7,8.3,8.3v0
	C174.6,194.4,170.9,198.2,166.3,198.2z"/>
<path class="st1" d="M188.9,198.2L188.9,198.2c-4.6,0-8.3-3.7-8.3-8.3v0c0-4.6,3.7-8.3,8.3-8.3h0c4.6,0,8.3,3.7,8.3,8.3v0
	C197.2,194.4,193.4,198.2,188.9,198.2z"/>
<path class="st1" d="M211.5,198.2L211.5,198.2c-4.6,0-8.3-3.7-8.3-8.3v0c0-4.6,3.7-8.3,8.3-8.3h0c4.6,0,8.3,3.7,8.3,8.3v0
	C219.7,194.4,216,198.2,211.5,198.2z"/>
<path class="st1" d="M234,198.2L234,198.2c-4.6,0-8.3-3.7-8.3-8.3v0c0-4.6,3.7-8.3,8.3-8.3h0c4.6,0,8.3,3.7,8.3,8.3v0
	C242.3,194.4,238.6,198.2,234,198.2z"/>
<path class="st1" d="M256.6,198.2L256.6,198.2c-4.6,0-8.3-3.7-8.3-8.3v0c0-4.6,3.7-8.3,8.3-8.3h0c4.6,0,8.3,3.7,8.3,8.3v0
	C264.9,194.4,261.2,198.2,256.6,198.2z"/>
<path class="st1" d="M53.5,243.3L53.5,243.3c-4.6,0-8.3-3.7-8.3-8.3v0c0-4.6,3.7-8.3,8.3-8.3h0c4.6,0,8.3,3.7,8.3,8.3v0
	C61.8,239.6,58,243.3,53.5,243.3z"/>
<path class="st1" d="M76.1,243.3L76.1,243.3c-4.6,0-8.3-3.7-8.3-8.3v0c0-4.6,3.7-8.3,8.3-8.3h0c4.6,0,8.3,3.7,8.3,8.3v0
	C84.3,239.6,80.6,243.3,76.1,243.3z"/>
<path class="st1" d="M98.6,243.3L98.6,243.3c-4.6,0-8.3-3.7-8.3-8.3v0c0-4.6,3.7-8.3,8.3-8.3h0c4.6,0,8.3,3.7,8.3,8.3v0
	C106.9,239.6,103.2,243.3,98.6,243.3z"/>
<path class="st1" d="M121.2,243.3L121.2,243.3c-4.6,0-8.3-3.7-8.3-8.3v0c0-4.6,3.7-8.3,8.3-8.3h0c4.6,0,8.3,3.7,8.3,8.3v0
	C129.5,239.6,125.8,243.3,121.2,243.3z"/>
<path class="st1" d="M143.8,243.3L143.8,243.3c-4.6,0-8.3-3.7-8.3-8.3v0c0-4.6,3.7-8.3,8.3-8.3h0c4.6,0,8.3,3.7,8.3,8.3v0
	C152.1,239.6,148.3,243.3,143.8,243.3z"/>
<path class="st1" d="M166.3,243.3L166.3,243.3c-4.6,0-8.3-3.7-8.3-8.3v0c0-4.6,3.7-8.3,8.3-8.3h0c4.6,0,8.3,3.7,8.3,8.3v0
	C174.6,239.6,170.9,243.3,166.3,243.3z"/>
<path class="st1" d="M188.9,243.3L188.9,243.3c-4.6,0-8.3-3.7-8.3-8.3v0c0-4.6,3.7-8.3,8.3-8.3h0c4.6,0,8.3,3.7,8.3,8.3v0
	C197.2,239.6,193.5,243.3,188.9,243.3z"/>
<path class="st1" d="M211.5,243.3L211.5,243.3c-4.6,0-8.3-3.7-8.3-8.3v0c0-4.6,3.7-8.3,8.3-8.3h0c4.6,0,8.3,3.7,8.3,8.3v0
	C219.8,239.6,216,243.3,211.5,243.3z"/>
<path class="st1" d="M234.1,243.3L234.1,243.3c-4.6,0-8.3-3.7-8.3-8.3v0c0-4.6,3.7-8.3,8.3-8.3h0c4.6,0,8.3,3.7,8.3,8.3v0
	C242.3,239.6,238.6,243.3,234.1,243.3z"/>
<path class="st1" d="M256.6,243.3L256.6,243.3c-4.6,0-8.3-3.7-8.3-8.3v0c0-4.6,3.7-8.3,8.3-8.3l0,0c4.6,0,8.3,3.7,8.3,8.3v0
	C264.9,239.6,261.2,243.3,256.6,243.3z"/>
<path class="st1" d="M53.5,288.4L53.5,288.4c-4.6,0-8.3-3.7-8.3-8.3v0c0-4.6,3.7-8.3,8.3-8.3h0c4.6,0,8.3,3.7,8.3,8.3v0
	C61.8,284.7,58.1,288.4,53.5,288.4z"/>
<path class="st1" d="M76.1,288.4L76.1,288.4c-4.6,0-8.3-3.7-8.3-8.3v0c0-4.6,3.7-8.3,8.3-8.3h0c4.6,0,8.3,3.7,8.3,8.3v0
	C84.4,284.7,80.6,288.4,76.1,288.4z"/>
<path class="st1" d="M98.7,288.4L98.7,288.4c-4.6,0-8.3-3.7-8.3-8.3v0c0-4.6,3.7-8.3,8.3-8.3h0c4.6,0,8.3,3.7,8.3,8.3v0
	C106.9,284.7,103.2,288.4,98.7,288.4z"/>
<path class="st1" d="M121.2,288.4L121.2,288.4c-4.6,0-8.3-3.7-8.3-8.3v0c0-4.6,3.7-8.3,8.3-8.3h0c4.6,0,8.3,3.7,8.3,8.3v0
	C129.5,284.7,125.8,288.4,121.2,288.4z"/>
<path class="st1" d="M143.8,288.4L143.8,288.4c-4.6,0-8.3-3.7-8.3-8.3v0c0-4.6,3.7-8.3,8.3-8.3h0c4.6,0,8.3,3.7,8.3,8.3v0
	C152.1,284.7,148.3,288.4,143.8,288.4z"/>
<path class="st1" d="M166.4,288.4L166.4,288.4c-4.6,0-8.3-3.7-8.3-8.3v0c0-4.6,3.7-8.3,8.3-8.3h0c4.6,0,8.3,3.7,8.3,8.3v0
	C174.6,284.7,170.9,288.4,166.4,288.4z"/>
<path class="st1" d="M188.9,288.4L188.9,288.4c-4.6,0-8.3-3.7-8.3-8.3v0c0-4.6,3.7-8.3,8.3-8.3h0c4.6,0,8.3,3.7,8.3,8.3v0
	C197.2,284.7,193.5,288.4,188.9,288.4z"/>
<path class="st1" d="M211.5,288.4L211.5,288.4c-4.6,0-8.3-3.7-8.3-8.3v0c0-4.6,3.7-8.3,8.3-8.3h0c4.6,0,8.3,3.7,8.3,8.3v0
	C219.8,284.7,216.1,288.4,211.5,288.4z"/>
<path class="st1" d="M234.1,288.4L234.1,288.4c-4.6,0-8.3-3.7-8.3-8.3v0c0-4.6,3.7-8.3,8.3-8.3h0c4.6,0,8.3,3.7,8.3,8.3v0
	C242.4,284.7,238.6,288.4,234.1,288.4z"/>
<path class="st1" d="M53.5,265.9L53.5,265.9c-4.6,0-8.3-3.7-8.3-8.3v0c0-4.6,3.7-8.3,8.3-8.3h0c4.6,0,8.3,3.7,8.3,8.3v0
	C61.8,262.1,58.1,265.9,53.5,265.9z"/>
<path class="st1" d="M76.1,265.9L76.1,265.9c-4.6,0-8.3-3.7-8.3-8.3v0c0-4.6,3.7-8.3,8.3-8.3h0c4.6,0,8.3,3.7,8.3,8.3v0
	C84.4,262.1,80.6,265.9,76.1,265.9z"/>
<path class="st1" d="M98.7,265.9L98.7,265.9c-4.6,0-8.3-3.7-8.3-8.3v0c0-4.6,3.7-8.3,8.3-8.3h0c4.6,0,8.3,3.7,8.3,8.3v0
	C106.9,262.1,103.2,265.9,98.7,265.9z"/>
<path class="st1" d="M121.2,265.9L121.2,265.9c-4.6,0-8.3-3.7-8.3-8.3v0c0-4.6,3.7-8.3,8.3-8.3h0c4.6,0,8.3,3.7,8.3,8.3v0
	C129.5,262.1,125.8,265.9,121.2,265.9z"/>
<path class="st1" d="M143.8,265.9L143.8,265.9c-4.6,0-8.3-3.7-8.3-8.3v0c0-4.6,3.7-8.3,8.3-8.3h0c4.6,0,8.3,3.7,8.3,8.3v0
	C152.1,262.1,148.3,265.9,143.8,265.9z"/>
<path class="st1" d="M166.4,265.9L166.4,265.9c-4.6,0-8.3-3.7-8.3-8.3v0c0-4.6,3.7-8.3,8.3-8.3h0c4.6,0,8.3,3.7,8.3,8.3v0
	C174.6,262.1,170.9,265.9,166.4,265.9z"/>
<path class="st1" d="M188.9,265.9L188.9,265.9c-4.6,0-8.3-3.7-8.3-8.3v0c0-4.6,3.7-8.3,8.3-8.3h0c4.6,0,8.3,3.7,8.3,8.3v0
	C197.2,262.1,193.5,265.9,188.9,265.9z"/>
<path class="st1" d="M211.5,265.9L211.5,265.9c-4.6,0-8.3-3.7-8.3-8.3v0c0-4.6,3.7-8.3,8.3-8.3h0c4.6,0,8.3,3.7,8.3,8.3v0
	C219.8,262.1,216.1,265.9,211.5,265.9z"/>
<path class="st1" d="M234.1,265.9L234.1,265.9c-4.6,0-8.3-3.7-8.3-8.3v0c0-4.6,3.7-8.3,8.3-8.3h0c4.6,0,8.3,3.7,8.3,8.3v0
	C242.4,262.1,238.6,265.9,234.1,265.9z"/>
<path class="st1" d="M256.6,265.9L256.6,265.9c-4.6,0-8.3-3.7-8.3-8.3v0c0-4.6,3.7-8.3,8.3-8.3l0,0c4.6,0,8.3,3.7,8.3,8.3v0
	C264.9,262.1,261.2,265.9,256.6,265.9z"/>
<path class="st1" d="M53.5,311L53.5,311c-4.6,0-8.3-3.7-8.3-8.3l0,0c0-4.6,3.7-8.3,8.3-8.3h0c4.6,0,8.3,3.7,8.3,8.3l0,0
	C61.8,307.3,58.1,311,53.5,311z"/>
<path class="st1" d="M76.1,311L76.1,311c-4.6,0-8.3-3.7-8.3-8.3l0,0c0-4.6,3.7-8.3,8.3-8.3h0c4.6,0,8.3,3.7,8.3,8.3l0,0
	C84.4,307.3,80.6,311,76.1,311z"/>
<path class="st1" d="M98.7,311L98.7,311c-4.6,0-8.3-3.7-8.3-8.3l0,0c0-4.6,3.7-8.3,8.3-8.3h0c4.6,0,8.3,3.7,8.3,8.3l0,0
	C106.9,307.3,103.2,311,98.7,311z"/>
<path class="st1" d="M121.2,311L121.2,311c-4.6,0-8.3-3.7-8.3-8.3l0,0c0-4.6,3.7-8.3,8.3-8.3h0c4.6,0,8.3,3.7,8.3,8.3l0,0
	C129.5,307.3,125.8,311,121.2,311z"/>
<path class="st1" d="M143.8,311L143.8,311c-4.6,0-8.3-3.7-8.3-8.3l0,0c0-4.6,3.7-8.3,8.3-8.3h0c4.6,0,8.3,3.7,8.3,8.3l0,0
	C152.1,307.3,148.3,311,143.8,311z"/>
<path class="st1" d="M166.4,311L166.4,311c-4.6,0-8.3-3.7-8.3-8.3l0,0c0-4.6,3.7-8.3,8.3-8.3h0c4.6,0,8.3,3.7,8.3,8.3l0,0
	C174.6,307.3,170.9,311,166.4,311z"/>
<path class="st1" d="M188.9,311L188.9,311c-4.6,0-8.3-3.7-8.3-8.3l0,0c0-4.6,3.7-8.3,8.3-8.3h0c4.6,0,8.3,3.7,8.3,8.3l0,0
	C197.2,307.3,193.5,311,188.9,311z"/>
<path class="st1" d="M211.5,311L211.5,311c-4.6,0-8.3-3.7-8.3-8.3l0,0c0-4.6,3.7-8.3,8.3-8.3h0c4.6,0,8.3,3.7,8.3,8.3l0,0
	C219.8,307.3,216.1,311,211.5,311z"/>
<path class="st1" d="M234.1,311L234.1,311c-4.6,0-8.3-3.7-8.3-8.3l0,0c0-4.6,3.7-8.3,8.3-8.3h0c4.6,0,8.3,3.7,8.3,8.3l0,0
	C242.4,307.3,238.6,311,234.1,311z"/>
<path class="st1" d="M279.2,175.6L279.2,175.6c-4.6,0-8.3-3.7-8.3-8.3v0c0-4.6,3.7-8.3,8.3-8.3h0c4.6,0,8.3,3.7,8.3,8.3v0
	C287.5,171.9,283.8,175.6,279.2,175.6z"/>
<path class="st1" d="M279.2,220.7L279.2,220.7c-4.6,0-8.3-3.7-8.3-8.3v0c0-4.6,3.7-8.3,8.3-8.3l0,0c4.6,0,8.3,3.7,8.3,8.3v0
	C287.5,217,283.8,220.7,279.2,220.7z"/>
<path class="st1" d="M279.2,198.2L279.2,198.2c-4.6,0-8.3-3.7-8.3-8.3v0c0-4.6,3.7-8.3,8.3-8.3l0,0c4.6,0,8.3,3.7,8.3,8.3v0
	C287.5,194.4,283.8,198.2,279.2,198.2z"/>
<path class="st1" d="M301.8,175.6L301.8,175.6c-4.6,0-8.3-3.7-8.3-8.3v0c0-4.6,3.7-8.3,8.3-8.3l0,0c4.6,0,8.3,3.7,8.3,8.3v0
	C310,171.9,306.3,175.6,301.8,175.6z"/>
<path class="st1" d="M301.7,198.2L301.7,198.2c-4.6,0-8.3-3.7-8.3-8.3v0c0-4.6,3.7-8.3,8.3-8.3l0,0c4.6,0,8.3,3.7,8.3,8.3v0
	C310,194.4,306.3,198.2,301.7,198.2z"/>
<path class="st1" d="M301.7,220.7L301.7,220.7c-4.6,0-8.3-3.7-8.3-8.3v0c0-4.6,3.7-8.3,8.3-8.3l0,0c4.6,0,8.3,3.7,8.3,8.3v0
	C310,217,306.3,220.7,301.7,220.7z"/>
<path class="st1" d="M8.3,62.9L8.3,62.9c-4.6,0-8.3-3.7-8.3-8.3v0c0-4.6,3.7-8.3,8.3-8.3h0c4.6,0,8.3,3.7,8.3,8.3v0
	C16.6,59.2,12.8,62.9,8.3,62.9z"/>
<path class="st1" d="M30.9,62.7L30.9,62.7c-4.6,0-8.3-3.7-8.3-8.3v0c0-4.6,3.7-8.3,8.3-8.3h0c4.6,0,8.3,3.7,8.3,8.3v0
	C39.2,59,35.4,62.7,30.9,62.7z"/>
<path class="st1" d="M8.3,288.6L8.3,288.6c-4.6,0-8.3-3.7-8.3-8.3v0c0-4.6,3.7-8.3,8.3-8.3h0c4.6,0,8.3,3.7,8.3,8.3v0
	C16.6,284.9,12.8,288.6,8.3,288.6z"/>
<path class="st1" d="M30.9,288.4L30.9,288.4c-4.6,0-8.3-3.7-8.3-8.3l0,0c0-4.6,3.7-8.3,8.3-8.3h0c4.6,0,8.3,3.7,8.3,8.3l0,0
	C39.2,284.7,35.4,288.4,30.9,288.4z"/>
<path class="st1" d="M8.3,266L8.3,266c-4.6,0-8.3-3.7-8.3-8.3l0,0c0-4.6,3.7-8.3,8.3-8.3h0c4.6,0,8.3,3.7,8.3,8.3l0,0
	C16.6,262.3,12.8,266,8.3,266z"/>
<path class="st1" d="M30.9,265.9L30.9,265.9c-4.6,0-8.3-3.7-8.3-8.3v0c0-4.6,3.7-8.3,8.3-8.3h0c4.6,0,8.3,3.7,8.3,8.3v0
	C39.2,262.1,35.4,265.9,30.9,265.9z"/>
<path class="st1" d="M8.3,333.7L8.3,333.7c-4.6,0-8.3-3.7-8.3-8.3l0,0c0-4.6,3.7-8.3,8.3-8.3h0c4.6,0,8.3,3.7,8.3,8.3l0,0
	C16.6,330,12.9,333.7,8.3,333.7z"/>
<path class="st1" d="M30.9,333.6L30.9,333.6c-4.6,0-8.3-3.7-8.3-8.3v0c0-4.6,3.7-8.3,8.3-8.3h0c4.6,0,8.3,3.7,8.3,8.3v0
	C39.2,329.8,35.5,333.6,30.9,333.6z"/>
<path class="st1" d="M8.3,311.2L8.3,311.2c-4.6,0-8.3-3.7-8.3-8.3v0c0-4.6,3.7-8.3,8.3-8.3h0c4.6,0,8.3,3.7,8.3,8.3v0
	C16.6,307.4,12.9,311.2,8.3,311.2z"/>
<path class="st1" d="M30.9,311L30.9,311c-4.6,0-8.3-3.7-8.3-8.3v0c0-4.6,3.7-8.3,8.3-8.3h0c4.6,0,8.3,3.7,8.3,8.3v0
	C39.2,307.3,35.5,311,30.9,311z"/>
<path class="st1" d="M8.3,356.3L8.3,356.3c-4.6,0-8.3-3.7-8.3-8.3l0,0c0-4.6,3.7-8.3,8.3-8.3h0c4.6,0,8.3,3.7,8.3,8.3l0,0
	C16.6,352.6,12.9,356.3,8.3,356.3z"/>
<path class="st1" d="M30.9,356.1L30.9,356.1c-4.6,0-8.3-3.7-8.3-8.3v0c0-4.6,3.7-8.3,8.3-8.3h0c4.6,0,8.3,3.7,8.3,8.3v0
	C39.2,352.4,35.5,356.1,30.9,356.1z"/>
<path class="st1" d="M8.3,401.4L8.3,401.4c-4.6,0-8.3-3.7-8.3-8.3l0,0c0-4.6,3.7-8.3,8.3-8.3h0c4.6,0,8.3,3.7,8.3,8.3l0,0
	C16.6,397.7,12.9,401.4,8.3,401.4z"/>
<path class="st1" d="M30.9,401.3L30.9,401.3c-4.6,0-8.3-3.7-8.3-8.3v0c0-4.6,3.7-8.3,8.3-8.3h0c4.6,0,8.3,3.7,8.3,8.3v0
	C39.2,397.6,35.5,401.3,30.9,401.3z"/>
<path class="st1" d="M8.3,424.2L8.3,424.2c-4.6,0-8.3-3.7-8.3-8.3l0,0c0-4.6,3.7-8.3,8.3-8.3h0c4.6,0,8.3,3.7,8.3,8.3l0,0
	C16.6,420.4,12.9,424.2,8.3,424.2z"/>
<path class="st1" d="M30.9,424L30.9,424c-4.6,0-8.3-3.7-8.3-8.3v0c0-4.6,3.7-8.3,8.3-8.3h0c4.6,0,8.3,3.7,8.3,8.3v0
	C39.2,420.3,35.5,424,30.9,424z"/>
<path class="st1" d="M8.3,378.9L8.3,378.9c-4.6,0-8.3-3.7-8.3-8.3v0c0-4.6,3.7-8.3,8.3-8.3h0c4.6,0,8.3,3.7,8.3,8.3v0
	C16.6,375.1,12.9,378.9,8.3,378.9z"/>
<path class="st1" d="M30.9,378.7L30.9,378.7c-4.6,0-8.3-3.7-8.3-8.3v0c0-4.6,3.7-8.3,8.3-8.3h0c4.6,0,8.3,3.7,8.3,8.3v0
	C39.2,375,35.5,378.7,30.9,378.7z"/>
<path class="st1" d="M8.3,243.5L8.3,243.5c-4.6,0-8.3-3.7-8.3-8.3v0c0-4.6,3.7-8.3,8.3-8.3h0c4.6,0,8.3,3.7,8.3,8.3v0
	C16.6,239.7,12.8,243.5,8.3,243.5z"/>
<path class="st1" d="M30.9,243.3L30.9,243.3c-4.6,0-8.3-3.7-8.3-8.3v0c0-4.6,3.7-8.3,8.3-8.3h0c4.6,0,8.3,3.7,8.3,8.3v0
	C39.2,239.6,35.4,243.3,30.9,243.3z"/>
<path class="st1" d="M53.4,62.7L53.4,62.7c-4.6,0-8.3-3.7-8.3-8.3v0c0-4.6,3.7-8.3,8.3-8.3h0c4.6,0,8.3,3.7,8.3,8.3v0
	C61.7,59,58,62.7,53.4,62.7z"/>
<path class="st1" d="M76,62.7L76,62.7c-4.6,0-8.3-3.7-8.3-8.3v0c0-4.6,3.7-8.3,8.3-8.3h0c4.6,0,8.3,3.7,8.3,8.3v0
	C84.3,59,80.6,62.7,76,62.7z"/>
<path class="st1" d="M98.6,62.7L98.6,62.7c-4.6,0-8.3-3.7-8.3-8.3v0c0-4.6,3.7-8.3,8.3-8.3h0c4.6,0,8.3,3.7,8.3,8.3v0
	C106.9,59,103.1,62.7,98.6,62.7z"/>
<path class="st1" d="M121.2,62.7L121.2,62.7c-4.6,0-8.3-3.7-8.3-8.3v0c0-4.6,3.7-8.3,8.3-8.3h0c4.6,0,8.3,3.7,8.3,8.3v0
	C129.4,59,125.7,62.7,121.2,62.7z"/>
<path class="st1" d="M143.7,62.7L143.7,62.7c-4.6,0-8.3-3.7-8.3-8.3v0c0-4.6,3.7-8.3,8.3-8.3h0c4.6,0,8.3,3.7,8.3,8.3v0
	C152,59,148.3,62.7,143.7,62.7z"/>
<path class="st1" d="M166.3,62.7L166.3,62.7c-4.6,0-8.3-3.7-8.3-8.3v0c0-4.6,3.7-8.3,8.3-8.3h0c4.6,0,8.3,3.7,8.3,8.3v0
	C174.6,59,170.9,62.7,166.3,62.7z"/>
<path class="st1" d="M188.9,62.7L188.9,62.7c-4.6,0-8.3-3.7-8.3-8.3v0c0-4.6,3.7-8.3,8.3-8.3h0c4.6,0,8.3,3.7,8.3,8.3v0
	C197.2,59,193.4,62.7,188.9,62.7z"/>
<path class="st1" d="M211.4,62.7L211.4,62.7c-4.6,0-8.3-3.7-8.3-8.3v0c0-4.6,3.7-8.3,8.3-8.3h0c4.6,0,8.3,3.7,8.3,8.3v0
	C219.7,59,216,62.7,211.4,62.7z"/>
<path class="st1" d="M234,62.7L234,62.7c-4.6,0-8.3-3.7-8.3-8.3v0c0-4.6,3.7-8.3,8.3-8.3h0c4.6,0,8.3,3.7,8.3,8.3v0
	C242.3,59,238.6,62.7,234,62.7z"/>
<path class="st1" d="M256.6,62.7L256.6,62.7c-4.6,0-8.3-3.7-8.3-8.3v0c0-4.6,3.7-8.3,8.3-8.3h0c4.6,0,8.3,3.7,8.3,8.3v0
	C264.9,59,261.1,62.7,256.6,62.7z"/>
<path class="st1" d="M279.1,62.7L279.1,62.7c-4.6,0-8.3-3.7-8.3-8.3v0c0-4.6,3.7-8.3,8.3-8.3h0c4.6,0,8.3,3.7,8.3,8.3v0
	C287.4,59,283.7,62.7,279.1,62.7z"/>
<path class="st1" d="M301.7,62.7L301.7,62.7c-4.6,0-8.3-3.7-8.3-8.3v0c0-4.6,3.7-8.3,8.3-8.3l0,0c4.6,0,8.3,3.7,8.3,8.3v0
	C310,59,306.3,62.7,301.7,62.7z"/>
<path class="st1" d="M324.3,62.7L324.3,62.7c-4.6,0-8.3-3.7-8.3-8.3v0c0-4.6,3.7-8.3,8.3-8.3l0,0c4.6,0,8.3,3.7,8.3,8.3v0
	C332.6,59,328.8,62.7,324.3,62.7z"/>
<path class="st1" d="M346.9,62.7L346.9,62.7c-4.6,0-8.3-3.7-8.3-8.3v0c0-4.6,3.7-8.3,8.3-8.3h0c4.6,0,8.3,3.7,8.3,8.3v0
	C355.1,59,351.4,62.7,346.9,62.7z"/>
<path class="st1" d="M369.4,85.3L369.4,85.3c-4.6,0-8.3-3.7-8.3-8.3v0c0-4.6,3.7-8.3,8.3-8.3h0c4.6,0,8.3,3.7,8.3,8.3v0
	C377.7,81.6,374,85.3,369.4,85.3z"/>
<path class="st1" d="M369.4,62.7L369.4,62.7c-4.6,0-8.3-3.7-8.3-8.3v0c0-4.6,3.7-8.3,8.3-8.3h0c4.6,0,8.3,3.7,8.3,8.3v0
	C377.7,59,374,62.7,369.4,62.7z"/>
<path class="st1" d="M346.9,130.4L346.9,130.4c-4.6,0-8.3-3.7-8.3-8.3v0c0-4.6,3.7-8.3,8.3-8.3h0c4.6,0,8.3,3.7,8.3,8.3v0
	C355.1,126.7,351.4,130.4,346.9,130.4z"/>
<path class="st1" d="M346.9,107.9L346.9,107.9c-4.6,0-8.3-3.7-8.3-8.3v0c0-4.6,3.7-8.3,8.3-8.3h0c4.6,0,8.3,3.7,8.3,8.3v0
	C355.1,104.2,351.4,107.9,346.9,107.9z"/>
<path class="st1" d="M324.3,175.6L324.3,175.6c-4.6,0-8.3-3.7-8.3-8.3v0c0-4.6,3.7-8.3,8.3-8.3l0,0c4.6,0,8.3,3.7,8.3,8.3v0
	C332.6,171.9,328.8,175.6,324.3,175.6z"/>
<path class="st1" d="M324.3,153L324.3,153c-4.6,0-8.3-3.7-8.3-8.3v0c0-4.6,3.7-8.3,8.3-8.3l0,0c4.6,0,8.3,3.7,8.3,8.3v0
	C332.6,149.3,328.8,153,324.3,153z"/>
<path class="st1" d="M279.2,265.9L279.2,265.9c-4.6,0-8.3-3.7-8.3-8.3l0,0c0-4.6,3.7-8.3,8.3-8.3l0,0c4.6,0,8.3,3.7,8.3,8.3l0,0
	C287.5,262.2,283.8,265.9,279.2,265.9z"/>
<path class="st1" d="M279.2,243.3L279.2,243.3c-4.6,0-8.3-3.7-8.3-8.3v0c0-4.6,3.7-8.3,8.3-8.3l0,0c4.6,0,8.3,3.7,8.3,8.3v0
	C287.5,239.6,283.8,243.3,279.2,243.3z"/>
<path class="st1" d="M301.7,243.3L301.7,243.3c-4.6,0-8.3-3.7-8.3-8.3v0c0-4.6,3.7-8.3,8.3-8.3l0,0c4.6,0,8.3,3.7,8.3,8.3v0
	C310,239.6,306.3,243.3,301.7,243.3z"/>
<path class="st1" d="M256.6,311L256.6,311c-4.6,0-8.3-3.7-8.3-8.3v0c0-4.6,3.7-8.3,8.3-8.3h0c4.6,0,8.3,3.7,8.3,8.3v0
	C264.9,307.3,261.1,311,256.6,311z"/>
<path class="st1" d="M256.6,288.5L256.6,288.5c-4.6,0-8.3-3.7-8.3-8.3v0c0-4.6,3.7-8.3,8.3-8.3h0c4.6,0,8.3,3.7,8.3,8.3v0
	C264.9,284.7,261.1,288.5,256.6,288.5z"/>
<path class="st1" d="M279.1,288.5L279.1,288.5c-4.6,0-8.3-3.7-8.3-8.3v0c0-4.6,3.7-8.3,8.3-8.3h0c4.6,0,8.3,3.7,8.3,8.3v0
	C287.4,284.7,283.7,288.5,279.1,288.5z"/>
<path class="st1" d="M256.6,333.6L256.6,333.6c-4.6,0-8.3-3.7-8.3-8.3l0,0c0-4.6,3.7-8.3,8.3-8.3l0,0c4.6,0,8.3,3.7,8.3,8.3l0,0
	C264.9,329.9,261.2,333.6,256.6,333.6z"/>
<path class="st1" d="M234,356.2L234,356.2c-4.6,0-8.3-3.7-8.3-8.3l0,0c0-4.6,3.7-8.3,8.3-8.3h0c4.6,0,8.3,3.7,8.3,8.3l0,0
	C242.3,352.4,238.6,356.2,234,356.2z"/>
<path class="st1" d="M234,333.6L234,333.6c-4.6,0-8.3-3.7-8.3-8.3l0,0c0-4.6,3.7-8.3,8.3-8.3h0c4.6,0,8.3,3.7,8.3,8.3l0,0
	C242.3,329.9,238.6,333.6,234,333.6z"/>
<path class="st1" d="M234,378.7L234,378.7c-4.6,0-8.3-3.7-8.3-8.3l0,0c0-4.6,3.7-8.3,8.3-8.3h0c4.6,0,8.3,3.7,8.3,8.3l0,0
	C242.3,375,238.6,378.7,234,378.7z"/>
<g>
	<text transform="matrix(1 0 0 1 6.658 10.1289)" class="st2 st3 st4">1</text>
	<text transform="matrix(1 0 0 1 28.7205 10.1289)" class="st2 st3 st4">2</text>
	<text transform="matrix(1 0 0 1 51.2947 10.1289)" class="st2 st3 st4">3</text>
	<text transform="matrix(1 0 0 1 73.8093 10.1289)" class="st2 st3 st4">4</text>
	<text transform="matrix(1 0 0 1 96.4822 10.1289)" class="st2 st3 st4">5</text>
	<text transform="matrix(1 0 0 1 118.8044 10.1289)" class="st2 st3 st4">6</text>
	<text transform="matrix(1 0 0 1 141.7654 10.1289)" class="st2 st3 st4">7</text>
	<text transform="matrix(1 0 0 1 164.0271 10.1289)" class="st2 st3 st4">8</text>
	<text transform="matrix(1 0 0 1 186.6433 10.1289)" class="st2 st3 st4">9</text>
	<text transform="matrix(1 0 0 1 207.0994 10.1289)" class="st2 st3 st4">10</text>
	<text transform="matrix(1 0 0 1 230.6531 10.1289)" class="st2 st3 st4">11</text>
	<text transform="matrix(1 0 0 1 252.6433 10.1289)" class="st2 st3 st4">12</text>
	<text transform="matrix(1 0 0 1 6.5925 57.4404)" class="st2 st3 st4">1</text>
	<text transform="matrix(1 0 0 1 28.6541 57.4404)" class="st2 st3 st4">2</text>
	<text transform="matrix(1 0 0 1 51.2283 57.4404)" class="st2 st3 st4">3</text>
	<text transform="matrix(1 0 0 1 73.7429 57.4404)" class="st2 st3 st4">4</text>
	<text transform="matrix(1 0 0 1 96.4167 57.4404)" class="st2 st3 st4">5</text>
	<text transform="matrix(1 0 0 1 118.739 57.4404)" class="st2 st3 st4">6</text>
	<text transform="matrix(1 0 0 1 141.7654 57.4404)" class="st2 st3 st4">7</text>
	<text transform="matrix(1 0 0 1 163.9558 57.4404)" class="st2 st3 st4">8</text>
	<text transform="matrix(1 0 0 1 186.45 57.4404)" class="st2 st3 st4">9</text>
	<text transform="matrix(1 0 0 1 207.0994 57.4404)" class="st2 st3 st4">10</text>
	<text transform="matrix(1 0 0 1 230.5818 57.4404)" class="st2 st3 st4">11</text>
	<text transform="matrix(1 0 0 1 252.6443 57.4404)" class="st2 st3 st4">12</text>
	<text transform="matrix(1 0 0 1 275.2175 57.4404)" class="st2 st3 st4">13</text>
	<text transform="matrix(1 0 0 1 297.7312 57.4404)" class="st2 st3 st4">14</text>
	<text transform="matrix(1 0 0 1 320.406 57.4404)" class="st2 st3 st4">15</text>
	<text transform="matrix(1 0 0 1 342.7283 57.4404)" class="st2 st3 st4">16</text>
	<text transform="matrix(1 0 0 1 365.4041 57.4404)" class="st2 st3 st4">17</text>
	<text transform="matrix(1 0 0 1 6.5925 79.7734)" class="st2 st3 st4">1</text>
	<text transform="matrix(1 0 0 1 28.6541 79.7734)" class="st2 st3 st4">2</text>
	<text transform="matrix(1 0 0 1 51.2283 79.7734)" class="st2 st3 st4">3</text>
	<text transform="matrix(1 0 0 1 73.7429 79.7734)" class="st2 st3 st4">4</text>
	<text transform="matrix(1 0 0 1 96.4167 79.7734)" class="st2 st3 st4">5</text>
	<text transform="matrix(1 0 0 1 118.739 79.7734)" class="st2 st3 st4">6</text>
	<text transform="matrix(1 0 0 1 141.7654 79.7734)" class="st2 st3 st4">7</text>
	<text transform="matrix(1 0 0 1 163.9558 79.7734)" class="st2 st3 st4">8</text>
	<text transform="matrix(1 0 0 1 186.45 79.7734)" class="st2 st3 st4">9</text>
	<text transform="matrix(1 0 0 1 207.0994 79.7734)" class="st2 st3 st4">10</text>
	<text transform="matrix(1 0 0 1 230.5818 79.7734)" class="st2 st3 st4">11</text>
	<text transform="matrix(1 0 0 1 252.6443 79.7734)" class="st2 st3 st4">12</text>
	<text transform="matrix(1 0 0 1 275.2175 79.7734)" class="st2 st3 st4">13</text>
	<text transform="matrix(1 0 0 1 297.7312 79.7734)" class="st2 st3 st4">14</text>
	<text transform="matrix(1 0 0 1 320.406 79.7734)" class="st2 st3 st4">15</text>
	<text transform="matrix(1 0 0 1 342.7283 79.7734)" class="st2 st3 st4">16</text>
	<text transform="matrix(1 0 0 1 365.4041 79.7734)" class="st2 st3 st4">17</text>
	<text transform="matrix(1 0 0 1 6.5925 101.8525)" class="st2 st3 st4">1</text>
	<text transform="matrix(1 0 0 1 28.6541 101.8525)" class="st2 st3 st4">2</text>
	<text transform="matrix(1 0 0 1 51.2283 101.8525)" class="st2 st3 st4">3</text>
	<text transform="matrix(1 0 0 1 73.7429 101.8525)" class="st2 st3 st4">4</text>
	<text transform="matrix(1 0 0 1 96.4167 101.8525)" class="st2 st3 st4">5</text>
	<text transform="matrix(1 0 0 1 118.739 101.8525)" class="st2 st3 st4">6</text>
	<text transform="matrix(1 0 0 1 141.7654 101.8525)" class="st2 st3 st4">7</text>
	<text transform="matrix(1 0 0 1 163.9558 101.8525)" class="st2 st3 st4">8</text>
	<text transform="matrix(1 0 0 1 186.45 101.8525)" class="st2 st3 st4">9</text>
	<text transform="matrix(1 0 0 1 207.0994 101.8525)" class="st2 st3 st4">10</text>
	<text transform="matrix(1 0 0 1 230.5818 101.8525)" class="st2 st3 st4">11</text>
	<text transform="matrix(1 0 0 1 252.6443 101.8525)" class="st2 st3 st4">12</text>
	<text transform="matrix(1 0 0 1 275.2175 101.8525)" class="st2 st3 st4">13</text>
	<text transform="matrix(1 0 0 1 297.7312 101.8525)" class="st2 st3 st4">14</text>
	<text transform="matrix(1 0 0 1 320.406 101.8525)" class="st2 st3 st4">15</text>
	<text transform="matrix(1 0 0 1 342.7283 101.8525)" class="st2 st3 st4">16</text>
	<text transform="matrix(1 0 0 1 6.5925 124.916)" class="st2 st3 st4">1</text>
	<text transform="matrix(1 0 0 1 28.6541 124.916)" class="st2 st3 st4">2</text>
	<text transform="matrix(1 0 0 1 51.2283 124.916)" class="st2 st3 st4">3</text>
	<text transform="matrix(1 0 0 1 73.7429 124.916)" class="st2 st3 st4">4</text>
	<text transform="matrix(1 0 0 1 96.4167 124.916)" class="st2 st3 st4">5</text>
	<text transform="matrix(1 0 0 1 118.739 124.916)" class="st2 st3 st4">6</text>
	<text transform="matrix(1 0 0 1 141.7654 124.916)" class="st2 st3 st4">7</text>
	<text transform="matrix(1 0 0 1 163.9558 124.916)" class="st2 st3 st4">8</text>
	<text transform="matrix(1 0 0 1 186.45 124.916)" class="st2 st3 st4">9</text>
	<text transform="matrix(1 0 0 1 207.0994 124.916)" class="st2 st3 st4">10</text>
	<text transform="matrix(1 0 0 1 230.5818 124.916)" class="st2 st3 st4">11</text>
	<text transform="matrix(1 0 0 1 252.6443 124.916)" class="st2 st3 st4">12</text>
	<text transform="matrix(1 0 0 1 275.2175 124.916)" class="st2 st3 st4">13</text>
	<text transform="matrix(1 0 0 1 297.7312 124.916)" class="st2 st3 st4">14</text>
	<text transform="matrix(1 0 0 1 320.406 124.916)" class="st2 st3 st4">15</text>
	<text transform="matrix(1 0 0 1 342.7283 124.916)" class="st2 st3 st4">16</text>
	<text transform="matrix(1 0 0 1 6.5925 146.7773)" class="st2 st3 st4">1</text>
	<text transform="matrix(1 0 0 1 28.6541 146.7773)" class="st2 st3 st4">2</text>
	<text transform="matrix(1 0 0 1 51.2283 146.7773)" class="st2 st3 st4">3</text>
	<text transform="matrix(1 0 0 1 73.7429 146.7773)" class="st2 st3 st4">4</text>
	<text transform="matrix(1 0 0 1 96.4167 146.7773)" class="st2 st3 st4">5</text>
	<text transform="matrix(1 0 0 1 118.739 146.7773)" class="st2 st3 st4">6</text>
	<text transform="matrix(1 0 0 1 141.7654 146.7773)" class="st2 st3 st4">7</text>
	<text transform="matrix(1 0 0 1 163.9558 146.7773)" class="st2 st3 st4">8</text>
	<text transform="matrix(1 0 0 1 186.45 146.7773)" class="st2 st3 st4">9</text>
	<text transform="matrix(1 0 0 1 207.0994 146.7773)" class="st2 st3 st4">10</text>
	<text transform="matrix(1 0 0 1 230.5818 146.7773)" class="st2 st3 st4">11</text>
	<text transform="matrix(1 0 0 1 252.6443 146.7773)" class="st2 st3 st4">12</text>
	<text transform="matrix(1 0 0 1 275.2175 146.7773)" class="st2 st3 st4">13</text>
	<text transform="matrix(1 0 0 1 297.7312 146.7773)" class="st2 st3 st4">14</text>
	<text transform="matrix(1 0 0 1 320.406 146.7773)" class="st2 st3 st4">15</text>
	<text transform="matrix(1 0 0 1 6.5925 169.9404)" class="st2 st3 st4">1</text>
	<text transform="matrix(1 0 0 1 28.6541 169.9404)" class="st2 st3 st4">2</text>
	<text transform="matrix(1 0 0 1 51.2283 169.9404)" class="st2 st3 st4">3</text>
	<text transform="matrix(1 0 0 1 73.7429 169.9404)" class="st2 st3 st4">4</text>
	<text transform="matrix(1 0 0 1 96.4167 169.9404)" class="st2 st3 st4">5</text>
	<text transform="matrix(1 0 0 1 118.739 169.9404)" class="st2 st3 st4">6</text>
	<text transform="matrix(1 0 0 1 141.7654 169.9404)" class="st2 st3 st4">7</text>
	<text transform="matrix(1 0 0 1 163.9558 169.9404)" class="st2 st3 st4">8</text>
	<text transform="matrix(1 0 0 1 186.45 169.9404)" class="st2 st3 st4">9</text>
	<text transform="matrix(1 0 0 1 207.0994 169.9404)" class="st2 st3 st4">10</text>
	<text transform="matrix(1 0 0 1 230.5818 169.9404)" class="st2 st3 st4">11</text>
	<text transform="matrix(1 0 0 1 252.6443 169.9404)" class="st2 st3 st4">12</text>
	<text transform="matrix(1 0 0 1 275.2175 169.9404)" class="st2 st3 st4">13</text>
	<text transform="matrix(1 0 0 1 297.7312 169.9404)" class="st2 st3 st4">14</text>
	<text transform="matrix(1 0 0 1 320.406 169.9404)" class="st2 st3 st4">15</text>
	<text transform="matrix(1 0 0 1 6.5925 192.4404)" class="st2 st3 st4">1</text>
	<text transform="matrix(1 0 0 1 28.6541 192.4404)" class="st2 st3 st4">2</text>
	<text transform="matrix(1 0 0 1 51.2283 192.4404)" class="st2 st3 st4">3</text>
	<text transform="matrix(1 0 0 1 73.7429 192.4404)" class="st2 st3 st4">4</text>
	<text transform="matrix(1 0 0 1 96.4167 192.4404)" class="st2 st3 st4">5</text>
	<text transform="matrix(1 0 0 1 118.739 192.4404)" class="st2 st3 st4">6</text>
	<text transform="matrix(1 0 0 1 141.7654 192.4404)" class="st2 st3 st4">7</text>
	<text transform="matrix(1 0 0 1 163.9558 192.4404)" class="st2 st3 st4">8</text>
	<text transform="matrix(1 0 0 1 186.45 192.4404)" class="st2 st3 st4">9</text>
	<text transform="matrix(1 0 0 1 207.0994 192.4404)" class="st2 st3 st4">10</text>
	<text transform="matrix(1 0 0 1 230.5818 192.4404)" class="st2 st3 st4">11</text>
	<text transform="matrix(1 0 0 1 252.6443 192.4404)" class="st2 st3 st4">12</text>
	<text transform="matrix(1 0 0 1 275.2175 192.4404)" class="st2 st3 st4">13</text>
	<text transform="matrix(1 0 0 1 297.7312 192.4404)" class="st2 st3 st4">14</text>
	<text transform="matrix(1 0 0 1 6.5925 215.1376)" class="st2 st3 st4">1</text>
	<text transform="matrix(1 0 0 1 28.6541 215.1376)" class="st2 st3 st4">2</text>
	<text transform="matrix(1 0 0 1 51.2283 215.1376)" class="st2 st3 st4">3</text>
	<text transform="matrix(1 0 0 1 73.7429 215.1376)" class="st2 st3 st4">4</text>
	<text transform="matrix(1 0 0 1 96.4167 215.1376)" class="st2 st3 st4">5</text>
	<text transform="matrix(1 0 0 1 118.739 215.1376)" class="st2 st3 st4">6</text>
	<text transform="matrix(1 0 0 1 141.7654 215.1376)" class="st2 st3 st4">7</text>
	<text transform="matrix(1 0 0 1 163.9558 215.1376)" class="st2 st3 st4">8</text>
	<text transform="matrix(1 0 0 1 186.45 215.1376)" class="st2 st3 st4">9</text>
	<text transform="matrix(1 0 0 1 207.0994 215.1376)" class="st2 st3 st4">10</text>
	<text transform="matrix(1 0 0 1 230.5818 215.1376)" class="st2 st3 st4">11</text>
	<text transform="matrix(1 0 0 1 252.6443 215.1376)" class="st2 st3 st4">12</text>
	<text transform="matrix(1 0 0 1 275.2175 215.1376)" class="st2 st3 st4">13</text>
	<text transform="matrix(1 0 0 1 297.7312 215.1376)" class="st2 st3 st4">14</text>
	<text transform="matrix(1 0 0 1 6.5925 237.2675)" class="st2 st3 st4">1</text>
	<text transform="matrix(1 0 0 1 28.6541 237.2675)" class="st2 st3 st4">2</text>
	<text transform="matrix(1 0 0 1 51.2283 237.2675)" class="st2 st3 st4">3</text>
	<text transform="matrix(1 0 0 1 73.7429 237.2675)" class="st2 st3 st4">4</text>
	<text transform="matrix(1 0 0 1 96.4167 237.2675)" class="st2 st3 st4">5</text>
	<text transform="matrix(1 0 0 1 118.739 237.2675)" class="st2 st3 st4">6</text>
	<text transform="matrix(1 0 0 1 141.7654 237.2675)" class="st2 st3 st4">7</text>
	<text transform="matrix(1 0 0 1 163.9558 237.2675)" class="st2 st3 st4">8</text>
	<text transform="matrix(1 0 0 1 186.45 237.2675)" class="st2 st3 st4">9</text>
	<text transform="matrix(1 0 0 1 207.0994 237.2675)" class="st2 st3 st4">10</text>
	<text transform="matrix(1 0 0 1 230.5818 237.2675)" class="st2 st3 st4">11</text>
	<text transform="matrix(1 0 0 1 252.6443 237.2675)" class="st2 st3 st4">12</text>
	<text transform="matrix(1 0 0 1 275.2175 237.2675)" class="st2 st3 st4">13</text>
	<text transform="matrix(1 0 0 1 297.7312 237.2675)" class="st2 st3 st4">14</text>
	<text transform="matrix(1 0 0 1 6.5925 259.6806)" class="st2 st3 st4">1</text>
	<text transform="matrix(1 0 0 1 28.6541 259.6806)" class="st2 st3 st4">2</text>
	<text transform="matrix(1 0 0 1 51.2283 259.6806)" class="st2 st3 st4">3</text>
	<text transform="matrix(1 0 0 1 73.7429 259.6806)" class="st2 st3 st4">4</text>
	<text transform="matrix(1 0 0 1 96.4167 259.6806)" class="st2 st3 st4">5</text>
	<text transform="matrix(1 0 0 1 118.739 259.6806)" class="st2 st3 st4">6</text>
	<text transform="matrix(1 0 0 1 141.7654 259.6806)" class="st2 st3 st4">7</text>
	<text transform="matrix(1 0 0 1 163.9558 259.6806)" class="st2 st3 st4">8</text>
	<text transform="matrix(1 0 0 1 186.45 259.6806)" class="st2 st3 st4">9</text>
	<text transform="matrix(1 0 0 1 207.0994 259.6806)" class="st2 st3 st4">10</text>
	<text transform="matrix(1 0 0 1 230.5818 259.6806)" class="st2 st3 st4">11</text>
	<text transform="matrix(1 0 0 1 252.6443 259.6806)" class="st2 st3 st4">12</text>
	<text transform="matrix(1 0 0 1 275.2175 259.6806)" class="st2 st3 st4">13</text>
	<text transform="matrix(1 0 0 1 6.5925 283.1806)" class="st2 st3 st4">1</text>
	<text transform="matrix(1 0 0 1 28.6541 283.1806)" class="st2 st3 st4">2</text>
	<text transform="matrix(1 0 0 1 51.2283 283.1806)" class="st2 st3 st4">3</text>
	<text transform="matrix(1 0 0 1 73.7429 283.1806)" class="st2 st3 st4">4</text>
	<text transform="matrix(1 0 0 1 96.4167 283.1806)" class="st2 st3 st4">5</text>
	<text transform="matrix(1 0 0 1 118.739 283.1806)" class="st2 st3 st4">6</text>
	<text transform="matrix(1 0 0 1 141.7654 283.1806)" class="st2 st3 st4">7</text>
	<text transform="matrix(1 0 0 1 163.9558 283.1806)" class="st2 st3 st4">8</text>
	<text transform="matrix(1 0 0 1 186.45 283.1806)" class="st2 st3 st4">9</text>
	<text transform="matrix(1 0 0 1 207.0994 283.1806)" class="st2 st3 st4">10</text>
	<text transform="matrix(1 0 0 1 230.5818 283.1806)" class="st2 st3 st4">11</text>
	<text transform="matrix(1 0 0 1 252.6443 283.1806)" class="st2 st3 st4">12</text>
	<text transform="matrix(1 0 0 1 275.2175 283.1806)" class="st2 st3 st4">13</text>
	<text transform="matrix(1 0 0 1 6.5925 305.0576)" class="st2 st3 st4">1</text>
	<text transform="matrix(1 0 0 1 28.6541 305.0576)" class="st2 st3 st4">2</text>
	<text transform="matrix(1 0 0 1 51.2283 305.0576)" class="st2 st3 st4">3</text>
	<text transform="matrix(1 0 0 1 73.7429 305.0576)" class="st2 st3 st4">4</text>
	<text transform="matrix(1 0 0 1 96.4167 305.0576)" class="st2 st3 st4">5</text>
	<text transform="matrix(1 0 0 1 118.739 305.0576)" class="st2 st3 st4">6</text>
	<text transform="matrix(1 0 0 1 141.7654 305.0576)" class="st2 st3 st4">7</text>
	<text transform="matrix(1 0 0 1 163.9558 305.0576)" class="st2 st3 st4">8</text>
	<text transform="matrix(1 0 0 1 186.45 305.0576)" class="st2 st3 st4">9</text>
	<text transform="matrix(1 0 0 1 207.0994 305.0576)" class="st2 st3 st4">10</text>
	<text transform="matrix(1 0 0 1 230.5818 305.0576)" class="st2 st3 st4">11</text>
	<text transform="matrix(1 0 0 1 252.6443 305.0576)" class="st2 st3 st4">12</text>
	<text transform="matrix(1 0 0 1 6.5925 327.4941)" class="st2 st3 st4">1</text>
	<text transform="matrix(1 0 0 1 28.6541 327.4941)" class="st2 st3 st4">2</text>
	<text transform="matrix(1 0 0 1 51.2283 327.4941)" class="st2 st3 st4">3</text>
	<text transform="matrix(1 0 0 1 73.7429 327.4941)" class="st2 st3 st4">4</text>
	<text transform="matrix(1 0 0 1 96.4167 327.4941)" class="st2 st3 st4">5</text>
	<text transform="matrix(1 0 0 1 118.739 327.4941)" class="st2 st3 st4">6</text>
	<text transform="matrix(1 0 0 1 141.7654 327.4941)" class="st2 st3 st4">7</text>
	<text transform="matrix(1 0 0 1 163.9558 327.4941)" class="st2 st3 st4">8</text>
	<text transform="matrix(1 0 0 1 186.45 327.4941)" class="st2 st3 st4">9</text>
	<text transform="matrix(1 0 0 1 207.0994 327.4941)" class="st2 st3 st4">10</text>
	<text transform="matrix(1 0 0 1 230.5818 327.4941)" class="st2 st3 st4">11</text>
	<text transform="matrix(1 0 0 1 252.6443 327.4941)" class="st2 st3 st4">12</text>
	<text transform="matrix(1 0 0 1 6.5925 350.0459)" class="st2 st3 st4">1</text>
	<text transform="matrix(1 0 0 1 28.6541 350.0459)" class="st2 st3 st4">2</text>
	<text transform="matrix(1 0 0 1 51.2283 350.0459)" class="st2 st3 st4">3</text>
	<text transform="matrix(1 0 0 1 73.7429 350.0459)" class="st2 st3 st4">4</text>
	<text transform="matrix(1 0 0 1 96.4167 350.0459)" class="st2 st3 st4">5</text>
	<text transform="matrix(1 0 0 1 118.739 350.0459)" class="st2 st3 st4">6</text>
	<text transform="matrix(1 0 0 1 141.7654 350.0459)" class="st2 st3 st4">7</text>
	<text transform="matrix(1 0 0 1 163.9558 350.0459)" class="st2 st3 st4">8</text>
	<text transform="matrix(1 0 0 1 186.45 350.0459)" class="st2 st3 st4">9</text>
	<text transform="matrix(1 0 0 1 207.0994 350.0459)" class="st2 st3 st4">10</text>
	<text transform="matrix(1 0 0 1 230.5818 350.0459)" class="st2 st3 st4">11</text>
	<text transform="matrix(1 0 0 1 6.5925 372.6816)" class="st2 st3 st4">1</text>
	<text transform="matrix(1 0 0 1 28.6541 372.6816)" class="st2 st3 st4">2</text>
	<text transform="matrix(1 0 0 1 51.2283 372.6816)" class="st2 st3 st4">3</text>
	<text transform="matrix(1 0 0 1 73.7429 372.6816)" class="st2 st3 st4">4</text>
	<text transform="matrix(1 0 0 1 96.4167 372.6816)" class="st2 st3 st4">5</text>
	<text transform="matrix(1 0 0 1 118.739 372.6816)" class="st2 st3 st4">6</text>
	<text transform="matrix(1 0 0 1 141.7654 372.6816)" class="st2 st3 st4">7</text>
	<text transform="matrix(1 0 0 1 163.9558 372.6816)" class="st2 st3 st4">8</text>
	<text transform="matrix(1 0 0 1 186.45 372.6816)" class="st2 st3 st4">9</text>
	<text transform="matrix(1 0 0 1 207.0994 372.6816)" class="st2 st3 st4">10</text>
	<text transform="matrix(1 0 0 1 230.5818 372.6816)" class="st2 st3 st4">11</text>
	<text transform="matrix(1 0 0 1 6.5925 394.7422)" class="st2 st3 st4">1</text>
	<text transform="matrix(1 0 0 1 28.6541 394.7422)" class="st2 st3 st4">2</text>
	<text transform="matrix(1 0 0 1 51.2283 394.7422)" class="st2 st3 st4">3</text>
	<text transform="matrix(1 0 0 1 73.7429 394.7422)" class="st2 st3 st4">4</text>
	<text transform="matrix(1 0 0 1 96.4167 394.7422)" class="st2 st3 st4">5</text>
	<text transform="matrix(1 0 0 1 118.739 394.7422)" class="st2 st3 st4">6</text>
	<text transform="matrix(1 0 0 1 141.7654 394.7422)" class="st2 st3 st4">7</text>
	<text transform="matrix(1 0 0 1 163.9558 394.7422)" class="st2 st3 st4">8</text>
	<text transform="matrix(1 0 0 1 186.45 394.7422)" class="st2 st3 st4">9</text>
	<text transform="matrix(1 0 0 1 207.0994 394.7422)" class="st2 st3 st4">10</text>
	<text transform="matrix(1 0 0 1 6.5925 418.458)" class="st2 st3 st4">1</text>
	<text transform="matrix(1 0 0 1 28.6541 418.458)" class="st2 st3 st4">2</text>
	<text transform="matrix(1 0 0 1 51.2283 418.458)" class="st2 st3 st4">3</text>
	<text transform="matrix(1 0 0 1 73.7429 418.458)" class="st2 st3 st4">4</text>
	<text transform="matrix(1 0 0 1 96.4167 418.458)" class="st2 st3 st4">5</text>
	<text transform="matrix(1 0 0 1 118.739 418.458)" class="st2 st3 st4">6</text>
	<text transform="matrix(1 0 0 1 141.7654 418.458)" class="st2 st3 st4">7</text>
	<text transform="matrix(1 0 0 1 163.9558 418.458)" class="st2 st3 st4">8</text>
	<text transform="matrix(1 0 0 1 186.45 418.458)" class="st2 st3 st4">9</text>
	<text transform="matrix(1 0 0 1 207.0994 418.458)" class="st2 st3 st4">10</text>
	<text transform="matrix(1 0 0 1 6.5925 439.9277)" class="st2 st3 st4">1</text>
	<text transform="matrix(1 0 0 1 28.6541 439.9277)" class="st2 st3 st4">2</text>
	<text transform="matrix(1 0 0 1 51.2283 439.9277)" class="st2 st3 st4">3</text>
	<text transform="matrix(1 0 0 1 73.7429 439.9277)" class="st2 st3 st4">4</text>
	<text transform="matrix(1 0 0 1 96.4167 439.9277)" class="st2 st3 st4">5</text>
	<text transform="matrix(1 0 0 1 118.739 439.9277)" class="st2 st3 st4">6</text>
	<text transform="matrix(1 0 0 1 141.7654 439.9277)" class="st2 st3 st4">7</text>
	<text transform="matrix(1 0 0 1 163.9558 439.9277)" class="st2 st3 st4">8</text>
	<text transform="matrix(1 0 0 1 186.45 439.9277)" class="st2 st3 st4">9</text>
</g>
<g>
	<text transform="matrix(1 0 0 1 437.8064 56.0576)" class="st5 st6 st7">29</text>
	<text transform="matrix(1 0 0 1 437.8064 11.6865)" class="st5 st6 st7">30</text>
	<text transform="matrix(1 0 0 1 437.8064 101.5537)" class="st5 st6 st7">27</text>
	<text transform="matrix(1 0 0 1 437.8064 78.9834)" class="st5 st6 st7">28</text>
	<text transform="matrix(1 0 0 1 437.8064 146.6962)" class="st5 st6 st7">25</text>
	<text transform="matrix(1 0 0 1 437.6462 327.2959)" class="st5 st6 st7">17</text>
	<text transform="matrix(1 0 0 1 437.6462 349.8476)" class="st5 st6 st7">16</text>
	<text transform="matrix(1 0 0 1 437.8064 372.4834)" class="st5 st6 st7">15</text>
	<text transform="matrix(1 0 0 1 437.8064 395.0351)" class="st5 st6 st7">14</text>
	<text transform="matrix(1 0 0 1 437.6189 417.6679)" class="st5 st6 st7">13</text>
	<text transform="matrix(1 0 0 1 437.6462 440.2207)" class="st5 st6 st7">12</text>
	<text transform="matrix(1 0 0 1 437.8064 124.1259)" class="st5 st6 st7">26</text>
	<text transform="matrix(1 0 0 1 437.8064 169.1503)" class="st5 st6 st7">24</text>
	<text transform="matrix(1 0 0 1 437.8064 214.3378)" class="st5 st6 st7">22</text>
	<text transform="matrix(1 0 0 1 437.8064 191.7675)" class="st5 st6 st7">23</text>
	<text transform="matrix(1 0 0 1 437.8064 259.4824)" class="st5 st6 st7">20</text>
	<text transform="matrix(1 0 0 1 437.8064 236.9121)" class="st5 st6 st7">21</text>
	<text transform="matrix(1 0 0 1 437.6189 304.625)" class="st5 st6 st7">18</text>
	<text transform="matrix(1 0 0 1 437.6462 282.0547)" class="st5 st6 st7">19</text>
</g>
</svg>
