<?xml version="1.0" encoding="utf-8"?>
<!-- Generator: Adobe Illustrator 19.1.0, SVG Export Plug-In . SVG Version: 6.00 Build 0)  -->
<svg version="1.1" id="Layer_1" xmlns="http://www.w3.org/2000/svg" xmlns:xlink="http://www.w3.org/1999/xlink" x="0px" y="0px"
	 viewBox="0 0 937 495" style="enable-background:new 0 0 937 495;" xml:space="preserve">
<style type="text/css">
	.st0{fill:#F1F4F7;}
	.st1{fill:#BDD64C;}
	.st2{fill:#FFFFFF;}
	.st3{fill:#E0E4E8;}
	.st4{fill:#C0BFBF;}
	.st5{fill:#F0EFEF;}
	.st6{fill:#D1D8DE;}
	.st7{fill:url(#SVGID_1_);}
	.st8{fill:#2B76A8;}
	.st9{fill:#E2CECD;}
	.st10{fill:url(#SVGID_2_);}
	.st11{opacity:0.8;fill:none;stroke:#38789F;stroke-width:0.25;stroke-miterlimit:10;}
	.st12{fill:none;stroke:#4692CF;stroke-miterlimit:10;}
	.st13{fill:none;stroke:#FFFFFF;stroke-miterlimit:10;}
	.st14{fill:#E9E9EA;}
	.st15{opacity:0.2;fill:#FFFFFF;}
	.st16{fill:url(#SVGID_3_);}
	.st17{fill:url(#SVGID_4_);}
	.st18{fill:#EDEDED;}
	.st19{opacity:0.6;fill:#BDD64C;}
	.st20{fill:#A8C455;}
	.st21{fill:none;stroke:#FFFFFF;stroke-width:0.5;stroke-miterlimit:10;}
	.st22{fill:#3D9AB6;}
	.st23{fill:#24A7DF;}
	.st24{fill:#679AAA;}
	.st25{fill:#DCDBDB;}
	.st26{fill:#2B63AF;}
	.st27{fill:url(#SVGID_5_);}
	.st28{fill:#3984C6;}
	.st29{fill:url(#SVGID_6_);}
	.st30{fill:url(#SVGID_7_);}
	.st31{fill:#4B8ECC;}
	.st32{fill:url(#SVGID_8_);}
	.st33{fill:none;stroke:#010101;stroke-width:0.75;stroke-miterlimit:10;}
	.st34{fill:url(#SVGID_9_);}
	.st35{fill:url(#SVGID_10_);}
	.st36{fill:url(#SVGID_11_);}
	.st37{fill:url(#SVGID_12_);}
	.st38{fill:url(#SVGID_13_);}
	.st39{fill:none;stroke:#F1F4F7;stroke-width:0.1;stroke-miterlimit:10;}
	.st40{fill:#C0C0C1;}
	.st41{fill:#CED0D2;}
	.st42{fill:#405B6D;}
	.st43{opacity:0.1;fill:#2B63AF;}
	.st44{fill:none;stroke:#010101;stroke-miterlimit:10;}
	.st45{fill:#85A2B6;}
	.st46{fill:#C2C8CC;}
	.st47{fill:#B69999;}
	.st48{fill:none;stroke:#FFFFFF;stroke-width:0.25;stroke-miterlimit:10;}
	.st49{fill:none;}
	.st50{fill:#F4E1DF;}
	.st51{fill:#AEAEAE;}
	.st52{fill:#D8C4C3;}
	.st53{fill:#E8E8E8;}
	.st54{fill:url(#SVGID_14_);}
	.st55{fill:#D3D9DD;}
	.st56{fill:#CACBCC;}
	.st57{fill:#4AC7ED;}
	.st58{fill:#E0E1E0;}
	.st59{fill:#C9C9C9;}
	.st60{opacity:0.6;fill:#2682C5;}
	.st61{opacity:0.3;fill:#2682C5;}
	.st62{opacity:0.2;fill:#2682C5;}
	.st63{fill:#2682C5;}
	.st64{opacity:0.5;fill:#24A7DF;}
	.st65{opacity:0.8;fill:#24A7DF;}
	.st66{opacity:0.3;fill:#24A7DF;}
	.st67{opacity:0.4;fill:#24A7DF;}
	.st68{opacity:0.5;fill:#3775BB;}
	.st69{opacity:0.3;fill:#FFFFFF;}
	.st70{opacity:0.4;fill:#2682C5;}
	.st71{opacity:0.5;fill:#2682C5;}
	.st72{fill:#2999D5;}
	.st73{fill:none;stroke:url(#SVGID_15_);stroke-width:0.25;stroke-miterlimit:10;}
	.st74{fill:none;stroke:url(#SVGID_16_);stroke-width:0.25;stroke-miterlimit:10;}
	.st75{fill:none;stroke:url(#SVGID_17_);stroke-width:0.25;stroke-miterlimit:10;}
	.st76{fill:none;stroke:url(#SVGID_18_);stroke-width:0.25;stroke-miterlimit:10;}
	.st77{opacity:0.8;fill:none;stroke:#2B63AF;stroke-miterlimit:10;}
	.st78{opacity:0.1;fill:none;stroke:#2B63AF;stroke-miterlimit:10;}
	.st79{opacity:0.2;fill:#24A7DF;}
	.st80{opacity:0.7;fill:#24A7DF;}
	.st81{opacity:0.6;fill:#24A7DF;}
	.st82{opacity:0.9;fill:#24A7DF;}
	.st83{fill:#23AFC6;}
	.st84{fill:#C2A9A7;}
	.st85{fill:url(#SVGID_19_);}
	.st86{fill:url(#SVGID_20_);}
	.st87{fill:url(#SVGID_21_);}
	.st88{fill:#0E80BD;}
	.st89{fill:none;stroke:#EDEDED;stroke-width:0.5;stroke-miterlimit:10;}
	.st90{fill:none;stroke:#CDCCCC;stroke-width:0.75;stroke-miterlimit:10;}
	.st91{fill:#CDCCCC;}
	.st92{fill:url(#SVGID_22_);}
	.st93{fill:none;stroke:#0E80BD;stroke-width:0.5;stroke-miterlimit:10;}
	.st94{fill:#00529B;}
	.st95{fill:#222233;}
	.st96{fill:#010101;}
	.st97{fill:#B4CC42;}
	.st98{opacity:0.15;fill:#222233;}
</style>
<g>
	<path class="st0" d="M796,328.1c-144.8,103.6-497.7,103.6-640.6,0c-97.9-71-11.9-148.1,131-181.8c114.3-26.9,268.1-26.9,381.8,0
		C810.6,179.9,895.2,257.1,796,328.1z"/>
	<path class="st1" d="M744.5,245.2l94.5,24.4c6.4-51.5-66.6-99.2-170.4-123.7c-26.4-6.2-55-11-84.7-14.4
		c19.4,2.6,38.1,5.5,55.4,10.1C729.7,165.9,764.8,201.5,744.5,245.2z"/>
	<path class="st2" d="M701.3,289.6c-108.3,62.8-338.6,62.8-447.2,0C170.7,241.3,219,183,325.7,155.4c89.3-23.1,214.1-23.1,303.6,0
		C736,183,784.6,241.3,701.3,289.6z"/>
	<path class="st3" d="M699.3,283c-108.3,62.8-338.6,62.8-447.2,0c-83.5-48.3-35.2-106.6,71.5-134.2c89.3-23.1,214.1-23.1,303.6,0
		C734,176.4,782.6,234.8,699.3,283z"/>
	
		<rect x="221.4" y="257.1" transform="matrix(0.6397 -0.7687 0.7687 0.6397 -116.724 265.8326)" class="st4" width="7.6" height="0.5"/>
	<polygon class="st4" points="237.5,263.6 231.8,269.1 231.4,268.7 237.2,263.2 	"/>
	<polygon class="st5" points="228.9,254.3 231.7,267 231.3,267.5 228.4,254.4 	"/>
	<polygon class="st5" points="238.3,262.2 241.8,274.8 241.2,275.3 237.8,262.4 	"/>
	<polygon class="st5" points="248,267.5 251.6,280.6 251,281.2 247.5,267.7 	"/>
	<polygon class="st5" points="257.6,273 261,286.1 260.4,286.7 257,273.1 	"/>
	<polygon class="st5" points="267.2,277.8 270.6,290.9 270.1,291.5 266.7,278 	"/>
	<polygon class="st5" points="276.5,281.7 280.4,294.8 279.9,295.4 276,281.9 	"/>
	<polygon class="st5" points="286.3,285.8 290.3,298.8 289.7,299.4 285.8,285.9 	"/>
	<polygon class="st5" points="296,289.7 299.9,302.7 299.4,303.4 295.4,289.8 	"/>
	<polygon class="st5" points="304.5,288.1 308.5,301.1 307.9,301.8 304,288.2 	"/>
	<polygon class="st4" points="247.5,271.2 241.8,276.6 241.4,276.2 247.2,270.4 	"/>
	<polygon class="st4" points="257,276.9 251.6,282.7 251,282.4 256.9,276.2 	"/>
	<polygon class="st4" points="266.7,282 261,288 260.5,287.6 266.5,281.2 	"/>
	<polygon class="st4" points="276.2,286 270.9,292.7 270.3,292.5 276.1,285.3 	"/>
	<polygon class="st4" points="286,290 280.5,297.1 279.9,296.8 285.9,289.3 	"/>
	<polygon class="st4" points="296,293.9 290.4,301 289.8,300.7 295.8,293.2 	"/>
	<polygon class="st4" points="305.9,297.6 300.5,304.6 299.9,304.4 305.7,296.9 	"/>
	<path class="st2" d="M701.3,273.5c-108.3,62.8-338.6,62.8-447.2,0c-83.5-48.3-35.2-106.6,71.5-134.2c89.3-23.1,214.1-23.1,303.6,0
		C736,166.9,784.6,225.2,701.3,273.5z"/>
	<path class="st3" d="M748.8,237l90.1,19.1c0,0,0.3,0.7,0.5,6.1c0.1,1.9,0.1,3.4-0.4,7.4l-95.3-22.2l2.6-6c0.8-1.3,2.4-2.2,2.9-3.6
		L748.8,237z"/>
	<path class="st2" d="M683.8,316.8c13.3-5.3,25.1-11.1,36.1-17.6c22.9-13.7,35.9-28,40.5-42.3v-8.2v-0.8
		c-5.7,12.4-18.4,24.9-39,36.8c-14.3,8.2-30.6,15.5-48.6,21.7l-0.1,2.7"/>
	<g>
		<path class="st1" d="M670.7,332.3l44.9,36.7c18.3-6.5,27.2-11,27.2-11l-84-58.8c-19.5,8.6-95.2,18.7-95.2,18.7l42.8,77.9
			c11.5-2,22.3-4,32.4-6l-34.3-46.3L670.7,332.3z"/>
		<path class="st6" d="M715.6,369.1l-44.9-36.7l-65.6,12l33.7,45.5c9.9-2,19.1-4,27.5-6.1C687,378.6,703.4,373.4,715.6,369.1z"/>
	</g>
	<polygon class="st2" points="326,306.3 307.2,300.9 307.2,327.1 326,332.9 	"/>
	<path class="st1" d="M322.2,141.5c25.2-6,53.1-10.4,82.3-13.2c-41.5,3.1-81.5,8.9-117.6,17.4C178.9,171.2,103.5,221.4,115.1,275
		l88.2-34.9l0.5-0.1C183.9,201.1,235.7,162.2,322.2,141.5z"/>
	<linearGradient id="SVGID_1_" gradientUnits="userSpaceOnUse" x1="606.3718" y1="339.7134" x2="665.3306" y2="339.7134">
		<stop  offset="5.376344e-003" style="stop-color:#0787BB"/>
		<stop  offset="3.651685e-002" style="stop-color:#1086BC"/>
		<stop  offset="0.1892" style="stop-color:#2084C0"/>
		<stop  offset="0.4037" style="stop-color:#2583C3"/>
		<stop  offset="1" style="stop-color:#2682C5"/>
	</linearGradient>
	<path class="st7" d="M606.4,343.9c0,0,40.1-6.7,59-13.3v4.8c0,0-17.2,6-57.3,13.3"/>
	<path class="st1" d="M445.1,321.4c-43.2-1.8-81.8-6.2-119.5-15.4l-18.5,24.4l-2,0.9l-19.4,24.9l-2.4,1.3l-16.1,21.1
		c47.2,13.5,101.2,22,156,25.2L445.1,321.4z"/>
	<polygon class="st6" points="207.1,245.9 222.2,241.3 222.2,265 207.1,269.9 	"/>
	<polygon class="st8" points="401.7,402.3 427,320 444.7,321.4 422.9,403.8 	"/>
	<polygon class="st1" points="118.3,396.9 42.2,329.2 216.5,272.3 304.2,323.1 	"/>
	<path class="st3" d="M563.6,318c0,0,21.4-2.8,22.9-3.1l53.5,74.7c0,0-30.8,6.3-33.6,6.3C604.3,395.9,563.6,318,563.6,318z"/>
	<polygon class="st2" points="118.3,400.7 43.1,333.2 42.8,329 118.3,396.9 	"/>
	<g>
		<path class="st0" d="M744.5,245.2l-69.6,60.7c17.4-6.1,33.4-13.2,47.3-21.2c18.9-10.9,28.6-18.4,35.4-31.1c0.9-1.8,1.3-2.6,1.5-3
			l1.3-2.7L744.5,245.2z"/>
		<path class="st0" d="M739,185c-1.7-1.8-2.5-2.5-5-4.7c-1-0.9-2-1.7-3.1-2.5c-21.5-14.5-52.8-27.1-90.7-36.1
			c-93.7-22.4-223.7-22.4-317.2,0c-91.3,21.9-145.4,64.6-116,105.6l17.3-3.6c28.3,35.9,94.8,50.3,94.8,50.3l-11.1,6.7l-0.7,0.3
			c41,11.9,88.8,17.9,138,20.2l-4.4,12l0.3,0.1v-0.1c43.4,2.4,88,1,129.8-4.2l-7.4-11c0,0,56.1-6.1,95.2-18.7l14.1,7.2l2.6-0.7
			l69-60.5C744.5,245.2,769.1,216.7,739,185z"/>
	</g>
	<g>
		<path class="st0" d="M742.8,245.1l-69.6,60.7c17.4-6.1,33.4-13.2,47.3-21.2c18.9-10.9,28.6-18.4,35.4-31.1c0.9-1.8,1.3-2.6,1.5-3
			l1.3-2.7L742.8,245.1z"/>
		<path class="st0" d="M737.3,184.8c-1.7-1.8-2.5-2.5-5-4.7c-1-0.9-2-1.7-3.1-2.5c-21.5-14.5-52.8-27.1-90.7-36.1
			c-93.7-22.4-223.7-22.4-317.2,0c-91.3,21.9-145.4,64.6-116,105.6l14.6-3c31.5,34.3,95.4,50.5,95.4,50.5l-9.1,5.9l-0.7,0.3
			c41,11.9,88.8,17.9,138,20.2l-4.4,12l0.3,0.1v-0.1c43.4,2.4,88,1,129.8-4.2l-7.4-11c0,0,56.1-6.1,95.2-18.7l14.1,7.2l2.6-0.7
			l69-60.5C742.8,245.1,767.4,216.6,737.3,184.8z"/>
	</g>
	<polygon class="st3" points="118.3,400.7 304.5,327.6 304.2,323.3 118.3,396.9 	"/>
	<polygon class="st2" points="203.3,240.2 207.2,246.4 207.1,269.9 203.3,263 	"/>
	<polygon class="st6" points="203.3,262.9 115.2,275.5 203.3,240.2 	"/>
	<path class="st9" d="M827.5,301.1L748.1,279v4.6l75.8,21.3c0.1-0.1,0.2-0.2,0.4-0.4C825.4,303.3,827.5,301.1,827.5,301.1z"/>
	<linearGradient id="SVGID_2_" gradientUnits="userSpaceOnUse" x1="287.5731" y1="240.8419" x2="670.3284" y2="240.8419">
		<stop  offset="5.376344e-003" style="stop-color:#2B63AF"/>
		<stop  offset="1" style="stop-color:#0259A5"/>
	</linearGradient>
	<path class="st10" d="M670.3,229c-5.1,5.7-13.6,11.3-25.9,16.7c-80.4,35.2-249.9,35.2-330.5,0c-12.6-5.5-21.3-11.3-26.3-17.1v-17.7
		l381.8-1.2l0.9,14.3V229z"/>
	<path class="st11" d="M333,128"/>
	<path class="st6" d="M207.1,270.4"/>
	<path class="st12" d="M376.1,554.6"/>
	<path class="st13" d="M759.1,258.1"/>
	<path class="st14" d="M670,181.4c-15-10.3-39.9-19.3-71.7-25.7c-69.1-13.8-165.9-13.8-235,0c-32.8,6.5-58.3,15.9-73,26.7l-39-11
		c0,0,14.2,36.3,39.2,53.1c0,0,0.1,0.1,0.1,0.1c4.9,3.5,11.2,6.9,18.9,10.3c83.7,36.5,259.6,36.5,343,0c8.4-3.7,15.1-7.5,20.2-11.3
		c0,0,0.1-0.1,0.1-0.1c25.2-17.9,38.6-53.8,38.6-53.8L670,181.4z"/>
	<path class="st2" d="M676.1,196.5c-94.9,41.5-294.9,41.5-390,0c-73.7-32.2-32.3-71.3,61.2-89.9c78.5-15.6,188.5-15.6,267.1,0
		C707.9,125.2,749.5,164.3,676.1,196.5z"/>
	<path class="st15" d="M669.8,218c-92.2,40.4-286.6,40.4-379.1,0c-71.6-31.3-31.4-69.3,59.5-87.4c76.3-15.2,183.2-15.2,259.6,0
		C700.7,148.7,741.2,186.7,669.8,218z"/>
	<linearGradient id="SVGID_3_" gradientUnits="userSpaceOnUse" x1="246.0899" y1="155.53" x2="715.8252" y2="155.53">
		<stop  offset="5.376344e-003" style="stop-color:#2B63AF"/>
		<stop  offset="1" style="stop-color:#0259A5"/>
	</linearGradient>
	<path class="st16" d="M677.9,191.1c-95.8,41.9-297.7,41.9-393.7,0c-74.4-32.5-32.6-72,61.7-90.8c79.2-15.8,190.3-15.8,269.6,0
		C710.1,119.1,752.1,158.6,677.9,191.1z"/>
	<linearGradient id="SVGID_4_" gradientUnits="userSpaceOnUse" x1="246.9795" y1="155.6362" x2="716.7148" y2="155.6362">
		<stop  offset="5.376344e-003" style="stop-color:#2B63AF"/>
		<stop  offset="1" style="stop-color:#0259A5"/>
	</linearGradient>
	<path class="st17" d="M678.8,191c-97.3,42.6-296,42.6-393.7,0c-74.4-32.5-32.6-72,61.7-90.8c79.2-15.8,190.3-15.8,269.6,0
		C711,119,753,158.5,678.8,191z"/>
	<path class="st2" d="M698.5,177.1c-105.8,46.3-328.8,46.3-434.8,0c-82.1-35.9-36-79.5,68.2-100.3c87.5-17.4,210.2-17.4,297.8,0
		C734,97.6,780.4,141.3,698.5,177.1z"/>
	<path class="st0" d="M697.6,176.7c-104.8,45.9-324.9,45.9-429.9,0c-81.6-35.7-36.3-79.2,66.9-100c86.8-17.5,208.6-17.5,295.5,0
		C733.4,97.5,778.9,141,697.6,176.7z"/>
	<path class="st18" d="M256.2,142.2c0,0,9.6,21.5,89.9,35.8l117.9-32.2v-5.1l-111.3,30l-96.4-30.4V142.2"/>
	<polygon class="st19" points="658,89.2 562.6,71.2 487,85.1 588,108.4 	"/>
	<polyline class="st20" points="202.8,276.8 216.5,272.3 304.5,323.3 290.2,329 	"/>
	<polygon class="st20" points="265.6,338.4 179.3,284 191.9,279.9 278.9,333.1 	"/>
	<polygon class="st20" points="241.1,347.8 155.9,291.1 167.4,287.4 253.2,343 	"/>
	<polygon class="st20" points="218.4,357.3 134.4,298.3 144.7,295 229.4,352.9 	"/>
	<polygon class="st20" points="193.8,366.7 112.4,306.3 124,302.5 206.2,361.8 	"/>
	<polygon class="st20" points="169.3,376.2 89.9,313.8 101.3,310.1 181.5,371.3 	"/>
	<polygon class="st20" points="144.7,385.6 67,320.8 76.7,317.6 155.3,381.4 	"/>
	<polygon class="st20" points="118.3,396.9 42.1,329.1 54.1,325.2 131.3,391.8 	"/>
	<line class="st21" x1="128.7" y1="301.6" x2="213.7" y2="360.1"/>
	<path class="st21" d="M181.4,338.7c-16.5,6.1-36.8,6.1-44.8,0c-7.8-6-0.6-15.3,15.6-20.9c15.7-5.4,34.6-5.4,42.8,0
		C203.3,323.4,197.5,332.7,181.4,338.7z"/>
	<g>
		<path class="st2" d="M497.8,77.5c-1,0.4-2.8,0.4-3.8,0c-0.9-0.4-0.7-0.9,0.3-1.2c0.9-0.3,2.3-0.3,3.2,0
			C498.5,76.6,498.7,77.2,497.8,77.5z"/>
		<polyline class="st2" points="493.4,77 501,8.5 498.4,77 		"/>
	</g>
	<path class="st20" d="M222.2,242.1"/>
	<path class="st22" d="M429.7,132c0,0-57.4,11.3-84.7,41.5"/>
	<path class="st23" d="M216.5,151.6"/>
	<path class="st24" d="M395,108.1"/>
	<path class="st24" d="M256.2,140.3"/>
	<line class="st24" x1="654.6" y1="74" x2="654.6" y2="89.1"/>
	<path class="st14" d="M285.9,220.8"/>
	<path class="st0" d="M663.7,301.3l10.4,4.6L663.7,301.3z"/>
	<g>
		<g>
			<path class="st25" d="M588,111.1l0.1,0c17.3,8.4,15.5,19.3-10.7,27.5c-28.9,9-75.4,11.3-112.7,6.6v-1.8L583,109.2"/>
		</g>
	</g>
	<polygon class="st25" points="375.9,102 368.9,112.3 486.6,87.6 486.5,85.7 	"/>
	<path class="st26" d="M465.6,145.2"/>
	<path class="st26" d="M465.8,145.8"/>
	<path class="st26" d="M465.6,145.2"/>
	<path class="st1" d="M645.8,86.6"/>
	<polygon class="st18" points="658,91.1 658,89.2 557.8,72.2 486.6,86.4 486.6,88.3 588.2,110.3 	"/>
	<path class="st23" d="M560.2,69.8"/>
	<linearGradient id="SVGID_5_" gradientUnits="userSpaceOnUse" x1="486.5629" y1="83.2119" x2="658.0095" y2="83.2119">
		<stop  offset="0" style="stop-color:#2682C5"/>
		<stop  offset="1" style="stop-color:#20B8EC"/>
	</linearGradient>
	<path class="st27" d="M658,89.2c-86.4-33.7-141.8-21.5-141.8-21.5l0.1,0c-2.1,0.3-4.1,0.7-6.2,1.1l-23.5,4.9v12.5l35.9-8l2,3.7
		l62.2,19l63.8-12.9L658,89.2z"/>
	<g>
		<path class="st25" d="M611.8,88.5l-7.6,0.9l-15.7,5.2v14.1L658,89.2C636.6,81.9,611.8,88.5,611.8,88.5z"/>
	</g>
	<path class="st23" d="M381,102"/>
	<path class="st23" d="M256.2,142.2"/>
	<g>
		<path class="st2" d="M300.1,115.7c-1,0.4-2.8,0.4-3.8,0c-0.9-0.4-0.7-0.9,0.3-1.2c0.9-0.3,2.3-0.3,3.2,0
			C300.8,114.8,301,115.3,300.1,115.7z"/>
		<polyline class="st2" points="279,116.6 328.8,33.2 284,116.5 		"/>
	</g>
	<g>
		<path class="st2" d="M344.7,91.8c-1,0.4-2.8,0.4-3.8,0c-0.9-0.4-0.7-0.9,0.3-1.2c0.9-0.3,2.3-0.3,3.2,0
			C345.4,90.9,345.6,91.4,344.7,91.8z"/>
		<polyline class="st2" points="331.6,89.8 373,15.3 336.6,89.7 		"/>
	</g>
	<g>
		<path class="st2" d="M417,79.9c-1,0.4-2.8,0.4-3.8,0c-0.9-0.4-0.7-0.9,0.3-1.2c0.9-0.3,2.3-0.3,3.2,0
			C417.7,79,417.9,79.5,417,79.9z"/>
		<polyline class="st2" points="407.5,75.3 429.3,5.7 412.4,75.3 		"/>
	</g>
	<g>
		<path class="st2" d="M655.8,132.3c-1,0.4-2.8,0.4-3.8,0c-0.9-0.4-0.7-0.9,0.3-1.2c0.9-0.3,2.3-0.3,3.2,0
			C656.5,131.4,656.7,132,655.8,132.3z"/>
		<polyline class="st2" points="665.4,133.3 623.8,43.7 670.4,133.2 		"/>
	</g>
	<g>
		<path class="st2" d="M651.5,103.6c-1,0.4-2.8,0.4-3.8,0c-0.9-0.4-0.7-0.9,0.3-1.2c0.9-0.3,2.3-0.3,3.2,0
			C652.2,102.6,652.4,103.2,651.5,103.6z"/>
		<polyline class="st2" points="647.1,103 608.3,25.2 652.1,102.9 		"/>
	</g>
	<path class="st23" d="M288.3,210.5"/>
	<line class="st23" x1="284.5" y1="223.2" x2="284.5" y2="232.6"/>
	<path class="st0" d="M302.5,240"/>
	<rect x="287.5" y="219.9" class="st1" width="0" height="0"/>
	<rect x="287.5" y="219.9" class="st1" width="0" height="0"/>
	<line class="st28" x1="480.9" y1="216.1" x2="202.7" y2="352.6"/>
	<path class="st23" d="M266.1,228.9"/>
	<linearGradient id="SVGID_6_" gradientUnits="userSpaceOnUse" x1="284.4883" y1="227.5609" x2="299.5841" y2="227.5609">
		<stop  offset="5.376344e-003" style="stop-color:#0787BB"/>
		<stop  offset="3.651685e-002" style="stop-color:#1086BC"/>
		<stop  offset="0.1892" style="stop-color:#2084C0"/>
		<stop  offset="0.4037" style="stop-color:#2583C3"/>
		<stop  offset="1" style="stop-color:#2682C5"/>
	</linearGradient>
	<path class="st29" d="M299.6,238.6l-15.1,3.4l0.4-29c0,0,3.9,11.1,14.6,17.1"/>
	<linearGradient id="SVGID_7_" gradientUnits="userSpaceOnUse" x1="271.2685" y1="223.0199" x2="284.8817" y2="223.0199">
		<stop  offset="0" style="stop-color:#55A4DB"/>
		<stop  offset="0.5355" style="stop-color:#54A5DB"/>
		<stop  offset="0.7284" style="stop-color:#4EA9DE"/>
		<stop  offset="0.8653" style="stop-color:#41AEE3"/>
		<stop  offset="0.9758" style="stop-color:#28B6EA"/>
		<stop  offset="0.9946" style="stop-color:#20B8EC"/>
	</linearGradient>
	<polyline class="st30" points="284.5,242.1 271.3,233.8 271.3,204 284.9,213 	"/>
	<line class="st31" x1="369.5" y1="262.9" x2="369.5" y2="251.5"/>
	<linearGradient id="SVGID_8_" gradientUnits="userSpaceOnUse" x1="358.1378" y1="253.0572" x2="369.7173" y2="253.0572">
		<stop  offset="5.376344e-003" style="stop-color:#0787BB"/>
		<stop  offset="3.651685e-002" style="stop-color:#1086BC"/>
		<stop  offset="0.1892" style="stop-color:#2084C0"/>
		<stop  offset="0.4037" style="stop-color:#2583C3"/>
		<stop  offset="1" style="stop-color:#2682C5"/>
	</linearGradient>
	<path class="st32" d="M369.7,262.2l0-9.8c0,0-7.8-3.4-11.5-15.5l0,32.2L369.7,262.2z"/>
	<path class="st33" d="M431.6,270.3"/>
	<path class="st33" d="M431.6,260.4"/>
	<linearGradient id="SVGID_9_" gradientUnits="userSpaceOnUse" x1="399.6897" y1="261.8624" x2="426.5228" y2="261.8624">
		<stop  offset="0" style="stop-color:#55A4DB"/>
		<stop  offset="0.5355" style="stop-color:#54A5DB"/>
		<stop  offset="0.7284" style="stop-color:#4EA9DE"/>
		<stop  offset="0.8653" style="stop-color:#41AEE3"/>
		<stop  offset="0.9758" style="stop-color:#28B6EA"/>
		<stop  offset="0.9946" style="stop-color:#20B8EC"/>
	</linearGradient>
	<polygon class="st34" points="426.5,279.4 399.7,277.6 399.7,244.3 426.5,246.1 	"/>
	<linearGradient id="SVGID_10_" gradientUnits="userSpaceOnUse" x1="426.4465" y1="262.8291" x2="434.1651" y2="262.8291">
		<stop  offset="5.376344e-003" style="stop-color:#0787BB"/>
		<stop  offset="3.651685e-002" style="stop-color:#1086BC"/>
		<stop  offset="0.1892" style="stop-color:#2084C0"/>
		<stop  offset="0.4037" style="stop-color:#2583C3"/>
		<stop  offset="1" style="stop-color:#2682C5"/>
	</linearGradient>
	<path class="st35" d="M434.2,270.3l-0.1-9.9c0,0-5.7-4.8-7.6-14.2c0,0,0.1,29.7,0.1,33.2C426.5,279.7,434.2,270.3,434.2,270.3z"/>
	<linearGradient id="SVGID_11_" gradientUnits="userSpaceOnUse" x1="480.1121" y1="265.6278" x2="499.4286" y2="265.6278">
		<stop  offset="0" style="stop-color:#55A4DB"/>
		<stop  offset="0.5355" style="stop-color:#54A5DB"/>
		<stop  offset="0.7284" style="stop-color:#4EA9DE"/>
		<stop  offset="0.8653" style="stop-color:#41AEE3"/>
		<stop  offset="0.9758" style="stop-color:#28B6EA"/>
		<stop  offset="0.9946" style="stop-color:#20B8EC"/>
	</linearGradient>
	<polygon class="st36" points="499.4,279.4 480.1,279.5 480.1,251.9 499.4,251.7 	"/>
	<path class="st31" d="M485.1,279.5"/>
	<path class="st0" d="M480.9,194.9"/>
	<linearGradient id="SVGID_12_" gradientUnits="userSpaceOnUse" x1="646.6088" y1="236.3699" x2="665.9275" y2="236.3699">
		<stop  offset="5.376344e-003" style="stop-color:#0787BB"/>
		<stop  offset="3.651685e-002" style="stop-color:#1086BC"/>
		<stop  offset="0.1892" style="stop-color:#2084C0"/>
		<stop  offset="0.4037" style="stop-color:#2583C3"/>
		<stop  offset="1" style="stop-color:#2682C5"/>
	</linearGradient>
	<polygon class="st37" points="665.9,244.2 646.6,252.7 646.6,227.1 665.9,220 	"/>
	<linearGradient id="SVGID_13_" gradientUnits="userSpaceOnUse" x1="635.7582" y1="239.9017" x2="646.6109" y2="239.9017">
		<stop  offset="0" style="stop-color:#55A4DB"/>
		<stop  offset="0.5355" style="stop-color:#54A5DB"/>
		<stop  offset="0.7284" style="stop-color:#4EA9DE"/>
		<stop  offset="0.8653" style="stop-color:#41AEE3"/>
		<stop  offset="0.9758" style="stop-color:#28B6EA"/>
		<stop  offset="0.9946" style="stop-color:#20B8EC"/>
	</linearGradient>
	<path class="st38" d="M635.8,249v-7.7c0,0,7.1-2.4,10.9-14.2l0,25.6L635.8,249z"/>
	<path class="st23" d="M635.5,240.3"/>
	<path class="st1" d="M388.7,313.7"/>
	<path class="st39" d="M749.9,295.9c-121.2,83-416.4,83-536.1,0c-81.9-56.8-10-118.6,109.6-145.6c95.6-21.6,224.3-21.6,319.5,0"/>
	<path class="st39" d="M783.3,311.3c-135.5,92.8-465.7,92.8-599.5,0c-91.6-63.6-11.2-132.7,122.6-162.9
		c106.9-24.1,250.8-24.1,357.3,0C796.9,178.6,876,247.7,783.3,311.3z"/>
	<polygon class="st40" points="391.6,316.9 373.5,314.7 357.5,341 357.4,341.1 354.9,342.2 339.6,368.8 338.2,369.9 325,392.1 
		347.4,395.9 358.8,373.8 360.1,372.8 375.2,345.1 376.7,344.1 	"/>
	<polygon class="st2" points="391,318 373.6,315.8 357.5,342.5 355.5,343.2 340.2,369.5 338.8,370.4 326.1,392.6 348,396.3 	"/>
	<polyline class="st3" points="291.3,384.9 324.9,336.2 339.4,339.4 307.7,388.6 292.2,385 	"/>
	<polyline class="st3" points="377.3,400 388.3,376.3 403,377.8 394.6,401.7 377.3,400 	"/>
	<line class="st3" x1="324.1" y1="336.5" x2="324.1" y2="362.9"/>
	<path class="st0" d="M475,262.9"/>
	<path class="st33" d="M324.9,336.2"/>
	<path class="st12" d="M890.7,287.7"/>
	<path class="st12" d="M307.7,388.6"/>
	<polyline class="st3" points="324.9,336.4 291.6,385 307.2,388.6 	"/>
	<polyline class="st41" points="324.1,336.5 324.1,353.5 291.6,385 	"/>
	<path class="st42" d="M292.2,385"/>
	<path class="st42" d="M339.4,339.4l-15.3-3.1l0,17.3c0,0,4.7,1,5.4,1.2L339.4,339.4z"/>
	<path class="st12" d="M387.4,376.2"/>
	<polygon class="st41" points="377.3,400 388.4,376.3 388.4,380.2 	"/>
	<line class="st41" x1="388.4" y1="376.2" x2="388.4" y2="378.1"/>
	<polygon class="st42" points="388.4,380.2 401.6,381.7 403,377.8 388.4,376.3 	"/>
	<polygon class="st41" points="391,318 373.6,315.8 372.9,317 390.2,319.4 	"/>
	<polygon class="st41" points="389.4,321 372,318.5 371.1,320.1 388.5,322.6 	"/>
	<polygon class="st3" points="390.2,319.4 373,316.9 372,318.5 389.3,321 	"/>
	<polygon class="st41" points="387.7,324.2 370.1,321.7 369.1,323.3 386.8,325.9 	"/>
	<polygon class="st3" points="388.5,322.6 371.1,320.1 370.1,321.7 387.6,324.2 	"/>
	<polygon class="st41" points="444.9,322.7 427.3,321.7 426.8,323.4 444.3,324.4 	"/>
	<polygon class="st3" points="444.3,324.4 426.8,323.4 426.3,325 443.8,326.1 	"/>
	<polygon class="st41" points="443.8,326 426.3,325 425.7,326.7 443.2,327.7 	"/>
	<polygon class="st3" points="443.2,327.7 425.7,326.7 425.2,328.4 442.7,329.4 	"/>
	<polygon class="st41" points="442.7,329.4 425.2,328.4 424.7,330.1 442.1,331.1 	"/>
	<polygon class="st3" points="442.1,331.1 424.7,330.1 424.1,331.8 441.6,332.8 	"/>
	<polygon class="st41" points="441.6,332.8 424.2,331.8 423.6,333.5 441.2,334.5 	"/>
	<polygon class="st3" points="441.6,334.5 423.5,333.5 423.1,335.1 441.1,336.2 	"/>
	<polygon class="st41" points="441.1,336.2 423.1,335.1 422.5,336.9 440.7,337.9 	"/>
	<polygon class="st3" points="440.7,337.9 422.5,336.9 422,338.5 440.2,339.6 	"/>
	<polygon class="st41" points="440.2,339.6 421.9,338.5 421.5,340.2 439.8,341.3 	"/>
	<polygon class="st3" points="439.8,341.3 421.3,340.2 421,341.9 439.3,343 	"/>
	<polygon class="st41" points="439.4,343 420.9,341.9 420.4,343.6 439,344.7 	"/>
	<polygon class="st3" points="438.9,344.7 420.4,343.6 419.9,345.3 438.4,346.4 	"/>
	<polygon class="st41" points="438.4,346.4 419.8,345.3 419.3,347.2 438,348.3 	"/>
	<polygon class="st3" points="437.9,348.3 419,347.2 418.6,349.2 437.4,350.3 	"/>
	<polygon class="st41" points="437.2,351.5 418,350.3 417.5,352 436.8,353.1 	"/>
	<polygon class="st3" points="436.8,353.1 417.5,352 417,353.8 436.1,355.1 	"/>
	<polygon class="st41" points="385.8,327.5 368.2,324.8 367.2,326.4 384.9,329.1 	"/>
	<polygon class="st3" points="386.7,325.9 369.1,323.3 368.1,324.8 385.8,327.5 	"/>
	<polygon class="st41" points="351.6,389.7 329.8,386.5 328.8,388.1 350.7,391.4 	"/>
	<polygon class="st3" points="352.5,388.1 330.7,384.9 329.8,386.5 351.6,389.7 	"/>
	<polygon class="st41" points="349.8,393 327.9,389.6 326.9,391.2 348.9,394.6 	"/>
	<polygon class="st3" points="350.7,391.4 328.8,388 327.9,389.6 349.8,393 	"/>
	<polygon class="st3" points="348.9,394.6 326.9,391.2 325.9,392.8 348,396.3 	"/>
	<polygon class="st41" points="384.1,330.7 366.3,328 365.3,329.6 383.2,332.3 	"/>
	<polygon class="st3" points="384.9,329.1 367.2,326.4 366.3,328 384.1,330.7 	"/>
	<polygon class="st41" points="382.3,333.9 364.3,331.2 363.4,332.7 381.4,335.5 	"/>
	<polygon class="st3" points="383.2,332.3 365.3,329.6 364.3,331.2 382.3,333.9 	"/>
	<polygon class="st41" points="380.5,337.2 362.5,334.3 361.5,335.9 379.7,338.7 	"/>
	<polygon class="st3" points="381.4,335.5 363.4,332.8 362.5,334.3 380.5,337.2 	"/>
	<polygon class="st41" points="378.8,340.2 360.5,337.5 359.6,339.1 377.9,341.8 	"/>
	<polygon class="st3" points="379.7,338.6 361.4,335.9 360.5,337.5 378.8,340.2 	"/>
	<polygon class="st41" points="377,343.5 358.6,340.6 357.7,342.2 376.1,345.1 	"/>
	<polygon class="st3" points="377.9,341.8 359.6,339.1 358.6,340.6 377,343.4 	"/>
	<polygon class="st41" points="374.7,347.8 354.7,344.6 353.7,346.2 373.9,349.3 	"/>
	<polygon class="st3" points="375.6,346.1 355.6,343 354.7,344.6 374.7,347.8 	"/>
	<polygon class="st41" points="373,350.9 352.7,347.8 351.8,349.4 372.1,352.5 	"/>
	<polygon class="st3" points="373.9,349.3 353.6,346.2 352.7,347.8 373,350.9 	"/>
	<polygon class="st41" points="371.2,354.1 350.8,351 349.9,352.5 370.3,355.7 	"/>
	<polygon class="st3" points="372.1,352.5 351.9,349.4 350.9,351 371.2,354.1 	"/>
	<polygon class="st41" points="369.4,357.3 349.1,354.2 348.1,355.8 368.5,358.9 	"/>
	<polygon class="st3" points="370.3,355.7 350.1,352.6 349.2,354.2 369.4,357.3 	"/>
	<polygon class="st3" points="370.3,355.7 350.1,352.5 349.1,354.2 369.4,357.3 	"/>
	<polygon class="st41" points="367.7,360.5 347.3,357.3 346.3,358.9 366.8,362.1 	"/>
	<polygon class="st41" points="365.9,363.7 345.4,360.5 344.5,362.1 365,365.3 	"/>
	<polygon class="st3" points="366.8,362.1 346.3,358.9 345.4,360.5 365.9,363.7 	"/>
	<polygon class="st3" points="368.6,358.9 348.2,355.8 347.3,357.3 367.7,360.5 	"/>
	<polygon class="st41" points="364.2,366.9 343.5,363.7 342.6,365.3 363.3,368.5 	"/>
	<polygon class="st3" points="365.1,365.3 344.5,362.1 343.5,363.7 364.2,366.9 	"/>
	<polygon class="st41" points="360.4,373.7 338.9,370.3 338,371.9 359.5,375.3 	"/>
	<polygon class="st41" points="358.7,376.9 337,373.5 336.1,375.1 357.8,378.6 	"/>
	<polygon class="st3" points="359.5,375.3 338,371.9 337,373.5 358.6,377.1 	"/>
	<polygon class="st41" points="356.9,380.2 335.2,376.7 334.2,378.4 356,381.8 	"/>
	<polygon class="st3" points="357.8,378.6 336.1,375.1 335.2,376.7 356.9,380.2 	"/>
	<polygon class="st41" points="355.1,383.4 333.4,380 332.5,381.6 354.2,385.1 	"/>
	<polygon class="st3" points="355.9,381.8 334.4,378.4 333.4,380 355,383.5 	"/>
	<polygon class="st41" points="353.3,386.7 331.5,383.2 330.6,384.9 352.4,388.3 	"/>
	<polygon class="st3" points="354.2,385.1 332.5,381.6 331.5,383.2 353.3,386.7 	"/>
	<polygon class="st41" points="362.4,370 341.7,366.8 340.9,368.1 361.7,371.4 	"/>
	<polygon class="st3" points="361.7,371.4 340.9,368.1 340.3,369.3 361.1,372.5 	"/>
	<polygon class="st3" points="363.3,368.5 342.6,365.3 341.7,366.9 362.4,370.1 	"/>
	<polygon class="st3" points="376.2,345 357.8,342.2 355.6,343 375.6,346.1 	"/>
	<polygon class="st40" points="401.8,402.4 408.7,379.5 409.4,377.9 418,350.3 419,349.2 428,321.7 428,320.1 418.5,348.9 
		417.5,350.3 409,377.7 408.2,379.3 401.3,402.3 	"/>
	<path class="st40" d="M428,321.7c0,0,15.2,0.8,17.2,0.9l0.6-1.4l-17.8-1.1V321.7z"/>
	<polygon class="st2" points="437.4,350.3 418.6,349.2 418,350.3 437.1,351.5 	"/>
	<polygon class="st41" points="436.2,354.9 417,353.8 416.4,355.5 435.8,356.6 	"/>
	<polygon class="st3" points="435.8,356.6 416.4,355.5 415.8,357.3 435.3,358.3 	"/>
	<polygon class="st41" points="435.3,358.3 415.8,357.3 415.3,359 434.8,360 	"/>
	<polygon class="st3" points="434.8,360 415.3,359 414.8,360.7 434.4,361.7 	"/>
	<polygon class="st41" points="434.4,361.7 414.8,360.7 414.2,362.4 433.9,363.5 	"/>
	<polygon class="st3" points="433.9,363.5 414.3,362.4 413.6,364.2 433.4,365.3 	"/>
	<polygon class="st41" points="433.4,365.3 413.6,364.2 413.1,365.9 433,366.9 	"/>
	<polygon class="st3" points="433,366.9 413.1,365.9 412.6,367.6 432.6,368.7 	"/>
	<polygon class="st41" points="432.6,368.7 412.6,367.6 412,369.3 432,370.7 	"/>
	<polygon class="st3" points="432,370.7 412.1,369.3 411.5,371.1 431.5,372.4 	"/>
	<polygon class="st41" points="431.6,372.4 411.5,371.1 411,372.7 431.1,374.1 	"/>
	<polygon class="st3" points="431.1,374.1 411,372.7 410.4,374.5 430.6,375.8 	"/>
	<polygon class="st41" points="430.6,375.8 410.4,374.5 410,376.1 430.1,377.8 	"/>
	<polygon class="st3" points="430.2,377.5 410,376.1 409.4,378 429.8,379.3 	"/>
	<polygon class="st41" points="428.4,384.4 407.7,382.9 407.2,384.6 428,386 	"/>
	<polygon class="st3" points="428,386 407.2,384.6 406.6,386.4 427.5,387.7 	"/>
	<polygon class="st41" points="427.6,387.6 406.7,386.1 406.2,387.8 427.1,389.2 	"/>
	<polygon class="st3" points="427.1,389.2 406.2,387.8 405.6,389.7 426.6,391 	"/>
	<polygon class="st41" points="426.6,390.9 405.7,389.4 405.2,391.1 426.2,392.5 	"/>
	<polygon class="st3" points="426.2,392.5 405.2,391.1 404.6,393 425.8,394.3 	"/>
	<polygon class="st41" points="425.8,394.2 404.7,392.7 404.2,394.3 425.3,395.8 	"/>
	<polygon class="st3" points="425.3,395.8 404.2,394.3 403.7,396.2 424.9,397.5 	"/>
	<polygon class="st41" points="424.9,397.5 403.6,396.2 403.2,397.8 424.4,399.3 	"/>
	<polygon class="st3" points="424.4,399.3 403.2,397.8 402.6,399.7 423.9,401 	"/>
	<polygon class="st41" points="423.9,401 402.6,399.7 402.1,401.4 423.5,402.8 	"/>
	<polygon class="st3" points="423.5,402.8 402.1,401.4 401.7,402.8 423.1,404.3 	"/>
	<polygon class="st41" points="429.3,380.9 408.7,379.5 408.2,381.2 428.8,382.9 	"/>
	<polygon class="st3" points="428.9,382.5 408.2,381.1 407.7,382.9 428.4,384.4 	"/>
	<polygon class="st2" points="429.8,379.3 409.4,378 408.7,379.5 429.3,380.9 	"/>
	<polygon class="st1" points="376.8,343.8 375.3,345.2 360.6,372 358.9,373.3 347.4,396.3 350.7,396.9 377.2,343.5 	"/>
	<path class="st43" d="M478.2,210.5"/>
	<path class="st44" d="M478.2,210.5"/>
	<path class="st12" d="M198.6,217.5"/>
	<path class="st12" d="M440.7,213.8"/>
	<path class="st12" d="M839,269.6"/>
	<path class="st3" d="M480.4,220.8"/>
	<path class="st12" d="M119.9,235.9"/>
	<polygon class="st40" points="203.8,206.2 185,212.9 180.9,213.5 156.4,222.6 151.3,223.2 123.1,233.6 121.3,236.8 119.7,240 
		118.9,241.8 117.6,245 116.8,247 116.2,248.6 199.8,216.9 200.4,214.7 201.3,212 202.6,208.8 	"/>
	<polygon class="st45" points="203.2,207.7 185,214.1 180.9,214.6 156.3,223.9 151.2,224.4 122,235.5 120.5,238.4 119.1,241.5 
		118.2,243.3 116.9,246.5 116.2,248.6 116.2,248.6 199.7,217.5 200,216 200.7,213.6 202,210.3 	"/>
	<path class="st40" d="M185,212.9"/>
	<polygon class="st3" points="199.7,217.5 203.1,207.7 201.1,208.5 197.6,218.3 	"/>
	<polygon class="st41" points="197.7,218.3 201.1,208.5 199.1,209.2 195.6,219.1 	"/>
	<polygon class="st3" points="195.6,219.1 199.1,209.2 197,209.9 193.5,219.8 	"/>
	<polygon class="st41" points="193.6,219.8 197,209.9 195,210.6 191.5,220.6 	"/>
	<polygon class="st3" points="191.5,220.6 195,210.6 192.9,211.3 189.4,221.4 	"/>
	<polygon class="st41" points="189.4,221.4 192.9,211.3 190.9,212 187.3,222.1 	"/>
	<polygon class="st3" points="187.3,222.1 190.9,212 188.9,212.7 185.1,223 	"/>
	<polygon class="st41" points="185.1,223 188.9,212.7 186.8,213.5 182.7,223.9 	"/>
	<polygon class="st3" points="182.7,223.9 186.8,213.5 184.8,214.1 180.1,224.8 	"/>
	<polygon class="st2" points="179.9,225.3 184.8,214.1 180.9,214.6 175.4,225.7 	"/>
	<polygon class="st2" points="150.9,235.1 155.9,223.9 151.4,224.3 144.8,236 	"/>
	<path class="st1" d="M178.9,225.4l5.1-2c0,0,0.6,2.4,0.6,2.5c0,0.1-2.2,2.2-2.2,2.2L178.9,225.4z"/>
	<polygon class="st41" points="175.5,225.8 180.9,214.6 178.6,215.5 173.3,226.3 	"/>
	<polygon class="st3" points="173.2,226.7 178.6,215.5 176.3,216.4 171,227.2 	"/>
	<polygon class="st41" points="170.9,227.5 176.3,216.4 174,217.2 168.7,228 	"/>
	<polygon class="st3" points="168.6,228.4 174,217.2 171.7,218.1 166.4,228.9 	"/>
	<polygon class="st41" points="166.3,229.2 171.7,218.1 169.5,218.9 164.2,229.7 	"/>
	<polygon class="st3" points="164,230.1 169.4,218.9 167.2,219.8 161.9,230.6 	"/>
	<polygon class="st41" points="161.8,230.9 167.2,219.8 164.9,220.6 159.6,231.4 	"/>
	<polygon class="st3" points="159.5,231.8 164.9,220.6 162.6,221.5 157.3,232.3 	"/>
	<polygon class="st41" points="157.1,232.7 162.5,221.5 160.3,222.4 155,233.2 	"/>
	<polygon class="st41" points="152.6,234.4 158,223.2 155.9,223.9 149.3,235.2 	"/>
	<polygon class="st3" points="154.8,233.6 160.2,222.4 157.9,223.3 152.1,234.2 	"/>
	<polygon class="st41" points="142.6,236.5 149.2,225.1 146.3,226.1 140.4,237.3 	"/>
	<polygon class="st41" points="138.2,238.2 143.9,227.1 141.1,228.1 135.8,239 	"/>
	<polygon class="st3" points="140.4,237.3 146.3,226.1 143.9,227.1 138.2,238.2 	"/>
	<polygon class="st41" points="133.9,239.7 138.7,229.1 135.8,230.1 131.3,240.7 	"/>
	<polygon class="st3" points="131.3,240.8 135.8,230.1 132.8,231.2 128.4,241.8 	"/>
	<polygon class="st3" points="136.1,238.9 141.1,228.1 138.6,229.2 133.8,239.8 	"/>
	<polygon class="st41" points="128.4,241.8 132.8,231.2 129.9,232.2 124.7,243.2 	"/>
	<polygon class="st41" points="122.8,243.9 127.5,233.2 124.7,234.2 120.1,244.8 	"/>
	<polygon class="st3" points="120.1,244.9 124.7,234.3 121.8,235.3 117.2,246 	"/>
	<polygon class="st3" points="125.7,242.8 129.9,232.3 127.4,233.3 122.7,243.9 	"/>
	<path class="st39" d="M783.3,311.3c-135.5,92.8-465.7,92.8-599.5,0c-91.6-63.6-11.2-132.7,122.6-162.9
		c106.9-24.1,250.8-24.1,357.3,0C796.9,178.6,876,247.7,783.3,311.3z"/>
	<path class="st39" d="M783.3,316.7c-135.5,92.8-465.7,92.8-599.5,0C92.2,253.1,172.6,184,306.4,153.8
		c106.9-24.1,250.8-24.1,357.3,0C796.9,184,876,253.1,783.3,316.7z"/>
	<polygon class="st3" points="144.8,236 151.4,224.3 149.2,225.1 142.6,236.5 	"/>
	<path class="st1" d="M178.9,225.4l-4.2,0.4l-26.5,9.9l-4.7,0.6l-26.4,10c0,0-1,2.8-1.4,4.9c-0.5,2,67.1-22.8,67.1-22.8L178.9,225.4
		z"/>
	<path class="st12" d="M873.2,275.1"/>
	<path class="st12" d="M898.9,306.3"/>
	<line class="st0" x1="673.5" y1="321.4" x2="673.5" y2="306.3"/>
	<line class="st0" x1="673.5" y1="321.4" x2="673.5" y2="306.3"/>
	<path class="st2" d="M572.5,329"/>
	<path class="st2" d="M658.8,299.2"/>
	<path class="st3" d="M713.9,369.7c0,0,26.3-9.3,28.8-11.6l-84-58.8c0,0-21.7,6.4-24.2,6.6L713.9,369.7z"/>
	<polygon class="st6" points="606.8,396.3 571.5,344.4 571.1,331.9 	"/>
	<path class="st1" d="M668,392.5"/>
	<polyline class="st46" points="694.3,353.3 665.3,330.7 665.3,335.5 694.3,353.3 	"/>
	<path class="st2" d="M571,328.9c-41.9,5.2-86.4,6.7-129.8,4.3v15.4c43.5,2.6,88.2,1.2,130.2-4.3"/>
	<path class="st2" d="M570.9,332.8c-41.9,5.2-86.4,6.7-129.8,4.3v15.4c43.5,2.6,88.2,1.2,130.2-4.3"/>
	<path class="st47" d="M571,338.6c-10.5,1.3-21.2,2.4-32,3.2c-22,1.7-44.3,2.4-66.7,2.1c-10.4-0.1-20.8-0.5-31.2-1.1v6
		c7.7,0.5,15.4,0.8,23.1,1c36.1,1,72.5-0.8,107.1-5.3"/>
	<polygon class="st46" points="694.3,353.3 694.3,357.7 714.7,369.7 	"/>
	<line class="st23" x1="628.4" y1="373.5" x2="626.2" y2="370.3"/>
	<line class="st1" x1="608.2" y1="345.2" x2="639.1" y2="394.4"/>
	<path class="st12" d="M453.4,349.9"/>
	<path class="st12" d="M557,346.4"/>
	<path class="st12" d="M435.8,419.1"/>
	<path class="st12" d="M480.4,196.5"/>
	<path class="st12" d="M434.6,415.8"/>
	<path class="st12" d="M451.7,339.9"/>
	<path class="st12" d="M444.3,436.6"/>
	<path class="st46" d="M492.4,464.5"/>
	<path class="st12" d="M648,503.6"/>
	<line class="st12" x1="441.5" y1="405.4" x2="441.5" y2="405.4"/>
	<line class="st12" x1="441.5" y1="405.4" x2="443" y2="385.1"/>
	<path class="st46" d="M480.3,349.9"/>
	<path class="st1" d="M564,434.7"/>
	<path class="st48" d="M747.1,271.2"/>
	<path class="st1" d="M441.1,336.9l-18,67.5l15,0.5l15.6-67.3C453.7,337.5,444,337.1,441.1,336.9z"/>
	<path class="st1" d="M556.1,334.7l41,62.6l9.3-1.4l-35.3-63.2C571.1,332.7,565.3,333.7,556.1,334.7z"/>
	<path class="st12" d="M480.9,225.1"/>
	<path class="st12" d="M480.5,218.2"/>
	<path class="st12" d="M872.8,285.5"/>
	<path class="st12" d="M480.4,220.8"/>
	<line class="st12" x1="691.5" y1="317.6" x2="691.5" y2="302.5"/>
	<path class="st13" d="M802.9,349.7"/>
	<path class="st49" d="M803.5,347.2"/>
	<path class="st3" d="M848.2,341.4"/>
	<line class="st3" x1="803.8" y1="347.8" x2="803.8" y2="362.9"/>
	<path class="st1" d="M693.5,302.2l68.2,46.8c0,0-18.4,8.7-19.4,9.3c0,0-67.5-48.2-68.5-48.5C673.9,309.8,690.2,303.7,693.5,302.2z"
		/>
	<path class="st1" d="M760.5,251.5c0,0-0.8,3.4-3.8,7.9l82.2,12.2l0.3-1.9L760.5,251.5z"/>
	<path class="st1" d="M760.4,237.5"/>
	<path class="st12" d="M872.8,274.2"/>
	<path class="st12" d="M481.8,221"/>
	<path class="st44" d="M480.4,196.5"/>
	<path class="st44" d="M752.2,229.8"/>
	<path class="st0" d="M802.3,350.9"/>
	<path class="st3" d="M869.4,275.1"/>
	<path class="st33" d="M827.9,362.3"/>
	<polygon class="st50" points="800.1,366.7 800.1,349.7 693.5,302.2 761.7,349 	"/>
	<path class="st51" d="M850.6,315.8l8.9,1.8"/>
	<polyline class="st52" points="551.6,400.3 565.9,434 565.9,414.2 	"/>
	<polyline class="st9" points="537.2,336.1 537.2,347.3 557.7,399.1 571.3,431.2 572.1,413 537.2,336.1 	"/>
	<rect x="486.9" y="424.4" class="st2" width="1.5" height="12.9"/>
	<rect x="500.5" y="424.2" class="st2" width="1.5" height="12.8"/>
	<polygon class="st2" points="515.6,436.4 514.1,436.5 514.1,423.7 515.6,423.7 	"/>
	<polygon class="st2" points="529.2,435.8 527.7,435.9 527.7,423.3 529.2,423.3 	"/>
	<polygon class="st2" points="542.7,434.9 541.3,435 541.2,422.7 542.7,422.6 	"/>
	<polygon class="st2" points="556.3,433.9 554.9,434 554.8,421.8 556.3,421.8 	"/>
	<polygon class="st46" points="554.9,434 554.5,433 554.4,422 554.9,421.8 	"/>
	<polygon class="st46" points="541.3,435 540.8,434 540.7,422.7 541.2,422.7 	"/>
	<polygon class="st46" points="527.7,435.9 527.5,435 527.5,423.3 527.7,423.3 	"/>
	<polygon class="st46" points="514.1,436.5 514,435.7 514,423.8 514.1,423.8 	"/>
	<g>
		<path class="st9" d="M605.5,410.2c0,0-132.4,5.8-169.7,7.3v19.8c0,0,17.5,0.3,43.1,0.3v-13.1c0,0,49.2-0.3,87-3.5v13
			c12.6-1.3,26.4-2.9,39.7-4.9V410.2z"/>
	</g>
	<path class="st33" d="M479,421.8"/>
	<path class="st33" d="M480.9,194.9"/>
	<path class="st33" d="M479,441.5"/>
	<path class="st33" d="M479,417.7"/>
	<path class="st1" d="M548.1,355.3"/>
	<path class="st3" d="M533.8,350.4c-18,1.3-34.8,1.8-53.2,1.7l-0.3-2.3c18.2,0.1,35.6-0.5,53.5-1.8"/>
	<path class="st40" d="M535.4,352.8c-18,1.3-36.1,1.9-54.5,1.8l0-3.1c18.2,0.1,34.9-0.4,52.8-1.7"/>
	<path class="st40" d="M484.1,221"/>
	<path class="st47" d="M480.9,344c-2.5,0-4.2-0.1-4.2-0.1L474,401h7.3L480.9,344"/>
	<polygon class="st52" points="476.9,338.2 476.9,344 474.4,397.6 474,399.3 474,397.8 	"/>
	<polygon class="st47" points="531.5,342.4 537.2,342 560.9,396 553.1,396.9 	"/>
	<polygon class="st2" points="481.6,351.4 480.9,351.4 481,355.9 481.6,355.9 	"/>
	<rect x="488.4" y="351.4" class="st2" width="0.6" height="4.5"/>
	<polygon class="st2" points="496.5,351.4 495.9,351.4 495.9,355.8 496.5,355.8 	"/>
	<rect x="503.3" y="351.2" class="st2" width="0.6" height="4.5"/>
	<rect x="510.8" y="351" class="st2" width="0.6" height="4.5"/>
	<polygon class="st2" points="518.8,350.7 518.2,350.7 518.2,355.1 518.9,355.1 	"/>
	<polygon class="st2" points="526.3,350.3 525.7,350.3 525.7,354.7 526.3,354.7 	"/>
	<polygon class="st2" points="533.7,349.7 533.1,349.8 533.2,354.2 533.8,354.2 	"/>
	<polygon class="st2" points="535.7,353.4 535.1,353.5 535.2,357.9 535.8,357.9 	"/>
	<polygon class="st53" points="535.1,353.5 534.9,352.8 534.9,357.2 535.2,357.9 	"/>
	<polygon class="st2" points="537.9,358.9 537.3,358.9 537.3,363.3 537.9,363.3 	"/>
	<polygon class="st53" points="537.3,358.9 537,358.2 537,362.6 537.3,363.3 	"/>
	<polygon class="st2" points="540.3,365.3 539.7,365.4 539.8,369.8 540.4,369.8 	"/>
	<polygon class="st53" points="539.7,365.4 539.5,364.7 539.5,369.1 539.8,369.8 	"/>
	<polygon class="st2" points="543,372.1 542.4,372.1 542.4,376.5 543,376.5 	"/>
	<polygon class="st53" points="542.4,372.2 542.1,371.4 542.1,375.8 542.4,376.5 	"/>
	<polygon class="st2" points="545.1,378.1 544.5,378.1 544.5,382.5 545.1,382.5 	"/>
	<polygon class="st53" points="544.5,378.2 544.2,377.4 544.2,381.8 544.5,382.5 	"/>
	<polygon class="st2" points="547.1,383.1 546.4,383.1 546.5,387.5 547.1,387.5 	"/>
	<polygon class="st53" points="546.4,383.1 546.2,382.4 546.2,386.8 546.5,387.5 	"/>
	<polygon class="st2" points="549.2,388.9 548.6,388.9 548.6,393.3 549.2,393.3 	"/>
	<polygon class="st53" points="548.6,389 548.3,388.2 548.4,392.6 548.6,393.3 	"/>
	<polygon class="st2" points="551.5,394.7 550.9,394.7 551,399.1 551.6,399.1 	"/>
	<polygon class="st53" points="550.9,394.8 550.7,394 550.7,398.4 551,399.1 	"/>
	<polygon class="st53" points="533.7,349.8 551.6,397 553.1,396.9 533.7,348 	"/>
	<linearGradient id="SVGID_14_" gradientUnits="userSpaceOnUse" x1="625.4293" y1="363.4063" x2="694.3032" y2="363.4063">
		<stop  offset="5.376344e-003" style="stop-color:#0787BB"/>
		<stop  offset="3.651685e-002" style="stop-color:#1086BC"/>
		<stop  offset="0.1892" style="stop-color:#2084C0"/>
		<stop  offset="0.4037" style="stop-color:#2583C3"/>
		<stop  offset="1" style="stop-color:#2682C5"/>
	</linearGradient>
	<path class="st54" d="M625.4,369.4c0,0,42.4-7.5,68.9-16.1v4.4c0,0-22.2,7.6-65.8,15.8"/>
	<path class="st6" d="M605.1,340.6c0,0,32.9-5.7,56.6-12.9l3.6,3c0,0-17.4,6.9-57.4,14.2"/>
	<line class="st3" x1="481.3" y1="205.3" x2="823.7" y2="334.3"/>
	<path class="st0" d="M563.4,395.9"/>
	<path class="st33" d="M529,185"/>
	<line class="st51" x1="480.9" y1="215.9" x2="859.8" y2="317.7"/>
	<path class="st11" d="M218.7,276.6"/>
	<path class="st11" d="M744.9,276.6"/>
	<path class="st11" d="M327.9,125.8"/>
	<path class="st11" d="M756.6,276.4c-1.7,1.4-3.4,2.9-5.3,4.3c-8.7,6.9-18.4,13.2-29,19.1"/>
	<path class="st3" d="M751.4,282.3c-6.1,4.7-16.4,12.4-25.7,17.4v-1.4V298l25.4-17.1l0.3-0.3V282.3"/>
	<path class="st47" d="M716.2,295.3c0.1-0.1,0.3-0.2,0.4-0.2c9.6-5.4,18.6-10.5,26.6-16.8c1.9-1.5,3.1-2.5,4.9-4.1l8.6,2.2
		c0,0-16.8,14-31,21.6L716.2,295.3z"/>
	<polygon class="st47" points="756.6,276.4 751.1,280.7 828.7,302.1 832.6,296.6 	"/>
	<polygon class="st9" points="748,268.8 748,274.2 831.4,296.3 835.2,290.9 	"/>
	<path class="st55" d="M751.4,280.7"/>
	<path class="st53" d="M822.5,306.3c1.3-1.3,4.5-4.7,4.5-4.7l-75.6-20.8v1.5l74.3,20.7C825.6,302.9,823.6,305.1,822.5,306.3z"/>
	<path class="st56" d="M822.1,306.7c0.1-0.1,0.2-0.2,0.4-0.4C822.3,306.4,822.2,306.6,822.1,306.7z"/>
	<polyline class="st52" points="850.6,315.8 859.4,305.6 859.5,317.6 	"/>
	<polygon class="st53" points="752,287 751.4,286.9 751.4,282.3 752,282.4 	"/>
	<polygon class="st53" points="747.2,290.1 746.6,290 746.6,286 747.2,285.5 	"/>
	<polygon class="st2" points="752,287 752.4,286.7 752.4,282.5 752,282.4 	"/>
	<polygon class="st53" points="758.1,288.8 757.5,288.6 757.5,284 758.1,284.2 	"/>
	<polygon class="st2" points="758.1,288.8 758.6,288.5 758.6,284.3 758.1,284.2 	"/>
	<polygon class="st53" points="764.2,290.5 763.6,290.3 763.6,285.7 764.2,285.9 	"/>
	<polygon class="st2" points="764.2,290.5 764.6,290.2 764.6,286 764.2,285.9 	"/>
	<polygon class="st53" points="770.5,292.3 769.9,292.1 769.9,287.5 770.5,287.7 	"/>
	<polygon class="st2" points="770.5,292.3 770.9,292 770.9,287.8 770.5,287.7 	"/>
	<polygon class="st53" points="777,294 776.4,293.9 776.4,289.3 777,289.4 	"/>
	<polygon class="st2" points="777,294 777.4,293.7 777.4,289.5 777,289.4 	"/>
	<polygon class="st53" points="783.8,296 783.2,295.8 783.2,291.2 783.8,291.4 	"/>
	<polygon class="st2" points="783.8,296 784.2,295.7 784.2,291.5 783.8,291.4 	"/>
	<polygon class="st53" points="790.8,297.9 790.2,297.8 790.2,293.2 790.8,293.3 	"/>
	<polygon class="st2" points="790.8,297.9 791.2,297.6 791.2,293.4 790.8,293.3 	"/>
	<polygon class="st53" points="797.7,299.9 797,299.7 797,295.1 797.7,295.3 	"/>
	<polygon class="st2" points="797.7,299.9 798.1,299.6 798.1,295.4 797.7,295.3 	"/>
	<polygon class="st53" points="804.7,301.8 804.1,301.7 804.1,297.1 804.7,297.2 	"/>
	<polygon class="st2" points="804.7,301.8 805.1,301.5 805.1,297.3 804.7,297.2 	"/>
	<polygon class="st53" points="811.9,303.9 811.3,303.7 811.3,299 811.9,299.2 	"/>
	<polygon class="st2" points="811.9,303.9 812.2,303.6 812.2,299.3 811.9,299.2 	"/>
	<polygon class="st53" points="819.5,306 818.9,305.8 818.9,301.1 819.5,301.3 	"/>
	<polygon class="st2" points="819.5,306 819.8,305.8 819.8,301.3 819.5,301.3 	"/>
	<polygon class="st2" points="747.8,289.7 747.2,290.1 747.2,285.5 747.8,285.1 	"/>
	<polygon class="st2" points="856.9,321 856.3,321.7 856.2,309.3 856.9,308.6 	"/>
	<polygon class="st53" points="856.3,321.7 855.4,321.5 855.5,310.2 856.3,309.2 	"/>
	<polygon class="st2" points="853.5,325.5 852.9,326.2 852.9,313.4 853.5,312.7 	"/>
	<polygon class="st53" points="852.9,326.2 852,326 852.1,314 852.9,313.1 	"/>
	<polygon class="st2" points="849.5,329.7 848.9,330.4 848.9,317.6 849.5,317 	"/>
	<polygon class="st53" points="848.9,330.4 848,330.2 848.1,318.5 848.9,317.6 	"/>
	<polygon class="st2" points="845.1,334 844.5,334.8 844.5,322.2 845.1,321.5 	"/>
	<polygon class="st53" points="844.5,334.7 843.7,334.6 843.7,322.9 844.5,322.1 	"/>
	<polygon class="st2" points="840.4,338.2 839.8,339 839.8,326.5 840.4,326 	"/>
	<polygon class="st53" points="839.8,339 839,338.8 839,327.3 839.8,326.5 	"/>
	<polygon class="st2" points="836.2,342 835.6,342.7 835.6,330.4 836.2,329.9 	"/>
	<polygon class="st53" points="835.6,342.7 834.7,342.6 834.8,331.2 835.6,330.4 	"/>
	<polygon class="st53" points="742.5,293.5 741.9,293.3 741.9,289.4 742.5,288.9 	"/>
	<polygon class="st2" points="743,293.1 742.5,293.5 742.5,288.9 743,288.5 	"/>
	<polygon class="st53" points="737.6,297 737,296.8 737,292.8 737.6,292.4 	"/>
	<polygon class="st2" points="738.1,296.6 737.6,297 737.6,292.4 738.1,292 	"/>
	<polygon class="st53" points="732.2,300.5 731.6,300.3 731.6,296.3 732.2,295.9 	"/>
	<polygon class="st2" points="732.7,300.1 732.2,300.5 732.2,295.9 732.7,295.5 	"/>
	<g>
		<path class="st9" d="M869.4,298.4l-0.7-20.6c0,0-2.8-1.8-3.2-0.1c-2.2,9.5-65.5,49.8-65.5,49.8v22.2v17
			c11.2-6.6,22.2-13.9,31.7-21.4c0,0,0.4-0.2,0.4-0.3v-11.6c0,0,15.9-13.4,27.3-27.8v12c3.8-6.2,6.9-11.1,9.7-17.8L869.4,298.4z"/>
	</g>
	<path class="st13" d="M481.5,209.4"/>
	<polygon class="st57" points="761.9,276.4 759,275.6 759,273.2 761.9,274 	"/>
	<polygon class="st57" points="769.7,278.4 766.7,277.6 766.7,275.2 769.7,276 	"/>
	<polygon class="st57" points="777.3,280.4 774.3,279.6 774.3,277.2 777.3,278 	"/>
	<polygon class="st57" points="785.1,282.4 782.1,281.6 782.1,279.3 785.1,280 	"/>
	<polygon class="st57" points="792.6,284.4 789.6,283.6 789.6,281.2 792.6,282 	"/>
	<polygon class="st57" points="800.4,286.4 797.4,285.6 797.4,283.2 800.4,284 	"/>
	<polygon class="st57" points="808.1,288.4 805.1,287.6 805.1,285.2 808.1,286 	"/>
	<polygon class="st57" points="815.9,290.6 812.9,289.8 812.9,287.2 815.9,288 	"/>
	<polygon class="st57" points="823.4,292.7 820.5,291.9 820.5,289.1 823.4,289.9 	"/>
	<polygon class="st57" points="831.2,294.8 828.3,294 828.3,291.1 831.2,291.9 	"/>
	<polygon class="st57" points="753.4,340.7 749.9,339.1 749.9,333.9 753.4,335.5 	"/>
	<polygon class="st57" points="761.7,344.7 758.3,343.1 758.3,337.6 761.7,339.2 	"/>
	<polygon class="st57" points="769.9,348.6 766.4,347 766.4,341.2 769.9,342.8 	"/>
	<polygon class="st57" points="777.9,352.3 774.4,350.7 774.4,344.8 777.9,346.5 	"/>
	<polygon class="st57" points="785.8,356.3 782.3,354.7 782.3,348.9 785.8,350.5 	"/>
	<polygon class="st57" points="793,359.7 789.5,358.1 789.5,352.2 793,353.9 	"/>
	<g>
		<path class="st58" d="M440.1,251.5c-0.5,0-0.9,0.5-0.9,1v24.7c0,0,0,0,0,0c0,0.6,0.4,1,0.9,1c0,0,0,0,0,0L440.1,251.5
			C440.1,251.5,440.1,251.5,440.1,251.5z"/>
		<path class="st59" d="M441.1,277.3C441.1,277.3,441.1,277.3,441.1,277.3l0-24.7c0,0,0,0,0-0.1c0-0.5-0.4-1-1-1v26.7
			C440.7,278.3,441.1,277.8,441.1,277.3z"/>
	</g>
	<polygon class="st60" points="404.1,250.3 399.7,249.9 399.7,244.3 404.1,244.6 	"/>
	<polygon class="st61" points="404.1,269.5 399.7,269.2 399.7,263.5 404.1,263.8 	"/>
	<polygon class="st61" points="426.5,277.2 422.1,276.9 422.1,271.2 426.5,271.5 	"/>
	<polygon class="st61" points="410.6,276.9 406.2,276.6 406.2,270.9 410.6,271.2 	"/>
	<polygon class="st60" points="408.9,256.4 404.4,256.1 404.4,250.5 408.9,250.8 	"/>
	<polygon class="st61" points="426.4,252 422,251.7 422,246 426.4,246.3 	"/>
	<polygon class="st60" points="484.5,261.4 480.1,261.4 480.1,255.7 484.5,255.6 	"/>
	<polygon class="st61" points="489.1,267.1 484.7,267.1 484.7,261.5 489.1,261.4 	"/>
	<polygon class="st62" points="493.6,267.1 489.1,267.1 489.1,261.5 493.6,261.4 	"/>
	<polygon class="st60" points="498,261.4 493.6,261.4 493.6,255.7 498,255.6 	"/>
	<polygon class="st23" points="650.1,231.4 646.6,232.8 646.6,227.1 650.1,225.8 	"/>
	<polygon class="st63" points="646.6,243.2 643.1,242 643.1,236.4 646.6,237.5 	"/>
	<polygon class="st63" points="639.3,249 635.8,247.8 635.8,242.2 639.3,243.3 	"/>
	<polygon class="st61" points="646.6,252.7 643.1,251.6 643.1,245.9 646.6,247 	"/>
	<polygon class="st64" points="659.8,227.9 656.3,229.2 656.3,223.5 659.8,222.3 	"/>
	<polygon class="st65" points="663.3,232.3 659.8,233.6 659.8,228 663.3,226.7 	"/>
	<polygon class="st61" points="669.7,229 668,230.2 668,227.4 669.7,226.3 	"/>
	<polygon class="st66" points="653.6,241.3 650.1,242.7 650.1,237 653.6,235.7 	"/>
	<polygon class="st66" points="657.1,240 653.6,241.4 653.6,235.7 657.1,234.4 	"/>
	<polygon class="st64" points="665.9,244.2 662.4,245.8 662.4,239.8 665.9,238.6 	"/>
	<polygon class="st67" points="654.1,249.4 650.6,250.9 650.6,245.1 654.1,243.8 	"/>
	<polygon class="st60" points="498,272.9 493.6,272.9 493.6,267.3 498,267.1 	"/>
	<polygon class="st60" points="484.7,279.5 480.3,279.5 480.3,273.9 484.7,273.8 	"/>
	<polygon class="st61" points="413.3,256.8 408.9,256.5 408.9,250.8 413.3,251.1 	"/>
	<polygon class="st60" points="413.3,262.4 408.9,262.1 408.9,256.4 413.3,256.7 	"/>
	<polygon class="st60" points="426.4,263.4 422,263.1 422,257.4 426.4,257.7 	"/>
	<polygon class="st65" points="429.3,267.7 426.4,271.1 426.4,265.4 429.3,262.1 	"/>
	<polygon class="st67" points="434.1,269.5 431.2,272.8 431.2,267.2 434.1,263.8 	"/>
	<polygon class="st61" points="417.7,262.7 413.3,262.4 413.3,256.8 417.7,257.1 	"/>
	<polygon class="st61" points="415,270.1 410.6,269.8 410.6,264.1 415,264.4 	"/>
	<polygon class="st61" points="275,212.8 271.3,210.7 271.3,204.2 275,206.4 	"/>
	<polygon class="st61" points="284.9,219.6 281.1,217.4 281.1,210.5 284.9,213.2 	"/>
	<polygon class="st62" points="281.1,223.6 277.4,221.5 277.4,215 281.1,217.2 	"/>
	<polygon class="st61" points="281.1,230 277.4,227.8 277.4,221.3 281.1,223.6 	"/>
	<polygon class="st60" points="304.2,237.6 301.6,236.2 301.6,231.6 304.2,233.2 	"/>
	<polygon class="st60" points="309,242.9 306.4,241.4 306.4,236.9 309,238.4 	"/>
	<polygon class="st60" points="318,244.9 315.3,243.7 315.3,239.1 318,240.1 	"/>
	<polygon class="st68" points="323.4,248.6 320.8,247.4 320.8,243 323.4,244 	"/>
	<polygon class="st69" points="326.1,249.6 323.4,248.6 323.4,244 326.1,244.9 	"/>
	<polygon class="st70" points="332,250 329.2,249 329.2,244.4 332,245.3 	"/>
	<polygon class="st60" points="339,254.7 336.3,253.9 336.3,249 339,249.9 	"/>
	<polygon class="st60" points="374.5,258.7 371.7,258.2 371.7,254.4 374.5,254.8 	"/>
	<polygon class="st60" points="377.2,263.1 374.5,262.6 374.5,258.7 377.2,259.2 	"/>
	<polygon class="st70" points="383.3,260.3 380.6,259.8 380.6,255.9 383.3,256.4 	"/>
	<polygon class="st61" points="392.2,264.5 389.5,264.2 389.5,260.3 392.2,260.6 	"/>
	<polygon class="st71" points="396,265 393.3,264.7 393.3,260.8 396,261.1 	"/>
	<polygon class="st70" points="444.9,269.8 442.2,269.7 442.2,265.9 444.9,265.9 	"/>
	<polygon class="st62" points="450.9,270.5 448.2,270.4 448.2,266.6 450.9,266.7 	"/>
	<polygon class="st61" points="461.2,266.8 458.6,266.8 458.6,263 461.2,263 	"/>
	<polygon class="st62" points="480.1,266.6 477.5,266.5 477.5,262.7 480.1,262.7 	"/>
	<polygon class="st61" points="476.1,270.4 473.4,270.4 473.4,266.6 476.1,266.6 	"/>
	<polygon class="st61" points="467.6,266.8 465,266.8 465,262.9 467.6,262.9 	"/>
	<polygon class="st70" points="472.7,270.4 470,270.4 470,266.6 472.7,266.6 	"/>
	<polygon class="st70" points="467.6,271.5 465,271.5 465,267.6 467.6,267.6 	"/>
	<polygon class="st71" points="512.2,266.2 509.6,266.4 509.6,262.5 512.2,262.3 	"/>
	<polygon class="st61" points="520.9,265.8 518.3,265.9 518.3,262.1 520.9,261.9 	"/>
	<polygon class="st62" points="514.8,266.1 512.2,266.3 512.2,262.4 514.8,262.2 	"/>
	<polygon class="st62" points="517.5,269.8 514.8,270 514.8,266.1 517.5,265.9 	"/>
	<polygon class="st62" points="524.9,269.6 522.2,269.8 522.2,265.9 524.9,265.8 	"/>
	<polygon class="st61" points="531,264.5 528.4,264.7 528.4,260.8 531,260.6 	"/>
	<polygon class="st62" points="530.1,270.1 527.5,270.3 527.5,268 530.2,267.8 	"/>
	<polygon class="st62" points="535.3,268.7 532.6,268.8 532.6,265 535.3,264.8 	"/>
	<polygon class="st62" points="539,263.7 536.4,263.9 536.4,260 539,259.8 	"/>
	<polygon class="st62" points="546,266.9 543.4,267 543.4,263.2 546,263 	"/>
	<polygon class="st60" points="551.3,266.1 548.6,266.4 548.6,262.7 551.3,262.4 	"/>
	<polygon class="st62" points="556.4,265.6 553.7,265.9 553.7,262.2 556.4,261.9 	"/>
	<polygon class="st71" points="572.9,258.6 570.3,259 570.3,256.1 572.9,255.8 	"/>
	<polygon class="st62" points="564.1,264.6 561.4,265 561.4,261.3 564.1,261 	"/>
	<polygon class="st71" points="570.4,263.5 567.7,263.9 567.7,260.2 570.4,259.8 	"/>
	<polygon class="st62" points="573,263.2 570.4,263.6 570.4,259.8 573,259.5 	"/>
	<polygon class="st62" points="577.2,262.7 574.6,263 574.6,259.3 577.2,259 	"/>
	<polygon class="st62" points="587.8,257.3 585.1,257.8 585.1,254.1 587.8,253.6 	"/>
	<polygon class="st62" points="579.9,258.6 577.2,259 577.2,255.3 579.9,254.8 	"/>
	<polygon class="st62" points="582.5,261.9 579.9,262.3 579.9,258.6 582.5,258.2 	"/>
	<polygon class="st62" points="590.4,260.6 587.8,261.1 587.8,257.3 590.4,256.9 	"/>
	<polygon class="st62" points="595.6,259.5 593,259.9 593,256.2 595.6,255.8 	"/>
	<polygon class="st60" points="601,258.6 598.3,259 598.3,255.3 601,254.8 	"/>
	<polygon class="st60" points="605.8,254.1 603.1,254.7 603.1,251 605.8,250.4 	"/>
	<polygon class="st62" points="598.3,255.2 595.6,255.7 595.6,251.9 598.3,251.4 	"/>
	<polygon class="st61" points="608.4,257.3 605.8,257.9 605.8,254.2 608.4,253.7 	"/>
	<polygon class="st61" points="614.2,252.4 611.6,253.1 611.6,249.4 614.2,248.8 	"/>
	<polygon class="st61" points="618.3,250.5 615.6,251.1 615.6,247.4 618.3,246.9 	"/>
	<polygon class="st62" points="622.6,252.8 620,253.7 620,250 622.6,249.2 	"/>
	<polygon class="st60" points="625.3,252.1 622.6,252.9 622.6,249.2 625.3,248.5 	"/>
	<polygon class="st62" points="627.9,247.6 625.3,248.4 625.3,244.7 627.9,243.9 	"/>
	<polygon class="st62" points="630.5,250.4 627.9,251.2 627.9,247.5 630.5,246.8 	"/>
	<polygon class="st71" points="633.2,246 630.5,246.9 630.5,243.2 633.2,242.4 	"/>
	<polygon class="st71" points="611.6,256.5 608.9,257.2 608.9,253.5 611.6,252.9 	"/>
	<polygon class="st60" points="585.1,261.5 582.5,261.9 582.5,258.2 585.1,257.8 	"/>
	<polygon class="st62" points="559,267.1 556.4,267.4 556.4,265.5 559,265.2 	"/>
	<polygon class="st62" points="564.1,258.9 561.4,259.3 561.4,257.4 564.1,257.1 	"/>
	<polygon class="st61" points="559,261.5 556.4,261.9 556.4,258.1 559,257.8 	"/>
	<polygon class="st62" points="548.6,262.7 546,263 546,259.1 548.6,258.8 	"/>
	<polygon class="st62" points="541.7,267.4 539,267.6 539,263.8 541.7,263.6 	"/>
	<polygon class="st63" points="539,267.6 536.4,267.8 536.4,263.9 539,263.7 	"/>
	<polygon class="st71" points="509.6,270.3 506.9,270.4 506.9,266.6 509.6,266.4 	"/>
	<polygon class="st61" points="506.9,266.5 504.3,266.6 504.3,262.8 506.9,262.7 	"/>
	<polygon class="st61" points="458.6,266.8 455.9,266.7 455.9,262.9 458.6,263 	"/>
	<polygon class="st61" points="455.9,270.5 453.3,270.4 453.3,266.6 455.9,266.7 	"/>
	<polygon class="st70" points="449.1,266.6 446.5,266.4 446.5,262.6 449.1,262.7 	"/>
	<polygon class="st62" points="399.7,261.5 397,261.2 397,257.3 399.7,257.6 	"/>
	<polygon class="st60" points="341.1,250.1 338.4,249.2 338.4,245.1 341.1,245.8 	"/>
	<polygon class="st67" points="289.5,231.6 285.8,232.5 285.8,226.7 289.5,225.8 	"/>
	<polygon class="st66" points="297.5,237 293.7,237.9 293.7,232.1 297.5,231.3 	"/>
	<polygon class="st65" points="291.7,238 288,238.9 288,233.1 291.7,232.3 	"/>
	<polygon class="st61" points="275.8,225.6 272,223.5 272,217 275.8,219.2 	"/>
	<polygon class="st71" points="281.1,239.9 277.4,237.8 277.4,231.3 281.1,233.5 	"/>
	<polygon class="st61" points="284.9,242.1 281.1,239.9 281.1,233.5 284.9,235.8 	"/>
	<polygon class="st67" points="369.2,258.7 366.2,260.9 366.2,255.2 369.2,253 	"/>
	<polygon class="st23" points="362.3,266.6 358.1,269.1 358.1,266.2 362.3,263.6 	"/>
	<polyline class="st65" points="364.4,248.3 364.4,250.8 360.2,253.4 360.2,247.8 362.7,246.3 	"/>
	<g>
		<path class="st58" d="M293.7,216.9c-0.5,0-0.9,0.5-0.9,1v24c0,0,0,0,0,0c0,0.6,0.4,1,0.9,1c0,0,0,0,0,0L293.7,216.9
			C293.7,216.9,293.7,216.9,293.7,216.9z"/>
		<path class="st59" d="M294.7,242C294.7,242,294.7,242,294.7,242l0-24c0,0,0,0,0-0.1c0-0.5-0.4-1-1-1v26
			C294.2,243,294.7,242.5,294.7,242z"/>
	</g>
	<g>
		<path class="st58" d="M313.4,225.5c-0.5,0-0.9,0.5-0.9,1v24.7c0,0,0,0,0,0c0,0.6,0.4,1,0.9,1c0.1,0,0.2,0,0.3-0.1v-26.6
			C313.6,225.6,313.5,225.5,313.4,225.5z"/>
		<path class="st59" d="M314.4,251.3C314.4,251.3,314.4,251.3,314.4,251.3l0-24.7c0,0,0,0,0-0.1c0-0.4-0.3-0.8-0.6-0.9v26.6
			C314.1,252.1,314.4,251.7,314.4,251.3z"/>
	</g>
	<g>
		<path class="st58" d="M320.3,228c-0.5,0-0.9,0.5-0.9,1v24.7c0,0,0,0,0,0c0,0.6,0.4,1,0.9,1c0.1,0,0.2,0,0.3-0.1V228
			C320.5,228,320.4,228,320.3,228z"/>
		<path class="st59" d="M321.3,253.7C321.3,253.7,321.3,253.7,321.3,253.7l0-24.7c0,0,0,0,0-0.1c0-0.4-0.3-0.8-0.7-0.9v26.6
			C321,254.5,321.3,254.2,321.3,253.7z"/>
	</g>
	<g>
		<path class="st58" d="M327.4,230.7c-0.5,0-0.9,0.5-0.9,1v24.7c0,0,0,0,0,0c0,0.6,0.4,1,0.9,1c0.2,0,0.3-0.1,0.5-0.1v-26.5
			C327.7,230.7,327.5,230.7,327.4,230.7z"/>
		<path class="st59" d="M328.3,256.4C328.3,256.4,328.3,256.4,328.3,256.4l0-24.7c0,0,0,0,0-0.1c0-0.4-0.2-0.7-0.5-0.8v26.5
			C328.1,257.1,328.3,256.8,328.3,256.4z"/>
	</g>
	<polyline class="st57" points="286.6,240.9 286.6,248.7 281.3,245.7 281.3,237.6 286.6,240.9 	"/>
	<path class="st26" d="M298.6,237.2"/>
	<polygon class="st72" points="298.6,237.5 298.7,245.1 286.6,248.6 286.6,240.5 	"/>
	<polygon class="st26" points="281.3,237.6 292.8,234.6 298.6,237.5 286.6,240.9 	"/>
	<path class="st0" d="M298.6,237.2"/>
	<linearGradient id="SVGID_15_" gradientUnits="userSpaceOnUse" x1="298.538" y1="238.9581" x2="308.7813" y2="238.9581">
		<stop  offset="5.376344e-003" style="stop-color:#0787BB"/>
		<stop  offset="3.651685e-002" style="stop-color:#1086BC"/>
		<stop  offset="0.1892" style="stop-color:#2084C0"/>
		<stop  offset="0.4037" style="stop-color:#2583C3"/>
		<stop  offset="1" style="stop-color:#2682C5"/>
	</linearGradient>
	<line class="st73" x1="298.6" y1="245" x2="308.7" y2="232.9"/>
	<linearGradient id="SVGID_16_" gradientUnits="userSpaceOnUse" x1="308.6853" y1="225.2459" x2="308.6853" y2="225.2459">
		<stop  offset="5.376344e-003" style="stop-color:#0787BB"/>
		<stop  offset="3.651685e-002" style="stop-color:#1086BC"/>
		<stop  offset="0.1892" style="stop-color:#2084C0"/>
		<stop  offset="0.4037" style="stop-color:#2583C3"/>
		<stop  offset="1" style="stop-color:#2682C5"/>
	</linearGradient>
	<path class="st74" d="M308.7,225.2"/>
	<linearGradient id="SVGID_17_" gradientUnits="userSpaceOnUse" x1="298.634" y1="237.2787" x2="298.634" y2="237.2787">
		<stop  offset="5.376344e-003" style="stop-color:#0787BB"/>
		<stop  offset="3.651685e-002" style="stop-color:#1086BC"/>
		<stop  offset="0.1892" style="stop-color:#2084C0"/>
		<stop  offset="0.4037" style="stop-color:#2583C3"/>
		<stop  offset="1" style="stop-color:#2682C5"/>
	</linearGradient>
	<path class="st75" d="M298.6,237.3"/>
	<path class="st72" d="M308.9,232.9l-10.2,12l0-7.5l7.3-9.1C306,228.4,306.3,230.5,308.9,232.9z"/>
	<linearGradient id="SVGID_18_" gradientUnits="userSpaceOnUse" x1="300.3063" y1="225.8478" x2="300.3063" y2="225.8478">
		<stop  offset="5.376344e-003" style="stop-color:#0787BB"/>
		<stop  offset="3.651685e-002" style="stop-color:#1086BC"/>
		<stop  offset="0.1892" style="stop-color:#2084C0"/>
		<stop  offset="0.4037" style="stop-color:#2583C3"/>
		<stop  offset="1" style="stop-color:#2682C5"/>
	</linearGradient>
	<path class="st76" d="M300.3,225.8"/>
	<polygon class="st26" points="306,228.4 300.3,226 293,234.8 298.6,237.5 	"/>
	<polyline class="st57" points="515,280.1 515,288.1 504,288.6 503.7,280.4 515,280.3 	"/>
	<polyline class="st57" points="323.2,257.6 323.2,265.4 315.9,262.7 315.9,254.6 323.2,257.6 	"/>
	<polygon class="st72" points="335.2,252.3 335.5,259.5 323.2,265.3 323.2,257.3 	"/>
	<polygon class="st26" points="315.9,254.6 329.4,249.5 335.2,252.3 323.2,257.6 	"/>
	<path class="st72" d="M345.5,247.8l-10.2,12l0-7.5l7.3-9.1C342.6,243.2,342.9,245.3,345.5,247.8z"/>
	<polygon class="st26" points="344.9,241 337.7,238.6 329.4,249.5 335.2,252.3 	"/>
	<g>
		<path class="st58" d="M299.6,219.9c-0.5,0-0.9,0.5-0.9,1v24c0,0,0,0,0,0c0,0.6,0.4,1,0.9,1c0,0,0,0,0,0L299.6,219.9
			C299.6,219.9,299.6,219.9,299.6,219.9z"/>
		<path class="st59" d="M300.5,245C300.5,245,300.5,245,300.5,245l0-24c0,0,0,0,0-0.1c0-0.5-0.4-1-1-1v26
			C300.1,246,300.5,245.5,300.5,245z"/>
	</g>
	<g>
		<path class="st58" d="M306.1,222.6c-0.5,0-0.9,0.5-0.9,1v24c0,0,0,0.4,0,0.4c0,0.6,0.4,1,0.9,1c0.1,0,0.1,0,0.2,0v-26.3
			C306.3,222.6,306.2,222.6,306.1,222.6z"/>
		<path class="st59" d="M307.1,248c0,0,0-0.4,0-0.4v-24c0,0,0,0,0-0.1c0-0.5-0.1-0.7-0.8-0.9v26.3
			C306.9,248.8,307.1,248.5,307.1,248z"/>
	</g>
	<g>
		<path class="st58" d="M336.4,233.5c-0.5,0-0.9,0.5-0.9,1v24.7c0,0,0,0,0,0c0,0.6,0.4,1,0.9,1c0.2,0,0.3,0,0.4-0.1v-26.5
			C336.7,233.5,336.6,233.5,336.4,233.5z"/>
		<path class="st59" d="M337.4,259.2C337.4,259.2,337.4,259.2,337.4,259.2l0-24.7c0,0,0,0,0-0.1c0-0.4-0.2-0.7-0.5-0.9v26.5
			C337.2,259.9,337.4,259.6,337.4,259.2z"/>
	</g>
	<polygon class="st72" points="504,288.6 501.8,279.1 501.7,272.8 503.9,280.6 	"/>
	<path class="st0" d="M501.5,272.6"/>
	<polygon class="st26" points="503.9,280.6 515.1,280.4 511.8,272.5 501.7,272.8 	"/>
	<polygon class="st26" points="501.7,272.8 499.9,256.8 509.4,256.5 511.8,272.5 	"/>
	<polygon class="st72" points="501.8,279.2 500,261.4 499.9,256.8 501.8,272.8 	"/>
	<line class="st72" x1="546.8" y1="278.1" x2="480.5" y2="194"/>
	<path class="st77" d="M540.7,270.4"/>
	<polygon class="st26" points="540.4,270 546.8,277.8 559.1,276.6 551.6,268.8 	"/>
	<polygon class="st26" points="540.4,270 536.6,255 547.6,254.2 551.6,268.8 	"/>
	<path class="st43" d="M541.2,270"/>
	<path class="st72" d="M540.7,269.6l6,8.2v8.1l-6.7-9.6l-4.7-17.7c0,0,0.9-1.2,1.2-3.7L540.7,269.6z"/>
	<polygon class="st57" points="546.8,285.9 559.1,284.5 559.1,276.6 546.8,277.8 	"/>
	<polygon class="st57" points="643.6,257.9 643.7,265.8 659.1,259.7 659.1,251.9 	"/>
	<polygon class="st72" points="630.6,260.3 643.6,266 643.6,257.9 630.6,252.1 	"/>
	<path class="st78" d="M630.8,252.1"/>
	<path class="st72" d="M630.7,260.3l-12.5-14.5c0,0,1.8-1.7,3.2-4.8l9.3,11.1L630.7,260.3z"/>
	<path class="st72" d="M630.8,252.1"/>
	<polygon class="st26" points="643.6,246.7 635.5,237.3 621.5,241 630.8,252.1 	"/>
	<polyline class="st26" points="643.6,257.9 630.8,252.1 643.6,246.7 659.1,251.9 643.6,257.9 	"/>
	<polygon class="st65" points="663.2,334 664.8,333.5 664.8,331.6 663.2,332.1 	"/>
	<polygon class="st66" points="655.6,336.3 657.1,335.8 657.1,334 655.6,334.4 	"/>
	<polygon class="st23" points="653.8,338.7 655.3,338.2 655.3,336.3 653.8,336.8 	"/>
	<polygon class="st64" points="650.9,337.4 652.5,336.9 652.5,335 650.9,335.5 	"/>
	<polygon class="st67" points="649.4,339.7 650.9,339.2 650.9,337.4 649.4,337.8 	"/>
	<polygon class="st67" points="646.3,338.7 647.9,338.2 647.9,336.3 646.3,336.8 	"/>
	<polygon class="st65" points="644.4,341.1 646,340.8 646,338.9 644.4,339.3 	"/>
	<polygon class="st65" points="641.6,339.8 643.1,339.4 643.1,337.6 641.6,338 	"/>
	<polygon class="st66" points="637.5,340.8 639.1,340.5 639.1,338.6 637.5,339 	"/>
	<polygon class="st65" points="634.4,341.5 636,341.1 636,339.3 634.4,339.7 	"/>
	<polygon class="st66" points="636,343.1 637.5,342.7 637.5,340.9 636,341.3 	"/>
	<polygon class="st79" points="640,340.2 641.5,339.9 641.5,338 640,338.4 	"/>
	<polygon class="st80" points="640,342 641.5,341.6 641.5,339.8 640,340.2 	"/>
	<polygon class="st80" points="632.2,343.7 633.8,343.3 633.8,341.5 632.2,341.9 	"/>
	<polygon class="st80" points="627.9,344.5 629.5,344.2 629.5,342.3 627.9,342.7 	"/>
	<polygon class="st80" points="624.2,343.5 625.8,343.3 625.8,341.4 624.2,341.7 	"/>
	<polygon class="st79" points="622.2,345.8 623.8,345.5 623.8,343.7 622.3,344 	"/>
	<polygon class="st80" points="620.7,346.2 622.2,345.9 622.2,344 620.7,344.3 	"/>
	<polygon class="st67" points="615.4,347.2 617,346.9 617,345.1 615.4,345.4 	"/>
	<polygon class="st67" points="610,346.7 611.5,346.4 611.5,344.6 610,344.9 	"/>
	<polygon class="st81" points="612,346.4 613.5,346.1 613.5,344.2 612,344.6 	"/>
	<polygon class="st66" points="617,345.1 618.5,344.8 618.5,342.9 617,343.3 	"/>
	<polygon class="st79" points="626.2,344.8 627.7,344.5 627.7,342.6 626.2,343 	"/>
	<polygon class="st79" points="630,342.6 631.5,342.2 631.5,340.4 630,340.8 	"/>
	<polygon class="st79" points="649.4,337.9 650.9,337.4 650.9,335.5 649.4,336 	"/>
	<polygon class="st79" points="658.9,335.6 660.5,335.1 660.5,333.3 658.9,333.7 	"/>
	<polygon class="st66" points="661.6,334.5 663.2,334 663.2,332.1 661.6,332.6 	"/>
	<polygon class="st82" points="661.6,336.3 663.2,335.8 663.2,334 661.6,334.4 	"/>
	<polygon class="st65" points="692.2,356.2 693.7,355.7 693.7,353.8 692.2,354.3 	"/>
	<polygon class="st79" points="687.9,357.8 689.5,357.3 689.5,355.5 687.9,355.9 	"/>
	<polygon class="st66" points="690.6,356.6 692.2,356.2 692.2,354.3 690.6,354.7 	"/>
	<polygon class="st81" points="683,359 684.5,358.5 684.5,356.6 683,357.1 	"/>
	<polygon class="st64" points="690.6,358.5 692.2,358 692.2,356.2 690.6,356.6 	"/>
	<polygon class="st79" points="686,358.1 687.6,357.6 687.6,355.7 686,356.2 	"/>
	<polygon class="st66" points="686,359.9 687.6,359.4 687.6,357.6 686,358 	"/>
	<polygon class="st79" points="681,359.7 682.6,359.2 682.6,357.3 681,357.8 	"/>
	<polygon class="st66" points="681,361.6 682.6,361.1 682.6,359.2 681,359.7 	"/>
	<polygon class="st81" points="679.3,362 680.8,361.6 680.8,359.7 679.3,360.1 	"/>
	<polygon class="st79" points="677.5,360.5 679,360.1 679,358.2 677.5,358.6 	"/>
	<polygon class="st67" points="675.6,361.1 677.2,360.7 677.2,358.8 675.6,359.2 	"/>
	<polygon class="st67" points="673.5,362.9 675.1,362.5 675.1,360.7 673.5,361.1 	"/>
	<polygon class="st80" points="669.7,362.3 671.3,361.8 671.3,360 669.7,360.4 	"/>
	<polygon class="st67" points="667.6,364.1 669.2,363.7 669.2,361.8 667.6,362.2 	"/>
	<polygon class="st64" points="662.9,366 664.5,365.6 664.5,363.7 662.9,364.1 	"/>
	<polygon class="st23" points="661,366.5 662.5,366.1 662.5,364.2 661,364.6 	"/>
	<polygon class="st67" points="659.1,367 660.7,366.6 660.7,364.7 659.1,365.1 	"/>
	<polygon class="st67" points="656.7,365.4 658.2,365 658.2,363.1 656.7,363.5 	"/>
	<polygon class="st80" points="654.8,367.7 656.4,367.3 656.4,365.4 654.8,365.8 	"/>
	<polygon class="st80" points="652.8,366.2 654.4,365.8 654.4,364 652.8,364.3 	"/>
	<polygon class="st81" points="651.3,368.5 652.8,368.1 652.8,366.2 651.3,366.6 	"/>
	<polygon class="st81" points="649.7,367 651.3,366.6 651.3,364.7 649.7,365.1 	"/>
	<polygon class="st79" points="648.1,367.4 649.7,367 649.7,365.1 648.1,365.5 	"/>
	<polygon class="st64" points="646.5,367.8 648.1,367.3 648.1,365.5 646.5,365.9 	"/>
	<polygon class="st79" points="646.5,369.7 648.1,369.3 648.1,367.4 646.5,367.8 	"/>
	<polygon class="st79" points="640.9,368.9 642.5,368.5 642.5,366.6 640.9,367 	"/>
	<polygon class="st66" points="639.3,369.3 640.9,368.9 640.9,367 639.3,367.4 	"/>
	<polygon class="st66" points="636.7,371.5 638.3,371.1 638.3,369.2 636.7,369.6 	"/>
	<polygon class="st66" points="634,370.4 635.6,370.1 635.6,368.3 634,368.5 	"/>
	<polygon class="st81" points="630.3,372.7 631.9,372.4 631.9,370.6 630.3,370.9 	"/>
	<polygon class="st64" points="644.9,370 646.5,369.6 646.5,367.8 644.9,368.1 	"/>
	<polygon class="st64" points="665,363.7 666.5,363.3 666.5,361.4 665,361.8 	"/>
	<polygon class="st83" points="750.3,339.2 749.9,339.1 749.9,333.9 750.3,334 	"/>
	<polygon class="st83" points="758.7,343.3 758.3,343.1 758.3,337.6 758.7,337.8 	"/>
	<polygon class="st83" points="766.9,347.2 766.4,347 766.4,341.2 766.9,341.4 	"/>
	<polygon class="st83" points="774.9,350.8 774.4,350.7 774.4,344.8 774.9,345 	"/>
	<polygon class="st83" points="782.8,354.9 782.3,354.7 782.3,348.9 782.8,349.1 	"/>
	<polygon class="st83" points="789.9,358.3 789.5,358.2 789.5,352.3 789.9,352.5 	"/>
	<polygon class="st83" points="759.4,275.7 759,275.6 759,273.2 759.4,273.4 	"/>
	<polygon class="st83" points="767.2,277.7 766.7,277.6 766.7,275.2 767.2,275.4 	"/>
	<polygon class="st83" points="774.8,279.7 774.3,279.6 774.3,277.2 774.8,277.4 	"/>
	<polygon class="st83" points="782.6,281.8 782.1,281.6 782.1,279.3 782.6,279.4 	"/>
	<polygon class="st83" points="790.1,283.7 789.6,283.6 789.6,281.2 790.1,281.4 	"/>
	<polygon class="st83" points="797.9,285.7 797.4,285.6 797.4,283.2 797.9,283.4 	"/>
	<polygon class="st83" points="805.6,287.7 805.1,287.6 805.1,285.2 805.6,285.4 	"/>
	<polygon class="st83" points="813.4,289.9 812.9,289.8 812.9,287.2 813.4,287.4 	"/>
	<polygon class="st83" points="821,292 820.5,291.9 820.5,289.1 821,289.3 	"/>
	<polygon class="st83" points="828.7,294.2 828.3,294 828.3,291.1 828.7,291.3 	"/>
	<g>
		<path class="st84" d="M744.3,273.3"/>
		<path class="st84" d="M712.5,293.1l87.1,33.1c0,0,18.3-10.4,34.2-35.6L748,268.9c0,0,0.1,0,0,0c0,0-0.4,0.4,0,0
			c3.4-3.1,6.7-6.6,9.7-11.3l111,20.2c-4.3,17.8-13.8,33-39.6,52.5c-8.2,6.2-8.2,6.2-29.1,19.5l-106.5-47.5"/>
	</g>
	<g>
		<path class="st84" d="M559.2,334.4c0-0.1-6,0.7-22,1.8l26.1,59.7c-40.1,4.4-89.4,3.4-89.4,3.4l2.9-61.1c-9,0.1-13.5-0.3-23.2-0.5
			l-18.1,79.8c0,0,61.8,5.5,170-7.3L559.2,334.4z"/>
	</g>
	<g>
		<path class="st58" d="M385.4,251.2c-0.5,0-0.9,0.5-0.9,1v15.3c0,0,0,0,0,0c0,0.6,0.4,1,0.9,1c0.2,0,0.3-0.1,0.5-0.2v-17
			C385.8,251.3,385.6,251.2,385.4,251.2z"/>
		<path class="st59" d="M386.4,267.5C386.4,267.5,386.4,267.5,386.4,267.5l0-15.3c0,0,0,0,0-0.1c0-0.3-0.2-0.6-0.5-0.8v17
			C386.2,268.2,386.4,267.9,386.4,267.5z"/>
	</g>
	<linearGradient id="SVGID_19_" gradientUnits="userSpaceOnUse" x1="341.1447" y1="251.046" x2="358.1417" y2="251.046">
		<stop  offset="0" style="stop-color:#55A4DB"/>
		<stop  offset="0.5355" style="stop-color:#54A5DB"/>
		<stop  offset="0.7284" style="stop-color:#4EA9DE"/>
		<stop  offset="0.8653" style="stop-color:#41AEE3"/>
		<stop  offset="0.9758" style="stop-color:#28B6EA"/>
		<stop  offset="0.9946" style="stop-color:#20B8EC"/>
	</linearGradient>
	<polyline class="st85" points="358.1,236.9 341.1,232.9 341.1,264.8 358.1,269.2 	"/>
	<g>
		<polygon class="st2" points="230.5,268.7 227.4,254.3 222.5,260.3 222.2,260.1 222.2,259.3 227.9,252.2 231.5,268.5 		"/>
	</g>
	<g>
		<polygon class="st2" points="240.5,276.1 237.1,263.3 231.3,268.8 230.7,268.1 237.7,261.5 241.4,275.8 		"/>
	</g>
	<g>
		<polygon class="st2" points="250.4,282.4 247.2,270.4 241.2,276.4 240.6,275.8 247.7,268.6 251.3,282.2 		"/>
	</g>
	<g>
		<polygon class="st2" points="259.6,287.5 256.9,276.2 250.9,282.8 250.2,282.2 257.4,274.3 260.6,287.3 		"/>
	</g>
	<g>
		<polygon class="st2" points="269.2,292.6 266.5,281.3 260.5,287.9 259.8,287.3 267,279.4 270.2,292.4 		"/>
	</g>
	<g>
		<polygon class="st2" points="279.2,296.7 276,285.4 269.9,293 269.2,292.4 276.4,283.3 280.2,296.5 		"/>
	</g>
	<g>
		<polygon class="st2" points="289.1,300.7 285.9,289.4 279.8,297 279.1,296.4 286.3,287.3 290,300.5 		"/>
	</g>
	<g>
		<polygon class="st2" points="298.8,304.9 295.6,293.6 289.5,301.2 288.8,300.6 296,291.5 299.7,304.7 		"/>
	</g>
	<g>
		<polygon class="st2" points="308.8,308.5 305.6,297.1 299.5,304.7 298.8,304.2 306,295.1 309.7,308.2 		"/>
	</g>
	<linearGradient id="SVGID_20_" gradientUnits="userSpaceOnUse" x1="367.4944" y1="93.9885" x2="486.811" y2="93.9885">
		<stop  offset="0" style="stop-color:#2682C5"/>
		<stop  offset="1" style="stop-color:#20B8EC"/>
	</linearGradient>
	<path class="st86" d="M445.4,80.9c9.2-2.9,11.9-4.8-4.9-3.1c-41.5,4.2-61.8,18.4-61.8,18.4l0,0c-10,5.3-13.5,10.4-9.6,14.6
		l117.8-26.5C471,83.1,458,81.3,445.4,80.9z"/>
	<path class="st26" d="M369,112.2c17.3-17,40.7-29.5,65.6-33.6c27-4.4,38.3-0.4,52.3,7.1"/>
	<linearGradient id="SVGID_21_" gradientUnits="userSpaceOnUse" x1="255.7276" y1="137.9947" x2="463.4679" y2="137.9947">
		<stop  offset="0" style="stop-color:#2682C5"/>
		<stop  offset="1" style="stop-color:#20B8EC"/>
	</linearGradient>
	<path class="st87" d="M463.5,126.6c-37.1-23.7-67.4-27-83-26.8l0.1,0l-0.3,0c-4.4,0.1-7.6,0.4-9.4,0.7l-1.8,0.1l-28.6,6.3
		c0,0-11.7,2.1-27.2,6.1c0,0-40.6,14.1-57.6,26.9l0.8,0.9l0.3-0.8l-1.1-0.1c0,0,9.5,21.2,87.9,35.4l1.8,0.7L463,143.5l-29.9-8.4
		L463.5,126.6z"/>
	<path class="st21" d="M442.1,133.2"/>
	<path class="st21" d="M348,105.9"/>
	<path class="st21" d="M255.7,140c0,0,29.3-26.2,114.1-39.4"/>
	<path class="st25" d="M430.8,134.9c0,0-54.6,13.7-84.8,41.2l117.9-32.6v-16.6L430.8,134.9z"/>
	<g>
		<g>
			<path class="st88" d="M265.8,148.4c-0.1,0-0.2-0.1-0.3-0.2l0-0.6l0.4,0.3l-0.2-0.4c0.1,0,0.3-0.2,0.7-0.4
				c11.4-7.8,43.7-26.9,115.4-46.2l2.1,0c-71.5,19.3-105.6,39.2-117,47C266.2,148.3,266,148.4,265.8,148.4z M265.8,147.9l0.4,0.3
				L265.8,147.9z"/>
		</g>
	</g>
	<g>
		<g>
			<path class="st88" d="M277.8,155.9l-0.6-0.1l-0.2-0.4c0.1,0,0.3-0.2,0.7-0.4c11.4-7.8,59.4-32.2,131.1-51.5l1.1,0.4
				c-71.5,19.3-120.3,44.4-131.7,52.1 M278.8,155.9l0.4,0.3L278.8,155.9z"/>
		</g>
	</g>
	<g>
		<g>
			<path class="st88" d="M292.6,162.7l-0.6-0.1l-0.2-0.4c0.1,0,0.3-0.2,0.7-0.4c11.4-7.8,63.1-33.3,134.8-52.6l1.1,0.4
				c-71.5,19.3-124,45.4-135.4,53.2 M293.6,162.7l0.4,0.3L293.6,162.7z"/>
		</g>
	</g>
	<g>
		<g>
			<path class="st88" d="M318.8,170.5l-0.6-0.1l-0.7-0.8c0.1,0,0.2-0.1,0.6-0.3c7.3-4.9,20-16.5,56.4-30c8.5-3.1,18.4-7.2,29.3-10.7
				c13.1-4.1,27.1-8,41.3-11.9l1.2,0.6c-14.8,4-25.1,6.8-40.7,11.9c-10.8,3.5-21.3,7.1-30.2,10.4c-8.5,3.1-16.6,6.8-23.2,10
				c-18.5,9-27.6,17.3-32.9,20.9 M319.8,170.5l0.4,0.3L319.8,170.5z"/>
		</g>
	</g>
	<path class="st21" d="M276.4,155.5c0.1,0.1,44.1-28.6,132.1-52.3"/>
	<path class="st21" d="M291.4,162c0.1,0.1,47.9-29.4,135.8-53.2"/>
	<path class="st21" d="M312.2,113.6c0,0,35.8-4.6,92.2,30.5"/>
	<path class="st21" d="M335.4,107.7c15,1.5,49.3,6.7,87.2,30.3"/>
	<path class="st21" d="M349.8,104.2c15.6,1.2,51,0.8,91,28.1"/>
	<path class="st21" d="M292.9,120.2c0,0,39.1-5,95.5,30.2"/>
	<path class="st21" d="M277.1,127.1c0,0,37.8-3.9,94.3,31.2"/>
	<path class="st21" d="M262.4,135.2c0,0,37.5-2.5,93.9,32.7"/>
	<path class="st21" d="M263.9,148c-0.6,0.8,30.1-23.9,118-47.6"/>
	<path class="st89" d="M256.2,140.3c0,0,11,21.5,89.2,35.9c0.1,0.1,32.4-31,118.5-49.5"/>
	<path class="st90" d="M349,174.8c0.1,0.1,28.8-28.3,114.9-46.8"/>
	<path class="st21" d="M463.6,126.9c-52.4-31.1-78.1-26.3-93.9-26.3"/>
	<path class="st88" d="M372.5,139.4"/>
	<path class="st21" d="M316.9,170c11-7,28.3-26.8,128.1-53.3"/>
	<line class="st89" x1="357.1" y1="168.1" x2="360.5" y2="172.9"/>
	<polygon class="st89" points="365.2,162.7 371.7,169.5 360.5,172.5 	"/>
	<polygon class="st89" points="377.1,156.4 385,166.1 371.3,169.6 	"/>
	<polygon class="st89" points="390.6,150.2 399.7,161.9 384.3,165.9 	"/>
	<polygon class="st89" points="405.9,144.1 414.8,158 399.4,162 	"/>
	<polygon class="st89" points="422.5,138 433.7,153.4 414.8,158.4 	"/>
	<polygon class="st89" points="441.1,132.5 452.2,147.9 433.3,152.8 	"/>
	<g>
		<polygon class="st18" points="452,148.2 451.1,147.8 459.1,126.7 463.9,133.3 463.9,134.9 459.4,128.6 		"/>
	</g>
	<polygon class="st91" points="345.3,178 491,147.6 463.9,145.8 	"/>
	<g>
		<path class="st2" d="M459,165.1c-1,0.4-2.8,0.4-3.8,0c-0.9-0.4-0.7-0.9,0.3-1.2c0.9-0.3,2.3-0.3,3.2,0
			C459.7,164.2,459.9,164.8,459,165.1z"/>
		<polyline class="st2" points="454.6,164.6 463.7,64.9 459.6,164.6 		"/>
	</g>
	<path class="st2" d="M256.2,139.9v2.3c0,0,3,17,90.6,35.6l-0.8-1.7C346,176.1,272,162.8,256.2,139.9z"/>
	<path class="st2" d="M346.8,177.8"/>
	<path class="st2" d="M346.8,177.8"/>
	<path class="st91" d="M468,147.6c0,0,128.2,11.4,137.8-22.7c8.1-28.6-140.2,20.3-140.2,20.3L468,147.6z"/>
	<path class="st26" d="M486.6,73.7v12.7l102,22.2v-14C516.3,66.3,486.6,73.7,486.6,73.7z"/>
	<line class="st18" x1="673.3" y1="80.7" x2="486.5" y2="80.7"/>
	<g>
		<linearGradient id="SVGID_22_" gradientUnits="userSpaceOnUse" x1="465.5547" y1="124.4305" x2="599.4018" y2="124.4305">
			<stop  offset="0" style="stop-color:#2682C5"/>
			<stop  offset="1" style="stop-color:#20B8EC"/>
		</linearGradient>
		<path class="st92" d="M599.4,120.8c0,0,0-0.1,0-0.1c0-0.8-0.2-1.7-0.6-2.5c-4.8-15.1-28.7-18.1-62.4-12.2
			c-32.9,5.7-63.1,21.6-70.8,37.3c37.3,4.7,82.9,2.4,111.9-6.6C592.6,132,599.6,126.3,599.4,120.8L599.4,120.8z"/>
		<g>
			<g>
				<path class="st21" d="M598.6,117.7c3,6.2-3.7,13.2-21.2,18.7c-28.9,9-74.6,11.3-111.9,6.6c17-25.2,53.1-34.8,79.2-38
					c17.5-2.2,30.4-1.2,30.4-1.2S592.2,104.5,598.6,117.7z"/>
			</g>
		</g>
		<path class="st21" d="M488.9,122.1c0,0,22.9,2,34.5,22.9"/>
		<path class="st21" d="M476.3,130.8c0,0,17.2-1.3,27.4,14.5"/>
		<path class="st21" d="M505.4,114.6c0,0,26.2,2.8,36.6,29.1"/>
		<path class="st21" d="M521,109.4c0,0,29.6,5.3,40.1,31.6"/>
		<path class="st21" d="M540.2,105.5c0,0,29,3.9,39.5,30.1"/>
		<path class="st21" d="M559.6,103.7c0,0,24.2,4.4,32.6,25.4"/>
	</g>
	<path class="st93" d="M569.2,87.2c0,0,21.3-8.5,61-7.9"/>
	<path class="st93" d="M550,81c0,0,20.2-7.2,59.8-7.2"/>
	<path class="st93" d="M528.1,76c0,0,18.8-6,60.9-6.2"/>
	<path class="st93" d="M508.2,73.3c0,0,17.1-5.9,59-6.6"/>
	<path class="st93" d="M491,73.3c0,0,15.9-6.2,57.9-7.5"/>
	<path class="st21" d="M658,89.2c-32.8-10.1-69.5,5.3-69.5,5.3c-66.1-26.9-102-20.8-102-20.8s51.8-16.2,109.5-2.8
		C596,70.9,614.3,73.1,658,89.2"/>
	<path class="st21" d="M600.7,90.4c-66.1-26.9-100.1-20-100.1-20"/>
	<path class="st21" d="M613.6,87.6c-66.1-26.9-99-19.6-99-19.6"/>
	<path class="st21" d="M625.7,86c-33.3-13.6-62.4-19-78.9-20.5"/>
	<path class="st21" d="M640.7,85.8c-36.5-13.2-56.4-18.3-75.5-19.5"/>
	<path class="st21" d="M567.7,86.9c0,0,21.3-8.5,61-7.9"/>
	<path class="st21" d="M608.6,73.5c-32.5-0.8-60.1,7.2-60.1,7.2"/>
	<path class="st21" d="M526.2,75.9c0,0,30-7.6,64.4-6.1"/>
	<path class="st21" d="M564.7,66.2c-38.5,0.9-58.1,7-58.1,7"/>
	<g>
		<path class="st2" d="M587.4,157.9c-1,0.4-2.8,0.4-3.8,0c-0.9-0.4-0.7-0.9,0.3-1.2c0.9-0.3,2.3-0.3,3.2,0
			C588.2,156.9,588.4,157.5,587.4,157.9z"/>
		<polyline class="st2" points="583.1,157.3 562.3,60.3 588,157.2 		"/>
	</g>
	<line class="st21" x1="272.6" y1="180.4" x2="272.6" y2="187.7"/>
	<line class="st21" x1="279.5" y1="182.9" x2="279.5" y2="190.3"/>
	<line class="st21" x1="285.4" y1="184.8" x2="285.4" y2="192.2"/>
	<line class="st21" x1="292" y1="187.1" x2="292" y2="194.5"/>
	<line class="st21" x1="299.5" y1="189.3" x2="299.5" y2="197.7"/>
	<line class="st21" x1="307.1" y1="191.9" x2="307.1" y2="200.2"/>
	<line class="st21" x1="314.5" y1="193.6" x2="314.5" y2="203.1"/>
	<line class="st21" x1="321.9" y1="195.1" x2="321.9" y2="204.3"/>
	<line class="st21" x1="329.4" y1="197.5" x2="329.4" y2="206.9"/>
	<line class="st21" x1="336.5" y1="199.4" x2="336.5" y2="207.7"/>
	<line class="st21" x1="343.9" y1="199.1" x2="343.9" y2="210.7"/>
	<line class="st21" x1="351.3" y1="201.2" x2="351.3" y2="211.9"/>
	<line class="st21" x1="358.8" y1="202.2" x2="358.8" y2="214.5"/>
	<line class="st21" x1="366.5" y1="203.5" x2="366.5" y2="215.7"/>
	<line class="st21" x1="375.1" y1="205.1" x2="375.1" y2="217.3"/>
	<line class="st21" x1="383.3" y1="205.7" x2="383.3" y2="218"/>
	<line class="st21" x1="390.9" y1="206.3" x2="390.9" y2="218.5"/>
	<line class="st21" x1="399.4" y1="207.6" x2="399.4" y2="219.9"/>
	<line class="st21" x1="408.6" y1="208.4" x2="408.6" y2="220.7"/>
	<line class="st21" x1="418.2" y1="208.7" x2="418.2" y2="221"/>
	<line class="st21" x1="427.9" y1="209.6" x2="427.9" y2="221.9"/>
	<line class="st21" x1="436.4" y1="210.3" x2="436.4" y2="222.6"/>
	<line class="st21" x1="449.3" y1="211.2" x2="449.3" y2="221.9"/>
	<line class="st21" x1="458.1" y1="212.2" x2="458.1" y2="222.9"/>
	<line class="st21" x1="466" y1="212.2" x2="466" y2="222.9"/>
	<line class="st21" x1="475.6" y1="211.9" x2="475.6" y2="222.5"/>
	<line class="st21" x1="487.2" y1="211.2" x2="487.2" y2="221.9"/>
	<line class="st21" x1="497.7" y1="211.2" x2="497.7" y2="221.9"/>
	<line class="st21" x1="508.7" y1="211.7" x2="508.7" y2="222.4"/>
	<line class="st21" x1="519.5" y1="211.1" x2="519.5" y2="221.8"/>
	<line class="st21" x1="529.9" y1="210.1" x2="529.9" y2="220.8"/>
	<line class="st21" x1="543.3" y1="210.1" x2="543.3" y2="220.8"/>
	<line class="st21" x1="557.9" y1="209.1" x2="557.9" y2="219.7"/>
	<line class="st21" x1="570.9" y1="206.5" x2="570.9" y2="217.2"/>
	<line class="st21" x1="585" y1="205.9" x2="585" y2="216.5"/>
	<line class="st21" x1="600.6" y1="202.6" x2="600.6" y2="213.3"/>
	<line class="st21" x1="615.9" y1="200.5" x2="615.9" y2="211.2"/>
	<line class="st21" x1="628.8" y1="198.5" x2="628.8" y2="209.1"/>
	<line class="st21" x1="639.7" y1="196" x2="639.7" y2="206.7"/>
	<line class="st21" x1="662.8" y1="189.9" x2="662.8" y2="200.5"/>
	<line class="st21" x1="651.3" y1="192.1" x2="651.3" y2="202.8"/>
	<line class="st21" x1="675.4" y1="184.5" x2="675.4" y2="195.2"/>
	<line class="st21" x1="687.2" y1="181.5" x2="687.2" y2="192.1"/>
	<line class="st21" x1="697.6" y1="176.1" x2="697.6" y2="186.8"/>
	<line class="st21" x1="267.3" y1="178" x2="267.3" y2="185.4"/>
	<g>
		<polygon class="st94" points="268.3,183.1 267.7,182.7 267.7,178.9 268.2,179.1 		"/>
	</g>
	<g>
		<polygon class="st94" points="273.7,186 273.1,185.6 273.1,181 273.7,181.3 		"/>
	</g>
	<g>
		<polygon class="st94" points="280.6,189.6 280,189.2 279.9,183.6 280.6,183.8 		"/>
	</g>
	<g>
		<polygon class="st94" points="286.5,192.1 285.9,191.8 285.8,185.6 286.5,185.7 		"/>
	</g>
	<g>
		<polygon class="st94" points="293.2,194.8 292.5,194.5 292.5,187.7 293.2,188 		"/>
	</g>
	<g>
		<polygon class="st94" points="300.7,197.5 300,197.3 300,190 300.7,190.2 		"/>
	</g>
	<g>
		<polygon class="st94" points="308.2,200.1 307.6,199.9 307.6,192.1 308.2,192.3 		"/>
	</g>
	<g>
		<polygon class="st94" points="315.7,202 315.1,201.8 315.1,194 315.7,194.2 		"/>
	</g>
	<g>
		<polygon class="st94" points="323,203.7 322.4,203.5 322.4,195.7 323,195.9 		"/>
	</g>
	<g>
		<polygon class="st94" points="330.8,205.6 330.1,205.4 330.1,197.6 330.8,197.8 		"/>
	</g>
	<g>
		<polygon class="st94" points="337.6,207.6 336.9,207.4 336.9,199.5 337.6,199.7 		"/>
	</g>
	<g>
		<polygon class="st94" points="345.1,208.9 344.5,208.7 344.4,200.9 345.1,201 		"/>
	</g>
	<g>
		<polygon class="st94" points="352.4,210.2 351.8,210 351.8,202.2 352.4,202.4 		"/>
	</g>
	<g>
		<polygon class="st94" points="360.1,212.7 359.4,212.5 359.4,202.7 360.1,202.8 		"/>
	</g>
	<g>
		<polygon class="st94" points="367.7,214.1 367,213.9 367,204.1 367.7,204.3 		"/>
	</g>
	<g>
		<polygon class="st94" points="376.3,215.4 375.6,215.2 375.6,205.4 376.3,205.6 		"/>
	</g>
	<g>
		<polygon class="st94" points="384.5,216.2 383.9,216 383.9,206.2 384.5,206.4 		"/>
	</g>
	<g>
		<polygon class="st94" points="392.1,217.2 391.5,216.9 391.5,207.1 392.1,207.3 		"/>
	</g>
	<g>
		<polygon class="st94" points="400.5,218.2 399.9,218 399.8,208.2 400.5,208.4 		"/>
	</g>
	<g>
		<polygon class="st94" points="419.1,220.2 418.4,220 418.8,209.5 419.4,209.7 		"/>
	</g>
	<g>
		<polygon class="st94" points="429.1,221.1 428.3,221 428.4,210.3 429.1,210.3 		"/>
	</g>
	<g>
		<polygon class="st94" points="437.8,221.6 436.9,221.5 437,210.8 437.8,210.8 		"/>
	</g>
	<g>
		<polygon class="st94" points="450.4,222.3 449.6,222.3 449.7,211.5 450.4,211.5 		"/>
	</g>
	<g>
		<polygon class="st94" points="459.4,222.3 458.5,222.3 458.6,211.5 459.4,211.5 		"/>
	</g>
	<g>
		<polygon class="st94" points="467.3,222.5 466.5,222.5 466.6,211.7 467.3,211.8 		"/>
	</g>
	<g>
		<polygon class="st94" points="476.9,222.4 476.1,222.4 476.2,211.6 476.9,211.6 		"/>
	</g>
	<g>
		<polygon class="st94" points="529.5,221.3 528.7,221.3 528.8,210.5 529.5,210.6 		"/>
	</g>
	<g>
		<polygon class="st94" points="542.9,220.6 542,220.6 542.1,209.8 542.9,209.8 		"/>
	</g>
	<g>
		<polygon class="st94" points="557.4,219.7 556.5,219.7 556.6,208.9 557.4,209 		"/>
	</g>
	<g>
		<polygon class="st94" points="570.4,217.7 569.6,217.7 569.7,206.9 570.4,206.9 		"/>
	</g>
	<g>
		<polygon class="st94" points="584.8,216.1 584,216 584.1,205.3 584.8,205.3 		"/>
	</g>
	<g>
		<polygon class="st94" points="600.1,213.9 599.3,213.9 599.4,203.1 600.1,203.2 		"/>
	</g>
	<g>
		<polygon class="st94" points="615.2,211.3 614.4,211.3 614.5,200.5 615.2,200.6 		"/>
	</g>
	<g>
		<polygon class="st94" points="628.2,207.4 627.4,207.4 627.5,198.4 628.2,198.4 		"/>
	</g>
	<g>
		<polygon class="st94" points="639.2,205 638.4,205 638.5,196 639.2,196 		"/>
	</g>
	<g>
		<polygon class="st94" points="650.9,202 650,201.9 650.1,193 650.9,193 		"/>
	</g>
	<g>
		<polygon class="st94" points="662.3,198.9 661.4,198.8 661.5,189.9 662.3,189.9 		"/>
	</g>
	<g>
		<polygon class="st94" points="674.8,192.7 674,192.7 674.1,185.4 674.8,185.4 		"/>
	</g>
	<g>
		<polygon class="st94" points="687,187.1 686.1,187.1 686.2,181.7 687,181.7 		"/>
	</g>
	<g>
		<polygon class="st94" points="697.1,181.7 696.2,181.7 696.3,177.8 697.1,177.8 		"/>
	</g>
	<g>
		<path class="st58" d="M463,258.5c-0.5,0-0.9,0.5-0.9,1v15.3c0,0,0,0,0,0c0,0.6,0.4,1,0.9,1c0,0,0,0,0,0L463,258.5
			C463,258.5,463,258.5,463,258.5z"/>
		<path class="st59" d="M464,274.8C464,274.8,464,274.8,464,274.8l0-15.3c0,0,0,0,0-0.1c0-0.5-0.4-1-1-1v17.3
			C463.5,275.8,464,275.3,464,274.8z"/>
	</g>
	<g>
		<path class="st58" d="M522.3,253.6C522.3,253.5,522.3,253.5,522.3,253.6c0-0.6-0.4-1-0.9-1c-0.2,0-0.3,0.1-0.4,0.1v26.5
			c0.1,0.1,0.3,0.1,0.4,0.1c0.5,0,0.9-0.5,0.9-1c0,0,0,0,0,0V253.6z"/>
		<path class="st59" d="M520.4,253.6v24.7c0,0,0,0,0,0c0,0.4,0.2,0.7,0.5,0.9v-26.5C520.6,252.9,520.4,253.2,520.4,253.6z"/>
	</g>
	<g>
		<path class="st58" d="M532.8,252.6C532.8,252.6,532.8,252.6,532.8,252.6c0-0.6-0.4-1-0.9-1c-0.2,0-0.4,0.1-0.6,0.2v26.3
			c0.2,0.1,0.3,0.2,0.6,0.2c0.5,0,0.9-0.5,0.9-1c0,0,0,0,0,0V252.6z"/>
		<path class="st59" d="M530.9,252.6v24.7c0,0,0,0,0,0c0,0.3,0.2,0.6,0.4,0.8v-26.3C531,252.1,530.9,252.3,530.9,252.6z"/>
	</g>
	<g>
		<path class="st58" d="M567.2,249.4C567.2,249.3,567.3,249.3,567.2,249.4c0-0.6-0.4-1-0.9-1v26.7c0.5,0,0.9-0.5,0.9-1c0,0,0,0,0,0
			V249.4z"/>
		<path class="st59" d="M566.3,248.3c-0.5,0-0.9,0.5-0.9,1v24.7c0,0,0,0,0,0c0,0.6,0.4,1,0.9,1c0,0,0,0,0,0L566.3,248.3
			C566.3,248.3,566.3,248.3,566.3,248.3z"/>
	</g>
	<g>
		<path class="st58" d="M579.5,247.5C579.5,247.5,579.5,247.4,579.5,247.5c0-0.6-0.4-1-0.9-1v26.7c0.5,0,0.9-0.5,0.9-1c0,0,0,0,0,0
			V247.5z"/>
		<path class="st59" d="M578.5,246.5c-0.5,0-0.9,0.5-0.9,1v24.7c0,0,0,0,0,0c0,0.6,0.4,1,0.9,1c0,0,0,0,0,0L578.5,246.5
			C578.5,246.5,578.5,246.5,578.5,246.5z"/>
	</g>
	<g>
		<path class="st58" d="M612.5,241.2C612.5,241.2,612.5,241.2,612.5,241.2c0-0.6-0.4-1-0.9-1c-0.1,0-0.2,0-0.3,0.1v26.6
			c0.1,0,0.2,0.1,0.3,0.1c0.5,0,0.9-0.5,0.9-1c0,0,0,0,0,0V241.2z"/>
		<path class="st59" d="M610.6,241.2V266c0,0,0,0,0,0c0,0.5,0.3,0.8,0.6,0.9v-26.6C610.9,240.4,610.6,240.8,610.6,241.2z"/>
	</g>
	<g>
		<path class="st58" d="M625.4,238.4C625.4,238.4,625.4,238.4,625.4,238.4c0-0.6-0.4-1-0.9-1v26.7c0.5,0,0.9-0.5,0.9-1c0,0,0,0,0,0
			V238.4z"/>
		<path class="st59" d="M624.4,237.4c-0.5,0-0.9,0.5-0.9,1v24.7c0,0,0,0,0,0c0,0.6,0.4,1,0.9,1c0,0,0,0,0,0L624.4,237.4
			C624.4,237.4,624.4,237.4,624.4,237.4z"/>
	</g>
	<polygon class="st57" points="600.5,269.7 600.6,277.7 614.2,274.5 614.2,266.7 	"/>
	<polygon class="st72" points="600.6,277.7 590,270.2 590,262.7 600.5,269.7 	"/>
	<path class="st72" d="M590,262.2l-7.7-13c0,0-0.2,2.2-2,4.7l9.7,16.3v-7.4V262.2z"/>
	<polygon class="st26" points="601.8,259.8 614.2,266.7 600.5,269.7 590.1,262.8 	"/>
	<polygon class="st26" points="601.8,259.8 593.7,247.2 582.3,249.2 590.1,262.8 	"/>
</g>
<g>
	<polygon class="st95" points="18.9,336.2 16.9,335.1 16.9,332.2 18.9,333.3 	"/>
	<polygon class="st96" points="18.8,336.2 20.8,335.1 20.8,332.2 18.8,333.3 	"/>
	<polygon class="st1" points="18.8,304 7.3,327 18.8,333.6 	"/>
	<polygon class="st97" points="18.8,304 30.6,327 18.8,333.6 	"/>
	<polygon class="st1" points="18.8,296.1 10.4,312.9 18.8,317.8 	"/>
	<polygon class="st97" points="18.8,296.1 27.5,312.9 18.8,317.8 	"/>
	<polygon class="st98" points="13.5,314.7 18.8,317.8 24.3,314.7 24.8,315.8 19.1,321.3 13.1,315.5 	"/>
</g>
<g>
	<polygon class="st95" points="255.4,479.7 252.4,477.9 252.4,473.7 255.4,475.3 	"/>
	<polygon class="st96" points="255.2,479.7 258.2,477.9 258.2,473.7 255.2,475.3 	"/>
	<polygon class="st1" points="255.3,431.1 238,465.7 255.3,475.8 	"/>
	<polygon class="st97" points="255.3,431.1 273,465.7 255.3,475.8 	"/>
	<polygon class="st1" points="255.3,419.1 242.7,444.5 255.3,451.9 	"/>
	<polygon class="st97" points="255.3,419.1 268.3,444.5 255.3,451.9 	"/>
	<polygon class="st98" points="247.2,447.1 255.3,451.9 263.5,447.2 264.4,448.8 255.7,457.1 246.6,448.4 	"/>
</g>
<g>
	<polygon class="st95" points="917.8,291.9 915.3,290.5 915.3,287.1 917.8,288.4 	"/>
	<polygon class="st96" points="917.6,291.9 920,290.5 920,287.1 917.6,288.4 	"/>
	<polygon class="st1" points="917.6,252.7 903.7,280.6 917.6,288.8 	"/>
	<polygon class="st97" points="917.6,252.7 932,280.6 917.6,288.8 	"/>
	<polygon class="st1" points="917.7,243 907.5,263.5 917.7,269.5 	"/>
	<polygon class="st97" points="917.7,243 928.2,263.5 917.7,269.5 	"/>
	<polygon class="st98" points="911.2,265.7 917.7,269.5 924.3,265.7 925,267 918,273.7 910.6,266.7 	"/>
</g>
<g>
	<polygon class="st95" points="873.8,321.2 872.3,320.3 872.3,318.1 873.8,319 	"/>
	<polygon class="st96" points="873.8,321.2 875.3,320.3 875.3,318.1 873.8,319 	"/>
	<polygon class="st1" points="873.8,295.4 864.5,313.8 873.8,319.2 	"/>
	<polygon class="st97" points="873.8,295.4 883.2,313.8 873.8,319.2 	"/>
	<polygon class="st1" points="873.8,289 867,302.5 873.8,306.4 	"/>
	<polygon class="st97" points="873.8,289 880.7,302.5 873.8,306.4 	"/>
	<polygon class="st98" points="869.5,303.9 873.8,306.4 878.2,303.9 878.6,304.8 874,309.2 869.1,304.6 	"/>
</g>
<g>
	<polygon class="st95" points="732.8,478.7 731.3,477.8 731.3,475.5 732.8,476.4 	"/>
	<polygon class="st96" points="732.8,478.7 734.3,477.8 734.3,475.5 732.8,476.4 	"/>
	<polygon class="st1" points="732.8,452.8 723.5,471.2 732.8,476.6 	"/>
	<polygon class="st97" points="732.8,452.8 742.3,471.2 732.8,476.6 	"/>
	<polygon class="st1" points="732.8,446.4 726,459.9 732.8,463.9 	"/>
	<polygon class="st97" points="732.8,446.4 739.7,459.9 732.8,463.9 	"/>
	<polygon class="st98" points="728.5,461.4 732.8,463.9 737.2,461.4 737.6,462.2 733,466.7 728.2,462 	"/>
</g>
<g>
	<polygon class="st95" points="811.2,487.4 808,485.5 808,481 811.2,482.8 	"/>
	<polygon class="st96" points="811,487.4 814.2,485.5 814.2,481 811,482.8 	"/>
	<polygon class="st1" points="811,435.6 792.6,472.5 811,483.3 	"/>
	<polygon class="st97" points="811,435.6 830,472.5 811,483.3 	"/>
	<polygon class="st1" points="811.1,422.8 797.6,449.9 811.1,457.7 	"/>
	<polygon class="st97" points="811.1,422.8 825,449.9 811.1,457.7 	"/>
	<polygon class="st98" points="802.5,452.7 811.1,457.7 819.9,452.8 820.7,454.5 811.5,463.4 801.8,454.1 	"/>
</g>
<g>
	<polygon class="st95" points="147,186.7 146.2,186.2 146.2,185 147,185.5 	"/>
	<polygon class="st96" points="147,186.7 147.8,186.2 147.8,185 147,185.5 	"/>
	<polygon class="st1" points="147,173 142.1,182.8 147,185.6 	"/>
	<polygon class="st97" points="147,173 152,182.8 147,185.6 	"/>
	<polygon class="st1" points="147,169.6 143.4,176.8 147,178.9 	"/>
	<polygon class="st97" points="147,169.6 150.7,176.8 147,178.9 	"/>
	<polygon class="st98" points="144.7,177.5 147,178.9 149.3,177.6 149.5,178 147.1,180.4 144.5,177.9 	"/>
</g>
<g>
	<polygon class="st95" points="817.6,184.5 816.8,184 816.8,182.8 817.6,183.2 	"/>
	<polygon class="st96" points="817.6,184.5 818.4,184 818.4,182.8 817.6,183.2 	"/>
	<polygon class="st1" points="817.6,170.8 812.7,180.5 817.6,183.4 	"/>
	<polygon class="st97" points="817.6,170.8 822.6,180.5 817.6,183.4 	"/>
	<polygon class="st1" points="817.6,167.4 814,174.5 817.6,176.6 	"/>
	<polygon class="st97" points="817.6,167.4 821.3,174.5 817.6,176.6 	"/>
	<polygon class="st98" points="815.3,175.3 817.6,176.6 819.9,175.3 820.2,175.8 817.7,178.1 815.1,175.6 	"/>
</g>
<g>
	<polygon class="st95" points="37,289.8 35.9,289.2 35.9,287.6 37,288.2 	"/>
	<polygon class="st96" points="36.9,289.8 38.1,289.2 38.1,287.6 36.9,288.2 	"/>
	<polygon class="st1" points="37,271.8 30.5,284.6 37,288.4 	"/>
	<polygon class="st97" points="37,271.8 43.6,284.6 37,288.4 	"/>
	<polygon class="st1" points="37,267.3 32.3,276.7 37,279.5 	"/>
	<polygon class="st97" points="37,267.3 41.8,276.7 37,279.5 	"/>
	<polygon class="st98" points="34,277.7 37,279.5 40,277.8 40.3,278.4 37.1,281.5 33.7,278.2 	"/>
</g>
</svg>
