<?xml version="1.0" encoding="utf-8"?>
<!-- Generator: Adobe Illustrator 19.1.0, SVG Export Plug-In . SVG Version: 6.00 Build 0)  -->
<svg version="1.1" id="Layer_1" xmlns="http://www.w3.org/2000/svg" xmlns:xlink="http://www.w3.org/1999/xlink" x="0px" y="0px"
	 viewBox="-467 269.2 23.4 22.8" style="enable-background:new -467 269.2 23.4 22.8;" xml:space="preserve">
<style type="text/css">
	.st0{fill:none;stroke:#40AE49;stroke-width:2;stroke-miterlimit:10;}
</style>
<path class="st0" d="M-448.2,277.5h-3.9c-0.1,0-0.2-0.1-0.2-0.2v-3.8c0-0.7-0.6-1.3-1.3-1.3h-2.9c-0.6,0-1.1,0.5-1.1,1.1v4.1
	c0,0.1-0.1,0.2-0.2,0.2h-3.9c-0.7,0-1.2,0.6-1.2,1.2v3.4c0,0.4,0.3,0.7,0.7,0.7h4.5c0.1,0,0.2,0.1,0.2,0.2v4.4
	c0,0.4,0.3,0.8,0.8,0.8h3.8c0.4,0,0.8-0.3,0.8-0.8v-4.4c0-0.1,0.1-0.2,0.2-0.2h4.3c0.5,0,0.9-0.4,0.9-0.9v-3.2
	C-447,278.1-447.5,277.5-448.2,277.5z"/>
</svg>
