<?xml version="1.0" encoding="utf-8"?>
<!-- Generator: Adobe Illustrator 19.1.0, SVG Export Plug-In . SVG Version: 6.00 Build 0)  -->
<svg version="1.1" id="Layer_1" xmlns="http://www.w3.org/2000/svg" xmlns:xlink="http://www.w3.org/1999/xlink" x="0px" y="0px"
	 viewBox="0 0 32 37" style="enable-background:new 0 0 32 37;" xml:space="preserve">
<style type="text/css">
	.st0{fill:none;stroke:#000000;stroke-width:3;stroke-miterlimit:10;}
</style>
<g>
	<rect x="82.7" y="12.9" transform="matrix(-0.8896 0.4568 -0.4568 -0.8896 165.4464 -12.252)" width="2.9" height="2"/>
	<rect x="84.5" y="16.4" transform="matrix(-0.8896 0.4568 -0.4568 -0.8896 170.4162 -6.4885)" width="2.9" height="2"/>
	<path d="M81.5,4.5l0.4,1.2c0.4,1.1-0.1,2.3-1.1,2.8c-1,0.5-2.2,0.2-2.9-0.7l-0.7-1L52.9,19.2l10.7,20.9l24.3-12.5l-0.4-1.2
		c-0.4-1.1,0.1-2.3,1.1-2.8c1-0.5,2.2-0.2,2.9,0.7l0.7,1l5.3-2.7L86.8,1.7L81.5,4.5z M93.6,21.4L93,21.7c-1.1-0.9-2.4-1.3-3.8-1.2
		l-0.6-1.1L86,20.6l0.4,0.8c-1.4,1.1-2.1,2.8-2,4.6L64.9,36.1l-8-15.7l19.6-10.1c1.3,1.1,3.2,1.5,4.9,1l0.3,0.5l2.6-1.3l-0.4-0.8
		c0.9-1,1.3-2.4,1.2-3.8l0.6-0.3L93.6,21.4z"/>
	<rect x="62.5" y="18.3" transform="matrix(-0.8896 0.4568 -0.4568 -0.8896 139.151 5.0363)" width="12.9" height="2.2"/>
	<rect x="65.9" y="26" transform="matrix(-0.8896 0.4568 -0.4568 -0.8896 141.0102 20.0034)" width="4.3" height="2.2"/>
</g>
<g>
	<g>
		<g>
			<path d="M10.9,35.5H8.1V17.7h1.4c0.6,0,3.6-0.2,3.6-3.4V3.8H16v10.6c0,3.8-2.7,5.6-5.1,6.1V35.5z"/>
		</g>
		<g>
			<path d="M10.9,36.5H8.1v-16C5.7,19.9,3,18.1,3,14.4V3.8h2.9v10.6c0,3.2,3,3.4,3.6,3.4l1.4,0l0,1.4V36.5z"/>
		</g>
	</g>
	<g>
		<rect x="8.1" y="3.8" width="2.9" height="15.4"/>
	</g>
</g>
<path class="st0" d="M20.5,36.5V3c0,0,7,1,7,9.1s0,11.2,0,11.2h-7"/>
</svg>
