<?xml version="1.0" encoding="utf-8"?>
<!-- Generator: Adobe Illustrator 19.1.0, SVG Export Plug-In . SVG Version: 6.00 Build 0)  -->
<svg version="1.1" xmlns="http://www.w3.org/2000/svg" xmlns:xlink="http://www.w3.org/1999/xlink" x="0px" y="0px"
	 viewBox="0 0 1919.4 562.1" style="enable-background:new 0 0 1919.4 562.1;" xml:space="preserve">
<style type="text/css">
	.st0{fill:#F0F3F6;}
	.st1{fill:none;stroke:#FFFFFF;stroke-width:2;stroke-miterlimit:10;}
	.st2{fill:#FFFFFF;}
	.st3{fill:none;stroke:#262736;stroke-width:2;stroke-linecap:round;stroke-linejoin:round;}
	.st4{fill:none;stroke:#262736;stroke-width:2;stroke-linecap:round;stroke-linejoin:round;stroke-dasharray:1.0248,8.1988;}
	.st5{fill:none;stroke:#000000;stroke-width:2;stroke-miterlimit:10;}
	.st6{fill:#262736;}
	.st7{fill:#CED7E0;}
	.st8{fill:#BAD67C;}
	.st9{fill:none;stroke:#FFFFFF;stroke-width:9;stroke-miterlimit:10;}
	.st10{fill:#C1C1C1;}
	.st11{fill:#D8D8D8;}
	.st12{fill:#C4C4C4;}
	.st13{fill:#D8DDE3;}
	.st14{fill:#E8ECF0;}
	.st15{fill:none;stroke:#FFFFFF;stroke-miterlimit:10;}
	.st16{fill:#A8C456;}
	.st17{fill:none;stroke:#FFFFFF;stroke-width:5;stroke-miterlimit:10;}
	.st18{fill:none;stroke:#2996EA;stroke-width:11;stroke-miterlimit:10;}
	.st19{fill:#8CC63F;}
	.st20{fill:#F7F5ED;}
	.st21{fill:#B8CA50;}
	.st22{fill:#E9ECF0;}
	.st23{fill:none;stroke:#00FFFF;stroke-miterlimit:10;}
	.st24{fill:none;stroke:#FFFFFF;stroke-width:2;stroke-linecap:round;stroke-linejoin:round;}
	.st25{fill:none;stroke:#FFFFFF;stroke-width:2;stroke-linecap:round;stroke-linejoin:round;stroke-dasharray:1.0248,8.1988;}
	.st26{fill:none;stroke:#F15A24;stroke-miterlimit:10;}
	.st27{fill:#E8EEF2;}
</style>
<g id="Layer_1">
	<polygon class="st0" points="3733,-140.5 1917,-139.9 1917,-1139.5 3733,-1139.5 	"/>
	<g>
		<text transform="matrix(1 0 0 1 191.8026 -1005.533)"><tspan x="0" y="0" style="font-family:'OsnovaProHeavy'; font-size:64.7332px;">Стадион</tspan><tspan x="0" y="67.2" style="font-family:'OsnovaProHeavy'; font-size:64.7332px;">Санкт-Петербург</tspan></text>
	</g>
	<path class="st1" d="M-84.4-596.1"/>
	<g>
		<g>
			
				<image style="overflow:visible;opacity:0.15;" width="97" height="96" xlink:href="C5DA8822.png"  transform="matrix(1 0 0 1 -253.9252 -879.4096)">
			</image>
			<g>
				<circle class="st2" cx="-208.2" cy="-834.4" r="26.9"/>
			</g>
		</g>
	</g>
	<text transform="matrix(1 0 0 1 1511.9723 -1085.7463)" style="font-family:'OsnovaProMedium'; font-size:18px;">info@zenit-fc.ru</text>
	<g>
		<g>
			<line class="st3" x1="1752.5" y1="-1094" x2="1753" y2="-1094"/>
			<line class="st4" x1="1761.2" y1="-1094" x2="1913.9" y2="-1094"/>
			<line class="st3" x1="1918" y1="-1094" x2="1918.5" y2="-1094"/>
		</g>
	</g>
	<g>
		<g>
			<text transform="matrix(1 0 0 1 228.9481 -878.2286)" class="st6" style="font-family:'OsnovaPro'; font-size:15px;">Футбольная аллея, 1</text>
		</g>
		<path class="st5" d="M214-885.9c0,6-5,12-7,12s-7-6-7-12c0-3.9,3.1-7,7-7C210.9-892.9,214-889.8,214-885.9z"/>
		<circle class="st6" cx="207" cy="-885.9" r="2"/>
	</g>
	<g>
		<g>
			
				<image style="overflow:visible;opacity:0.15;" width="97" height="96" xlink:href="C5DA8826.png"  transform="matrix(1 0 0 1 -244.4468 -969.4104)">
			</image>
			<g>
				<circle class="st2" cx="-198.7" cy="-924.4" r="26.9"/>
			</g>
		</g>
		<path class="st5" d="M-190.9-928.4c-3,0-5.7-1.6-7.2-4c-0.2,0-0.4,0-0.6,0c-1.5,2.4-4.2,4-7.2,4c-0.4,0-0.9,0-1.3-0.1
			c1.2,11.6,7.9,14.1,8.8,14.1s7.6-2.5,8.8-14.1C-190.1-928.5-190.5-928.4-190.9-928.4z"/>
	</g>
	<g>
		<g>
			
				<image style="overflow:visible;opacity:0.15;" width="97" height="96" xlink:href="C5DA8821.png"  transform="matrix(1 0 0 1 -256.2662 -1150.1266)">
			</image>
			<g>
				<circle class="st2" cx="-210.5" cy="-1105.2" r="26.9"/>
			</g>
		</g>
		<g>
			<path class="st5" d="M-217-1101.6v-7.4c0-1.9,1.6-3.5,3.5-3.5s3.5,1.6,3.5,3.5v7c0,1.9,1.6,3.5,3.5,3.5s3.5-1.6,3.5-3.5v-4.5"/>
			<circle class="st5" cx="-217" cy="-1098.4" r="3"/>
			<line class="st5" x1="-200" y1="-1108.4" x2="-206" y2="-1114.4"/>
			<line class="st5" x1="-206" y1="-1108.4" x2="-200" y2="-1114.4"/>
		</g>
	</g>
	<g>
		<path class="st5" d="M-198.7-837.6c-0.7,0.2-1.4,0-1.9-0.5c-0.5-0.5-0.7-1.3-0.5-1.9l-1.1-1.1c-0.7,0.2-1.4,0-1.9-0.5
			c-0.5-0.5-0.7-1.3-0.5-1.9l-0.9-0.9l-13.4,13.4l0.9,0.9c0.7-0.2,1.4,0,1.9,0.5c0.5,0.5,0.7,1.3,0.5,1.9l1.1,1.1
			c0.7-0.2,1.4,0,1.9,0.5c0.5,0.5,0.7,1.3,0.5,1.9l0.9,0.9l13.4-13.4L-198.7-837.6z"/>
		<line class="st5" x1="-209.1" y1="-841" x2="-207.7" y2="-839.6"/>
		<line class="st5" x1="-206.3" y1="-838.2" x2="-204.2" y2="-836"/>
		<line class="st5" x1="-202.8" y1="-834.6" x2="-201.4" y2="-833.2"/>
	</g>
	<g>
		<polygon class="st2" points="1917,-463.1 1917,-475.4 929.6,-655.3 872.5,-646.8 919.4,-637.4 930.9,-639.4 925.3,-640.4 
			953.6,-645.1 		"/>
		<path class="st2" d="M1060.2-631.8c20.8,3.9,41.8,2.9,61.8,1.9s87-3.1,102-3.1s105.4,7.2,133.7,10.1s97.9,14.7,152.3,25
			c54.4,10.2,104.6,26.9,147,44c57,23,76,45,144,58c46.8,9,116,33,116,33L1060.2-631.8z"/>
		<path class="st2" d="M990.9-627.1l-287.5-5.6c0,0-6.2-3.9-17.3-6c-11-2-20.3-4.6-20.3-4.6c29.7-8.1,139.1-22.1,139.1-22.1l3,4.9
			c0,0,27.3-4.9,37.4-2.9c17.1,3.5-6.4,8-6.4,8l42.9-0.9l3.5-1.6l27.1,0.5l0.2,0.3c0,0,6.9,5,12,5.6c4.1,0.5,17.1,0,22.3-0.3
			c-3.4-0.8-5.4-1.3-5.4-1.3l48.4-10c0,0,49.1,10.5,55.1,11.4c6,0.9,12.1,1.7,17,0.7c4.8-1,2.9-2,2-2.5c-1-0.6-54.7-11.3-54.7-11.3
			s7.2-2.3-9.5-5.2c-16.2-2.8-55.9-7.7-55.9-7.7l-1.1-1.1l-0.5-0.7l-65.7-1.3c0,0-177.9-1.8-437.6,40.3
			c-56.5,9.2-192.1,38.2-192.1,38.2s-24,6-39.5,4.9c-15.3-1.1-44.2-9.8-162.2,9.1c-18,2.9-34.3,5.8-48.9,8.7v62.5l220.5,52.9
			c0,0-18.4,22-14.2,34.2c4.5,13,0,23.3-16.6,36.4c-5.5,4.3-6.1,10.5-6.1,10.5L-4-335.9v196h1920v-301L990.9-627.1z"/>
		<path class="st0" d="M1257.8-561.3l659.1,140.1l0.1-5.2l-656.9-137.8c-10.4-2.4-15.6,0-15.6,0L66.8-139.9l43.5-0.1l521.4-192.4
			c8-2.2,13.2,1,17.5,4.8c4.7,4.2,212.7,187.6,212.7,187.6h41.4L669.2-335.1c-7-6.1,2.1-11.8,12.4-15.7l230.9-85.2
			c12.5-3.9,21.1,1,21.1,1l148.7,66.8l2.2,1c1.9,0.8,1.9,3.4,0.1,4.4c-1.2,0.6-2.6,0.7-3.8,0.2l-12.4-5.4c-0.8-0.3-1.6-0.3-2.4,0.1
			l-4.5,2.3l-242,124.7c-5.2,2.7-6,9.9-1.4,13.6l107.5,87.3h39l226.6-158.6c4.7-3.3,4.5-10.1,0.1-13.3c0-0.1,0-0.1,0-0.2l-0.8-0.4
			c-0.2-0.1-0.4-0.2-0.6-0.3l-1.7-0.8c-1.4-0.9-1.5-3,0-4c1.8-1.2,4-1.4,5.9-0.5l13.8,6.2l1,0.5l95,42.8v-0.1l46.9,20.7l0-0.1
			c0,0,8.7,3.9,26.3,11.7s33.3,6.1,42.8-4.9c6.9-8,40.5-45.8,58.1-65.7c0,0,15.6-17.7,18.1-20.6s10.2-16.9-7.5-22.8
			c-17.1-5.6-18.2-6-18.3-6c-116.6-38.5-393.5-129.8-397.8-131.2c-5.3-1.7-6.2-4.9-2-6.8l7-2.6c0.1,0,0.1-0.1,0.1-0.1l0,0l174-64.2
			C1255.5-562.2,1257.8-561.3,1257.8-561.3z M1169.1-325.3c-1.8,1.1-4,1.3-5.9,0.5l-60.7-27.6c-1.8-0.9-1.8-3.4-0.1-4.3
			c1.5-0.8,3.2-0.9,4.8-0.2l11.8,5.3l47.8,21.5l2.1,0.9C1170.5-328.5,1170.6-326.3,1169.1-325.3z M1468.6-347.1l-0.1,0
			c0.5,0.2,2.5,0.8,10,3.4c11.9,4,5.5,12.1,5.5,12.1s-67.7,73.7-72.5,79.5c-4.8,5.8-12,9.3-23.6,4.3L946.6-439.9
			c-9.6-4-2.7-7.5,0.2-8.7l95.3-35.2c0,0,0,0,0,0c5.4-2,14.6-2.2,20.9,0L1468.6-347.1z"/>
		<polygon class="st7" points="-3,-517.2 218,-464.3 218,-460.9 -3,-513.6 		"/>
		<path class="st0" d="M-3-335.9l183.6-47.2c0,0-2.2-9,16.3-19.5s4.3-22.4,6-34.7c1.8-12.3,12.5-24.2,12.5-24.2L-3-513.6V-335.9z"/>
		<path class="st8" d="M992.7-454l231.9,92.1c0.5,0.2,1.1,0.2,1.6-0.2l28.1-18.1c1.2-0.8,1-2.7-0.3-3.2l-230.8-85
			c-0.4-0.1-0.8-0.1-1.2,0l-29.2,11C991.2-456.7,991.2-454.6,992.7-454z"/>
		<path class="st8" d="M1190.2-339.8L956.1-440.5c-1.5-0.6-1.4-2.7,0.1-3.3l19.5-7.4c0.4-0.2,0.9-0.2,1.3,0l234.2,95.4
			c1.3,0.5,1.5,2.4,0.3,3.2l-19.6,12.6C1191.4-339.7,1190.7-339.6,1190.2-339.8z"/>
		<path class="st8" d="M1271.1-391l-228.9-81.5c-1.6-0.6-1.6-2.8,0-3.3l15.1-5.7c0.4-0.1,0.8-0.2,1.2,0l228.5,77.8
			c1.4,0.5,1.6,2.4,0.4,3.2l-14.6,9.4C1272.2-390.9,1271.6-390.9,1271.1-391z"/>
		<path class="st8" d="M930.9-639.4l-11.9-2.5l-15.8,0.5l-26.7-0.4l-3.5,1.4l-42.4,0.8c0,0,23.3-3.8,6.5-6.7c-10-1.7-37,2.4-37,2.4
			l-2.9-4.1c0,0-108.2,11.9-137.5,18.7c0,0,9.2,2.2,20,3.9c11,1.7,17.1,5,17.1,5l222.6-17l997.6,206v-9.5L930.9-639.4z"/>
		<polyline class="st9" points="791.9,-655.7 791.9,-655.7 793.4,-657.7 769.2,-626.5 		"/>
		<path class="st9" d="M993.8-617.4c-93.6-18-250.5-13.4-387.3,10.1C476.4-585,335.3-540.9,287.4-494.9c-1.2,1.2-2.2,2.3-2.8,3.4
			l-7.8,12.9"/>
		<g>
			<path class="st10" d="M859.4-521.5l17.6,5c0,0,32-8.5,47.7-15.6l-20.3-3.3C904.4-535.5,893-528.3,859.4-521.5z"/>
			<polygon class="st11" points="892.8,-535.5 921.2,-530.7 925.7,-532.6 932.5,-535.5 904.6,-540.1 			"/>
			<polygon class="st11" points="859.9,-525.5 876.9,-516.6 870.7,-514.9 863.8,-513.1 860,-512.2 843.5,-521.3 			"/>
			<polygon class="st11" points="720,-505.6 708.8,-492.3 700.1,-491.9 692.3,-491.6 686.6,-491.5 698.9,-505 708.9,-505.2 			"/>
			<polygon class="st11" points="668.5,-505.3 642.6,-492.1 633.3,-492.5 626.6,-493 622.3,-493.3 649.3,-506.3 657.9,-505.7 			"/>
			<polygon class="st11" points="934.2,-582.4 962.7,-584.3 964.4,-582.9 965.6,-581.7 966.4,-580.7 937.8,-578.7 936.2,-580.5 			
				"/>
			<polygon class="st11" points="940.5,-573.5 970.6,-573.3 970.9,-571.4 971,-570.1 971,-569 940.7,-569.3 940.8,-571.3 			"/>
			<polygon class="st11" points="580.7,-559.3 547.2,-558.2 544.1,-556.4 541.4,-554.7 539.4,-553.5 573.8,-554.6 576.9,-556.8 			
				"/>
			<polygon class="st11" points="566.4,-547.4 528.1,-543.3 526.3,-540.9 525.3,-539.2 524.6,-538.1 563.6,-542.5 564.7,-544.7 			
				"/>
			<polygon class="st11" points="842.6,-603 850.2,-608.7 844.9,-608.9 840.6,-609.1 837.2,-609.1 829.3,-603.5 835.7,-603.3 			"/>
			<polygon class="st11" points="885.8,-598.7 902,-604.1 897.4,-604.7 893.8,-605.2 890.7,-605.6 874.8,-600.3 880.1,-599.5 			"/>
			<polygon class="st11" points="920.4,-589.9 944.4,-594 941.1,-595.1 938.6,-595.9 936.4,-596.7 912.7,-592.7 916.6,-591.4 			"/>
			<polygon class="st11" points="811,-603.6 811.4,-609.2 805.2,-609.1 800.9,-609 797.4,-608.9 796.8,-603.4 803.3,-603.5 			"/>
			<g>
				<path class="st12" d="M696.5-596.6l-6.3-3.4c35.7-5,61.5-7,78-6.1c13,0.7,15.7,2.9,16,3.2l-20.9,1.1c0,0,0,0,0,0
					c0,0,1.3-0.1-4.4-0.4C752.2-602.4,735.4-602.2,696.5-596.6z"/>
			</g>
			<g>
				<path class="st12" d="M590.6-567.3c-2.6-0.9-5.3-2.7-3.1-5.6c4.3-5.6,25.1-12.5,59.9-20.3l11.9,2.5c-36.4,8.4-47,13.5-49.3,16.3
					c-1.8,2.3-2.1,1,0.3,2.3c-2.3-1.1-0.8-0.4-0.8-0.4l-15.7,6.1C593.5-566.5,592.1-566.8,590.6-567.3z"/>
			</g>
		</g>
		<g>
			<path class="st8" d="M928.4-597.7c-5.5-1.4-11.3-2.6-17.5-3.8l-49.8-9.8l0,0c2.6,0.5,5.1,1.1,7.5,1.7
				c45.5,11.7,35.2,34.1-36.5,50.4c-82.5,18.8-194.3,18.8-231.9,0c-17.1-8.6-13.5-18.8,4.4-28.2L567-572.5v0
				c-48,18.3-69.5,40.7-42,60c53.3,37.3,239.9,37.3,369.7,0C998.2-542.3,1000-579.5,928.4-597.7z"/>
			<path class="st8" d="M857.3-611.9c-0.1,0-0.2,0-0.3-0.1C857.1-612,857.2-612,857.3-611.9z"/>
		</g>
		<g>
			<polygon class="st2" points="1433.3,-359.9 1350.9,-387.8 1334.2,-375.4 1418.1,-345.9 			"/>
			<polygon class="st13" points="1424,-372.1 1417,-365.8 1417,-350.4 1424,-356.9 			"/>
			<polygon class="st14" points="1342,-391.2 1417,-365.9 1417,-350.4 1342,-376.5 			"/>
			<g>
				<path class="st2" d="M1426.6-375l-9.4,9l-81.4-27l0.1,1.3c0,0.4,0.3,0.8,0.8,1l78.6,26.7c1.1,0.4,2.4,0.1,3.2-0.7l7.9-7.8
					c0.3-0.3,0.4-0.6,0.4-1L1426.6-375z"/>
				<path class="st7" d="M1336.9-391.6l78.1,26c1.2,0.4,2.6,0.1,3.5-0.8l7.4-7c0.9-0.9,0.6-2.4-0.6-2.8l-77.9-24.9
					c-0.7-0.2-1.4-0.1-2,0.3l-8.8,6.2C1335.4-393.8,1335.7-392.1,1336.9-391.6z"/>
			</g>
		</g>
		<path class="st15" d="M831.8-459.4"/>
		<polygon class="st10" points="1134.3,-536.3 1121.9,-539 1131.2,-542.9 1143.5,-540.2 		"/>
		<path class="st0" d="M308.4-594.5l37,2.3c0,0,80.2-17.4,111.1-21.8l3.8,0.8l33.9-5.6l-18.6-4.6
			C475.6-623.4,377.7-608.8,308.4-594.5z"/>
		<path class="st1" d="M311.6-595.4"/>
		<path class="st1" d="M420.9-623.5"/>
		<path class="st1" d="M850.3-660"/>
		<line class="st1" x1="260.6" y1="-593.5" x2="386.5" y2="-585.9"/>
		<line class="st1" x1="530.6" y1="-636.5" x2="559.7" y2="-624.8"/>
		<line class="st1" x1="475.3" y1="-580.9" x2="418" y2="-584.3"/>
		<path class="st1" d="M727-649.2"/>
		<path class="st1" d="M787.3-649.9"/>
		<path class="st1" d="M791.8-655.6"/>
		<line class="st9" x1="534.3" y1="-612.3" x2="579.5" y2="-602.4"/>
		<line class="st9" x1="463" y1="-628" x2="516" y2="-616.4"/>
		<line class="st9" x1="259.6" y1="-594.1" x2="485.7" y2="-580.5"/>
		<line class="st15" x1="753" y1="-582.4" x2="753" y2="-582.4"/>
		<path class="st8" d="M457.6-400.4l33.6,2.3c0,0,7.4,0.6-2.5,8.5c-10.2,8.2-28.3,24.1-28.3,24.1s-7.6,4.1-9.6,1.1
			c-2-3-14.7-22.4-14.7-22.4s-0.8-2.4,3.8-5.1c4.5-2.7,11.3-6.5,11.3-6.5S454.7-400.6,457.6-400.4z"/>
		<path class="st8" d="M491-418.4l-19.1,9.5c0,0-2.8,2,1,2.6c3.8,0.6,26.7,3,26.7,3s5.1,0.6,9.6-2.2c4.4-2.8,14.5-10.1,14.5-10.1
			s2.4-2.4-7.7-3C506-419,497.5-421.6,491-418.4z"/>
		<path class="st2" d="M573.4-602.7c0,0,0,0.8-4.9,1.9l0.5,0.2l8.9-1.7L573.4-602.7z"/>
		<path class="st2" d="M474.4-580.4c0,0,2.8,0.6-2.9,2.4l0.8,0.1l8.9-2.5L474.4-580.4z"/>
		<path class="st2" d="M480.7-581.6c0,0,4.7,0,10.8-1.7l1.1,0l-7.7,2.5L480.7-581.6z"/>
		<path class="st2" d="M331.2-530c0,0,5.6,0.1,1.6,2.7l1.5,0l7.1-3.8L331.2-530z"/>
		<path class="st2" d="M339-532.5c0,0,7-0.8,11.8-3.4l1.7-0.2l-5.2,3.6L339-532.5z"/>
		<path class="st2" d="M578.1-603.6c0,0,3.1,0.3,8.2-0.6l1.3,0.3l-9.6,1.4L578.1-603.6z"/>
		<path class="st11" d="M765.2-609.6"/>
		<path class="st16" d="M579.9-566.1"/>
		<path class="st17" d="M1717.5-552.3"/>
		<path class="st11" d="M710.7-592.5"/>
		<g>
			<g>
				<path class="st0" d="M1590.7-481.4l2.7-2.9l-12.6-2.7l0,0l-12.3-2.6l-2.4,2.9l-66-14.2l-33.8,28l36.1,23.5l-7.9,7.8l13.2,9.2
					l15.7,4.3l0,0l0.8,0.2l0.4,0.1l0,0l15.6,3.9l23.2,0l7.8-8.3l68.8,1.1l25.8-34.1L1590.7-481.4z M1611.9-440.9l-56-0.5l-17.6-3.9
					l-13.9-3.7l-31.2-20.1l24.8-20.3l35.6,7.7l-3,3.2l7.5,4.2l8,1.7l9.4,2l11.9,0.2l2.7-3.3l39.7,9L1611.9-440.9z"/>
			</g>
		</g>
		<path class="st0" d="M1337.3-524.1l-10-2.3c3.9-8.4-7.1-16.7-28.4-20.7c-18.7-3.5-41.5-3-59.6,0.8l-8-1.8l-29.7,11.4l9.5,2.3
			c-9,8.7-1.5,18.7,21.6,23.9c21.8,4.9,49.8,4,70.2-1.6l6.8,1.7L1337.3-524.1z"/>
		<path class="st9" d="M937.2-650.6c0,0,15.1-2.2,0.7-4"/>
		<path class="st18" d="M995.6-466.7"/>
		<path class="st18" d="M1014.7-459.5"/>
		<path class="st18" d="M990.6-468.3"/>
		<polygon class="st19" points="1191.6,-373.1 1184.2,-376 1189.2,-378.9 1196.5,-376 		"/>
		<polygon class="st20" points="986,-441.6 971.4,-447.6 986.8,-453.5 1001.4,-447.6 		"/>
		<polygon class="st20" points="1149.3,-374.4 1128.8,-382.8 1144,-390.9 1164.3,-382.8 		"/>
		<polygon class="st20" points="1014.4,-429.9 998.8,-436.3 1014.3,-442.5 1029.9,-436.3 		"/>
		<polygon class="st20" points="1044.8,-417.4 1028.1,-424.3 1043.6,-430.9 1060.2,-424.3 		"/>
		<polygon class="st20" points="1111.9,-389.8 1092.9,-397.6 1108.2,-405.2 1127.2,-397.6 		"/>
		<polygon class="st20" points="1077.2,-404.1 1059.4,-411.4 1074.8,-418.4 1092.6,-411.4 		"/>
		<path class="st1" d="M1395.7-305"/>
		<path class="st11" d="M705.9-163.2"/>
		<path class="st9" d="M1416.4-305.8"/>
		<path class="st9" d="M218.8-587.5c0,0-14.2,1.6-16.3,3.4c-2.1,1.8,1.5,3.3,1.5,3.3"/>
		<path class="st19" d="M1164-348.6"/>
		<g>
			<g>
				<path class="st0" d="M1528.3-563.1l-2-1.8c-19.3-15.3-41.2-30-150.8-49.9c-90.6-16.5-215.4-7.9-215.4-7.9s29,8.9,59.7,13.8
					c32.3,5.2,52.2,6.6,85.4,9.3c34.1,2.8,90.3,1.8,90.3,1.8c1.2,4.8,11.1,11.5,16.5,14.9c2.2,1.4,5,2.8,8.2,4.1
					c12.9,5.4,52.7,20.4,110.2,29.4c78.6,12.4,123.5,12.2,123.5,12.2C1612.2-552.1,1528.3-563.1,1528.3-563.1z M1298.3-605.5
					c-44.7-3.5-73.5-7.6-97.8-14.5c0,0,100.8-2.7,168,10c19.6,3.7,24.3,5.6,24.3,5.6S1357.6-600.8,1298.3-605.5z"/>
			</g>
		</g>
		<g>
			<g>
				<polygon class="st11" points="751.2,-480.2 843,-494.9 823.8,-515.2 803.6,-512.2 815.8,-498.2 769.2,-490.9 758.9,-505.5 
					737.4,-502.3 				"/>
			</g>
			<g>
				<polygon class="st11" points="955.8,-531.2 980.7,-552.5 926.7,-556.9 920.2,-552.3 957.8,-549.1 944.3,-538.2 905.3,-541.6 
					898,-536.4 				"/>
			</g>
			<path class="st10" d="M848.7-516l16.8,4.9c0,0,31.2-8.4,46.6-15.3l-19.5-3.3C892.6-529.7,881.3-522.7,848.7-516z"/>
			<polygon class="st11" points="881.5,-529.7 908.6,-525.1 913.1,-526.9 919.8,-529.8 893.1,-534.2 			"/>
			<polygon class="st11" points="849.4,-519.9 865.3,-511.2 859.3,-509.5 852.6,-507.8 849,-506.9 833.4,-515.8 			"/>
			<polygon class="st11" points="714,-500.5 703,-487.5 694.7,-487.2 687.2,-486.9 681.7,-486.7 693.8,-499.9 703.4,-500.1 			"/>
			<polygon class="st11" points="664.6,-500.2 639.5,-487.3 630.6,-487.8 624.1,-488.2 620,-488.5 646.1,-501.2 654.4,-500.6 			"/>
			<polygon class="st11" points="923.5,-576.1 951.3,-578 952.9,-576.6 954,-575.4 954.7,-574.4 926.9,-572.5 925.4,-574.2 			"/>
			<polygon class="st11" points="929.3,-567.3 958.5,-567 958.6,-565.2 958.7,-563.9 958.6,-562.8 929.2,-563.1 929.4,-565.1 			"/>
			<polygon class="st11" points="580.2,-553.2 547.8,-552.1 544.8,-550.3 542.1,-548.7 540.3,-547.4 573.6,-548.6 576.5,-550.8 			
				"/>
			<polygon class="st11" points="566.4,-541.5 529.3,-537.4 527.6,-535.1 526.7,-533.4 526,-532.3 563.7,-536.6 564.7,-538.8 			"/>
			<polygon class="st11" points="835.3,-596.6 842.9,-602.4 837.8,-602.6 833.5,-602.7 830.2,-602.8 822.4,-597.1 828.6,-596.9 			
				"/>
			<polygon class="st11" points="877.2,-592.3 893.2,-597.7 888.8,-598.4 885.3,-598.8 882.3,-599.2 866.5,-593.9 871.7,-593.2 			
				"/>
			<polygon class="st11" points="910.5,-583.6 934,-587.6 930.9,-588.8 928.5,-589.6 926.3,-590.3 903.1,-586.3 906.9,-585 			"/>
			<polygon class="st11" points="804.6,-597.3 805.2,-602.9 799.1,-602.8 794.9,-602.7 791.4,-602.6 790.8,-597 797.1,-597.2 			"/>
			<g>
				<path class="st12" d="M692.9-590.3l-6.1-3.3c34.8-5,60-7,76.1-6c12.6,0.7,15.2,2.9,15.5,3.2l-20.4,1.1c0,0,0,0,0,0
					c0,0,1.3-0.1-4.3-0.4C747.3-596.1,730.9-595.8,692.9-590.3z"/>
			</g>
			<g>
				<path class="st12" d="M589.8-561.1c-2.5-0.9-5.2-2.7-3-5.5c4.2-5.5,24.4-12.4,58.4-20.2l11.6,2.4c-35.4,8.3-45.8,13.4-48,16.2
					c-1.8,2.3-2.1,1,0.3,2.3c-2.2-1.1-0.8-0.4-0.8-0.4l-15.2,6.1C592.6-560.3,591.2-560.6,589.8-561.1z"/>
			</g>
			<path class="st0" d="M404.9-509.4l-14,1.6l6.3-8l-47.5,4.8c0,0,12.7-12.7,25.4-19.4l42.5-2.4l5.9-4.1l-39.9,1.6
				c0,0,20.4-11.3,35.8-17l34.8,0.1c0,0,21.6-9.6,31.1-12.4l-29.2-1.5c0,0,36-11.5,42.6-13l24.6,2.4l10.3-2.8l-22.6-2.8l19.9-5.1
				l15.5-3.6l9.5-2l18.1,3.5l19.3-4.2l17.7-3.5l-14.4-4.1l17.1-3l17-2.8l11-1.6l10.4,4.4l10.7-1.7l-9.5-4.4l11.7-1.6l18.6-2.3
				c0,0,14-1.6,14.2-1.6c0.2,0,6.6,4.7,6.6,4.7l20.1-2.1l16.6-1.4l-3-4.9l1.6-0.2l22.1-1.6l19.5-1l0.1,4.9l2.6,0l7.6-0.4l0.5-0.8
				l0.5-4.3l4.9-0.2l22.6-0.6l14.7-0.2l-4,5.1l2.3,0l32.1,0.2l7.2-5l14.5,0.4l24.6,1.3l-9.9,4.9l5,0.5l4.1,0.2l11.1-4.9l19.4,1.8
				l17.6,2l-14.7,4.7l0.6,0.2l24.3,3.8l2.7,0.7l18.4-4.4l18.8,3.9l12.1,3.1l-21.8,3.9l6.3,1.9l8.2-1.3l14.8-2.4l11,3.6l14.3,5.8
				l-18,2l-8.2,1.1l8.5,4.5l-8.5,0.8c0,0-21.5-13.5-58.3-20.5c-34.5-6.5-66.5-10.5-122.7-11c-56-0.4-93.3,2.9-124.3,5.7
				c-32,3-84.7,10.6-109.4,15.6c0,0-63.8,12.5-94.5,23.3c-9.2,3.2-17.6,5.6-23.8,7.8c-16.5,6-25.8,9.6-41.4,17.4
				c-23.4,11.7-34.7,21.5-35,22.6c-0.4,1.1-11.3,10-11.4,13.2l-1.1,1.6L404.9-509.4z"/>
		</g>
		<polygon class="st13" points="1188,-357.1 1184.4,-409.2 1203,-366.4 		"/>
		<path class="st21" d="M1252.5-447"/>
		<polygon class="st13" points="1280.7,-410.9 1268.6,-403.5 1260.5,-449 		"/>
		<polygon class="st13" points="1242.2,-423.9 1229.8,-417 1225.2,-460.1 		"/>
		<polygon class="st13" points="1206.1,-436.2 1193.5,-429.7 1190.2,-471.1 		"/>
		<polygon class="st13" points="1140.5,-458.4 1127.6,-452.6 1125,-491.5 		"/>
		<polygon class="st13" points="1110.6,-468.5 1097.6,-463.1 1094.6,-501.1 		"/>
		<polygon class="st13" points="1172.3,-447.6 1159.5,-441.5 1155.2,-482.1 		"/>
		<g>
			<polygon class="st2" points="1349.7,-284.8 1259.7,-322.5 1242.4,-309.7 1333.5,-270 			"/>
			<polygon class="st13" points="1341,-298.7 1331,-290.2 1331,-275.9 1341,-284.6 			"/>
			<polygon class="st14" points="1252,-323.7 1331,-290.2 1331,-275.9 1252,-310.3 			"/>
			<g>
				<path class="st2" d="M1342.6-298.4l-10.4,8.5L1251-324v1.3c0,0.5,0.3,0.9,0.7,1.1l78.5,33.6c1.1,0.5,2.4,0.3,3.4-0.5l8.7-7.4
					c0.3-0.2,0.4-0.6,0.4-1L1342.6-298.4z"/>
				<path class="st7" d="M1252.1-322.6l77.9,32.9c1.2,0.5,2.6,0.3,3.6-0.5l8.1-6.6c1-0.8,0.8-2.4-0.4-2.9l-77.9-31.7
					c-0.7-0.3-1.5-0.2-2.1,0.2l-9.5,5.6C1250.7-324.9,1250.8-323.2,1252.1-322.6z"/>
			</g>
		</g>
		<g>
			<polygon class="st0" points="355.2,-452.1 327.2,-491.7 529.1,-531.7 575,-501.9 			"/>
			<g>
				<g>
					<polygon class="st22" points="374.6,-456.5 344.8,-495.2 327.2,-491.7 355.2,-452.1 					"/>
					<polygon class="st22" points="412,-465 378.8,-501.9 362.4,-498.7 394,-460.9 					"/>
					<polygon class="st22" points="447.7,-473.1 411.4,-508.4 395.3,-505.2 430.1,-469.1 					"/>
					<polygon class="st22" points="481.7,-480.8 442.7,-514.6 427.2,-511.5 464.9,-477 					"/>
					<polygon class="st22" points="513.7,-488 472.1,-520.4 457.8,-517.6 498.2,-484.5 					"/>
					<polygon class="st22" points="545,-495.1 501.1,-526.2 487.5,-523.5 530.4,-491.8 					"/>
					<polygon class="st22" points="575,-501.9 529.2,-531.6 515.5,-528.9 560.3,-498.6 					"/>
				</g>
			</g>
			<polygon class="st15" points="359.1,-454.4 332.5,-491.3 526.2,-529.9 569,-501.8 			"/>
			<polygon class="st15" points="351.1,-466.1 339.7,-481.8 370.7,-488.2 383.3,-473.1 			"/>
			<polygon class="st15" points="531.1,-505.2 513.6,-517.6 537.5,-522.5 555.7,-510.6 			"/>
			<line class="st15" x1="437.3" y1="-512.2" x2="473.4" y2="-480.2"/>
			<path class="st15" d="M460.9-491.2c-14.7,3.2-29.5,3.2-32.8,0c-3.2-3.1,6-8.1,20.3-11.1c14-2.9,28-2.9,31.6,0
				C483.7-499.3,475.3-494.4,460.9-491.2z"/>
		</g>
		<path class="st23" d="M635.3-477.5"/>
		<g>
			<defs>
				<rect id="SVGID_1_" x="553.3" y="-715.9" width="357.1" height="170.3"/>
			</defs>
			<clipPath id="SVGID_2_">
				<use xlink:href="#SVGID_1_"  style="overflow:visible;"/>
			</clipPath>
		</g>
		<polygon class="st7" points="1263,-400.7 1263,-406.9 1265,-408.5 1265,-401.9 		"/>
		<polygon class="st13" points="1263,-400.7 1263,-406.9 1261,-408.1 1261,-401.4 		"/>
		<polygon class="st7" points="1185,-352.7 1185,-358.9 1187,-360.5 1187,-353.9 		"/>
		<polygon class="st13" points="1185,-352.7 1185,-358.9 1183,-360.1 1183,-353.4 		"/>
		<polygon class="st7" points="1146,-368.7 1146,-374.9 1148,-376.5 1148,-369.9 		"/>
		<polygon class="st13" points="1146,-368.7 1146,-374.9 1144,-376.1 1144,-369.4 		"/>
		<polygon class="st7" points="1111,-383.7 1111,-389.9 1113,-391.5 1113,-384.9 		"/>
		<polygon class="st13" points="1111,-383.7 1111,-389.9 1109,-391.1 1109,-384.4 		"/>
		<polygon class="st7" points="1075,-398.7 1075,-404.9 1077,-406.5 1077,-399.9 		"/>
		<polygon class="st13" points="1075,-398.7 1075,-404.9 1073,-406.1 1073,-399.4 		"/>
		<polygon class="st7" points="1044,-411.7 1044,-417.9 1046,-419.5 1046,-412.9 		"/>
		<polygon class="st13" points="1044,-411.7 1044,-417.9 1042,-419.1 1042,-412.4 		"/>
		<polygon class="st7" points="1013,-424.7 1013,-430.9 1015,-432.5 1015,-425.9 		"/>
		<polygon class="st13" points="1013,-424.7 1013,-430.9 1011,-432.1 1011,-425.4 		"/>
		<polygon class="st7" points="984,-436.7 984,-442.9 986,-444.5 986,-437.9 		"/>
		<polygon class="st13" points="984,-436.7 984,-442.9 982,-444.1 982,-437.4 		"/>
		<polygon class="st7" points="1225,-413.7 1225,-419.9 1227,-421.5 1227,-414.9 		"/>
		<polygon class="st13" points="1225,-413.7 1225,-419.9 1223,-421.1 1223,-414.4 		"/>
		<polygon class="st7" points="1190,-426.7 1190,-432.9 1192,-434.5 1192,-427.9 		"/>
		<polygon class="st13" points="1190,-426.7 1190,-432.9 1188,-434.1 1188,-427.4 		"/>
		<polygon class="st7" points="1155,-438.7 1155,-444.9 1157,-446.5 1157,-439.9 		"/>
		<polygon class="st13" points="1155,-438.7 1155,-444.9 1153,-446.1 1153,-439.4 		"/>
		<polygon class="st7" points="1125,-449.7 1125,-455.9 1127,-457.5 1127,-450.9 		"/>
		<polygon class="st13" points="1125,-449.7 1125,-455.9 1123,-457.1 1123,-450.4 		"/>
		<polygon class="st7" points="1095,-459.7 1095,-465.9 1097,-467.5 1097,-460.9 		"/>
		<polygon class="st13" points="1095,-459.7 1095,-465.9 1093,-467.1 1093,-460.4 		"/>
		<polygon class="st7" points="1067,-468.7 1067,-474.9 1069,-476.5 1069,-469.9 		"/>
		<polygon class="st13" points="1067,-468.7 1067,-474.9 1065,-476.1 1065,-469.4 		"/>
		<polygon class="st14" points="1260.5,-449 1247.3,-410.9 1268.6,-403.5 		"/>
		<polygon class="st14" points="1094.6,-501.1 1082.1,-468.5 1097.6,-463.1 		"/>
		<polygon class="st14" points="1125,-491.5 1111.2,-458.4 1127.6,-452.6 		"/>
		<polygon class="st14" points="1155.2,-482.1 1142.1,-447.6 1159.5,-441.5 		"/>
		<polygon class="st14" points="1190.2,-471.1 1174.9,-436.2 1193.5,-429.7 		"/>
		<polygon class="st14" points="1225.2,-460.1 1209.9,-423.9 1229.8,-417 		"/>
		<polygon class="st14" points="1184.4,-409.2 1166,-365.9 1188,-357.1 		"/>
		<polygon class="st14" points="1145.6,-422.6 1148,-373.1 1128,-381.3 		"/>
		<polygon class="st14" points="1110.5,-435.6 1110.9,-388.8 1091.9,-396.6 		"/>
		<polygon class="st14" points="1075,-448.3 1076.2,-403.1 1058.4,-410.4 		"/>
		<polygon class="st14" points="1042.8,-459.8 1044,-416.1 1027.1,-423.3 		"/>
		<polygon class="st14" points="1011.7,-470.9 1014,-429 998,-435.2 		"/>
		<polygon class="st13" points="1145.6,-422.6 1163.3,-381.8 1148,-373.1 		"/>
		<polygon class="st13" points="1110.5,-435.6 1126.2,-396.6 1110.9,-388.8 		"/>
		<polygon class="st13" points="1075,-448.3 1091.6,-410.4 1076.2,-403.1 		"/>
		<polygon class="st13" points="1042.8,-459.8 1059.2,-423.3 1044,-416.1 		"/>
		<polygon class="st13" points="983.3,-481.1 1000.4,-446.6 985,-440.7 		"/>
		<polygon class="st14" points="983.3,-481.1 985,-440.7 970.4,-446.6 		"/>
		<polygon class="st13" points="1082.4,-478.1 1069.3,-473 1066.9,-510 		"/>
		<polygon class="st14" points="1066.9,-510 1054.7,-478.1 1069.3,-473 		"/>
		<polygon class="st13" points="1011.7,-470.9 1028.2,-435.6 1014,-429 		"/>
		<polygon class="st0" points="1031.7,-378.5 920.3,-429.9 692.2,-343.8 729.2,-314.6 717.5,-309.8 739.9,-291.6 751.8,-296.8 
			794,-263.6 		"/>
		<g>
			<text transform="matrix(1 0 0 1 1513.2871 -190.7302)" class="st0" style="font-family:'OsnovaProLight'; font-size:13px;">Переход на сайт zenit-fc</text>
		</g>
		<text transform="matrix(1 0 0 1 1513.287 -245.0735)" class="st0" style="font-family:'OsnovaProMedium'; font-size:24px;">Купить билеты</text>
		<g>
			<line class="st1" x1="1761.8" y1="-251.3" x2="1775.8" y2="-251.3"/>
			<circle class="st1" cx="1757.8" cy="-251.3" r="4"/>
			
				<rect x="1777" y="-254.1" transform="matrix(0.7071 0.7071 -0.7071 0.7071 343.6225 -1332.1322)" class="st1" width="5.7" height="5.7"/>
		</g>
		<g>
			<g>
				<line class="st24" x1="1753.3" y1="-194.8" x2="1753.8" y2="-194.8"/>
				<line class="st25" x1="1762" y1="-194.8" x2="1914.7" y2="-194.8"/>
				<line class="st24" x1="1918.8" y1="-194.8" x2="1919.3" y2="-194.8"/>
			</g>
		</g>
		<path class="st0" d="M1363.2-139.8l-8.1-41.9c0,0-13.9-43.2-74.4-63.4c-56.5-18.8-103.7-16.3-129.3,1.9l-0.6,0.5l-85.1,65.9
			c0,0-15.4,15.3-17.6,37H1363.2z"/>
		<polygon class="st7" points="1917,-462.9 1917,-461.2 954,-644.1 954,-644.9 		"/>
		<polygon class="st13" points="954,-644.1 928.4,-639.9 926,-640.3 954,-644.9 		"/>
		<g id="Perspective_Text">
			<g>
				<path class="st7" d="M829.1-318.6c0,0-3.9,0.8-4.4,1c-2.7,1.2-2.4,2.2-0.9,3.2c1.4,1,3.6,1.2,5.8,0.2c2.6-1.2,3.2-2.8,3.2-2.8
					l3.2,0.2c0,0,0.7,2.1-4.1,4.3c-5.3,2.4-9.6,2-12.4,0.1c-2.8-1.9-2.4-4.4,2.7-6.7c4.1-1.8,6.8-1.4,6.8-1.4L829.1-318.6z"/>
				<path class="st7" d="M852.2-322.2l-4,1.8l-3.8-2.5l-1.1-0.8l-0.1,0l-0.3,5.3l0.1,0.3l-3.9,1.8l-9.2-6.1l4-1.8l3.8,2.5l1,0.8
					l0.1,0l0.4-5.3l-0.1-0.3l3.8-1.7L852.2-322.2z"/>
				<path class="st7" d="M857.4-332.1l-5,2.2l1.2,0.8l0.9-0.4c4-1.8,6.8-2.2,8.7-1c1.9,1.2,1.3,2.7-2.9,4.7l-5.1,2.3l-9.2-5.9l9.1-4
					L857.4-332.1z M855.5-327.8l1.7,1.1l0.7-0.3c1.5-0.7,2.1-1.2,1.4-1.6c-0.7-0.4-1.7-0.1-3.1,0.5L855.5-327.8z"/>
				<path class="st7" d="M869.3-335.3l-2.2-3.5l4.2-1.9l2.5,5.9c0.9,2.2-0.3,3.3-2.3,4.2c-1.7,0.8-2.6,0.8-2.6,0.8l-2.1-1.3
					c0,0,0.8-0.2,1.8-0.7c0.6-0.3,0.9-0.6,1-0.9l-12.3-1.8l4.5-2L869.3-335.3L869.3-335.3z"/>
				<path class="st7" d="M872.5-341.2l5-2.2c3.4-1.5,6.3-1.7,8.6-0.4c2.4,1.4,0.6,3.3-1.8,4.4l-1.4,0.6l2.6,1.6l-3.7,1.7
					L872.5-341.2z M878.3-341.5l2.4,1.4l0.7-0.3c1.2-0.5,1.8-1.1,0.8-1.6c-1-0.6-2.1-0.3-3.2,0.2L878.3-341.5z"/>
				<path class="st7" d="M896.5-345.2l-6.5,2.9l-2.2-1.3l6.5-2.9L896.5-345.2z"/>
				<path class="st7" d="M900-353.4l13.5,3.5l-3.8,1.7l-2.3-0.6l-4.4,2l0.9,1.2l-3.8,1.7l-5.2-7.3L900-353.4z M899.5-351.1l2.4,2.8
					l2.8-1.3L899.5-351.1L899.5-351.1z"/>
				<path class="st7" d="M905.7-356l4.7-2.1c3.2-1.4,6-1.6,8.3-0.4c2.5,1.4,0.8,3.1-1.4,4.1l-1.3,0.6l2.7,1.5l-3.4,1.6L905.7-356z
					 M911.3-356.3l2.4,1.3l0.6-0.3c1.1-0.5,1.6-1,0.7-1.5c-1-0.5-2.1-0.3-3.1,0.2L911.3-356.3z"/>
				<path class="st7" d="M934.9-359.7l-8.7,3.9l-9.4-5.2l8.5-3.8l2.3,1.2l-4.9,2.2l1.2,0.7l4.2-1.9l2.3,1.2l-4.2,1.9l1.3,0.7
					l5.1-2.3L934.9-359.7z"/>
				<path class="st7" d="M947.7-365.5l-3.5,1.6l-3.7-1.9l-3.7,1.7l3.7,1.9l-3.5,1.6l-9.4-5l3.5-1.6l3.5,1.9l3.7-1.7l-3.5-1.9
					l3.5-1.5L947.7-365.5z"/>
				<path class="st7" d="M948-374.8l13.2,3.1l-3.5,1.6l-2.2-0.5l-4,1.8l1,1.1l-3.5,1.6l-5.7-6.6L948-374.8z M947.8-372.7l2.5,2.5
					l2.6-1.2L947.8-372.7L947.8-372.7z"/>
			</g>
		</g>
		<path class="st8" d="M626-361.1l16-40.9c2.8-7.1-2.4-14.9-10-15l-60.3-1.4c-7.3-0.2-14.4,2.9-19.2,8.4l-85.2,96
			c-6.2,6.9,1,17.6,9.7,14.4l134.9-47.7C618.3-349.6,623.4-354.6,626-361.1z"/>
		<path class="st8" d="M661.5-406l-11.7,36.5c-1.8,4,2,8.2,6.1,6.7l71.5-24.9c4.9-1.7,7.1-7.5,4.5-12l-8.1-14.1
			c-2.4-4.1-6.9-6.5-11.7-6.1l-34.2,1.9C670-417.5,664.9-413.3,661.5-406z"/>
		<path class="st8" d="M741.4-415l7.1,11.8c2.6,4.2,7.8,6.1,12.5,4.4l94.6-33.7c3.3-1.2,2.1-6.1-1.4-5.6l-109,15
			C741.5-422.6,739.4-418.3,741.4-415z"/>
		<path class="st23" d="M762.5-554.4"/>
		<path class="st8" d="M1059.3-509.1c1.6-1.5,4.4-4.3,6.2-6.1c0.9-0.9,2.2-1.3,3.4-1l4.8,1c0.8,0.2,1.6-0.2,2.1-0.8l4.4-5.9
			c0.4-0.5,0.1-1.2-0.5-1.2l-4.4-0.7c-0.8-0.1-1.2-1.1-0.7-1.7c1.2-1.6,3-4.1,4-5.6c1.5-2.4,4.2-3.8,7-3.6l44.2,2.9
			c1.6,0.1,1.9,2.4,0.4,2.9l-68.4,23.9C1059.3-504.2,1057.4-507.3,1059.3-509.1z"/>
		<path class="st8" d="M1083.4-542.9c0.2-1,0.4-2.3,0.4-3.9c0-1.4,1.2-2.6,2.6-2.5l88.1,1.8c1.7,0,2,2.4,0.5,2.9l-20.2,7
			c-2.6,0.9-5.3,1.3-8,1.1l-60.8-3.3C1084.3-539.9,1083.1-541.4,1083.4-542.9z"/>
		<path class="st8" d="M1079.7-562.6c1.2,1.8,2.9,4.6,3.7,7.4c0.5,1.7,2.1,2.8,3.8,2.8l101,1.3c3.2,0,6.4-0.5,9.5-1.6l41-14.6
			c0.8-0.3,0.6-1.4-0.3-1.4l-157.7,4C1079.7-564.6,1079.1-563.4,1079.7-562.6z"/>
		<path class="st7" d="M536-449.9"/>
		<path class="st23" d="M751.5-561.4"/>
		<polygon class="st0" points="533,-433.9 533,-449.9 469.5,-459.4 469.5,-443.4 		"/>
		<polygon class="st0" points="640.3,-431.3 640.3,-447.1 726,-452.3 726,-436.7 		"/>
		<polyline class="st0" points="739.1,-437.6 739.1,-453.5 822.9,-465.2 822.9,-449.4 737.8,-437.5 		"/>
		<polygon class="st0" points="836.7,-451.7 836.7,-467.7 908.2,-483.8 908.2,-467.5 		"/>
		<polygon class="st0" points="1059.2,-542.9 1059.2,-558.9 1062,-572.9 1062,-561.9 		"/>
		<path class="st26" d="M638.8-445"/>
		<polygon class="st13" points="726,-435.9 729,-449.8 729,-464.9 726,-452.3 		"/>
		<polygon class="st7" points="498.5,-470.4 469.5,-459.4 533,-449.9 556,-462.9 		"/>
		<polygon class="st7" points="652.7,-459.4 640,-446.9 726,-451.9 729,-464.9 		"/>
		<polygon class="st7" points="815.4,-476.4 822.9,-465.2 738.5,-453.6 740.4,-466.9 		"/>
		<polygon class="st7" points="827,-478.9 836.7,-467.7 908.2,-483.8 892,-492.8 		"/>
		<polygon class="st13" points="533,-449.9 533,-433.9 556,-447.6 556,-462.9 		"/>
		<polygon class="st0" points="625.2,-431 625.2,-447 544.3,-449.9 544.3,-433.1 		"/>
		<polygon class="st7" points="544,-449.9 566.4,-462.4 639,-459.9 625,-446.9 		"/>
		<polygon class="st13" points="625,-430.9 639,-444.9 639,-459.9 625,-446.9 		"/>
		<polygon class="st13" points="976,-519.9 976,-504.9 1000,-498.9 1000,-514.9 		"/>
		<polygon class="st13" points="1019.9,-539.7 1019.9,-523.9 1039,-520.9 1039,-536.9 		"/>
		<polygon class="st0" points="1000.1,-498.8 1000.1,-515.2 1033.4,-532.8 1033.4,-517 		"/>
		<polygon class="st7" points="976,-519.9 1013,-535.9 1033.4,-532.8 1000.1,-515.2 		"/>
		<polygon class="st13" points="827,-478.9 827,-463.9 837,-451.9 837,-467.9 		"/>
		<polygon class="st13" points="1039,-543.9 1059,-542.9 1059,-558.9 1039,-558.9 		"/>
		<polygon class="st0" points="1039.4,-521.1 1039.4,-537.3 1056.5,-554.2 1056.5,-538 		"/>
		<polygon class="st7" points="1020,-539.9 1037,-553.9 1056,-553.9 1039,-536.9 		"/>
		<polygon class="st7" points="1038,-602.9 1052.1,-592.9 1035,-590.9 1022,-600.9 		"/>
		<polygon class="st0" points="1022,-600.9 1022,-585.7 1034.8,-574.9 1034.8,-590.9 		"/>
		<polygon class="st13" points="1042,-574.9 1061.2,-576.3 1061.2,-572.9 1042,-569 		"/>
		<polygon class="st13" points="1035,-590.9 1035,-574.9 1052.5,-574.9 1052.5,-592.9 		"/>
		<polygon class="st7" points="1036,-586.9 1042,-574.9 1061.8,-576.5 1055.4,-589 		"/>
		<polygon class="st0" points="1036,-586.9 1036,-572.5 1042,-561.9 1042,-574.9 		"/>
		<polygon class="st7" points="1062.2,-573.5 1042,-572.9 1039,-558.9 1059,-558.9 		"/>
		<path class="st2" d="M829.1-557.7c-83.6,19.7-195.1,19.8-231.5,0.1c-31.6-17.1,12.6-40.5,86.8-52.9c66.3-11,144.4-11,184.4,0
			C913.5-598.2,901.6-574.8,829.1-557.7z"/>
		<path class="st0" d="M872.9-628.3c4.1-6.6-3-12.7-21.3-17.1c-35.7-8.6-106.9-8.6-166.6,0c-53.6,7.7-87.9,20.8-82.9,32.2l-0.4,0
			l21.1,37.7c0.3,1.4,1.1,2.8,2.3,4.1l0,0l0,0c1.2,1.3,2.9,2.6,5.1,3.8l0.4,0.3l0.1,0c0.6,0.3,1.3,0.7,2,1
			c30.3,14.4,114.1,14.4,177.6,0c35.5-8.1,53.5-18.3,53.7-27.3l0,0L872.9-628.3z"/>
		<path class="st0" d="M101-464.9c0,0,280-174,531-178l-12,10c0,0-281,18.3-519,218.1V-464.9z"/>
		<path class="st7" d="M101-406.9c0,0,250.2-201.2,514.1-221.1v-7.4c0,0-254.1,12.5-514.1,215.5V-406.9z"/>
		<path class="st2" d="M822.4-611.7c-80.2,14.2-187.6,14.2-223.5,0C567.7-624,609.5-641,681.1-650c64.2-8.1,140.3-8.1,179.3,0
			C903.8-641,892.4-624,822.4-611.7z"/>
		<path class="st27" d="M1058.5-631.8"/>
	</g>
	<g>
		<g>
			
				<image style="overflow:visible;opacity:0.15;" width="97" height="96" xlink:href="C5DA8823.png"  transform="matrix(1 0 0 1 -253.5091 -1064.949)">
			</image>
			<g>
				<circle class="st2" cx="-207.7" cy="-1020" r="26.9"/>
			</g>
		</g>
		<g>
			<circle class="st5" cx="-207.5" cy="-1019.9" r="9"/>
			<line class="st5" x1="-207.5" y1="-1014.9" x2="-207.5" y2="-1020.9"/>
			<line class="st5" x1="-207.5" y1="-1022.9" x2="-207.5" y2="-1024.9"/>
		</g>
	</g>
	<polygon class="st2" points="1921,238.9 1921,226.6 933.6,46.7 876.5,55.2 923.4,64.5 934.9,62.6 929.3,61.6 957.6,56.9 	"/>
	<path class="st2" d="M1064.2,70.1c20.8,3.9,41.8,2.9,61.8,1.9s87-3.1,102-3.1s105.4,7.2,133.7,10.1c28.3,3,97.9,14.7,152.3,25
		s104.6,26.9,147,44c57,23,76,45,144,58c46.8,9,116,33,116,33L1064.2,70.1z"/>
	<path class="st2" d="M994.9,74.9l-287.5-5.6c0,0-6.2-3.9-17.3-6c-11-2-20.3-4.6-20.3-4.6c29.7-8.1,139.1-22.1,139.1-22.1l3,4.9
		c0,0,27.3-4.9,37.4-2.9c17.1,3.5-6.4,8-6.4,8l42.9-0.9l3.5-1.6l27.1,0.5l0.2,0.3c0,0,6.9,5,12,5.6c4.1,0.5,17.1,0,22.3-0.3
		c-3.4-0.8-5.4-1.3-5.4-1.3l48.4-10c0,0,49.1,10.5,55.1,11.4c6,0.9,12.1,1.7,17,0.7c4.8-1,2.9-2,2-2.5c-1-0.6-54.7-11.3-54.7-11.3
		s7.2-2.3-9.5-5.2c-16.2-2.8-55.9-7.7-55.9-7.7l-1.1-1.1l-0.5-0.7L880.2,21c0,0-177.9-1.8-437.6,40.3
		c-56.5,9.2-192.1,38.2-192.1,38.2s-24,6-39.5,4.9c-15.3-1.1-44.2-9.8-162.2,9.1c-18,2.9-34.3,5.8-48.9,8.7v62.5l220.5,52.9
		c0,0-18.4,22-14.2,34.2c4.5,13,0,23.3-16.6,36.4c-5.5,4.3-6.1,10.5-6.1,10.5L0,366.1v196h1920v-301L994.9,74.9z"/>
	<path class="st0" d="M1261.8,140.6l659.1,140.1l0.1-5.2l-656.9-137.8c-10.4-2.4-15.6,0-15.6,0L70.8,562.1l43.5-0.1l521.4-192.4
		c8-2.2,13.2,1,17.5,4.8c4.7,4.2,212.7,187.6,212.7,187.6h41.4L673.2,366.9c-7-6.1,2.1-11.8,12.4-15.7L916.6,266
		c12.5-3.9,21.1,1,21.1,1l148.7,66.8l2.2,1c1.9,0.8,1.9,3.4,0.1,4.4c-1.2,0.6-2.6,0.7-3.8,0.2l-12.4-5.4c-0.8-0.3-1.6-0.3-2.4,0.1
		l-4.5,2.3l-242,124.7c-5.2,2.7-6,9.9-1.4,13.6l107.5,87.3h39l226.6-158.6c4.7-3.3,4.5-10.1,0.1-13.3c0-0.1,0-0.1,0-0.2l-0.8-0.4
		c-0.2-0.1-0.4-0.2-0.6-0.3l-1.7-0.8c-1.4-0.9-1.5-3,0-4c1.8-1.2,4-1.4,5.9-0.5l13.8,6.2l1,0.5l95,42.8v-0.1l46.9,20.7l0-0.1
		c0,0,8.7,3.9,26.3,11.7s33.3,6.1,42.8-4.9c6.9-8,40.5-45.8,58.1-65.7c0,0,15.6-17.7,18.1-20.6s10.2-16.9-7.5-22.8
		c-17.1-5.6-18.2-6-18.3-6c-116.6-38.5-393.5-129.8-397.8-131.2c-5.3-1.7-6.2-4.9-2-6.8l7-2.6c0.1,0,0.1-0.1,0.1-0.1l0,0l174-64.2
		C1259.5,139.8,1261.8,140.6,1261.8,140.6z M1173.1,376.6c-1.8,1.1-4,1.3-5.9,0.5l-60.7-27.6c-1.8-0.9-1.8-3.4-0.1-4.3
		c1.5-0.8,3.2-0.9,4.8-0.2l11.8,5.3l47.8,21.5l2.1,0.9C1174.5,373.4,1174.6,375.7,1173.1,376.6z M1472.6,354.9l-0.1,0
		c0.5,0.2,2.5,0.8,10,3.4c11.9,4,5.5,12.1,5.5,12.1s-67.7,73.7-72.5,79.5c-4.8,5.8-12,9.3-23.6,4.3L950.6,262.1
		c-9.6-4-2.7-7.5,0.2-8.7l95.3-35.2c0,0,0,0,0,0c5.4-2,14.6-2.2,20.9,0L1472.6,354.9z"/>
	<polygon class="st7" points="1,184.7 222,237.7 222,241.1 1,188.3 	"/>
	<path class="st0" d="M1,366.1l183.6-47.2c0,0-2.2-9,16.3-19.5s4.3-22.4,6-34.7c1.8-12.3,12.5-24.2,12.5-24.2L1,188.3V366.1z"/>
	<path class="st8" d="M996.7,248l231.9,92.1c0.5,0.2,1.1,0.2,1.6-0.2l28.1-18.1c1.2-0.8,1-2.7-0.3-3.2l-230.8-85
		c-0.4-0.1-0.8-0.1-1.2,0l-29.2,11C995.2,245.3,995.2,247.4,996.7,248z"/>
	<path class="st8" d="M1194.2,362.1L960.1,261.5c-1.5-0.6-1.4-2.7,0.1-3.3l19.5-7.4c0.4-0.2,0.9-0.2,1.3,0l234.2,95.4
		c1.3,0.5,1.5,2.4,0.3,3.2l-19.6,12.6C1195.4,362.3,1194.7,362.4,1194.2,362.1z"/>
	<path class="st8" d="M1275.1,310.9l-228.9-81.5c-1.6-0.6-1.6-2.8,0-3.3l15.1-5.7c0.4-0.1,0.8-0.2,1.2,0l228.5,77.8
		c1.4,0.5,1.6,2.4,0.4,3.2l-14.6,9.4C1276.2,311.1,1275.6,311.1,1275.1,310.9z"/>
	<path class="st8" d="M934.9,62.6L923,60.1l-15.8,0.5l-26.7-0.4l-3.5,1.4l-42.4,0.8c0,0,23.3-3.8,6.5-6.7c-10-1.7-37,2.4-37,2.4
		l-2.9-4.1c0,0-108.2,11.9-137.5,18.7c0,0,9.2,2.2,20,3.9c11,1.7,17.1,5,17.1,5l222.6-17l997.6,206v-9.5L934.9,62.6z"/>
	<polyline class="st9" points="795.9,46.3 795.9,46.3 797.4,44.3 773.2,75.5 	"/>
	<path class="st9" d="M997.9,84.6c-93.6-18-250.5-13.4-387.3,10.1C480.4,117,339.3,161.1,291.4,207.1c-1.2,1.2-2.2,2.3-2.8,3.4
		l-7.8,12.9"/>
	<g>
		<path class="st10" d="M863.4,180.5l17.6,5c0,0,32-8.5,47.7-15.6l-20.3-3.3C908.4,166.5,897,173.6,863.4,180.5z"/>
		<polygon class="st11" points="896.8,166.5 925.2,171.2 929.7,169.4 936.5,166.5 908.6,161.9 		"/>
		<polygon class="st11" points="863.9,176.5 880.9,185.4 874.7,187.1 867.8,188.9 864,189.8 847.5,180.7 		"/>
		<polygon class="st11" points="724,196.4 712.8,209.7 704.1,210.1 696.3,210.3 690.6,210.5 702.9,197 712.9,196.8 		"/>
		<polygon class="st11" points="672.5,196.7 646.6,209.9 637.3,209.5 630.6,209 626.3,208.7 653.3,195.7 661.9,196.3 		"/>
		<polygon class="st11" points="938.2,119.6 966.7,117.6 968.4,119.1 969.6,120.3 970.4,121.2 941.8,123.2 940.2,121.5 		"/>
		<polygon class="st11" points="944.5,128.5 974.6,128.7 974.9,130.6 975,131.9 975,133 944.7,132.6 944.8,130.7 		"/>
		<polygon class="st11" points="584.7,142.7 551.2,143.8 548.1,145.6 545.4,147.3 543.4,148.5 577.8,147.4 580.9,145.1 		"/>
		<polygon class="st11" points="570.4,154.6 532.1,158.7 530.3,161.1 529.3,162.8 528.6,163.9 567.6,159.5 568.7,157.3 		"/>
		<polygon class="st11" points="846.6,99 854.2,93.2 848.9,93 844.6,92.9 841.2,92.9 833.3,98.5 839.7,98.7 		"/>
		<polygon class="st11" points="889.8,103.3 906,97.9 901.4,97.3 897.8,96.8 894.8,96.4 878.8,101.7 884.1,102.4 		"/>
		<polygon class="st11" points="924.4,112.1 948.4,108 945.1,106.9 942.6,106 940.4,105.3 916.7,109.3 920.6,110.6 		"/>
		<polygon class="st11" points="815,98.3 815.4,92.7 809.2,92.9 804.9,93 801.4,93.1 800.9,98.6 807.3,98.4 		"/>
		<g>
			<path class="st12" d="M700.5,105.4l-6.3-3.4c35.7-5,61.5-7,78-6.1c13,0.7,15.7,2.9,16,3.2l-20.9,1.1c0,0,0,0,0,0
				c0,0,1.3-0.1-4.4-0.4C756.2,99.5,739.4,99.8,700.5,105.4z"/>
		</g>
		<g>
			<path class="st12" d="M594.6,134.7c-2.6-0.9-5.3-2.7-3.1-5.6c4.3-5.6,25.1-12.5,59.9-20.3l11.9,2.5c-36.4,8.4-47,13.5-49.3,16.3
				c-1.8,2.3-2.1,1,0.3,2.3c-2.3-1.1-0.8-0.4-0.8-0.4l-15.7,6.1C597.5,135.5,596.1,135.2,594.6,134.7z"/>
		</g>
	</g>
	<g>
		<path class="st8" d="M932.4,104.3c-5.5-1.4-11.3-2.6-17.5-3.8l-49.8-9.8l0,0c2.6,0.5,5.1,1.1,7.5,1.7
			c45.5,11.7,35.2,34.1-36.5,50.4c-82.5,18.8-194.3,18.8-231.9,0c-17.1-8.6-13.5-18.8,4.4-28.2L571,129.5v0
			c-48,18.3-69.5,40.7-42,60c53.3,37.3,239.9,37.3,369.7,0C1002.2,159.7,1004,122.5,932.4,104.3z"/>
		<path class="st8" d="M861.3,90c-0.1,0-0.2,0-0.3-0.1C861.1,90,861.2,90,861.3,90z"/>
	</g>
	<g>
		<polygon class="st2" points="1437.3,342.1 1354.9,314.2 1338.2,326.5 1422.1,356.1 		"/>
		<polygon class="st13" points="1428,329.9 1421,336.2 1421,351.6 1428,345.1 		"/>
		<polygon class="st14" points="1346,310.8 1421,336.1 1421,351.6 1346,325.5 		"/>
		<g>
			<path class="st2" d="M1430.6,327l-9.4,9l-81.4-27l0.1,1.3c0,0.4,0.3,0.8,0.8,1l78.6,26.7c1.1,0.4,2.4,0.1,3.2-0.7l7.9-7.8
				c0.3-0.3,0.4-0.6,0.4-1L1430.6,327z"/>
			<path class="st7" d="M1340.9,310.3l78.1,26c1.2,0.4,2.6,0.1,3.5-0.8l7.4-7c0.9-0.9,0.6-2.4-0.6-2.8l-77.9-24.9
				c-0.7-0.2-1.4-0.1-2,0.3l-8.8,6.2C1339.4,308.2,1339.7,309.9,1340.9,310.3z"/>
		</g>
	</g>
	<path class="st15" d="M835.8,242.6"/>
	<polygon class="st10" points="1138.3,165.7 1125.9,162.9 1135.2,159.1 1147.5,161.8 	"/>
	<path class="st0" d="M312.4,107.5l37,2.3c0,0,80.2-17.4,111.1-21.8l3.8,0.8l33.9-5.6l-18.6-4.6C479.6,78.6,381.8,93.2,312.4,107.5z
		"/>
	<path class="st1" d="M315.6,106.6"/>
	<path class="st1" d="M424.9,78.5"/>
	<path class="st1" d="M854.3,42"/>
	<line class="st1" x1="264.6" y1="108.5" x2="390.5" y2="116.1"/>
	<line class="st1" x1="534.6" y1="65.5" x2="563.7" y2="77.2"/>
	<line class="st1" x1="479.3" y1="121.1" x2="422" y2="117.7"/>
	<path class="st1" d="M731,52.8"/>
	<path class="st1" d="M791.3,52.1"/>
	<path class="st1" d="M795.8,46.4"/>
	<line class="st9" x1="538.3" y1="89.7" x2="583.5" y2="99.6"/>
	<line class="st9" x1="467" y1="74" x2="520" y2="85.6"/>
	<line class="st9" x1="263.6" y1="107.9" x2="489.7" y2="121.5"/>
	<line class="st15" x1="757" y1="119.6" x2="757" y2="119.6"/>
	<path class="st8" d="M461.6,301.5l33.6,2.3c0,0,7.4,0.6-2.5,8.5c-10.2,8.2-28.3,24.1-28.3,24.1s-7.6,4.1-9.6,1.1
		c-2-3-14.7-22.4-14.7-22.4s-0.8-2.4,3.8-5.1c4.5-2.7,11.3-6.5,11.3-6.5S458.7,301.3,461.6,301.5z"/>
	<path class="st8" d="M495,283.6l-19.1,9.5c0,0-2.8,2,1,2.6c3.8,0.6,26.7,3,26.7,3s5.1,0.6,9.6-2.2c4.4-2.8,14.5-10.1,14.5-10.1
		s2.4-2.4-7.7-3C510,282.9,501.5,280.4,495,283.6z"/>
	<path class="st2" d="M577.4,99.2c0,0,0,0.8-4.9,1.9l0.5,0.2l8.9-1.7L577.4,99.2z"/>
	<path class="st2" d="M478.4,121.6c0,0,2.8,0.6-2.9,2.4l0.8,0.1l8.9-2.5L478.4,121.6z"/>
	<path class="st2" d="M484.7,120.4c0,0,4.7,0,10.8-1.7l1.1,0l-7.7,2.5L484.7,120.4z"/>
	<path class="st2" d="M335.2,172c0,0,5.6,0.1,1.6,2.7l1.5,0l7.1-3.8L335.2,172z"/>
	<path class="st2" d="M343,169.5c0,0,7-0.8,11.8-3.4l1.7-0.2l-5.2,3.6L343,169.5z"/>
	<path class="st2" d="M582.1,98.4c0,0,3.1,0.3,8.2-0.6l1.3,0.3l-9.6,1.4L582.1,98.4z"/>
	<path class="st11" d="M769.2,92.4"/>
	<path class="st16" d="M583.9,135.9"/>
	<path class="st17" d="M1721.5,149.7"/>
	<path class="st11" d="M714.7,109.4"/>
	<g>
		<g>
			<path class="st0" d="M1594.7,220.6l2.7-2.9l-12.6-2.7l0,0l-12.3-2.6l-2.4,2.9l-66-14.2l-33.8,28l36.1,23.5l-7.9,7.8l13.2,9.2
				l15.7,4.3l0,0l0.8,0.2l0.4,0.1l0,0l15.6,3.9l23.2,0l7.8-8.3l68.8,1.1l25.8-34.1L1594.7,220.6z M1615.9,261.1l-56-0.5l-17.6-3.9
				l-13.9-3.7l-31.2-20.1l24.8-20.3l35.6,7.7l-3,3.2l7.5,4.2l8,1.7l9.4,2l11.9,0.2l2.7-3.3l39.7,9L1615.9,261.1z"/>
		</g>
	</g>
	<path class="st0" d="M1341.3,177.9l-10-2.3c3.9-8.4-7.1-16.7-28.4-20.7c-18.7-3.5-41.5-3-59.6,0.8l-8-1.8l-29.7,11.4l9.5,2.3
		c-9,8.7-1.5,18.7,21.6,23.9c21.8,4.9,49.8,4,70.2-1.6l6.8,1.7L1341.3,177.9z"/>
	<path class="st9" d="M941.2,51.3c0,0,15.1-2.2,0.7-4"/>
	<path class="st18" d="M999.6,235.3"/>
	<path class="st18" d="M1018.7,242.5"/>
	<path class="st18" d="M994.6,233.7"/>
	<polygon class="st19" points="1195.6,328.9 1188.2,326 1193.2,323.1 1200.5,326 	"/>
	<polygon class="st20" points="990,260.4 975.4,254.3 990.8,248.5 1005.4,254.3 	"/>
	<polygon class="st20" points="1153.3,327.6 1132.8,319.2 1148,311.1 1168.3,319.2 	"/>
	<polygon class="st20" points="1018.4,272.1 1002.8,265.7 1018.3,259.5 1033.9,265.7 	"/>
	<polygon class="st20" points="1048.8,284.6 1032.1,277.7 1047.6,271.1 1064.2,277.7 	"/>
	<polygon class="st20" points="1115.9,312.2 1096.9,304.4 1112.2,296.8 1131.2,304.4 	"/>
	<polygon class="st20" points="1081.2,297.9 1063.4,290.6 1078.8,283.5 1096.6,290.6 	"/>
	<path class="st1" d="M1399.7,397"/>
	<path class="st11" d="M709.9,538.8"/>
	<path class="st9" d="M1420.4,396.2"/>
	<path class="st9" d="M222.8,114.5c0,0-14.2,1.6-16.3,3.4c-2.1,1.8,1.5,3.3,1.5,3.3"/>
	<path class="st19" d="M1168,353.4"/>
	<g>
		<g>
			<path class="st0" d="M1532.3,138.8l-2-1.8c-19.3-15.3-41.2-30-150.8-49.9c-90.6-16.5-215.4-7.9-215.4-7.9s29,8.9,59.7,13.8
				c32.3,5.2,52.2,6.6,85.4,9.3c34.1,2.8,90.3,1.8,90.3,1.8c1.2,4.8,11.1,11.5,16.5,14.9c2.2,1.4,5,2.8,8.2,4.1
				c12.9,5.4,52.7,20.4,110.2,29.4c78.6,12.4,123.5,12.2,123.5,12.2C1616.2,149.8,1532.3,138.8,1532.3,138.8z M1302.3,96.5
				c-44.7-3.5-73.5-7.6-97.8-14.5c0,0,100.8-2.7,168,10c19.6,3.7,24.3,5.6,24.3,5.6S1361.6,101.1,1302.3,96.5z"/>
		</g>
	</g>
	<g>
		<g>
			<polygon class="st11" points="755.2,221.8 847,207.1 827.8,186.8 807.6,189.8 819.8,203.8 773.2,211.1 762.9,196.5 741.4,199.7 
							"/>
		</g>
		<g>
			<polygon class="st11" points="959.8,170.8 984.7,149.5 930.7,145.1 924.2,149.7 961.8,152.9 948.3,163.8 909.3,160.3 902,165.6 
							"/>
		</g>
		<path class="st10" d="M852.7,185.9l16.8,4.9c0,0,31.2-8.4,46.6-15.3l-19.5-3.3C896.6,172.2,885.3,179.3,852.7,185.9z"/>
		<polygon class="st11" points="885.5,172.3 912.6,176.9 917.1,175.1 923.8,172.2 897.1,167.8 		"/>
		<polygon class="st11" points="853.4,182 869.3,190.8 863.3,192.4 856.6,194.2 853,195.1 837.4,186.2 		"/>
		<polygon class="st11" points="718,201.5 707,214.5 698.7,214.8 691.2,215.1 685.7,215.2 697.8,202.1 707.4,201.9 		"/>
		<polygon class="st11" points="668.6,201.8 643.5,214.7 634.6,214.2 628.1,213.7 624,213.5 650.1,200.8 658.4,201.4 		"/>
		<polygon class="st11" points="927.5,125.9 955.3,124 956.9,125.4 958,126.6 958.8,127.5 930.9,129.5 929.4,127.8 		"/>
		<polygon class="st11" points="933.3,134.7 962.5,135 962.6,136.8 962.7,138.1 962.6,139.2 933.2,138.8 933.4,136.9 		"/>
		<polygon class="st11" points="584.2,148.8 551.8,149.9 548.8,151.7 546.1,153.3 544.3,154.5 577.6,153.4 580.5,151.2 		"/>
		<polygon class="st11" points="570.4,160.5 533.3,164.6 531.6,166.9 530.7,168.6 530,169.7 567.7,165.4 568.7,163.2 		"/>
		<polygon class="st11" points="839.3,105.4 846.9,99.6 841.8,99.4 837.5,99.3 834.2,99.2 826.4,104.9 832.6,105.1 		"/>
		<polygon class="st11" points="881.2,109.7 897.2,104.3 892.8,103.6 889.3,103.2 886.3,102.8 870.5,108 875.7,108.8 		"/>
		<polygon class="st11" points="914.5,118.4 938,114.4 934.9,113.2 932.5,112.4 930.3,111.7 907.1,115.7 910.9,117 		"/>
		<polygon class="st11" points="808.6,104.7 809.2,99.1 803.1,99.2 798.9,99.3 795.4,99.4 794.8,105 801.1,104.8 		"/>
		<g>
			<path class="st12" d="M696.9,111.7l-6.1-3.3c34.8-5,60-7,76.1-6c12.6,0.7,15.2,2.9,15.5,3.2l-20.4,1.1c0,0,0,0,0,0
				c0,0,1.3-0.1-4.3-0.4C751.3,105.9,734.9,106.2,696.9,111.7z"/>
		</g>
		<g>
			<path class="st12" d="M593.8,140.9c-2.5-0.9-5.2-2.7-3-5.5c4.2-5.5,24.4-12.4,58.4-20.2l11.6,2.4c-35.4,8.3-45.8,13.4-48,16.2
				c-1.8,2.3-2.1,1,0.3,2.3c-2.2-1.1-0.8-0.4-0.8-0.4l-15.2,6.1C596.6,141.7,595.2,141.4,593.8,140.9z"/>
		</g>
		<path class="st0" d="M408.9,192.6l-14,1.6l6.3-8l-47.5,4.8c0,0,12.7-12.7,25.4-19.4l42.5-2.4l5.9-4.1l-39.9,1.6
			c0,0,20.4-11.3,35.8-17l34.8,0.1c0,0,21.6-9.6,31.1-12.4l-29.2-1.5c0,0,36-11.5,42.6-13l24.6,2.4l10.3-2.8l-22.6-2.8l19.9-5.1
			l15.5-3.6l9.5-2l18.1,3.5l19.3-4.2l17.7-3.5l-14.4-4.1l17.1-3l17-2.8l11-1.6l10.4,4.4l10.7-1.7l-9.5-4.4l11.7-1.6l18.6-2.3
			c0,0,14-1.6,14.2-1.6c0.2,0,6.6,4.7,6.6,4.7l20.1-2.1l16.6-1.4l-3-4.9l1.6-0.2l22.1-1.6l19.5-1l0.1,4.9l2.6,0l7.6-0.4l0.5-0.8
			l0.5-4.3l4.9-0.2l22.6-0.6l14.7-0.2l-4,5.1l2.3,0l32.1,0.2l7.2-5l14.5,0.4l24.6,1.3l-9.9,4.9l5,0.5l4.1,0.2l11.1-4.9l19.4,1.8
			l17.6,2L948,89.5l0.6,0.2l24.3,3.8l2.7,0.7l18.4-4.4l18.8,3.9l12.1,3.1l-21.8,3.9l6.3,1.9l8.2-1.3l14.8-2.4l11,3.6l14.3,5.8l-18,2
			l-8.2,1.1l8.5,4.5l-8.5,0.8c0,0-21.5-13.5-58.3-20.5c-34.5-6.5-66.5-10.5-122.7-11c-56-0.4-93.3,2.9-124.3,5.7
			c-32,3-84.7,10.6-109.4,15.6c0,0-63.8,12.5-94.5,23.3c-9.2,3.2-17.6,5.6-23.8,7.8c-16.5,6-25.8,9.6-41.4,17.4
			c-23.4,11.7-34.7,21.5-35,22.6c-0.4,1.1-11.3,10-11.4,13.2l-1.1,1.6L408.9,192.6z"/>
	</g>
	<polygon class="st13" points="1192,344.9 1188.4,292.8 1207,335.6 	"/>
	<path class="st21" d="M1256.5,255"/>
	<polygon class="st13" points="1284.7,291.1 1272.6,298.5 1264.5,253 	"/>
	<polygon class="st13" points="1246.2,278 1233.8,285 1229.2,241.9 	"/>
	<polygon class="st13" points="1210.1,265.8 1197.5,272.3 1194.2,230.9 	"/>
	<polygon class="st13" points="1144.5,243.6 1131.6,249.3 1129,210.5 	"/>
	<polygon class="st13" points="1114.6,233.5 1101.6,238.9 1098.6,200.9 	"/>
	<polygon class="st13" points="1176.3,254.4 1163.5,260.5 1159.2,219.9 	"/>
	<g>
		<polygon class="st2" points="1353.7,417.2 1263.7,379.5 1246.4,392.3 1337.5,432 		"/>
		<polygon class="st13" points="1345,403.3 1335,411.7 1335,426.1 1345,417.4 		"/>
		<polygon class="st14" points="1256,378.3 1335,411.8 1335,426.1 1256,391.7 		"/>
		<g>
			<path class="st2" d="M1346.6,403.6l-10.4,8.5L1255,378v1.3c0,0.5,0.3,0.9,0.7,1.1l78.5,33.6c1.1,0.5,2.4,0.3,3.4-0.5l8.7-7.4
				c0.3-0.2,0.4-0.6,0.4-1L1346.6,403.6z"/>
			<path class="st7" d="M1256.1,379.4l77.9,32.9c1.2,0.5,2.6,0.3,3.6-0.5l8.1-6.6c1-0.8,0.8-2.4-0.4-2.9l-77.9-31.7
				c-0.7-0.3-1.5-0.2-2.1,0.2l-9.5,5.6C1254.7,377,1254.8,378.8,1256.1,379.4z"/>
		</g>
	</g>
	<g>
		<polygon class="st0" points="359.2,249.9 331.2,210.3 533.1,170.3 579,200 		"/>
		<g>
			<g>
				<polygon class="st22" points="378.6,245.5 348.8,206.8 331.2,210.3 359.2,249.9 				"/>
				<polygon class="st22" points="416,237 382.8,200 366.4,203.3 398,241.1 				"/>
				<polygon class="st22" points="451.7,228.9 415.4,193.6 399.3,196.8 434.1,232.9 				"/>
				<polygon class="st22" points="485.7,221.2 446.7,187.4 431.2,190.5 468.9,225 				"/>
				<polygon class="st22" points="517.7,214 476.1,181.6 461.8,184.4 502.2,217.5 				"/>
				<polygon class="st22" points="549,206.9 505.1,175.8 491.5,178.5 534.4,210.2 				"/>
				<polygon class="st22" points="579,200 533.2,170.4 519.5,173.1 564.3,203.4 				"/>
			</g>
		</g>
		<polygon class="st15" points="363.2,247.6 336.5,210.6 530.2,172.1 573,200.2 		"/>
		<polygon class="st15" points="355.1,235.9 343.7,220.2 374.7,213.8 387.3,228.9 		"/>
		<polygon class="st15" points="535.1,196.8 517.6,184.4 541.5,179.5 559.7,191.4 		"/>
		<line class="st15" x1="441.3" y1="189.8" x2="477.4" y2="221.8"/>
		<path class="st15" d="M464.9,210.8c-14.7,3.2-29.5,3.2-32.8,0c-3.2-3.1,6-8.1,20.3-11.1c14-2.9,28-2.9,31.6,0
			C487.7,202.7,479.3,207.6,464.9,210.8z"/>
	</g>
	<path class="st23" d="M639.3,224.4"/>
	<g>
		<defs>
			<rect id="SVGID_3_" x="557.3" y="-13.9" width="357.1" height="170.3"/>
		</defs>
		<clipPath id="SVGID_4_">
			<use xlink:href="#SVGID_3_"  style="overflow:visible;"/>
		</clipPath>
	</g>
	<polygon class="st7" points="1267,301.2 1267,295.1 1269,293.5 1269,300.1 	"/>
	<polygon class="st13" points="1267,301.2 1267,295.1 1265,293.9 1265,300.5 	"/>
	<polygon class="st7" points="1189,349.2 1189,343.1 1191,341.5 1191,348.1 	"/>
	<polygon class="st13" points="1189,349.2 1189,343.1 1187,341.9 1187,348.5 	"/>
	<polygon class="st7" points="1150,333.2 1150,327.1 1152,325.5 1152,332.1 	"/>
	<polygon class="st13" points="1150,333.2 1150,327.1 1148,325.9 1148,332.5 	"/>
	<polygon class="st7" points="1115,318.2 1115,312.1 1117,310.5 1117,317.1 	"/>
	<polygon class="st13" points="1115,318.2 1115,312.1 1113,310.9 1113,317.5 	"/>
	<polygon class="st7" points="1079,303.2 1079,297.1 1081,295.5 1081,302.1 	"/>
	<polygon class="st13" points="1079,303.2 1079,297.1 1077,295.9 1077,302.5 	"/>
	<polygon class="st7" points="1048,290.2 1048,284.1 1050,282.5 1050,289.1 	"/>
	<polygon class="st13" points="1048,290.2 1048,284.1 1046,282.9 1046,289.5 	"/>
	<polygon class="st7" points="1017,277.2 1017,271.1 1019,269.5 1019,276.1 	"/>
	<polygon class="st13" points="1017,277.2 1017,271.1 1015,269.9 1015,276.5 	"/>
	<polygon class="st7" points="988,265.2 988,259.1 990,257.5 990,264.1 	"/>
	<polygon class="st13" points="988,265.2 988,259.1 986,257.9 986,264.5 	"/>
	<polygon class="st7" points="1229,288.2 1229,282.1 1231,280.5 1231,287.1 	"/>
	<polygon class="st13" points="1229,288.2 1229,282.1 1227,280.9 1227,287.5 	"/>
	<polygon class="st7" points="1194,275.2 1194,269.1 1196,267.5 1196,274.1 	"/>
	<polygon class="st13" points="1194,275.2 1194,269.1 1192,267.9 1192,274.5 	"/>
	<polygon class="st7" points="1159,263.2 1159,257.1 1161,255.5 1161,262.1 	"/>
	<polygon class="st13" points="1159,263.2 1159,257.1 1157,255.9 1157,262.5 	"/>
	<polygon class="st7" points="1129,252.2 1129,246.1 1131,244.5 1131,251.1 	"/>
	<polygon class="st13" points="1129,252.2 1129,246.1 1127,244.9 1127,251.5 	"/>
	<polygon class="st7" points="1099,242.2 1099,236.1 1101,234.5 1101,241.1 	"/>
	<polygon class="st13" points="1099,242.2 1099,236.1 1097,234.9 1097,241.5 	"/>
	<polygon class="st7" points="1071,233.2 1071,227.1 1073,225.5 1073,232.1 	"/>
	<polygon class="st13" points="1071,233.2 1071,227.1 1069,225.9 1069,232.5 	"/>
	<polygon class="st14" points="1264.5,253 1251.3,291.1 1272.6,298.5 	"/>
	<polygon class="st14" points="1098.6,200.9 1086.1,233.5 1101.6,238.9 	"/>
	<polygon class="st14" points="1129,210.5 1115.2,243.6 1131.6,249.3 	"/>
	<polygon class="st14" points="1159.2,219.9 1146.1,254.4 1163.5,260.5 	"/>
	<polygon class="st14" points="1194.2,230.9 1178.9,265.8 1197.5,272.3 	"/>
	<polygon class="st14" points="1229.2,241.9 1213.9,278 1233.8,285 	"/>
	<polygon class="st14" points="1188.4,292.8 1170,336.1 1192,344.9 	"/>
	<polygon class="st14" points="1149.6,279.4 1152,328.9 1132,320.7 	"/>
	<polygon class="st14" points="1114.5,266.4 1114.9,313.2 1095.9,305.4 	"/>
	<polygon class="st14" points="1079,253.7 1080.2,298.9 1062.4,291.6 	"/>
	<polygon class="st14" points="1046.8,242.2 1048,285.9 1031.1,278.7 	"/>
	<polygon class="st14" points="1015.7,231.1 1018,272.9 1002,266.8 	"/>
	<polygon class="st13" points="1149.6,279.4 1167.3,320.2 1152,328.9 	"/>
	<polygon class="st13" points="1114.5,266.4 1130.2,305.4 1114.9,313.2 	"/>
	<polygon class="st13" points="1079,253.7 1095.6,291.6 1080.2,298.9 	"/>
	<polygon class="st13" points="1046.8,242.2 1063.2,278.7 1048,285.9 	"/>
	<polygon class="st13" points="987.3,220.9 1004.4,255.3 989,261.3 	"/>
	<polygon class="st14" points="987.3,220.9 989,261.3 974.4,255.3 	"/>
	<polygon class="st13" points="1086.4,223.9 1073.3,229 1070.9,192 	"/>
	<polygon class="st14" points="1070.9,192 1058.7,223.9 1073.3,229 	"/>
	<polygon class="st13" points="1015.7,231.1 1032.2,266.4 1018,272.9 	"/>
	<polygon class="st0" points="1035.7,323.5 924.3,272.1 696.2,358.2 733.2,387.4 721.5,392.2 743.9,410.4 755.8,405.2 798,438.4 	
		"/>
	<path class="st0" d="M1367.2,562.2l-8.1-41.9c0,0-13.9-43.2-74.4-63.4c-56.5-18.8-103.7-16.3-129.3,1.9l-0.6,0.5l-85.1,65.9
		c0,0-15.4,15.3-17.6,37H1367.2z"/>
	<polygon class="st7" points="1921,239.1 1921,240.7 958,57.9 958,57.1 	"/>
	<polygon class="st13" points="958,57.9 932.4,62.1 930,61.7 958,57.1 	"/>
	<g>
		<g>
			<path class="st7" d="M833.1,383.3c0,0-3.9,0.8-4.4,1c-2.7,1.2-2.4,2.2-0.9,3.2c1.4,1,3.6,1.2,5.8,0.2c2.6-1.2,3.2-2.8,3.2-2.8
				l3.2,0.2c0,0,0.7,2.1-4.1,4.3c-5.3,2.4-9.6,2-12.4,0.1c-2.8-1.9-2.4-4.4,2.7-6.7c4.1-1.8,6.8-1.4,6.8-1.4L833.1,383.3z"/>
			<path class="st7" d="M856.2,379.8l-4,1.8l-3.8-2.5l-1.1-0.8l-0.1,0l-0.3,5.3l0.1,0.3l-3.9,1.8l-9.2-6.1l4-1.8l3.8,2.5l1,0.8
				l0.1,0l0.4-5.3l-0.1-0.3l3.8-1.7L856.2,379.8z"/>
			<path class="st7" d="M861.4,369.9l-5,2.2l1.2,0.8l0.9-0.4c4-1.8,6.8-2.2,8.7-1c1.9,1.2,1.3,2.7-2.9,4.7l-5.1,2.3l-9.2-5.9l9.1-4
				L861.4,369.9z M859.5,374.2l1.7,1.1l0.7-0.3c1.5-0.7,2.1-1.2,1.4-1.6c-0.7-0.4-1.7-0.1-3.1,0.5L859.5,374.2z"/>
			<path class="st7" d="M873.3,366.7l-2.2-3.5l4.2-1.9l2.5,5.9c0.9,2.2-0.3,3.3-2.3,4.2c-1.7,0.8-2.6,0.8-2.6,0.8l-2.1-1.3
				c0,0,0.8-0.2,1.8-0.7c0.6-0.3,0.9-0.6,1-0.9l-12.3-1.8l4.5-2L873.3,366.7L873.3,366.7z"/>
			<path class="st7" d="M876.5,360.8l5-2.2c3.4-1.5,6.3-1.7,8.6-0.4c2.4,1.4,0.6,3.3-1.8,4.4l-1.4,0.6l2.6,1.6l-3.7,1.7L876.5,360.8
				z M882.3,360.5l2.4,1.4l0.7-0.3c1.2-0.5,1.8-1.1,0.8-1.6c-1-0.6-2.1-0.3-3.2,0.2L882.3,360.5z"/>
			<path class="st7" d="M900.5,356.8l-6.5,2.9l-2.2-1.3l6.5-2.9L900.5,356.8z"/>
			<path class="st7" d="M904,348.5l13.5,3.5l-3.8,1.7l-2.3-0.6l-4.4,2l0.9,1.2l-3.8,1.7l-5.2-7.3L904,348.5z M903.5,350.9l2.4,2.8
				l2.8-1.3L903.5,350.9L903.5,350.9z"/>
			<path class="st7" d="M909.7,346l4.7-2.1c3.2-1.4,6-1.6,8.3-0.4c2.5,1.4,0.8,3.1-1.4,4.1l-1.3,0.6l2.7,1.5l-3.4,1.6L909.7,346z
				 M915.3,345.7l2.4,1.3l0.6-0.3c1.1-0.5,1.6-1,0.7-1.5c-1-0.5-2.1-0.3-3.1,0.2L915.3,345.7z"/>
			<path class="st7" d="M938.9,342.3l-8.7,3.9l-9.4-5.2l8.5-3.8l2.3,1.2l-4.9,2.2l1.2,0.7l4.2-1.9l2.3,1.2l-4.2,1.9l1.3,0.7l5.1-2.3
				L938.9,342.3z"/>
			<path class="st7" d="M951.7,336.5l-3.5,1.6l-3.7-1.9l-3.7,1.7l3.7,1.9l-3.5,1.6l-9.4-5l3.5-1.6l3.5,1.9l3.7-1.7l-3.5-1.9l3.5-1.5
				L951.7,336.5z"/>
			<path class="st7" d="M952,327.2l13.2,3.1l-3.5,1.6l-2.2-0.5l-4,1.8l1,1.1l-3.5,1.6l-5.7-6.6L952,327.2z M951.8,329.3l2.5,2.5
				l2.6-1.2L951.8,329.3L951.8,329.3z"/>
		</g>
	</g>
	<path class="st8" d="M630,340.9l16-40.9c2.8-7.1-2.4-14.9-10-15l-60.3-1.4c-7.3-0.2-14.4,2.9-19.2,8.4l-85.2,96
		c-6.2,6.9,1,17.6,9.7,14.4l134.9-47.7C622.3,352.4,627.4,347.4,630,340.9z"/>
	<path class="st8" d="M665.5,296l-11.7,36.5c-1.8,4,2,8.2,6.1,6.7l71.5-24.9c4.9-1.7,7.1-7.5,4.5-12l-8.1-14.1
		c-2.4-4.1-6.9-6.5-11.7-6.1l-34.2,1.9C674,284.4,668.9,288.7,665.5,296z"/>
	<path class="st8" d="M745.4,287l7.1,11.8c2.6,4.2,7.8,6.1,12.5,4.4l94.6-33.7c3.3-1.2,2.1-6.1-1.4-5.6l-109,15
		C745.5,279.4,743.4,283.7,745.4,287z"/>
	<path class="st23" d="M766.5,147.6"/>
	<path class="st8" d="M1063.3,192.9c1.6-1.5,4.4-4.3,6.2-6.1c0.9-0.9,2.2-1.3,3.4-1l4.8,1c0.8,0.2,1.6-0.2,2.1-0.8l4.4-5.9
		c0.4-0.5,0.1-1.2-0.5-1.2l-4.4-0.7c-0.8-0.1-1.2-1.1-0.7-1.7c1.2-1.6,3-4.1,4-5.6c1.5-2.4,4.2-3.8,7-3.6l44.2,2.9
		c1.6,0.1,1.9,2.4,0.4,2.9l-68.4,23.9C1063.3,197.8,1061.4,194.7,1063.3,192.9z"/>
	<path class="st8" d="M1087.4,159c0.2-1,0.4-2.3,0.4-3.9c0-1.4,1.2-2.6,2.6-2.5l88.1,1.8c1.7,0,2,2.4,0.5,2.9l-20.2,7
		c-2.6,0.9-5.3,1.3-8,1.1l-60.8-3.3C1088.3,162.1,1087.1,160.6,1087.4,159z"/>
	<path class="st8" d="M1083.7,139.4c1.2,1.8,2.9,4.6,3.7,7.4c0.5,1.7,2.1,2.8,3.8,2.8l101,1.3c3.2,0,6.4-0.5,9.5-1.6l41-14.6
		c0.8-0.3,0.6-1.4-0.3-1.4l-157.7,4C1083.7,137.4,1083.1,138.5,1083.7,139.4z"/>
	<path class="st7" d="M540,252.1"/>
	<path class="st23" d="M755.5,140.6"/>
	<polygon class="st0" points="537,268.1 537,252.1 473.5,242.6 473.5,258.6 	"/>
	<polygon class="st0" points="644.3,270.7 644.3,254.9 730,249.7 730,265.3 	"/>
	<polyline class="st0" points="743.1,264.4 743.1,248.5 826.9,236.7 826.9,252.6 741.8,264.5 	"/>
	<polygon class="st0" points="840.7,250.3 840.7,234.2 912.2,218.2 912.2,234.5 	"/>
	<polygon class="st0" points="1063.2,159.1 1063.2,143.1 1066,129.1 1066,140.1 	"/>
	<path class="st26" d="M642.8,256.9"/>
	<polygon class="st13" points="730,266.1 733,252.2 733,237.1 730,249.7 	"/>
	<polygon class="st7" points="502.5,231.6 473.5,242.6 537,252.1 560,239.1 	"/>
	<polygon class="st7" points="656.7,242.6 644,255.1 730,250.1 733,237.1 	"/>
	<polygon class="st7" points="819.4,225.6 826.9,236.7 742.5,248.4 744.4,235.1 	"/>
	<polygon class="st7" points="831,223.1 840.7,234.2 912.2,218.2 896,209.2 	"/>
	<polygon class="st13" points="537,252.1 537,268.1 560,254.4 560,239.1 	"/>
	<polygon class="st0" points="629.2,270.9 629.2,255 548.3,252.1 548.3,268.9 	"/>
	<polygon class="st7" points="548,252.1 570.4,239.6 643,242.1 629,255.1 	"/>
	<polygon class="st13" points="629,271.1 643,257.1 643,242.1 629,255.1 	"/>
	<polygon class="st13" points="980,182.1 980,197.1 1004,203.1 1004,187.1 	"/>
	<polygon class="st13" points="1023.9,162.3 1023.9,178.1 1043,181.1 1043,165.1 	"/>
	<polygon class="st0" points="1004.1,203.2 1004.1,186.8 1037.4,169.1 1037.4,185 	"/>
	<polygon class="st7" points="980,182.1 1017,166.1 1037.4,169.1 1004.1,186.8 	"/>
	<polygon class="st13" points="831,223.1 831,238.1 841,250.1 841,234.1 	"/>
	<polygon class="st13" points="1043,158.1 1063,159.1 1063,143.1 1043,143.1 	"/>
	<polygon class="st0" points="1043.4,180.9 1043.4,164.7 1060.5,147.8 1060.5,164 	"/>
	<polygon class="st7" points="1024,162.1 1041,148.1 1060,148.1 1043,165.1 	"/>
	<polygon class="st7" points="1042,99.1 1056.1,109.1 1039,111.1 1026,101.1 	"/>
	<polygon class="st0" points="1026,101.1 1026,116.3 1038.8,127.1 1038.8,111.1 	"/>
	<polygon class="st13" points="1046,127.1 1065.2,125.7 1065.2,129.1 1046,133 	"/>
	<polygon class="st13" points="1039,111.1 1039,127.1 1056.5,127.1 1056.5,109.1 	"/>
	<polygon class="st7" points="1040,115.1 1046,127.1 1065.8,125.5 1059.4,113 	"/>
	<polygon class="st0" points="1040,115.1 1040,129.5 1046,140.1 1046,127.1 	"/>
	<polygon class="st7" points="1066.2,128.4 1046,129.1 1043,143.1 1063,143.1 	"/>
	<path class="st2" d="M833.1,144.3c-83.6,19.7-195.1,19.8-231.5,0.1c-31.6-17.1,12.6-40.5,86.8-52.9c66.3-11,144.4-11,184.4,0
		C917.5,103.8,905.6,127.2,833.1,144.3z"/>
	<path class="st0" d="M876.9,73.6c4.1-6.6-3-12.7-21.3-17.1c-35.7-8.6-106.9-8.6-166.6,0C635.4,64.2,601,77.3,606,88.7l-0.4,0
		l21.1,37.7c0.3,1.4,1.1,2.8,2.3,4.1l0,0l0,0c1.2,1.3,2.9,2.6,5.1,3.8l0.4,0.3l0.1,0c0.6,0.3,1.3,0.7,2,1
		c30.3,14.4,114.1,14.4,177.6,0c35.5-8.1,53.5-18.3,53.7-27.3l0,0L876.9,73.6z"/>
	<path class="st0" d="M105,237.1c0,0,280-174,531-178l-12,10c0,0-281,18.3-519,218.1V237.1z"/>
	<path class="st7" d="M105,295.1c0,0,250.2-201.2,514.1-221.1v-7.4c0,0-254.1,12.5-514.1,215.5V295.1z"/>
	<path class="st2" d="M826.4,90.3c-80.2,14.2-187.6,14.2-223.5,0C571.7,78,613.5,61,685.1,52c64.2-8.1,140.3-8.1,179.3,0
		C907.8,61,896.4,78,826.4,90.3z"/>
	<path class="st27" d="M1062.5,70.1"/>
</g>
<g id="Layer_2">
</g>
<g id="Layer_3">
</g>
</svg>
