<?xml version="1.0" encoding="utf-8"?>
<!-- Generator: Adobe Illustrator 19.1.0, SVG Export Plug-In . SVG Version: 6.00 Build 0)  -->
<svg version="1.1" id="Layer_1" xmlns="http://www.w3.org/2000/svg" xmlns:xlink="http://www.w3.org/1999/xlink" x="0px" y="0px"
	 viewBox="-469 267.8 20.3 27.2" style="enable-background:new -469 267.8 20.3 27.2;" xml:space="preserve">
<style type="text/css">
	.st0{fill:#2996EA;}
</style>
<g>
	<path class="st0" d="M-454,291.5c0,0-1-3.6-1.7-4.8c-0.7-1.2-1.8-2.8-1.8-2.8s0-2.9,0.6-4.3c0.6-1.4-0.2-2.1-0.7-2.1
		s-1.1-0.1-2.7,1.9c-1.6,2-2.3,3.8-2,4.7c0.2,0.5,1.1,0.6,1.4,0.1c0.2-0.5,1-2.5,1-2.5v2.8c0,0,1.7,2.3,2.5,3.5
		c0.7,1.2,1.7,4.1,1.7,4.1s0.2,0.6,1.2,0.4C-453.7,292.2-454,291.5-454,291.5z"/>
	<circle class="st0" cx="-457.7" cy="275.1" r="1.5"/>
	<path class="st0" d="M-461,292l2.6-3.7c0,0-1.1-2.2-1.8-2.8v1.7l-2.3,3.6c0,0-0.6,0.6,0.2,1.4C-461.4,292.8-461,292-461,292z"/>
	<path class="st0" d="M-456.7,282.4c0,0,0-2.1,0.4-2.5c0,0,2.6,2.7,1.6,3.6c-0.7,0.7-1.1,0.1-1.1,0.1L-456.7,282.4z"/>
</g>
<g>
	<path class="st0" d="M-431.2,285.7c-0.9,0-1.6,0.7-1.6,1.6c0,0.9,0.7,1.6,1.6,1.6s1.6-0.7,1.6-1.6
		C-429.6,286.5-430.3,285.7-431.2,285.7z M-431.2,287.7c-0.2,0-0.3-0.1-0.3-0.3c0-0.2,0.1-0.3,0.3-0.3c0.2,0,0.3,0.1,0.3,0.3
		C-430.9,287.5-431,287.7-431.2,287.7z"/>
	<path class="st0" d="M-423,285.7c-0.9,0-1.6,0.7-1.6,1.6c0,0.9,0.7,1.6,1.6,1.6s1.6-0.7,1.6-1.6
		C-421.4,286.5-422.1,285.7-423,285.7z M-423,287.7c-0.2,0-0.3-0.1-0.3-0.3c0-0.2,0.1-0.3,0.3-0.3c0.2,0,0.3,0.1,0.3,0.3
		C-422.6,287.5-422.8,287.7-423,287.7z"/>
	<path class="st0" d="M-418.3,279.4h-0.5V278c0-1.5-1.3-2.8-2.8-2.8h-11c-1.5,0-2.8,1.3-2.8,2.8v1.4h-0.6c-0.4,0-0.6,0.3-0.6,0.6
		v2.2c0,0.4,0.3,0.6,0.6,0.6h0.6v5.5c0,0.9,0.4,1.6,1,2.2l0,0v1.1c0,0.9,0.7,1.7,1.7,1.7h1.1c0.9,0,1.7-0.7,1.7-1.7v-0.4h5.7v0.4
		c0,0.9,0.7,1.7,1.7,1.7h1.1c0.9,0,1.7-0.7,1.7-1.7v-1.1l0,0c0.6-0.5,1-1.3,1-2.2v-5.5h0.5c0.4,0,0.6-0.3,0.6-0.6v-2.2
		C-417.7,279.7-417.9,279.4-418.3,279.4z M-421.6,290h-11c-0.8,0-1.5-0.7-1.5-1.5v-3.5h14v3.5C-420.1,289.3-420.8,290-421.6,290z
		 M-434.1,283.6v-5h14v5H-434.1z M-432.5,276.5h11c0.6,0,1.1,0.3,1.4,0.8h-13.7C-433.7,276.8-433.1,276.5-432.5,276.5z
		 M-431.2,291.7c0,0.2-0.2,0.4-0.4,0.4h-1.1c-0.2,0-0.4-0.2-0.4-0.4v-0.5c0.2,0,0.3,0,0.5,0h1.4V291.7z M-421.1,291.7
		c0,0.2-0.2,0.4-0.4,0.4h-1.1c-0.2,0-0.4-0.2-0.4-0.4v-0.4h1.4c0.2,0,0.3,0,0.5,0V291.7L-421.1,291.7z"/>
</g>
</svg>
