<?xml version="1.0" encoding="utf-8"?>
<!-- Generator: Adobe Illustrator 19.1.0, SVG Export Plug-In . SVG Version: 6.00 Build 0)  -->
<svg version="1.1" id="Layer_1" xmlns="http://www.w3.org/2000/svg" xmlns:xlink="http://www.w3.org/1999/xlink" x="0px" y="0px"
	 viewBox="0 0 684.2 144.3" style="enable-background:new 0 0 684.2 144.3;" xml:space="preserve">
<style type="text/css">
	.st0{fill:#212233;}
	.st1{fill:none;stroke:#212233;stroke-width:23;stroke-miterlimit:10;}
</style>
<g>
	<g>
		<g>
			<path class="st0" d="M264.6,125.7h-78.8v-17.5c0,0,51-33.1,51-54.7c0-10.3-6.1-14.9-18.3-14.9c-11.9,0-18.6,10.4-18.6,10.4
				l-15.1-11.9c0,0,6.7-18.5,36.3-18.5c28.1,0,41.7,15.4,41.7,33.9c0,23.1-25.5,42.1-45.1,53.1h46.9V125.7z"/>
			<path class="st0" d="M343.4,72.4c10,3.4,20.2,10.8,20.2,25.8c0,21.8-16.9,30.5-43.3,30.5c-26.3,0-43.2-8.8-43.2-30.7
				c0-12.5,9.3-20.4,19.4-25.2c-8.7-3.9-17-11.1-17-24.7c0-18.6,16.9-29.5,40.8-29.5c24.1,0,40.9,11.1,40.9,29.7
				C361.3,60.5,352.9,67.9,343.4,72.4z M319.5,81.1c-6.6,1-17.8,4.3-17.8,15.9c0,10,7.5,15.7,18.6,15.7c11.2,0,18.8-5.8,18.8-15.7
				C339.1,85.1,327.4,81.9,319.5,81.1z M320.8,65.5c6.3-1,17-4.2,17-16.1c0-9.3-6.7-14.8-17.5-14.8c-10.8,0-17.3,5.6-17.3,14.8
				C303,60.9,313.4,64.4,320.8,65.5z"/>
			<path class="st0" d="M442.5,43c0,0-14.6-5.8-18.8-5.8c-13.6,0-22.3,9.5-23.4,29.2c4.7-5,11.7-9.6,23-9.6
				c22.3,0,38.8,10.8,38.8,34.8c0,22.6-15.4,37.1-41.4,37.1c-26.2,0-42.7-14.4-42.7-45.7c0-4.5,0.5-13,0.8-15.2
				c4.8-34.8,20.2-49.1,43.7-49.1c20.9,0,28.1,9.3,28.1,9.3L442.5,43z M403,81.2c-0.6,2.2-1,5.3-1,8.8c0,13.8,5.8,21.2,18.6,21.2
				c12.5,0,17.2-9.5,17.2-19.9c0-9.6-5.1-18.1-17.5-18.1C410.4,73.2,404.9,78,403,81.2z"/>
			<path class="st0" d="M631.7,125.7h-21V88l1-20.5H611l-20.5,58.3h-23l-20.7-57.9h-0.5l1,20.4v37.6h-20.9V45.5h29.2l23.3,66.1h0.3
				l22.6-66.1h29.9V125.7z"/>
			<path class="st0" d="M679.5,105v20.7h-21.7V105H679.5z"/>
		</g>
	</g>
	<circle class="st1" cx="72" cy="72.9" r="56.4"/>
	<line class="st1" x1="13.1" y1="132.6" x2="134.5" y2="11.1"/>
</g>
</svg>
