<?xml version="1.0" encoding="utf-8"?>
<!-- Generator: Adobe Illustrator 21.0.2, SVG Export Plug-In . SVG Version: 6.00 Build 0)  -->
<svg version="1.1" id="Layer_1" xmlns="http://www.w3.org/2000/svg" xmlns:xlink="http://www.w3.org/1999/xlink" x="0px" y="0px"
	 viewBox="0 0 726 666" style="enable-background:new 0 0 726 666;" xml:space="preserve">
<style type="text/css">
	.st0{fill:#9CC54C;}
	.st1{fill:#FFFFFF;}
	.st2{opacity:0.3;fill:#595A5A;enable-background:new    ;}
	.st3{fill:none;stroke:#E6E6E5;stroke-miterlimit:10;}
	.st4{fill:#7A8991;}
</style>
<g>
	<rect x="204.8" y="229.4" class="st0" width="313.5" height="208.2"/>
	<path class="st1" d="M512.1,431h-301V235.3h301V431z M211.8,430.3h299.7V235.9H211.8V430.3z"/>
	<rect x="362" y="235.9" class="st1" width="0.6" height="194.4"/>
	<path class="st1" d="M259,391.1h-47.9V274.4H259V391.1z M211.8,390.5h46.6V275.1h-46.6L211.8,390.5L211.8,390.5z"/>
	<polygon class="st1" points="227.3,359.4 211.2,359.4 211.2,358.8 226.7,358.8 226.7,306.8 211.2,306.8 211.2,306.2 227.3,306.2 	
		"/>
	<path class="st1" d="M361.9,359.1c-14.5,0-26.4-11.8-26.4-26.4c0-14.5,11.8-26.4,26.4-26.4c14.5,0,26.4,11.8,26.4,26.4
		C388.3,347.3,376.5,359.1,361.9,359.1z M361.9,306.9c-14.2,0-25.8,11.6-25.8,25.8s11.6,25.8,25.8,25.8c14.2,0,25.8-11.6,25.8-25.8
		S376.1,306.9,361.9,306.9z"/>
	<path class="st1" d="M258.8,354.1l-0.4-0.5c6.7-4.8,10.7-12.6,10.7-20.9s-4-16.1-10.8-20.9l0.4-0.5c6.9,4.9,11,13,11,21.5
		C269.7,341.2,265.6,349.2,258.8,354.1z"/>
	<path class="st1" d="M512.1,390.5h-47.9V273.8h47.9V390.5z M464.9,389.8h46.6V274.4h-46.6V389.8z"/>
	<polygon class="st1" points="511.8,358.7 496,358.7 496,305.5 511.8,305.5 511.8,306.1 496.6,306.1 496.6,358.1 511.8,358.1 	"/>
	<path class="st1" d="M464.4,353.3c-6.8-4.9-10.6-12.4-10.6-21.1s3.8-16.2,10.6-21.1l0.4,0.5c-6.7,4.8-10.3,12.1-10.3,20.6
		s3.7,15.9,10.3,20.6L464.4,353.3z"/>
	<circle class="st1" cx="362.4" cy="332.5" r="1.3"/>
	<path class="st1" d="M211.5,242.3v-0.6c3.4,0,6.1-2.7,6.1-6.1h0.6C218.2,239.3,215.2,242.3,211.5,242.3z"/>
	<path class="st1" d="M218.2,430.6h-0.6c0-3.4-2.7-6.1-6.1-6.1v-0.6C215.2,423.9,218.2,426.9,218.2,430.6z"/>
	<path class="st1" d="M511.9,242.3c-3.7,0-6.7-3-6.7-6.7h0.6c0,3.4,2.7,6.1,6.1,6.1V242.3z"/>
	<path class="st1" d="M505.7,430.6h-0.6c0-3.7,3-6.7,6.7-6.7v0.6C508.5,424.6,505.7,427.3,505.7,430.6z"/>
	<polyline class="st2" points="218.2,351.1 218.2,327.5 211.8,321.1 211.8,343.9 205.8,343.9 212.8,351.1 218.2,351.1 	"/>
	<path class="st1" d="M211.8,343.9h-6V321h6V343.9z M206.4,343.3h4.8v-21.6h-4.8V343.3z"/>
	<polyline class="st2" points="523.9,351 523.9,327.4 517.6,321 517.6,343.8 511.5,343.8 518.5,351 523.9,351 	"/>
	<path class="st1" d="M517.5,343.9h-6V321h6V343.9z M512.1,343.3h4.8v-21.6h-4.8V343.3z"/>
</g>
<g id="_x32_yar">
	<g id="tr-c2">
		<polygon id="c201" class="st1" points="155.4,89.8 132.5,104.5 173.3,161.1 186.8,153.2 		"/>
		<polygon id="c202" class="st1" points="204.9,146.2 189,152.4 157.5,88.9 195.2,74.6 199.4,92.1 188.8,95.9 		"/>
		<polygon id="c203" class="st1" points="216.2,81.9 200,85.2 202.1,93.7 191.7,97.3 207,145.4 224.7,141.1 		"/>
		<polygon id="c204" class="st1" points="244.3,139.9 226.9,140.8 218.7,81.6 225.1,80.9 224.1,69.7 244.3,69.7 		"/>
		<rect id="c205" x="246.6" y="69.7" class="st1" width="14.6" height="70.2"/>
		<polygon id="c206" class="st1" points="285.7,69.7 263.5,69.7 263.5,130.9 272.1,130.9 272.1,139.9 285.7,139.9 		"/>
		<rect id="c207" x="287.9" y="69.7" class="st1" width="24.1" height="70.2"/>
		<rect id="c208" x="314.3" y="69.7" class="st1" width="17.5" height="70.2"/>
		<polygon id="c209" class="st1" points="334.1,69.7 334.1,139.9 349.1,139.9 349.1,131.1 359.7,131.1 359.7,69.7 		"/>
		<polygon id="c210" class="st1" points="362,131.1 373,131.1 373,139.9 387.7,139.9 387.7,69.7 362,69.7 		"/>
		<rect id="c211" x="389.9" y="69.7" class="st1" width="17.3" height="70.2"/>
		<rect id="c214" x="460.8" y="69.7" class="st1" width="14.6" height="70.2"/>
		<rect id="c212" x="409.5" y="69.7" class="st1" width="24.4" height="70.2"/>
		<polygon id="c213" class="st1" points="436.2,69.7 458.5,69.7 458.5,131.1 450.2,131.1 450.2,139.9 436.2,139.9 		"/>
		<polygon id="c215" class="st1" points="477.7,69.7 497.4,70.1 496.8,80.9 502.6,81.3 494.4,140.5 477.7,139.9 		"/>
		<polygon id="c216" class="st1" points="504.9,81.6 521.5,84.7 519.3,93.5 530.3,97.1 515.8,144.9 496.7,140.7 		"/>
		<polygon id="c217" class="st1" points="522,92 526.6,74.7 564.5,88.6 533.1,151.9 518,145.5 533.1,95.6 		"/>
		<polygon id="c218" class="st1" points="535.1,153 566.7,89.4 589.4,103.5 548.3,160.7 		"/>
	</g>
	<g id="tr-d2">
		<polygon id="d201" class="st1" points="550.5,162 563.2,173.5 585.5,150.9 582.3,147.8 605.6,117 591.4,105.2 		"/>
		<polygon id="d202" class="st1" points="564.8,175.1 575.7,187.2 632.6,145.9 626.8,138.9 590.3,155.8 587.1,152.6 		"/>
		<polygon id="d203" class="st1" points="577.5,189.4 585.4,202.9 648.1,171.2 634,148.3 		"/>
		<polygon id="d204" class="st1" points="586.5,204.9 593.5,220.6 659.7,197 649,173.3 		"/>
		<polygon id="d205" class="st1" points="594.4,223.1 598,240.9 661.1,232.3 659.4,220.7 665.7,219.5 660.3,199.4 		"/>
		<polygon id="d206" class="st1" points="598.5,243.1 599.2,261.5 669,261.5 669,233.5 		"/>
		<path id="d207" class="st1" d="M668.9,263.7v18.7h-69.7v-18.7H668.9z"/>
		<rect id="d208" x="599.2" y="284.8" class="st1" width="69.7" height="17.6"/>
		<polygon id="d209" class="st1" points="668.9,304.6 668.9,331.7 608,331.7 608,326 599.2,326 599.2,304.6 		"/>
		<polygon id="d210" class="st1" points="668.9,334 668.9,361.8 599.2,361.8 599.2,340.7 608,340.7 608,334 		"/>
		<rect id="d211" x="599.2" y="364.1" class="st1" width="69.7" height="17.7"/>
		<rect id="d212" x="599.2" y="384.1" class="st1" width="69.7" height="18.3"/>
		<polygon id="d213" class="st1" points="599.2,404.7 598.4,422.6 668.5,432.5 668.9,404.7 		"/>
		<polygon id="d214" class="st1" points="597.9,424.8 593.8,443.3 660.9,466.2 666.1,447.3 659.1,445.6 661.5,433.8 		"/>
		<polygon id="d215" class="st1" points="593.3,445.7 586.7,461.2 649.7,494 660.3,468.5 		"/>
		<polygon id="d216" class="st1" points="648.7,496.1 633.9,518.8 577.5,476.7 585.8,463.3 		"/>
		<polygon id="d217" class="st1" points="632.4,520.6 626.6,527.5 590.5,510.8 587.2,514 564.7,491.6 576.3,478.7 		"/>
		<polygon id="d218" class="st1" points="585.6,515.7 582.1,519.2 605.3,550.3 592.1,561.1 550.6,504.2 563.2,493.3 		"/>
	</g>
	<g id="tr-a2">
		<polygon id="a201" class="st1" points="590.1,562.5 566.5,576.7 534.3,514.4 548.7,505.9 		"/>
		<polygon id="a202" class="st1" points="532.3,515.5 516.7,521.1 533.6,571.4 522,574.8 526.7,592 564.5,577.8 		"/>
		<polygon id="a203" class="st1" points="521.6,582 505.6,584.8 497.5,526 514.5,521.7 530.7,569.8 519.3,573.2 		"/>
		<polygon id="a204" class="st1" points="503.4,585.2 496.7,586.2 497.5,597.3 477.3,597.3 477.3,527.5 495.3,526.5 		"/>
		<rect id="a205" x="460.3" y="527.7" class="st1" width="14.7" height="69.6"/>
		<polygon id="a206" class="st1" points="458,597.3 436.2,597.3 436.2,527.7 450.3,527.7 450.3,536.4 458,536.4 		"/>
		<rect id="a207" x="413.6" y="527.7" class="st1" width="20.3" height="69.6"/>
		<polygon id="apress" class="st1" points="376.1,527.7 376.1,536.4 345.5,536.4 345.5,527.7 311.2,527.7 311.2,597.3 411.3,597.3 
			411.3,527.7 		"/>
		<rect id="a212" x="287.6" y="527.7" class="st1" width="21.4" height="69.6"/>
		<polygon id="a213" class="st1" points="285.4,527.7 272.3,527.7 272.3,536.2 263.4,536.2 263.4,597.3 285.4,597.3 		"/>
		<rect id="a214" x="246.6" y="527.7" class="st1" width="14.5" height="69.6"/>
		<polygon id="a215" class="st1" points="244.3,597.2 224.4,597.2 225.5,586.2 218.9,585.6 226.7,526.6 244.3,527.7 		"/>
		<polygon id="a216" class="st1" points="216.7,585.2 200,582.1 202.6,572.7 191.2,569.4 207.1,521.7 224.5,526.2 		"/>
		<polygon id="a217" class="st1" points="200,574.1 194.9,591.7 157.2,577.5 189.3,515.1 204.9,521.3 188.6,570.9 		"/>
		<polygon id="a218" class="st1" points="155.3,576.7 132.4,563.1 172.9,505.3 187.2,514.2 		"/>
	</g>
	<g id="tr-b2">
		<polygon id="b218" class="st1" points="130.4,105.8 116.1,117.1 139.6,147.5 136.5,150.8 159,173.6 171,162.3 		"/>
		<polygon id="b217" class="st1" points="157.2,175.1 146.6,187.1 89.7,145.9 95.1,138.7 131.9,155.8 134.9,152.4 		"/>
		<polygon id="b216" class="st1" points="144.9,189.2 136.6,202.9 73.5,171.1 88.3,147.8 		"/>
		<polygon id="b215" class="st1" points="135.4,204.8 129.1,220.8 61.8,198 72.3,173 		"/>
		<polygon id="b214" class="st1" points="128.2,223 124.4,241 64.7,232.6 66.2,223.1 56,220.7 61.3,200.6 		"/>
		<polygon id="b213" class="st1" points="123.9,243.2 123.1,260.9 53,260.9 53.5,233.2 		"/>
		<rect id="b212" x="53" y="263.2" class="st1" width="70.1" height="18.5"/>
		<rect id="b211" x="53" y="284" class="st1" width="70.1" height="19.6"/>
		<polygon id="b210" class="st1" points="113.5,325.4 123.1,325.4 123.1,305.9 53,305.9 53,332.2 113.5,332.2 		"/>
		<polygon id="b209" class="st1" points="113.5,340.8 113.5,334.5 53,334.5 53,360.3 123.1,360.3 123.1,340.8 		"/>
		<rect id="b208" x="53" y="362.7" class="st1" width="70.1" height="19.6"/>
		<rect id="b207" x="53" y="384.5" class="st1" width="70.1" height="18"/>
		<polygon id="b206" class="st1" points="53,404.8 54,431.9 123.7,422.4 123.1,404.8 		"/>
		<polygon id="b205" class="st1" points="64.8,432.7 66.5,443 55.8,445.2 60.8,465.6 128.4,443.2 123.7,424.7 		"/>
		<polygon id="b204" class="st1" points="128.9,445.9 135.1,461.1 72.9,493.5 61.5,467.9 		"/>
		<polygon id="b203" class="st1" points="87.6,517.9 74,495.5 136.4,462.9 144.4,476.6 		"/>
		<polygon id="b202" class="st1" points="94.9,527.2 131.5,510.9 134.7,514.2 156.7,491.5 145.8,478.7 88.9,519.8 		"/>
		<polygon id="b201" class="st1" points="130.5,561.6 115.8,549.4 139.8,518.9 136.4,515.7 158.4,493.1 171,504 		"/>
	</g>
</g>
<g id="_x31_yar">
	<g id="tr-a">
		<polygon id="a113" class="st1" points="211.4,466.5 195.4,505.6 175.7,494.5 201.5,459.7 		"/>
		<polygon id="a112" class="st1" points="229.9,446.3 218.2,446.3 208.7,461.1 215.3,465.6 198.1,506.6 219.6,512.7 		"/>
		<polygon id="a111" class="st1" points="253.7,455.7 245.5,455.7 245.5,446.3 232.6,446.3 222.5,513 253.7,514.2 		"/>
		<rect id="a110" x="256.6" y="446.3" class="st1" width="16.4" height="67.9"/>
		<rect id="a109" x="275.7" y="446.3" class="st1" width="36" height="67.9"/>
		<rect id="a108" x="314.6" y="446.3" class="st1" width="16" height="67.9"/>
		<polygon id="a107" class="st1" points="333.4,446.3 351.1,446.3 351.1,461.8 371.3,461.8 371.3,446.3 388.9,446.3 388.9,514.2 
			333.4,514.2 		"/>
		<rect id="a106" x="391.8" y="446.3" class="st1" width="16.4" height="67.9"/>
		<rect id="a105" x="411" y="446.3" class="st1" width="35.2" height="67.9"/>
		<rect id="a104" x="449.1" y="446.3" class="st1" width="16.5" height="67.9"/>
		<polygon id="a103" class="st1" points="468.5,455.5 477.3,455.5 477.3,446.3 489.4,446.3 500,512.7 468.5,514.2 		"/>
		<polygon id="a102" class="st1" points="492.3,446.3 503.6,446.3 513.1,460.3 506.5,465.8 522.7,506.7 502.8,511.9 		"/>
		<polygon id="a101" class="st1" points="519.4,458.7 510,466.7 525.4,505.9 545.6,494.2 		"/>
	</g>
	<g id="tr-b">
		<polygon id="b101" class="st1" points="199.4,458.1 192.8,453.7 160.7,480.2 173.6,492.9 		"/>
		<polygon id="b102" class="st1" points="196.4,431.3 196.4,452.7 192.8,450.1 158.6,478.2 144.3,455.8 		"/>
		<polygon id="b103" class="st1" points="196.3,420.3 196.3,428 143.1,453 136.5,433.4 		"/>
		<polygon id="b104" class="st1" points="196.3,408.9 196.3,417.5 135.8,430.6 134.4,408.9 		"/>
		<rect id="b105" x="134.4" y="386.6" class="st1" width="62" height="19.5"/>
		<rect id="b106" x="134.4" y="364.6" class="st1" width="62" height="19"/>
		<rect id="b107" x="134.4" y="334.2" class="st1" width="61.9" height="27.6"/>
		<rect id="b108" x="134.4" y="304.8" class="st1" width="61.9" height="26.5"/>
		<rect id="b109" x="134.4" y="283.1" class="st1" width="61.9" height="18.8"/>
		<rect id="b110" x="134.4" y="259.9" class="st1" width="61.9" height="20.4"/>
		<polygon id="b111" class="st1" points="196.3,257 196.3,248.2 136.2,234.6 134.4,257 		"/>
		<polygon id="b112" class="st1" points="196.3,245.3 196.3,237.5 143.2,212.9 137,231.8 		"/>
		<polygon id="b113" class="st1" points="196.3,234.2 196.3,214.4 192.8,216.8 158.6,188.3 144.9,210.3 		"/>
		<polygon id="b114" class="st1" points="192.8,213.2 200.3,208.5 173.8,173.8 160.6,186.2 		"/>
	</g>
	<g id="tr-c">
		<polygon id="c101" class="st1" points="202.8,206.8 212.2,200.6 195,161.2 176.3,171.7 		"/>
		<polygon id="c102" class="st1" points="209.6,205.8 218.7,219.7 229.9,219.7 219.4,153.7 197.8,160.1 215.9,201.8 		"/>
		<polygon id="c103" class="st1" points="232.8,219.7 238.5,219.7 238.5,210.4 244.7,210.4 244.7,151.4 222.2,152.8 		"/>
		<rect id="c104" x="247.6" y="151.1" class="st1" width="25.3" height="68.6"/>
		<rect id="c105" x="275.7" y="151.1" class="st1" width="23.6" height="68.6"/>
		<rect id="c106" x="302.3" y="151.1" class="st1" width="27.7" height="68.6"/>
		<rect id="c107" x="332.9" y="151.1" class="st1" width="26.5" height="68.6"/>
		<polygon id="c108" class="st1" points="362.3,219.7 389.1,219.7 389.1,151.1 362.2,151.1 		"/>
		<rect id="c109" x="392" y="151.1" class="st1" width="27.1" height="68.6"/>
		<rect id="c110" x="421.9" y="151.1" class="st1" width="24.4" height="68.6"/>
		<rect id="c111" x="449.2" y="151.1" class="st1" width="25" height="68.6"/>
		<polygon id="c112" class="st1" points="477.1,210.4 483.9,210.4 483.5,219.7 489.9,219.7 500.4,153 477.1,151.1 		"/>
		<polygon id="c113" class="st1" points="492.8,219.7 502.9,219.7 512.8,205.3 508.2,201.4 524.3,159.8 503.1,153.9 		"/>
		<polygon id="c114" class="st1" points="511.6,200.5 519.5,207.2 546.1,172 526.9,161 		"/>
	</g>
	<g id="tr-d">
		<polygon id="d111_1_" class="st1" points="521.7,456.8 533.7,446.5 570.4,469.1 547.9,492.6 		"/>
		<polygon id="d110" class="st1" points="571.9,466.6 583.7,438.1 527.4,423 527.4,448.2 533.5,443.1 		"/>
		<polygon id="d109" class="st1" points="527.4,419.9 527.4,411.5 588,411.5 584.4,435.4 		"/>
		<rect id="d108" x="527.4" y="377.1" class="st1" width="60.6" height="31.6"/>
		<rect id="d107" x="527.4" y="348.9" class="st1" width="60.6" height="25.4"/>
		<rect id="d106" x="527.4" y="318.6" class="st1" width="60.6" height="27.4"/>
		<rect id="d105" x="527.4" y="291.9" class="st1" width="60.6" height="23.8"/>
		<rect id="d104" x="527.4" y="257.6" class="st1" width="60.6" height="31.5"/>
		<polygon id="d103" class="st1" points="527.4,254.7 527.4,246.3 585.3,230.8 588,254.7 		"/>
		<polygon id="d102" class="st1" points="527.4,243.2 527.4,217.7 533.5,222.6 571.6,199.5 584.3,228.2 		"/>
		<polygon id="d101" class="st1" points="521.8,209.1 533.6,219.1 570.1,197.1 548.6,173.8 		"/>
	</g>
</g>
<path class="st3" d="M712,332.4c0-0.1,0-0.2,0-0.3l0,0C711.7,138.5,580.4,8.5,360.8,8.5C144.5,8.5,9.9,138.5,9.7,332.1l0,0
	c0,0.1,0,0.2,0,0.3c0,0.1,0,0.2,0,0.3l0,0C10,526.3,144.5,656.3,360.9,656.3c219.5,0,350.9-130,351.2-323.6l0,0
	C712,332.6,712,332.5,712,332.4z"/>
<g id="text">
	<g>
		<g>
			<path class="st4" d="M338,36.2h-2.7v8.1h-0.6v-8.1H332v-0.5h5.9V36.2z"/>
			<path class="st4" d="M338.6,37.7h0.5l0,1.1c0.1-0.3,0.8-1.3,2.3-1.3c1.8,0,3,1.1,3,3.2c0,2.2-1,3.6-3.1,3.6c-1.3,0-2-0.8-2.1-0.9
				v4h-0.5V37.7z M339.2,39.3V43c0.1,0.2,0.7,0.9,1.9,0.9c1.9,0,2.7-1.2,2.7-3.2c0-1.9-1-2.8-2.6-2.8
				C339.8,38,339.3,39.1,339.2,39.3z"/>
			<path class="st4" d="M346.3,37.7h0.5v5.7l4.3-5.6l0-0.2h0.5v6.5h-0.5v-5.6l-4.3,5.5l0,0.1h-0.5V37.7z"/>
			<path class="st4" d="M354.2,39.2c0.5-1,1.3-1.6,2.7-1.6c2,0,3.1,1.3,3.1,3.4c0,2.1-1.1,3.4-3.1,3.4c-2.1,0-3.1-1.3-3.1-3.5
				c0-3.8,0.5-5.9,3.5-6.3l2-0.3l0.1,0.5l-1.9,0.2C355.2,35.3,354.4,36.6,354.2,39.2z M356.8,44c1.7,0,2.5-1.1,2.5-3
				c0-1.9-0.8-3-2.5-3c-1.6,0-2.5,1.2-2.5,2.7V41C354.3,42.8,355.1,44,356.8,44z"/>
			<path class="st4" d="M361.6,47.1c0.9,0,1.5-1.4,2.1-2.9l-2.9-6.5h0.6l2.6,6l2.3-6h0.6l-2.7,6.6c-0.7,1.8-1.5,3.3-2.5,3.3
				c-0.4,0-0.6-0.2-0.6-0.2l0.1-0.4C361.2,47,361.4,47.1,361.6,47.1z"/>
			<path class="st4" d="M368.5,37.7h0.5v2.9h4.1v-2.9h0.6v6.5h-0.6v-3.1H369v3.1h-0.5V37.7z"/>
			<path class="st4" d="M379.9,43.1c-0.1,0.3-0.7,1.3-2.2,1.3c-1.5,0-2.3-0.7-2.3-1.8c0-1.9,2.9-2.2,4.5-2.4v-0.4
				c0-1.3-0.5-1.9-1.8-1.9c-1.3,0-1.9,0.8-1.9,0.8l-0.3-0.3c0,0,0.6-0.9,2.3-0.9c1.6,0,2.3,0.7,2.3,2.3v4.4H380L379.9,43.1z
				 M379.9,42.6v-2c-1.6,0.1-3.9,0.4-3.9,1.9c0,0.9,0.6,1.5,1.9,1.5C379.5,44,379.9,42.6,379.9,42.6z"/>
			<path class="st4" d="M392.8,37.3c0,0-1.1-1.2-2.7-1.2c-2.3,0-3.7,1.5-3.7,4c0,2.4,1.5,3.8,3.7,3.8c2,0,3-1.4,3-1.4l0.2,0.4
				c0,0-1,1.5-3.3,1.5c-2.6,0-4.2-1.6-4.2-4.3c0-2.7,1.7-4.5,4.3-4.5c2,0,2.9,1.3,2.9,1.3L392.8,37.3z"/>
		</g>
	</g>
	<g>
		<g>
			<path class="st4" d="M694.4,306.1v-2.5H687v-0.5h7.4v-2.4h0.4v5.4H694.4z"/>
			<path class="st4" d="M693,306.7v0.5l-1,0c0.3,0.1,1.2,0.7,1.2,2.1c0,1.6-1,2.7-2.9,2.7c-2,0-3.3-0.9-3.3-2.9
				c0-1.2,0.7-1.8,0.8-1.9H684v-0.5H693z M691.5,307.2h-3.4c-0.2,0.1-0.9,0.6-0.9,1.7c0,1.8,1.1,2.5,2.9,2.5c1.7,0,2.6-0.9,2.6-2.4
				C692.7,307.8,691.7,307.2,691.5,307.2z"/>
			<path class="st4" d="M693,313.7v0.5h-5.2l5.1,4l0.1,0v0.4h-6v-0.5h5.2l-5.1-3.9l-0.1,0v-0.5H693z"/>
			<path class="st4" d="M691.6,320.9c0.9,0.4,1.5,1.2,1.5,2.4c0,1.8-1.2,2.8-3.1,2.8c-1.9,0-3.1-1-3.1-2.8c0-1.9,1.2-2.9,3.3-2.9
				c3.5,0,5.4,0.5,5.7,3.2l0.2,1.9l-0.5,0l-0.2-1.8C695.2,321.8,694,321.1,691.6,320.9z M687.3,323.3c0,1.6,1,2.3,2.7,2.3
				s2.7-0.7,2.7-2.3c0-1.5-1.1-2.3-2.5-2.3H690C688.3,321,687.3,321.8,687.3,323.3z"/>
			<path class="st4" d="M684.3,327.7c0,0.8,1.3,1.4,2.7,1.9l6-2.7v0.6l-5.5,2.4l5.5,2.1v0.6l-6.1-2.4c-1.6-0.6-3.1-1.4-3.1-2.3
				c0-0.4,0.2-0.6,0.2-0.6l0.4,0.1C684.4,327.3,684.3,327.5,684.3,327.7z"/>
			<path class="st4" d="M693,334v0.5h-2.7v3.7h2.7v0.5h-6v-0.5h2.9v-3.7H687V334H693z"/>
			<path class="st4" d="M688.1,344.5c-0.3-0.1-1.2-0.6-1.2-2c0-1.4,0.6-2.1,1.7-2.1c1.7,0,2,2.7,2.2,4.1h0.4c1.2,0,1.7-0.5,1.7-1.7
				c0-1.2-0.7-1.7-0.7-1.7l0.2-0.3c0,0,0.8,0.6,0.8,2.1c0,1.5-0.7,2.1-2.1,2.1H687v-0.4L688.1,344.5z M688.5,344.5h1.8
				c-0.1-1.5-0.4-3.6-1.7-3.6c-0.9,0-1.3,0.6-1.3,1.7C687.3,344.1,688.5,344.5,688.5,344.5z"/>
			<path class="st4" d="M690.9,357.2c-2.5,0-3.9-1.5-3.9-4v-2.6h7.8v2.6C694.8,355.7,693.4,357.2,690.9,357.2z M694.4,351.2h-6.9
				v2.1c0,2.1,1.2,3.4,3.4,3.4c2.3,0,3.5-1.3,3.5-3.5V351.2z"/>
		</g>
	</g>
	<g>
		<g>
			<path class="st4" d="M27.7,352.5v2.5h7.4v0.5h-7.4v2.4h-0.4v-5.4H27.7z"/>
			<path class="st4" d="M29.1,351.9v-0.5l1,0c-0.3-0.1-1.2-0.7-1.2-2.1c0-1.6,1-2.7,2.9-2.7c2,0,3.3,0.9,3.3,2.9
				c0,1.2-0.7,1.8-0.8,1.9h3.7v0.5H29.1z M30.6,351.4H34c0.2-0.1,0.9-0.6,0.9-1.7c0-1.8-1.1-2.5-2.9-2.5c-1.7,0-2.6,0.9-2.6,2.4
				C29.4,350.8,30.4,351.3,30.6,351.4z"/>
			<path class="st4" d="M29.1,344.9v-0.5h5.2l-5.1-4l-0.1,0V340h6v0.5h-5.2l5.1,3.9l0.1,0v0.5H29.1z"/>
			<path class="st4" d="M30.5,337.7c-0.9-0.4-1.5-1.2-1.5-2.4c0-1.8,1.2-2.8,3.1-2.8c1.9,0,3.1,1,3.1,2.8c0,1.9-1.2,2.9-3.3,2.9
				c-3.5,0-5.4-0.5-5.7-3.2L26,333l0.5,0l0.2,1.8C27,336.8,28.1,337.5,30.5,337.7z M34.9,335.3c0-1.6-1-2.3-2.7-2.3
				c-1.7,0-2.7,0.7-2.7,2.3c0,1.5,1.1,2.3,2.5,2.3h0.3C33.8,337.6,34.9,336.8,34.9,335.3z"/>
			<path class="st4" d="M37.8,330.8c0-0.8-1.3-1.4-2.7-1.9l-6,2.7V331l5.5-2.4l-5.5-2.1V326l6.1,2.4c1.6,0.6,3.1,1.4,3.1,2.3
				c0,0.4-0.2,0.6-0.2,0.6l-0.4-0.1C37.7,331.2,37.8,331.1,37.8,330.8z"/>
			<path class="st4" d="M29.1,324.6v-0.5h2.7v-3.7h-2.7v-0.5h6v0.5h-2.9v3.7h2.9v0.5H29.1z"/>
			<path class="st4" d="M34.1,314.1c0.3,0.1,1.2,0.6,1.2,2c0,1.4-0.6,2.1-1.7,2.1c-1.7,0-2-2.7-2.2-4.1h-0.4c-1.2,0-1.7,0.5-1.7,1.7
				c0,1.2,0.7,1.7,0.7,1.7l-0.2,0.3c0,0-0.8-0.6-0.8-2.1c0-1.5,0.7-2.1,2.1-2.1h4.1v0.4L34.1,314.1z M33.6,314.1h-1.8
				c0.1,1.5,0.4,3.6,1.7,3.6c0.9,0,1.3-0.6,1.3-1.7C34.9,314.5,33.6,314.1,33.6,314.1z"/>
			<path class="st4" d="M27.3,307.9v-2.1c0-1.7,0.7-2.5,1.9-2.5c1,0,1.5,0.6,1.8,1.2c0.2-1,0.9-1.6,1.9-1.6c1.4,0,2.2,0.8,2.2,3v2.1
				H27.3z M30.9,305.4c0-0.5-0.3-1.6-1.6-1.6c-1,0-1.5,0.8-1.5,2.1v1.6h3.2V305.4z M31.3,307.5h3.5v-1.6c0-1.8-0.6-2.5-1.8-2.5
				c-1.1,0-1.6,0.8-1.6,2V307.5z"/>
		</g>
	</g>
	<g>
		<g>
			<path class="st4" d="M338,621.9h-2.7v8.1h-0.6v-8.1H332v-0.5h5.9V621.9z"/>
			<path class="st4" d="M338.6,623.4h0.5l0,1.1c0.1-0.3,0.8-1.3,2.3-1.3c1.8,0,3,1.1,3,3.2c0,2.2-1,3.6-3.1,3.6
				c-1.3,0-2-0.8-2.1-0.9v4h-0.5V623.4z M339.2,625v3.7c0.1,0.2,0.7,0.9,1.9,0.9c1.9,0,2.7-1.2,2.7-3.2c0-1.9-1-2.8-2.6-2.8
				C339.8,623.7,339.3,624.8,339.2,625z"/>
			<path class="st4" d="M346.3,623.4h0.5v5.7l4.3-5.6l0-0.2h0.5v6.5h-0.5v-5.6l-4.3,5.5l0,0.1h-0.5V623.4z"/>
			<path class="st4" d="M354.2,624.9c0.5-1,1.3-1.6,2.7-1.6c2,0,3.1,1.3,3.1,3.4c0,2.1-1.1,3.4-3.1,3.4c-2.1,0-3.1-1.3-3.1-3.5
				c0-3.8,0.5-5.9,3.5-6.3l2-0.3l0.1,0.5l-1.9,0.2C355.2,621.1,354.4,622.3,354.2,624.9z M356.8,629.7c1.7,0,2.5-1.1,2.5-3
				c0-1.9-0.8-3-2.5-3c-1.6,0-2.5,1.2-2.5,2.7v0.3C354.3,628.6,355.1,629.7,356.8,629.7z"/>
			<path class="st4" d="M361.6,632.9c0.9,0,1.5-1.4,2.1-2.9l-2.9-6.5h0.6l2.6,6l2.3-6h0.6l-2.7,6.6c-0.7,1.8-1.5,3.3-2.5,3.3
				c-0.4,0-0.6-0.2-0.6-0.2l0.1-0.4C361.2,632.8,361.4,632.9,361.6,632.9z"/>
			<path class="st4" d="M368.5,623.4h0.6v2.9h4.1v-2.9h0.5v6.5h-0.5v-3.1H369v3.1h-0.6V623.4z"/>
			<path class="st4" d="M379.9,628.8c-0.1,0.3-0.7,1.3-2.2,1.3c-1.5,0-2.3-0.7-2.3-1.8c0-1.9,2.9-2.2,4.5-2.4v-0.4
				c0-1.3-0.5-1.9-1.8-1.9c-1.3,0-1.9,0.8-1.9,0.8l-0.3-0.3c0,0,0.6-0.9,2.3-0.9c1.6,0,2.3,0.7,2.3,2.3v4.4H380L379.9,628.8z
				 M379.9,628.3v-2c-1.6,0.1-3.9,0.4-3.9,1.9c0,0.9,0.6,1.5,1.9,1.5C379.5,629.7,379.9,628.3,379.9,628.3z"/>
			<path class="st4" d="M389.6,621.5l3.4,8.5h-0.6l-1-2.4h-4.5l-1,2.4h-0.6l3.4-8.5H389.6z M387.1,627.1h4.1l-2.1-5.2L387.1,627.1z"
				/>
		</g>
	</g>
</g>
</svg>
