<?xml version="1.0" encoding="utf-8"?>
<!-- Generator: Adobe Illustrator 20.1.0, SVG Export Plug-In . SVG Version: 6.00 Build 0)  -->
<svg version="1.1" id="find-place-plan" xmlns="http://www.w3.org/2000/svg" xmlns:xlink="http://www.w3.org/1999/xlink" x="0px" y="0px"
	 viewBox="0 0 1032 848" style="enable-background:new 0 0 1032 848;" xml:space="preserve">
<g>
	<rect x="357.8" y="411.4" class="st0" width="313.5" height="208.2"/>
	<path class="st1" d="M665.1,613h-301V417.3h301V613z M364.8,612.3h299.7V417.9H364.8V612.3z"/>
	<rect x="515" y="417.9" class="st1" width="0.6" height="194.4"/>
	<path class="st1" d="M412,573.1h-47.9V456.4H412V573.1z M364.8,572.5h46.6V457.1h-46.6V572.5L364.8,572.5z"/>
	<polygon class="st1" points="380.3,541.4 364.2,541.4 364.2,540.8 379.7,540.8 379.7,488.8 364.2,488.8 364.2,488.2 380.3,488.2
		"/>
	<path class="st1" d="M514.9,541.1c-14.5,0-26.4-11.8-26.4-26.4c0-14.5,11.8-26.4,26.4-26.4c14.5,0,26.4,11.8,26.4,26.4
		C541.3,529.3,529.5,541.1,514.9,541.1z M514.9,488.9c-14.2,0-25.8,11.6-25.8,25.8c0,14.2,11.6,25.8,25.8,25.8
		c14.2,0,25.8-11.6,25.8-25.8C540.7,500.5,529.1,488.9,514.9,488.9z"/>
	<path class="st1" d="M411.8,536.1l-0.4-0.5c6.7-4.8,10.7-12.6,10.7-20.9s-4-16.1-10.8-20.9l0.4-0.5c6.9,4.9,11,13,11,21.5
		C422.7,523.2,418.6,531.2,411.8,536.1z"/>
	<path class="st1" d="M665.1,572.5h-47.9V455.8h47.9V572.5z M617.9,571.8h46.6V456.4h-46.6V571.8z"/>
	<polygon class="st1" points="664.8,540.7 649,540.7 649,487.5 664.8,487.5 664.8,488.1 649.6,488.1 649.6,540.1 664.8,540.1 	"/>
	<path class="st1" d="M617.4,535.3c-6.8-4.9-10.6-12.4-10.6-21.1c0-8.7,3.8-16.2,10.6-21.1l0.4,0.5c-6.7,4.8-10.3,12.1-10.3,20.6
		c0,8.5,3.7,15.9,10.3,20.6L617.4,535.3z"/>
	<circle class="st1" cx="515.4" cy="514.5" r="1.3"/>
	<path class="st1" d="M364.5,424.3v-0.6c3.4,0,6.1-2.7,6.1-6.1h0.6C371.2,421.3,368.2,424.3,364.5,424.3z"/>
	<path class="st1" d="M371.2,612.6h-0.6c0-3.4-2.7-6.1-6.1-6.1v-0.6C368.2,605.9,371.2,608.9,371.2,612.6z"/>
	<path class="st1" d="M664.9,424.3c-3.7,0-6.7-3-6.7-6.7h0.6c0,3.4,2.7,6.1,6.1,6.1V424.3z"/>
	<path class="st1" d="M658.7,612.6h-0.6c0-3.7,3-6.7,6.7-6.7v0.6C661.5,606.6,658.7,609.3,658.7,612.6z"/>
	<polyline class="st2" points="371.2,533.1 371.2,509.5 364.8,503.1 364.8,525.9 358.8,525.9 365.8,533.1 371.2,533.1 	"/>
	<path class="st1" d="M364.8,525.9h-6V503h6V525.9z M359.4,525.3h4.8v-21.6h-4.8V525.3z"/>
	<polyline class="st2" points="676.9,533 676.9,509.4 670.6,503 670.6,525.8 664.5,525.8 671.5,533 676.9,533 	"/>
	<path class="st1" d="M670.5,525.9h-6V503h6V525.9z M665.1,525.3h4.8v-21.6h-4.8V525.3z"/>
</g>
<g id="_x32_yar">
	<g id="tr-c2" class="j_svg_platform">
		<polygon id="c201" class="st1" points="308.4,271.8 285.5,286.5 326.3,343.1 339.8,335.2 		"/>
		<polygon id="c202" class="st1" points="357.9,328.2 342,334.4 310.5,270.9 348.2,256.6 352.4,274.1 341.8,277.9 		"/>
		<polygon id="c203" class="st1" points="369.2,263.9 353,267.2 355.1,275.7 344.7,279.3 360,327.4 377.7,323.1 		"/>
		<polygon id="c204" class="st1" points="397.3,321.9 379.9,322.8 371.7,263.6 378.1,262.9 377.1,251.7 397.3,251.7 		"/>
		<rect id="c205" x="399.6" y="251.7" class="st1" width="14.6" height="70.2"/>
		<polygon id="c206" class="st1" points="438.7,251.7 416.5,251.7 416.5,312.9 425.1,312.9 425.1,321.9 438.7,321.9 		"/>
		<rect id="c207" x="440.9" y="251.7" class="st1" width="24.1" height="70.2"/>
		<rect id="c208" x="467.3" y="251.7" class="st1" width="17.5" height="70.2"/>
		<polygon id="c209" class="st1" points="487.1,251.7 487.1,321.9 502.1,321.9 502.1,313.1 512.7,313.1 512.7,251.7 		"/>
		<polygon id="c210" class="st1" points="515,313.1 526,313.1 526,321.9 540.7,321.9 540.7,251.7 515,251.7 		"/>
		<rect id="c211" x="542.9" y="251.7" class="st1" width="17.3" height="70.2"/>
		<rect id="c214" x="613.8" y="251.7" class="st1" width="14.6" height="70.2"/>
		<rect id="c212" x="562.5" y="251.7" class="st1" width="24.4" height="70.2"/>
		<polygon id="c213" class="st1" points="589.2,251.7 611.5,251.7 611.5,313.1 603.2,313.1 603.2,321.9 589.2,321.9 		"/>
		<polygon id="c215" class="st1" points="630.7,251.7 650.4,252.1 649.8,262.9 655.6,263.3 647.4,322.5 630.7,321.9 		"/>
		<polygon id="c216" class="st1" points="657.9,263.6 674.5,266.7 672.3,275.5 683.3,279.1 668.8,326.9 649.7,322.7 		"/>
		<polygon id="c217" class="st1" points="675,274 679.6,256.7 717.5,270.6 686.1,333.9 671,327.5 686.1,277.6 		"/>
		<polygon id="c218" class="st1" points="688.1,335 719.7,271.4 742.4,285.5 701.3,342.7 		"/>
	</g>
	<g id="tr-d2" class="j_svg_platform">
		<polygon id="d201" class="st1" points="703.5,344 716.2,355.5 738.5,332.9 735.3,329.8 758.6,299 744.4,287.2 		"/>
		<polygon id="d202" class="st1" points="717.8,357.1 728.7,369.2 785.6,327.9 779.8,320.9 743.3,337.8 740.1,334.6 		"/>
		<polygon id="d203" class="st1" points="730.5,371.4 738.4,384.9 801.1,353.2 787,330.3 		"/>
		<polygon id="d204" class="st1" points="739.5,386.9 746.5,402.6 812.7,379 802,355.3 		"/>
		<polygon id="d205" class="st1" points="747.4,405.1 751,422.9 814.1,414.3 812.4,402.7 818.7,401.5 813.3,381.4 		"/>
		<polygon id="d206" class="st1" points="751.5,425.1 752.2,443.5 822,443.5 822,415.5 		"/>
		<path id="d207" class="st1" d="M821.9,445.7v18.7h-69.7v-18.7H821.9z"/>
		<rect id="d208" x="752.2" y="466.8" class="st1" width="69.7" height="17.6"/>
		<polygon id="d209" class="st1" points="821.9,486.6 821.9,513.7 761,513.7 761,508 752.2,508 752.2,486.6 		"/>
		<polygon id="d210" class="st1" points="821.9,516 821.9,543.8 752.2,543.8 752.2,522.7 761,522.7 761,516 		"/>
		<rect id="d211" x="752.2" y="546.1" class="st1" width="69.7" height="17.7"/>
		<rect id="d212" x="752.2" y="566.1" class="st1" width="69.7" height="18.3"/>
		<polygon id="d213" class="st1" points="752.2,586.7 751.4,604.6 821.5,614.5 821.9,586.7 		"/>
		<polygon id="d214" class="st1" points="750.9,606.8 746.8,625.3 813.9,648.2 819.1,629.3 812.1,627.6 814.5,615.8 		"/>
		<polygon id="d215" class="st1" points="746.3,627.7 739.7,643.2 802.7,676 813.3,650.5 		"/>
		<polygon id="d216" class="st1" points="801.7,678.1 786.9,700.8 730.5,658.7 738.8,645.3 		"/>
		<polygon id="d217" class="st1" points="785.4,702.6 779.6,709.5 743.5,692.8 740.2,696 717.7,673.6 729.3,660.7 		"/>
		<polygon id="d218" class="st1" points="738.6,697.7 735.1,701.2 758.3,732.3 745.1,743.1 703.6,686.2 716.2,675.3 		"/>
	</g>
	<g id="tr-a2" class="j_svg_platform">
		<polygon id="a201" class="st1" points="743.1,744.5 719.5,758.7 687.3,696.4 701.7,687.9 		"/>
		<polygon id="a202" class="st1" points="685.3,697.5 669.7,703.1 686.6,753.4 675,756.8 679.7,774 717.5,759.8 		"/>
		<polygon id="a203" class="st1" points="674.6,764 658.6,766.8 650.5,708 667.5,703.7 683.7,751.8 672.3,755.2 		"/>
		<polygon id="a204" class="st1" points="656.4,767.2 649.7,768.2 650.5,779.3 630.3,779.3 630.3,709.5 648.3,708.5 		"/>
		<rect id="a205" x="613.3" y="709.7" class="st1" width="14.7" height="69.6"/>
		<polygon id="a206" class="st1" points="611,779.3 589.2,779.3 589.2,709.7 603.3,709.7 603.3,718.4 611,718.4 		"/>
		<rect id="a207" x="566.6" y="709.7" class="st1" width="20.3" height="69.6"/>
		<polygon id="apress" class="st1" points="529.1,709.7 529.1,718.4 498.5,718.4 498.5,709.7 464.2,709.7 464.2,779.3 564.3,779.3
			564.3,709.7 		"/>
		<rect id="a212" x="440.6" y="709.7" class="st1" width="21.4" height="69.6"/>
		<polygon id="a213" class="st1" points="438.4,709.7 425.3,709.7 425.3,718.2 416.4,718.2 416.4,779.3 438.4,779.3 		"/>
		<rect id="a214" x="399.6" y="709.7" class="st1" width="14.5" height="69.6"/>
		<polygon id="a215" class="st1" points="397.3,779.2 377.4,779.2 378.5,768.2 371.9,767.6 379.7,708.6 397.3,709.7 		"/>
		<polygon id="a216" class="st1" points="369.7,767.2 353,764.1 355.6,754.7 344.2,751.4 360.1,703.7 377.5,708.2 		"/>
		<polygon id="a217" class="st1" points="353,756.1 347.9,773.7 310.2,759.5 342.3,697.1 357.9,703.3 341.6,752.9 		"/>
		<polygon id="a218" class="st1" points="308.3,758.7 285.4,745.1 325.9,687.3 340.2,696.2 		"/>
	</g>
	<g id="tr-b2" class="j_svg_platform">
		<polygon id="b218" class="st1" points="283.4,287.8 269.1,299.1 292.6,329.5 289.5,332.8 312,355.6 324,344.3 		"/>
		<polygon id="b217" class="st1" points="310.2,357.1 299.6,369.1 242.7,327.9 248.1,320.7 284.9,337.8 287.9,334.4 		"/>
		<polygon id="b216" class="st1" points="297.9,371.2 289.6,384.9 226.5,353.1 241.3,329.8 		"/>
		<polygon id="b215" class="st1" points="288.4,386.8 282.1,402.8 214.8,380 225.3,355 		"/>
		<polygon id="b214" class="st1" points="281.2,405 277.4,423 217.7,414.6 219.2,405.1 209,402.7 214.3,382.6 		"/>
		<polygon id="b213" class="st1" points="276.9,425.2 276.1,442.9 206,442.9 206.5,415.2 		"/>
		<rect id="b212" x="206" y="445.2" class="st1" width="70.1" height="18.5"/>
		<rect id="b211" x="206" y="466" class="st1" width="70.1" height="19.6"/>
		<polygon id="b210" class="st1" points="266.5,507.4 276.1,507.4 276.1,487.9 206,487.9 206,514.2 266.5,514.2 		"/>
		<polygon id="b209" class="st1" points="266.5,522.8 266.5,516.5 206,516.5 206,542.3 276.1,542.3 276.1,522.8 		"/>
		<rect id="b208" x="206" y="544.7" class="st1" width="70.1" height="19.6"/>
		<rect id="b207" x="206" y="566.5" class="st1" width="70.1" height="18"/>
		<polygon id="b206" class="st1" points="206,586.8 207,613.9 276.7,604.4 276.1,586.8 		"/>
		<polygon id="b205" class="st1" points="217.8,614.7 219.5,625 208.8,627.2 213.8,647.6 281.4,625.2 276.7,606.7 		"/>
		<polygon id="b204" class="st1" points="281.9,627.9 288.1,643.1 225.9,675.5 214.5,649.9 		"/>
		<polygon id="b203" class="st1" points="240.6,699.9 227,677.5 289.4,644.9 297.4,658.6 		"/>
		<polygon id="b202" class="st1" points="247.9,709.2 284.5,692.9 287.7,696.2 309.7,673.5 298.8,660.7 241.9,701.8 		"/>
		<polygon id="b201" class="st1" points="283.5,743.6 268.8,731.4 292.8,700.9 289.4,697.7 311.4,675.1 324,686 		"/>
	</g>
</g>
<g id="_x31_yar">
	<g id="tr-a" class="j_svg_platform">
		<polygon id="a113" class="st1" points="364.4,648.5 348.4,687.6 328.7,676.5 354.5,641.7 		"/>
		<polygon id="a112" class="st1" points="382.9,628.3 371.2,628.3 361.7,643.1 368.3,647.6 351.1,688.6 372.6,694.7 		"/>
		<polygon id="a111" class="st1" points="406.7,637.7 398.5,637.7 398.5,628.3 385.6,628.3 375.5,695 406.7,696.2 		"/>
		<rect id="a110" x="409.6" y="628.3" class="st1" width="16.4" height="67.9"/>
		<rect id="a109" x="428.7" y="628.3" class="st1" width="36" height="67.9"/>
		<rect id="a108" x="467.6" y="628.3" class="st1" width="16" height="67.9"/>
		<polygon id="a107" class="st1" points="486.4,628.3 504.1,628.3 504.1,643.8 524.3,643.8 524.3,628.3 541.9,628.3 541.9,696.2
			486.4,696.2 		"/>
		<rect id="a106" x="544.8" y="628.3" class="st1" width="16.4" height="67.9"/>
		<rect id="a105" x="564" y="628.3" class="st1" width="35.2" height="67.9"/>
		<rect id="a104" x="602.1" y="628.3" class="st1" width="16.5" height="67.9"/>
		<polygon id="a103" class="st1" points="621.5,637.5 630.3,637.5 630.3,628.3 642.4,628.3 653,694.7 621.5,696.2 		"/>
		<polygon id="a102" class="st1" points="645.3,628.3 656.6,628.3 666.1,642.3 659.5,647.8 675.7,688.7 655.8,693.9 		"/>
		<polygon id="a101" class="st1" points="672.4,640.7 663,648.7 678.4,687.9 698.6,676.2 		"/>
	</g>
	<g id="tr-b" class="j_svg_platform">
		<polygon id="b101" class="st1" points="352.4,640.1 345.8,635.7 313.7,662.2 326.6,674.9 		"/>
		<polygon id="b102" class="st1" points="349.4,613.3 349.4,634.7 345.8,632.1 311.6,660.2 297.3,637.8 		"/>
		<polygon id="b103" class="st1" points="349.3,602.3 349.3,610 296.1,635 289.5,615.4 		"/>
		<polygon id="b104" class="st1" points="349.3,590.9 349.3,599.5 288.8,612.6 287.4,590.9 		"/>
		<rect id="b105" x="287.4" y="568.6" class="st1" width="62" height="19.5"/>
		<rect id="b106" x="287.4" y="546.6" class="st1" width="62" height="19"/>
		<rect id="b107" x="287.4" y="516.2" class="st1" width="61.9" height="27.6"/>
		<rect id="b108" x="287.4" y="486.8" class="st1" width="61.9" height="26.5"/>
		<rect id="b109" x="287.4" y="465.1" class="st1" width="61.9" height="18.8"/>
		<rect id="b110" x="287.4" y="441.9" class="st1" width="61.9" height="20.4"/>
		<polygon id="b111" class="st1" points="349.3,439 349.3,430.2 289.2,416.6 287.4,439 		"/>
		<polygon id="b112" class="st1" points="349.3,427.3 349.3,419.5 296.2,394.9 290,413.8 		"/>
		<polygon id="b113" class="st1" points="349.3,416.2 349.3,396.4 345.8,398.8 311.6,370.3 297.9,392.3 		"/>
		<polygon id="b114" class="st1" points="345.8,395.2 353.3,390.5 326.8,355.8 313.6,368.2 		"/>
	</g>
	<g id="tr-c" class="j_svg_platform">
		<polygon id="c101" class="st1" points="355.8,388.8 365.2,382.6 348,343.2 329.3,353.7 		"/>
		<polygon id="c102" class="st1" points="362.6,387.8 371.7,401.7 382.9,401.7 372.4,335.7 350.8,342.1 368.9,383.8 		"/>
		<polygon id="c103" class="st1" points="385.8,401.7 391.5,401.7 391.5,392.4 397.7,392.4 397.7,333.4 375.2,334.8 		"/>
		<rect id="c104" x="400.6" y="333.1" class="st1" width="25.3" height="68.6"/>
		<rect id="c105" x="428.7" y="333.1" class="st1" width="23.6" height="68.6"/>
		<rect id="c106" x="455.3" y="333.1" class="st1" width="27.7" height="68.6"/>
		<rect id="c107" x="485.9" y="333.1" class="st1" width="26.5" height="68.6"/>
		<polygon id="c108" class="st1" points="515.3,401.7 542.1,401.7 542.1,333.1 515.2,333.1 		"/>
		<rect id="c109" x="545" y="333.1" class="st1" width="27.1" height="68.6"/>
		<rect id="c110" x="574.9" y="333.1" class="st1" width="24.4" height="68.6"/>
		<rect id="c111" x="602.2" y="333.1" class="st1" width="25" height="68.6"/>
		<polygon id="c112" class="st1" points="630.1,392.4 636.9,392.4 636.5,401.7 642.9,401.7 653.4,335 630.1,333.1 		"/>
		<polygon id="c113" class="st1" points="645.8,401.7 655.9,401.7 665.8,387.3 661.2,383.4 677.3,341.8 656.1,335.9 		"/>
		<polygon id="c114" class="st1" points="664.6,382.5 672.5,389.2 699.1,354 679.9,343 		"/>
	</g>
	<g id="tr-d" class="j_svg_platform">
		<polygon id="d111_1_" class="st1" points="674.7,638.8 686.7,628.5 723.4,651.1 700.9,674.6 		"/>
		<polygon id="d110" class="st1" points="724.9,648.6 736.7,620.1 680.4,605 680.4,630.2 686.5,625.1 		"/>
		<polygon id="d109" class="st1" points="680.4,601.9 680.4,593.5 741,593.5 737.4,617.4 		"/>
		<rect id="d108" x="680.4" y="559.1" class="st1" width="60.6" height="31.6"/>
		<rect id="d107" x="680.4" y="530.9" class="st1" width="60.6" height="25.4"/>
		<rect id="d106" x="680.4" y="500.6" class="st1" width="60.6" height="27.4"/>
		<rect id="d105" x="680.4" y="473.9" class="st1" width="60.6" height="23.8"/>
		<rect id="d104" x="680.4" y="439.6" class="st1" width="60.6" height="31.5"/>
		<polygon id="d103" class="st1" points="680.4,436.7 680.4,428.3 738.3,412.8 741,436.7 		"/>
		<polygon id="d102" class="st1" points="680.4,425.2 680.4,399.7 686.5,404.6 724.6,381.5 737.3,410.2 		"/>
		<polygon id="d101" class="st1" points="674.8,391.1 686.6,401.1 723.1,379.1 701.6,355.8 		"/>
	</g>
</g>
<path class="st3" d="M865,514.4c0-0.1,0-0.2,0-0.3l0,0c-0.3-193.6-131.6-323.6-351.2-323.6c-216.3,0-350.9,130-351.1,323.6l0,0
	c0,0.1,0,0.2,0,0.3s0,0.2,0,0.3l0,0c0.3,193.6,134.8,323.6,351.2,323.6c219.5,0,350.9-130,351.2-323.6l0,0
	C865,514.6,865,514.5,865,514.4z"/>
<rect x="498.4" y="35.4" transform="matrix(7.997949e-03 -1 1 7.997949e-03 458.8896 565.3926)" class="st1" width="32.1" height="32.1"/>
<path class="st1" d="M9.6,128.9l37.4,42l62.5,71.7c4.4,5.1,12.2,5.6,17.3,1.2l41.4-36.1c5.1-4.4,5.6-12.2,1.2-17.3L101.9,113
	c-2.5-2.8-6-4.3-9.5-4.2l0.1-0.1l-40.6,3.6l-36,3.2C9.3,116.1,5.9,123.5,9.6,128.9z"/>
<path class="st1" d="M999.6,121.3l-37.2,42.2l-62.1,72c-4.4,5.1-12.2,5.7-17.3,1.3L841.5,201c-5.1-4.4-5.7-12.2-1.3-17.3l67-77.8
	c2.5-2.9,6-4.3,9.5-4.2l-0.1-0.1l40.7,3.4l36,3C999.8,108.5,1003.3,115.9,999.6,121.3z"/>
<path class="st1" d="M195,116.1c7.8-0.7,8.8-7.2,8.8-7.2l-0.7-7.4c0,0-0.7-4.8-5.3-4.4c-4.6,0.4-6.3,0.6-6.3,0.6s-33.3,3.1-56.6,5.3
	c-23.4,2.2-15.2,15.1-15.2,15.1l63.2,70.1c0,0,5.4,6.3,14.9-0.5c7.6-5.4,16.9-12.4,20.4-15c1.8-1.4,3.2-3.3,3.9-5.4
	c0.8-2.7,0.7-6.6-2.8-11.1l-11.1-17.8c0,0-1.6-3.4-11.3-2.4"/>
<path class="st1" d="M230.2,154.1l-9.9-15.1c-2.7-4.1-4.4-8.9-4.8-13.8l-1.8-19.3c0,0,0.7-9.3,11.7-10.3s83.9-7.8,83.9-7.8
	s8.3-1.3,11.7,4.9c3.4,6.2,6.7,13.9,6.7,13.9s1.8,7.9-6.8,11.9c-4.9,2.3-11.1,5-15.5,6.9c-3.1,1.3-6.7,0-8.2-3l-7.2-14.3l-22.9,10.8
	l6.5,14.5c0,0,2.6,5.1-6.8,10.4c-9.4,5.2-30,13.8-30,13.8S233.3,158.8,230.2,154.1z"/>
<rect x="174.3" y="115.3" transform="matrix(-9.256973e-02 -0.9957 0.9957 -9.256973e-02 74.733 322.2054)" class="st1" width="19.7" height="23.5"/>
<path class="st1" d="M822.8,184.8l59.1-72.7c2.1-2.6,2.9-6.1,1.9-9.3c-0.8-2.4-2.6-4.8-6.5-5.5c-9.2-1.7-69.3-5-69.3-5
	s-10.9-1.5-10.7,10.2c0.2,11.8,1.2,32.4-11.1,49.2c-8.5,11.5,4.4,19.9,4.4,19.9l15.3,12.4C805.9,184,814.4,192.3,822.8,184.8z"/>
<path class="st1" d="M677.8,107.1l1.8-7.5c1.3-5.4,5.8-9.5,11.3-10.2c3.2-0.4,7.4-0.6,12.9-0.3c8.7,0.5,12.2,0.5,19,0.8
	c24.2,0.9,55.4,0.4,55.4,0.4s8.2-0.8,8.9,8.7s-0.5,39.8-8.5,47.8s-13.3,8.9-19.8,5.1c-6.5-3.8-70.9-33.6-70.9-33.6
	S676.1,114.3,677.8,107.1z"/>
<path class="st1" d="M964.5,286.1l-20-26.3c0,0-4.3-5.9,6.5-16.8c10.8-10.9,29.5-31.9,29.5-31.9s6.3-3.5,6.1,3.5
	c-0.2,7-1.6,54.8-1.6,54.8s-0.7,5.7-4.8,8.8c-4.2,3.1-10.4,7.5-10.4,7.5S966.3,288.4,964.5,286.1z"/>
<path class="st1" d="M932,306.8l18.5-10.4c0,0,3-2.8,0.9-6.7c-2.1-3.9-15.4-24-15.4-24s-2.9-4.7-7.5-1.3
	c-4.6,3.4-16.2,13.8-16.2,13.8s-3.3,4.1,3,12.3C921.6,298.5,925.5,310.4,932,306.8z"/>
<g>
	<path class="st4" d="M457.5,120.7h4.4v-7.6h1.1v7.6h1l-0.1,3h-0.9v-2.1h-6.6v-8.5h1.1V120.7z"/>
	<path class="st4" d="M471.1,120.5c0,0-0.7,1.3-2.6,1.3s-3.2-1.1-3.2-3.3c0-2.2,1.2-3.6,3.1-3.6c1.7,0,2.7,1.1,2.7,3
		c0,0.5-0.1,0.7-0.1,0.7h-4.7v0c0,1.5,0.8,2.3,2.2,2.3c1.4,0,1.9-0.9,1.9-0.9L471.1,120.5z M466.4,117.8h3.8c0,0,0,0,0-0.2
		c0-1.2-0.6-2-1.8-2C467.1,115.7,466.5,116.6,466.4,117.8z"/>
	<path class="st4" d="M472.7,115.1h1.1v2.7h3.5v-2.7h1v6.5h-1v-2.9h-3.5v2.9h-1.1V115.1z"/>
	<path class="st4" d="M482.7,115.9v5.7h-1v-5.7h-2.1v-0.8h5.2v0.8H482.7z"/>
	<path class="st4" d="M486,115.1h0.9l0.1,0.9c0.1-0.3,0.7-1.1,2.2-1.1c1.8,0,3,1.2,3,3.3c0,2.1-1.1,3.6-3.1,3.6c-1.4,0-2-0.8-2-0.8
		v3.9h-1V115.1z M487.1,116.9v3.2c0.1,0.1,0.5,0.9,1.7,0.9c1.7,0,2.4-1,2.4-2.8c0-1.7-0.8-2.5-2.2-2.5
		C487.5,115.7,487.1,116.8,487.1,116.9z"/>
	<path class="st4" d="M497.6,120.6c-0.1,0.3-0.6,1.1-2.1,1.1c-1.5,0-2.3-0.7-2.3-1.9c0-1.9,2.8-2.3,4.4-2.4v-0.2
		c0-1.1-0.5-1.6-1.6-1.6c-1.2,0-1.7,0.7-1.7,0.7l-0.6-0.5c0,0,0.6-1,2.4-1c1.7,0,2.5,0.7,2.5,2.4v4.3h-0.9L497.6,120.6z
		 M497.5,119.8v-1.6c-1.5,0.1-3.3,0.4-3.3,1.6c0,0.8,0.5,1.2,1.5,1.2C497.1,121,497.5,119.9,497.5,119.8z"/>
	<path class="st4" d="M506,121.6h-1.1v-5.7h-2.5c0,3.9-0.5,5.8-2.2,5.8c-0.1,0-0.2,0-0.3,0v-0.8h0.1c1.1,0,1.4-1.6,1.4-5.8h4.6
		V121.6z"/>
	<path class="st4" d="M509.2,117.5h1.3c1.6,0,2.9,0.5,2.9,2c0,1.5-1,2.1-2.9,2.1h-2.4v-6.5h1.1V117.5z M509.2,118.2v2.6h1.3
		c1.2,0,1.8-0.4,1.8-1.4c0-1-0.9-1.3-1.9-1.3H509.2z"/>
	<path class="st4" d="M515,115.1h1.1v2.7h3.5v-2.7h1v6.5h-1v-2.9h-3.5v2.9H515V115.1z"/>
	<path class="st4" d="M523.9,117.5h1.3c1.6,0,2.9,0.5,2.9,2c0,1.5-1,2.1-2.9,2.1h-2.4v-6.5h1.1V117.5z M523.9,118.2v2.6h1.3
		c1.2,0,1.8-0.4,1.8-1.4c0-1-0.9-1.3-1.9-1.3H523.9z M530.5,121.6h-1v-6.5h1V121.6z"/>
	<path class="st4" d="M532.7,115.1h1.1v4.9l3.7-4.6l0.1-0.3h0.9v6.5h-1v-4.8l-3.7,4.6l-0.1,0.2h-0.9V115.1z M537,112.6L537,112.6
		l0.9,0.1c0,0-0.3,1.3-2.3,1.3c-2,0-2.3-1.3-2.3-1.3l0.8-0.1l0.1,0c0,0,0.3,0.8,1.4,0.8C536.7,113.4,537,112.6,537,112.6z"/>
	<path class="st4" d="M549.2,116.8c0,0.8-0.5,1.2-1,1.4c0.7,0.2,1.3,0.7,1.3,1.5c0,1.1-0.6,1.9-2.8,1.9h-2.5v-6.5h2.6
		C548.6,115.1,549.2,115.8,549.2,116.8z M546.9,118c0.2,0,1.2-0.1,1.2-1.1c0-0.6-0.3-1.1-1.4-1.1h-1.5v2.1H546.9z M545.2,118.5v2.3
		h1.5c1.5,0,1.8-0.6,1.8-1.2c0-0.6-0.5-1.1-1.6-1.1H545.2z"/>
	<path class="st4" d="M554.1,118.3l2.6,3.3h-1.2l-2-2.7h0l-2,2.7h-1.2l2.6-3.3l-2.5-3.2h1.2l2,2.6h0l1.9-2.6h1.2L554.1,118.3z"/>
	<path class="st4" d="M560.7,121.8c-2.1,0-3.2-1.3-3.2-3.4s1.1-3.4,3.2-3.4c2.1,0,3.2,1.3,3.2,3.4S562.8,121.8,560.7,121.8z
		 M558.6,118.3c0,1.6,0.7,2.6,2.2,2.6c1.5,0,2.2-1,2.2-2.6c0-1.6-0.7-2.6-2.2-2.6C559.2,115.7,558.6,116.7,558.6,118.3z"/>
	<path class="st4" d="M572.1,123.4h-0.8l-0.1-1.9h-5.6l-0.1,1.9h-0.7l-0.1-2.7h0.9c0.6-1.5,0.8-3.2,0.8-5.7h4.6v5.7h1.1L572.1,123.4
		z M566.7,120.8h3.5v-4.9h-2.8C567.4,117.9,567.2,119.4,566.7,120.8z"/>
</g>
<g>
	<g>
		<path class="st5" d="M489,210.9h-2.5v7.6h-1.1v-7.6h-2.5V210h6.2V210.9z"/>
		<path class="st5" d="M489.6,212h0.9l0.1,0.9c0.1-0.3,0.7-1.1,2.2-1.1c1.8,0,3,1.2,3,3.3c0,2.1-1.1,3.6-3.1,3.6c-1.4,0-2-0.8-2-0.8
			v3.9h-1V212z M490.6,213.8v3.2c0.1,0.1,0.5,0.9,1.7,0.9c1.7,0,2.4-1,2.4-2.8c0-1.7-0.8-2.5-2.2-2.5
			C491.1,212.6,490.6,213.7,490.6,213.8z"/>
		<path class="st5" d="M497.3,212h1.1v4.9l3.7-4.6l0.1-0.3h0.9v6.5h-1v-4.8l-3.7,4.6l-0.1,0.2h-0.9V212z"/>
		<path class="st5" d="M505.8,213c0.5-0.7,1.3-1.2,2.4-1.2c2,0,3.1,1.3,3.1,3.4s-1.2,3.4-3.2,3.4c-2.2,0-3.3-1.3-3.3-3.7
			c0-3.5,0.5-5.7,3.7-6.1l2.1-0.3l0.1,1l-1.8,0.2C507,210,506.1,211,505.8,213z M506,214.9v0.3c0,1.7,0.7,2.6,2.2,2.6
			c1.5,0,2.2-1,2.2-2.6s-0.7-2.6-2.2-2.6C506.7,212.6,506,213.6,506,214.9z"/>
		<path class="st5" d="M513.1,221c0.8,0,1.4-1.1,1.9-2.5l-2.9-6.5h1.2l2.2,5.4h0l1.9-5.4h1.2l-2.6,6.7c-0.8,1.9-1.6,3.3-2.7,3.3
			c-0.6,0-0.9-0.2-0.9-0.2l0.2-0.9C512.6,220.8,512.8,221,513.1,221z"/>
		<path class="st5" d="M519.9,212h1.1v2.7h3.5V212h1v6.5h-1v-2.9H521v2.9h-1.1V212z"/>
		<path class="st5" d="M531.5,217.5c-0.1,0.3-0.6,1.1-2.1,1.1c-1.5,0-2.3-0.7-2.3-1.9c0-1.9,2.8-2.3,4.4-2.4v-0.2
			c0-1.1-0.5-1.6-1.6-1.6c-1.2,0-1.7,0.7-1.7,0.7l-0.6-0.5c0,0,0.6-1,2.4-1c1.7,0,2.5,0.7,2.5,2.4v4.3h-0.9L531.5,217.5z
			 M531.5,216.8v-1.6c-1.5,0.1-3.3,0.4-3.3,1.6c0,0.8,0.5,1.2,1.5,1.2C531,217.9,531.4,216.9,531.5,216.8z"/>
		<path class="st5" d="M544.7,211.9c0,0-1.1-1.1-2.5-1.1c-2.1,0-3.3,1.4-3.3,3.5c0,2.1,1.3,3.4,3.2,3.4c1.9,0,2.9-1.3,2.9-1.3
			l0.4,0.7c0,0-0.9,1.5-3.4,1.5c-2.7,0-4.3-1.7-4.3-4.3s1.7-4.5,4.4-4.5c2.1,0,3,1.3,3,1.3L544.7,211.9z"/>
	</g>
</g>
<g>
	<g>
		<path class="st6" d="M847.5,485.1v-2.5h-7.6v-1.1h7.6v-2.5h0.9v6.2H847.5z"/>
		<path class="st6" d="M846.4,485.6v0.9l-0.9,0.1c0.3,0.1,1.1,0.7,1.1,2.2c0,1.8-1.2,3-3.3,3c-2.1,0-3.6-1.1-3.6-3.1
			c0-1.4,0.8-2,0.8-2h-3.9v-1H846.4z M844.5,486.7h-3.2c-0.1,0.1-0.9,0.5-0.9,1.7c0,1.7,1,2.4,2.8,2.4c1.7,0,2.5-0.8,2.5-2.2
			C845.7,487.1,844.6,486.7,844.5,486.7z"/>
		<path class="st6" d="M846.4,493.4v1.1h-4.9l4.6,3.7l0.3,0.1v0.9h-6.5v-1h4.8l-4.6-3.7l-0.2-0.1v-0.9H846.4z"/>
		<path class="st6" d="M845.4,501.9c0.7,0.5,1.2,1.3,1.2,2.4c0,2-1.3,3.1-3.4,3.1s-3.4-1.2-3.4-3.2c0-2.2,1.3-3.3,3.7-3.3
			c3.5,0,5.7,0.5,6.1,3.7l0.3,2.1l-1,0.1l-0.2-1.8C848.4,503,847.4,502.2,845.4,501.9z M843.4,502h-0.3c-1.7,0-2.6,0.7-2.6,2.2
			c0,1.5,1,2.2,2.6,2.2s2.6-0.7,2.6-2.2C845.8,502.8,844.8,502.1,843.4,502z"/>
		<path class="st6" d="M837.4,509.2c0,0.8,1.1,1.4,2.5,1.9l6.5-2.9v1.2l-5.4,2.2v0l5.4,1.9v1.2l-6.7-2.6c-1.9-0.8-3.3-1.6-3.3-2.7
			c0-0.6,0.2-0.9,0.2-0.9l0.9,0.2C837.5,508.6,837.4,508.9,837.4,509.2z"/>
		<path class="st6" d="M846.4,516v1.1h-2.7v3.5h2.7v1h-6.5v-1h2.9v-3.5h-2.9V516H846.4z"/>
		<path class="st6" d="M840.8,527.5c-0.3-0.1-1.1-0.6-1.1-2.1c0-1.5,0.7-2.3,1.9-2.3c1.9,0,2.3,2.8,2.4,4.4h0.2
			c1.1,0,1.6-0.5,1.6-1.6c0-1.2-0.7-1.7-0.7-1.7l0.5-0.6c0,0,1,0.6,1,2.4c0,1.7-0.7,2.5-2.4,2.5h-4.3v-0.9L840.8,527.5z
			 M841.6,527.5h1.6c-0.1-1.5-0.4-3.3-1.6-3.3c-0.8,0-1.2,0.5-1.2,1.5C840.4,527.1,841.5,527.5,841.6,527.5z"/>
		<path class="st6" d="M848.3,534.6v3c0,2.8-1.5,4.4-4.3,4.4c-2.7,0-4.2-1.6-4.2-4.4v-3H848.3z M847.4,535.7h-6.6v2
			c0,2.1,1.1,3.3,3.3,3.3s3.3-1.2,3.3-3.3V535.7z"/>
	</g>
</g>
<g>
	<g>
		<path class="st7" d="M491.3,811.2h-2.5v7.6h-1.1v-7.6h-2.5v-0.9h6.2V811.2z"/>
		<path class="st7" d="M491.8,812.2h0.9l0.1,0.9c0.1-0.3,0.7-1.1,2.2-1.1c1.8,0,3,1.2,3,3.3c0,2.1-1.1,3.6-3.1,3.6
			c-1.4,0-2-0.8-2-0.8v3.9h-1V812.2z M492.8,814.1v3.2c0.1,0.1,0.5,0.9,1.7,0.9c1.7,0,2.4-1,2.4-2.8c0-1.7-0.8-2.5-2.2-2.5
			C493.3,812.9,492.9,814,492.8,814.1z"/>
		<path class="st7" d="M499.6,812.2h1.1v4.9l3.7-4.6l0.1-0.3h0.9v6.5h-1v-4.8l-3.7,4.6l-0.1,0.2h-0.9V812.2z"/>
		<path class="st7" d="M508.1,813.2c0.5-0.7,1.3-1.2,2.4-1.2c2,0,3.1,1.3,3.1,3.4s-1.2,3.4-3.2,3.4c-2.2,0-3.3-1.3-3.3-3.7
			c0-3.5,0.5-5.7,3.7-6.1l2.1-0.3l0.1,1l-1.8,0.2C509.2,810.2,508.3,811.2,508.1,813.2z M508.2,815.2v0.3c0,1.7,0.7,2.6,2.2,2.6
			c1.5,0,2.2-1,2.2-2.6s-0.7-2.6-2.2-2.6C508.9,812.8,508.2,813.9,508.2,815.2z"/>
		<path class="st7" d="M515.4,821.2c0.8,0,1.4-1.1,1.9-2.5l-2.9-6.5h1.2l2.2,5.4h0l1.9-5.4h1.2l-2.6,6.7c-0.8,1.9-1.6,3.3-2.7,3.3
			c-0.6,0-0.9-0.2-0.9-0.2l0.2-0.9C514.8,821.1,515.1,821.2,515.4,821.2z"/>
		<path class="st7" d="M522.2,812.2h1.1v2.7h3.5v-2.7h1v6.5h-1v-2.9h-3.5v2.9h-1.1V812.2z"/>
		<path class="st7" d="M533.7,817.8c-0.1,0.3-0.6,1.1-2.1,1.1c-1.5,0-2.3-0.7-2.3-1.9c0-1.9,2.8-2.3,4.4-2.4v-0.2
			c0-1.1-0.5-1.6-1.6-1.6c-1.2,0-1.7,0.7-1.7,0.7l-0.6-0.5c0,0,0.6-1,2.4-1c1.7,0,2.5,0.7,2.5,2.4v4.3h-0.9L533.7,817.8z M533.7,817
			v-1.6c-1.5,0.1-3.3,0.4-3.3,1.6c0,0.8,0.5,1.2,1.5,1.2C533.3,818.2,533.7,817.1,533.7,817z"/>
		<path class="st7" d="M544.4,810.3l3.3,8.5h-1.1l-0.9-2.2h-4.1l-0.9,2.2h-1.1l3.3-8.5H544.4z M541.8,815.8h3.5l-1.8-4.7
			L541.8,815.8z"/>
	</g>
</g>
<g>
	<g>
		<path class="st8" d="M179.1,538.4v2.5h7.6v1.1h-7.6v2.5h-0.9v-6.2H179.1z"/>
		<path class="st8" d="M180.1,537.9V537l0.9-0.1c-0.3-0.1-1.1-0.7-1.1-2.2c0-1.8,1.2-3,3.3-3c2.1,0,3.6,1.1,3.6,3.1
			c0,1.4-0.8,2-0.8,2h3.9v1H180.1z M182,536.9h3.2c0.1-0.1,0.9-0.5,0.9-1.7c0-1.7-1-2.4-2.8-2.4c-1.7,0-2.5,0.8-2.5,2.2
			C180.8,536.4,181.9,536.8,182,536.9z"/>
		<path class="st8" d="M180.1,530.1v-1.1h4.9l-4.6-3.7l-0.3-0.1v-0.9h6.5v1h-4.8l4.6,3.7l0.2,0.1v0.9H180.1z"/>
		<path class="st8" d="M181.1,521.6c-0.7-0.5-1.2-1.3-1.2-2.4c0-2,1.3-3.1,3.4-3.1s3.4,1.2,3.4,3.2c0,2.2-1.3,3.3-3.7,3.3
			c-3.5,0-5.7-0.5-6.1-3.7l-0.3-2.1l1-0.1l0.2,1.8C178.1,520.5,179.1,521.4,181.1,521.6z M183.1,521.5h0.3c1.7,0,2.6-0.7,2.6-2.2
			c0-1.5-1-2.2-2.6-2.2s-2.6,0.7-2.6,2.2C180.7,520.8,181.7,521.5,183.1,521.5z"/>
		<path class="st8" d="M189.1,514.3c0-0.8-1.1-1.4-2.5-1.9l-6.5,2.9v-1.2l5.4-2.2v0l-5.4-1.9v-1.2l6.7,2.6c1.9,0.8,3.3,1.6,3.3,2.7
			c0,0.6-0.2,0.9-0.2,0.9l-0.9-0.2C189,514.9,189.1,514.6,189.1,514.3z"/>
		<path class="st8" d="M180.1,507.5v-1.1h2.7V503h-2.7v-1h6.5v1h-2.9v3.5h2.9v1.1H180.1z"/>
		<path class="st8" d="M185.7,496c0.3,0.1,1.1,0.6,1.1,2.1c0,1.5-0.7,2.3-1.9,2.3c-1.9,0-2.3-2.8-2.4-4.4h-0.2
			c-1.1,0-1.6,0.5-1.6,1.6c0,1.2,0.7,1.7,0.7,1.7l-0.5,0.6c0,0-1-0.6-1-2.4c0-1.7,0.7-2.5,2.4-2.5h4.3v0.9L185.7,496z M184.9,496
			h-1.6c0.1,1.5,0.4,3.3,1.6,3.3c0.8,0,1.2-0.5,1.2-1.5C186.1,496.4,185,496,184.9,496z"/>
		<path class="st8" d="M178.2,489v-2.6c0-2,0.9-2.9,2.1-2.9c0.9,0,1.5,0.5,1.8,1.1c0.3-1,1.1-1.5,2.1-1.5c1.5,0,2.4,0.9,2.4,3.3v2.6
			H178.2z M181.9,486c0-0.5-0.3-1.4-1.5-1.4c-1,0-1.4,0.7-1.4,1.9v1.5h2.9V486z M182.6,488h3.2v-1.6c0-1.7-0.6-2.4-1.7-2.4
			c-1,0-1.5,0.7-1.5,1.8V488z"/>
	</g>
</g>
<g>
	<line class="st9" x1="513.6" y1="136" x2="513.6" y2="170.7"/>
	<polyline class="st9" points="518.5,165.8 513.6,170.7 508.7,165.8 	"/>
</g>
</svg>
