<?xml version="1.0" encoding="utf-8"?>
<!-- Generator: Adobe Illustrator 19.1.0, SVG Export Plug-In . SVG Version: 6.00 Build 0)  -->
<svg version="1.1" id="Layer_1" xmlns="http://www.w3.org/2000/svg" xmlns:xlink="http://www.w3.org/1999/xlink" x="0px" y="0px"
	 viewBox="0 0 38.6 29.7" style="enable-background:new 0 0 38.6 29.7;" xml:space="preserve">
<style type="text/css">
	.st0{fill:#FFFFFF;}
</style>
<path class="st0" d="M32.6,7.7c-0.6,0.3-1.2,0.5-1.9,0.6c0.7-0.7,1.2-1.5,1.5-2.4l0,0c0.1-0.3-0.2-0.5-0.4-0.4l0,0
	C30.9,6,30,6.4,29,6.7c-0.1,0-0.1,0-0.2,0c-0.2,0-0.4-0.1-0.5-0.2c-1.1-0.9-2.4-1.5-3.8-1.5c-0.6,0-1.2,0.1-1.8,0.3
	c-1.9,0.6-3.3,2.1-3.8,4.1c-0.2,0.7-0.2,1.4-0.1,2.1c0,0.1,0,0.1-0.1,0.2c0,0-0.1,0.1-0.2,0.1c0,0,0,0,0,0C14.3,11.4,10.6,9.4,8,6.2
	l0,0C7.8,6,7.6,6,7.5,6.2l0,0C6.9,7.1,6.7,8.1,6.7,9.1c0,1.6,0.6,3.1,1.7,4.1c-0.5-0.1-0.9-0.3-1.3-0.5l0,0c-0.2-0.1-0.4,0-0.5,0.3
	l0,0c0,2.3,1.3,4.4,3.4,5.4c0,0-0.1,0-0.1,0c-0.3,0-0.7,0-1-0.1l0,0c-0.2,0-0.4,0.2-0.3,0.4l0,0c0.7,2.1,2.5,3.6,4.6,4
	c-1.8,1.2-3.8,1.8-6,1.8l-0.7,0c-0.2,0-0.4,0.1-0.4,0.3c-0.1,0.2,0,0.4,0.2,0.5c2.4,1.4,5.2,2.2,8,2.2c2.5,0,4.8-0.5,6.8-1.5
	c1.9-0.9,3.6-2.1,5-3.8c1.3-1.5,2.4-3.2,3.1-5.1c0.7-1.8,1-3.8,1-5.6v-0.1c0-0.3,0.1-0.6,0.4-0.8c0.9-0.7,1.7-1.6,2.3-2.5l0,0
	C33.1,7.9,32.8,7.6,32.6,7.7L32.6,7.7z"/>
</svg>
