<?xml version="1.0" encoding="utf-8"?>
<!-- Generator: Adobe Illustrator 19.1.0, SVG Export Plug-In . SVG Version: 6.00 Build 0)  -->
<svg version="1.1" id="Layer_1" xmlns="http://www.w3.org/2000/svg" xmlns:xlink="http://www.w3.org/1999/xlink" x="0px" y="0px"
	 viewBox="0 0 24.7 23.3" style="enable-background:new 0 0 24.7 23.3;" xml:space="preserve">
<style type="text/css">
	.st0{fill:#FFFFFF;}
</style>
<g>
	
		<rect x="15.7" y="9.2" transform="matrix(-0.8896 0.4568 -0.4568 -0.8896 35.3998 10.7291)" class="st0" width="1.4" height="0.9"/>
	
		<rect x="16.6" y="10.8" transform="matrix(-0.8896 0.4568 -0.4568 -0.8896 37.7095 13.4076)" class="st0" width="1.4" height="0.9"/>
	<path class="st0" d="M15.1,5.3l0.2,0.6c0.2,0.5,0,1.1-0.5,1.3c-0.5,0.2-1,0.1-1.3-0.3l-0.3-0.5L1.8,12.1l5,9.7L18.1,16l-0.2-0.6
		c-0.2-0.5,0-1.1,0.5-1.3c0.5-0.2,1-0.1,1.3,0.3l0.3,0.5l2.5-1.3l-5-9.7L15.1,5.3z M20.8,13.1l-0.3,0.1c-0.5-0.4-1.1-0.6-1.8-0.6
		l-0.3-0.5l-1.2,0.6l0.2,0.4c-0.6,0.5-1,1.3-0.9,2.1L7.4,20l-3.7-7.3L12.8,8c0.6,0.5,1.5,0.7,2.3,0.5l0.1,0.2l1.2-0.6l-0.2-0.4
		c0.4-0.5,0.6-1.1,0.6-1.8L17,5.8L20.8,13.1z"/>
	<rect x="6.3" y="11.7" transform="matrix(-0.8896 0.4568 -0.4568 -0.8896 23.1795 18.7636)" class="st0" width="6" height="1"/>
	<rect x="7.9" y="15.3" transform="matrix(-0.8896 0.4568 -0.4568 -0.8896 24.0435 25.7193)" class="st0" width="2" height="1"/>
</g>
</svg>
